<?xml version="1.0" encoding="UTF-8" standalone="no"?>
<svg
   xmlns:dc="http://purl.org/dc/elements/1.1/"
   xmlns:cc="http://creativecommons.org/ns#"
   xmlns:rdf="http://www.w3.org/1999/02/22-rdf-syntax-ns#"
   xmlns:svg="http://www.w3.org/2000/svg"
   xmlns="http://www.w3.org/2000/svg"
   id="svg330"
   height="19.25mm"
   width="55.479999mm"
   version="1.0">
  <metadata
     id="metadata334">
    <rdf:RDF>
      <cc:Work
         rdf:about="">
        <dc:format>image/svg+xml</dc:format>
        <dc:type
           rdf:resource="http://purl.org/dc/dcmitype/StillImage" />
      </cc:Work>
    </rdf:RDF>
  </metadata>
  <defs
     id="defs6">
    <clipPath
       id="clipWmfPath1"
       clipPathUnits="userSpaceOnUse">
      <path
         id="path2"
         d="M 0,0 L 209.58373,0 L 209.58373,72.651458 L 0,72.651458 z" />
    </clipPath>
    <pattern
       y="0"
       x="0"
       height="6"
       width="6"
       patternUnits="userSpaceOnUse"
       id="WMFhbasepattern" />
  </defs>
  <path
     id="path8"
     d="  M 112.32461,6.7985768   L 112.32461,14.99686   L 113.72451,14.99686   L 113.72451,9.2647272   L 115.92434,14.99686   L 117.52421,14.99686   L 117.52421,6.7985768   L 116.12432,6.7985768   L 116.12432,12.464057   L 113.99115,6.7985768   L 112.32461,6.7985768  z "
     clip-path="url(#clipWmfPath1)"
     style="fill:#000000;fill-rule:evenodd;fill-opacity:1;stroke:none;" />
  <path
     id="path10"
     d="  M 112.32461,6.7985768   L 112.32461,14.99686   L 113.72451,14.99686   L 113.72451,9.2647272   L 115.92434,14.99686   L 117.52421,14.99686   L 117.52421,6.7985768   L 116.12432,6.7985768   L 116.12432,12.464057   L 113.99115,6.7985768   L 112.32461,6.7985768  z "
     clip-path="url(#clipWmfPath1)"
     style="fill:none;stroke:#000000;stroke-width:0.066661492px;stroke-linecap:round;stroke-linejoin:round;stroke-miterlimit:4;stroke-dasharray:none;stroke-opacity:1;" />
  <path
     id="path12"
     d="  M 123.79039,6.731924   L 120.19067,15.130166   L 120.92395,15.130166   L 124.52367,6.731924   L 123.79039,6.731924  z "
     clip-path="url(#clipWmfPath1)"
     style="fill:#000000;fill-rule:evenodd;fill-opacity:1;stroke:none;" />
  <path
     id="path14"
     d="  M 123.79039,6.731924   L 120.19067,15.130166   L 120.92395,15.130166   L 124.52367,6.731924   L 123.79039,6.731924  z "
     clip-path="url(#clipWmfPath1)"
     style="fill:none;stroke:#000000;stroke-width:0.066661492px;stroke-linecap:round;stroke-linejoin:round;stroke-miterlimit:4;stroke-dasharray:none;stroke-opacity:1;" />
  <path
     id="path16"
     d="  M 131.52312,9.3313799   L 131.3898,8.1982837   L 130.98983,7.3317985   L 130.25656,6.7985768   L 129.12331,6.5986186   L 128.32337,6.6652713   L 127.72342,6.9318822   L 127.32345,7.3984512   L 127.0568,7.9316729   L 126.79016,9.3313799   L 126.79016,10.931045   L 126.79016,12.53071   L 127.0568,13.930417   L 127.32345,14.463639   L 127.72342,14.863555   L 128.32337,15.130166   L 129.12331,15.196819   L 130.25656,14.99686   L 130.98983,14.530292   L 131.3898,13.663806   L 131.52312,12.464057   L 130.12323,12.464057   L 129.92325,13.530501   L 129.6566,13.930417   L 129.52328,13.99707   L 129.12331,14.063723   L 128.59002,13.930417   L 128.32337,13.530501   L 128.19005,12.464057   L 128.19005,9.3313799   L 128.32337,8.2649365   L 128.59002,7.8650202   L 129.12331,7.7317147   L 129.6566,7.8650202   L 129.92325,8.2649365   L 130.12323,9.3313799   L 131.52312,9.3313799  z "
     clip-path="url(#clipWmfPath1)"
     style="fill:#000000;fill-rule:evenodd;fill-opacity:1;stroke:none;" />
  <path
     id="path18"
     d="  M 131.52312,9.3313799   L 131.3898,8.1982837   L 130.98983,7.3317985   L 130.25656,6.7985768   L 129.12331,6.5986186   L 128.32337,6.6652713   L 127.72342,6.9318822   L 127.32345,7.3984512   L 127.0568,7.9316729   L 126.79016,9.3313799   L 126.79016,10.931045   L 126.79016,12.53071   L 127.0568,13.930417   L 127.32345,14.463639   L 127.72342,14.863555   L 128.32337,15.130166   L 129.12331,15.196819   L 130.25656,14.99686   L 130.98983,14.530292   L 131.3898,13.663806   L 131.52312,12.464057   L 130.12323,12.464057   L 129.92325,13.530501   L 129.6566,13.930417   L 129.52328,13.99707   L 129.12331,14.063723   L 128.59002,13.930417   L 128.32337,13.530501   L 128.19005,12.464057   L 128.19005,9.3313799   L 128.32337,8.2649365   L 128.59002,7.8650202   L 129.12331,7.7317147   L 129.6566,7.8650202   L 129.92325,8.2649365   L 130.12323,9.3313799   L 131.52312,9.3313799  z "
     clip-path="url(#clipWmfPath1)"
     style="fill:none;stroke:#000000;stroke-width:0.066661492px;stroke-linecap:round;stroke-linejoin:round;stroke-miterlimit:4;stroke-dasharray:none;stroke-opacity:1;" />
  <path
     id="path20"
     d="  M 9.065963,22.661923   L 9.065963,23.461755   L 5.9995343,23.461755   L 5.9995343,22.661923   L 9.065963,22.661923  z "
     clip-path="url(#clipWmfPath1)"
     style="fill:#000000;fill-rule:evenodd;fill-opacity:1;stroke:none;" />
  <path
     id="path22"
     d="  M 9.065963,22.661923   L 9.065963,23.461755   L 5.9995343,23.461755   L 5.9995343,22.661923   L 9.065963,22.661923  z "
     clip-path="url(#clipWmfPath1)"
     style="fill:none;stroke:#000000;stroke-width:0.066661492px;stroke-linecap:round;stroke-linejoin:round;stroke-miterlimit:4;stroke-dasharray:none;stroke-opacity:1;" />
  <path
     id="path24"
     d="  M 11.732423,18.929371   L 11.732423,27.127654   L 13.132314,27.127654   L 13.132314,24.794809   L 13.598944,23.928324   L 15.065497,27.127654   L 16.598712,27.127654   L 14.532205,22.395312   L 16.53205,18.929371   L 14.998836,18.929371   L 13.132314,22.062048   L 13.132314,18.929371   L 11.732423,18.929371  z "
     clip-path="url(#clipWmfPath1)"
     style="fill:#000000;fill-rule:evenodd;fill-opacity:1;stroke:none;" />
  <path
     id="path26"
     d="  M 11.732423,18.929371   L 11.732423,27.127654   L 13.132314,27.127654   L 13.132314,24.794809   L 13.598944,23.928324   L 15.065497,27.127654   L 16.598712,27.127654   L 14.532205,22.395312   L 16.53205,18.929371   L 14.998836,18.929371   L 13.132314,22.062048   L 13.132314,18.929371   L 11.732423,18.929371  z "
     clip-path="url(#clipWmfPath1)"
     style="fill:none;stroke:#000000;stroke-width:0.066661492px;stroke-linecap:round;stroke-linejoin:round;stroke-miterlimit:4;stroke-dasharray:none;stroke-opacity:1;" />
  <path
     id="path28"
     d="  M 19.265171,18.929371   L 19.265171,27.127654   L 23.331522,27.127654   L 23.331522,25.861253   L 20.665063,25.861253   L 20.665063,23.528408   L 23.064876,23.528408   L 23.064876,22.195354   L 20.665063,22.195354   L 20.665063,20.262425   L 23.331522,20.262425   L 23.331522,18.929371   L 19.265171,18.929371  z "
     clip-path="url(#clipWmfPath1)"
     style="fill:#000000;fill-rule:evenodd;fill-opacity:1;stroke:none;" />
  <path
     id="path30"
     d="  M 19.265171,18.929371   L 19.265171,27.127654   L 23.331522,27.127654   L 23.331522,25.861253   L 20.665063,25.861253   L 20.665063,23.528408   L 23.064876,23.528408   L 23.064876,22.195354   L 20.665063,22.195354   L 20.665063,20.262425   L 23.331522,20.262425   L 23.331522,18.929371   L 19.265171,18.929371  z "
     clip-path="url(#clipWmfPath1)"
     style="fill:none;stroke:#000000;stroke-width:0.066661492px;stroke-linecap:round;stroke-linejoin:round;stroke-miterlimit:4;stroke-dasharray:none;stroke-opacity:1;" />
  <path
     id="path32"
     d="  M 25.997982,18.929371   L 28.064488,23.795019   L 28.064488,27.127654   L 29.531041,27.127654   L 29.531041,23.795019   L 31.597547,18.929371   L 29.997672,18.929371   L 28.797765,22.128701   L 27.597858,18.929371   L 25.997982,18.929371  z "
     clip-path="url(#clipWmfPath1)"
     style="fill:#000000;fill-rule:evenodd;fill-opacity:1;stroke:none;" />
  <path
     id="path34"
     d="  M 25.997982,18.929371   L 28.064488,23.795019   L 28.064488,27.127654   L 29.531041,27.127654   L 29.531041,23.795019   L 31.597547,18.929371   L 29.997672,18.929371   L 28.797765,22.128701   L 27.597858,18.929371   L 25.997982,18.929371  z "
     clip-path="url(#clipWmfPath1)"
     style="fill:none;stroke:#000000;stroke-width:0.066661492px;stroke-linecap:round;stroke-linejoin:round;stroke-miterlimit:4;stroke-dasharray:none;stroke-opacity:1;" />
  <path
     id="path36"
     d="  M 34.264007,27.127654   L 34.264007,18.929371   L 35.930544,18.929371   L 36.997128,18.996023   L 37.863728,19.262634   L 38.463681,19.862509   L 38.663666,20.928952   L 38.463681,22.062048   L 37.797066,22.728575   L 38.263697,22.995186   L 38.597004,23.461755   L 38.86365,24.728157   L 38.663666,25.7946   L 38.197035,26.52778   L 37.263774,26.994349   L 35.930544,27.127654   L 34.264007,27.127654   L 35.663898,19.995814   L 35.997206,19.995814   L 36.930467,20.262425   L 37.130451,20.928952   L 36.997128,21.995395   L 36.597159,22.195354   L 35.997206,22.262006   L 35.663898,22.262006   L 35.663898,19.995814   L 34.264007,27.127654   L 35.663898,23.32845   L 35.997206,23.32845   L 37.06379,23.661713   L 37.263774,24.06163   L 37.330436,24.728157   L 37.06379,25.7946   L 35.997206,26.061211   L 35.663898,26.061211   L 35.663898,23.32845   L 34.264007,27.127654  z "
     clip-path="url(#clipWmfPath1)"
     style="fill:#000000;fill-rule:evenodd;fill-opacity:1;stroke:none;" />
  <path
     id="path38"
     d="  M 34.264007,27.127654   L 34.264007,18.929371   L 35.930544,18.929371   L 36.997128,18.996023   L 37.863728,19.262634   L 38.463681,19.862509   L 38.663666,20.928952   L 38.463681,22.062048   L 37.797066,22.728575   L 38.263697,22.995186   L 38.597004,23.461755   L 38.86365,24.728157   L 38.663666,25.7946   L 38.197035,26.52778   L 37.263774,26.994349   L 35.930544,27.127654   L 34.264007,27.127654  z "
     clip-path="url(#clipWmfPath1)"
     style="fill:none;stroke:#000000;stroke-width:0.066661492px;stroke-linecap:round;stroke-linejoin:round;stroke-miterlimit:4;stroke-dasharray:none;stroke-opacity:1;" />
  <path
     id="path40"
     d="  M 35.663898,19.995814   L 35.997206,19.995814   L 36.930467,20.262425   L 37.130451,20.928952   L 36.997128,21.995395   L 36.597159,22.195354   L 35.997206,22.262006   L 35.663898,22.262006   L 35.663898,19.995814  z "
     clip-path="url(#clipWmfPath1)"
     style="fill:none;stroke:#000000;stroke-width:0.066661492px;stroke-linecap:round;stroke-linejoin:round;stroke-miterlimit:4;stroke-dasharray:none;stroke-opacity:1;" />
  <path
     id="path42"
     d="  M 35.663898,23.32845   L 35.997206,23.32845   L 37.06379,23.661713   L 37.263774,24.06163   L 37.330436,24.728157   L 37.06379,25.7946   L 35.997206,26.061211   L 35.663898,26.061211   L 35.663898,23.32845  z "
     clip-path="url(#clipWmfPath1)"
     style="fill:none;stroke:#000000;stroke-width:0.066661492px;stroke-linecap:round;stroke-linejoin:round;stroke-miterlimit:4;stroke-dasharray:none;stroke-opacity:1;" />
  <path
     id="path44"
     d="  M 43.863262,27.327612   L 42.730017,27.127654   L 41.99674,26.461127   L 41.663433,25.128073   L 41.53011,23.061839   L 41.663433,20.995605   L 41.99674,19.66255   L 42.730017,18.929371   L 43.863262,18.729412   L 44.996507,18.929371   L 45.729784,19.66255   L 46.063091,20.995605   L 46.196414,23.061839   L 46.063091,25.128073   L 45.729784,26.461127   L 44.996507,27.127654   L 43.863262,27.327612   L 43.863262,26.194516   L 43.396632,26.127864   L 43.129986,25.7946   L 42.930001,24.594851   L 42.930001,21.462174   L 43.129986,20.262425   L 43.396632,19.995814   L 43.863262,19.862509   L 44.329892,19.995814   L 44.6632,20.262425   L 44.796523,21.462174   L 44.796523,24.594851   L 44.6632,25.7946   L 44.329892,26.127864   L 43.863262,26.194516   L 43.863262,27.327612  z "
     clip-path="url(#clipWmfPath1)"
     style="fill:#000000;fill-rule:evenodd;fill-opacity:1;stroke:none;" />
  <path
     id="path46"
     d="  M 43.863262,27.327612   L 42.730017,27.127654   L 41.99674,26.461127   L 41.663433,25.128073   L 41.53011,23.061839   L 41.663433,20.995605   L 41.99674,19.66255   L 42.730017,18.929371   L 43.863262,18.729412   L 44.996507,18.929371   L 45.729784,19.66255   L 46.063091,20.995605   L 46.196414,23.061839   L 46.063091,25.128073   L 45.729784,26.461127   L 44.996507,27.127654   L 43.863262,27.327612  z "
     clip-path="url(#clipWmfPath1)"
     style="fill:none;stroke:#000000;stroke-width:0.066661492px;stroke-linecap:round;stroke-linejoin:round;stroke-miterlimit:4;stroke-dasharray:none;stroke-opacity:1;" />
  <path
     id="path48"
     d="  M 43.863262,26.194516   L 43.396632,26.127864   L 43.129986,25.7946   L 42.930001,24.594851   L 42.930001,21.462174   L 43.129986,20.262425   L 43.396632,19.995814   L 43.863262,19.862509   L 44.329892,19.995814   L 44.6632,20.262425   L 44.796523,21.462174   L 44.796523,24.594851   L 44.6632,25.7946   L 44.329892,26.127864   L 43.863262,26.194516  z "
     clip-path="url(#clipWmfPath1)"
     style="fill:none;stroke:#000000;stroke-width:0.066661492px;stroke-linecap:round;stroke-linejoin:round;stroke-miterlimit:4;stroke-dasharray:none;stroke-opacity:1;" />
  <path
     id="path50"
     d="  M 48.796212,27.127654   L 50.529411,18.929371   L 52.595918,18.929371   L 54.329116,27.127654   L 52.862563,27.127654   L 52.395933,25.06142   L 50.729396,25.06142   L 50.262765,27.127654   L 48.796212,27.127654   L 50.996042,23.861671   L 51.529334,21.195563   L 52.129287,23.861671   L 50.996042,23.861671   L 48.796212,27.127654  z "
     clip-path="url(#clipWmfPath1)"
     style="fill:#000000;fill-rule:evenodd;fill-opacity:1;stroke:none;" />
  <path
     id="path52"
     d="  M 48.796212,27.127654   L 50.529411,18.929371   L 52.595918,18.929371   L 54.329116,27.127654   L 52.862563,27.127654   L 52.395933,25.06142   L 50.729396,25.06142   L 50.262765,27.127654   L 48.796212,27.127654  z "
     clip-path="url(#clipWmfPath1)"
     style="fill:none;stroke:#000000;stroke-width:0.066661492px;stroke-linecap:round;stroke-linejoin:round;stroke-miterlimit:4;stroke-dasharray:none;stroke-opacity:1;" />
  <path
     id="path54"
     d="  M 50.996042,23.861671   L 51.529334,21.195563   L 52.129287,23.861671   L 50.996042,23.861671  z "
     clip-path="url(#clipWmfPath1)"
     style="fill:none;stroke:#000000;stroke-width:0.066661492px;stroke-linecap:round;stroke-linejoin:round;stroke-miterlimit:4;stroke-dasharray:none;stroke-opacity:1;" />
  <path
     id="path56"
     d="  M 56.995576,18.929371   L 56.995576,27.127654   L 58.395467,27.127654   L 58.395467,23.395102   L 59.462051,23.395102   L 60.128666,23.728366   L 60.328651,24.461546   L 60.328651,25.994558   L 60.595297,27.127654   L 61.995188,27.127654   L 61.995188,26.994349   L 61.795203,25.994558   L 61.795203,24.194935   L 61.461896,23.395102   L 60.528635,22.861881   L 61.328573,22.395312   L 61.595219,21.928743   L 61.661881,21.262216   L 61.461896,20.262425   L 60.995266,19.529245   L 60.328651,19.062676   L 59.462051,18.929371   L 56.995576,18.929371   L 58.395467,20.262425   L 58.395467,22.328659   L 59.462051,22.328659   L 59.995343,21.995395   L 60.195328,21.328868   L 59.995343,20.595688   L 59.462051,20.262425   L 58.395467,20.262425   L 56.995576,18.929371  z "
     clip-path="url(#clipWmfPath1)"
     style="fill:#000000;fill-rule:evenodd;fill-opacity:1;stroke:none;" />
  <path
     id="path58"
     d="  M 56.995576,18.929371   L 56.995576,27.127654   L 58.395467,27.127654   L 58.395467,23.395102   L 59.462051,23.395102   L 60.128666,23.728366   L 60.328651,24.461546   L 60.328651,25.994558   L 60.595297,27.127654   L 61.995188,27.127654   L 61.995188,26.994349   L 61.795203,25.994558   L 61.795203,24.194935   L 61.461896,23.395102   L 60.528635,22.861881   L 61.328573,22.395312   L 61.595219,21.928743   L 61.661881,21.262216   L 61.461896,20.262425   L 60.995266,19.529245   L 60.328651,19.062676   L 59.462051,18.929371   L 56.995576,18.929371  z "
     clip-path="url(#clipWmfPath1)"
     style="fill:none;stroke:#000000;stroke-width:0.066661492px;stroke-linecap:round;stroke-linejoin:round;stroke-miterlimit:4;stroke-dasharray:none;stroke-opacity:1;" />
  <path
     id="path60"
     d="  M 58.395467,20.262425   L 58.395467,22.328659   L 59.462051,22.328659   L 59.995343,21.995395   L 60.195328,21.328868   L 59.995343,20.595688   L 59.462051,20.262425   L 58.395467,20.262425  z "
     clip-path="url(#clipWmfPath1)"
     style="fill:none;stroke:#000000;stroke-width:0.066661492px;stroke-linecap:round;stroke-linejoin:round;stroke-miterlimit:4;stroke-dasharray:none;stroke-opacity:1;" />
  <path
     id="path62"
     d="  M 64.661648,18.929371   L 64.661648,27.127654   L 67.261446,27.127654   L 68.32803,26.794391   L 69.061306,25.861253   L 69.527937,24.528199   L 69.66126,23.061839   L 69.527937,21.528826   L 69.061306,20.195772   L 68.32803,19.262634   L 67.794738,18.996023   L 67.261446,18.929371   L 64.661648,18.929371   L 66.061539,19.995814   L 66.061539,26.061211   L 66.794815,26.061211   L 67.46143,25.7946   L 67.861399,25.128073   L 68.261368,23.061839   L 67.861399,20.928952   L 67.46143,20.262425   L 66.794815,19.995814   L 66.061539,19.995814   L 64.661648,18.929371  z "
     clip-path="url(#clipWmfPath1)"
     style="fill:#000000;fill-rule:evenodd;fill-opacity:1;stroke:none;" />
  <path
     id="path64"
     d="  M 64.661648,18.929371   L 64.661648,27.127654   L 67.261446,27.127654   L 68.32803,26.794391   L 69.061306,25.861253   L 69.527937,24.528199   L 69.66126,23.061839   L 69.527937,21.528826   L 69.061306,20.195772   L 68.32803,19.262634   L 67.794738,18.996023   L 67.261446,18.929371   L 64.661648,18.929371  z "
     clip-path="url(#clipWmfPath1)"
     style="fill:none;stroke:#000000;stroke-width:0.066661492px;stroke-linecap:round;stroke-linejoin:round;stroke-miterlimit:4;stroke-dasharray:none;stroke-opacity:1;" />
  <path
     id="path66"
     d="  M 66.061539,19.995814   L 66.061539,26.061211   L 66.794815,26.061211   L 67.46143,25.7946   L 67.861399,25.128073   L 68.261368,23.061839   L 67.861399,20.928952   L 67.46143,20.262425   L 66.794815,19.995814   L 66.061539,19.995814  z "
     clip-path="url(#clipWmfPath1)"
     style="fill:none;stroke:#000000;stroke-width:0.066661492px;stroke-linecap:round;stroke-linejoin:round;stroke-miterlimit:4;stroke-dasharray:none;stroke-opacity:1;" />
  <path
     id="path68"
     d="  M 78.527238,18.929371   L 78.527238,27.127654   L 81.127036,27.127654   L 82.19362,26.794391   L 82.926897,25.861253   L 83.393527,24.528199   L 83.52685,23.061839   L 83.393527,21.528826   L 82.926897,20.195772   L 82.19362,19.262634   L 81.660328,18.996023   L 81.127036,18.929371   L 78.527238,18.929371   L 79.927129,19.995814   L 79.927129,26.061211   L 80.660406,26.061211   L 81.327021,25.7946   L 81.72699,25.128073   L 82.126959,23.061839   L 81.72699,20.928952   L 81.327021,20.262425   L 80.660406,19.995814   L 79.927129,19.995814   L 78.527238,18.929371  z "
     clip-path="url(#clipWmfPath1)"
     style="fill:#000000;fill-rule:evenodd;fill-opacity:1;stroke:none;" />
  <path
     id="path70"
     d="  M 78.527238,18.929371   L 78.527238,27.127654   L 81.127036,27.127654   L 82.19362,26.794391   L 82.926897,25.861253   L 83.393527,24.528199   L 83.52685,23.061839   L 83.393527,21.528826   L 82.926897,20.195772   L 82.19362,19.262634   L 81.660328,18.996023   L 81.127036,18.929371   L 78.527238,18.929371  z "
     clip-path="url(#clipWmfPath1)"
     style="fill:none;stroke:#000000;stroke-width:0.066661492px;stroke-linecap:round;stroke-linejoin:round;stroke-miterlimit:4;stroke-dasharray:none;stroke-opacity:1;" />
  <path
     id="path72"
     d="  M 79.927129,19.995814   L 79.927129,26.061211   L 80.660406,26.061211   L 81.327021,25.7946   L 81.72699,25.128073   L 82.126959,23.061839   L 81.72699,20.928952   L 81.327021,20.262425   L 80.660406,19.995814   L 79.927129,19.995814  z "
     clip-path="url(#clipWmfPath1)"
     style="fill:none;stroke:#000000;stroke-width:0.066661492px;stroke-linecap:round;stroke-linejoin:round;stroke-miterlimit:4;stroke-dasharray:none;stroke-opacity:1;" />
  <path
     id="path74"
     d="  M 86.19331,18.929371   L 86.19331,27.127654   L 87.593201,27.127654   L 87.593201,18.929371   L 86.19331,18.929371  z "
     clip-path="url(#clipWmfPath1)"
     style="fill:#000000;fill-rule:evenodd;fill-opacity:1;stroke:none;" />
  <path
     id="path76"
     d="  M 86.19331,18.929371   L 86.19331,27.127654   L 87.593201,27.127654   L 87.593201,18.929371   L 86.19331,18.929371  z "
     clip-path="url(#clipWmfPath1)"
     style="fill:none;stroke:#000000;stroke-width:0.066661492px;stroke-linecap:round;stroke-linejoin:round;stroke-miterlimit:4;stroke-dasharray:none;stroke-opacity:1;" />
  <path
     id="path78"
     d="  M 94.859304,21.395521   L 94.859304,20.795647   L 94.659319,19.862509   L 94.126027,19.262634   L 93.392751,18.862718   L 92.45949,18.729412   L 91.659552,18.862718   L 90.992937,19.262634   L 90.526307,19.929161   L 90.326322,20.795647   L 90.459645,21.86209   L 91.12626,22.728575   L 92.92612,23.994977   L 93.392751,24.528199   L 93.526074,25.194726   L 93.259428,25.927905   L 92.526151,26.127864   L 91.926198,25.7946   L 91.726214,25.128073   L 91.726214,24.261588   L 90.259661,24.261588   L 90.259661,24.994767   L 90.392984,25.994558   L 90.859614,26.727738   L 91.592891,27.194307   L 92.526151,27.327612   L 93.592735,27.194307   L 94.392673,26.727738   L 94.859304,25.994558   L 94.992627,24.861462   L 94.792642,23.728366   L 93.992704,22.861881   L 92.45949,21.728785   L 91.926198,21.328868   L 91.726214,20.662341   L 91.926198,20.129119   L 92.526151,19.929161   L 93.126105,20.195772   L 93.392751,20.862299   L 93.392751,21.395521   L 94.859304,21.395521  z "
     clip-path="url(#clipWmfPath1)"
     style="fill:#000000;fill-rule:evenodd;fill-opacity:1;stroke:none;" />
  <path
     id="path80"
     d="  M 94.859304,21.395521   L 94.859304,20.795647   L 94.659319,19.862509   L 94.126027,19.262634   L 93.392751,18.862718   L 92.45949,18.729412   L 91.659552,18.862718   L 90.992937,19.262634   L 90.526307,19.929161   L 90.326322,20.795647   L 90.459645,21.86209   L 91.12626,22.728575   L 92.92612,23.994977   L 93.392751,24.528199   L 93.526074,25.194726   L 93.259428,25.927905   L 92.526151,26.127864   L 91.926198,25.7946   L 91.726214,25.128073   L 91.726214,24.261588   L 90.259661,24.261588   L 90.259661,24.994767   L 90.392984,25.994558   L 90.859614,26.727738   L 91.592891,27.194307   L 92.526151,27.327612   L 93.592735,27.194307   L 94.392673,26.727738   L 94.859304,25.994558   L 94.992627,24.861462   L 94.792642,23.728366   L 93.992704,22.861881   L 92.45949,21.728785   L 91.926198,21.328868   L 91.726214,20.662341   L 91.926198,20.129119   L 92.526151,19.929161   L 93.126105,20.195772   L 93.392751,20.862299   L 93.392751,21.395521   L 94.859304,21.395521  z "
     clip-path="url(#clipWmfPath1)"
     style="fill:none;stroke:#000000;stroke-width:0.066661492px;stroke-linecap:round;stroke-linejoin:round;stroke-miterlimit:4;stroke-dasharray:none;stroke-opacity:1;" />
  <path
     id="path82"
     d="  M 97.659086,27.127654   L 99.392285,18.929371   L 101.45879,18.929371   L 103.19199,27.127654   L 101.72544,27.127654   L 101.25881,25.06142   L 99.59227,25.06142   L 99.125639,27.127654   L 97.659086,27.127654   L 99.858916,23.861671   L 100.39221,21.195563   L 100.99216,23.861671   L 99.858916,23.861671   L 97.659086,27.127654  z "
     clip-path="url(#clipWmfPath1)"
     style="fill:#000000;fill-rule:evenodd;fill-opacity:1;stroke:none;" />
  <path
     id="path84"
     d="  M 97.659086,27.127654   L 99.392285,18.929371   L 101.45879,18.929371   L 103.19199,27.127654   L 101.72544,27.127654   L 101.25881,25.06142   L 99.59227,25.06142   L 99.125639,27.127654   L 97.659086,27.127654  z "
     clip-path="url(#clipWmfPath1)"
     style="fill:none;stroke:#000000;stroke-width:0.066661492px;stroke-linecap:round;stroke-linejoin:round;stroke-miterlimit:4;stroke-dasharray:none;stroke-opacity:1;" />
  <path
     id="path86"
     d="  M 99.858916,23.861671   L 100.39221,21.195563   L 100.99216,23.861671   L 99.858916,23.861671  z "
     clip-path="url(#clipWmfPath1)"
     style="fill:none;stroke:#000000;stroke-width:0.066661492px;stroke-linecap:round;stroke-linejoin:round;stroke-miterlimit:4;stroke-dasharray:none;stroke-opacity:1;" />
  <path
     id="path88"
     d="  M 105.85845,27.127654   L 105.85845,18.929371   L 107.52499,18.929371   L 108.59157,18.996023   L 109.45817,19.262634   L 110.05812,19.862509   L 110.25811,20.928952   L 110.05812,22.062048   L 109.39151,22.728575   L 109.85814,22.995186   L 110.19145,23.461755   L 110.45809,24.728157   L 110.25811,25.7946   L 109.79148,26.52778   L 108.85822,26.994349   L 107.52499,27.127654   L 105.85845,27.127654   L 107.25834,19.995814   L 107.59165,19.995814   L 108.52491,20.262425   L 108.72489,20.928952   L 108.59157,21.995395   L 108.1916,22.195354   L 107.59165,22.262006   L 107.25834,22.262006   L 107.25834,19.995814   L 105.85845,27.127654   L 107.25834,23.32845   L 107.59165,23.32845   L 108.65823,23.661713   L 108.85822,24.06163   L 108.92488,24.728157   L 108.65823,25.7946   L 107.59165,26.061211   L 107.25834,26.061211   L 107.25834,23.32845   L 105.85845,27.127654  z "
     clip-path="url(#clipWmfPath1)"
     style="fill:#000000;fill-rule:evenodd;fill-opacity:1;stroke:none;" />
  <path
     id="path90"
     d="  M 105.85845,27.127654   L 105.85845,18.929371   L 107.52499,18.929371   L 108.59157,18.996023   L 109.45817,19.262634   L 110.05812,19.862509   L 110.25811,20.928952   L 110.05812,22.062048   L 109.39151,22.728575   L 109.85814,22.995186   L 110.19145,23.461755   L 110.45809,24.728157   L 110.25811,25.7946   L 109.79148,26.52778   L 108.85822,26.994349   L 107.52499,27.127654   L 105.85845,27.127654  z "
     clip-path="url(#clipWmfPath1)"
     style="fill:none;stroke:#000000;stroke-width:0.066661492px;stroke-linecap:round;stroke-linejoin:round;stroke-miterlimit:4;stroke-dasharray:none;stroke-opacity:1;" />
  <path
     id="path92"
     d="  M 107.25834,19.995814   L 107.59165,19.995814   L 108.52491,20.262425   L 108.72489,20.928952   L 108.59157,21.995395   L 108.1916,22.195354   L 107.59165,22.262006   L 107.25834,22.262006   L 107.25834,19.995814  z "
     clip-path="url(#clipWmfPath1)"
     style="fill:none;stroke:#000000;stroke-width:0.066661492px;stroke-linecap:round;stroke-linejoin:round;stroke-miterlimit:4;stroke-dasharray:none;stroke-opacity:1;" />
  <path
     id="path94"
     d="  M 107.25834,23.32845   L 107.59165,23.32845   L 108.65823,23.661713   L 108.85822,24.06163   L 108.92488,24.728157   L 108.65823,25.7946   L 107.59165,26.061211   L 107.25834,26.061211   L 107.25834,23.32845  z "
     clip-path="url(#clipWmfPath1)"
     style="fill:none;stroke:#000000;stroke-width:0.066661492px;stroke-linecap:round;stroke-linejoin:round;stroke-miterlimit:4;stroke-dasharray:none;stroke-opacity:1;" />
  <path
     id="path96"
     d="  M 113.12455,18.929371   L 113.12455,27.127654   L 117.25757,27.127654   L 117.25757,25.861253   L 114.52444,25.861253   L 114.52444,18.929371   L 113.12455,18.929371  z "
     clip-path="url(#clipWmfPath1)"
     style="fill:#000000;fill-rule:evenodd;fill-opacity:1;stroke:none;" />
  <path
     id="path98"
     d="  M 113.12455,18.929371   L 113.12455,27.127654   L 117.25757,27.127654   L 117.25757,25.861253   L 114.52444,25.861253   L 114.52444,18.929371   L 113.12455,18.929371  z "
     clip-path="url(#clipWmfPath1)"
     style="fill:none;stroke:#000000;stroke-width:0.066661492px;stroke-linecap:round;stroke-linejoin:round;stroke-miterlimit:4;stroke-dasharray:none;stroke-opacity:1;" />
  <path
     id="path100"
     d="  M 119.92402,18.929371   L 119.92402,27.127654   L 123.99038,27.127654   L 123.99038,25.861253   L 121.32392,25.861253   L 121.32392,23.528408   L 123.72373,23.528408   L 123.72373,22.195354   L 121.32392,22.195354   L 121.32392,20.262425   L 123.99038,20.262425   L 123.99038,18.929371   L 119.92402,18.929371  z "
     clip-path="url(#clipWmfPath1)"
     style="fill:#000000;fill-rule:evenodd;fill-opacity:1;stroke:none;" />
  <path
     id="path102"
     d="  M 119.92402,18.929371   L 119.92402,27.127654   L 123.99038,27.127654   L 123.99038,25.861253   L 121.32392,25.861253   L 121.32392,23.528408   L 123.72373,23.528408   L 123.72373,22.195354   L 121.32392,22.195354   L 121.32392,20.262425   L 123.99038,20.262425   L 123.99038,18.929371   L 119.92402,18.929371  z "
     clip-path="url(#clipWmfPath1)"
     style="fill:none;stroke:#000000;stroke-width:0.066661492px;stroke-linecap:round;stroke-linejoin:round;stroke-miterlimit:4;stroke-dasharray:none;stroke-opacity:1;" />
  <path
     id="path104"
     d="  M 126.65684,18.929371   L 126.65684,27.127654   L 129.25663,27.127654   L 130.32322,26.794391   L 131.05649,25.861253   L 131.52312,24.528199   L 131.65645,23.061839   L 131.52312,21.528826   L 131.05649,20.195772   L 130.32322,19.262634   L 129.78993,18.996023   L 129.25663,18.929371   L 126.65684,18.929371   L 128.05673,19.995814   L 128.05673,26.061211   L 128.79,26.061211   L 129.45662,25.7946   L 129.85659,25.128073   L 130.25656,23.061839   L 129.85659,20.928952   L 129.45662,20.262425   L 128.79,19.995814   L 128.05673,19.995814   L 126.65684,18.929371  z "
     clip-path="url(#clipWmfPath1)"
     style="fill:#000000;fill-rule:evenodd;fill-opacity:1;stroke:none;" />
  <path
     id="path106"
     d="  M 126.65684,18.929371   L 126.65684,27.127654   L 129.25663,27.127654   L 130.32322,26.794391   L 131.05649,25.861253   L 131.52312,24.528199   L 131.65645,23.061839   L 131.52312,21.528826   L 131.05649,20.195772   L 130.32322,19.262634   L 129.78993,18.996023   L 129.25663,18.929371   L 126.65684,18.929371  z "
     clip-path="url(#clipWmfPath1)"
     style="fill:none;stroke:#000000;stroke-width:0.066661492px;stroke-linecap:round;stroke-linejoin:round;stroke-miterlimit:4;stroke-dasharray:none;stroke-opacity:1;" />
  <path
     id="path108"
     d="  M 128.05673,19.995814   L 128.05673,26.061211   L 128.79,26.061211   L 129.45662,25.7946   L 129.85659,25.128073   L 130.25656,23.061839   L 129.85659,20.928952   L 129.45662,20.262425   L 128.79,19.995814   L 128.05673,19.995814  z "
     clip-path="url(#clipWmfPath1)"
     style="fill:none;stroke:#000000;stroke-width:0.066661492px;stroke-linecap:round;stroke-linejoin:round;stroke-miterlimit:4;stroke-dasharray:none;stroke-opacity:1;" />
  <path
     id="path110"
     d="  M 112.32461,30.926859   L 112.32461,39.125143   L 113.72451,39.125143   L 113.72451,33.393009   L 115.92434,39.125143   L 117.52421,39.125143   L 117.52421,30.926859   L 116.12432,30.926859   L 116.12432,36.59234   L 113.99115,30.926859   L 112.32461,30.926859  z "
     clip-path="url(#clipWmfPath1)"
     style="fill:#000000;fill-rule:evenodd;fill-opacity:1;stroke:none;" />
  <path
     id="path112"
     d="  M 112.32461,30.926859   L 112.32461,39.125143   L 113.72451,39.125143   L 113.72451,33.393009   L 115.92434,39.125143   L 117.52421,39.125143   L 117.52421,30.926859   L 116.12432,30.926859   L 116.12432,36.59234   L 113.99115,30.926859   L 112.32461,30.926859  z "
     clip-path="url(#clipWmfPath1)"
     style="fill:none;stroke:#000000;stroke-width:0.066661492px;stroke-linecap:round;stroke-linejoin:round;stroke-miterlimit:4;stroke-dasharray:none;stroke-opacity:1;" />
  <path
     id="path114"
     d="  M 123.79039,30.860206   L 120.19067,39.258448   L 120.92395,39.258448   L 124.52367,30.860206   L 123.79039,30.860206  z "
     clip-path="url(#clipWmfPath1)"
     style="fill:#000000;fill-rule:evenodd;fill-opacity:1;stroke:none;" />
  <path
     id="path116"
     d="  M 123.79039,30.860206   L 120.19067,39.258448   L 120.92395,39.258448   L 124.52367,30.860206   L 123.79039,30.860206  z "
     clip-path="url(#clipWmfPath1)"
     style="fill:none;stroke:#000000;stroke-width:0.066661492px;stroke-linecap:round;stroke-linejoin:round;stroke-miterlimit:4;stroke-dasharray:none;stroke-opacity:1;" />
  <path
     id="path118"
     d="  M 131.52312,33.459662   L 131.3898,32.326566   L 130.98983,31.460081   L 130.25656,30.926859   L 129.12331,30.726901   L 128.32337,30.793554   L 127.72342,31.060164   L 127.32345,31.526733   L 127.0568,32.059955   L 126.79016,33.459662   L 126.79016,35.059327   L 126.79016,36.658992   L 127.0568,38.058699   L 127.32345,38.591921   L 127.72342,38.991837   L 128.32337,39.258448   L 129.12331,39.325101   L 130.25656,39.125143   L 130.98983,38.658574   L 131.3898,37.792088   L 131.52312,36.59234   L 130.12323,36.59234   L 129.92325,37.658783   L 129.6566,38.058699   L 129.52328,38.125352   L 129.12331,38.192005   L 128.59002,38.058699   L 128.32337,37.658783   L 128.19005,36.59234   L 128.19005,33.459662   L 128.32337,32.393219   L 128.59002,31.993302   L 129.12331,31.859997   L 129.6566,31.993302   L 129.92325,32.393219   L 130.12323,33.459662   L 131.52312,33.459662  z "
     clip-path="url(#clipWmfPath1)"
     style="fill:#000000;fill-rule:evenodd;fill-opacity:1;stroke:none;" />
  <path
     id="path120"
     d="  M 131.52312,33.459662   L 131.3898,32.326566   L 130.98983,31.460081   L 130.25656,30.926859   L 129.12331,30.726901   L 128.32337,30.793554   L 127.72342,31.060164   L 127.32345,31.526733   L 127.0568,32.059955   L 126.79016,33.459662   L 126.79016,35.059327   L 126.79016,36.658992   L 127.0568,38.058699   L 127.32345,38.591921   L 127.72342,38.991837   L 128.32337,39.258448   L 129.12331,39.325101   L 130.25656,39.125143   L 130.98983,38.658574   L 131.3898,37.792088   L 131.52312,36.59234   L 130.12323,36.59234   L 129.92325,37.658783   L 129.6566,38.058699   L 129.52328,38.125352   L 129.12331,38.192005   L 128.59002,38.058699   L 128.32337,37.658783   L 128.19005,36.59234   L 128.19005,33.459662   L 128.32337,32.393219   L 128.59002,31.993302   L 129.12331,31.859997   L 129.6566,31.993302   L 129.92325,32.393219   L 130.12323,33.459662   L 131.52312,33.459662  z "
     clip-path="url(#clipWmfPath1)"
     style="fill:none;stroke:#000000;stroke-width:0.066661492px;stroke-linecap:round;stroke-linejoin:round;stroke-miterlimit:4;stroke-dasharray:none;stroke-opacity:1;" />
  <path
     id="path122"
     d="  M 95.659242,48.189912   L 95.659242,48.989744   L 92.592813,48.989744   L 92.592813,48.189912   L 95.659242,48.189912  z "
     clip-path="url(#clipWmfPath1)"
     style="fill:#000000;fill-rule:evenodd;fill-opacity:1;stroke:none;" />
  <path
     id="path124"
     d="  M 95.659242,48.189912   L 95.659242,48.989744   L 92.592813,48.989744   L 92.592813,48.189912   L 95.659242,48.189912  z "
     clip-path="url(#clipWmfPath1)"
     style="fill:none;stroke:#000000;stroke-width:0.066661492px;stroke-linecap:round;stroke-linejoin:round;stroke-miterlimit:4;stroke-dasharray:none;stroke-opacity:1;" />
  <path
     id="path126"
     d="  M 98.325701,44.45736   L 98.325701,52.655644   L 99.725593,52.655644   L 99.725593,48.923092   L 100.79218,48.923092   L 101.45879,49.256355   L 101.65878,49.989535   L 101.65878,51.522547   L 101.92542,52.655644   L 103.32531,52.655644   L 103.32531,52.522338   L 103.12533,51.522547   L 103.12533,49.722924   L 102.79202,48.923092   L 101.85876,48.38987   L 102.6587,47.923301   L 102.92534,47.456732   L 102.99201,46.790205   L 102.79202,45.790414   L 102.32539,45.057234   L 101.65878,44.590665   L 100.79218,44.45736   L 98.325701,44.45736   L 99.725593,45.790414   L 99.725593,47.856648   L 100.79218,47.856648   L 101.32547,47.523385   L 101.52545,46.856857   L 101.32547,46.123678   L 100.79218,45.790414   L 99.725593,45.790414   L 98.325701,44.45736  z "
     clip-path="url(#clipWmfPath1)"
     style="fill:#000000;fill-rule:evenodd;fill-opacity:1;stroke:none;" />
  <path
     id="path128"
     d="  M 98.325701,44.45736   L 98.325701,52.655644   L 99.725593,52.655644   L 99.725593,48.923092   L 100.79218,48.923092   L 101.45879,49.256355   L 101.65878,49.989535   L 101.65878,51.522547   L 101.92542,52.655644   L 103.32531,52.655644   L 103.32531,52.522338   L 103.12533,51.522547   L 103.12533,49.722924   L 102.79202,48.923092   L 101.85876,48.38987   L 102.6587,47.923301   L 102.92534,47.456732   L 102.99201,46.790205   L 102.79202,45.790414   L 102.32539,45.057234   L 101.65878,44.590665   L 100.79218,44.45736   L 98.325701,44.45736  z "
     clip-path="url(#clipWmfPath1)"
     style="fill:none;stroke:#000000;stroke-width:0.066661492px;stroke-linecap:round;stroke-linejoin:round;stroke-miterlimit:4;stroke-dasharray:none;stroke-opacity:1;" />
  <path
     id="path130"
     d="  M 99.725593,45.790414   L 99.725593,47.856648   L 100.79218,47.856648   L 101.32547,47.523385   L 101.52545,46.856857   L 101.32547,46.123678   L 100.79218,45.790414   L 99.725593,45.790414  z "
     clip-path="url(#clipWmfPath1)"
     style="fill:none;stroke:#000000;stroke-width:0.066661492px;stroke-linecap:round;stroke-linejoin:round;stroke-miterlimit:4;stroke-dasharray:none;stroke-opacity:1;" />
  <path
     id="path132"
     d="  M 105.99177,44.45736   L 105.99177,52.655644   L 110.05812,52.655644   L 110.05812,51.389242   L 107.39166,51.389242   L 107.39166,49.056397   L 109.79148,49.056397   L 109.79148,47.723343   L 107.39166,47.723343   L 107.39166,45.790414   L 110.05812,45.790414   L 110.05812,44.45736   L 105.99177,44.45736  z "
     clip-path="url(#clipWmfPath1)"
     style="fill:#000000;fill-rule:evenodd;fill-opacity:1;stroke:none;" />
  <path
     id="path134"
     d="  M 105.99177,44.45736   L 105.99177,52.655644   L 110.05812,52.655644   L 110.05812,51.389242   L 107.39166,51.389242   L 107.39166,49.056397   L 109.79148,49.056397   L 109.79148,47.723343   L 107.39166,47.723343   L 107.39166,45.790414   L 110.05812,45.790414   L 110.05812,44.45736   L 105.99177,44.45736  z "
     clip-path="url(#clipWmfPath1)"
     style="fill:none;stroke:#000000;stroke-width:0.066661492px;stroke-linecap:round;stroke-linejoin:round;stroke-miterlimit:4;stroke-dasharray:none;stroke-opacity:1;" />
  <path
     id="path136"
     d="  M 117.32423,46.92351   L 117.32423,46.323636   L 117.12424,45.390498   L 116.59095,44.790623   L 115.85767,44.390707   L 114.92441,44.257402   L 114.12448,44.390707   L 113.45786,44.790623   L 112.99123,45.45715   L 112.79125,46.323636   L 112.92457,47.390079   L 113.59118,48.256564   L 115.39104,49.522966   L 115.85767,50.056188   L 115.991,50.722715   L 115.72435,51.455895   L 114.99107,51.655853   L 114.39112,51.322589   L 114.19114,50.656062   L 114.19114,49.789577   L 112.72458,49.789577   L 112.72458,50.522757   L 112.85791,51.522547   L 113.32454,52.255727   L 114.05781,52.722296   L 114.99107,52.855602   L 116.05766,52.722296   L 116.8576,52.255727   L 117.32423,51.522547   L 117.45755,50.389451   L 117.25757,49.256355   L 116.45763,48.38987   L 114.92441,47.256774   L 114.39112,46.856857   L 114.19114,46.19033   L 114.39112,45.657109   L 114.99107,45.45715   L 115.59103,45.723761   L 115.85767,46.390288   L 115.85767,46.92351   L 117.32423,46.92351  z "
     clip-path="url(#clipWmfPath1)"
     style="fill:#000000;fill-rule:evenodd;fill-opacity:1;stroke:none;" />
  <path
     id="path138"
     d="  M 117.32423,46.92351   L 117.32423,46.323636   L 117.12424,45.390498   L 116.59095,44.790623   L 115.85767,44.390707   L 114.92441,44.257402   L 114.12448,44.390707   L 113.45786,44.790623   L 112.99123,45.45715   L 112.79125,46.323636   L 112.92457,47.390079   L 113.59118,48.256564   L 115.39104,49.522966   L 115.85767,50.056188   L 115.991,50.722715   L 115.72435,51.455895   L 114.99107,51.655853   L 114.39112,51.322589   L 114.19114,50.656062   L 114.19114,49.789577   L 112.72458,49.789577   L 112.72458,50.522757   L 112.85791,51.522547   L 113.32454,52.255727   L 114.05781,52.722296   L 114.99107,52.855602   L 116.05766,52.722296   L 116.8576,52.255727   L 117.32423,51.522547   L 117.45755,50.389451   L 117.25757,49.256355   L 116.45763,48.38987   L 114.92441,47.256774   L 114.39112,46.856857   L 114.19114,46.19033   L 114.39112,45.657109   L 114.99107,45.45715   L 115.59103,45.723761   L 115.85767,46.390288   L 115.85767,46.92351   L 117.32423,46.92351  z "
     clip-path="url(#clipWmfPath1)"
     style="fill:none;stroke:#000000;stroke-width:0.066661492px;stroke-linecap:round;stroke-linejoin:round;stroke-miterlimit:4;stroke-dasharray:none;stroke-opacity:1;" />
  <path
     id="path140"
     d="  M 120.12401,44.45736   L 120.12401,52.655644   L 124.19036,52.655644   L 124.19036,51.389242   L 121.5239,51.389242   L 121.5239,49.056397   L 123.92371,49.056397   L 123.92371,47.723343   L 121.5239,47.723343   L 121.5239,45.790414   L 124.19036,45.790414   L 124.19036,44.45736   L 120.12401,44.45736  z "
     clip-path="url(#clipWmfPath1)"
     style="fill:#000000;fill-rule:evenodd;fill-opacity:1;stroke:none;" />
  <path
     id="path142"
     d="  M 120.12401,44.45736   L 120.12401,52.655644   L 124.19036,52.655644   L 124.19036,51.389242   L 121.5239,51.389242   L 121.5239,49.056397   L 123.92371,49.056397   L 123.92371,47.723343   L 121.5239,47.723343   L 121.5239,45.790414   L 124.19036,45.790414   L 124.19036,44.45736   L 120.12401,44.45736  z "
     clip-path="url(#clipWmfPath1)"
     style="fill:none;stroke:#000000;stroke-width:0.066661492px;stroke-linecap:round;stroke-linejoin:round;stroke-miterlimit:4;stroke-dasharray:none;stroke-opacity:1;" />
  <path
     id="path144"
     d="  M 126.85682,44.45736   L 126.85682,45.790414   L 128.52336,45.790414   L 128.52336,52.655644   L 129.92325,52.655644   L 129.92325,45.790414   L 131.58979,45.790414   L 131.58979,44.45736   L 126.85682,44.45736  z "
     clip-path="url(#clipWmfPath1)"
     style="fill:#000000;fill-rule:evenodd;fill-opacity:1;stroke:none;" />
  <path
     id="path146"
     d="  M 126.85682,44.45736   L 126.85682,45.790414   L 128.52336,45.790414   L 128.52336,52.655644   L 129.92325,52.655644   L 129.92325,45.790414   L 131.58979,45.790414   L 131.58979,44.45736   L 126.85682,44.45736  z "
     clip-path="url(#clipWmfPath1)"
     style="fill:none;stroke:#000000;stroke-width:0.066661492px;stroke-linecap:round;stroke-linejoin:round;stroke-miterlimit:4;stroke-dasharray:none;stroke-opacity:1;" />
  <path
     id="path148"
     d="  M 79.927129,59.920789   L 79.927129,60.720622   L 76.860701,60.720622   L 76.860701,59.920789   L 79.927129,59.920789  z "
     clip-path="url(#clipWmfPath1)"
     style="fill:#000000;fill-rule:evenodd;fill-opacity:1;stroke:none;" />
  <path
     id="path150"
     d="  M 79.927129,59.920789   L 79.927129,60.720622   L 76.860701,60.720622   L 76.860701,59.920789   L 79.927129,59.920789  z "
     clip-path="url(#clipWmfPath1)"
     style="fill:none;stroke:#000000;stroke-width:0.066661492px;stroke-linecap:round;stroke-linejoin:round;stroke-miterlimit:4;stroke-dasharray:none;stroke-opacity:1;" />
  <path
     id="path152"
     d="  M 87.193232,58.654388   L 87.193232,58.054513   L 86.993248,57.121375   L 86.459956,56.521501   L 85.726679,56.121585   L 84.793418,55.988279   L 83.99348,56.121585   L 83.326866,56.521501   L 82.860235,57.188028   L 82.660251,58.054513   L 82.793574,59.120957   L 83.460189,59.987442   L 85.260049,61.253844   L 85.726679,61.787065   L 85.860002,62.453592   L 85.593356,63.186772   L 84.86008,63.38673   L 84.260126,63.053467   L 84.060142,62.38694   L 84.060142,61.520454   L 82.593589,61.520454   L 82.593589,62.253634   L 82.726912,63.253425   L 83.193543,63.986605   L 83.926819,64.453174   L 84.86008,64.586479   L 85.926664,64.453174   L 86.726602,63.986605   L 87.193232,63.253425   L 87.326555,62.120329   L 87.126571,60.987233   L 86.326633,60.120747   L 84.793418,58.987651   L 84.260126,58.587735   L 84.060142,57.921208   L 84.260126,57.387986   L 84.86008,57.188028   L 85.460033,57.454639   L 85.726679,58.121166   L 85.726679,58.654388   L 87.193232,58.654388  z "
     clip-path="url(#clipWmfPath1)"
     style="fill:#000000;fill-rule:evenodd;fill-opacity:1;stroke:none;" />
  <path
     id="path154"
     d="  M 87.193232,58.654388   L 87.193232,58.054513   L 86.993248,57.121375   L 86.459956,56.521501   L 85.726679,56.121585   L 84.793418,55.988279   L 83.99348,56.121585   L 83.326866,56.521501   L 82.860235,57.188028   L 82.660251,58.054513   L 82.793574,59.120957   L 83.460189,59.987442   L 85.260049,61.253844   L 85.726679,61.787065   L 85.860002,62.453592   L 85.593356,63.186772   L 84.86008,63.38673   L 84.260126,63.053467   L 84.060142,62.38694   L 84.060142,61.520454   L 82.593589,61.520454   L 82.593589,62.253634   L 82.726912,63.253425   L 83.193543,63.986605   L 83.926819,64.453174   L 84.86008,64.586479   L 85.926664,64.453174   L 86.726602,63.986605   L 87.193232,63.253425   L 87.326555,62.120329   L 87.126571,60.987233   L 86.326633,60.120747   L 84.793418,58.987651   L 84.260126,58.587735   L 84.060142,57.921208   L 84.260126,57.387986   L 84.86008,57.188028   L 85.460033,57.454639   L 85.726679,58.121166   L 85.726679,58.654388   L 87.193232,58.654388  z "
     clip-path="url(#clipWmfPath1)"
     style="fill:none;stroke:#000000;stroke-width:0.066661492px;stroke-linecap:round;stroke-linejoin:round;stroke-miterlimit:4;stroke-dasharray:none;stroke-opacity:1;" />
  <path
     id="path156"
     d="  M 89.993015,56.188237   L 89.993015,64.386521   L 91.392906,64.386521   L 91.392906,60.92058   L 92.45949,60.92058   L 93.326089,60.787275   L 93.992704,60.320706   L 94.459335,59.587526   L 94.659319,58.521082   L 94.459335,57.521292   L 93.992704,56.788112   L 93.326089,56.321543   L 92.45949,56.188237   L 89.993015,56.188237   L 91.392906,57.521292   L 91.392906,59.587526   L 92.45949,59.587526   L 92.992782,59.254262   L 93.192766,58.587735   L 92.992782,57.854555   L 92.45949,57.521292   L 91.392906,57.521292   L 89.993015,56.188237  z "
     clip-path="url(#clipWmfPath1)"
     style="fill:#000000;fill-rule:evenodd;fill-opacity:1;stroke:none;" />
  <path
     id="path158"
     d="  M 89.993015,56.188237   L 89.993015,64.386521   L 91.392906,64.386521   L 91.392906,60.92058   L 92.45949,60.92058   L 93.326089,60.787275   L 93.992704,60.320706   L 94.459335,59.587526   L 94.659319,58.521082   L 94.459335,57.521292   L 93.992704,56.788112   L 93.326089,56.321543   L 92.45949,56.188237   L 89.993015,56.188237  z "
     clip-path="url(#clipWmfPath1)"
     style="fill:none;stroke:#000000;stroke-width:0.066661492px;stroke-linecap:round;stroke-linejoin:round;stroke-miterlimit:4;stroke-dasharray:none;stroke-opacity:1;" />
  <path
     id="path160"
     d="  M 91.392906,57.521292   L 91.392906,59.587526   L 92.45949,59.587526   L 92.992782,59.254262   L 93.192766,58.587735   L 92.992782,57.854555   L 92.45949,57.521292   L 91.392906,57.521292  z "
     clip-path="url(#clipWmfPath1)"
     style="fill:none;stroke:#000000;stroke-width:0.066661492px;stroke-linecap:round;stroke-linejoin:round;stroke-miterlimit:4;stroke-dasharray:none;stroke-opacity:1;" />
  <path
     id="path162"
     d="  M 97.325779,56.188237   L 97.325779,64.386521   L 101.39213,64.386521   L 101.39213,63.12012   L 98.72567,63.12012   L 98.72567,60.787275   L 101.12548,60.787275   L 101.12548,59.45422   L 98.72567,59.45422   L 98.72567,57.521292   L 101.39213,57.521292   L 101.39213,56.188237   L 97.325779,56.188237  z "
     clip-path="url(#clipWmfPath1)"
     style="fill:#000000;fill-rule:evenodd;fill-opacity:1;stroke:none;" />
  <path
     id="path164"
     d="  M 97.325779,56.188237   L 97.325779,64.386521   L 101.39213,64.386521   L 101.39213,63.12012   L 98.72567,63.12012   L 98.72567,60.787275   L 101.12548,60.787275   L 101.12548,59.45422   L 98.72567,59.45422   L 98.72567,57.521292   L 101.39213,57.521292   L 101.39213,56.188237   L 97.325779,56.188237  z "
     clip-path="url(#clipWmfPath1)"
     style="fill:none;stroke:#000000;stroke-width:0.066661492px;stroke-linecap:round;stroke-linejoin:round;stroke-miterlimit:4;stroke-dasharray:none;stroke-opacity:1;" />
  <path
     id="path166"
     d="  M 104.05859,64.386521   L 105.79179,56.188237   L 107.85829,56.188237   L 109.59149,64.386521   L 108.12494,64.386521   L 107.65831,62.320287   L 105.99177,62.320287   L 105.52514,64.386521   L 104.05859,64.386521   L 106.25842,61.120538   L 106.79171,58.45443   L 107.39166,61.120538   L 106.25842,61.120538   L 104.05859,64.386521  z "
     clip-path="url(#clipWmfPath1)"
     style="fill:#000000;fill-rule:evenodd;fill-opacity:1;stroke:none;" />
  <path
     id="path168"
     d="  M 104.05859,64.386521   L 105.79179,56.188237   L 107.85829,56.188237   L 109.59149,64.386521   L 108.12494,64.386521   L 107.65831,62.320287   L 105.99177,62.320287   L 105.52514,64.386521   L 104.05859,64.386521  z "
     clip-path="url(#clipWmfPath1)"
     style="fill:none;stroke:#000000;stroke-width:0.066661492px;stroke-linecap:round;stroke-linejoin:round;stroke-miterlimit:4;stroke-dasharray:none;stroke-opacity:1;" />
  <path
     id="path170"
     d="  M 106.25842,61.120538   L 106.79171,58.45443   L 107.39166,61.120538   L 106.25842,61.120538  z "
     clip-path="url(#clipWmfPath1)"
     style="fill:none;stroke:#000000;stroke-width:0.066661492px;stroke-linecap:round;stroke-linejoin:round;stroke-miterlimit:4;stroke-dasharray:none;stroke-opacity:1;" />
  <path
     id="path172"
     d="  M 112.25795,56.188237   L 112.25795,64.386521   L 113.65784,64.386521   L 113.65784,62.053676   L 114.12448,61.187191   L 115.59103,64.386521   L 117.12424,64.386521   L 115.05774,59.654178   L 117.05758,56.188237   L 115.52437,56.188237   L 113.65784,59.320915   L 113.65784,56.188237   L 112.25795,56.188237  z "
     clip-path="url(#clipWmfPath1)"
     style="fill:#000000;fill-rule:evenodd;fill-opacity:1;stroke:none;" />
  <path
     id="path174"
     d="  M 112.25795,56.188237   L 112.25795,64.386521   L 113.65784,64.386521   L 113.65784,62.053676   L 114.12448,61.187191   L 115.59103,64.386521   L 117.12424,64.386521   L 115.05774,59.654178   L 117.05758,56.188237   L 115.52437,56.188237   L 113.65784,59.320915   L 113.65784,56.188237   L 112.25795,56.188237  z "
     clip-path="url(#clipWmfPath1)"
     style="fill:none;stroke:#000000;stroke-width:0.066661492px;stroke-linecap:round;stroke-linejoin:round;stroke-miterlimit:4;stroke-dasharray:none;stroke-opacity:1;" />
  <path
     id="path176"
     d="  M 119.7907,56.188237   L 119.7907,64.386521   L 123.85705,64.386521   L 123.85705,63.12012   L 121.19059,63.12012   L 121.19059,60.787275   L 123.59041,60.787275   L 123.59041,59.45422   L 121.19059,59.45422   L 121.19059,57.521292   L 123.85705,57.521292   L 123.85705,56.188237   L 119.7907,56.188237  z "
     clip-path="url(#clipWmfPath1)"
     style="fill:#000000;fill-rule:evenodd;fill-opacity:1;stroke:none;" />
  <path
     id="path178"
     d="  M 119.7907,56.188237   L 119.7907,64.386521   L 123.85705,64.386521   L 123.85705,63.12012   L 121.19059,63.12012   L 121.19059,60.787275   L 123.59041,60.787275   L 123.59041,59.45422   L 121.19059,59.45422   L 121.19059,57.521292   L 123.85705,57.521292   L 123.85705,56.188237   L 119.7907,56.188237  z "
     clip-path="url(#clipWmfPath1)"
     style="fill:none;stroke:#000000;stroke-width:0.066661492px;stroke-linecap:round;stroke-linejoin:round;stroke-miterlimit:4;stroke-dasharray:none;stroke-opacity:1;" />
  <path
     id="path180"
     d="  M 126.52351,56.188237   L 126.52351,64.386521   L 127.9234,64.386521   L 127.9234,60.653969   L 128.98999,60.653969   L 129.6566,60.987233   L 129.85659,61.720413   L 129.85659,63.253425   L 130.12323,64.386521   L 131.52312,64.386521   L 131.52312,64.253216   L 131.32314,63.253425   L 131.32314,61.453802   L 130.98983,60.653969   L 130.05657,60.120747   L 130.85651,59.654178   L 131.12316,59.187609   L 131.18982,58.521082   L 130.98983,57.521292   L 130.5232,56.788112   L 129.85659,56.321543   L 128.98999,56.188237   L 126.52351,56.188237   L 127.9234,57.521292   L 127.9234,59.587526   L 128.98999,59.587526   L 129.52328,59.254262   L 129.72326,58.587735   L 129.52328,57.854555   L 128.98999,57.521292   L 127.9234,57.521292   L 126.52351,56.188237  z "
     clip-path="url(#clipWmfPath1)"
     style="fill:#000000;fill-rule:evenodd;fill-opacity:1;stroke:none;" />
  <path
     id="path182"
     d="  M 126.52351,56.188237   L 126.52351,64.386521   L 127.9234,64.386521   L 127.9234,60.653969   L 128.98999,60.653969   L 129.6566,60.987233   L 129.85659,61.720413   L 129.85659,63.253425   L 130.12323,64.386521   L 131.52312,64.386521   L 131.52312,64.253216   L 131.32314,63.253425   L 131.32314,61.453802   L 130.98983,60.653969   L 130.05657,60.120747   L 130.85651,59.654178   L 131.12316,59.187609   L 131.18982,58.521082   L 130.98983,57.521292   L 130.5232,56.788112   L 129.85659,56.321543   L 128.98999,56.188237   L 126.52351,56.188237  z "
     clip-path="url(#clipWmfPath1)"
     style="fill:none;stroke:#000000;stroke-width:0.066661492px;stroke-linecap:round;stroke-linejoin:round;stroke-miterlimit:4;stroke-dasharray:none;stroke-opacity:1;" />
  <path
     id="path184"
     d="  M 127.9234,57.521292   L 127.9234,59.587526   L 128.98999,59.587526   L 129.52328,59.254262   L 129.72326,58.587735   L 129.52328,57.854555   L 128.98999,57.521292   L 127.9234,57.521292  z "
     clip-path="url(#clipWmfPath1)"
     style="fill:none;stroke:#000000;stroke-width:0.066661492px;stroke-linecap:round;stroke-linejoin:round;stroke-miterlimit:4;stroke-dasharray:none;stroke-opacity:1;" />
  <path
     id="path186"
     d="  M 165.52049,9.9312543   L 165.52049,10.731087   L 162.45406,10.731087   L 162.45406,9.9312543   L 165.52049,9.9312543  z "
     clip-path="url(#clipWmfPath1)"
     style="fill:#000000;fill-rule:evenodd;fill-opacity:1;stroke:none;" />
  <path
     id="path188"
     d="  M 165.52049,9.9312543   L 165.52049,10.731087   L 162.45406,10.731087   L 162.45406,9.9312543   L 165.52049,9.9312543  z "
     clip-path="url(#clipWmfPath1)"
     style="fill:none;stroke:#000000;stroke-width:0.066661492px;stroke-linecap:round;stroke-linejoin:round;stroke-miterlimit:4;stroke-dasharray:none;stroke-opacity:1;" />
  <path
     id="path190"
     d="  M 168.18695,6.1987023   L 168.18695,14.396986   L 169.58684,14.396986   L 169.58684,10.664434   L 170.65342,10.664434   L 171.32004,10.997698   L 171.52002,11.730878   L 171.52002,13.26389   L 171.78667,14.396986   L 173.18656,14.396986   L 173.18656,14.263681   L 172.98657,13.26389   L 172.98657,11.464267   L 172.65327,10.664434   L 171.72,10.131212   L 172.51994,9.6646434   L 172.78659,9.1980744   L 172.85325,8.5315473   L 172.65327,7.5317566   L 172.18663,6.7985768   L 171.52002,6.3320078   L 170.65342,6.1987023   L 168.18695,6.1987023   L 169.58684,7.5317566   L 169.58684,9.5979907   L 170.65342,9.5979907   L 171.18671,9.2647272   L 171.3867,8.5982   L 171.18671,7.8650202   L 170.65342,7.5317566   L 169.58684,7.5317566   L 168.18695,6.1987023  z "
     clip-path="url(#clipWmfPath1)"
     style="fill:#000000;fill-rule:evenodd;fill-opacity:1;stroke:none;" />
  <path
     id="path192"
     d="  M 168.18695,6.1987023   L 168.18695,14.396986   L 169.58684,14.396986   L 169.58684,10.664434   L 170.65342,10.664434   L 171.32004,10.997698   L 171.52002,11.730878   L 171.52002,13.26389   L 171.78667,14.396986   L 173.18656,14.396986   L 173.18656,14.263681   L 172.98657,13.26389   L 172.98657,11.464267   L 172.65327,10.664434   L 171.72,10.131212   L 172.51994,9.6646434   L 172.78659,9.1980744   L 172.85325,8.5315473   L 172.65327,7.5317566   L 172.18663,6.7985768   L 171.52002,6.3320078   L 170.65342,6.1987023   L 168.18695,6.1987023  z "
     clip-path="url(#clipWmfPath1)"
     style="fill:none;stroke:#000000;stroke-width:0.066661492px;stroke-linecap:round;stroke-linejoin:round;stroke-miterlimit:4;stroke-dasharray:none;stroke-opacity:1;" />
  <path
     id="path194"
     d="  M 169.58684,7.5317566   L 169.58684,9.5979907   L 170.65342,9.5979907   L 171.18671,9.2647272   L 171.3867,8.5982   L 171.18671,7.8650202   L 170.65342,7.5317566   L 169.58684,7.5317566  z "
     clip-path="url(#clipWmfPath1)"
     style="fill:none;stroke:#000000;stroke-width:0.066661492px;stroke-linecap:round;stroke-linejoin:round;stroke-miterlimit:4;stroke-dasharray:none;stroke-opacity:1;" />
  <path
     id="path196"
     d="  M 175.85302,6.1987023   L 175.85302,14.396986   L 179.91937,14.396986   L 179.91937,13.130585   L 177.25291,13.130585   L 177.25291,10.79774   L 179.65272,10.79774   L 179.65272,9.4646853   L 177.25291,9.4646853   L 177.25291,7.5317566   L 179.91937,7.5317566   L 179.91937,6.1987023   L 175.85302,6.1987023  z "
     clip-path="url(#clipWmfPath1)"
     style="fill:#000000;fill-rule:evenodd;fill-opacity:1;stroke:none;" />
  <path
     id="path198"
     d="  M 175.85302,6.1987023   L 175.85302,14.396986   L 179.91937,14.396986   L 179.91937,13.130585   L 177.25291,13.130585   L 177.25291,10.79774   L 179.65272,10.79774   L 179.65272,9.4646853   L 177.25291,9.4646853   L 177.25291,7.5317566   L 179.91937,7.5317566   L 179.91937,6.1987023   L 175.85302,6.1987023  z "
     clip-path="url(#clipWmfPath1)"
     style="fill:none;stroke:#000000;stroke-width:0.066661492px;stroke-linecap:round;stroke-linejoin:round;stroke-miterlimit:4;stroke-dasharray:none;stroke-opacity:1;" />
  <path
     id="path200"
     d="  M 182.58583,14.396986   L 184.31903,6.1987023   L 186.38553,6.1987023   L 188.11873,14.396986   L 186.65218,14.396986   L 186.18555,12.330752   L 184.51901,12.330752   L 184.05238,14.396986   L 182.58583,14.396986   L 184.78566,11.131003   L 185.31895,8.4648946   L 185.9189,11.131003   L 184.78566,11.131003   L 182.58583,14.396986  z "
     clip-path="url(#clipWmfPath1)"
     style="fill:#000000;fill-rule:evenodd;fill-opacity:1;stroke:none;" />
  <path
     id="path202"
     d="  M 182.58583,14.396986   L 184.31903,6.1987023   L 186.38553,6.1987023   L 188.11873,14.396986   L 186.65218,14.396986   L 186.18555,12.330752   L 184.51901,12.330752   L 184.05238,14.396986   L 182.58583,14.396986  z "
     clip-path="url(#clipWmfPath1)"
     style="fill:none;stroke:#000000;stroke-width:0.066661492px;stroke-linecap:round;stroke-linejoin:round;stroke-miterlimit:4;stroke-dasharray:none;stroke-opacity:1;" />
  <path
     id="path204"
     d="  M 184.78566,11.131003   L 185.31895,8.4648946   L 185.9189,11.131003   L 184.78566,11.131003  z "
     clip-path="url(#clipWmfPath1)"
     style="fill:none;stroke:#000000;stroke-width:0.066661492px;stroke-linecap:round;stroke-linejoin:round;stroke-miterlimit:4;stroke-dasharray:none;stroke-opacity:1;" />
  <path
     id="path206"
     d="  M 190.78519,6.1987023   L 190.78519,14.396986   L 193.38499,14.396986   L 194.45157,14.063723   L 195.18485,13.130585   L 195.65148,11.79753   L 195.7848,10.331171   L 195.65148,8.7981582   L 195.18485,7.4651039   L 194.45157,6.5319659   L 193.91828,6.2653551   L 193.38499,6.1987023   L 190.78519,6.1987023   L 192.18508,7.2651458   L 192.18508,13.330543   L 192.91836,13.330543   L 193.58497,13.063932   L 193.98494,12.397405   L 194.38491,10.331171   L 193.98494,8.1982837   L 193.58497,7.5317566   L 192.91836,7.2651458   L 192.18508,7.2651458   L 190.78519,6.1987023  z "
     clip-path="url(#clipWmfPath1)"
     style="fill:#000000;fill-rule:evenodd;fill-opacity:1;stroke:none;" />
  <path
     id="path208"
     d="  M 190.78519,6.1987023   L 190.78519,14.396986   L 193.38499,14.396986   L 194.45157,14.063723   L 195.18485,13.130585   L 195.65148,11.79753   L 195.7848,10.331171   L 195.65148,8.7981582   L 195.18485,7.4651039   L 194.45157,6.5319659   L 193.91828,6.2653551   L 193.38499,6.1987023   L 190.78519,6.1987023  z "
     clip-path="url(#clipWmfPath1)"
     style="fill:none;stroke:#000000;stroke-width:0.066661492px;stroke-linecap:round;stroke-linejoin:round;stroke-miterlimit:4;stroke-dasharray:none;stroke-opacity:1;" />
  <path
     id="path210"
     d="  M 192.18508,7.2651458   L 192.18508,13.330543   L 192.91836,13.330543   L 193.58497,13.063932   L 193.98494,12.397405   L 194.38491,10.331171   L 193.98494,8.1982837   L 193.58497,7.5317566   L 192.91836,7.2651458   L 192.18508,7.2651458  z "
     clip-path="url(#clipWmfPath1)"
     style="fill:none;stroke:#000000;stroke-width:0.066661492px;stroke-linecap:round;stroke-linejoin:round;stroke-miterlimit:4;stroke-dasharray:none;stroke-opacity:1;" />
  <path
     id="path212"
     d="  M 197.98463,6.1987023   L 200.05114,11.06435   L 200.05114,14.396986   L 201.51769,14.396986   L 201.51769,11.06435   L 203.5842,6.1987023   L 201.98432,6.1987023   L 200.78442,9.3980326   L 199.58451,6.1987023   L 197.98463,6.1987023  z "
     clip-path="url(#clipWmfPath1)"
     style="fill:#000000;fill-rule:evenodd;fill-opacity:1;stroke:none;" />
  <path
     id="path214"
     d="  M 197.98463,6.1987023   L 200.05114,11.06435   L 200.05114,14.396986   L 201.51769,14.396986   L 201.51769,11.06435   L 203.5842,6.1987023   L 201.98432,6.1987023   L 200.78442,9.3980326   L 199.58451,6.1987023   L 197.98463,6.1987023  z "
     clip-path="url(#clipWmfPath1)"
     style="fill:none;stroke:#000000;stroke-width:0.066661492px;stroke-linecap:round;stroke-linejoin:round;stroke-miterlimit:4;stroke-dasharray:none;stroke-opacity:1;" />
  <path
     id="path216"
     d="  M 168.65358,18.329496   L 168.65358,26.52778   L 170.05347,26.52778   L 170.05347,20.795647   L 172.2533,26.52778   L 173.85317,26.52778   L 173.85317,18.329496   L 172.45328,18.329496   L 172.45328,23.994977   L 170.32011,18.329496   L 168.65358,18.329496  z "
     clip-path="url(#clipWmfPath1)"
     style="fill:#000000;fill-rule:evenodd;fill-opacity:1;stroke:none;" />
  <path
     id="path218"
     d="  M 168.65358,18.329496   L 168.65358,26.52778   L 170.05347,26.52778   L 170.05347,20.795647   L 172.2533,26.52778   L 173.85317,26.52778   L 173.85317,18.329496   L 172.45328,18.329496   L 172.45328,23.994977   L 170.32011,18.329496   L 168.65358,18.329496  z "
     clip-path="url(#clipWmfPath1)"
     style="fill:none;stroke:#000000;stroke-width:0.066661492px;stroke-linecap:round;stroke-linejoin:round;stroke-miterlimit:4;stroke-dasharray:none;stroke-opacity:1;" />
  <path
     id="path220"
     d="  M 180.11935,18.262843   L 176.51963,26.661085   L 177.25291,26.661085   L 180.85263,18.262843   L 180.11935,18.262843  z "
     clip-path="url(#clipWmfPath1)"
     style="fill:#000000;fill-rule:evenodd;fill-opacity:1;stroke:none;" />
  <path
     id="path222"
     d="  M 180.11935,18.262843   L 176.51963,26.661085   L 177.25291,26.661085   L 180.85263,18.262843   L 180.11935,18.262843  z "
     clip-path="url(#clipWmfPath1)"
     style="fill:none;stroke:#000000;stroke-width:0.066661492px;stroke-linecap:round;stroke-linejoin:round;stroke-miterlimit:4;stroke-dasharray:none;stroke-opacity:1;" />
  <path
     id="path224"
     d="  M 187.85209,20.862299   L 187.71876,19.729203   L 187.31879,18.862718   L 186.58552,18.329496   L 185.45227,18.129538   L 184.65233,18.196191   L 184.05238,18.462802   L 183.65241,18.929371   L 183.38577,19.462592   L 183.11912,20.862299   L 183.11912,22.461964   L 183.11912,24.06163   L 183.38577,25.461336   L 183.65241,25.994558   L 184.05238,26.394474   L 184.65233,26.661085   L 185.45227,26.727738   L 186.58552,26.52778   L 187.31879,26.061211   L 187.71876,25.194726   L 187.85209,23.994977   L 186.45219,23.994977   L 186.25221,25.06142   L 185.98556,25.461336   L 185.85224,25.527989   L 185.45227,25.594642   L 184.91898,25.461336   L 184.65233,25.06142   L 184.51901,23.994977   L 184.51901,20.862299   L 184.65233,19.795856   L 184.91898,19.39594   L 185.45227,19.262634   L 185.98556,19.39594   L 186.25221,19.795856   L 186.45219,20.862299   L 187.85209,20.862299  z "
     clip-path="url(#clipWmfPath1)"
     style="fill:#000000;fill-rule:evenodd;fill-opacity:1;stroke:none;" />
  <path
     id="path226"
     d="  M 187.85209,20.862299   L 187.71876,19.729203   L 187.31879,18.862718   L 186.58552,18.329496   L 185.45227,18.129538   L 184.65233,18.196191   L 184.05238,18.462802   L 183.65241,18.929371   L 183.38577,19.462592   L 183.11912,20.862299   L 183.11912,22.461964   L 183.11912,24.06163   L 183.38577,25.461336   L 183.65241,25.994558   L 184.05238,26.394474   L 184.65233,26.661085   L 185.45227,26.727738   L 186.58552,26.52778   L 187.31879,26.061211   L 187.71876,25.194726   L 187.85209,23.994977   L 186.45219,23.994977   L 186.25221,25.06142   L 185.98556,25.461336   L 185.85224,25.527989   L 185.45227,25.594642   L 184.91898,25.461336   L 184.65233,25.06142   L 184.51901,23.994977   L 184.51901,20.862299   L 184.65233,19.795856   L 184.91898,19.39594   L 185.45227,19.262634   L 185.98556,19.39594   L 186.25221,19.795856   L 186.45219,20.862299   L 187.85209,20.862299  z "
     clip-path="url(#clipWmfPath1)"
     style="fill:none;stroke:#000000;stroke-width:0.066661492px;stroke-linecap:round;stroke-linejoin:round;stroke-miterlimit:4;stroke-dasharray:none;stroke-opacity:1;" />
  <path
     id="path228"
     d="  M 165.52049,34.059537   L 165.52049,34.859369   L 162.45406,34.859369   L 162.45406,34.059537   L 165.52049,34.059537  z "
     clip-path="url(#clipWmfPath1)"
     style="fill:#000000;fill-rule:evenodd;fill-opacity:1;stroke:none;" />
  <path
     id="path230"
     d="  M 165.52049,34.059537   L 165.52049,34.859369   L 162.45406,34.859369   L 162.45406,34.059537   L 165.52049,34.059537  z "
     clip-path="url(#clipWmfPath1)"
     style="fill:none;stroke:#000000;stroke-width:0.066661492px;stroke-linecap:round;stroke-linejoin:round;stroke-miterlimit:4;stroke-dasharray:none;stroke-opacity:1;" />
  <path
     id="path232"
     d="  M 168.18695,30.326985   L 168.18695,38.525268   L 170.78674,38.525268   L 171.85333,38.192005   L 172.5866,37.258867   L 173.05323,35.925812   L 173.18656,34.459453   L 173.05323,32.92644   L 172.5866,31.593386   L 171.85333,30.660248   L 171.32004,30.393637   L 170.78674,30.326985   L 168.18695,30.326985   L 169.58684,31.393428   L 169.58684,37.458825   L 170.32011,37.458825   L 170.98673,37.192214   L 171.3867,36.525687   L 171.78667,34.459453   L 171.3867,32.326566   L 170.98673,31.660039   L 170.32011,31.393428   L 169.58684,31.393428   L 168.18695,30.326985  z "
     clip-path="url(#clipWmfPath1)"
     style="fill:#000000;fill-rule:evenodd;fill-opacity:1;stroke:none;" />
  <path
     id="path234"
     d="  M 168.18695,30.326985   L 168.18695,38.525268   L 170.78674,38.525268   L 171.85333,38.192005   L 172.5866,37.258867   L 173.05323,35.925812   L 173.18656,34.459453   L 173.05323,32.92644   L 172.5866,31.593386   L 171.85333,30.660248   L 171.32004,30.393637   L 170.78674,30.326985   L 168.18695,30.326985  z "
     clip-path="url(#clipWmfPath1)"
     style="fill:none;stroke:#000000;stroke-width:0.066661492px;stroke-linecap:round;stroke-linejoin:round;stroke-miterlimit:4;stroke-dasharray:none;stroke-opacity:1;" />
  <path
     id="path236"
     d="  M 169.58684,31.393428   L 169.58684,37.458825   L 170.32011,37.458825   L 170.98673,37.192214   L 171.3867,36.525687   L 171.78667,34.459453   L 171.3867,32.326566   L 170.98673,31.660039   L 170.32011,31.393428   L 169.58684,31.393428  z "
     clip-path="url(#clipWmfPath1)"
     style="fill:none;stroke:#000000;stroke-width:0.066661492px;stroke-linecap:round;stroke-linejoin:round;stroke-miterlimit:4;stroke-dasharray:none;stroke-opacity:1;" />
  <path
     id="path238"
     d="  M 175.85302,30.326985   L 175.85302,38.525268   L 177.25291,38.525268   L 177.25291,30.326985   L 175.85302,30.326985  z "
     clip-path="url(#clipWmfPath1)"
     style="fill:#000000;fill-rule:evenodd;fill-opacity:1;stroke:none;" />
  <path
     id="path240"
     d="  M 175.85302,30.326985   L 175.85302,38.525268   L 177.25291,38.525268   L 177.25291,30.326985   L 175.85302,30.326985  z "
     clip-path="url(#clipWmfPath1)"
     style="fill:none;stroke:#000000;stroke-width:0.066661492px;stroke-linecap:round;stroke-linejoin:round;stroke-miterlimit:4;stroke-dasharray:none;stroke-opacity:1;" />
  <path
     id="path242"
     d="  M 184.51901,32.793135   L 184.51901,32.193261   L 184.31903,31.260123   L 183.78573,30.660248   L 183.05246,30.260332   L 182.1192,30.127026   L 181.31926,30.260332   L 180.65264,30.660248   L 180.18601,31.326775   L 179.98603,32.193261   L 180.11935,33.259704   L 180.78597,34.126189   L 182.58583,35.392591   L 183.05246,35.925812   L 183.18578,36.59234   L 182.91914,37.325519   L 182.18586,37.525478   L 181.58591,37.192214   L 181.38592,36.525687   L 181.38592,35.659202   L 179.91937,35.659202   L 179.91937,36.392381   L 180.05269,37.392172   L 180.51932,38.125352   L 181.2526,38.591921   L 182.18586,38.725226   L 183.25244,38.591921   L 184.05238,38.125352   L 184.51901,37.392172   L 184.65233,36.259076   L 184.45235,35.12598   L 183.65241,34.259495   L 182.1192,33.126399   L 181.58591,32.726482   L 181.38592,32.059955   L 181.58591,31.526733   L 182.18586,31.326775   L 182.78581,31.593386   L 183.05246,32.259913   L 183.05246,32.793135   L 184.51901,32.793135  z "
     clip-path="url(#clipWmfPath1)"
     style="fill:#000000;fill-rule:evenodd;fill-opacity:1;stroke:none;" />
  <path
     id="path244"
     d="  M 184.51901,32.793135   L 184.51901,32.193261   L 184.31903,31.260123   L 183.78573,30.660248   L 183.05246,30.260332   L 182.1192,30.127026   L 181.31926,30.260332   L 180.65264,30.660248   L 180.18601,31.326775   L 179.98603,32.193261   L 180.11935,33.259704   L 180.78597,34.126189   L 182.58583,35.392591   L 183.05246,35.925812   L 183.18578,36.59234   L 182.91914,37.325519   L 182.18586,37.525478   L 181.58591,37.192214   L 181.38592,36.525687   L 181.38592,35.659202   L 179.91937,35.659202   L 179.91937,36.392381   L 180.05269,37.392172   L 180.51932,38.125352   L 181.2526,38.591921   L 182.18586,38.725226   L 183.25244,38.591921   L 184.05238,38.125352   L 184.51901,37.392172   L 184.65233,36.259076   L 184.45235,35.12598   L 183.65241,34.259495   L 182.1192,33.126399   L 181.58591,32.726482   L 181.38592,32.059955   L 181.58591,31.526733   L 182.18586,31.326775   L 182.78581,31.593386   L 183.05246,32.259913   L 183.05246,32.793135   L 184.51901,32.793135  z "
     clip-path="url(#clipWmfPath1)"
     style="fill:none;stroke:#000000;stroke-width:0.066661492px;stroke-linecap:round;stroke-linejoin:round;stroke-miterlimit:4;stroke-dasharray:none;stroke-opacity:1;" />
  <path
     id="path246"
     d="  M 187.31879,30.326985   L 187.31879,38.525268   L 188.71869,38.525268   L 188.71869,36.192423   L 189.18532,35.325938   L 190.65187,38.525268   L 192.18508,38.525268   L 190.11858,33.792926   L 192.11842,30.326985   L 190.58521,30.326985   L 188.71869,33.459662   L 188.71869,30.326985   L 187.31879,30.326985  z "
     clip-path="url(#clipWmfPath1)"
     style="fill:#000000;fill-rule:evenodd;fill-opacity:1;stroke:none;" />
  <path
     id="path248"
     d="  M 187.31879,30.326985   L 187.31879,38.525268   L 188.71869,38.525268   L 188.71869,36.192423   L 189.18532,35.325938   L 190.65187,38.525268   L 192.18508,38.525268   L 190.11858,33.792926   L 192.11842,30.326985   L 190.58521,30.326985   L 188.71869,33.459662   L 188.71869,30.326985   L 187.31879,30.326985  z "
     clip-path="url(#clipWmfPath1)"
     style="fill:none;stroke:#000000;stroke-width:0.066661492px;stroke-linecap:round;stroke-linejoin:round;stroke-miterlimit:4;stroke-dasharray:none;stroke-opacity:1;" />
  <path
     id="path250"
     d="  M 173.38654,46.390288   L 173.25322,45.257192   L 172.85325,44.390707   L 172.11997,43.857485   L 170.98673,43.657527   L 170.18679,43.72418   L 169.58684,43.990791   L 169.18687,44.45736   L 168.92022,44.990581   L 168.65358,46.390288   L 168.65358,47.989954   L 168.65358,49.589619   L 168.92022,50.989326   L 169.18687,51.522547   L 169.58684,51.922464   L 170.18679,52.189075   L 170.98673,52.255727   L 171.85333,52.122422   L 172.5866,51.522547   L 172.5866,52.055769   L 173.38654,52.055769   L 173.38654,47.590037   L 170.92007,47.590037   L 170.92007,48.923092   L 171.98665,48.923092   L 171.98665,49.522966   L 171.85333,50.589409   L 171.58668,50.989326   L 171.3867,51.055978   L 170.98673,51.122631   L 170.45344,50.989326   L 170.18679,50.589409   L 170.05347,49.522966   L 170.05347,46.390288   L 170.18679,45.323845   L 170.45344,44.923929   L 170.98673,44.790623   L 171.52002,44.923929   L 171.78667,45.323845   L 171.98665,46.390288   L 173.38654,46.390288  z "
     clip-path="url(#clipWmfPath1)"
     style="fill:#000000;fill-rule:evenodd;fill-opacity:1;stroke:none;" />
  <path
     id="path252"
     d="  M 173.38654,46.390288   L 173.25322,45.257192   L 172.85325,44.390707   L 172.11997,43.857485   L 170.98673,43.657527   L 170.18679,43.72418   L 169.58684,43.990791   L 169.18687,44.45736   L 168.92022,44.990581   L 168.65358,46.390288   L 168.65358,47.989954   L 168.65358,49.589619   L 168.92022,50.989326   L 169.18687,51.522547   L 169.58684,51.922464   L 170.18679,52.189075   L 170.98673,52.255727   L 171.85333,52.122422   L 172.5866,51.522547   L 172.5866,52.055769   L 173.38654,52.055769   L 173.38654,47.590037   L 170.92007,47.590037   L 170.92007,48.923092   L 171.98665,48.923092   L 171.98665,49.522966   L 171.85333,50.589409   L 171.58668,50.989326   L 171.3867,51.055978   L 170.98673,51.122631   L 170.45344,50.989326   L 170.18679,50.589409   L 170.05347,49.522966   L 170.05347,46.390288   L 170.18679,45.323845   L 170.45344,44.923929   L 170.98673,44.790623   L 171.52002,44.923929   L 171.78667,45.323845   L 171.98665,46.390288   L 173.38654,46.390288  z "
     clip-path="url(#clipWmfPath1)"
     style="fill:none;stroke:#000000;stroke-width:0.066661492px;stroke-linecap:round;stroke-linejoin:round;stroke-miterlimit:4;stroke-dasharray:none;stroke-opacity:1;" />
  <path
     id="path254"
     d="  M 176.053,43.857485   L 176.053,52.055769   L 177.45289,52.055769   L 177.45289,46.323636   L 179.65272,52.055769   L 181.2526,52.055769   L 181.2526,43.857485   L 179.85271,43.857485   L 179.85271,49.522966   L 177.71954,43.857485   L 176.053,43.857485  z "
     clip-path="url(#clipWmfPath1)"
     style="fill:#000000;fill-rule:evenodd;fill-opacity:1;stroke:none;" />
  <path
     id="path256"
     d="  M 176.053,43.857485   L 176.053,52.055769   L 177.45289,52.055769   L 177.45289,46.323636   L 179.65272,52.055769   L 181.2526,52.055769   L 181.2526,43.857485   L 179.85271,43.857485   L 179.85271,49.522966   L 177.71954,43.857485   L 176.053,43.857485  z "
     clip-path="url(#clipWmfPath1)"
     style="fill:none;stroke:#000000;stroke-width:0.066661492px;stroke-linecap:round;stroke-linejoin:round;stroke-miterlimit:4;stroke-dasharray:none;stroke-opacity:1;" />
  <path
     id="path258"
     d="  M 183.91906,43.857485   L 183.91906,52.055769   L 186.51886,52.055769   L 187.58544,51.722506   L 188.31872,50.789368   L 188.78535,49.456313   L 188.91867,47.989954   L 188.78535,46.456941   L 188.31872,45.123887   L 187.58544,44.190749   L 187.05215,43.924138   L 186.51886,43.857485   L 183.91906,43.857485   L 185.31895,44.923929   L 185.31895,50.989326   L 186.05223,50.989326   L 186.71884,50.722715   L 187.11881,50.056188   L 187.51878,47.989954   L 187.11881,45.857067   L 186.71884,45.19054   L 186.05223,44.923929   L 185.31895,44.923929   L 183.91906,43.857485  z "
     clip-path="url(#clipWmfPath1)"
     style="fill:#000000;fill-rule:evenodd;fill-opacity:1;stroke:none;" />
  <path
     id="path260"
     d="  M 183.91906,43.857485   L 183.91906,52.055769   L 186.51886,52.055769   L 187.58544,51.722506   L 188.31872,50.789368   L 188.78535,49.456313   L 188.91867,47.989954   L 188.78535,46.456941   L 188.31872,45.123887   L 187.58544,44.190749   L 187.05215,43.924138   L 186.51886,43.857485   L 183.91906,43.857485  z "
     clip-path="url(#clipWmfPath1)"
     style="fill:none;stroke:#000000;stroke-width:0.066661492px;stroke-linecap:round;stroke-linejoin:round;stroke-miterlimit:4;stroke-dasharray:none;stroke-opacity:1;" />
  <path
     id="path262"
     d="  M 185.31895,44.923929   L 185.31895,50.989326   L 186.05223,50.989326   L 186.71884,50.722715   L 187.11881,50.056188   L 187.51878,47.989954   L 187.11881,45.857067   L 186.71884,45.19054   L 186.05223,44.923929   L 185.31895,44.923929  z "
     clip-path="url(#clipWmfPath1)"
     style="fill:none;stroke:#000000;stroke-width:0.066661492px;stroke-linecap:round;stroke-linejoin:round;stroke-miterlimit:4;stroke-dasharray:none;stroke-opacity:1;" />
  <path
     id="path264"
     d="  M 163.5873,58.121166   L 163.5873,59.320915   L 162.45406,59.320915   L 162.45406,60.120747   L 163.5873,60.120747   L 163.5873,61.320496   L 164.38724,61.320496   L 164.38724,60.120747   L 165.52049,60.120747   L 165.52049,59.320915   L 164.38724,59.320915   L 164.38724,58.121166   L 163.5873,58.121166  z "
     clip-path="url(#clipWmfPath1)"
     style="fill:#000000;fill-rule:evenodd;fill-opacity:1;stroke:none;" />
  <path
     id="path266"
     d="  M 163.5873,58.121166   L 163.5873,59.320915   L 162.45406,59.320915   L 162.45406,60.120747   L 163.5873,60.120747   L 163.5873,61.320496   L 164.38724,61.320496   L 164.38724,60.120747   L 165.52049,60.120747   L 165.52049,59.320915   L 164.38724,59.320915   L 164.38724,58.121166   L 163.5873,58.121166  z "
     clip-path="url(#clipWmfPath1)"
     style="fill:none;stroke:#000000;stroke-width:0.066661492px;stroke-linecap:round;stroke-linejoin:round;stroke-miterlimit:4;stroke-dasharray:none;stroke-opacity:1;" />
  <path
     id="path268"
     d="  M 172.18663,55.588363   L 168.45359,55.588363   L 168.25361,59.920789   L 169.52018,59.920789   L 169.78682,59.45422   L 170.25345,59.254262   L 170.78674,59.45422   L 171.05339,59.920789   L 171.12005,60.987233   L 171.05339,62.120329   L 170.78674,62.586898   L 170.65342,62.720203   L 170.25345,62.786856   L 169.85348,62.586898   L 169.58684,62.186982   L 169.52018,61.120538   L 168.18695,61.120538   L 168.18695,61.587107   L 168.32027,62.520245   L 168.72024,63.253425   L 169.32019,63.719994   L 170.25345,63.919952   L 171.3867,63.719994   L 172.11997,63.12012   L 172.45328,62.120329   L 172.5866,60.853927   L 172.51994,59.854137   L 172.18663,58.987651   L 171.58668,58.387777   L 170.58676,58.187819   L 169.98681,58.254471   L 169.52018,58.587735   L 169.58684,56.921417   L 172.18663,56.921417   L 172.18663,55.588363  z "
     clip-path="url(#clipWmfPath1)"
     style="fill:#000000;fill-rule:evenodd;fill-opacity:1;stroke:none;" />
  <path
     id="path270"
     d="  M 172.18663,55.588363   L 168.45359,55.588363   L 168.25361,59.920789   L 169.52018,59.920789   L 169.78682,59.45422   L 170.25345,59.254262   L 170.78674,59.45422   L 171.05339,59.920789   L 171.12005,60.987233   L 171.05339,62.120329   L 170.78674,62.586898   L 170.65342,62.720203   L 170.25345,62.786856   L 169.85348,62.586898   L 169.58684,62.186982   L 169.52018,61.120538   L 168.18695,61.120538   L 168.18695,61.587107   L 168.32027,62.520245   L 168.72024,63.253425   L 169.32019,63.719994   L 170.25345,63.919952   L 171.3867,63.719994   L 172.11997,63.12012   L 172.45328,62.120329   L 172.5866,60.853927   L 172.51994,59.854137   L 172.18663,58.987651   L 171.58668,58.387777   L 170.58676,58.187819   L 169.98681,58.254471   L 169.52018,58.587735   L 169.58684,56.921417   L 172.18663,56.921417   L 172.18663,55.588363  z "
     clip-path="url(#clipWmfPath1)"
     style="fill:none;stroke:#000000;stroke-width:0.066661492px;stroke-linecap:round;stroke-linejoin:round;stroke-miterlimit:4;stroke-dasharray:none;stroke-opacity:1;" />
  <path
     id="path272"
     d="  M 175.05308,55.588363   L 176.85294,63.786647   L 178.78612,63.786647   L 180.58598,55.588363   L 178.91945,55.588363   L 177.7862,62.453592   L 176.71962,55.588363   L 175.05308,55.588363  z "
     clip-path="url(#clipWmfPath1)"
     style="fill:#000000;fill-rule:evenodd;fill-opacity:1;stroke:none;" />
  <path
     id="path274"
     d="  M 175.05308,55.588363   L 176.85294,63.786647   L 178.78612,63.786647   L 180.58598,55.588363   L 178.91945,55.588363   L 177.7862,62.453592   L 176.71962,55.588363   L 175.05308,55.588363  z "
     clip-path="url(#clipWmfPath1)"
     style="fill:none;stroke:#000000;stroke-width:0.066661492px;stroke-linecap:round;stroke-linejoin:round;stroke-miterlimit:4;stroke-dasharray:none;stroke-opacity:1;" />
  <path
     id="path276"
     d="  M 183.25244,55.588363   L 183.25244,63.786647   L 185.85224,63.786647   L 186.91882,63.453383   L 187.6521,62.520245   L 188.11873,61.187191   L 188.25205,59.720831   L 188.11873,58.187819   L 187.6521,56.854764   L 186.91882,55.921626   L 186.38553,55.655016   L 185.85224,55.588363   L 183.25244,55.588363   L 184.65233,56.654806   L 184.65233,62.720203   L 185.38561,62.720203   L 186.05223,62.453592   L 186.45219,61.787065   L 186.85216,59.720831   L 186.45219,57.587944   L 186.05223,56.921417   L 185.38561,56.654806   L 184.65233,56.654806   L 183.25244,55.588363  z "
     clip-path="url(#clipWmfPath1)"
     style="fill:#000000;fill-rule:evenodd;fill-opacity:1;stroke:none;" />
  <path
     id="path278"
     d="  M 183.25244,55.588363   L 183.25244,63.786647   L 185.85224,63.786647   L 186.91882,63.453383   L 187.6521,62.520245   L 188.11873,61.187191   L 188.25205,59.720831   L 188.11873,58.187819   L 187.6521,56.854764   L 186.91882,55.921626   L 186.38553,55.655016   L 185.85224,55.588363   L 183.25244,55.588363  z "
     clip-path="url(#clipWmfPath1)"
     style="fill:none;stroke:#000000;stroke-width:0.066661492px;stroke-linecap:round;stroke-linejoin:round;stroke-miterlimit:4;stroke-dasharray:none;stroke-opacity:1;" />
  <path
     id="path280"
     d="  M 184.65233,56.654806   L 184.65233,62.720203   L 185.38561,62.720203   L 186.05223,62.453592   L 186.45219,61.787065   L 186.85216,59.720831   L 186.45219,57.587944   L 186.05223,56.921417   L 185.38561,56.654806   L 184.65233,56.654806  z "
     clip-path="url(#clipWmfPath1)"
     style="fill:none;stroke:#000000;stroke-width:0.066661492px;stroke-linecap:round;stroke-linejoin:round;stroke-miterlimit:4;stroke-dasharray:none;stroke-opacity:1;" />
  <path
     id="path282"
     d="  M 195.65148,58.121166   L 195.51816,56.98807   L 195.11819,56.121585   L 194.38491,55.588363   L 193.25167,55.388405   L 192.45173,55.455057   L 191.85178,55.721668   L 191.45181,56.188237   L 191.18516,56.721459   L 190.91851,58.121166   L 190.91851,59.720831   L 190.91851,61.320496   L 191.18516,62.720203   L 191.45181,63.253425   L 191.85178,63.653341   L 192.45173,63.919952   L 193.25167,63.986605   L 194.38491,63.786647   L 195.11819,63.320078   L 195.51816,62.453592   L 195.65148,61.253844   L 194.25159,61.253844   L 194.0516,62.320287   L 193.78496,62.720203   L 193.65164,62.786856   L 193.25167,62.853509   L 192.71837,62.720203   L 192.45173,62.320287   L 192.31841,61.253844   L 192.31841,58.121166   L 192.45173,57.054723   L 192.71837,56.654806   L 193.25167,56.521501   L 193.78496,56.654806   L 194.0516,57.054723   L 194.25159,58.121166   L 195.65148,58.121166  z "
     clip-path="url(#clipWmfPath1)"
     style="fill:#000000;fill-rule:evenodd;fill-opacity:1;stroke:none;" />
  <path
     id="path284"
     d="  M 195.65148,58.121166   L 195.51816,56.98807   L 195.11819,56.121585   L 194.38491,55.588363   L 193.25167,55.388405   L 192.45173,55.455057   L 191.85178,55.721668   L 191.45181,56.188237   L 191.18516,56.721459   L 190.91851,58.121166   L 190.91851,59.720831   L 190.91851,61.320496   L 191.18516,62.720203   L 191.45181,63.253425   L 191.85178,63.653341   L 192.45173,63.919952   L 193.25167,63.986605   L 194.38491,63.786647   L 195.11819,63.320078   L 195.51816,62.453592   L 195.65148,61.253844   L 194.25159,61.253844   L 194.0516,62.320287   L 193.78496,62.720203   L 193.65164,62.786856   L 193.25167,62.853509   L 192.71837,62.720203   L 192.45173,62.320287   L 192.31841,61.253844   L 192.31841,58.121166   L 192.45173,57.054723   L 192.71837,56.654806   L 193.25167,56.521501   L 193.78496,56.654806   L 194.0516,57.054723   L 194.25159,58.121166   L 195.65148,58.121166  z "
     clip-path="url(#clipWmfPath1)"
     style="fill:none;stroke:#000000;stroke-width:0.066661492px;stroke-linecap:round;stroke-linejoin:round;stroke-miterlimit:4;stroke-dasharray:none;stroke-opacity:1;" />
  <path
     id="path286"
     d="  M 135.45615,5.4655225   L 158.98766,5.4655225   L 158.98766,65.719575   L 135.45615,65.719575   L 135.45615,5.4655225  z "
     clip-path="url(#clipWmfPath1)"
     style="fill:#d4ebe8;fill-rule:nonzero;fill-opacity:1;stroke:none;" />
  <path
     id="path288"
     d="  M 135.45615,5.4655225   L 158.98766,5.4655225   L 158.98766,65.719575   L 135.45615,65.719575   L 135.45615,5.4655225  z "
     clip-path="url(#clipWmfPath1)"
     style="fill:none;stroke:#000000;stroke-width:0.066661492px;stroke-linecap:round;stroke-linejoin:round;stroke-miterlimit:4;stroke-dasharray:none;stroke-opacity:1;" />
  <path
     id="path290"
     d="  M 149.18842,6.9318822   L 156.12122,6.9318822   L 156.12122,13.730459   L 149.18842,13.730459   L 149.18842,6.9318822  z "
     clip-path="url(#clipWmfPath1)"
     style="fill:#000000;fill-rule:nonzero;fill-opacity:1;stroke:none;" />
  <path
     id="path292"
     d="  M 149.18842,6.9318822   L 156.12122,6.9318822   L 156.12122,13.730459   L 149.18842,13.730459   L 149.18842,6.9318822  z "
     clip-path="url(#clipWmfPath1)"
     style="fill:none;stroke:#000000;stroke-width:0.066661492px;stroke-linecap:round;stroke-linejoin:round;stroke-miterlimit:4;stroke-dasharray:none;stroke-opacity:1;" />
  <path
     id="path294"
     d="  M 137.98929,6.9318822   L 144.85542,6.9318822   L 144.85542,13.730459   L 137.98929,13.730459   L 137.98929,6.9318822  z "
     clip-path="url(#clipWmfPath1)"
     style="fill:#ffffff;fill-rule:nonzero;fill-opacity:1;stroke:none;" />
  <path
     id="path296"
     d="  M 137.98929,6.9318822   L 144.85542,6.9318822   L 144.85542,13.730459   L 137.98929,13.730459   L 137.98929,6.9318822  z "
     clip-path="url(#clipWmfPath1)"
     style="fill:none;stroke:#000000;stroke-width:0.066661492px;stroke-linecap:round;stroke-linejoin:round;stroke-miterlimit:4;stroke-dasharray:none;stroke-opacity:1;" />
  <path
     id="path298"
     d="  M 149.58839,19.129329   L 156.58785,19.129329   L 156.58785,25.994558   L 149.58839,25.994558   L 149.58839,19.129329  z "
     clip-path="url(#clipWmfPath1)"
     style="fill:#000000;fill-rule:nonzero;fill-opacity:1;stroke:none;" />
  <path
     id="path300"
     d="  M 149.58839,19.129329   L 156.58785,19.129329   L 156.58785,25.994558   L 149.58839,25.994558   L 149.58839,19.129329  z "
     clip-path="url(#clipWmfPath1)"
     style="fill:none;stroke:#000000;stroke-width:0.066661492px;stroke-linecap:round;stroke-linejoin:round;stroke-miterlimit:4;stroke-dasharray:none;stroke-opacity:1;" />
  <path
     id="path302"
     d="  M 138.25594,19.129329   L 145.18873,19.129329   L 145.18873,25.994558   L 138.25594,25.994558   L 138.25594,19.129329  z "
     clip-path="url(#clipWmfPath1)"
     style="fill:#000000;fill-rule:nonzero;fill-opacity:1;stroke:none;" />
  <path
     id="path304"
     d="  M 138.25594,19.129329   L 145.18873,19.129329   L 145.18873,25.994558   L 138.25594,25.994558   L 138.25594,19.129329  z "
     clip-path="url(#clipWmfPath1)"
     style="fill:none;stroke:#000000;stroke-width:0.066661492px;stroke-linecap:round;stroke-linejoin:round;stroke-miterlimit:4;stroke-dasharray:none;stroke-opacity:1;" />
  <path
     id="path306"
     d="  M 149.45507,31.060164   L 156.3212,31.060164   L 156.3212,37.858741   L 149.45507,37.858741   L 149.45507,31.060164  z "
     clip-path="url(#clipWmfPath1)"
     style="fill:#000000;fill-rule:nonzero;fill-opacity:1;stroke:none;" />
  <path
     id="path308"
     d="  M 149.45507,31.060164   L 156.3212,31.060164   L 156.3212,37.858741   L 149.45507,37.858741   L 149.45507,31.060164  z "
     clip-path="url(#clipWmfPath1)"
     style="fill:none;stroke:#000000;stroke-width:0.066661492px;stroke-linecap:round;stroke-linejoin:round;stroke-miterlimit:4;stroke-dasharray:none;stroke-opacity:1;" />
  <path
     id="path310"
     d="  M 138.12261,31.060164   L 145.05541,31.060164   L 145.05541,37.858741   L 138.12261,37.858741   L 138.12261,31.060164  z "
     clip-path="url(#clipWmfPath1)"
     style="fill:#000000;fill-rule:nonzero;fill-opacity:1;stroke:none;" />
  <path
     id="path312"
     d="  M 138.12261,31.060164   L 145.05541,31.060164   L 145.05541,37.858741   L 138.12261,37.858741   L 138.12261,31.060164  z "
     clip-path="url(#clipWmfPath1)"
     style="fill:none;stroke:#000000;stroke-width:0.066661492px;stroke-linecap:round;stroke-linejoin:round;stroke-miterlimit:4;stroke-dasharray:none;stroke-opacity:1;" />
  <path
     id="path314"
     d="  M 149.45507,44.790623   L 156.45452,44.790623   L 156.45452,51.722506   L 149.45507,51.722506   L 149.45507,44.790623  z "
     clip-path="url(#clipWmfPath1)"
     style="fill:#000000;fill-rule:nonzero;fill-opacity:1;stroke:none;" />
  <path
     id="path316"
     d="  M 149.45507,44.790623   L 156.45452,44.790623   L 156.45452,51.722506   L 149.45507,51.722506   L 149.45507,44.790623  z "
     clip-path="url(#clipWmfPath1)"
     style="fill:none;stroke:#000000;stroke-width:0.066661492px;stroke-linecap:round;stroke-linejoin:round;stroke-miterlimit:4;stroke-dasharray:none;stroke-opacity:1;" />
  <path
     id="path318"
     d="  M 138.12261,44.790623   L 145.05541,44.790623   L 145.05541,51.722506   L 138.12261,51.722506   L 138.12261,44.790623  z "
     clip-path="url(#clipWmfPath1)"
     style="fill:#000000;fill-rule:nonzero;fill-opacity:1;stroke:none;" />
  <path
     id="path320"
     d="  M 138.12261,44.790623   L 145.05541,44.790623   L 145.05541,51.722506   L 138.12261,51.722506   L 138.12261,44.790623  z "
     clip-path="url(#clipWmfPath1)"
     style="fill:none;stroke:#000000;stroke-width:0.066661492px;stroke-linecap:round;stroke-linejoin:round;stroke-miterlimit:4;stroke-dasharray:none;stroke-opacity:1;" />
  <path
     id="path322"
     d="  M 149.78837,56.388195   L 156.72117,56.388195   L 156.72117,63.320078   L 149.78837,63.320078   L 149.78837,56.388195  z "
     clip-path="url(#clipWmfPath1)"
     style="fill:#000000;fill-rule:nonzero;fill-opacity:1;stroke:none;" />
  <path
     id="path324"
     d="  M 149.78837,56.388195   L 156.72117,56.388195   L 156.72117,63.320078   L 149.78837,63.320078   L 149.78837,56.388195  z "
     clip-path="url(#clipWmfPath1)"
     style="fill:none;stroke:#000000;stroke-width:0.066661492px;stroke-linecap:round;stroke-linejoin:round;stroke-miterlimit:4;stroke-dasharray:none;stroke-opacity:1;" />
  <path
     id="path326"
     d="  M 138.38926,56.388195   L 145.38871,56.388195   L 145.38871,63.320078   L 138.38926,63.320078   L 138.38926,56.388195  z "
     clip-path="url(#clipWmfPath1)"
     style="fill:#000000;fill-rule:nonzero;fill-opacity:1;stroke:none;" />
  <path
     id="path328"
     d="  M 138.38926,56.388195   L 145.38871,56.388195   L 145.38871,63.320078   L 138.38926,63.320078   L 138.38926,56.388195  z "
     clip-path="url(#clipWmfPath1)"
     style="fill:none;stroke:#000000;stroke-width:0.066661492px;stroke-linecap:round;stroke-linejoin:round;stroke-miterlimit:4;stroke-dasharray:none;stroke-opacity:1;" />
</svg>
