<?xml version="1.0" encoding="UTF-8" standalone="no"?>
<svg
   xmlns:dc="http://purl.org/dc/elements/1.1/"
   xmlns:cc="http://creativecommons.org/ns#"
   xmlns:rdf="http://www.w3.org/1999/02/22-rdf-syntax-ns#"
   xmlns:svg="http://www.w3.org/2000/svg"
   xmlns="http://www.w3.org/2000/svg"
   id="svg478"
   height="33.030001mm"
   width="85.559999mm"
   version="1.0">
  <metadata
     id="metadata482">
    <rdf:RDF>
      <cc:Work
         rdf:about="">
        <dc:format>image/svg+xml</dc:format>
        <dc:type
           rdf:resource="http://purl.org/dc/dcmitype/StillImage" />
      </cc:Work>
    </rdf:RDF>
  </metadata>
  <defs
     id="defs6">
    <clipPath
       id="clipWmfPath1"
       clipPathUnits="userSpaceOnUse">
      <path
         id="path2"
         d="M 0,0 L 323.27191,0 L 323.27191,124.73333 L 0,124.73333 z" />
    </clipPath>
    <pattern
       y="0"
       x="0"
       height="6"
       width="6"
       patternUnits="userSpaceOnUse"
       id="WMFhbasepattern" />
  </defs>
  <path
     id="path8"
     d="  M 3.3333875,101.8   L 3.3333875,30   L 319.93853,30   L 319.67186,101.86667   L 294.40478,101.86667   L 294.40478,121.4   L 41.000666,121.4   L 41.067333,101.8   L 3.3333875,101.8  z "
     clip-path="url(#clipWmfPath1)"
     style="fill:#e5e5e5;fill-rule:evenodd;fill-opacity:1;stroke:none;" />
  <path
     id="path10"
     d="  M 3.3333875,101.8   L 3.3333875,30   L 319.93853,30   L 319.67186,101.86667   L 294.40478,101.86667   L 294.40478,121.4   L 41.000666,121.4   L 41.067333,101.8   L 3.3333875,101.8  z "
     clip-path="url(#clipWmfPath1)"
     style="fill:none;stroke:#000000;stroke-width:0.06666775px;stroke-linecap:round;stroke-linejoin:round;stroke-miterlimit:4;stroke-dasharray:none;stroke-opacity:1;" />
  <path
     id="path12"
     d="  M 222.0036,50.2   L 222.0036,50.666667   L 222.80362,50.866667   L 223.33696,51.466667   L 223.53696,52.466667   L 223.60363,54   L 223.60363,66.933333   L 223.53696,68.4   L 223.33696,69.466667   L 222.80362,70   L 222.0036,70.2   L 222.0036,70.666667   L 225.937,70.666667   L 225.937,70.2   L 225.07032,70   L 224.60365,69.466667   L 224.40364,68.4   L 224.33698,66.933333   L 224.33698,54   L 228.53704,70.666667   L 228.67038,70.666667   L 232.93712,53.2   L 232.93712,66.933333   L 232.87045,68.2   L 232.67044,69.266667   L 232.20377,69.933333   L 231.53709,70.2   L 231.53709,70.666667   L 236.00383,70.666667   L 236.00383,70.2   L 235.20382,70   L 234.80381,69.4   L 234.60381,68.333333   L 234.53714,66.933333   L 234.53714,53.2   L 234.60381,51.933333   L 234.87048,51.2   L 235.33715,50.8   L 236.00383,50.666667   L 236.00383,50.2   L 232.67044,50.2   L 229.13705,65.6   L 229.07039,65.733333   L 229.00372,65.6   L 225.20366,50.2   L 222.0036,50.2  z "
     clip-path="url(#clipWmfPath1)"
     style="fill:#cccccc;fill-rule:nonzero;fill-opacity:1;stroke:none;" />
  <path
     id="path14"
     d="  M 261.67091,48.666667   L 237.47052,48.666667   L 249.60405,32.933333   L 261.67091,48.666667  z "
     clip-path="url(#clipWmfPath1)"
     style="fill:#cccccc;fill-rule:nonzero;fill-opacity:1;stroke:none;" />
  <path
     id="path16"
     d="  M 252.67077,33.8   L 255.13748,35.533333   L 250.20406,42.2   L 247.80402,40.466667   L 252.67077,33.8  z "
     clip-path="url(#clipWmfPath1)"
     style="fill:#cccccc;fill-rule:nonzero;fill-opacity:1;stroke:none;" />
  <path
     id="path18"
     d="  M 221.6036,77.666667   L 221.6036,78   L 222.20361,78.2   L 222.60361,78.666667   L 222.93695,80.533333   L 222.93695,93.066667   L 222.60361,94.933333   L 222.20361,95.4   L 221.6036,95.6   L 221.6036,96   L 225.937,96   L 225.937,95.6   L 225.33699,95.4   L 224.93699,94.933333   L 224.60365,93.066667   L 224.60365,87.266667   L 229.47039,87.266667   L 229.47039,93.066667   L 229.13705,94.933333   L 228.73705,95.4   L 228.07037,95.6   L 228.07037,96   L 232.47044,96   L 232.47044,95.6   L 231.87043,95.4   L 231.40376,94.933333   L 231.13709,93.066667   L 231.13709,80.533333   L 231.40376,78.666667   L 231.87043,78.2   L 232.47044,78   L 232.47044,77.666667   L 228.07037,77.666667   L 228.07037,78   L 228.73705,78.2   L 229.13705,78.666667   L 229.47039,80.533333   L 229.47039,86   L 224.60365,86   L 224.60365,80.533333   L 224.93699,78.666667   L 225.33699,78.2   L 225.937,78   L 225.937,77.666667   L 221.6036,77.666667  z "
     clip-path="url(#clipWmfPath1)"
     style="fill:#cccccc;fill-rule:nonzero;fill-opacity:1;stroke:none;" />
  <path
     id="path20"
     d="  M 244.1373,77.666667   L 244.1373,78   L 244.80397,78.133333   L 245.20398,78.533333   L 245.47065,79.333333   L 245.53732,80.466667   L 245.53732,89.066667   L 245.80399,92.2   L 246.53734,94.533333   L 247.07068,95.4   L 247.73736,96   L 248.60404,96.333333   L 249.53738,96.466667   L 250.5374,96.333333   L 251.33741,95.933333   L 252.07076,95.333333   L 252.67077,94.466667   L 253.40411,92.133333   L 253.67078,89.066667   L 253.67078,80.466667   L 254.00412,78.6   L 254.40413,78.133333   L 255.07081,78   L 255.07081,77.666667   L 251.53742,77.666667   L 251.53742,78   L 252.13743,78.133333   L 252.53743,78.6   L 252.8041,79.4   L 252.87077,80.466667   L 252.87077,88.8   L 252.73744,91.2   L 252.27076,93.2   L 251.40408,94.533333   L 250.80407,94.933333   L 250.07073,95.066667   L 249.27071,94.933333   L 248.60404,94.6   L 248.07069,94.066667   L 247.67069,93.4   L 247.20401,91.466667   L 247.07068,89.066667   L 247.07068,80.466667   L 247.13735,79.333333   L 247.40402,78.533333   L 247.87069,78.133333   L 248.53737,78   L 248.53737,77.666667   L 244.1373,77.666667  z "
     clip-path="url(#clipWmfPath1)"
     style="fill:#cccccc;fill-rule:nonzero;fill-opacity:1;stroke:none;" />
  <path
     id="path22"
     d="  M 261.93759,77.2   L 261.67091,77.2   L 261.47091,78   L 260.93757,78.2   L 260.20422,77.666667   L 258.73753,77.333333   L 257.67085,77.666667   L 256.80417,78.6   L 256.20416,80   L 256.00416,81.8   L 256.20416,83.8   L 256.80417,85.333333   L 257.67085,86.533333   L 258.67087,87.533333   L 260.27089,89.333333   L 260.8709,90.533333   L 261.07091,91   L 261.13757,92.066667   L 261.00424,93.466667   L 260.60423,94.533333   L 259.93755,95.2   L 259.13754,95.466667   L 258.53753,95.333333   L 257.93752,95.066667   L 257.07084,93.933333   L 256.40416,92.333333   L 255.93749,90.466667   L 255.60415,90.466667   L 256.00416,96.4   L 256.33749,96.4   L 256.47083,95.733333   L 256.80417,95.466667   L 257.27084,95.6   L 257.73752,96   L 258.33753,96.333333   L 259.20421,96.466667   L 260.4709,96.066667   L 261.53758,95   L 262.33759,93.266667   L 262.67093,91.133333   L 262.33759,89.133333   L 261.60425,87.533333   L 259.60421,85.066667   L 258.13752,83.333333   L 257.53751,82.133333   L 257.33751,80.666667   L 257.47085,79.666667   L 257.80419,78.933333   L 258.33753,78.4   L 258.87087,78.2   L 260.00422,78.6   L 261.00424,79.666667   L 261.60425,81.2   L 261.87092,83.066667   L 262.27092,83.066667   L 261.93759,77.2  z "
     clip-path="url(#clipWmfPath1)"
     style="fill:#cccccc;fill-rule:nonzero;fill-opacity:1;stroke:none;" />
  <path
     id="path24"
     d="  M 263.27094,77.666667   L 263.27094,78   L 263.87095,78.133333   L 264.27096,78.6   L 264.53763,80.333333   L 264.53763,93.333333   L 264.47096,94.4   L 264.27096,95.066667   L 263.87095,95.466667   L 263.27094,95.6   L 263.27094,96   L 271.87108,96   L 272.47109,91.4   L 272.13775,91.4   L 271.13774,93.933333   L 270.40439,94.666667   L 270.13772,94.866667   L 269.53771,95   L 267.47101,95.066667   L 267.20434,95.066667   L 266.40433,94.866667   L 266.27099,94.466667   L 266.20432,93.733333   L 266.20432,86.933333   L 268.40436,86.933333   L 269.27104,87   L 269.87105,87.333333   L 270.27105,88.2   L 270.47106,89.733333   L 270.8044,89.733333   L 270.8044,83   L 270.47106,83   L 270.27105,84.533333   L 269.87105,85.333333   L 269.27104,85.733333   L 268.40436,85.8   L 266.20432,85.8   L 266.20432,79   L 266.27099,78.666667   L 266.53766,78.466667   L 268.7377,78.466667   L 269.67104,78.533333   L 270.53773,79   L 271.07107,79.933333   L 271.33774,81.533333   L 271.60441,81.533333   L 271.60441,77.666667   L 263.27094,77.666667  z "
     clip-path="url(#clipWmfPath1)"
     style="fill:#cccccc;fill-rule:nonzero;fill-opacity:1;stroke:none;" />
  <path
     id="path26"
     d="  M 236.13717,52.4   L 236.13717,52.733333   L 236.80384,52.933333   L 237.27052,53.4   L 237.60386,55.2   L 237.60386,67.8   L 237.27052,69.6   L 236.80384,70.066667   L 236.13717,70.266667   L 236.13717,70.666667   L 240.73724,70.666667   L 240.73724,70.266667   L 240.07056,70.066667   L 239.67056,69.6   L 239.33722,67.8   L 239.33722,55.2   L 239.67056,53.4   L 240.07056,52.933333   L 240.73724,52.733333   L 240.73724,52.4   L 236.13717,52.4  z "
     clip-path="url(#clipWmfPath1)"
     style="fill:#cccccc;fill-rule:nonzero;fill-opacity:1;stroke:none;" />
  <path
     id="path28"
     d="  M 251.73742,67.4   L 251.40408,66.933333   L 250.5374,68.066667   L 249.60405,69   L 248.60404,69.6   L 247.53735,69.8   L 246.47067,69.6   L 245.60399,69.066667   L 244.93731,68.266667   L 244.3373,67.2   L 243.60395,64.6   L 243.40395,61.6   L 243.60395,58.533333   L 244.20396,55.8   L 244.73731,54.666667   L 245.40398,53.8   L 246.27066,53.2   L 247.33735,53   L 248.6707,53.4   L 249.80406,54.533333   L 250.67074,56.133333   L 251.13741,58.2   L 251.40408,58.2   L 251.33741,52.066667   L 250.93741,52.066667   L 250.47073,52.8   L 249.80406,52.8   L 248.53737,52.266667   L 247.20401,52.066667   L 246.00399,52.266667   L 244.93731,52.733333   L 243.93729,53.533333   L 243.07061,54.6   L 242.33727,55.933333   L 241.80393,57.466667   L 241.47059,59.266667   L 241.33725,61.2   L 241.47059,63.266667   L 241.73726,65.2   L 242.20393,66.866667   L 242.87061,68.333333   L 243.73729,69.533333   L 244.73731,70.4   L 245.87066,70.933333   L 247.20401,71.133333   L 248.53737,70.866667   L 249.67072,70.133333   L 250.7374,68.933333   L 251.73742,67.4  z "
     clip-path="url(#clipWmfPath1)"
     style="fill:#cccccc;fill-rule:nonzero;fill-opacity:1;stroke:none;" />
  <path
     id="path30"
     d="  M 272.33775,52.266667   L 272.33775,51.2   L 271.93775,51.2   L 271.93775,51.133333   L 272.8711,51.133333   L 272.8711,51.2   L 272.47109,51.2   L 272.47109,52.266667   L 272.33775,52.266667  z "
     clip-path="url(#clipWmfPath1)"
     style="fill:#cccccc;fill-rule:nonzero;fill-opacity:1;stroke:none;" />
  <path
     id="path32"
     d="  M 272.93776,52.266667   L 272.93776,51.133333   L 273.13777,51.133333   L 273.47111,52.066667   L 273.73778,51.133333   L 273.93778,51.133333   L 273.93778,52.266667   L 273.80445,52.266667   L 273.80445,51.266667   L 273.47111,52.266667   L 273.40444,52.266667   L 273.0711,51.266667   L 273.0711,52.266667   L 272.93776,52.266667  z "
     clip-path="url(#clipWmfPath1)"
     style="fill:#cccccc;fill-rule:nonzero;fill-opacity:1;stroke:none;" />
  <path
     id="path34"
     d="  M 266.871,49.933333   L 265.73765,50.133333   L 264.67096,50.666667   L 263.73762,51.533333   L 262.9376,52.733333   L 262.27092,54.2   L 261.80425,55.933333   L 261.53758,57.866667   L 261.40424,60   L 261.47091,62.266667   L 261.73758,64.333333   L 262.20426,66.266667   L 262.80427,67.866667   L 263.53761,69.266667   L 264.47096,70.266667   L 265.60431,70.933333   L 266.871,71.133333   L 268.13769,70.933333   L 269.20437,70.266667   L 270.13772,69.266667   L 270.93773,67.866667   L 271.53774,66.266667   L 272.00442,64.333333   L 272.27109,62.266667   L 272.33775,60   L 272.20442,57.866667   L 271.93775,55.933333   L 271.47107,54.2   L 270.8044,52.733333   L 270.00438,51.533333   L 269.07103,50.666667   L 268.00435,50.133333   L 266.871,49.933333   L 266.871,50.933333   L 267.80435,51.133333   L 268.60436,51.733333   L 269.20437,52.6   L 269.73771,53.8   L 270.33772,56.666667   L 270.53773,60   L 270.40439,63.4   L 269.80438,66.6   L 269.33771,67.933333   L 268.67103,69   L 267.87102,69.666667   L 266.871,69.933333   L 265.87098,69.666667   L 265.07097,69   L 264.47096,67.933333   L 264.00429,66.6   L 263.40428,63.4   L 263.27094,60   L 263.47094,56.666667   L 264.07095,53.8   L 264.53763,52.6   L 265.20431,51.733333   L 265.93765,51.133333   L 266.871,50.933333   L 266.871,49.933333  z "
     clip-path="url(#clipWmfPath1)"
     style="fill:#cccccc;fill-rule:evenodd;fill-opacity:1;stroke:none;" />
  <path
     id="path36"
     d="  M 253.80412,55.533333   L 253.80412,67.6   L 253.73745,68.8   L 253.60412,69.666667   L 253.13744,70.133333   L 252.33743,70.266667   L 252.33743,70.666667   L 256.9375,70.666667   L 256.9375,70.266667   L 256.13749,70.133333   L 255.73749,69.666667   L 255.53748,68.8   L 255.47081,67.6   L 255.47081,62.2   L 256.47083,62.2   L 260.4709,70.666667   L 263.20427,70.666667   L 263.20427,70.266667   L 262.60426,70.066667   L 262.07092,69.466667   L 261.00424,67.733333   L 258.20419,62   L 259.33754,61.466667   L 260.33756,60.466667   L 261.00424,59   L 261.27091,57.2   L 261.13757,55.866667   L 260.8709,54.733333   L 260.40423,53.933333   L 259.80422,53.333333   L 258.4042,52.6   L 256.87084,52.4   L 252.33743,52.4   L 252.33743,52.733333   L 253.13744,52.866667   L 253.60412,53.4   L 253.73745,54.266667   L 253.80412,55.533333   L 255.47081,61.2   L 255.47081,54.133333   L 255.73749,53.333333   L 256.33749,53.266667   L 256.60417,53.266667   L 257.73752,53.466667   L 258.6042,54.133333   L 259.20421,55.333333   L 259.40421,57.2   L 259.33754,58.466667   L 259.0042,59.4   L 258.6042,60.133333   L 258.07086,60.6   L 256.80417,61.133333   L 255.47081,61.2   L 253.80412,55.533333  z "
     clip-path="url(#clipWmfPath1)"
     style="fill:#cccccc;fill-rule:evenodd;fill-opacity:1;stroke:none;" />
  <path
     id="path38"
     d="  M 238.27053,77.333333   L 237.13718,77.533333   L 236.13717,78   L 235.20382,78.8   L 234.47047,79.866667   L 233.87046,81.2   L 233.40379,82.733333   L 233.00378,86.4   L 233.07045,88.466667   L 233.33712,90.333333   L 233.73713,92.066667   L 234.33714,93.533333   L 235.07048,94.733333   L 236.00383,95.666667   L 237.07052,96.266667   L 238.27053,96.466667   L 239.47055,96.266667   L 240.53724,95.666667   L 241.40392,94.733333   L 242.20393,93.533333   L 242.73727,92.066667   L 243.20395,90.333333   L 243.47062,88.466667   L 243.53729,86.4   L 243.40395,84.466667   L 243.13728,82.733333   L 242.67061,81.2   L 242.0706,79.866667   L 241.27058,78.8   L 240.4039,78   L 239.40389,77.533333   L 238.27053,77.333333   L 238.27053,78.266667   L 239.13722,78.466667   L 239.93723,79   L 240.53724,79.8   L 241.00391,80.866667   L 241.60392,83.466667   L 241.80393,86.4   L 241.67059,89.466667   L 241.07058,92.4   L 240.0039,94.533333   L 239.20388,95.2   L 238.87054,95.333333   L 238.27053,95.4   L 237.33719,95.2   L 236.53717,94.533333   L 235.93716,93.6   L 235.47049,92.4   L 234.87048,89.466667   L 234.73714,86.4   L 234.93715,83.466667   L 235.53716,80.866667   L 236.60384,79   L 237.33719,78.466667   L 238.27053,78.266667   L 238.27053,77.333333  z "
     clip-path="url(#clipWmfPath1)"
     style="fill:#cccccc;fill-rule:evenodd;fill-opacity:1;stroke:none;" />
  <path
     id="path40"
     d="  M 221.00359,74.733333   L 221.00359,74.266667   L 273.13777,74.266667   L 273.13777,74.733333   L 221.00359,74.733333  z "
     clip-path="url(#clipWmfPath1)"
     style="fill:#cccccc;fill-rule:evenodd;fill-opacity:1;stroke:none;" />
  <path
     id="path42"
     d="  M 44.400721,121.4   L 44.400721,102.53333   L 47.867444,102.53333   L 47.867444,121.4   L 44.400721,121.4  z "
     clip-path="url(#clipWmfPath1)"
     style="fill:#e0e0e0;fill-rule:evenodd;fill-opacity:1;stroke:none;" />
  <path
     id="path44"
     d="  M 44.400721,121.4   L 44.400721,102.53333   L 47.867444,102.53333   L 47.867444,121.4   L 44.400721,121.4  z "
     clip-path="url(#clipWmfPath1)"
     style="fill:none;stroke:#000000;stroke-width:0.06666775px;stroke-linecap:round;stroke-linejoin:round;stroke-miterlimit:4;stroke-dasharray:none;stroke-opacity:1;" />
  <path
     id="path46"
     d="  M 51.334167,121.4   L 51.334167,102.53333   L 54.80089,102.53333   L 54.80089,121.4   L 51.334167,121.4  z "
     clip-path="url(#clipWmfPath1)"
     style="fill:#e0e0e0;fill-rule:evenodd;fill-opacity:1;stroke:none;" />
  <path
     id="path48"
     d="  M 51.334167,121.4   L 51.334167,102.53333   L 54.80089,102.53333   L 54.80089,121.4   L 51.334167,121.4  z "
     clip-path="url(#clipWmfPath1)"
     style="fill:none;stroke:#000000;stroke-width:0.06666775px;stroke-linecap:round;stroke-linejoin:round;stroke-miterlimit:4;stroke-dasharray:none;stroke-opacity:1;" />
  <path
     id="path50"
     d="  M 58.200945,121.4   L 58.200945,102.53333   L 61.734336,102.53333   L 61.734336,121.4   L 58.200945,121.4  z "
     clip-path="url(#clipWmfPath1)"
     style="fill:#e0e0e0;fill-rule:evenodd;fill-opacity:1;stroke:none;" />
  <path
     id="path52"
     d="  M 58.200945,121.4   L 58.200945,102.53333   L 61.734336,102.53333   L 61.734336,121.4   L 58.200945,121.4  z "
     clip-path="url(#clipWmfPath1)"
     style="fill:none;stroke:#000000;stroke-width:0.06666775px;stroke-linecap:round;stroke-linejoin:round;stroke-miterlimit:4;stroke-dasharray:none;stroke-opacity:1;" />
  <path
     id="path54"
     d="  M 65.134391,121.4   L 65.134391,102.53333   L 68.667781,102.53333   L 68.667781,121.4   L 65.134391,121.4  z "
     clip-path="url(#clipWmfPath1)"
     style="fill:#e0e0e0;fill-rule:evenodd;fill-opacity:1;stroke:none;" />
  <path
     id="path56"
     d="  M 65.134391,121.4   L 65.134391,102.53333   L 68.667781,102.53333   L 68.667781,121.4   L 65.134391,121.4  z "
     clip-path="url(#clipWmfPath1)"
     style="fill:none;stroke:#000000;stroke-width:0.06666775px;stroke-linecap:round;stroke-linejoin:round;stroke-miterlimit:4;stroke-dasharray:none;stroke-opacity:1;" />
  <path
     id="path58"
     d="  M 72.001169,121.4   L 72.001169,102.53333   L 75.467892,102.53333   L 75.467892,121.4   L 72.001169,121.4  z "
     clip-path="url(#clipWmfPath1)"
     style="fill:#e0e0e0;fill-rule:evenodd;fill-opacity:1;stroke:none;" />
  <path
     id="path60"
     d="  M 72.001169,121.4   L 72.001169,102.53333   L 75.467892,102.53333   L 75.467892,121.4   L 72.001169,121.4  z "
     clip-path="url(#clipWmfPath1)"
     style="fill:none;stroke:#000000;stroke-width:0.06666775px;stroke-linecap:round;stroke-linejoin:round;stroke-miterlimit:4;stroke-dasharray:none;stroke-opacity:1;" />
  <path
     id="path62"
     d="  M 78.934615,121.4   L 78.934615,102.53333   L 82.401338,102.53333   L 82.401338,121.4   L 78.934615,121.4  z "
     clip-path="url(#clipWmfPath1)"
     style="fill:#e0e0e0;fill-rule:evenodd;fill-opacity:1;stroke:none;" />
  <path
     id="path64"
     d="  M 78.934615,121.4   L 78.934615,102.53333   L 82.401338,102.53333   L 82.401338,121.4   L 78.934615,121.4  z "
     clip-path="url(#clipWmfPath1)"
     style="fill:none;stroke:#000000;stroke-width:0.06666775px;stroke-linecap:round;stroke-linejoin:round;stroke-miterlimit:4;stroke-dasharray:none;stroke-opacity:1;" />
  <path
     id="path66"
     d="  M 85.868061,121.4   L 85.868061,102.53333   L 89.334784,102.53333   L 89.334784,121.4   L 85.868061,121.4  z "
     clip-path="url(#clipWmfPath1)"
     style="fill:#e0e0e0;fill-rule:evenodd;fill-opacity:1;stroke:none;" />
  <path
     id="path68"
     d="  M 85.868061,121.4   L 85.868061,102.53333   L 89.334784,102.53333   L 89.334784,121.4   L 85.868061,121.4  z "
     clip-path="url(#clipWmfPath1)"
     style="fill:none;stroke:#000000;stroke-width:0.06666775px;stroke-linecap:round;stroke-linejoin:round;stroke-miterlimit:4;stroke-dasharray:none;stroke-opacity:1;" />
  <path
     id="path70"
     d="  M 92.801507,121.4   L 92.801507,102.53333   L 96.26823,102.53333   L 96.26823,121.4   L 92.801507,121.4  z "
     clip-path="url(#clipWmfPath1)"
     style="fill:#e0e0e0;fill-rule:evenodd;fill-opacity:1;stroke:none;" />
  <path
     id="path72"
     d="  M 92.801507,121.4   L 92.801507,102.53333   L 96.26823,102.53333   L 96.26823,121.4   L 92.801507,121.4  z "
     clip-path="url(#clipWmfPath1)"
     style="fill:none;stroke:#000000;stroke-width:0.06666775px;stroke-linecap:round;stroke-linejoin:round;stroke-miterlimit:4;stroke-dasharray:none;stroke-opacity:1;" />
  <path
     id="path74"
     d="  M 99.868288,121.4   L 99.868288,102.53333   L 103.33501,102.53333   L 103.33501,121.4   L 99.868288,121.4  z "
     clip-path="url(#clipWmfPath1)"
     style="fill:#e0e0e0;fill-rule:evenodd;fill-opacity:1;stroke:none;" />
  <path
     id="path76"
     d="  M 99.868288,121.4   L 99.868288,102.53333   L 103.33501,102.53333   L 103.33501,121.4   L 99.868288,121.4  z "
     clip-path="url(#clipWmfPath1)"
     style="fill:none;stroke:#000000;stroke-width:0.06666775px;stroke-linecap:round;stroke-linejoin:round;stroke-miterlimit:4;stroke-dasharray:none;stroke-opacity:1;" />
  <path
     id="path78"
     d="  M 106.8684,121.4   L 106.8684,102.53333   L 110.26846,102.53333   L 110.26846,121.4   L 106.8684,121.4  z "
     clip-path="url(#clipWmfPath1)"
     style="fill:#e0e0e0;fill-rule:evenodd;fill-opacity:1;stroke:none;" />
  <path
     id="path80"
     d="  M 106.8684,121.4   L 106.8684,102.53333   L 110.26846,102.53333   L 110.26846,121.4   L 106.8684,121.4  z "
     clip-path="url(#clipWmfPath1)"
     style="fill:none;stroke:#000000;stroke-width:0.06666775px;stroke-linecap:round;stroke-linejoin:round;stroke-miterlimit:4;stroke-dasharray:none;stroke-opacity:1;" />
  <path
     id="path82"
     d="  M 113.80185,121.4   L 113.80185,102.53333   L 117.2019,102.53333   L 117.2019,121.4   L 113.80185,121.4  z "
     clip-path="url(#clipWmfPath1)"
     style="fill:#e0e0e0;fill-rule:evenodd;fill-opacity:1;stroke:none;" />
  <path
     id="path84"
     d="  M 113.80185,121.4   L 113.80185,102.53333   L 117.2019,102.53333   L 117.2019,121.4   L 113.80185,121.4  z "
     clip-path="url(#clipWmfPath1)"
     style="fill:none;stroke:#000000;stroke-width:0.06666775px;stroke-linecap:round;stroke-linejoin:round;stroke-miterlimit:4;stroke-dasharray:none;stroke-opacity:1;" />
  <path
     id="path86"
     d="  M 120.73529,121.4   L 120.73529,102.53333   L 124.13535,102.53333   L 124.13535,121.4   L 120.73529,121.4  z "
     clip-path="url(#clipWmfPath1)"
     style="fill:#e0e0e0;fill-rule:evenodd;fill-opacity:1;stroke:none;" />
  <path
     id="path88"
     d="  M 120.73529,121.4   L 120.73529,102.53333   L 124.13535,102.53333   L 124.13535,121.4   L 120.73529,121.4  z "
     clip-path="url(#clipWmfPath1)"
     style="fill:none;stroke:#000000;stroke-width:0.06666775px;stroke-linecap:round;stroke-linejoin:round;stroke-miterlimit:4;stroke-dasharray:none;stroke-opacity:1;" />
  <path
     id="path90"
     d="  M 127.5354,121.4   L 127.5354,102.53333   L 131.00213,102.53333   L 131.00213,121.4   L 127.5354,121.4  z "
     clip-path="url(#clipWmfPath1)"
     style="fill:#e0e0e0;fill-rule:evenodd;fill-opacity:1;stroke:none;" />
  <path
     id="path92"
     d="  M 127.5354,121.4   L 127.5354,102.53333   L 131.00213,102.53333   L 131.00213,121.4   L 127.5354,121.4  z "
     clip-path="url(#clipWmfPath1)"
     style="fill:none;stroke:#000000;stroke-width:0.06666775px;stroke-linecap:round;stroke-linejoin:round;stroke-miterlimit:4;stroke-dasharray:none;stroke-opacity:1;" />
  <path
     id="path94"
     d="  M 134.46885,121.4   L 134.46885,102.53333   L 137.93557,102.53333   L 137.93557,121.4   L 134.46885,121.4  z "
     clip-path="url(#clipWmfPath1)"
     style="fill:#e0e0e0;fill-rule:evenodd;fill-opacity:1;stroke:none;" />
  <path
     id="path96"
     d="  M 134.46885,121.4   L 134.46885,102.53333   L 137.93557,102.53333   L 137.93557,121.4   L 134.46885,121.4  z "
     clip-path="url(#clipWmfPath1)"
     style="fill:none;stroke:#000000;stroke-width:0.06666775px;stroke-linecap:round;stroke-linejoin:round;stroke-miterlimit:4;stroke-dasharray:none;stroke-opacity:1;" />
  <path
     id="path98"
     d="  M 141.4023,121.4   L 141.4023,102.53333   L 144.80235,102.53333   L 144.80235,121.4   L 141.4023,121.4  z "
     clip-path="url(#clipWmfPath1)"
     style="fill:#e0e0e0;fill-rule:evenodd;fill-opacity:1;stroke:none;" />
  <path
     id="path100"
     d="  M 141.4023,121.4   L 141.4023,102.53333   L 144.80235,102.53333   L 144.80235,121.4   L 141.4023,121.4  z "
     clip-path="url(#clipWmfPath1)"
     style="fill:none;stroke:#000000;stroke-width:0.06666775px;stroke-linecap:round;stroke-linejoin:round;stroke-miterlimit:4;stroke-dasharray:none;stroke-opacity:1;" />
  <path
     id="path102"
     d="  M 148.33574,121.4   L 148.33574,102.53333   L 151.7358,102.53333   L 151.7358,121.4   L 148.33574,121.4  z "
     clip-path="url(#clipWmfPath1)"
     style="fill:#e0e0e0;fill-rule:evenodd;fill-opacity:1;stroke:none;" />
  <path
     id="path104"
     d="  M 148.33574,121.4   L 148.33574,102.53333   L 151.7358,102.53333   L 151.7358,121.4   L 148.33574,121.4  z "
     clip-path="url(#clipWmfPath1)"
     style="fill:none;stroke:#000000;stroke-width:0.06666775px;stroke-linecap:round;stroke-linejoin:round;stroke-miterlimit:4;stroke-dasharray:none;stroke-opacity:1;" />
  <path
     id="path106"
     d="  M 155.13585,121.4   L 155.13585,102.53333   L 158.53591,102.53333   L 158.53591,121.4   L 155.13585,121.4  z "
     clip-path="url(#clipWmfPath1)"
     style="fill:#e0e0e0;fill-rule:evenodd;fill-opacity:1;stroke:none;" />
  <path
     id="path108"
     d="  M 155.13585,121.4   L 155.13585,102.53333   L 158.53591,102.53333   L 158.53591,121.4   L 155.13585,121.4  z "
     clip-path="url(#clipWmfPath1)"
     style="fill:none;stroke:#000000;stroke-width:0.06666775px;stroke-linecap:round;stroke-linejoin:round;stroke-miterlimit:4;stroke-dasharray:none;stroke-opacity:1;" />
  <path
     id="path110"
     d="  M 162.0693,121.4   L 162.0693,102.53333   L 165.46935,102.53333   L 165.46935,121.4   L 162.0693,121.4  z "
     clip-path="url(#clipWmfPath1)"
     style="fill:#e0e0e0;fill-rule:evenodd;fill-opacity:1;stroke:none;" />
  <path
     id="path112"
     d="  M 162.0693,121.4   L 162.0693,102.53333   L 165.46935,102.53333   L 165.46935,121.4   L 162.0693,121.4  z "
     clip-path="url(#clipWmfPath1)"
     style="fill:none;stroke:#000000;stroke-width:0.06666775px;stroke-linecap:round;stroke-linejoin:round;stroke-miterlimit:4;stroke-dasharray:none;stroke-opacity:1;" />
  <path
     id="path114"
     d="  M 168.93608,121.4   L 168.93608,102.53333   L 172.33613,102.53333   L 172.33613,121.4   L 168.93608,121.4  z "
     clip-path="url(#clipWmfPath1)"
     style="fill:#e0e0e0;fill-rule:evenodd;fill-opacity:1;stroke:none;" />
  <path
     id="path116"
     d="  M 168.93608,121.4   L 168.93608,102.53333   L 172.33613,102.53333   L 172.33613,121.4   L 168.93608,121.4  z "
     clip-path="url(#clipWmfPath1)"
     style="fill:none;stroke:#000000;stroke-width:0.06666775px;stroke-linecap:round;stroke-linejoin:round;stroke-miterlimit:4;stroke-dasharray:none;stroke-opacity:1;" />
  <path
     id="path118"
     d="  M 175.86952,121.4   L 175.86952,102.53333   L 179.26958,102.53333   L 179.26958,121.4   L 175.86952,121.4  z "
     clip-path="url(#clipWmfPath1)"
     style="fill:#e0e0e0;fill-rule:evenodd;fill-opacity:1;stroke:none;" />
  <path
     id="path120"
     d="  M 175.86952,121.4   L 175.86952,102.53333   L 179.26958,102.53333   L 179.26958,121.4   L 175.86952,121.4  z "
     clip-path="url(#clipWmfPath1)"
     style="fill:none;stroke:#000000;stroke-width:0.06666775px;stroke-linecap:round;stroke-linejoin:round;stroke-miterlimit:4;stroke-dasharray:none;stroke-opacity:1;" />
  <path
     id="path122"
     d="  M 183.46965,121.4   L 183.46965,102.53333   L 186.93637,102.53333   L 186.93637,121.4   L 183.46965,121.4  z "
     clip-path="url(#clipWmfPath1)"
     style="fill:#e0e0e0;fill-rule:evenodd;fill-opacity:1;stroke:none;" />
  <path
     id="path124"
     d="  M 183.46965,121.4   L 183.46965,102.53333   L 186.93637,102.53333   L 186.93637,121.4   L 183.46965,121.4  z "
     clip-path="url(#clipWmfPath1)"
     style="fill:none;stroke:#000000;stroke-width:0.06666775px;stroke-linecap:round;stroke-linejoin:round;stroke-miterlimit:4;stroke-dasharray:none;stroke-opacity:1;" />
  <path
     id="path126"
     d="  M 190.40309,121.4   L 190.40309,102.53333   L 193.86981,102.53333   L 193.86981,121.4   L 190.40309,121.4  z "
     clip-path="url(#clipWmfPath1)"
     style="fill:#e0e0e0;fill-rule:evenodd;fill-opacity:1;stroke:none;" />
  <path
     id="path128"
     d="  M 190.40309,121.4   L 190.40309,102.53333   L 193.86981,102.53333   L 193.86981,121.4   L 190.40309,121.4  z "
     clip-path="url(#clipWmfPath1)"
     style="fill:none;stroke:#000000;stroke-width:0.06666775px;stroke-linecap:round;stroke-linejoin:round;stroke-miterlimit:4;stroke-dasharray:none;stroke-opacity:1;" />
  <path
     id="path130"
     d="  M 197.33654,121.4   L 197.33654,102.53333   L 200.80326,102.53333   L 200.80326,121.4   L 197.33654,121.4  z "
     clip-path="url(#clipWmfPath1)"
     style="fill:#e0e0e0;fill-rule:evenodd;fill-opacity:1;stroke:none;" />
  <path
     id="path132"
     d="  M 197.33654,121.4   L 197.33654,102.53333   L 200.80326,102.53333   L 200.80326,121.4   L 197.33654,121.4  z "
     clip-path="url(#clipWmfPath1)"
     style="fill:none;stroke:#000000;stroke-width:0.06666775px;stroke-linecap:round;stroke-linejoin:round;stroke-miterlimit:4;stroke-dasharray:none;stroke-opacity:1;" />
  <path
     id="path134"
     d="  M 204.26998,121.4   L 204.26998,102.53333   L 207.73671,102.53333   L 207.73671,121.4   L 204.26998,121.4  z "
     clip-path="url(#clipWmfPath1)"
     style="fill:#e0e0e0;fill-rule:evenodd;fill-opacity:1;stroke:none;" />
  <path
     id="path136"
     d="  M 204.26998,121.4   L 204.26998,102.53333   L 207.73671,102.53333   L 207.73671,121.4   L 204.26998,121.4  z "
     clip-path="url(#clipWmfPath1)"
     style="fill:none;stroke:#000000;stroke-width:0.06666775px;stroke-linecap:round;stroke-linejoin:round;stroke-miterlimit:4;stroke-dasharray:none;stroke-opacity:1;" />
  <path
     id="path138"
     d="  M 211.33676,121.4   L 211.33676,102.53333   L 214.80349,102.53333   L 214.80349,121.4   L 211.33676,121.4  z "
     clip-path="url(#clipWmfPath1)"
     style="fill:#e0e0e0;fill-rule:evenodd;fill-opacity:1;stroke:none;" />
  <path
     id="path140"
     d="  M 211.33676,121.4   L 211.33676,102.53333   L 214.80349,102.53333   L 214.80349,121.4   L 211.33676,121.4  z "
     clip-path="url(#clipWmfPath1)"
     style="fill:none;stroke:#000000;stroke-width:0.06666775px;stroke-linecap:round;stroke-linejoin:round;stroke-miterlimit:4;stroke-dasharray:none;stroke-opacity:1;" />
  <path
     id="path142"
     d="  M 218.27021,121.4   L 218.27021,102.53333   L 221.73693,102.53333   L 221.73693,121.4   L 218.27021,121.4  z "
     clip-path="url(#clipWmfPath1)"
     style="fill:#e0e0e0;fill-rule:evenodd;fill-opacity:1;stroke:none;" />
  <path
     id="path144"
     d="  M 218.27021,121.4   L 218.27021,102.53333   L 221.73693,102.53333   L 221.73693,121.4   L 218.27021,121.4  z "
     clip-path="url(#clipWmfPath1)"
     style="fill:none;stroke:#000000;stroke-width:0.06666775px;stroke-linecap:round;stroke-linejoin:round;stroke-miterlimit:4;stroke-dasharray:none;stroke-opacity:1;" />
  <path
     id="path146"
     d="  M 225.20366,121.4   L 225.20366,102.53333   L 228.67038,102.53333   L 228.67038,121.4   L 225.20366,121.4  z "
     clip-path="url(#clipWmfPath1)"
     style="fill:#e0e0e0;fill-rule:evenodd;fill-opacity:1;stroke:none;" />
  <path
     id="path148"
     d="  M 225.20366,121.4   L 225.20366,102.53333   L 228.67038,102.53333   L 228.67038,121.4   L 225.20366,121.4  z "
     clip-path="url(#clipWmfPath1)"
     style="fill:none;stroke:#000000;stroke-width:0.06666775px;stroke-linecap:round;stroke-linejoin:round;stroke-miterlimit:4;stroke-dasharray:none;stroke-opacity:1;" />
  <path
     id="path150"
     d="  M 232.1371,121.4   L 232.1371,102.53333   L 235.60382,102.53333   L 235.60382,121.4   L 232.1371,121.4  z "
     clip-path="url(#clipWmfPath1)"
     style="fill:#e0e0e0;fill-rule:evenodd;fill-opacity:1;stroke:none;" />
  <path
     id="path152"
     d="  M 232.1371,121.4   L 232.1371,102.53333   L 235.60382,102.53333   L 235.60382,121.4   L 232.1371,121.4  z "
     clip-path="url(#clipWmfPath1)"
     style="fill:none;stroke:#000000;stroke-width:0.06666775px;stroke-linecap:round;stroke-linejoin:round;stroke-miterlimit:4;stroke-dasharray:none;stroke-opacity:1;" />
  <path
     id="path154"
     d="  M 238.93721,121.4   L 238.93721,102.53333   L 242.4706,102.53333   L 242.4706,121.4   L 238.93721,121.4  z "
     clip-path="url(#clipWmfPath1)"
     style="fill:#e0e0e0;fill-rule:evenodd;fill-opacity:1;stroke:none;" />
  <path
     id="path156"
     d="  M 238.93721,121.4   L 238.93721,102.53333   L 242.4706,102.53333   L 242.4706,121.4   L 238.93721,121.4  z "
     clip-path="url(#clipWmfPath1)"
     style="fill:none;stroke:#000000;stroke-width:0.06666775px;stroke-linecap:round;stroke-linejoin:round;stroke-miterlimit:4;stroke-dasharray:none;stroke-opacity:1;" />
  <path
     id="path158"
     d="  M 246.00399,121.4   L 246.00399,102.53333   L 249.40405,102.53333   L 249.40405,121.4   L 246.00399,121.4  z "
     clip-path="url(#clipWmfPath1)"
     style="fill:#e0e0e0;fill-rule:evenodd;fill-opacity:1;stroke:none;" />
  <path
     id="path160"
     d="  M 246.00399,121.4   L 246.00399,102.53333   L 249.40405,102.53333   L 249.40405,121.4   L 246.00399,121.4  z "
     clip-path="url(#clipWmfPath1)"
     style="fill:none;stroke:#000000;stroke-width:0.06666775px;stroke-linecap:round;stroke-linejoin:round;stroke-miterlimit:4;stroke-dasharray:none;stroke-opacity:1;" />
  <path
     id="path162"
     d="  M 252.87077,121.4   L 252.87077,102.53333   L 256.27083,102.53333   L 256.27083,121.4   L 252.87077,121.4  z "
     clip-path="url(#clipWmfPath1)"
     style="fill:#e0e0e0;fill-rule:evenodd;fill-opacity:1;stroke:none;" />
  <path
     id="path164"
     d="  M 252.87077,121.4   L 252.87077,102.53333   L 256.27083,102.53333   L 256.27083,121.4   L 252.87077,121.4  z "
     clip-path="url(#clipWmfPath1)"
     style="fill:none;stroke:#000000;stroke-width:0.06666775px;stroke-linecap:round;stroke-linejoin:round;stroke-miterlimit:4;stroke-dasharray:none;stroke-opacity:1;" />
  <path
     id="path166"
     d="  M 259.80422,121.4   L 259.80422,102.53333   L 263.20427,102.53333   L 263.20427,121.4   L 259.80422,121.4  z "
     clip-path="url(#clipWmfPath1)"
     style="fill:#e0e0e0;fill-rule:evenodd;fill-opacity:1;stroke:none;" />
  <path
     id="path168"
     d="  M 259.80422,121.4   L 259.80422,102.53333   L 263.20427,102.53333   L 263.20427,121.4   L 259.80422,121.4  z "
     clip-path="url(#clipWmfPath1)"
     style="fill:none;stroke:#000000;stroke-width:0.06666775px;stroke-linecap:round;stroke-linejoin:round;stroke-miterlimit:4;stroke-dasharray:none;stroke-opacity:1;" />
  <path
     id="path170"
     d="  M 266.671,121.4   L 266.671,102.53333   L 270.13772,102.53333   L 270.13772,121.4   L 266.671,121.4  z "
     clip-path="url(#clipWmfPath1)"
     style="fill:#e0e0e0;fill-rule:evenodd;fill-opacity:1;stroke:none;" />
  <path
     id="path172"
     d="  M 266.671,121.4   L 266.671,102.53333   L 270.13772,102.53333   L 270.13772,121.4   L 266.671,121.4  z "
     clip-path="url(#clipWmfPath1)"
     style="fill:none;stroke:#000000;stroke-width:0.06666775px;stroke-linecap:round;stroke-linejoin:round;stroke-miterlimit:4;stroke-dasharray:none;stroke-opacity:1;" />
  <path
     id="path174"
     d="  M 273.60444,121.4   L 273.60444,102.53333   L 277.07116,102.53333   L 277.07116,121.4   L 273.60444,121.4  z "
     clip-path="url(#clipWmfPath1)"
     style="fill:#e0e0e0;fill-rule:evenodd;fill-opacity:1;stroke:none;" />
  <path
     id="path176"
     d="  M 273.60444,121.4   L 273.60444,102.53333   L 277.07116,102.53333   L 277.07116,121.4   L 273.60444,121.4  z "
     clip-path="url(#clipWmfPath1)"
     style="fill:none;stroke:#000000;stroke-width:0.06666775px;stroke-linecap:round;stroke-linejoin:round;stroke-miterlimit:4;stroke-dasharray:none;stroke-opacity:1;" />
  <path
     id="path178"
     d="  M 280.53789,121.4   L 280.53789,102.53333   L 283.93794,102.53333   L 283.93794,121.4   L 280.53789,121.4  z "
     clip-path="url(#clipWmfPath1)"
     style="fill:#e0e0e0;fill-rule:evenodd;fill-opacity:1;stroke:none;" />
  <path
     id="path180"
     d="  M 280.53789,121.4   L 280.53789,102.53333   L 283.93794,102.53333   L 283.93794,121.4   L 280.53789,121.4  z "
     clip-path="url(#clipWmfPath1)"
     style="fill:none;stroke:#000000;stroke-width:0.06666775px;stroke-linecap:round;stroke-linejoin:round;stroke-miterlimit:4;stroke-dasharray:none;stroke-opacity:1;" />
  <path
     id="path182"
     d="  M 287.47133,121.4   L 287.47133,102.53333   L 290.87139,102.53333   L 290.87139,121.4   L 287.47133,121.4  z "
     clip-path="url(#clipWmfPath1)"
     style="fill:#e0e0e0;fill-rule:evenodd;fill-opacity:1;stroke:none;" />
  <path
     id="path184"
     d="  M 287.47133,121.4   L 287.47133,102.53333   L 290.87139,102.53333   L 290.87139,121.4   L 287.47133,121.4  z "
     clip-path="url(#clipWmfPath1)"
     style="fill:none;stroke:#000000;stroke-width:0.06666775px;stroke-linecap:round;stroke-linejoin:round;stroke-miterlimit:4;stroke-dasharray:none;stroke-opacity:1;" />
  <path
     id="path186"
     d="  M 26.733767,59.733333   L 187.60305,59.733333   L 187.60305,74.733333   L 26.733767,74.733333   L 26.733767,59.733333  z "
     clip-path="url(#clipWmfPath1)"
     style="fill:#000000;fill-rule:nonzero;fill-opacity:1;stroke:none;" />
  <path
     id="path188"
     d="  M 26.733767,59.733333   L 187.60305,59.733333   L 187.60305,74.733333   L 26.733767,74.733333   L 26.733767,59.733333  z "
     clip-path="url(#clipWmfPath1)"
     style="fill:none;stroke:#000000;stroke-width:0.06666775px;stroke-linecap:round;stroke-linejoin:round;stroke-miterlimit:4;stroke-dasharray:none;stroke-opacity:1;" />
  <path
     id="path190"
     d="  M 32.400526,70   L 181.93629,70   L 181.93629,64.533333   L 32.400526,64.533333   L 32.400526,70  z "
     clip-path="url(#clipWmfPath1)"
     style="fill:#ffffff;fill-rule:nonzero;fill-opacity:1;stroke:none;" />
  <path
     id="path192"
     d="  M 32.400526,70   L 181.93629,70   L 181.93629,64.533333   L 32.400526,64.533333   L 32.400526,70  z "
     clip-path="url(#clipWmfPath1)"
     style="fill:none;stroke:#000000;stroke-width:0.06666775px;stroke-linecap:round;stroke-linejoin:round;stroke-miterlimit:4;stroke-dasharray:none;stroke-opacity:1;" />
  <path
     id="path194"
     d="  M 196.40319,59.733333   L 298.33818,59.733333   L 298.33818,74.733333   L 196.40319,74.733333   L 196.40319,59.733333  z "
     clip-path="url(#clipWmfPath1)"
     style="fill:#000000;fill-rule:nonzero;fill-opacity:1;stroke:none;" />
  <path
     id="path196"
     d="  M 196.40319,59.733333   L 298.33818,59.733333   L 298.33818,74.733333   L 196.40319,74.733333   L 196.40319,59.733333  z "
     clip-path="url(#clipWmfPath1)"
     style="fill:none;stroke:#000000;stroke-width:0.06666775px;stroke-linecap:round;stroke-linejoin:round;stroke-miterlimit:4;stroke-dasharray:none;stroke-opacity:1;" />
  <path
     id="path198"
     d="  M 201.80328,70   L 292.87142,70   L 292.87142,64.533333   L 201.80328,64.533333   L 201.80328,70  z "
     clip-path="url(#clipWmfPath1)"
     style="fill:#ffffff;fill-rule:nonzero;fill-opacity:1;stroke:none;" />
  <path
     id="path200"
     d="  M 201.80328,70   L 292.87142,70   L 292.87142,64.533333   L 201.80328,64.533333   L 201.80328,70  z "
     clip-path="url(#clipWmfPath1)"
     style="fill:none;stroke:#000000;stroke-width:0.06666775px;stroke-linecap:round;stroke-linejoin:round;stroke-miterlimit:4;stroke-dasharray:none;stroke-opacity:1;" />
  <path
     id="path202"
     d="  M 14.533569,71.466667   L 12.666872,71.333333   L 11.000179,70.866667   L 9.6668236,70.2   L 8.6001396,69.4   L 7.9334621,68.4   L 7.6667911,67.4   L 7.8667944,66.333333   L 8.6001396,65.266667   L 9.7334914,64.4   L 11.200182,63.733333   L 12.800208,63.333333   L 14.533569,63.2   L 16.266931,63.333333   L 17.866957,63.733333   L 19.333647,64.4   L 20.466999,65.266667   L 21.200344,66.333333   L 21.400347,67.4   L 21.133676,68.4   L 20.466999,69.4   L 19.400315,70.2   L 18.06696,70.866667   L 16.400266,71.333333   L 14.533569,71.466667  z "
     clip-path="url(#clipWmfPath1)"
     style="fill:#000000;fill-rule:evenodd;fill-opacity:1;stroke:none;" />
  <path
     id="path204"
     d="  M 14.533569,71.466667   L 12.666872,71.333333   L 11.000179,70.866667   L 9.6668236,70.2   L 8.6001396,69.4   L 7.9334621,68.4   L 7.6667911,67.4   L 7.8667944,66.333333   L 8.6001396,65.266667   L 9.7334914,64.4   L 11.200182,63.733333   L 12.800208,63.333333   L 14.533569,63.2   L 16.266931,63.333333   L 17.866957,63.733333   L 19.333647,64.4   L 20.466999,65.266667   L 21.200344,66.333333   L 21.400347,67.4   L 21.133676,68.4   L 20.466999,69.4   L 19.400315,70.2   L 18.06696,70.866667   L 16.400266,71.333333   L 14.533569,71.466667  z "
     clip-path="url(#clipWmfPath1)"
     style="fill:none;stroke:#000000;stroke-width:0.06666775px;stroke-linecap:round;stroke-linejoin:round;stroke-miterlimit:4;stroke-dasharray:none;stroke-opacity:1;" />
  <path
     id="path206"
     d="  M 309.80503,71.466667   L 307.93833,71.333333   L 306.27164,70.866667   L 304.93828,70.2   L 303.8716,69.4   L 303.20492,68.4   L 302.93825,67.4   L 303.13825,66.333333   L 303.8716,65.266667   L 305.00495,64.4   L 306.47164,63.733333   L 308.07167,63.333333   L 309.80503,63.2   L 311.53839,63.333333   L 313.13842,63.733333   L 314.60511,64.4   L 315.73846,65.266667   L 316.4718,66.333333   L 316.67181,67.4   L 316.40514,68.4   L 315.73846,69.4   L 314.67178,70.2   L 313.33842,70.866667   L 311.67173,71.333333   L 309.80503,71.466667  z "
     clip-path="url(#clipWmfPath1)"
     style="fill:#000000;fill-rule:evenodd;fill-opacity:1;stroke:none;" />
  <path
     id="path208"
     d="  M 309.80503,71.466667   L 307.93833,71.333333   L 306.27164,70.866667   L 304.93828,70.2   L 303.8716,69.4   L 303.20492,68.4   L 302.93825,67.4   L 303.13825,66.333333   L 303.8716,65.266667   L 305.00495,64.4   L 306.47164,63.733333   L 308.07167,63.333333   L 309.80503,63.2   L 311.53839,63.333333   L 313.13842,63.733333   L 314.60511,64.4   L 315.73846,65.266667   L 316.4718,66.333333   L 316.67181,67.4   L 316.40514,68.4   L 315.73846,69.4   L 314.67178,70.2   L 313.33842,70.866667   L 311.67173,71.333333   L 309.80503,71.466667  z "
     clip-path="url(#clipWmfPath1)"
     style="fill:none;stroke:#000000;stroke-width:0.06666775px;stroke-linecap:round;stroke-linejoin:round;stroke-miterlimit:4;stroke-dasharray:none;stroke-opacity:1;" />
  <path
     id="path210"
     d="  M 169.53609,52.266667   L 169.53609,37.133333   L 213.27013,37.133333   L 213.27013,52.266667   L 169.53609,52.266667  z "
     clip-path="url(#clipWmfPath1)"
     style="fill:#000000;fill-rule:evenodd;fill-opacity:1;stroke:none;" />
  <path
     id="path212"
     d="  M 169.53609,52.266667   L 169.53609,37.133333   L 213.27013,37.133333   L 213.27013,52.266667   L 169.53609,52.266667  z "
     clip-path="url(#clipWmfPath1)"
     style="fill:none;stroke:#000000;stroke-width:0.06666775px;stroke-linecap:round;stroke-linejoin:round;stroke-miterlimit:4;stroke-dasharray:none;stroke-opacity:1;" />
  <path
     id="path214"
     d="  M 200.00325,37.133333   L 200.00325,33.4   L 203.53664,33.4   L 203.53664,37.133333   L 200.00325,37.133333  z "
     clip-path="url(#clipWmfPath1)"
     style="fill:#ffffff;fill-rule:evenodd;fill-opacity:1;stroke:none;" />
  <path
     id="path216"
     d="  M 200.00325,37.133333   L 200.00325,33.4   L 203.53664,33.4   L 203.53664,37.133333   L 200.00325,37.133333  z "
     clip-path="url(#clipWmfPath1)"
     style="fill:none;stroke:#000000;stroke-width:0.06666775px;stroke-linecap:round;stroke-linejoin:round;stroke-miterlimit:4;stroke-dasharray:none;stroke-opacity:1;" />
  <path
     id="path218"
     d="  M 206.93669,37.133333   L 206.93669,33.466667   L 210.40342,33.466667   L 210.40342,37.133333   L 206.93669,37.133333  z "
     clip-path="url(#clipWmfPath1)"
     style="fill:#ffffff;fill-rule:evenodd;fill-opacity:1;stroke:none;" />
  <path
     id="path220"
     d="  M 206.93669,37.133333   L 206.93669,33.466667   L 210.40342,33.466667   L 210.40342,37.133333   L 206.93669,37.133333  z "
     clip-path="url(#clipWmfPath1)"
     style="fill:none;stroke:#000000;stroke-width:0.06666775px;stroke-linecap:round;stroke-linejoin:round;stroke-miterlimit:4;stroke-dasharray:none;stroke-opacity:1;" />
  <path
     id="path222"
     d="  M 193.13647,37.133333   L 193.13647,33.466667   L 196.60319,33.466667   L 196.60319,37.133333   L 193.13647,37.133333  z "
     clip-path="url(#clipWmfPath1)"
     style="fill:#ffffff;fill-rule:evenodd;fill-opacity:1;stroke:none;" />
  <path
     id="path224"
     d="  M 193.13647,37.133333   L 193.13647,33.466667   L 196.60319,33.466667   L 196.60319,37.133333   L 193.13647,37.133333  z "
     clip-path="url(#clipWmfPath1)"
     style="fill:none;stroke:#000000;stroke-width:0.06666775px;stroke-linecap:round;stroke-linejoin:round;stroke-miterlimit:4;stroke-dasharray:none;stroke-opacity:1;" />
  <path
     id="path226"
     d="  M 179.33624,37.133333   L 179.33624,33.466667   L 182.86964,33.466667   L 182.86964,37.133333   L 179.33624,37.133333  z "
     clip-path="url(#clipWmfPath1)"
     style="fill:#ffffff;fill-rule:evenodd;fill-opacity:1;stroke:none;" />
  <path
     id="path228"
     d="  M 179.33624,37.133333   L 179.33624,33.466667   L 182.86964,33.466667   L 182.86964,37.133333   L 179.33624,37.133333  z "
     clip-path="url(#clipWmfPath1)"
     style="fill:none;stroke:#000000;stroke-width:0.06666775px;stroke-linecap:round;stroke-linejoin:round;stroke-miterlimit:4;stroke-dasharray:none;stroke-opacity:1;" />
  <path
     id="path230"
     d="  M 186.26969,37.2   L 186.26969,33.466667   L 189.73641,33.466667   L 189.73641,37.2   L 186.26969,37.2  z "
     clip-path="url(#clipWmfPath1)"
     style="fill:#ffffff;fill-rule:evenodd;fill-opacity:1;stroke:none;" />
  <path
     id="path232"
     d="  M 186.26969,37.2   L 186.26969,33.466667   L 189.73641,33.466667   L 189.73641,37.2   L 186.26969,37.2  z "
     clip-path="url(#clipWmfPath1)"
     style="fill:none;stroke:#000000;stroke-width:0.06666775px;stroke-linecap:round;stroke-linejoin:round;stroke-miterlimit:4;stroke-dasharray:none;stroke-opacity:1;" />
  <path
     id="path234"
     d="  M 172.46947,37.2   L 172.46947,33.466667   L 175.93619,33.466667   L 175.93619,37.2   L 172.46947,37.2  z "
     clip-path="url(#clipWmfPath1)"
     style="fill:#ffffff;fill-rule:evenodd;fill-opacity:1;stroke:none;" />
  <path
     id="path236"
     d="  M 172.46947,37.2   L 172.46947,33.466667   L 175.93619,33.466667   L 175.93619,37.2   L 172.46947,37.2  z "
     clip-path="url(#clipWmfPath1)"
     style="fill:none;stroke:#000000;stroke-width:0.06666775px;stroke-linecap:round;stroke-linejoin:round;stroke-miterlimit:4;stroke-dasharray:none;stroke-opacity:1;" />
  <path
     id="path238"
     d="  M 199.86991,56   L 199.86991,52.266667   L 203.4033,52.266667   L 203.4033,56   L 199.86991,56  z "
     clip-path="url(#clipWmfPath1)"
     style="fill:#ffffff;fill-rule:evenodd;fill-opacity:1;stroke:none;" />
  <path
     id="path240"
     d="  M 199.86991,56   L 199.86991,52.266667   L 203.4033,52.266667   L 203.4033,56   L 199.86991,56  z "
     clip-path="url(#clipWmfPath1)"
     style="fill:none;stroke:#000000;stroke-width:0.06666775px;stroke-linecap:round;stroke-linejoin:round;stroke-miterlimit:4;stroke-dasharray:none;stroke-opacity:1;" />
  <path
     id="path242"
     d="  M 206.80336,56   L 206.80336,52.333333   L 210.27008,52.333333   L 210.27008,56   L 206.80336,56  z "
     clip-path="url(#clipWmfPath1)"
     style="fill:#ffffff;fill-rule:evenodd;fill-opacity:1;stroke:none;" />
  <path
     id="path244"
     d="  M 206.80336,56   L 206.80336,52.333333   L 210.27008,52.333333   L 210.27008,56   L 206.80336,56  z "
     clip-path="url(#clipWmfPath1)"
     style="fill:none;stroke:#000000;stroke-width:0.06666775px;stroke-linecap:round;stroke-linejoin:round;stroke-miterlimit:4;stroke-dasharray:none;stroke-opacity:1;" />
  <path
     id="path246"
     d="  M 193.00313,56   L 193.00313,52.333333   L 196.46986,52.333333   L 196.46986,56   L 193.00313,56  z "
     clip-path="url(#clipWmfPath1)"
     style="fill:#ffffff;fill-rule:evenodd;fill-opacity:1;stroke:none;" />
  <path
     id="path248"
     d="  M 193.00313,56   L 193.00313,52.333333   L 196.46986,52.333333   L 196.46986,56   L 193.00313,56  z "
     clip-path="url(#clipWmfPath1)"
     style="fill:none;stroke:#000000;stroke-width:0.06666775px;stroke-linecap:round;stroke-linejoin:round;stroke-miterlimit:4;stroke-dasharray:none;stroke-opacity:1;" />
  <path
     id="path250"
     d="  M 179.20291,56   L 179.20291,52.333333   L 182.7363,52.333333   L 182.7363,56   L 179.20291,56  z "
     clip-path="url(#clipWmfPath1)"
     style="fill:#ffffff;fill-rule:evenodd;fill-opacity:1;stroke:none;" />
  <path
     id="path252"
     d="  M 179.20291,56   L 179.20291,52.333333   L 182.7363,52.333333   L 182.7363,56   L 179.20291,56  z "
     clip-path="url(#clipWmfPath1)"
     style="fill:none;stroke:#000000;stroke-width:0.06666775px;stroke-linecap:round;stroke-linejoin:round;stroke-miterlimit:4;stroke-dasharray:none;stroke-opacity:1;" />
  <path
     id="path254"
     d="  M 186.13636,56.066667   L 186.13636,52.333333   L 189.60308,52.333333   L 189.60308,56.066667   L 186.13636,56.066667  z "
     clip-path="url(#clipWmfPath1)"
     style="fill:#ffffff;fill-rule:evenodd;fill-opacity:1;stroke:none;" />
  <path
     id="path256"
     d="  M 186.13636,56.066667   L 186.13636,52.333333   L 189.60308,52.333333   L 189.60308,56.066667   L 186.13636,56.066667  z "
     clip-path="url(#clipWmfPath1)"
     style="fill:none;stroke:#000000;stroke-width:0.06666775px;stroke-linecap:round;stroke-linejoin:round;stroke-miterlimit:4;stroke-dasharray:none;stroke-opacity:1;" />
  <path
     id="path258"
     d="  M 172.33613,56.066667   L 172.33613,52.333333   L 175.80285,52.333333   L 175.80285,56.066667   L 172.33613,56.066667  z "
     clip-path="url(#clipWmfPath1)"
     style="fill:#ffffff;fill-rule:evenodd;fill-opacity:1;stroke:none;" />
  <path
     id="path260"
     d="  M 172.33613,56.066667   L 172.33613,52.333333   L 175.80285,52.333333   L 175.80285,56.066667   L 172.33613,56.066667  z "
     clip-path="url(#clipWmfPath1)"
     style="fill:none;stroke:#000000;stroke-width:0.06666775px;stroke-linecap:round;stroke-linejoin:round;stroke-miterlimit:4;stroke-dasharray:none;stroke-opacity:1;" />
  <path
     id="path262"
     d="  M 53.134196,51.266667   L 53.134196,55.933333   L 42.93403,55.933333   L 42.93403,51.266667   L 53.134196,51.266667  z "
     clip-path="url(#clipWmfPath1)"
     style="fill:#bfbfbf;fill-rule:nonzero;fill-opacity:1;stroke:none;" />
  <path
     id="path264"
     d="  M 53.134196,51.266667   L 53.134196,55.933333   L 42.93403,55.933333   L 42.93403,51.266667   L 53.134196,51.266667  z "
     clip-path="url(#clipWmfPath1)"
     style="fill:none;stroke:#000000;stroke-width:0.06666775px;stroke-linecap:round;stroke-linejoin:round;stroke-miterlimit:4;stroke-dasharray:none;stroke-opacity:1;" />
  <path
     id="path266"
     d="  M 51.667505,52.266667   L 51.667505,55   L 48.934128,55   L 48.934128,52.266667   L 51.667505,52.266667  z "
     clip-path="url(#clipWmfPath1)"
     style="fill:#000000;fill-rule:nonzero;fill-opacity:1;stroke:none;" />
  <path
     id="path268"
     d="  M 51.667505,52.266667   L 51.667505,55   L 48.934128,55   L 48.934128,52.266667   L 51.667505,52.266667  z "
     clip-path="url(#clipWmfPath1)"
     style="fill:none;stroke:#000000;stroke-width:0.06666775px;stroke-linecap:round;stroke-linejoin:round;stroke-miterlimit:4;stroke-dasharray:none;stroke-opacity:1;" />
  <path
     id="path270"
     d="  M 47.134099,52.266667   L 47.134099,55   L 44.400721,55   L 44.400721,52.266667   L 47.134099,52.266667  z "
     clip-path="url(#clipWmfPath1)"
     style="fill:#000000;fill-rule:nonzero;fill-opacity:1;stroke:none;" />
  <path
     id="path272"
     d="  M 47.134099,52.266667   L 47.134099,55   L 44.400721,55   L 44.400721,52.266667   L 47.134099,52.266667  z "
     clip-path="url(#clipWmfPath1)"
     style="fill:none;stroke:#000000;stroke-width:0.06666775px;stroke-linecap:round;stroke-linejoin:round;stroke-miterlimit:4;stroke-dasharray:none;stroke-opacity:1;" />
  <path
     id="path274"
     d="  M 286.13798,50.266667   L 286.13798,54.933333   L 275.93781,54.933333   L 275.93781,50.266667   L 286.13798,50.266667  z "
     clip-path="url(#clipWmfPath1)"
     style="fill:#bfbfbf;fill-rule:nonzero;fill-opacity:1;stroke:none;" />
  <path
     id="path276"
     d="  M 286.13798,50.266667   L 286.13798,54.933333   L 275.93781,54.933333   L 275.93781,50.266667   L 286.13798,50.266667  z "
     clip-path="url(#clipWmfPath1)"
     style="fill:none;stroke:#000000;stroke-width:0.06666775px;stroke-linecap:round;stroke-linejoin:round;stroke-miterlimit:4;stroke-dasharray:none;stroke-opacity:1;" />
  <path
     id="path278"
     d="  M 284.67129,51.266667   L 284.67129,54   L 281.93791,54   L 281.93791,51.266667   L 284.67129,51.266667  z "
     clip-path="url(#clipWmfPath1)"
     style="fill:#000000;fill-rule:nonzero;fill-opacity:1;stroke:none;" />
  <path
     id="path280"
     d="  M 284.67129,51.266667   L 284.67129,54   L 281.93791,54   L 281.93791,51.266667   L 284.67129,51.266667  z "
     clip-path="url(#clipWmfPath1)"
     style="fill:none;stroke:#000000;stroke-width:0.06666775px;stroke-linecap:round;stroke-linejoin:round;stroke-miterlimit:4;stroke-dasharray:none;stroke-opacity:1;" />
  <path
     id="path282"
     d="  M 280.13788,51.266667   L 280.13788,54   L 277.4045,54   L 277.4045,51.266667   L 280.13788,51.266667  z "
     clip-path="url(#clipWmfPath1)"
     style="fill:#000000;fill-rule:nonzero;fill-opacity:1;stroke:none;" />
  <path
     id="path284"
     d="  M 280.13788,51.266667   L 280.13788,54   L 277.4045,54   L 277.4045,51.266667   L 280.13788,51.266667  z "
     clip-path="url(#clipWmfPath1)"
     style="fill:none;stroke:#000000;stroke-width:0.06666775px;stroke-linecap:round;stroke-linejoin:round;stroke-miterlimit:4;stroke-dasharray:none;stroke-opacity:1;" />
  <path
     id="path286"
     d="  M 302.27157,28.733333   L 303.27159,28.866667   L 304.0716,29.333333   L 304.67161,30   L 304.87162,30.733333   L 304.87162,40.2   L 304.67161,40.933333   L 304.0716,41.533333   L 303.27159,41.866667   L 302.27157,42   L 289.13803,42   L 287.60467,42.933333   L 284.87129,45.066667   L 282.13791,47.066667   L 280.73789,47.866667   L 280.87123,47.466667   L 281.47124,46.533333   L 283.47127,44   L 285.53797,41.4   L 286.53799,40   L 286.53799,30.6   L 286.73799,29.866667   L 287.338,29.266667   L 288.13801,28.866667   L 289.13803,28.733333   L 302.27157,28.733333  z "
     clip-path="url(#clipWmfPath1)"
     style="fill:#ffffff;fill-rule:nonzero;fill-opacity:1;stroke:none;" />
  <path
     id="path288"
     d="  M 289.13803,28.2   L 288.60469,28.733333   L 289.13803,29.266667   L 302.20491,29.266667   L 303.07159,29.333333   L 303.73826,29.733333   L 304.20494,30.266667   L 304.33827,30.8   L 304.33827,40.133333   L 304.20494,40.666667   L 303.80493,41.133333   L 303.13825,41.4   L 302.20491,41.466667   L 289.13803,41.466667   L 288.87136,41.6   L 287.338,42.533333   L 287.27133,42.533333   L 284.53795,44.666667   L 281.87124,46.666667   L 280.47122,47.4   L 281.00456,48.333333   L 281.20457,48   L 281.3379,47.666667   L 281.87124,46.8   L 283.87128,44.333333   L 283.87128,44.333333   L 285.93798,41.733333   L 285.93798,41.666667   L 286.93799,40.266667   L 287.07133,40   L 287.07133,30.666667   L 287.20466,30.133333   L 287.67134,29.666667   L 288.27135,29.333333   L 289.2047,29.266667   L 302.20491,29.266667   L 303.20492,29.4   L 303.80493,28.933333   L 303.33826,28.333333   L 302.33824,28.2   L 302.27157,28.2   L 289.13803,28.2   L 289.07136,28.2   L 288.07134,28.333333   L 287.93801,28.4   L 287.13799,28.8   L 287.00466,28.933333   L 286.40465,29.533333   L 286.27131,29.733333   L 286.07131,30.466667   L 286.00464,30.6   L 286.00464,39.866667   L 285.13796,41.066667   L 283.07126,43.666667   L 283.07126,43.666667   L 281.07123,46.2   L 281.07123,46.266667   L 280.47122,47.2   L 280.40455,47.333333   L 280.27122,47.733333   L 280.40455,48.266667   L 281.00456,48.333333   L 282.40458,47.533333   L 282.40458,47.466667   L 285.13796,45.466667   L 285.20463,45.466667   L 287.87134,43.333333   L 289.27136,42.533333   L 302.27157,42.533333   L 302.33824,42.533333   L 303.33826,42.4   L 303.47159,42.333333   L 304.27161,42   L 304.40494,41.866667   L 305.00495,41.266667   L 305.13829,41.066667   L 305.33829,40.333333   L 305.40496,40.2   L 305.40496,30.733333   L 305.33829,30.6   L 305.13829,29.866667   L 305.07162,29.666667   L 304.47161,29   L 304.33827,28.866667   L 303.53826,28.4   L 303.33826,28.333333   L 302.33824,28.2   L 302.27157,28.2   L 289.13803,28.2  z "
     clip-path="url(#clipWmfPath1)"
     style="fill:#000000;fill-rule:nonzero;fill-opacity:1;stroke:#000000;stroke-width:0.06666775px;stroke-linecap:round;stroke-linejoin:round;stroke-miterlimit:4;stroke-dasharray:none;stroke-opacity:1;" />
  <path
     id="path290"
     d="  M 26.333761,29.733333   L 25.333745,29.866667   L 24.533732,30.333333   L 23.933722,31   L 23.733719,31.733333   L 23.733719,41.2   L 23.933722,41.933333   L 24.533732,42.533333   L 25.333745,42.866667   L 26.333761,43   L 39.467307,43   L 41.000666,43.933333   L 43.734043,46.066667   L 46.467421,48.066667   L 47.867444,48.866667   L 47.134099,47.533333   L 45.134066,45   L 43.067366,42.4   L 42.06735,41   L 42.06735,31.6   L 41.867346,30.866667   L 41.267337,30.266667   L 40.467324,29.866667   L 39.467307,29.733333   L 26.333761,29.733333  z "
     clip-path="url(#clipWmfPath1)"
     style="fill:#ffffff;fill-rule:nonzero;fill-opacity:1;stroke:none;" />
  <path
     id="path292"
     d="  M 39.467307,30.266667   L 40.000649,29.733333   L 39.467307,29.2   L 26.333761,29.2   L 26.267093,29.2   L 25.267077,29.333333   L 25.067074,29.4   L 24.267061,29.866667   L 24.133725,30   L 23.533715,30.666667   L 23.467048,30.866667   L 23.267044,31.6   L 23.200377,31.733333   L 23.200377,41.2   L 23.267044,41.333333   L 23.467048,42.066667   L 23.600383,42.266667   L 24.200393,42.866667   L 24.333728,43   L 25.133741,43.333333   L 25.267077,43.4   L 26.267093,43.533333   L 26.333761,43.533333   L 39.333972,43.533333   L 40.733995,44.333333   L 43.400705,46.466667   L 43.467372,46.466667   L 46.20075,48.466667   L 46.20075,48.533333   L 47.600773,49.333333   L 48.334118,48.6   L 47.600773,47.266667   L 47.534105,47.2   L 45.534073,44.666667   L 45.534073,44.666667   L 43.467372,42.066667   L 42.600692,40.866667   L 42.600692,31.6   L 42.534024,31.466667   L 42.334021,30.733333   L 42.200685,30.533333   L 41.600675,29.933333   L 41.46734,29.8   L 40.667327,29.4   L 40.533991,29.333333   L 39.533975,29.2   L 39.467307,29.2   L 26.333761,29.2   L 26.267093,29.2   L 25.267077,29.333333   L 24.800403,29.933333   L 25.400412,30.4   L 26.400429,30.266667   L 39.40064,30.266667   L 40.333988,30.333333   L 40.933998,30.666667   L 41.400672,31.133333   L 41.534008,31.666667   L 41.534008,41   L 41.667343,41.266667   L 42.667359,42.666667   L 42.667359,42.733333   L 44.73406,45.333333   L 44.73406,45.333333   L 46.734092,47.8   L 47.40077,49.133333   L 47.600773,49.333333   L 48.134115,48.4   L 46.734092,47.666667   L 44.067382,45.666667   L 41.334004,43.533333   L 41.267337,43.533333   L 39.733978,42.6   L 39.467307,42.466667   L 26.400429,42.466667   L 25.46708,42.4   L 24.800403,42.133333   L 24.400396,41.666667   L 24.267061,41.133333   L 24.267061,31.8   L 24.400396,31.266667   L 24.86707,30.733333   L 25.533748,30.333333   L 26.400429,30.266667   L 39.467307,30.266667  z "
     clip-path="url(#clipWmfPath1)"
     style="fill:#000000;fill-rule:nonzero;fill-opacity:1;stroke:#000000;stroke-width:0.06666775px;stroke-linecap:round;stroke-linejoin:round;stroke-miterlimit:4;stroke-dasharray:none;stroke-opacity:1;" />
  <g
     id="g294"
     clip-path="url(#clipWmfPath1)" />
  <g
     id="g304"
     clip-path="url(#clipWmfPath1)">
    <text
       id="text302"
       y="10.185188"
       x="0.000000"
       transform="matrix(1.000000,-0.000000,0.000000,1.000000,27.400445,30.400000)"
       style="font-size:10.687500px;font-style:normal;font-variant:normal;font-weight:400;font-stretch:Condensed;line-height:125.000000%;letter-spacing:0px;word-spacing:0px;fill:#000000;fill-opacity:1;stroke:none;font-family:Helvetica-Narrow;text-align:start;text-anchor:start;"
       xml:space="preserve"><tspan
         id="tspan300"
         y="10.185188"
         x="0.000000"><tspan
           id="tspan296"
           style="fill:#000000;font-size:10.687500px;font-style:normal;font-variant:normal;font-weight:400;font-stretch:Condensed;font-family:Helvetica-Narrow;"
           dy="0.000000"
           dx="0.000000">J</tspan><tspan
           id="tspan298"
           style="fill:#000000;font-size:10.687500px;font-style:normal;font-variant:normal;font-weight:400;font-stretch:Condensed;font-family:Helvetica-Narrow;"
           dy="0.000000"
           dx="0.323009">1</tspan></tspan></text>
  </g>
  <g
     id="g306"
     clip-path="url(#clipWmfPath1)" />
  <g
     id="g316"
     clip-path="url(#clipWmfPath1)">
    <text
       id="text314"
       y="10.249313"
       x="0.000000"
       transform="matrix(1.000000,-0.000000,0.000000,1.000000,290.938057,29.266667)"
       style="font-size:10.687500px;font-style:normal;font-variant:normal;font-weight:400;font-stretch:Condensed;line-height:125.000000%;letter-spacing:0px;word-spacing:0px;fill:#000000;fill-opacity:1;stroke:none;font-family:Helvetica-Narrow;text-align:start;text-anchor:start;"
       xml:space="preserve"><tspan
         id="tspan312"
         y="10.249313"
         x="0.000000"><tspan
           id="tspan308"
           style="fill:#000000;font-size:10.687500px;font-style:normal;font-variant:normal;font-weight:400;font-stretch:Condensed;font-family:Helvetica-Narrow;"
           dy="0.000000"
           dx="0.000000">J</tspan><tspan
           id="tspan310"
           style="fill:#000000;font-size:10.687500px;font-style:normal;font-variant:normal;font-weight:400;font-stretch:Condensed;font-family:Helvetica-Narrow;"
           dy="0.000000"
           dx="0.095064">7</tspan></tspan></text>
  </g>
  <path
     id="path318"
     d="  M 146.40238,33.666667   L 141.73563,33.666667   L 141.73563,43.866667   L 146.40238,43.866667   L 146.40238,33.666667  z "
     clip-path="url(#clipWmfPath1)"
     style="fill:#bfbfbf;fill-rule:nonzero;fill-opacity:1;stroke:none;" />
  <path
     id="path320"
     d="  M 146.40238,33.666667   L 141.73563,33.666667   L 141.73563,43.866667   L 146.40238,43.866667   L 146.40238,33.666667  z "
     clip-path="url(#clipWmfPath1)"
     style="fill:none;stroke:#000000;stroke-width:0.06666775px;stroke-linecap:round;stroke-linejoin:round;stroke-miterlimit:4;stroke-dasharray:none;stroke-opacity:1;" />
  <path
     id="path322"
     d="  M 145.46903,35.2   L 142.73565,35.2   L 142.73565,37.933333   L 145.46903,37.933333   L 145.46903,35.2  z "
     clip-path="url(#clipWmfPath1)"
     style="fill:#000000;fill-rule:nonzero;fill-opacity:1;stroke:none;" />
  <path
     id="path324"
     d="  M 145.46903,35.2   L 142.73565,35.2   L 142.73565,37.933333   L 145.46903,37.933333   L 145.46903,35.2  z "
     clip-path="url(#clipWmfPath1)"
     style="fill:none;stroke:#000000;stroke-width:0.06666775px;stroke-linecap:round;stroke-linejoin:round;stroke-miterlimit:4;stroke-dasharray:none;stroke-opacity:1;" />
  <path
     id="path326"
     d="  M 145.46903,39.733333   L 142.73565,39.733333   L 142.73565,42.466667   L 145.46903,42.466667   L 145.46903,39.733333  z "
     clip-path="url(#clipWmfPath1)"
     style="fill:#000000;fill-rule:nonzero;fill-opacity:1;stroke:none;" />
  <path
     id="path328"
     d="  M 145.46903,39.733333   L 142.73565,39.733333   L 142.73565,42.466667   L 145.46903,42.466667   L 145.46903,39.733333  z "
     clip-path="url(#clipWmfPath1)"
     style="fill:none;stroke:#000000;stroke-width:0.06666775px;stroke-linecap:round;stroke-linejoin:round;stroke-miterlimit:4;stroke-dasharray:none;stroke-opacity:1;" />
  <path
     id="path330"
     d="  M 139.40226,33.666667   L 134.73552,33.666667   L 134.73552,43.866667   L 139.40226,43.866667   L 139.40226,33.666667  z "
     clip-path="url(#clipWmfPath1)"
     style="fill:#bfbfbf;fill-rule:nonzero;fill-opacity:1;stroke:none;" />
  <path
     id="path332"
     d="  M 139.40226,33.666667   L 134.73552,33.666667   L 134.73552,43.866667   L 139.40226,43.866667   L 139.40226,33.666667  z "
     clip-path="url(#clipWmfPath1)"
     style="fill:none;stroke:#000000;stroke-width:0.06666775px;stroke-linecap:round;stroke-linejoin:round;stroke-miterlimit:4;stroke-dasharray:none;stroke-opacity:1;" />
  <path
     id="path334"
     d="  M 138.46891,35.2   L 135.73554,35.2   L 135.73554,37.933333   L 138.46891,37.933333   L 138.46891,35.2  z "
     clip-path="url(#clipWmfPath1)"
     style="fill:#000000;fill-rule:nonzero;fill-opacity:1;stroke:none;" />
  <path
     id="path336"
     d="  M 138.46891,35.2   L 135.73554,35.2   L 135.73554,37.933333   L 138.46891,37.933333   L 138.46891,35.2  z "
     clip-path="url(#clipWmfPath1)"
     style="fill:none;stroke:#000000;stroke-width:0.06666775px;stroke-linecap:round;stroke-linejoin:round;stroke-miterlimit:4;stroke-dasharray:none;stroke-opacity:1;" />
  <path
     id="path338"
     d="  M 138.46891,39.733333   L 135.73554,39.733333   L 135.73554,42.466667   L 138.46891,42.466667   L 138.46891,39.733333  z "
     clip-path="url(#clipWmfPath1)"
     style="fill:#000000;fill-rule:nonzero;fill-opacity:1;stroke:none;" />
  <path
     id="path340"
     d="  M 138.46891,39.733333   L 135.73554,39.733333   L 135.73554,42.466667   L 138.46891,42.466667   L 138.46891,39.733333  z "
     clip-path="url(#clipWmfPath1)"
     style="fill:none;stroke:#000000;stroke-width:0.06666775px;stroke-linecap:round;stroke-linejoin:round;stroke-miterlimit:4;stroke-dasharray:none;stroke-opacity:1;" />
  <path
     id="path342"
     d="  M 132.53549,33.666667   L 127.86874,33.666667   L 127.86874,43.866667   L 132.53549,43.866667   L 132.53549,33.666667  z "
     clip-path="url(#clipWmfPath1)"
     style="fill:#bfbfbf;fill-rule:nonzero;fill-opacity:1;stroke:none;" />
  <path
     id="path344"
     d="  M 132.53549,33.666667   L 127.86874,33.666667   L 127.86874,43.866667   L 132.53549,43.866667   L 132.53549,33.666667  z "
     clip-path="url(#clipWmfPath1)"
     style="fill:none;stroke:#000000;stroke-width:0.06666775px;stroke-linecap:round;stroke-linejoin:round;stroke-miterlimit:4;stroke-dasharray:none;stroke-opacity:1;" />
  <path
     id="path346"
     d="  M 131.60214,35.2   L 128.86876,35.2   L 128.86876,37.933333   L 131.60214,37.933333   L 131.60214,35.2  z "
     clip-path="url(#clipWmfPath1)"
     style="fill:#000000;fill-rule:nonzero;fill-opacity:1;stroke:none;" />
  <path
     id="path348"
     d="  M 131.60214,35.2   L 128.86876,35.2   L 128.86876,37.933333   L 131.60214,37.933333   L 131.60214,35.2  z "
     clip-path="url(#clipWmfPath1)"
     style="fill:none;stroke:#000000;stroke-width:0.06666775px;stroke-linecap:round;stroke-linejoin:round;stroke-miterlimit:4;stroke-dasharray:none;stroke-opacity:1;" />
  <path
     id="path350"
     d="  M 131.60214,39.733333   L 128.86876,39.733333   L 128.86876,42.466667   L 131.60214,42.466667   L 131.60214,39.733333  z "
     clip-path="url(#clipWmfPath1)"
     style="fill:#000000;fill-rule:nonzero;fill-opacity:1;stroke:none;" />
  <path
     id="path352"
     d="  M 131.60214,39.733333   L 128.86876,39.733333   L 128.86876,42.466667   L 131.60214,42.466667   L 131.60214,39.733333  z "
     clip-path="url(#clipWmfPath1)"
     style="fill:none;stroke:#000000;stroke-width:0.06666775px;stroke-linecap:round;stroke-linejoin:round;stroke-miterlimit:4;stroke-dasharray:none;stroke-opacity:1;" />
  <path
     id="path354"
     d="  M 125.33537,33.666667   L 120.66863,33.666667   L 120.66863,43.866667   L 125.33537,43.866667   L 125.33537,33.666667  z "
     clip-path="url(#clipWmfPath1)"
     style="fill:#bfbfbf;fill-rule:nonzero;fill-opacity:1;stroke:none;" />
  <path
     id="path356"
     d="  M 125.33537,33.666667   L 120.66863,33.666667   L 120.66863,43.866667   L 125.33537,43.866667   L 125.33537,33.666667  z "
     clip-path="url(#clipWmfPath1)"
     style="fill:none;stroke:#000000;stroke-width:0.06666775px;stroke-linecap:round;stroke-linejoin:round;stroke-miterlimit:4;stroke-dasharray:none;stroke-opacity:1;" />
  <path
     id="path358"
     d="  M 124.40202,35.2   L 121.66864,35.2   L 121.66864,37.933333   L 124.40202,37.933333   L 124.40202,35.2  z "
     clip-path="url(#clipWmfPath1)"
     style="fill:#000000;fill-rule:nonzero;fill-opacity:1;stroke:none;" />
  <path
     id="path360"
     d="  M 124.40202,35.2   L 121.66864,35.2   L 121.66864,37.933333   L 124.40202,37.933333   L 124.40202,35.2  z "
     clip-path="url(#clipWmfPath1)"
     style="fill:none;stroke:#000000;stroke-width:0.06666775px;stroke-linecap:round;stroke-linejoin:round;stroke-miterlimit:4;stroke-dasharray:none;stroke-opacity:1;" />
  <path
     id="path362"
     d="  M 124.40202,39.733333   L 121.66864,39.733333   L 121.66864,42.466667   L 124.40202,42.466667   L 124.40202,39.733333  z "
     clip-path="url(#clipWmfPath1)"
     style="fill:#000000;fill-rule:nonzero;fill-opacity:1;stroke:none;" />
  <path
     id="path364"
     d="  M 124.40202,39.733333   L 121.66864,39.733333   L 121.66864,42.466667   L 124.40202,42.466667   L 124.40202,39.733333  z "
     clip-path="url(#clipWmfPath1)"
     style="fill:none;stroke:#000000;stroke-width:0.06666775px;stroke-linecap:round;stroke-linejoin:round;stroke-miterlimit:4;stroke-dasharray:none;stroke-opacity:1;" />
  <path
     id="path366"
     d="  M 118.33525,33.666667   L 113.66851,33.666667   L 113.66851,43.866667   L 118.33525,43.866667   L 118.33525,33.666667  z "
     clip-path="url(#clipWmfPath1)"
     style="fill:#bfbfbf;fill-rule:nonzero;fill-opacity:1;stroke:none;" />
  <path
     id="path368"
     d="  M 118.33525,33.666667   L 113.66851,33.666667   L 113.66851,43.866667   L 118.33525,43.866667   L 118.33525,33.666667  z "
     clip-path="url(#clipWmfPath1)"
     style="fill:none;stroke:#000000;stroke-width:0.06666775px;stroke-linecap:round;stroke-linejoin:round;stroke-miterlimit:4;stroke-dasharray:none;stroke-opacity:1;" />
  <path
     id="path370"
     d="  M 117.40191,35.2   L 114.66853,35.2   L 114.66853,37.933333   L 117.40191,37.933333   L 117.40191,35.2  z "
     clip-path="url(#clipWmfPath1)"
     style="fill:#000000;fill-rule:nonzero;fill-opacity:1;stroke:none;" />
  <path
     id="path372"
     d="  M 117.40191,35.2   L 114.66853,35.2   L 114.66853,37.933333   L 117.40191,37.933333   L 117.40191,35.2  z "
     clip-path="url(#clipWmfPath1)"
     style="fill:none;stroke:#000000;stroke-width:0.06666775px;stroke-linecap:round;stroke-linejoin:round;stroke-miterlimit:4;stroke-dasharray:none;stroke-opacity:1;" />
  <path
     id="path374"
     d="  M 117.40191,39.733333   L 114.66853,39.733333   L 114.66853,42.466667   L 117.40191,42.466667   L 117.40191,39.733333  z "
     clip-path="url(#clipWmfPath1)"
     style="fill:#000000;fill-rule:nonzero;fill-opacity:1;stroke:none;" />
  <path
     id="path376"
     d="  M 117.40191,39.733333   L 114.66853,39.733333   L 114.66853,42.466667   L 117.40191,42.466667   L 117.40191,39.733333  z "
     clip-path="url(#clipWmfPath1)"
     style="fill:none;stroke:#000000;stroke-width:0.06666775px;stroke-linecap:round;stroke-linejoin:round;stroke-miterlimit:4;stroke-dasharray:none;stroke-opacity:1;" />
  <path
     id="path378"
     d="  M 94.601536,13.2   L 93.60152,13.333333   L 92.801507,13.8   L 92.201497,14.466667   L 92.001494,15.2   L 92.001494,24.666667   L 92.201497,25.4   L 92.801507,26   L 93.60152,26.333333   L 94.601536,26.466667   L 107.73508,26.466667   L 109.26844,27.4   L 112.00182,29.533333   L 114.7352,31.533333   L 116.13522,32.333333   L 115.40187,31   L 113.40184,28.466667   L 111.33514,25.866667   L 110.33512,24.466667   L 110.33512,15.066667   L 110.13512,14.333333   L 109.53511,13.733333   L 108.7351,13.333333   L 107.73508,13.2   L 94.601536,13.2  z "
     clip-path="url(#clipWmfPath1)"
     style="fill:#ffffff;fill-rule:nonzero;fill-opacity:1;stroke:none;" />
  <path
     id="path380"
     d="  M 107.73508,13.733333   L 108.26842,13.2   L 107.73508,12.666667   L 94.601536,12.666667   L 94.534868,12.666667   L 93.534852,12.8   L 93.334849,12.866667   L 92.534836,13.333333   L 92.4015,13.466667   L 91.80149,14.133333   L 91.734823,14.333333   L 91.534819,15.066667   L 91.468152,15.2   L 91.468152,24.666667   L 91.534819,24.8   L 91.734823,25.533333   L 91.868158,25.733333   L 92.468168,26.333333   L 92.601503,26.466667   L 93.401516,26.8   L 93.534852,26.866667   L 94.534868,27   L 94.601536,27   L 107.60175,27   L 109.00177,27.8   L 111.66848,29.933333   L 111.73515,29.933333   L 114.46853,31.933333   L 114.46853,32   L 115.86855,32.8   L 116.60189,32.066667   L 115.86855,30.733333   L 115.80188,30.666667   L 113.80185,28.133333   L 113.80185,28.133333   L 111.73515,25.533333   L 110.86847,24.333333   L 110.86847,15.066667   L 110.8018,14.933333   L 110.6018,14.2   L 110.46846,14   L 109.86845,13.4   L 109.73511,13.266667   L 108.9351,12.866667   L 108.80177,12.8   L 107.80175,12.666667   L 107.73508,12.666667   L 94.601536,12.666667   L 94.534868,12.666667   L 93.534852,12.8   L 93.068178,13.4   L 93.668187,13.866667   L 94.668204,13.733333   L 107.66841,13.733333   L 108.60176,13.8   L 109.20177,14.133333   L 109.66845,14.6   L 109.80178,15.133333   L 109.80178,24.466667   L 109.93512,24.733333   L 110.93513,26.133333   L 110.93513,26.2   L 113.00183,28.8   L 113.00183,28.8   L 115.00187,31.266667   L 115.66854,32.6   L 115.86855,32.8   L 116.40189,31.866667   L 115.00187,31.133333   L 112.33516,29.133333   L 109.60178,27   L 109.53511,27   L 108.00175,26.066667   L 107.73508,25.933333   L 94.668204,25.933333   L 93.734855,25.866667   L 93.068178,25.6   L 92.668171,25.133333   L 92.534836,24.6   L 92.534836,15.266667   L 92.668171,14.733333   L 93.134845,14.2   L 93.801523,13.8   L 94.668204,13.733333   L 107.73508,13.733333  z "
     clip-path="url(#clipWmfPath1)"
     style="fill:#000000;fill-rule:nonzero;fill-opacity:1;stroke:#000000;stroke-width:0.06666775px;stroke-linecap:round;stroke-linejoin:round;stroke-miterlimit:4;stroke-dasharray:none;stroke-opacity:1;" />
  <path
     id="path382"
     d="  M 101.40165,64.066667   L 100.40163,63.933333   L 99.601617,63.466667   L 99.001607,62.8   L 98.801604,62.066667   L 98.801604,52.6   L 99.001607,51.866667   L 99.601617,51.333333   L 100.40163,50.933333   L 101.40165,50.8   L 114.53519,50.8   L 116.06855,49.866667   L 118.80193,47.733333   L 121.53531,45.733333   L 122.46865,45.066667   L 122.73533,44.933333   L 122.93533,44.933333   L 122.20198,46.266667   L 120.20195,48.8   L 118.13525,51.4   L 117.13524,52.8   L 117.13524,62.2   L 116.93523,62.933333   L 116.33522,63.533333   L 115.53521,63.933333   L 114.53519,64.066667   L 101.40165,64.066667  z "
     clip-path="url(#clipWmfPath1)"
     style="fill:#ffffff;fill-rule:nonzero;fill-opacity:1;stroke:none;" />
  <path
     id="path384"
     d="  M 114.53519,64.6   L 115.06853,64.066667   L 114.53519,63.533333   L 101.46831,63.533333   L 100.60163,63.466667   L 99.934956,63.066667   L 99.468282,62.533333   L 99.334946,62   L 99.334946,52.666667   L 99.468282,52.133333   L 99.868288,51.733333   L 100.53497,51.4   L 101.46831,51.333333   L 114.53519,51.333333   L 114.80186,51.2   L 116.33522,50.266667   L 116.40189,50.266667   L 119.13527,48.133333   L 121.80198,46.133333   L 122.73533,45.533333   L 122.86866,45.466667   L 122.93533,45.466667   L 123.402,45.2   L 122.46865,44.666667   L 121.80198,46   L 119.80194,48.466667   L 119.80194,48.466667   L 117.73524,51.066667   L 117.73524,51.133333   L 116.73523,52.533333   L 116.60189,52.8   L 116.60189,62.133333   L 116.46856,62.666667   L 116.00188,63.133333   L 115.40187,63.466667   L 114.46853,63.533333   L 101.46831,63.533333   L 100.4683,63.4   L 99.868288,63.866667   L 100.33496,64.466667   L 101.33498,64.6   L 101.40165,64.6   L 114.53519,64.6   L 114.60186,64.6   L 115.60188,64.466667   L 115.73521,64.4   L 116.53523,64   L 116.66856,63.866667   L 117.26857,63.266667   L 117.40191,63.066667   L 117.60191,62.333333   L 117.66858,62.2   L 117.66858,52.933333   L 118.53526,51.733333   L 120.60196,49.133333   L 120.60196,49.133333   L 122.60199,46.6   L 122.66866,46.533333   L 123.402,45.2   L 123.402,44.666667   L 122.93533,44.4   L 122.73533,44.4   L 122.53532,44.466667   L 122.26865,44.6   L 122.20198,44.666667   L 121.26864,45.333333   L 121.26864,45.333333   L 118.53526,47.333333   L 118.46859,47.333333   L 115.80188,49.466667   L 114.40186,50.266667   L 101.40165,50.266667   L 101.33498,50.266667   L 100.33496,50.4   L 100.20163,50.466667   L 99.401614,50.866667   L 99.268278,50.933333   L 98.668269,51.466667   L 98.534933,51.733333   L 98.33493,52.466667   L 98.268262,52.6   L 98.268262,62.066667   L 98.33493,62.2   L 98.534933,62.933333   L 98.601601,63.133333   L 99.201611,63.8   L 99.334946,63.933333   L 100.13496,64.4   L 100.33496,64.466667   L 101.33498,64.6   L 101.40165,64.6   L 114.53519,64.6  z "
     clip-path="url(#clipWmfPath1)"
     style="fill:#000000;fill-rule:nonzero;fill-opacity:1;stroke:#000000;stroke-width:0.06666775px;stroke-linecap:round;stroke-linejoin:round;stroke-miterlimit:4;stroke-dasharray:none;stroke-opacity:1;" />
  <path
     id="path386"
     d="  M 158.26924,64.066667   L 159.26925,63.933333   L 160.06927,63.466667   L 160.66928,62.8   L 160.86928,62.066667   L 160.86928,52.6   L 160.66928,51.866667   L 160.06927,51.333333   L 159.26925,50.933333   L 158.26924,50.8   L 145.13569,50.8   L 143.60233,49.866667   L 140.86895,47.733333   L 138.13558,45.733333   L 136.73555,44.933333   L 136.86889,45.333333   L 137.4689,46.266667   L 139.46893,48.8   L 141.53563,51.4   L 142.53565,52.8   L 142.53565,62.2   L 142.73565,62.933333   L 143.33566,63.533333   L 144.13567,63.933333   L 145.13569,64.066667   L 158.26924,64.066667  z "
     clip-path="url(#clipWmfPath1)"
     style="fill:#ffffff;fill-rule:nonzero;fill-opacity:1;stroke:none;" />
  <path
     id="path388"
     d="  M 145.13569,63.533333   L 144.60235,64.066667   L 145.13569,64.6   L 158.26924,64.6   L 158.3359,64.6   L 159.33592,64.466667   L 159.53592,64.4   L 160.33594,63.933333   L 160.46927,63.8   L 161.06928,63.133333   L 161.13595,62.933333   L 161.33595,62.2   L 161.40262,62.066667   L 161.40262,52.6   L 161.33595,52.466667   L 161.13595,51.733333   L 161.00261,51.466667   L 160.4026,50.933333   L 160.26927,50.866667   L 159.46926,50.466667   L 159.33592,50.4   L 158.3359,50.266667   L 158.26924,50.266667   L 145.26903,50.266667   L 143.869,49.466667   L 141.20229,47.333333   L 141.13562,47.333333   L 138.40225,45.333333   L 138.40225,45.266667   L 137.00222,44.466667   L 136.26888,45.066667   L 136.40221,45.466667   L 136.46888,45.6   L 137.06889,46.533333   L 137.06889,46.6   L 139.06892,49.133333   L 139.06892,49.133333   L 141.13562,51.733333   L 142.00231,52.933333   L 142.00231,62.2   L 142.06897,62.333333   L 142.26898,63.066667   L 142.40231,63.266667   L 143.00232,63.866667   L 143.13566,64   L 143.93567,64.4   L 144.06901,64.466667   L 145.06902,64.6   L 145.13569,64.6   L 158.26924,64.6   L 158.3359,64.6   L 159.33592,64.466667   L 159.80259,63.866667   L 159.20258,63.4   L 158.20257,63.533333   L 145.20236,63.533333   L 144.26901,63.466667   L 143.669,63.133333   L 143.20232,62.666667   L 143.06899,62.133333   L 143.06899,52.8   L 142.93565,52.533333   L 141.93564,51.133333   L 141.93564,51.066667   L 139.86894,48.466667   L 139.86894,48.466667   L 137.8689,46   L 137.33556,45.133333   L 137.20223,44.8   L 137.00222,44.466667   L 136.46888,45.4   L 137.8689,46.133333   L 140.53561,48.133333   L 143.26899,50.266667   L 143.33566,50.266667   L 144.86902,51.2   L 145.13569,51.333333   L 158.20257,51.333333   L 159.13592,51.4   L 159.80259,51.733333   L 160.2026,52.133333   L 160.33594,52.666667   L 160.33594,62   L 160.2026,62.533333   L 159.73593,63.066667   L 159.06925,63.466667   L 158.20257,63.533333   L 145.13569,63.533333  z "
     clip-path="url(#clipWmfPath1)"
     style="fill:#000000;fill-rule:nonzero;fill-opacity:1;stroke:#000000;stroke-width:0.06666775px;stroke-linecap:round;stroke-linejoin:round;stroke-miterlimit:4;stroke-dasharray:none;stroke-opacity:1;" />
  <path
     id="path390"
     d="  M 165.40269,13.2   L 166.4027,13.333333   L 167.20271,13.8   L 167.80272,14.466667   L 168.00273,15.2   L 168.00273,24.666667   L 167.80272,25.4   L 167.20271,26   L 166.4027,26.333333   L 165.40269,26.466667   L 152.26914,26.466667   L 150.73578,27.4   L 148.0024,29.533333   L 145.26903,31.533333   L 143.869,32.333333   L 144.00234,31.933333   L 144.60235,31   L 146.60238,28.466667   L 148.66908,25.866667   L 149.6691,24.466667   L 149.6691,15.066667   L 149.8691,14.333333   L 150.46911,13.733333   L 151.26912,13.333333   L 152.26914,13.2   L 165.40269,13.2  z "
     clip-path="url(#clipWmfPath1)"
     style="fill:#ffffff;fill-rule:nonzero;fill-opacity:1;stroke:none;" />
  <path
     id="path392"
     d="  M 152.26914,12.666667   L 151.7358,13.2   L 152.26914,13.733333   L 165.33602,13.733333   L 166.2027,13.8   L 166.86938,14.2   L 167.33605,14.733333   L 167.46939,15.266667   L 167.46939,24.6   L 167.33605,25.133333   L 166.93604,25.6   L 166.26937,25.866667   L 165.33602,25.933333   L 152.26914,25.933333   L 152.00247,26.066667   L 150.46911,27   L 150.40244,27   L 147.66906,29.133333   L 145.00235,31.133333   L 143.60233,31.866667   L 144.13567,32.8   L 144.33568,32.466667   L 144.46901,32.133333   L 145.00235,31.266667   L 147.00239,28.8   L 147.00239,28.8   L 149.06909,26.2   L 149.06909,26.133333   L 150.0691,24.733333   L 150.20244,24.466667   L 150.20244,15.133333   L 150.33577,14.6   L 150.80245,14.133333   L 151.40246,13.8   L 152.33581,13.733333   L 165.33602,13.733333   L 166.33603,13.866667   L 166.93604,13.4   L 166.46937,12.8   L 165.46935,12.666667   L 165.40269,12.666667   L 152.26914,12.666667   L 152.20247,12.666667   L 151.20245,12.8   L 151.06912,12.866667   L 150.26911,13.266667   L 150.13577,13.4   L 149.53576,14   L 149.40243,14.2   L 149.20242,14.933333   L 149.13575,15.066667   L 149.13575,24.333333   L 148.26907,25.533333   L 146.20237,28.133333   L 146.20237,28.133333   L 144.20234,30.666667   L 144.20234,30.733333   L 143.60233,31.666667   L 143.53566,31.8   L 143.40233,32.2   L 143.53566,32.733333   L 144.13567,32.8   L 145.5357,32   L 145.5357,31.933333   L 148.26907,29.933333   L 148.33574,29.933333   L 151.00245,27.8   L 152.40247,27   L 165.40269,27   L 165.46935,27   L 166.46937,26.866667   L 166.6027,26.8   L 167.40272,26.466667   L 167.53605,26.333333   L 168.13606,25.733333   L 168.2694,25.533333   L 168.4694,24.8   L 168.53607,24.666667   L 168.53607,15.2   L 168.4694,15.066667   L 168.2694,14.333333   L 168.20273,14.133333   L 167.60272,13.466667   L 167.46939,13.333333   L 166.66937,12.866667   L 166.46937,12.8   L 165.46935,12.666667   L 165.40269,12.666667   L 152.26914,12.666667  z "
     clip-path="url(#clipWmfPath1)"
     style="fill:#000000;fill-rule:nonzero;fill-opacity:1;stroke:#000000;stroke-width:0.06666775px;stroke-linecap:round;stroke-linejoin:round;stroke-miterlimit:4;stroke-dasharray:none;stroke-opacity:1;" />
  <path
     id="path394"
     d="  M 132.33548,19.266667   L 138.40225,19.266667   L 139.13559,19.133333   L 139.80227,18.733333   L 140.20228,18.133333   L 140.33561,17.4   L 140.33561,7.9333333   L 140.20228,7.2   L 139.80227,6.6   L 139.13559,6.1333333   L 138.40225,6   L 123.402,6   L 122.66866,6.1333333   L 122.06865,6.6   L 121.60197,7.2   L 121.46864,7.9333333   L 121.46864,17.333333   L 121.60197,18.066667   L 122.06865,18.666667   L 122.66866,19   L 123.402,19.133333   L 128.53542,19.133333   L 130.13545,32.333333   L 132.33548,19.266667  z "
     clip-path="url(#clipWmfPath1)"
     style="fill:#ffffff;fill-rule:nonzero;fill-opacity:1;stroke:none;" />
  <path
     id="path396"
     d="  M 129.66877,32.266667   L 130.06878,32.866667   L 130.60212,32.4   L 132.73549,19.8   L 138.46891,19.8   L 139.3356,19.6   L 140.13561,19.133333   L 140.66895,18.333333   L 140.86895,17.466667   L 140.86895,7.8666667   L 140.66895,7   L 140.20228,6.2666667   L 139.3356,5.6666667   L 138.46891,5.4666667   L 123.33534,5.4666667   L 122.46865,5.6666667   L 121.73531,6.2666667   L 121.1353,7   L 120.9353,7.8666667   L 120.9353,17.4   L 121.1353,18.266667   L 121.73531,19.066667   L 122.46865,19.466667   L 123.33534,19.666667   L 128.06875,19.666667   L 129.6021,32.4   L 130.60212,32.4   L 132.73549,19.8   L 138.40225,19.8   L 138.93559,19.266667   L 138.40225,18.733333   L 131.93548,18.733333   L 130.20211,28.8   L 129.00209,18.6   L 123.46867,18.6   L 122.86866,18.533333   L 122.40199,18.266667   L 122.06865,17.866667   L 122.00198,17.266667   L 122.00198,8   L 122.06865,7.4   L 122.40199,6.9333333   L 122.86866,6.6   L 123.46867,6.5333333   L 138.33558,6.5333333   L 138.93559,6.6   L 139.40226,6.9333333   L 139.7356,7.4   L 139.80227,8   L 139.80227,17.333333   L 139.7356,17.933333   L 139.46893,18.333333   L 138.93559,18.666667   L 138.33558,18.733333   L 131.93548,18.733333   L 129.66877,32.266667  z "
     clip-path="url(#clipWmfPath1)"
     style="fill:#000000;fill-rule:nonzero;fill-opacity:1;stroke:#000000;stroke-width:0.06666775px;stroke-linecap:round;stroke-linejoin:round;stroke-miterlimit:4;stroke-dasharray:none;stroke-opacity:1;" />
  <g
     id="g398"
     clip-path="url(#clipWmfPath1)" />
  <g
     id="g408"
     clip-path="url(#clipWmfPath1)">
    <text
       id="text406"
       y="10.249313"
       x="0.000000"
       transform="matrix(1.000000,-0.000000,0.000000,1.000000,95.401549,13.733333)"
       style="font-size:10.687500px;font-style:normal;font-variant:normal;font-weight:400;font-stretch:Condensed;line-height:125.000000%;letter-spacing:0px;word-spacing:0px;fill:#000000;fill-opacity:1;stroke:none;font-family:Helvetica-Narrow;text-align:start;text-anchor:start;"
       xml:space="preserve"><tspan
         id="tspan404"
         y="10.249313"
         x="0.000000"><tspan
           id="tspan400"
           style="fill:#000000;font-size:10.687500px;font-style:normal;font-variant:normal;font-weight:400;font-stretch:Condensed;font-family:Helvetica-Narrow;"
           dy="0.000000"
           dx="0.000000">J</tspan><tspan
           id="tspan402"
           style="fill:#000000;font-size:10.687500px;font-style:normal;font-variant:normal;font-weight:400;font-stretch:Condensed;font-family:Helvetica-Narrow;"
           dy="0.000000"
           dx="0.095064">2</tspan></tspan></text>
  </g>
  <g
     id="g410"
     clip-path="url(#clipWmfPath1)" />
  <g
     id="g420"
     clip-path="url(#clipWmfPath1)">
    <text
       id="text418"
       y="10.249313"
       x="0.000000"
       transform="matrix(1.000000,-0.000000,0.000000,1.000000,102.134991,51.466667)"
       style="font-size:10.687500px;font-style:normal;font-variant:normal;font-weight:400;font-stretch:Condensed;line-height:125.000000%;letter-spacing:0px;word-spacing:0px;fill:#000000;fill-opacity:1;stroke:none;font-family:Helvetica-Narrow;text-align:start;text-anchor:start;"
       xml:space="preserve"><tspan
         id="tspan416"
         y="10.249313"
         x="0.000000"><tspan
           id="tspan412"
           style="fill:#000000;font-size:10.687500px;font-style:normal;font-variant:normal;font-weight:400;font-stretch:Condensed;font-family:Helvetica-Narrow;"
           dy="0.000000"
           dx="0.000000">J</tspan><tspan
           id="tspan414"
           style="fill:#000000;font-size:10.687500px;font-style:normal;font-variant:normal;font-weight:400;font-stretch:Condensed;font-family:Helvetica-Narrow;"
           dy="0.000000"
           dx="0.095064">3</tspan></tspan></text>
  </g>
  <g
     id="g422"
     clip-path="url(#clipWmfPath1)" />
  <g
     id="g432"
     clip-path="url(#clipWmfPath1)">
    <text
       id="text430"
       y="10.249313"
       x="0.000000"
       transform="matrix(1.000000,-0.000000,0.000000,1.000000,125.335368,6.400000)"
       style="font-size:10.687500px;font-style:normal;font-variant:normal;font-weight:400;font-stretch:Condensed;line-height:125.000000%;letter-spacing:0px;word-spacing:0px;fill:#000000;fill-opacity:1;stroke:none;font-family:Helvetica-Narrow;text-align:start;text-anchor:start;"
       xml:space="preserve"><tspan
         id="tspan428"
         y="10.249313"
         x="0.000000"><tspan
           id="tspan424"
           style="fill:#000000;font-size:10.687500px;font-style:normal;font-variant:normal;font-weight:400;font-stretch:Condensed;font-family:Helvetica-Narrow;"
           dy="0.000000"
           dx="0.000000">J</tspan><tspan
           id="tspan426"
           style="fill:#000000;font-size:10.687500px;font-style:normal;font-variant:normal;font-weight:400;font-stretch:Condensed;font-family:Helvetica-Narrow;"
           dy="0.000000"
           dx="0.095064">4</tspan></tspan></text>
  </g>
  <g
     id="g434"
     clip-path="url(#clipWmfPath1)" />
  <g
     id="g444"
     clip-path="url(#clipWmfPath1)">
    <text
       id="text442"
       y="10.249313"
       x="0.000000"
       transform="matrix(1.000000,-0.000000,0.000000,1.000000,145.735699,51.466667)"
       style="font-size:10.687500px;font-style:normal;font-variant:normal;font-weight:400;font-stretch:Condensed;line-height:125.000000%;letter-spacing:0px;word-spacing:0px;fill:#000000;fill-opacity:1;stroke:none;font-family:Helvetica-Narrow;text-align:start;text-anchor:start;"
       xml:space="preserve"><tspan
         id="tspan440"
         y="10.249313"
         x="0.000000"><tspan
           id="tspan436"
           style="fill:#000000;font-size:10.687500px;font-style:normal;font-variant:normal;font-weight:400;font-stretch:Condensed;font-family:Helvetica-Narrow;"
           dy="0.000000"
           dx="0.000000">J</tspan><tspan
           id="tspan438"
           style="fill:#000000;font-size:10.687500px;font-style:normal;font-variant:normal;font-weight:400;font-stretch:Condensed;font-family:Helvetica-Narrow;"
           dy="0.000000"
           dx="0.095064">5</tspan></tspan></text>
  </g>
  <g
     id="g446"
     clip-path="url(#clipWmfPath1)" />
  <g
     id="g456"
     clip-path="url(#clipWmfPath1)">
    <text
       id="text454"
       y="10.249313"
       x="0.000000"
       transform="matrix(1.000000,-0.000000,0.000000,1.000000,153.335823,13.666667)"
       style="font-size:10.687500px;font-style:normal;font-variant:normal;font-weight:400;font-stretch:Condensed;line-height:125.000000%;letter-spacing:0px;word-spacing:0px;fill:#000000;fill-opacity:1;stroke:none;font-family:Helvetica-Narrow;text-align:start;text-anchor:start;"
       xml:space="preserve"><tspan
         id="tspan452"
         y="10.249313"
         x="0.000000"><tspan
           id="tspan448"
           style="fill:#000000;font-size:10.687500px;font-style:normal;font-variant:normal;font-weight:400;font-stretch:Condensed;font-family:Helvetica-Narrow;"
           dy="0.000000"
           dx="0.000000">J</tspan><tspan
           id="tspan450"
           style="fill:#000000;font-size:10.687500px;font-style:normal;font-variant:normal;font-weight:400;font-stretch:Condensed;font-family:Helvetica-Narrow;"
           dy="0.000000"
           dx="0.095064">6</tspan></tspan></text>
  </g>
  <g
     id="g458"
     clip-path="url(#clipWmfPath1)" />
  <g
     id="g476"
     clip-path="url(#clipWmfPath1)">
    <text
       id="text474"
       y="8.930687"
       x="0.000000"
       transform="matrix(1.000000,-0.000000,0.000000,1.000000,128.735423,77.733333)"
       style="font-size:9.312500px;font-style:normal;font-variant:normal;font-weight:400;font-stretch:Condensed;line-height:125.000000%;letter-spacing:0px;word-spacing:0px;fill:#000000;fill-opacity:1;stroke:none;font-family:Helvetica-Narrow;text-align:start;text-anchor:start;"
       xml:space="preserve"><tspan
         id="tspan472"
         y="8.930687"
         x="0.000000"><tspan
           id="tspan460"
           style="fill:#000000;font-size:9.312500px;font-style:normal;font-variant:normal;font-weight:400;font-stretch:Condensed;font-family:Helvetica-Narrow;"
           dy="0.000000"
           dx="0.000000">M</tspan><tspan
           id="tspan462"
           style="fill:#000000;font-size:9.312500px;font-style:normal;font-variant:normal;font-weight:400;font-stretch:Condensed;font-family:Helvetica-Narrow;"
           dy="0.000000"
           dx="0.202943">H</tspan><tspan
           id="tspan464"
           style="fill:#000000;font-size:9.312500px;font-style:normal;font-variant:normal;font-weight:400;font-stretch:Condensed;font-family:Helvetica-Narrow;"
           dy="0.000000"
           dx="0.117032">0</tspan><tspan
           id="tspan466"
           style="fill:#000000;font-size:9.312500px;font-style:normal;font-variant:normal;font-weight:400;font-stretch:Condensed;font-family:Helvetica-Narrow;"
           dy="0.000000"
           dx="0.050177">6</tspan><tspan
           id="tspan468"
           style="fill:#000000;font-size:9.312500px;font-style:normal;font-variant:normal;font-weight:400;font-stretch:Condensed;font-family:Helvetica-Narrow;"
           dy="0.000000"
           dx="0.050177">6</tspan><tspan
           id="tspan470"
           style="fill:#000000;font-size:9.312500px;font-style:normal;font-variant:normal;font-weight:400;font-stretch:Condensed;font-family:Helvetica-Narrow;"
           dy="0.000000"
           dx="0.050177">1</tspan></tspan></text>
  </g>
</svg>
