<?xml version="1.0" encoding="UTF-8" standalone="no"?>
<svg
   xmlns:dc="http://purl.org/dc/elements/1.1/"
   xmlns:cc="http://creativecommons.org/ns#"
   xmlns:rdf="http://www.w3.org/1999/02/22-rdf-syntax-ns#"
   xmlns:svg="http://www.w3.org/2000/svg"
   xmlns="http://www.w3.org/2000/svg"
   id="svg274"
   height="60.559999mm"
   width="65.54mm"
   version="1.0">
  <metadata
     id="metadata278">
    <rdf:RDF>
      <cc:Work
         rdf:about="">
        <dc:format>image/svg+xml</dc:format>
        <dc:type
           rdf:resource="http://purl.org/dc/dcmitype/StillImage" />
      </cc:Work>
    </rdf:RDF>
  </metadata>
  <defs
     id="defs6">
    <clipPath
       id="clipWmfPath1"
       clipPathUnits="userSpaceOnUse">
      <path
         id="path2"
         d="M 0,0 L 247.60577,0 L 247.60577,228.78373 L 0,228.78373 z" />
    </clipPath>
    <pattern
       y="0"
       x="0"
       height="6"
       width="6"
       patternUnits="userSpaceOnUse"
       id="WMFhbasepattern" />
  </defs>
  <path
     id="path8"
     d="  M 206.80482,192.58631   L 172.73736,192.58631   L 172.73736,210.18505   L 19.86713,210.18505   L 19.86713,192.65297   L 6.0001399,192.65297   L 6.0001399,5.9995734   L 206.80482,5.9995734   L 206.80482,192.58631  z "
     clip-path="url(#clipWmfPath1)"
     style="fill:#e5e5e5;fill-rule:nonzero;fill-opacity:1;stroke:none;" />
  <path
     id="path10"
     d="  M 207.33817,5.9995734   L 206.27148,5.9995734   L 206.27148,192.05301   L 172.20401,192.05301   L 172.20401,209.65176   L 20.400476,209.65176   L 20.400476,192.11967   L 6.5334857,192.11967   L 6.5334857,6.5328688   L 206.27148,6.5328688   L 206.27148,192.05301   L 172.73736,192.05301   L 172.73736,193.1196   L 207.33817,193.1196   L 207.33817,5.466278   L 5.4667941,5.466278   L 5.4667941,193.18626   L 19.333784,193.18626   L 19.333784,210.71835   L 173.27071,210.71835   L 173.27071,193.1196   L 207.33817,193.1196   L 207.33817,5.9995734  z "
     clip-path="url(#clipWmfPath1)"
     style="fill:#000000;fill-rule:nonzero;fill-opacity:1;stroke:#000000;stroke-width:0.06666822px;stroke-linecap:round;stroke-linejoin:round;stroke-miterlimit:4;stroke-dasharray:none;stroke-opacity:1;" />
  <path
     id="path12"
     d="  M 212.60496,15.198919   L 241.60563,15.198919   L 241.60563,19.265297   L 216.20504,19.265297   L 216.20504,222.78416   L 212.60496,222.78416   L 212.60496,15.198919  z "
     clip-path="url(#clipWmfPath1)"
     style="fill:#ffffff;fill-rule:nonzero;fill-opacity:1;stroke:none;" />
  <path
     id="path14"
     d="  M 212.07161,222.78416   L 213.1383,222.78416   L 213.1383,15.732215   L 241.07229,15.732215   L 241.07229,18.732001   L 215.67169,18.732001   L 215.67169,222.25086   L 213.1383,222.25086   L 213.1383,15.732215   L 241.60563,15.732215   L 241.60563,14.665624   L 212.07161,14.665624   L 212.07161,223.31745   L 216.73839,223.31745   L 216.73839,19.798592   L 242.13898,19.798592   L 242.13898,14.665624   L 212.07161,14.665624   L 212.07161,222.78416  z "
     clip-path="url(#clipWmfPath1)"
     style="fill:#000000;fill-rule:nonzero;fill-opacity:1;stroke:#000000;stroke-width:0.06666822px;stroke-linecap:round;stroke-linejoin:round;stroke-miterlimit:4;stroke-dasharray:none;stroke-opacity:1;" />
  <path
     id="path16"
     d="  M 170.1373,209.78508   L 170.1373,197.78594   L 170.07063,196.78601   L 169.87063,195.85274   L 169.40395,195.18612   L 168.53726,194.91947   L 167.73724,195.25278   L 167.33723,195.9194   L 167.13723,197.51929   L 167.13723,209.78508   L 170.1373,209.78508  z "
     clip-path="url(#clipWmfPath1)"
     style="fill:#bfbfbf;fill-rule:nonzero;fill-opacity:1;stroke:none;" />
  <path
     id="path18"
     d="  M 170.1373,209.78508   L 170.1373,197.78594   L 170.07063,196.78601   L 169.87063,195.85274   L 169.40395,195.18612   L 168.53726,194.91947   L 167.73724,195.25278   L 167.33723,195.9194   L 167.13723,197.51929   L 167.13723,209.78508   L 170.1373,209.78508  z "
     clip-path="url(#clipWmfPath1)"
     style="fill:none;stroke:#000000;stroke-width:0.06666822px;stroke-linecap:round;stroke-linejoin:round;stroke-miterlimit:4;stroke-dasharray:none;stroke-opacity:1;" />
  <path
     id="path20"
     d="  M 165.40386,209.78508   L 165.40386,197.78594   L 165.33719,196.78601   L 165.13718,195.85274   L 164.67051,195.18612   L 163.80382,194.91947   L 163.0038,195.25278   L 162.60379,195.9194   L 162.40379,197.51929   L 162.40379,209.78508   L 165.40386,209.78508  z "
     clip-path="url(#clipWmfPath1)"
     style="fill:#bfbfbf;fill-rule:nonzero;fill-opacity:1;stroke:none;" />
  <path
     id="path22"
     d="  M 165.40386,209.78508   L 165.40386,197.78594   L 165.33719,196.78601   L 165.13718,195.85274   L 164.67051,195.18612   L 163.80382,194.91947   L 163.0038,195.25278   L 162.60379,195.9194   L 162.40379,197.51929   L 162.40379,209.78508   L 165.40386,209.78508  z "
     clip-path="url(#clipWmfPath1)"
     style="fill:none;stroke:#000000;stroke-width:0.06666822px;stroke-linecap:round;stroke-linejoin:round;stroke-miterlimit:4;stroke-dasharray:none;stroke-opacity:1;" />
  <path
     id="path24"
     d="  M 160.73708,209.78508   L 160.73708,197.78594   L 160.47041,195.85274   L 160.00373,195.18612   L 159.80373,194.98614   L 159.20371,194.91947   L 158.40369,195.25278   L 157.93702,195.9194   L 157.73701,197.51929   L 157.73701,209.78508   L 160.73708,209.78508  z "
     clip-path="url(#clipWmfPath1)"
     style="fill:#bfbfbf;fill-rule:nonzero;fill-opacity:1;stroke:none;" />
  <path
     id="path26"
     d="  M 160.73708,209.78508   L 160.73708,197.78594   L 160.47041,195.85274   L 160.00373,195.18612   L 159.80373,194.98614   L 159.20371,194.91947   L 158.40369,195.25278   L 157.93702,195.9194   L 157.73701,197.51929   L 157.73701,209.78508   L 160.73708,209.78508  z "
     clip-path="url(#clipWmfPath1)"
     style="fill:none;stroke:#000000;stroke-width:0.06666822px;stroke-linecap:round;stroke-linejoin:round;stroke-miterlimit:4;stroke-dasharray:none;stroke-opacity:1;" />
  <path
     id="path28"
     d="  M 156.07031,209.78508   L 156.07031,197.78594   L 155.80363,195.85274   L 155.33695,195.18612   L 155.13695,194.98614   L 154.53694,194.91947   L 153.73692,195.25278   L 153.33691,195.9194   L 153.1369,197.51929   L 153.1369,209.78508   L 156.07031,209.78508  z "
     clip-path="url(#clipWmfPath1)"
     style="fill:#bfbfbf;fill-rule:nonzero;fill-opacity:1;stroke:none;" />
  <path
     id="path30"
     d="  M 156.07031,209.78508   L 156.07031,197.78594   L 155.80363,195.85274   L 155.33695,195.18612   L 155.13695,194.98614   L 154.53694,194.91947   L 153.73692,195.25278   L 153.33691,195.9194   L 153.1369,197.51929   L 153.1369,209.78508   L 156.07031,209.78508  z "
     clip-path="url(#clipWmfPath1)"
     style="fill:none;stroke:#000000;stroke-width:0.06666822px;stroke-linecap:round;stroke-linejoin:round;stroke-miterlimit:4;stroke-dasharray:none;stroke-opacity:1;" />
  <path
     id="path32"
     d="  M 151.53687,209.78508   L 151.53687,197.78594   L 151.4702,196.78601   L 151.27019,195.85274   L 150.80352,195.18612   L 149.93683,194.91947   L 149.13681,195.25278   L 148.67013,195.9194   L 148.47013,197.51929   L 148.47013,209.78508   L 151.53687,209.78508  z "
     clip-path="url(#clipWmfPath1)"
     style="fill:#bfbfbf;fill-rule:nonzero;fill-opacity:1;stroke:none;" />
  <path
     id="path34"
     d="  M 151.53687,209.78508   L 151.53687,197.78594   L 151.4702,196.78601   L 151.27019,195.85274   L 150.80352,195.18612   L 149.93683,194.91947   L 149.13681,195.25278   L 148.67013,195.9194   L 148.47013,197.51929   L 148.47013,209.78508   L 151.53687,209.78508  z "
     clip-path="url(#clipWmfPath1)"
     style="fill:none;stroke:#000000;stroke-width:0.06666822px;stroke-linecap:round;stroke-linejoin:round;stroke-miterlimit:4;stroke-dasharray:none;stroke-opacity:1;" />
  <path
     id="path36"
     d="  M 146.73675,209.78508   L 146.73675,197.78594   L 146.67009,196.78601   L 146.47008,195.85274   L 146.0034,195.18612   L 145.13672,194.91947   L 144.3367,195.25278   L 143.93669,195.9194   L 143.73668,197.51929   L 143.73668,209.78508   L 146.73675,209.78508  z "
     clip-path="url(#clipWmfPath1)"
     style="fill:#bfbfbf;fill-rule:nonzero;fill-opacity:1;stroke:none;" />
  <path
     id="path38"
     d="  M 146.73675,209.78508   L 146.73675,197.78594   L 146.67009,196.78601   L 146.47008,195.85274   L 146.0034,195.18612   L 145.13672,194.91947   L 144.3367,195.25278   L 143.93669,195.9194   L 143.73668,197.51929   L 143.73668,209.78508   L 146.73675,209.78508  z "
     clip-path="url(#clipWmfPath1)"
     style="fill:none;stroke:#000000;stroke-width:0.06666822px;stroke-linecap:round;stroke-linejoin:round;stroke-miterlimit:4;stroke-dasharray:none;stroke-opacity:1;" />
  <path
     id="path40"
     d="  M 141.86997,209.78508   L 141.86997,197.78594   L 141.80331,196.78601   L 141.6033,195.85274   L 141.13662,195.18612   L 140.26994,194.91947   L 139.46992,195.25278   L 139.00324,195.9194   L 138.80324,197.51929   L 138.80324,209.78508   L 141.86997,209.78508  z "
     clip-path="url(#clipWmfPath1)"
     style="fill:#bfbfbf;fill-rule:nonzero;fill-opacity:1;stroke:none;" />
  <path
     id="path42"
     d="  M 141.86997,209.78508   L 141.86997,197.78594   L 141.80331,196.78601   L 141.6033,195.85274   L 141.13662,195.18612   L 140.26994,194.91947   L 139.46992,195.25278   L 139.00324,195.9194   L 138.80324,197.51929   L 138.80324,209.78508   L 141.86997,209.78508  z "
     clip-path="url(#clipWmfPath1)"
     style="fill:none;stroke:#000000;stroke-width:0.06666822px;stroke-linecap:round;stroke-linejoin:round;stroke-miterlimit:4;stroke-dasharray:none;stroke-opacity:1;" />
  <path
     id="path44"
     d="  M 137.13653,209.78508   L 137.13653,197.78594   L 137.06986,196.78601   L 136.86986,195.85274   L 136.40318,195.18612   L 135.53649,194.91947   L 134.73647,195.25278   L 134.2698,195.9194   L 134.06979,197.51929   L 134.06979,209.78508   L 137.13653,209.78508  z "
     clip-path="url(#clipWmfPath1)"
     style="fill:#bfbfbf;fill-rule:nonzero;fill-opacity:1;stroke:none;" />
  <path
     id="path46"
     d="  M 137.13653,209.78508   L 137.13653,197.78594   L 137.06986,196.78601   L 136.86986,195.85274   L 136.40318,195.18612   L 135.53649,194.91947   L 134.73647,195.25278   L 134.2698,195.9194   L 134.06979,197.51929   L 134.06979,209.78508   L 137.13653,209.78508  z "
     clip-path="url(#clipWmfPath1)"
     style="fill:none;stroke:#000000;stroke-width:0.06666822px;stroke-linecap:round;stroke-linejoin:round;stroke-miterlimit:4;stroke-dasharray:none;stroke-opacity:1;" />
  <path
     id="path48"
     d="  M 132.46976,209.78508   L 132.46976,197.78594   L 132.20308,195.85274   L 131.7364,195.18612   L 131.5364,194.98614   L 130.93639,194.91947   L 130.13637,195.25278   L 129.73636,195.9194   L 129.53635,197.51929   L 129.53635,209.78508   L 132.46976,209.78508  z "
     clip-path="url(#clipWmfPath1)"
     style="fill:#bfbfbf;fill-rule:nonzero;fill-opacity:1;stroke:none;" />
  <path
     id="path50"
     d="  M 132.46976,209.78508   L 132.46976,197.78594   L 132.20308,195.85274   L 131.7364,195.18612   L 131.5364,194.98614   L 130.93639,194.91947   L 130.13637,195.25278   L 129.73636,195.9194   L 129.53635,197.51929   L 129.53635,209.78508   L 132.46976,209.78508  z "
     clip-path="url(#clipWmfPath1)"
     style="fill:none;stroke:#000000;stroke-width:0.06666822px;stroke-linecap:round;stroke-linejoin:round;stroke-miterlimit:4;stroke-dasharray:none;stroke-opacity:1;" />
  <path
     id="path52"
     d="  M 127.60297,209.78508   L 127.60297,197.78594   L 127.3363,195.85274   L 126.93629,195.18612   L 126.73629,194.98614   L 126.13627,194.91947   L 125.26959,195.25278   L 124.80291,195.9194   L 124.60291,197.51929   L 124.60291,209.78508   L 127.60297,209.78508  z "
     clip-path="url(#clipWmfPath1)"
     style="fill:#bfbfbf;fill-rule:nonzero;fill-opacity:1;stroke:none;" />
  <path
     id="path54"
     d="  M 127.60297,209.78508   L 127.60297,197.78594   L 127.3363,195.85274   L 126.93629,195.18612   L 126.73629,194.98614   L 126.13627,194.91947   L 125.26959,195.25278   L 124.80291,195.9194   L 124.60291,197.51929   L 124.60291,209.78508   L 127.60297,209.78508  z "
     clip-path="url(#clipWmfPath1)"
     style="fill:none;stroke:#000000;stroke-width:0.06666822px;stroke-linecap:round;stroke-linejoin:round;stroke-miterlimit:4;stroke-dasharray:none;stroke-opacity:1;" />
  <path
     id="path56"
     d="  M 123.00287,209.78508   L 123.00287,197.78594   L 122.9362,196.78601   L 122.73619,195.85274   L 122.26952,195.18612   L 121.40283,194.91947   L 120.60281,195.25278   L 120.2028,195.9194   L 120.0028,197.51929   L 120.0028,209.78508   L 123.00287,209.78508  z "
     clip-path="url(#clipWmfPath1)"
     style="fill:#bfbfbf;fill-rule:nonzero;fill-opacity:1;stroke:none;" />
  <path
     id="path58"
     d="  M 123.00287,209.78508   L 123.00287,197.78594   L 122.9362,196.78601   L 122.73619,195.85274   L 122.26952,195.18612   L 121.40283,194.91947   L 120.60281,195.25278   L 120.2028,195.9194   L 120.0028,197.51929   L 120.0028,209.78508   L 123.00287,209.78508  z "
     clip-path="url(#clipWmfPath1)"
     style="fill:none;stroke:#000000;stroke-width:0.06666822px;stroke-linecap:round;stroke-linejoin:round;stroke-miterlimit:4;stroke-dasharray:none;stroke-opacity:1;" />
  <path
     id="path60"
     d="  M 118.40276,209.78508   L 118.40276,197.78594   L 118.13609,195.85274   L 117.73608,195.18612   L 117.53607,194.98614   L 116.93606,194.91947   L 116.06937,195.25278   L 115.6027,195.9194   L 115.40269,197.51929   L 115.40269,209.78508   L 118.40276,209.78508  z "
     clip-path="url(#clipWmfPath1)"
     style="fill:#bfbfbf;fill-rule:nonzero;fill-opacity:1;stroke:none;" />
  <path
     id="path62"
     d="  M 118.40276,209.78508   L 118.40276,197.78594   L 118.13609,195.85274   L 117.73608,195.18612   L 117.53607,194.98614   L 116.93606,194.91947   L 116.06937,195.25278   L 115.6027,195.9194   L 115.40269,197.51929   L 115.40269,209.78508   L 118.40276,209.78508  z "
     clip-path="url(#clipWmfPath1)"
     style="fill:none;stroke:#000000;stroke-width:0.06666822px;stroke-linecap:round;stroke-linejoin:round;stroke-miterlimit:4;stroke-dasharray:none;stroke-opacity:1;" />
  <path
     id="path64"
     d="  M 113.80265,209.78508   L 113.80265,197.78594   L 113.73598,196.78601   L 113.53598,195.85274   L 113.0693,195.18612   L 112.20262,194.91947   L 111.4026,195.25278   L 110.93592,195.9194   L 110.73592,197.51929   L 110.73592,209.78508   L 113.80265,209.78508  z "
     clip-path="url(#clipWmfPath1)"
     style="fill:#bfbfbf;fill-rule:nonzero;fill-opacity:1;stroke:none;" />
  <path
     id="path66"
     d="  M 113.80265,209.78508   L 113.80265,197.78594   L 113.73598,196.78601   L 113.53598,195.85274   L 113.0693,195.18612   L 112.20262,194.91947   L 111.4026,195.25278   L 110.93592,195.9194   L 110.73592,197.51929   L 110.73592,209.78508   L 113.80265,209.78508  z "
     clip-path="url(#clipWmfPath1)"
     style="fill:none;stroke:#000000;stroke-width:0.06666822px;stroke-linecap:round;stroke-linejoin:round;stroke-miterlimit:4;stroke-dasharray:none;stroke-opacity:1;" />
  <path
     id="path68"
     d="  M 108.93587,209.78508   L 108.93587,197.78594   L 108.8692,196.78601   L 108.6692,195.85274   L 108.20252,195.18612   L 107.33584,194.91947   L 106.53582,195.25278   L 106.13581,195.9194   L 105.9358,197.51929   L 105.9358,209.78508   L 108.93587,209.78508  z "
     clip-path="url(#clipWmfPath1)"
     style="fill:#bfbfbf;fill-rule:nonzero;fill-opacity:1;stroke:none;" />
  <path
     id="path70"
     d="  M 108.93587,209.78508   L 108.93587,197.78594   L 108.8692,196.78601   L 108.6692,195.85274   L 108.20252,195.18612   L 107.33584,194.91947   L 106.53582,195.25278   L 106.13581,195.9194   L 105.9358,197.51929   L 105.9358,209.78508   L 108.93587,209.78508  z "
     clip-path="url(#clipWmfPath1)"
     style="fill:none;stroke:#000000;stroke-width:0.06666822px;stroke-linecap:round;stroke-linejoin:round;stroke-miterlimit:4;stroke-dasharray:none;stroke-opacity:1;" />
  <path
     id="path72"
     d="  M 104.13576,209.78508   L 104.13576,197.78594   L 104.06909,196.78601   L 103.86909,195.85274   L 103.40241,195.18612   L 102.53572,194.91947   L 101.73571,195.25278   L 101.26903,195.9194   L 101.06902,197.51929   L 101.06902,209.78508   L 104.13576,209.78508  z "
     clip-path="url(#clipWmfPath1)"
     style="fill:#bfbfbf;fill-rule:nonzero;fill-opacity:1;stroke:none;" />
  <path
     id="path74"
     d="  M 104.13576,209.78508   L 104.13576,197.78594   L 104.06909,196.78601   L 103.86909,195.85274   L 103.40241,195.18612   L 102.53572,194.91947   L 101.73571,195.25278   L 101.26903,195.9194   L 101.06902,197.51929   L 101.06902,209.78508   L 104.13576,209.78508  z "
     clip-path="url(#clipWmfPath1)"
     style="fill:none;stroke:#000000;stroke-width:0.06666822px;stroke-linecap:round;stroke-linejoin:round;stroke-miterlimit:4;stroke-dasharray:none;stroke-opacity:1;" />
  <path
     id="path76"
     d="  M 99.202313,209.78508   L 99.202313,197.78594   L 99.135645,196.78601   L 98.93564,195.85274   L 98.468962,195.18612   L 97.602276,194.91947   L 96.802257,195.25278   L 96.402248,195.9194   L 96.202243,197.51929   L 96.202243,209.78508   L 99.202313,209.78508  z "
     clip-path="url(#clipWmfPath1)"
     style="fill:#bfbfbf;fill-rule:nonzero;fill-opacity:1;stroke:none;" />
  <path
     id="path78"
     d="  M 99.202313,209.78508   L 99.202313,197.78594   L 99.135645,196.78601   L 98.93564,195.85274   L 98.468962,195.18612   L 97.602276,194.91947   L 96.802257,195.25278   L 96.402248,195.9194   L 96.202243,197.51929   L 96.202243,209.78508   L 99.202313,209.78508  z "
     clip-path="url(#clipWmfPath1)"
     style="fill:none;stroke:#000000;stroke-width:0.06666822px;stroke-linecap:round;stroke-linejoin:round;stroke-miterlimit:4;stroke-dasharray:none;stroke-opacity:1;" />
  <path
     id="path80"
     d="  M 94.135528,209.78508   L 94.135528,197.78594   L 94.06886,196.78601   L 93.868855,195.85274   L 93.402178,195.18612   L 92.535491,194.91947   L 91.735472,195.25278   L 91.335463,195.9194   L 91.135458,197.51929   L 91.135458,209.78508   L 94.135528,209.78508  z "
     clip-path="url(#clipWmfPath1)"
     style="fill:#bfbfbf;fill-rule:nonzero;fill-opacity:1;stroke:none;" />
  <path
     id="path82"
     d="  M 94.135528,209.78508   L 94.135528,197.78594   L 94.06886,196.78601   L 93.868855,195.85274   L 93.402178,195.18612   L 92.535491,194.91947   L 91.735472,195.25278   L 91.335463,195.9194   L 91.135458,197.51929   L 91.135458,209.78508   L 94.135528,209.78508  z "
     clip-path="url(#clipWmfPath1)"
     style="fill:none;stroke:#000000;stroke-width:0.06666822px;stroke-linecap:round;stroke-linejoin:round;stroke-miterlimit:4;stroke-dasharray:none;stroke-opacity:1;" />
  <path
     id="path84"
     d="  M 89.535421,209.78508   L 89.535421,197.78594   L 89.468753,196.78601   L 89.268748,195.85274   L 88.80207,195.18612   L 87.935383,194.91947   L 87.135365,195.25278   L 86.735355,195.9194   L 86.535351,197.51929   L 86.535351,209.78508   L 89.535421,209.78508  z "
     clip-path="url(#clipWmfPath1)"
     style="fill:#bfbfbf;fill-rule:nonzero;fill-opacity:1;stroke:none;" />
  <path
     id="path86"
     d="  M 89.535421,209.78508   L 89.535421,197.78594   L 89.468753,196.78601   L 89.268748,195.85274   L 88.80207,195.18612   L 87.935383,194.91947   L 87.135365,195.25278   L 86.735355,195.9194   L 86.535351,197.51929   L 86.535351,209.78508   L 89.535421,209.78508  z "
     clip-path="url(#clipWmfPath1)"
     style="fill:none;stroke:#000000;stroke-width:0.06666822px;stroke-linecap:round;stroke-linejoin:round;stroke-miterlimit:4;stroke-dasharray:none;stroke-opacity:1;" />
  <path
     id="path88"
     d="  M 84.668641,209.78508   L 84.668641,197.78594   L 84.401968,195.85274   L 83.93529,195.18612   L 83.735286,194.98614   L 83.135272,194.91947   L 82.335253,195.25278   L 81.868575,195.9194   L 81.668571,197.51929   L 81.668571,209.78508   L 84.668641,209.78508  z "
     clip-path="url(#clipWmfPath1)"
     style="fill:#bfbfbf;fill-rule:nonzero;fill-opacity:1;stroke:none;" />
  <path
     id="path90"
     d="  M 84.668641,209.78508   L 84.668641,197.78594   L 84.401968,195.85274   L 83.93529,195.18612   L 83.735286,194.98614   L 83.135272,194.91947   L 82.335253,195.25278   L 81.868575,195.9194   L 81.668571,197.51929   L 81.668571,209.78508   L 84.668641,209.78508  z "
     clip-path="url(#clipWmfPath1)"
     style="fill:none;stroke:#000000;stroke-width:0.06666822px;stroke-linecap:round;stroke-linejoin:round;stroke-miterlimit:4;stroke-dasharray:none;stroke-opacity:1;" />
  <path
     id="path92"
     d="  M 79.801861,209.78508   L 79.801861,197.78594   L 79.735192,196.78601   L 79.535188,195.85274   L 79.06851,195.18612   L 78.201823,194.91947   L 77.401805,195.25278   L 77.001795,195.9194   L 76.801791,197.51929   L 76.801791,209.78508   L 79.801861,209.78508  z "
     clip-path="url(#clipWmfPath1)"
     style="fill:#bfbfbf;fill-rule:nonzero;fill-opacity:1;stroke:none;" />
  <path
     id="path94"
     d="  M 79.801861,209.78508   L 79.801861,197.78594   L 79.735192,196.78601   L 79.535188,195.85274   L 79.06851,195.18612   L 78.201823,194.91947   L 77.401805,195.25278   L 77.001795,195.9194   L 76.801791,197.51929   L 76.801791,209.78508   L 79.801861,209.78508  z "
     clip-path="url(#clipWmfPath1)"
     style="fill:none;stroke:#000000;stroke-width:0.06666822px;stroke-linecap:round;stroke-linejoin:round;stroke-miterlimit:4;stroke-dasharray:none;stroke-opacity:1;" />
  <path
     id="path96"
     d="  M 75.201753,209.78508   L 75.201753,197.78594   L 75.135085,196.78601   L 74.93508,195.85274   L 74.468403,195.18612   L 73.601716,194.91947   L 72.801697,195.25278   L 72.33502,195.9194   L 72.135015,197.51929   L 72.135015,209.78508   L 75.201753,209.78508  z "
     clip-path="url(#clipWmfPath1)"
     style="fill:#bfbfbf;fill-rule:nonzero;fill-opacity:1;stroke:none;" />
  <path
     id="path98"
     d="  M 75.201753,209.78508   L 75.201753,197.78594   L 75.135085,196.78601   L 74.93508,195.85274   L 74.468403,195.18612   L 73.601716,194.91947   L 72.801697,195.25278   L 72.33502,195.9194   L 72.135015,197.51929   L 72.135015,209.78508   L 75.201753,209.78508  z "
     clip-path="url(#clipWmfPath1)"
     style="fill:none;stroke:#000000;stroke-width:0.06666822px;stroke-linecap:round;stroke-linejoin:round;stroke-miterlimit:4;stroke-dasharray:none;stroke-opacity:1;" />
  <path
     id="path100"
     d="  M 70.601646,209.78508   L 70.601646,197.78594   L 70.534978,196.78601   L 70.334973,195.85274   L 69.868296,195.18612   L 69.001609,194.91947   L 68.20159,195.25278   L 67.801581,195.9194   L 67.601576,197.51929   L 67.601576,209.78508   L 70.601646,209.78508  z "
     clip-path="url(#clipWmfPath1)"
     style="fill:#bfbfbf;fill-rule:nonzero;fill-opacity:1;stroke:none;" />
  <path
     id="path102"
     d="  M 70.601646,209.78508   L 70.601646,197.78594   L 70.534978,196.78601   L 70.334973,195.85274   L 69.868296,195.18612   L 69.001609,194.91947   L 68.20159,195.25278   L 67.801581,195.9194   L 67.601576,197.51929   L 67.601576,209.78508   L 70.601646,209.78508  z "
     clip-path="url(#clipWmfPath1)"
     style="fill:none;stroke:#000000;stroke-width:0.06666822px;stroke-linecap:round;stroke-linejoin:round;stroke-miterlimit:4;stroke-dasharray:none;stroke-opacity:1;" />
  <path
     id="path104"
     d="  M 65.801534,209.78508   L 65.801534,197.78594   L 65.734866,196.78601   L 65.534861,195.85274   L 65.068184,195.18612   L 64.201497,194.91947   L 63.401478,195.25278   L 62.934801,195.9194   L 62.734796,197.51929   L 62.734796,209.78508   L 65.801534,209.78508  z "
     clip-path="url(#clipWmfPath1)"
     style="fill:#bfbfbf;fill-rule:nonzero;fill-opacity:1;stroke:none;" />
  <path
     id="path106"
     d="  M 65.801534,209.78508   L 65.801534,197.78594   L 65.734866,196.78601   L 65.534861,195.85274   L 65.068184,195.18612   L 64.201497,194.91947   L 63.401478,195.25278   L 62.934801,195.9194   L 62.734796,197.51929   L 62.734796,209.78508   L 65.801534,209.78508  z "
     clip-path="url(#clipWmfPath1)"
     style="fill:none;stroke:#000000;stroke-width:0.06666822px;stroke-linecap:round;stroke-linejoin:round;stroke-miterlimit:4;stroke-dasharray:none;stroke-opacity:1;" />
  <path
     id="path108"
     d="  M 60.934754,209.78508   L 60.934754,197.78594   L 60.868086,196.78601   L 60.668081,195.85274   L 60.201404,195.18612   L 59.334717,194.91947   L 58.534698,195.25278   L 58.134689,195.9194   L 57.934684,197.51929   L 57.934684,209.78508   L 60.934754,209.78508  z "
     clip-path="url(#clipWmfPath1)"
     style="fill:#bfbfbf;fill-rule:nonzero;fill-opacity:1;stroke:none;" />
  <path
     id="path110"
     d="  M 60.934754,209.78508   L 60.934754,197.78594   L 60.868086,196.78601   L 60.668081,195.85274   L 60.201404,195.18612   L 59.334717,194.91947   L 58.534698,195.25278   L 58.134689,195.9194   L 57.934684,197.51929   L 57.934684,209.78508   L 60.934754,209.78508  z "
     clip-path="url(#clipWmfPath1)"
     style="fill:none;stroke:#000000;stroke-width:0.06666822px;stroke-linecap:round;stroke-linejoin:round;stroke-miterlimit:4;stroke-dasharray:none;stroke-opacity:1;" />
  <path
     id="path112"
     d="  M 56.134642,209.78508   L 56.134642,197.78594   L 56.067974,196.78601   L 55.867969,195.85274   L 55.401292,195.18612   L 54.534605,194.91947   L 53.734586,195.25278   L 53.267909,195.9194   L 53.067904,197.51929   L 53.067904,209.78508   L 56.134642,209.78508  z "
     clip-path="url(#clipWmfPath1)"
     style="fill:#bfbfbf;fill-rule:nonzero;fill-opacity:1;stroke:none;" />
  <path
     id="path114"
     d="  M 56.134642,209.78508   L 56.134642,197.78594   L 56.067974,196.78601   L 55.867969,195.85274   L 55.401292,195.18612   L 54.534605,194.91947   L 53.734586,195.25278   L 53.267909,195.9194   L 53.067904,197.51929   L 53.067904,209.78508   L 56.134642,209.78508  z "
     clip-path="url(#clipWmfPath1)"
     style="fill:none;stroke:#000000;stroke-width:0.06666822px;stroke-linecap:round;stroke-linejoin:round;stroke-miterlimit:4;stroke-dasharray:none;stroke-opacity:1;" />
  <path
     id="path116"
     d="  M 51.467867,209.78508   L 51.467867,197.78594   L 51.401198,196.78601   L 51.201194,195.85274   L 50.734516,195.18612   L 49.867829,194.91947   L 49.067811,195.25278   L 48.601133,195.9194   L 48.401128,197.51929   L 48.401128,209.78508   L 51.467867,209.78508  z "
     clip-path="url(#clipWmfPath1)"
     style="fill:#bfbfbf;fill-rule:nonzero;fill-opacity:1;stroke:none;" />
  <path
     id="path118"
     d="  M 51.467867,209.78508   L 51.467867,197.78594   L 51.401198,196.78601   L 51.201194,195.85274   L 50.734516,195.18612   L 49.867829,194.91947   L 49.067811,195.25278   L 48.601133,195.9194   L 48.401128,197.51929   L 48.401128,209.78508   L 51.467867,209.78508  z "
     clip-path="url(#clipWmfPath1)"
     style="fill:none;stroke:#000000;stroke-width:0.06666822px;stroke-linecap:round;stroke-linejoin:round;stroke-miterlimit:4;stroke-dasharray:none;stroke-opacity:1;" />
  <path
     id="path120"
     d="  M 46.867759,209.78508   L 46.867759,197.78594   L 46.801091,196.78601   L 46.601086,195.85274   L 46.134409,195.18612   L 45.267722,194.91947   L 44.467703,195.25278   L 44.067694,195.9194   L 43.867689,197.51929   L 43.867689,209.78508   L 46.867759,209.78508  z "
     clip-path="url(#clipWmfPath1)"
     style="fill:#bfbfbf;fill-rule:nonzero;fill-opacity:1;stroke:none;" />
  <path
     id="path122"
     d="  M 46.867759,209.78508   L 46.867759,197.78594   L 46.801091,196.78601   L 46.601086,195.85274   L 46.134409,195.18612   L 45.267722,194.91947   L 44.467703,195.25278   L 44.067694,195.9194   L 43.867689,197.51929   L 43.867689,209.78508   L 46.867759,209.78508  z "
     clip-path="url(#clipWmfPath1)"
     style="fill:none;stroke:#000000;stroke-width:0.06666822px;stroke-linecap:round;stroke-linejoin:round;stroke-miterlimit:4;stroke-dasharray:none;stroke-opacity:1;" />
  <path
     id="path124"
     d="  M 42.267652,209.78508   L 42.267652,197.78594   L 42.200984,196.78601   L 42.000979,195.85274   L 41.534302,195.18612   L 40.667615,194.91947   L 39.867596,195.25278   L 39.400919,195.9194   L 39.200914,197.51929   L 39.200914,209.78508   L 42.267652,209.78508  z "
     clip-path="url(#clipWmfPath1)"
     style="fill:#bfbfbf;fill-rule:nonzero;fill-opacity:1;stroke:none;" />
  <path
     id="path126"
     d="  M 42.267652,209.78508   L 42.267652,197.78594   L 42.200984,196.78601   L 42.000979,195.85274   L 41.534302,195.18612   L 40.667615,194.91947   L 39.867596,195.25278   L 39.400919,195.9194   L 39.200914,197.51929   L 39.200914,209.78508   L 42.267652,209.78508  z "
     clip-path="url(#clipWmfPath1)"
     style="fill:none;stroke:#000000;stroke-width:0.06666822px;stroke-linecap:round;stroke-linejoin:round;stroke-miterlimit:4;stroke-dasharray:none;stroke-opacity:1;" />
  <path
     id="path128"
     d="  M 37.600877,209.78508   L 37.600877,197.78594   L 37.334204,195.85274   L 36.867526,195.18612   L 36.667522,194.98614   L 36.067508,194.91947   L 35.267489,195.25278   L 34.86748,195.9194   L 34.667475,197.51929   L 34.667475,209.78508   L 37.600877,209.78508  z "
     clip-path="url(#clipWmfPath1)"
     style="fill:#bfbfbf;fill-rule:nonzero;fill-opacity:1;stroke:none;" />
  <path
     id="path130"
     d="  M 37.600877,209.78508   L 37.600877,197.78594   L 37.334204,195.85274   L 36.867526,195.18612   L 36.667522,194.98614   L 36.067508,194.91947   L 35.267489,195.25278   L 34.86748,195.9194   L 34.667475,197.51929   L 34.667475,209.78508   L 37.600877,209.78508  z "
     clip-path="url(#clipWmfPath1)"
     style="fill:none;stroke:#000000;stroke-width:0.06666822px;stroke-linecap:round;stroke-linejoin:round;stroke-miterlimit:4;stroke-dasharray:none;stroke-opacity:1;" />
  <path
     id="path132"
     d="  M 32.934101,209.78508   L 32.934101,197.78594   L 32.667428,195.85274   L 32.200751,195.18612   L 32.000746,194.98614   L 31.400732,194.91947   L 30.600713,195.25278   L 30.200704,195.9194   L 30.000699,197.51929   L 30.000699,209.78508   L 32.934101,209.78508  z "
     clip-path="url(#clipWmfPath1)"
     style="fill:#bfbfbf;fill-rule:nonzero;fill-opacity:1;stroke:none;" />
  <path
     id="path134"
     d="  M 32.934101,209.78508   L 32.934101,197.78594   L 32.667428,195.85274   L 32.200751,195.18612   L 32.000746,194.98614   L 31.400732,194.91947   L 30.600713,195.25278   L 30.200704,195.9194   L 30.000699,197.51929   L 30.000699,209.78508   L 32.934101,209.78508  z "
     clip-path="url(#clipWmfPath1)"
     style="fill:none;stroke:#000000;stroke-width:0.06666822px;stroke-linecap:round;stroke-linejoin:round;stroke-miterlimit:4;stroke-dasharray:none;stroke-opacity:1;" />
  <path
     id="path136"
     d="  M 28.133989,209.78508   L 28.133989,197.78594   L 28.067321,196.78601   L 27.867316,195.85274   L 27.400639,195.18612   L 26.533952,194.91947   L 25.733933,195.25278   L 25.333924,195.9194   L 25.133919,197.51929   L 25.133919,209.78508   L 28.133989,209.78508  z "
     clip-path="url(#clipWmfPath1)"
     style="fill:#bfbfbf;fill-rule:nonzero;fill-opacity:1;stroke:none;" />
  <path
     id="path138"
     d="  M 28.133989,209.78508   L 28.133989,197.78594   L 28.067321,196.78601   L 27.867316,195.85274   L 27.400639,195.18612   L 26.533952,194.91947   L 25.733933,195.25278   L 25.333924,195.9194   L 25.133919,197.51929   L 25.133919,209.78508   L 28.133989,209.78508  z "
     clip-path="url(#clipWmfPath1)"
     style="fill:none;stroke:#000000;stroke-width:0.06666822px;stroke-linecap:round;stroke-linejoin:round;stroke-miterlimit:4;stroke-dasharray:none;stroke-opacity:1;" />
  <path
     id="path140"
     d="  M 42.33432,60.529029   L 42.33432,61.59562   L 43.46768,61.728944   L 44.401035,62.062254   L 45.134386,62.662211   L 45.667731,63.528816   L 46.267745,66.195293   L 46.46775,70.061685   L 46.46775,103.25932   L 46.267745,107.12572   L 45.667731,109.72553   L 45.134386,110.59214   L 44.401035,111.19209   L 43.46768,111.5254   L 42.33432,111.65873   L 42.33432,112.79198   L 52.46789,112.79198   L 52.46789,111.65873   L 51.267862,111.5254   L 50.334507,111.19209   L 49.601156,110.59214   L 49.067811,109.72553   L 48.401128,107.12572   L 48.267792,103.25932   L 48.267792,70.061685   L 59.068044,112.79198   L 59.468053,112.79198   L 70.268305,67.995165   L 70.268305,103.25932   L 70.134968,106.52576   L 69.668291,109.19224   L 69.201613,110.25883   L 68.601599,110.99211   L 67.734913,111.45874   L 66.734889,111.65873   L 66.734889,112.79198   L 78.135155,112.79198   L 78.135155,111.65873   L 77.068463,111.5254   L 76.201777,111.12543   L 75.535094,110.39215   L 75.068417,109.45888   L 74.535071,106.85907   L 74.401735,103.25932   L 74.401735,67.995165   L 74.601739,64.928716   L 74.868412,63.795464   L 75.268421,62.928859   L 75.801767,62.328901   L 76.468449,61.92893   L 78.135155,61.59562   L 78.135155,60.529029   L 69.801627,60.529029   L 60.668081,99.792904   L 60.534745,100.12621   L 60.33474,99.726242   L 50.60118,60.529029   L 42.33432,60.529029  z "
     clip-path="url(#clipWmfPath1)"
     style="fill:#cccccc;fill-rule:nonzero;fill-opacity:1;stroke:none;" />
  <path
     id="path142"
     d="  M 143.93669,56.462652   L 81.868575,56.462652   L 113.00263,16.132186   L 143.93669,56.462652  z "
     clip-path="url(#clipWmfPath1)"
     style="fill:#cccccc;fill-rule:nonzero;fill-opacity:1;stroke:none;" />
  <path
     id="path144"
     d="  M 120.93615,18.33203   L 127.1363,22.865041   L 114.66934,39.997156   L 108.40253,35.397483   L 120.93615,18.33203  z "
     clip-path="url(#clipWmfPath1)"
     style="fill:#cccccc;fill-rule:nonzero;fill-opacity:1;stroke:none;" />
  <path
     id="path146"
     d="  M 41.400965,130.59071   L 41.400965,131.6573   L 42.267652,131.79063   L 42.934334,132.12394   L 44.001026,133.39051   L 44.534372,135.39037   L 44.734376,138.05685   L 44.734376,170.1879   L 44.534372,172.85438   L 44.001026,174.9209   L 42.934334,176.25413   L 42.267652,176.58744   L 41.400965,176.72077   L 41.400965,177.7207   L 52.46789,177.7207   L 52.46789,176.72077   L 51.601203,176.58744   L 50.934521,176.25413   L 49.867829,174.9209   L 49.334484,172.85438   L 49.134479,170.1879   L 49.134479,155.18896   L 61.401432,155.18896   L 61.401432,170.1879   L 61.201427,172.85438   L 60.601413,174.9209   L 59.534721,176.25413   L 58.801371,176.58744   L 57.934684,176.72077   L 57.934684,177.7207   L 69.134945,177.7207   L 69.134945,176.72077   L 68.268258,176.58744   L 67.534908,176.25413   L 66.934894,175.72084   L 66.468216,174.9209   L 65.934871,172.85438   L 65.734866,170.1879   L 65.734866,138.05685   L 65.934871,135.39037   L 66.468216,133.39051   L 67.534908,132.12394   L 68.268258,131.79063   L 69.134945,131.6573   L 69.134945,130.59071   L 57.934684,130.59071   L 57.934684,131.6573   L 59.534721,132.12394   L 60.601413,133.39051   L 61.201427,135.39037   L 61.401432,138.05685   L 61.401432,152.12252   L 49.134479,152.12252   L 49.134479,138.05685   L 49.334484,135.39037   L 49.867829,133.39051   L 50.934521,132.12394   L 51.601203,131.79063   L 52.46789,131.6573   L 52.46789,130.59071   L 41.400965,130.59071  z "
     clip-path="url(#clipWmfPath1)"
     style="fill:#cccccc;fill-rule:nonzero;fill-opacity:1;stroke:none;" />
  <path
     id="path148"
     d="  M 99.002308,130.59071   L 99.002308,131.6573   L 100.60235,131.99061   L 101.20236,132.39059   L 101.73571,132.99054   L 102.06905,133.85715   L 102.33572,134.92374   L 102.53572,137.85686   L 102.53572,159.98862   L 102.66906,164.25499   L 103.13574,167.98805   L 103.93576,171.25449   L 105.06912,173.92097   L 106.53582,176.05415   L 108.26919,177.58737   L 110.40257,178.52064   L 112.8693,178.85395   L 115.40269,178.52064   L 117.60274,177.52071   L 119.40278,175.92082   L 120.86948,173.78764   L 122.00284,171.0545   L 122.80286,167.85473   L 123.26954,164.12166   L 123.40288,159.98862   L 123.40288,137.85686   L 123.60288,135.12373   L 124.26956,133.19053   L 125.33626,132.05728   L 126.06961,131.72397   L 126.93629,131.6573   L 126.93629,130.59071   L 117.93608,130.59071   L 117.93608,131.6573   L 118.80277,131.72397   L 119.53612,132.05728   L 120.13613,132.52391   L 120.66948,133.19053   L 121.26949,135.12373   L 121.4695,137.85686   L 121.4695,159.05536   L 121.40283,162.25513   L 121.13616,165.25492   L 120.66948,168.05472   L 119.93613,170.45455   L 119.00277,172.4544   L 117.73608,173.98763   L 116.13604,174.98756   L 114.20266,175.32087   L 112.20262,175.05422   L 110.53591,174.18761   L 109.26921,172.85438   L 108.20252,171.0545   L 107.46917,168.85466   L 107.00249,166.25484   L 106.66915,163.25506   L 106.60249,159.98862   L 106.60249,137.85686   L 106.80249,134.92374   L 107.46917,132.99054   L 107.93585,132.39059   L 108.60253,131.99061   L 110.26924,131.6573   L 110.26924,130.59071   L 99.002308,130.59071  z "
     clip-path="url(#clipWmfPath1)"
     style="fill:#cccccc;fill-rule:nonzero;fill-opacity:1;stroke:none;" />
  <path
     id="path150"
     d="  M 144.73671,129.52412   L 143.87002,129.52412   L 143.73668,130.72404   L 143.40334,131.52398   L 142.80333,131.92395   L 142.13665,131.92395   L 140.1366,130.85736   L 138.46989,130.19074   L 137.73654,129.99076   L 136.40318,129.92409   L 135.00315,130.12408   L 133.73645,130.72404   L 132.53642,131.6573   L 131.5364,132.99054   L 130.66971,134.59043   L 130.00303,136.52363   L 129.60302,138.72347   L 129.46969,141.18996   L 129.60302,143.98976   L 130.0697,146.38959   L 130.73638,148.45611   L 131.5364,150.25598   L 132.60309,151.85587   L 133.73645,153.32243   L 136.20318,156.12223   L 138.26989,158.18875   L 140.33661,160.58858   L 141.20329,162.05514   L 141.86997,163.65503   L 142.33665,165.58823   L 142.46999,167.72141   L 142.40332,169.58794   L 142.13665,171.25449   L 141.66997,172.72105   L 141.06996,173.92097   L 140.40327,174.9209   L 139.53659,175.65418   L 138.53656,176.12081   L 137.46987,176.25413   L 135.86983,175.98749   L 134.4698,175.18754   L 133.26977,173.98763   L 132.20308,172.38774   L 130.53638,168.2547   L 129.33635,163.45504   L 128.40299,163.38838   L 129.53635,178.5873   L 130.40304,178.5873   L 130.66971,176.92075   L 131.00305,176.45412   L 131.5364,176.3208   L 132.73643,176.72077   L 133.93646,177.58737   L 135.53649,178.45398   L 136.53652,178.72062   L 137.73654,178.85395   L 139.33658,178.5873   L 140.86995,177.85402   L 142.40332,176.65411   L 143.73668,174.98756   L 144.80338,172.9877   L 145.73673,170.72119   L 146.27008,168.12138   L 146.47008,165.25492   L 146.27008,162.52178   L 145.67006,160.05529   L 144.87004,157.85544   L 143.73668,155.92225   L 141.20329,152.52249   L 138.60323,149.72269   L 136.73652,147.65617   L 134.86981,145.18968   L 134.06979,143.72311   L 133.46978,142.12323   L 133.06977,140.32336   L 132.93643,138.3235   L 133.26977,135.85701   L 134.13646,133.85715   L 134.66981,133.12387   L 135.33649,132.52391   L 136.06984,132.1906   L 136.80319,132.05728   L 138.40323,132.32392   L 139.80326,133.05721   L 141.06996,134.19046   L 142.20332,135.72368   L 143.13667,137.59022   L 143.80335,139.7234   L 144.27003,142.05657   L 144.47003,144.58972   L 145.47006,144.58972   L 144.73671,129.52412  z "
     clip-path="url(#clipWmfPath1)"
     style="fill:#cccccc;fill-rule:nonzero;fill-opacity:1;stroke:none;" />
  <path
     id="path152"
     d="  M 148.00345,130.59071   L 148.00345,131.6573   L 149.60349,131.99061   L 150.60351,132.99054   L 151.20353,134.85708   L 151.40353,137.52355   L 151.40353,170.85452   L 151.20353,173.52099   L 150.60351,175.38753   L 149.60349,176.38746   L 148.00345,176.72077   L 148.00345,177.7207   L 170.00396,177.7207   L 171.73734,165.92154   L 170.80398,165.92154   L 169.67062,169.32129   L 168.20392,172.18776   L 166.40388,174.18761   L 165.33719,174.78757   L 164.93718,174.9209   L 164.20383,175.05422   L 158.87037,175.32087   L 158.00368,175.32087   L 156.87032,175.18754   L 156.07031,174.65425   L 155.6703,173.58766   L 155.53696,171.78778   L 155.53696,154.45568   L 161.27043,154.45568   L 163.47048,154.58901   L 164.33716,154.92232   L 165.07052,155.45561   L 165.60386,156.32222   L 166.07054,157.58879   L 166.53722,161.45519   L 167.33723,161.45519   L 167.33723,144.52306   L 166.53722,144.52306   L 166.07054,148.32279   L 165.60386,149.58936   L 165.07052,150.38931   L 164.33716,150.98926   L 163.47048,151.25591   L 161.27043,151.4559   L 155.53696,151.4559   L 155.53696,134.19046   L 155.80363,133.19053   L 156.40365,132.79056   L 161.93711,132.79056   L 164.4705,133.05721   L 165.60386,133.45718   L 166.60388,134.1238   L 167.4039,135.12373   L 168.00392,136.52363   L 168.47059,138.3235   L 168.6706,140.72333   L 169.47062,140.72333   L 169.47062,130.59071   L 148.00345,130.59071  z "
     clip-path="url(#clipWmfPath1)"
     style="fill:#cccccc;fill-rule:nonzero;fill-opacity:1;stroke:none;" />
  <path
     id="path154"
     d="  M 78.668501,65.861983   L 78.668501,66.861912   L 80.268538,67.328546   L 81.401898,68.595122   L 82.06858,70.661642   L 82.268585,73.261457   L 82.268585,105.39251   L 82.06858,108.05898   L 81.401898,110.05884   L 80.268538,111.32542   L 79.535188,111.65873   L 78.668501,111.79205   L 78.668501,112.79198   L 90.402108,112.79198   L 90.402108,111.79205   L 89.468753,111.65873   L 88.735402,111.32542   L 88.135388,110.79212   L 87.602042,110.05884   L 87.002028,108.05898   L 86.802024,105.39251   L 86.802024,73.261457   L 87.002028,70.661642   L 87.602042,68.595122   L 88.135388,67.861841   L 88.735402,67.328546   L 89.468753,66.995236   L 90.402108,66.861912   L 90.402108,65.861983   L 78.668501,65.861983  z "
     clip-path="url(#clipWmfPath1)"
     style="fill:#cccccc;fill-rule:nonzero;fill-opacity:1;stroke:none;" />
  <path
     id="path156"
     d="  M 118.5361,104.39258   L 117.66941,103.32599   L 115.53603,106.19245   L 114.336,107.45903   L 113.0693,108.52562   L 111.73594,109.39222   L 110.40257,110.05884   L 109.00254,110.45881   L 107.60251,110.59214   L 106.26914,110.45881   L 105.00245,110.1255   L 103.86909,109.52555   L 102.8024,108.79226   L 101.86904,107.859   L 101.00235,106.72574   L 99.602322,103.99261   L 98.535631,100.85949   L 97.735612,97.259751   L 97.335603,93.526683   L 97.202266,89.593629   L 97.335603,85.593914   L 97.668944,81.727522   L 98.335626,77.994454   L 99.268981,74.594696   L 100.60235,71.728233   L 101.46903,70.528318   L 102.40239,69.528389   L 103.40241,68.661784   L 104.60244,68.061827   L 105.86913,67.661855   L 107.26917,67.528532   L 109.00254,67.795179   L 110.66925,68.595122   L 112.26928,69.795037   L 113.60265,71.394923   L 114.80268,73.394781   L 115.73603,75.661287   L 116.46938,78.19444   L 116.86939,80.860917   L 117.73608,80.860917   L 117.46941,65.06204   L 116.60272,65.06204   L 116.0027,66.261955   L 115.33602,67.061898   L 114.536,67.328546   L 113.53598,67.061898   L 110.33591,65.528674   L 108.73587,65.195364   L 106.93583,65.06204   L 103.86909,65.528674   L 102.46906,66.061969   L 101.06902,66.79525   L 99.802327,67.728517   L 98.535631,68.795108   L 96.335579,71.594909   L 94.535537,74.994667   L 93.135505,78.927721   L 92.268818,83.460732   L 92.002145,88.460376   L 92.268818,93.793331   L 93.002168,98.726313   L 93.535514,100.92616   L 94.202196,103.05934   L 95.93557,106.79241   L 96.935593,108.39229   L 98.068953,109.79219   L 99.268981,110.99211   L 100.60235,112.0587   L 102.06905,112.85864   L 103.60242,113.4586   L 105.20245,113.79191   L 106.93583,113.92523   L 108.6692,113.79191   L 110.33591,113.25861   L 111.86927,112.45867   L 113.33598,111.39208   L 114.73601,109.99218   L 116.0027,108.39229   L 118.5361,104.39258  z "
     clip-path="url(#clipWmfPath1)"
     style="fill:#cccccc;fill-rule:nonzero;fill-opacity:1;stroke:none;" />
  <path
     id="path158"
     d="  M 171.27066,65.72866   L 171.27066,62.928859   L 170.3373,62.928859   L 170.3373,62.662211   L 172.60402,62.662211   L 172.60402,62.928859   L 171.604,62.928859   L 171.604,65.72866   L 171.27066,65.72866  z "
     clip-path="url(#clipWmfPath1)"
     style="fill:#cccccc;fill-rule:nonzero;fill-opacity:1;stroke:none;" />
  <path
     id="path160"
     d="  M 172.80403,65.72866   L 172.80403,62.662211   L 173.47071,62.662211   L 174.13739,65.128702   L 174.80408,62.662211   L 175.40409,62.662211   L 175.40409,65.72866   L 175.07075,65.72866   L 175.07075,63.128844   L 174.20406,65.72866   L 174.00406,65.72866   L 173.20404,63.128844   L 173.20404,65.72866   L 172.80403,65.72866  z "
     clip-path="url(#clipWmfPath1)"
     style="fill:#cccccc;fill-rule:nonzero;fill-opacity:1;stroke:none;" />
  <path
     id="path162"
     d="  M 157.27033,59.5291   L 155.73696,59.662424   L 154.33693,59.995734   L 151.6702,61.462296   L 149.27015,63.728802   L 147.2701,66.79525   L 145.60339,70.59498   L 144.40337,74.994667   L 143.67002,79.92765   L 143.40334,85.393928   L 143.60335,91.193515   L 144.27003,96.593132   L 145.33672,101.45945   L 146.07007,103.59263   L 146.87009,105.65915   L 147.80345,107.45903   L 148.87014,109.05891   L 151.20353,111.65873   L 154.00359,113.25861   L 155.60363,113.72525   L 157.27033,113.85857   L 158.93704,113.72525   L 160.47041,113.25861   L 163.27047,111.65873   L 165.67053,109.05891   L 167.67058,105.65915   L 169.20394,101.45945   L 170.3373,96.593132   L 171.07066,91.193515   L 171.27066,85.393928   L 171.00399,79.92765   L 170.27064,74.994667   L 169.07061,70.59498   L 167.4039,66.79525   L 165.33719,63.728802   L 164.20383,62.462225   L 163.0038,61.462296   L 161.67044,60.595691   L 160.2704,59.995734   L 158.8037,59.662424   L 157.27033,59.5291   L 157.27033,62.195577   L 158.53703,62.328901   L 159.67039,62.728873   L 160.73708,63.32883   L 161.7371,64.195435   L 163.33714,66.528603   L 164.60384,69.528389   L 165.53719,73.061471   L 166.20387,76.927863   L 166.53722,81.127565   L 166.67055,85.393928   L 166.60388,89.726953   L 166.27054,94.12664   L 165.67053,98.393004   L 164.80384,102.39272   L 164.20383,104.19259   L 163.53715,105.85914   L 161.87044,108.59228   L 160.93709,109.59221   L 159.80373,110.32549   L 158.6037,110.85878   L 157.27033,110.99211   L 155.93697,110.85878   L 154.73694,110.32549   L 153.67025,109.59221   L 152.67023,108.59228   L 151.80354,107.3257   L 151.07019,105.85914   L 149.87016,102.39272   L 148.93681,98.393004   L 148.40346,94.12664   L 148.07012,89.726953   L 148.00345,85.393928   L 148.13679,81.127565   L 148.47013,76.927863   L 149.13681,73.061471   L 150.07017,69.528389   L 151.27019,66.528603   L 152.07021,65.262026   L 152.87023,64.195435   L 153.87025,63.32883   L 154.87028,62.728873   L 156.00364,62.328901   L 157.27033,62.195577   L 157.27033,59.5291  z "
     clip-path="url(#clipWmfPath1)"
     style="fill:#cccccc;fill-rule:evenodd;fill-opacity:1;stroke:none;" />
  <path
     id="path164"
     d="  M 123.80289,73.994738   L 123.80289,104.85921   L 123.66955,107.99232   L 123.20287,110.1255   L 122.73619,110.85878   L 122.06951,111.39208   L 121.20283,111.72539   L 120.06947,111.79205   L 120.06947,112.79198   L 131.86974,112.79198   L 131.86974,111.79205   L 130.73638,111.72539   L 129.80303,111.39208   L 129.13634,110.85878   L 128.66967,110.1255   L 128.20299,107.99232   L 128.06965,104.85921   L 128.06965,91.126854   L 130.66971,91.126854   L 141.00329,112.79198   L 147.80345,112.79198   L 147.80345,111.79205   L 147.0701,111.65873   L 146.33675,111.19209   L 144.93671,109.72553   L 143.60335,107.59235   L 142.33665,105.19252   L 135.06982,90.593558   L 136.46985,90.126925   L 137.86988,89.326982   L 139.20325,88.127067   L 140.40327,86.660504   L 141.46996,84.927294   L 142.26998,82.927437   L 142.73666,80.727593   L 142.93667,78.327764   L 142.66999,74.861343   L 141.93664,72.061543   L 140.73661,69.928361   L 139.26991,68.261813   L 137.53654,67.12856   L 135.66983,66.395279   L 133.66978,65.995307   L 131.7364,65.861983   L 120.06947,65.861983   L 120.06947,66.861912   L 121.20283,66.928574   L 122.06951,67.261884   L 122.73619,67.795179   L 123.20287,68.52846   L 123.66955,70.728304   L 123.80289,73.994738   L 128.06965,88.527038   L 128.06965,70.328332   L 128.26966,68.995094   L 128.73633,68.395137   L 129.46969,68.195151   L 130.40304,68.195151   L 130.93639,68.195151   L 132.46976,68.328475   L 133.86979,68.728446   L 135.13648,69.461727   L 136.13651,70.461656   L 137.00319,71.861557   L 137.60321,73.594767   L 138.00322,75.727949   L 138.13655,78.327764   L 137.86988,81.527536   L 137.2032,84.060689   L 136.13651,85.860561   L 134.80314,87.060476   L 133.26977,87.860419   L 131.5364,88.327053   L 128.06965,88.527038   L 123.80289,73.994738  z "
     clip-path="url(#clipWmfPath1)"
     style="fill:#cccccc;fill-rule:evenodd;fill-opacity:1;stroke:none;" />
  <path
     id="path166"
     d="  M 84.068627,129.85743   L 81.201893,130.32407   L 78.601833,131.59064   L 76.268445,133.5905   L 74.335066,136.3903   L 72.735029,139.7234   L 71.535001,143.72311   L 70.801651,148.18946   L 70.534978,153.12245   L 70.734982,158.38874   L 71.401665,163.1884   L 72.468356,167.58808   L 74.001725,171.38781   L 74.868412,173.05436   L 75.868435,174.52092   L 77.001795,175.7875   L 78.201823,176.85409   L 79.535188,177.7207   L 80.93522,178.32065   L 82.468589,178.72062   L 84.068627,178.85395   L 85.668664,178.72062   L 87.135365,178.32065   L 88.535397,177.7207   L 89.802094,176.85409   L 91.002122,175.7875   L 92.135481,174.52092   L 93.135505,173.05436   L 94.002192,171.38781   L 95.535561,167.58808   L 96.602252,163.1884   L 97.268934,158.38874   L 97.468939,153.12245   L 97.202266,148.18946   L 96.468916,143.72311   L 95.335556,139.7234   L 93.735519,136.3903   L 91.80214,133.5905   L 89.535421,131.59064   L 88.268725,130.85736   L 86.93536,130.32407   L 84.068627,129.85743   L 84.068627,132.12394   L 85.268655,132.25726   L 86.402014,132.59057   L 87.402038,133.19053   L 88.268725,133.92381   L 89.868762,135.99033   L 91.06879,138.72347   L 92.002145,141.92324   L 92.602159,145.45632   L 92.9355,149.18939   L 93.068836,153.05578   L 92.668827,160.92189   L 92.135481,164.78828   L 91.868809,166.18818   L 91.268795,168.38803   L 90.068767,171.45447   L 88.535397,173.92097   L 86.535351,175.52085   L 85.335323,175.98749   L 84.068627,176.12081   L 82.735262,175.98749   L 81.601902,175.52085   L 79.535188,173.92097   L 77.93515,171.45447   L 76.735122,168.38803   L 75.868435,164.78828   L 75.33509,160.92189   L 75.001749,156.92217   L 74.93508,153.05578   L 75.068417,149.18939   L 75.401758,145.45632   L 76.001772,141.92324   L 76.935127,138.72347   L 78.135155,135.99033   L 78.868505,134.92374   L 79.735192,133.92381   L 80.668547,133.19053   L 81.668571,132.59057   L 82.80193,132.25726   L 84.068627,132.12394   L 84.068627,129.85743  z "
     clip-path="url(#clipWmfPath1)"
     style="fill:#cccccc;fill-rule:evenodd;fill-opacity:1;stroke:none;" />
  <path
     id="path168"
     d="  M 39.800928,123.2579   L 39.800928,121.92466   L 173.53738,121.92466   L 173.53738,123.2579   L 39.800928,123.2579  z "
     clip-path="url(#clipWmfPath1)"
     style="fill:#cccccc;fill-rule:evenodd;fill-opacity:1;stroke:none;" />
  <path
     id="path170"
     d="  M 40.400942,16.732144   L 40.400942,31.13112   L 16.933728,31.13112   L 16.933728,16.732144   L 40.400942,16.732144  z "
     clip-path="url(#clipWmfPath1)"
     style="fill:#bfbfbf;fill-rule:nonzero;fill-opacity:1;stroke:none;" />
  <path
     id="path172"
     d="  M 40.400942,16.732144   L 40.400942,31.13112   L 16.933728,31.13112   L 16.933728,16.732144   L 40.400942,16.732144  z "
     clip-path="url(#clipWmfPath1)"
     style="fill:none;stroke:#000000;stroke-width:0.06666822px;stroke-linecap:round;stroke-linejoin:round;stroke-miterlimit:4;stroke-dasharray:none;stroke-opacity:1;" />
  <path
     id="path174"
     d="  M 29.934031,19.465283   L 29.934031,27.398052   L 25.86727,27.398052   L 25.86727,19.465283   L 29.934031,19.465283  z "
     clip-path="url(#clipWmfPath1)"
     style="fill:#000000;fill-rule:nonzero;fill-opacity:1;stroke:none;" />
  <path
     id="path176"
     d="  M 29.934031,19.465283   L 29.934031,27.398052   L 25.86727,27.398052   L 25.86727,19.465283   L 29.934031,19.465283  z "
     clip-path="url(#clipWmfPath1)"
     style="fill:none;stroke:#000000;stroke-width:0.06666822px;stroke-linecap:round;stroke-linejoin:round;stroke-miterlimit:4;stroke-dasharray:none;stroke-opacity:1;" />
  <path
     id="path178"
     d="  M 23.267209,19.465283   L 23.267209,27.398052   L 19.200448,27.398052   L 19.200448,19.465283   L 23.267209,19.465283  z "
     clip-path="url(#clipWmfPath1)"
     style="fill:#000000;fill-rule:nonzero;fill-opacity:1;stroke:none;" />
  <path
     id="path180"
     d="  M 23.267209,19.465283   L 23.267209,27.398052   L 19.200448,27.398052   L 19.200448,19.465283   L 23.267209,19.465283  z "
     clip-path="url(#clipWmfPath1)"
     style="fill:none;stroke:#000000;stroke-width:0.06666822px;stroke-linecap:round;stroke-linejoin:round;stroke-miterlimit:4;stroke-dasharray:none;stroke-opacity:1;" />
  <path
     id="path182"
     d="  M 36.667522,19.465283   L 36.667522,27.398052   L 32.60076,27.398052   L 32.60076,19.465283   L 36.667522,19.465283  z "
     clip-path="url(#clipWmfPath1)"
     style="fill:#ffffff;fill-rule:nonzero;fill-opacity:1;stroke:none;" />
  <path
     id="path184"
     d="  M 36.667522,19.465283   L 36.667522,27.398052   L 32.60076,27.398052   L 32.60076,19.465283   L 36.667522,19.465283  z "
     clip-path="url(#clipWmfPath1)"
     style="fill:none;stroke:#000000;stroke-width:0.06666822px;stroke-linecap:round;stroke-linejoin:round;stroke-miterlimit:4;stroke-dasharray:none;stroke-opacity:1;" />
  <path
     id="path186"
     d="  M 38.400895,30.79781   L 37.734213,30.664486   L 37.134199,30.331177   L 36.800858,29.731219   L 36.667522,29.0646   L 36.800858,28.397981   L 37.134199,27.864685   L 37.734213,27.531376   L 38.400895,27.398052   L 39.067577,27.531376   L 39.600923,27.864685   L 39.934264,28.397981   L 40.067601,29.0646   L 39.934264,29.731219   L 39.600923,30.331177   L 39.067577,30.664486   L 38.400895,30.79781  z "
     clip-path="url(#clipWmfPath1)"
     style="fill:#ffffff;fill-rule:nonzero;fill-opacity:1;stroke:none;" />
  <path
     id="path188"
     d="  M 38.400895,30.79781   L 37.734213,30.664486   L 37.134199,30.331177   L 36.800858,29.731219   L 36.667522,29.0646   L 36.800858,28.397981   L 37.134199,27.864685   L 37.734213,27.531376   L 38.400895,27.398052   L 39.067577,27.531376   L 39.600923,27.864685   L 39.934264,28.397981   L 40.067601,29.0646   L 39.934264,29.731219   L 39.600923,30.331177   L 39.067577,30.664486   L 38.400895,30.79781  z "
     clip-path="url(#clipWmfPath1)"
     style="fill:none;stroke:#000000;stroke-width:0.06666822px;stroke-linecap:round;stroke-linejoin:round;stroke-miterlimit:4;stroke-dasharray:none;stroke-opacity:1;" />
  <path
     id="path190"
     d="  M 57.201334,51.463007   L 58.201357,51.329683   L 59.001376,50.86305   L 59.60139,50.196431   L 59.801394,49.463149   L 59.801394,39.997156   L 59.60139,39.263875   L 59.001376,38.730579   L 58.201357,38.330608   L 57.201334,38.197284   L 36.467517,38.197284   L 35.000816,37.264017   L 32.334087,35.264159   L 29.734027,33.330963   L 28.400662,32.597682   L 29.067344,33.864259   L 30.934055,36.397412   L 32.934101,38.997227   L 33.867456,40.397127   L 33.867456,49.796459   L 34.067461,50.52974   L 34.667475,51.063036   L 35.467494,51.329683   L 36.467517,51.463007   L 57.201334,51.463007  z "
     clip-path="url(#clipWmfPath1)"
     style="fill:#ffffff;fill-rule:nonzero;fill-opacity:1;stroke:none;" />
  <path
     id="path192"
     d="  M 36.467517,50.929712   L 36.467517,51.996303   L 57.201334,51.996303   L 57.268002,51.996303   L 58.268025,51.862979   L 58.46803,51.796317   L 59.268048,51.329683   L 59.401385,51.19636   L 60.001399,50.52974   L 60.068067,50.329755   L 60.268072,49.596473   L 60.33474,49.463149   L 60.33474,39.997156   L 60.268072,39.863832   L 60.068067,39.130551   L 59.934731,38.863903   L 59.334717,38.330608   L 59.20138,38.263946   L 58.401362,37.863974   L 58.268025,37.797312   L 57.268002,37.663988   L 57.201334,37.663988   L 36.600853,37.663988   L 35.267489,36.864045   L 32.667428,34.864188   L 32.667428,34.864188   L 30.067368,32.930992   L 30.000699,32.86433   L 28.667335,32.131049   L 27.933985,32.86433   L 28.600667,34.130906   L 28.667335,34.197568   L 30.534045,36.730722   L 30.534045,36.730722   L 32.534092,39.263875   L 33.33411,40.530451   L 33.33411,49.796459   L 33.400779,49.929783   L 33.600783,50.663064   L 33.73412,50.929712   L 34.334134,51.463007   L 34.534138,51.529669   L 35.334157,51.796317   L 35.400825,51.862979   L 36.400849,51.996303   L 36.467517,51.996303   L 57.201334,51.996303   L 57.268002,51.996303   L 58.268025,51.862979   L 58.134689,50.796388   L 57.134665,50.929712   L 36.534185,50.929712   L 35.60083,50.86305   L 34.934148,50.596402   L 34.534138,50.263093   L 34.400802,49.729797   L 34.400802,40.397127   L 34.267466,40.13048   L 33.33411,38.730579   L 33.33411,38.663917   L 31.334064,36.064102   L 29.467354,33.597611   L 28.86734,32.331034   L 28.667335,32.131049   L 28.133989,33.064316   L 29.467354,33.730935   L 32.000746,35.664131   L 32.000746,35.664131   L 34.667475,37.663988   L 34.734143,37.663988   L 36.200844,38.597255   L 36.467517,38.730579   L 57.134665,38.730579   L 58.06802,38.797241   L 58.734703,39.130551   L 59.134712,39.530522   L 59.268048,40.063818   L 59.268048,49.396488   L 59.134712,49.929783   L 58.668034,50.463078   L 58.001352,50.86305   L 57.134665,50.929712   L 36.467517,50.929712  z "
     clip-path="url(#clipWmfPath1)"
     style="fill:#000000;fill-rule:nonzero;fill-opacity:1;stroke:#000000;stroke-width:0.06666822px;stroke-linecap:round;stroke-linejoin:round;stroke-miterlimit:4;stroke-dasharray:none;stroke-opacity:1;" />
  <g
     id="g194"
     clip-path="url(#clipWmfPath1)" />
  <g
     id="g206"
     clip-path="url(#clipWmfPath1)">
    <text
       id="text204"
       y="10.185188"
       x="0.000000"
       transform="matrix(1.000000,-0.000000,0.000000,1.000000,36.000839,38.997227)"
       style="font-size:10.687500px;font-style:normal;font-variant:normal;font-weight:400;font-stretch:Condensed;line-height:125.000000%;letter-spacing:0px;word-spacing:0px;fill:#000000;fill-opacity:1;stroke:none;font-family:Helvetica-Narrow;text-align:start;text-anchor:start;"
       xml:space="preserve"><tspan
         id="tspan202"
         y="10.185188"
         x="0.000000"><tspan
           id="tspan196"
           style="fill:#000000;font-size:10.687500px;font-style:normal;font-variant:normal;font-weight:400;font-stretch:Condensed;font-family:Helvetica-Narrow;"
           dy="0.000000"
           dx="0.000000">S</tspan><tspan
           id="tspan198"
           style="fill:#000000;font-size:10.687500px;font-style:normal;font-variant:normal;font-weight:400;font-stretch:Condensed;font-family:Helvetica-Narrow;"
           dy="0.000000"
           dx="-0.195068">W</tspan><tspan
           id="tspan200"
           style="fill:#000000;font-size:10.687500px;font-style:normal;font-variant:normal;font-weight:400;font-stretch:Condensed;font-family:Helvetica-Narrow;"
           dy="0.000000"
           dx="0.071611">3</tspan></tspan></text>
  </g>
  <g
     id="g208"
     clip-path="url(#clipWmfPath1)" />
  <g
     id="g252"
     clip-path="url(#clipWmfPath1)">
    <text
       id="text218"
       y="8.930687"
       x="0.000000"
       transform="matrix(1.000000,-0.000000,0.000000,1.000000,121.202826,7.266150)"
       style="font-size:9.312500px;font-style:normal;font-variant:normal;font-weight:400;font-stretch:Condensed;line-height:125.000000%;letter-spacing:0px;word-spacing:0px;fill:#000000;fill-opacity:1;stroke:none;font-family:Helvetica-Narrow;text-align:start;text-anchor:start;"
       xml:space="preserve"><tspan
         id="tspan216"
         y="8.930687"
         x="0.000000"><tspan
           id="tspan210"
           style="fill:#000000;font-size:9.312500px;font-style:normal;font-variant:normal;font-weight:400;font-stretch:Condensed;font-family:Helvetica-Narrow;"
           dy="0.000000"
           dx="0.000000">I</tspan><tspan
           id="tspan212"
           style="fill:#000000;font-size:9.312500px;font-style:normal;font-variant:normal;font-weight:400;font-stretch:Condensed;font-family:Helvetica-Narrow;"
           dy="0.000000"
           dx="0.306754">/</tspan><tspan
           id="tspan214"
           style="fill:#000000;font-size:9.312500px;font-style:normal;font-variant:normal;font-weight:400;font-stretch:Condensed;font-family:Helvetica-Narrow;"
           dy="0.000000"
           dx="0.306754">O</tspan></tspan></text>
    <text
       id="text236"
       y="8.930687"
       x="18.533765"
       transform="matrix(1.000000,-0.000000,0.000000,1.000000,121.202826,7.266150)"
       style="font-size:9.312500px;font-style:normal;font-variant:normal;font-weight:400;font-stretch:Condensed;line-height:125.000000%;letter-spacing:0px;word-spacing:0px;fill:#000000;fill-opacity:1;stroke:none;font-family:Helvetica-Narrow;text-align:start;text-anchor:start;"
       xml:space="preserve"><tspan
         id="tspan234"
         y="8.930687"
         x="18.533765"><tspan
           id="tspan220"
           style="fill:#000000;font-size:9.312500px;font-style:normal;font-variant:normal;font-weight:400;font-stretch:Condensed;font-family:Helvetica-Narrow;"
           dy="0.000000"
           dx="0.000000">A</tspan><tspan
           id="tspan222"
           style="fill:#000000;font-size:9.312500px;font-style:normal;font-variant:normal;font-weight:400;font-stretch:Condensed;font-family:Helvetica-Narrow;"
           dy="0.000000"
           dx="0.202800">d</tspan><tspan
           id="tspan224"
           style="fill:#000000;font-size:9.312500px;font-style:normal;font-variant:normal;font-weight:400;font-stretch:Condensed;font-family:Helvetica-Narrow;"
           dy="0.000000"
           dx="0.050215">a</tspan><tspan
           id="tspan226"
           style="fill:#000000;font-size:9.312500px;font-style:normal;font-variant:normal;font-weight:400;font-stretch:Condensed;font-family:Helvetica-Narrow;"
           dy="0.000000"
           dx="0.050215">p</tspan><tspan
           id="tspan228"
           style="fill:#000000;font-size:9.312500px;font-style:normal;font-variant:normal;font-weight:400;font-stretch:Condensed;font-family:Helvetica-Narrow;"
           dy="0.000000"
           dx="0.050215">t</tspan><tspan
           id="tspan230"
           style="fill:#000000;font-size:9.312500px;font-style:normal;font-variant:normal;font-weight:400;font-stretch:Condensed;font-family:Helvetica-Narrow;"
           dy="0.000000"
           dx="0.306754">e</tspan><tspan
           id="tspan232"
           style="fill:#000000;font-size:9.312500px;font-style:normal;font-variant:normal;font-weight:400;font-stretch:Condensed;font-family:Helvetica-Narrow;"
           dy="0.000000"
           dx="0.050215">r</tspan></tspan></text>
    <text
       id="text250"
       y="8.930687"
       x="57.734679"
       transform="matrix(1.000000,-0.000000,0.000000,1.000000,121.202826,7.266150)"
       style="font-size:9.312500px;font-style:normal;font-variant:normal;font-weight:400;font-stretch:Condensed;line-height:125.000000%;letter-spacing:0px;word-spacing:0px;fill:#000000;fill-opacity:1;stroke:none;font-family:Helvetica-Narrow;text-align:start;text-anchor:start;"
       xml:space="preserve"><tspan
         id="tspan248"
         y="8.930687"
         x="57.734679"><tspan
           id="tspan238"
           style="fill:#000000;font-size:9.312500px;font-style:normal;font-variant:normal;font-weight:400;font-stretch:Condensed;font-family:Helvetica-Narrow;"
           dy="0.000000"
           dx="0.000000">B</tspan><tspan
           id="tspan240"
           style="fill:#000000;font-size:9.312500px;font-style:normal;font-variant:normal;font-weight:400;font-stretch:Condensed;font-family:Helvetica-Narrow;"
           dy="0.000000"
           dx="0.202800">o</tspan><tspan
           id="tspan242"
           style="fill:#000000;font-size:9.312500px;font-style:normal;font-variant:normal;font-weight:400;font-stretch:Condensed;font-family:Helvetica-Narrow;"
           dy="0.000000"
           dx="0.050215">a</tspan><tspan
           id="tspan244"
           style="fill:#000000;font-size:9.312500px;font-style:normal;font-variant:normal;font-weight:400;font-stretch:Condensed;font-family:Helvetica-Narrow;"
           dy="0.000000"
           dx="0.050215">r</tspan><tspan
           id="tspan246"
           style="fill:#000000;font-size:9.312500px;font-style:normal;font-variant:normal;font-weight:400;font-stretch:Condensed;font-family:Helvetica-Narrow;"
           dy="0.000000"
           dx="0.154365">d</tspan></tspan></text>
  </g>
  <g
     id="g254"
     clip-path="url(#clipWmfPath1)" />
  <g
     id="g272"
     clip-path="url(#clipWmfPath1)">
    <text
       id="text270"
       y="8.930687"
       x="0.000000"
       transform="matrix(1.000000,-0.000000,0.000000,1.000000,170.603977,180.787145)"
       style="font-size:9.312500px;font-style:normal;font-variant:normal;font-weight:400;font-stretch:Condensed;line-height:125.000000%;letter-spacing:0px;word-spacing:0px;fill:#000000;fill-opacity:1;stroke:none;font-family:Helvetica-Narrow;text-align:start;text-anchor:start;"
       xml:space="preserve"><tspan
         id="tspan268"
         y="8.930687"
         x="0.000000"><tspan
           id="tspan256"
           style="fill:#000000;font-size:9.312500px;font-style:normal;font-variant:normal;font-weight:400;font-stretch:Condensed;font-family:Helvetica-Narrow;"
           dy="0.000000"
           dx="0.000000">M</tspan><tspan
           id="tspan258"
           style="fill:#000000;font-size:9.312500px;font-style:normal;font-variant:normal;font-weight:400;font-stretch:Condensed;font-family:Helvetica-Narrow;"
           dy="0.000000"
           dx="0.202997">H</tspan><tspan
           id="tspan260"
           style="fill:#000000;font-size:9.312500px;font-style:normal;font-variant:normal;font-weight:400;font-stretch:Condensed;font-family:Helvetica-Narrow;"
           dy="0.000000"
           dx="0.117079">0</tspan><tspan
           id="tspan262"
           style="fill:#000000;font-size:9.312500px;font-style:normal;font-variant:normal;font-weight:400;font-stretch:Condensed;font-family:Helvetica-Narrow;"
           dy="0.000000"
           dx="0.050215">8</tspan><tspan
           id="tspan264"
           style="fill:#000000;font-size:9.312500px;font-style:normal;font-variant:normal;font-weight:400;font-stretch:Condensed;font-family:Helvetica-Narrow;"
           dy="0.000000"
           dx="0.050215">9</tspan><tspan
           id="tspan266"
           style="fill:#000000;font-size:9.312500px;font-style:normal;font-variant:normal;font-weight:400;font-stretch:Condensed;font-family:Helvetica-Narrow;"
           dy="0.000000"
           dx="0.050215">2</tspan></tspan></text>
  </g>
</svg>
