<svg xmlns:dc="http://purl.org/dc/elements/1.1/" xmlns:cc="http://creativecommons.org/ns#" xmlns:rdf="http://www.w3.org/1999/02/22-rdf-syntax-ns#" xmlns:svg="http://www.w3.org/2000/svg" xmlns="http://www.w3.org/2000/svg" id="svg274" height="60.559999mm" width="65.54mm" version="1.0">
  <metadata id="metadata278">
    <rdf:RDF>
      <cc:Work rdf:about="">
        <dc:format>image/svg+xml</dc:format>
        <dc:type rdf:resource="http://purl.org/dc/dcmitype/StillImage"/>
      </cc:Work>
    </rdf:RDF>
  </metadata>
  <defs id="defs6">
    <clipPath id="clipWmfPath1" clipPathUnits="userSpaceOnUse">
      <path id="path2" d="M 0,0 L 247.60577,0 L 247.60577,228.78373 L 0,228.78373 z"/>
    </clipPath>
    <pattern y="0" x="0" height="6" width="6" patternUnits="userSpaceOnUse" id="WMFhbasepattern"/>
  </defs>
  <path id="path8" d="  M 206.80482,192.58631   L 172.73736,192.58631   L 172.73736,210.18505   L 19.86713,210.18505   L 19.86713,192.65297   L 6.0001399,192.65297   L 6.0001399,5.9995734   L 206.80482,5.9995734   L 206.80482,192.58631  z " clip-path="url(#clipWmfPath1)" style="fill:#e5e5e5;fill-rule:nonzero;fill-opacity:1;stroke:none;"/>
  <path id="path10" d="  M 207.33817,5.9995734   L 206.27148,5.9995734   L 206.27148,192.05301   L 172.20401,192.05301   L 172.20401,209.65176   L 20.400476,209.65176   L 20.400476,192.11967   L 6.5334857,192.11967   L 6.5334857,6.5328688   L 206.27148,6.5328688   L 206.27148,192.05301   L 172.73736,192.05301   L 172.73736,193.1196   L 207.33817,193.1196   L 207.33817,5.466278   L 5.4667941,5.466278   L 5.4667941,193.18626   L 19.333784,193.18626   L 19.333784,210.71835   L 173.27071,210.71835   L 173.27071,193.1196   L 207.33817,193.1196   L 207.33817,5.9995734  z " clip-path="url(#clipWmfPath1)" style="fill:#000000;fill-rule:nonzero;fill-opacity:1;stroke:#000000;stroke-width:0.06666822px;stroke-linecap:round;stroke-linejoin:round;stroke-miterlimit:4;stroke-dasharray:none;stroke-opacity:1;"/>
  <path id="path12" d="  M 212.60496,15.198919   L 241.60563,15.198919   L 241.60563,19.265297   L 216.20504,19.265297   L 216.20504,222.78416   L 212.60496,222.78416   L 212.60496,15.198919  z " clip-path="url(#clipWmfPath1)" style="fill:#ffffff;fill-rule:nonzero;fill-opacity:1;stroke:none;"/>
  <path id="path14" d="  M 212.07161,222.78416   L 213.1383,222.78416   L 213.1383,15.732215   L 241.07229,15.732215   L 241.07229,18.732001   L 215.67169,18.732001   L 215.67169,222.25086   L 213.1383,222.25086   L 213.1383,15.732215   L 241.60563,15.732215   L 241.60563,14.665624   L 212.07161,14.665624   L 212.07161,223.31745   L 216.73839,223.31745   L 216.73839,19.798592   L 242.13898,19.798592   L 242.13898,14.665624   L 212.07161,14.665624   L 212.07161,222.78416  z " clip-path="url(#clipWmfPath1)" style="fill:#000000;fill-rule:nonzero;fill-opacity:1;stroke:#000000;stroke-width:0.06666822px;stroke-linecap:round;stroke-linejoin:round;stroke-miterlimit:4;stroke-dasharray:none;stroke-opacity:1;"/>
  <path id="path16" d="  M 170.1373,209.78508   L 170.1373,197.78594   L 170.07063,196.78601   L 169.87063,195.85274   L 169.40395,195.18612   L 168.53726,194.91947   L 167.73724,195.25278   L 167.33723,195.9194   L 167.13723,197.51929   L 167.13723,209.78508   L 170.1373,209.78508  z " clip-path="url(#clipWmfPath1)" style="fill:#bfbfbf;fill-rule:nonzero;fill-opacity:1;stroke:none;"/>
  <path id="path18" d="  M 170.1373,209.78508   L 170.1373,197.78594   L 170.07063,196.78601   L 169.87063,195.85274   L 169.40395,195.18612   L 168.53726,194.91947   L 167.73724,195.25278   L 167.33723,195.9194   L 167.13723,197.51929   L 167.13723,209.78508   L 170.1373,209.78508  z " clip-path="url(#clipWmfPath1)" style="fill:none;stroke:#000000;stroke-width:0.06666822px;stroke-linecap:round;stroke-linejoin:round;stroke-miterlimit:4;stroke-dasharray:none;stroke-opacity:1;"/>
  <path id="path20" d="  M 165.40386,209.78508   L 165.40386,197.78594   L 165.33719,196.78601   L 165.13718,195.85274   L 164.67051,195.18612   L 163.80382,194.91947   L 163.0038,195.25278   L 162.60379,195.9194   L 162.40379,197.51929   L 162.40379,209.78508   L 165.40386,209.78508  z " clip-path="url(#clipWmfPath1)" style="fill:#bfbfbf;fill-rule:nonzero;fill-opacity:1;stroke:none;"/>
  <path id="path22" d="  M 165.40386,209.78508   L 165.40386,197.78594   L 165.33719,196.78601   L 165.13718,195.85274   L 164.67051,195.18612   L 163.80382,194.91947   L 163.0038,195.25278   L 162.60379,195.9194   L 162.40379,197.51929   L 162.40379,209.78508   L 165.40386,209.78508  z " clip-path="url(#clipWmfPath1)" style="fill:none;stroke:#000000;stroke-width:0.06666822px;stroke-linecap:round;stroke-linejoin:round;stroke-miterlimit:4;stroke-dasharray:none;stroke-opacity:1;"/>
  <path id="path24" d="  M 160.73708,209.78508   L 160.73708,197.78594   L 160.47041,195.85274   L 160.00373,195.18612   L 159.80373,194.98614   L 159.20371,194.91947   L 158.40369,195.25278   L 157.93702,195.9194   L 157.73701,197.51929   L 157.73701,209.78508   L 160.73708,209.78508  z " clip-path="url(#clipWmfPath1)" style="fill:#bfbfbf;fill-rule:nonzero;fill-opacity:1;stroke:none;"/>
  <path id="path26" d="  M 160.73708,209.78508   L 160.73708,197.78594   L 160.47041,195.85274   L 160.00373,195.18612   L 159.80373,194.98614   L 159.20371,194.91947   L 158.40369,195.25278   L 157.93702,195.9194   L 157.73701,197.51929   L 157.73701,209.78508   L 160.73708,209.78508  z " clip-path="url(#clipWmfPath1)" style="fill:none;stroke:#000000;stroke-width:0.06666822px;stroke-linecap:round;stroke-linejoin:round;stroke-miterlimit:4;stroke-dasharray:none;stroke-opacity:1;"/>
  <path id="path28" d="  M 156.07031,209.78508   L 156.07031,197.78594   L 155.80363,195.85274   L 155.33695,195.18612   L 155.13695,194.98614   L 154.53694,194.91947   L 153.73692,195.25278   L 153.33691,195.9194   L 153.1369,197.51929   L 153.1369,209.78508   L 156.07031,209.78508  z " clip-path="url(#clipWmfPath1)" style="fill:#bfbfbf;fill-rule:nonzero;fill-opacity:1;stroke:none;"/>
  <path id="path30" d="  M 156.07031,209.78508   L 156.07031,197.78594   L 155.80363,195.85274   L 155.33695,195.18612   L 155.13695,194.98614   L 154.53694,194.91947   L 153.73692,195.25278   L 153.33691,195.9194   L 153.1369,197.51929   L 153.1369,209.78508   L 156.07031,209.78508  z " clip-path="url(#clipWmfPath1)" style="fill:none;stroke:#000000;stroke-width:0.06666822px;stroke-linecap:round;stroke-linejoin:round;stroke-miterlimit:4;stroke-dasharray:none;stroke-opacity:1;"/>
  <path id="path32" d="  M 151.53687,209.78508   L 151.53687,197.78594   L 151.4702,196.78601   L 151.27019,195.85274   L 150.80352,195.18612   L 149.93683,194.91947   L 149.13681,195.25278   L 148.67013,195.9194   L 148.47013,197.51929   L 148.47013,209.78508   L 151.53687,209.78508  z " clip-path="url(#clipWmfPath1)" style="fill:#bfbfbf;fill-rule:nonzero;fill-opacity:1;stroke:none;"/>
  <path id="path34" d="  M 151.53687,209.78508   L 151.53687,197.78594   L 151.4702,196.78601   L 151.27019,195.85274   L 150.80352,195.18612   L 149.93683,194.91947   L 149.13681,195.25278   L 148.67013,195.9194   L 148.47013,197.51929   L 148.47013,209.78508   L 151.53687,209.78508  z " clip-path="url(#clipWmfPath1)" style="fill:none;stroke:#000000;stroke-width:0.06666822px;stroke-linecap:round;stroke-linejoin:round;stroke-miterlimit:4;stroke-dasharray:none;stroke-opacity:1;"/>
  <path id="path36" d="  M 146.73675,209.78508   L 146.73675,197.78594   L 146.67009,196.78601   L 146.47008,195.85274   L 146.0034,195.18612   L 145.13672,194.91947   L 144.3367,195.25278   L 143.93669,195.9194   L 143.73668,197.51929   L 143.73668,209.78508   L 146.73675,209.78508  z " clip-path="url(#clipWmfPath1)" style="fill:#bfbfbf;fill-rule:nonzero;fill-opacity:1;stroke:none;"/>
  <path id="path38" d="  M 146.73675,209.78508   L 146.73675,197.78594   L 146.67009,196.78601   L 146.47008,195.85274   L 146.0034,195.18612   L 145.13672,194.91947   L 144.3367,195.25278   L 143.93669,195.9194   L 143.73668,197.51929   L 143.73668,209.78508   L 146.73675,209.78508  z " clip-path="url(#clipWmfPath1)" style="fill:none;stroke:#000000;stroke-width:0.06666822px;stroke-linecap:round;stroke-linejoin:round;stroke-miterlimit:4;stroke-dasharray:none;stroke-opacity:1;"/>
  <path id="path40" d="  M 141.86997,209.78508   L 141.86997,197.78594   L 141.80331,196.78601   L 141.6033,195.85274   L 141.13662,195.18612   L 140.26994,194.91947   L 139.46992,195.25278   L 139.00324,195.9194   L 138.80324,197.51929   L 138.80324,209.78508   L 141.86997,209.78508  z " clip-path="url(#clipWmfPath1)" style="fill:#bfbfbf;fill-rule:nonzero;fill-opacity:1;stroke:none;"/>
  <path id="path42" d="  M 141.86997,209.78508   L 141.86997,197.78594   L 141.80331,196.78601   L 141.6033,195.85274   L 141.13662,195.18612   L 140.26994,194.91947   L 139.46992,195.25278   L 139.00324,195.9194   L 138.80324,197.51929   L 138.80324,209.78508   L 141.86997,209.78508  z " clip-path="url(#clipWmfPath1)" style="fill:none;stroke:#000000;stroke-width:0.06666822px;stroke-linecap:round;stroke-linejoin:round;stroke-miterlimit:4;stroke-dasharray:none;stroke-opacity:1;"/>
  <path id="path44" d="  M 137.13653,209.78508   L 137.13653,197.78594   L 137.06986,196.78601   L 136.86986,195.85274   L 136.40318,195.18612   L 135.53649,194.91947   L 134.73647,195.25278   L 134.2698,195.9194   L 134.06979,197.51929   L 134.06979,209.78508   L 137.13653,209.78508  z " clip-path="url(#clipWmfPath1)" style="fill:#bfbfbf;fill-rule:nonzero;fill-opacity:1;stroke:none;"/>
  <path id="path46" d="  M 137.13653,209.78508   L 137.13653,197.78594   L 137.06986,196.78601   L 136.86986,195.85274   L 136.40318,195.18612   L 135.53649,194.91947   L 134.73647,195.25278   L 134.2698,195.9194   L 134.06979,197.51929   L 134.06979,209.78508   L 137.13653,209.78508  z " clip-path="url(#clipWmfPath1)" style="fill:none;stroke:#000000;stroke-width:0.06666822px;stroke-linecap:round;stroke-linejoin:round;stroke-miterlimit:4;stroke-dasharray:none;stroke-opacity:1;"/>
  <path id="path48" d="  M 132.46976,209.78508   L 132.46976,197.78594   L 132.20308,195.85274   L 131.7364,195.18612   L 131.5364,194.98614   L 130.93639,194.91947   L 130.13637,195.25278   L 129.73636,195.9194   L 129.53635,197.51929   L 129.53635,209.78508   L 132.46976,209.78508  z " clip-path="url(#clipWmfPath1)" style="fill:#bfbfbf;fill-rule:nonzero;fill-opacity:1;stroke:none;"/>
  <path id="path50" d="  M 132.46976,209.78508   L 132.46976,197.78594   L 132.20308,195.85274   L 131.7364,195.18612   L 131.5364,194.98614   L 130.93639,194.91947   L 130.13637,195.25278   L 129.73636,195.9194   L 129.53635,197.51929   L 129.53635,209.78508   L 132.46976,209.78508  z " clip-path="url(#clipWmfPath1)" style="fill:none;stroke:#000000;stroke-width:0.06666822px;stroke-linecap:round;stroke-linejoin:round;stroke-miterlimit:4;stroke-dasharray:none;stroke-opacity:1;"/>
  <path id="path52" d="  M 127.60297,209.78508   L 127.60297,197.78594   L 127.3363,195.85274   L 126.93629,195.18612   L 126.73629,194.98614   L 126.13627,194.91947   L 125.26959,195.25278   L 124.80291,195.9194   L 124.60291,197.51929   L 124.60291,209.78508   L 127.60297,209.78508  z " clip-path="url(#clipWmfPath1)" style="fill:#bfbfbf;fill-rule:nonzero;fill-opacity:1;stroke:none;"/>
  <path id="path54" d="  M 127.60297,209.78508   L 127.60297,197.78594   L 127.3363,195.85274   L 126.93629,195.18612   L 126.73629,194.98614   L 126.13627,194.91947   L 125.26959,195.25278   L 124.80291,195.9194   L 124.60291,197.51929   L 124.60291,209.78508   L 127.60297,209.78508  z " clip-path="url(#clipWmfPath1)" style="fill:none;stroke:#000000;stroke-width:0.06666822px;stroke-linecap:round;stroke-linejoin:round;stroke-miterlimit:4;stroke-dasharray:none;stroke-opacity:1;"/>
  <path id="path56" d="  M 123.00287,209.78508   L 123.00287,197.78594   L 122.9362,196.78601   L 122.73619,195.85274   L 122.26952,195.18612   L 121.40283,194.91947   L 120.60281,195.25278   L 120.2028,195.9194   L 120.0028,197.51929   L 120.0028,209.78508   L 123.00287,209.78508  z " clip-path="url(#clipWmfPath1)" style="fill:#bfbfbf;fill-rule:nonzero;fill-opacity:1;stroke:none;"/>
  <path id="path58" d="  M 123.00287,209.78508   L 123.00287,197.78594   L 122.9362,196.78601   L 122.73619,195.85274   L 122.26952,195.18612   L 121.40283,194.91947   L 120.60281,195.25278   L 120.2028,195.9194   L 120.0028,197.51929   L 120.0028,209.78508   L 123.00287,209.78508  z " clip-path="url(#clipWmfPath1)" style="fill:none;stroke:#000000;stroke-width:0.06666822px;stroke-linecap:round;stroke-linejoin:round;stroke-miterlimit:4;stroke-dasharray:none;stroke-opacity:1;"/>
  <path id="path60" d="  M 118.40276,209.78508   L 118.40276,197.78594   L 118.13609,195.85274   L 117.73608,195.18612   L 117.53607,194.98614   L 116.93606,194.91947   L 116.06937,195.25278   L 115.6027,195.9194   L 115.40269,197.51929   L 115.40269,209.78508   L 118.40276,209.78508  z " clip-path="url(#clipWmfPath1)" style="fill:#bfbfbf;fill-rule:nonzero;fill-opacity:1;stroke:none;"/>
  <path id="path62" d="  M 118.40276,209.78508   L 118.40276,197.78594   L 118.13609,195.85274   L 117.73608,195.18612   L 117.53607,194.98614   L 116.93606,194.91947   L 116.06937,195.25278   L 115.6027,195.9194   L 115.40269,197.51929   L 115.40269,209.78508   L 118.40276,209.78508  z " clip-path="url(#clipWmfPath1)" style="fill:none;stroke:#000000;stroke-width:0.06666822px;stroke-linecap:round;stroke-linejoin:round;stroke-miterlimit:4;stroke-dasharray:none;stroke-opacity:1;"/>
  <path id="path64" d="  M 113.80265,209.78508   L 113.80265,197.78594   L 113.73598,196.78601   L 113.53598,195.85274   L 113.0693,195.18612   L 112.20262,194.91947   L 111.4026,195.25278   L 110.93592,195.9194   L 110.73592,197.51929   L 110.73592,209.78508   L 113.80265,209.78508  z " clip-path="url(#clipWmfPath1)" style="fill:#bfbfbf;fill-rule:nonzero;fill-opacity:1;stroke:none;"/>
  <path id="path66" d="  M 113.80265,209.78508   L 113.80265,197.78594   L 113.73598,196.78601   L 113.53598,195.85274   L 113.0693,195.18612   L 112.20262,194.91947   L 111.4026,195.25278   L 110.93592,195.9194   L 110.73592,197.51929   L 110.73592,209.78508   L 113.80265,209.78508  z " clip-path="url(#clipWmfPath1)" style="fill:none;stroke:#000000;stroke-width:0.06666822px;stroke-linecap:round;stroke-linejoin:round;stroke-miterlimit:4;stroke-dasharray:none;stroke-opacity:1;"/>
  <path id="path68" d="  M 108.93587,209.78508   L 108.93587,197.78594   L 108.8692,196.78601   L 108.6692,195.85274   L 108.20252,195.18612   L 107.33584,194.91947   L 106.53582,195.25278   L 106.13581,195.9194   L 105.9358,197.51929   L 105.9358,209.78508   L 108.93587,209.78508  z " clip-path="url(#clipWmfPath1)" style="fill:#bfbfbf;fill-rule:nonzero;fill-opacity:1;stroke:none;"/>
  <path id="path70" d="  M 108.93587,209.78508   L 108.93587,197.78594   L 108.8692,196.78601   L 108.6692,195.85274   L 108.20252,195.18612   L 107.33584,194.91947   L 106.53582,195.25278   L 106.13581,195.9194   L 105.9358,197.51929   L 105.9358,209.78508   L 108.93587,209.78508  z " clip-path="url(#clipWmfPath1)" style="fill:none;stroke:#000000;stroke-width:0.06666822px;stroke-linecap:round;stroke-linejoin:round;stroke-miterlimit:4;stroke-dasharray:none;stroke-opacity:1;"/>
  <path id="path72" d="  M 104.13576,209.78508   L 104.13576,197.78594   L 104.06909,196.78601   L 103.86909,195.85274   L 103.40241,195.18612   L 102.53572,194.91947   L 101.73571,195.25278   L 101.26903,195.9194   L 101.06902,197.51929   L 101.06902,209.78508   L 104.13576,209.78508  z " clip-path="url(#clipWmfPath1)" style="fill:#bfbfbf;fill-rule:nonzero;fill-opacity:1;stroke:none;"/>
  <path id="path74" d="  M 104.13576,209.78508   L 104.13576,197.78594   L 104.06909,196.78601   L 103.86909,195.85274   L 103.40241,195.18612   L 102.53572,194.91947   L 101.73571,195.25278   L 101.26903,195.9194   L 101.06902,197.51929   L 101.06902,209.78508   L 104.13576,209.78508  z " clip-path="url(#clipWmfPath1)" style="fill:none;stroke:#000000;stroke-width:0.06666822px;stroke-linecap:round;stroke-linejoin:round;stroke-miterlimit:4;stroke-dasharray:none;stroke-opacity:1;"/>
  <path id="path76" d="  M 99.202313,209.78508   L 99.202313,197.78594   L 99.135645,196.78601   L 98.93564,195.85274   L 98.468962,195.18612   L 97.602276,194.91947   L 96.802257,195.25278   L 96.402248,195.9194   L 96.202243,197.51929   L 96.202243,209.78508   L 99.202313,209.78508  z " clip-path="url(#clipWmfPath1)" style="fill:#bfbfbf;fill-rule:nonzero;fill-opacity:1;stroke:none;"/>
  <path id="path78" d="  M 99.202313,209.78508   L 99.202313,197.78594   L 99.135645,196.78601   L 98.93564,195.85274   L 98.468962,195.18612   L 97.602276,194.91947   L 96.802257,195.25278   L 96.402248,195.9194   L 96.202243,197.51929   L 96.202243,209.78508   L 99.202313,209.78508  z " clip-path="url(#clipWmfPath1)" style="fill:none;stroke:#000000;stroke-width:0.06666822px;stroke-linecap:round;stroke-linejoin:round;stroke-miterlimit:4;stroke-dasharray:none;stroke-opacity:1;"/>
  <path id="path80" d="  M 94.135528,209.78508   L 94.135528,197.78594   L 94.06886,196.78601   L 93.868855,195.85274   L 93.402178,195.18612   L 92.535491,194.91947   L 91.735472,195.25278   L 91.335463,195.9194   L 91.135458,197.51929   L 91.135458,209.78508   L 94.135528,209.78508  z " clip-path="url(#clipWmfPath1)" style="fill:#bfbfbf;fill-rule:nonzero;fill-opacity:1;stroke:none;"/>
  <path id="path82" d="  M 94.135528,209.78508   L 94.135528,197.78594   L 94.06886,196.78601   L 93.868855,195.85274   L 93.402178,195.18612   L 92.535491,194.91947   L 91.735472,195.25278   L 91.335463,195.9194   L 91.135458,197.51929   L 91.135458,209.78508   L 94.135528,209.78508  z " clip-path="url(#clipWmfPath1)" style="fill:none;stroke:#000000;stroke-width:0.06666822px;stroke-linecap:round;stroke-linejoin:round;stroke-miterlimit:4;stroke-dasharray:none;stroke-opacity:1;"/>
  <path id="path84" d="  M 89.535421,209.78508   L 89.535421,197.78594   L 89.468753,196.78601   L 89.268748,195.85274   L 88.80207,195.18612   L 87.935383,194.91947   L 87.135365,195.25278   L 86.735355,195.9194   L 86.535351,197.51929   L 86.535351,209.78508   L 89.535421,209.78508  z " clip-path="url(#clipWmfPath1)" style="fill:#bfbfbf;fill-rule:nonzero;fill-opacity:1;stroke:none;"/>
  <path id="path86" d="  M 89.535421,209.78508   L 89.535421,197.78594   L 89.468753,196.78601   L 89.268748,195.85274   L 88.80207,195.18612   L 87.935383,194.91947   L 87.135365,195.25278   L 86.735355,195.9194   L 86.535351,197.51929   L 86.535351,209.78508   L 89.535421,209.78508  z " clip-path="url(#clipWmfPath1)" style="fill:none;stroke:#000000;stroke-width:0.06666822px;stroke-linecap:round;stroke-linejoin:round;stroke-miterlimit:4;stroke-dasharray:none;stroke-opacity:1;"/>
  <path id="path88" d="  M 84.668641,209.78508   L 84.668641,197.78594   L 84.401968,195.85274   L 83.93529,195.18612   L 83.735286,194.98614   L 83.135272,194.91947   L 82.335253,195.25278   L 81.868575,195.9194   L 81.668571,197.51929   L 81.668571,209.78508   L 84.668641,209.78508  z " clip-path="url(#clipWmfPath1)" style="fill:#bfbfbf;fill-rule:nonzero;fill-opacity:1;stroke:none;"/>
  <path id="path90" d="  M 84.668641,209.78508   L 84.668641,197.78594   L 84.401968,195.85274   L 83.93529,195.18612   L 83.735286,194.98614   L 83.135272,194.91947   L 82.335253,195.25278   L 81.868575,195.9194   L 81.668571,197.51929   L 81.668571,209.78508   L 84.668641,209.78508  z " clip-path="url(#clipWmfPath1)" style="fill:none;stroke:#000000;stroke-width:0.06666822px;stroke-linecap:round;stroke-linejoin:round;stroke-miterlimit:4;stroke-dasharray:none;stroke-opacity:1;"/>
  <path id="path92" d="  M 79.801861,209.78508   L 79.801861,197.78594   L 79.735192,196.78601   L 79.535188,195.85274   L 79.06851,195.18612   L 78.201823,194.91947   L 77.401805,195.25278   L 77.001795,195.9194   L 76.801791,197.51929   L 76.801791,209.78508   L 79.801861,209.78508  z " clip-path="url(#clipWmfPath1)" style="fill:#bfbfbf;fill-rule:nonzero;fill-opacity:1;stroke:none;"/>
  <path id="path94" d="  M 79.801861,209.78508   L 79.801861,197.78594   L 79.735192,196.78601   L 79.535188,195.85274   L 79.06851,195.18612   L 78.201823,194.91947   L 77.401805,195.25278   L 77.001795,195.9194   L 76.801791,197.51929   L 76.801791,209.78508   L 79.801861,209.78508  z " clip-path="url(#clipWmfPath1)" style="fill:none;stroke:#000000;stroke-width:0.06666822px;stroke-linecap:round;stroke-linejoin:round;stroke-miterlimit:4;stroke-dasharray:none;stroke-opacity:1;"/>
  <path id="path96" d="  M 75.201753,209.78508   L 75.201753,197.78594   L 75.135085,196.78601   L 74.93508,195.85274   L 74.468403,195.18612   L 73.601716,194.91947   L 72.801697,195.25278   L 72.33502,195.9194   L 72.135015,197.51929   L 72.135015,209.78508   L 75.201753,209.78508  z " clip-path="url(#clipWmfPath1)" style="fill:#bfbfbf;fill-rule:nonzero;fill-opacity:1;stroke:none;"/>
  <path id="path98" d="  M 75.201753,209.78508   L 75.201753,197.78594   L 75.135085,196.78601   L 74.93508,195.85274   L 74.468403,195.18612   L 73.601716,194.91947   L 72.801697,195.25278   L 72.33502,195.9194   L 72.135015,197.51929   L 72.135015,209.78508   L 75.201753,209.78508  z " clip-path="url(#clipWmfPath1)" style="fill:none;stroke:#000000;stroke-width:0.06666822px;stroke-linecap:round;stroke-linejoin:round;stroke-miterlimit:4;stroke-dasharray:none;stroke-opacity:1;"/>
  <path id="path100" d="  M 70.601646,209.78508   L 70.601646,197.78594   L 70.534978,196.78601   L 70.334973,195.85274   L 69.868296,195.18612   L 69.001609,194.91947   L 68.20159,195.25278   L 67.801581,195.9194   L 67.601576,197.51929   L 67.601576,209.78508   L 70.601646,209.78508  z " clip-path="url(#clipWmfPath1)" style="fill:#bfbfbf;fill-rule:nonzero;fill-opacity:1;stroke:none;"/>
  <path id="path102" d="  M 70.601646,209.78508   L 70.601646,197.78594   L 70.534978,196.78601   L 70.334973,195.85274   L 69.868296,195.18612   L 69.001609,194.91947   L 68.20159,195.25278   L 67.801581,195.9194   L 67.601576,197.51929   L 67.601576,209.78508   L 70.601646,209.78508  z " clip-path="url(#clipWmfPath1)" style="fill:none;stroke:#000000;stroke-width:0.06666822px;stroke-linecap:round;stroke-linejoin:round;stroke-miterlimit:4;stroke-dasharray:none;stroke-opacity:1;"/>
  <path id="path104" d="  M 65.801534,209.78508   L 65.801534,197.78594   L 65.734866,196.78601   L 65.534861,195.85274   L 65.068184,195.18612   L 64.201497,194.91947   L 63.401478,195.25278   L 62.934801,195.9194   L 62.734796,197.51929   L 62.734796,209.78508   L 65.801534,209.78508  z " clip-path="url(#clipWmfPath1)" style="fill:#bfbfbf;fill-rule:nonzero;fill-opacity:1;stroke:none;"/>
  <path id="path106" d="  M 65.801534,209.78508   L 65.801534,197.78594   L 65.734866,196.78601   L 65.534861,195.85274   L 65.068184,195.18612   L 64.201497,194.91947   L 63.401478,195.25278   L 62.934801,195.9194   L 62.734796,197.51929   L 62.734796,209.78508   L 65.801534,209.78508  z " clip-path="url(#clipWmfPath1)" style="fill:none;stroke:#000000;stroke-width:0.06666822px;stroke-linecap:round;stroke-linejoin:round;stroke-miterlimit:4;stroke-dasharray:none;stroke-opacity:1;"/>
  <path id="path108" d="  M 60.934754,209.78508   L 60.934754,197.78594   L 60.868086,196.78601   L 60.668081,195.85274   L 60.201404,195.18612   L 59.334717,194.91947   L 58.534698,195.25278   L 58.134689,195.9194   L 57.934684,197.51929   L 57.934684,209.78508   L 60.934754,209.78508  z " clip-path="url(#clipWmfPath1)" style="fill:#bfbfbf;fill-rule:nonzero;fill-opacity:1;stroke:none;"/>
  <path id="path110" d="  M 60.934754,209.78508   L 60.934754,197.78594   L 60.868086,196.78601   L 60.668081,195.85274   L 60.201404,195.18612   L 59.334717,194.91947   L 58.534698,195.25278   L 58.134689,195.9194   L 57.934684,197.51929   L 57.934684,209.78508   L 60.934754,209.78508  z " clip-path="url(#clipWmfPath1)" style="fill:none;stroke:#000000;stroke-width:0.06666822px;stroke-linecap:round;stroke-linejoin:round;stroke-miterlimit:4;stroke-dasharray:none;stroke-opacity:1;"/>
  <path id="path112" d="  M 56.134642,209.78508   L 56.134642,197.78594   L 56.067974,196.78601   L 55.867969,195.85274   L 55.401292,195.18612   L 54.534605,194.91947   L 53.734586,195.25278   L 53.267909,195.9194   L 53.067904,197.51929   L 53.067904,209.78508   L 56.134642,209.78508  z " clip-path="url(#clipWmfPath1)" style="fill:#bfbfbf;fill-rule:nonzero;fill-opacity:1;stroke:none;"/>
  <path id="path114" d="  M 56.134642,209.78508   L 56.134642,197.78594   L 56.067974,196.78601   L 55.867969,195.85274   L 55.401292,195.18612   L 54.534605,194.91947   L 53.734586,195.25278   L 53.267909,195.9194   L 53.067904,197.51929   L 53.067904,209.78508   L 56.134642,209.78508  z " clip-path="url(#clipWmfPath1)" style="fill:none;stroke:#000000;stroke-width:0.06666822px;stroke-linecap:round;stroke-linejoin:round;stroke-miterlimit:4;stroke-dasharray:none;stroke-opacity:1;"/>
  <path id="path116" d="  M 51.467867,209.78508   L 51.467867,197.78594   L 51.401198,196.78601   L 51.201194,195.85274   L 50.734516,195.18612   L 49.867829,194.91947   L 49.067811,195.25278   L 48.601133,195.9194   L 48.401128,197.51929   L 48.401128,209.78508   L 51.467867,209.78508  z " clip-path="url(#clipWmfPath1)" style="fill:#bfbfbf;fill-rule:nonzero;fill-opacity:1;stroke:none;"/>
  <path id="path118" d="  M 51.467867,209.78508   L 51.467867,197.78594   L 51.401198,196.78601   L 51.201194,195.85274   L 50.734516,195.18612   L 49.867829,194.91947   L 49.067811,195.25278   L 48.601133,195.9194   L 48.401128,197.51929   L 48.401128,209.78508   L 51.467867,209.78508  z " clip-path="url(#clipWmfPath1)" style="fill:none;stroke:#000000;stroke-width:0.06666822px;stroke-linecap:round;stroke-linejoin:round;stroke-miterlimit:4;stroke-dasharray:none;stroke-opacity:1;"/>
  <path id="path120" d="  M 46.867759,209.78508   L 46.867759,197.78594   L 46.801091,196.78601   L 46.601086,195.85274   L 46.134409,195.18612   L 45.267722,194.91947   L 44.467703,195.25278   L 44.067694,195.9194   L 43.867689,197.51929   L 43.867689,209.78508   L 46.867759,209.78508  z " clip-path="url(#clipWmfPath1)" style="fill:#bfbfbf;fill-rule:nonzero;fill-opacity:1;stroke:none;"/>
  <path id="path122" d="  M 46.867759,209.78508   L 46.867759,197.78594   L 46.801091,196.78601   L 46.601086,195.85274   L 46.134409,195.18612   L 45.267722,194.91947   L 44.467703,195.25278   L 44.067694,195.9194   L 43.867689,197.51929   L 43.867689,209.78508   L 46.867759,209.78508  z " clip-path="url(#clipWmfPath1)" style="fill:none;stroke:#000000;stroke-width:0.06666822px;stroke-linecap:round;stroke-linejoin:round;stroke-miterlimit:4;stroke-dasharray:none;stroke-opacity:1;"/>
  <path id="path124" d="  M 42.267652,209.78508   L 42.267652,197.78594   L 42.200984,196.78601   L 42.000979,195.85274   L 41.534302,195.18612   L 40.667615,194.91947   L 39.867596,195.25278   L 39.400919,195.9194   L 39.200914,197.51929   L 39.200914,209.78508   L 42.267652,209.78508  z " clip-path="url(#clipWmfPath1)" style="fill:#bfbfbf;fill-rule:nonzero;fill-opacity:1;stroke:none;"/>
  <path id="path126" d="  M 42.267652,209.78508   L 42.267652,197.78594   L 42.200984,196.78601   L 42.000979,195.85274   L 41.534302,195.18612   L 40.667615,194.91947   L 39.867596,195.25278   L 39.400919,195.9194   L 39.200914,197.51929   L 39.200914,209.78508   L 42.267652,209.78508  z " clip-path="url(#clipWmfPath1)" style="fill:none;stroke:#000000;stroke-width:0.06666822px;stroke-linecap:round;stroke-linejoin:round;stroke-miterlimit:4;stroke-dasharray:none;stroke-opacity:1;"/>
  <path id="path128" d="  M 37.600877,209.78508   L 37.600877,197.78594   L 37.334204,195.85274   L 36.867526,195.18612   L 36.667522,194.98614   L 36.067508,194.91947   L 35.267489,195.25278   L 34.86748,195.9194   L 34.667475,197.51929   L 34.667475,209.78508   L 37.600877,209.78508  z " clip-path="url(#clipWmfPath1)" style="fill:#bfbfbf;fill-rule:nonzero;fill-opacity:1;stroke:none;"/>
  <path id="path130" d="  M 37.600877,209.78508   L 37.600877,197.78594   L 37.334204,195.85274   L 36.867526,195.18612   L 36.667522,194.98614   L 36.067508,194.91947   L 35.267489,195.25278   L 34.86748,195.9194   L 34.667475,197.51929   L 34.667475,209.78508   L 37.600877,209.78508  z " clip-path="url(#clipWmfPath1)" style="fill:none;stroke:#000000;stroke-width:0.06666822px;stroke-linecap:round;stroke-linejoin:round;stroke-miterlimit:4;stroke-dasharray:none;stroke-opacity:1;"/>
  <path id="path132" d="  M 32.934101,209.78508   L 32.934101,197.78594   L 32.667428,195.85274   L 32.200751,195.18612   L 32.000746,194.98614   L 31.400732,194.91947   L 30.600713,195.25278   L 30.200704,195.9194   L 30.000699,197.51929   L 30.000699,209.78508   L 32.934101,209.78508  z " clip-path="url(#clipWmfPath1)" style="fill:#bfbfbf;fill-rule:nonzero;fill-opacity:1;stroke:none;"/>
  <path id="path134" d="  M 32.934101,209.78508   L 32.934101,197.78594   L 32.667428,195.85274   L 32.200751,195.18612   L 32.000746,194.98614   L 31.400732,194.91947   L 30.600713,195.25278   L 30.200704,195.9194   L 30.000699,197.51929   L 30.000699,209.78508   L 32.934101,209.78508  z " clip-path="url(#clipWmfPath1)" style="fill:none;stroke:#000000;stroke-width:0.06666822px;stroke-linecap:round;stroke-linejoin:round;stroke-miterlimit:4;stroke-dasharray:none;stroke-opacity:1;"/>
  <path id="path136" d="  M 28.133989,209.78508   L 28.133989,197.78594   L 28.067321,196.78601   L 27.867316,195.85274   L 27.400639,195.18612   L 26.533952,194.91947   L 25.733933,195.25278   L 25.333924,195.9194   L 25.133919,197.51929   L 25.133919,209.78508   L 28.133989,209.78508  z " clip-path="url(#clipWmfPath1)" style="fill:#bfbfbf;fill-rule:nonzero;fill-opacity:1;stroke:none;"/>
  <path id="path138" d="  M 28.133989,209.78508   L 28.133989,197.78594   L 28.067321,196.78601   L 27.867316,195.85274   L 27.400639,195.18612   L 26.533952,194.91947   L 25.733933,195.25278   L 25.333924,195.9194   L 25.133919,197.51929   L 25.133919,209.78508   L 28.133989,209.78508  z " clip-path="url(#clipWmfPath1)" style="fill:none;stroke:#000000;stroke-width:0.06666822px;stroke-linecap:round;stroke-linejoin:round;stroke-miterlimit:4;stroke-dasharray:none;stroke-opacity:1;"/>
  <path id="path170" d="  M 40.400942,16.732144   L 40.400942,31.13112   L 16.933728,31.13112   L 16.933728,16.732144   L 40.400942,16.732144  z " clip-path="url(#clipWmfPath1)" style="fill:#bfbfbf;fill-rule:nonzero;fill-opacity:1;stroke:none;"/>
  <path id="path172" d="  M 40.400942,16.732144   L 40.400942,31.13112   L 16.933728,31.13112   L 16.933728,16.732144   L 40.400942,16.732144  z " clip-path="url(#clipWmfPath1)" style="fill:none;stroke:#000000;stroke-width:0.06666822px;stroke-linecap:round;stroke-linejoin:round;stroke-miterlimit:4;stroke-dasharray:none;stroke-opacity:1;"/>
  <path id="path174" d="  M 29.934031,19.465283   L 29.934031,27.398052   L 25.86727,27.398052   L 25.86727,19.465283   L 29.934031,19.465283  z " clip-path="url(#clipWmfPath1)" style="fill:#000000;fill-rule:nonzero;fill-opacity:1;stroke:none;"/>
  <path id="path176" d="  M 29.934031,19.465283   L 29.934031,27.398052   L 25.86727,27.398052   L 25.86727,19.465283   L 29.934031,19.465283  z " clip-path="url(#clipWmfPath1)" style="fill:none;stroke:#000000;stroke-width:0.06666822px;stroke-linecap:round;stroke-linejoin:round;stroke-miterlimit:4;stroke-dasharray:none;stroke-opacity:1;"/>
  <path id="path178" d="  M 23.267209,19.465283   L 23.267209,27.398052   L 19.200448,27.398052   L 19.200448,19.465283   L 23.267209,19.465283  z " clip-path="url(#clipWmfPath1)" style="fill:#000000;fill-rule:nonzero;fill-opacity:1;stroke:none;"/>
  <path id="path180" d="  M 23.267209,19.465283   L 23.267209,27.398052   L 19.200448,27.398052   L 19.200448,19.465283   L 23.267209,19.465283  z " clip-path="url(#clipWmfPath1)" style="fill:none;stroke:#000000;stroke-width:0.06666822px;stroke-linecap:round;stroke-linejoin:round;stroke-miterlimit:4;stroke-dasharray:none;stroke-opacity:1;"/>
  <path id="path182" d="  M 36.667522,19.465283   L 36.667522,27.398052   L 32.60076,27.398052   L 32.60076,19.465283   L 36.667522,19.465283  z " clip-path="url(#clipWmfPath1)" style="fill:#ffffff;fill-rule:nonzero;fill-opacity:1;stroke:none;"/>
  <path id="path184" d="  M 36.667522,19.465283   L 36.667522,27.398052   L 32.60076,27.398052   L 32.60076,19.465283   L 36.667522,19.465283  z " clip-path="url(#clipWmfPath1)" style="fill:none;stroke:#000000;stroke-width:0.06666822px;stroke-linecap:round;stroke-linejoin:round;stroke-miterlimit:4;stroke-dasharray:none;stroke-opacity:1;"/>
  <path id="path186" d="  M 38.400895,30.79781   L 37.734213,30.664486   L 37.134199,30.331177   L 36.800858,29.731219   L 36.667522,29.0646   L 36.800858,28.397981   L 37.134199,27.864685   L 37.734213,27.531376   L 38.400895,27.398052   L 39.067577,27.531376   L 39.600923,27.864685   L 39.934264,28.397981   L 40.067601,29.0646   L 39.934264,29.731219   L 39.600923,30.331177   L 39.067577,30.664486   L 38.400895,30.79781  z " clip-path="url(#clipWmfPath1)" style="fill:#ffffff;fill-rule:nonzero;fill-opacity:1;stroke:none;"/>
  <path id="path188" d="  M 38.400895,30.79781   L 37.734213,30.664486   L 37.134199,30.331177   L 36.800858,29.731219   L 36.667522,29.0646   L 36.800858,28.397981   L 37.134199,27.864685   L 37.734213,27.531376   L 38.400895,27.398052   L 39.067577,27.531376   L 39.600923,27.864685   L 39.934264,28.397981   L 40.067601,29.0646   L 39.934264,29.731219   L 39.600923,30.331177   L 39.067577,30.664486   L 38.400895,30.79781  z " clip-path="url(#clipWmfPath1)" style="fill:none;stroke:#000000;stroke-width:0.06666822px;stroke-linecap:round;stroke-linejoin:round;stroke-miterlimit:4;stroke-dasharray:none;stroke-opacity:1;"/>
  <path id="path190" d="  M 57.201334,51.463007   L 58.201357,51.329683   L 59.001376,50.86305   L 59.60139,50.196431   L 59.801394,49.463149   L 59.801394,39.997156   L 59.60139,39.263875   L 59.001376,38.730579   L 58.201357,38.330608   L 57.201334,38.197284   L 36.467517,38.197284   L 35.000816,37.264017   L 32.334087,35.264159   L 29.734027,33.330963   L 28.400662,32.597682   L 29.067344,33.864259   L 30.934055,36.397412   L 32.934101,38.997227   L 33.867456,40.397127   L 33.867456,49.796459   L 34.067461,50.52974   L 34.667475,51.063036   L 35.467494,51.329683   L 36.467517,51.463007   L 57.201334,51.463007  z " clip-path="url(#clipWmfPath1)" style="fill:#ffffff;fill-rule:nonzero;fill-opacity:1;stroke:none;"/>
  <path id="path192" d="  M 36.467517,50.929712   L 36.467517,51.996303   L 57.201334,51.996303   L 57.268002,51.996303   L 58.268025,51.862979   L 58.46803,51.796317   L 59.268048,51.329683   L 59.401385,51.19636   L 60.001399,50.52974   L 60.068067,50.329755   L 60.268072,49.596473   L 60.33474,49.463149   L 60.33474,39.997156   L 60.268072,39.863832   L 60.068067,39.130551   L 59.934731,38.863903   L 59.334717,38.330608   L 59.20138,38.263946   L 58.401362,37.863974   L 58.268025,37.797312   L 57.268002,37.663988   L 57.201334,37.663988   L 36.600853,37.663988   L 35.267489,36.864045   L 32.667428,34.864188   L 32.667428,34.864188   L 30.067368,32.930992   L 30.000699,32.86433   L 28.667335,32.131049   L 27.933985,32.86433   L 28.600667,34.130906   L 28.667335,34.197568   L 30.534045,36.730722   L 30.534045,36.730722   L 32.534092,39.263875   L 33.33411,40.530451   L 33.33411,49.796459   L 33.400779,49.929783   L 33.600783,50.663064   L 33.73412,50.929712   L 34.334134,51.463007   L 34.534138,51.529669   L 35.334157,51.796317   L 35.400825,51.862979   L 36.400849,51.996303   L 36.467517,51.996303   L 57.201334,51.996303   L 57.268002,51.996303   L 58.268025,51.862979   L 58.134689,50.796388   L 57.134665,50.929712   L 36.534185,50.929712   L 35.60083,50.86305   L 34.934148,50.596402   L 34.534138,50.263093   L 34.400802,49.729797   L 34.400802,40.397127   L 34.267466,40.13048   L 33.33411,38.730579   L 33.33411,38.663917   L 31.334064,36.064102   L 29.467354,33.597611   L 28.86734,32.331034   L 28.667335,32.131049   L 28.133989,33.064316   L 29.467354,33.730935   L 32.000746,35.664131   L 32.000746,35.664131   L 34.667475,37.663988   L 34.734143,37.663988   L 36.200844,38.597255   L 36.467517,38.730579   L 57.134665,38.730579   L 58.06802,38.797241   L 58.734703,39.130551   L 59.134712,39.530522   L 59.268048,40.063818   L 59.268048,49.396488   L 59.134712,49.929783   L 58.668034,50.463078   L 58.001352,50.86305   L 57.134665,50.929712   L 36.467517,50.929712  z " clip-path="url(#clipWmfPath1)" style="fill:#000000;fill-rule:nonzero;fill-opacity:1;stroke:#000000;stroke-width:0.06666822px;stroke-linecap:round;stroke-linejoin:round;stroke-miterlimit:4;stroke-dasharray:none;stroke-opacity:1;"/>
  <g id="g194" clip-path="url(#clipWmfPath1)"/>
  <g id="g206" clip-path="url(#clipWmfPath1)">
    <text id="text204" y="10.185188" x="0.000000" transform="matrix(1.000000,-0.000000,0.000000,1.000000,36.000839,38.997227)" style="font-size:10.687500px;font-style:normal;font-variant:normal;font-weight:400;font-stretch:Condensed;line-height:125.000000%;letter-spacing:0px;word-spacing:0px;fill:#000000;fill-opacity:1;stroke:none;font-family:Helvetica-Narrow;text-align:start;text-anchor:start;" xml:space="preserve"><tspan id="tspan202" y="10.185188" x="0.000000"><tspan id="tspan196" style="fill:#000000;font-size:10.687500px;font-style:normal;font-variant:normal;font-weight:400;font-stretch:Condensed;font-family:Helvetica-Narrow;" dy="0.000000" dx="0.000000">S</tspan><tspan id="tspan198" style="fill:#000000;font-size:10.687500px;font-style:normal;font-variant:normal;font-weight:400;font-stretch:Condensed;font-family:Helvetica-Narrow;" dy="0.000000" dx="-0.195068">W</tspan><tspan id="tspan200" style="fill:#000000;font-size:10.687500px;font-style:normal;font-variant:normal;font-weight:400;font-stretch:Condensed;font-family:Helvetica-Narrow;" dy="0.000000" dx="0.071611">3</tspan></tspan></text>
  </g>
  <g id="g208" clip-path="url(#clipWmfPath1)"/>
  <g id="g252" clip-path="url(#clipWmfPath1)">
    <text id="text218" y="8.930687" x="0.000000" transform="matrix(1.000000,-0.000000,0.000000,1.000000,121.202826,7.266150)" style="font-size:9.312500px;font-style:normal;font-variant:normal;font-weight:400;font-stretch:Condensed;line-height:125.000000%;letter-spacing:0px;word-spacing:0px;fill:#000000;fill-opacity:1;stroke:none;font-family:Helvetica-Narrow;text-align:start;text-anchor:start;" xml:space="preserve"><tspan id="tspan216" y="8.930687" x="0.000000"><tspan id="tspan210" style="fill:#000000;font-size:9.312500px;font-style:normal;font-variant:normal;font-weight:400;font-stretch:Condensed;font-family:Helvetica-Narrow;" dy="0.000000" dx="0.000000">I</tspan><tspan id="tspan212" style="fill:#000000;font-size:9.312500px;font-style:normal;font-variant:normal;font-weight:400;font-stretch:Condensed;font-family:Helvetica-Narrow;" dy="0.000000" dx="0.306754">/</tspan><tspan id="tspan214" style="fill:#000000;font-size:9.312500px;font-style:normal;font-variant:normal;font-weight:400;font-stretch:Condensed;font-family:Helvetica-Narrow;" dy="0.000000" dx="0.306754">O</tspan></tspan></text>
    <text id="text236" y="8.930687" x="18.533765" transform="matrix(1.000000,-0.000000,0.000000,1.000000,121.202826,7.266150)" style="font-size:9.312500px;font-style:normal;font-variant:normal;font-weight:400;font-stretch:Condensed;line-height:125.000000%;letter-spacing:0px;word-spacing:0px;fill:#000000;fill-opacity:1;stroke:none;font-family:Helvetica-Narrow;text-align:start;text-anchor:start;" xml:space="preserve"><tspan id="tspan234" y="8.930687" x="18.533765"><tspan id="tspan220" style="fill:#000000;font-size:9.312500px;font-style:normal;font-variant:normal;font-weight:400;font-stretch:Condensed;font-family:Helvetica-Narrow;" dy="0.000000" dx="0.000000">A</tspan><tspan id="tspan222" style="fill:#000000;font-size:9.312500px;font-style:normal;font-variant:normal;font-weight:400;font-stretch:Condensed;font-family:Helvetica-Narrow;" dy="0.000000" dx="0.202800">d</tspan><tspan id="tspan224" style="fill:#000000;font-size:9.312500px;font-style:normal;font-variant:normal;font-weight:400;font-stretch:Condensed;font-family:Helvetica-Narrow;" dy="0.000000" dx="0.050215">a</tspan><tspan id="tspan226" style="fill:#000000;font-size:9.312500px;font-style:normal;font-variant:normal;font-weight:400;font-stretch:Condensed;font-family:Helvetica-Narrow;" dy="0.000000" dx="0.050215">p</tspan><tspan id="tspan228" style="fill:#000000;font-size:9.312500px;font-style:normal;font-variant:normal;font-weight:400;font-stretch:Condensed;font-family:Helvetica-Narrow;" dy="0.000000" dx="0.050215">t</tspan><tspan id="tspan230" style="fill:#000000;font-size:9.312500px;font-style:normal;font-variant:normal;font-weight:400;font-stretch:Condensed;font-family:Helvetica-Narrow;" dy="0.000000" dx="0.306754">e</tspan><tspan id="tspan232" style="fill:#000000;font-size:9.312500px;font-style:normal;font-variant:normal;font-weight:400;font-stretch:Condensed;font-family:Helvetica-Narrow;" dy="0.000000" dx="0.050215">r</tspan></tspan></text>
    <text id="text250" y="8.930687" x="57.734679" transform="matrix(1.000000,-0.000000,0.000000,1.000000,121.202826,7.266150)" style="font-size:9.312500px;font-style:normal;font-variant:normal;font-weight:400;font-stretch:Condensed;line-height:125.000000%;letter-spacing:0px;word-spacing:0px;fill:#000000;fill-opacity:1;stroke:none;font-family:Helvetica-Narrow;text-align:start;text-anchor:start;" xml:space="preserve"><tspan id="tspan248" y="8.930687" x="57.734679"><tspan id="tspan238" style="fill:#000000;font-size:9.312500px;font-style:normal;font-variant:normal;font-weight:400;font-stretch:Condensed;font-family:Helvetica-Narrow;" dy="0.000000" dx="0.000000">B</tspan><tspan id="tspan240" style="fill:#000000;font-size:9.312500px;font-style:normal;font-variant:normal;font-weight:400;font-stretch:Condensed;font-family:Helvetica-Narrow;" dy="0.000000" dx="0.202800">o</tspan><tspan id="tspan242" style="fill:#000000;font-size:9.312500px;font-style:normal;font-variant:normal;font-weight:400;font-stretch:Condensed;font-family:Helvetica-Narrow;" dy="0.000000" dx="0.050215">a</tspan><tspan id="tspan244" style="fill:#000000;font-size:9.312500px;font-style:normal;font-variant:normal;font-weight:400;font-stretch:Condensed;font-family:Helvetica-Narrow;" dy="0.000000" dx="0.050215">r</tspan><tspan id="tspan246" style="fill:#000000;font-size:9.312500px;font-style:normal;font-variant:normal;font-weight:400;font-stretch:Condensed;font-family:Helvetica-Narrow;" dy="0.000000" dx="0.154365">d</tspan></tspan></text>
  </g>
  <g id="g254" clip-path="url(#clipWmfPath1)"/>
  <g id="g272" clip-path="url(#clipWmfPath1)">
    <text id="text270" y="8.930687" x="0.000000" transform="matrix(1.000000,-0.000000,0.000000,1.000000,170.603977,180.787145)" style="font-size:9.312500px;font-style:normal;font-variant:normal;font-weight:400;font-stretch:Condensed;line-height:125.000000%;letter-spacing:0px;word-spacing:0px;fill:#000000;fill-opacity:1;stroke:none;font-family:Helvetica-Narrow;text-align:start;text-anchor:start;" xml:space="preserve"><tspan id="tspan268" y="8.930687" x="0.000000"><tspan id="tspan256" style="fill:#000000;font-size:9.312500px;font-style:normal;font-variant:normal;font-weight:400;font-stretch:Condensed;font-family:Helvetica-Narrow;" dy="0.000000" dx="0.000000">M</tspan><tspan id="tspan258" style="fill:#000000;font-size:9.312500px;font-style:normal;font-variant:normal;font-weight:400;font-stretch:Condensed;font-family:Helvetica-Narrow;" dy="0.000000" dx="0.202997">H</tspan><tspan id="tspan260" style="fill:#000000;font-size:9.312500px;font-style:normal;font-variant:normal;font-weight:400;font-stretch:Condensed;font-family:Helvetica-Narrow;" dy="0.000000" dx="0.117079">0</tspan><tspan id="tspan262" style="fill:#000000;font-size:9.312500px;font-style:normal;font-variant:normal;font-weight:400;font-stretch:Condensed;font-family:Helvetica-Narrow;" dy="0.000000" dx="0.050215">8</tspan><tspan id="tspan264" style="fill:#000000;font-size:9.312500px;font-style:normal;font-variant:normal;font-weight:400;font-stretch:Condensed;font-family:Helvetica-Narrow;" dy="0.000000" dx="0.050215">9</tspan><tspan id="tspan266" style="fill:#000000;font-size:9.312500px;font-style:normal;font-variant:normal;font-weight:400;font-stretch:Condensed;font-family:Helvetica-Narrow;" dy="0.000000" dx="0.050215">2</tspan></tspan></text>
  </g>
</svg>