<?xml version="1.0" encoding="UTF-8" standalone="no"?>
<svg
   xmlns:dc="http://purl.org/dc/elements/1.1/"
   xmlns:cc="http://creativecommons.org/ns#"
   xmlns:rdf="http://www.w3.org/1999/02/22-rdf-syntax-ns#"
   xmlns:svg="http://www.w3.org/2000/svg"
   xmlns="http://www.w3.org/2000/svg"
   id="svg80"
   height="6.7299999mm"
   width="18.270001mm"
   version="1.0">
  <metadata
     id="metadata84">
    <rdf:RDF>
      <cc:Work
         rdf:about="">
        <dc:format>image/svg+xml</dc:format>
        <dc:type
           rdf:resource="http://purl.org/dc/dcmitype/StillImage" />
      </cc:Work>
    </rdf:RDF>
  </metadata>
  <defs
     id="defs6">
    <clipPath
       id="clipWmfPath1"
       clipPathUnits="userSpaceOnUse">
      <path
         id="path2"
         d="M 0,0 L 68.947493,0 L 68.947493,25.331763 L 0,25.331763 z" />
    </clipPath>
    <pattern
       y="0"
       x="0"
       height="6"
       width="6"
       patternUnits="userSpaceOnUse"
       id="WMFhbasepattern" />
  </defs>
  <path
     id="path8"
     d="  M 3.334018,12.665881   L 3.334018,3.3331267   L 23.738208,3.3331267   L 23.738208,12.665881   L 3.334018,12.665881  z "
     clip-path="url(#clipWmfPath1)"
     style="fill:#ffffff;fill-rule:nonzero;fill-opacity:1;stroke:none;" />
  <path
     id="path10"
     d="  M 3.334018,12.665881   L 3.334018,3.3331267   L 23.738208,3.3331267   L 23.738208,12.665881   L 3.334018,12.665881  z "
     clip-path="url(#clipWmfPath1)"
     style="fill:none;stroke:#000000;stroke-width:0.066680364px;stroke-linecap:round;stroke-linejoin:round;stroke-miterlimit:4;stroke-dasharray:none;stroke-opacity:1;" />
  <path
     id="path12"
     d="  M 6.2679539,10.666005   L 6.2679539,5.1996776   L 11.735743,5.1996776   L 11.735743,10.666005   L 6.2679539,10.666005  z "
     clip-path="url(#clipWmfPath1)"
     style="fill:#000000;fill-rule:nonzero;fill-opacity:1;stroke:none;" />
  <path
     id="path14"
     d="  M 6.2679539,10.666005   L 6.2679539,5.1996776   L 11.735743,5.1996776   L 11.735743,10.666005   L 6.2679539,10.666005  z "
     clip-path="url(#clipWmfPath1)"
     style="fill:none;stroke:#000000;stroke-width:0.066680364px;stroke-linecap:round;stroke-linejoin:round;stroke-miterlimit:4;stroke-dasharray:none;stroke-opacity:1;" />
  <path
     id="path16"
     d="  M 15.336483,10.666005   L 15.336483,5.1996776   L 20.804273,5.1996776   L 20.804273,10.666005   L 15.336483,10.666005  z "
     clip-path="url(#clipWmfPath1)"
     style="fill:#000000;fill-rule:nonzero;fill-opacity:1;stroke:none;" />
  <path
     id="path18"
     d="  M 15.336483,10.666005   L 15.336483,5.1996776   L 20.804273,5.1996776   L 20.804273,10.666005   L 15.336483,10.666005  z "
     clip-path="url(#clipWmfPath1)"
     style="fill:none;stroke:#000000;stroke-width:0.066680364px;stroke-linecap:round;stroke-linejoin:round;stroke-miterlimit:4;stroke-dasharray:none;stroke-opacity:1;" />
  <path
     id="path20"
     d="  M 3.334018,21.998636   L 3.334018,12.665881   L 23.738208,12.665881   L 23.738208,21.998636   L 3.334018,21.998636  z "
     clip-path="url(#clipWmfPath1)"
     style="fill:#ffffff;fill-rule:nonzero;fill-opacity:1;stroke:none;" />
  <path
     id="path22"
     d="  M 3.334018,21.998636   L 3.334018,12.665881   L 23.738208,12.665881   L 23.738208,21.998636   L 3.334018,21.998636  z "
     clip-path="url(#clipWmfPath1)"
     style="fill:none;stroke:#000000;stroke-width:0.066680364px;stroke-linecap:round;stroke-linejoin:round;stroke-miterlimit:4;stroke-dasharray:none;stroke-opacity:1;" />
  <path
     id="path24"
     d="  M 6.2679539,19.99876   L 6.2679539,14.532432   L 11.735743,14.532432   L 11.735743,19.99876   L 6.2679539,19.99876  z "
     clip-path="url(#clipWmfPath1)"
     style="fill:#000000;fill-rule:nonzero;fill-opacity:1;stroke:none;" />
  <path
     id="path26"
     d="  M 6.2679539,19.99876   L 6.2679539,14.532432   L 11.735743,14.532432   L 11.735743,19.99876   L 6.2679539,19.99876  z "
     clip-path="url(#clipWmfPath1)"
     style="fill:none;stroke:#000000;stroke-width:0.066680364px;stroke-linecap:round;stroke-linejoin:round;stroke-miterlimit:4;stroke-dasharray:none;stroke-opacity:1;" />
  <path
     id="path28"
     d="  M 15.336483,19.99876   L 15.336483,14.532432   L 20.804273,14.532432   L 20.804273,19.99876   L 15.336483,19.99876  z "
     clip-path="url(#clipWmfPath1)"
     style="fill:#000000;fill-rule:nonzero;fill-opacity:1;stroke:none;" />
  <path
     id="path30"
     d="  M 15.336483,19.99876   L 15.336483,14.532432   L 20.804273,14.532432   L 20.804273,19.99876   L 15.336483,19.99876  z "
     clip-path="url(#clipWmfPath1)"
     style="fill:none;stroke:#000000;stroke-width:0.066680364px;stroke-linecap:round;stroke-linejoin:round;stroke-miterlimit:4;stroke-dasharray:none;stroke-opacity:1;" />
  <path
     id="path32"
     d="  M 24.271651,12.665881   L 24.271651,3.3331267   L 44.675842,3.3331267   L 44.675842,12.665881   L 24.271651,12.665881  z "
     clip-path="url(#clipWmfPath1)"
     style="fill:#ffffff;fill-rule:nonzero;fill-opacity:1;stroke:none;" />
  <path
     id="path34"
     d="  M 24.271651,12.665881   L 24.271651,3.3331267   L 44.675842,3.3331267   L 44.675842,12.665881   L 24.271651,12.665881  z "
     clip-path="url(#clipWmfPath1)"
     style="fill:none;stroke:#000000;stroke-width:0.066680364px;stroke-linecap:round;stroke-linejoin:round;stroke-miterlimit:4;stroke-dasharray:none;stroke-opacity:1;" />
  <path
     id="path36"
     d="  M 27.205587,10.666005   L 27.205587,5.1996776   L 32.673377,5.1996776   L 32.673377,10.666005   L 27.205587,10.666005  z "
     clip-path="url(#clipWmfPath1)"
     style="fill:#000000;fill-rule:nonzero;fill-opacity:1;stroke:none;" />
  <path
     id="path38"
     d="  M 27.205587,10.666005   L 27.205587,5.1996776   L 32.673377,5.1996776   L 32.673377,10.666005   L 27.205587,10.666005  z "
     clip-path="url(#clipWmfPath1)"
     style="fill:none;stroke:#000000;stroke-width:0.066680364px;stroke-linecap:round;stroke-linejoin:round;stroke-miterlimit:4;stroke-dasharray:none;stroke-opacity:1;" />
  <path
     id="path40"
     d="  M 36.274116,10.666005   L 36.274116,5.1996776   L 41.741906,5.1996776   L 41.741906,10.666005   L 36.274116,10.666005  z "
     clip-path="url(#clipWmfPath1)"
     style="fill:#000000;fill-rule:nonzero;fill-opacity:1;stroke:none;" />
  <path
     id="path42"
     d="  M 36.274116,10.666005   L 36.274116,5.1996776   L 41.741906,5.1996776   L 41.741906,10.666005   L 36.274116,10.666005  z "
     clip-path="url(#clipWmfPath1)"
     style="fill:none;stroke:#000000;stroke-width:0.066680364px;stroke-linecap:round;stroke-linejoin:round;stroke-miterlimit:4;stroke-dasharray:none;stroke-opacity:1;" />
  <path
     id="path44"
     d="  M 24.271651,21.998636   L 24.271651,12.665881   L 44.675842,12.665881   L 44.675842,21.998636   L 24.271651,21.998636  z "
     clip-path="url(#clipWmfPath1)"
     style="fill:#ffffff;fill-rule:nonzero;fill-opacity:1;stroke:none;" />
  <path
     id="path46"
     d="  M 24.271651,21.998636   L 24.271651,12.665881   L 44.675842,12.665881   L 44.675842,21.998636   L 24.271651,21.998636  z "
     clip-path="url(#clipWmfPath1)"
     style="fill:none;stroke:#000000;stroke-width:0.066680364px;stroke-linecap:round;stroke-linejoin:round;stroke-miterlimit:4;stroke-dasharray:none;stroke-opacity:1;" />
  <path
     id="path48"
     d="  M 27.205587,19.99876   L 27.205587,14.532432   L 32.673377,14.532432   L 32.673377,19.99876   L 27.205587,19.99876  z "
     clip-path="url(#clipWmfPath1)"
     style="fill:#000000;fill-rule:nonzero;fill-opacity:1;stroke:none;" />
  <path
     id="path50"
     d="  M 27.205587,19.99876   L 27.205587,14.532432   L 32.673377,14.532432   L 32.673377,19.99876   L 27.205587,19.99876  z "
     clip-path="url(#clipWmfPath1)"
     style="fill:none;stroke:#000000;stroke-width:0.066680364px;stroke-linecap:round;stroke-linejoin:round;stroke-miterlimit:4;stroke-dasharray:none;stroke-opacity:1;" />
  <path
     id="path52"
     d="  M 36.274116,19.99876   L 36.274116,14.532432   L 41.741906,14.532432   L 41.741906,19.99876   L 36.274116,19.99876  z "
     clip-path="url(#clipWmfPath1)"
     style="fill:#000000;fill-rule:nonzero;fill-opacity:1;stroke:none;" />
  <path
     id="path54"
     d="  M 36.274116,19.99876   L 36.274116,14.532432   L 41.741906,14.532432   L 41.741906,19.99876   L 36.274116,19.99876  z "
     clip-path="url(#clipWmfPath1)"
     style="fill:none;stroke:#000000;stroke-width:0.066680364px;stroke-linecap:round;stroke-linejoin:round;stroke-miterlimit:4;stroke-dasharray:none;stroke-opacity:1;" />
  <path
     id="path56"
     d="  M 45.209284,12.665881   L 45.209284,3.3331267   L 65.613475,3.3331267   L 65.613475,12.665881   L 45.209284,12.665881  z "
     clip-path="url(#clipWmfPath1)"
     style="fill:#ffffff;fill-rule:nonzero;fill-opacity:1;stroke:none;" />
  <path
     id="path58"
     d="  M 45.209284,12.665881   L 45.209284,3.3331267   L 65.613475,3.3331267   L 65.613475,12.665881   L 45.209284,12.665881  z "
     clip-path="url(#clipWmfPath1)"
     style="fill:none;stroke:#000000;stroke-width:0.066680364px;stroke-linecap:round;stroke-linejoin:round;stroke-miterlimit:4;stroke-dasharray:none;stroke-opacity:1;" />
  <path
     id="path60"
     d="  M 48.14322,10.666005   L 48.14322,5.1996776   L 53.61101,5.1996776   L 53.61101,10.666005   L 48.14322,10.666005  z "
     clip-path="url(#clipWmfPath1)"
     style="fill:#000000;fill-rule:nonzero;fill-opacity:1;stroke:none;" />
  <path
     id="path62"
     d="  M 48.14322,10.666005   L 48.14322,5.1996776   L 53.61101,5.1996776   L 53.61101,10.666005   L 48.14322,10.666005  z "
     clip-path="url(#clipWmfPath1)"
     style="fill:none;stroke:#000000;stroke-width:0.066680364px;stroke-linecap:round;stroke-linejoin:round;stroke-miterlimit:4;stroke-dasharray:none;stroke-opacity:1;" />
  <path
     id="path64"
     d="  M 57.211749,10.666005   L 57.211749,5.1996776   L 62.679539,5.1996776   L 62.679539,10.666005   L 57.211749,10.666005  z "
     clip-path="url(#clipWmfPath1)"
     style="fill:#000000;fill-rule:nonzero;fill-opacity:1;stroke:none;" />
  <path
     id="path66"
     d="  M 57.211749,10.666005   L 57.211749,5.1996776   L 62.679539,5.1996776   L 62.679539,10.666005   L 57.211749,10.666005  z "
     clip-path="url(#clipWmfPath1)"
     style="fill:none;stroke:#000000;stroke-width:0.066680364px;stroke-linecap:round;stroke-linejoin:round;stroke-miterlimit:4;stroke-dasharray:none;stroke-opacity:1;" />
  <path
     id="path68"
     d="  M 45.209284,21.998636   L 45.209284,12.665881   L 65.613475,12.665881   L 65.613475,21.998636   L 45.209284,21.998636  z "
     clip-path="url(#clipWmfPath1)"
     style="fill:#ffffff;fill-rule:nonzero;fill-opacity:1;stroke:none;" />
  <path
     id="path70"
     d="  M 45.209284,21.998636   L 45.209284,12.665881   L 65.613475,12.665881   L 65.613475,21.998636   L 45.209284,21.998636  z "
     clip-path="url(#clipWmfPath1)"
     style="fill:none;stroke:#000000;stroke-width:0.066680364px;stroke-linecap:round;stroke-linejoin:round;stroke-miterlimit:4;stroke-dasharray:none;stroke-opacity:1;" />
  <path
     id="path72"
     d="  M 48.14322,19.99876   L 48.14322,14.532432   L 53.61101,14.532432   L 53.61101,19.99876   L 48.14322,19.99876  z "
     clip-path="url(#clipWmfPath1)"
     style="fill:#000000;fill-rule:nonzero;fill-opacity:1;stroke:none;" />
  <path
     id="path74"
     d="  M 48.14322,19.99876   L 48.14322,14.532432   L 53.61101,14.532432   L 53.61101,19.99876   L 48.14322,19.99876  z "
     clip-path="url(#clipWmfPath1)"
     style="fill:none;stroke:#000000;stroke-width:0.066680364px;stroke-linecap:round;stroke-linejoin:round;stroke-miterlimit:4;stroke-dasharray:none;stroke-opacity:1;" />
  <path
     id="path76"
     d="  M 57.211749,19.99876   L 57.211749,14.532432   L 62.679539,14.532432   L 62.679539,19.99876   L 57.211749,19.99876  z "
     clip-path="url(#clipWmfPath1)"
     style="fill:#000000;fill-rule:nonzero;fill-opacity:1;stroke:none;" />
  <path
     id="path78"
     d="  M 57.211749,19.99876   L 57.211749,14.532432   L 62.679539,14.532432   L 62.679539,19.99876   L 57.211749,19.99876  z "
     clip-path="url(#clipWmfPath1)"
     style="fill:none;stroke:#000000;stroke-width:0.066680364px;stroke-linecap:round;stroke-linejoin:round;stroke-miterlimit:4;stroke-dasharray:none;stroke-opacity:1;" />
</svg>
