<svg xmlns:dc="http://purl.org/dc/elements/1.1/" xmlns:cc="http://creativecommons.org/ns#" xmlns:rdf="http://www.w3.org/1999/02/22-rdf-syntax-ns#" xmlns:svg="http://www.w3.org/2000/svg" xmlns="http://www.w3.org/2000/svg" id="svg80" height="7.2099998mm" width="18.179999mm" version="1.0">
  <metadata id="metadata84">
    <rdf:RDF>
      <cc:Work rdf:about="">
        <dc:format>image/svg+xml</dc:format>
        <dc:type rdf:resource="http://purl.org/dc/dcmitype/StillImage"/>
      </cc:Work>
    </rdf:RDF>
  </metadata>
  <defs id="defs6">
    <clipPath id="clipWmfPath1" clipPathUnits="userSpaceOnUse">
      <path id="path2" d="M 0,0 L 68.607342,0 L 68.607342,27.145901 L 0,27.145901 z"/>
    </clipPath>
    <pattern y="0" x="0" height="6" width="6" patternUnits="userSpaceOnUse" id="WMFhbasepattern"/>
  </defs>
  <path id="path8" d="  M 3.3336901,3.4015748   L 12.668022,3.4015748   L 12.668022,23.811024   L 3.3336901,23.811024   L 3.3336901,3.4015748  z " clip-path="url(#clipWmfPath1)" style="fill:#e5e5e5;fill-rule:nonzero;fill-opacity:1;stroke:none;"/>
  <path id="path10" d="  M 3.3336901,3.4015748   L 12.668022,3.4015748   L 12.668022,23.811024   L 3.3336901,23.811024   L 3.3336901,3.4015748  z " clip-path="url(#clipWmfPath1)" style="fill:none;stroke:#000000;stroke-width:0.0666738px;stroke-linecap:round;stroke-linejoin:round;stroke-miterlimit:4;stroke-dasharray:none;stroke-opacity:1;"/>
  <path id="path12" d="  M 5.4005779,6.4029643   L 10.86783,6.4029643   L 10.86783,11.872163   L 5.4005779,11.872163   L 5.4005779,6.4029643  z " clip-path="url(#clipWmfPath1)" style="fill:#000000;fill-rule:nonzero;fill-opacity:1;stroke:none;"/>
  <path id="path14" d="  M 5.4005779,6.4029643   L 10.86783,6.4029643   L 10.86783,11.872163   L 5.4005779,11.872163   L 5.4005779,6.4029643  z " clip-path="url(#clipWmfPath1)" style="fill:none;stroke:#000000;stroke-width:0.0666738px;stroke-linecap:round;stroke-linejoin:round;stroke-miterlimit:4;stroke-dasharray:none;stroke-opacity:1;"/>
  <path id="path16" d="  M 5.4005779,15.47383   L 10.86783,15.47383   L 10.86783,20.943029   L 5.4005779,20.943029   L 5.4005779,15.47383  z " clip-path="url(#clipWmfPath1)" style="fill:#000000;fill-rule:nonzero;fill-opacity:1;stroke:none;"/>
  <path id="path18" d="  M 5.4005779,15.47383   L 10.86783,15.47383   L 10.86783,20.943029   L 5.4005779,20.943029   L 5.4005779,15.47383  z " clip-path="url(#clipWmfPath1)" style="fill:none;stroke:#000000;stroke-width:0.0666738px;stroke-linecap:round;stroke-linejoin:round;stroke-miterlimit:4;stroke-dasharray:none;stroke-opacity:1;"/>
  <path id="path20" d="  M 13.868151,3.4015748   L 23.202483,3.4015748   L 23.202483,23.811024   L 13.868151,23.811024   L 13.868151,3.4015748  z " clip-path="url(#clipWmfPath1)" style="fill:#ffffff;fill-rule:nonzero;fill-opacity:1;stroke:none;"/>
  <path id="path22" d="  M 13.868151,3.4015748   L 23.202483,3.4015748   L 23.202483,23.811024   L 13.868151,23.811024   L 13.868151,3.4015748  z " clip-path="url(#clipWmfPath1)" style="fill:none;stroke:#000000;stroke-width:0.0666738px;stroke-linecap:round;stroke-linejoin:round;stroke-miterlimit:4;stroke-dasharray:none;stroke-opacity:1;"/>
  <path id="path24" d="  M 15.935039,6.4029643   L 21.40229,6.4029643   L 21.40229,11.872163   L 15.935039,11.872163   L 15.935039,6.4029643  z " clip-path="url(#clipWmfPath1)" style="fill:#000000;fill-rule:nonzero;fill-opacity:1;stroke:none;"/>
  <path id="path26" d="  M 15.935039,6.4029643   L 21.40229,6.4029643   L 21.40229,11.872163   L 15.935039,11.872163   L 15.935039,6.4029643  z " clip-path="url(#clipWmfPath1)" style="fill:none;stroke:#000000;stroke-width:0.0666738px;stroke-linecap:round;stroke-linejoin:round;stroke-miterlimit:4;stroke-dasharray:none;stroke-opacity:1;"/>
  <path id="path28" d="  M 15.935039,15.47383   L 21.40229,15.47383   L 21.40229,20.943029   L 15.935039,20.943029   L 15.935039,15.47383  z " clip-path="url(#clipWmfPath1)" style="fill:#000000;fill-rule:nonzero;fill-opacity:1;stroke:none;"/>
  <path id="path30" d="  M 15.935039,15.47383   L 21.40229,15.47383   L 21.40229,20.943029   L 15.935039,20.943029   L 15.935039,15.47383  z " clip-path="url(#clipWmfPath1)" style="fill:none;stroke:#000000;stroke-width:0.0666738px;stroke-linecap:round;stroke-linejoin:round;stroke-miterlimit:4;stroke-dasharray:none;stroke-opacity:1;"/>
  <path id="path32" d="  M 24.402611,3.4015748   L 33.736944,3.4015748   L 33.736944,23.811024   L 24.402611,23.811024   L 24.402611,3.4015748  z " clip-path="url(#clipWmfPath1)" style="fill:#ffffff;fill-rule:nonzero;fill-opacity:1;stroke:none;"/>
  <path id="path34" d="  M 24.402611,3.4015748   L 33.736944,3.4015748   L 33.736944,23.811024   L 24.402611,23.811024   L 24.402611,3.4015748  z " clip-path="url(#clipWmfPath1)" style="fill:none;stroke:#000000;stroke-width:0.0666738px;stroke-linecap:round;stroke-linejoin:round;stroke-miterlimit:4;stroke-dasharray:none;stroke-opacity:1;"/>
  <path id="path36" d="  M 26.469499,6.4029643   L 31.936751,6.4029643   L 31.936751,11.872163   L 26.469499,11.872163   L 26.469499,6.4029643  z " clip-path="url(#clipWmfPath1)" style="fill:#000000;fill-rule:nonzero;fill-opacity:1;stroke:none;"/>
  <path id="path38" d="  M 26.469499,6.4029643   L 31.936751,6.4029643   L 31.936751,11.872163   L 26.469499,11.872163   L 26.469499,6.4029643  z " clip-path="url(#clipWmfPath1)" style="fill:none;stroke:#000000;stroke-width:0.0666738px;stroke-linecap:round;stroke-linejoin:round;stroke-miterlimit:4;stroke-dasharray:none;stroke-opacity:1;"/>
  <path id="path40" d="  M 26.469499,15.47383   L 31.936751,15.47383   L 31.936751,20.943029   L 26.469499,20.943029   L 26.469499,15.47383  z " clip-path="url(#clipWmfPath1)" style="fill:#000000;fill-rule:nonzero;fill-opacity:1;stroke:none;"/>
  <path id="path42" d="  M 26.469499,15.47383   L 31.936751,15.47383   L 31.936751,20.943029   L 26.469499,20.943029   L 26.469499,15.47383  z " clip-path="url(#clipWmfPath1)" style="fill:none;stroke:#000000;stroke-width:0.0666738px;stroke-linecap:round;stroke-linejoin:round;stroke-miterlimit:4;stroke-dasharray:none;stroke-opacity:1;"/>
  <path id="path44" d="  M 34.803724,3.4015748   L 44.138057,3.4015748   L 44.138057,23.811024   L 34.803724,23.811024   L 34.803724,3.4015748  z " clip-path="url(#clipWmfPath1)" style="fill:#ffffff;fill-rule:nonzero;fill-opacity:1;stroke:none;"/>
  <path id="path46" d="  M 34.803724,3.4015748   L 44.138057,3.4015748   L 44.138057,23.811024   L 34.803724,23.811024   L 34.803724,3.4015748  z " clip-path="url(#clipWmfPath1)" style="fill:none;stroke:#000000;stroke-width:0.0666738px;stroke-linecap:round;stroke-linejoin:round;stroke-miterlimit:4;stroke-dasharray:none;stroke-opacity:1;"/>
  <path id="path48" d="  M 36.870612,6.4029643   L 42.337864,6.4029643   L 42.337864,11.872163   L 36.870612,11.872163   L 36.870612,6.4029643  z " clip-path="url(#clipWmfPath1)" style="fill:#000000;fill-rule:nonzero;fill-opacity:1;stroke:none;"/>
  <path id="path50" d="  M 36.870612,6.4029643   L 42.337864,6.4029643   L 42.337864,11.872163   L 36.870612,11.872163   L 36.870612,6.4029643  z " clip-path="url(#clipWmfPath1)" style="fill:none;stroke:#000000;stroke-width:0.0666738px;stroke-linecap:round;stroke-linejoin:round;stroke-miterlimit:4;stroke-dasharray:none;stroke-opacity:1;"/>
  <path id="path52" d="  M 36.870612,15.47383   L 42.337864,15.47383   L 42.337864,20.943029   L 36.870612,20.943029   L 36.870612,15.47383  z " clip-path="url(#clipWmfPath1)" style="fill:#000000;fill-rule:nonzero;fill-opacity:1;stroke:none;"/>
  <path id="path54" d="  M 36.870612,15.47383   L 42.337864,15.47383   L 42.337864,20.943029   L 36.870612,20.943029   L 36.870612,15.47383  z " clip-path="url(#clipWmfPath1)" style="fill:none;stroke:#000000;stroke-width:0.0666738px;stroke-linecap:round;stroke-linejoin:round;stroke-miterlimit:4;stroke-dasharray:none;stroke-opacity:1;"/>
  <path id="path56" d="  M 45.338185,3.4015748   L 54.672517,3.4015748   L 54.672517,23.811024   L 45.338185,23.811024   L 45.338185,3.4015748  z " clip-path="url(#clipWmfPath1)" style="fill:#ffffff;fill-rule:nonzero;fill-opacity:1;stroke:none;"/>
  <path id="path58" d="  M 45.338185,3.4015748   L 54.672517,3.4015748   L 54.672517,23.811024   L 45.338185,23.811024   L 45.338185,3.4015748  z " clip-path="url(#clipWmfPath1)" style="fill:none;stroke:#000000;stroke-width:0.0666738px;stroke-linecap:round;stroke-linejoin:round;stroke-miterlimit:4;stroke-dasharray:none;stroke-opacity:1;"/>
  <path id="path60" d="  M 47.405073,6.4029643   L 52.872325,6.4029643   L 52.872325,11.872163   L 47.405073,11.872163   L 47.405073,6.4029643  z " clip-path="url(#clipWmfPath1)" style="fill:#000000;fill-rule:nonzero;fill-opacity:1;stroke:none;"/>
  <path id="path62" d="  M 47.405073,6.4029643   L 52.872325,6.4029643   L 52.872325,11.872163   L 47.405073,11.872163   L 47.405073,6.4029643  z " clip-path="url(#clipWmfPath1)" style="fill:none;stroke:#000000;stroke-width:0.0666738px;stroke-linecap:round;stroke-linejoin:round;stroke-miterlimit:4;stroke-dasharray:none;stroke-opacity:1;"/>
  <path id="path64" d="  M 47.405073,15.47383   L 52.872325,15.47383   L 52.872325,20.943029   L 47.405073,20.943029   L 47.405073,15.47383  z " clip-path="url(#clipWmfPath1)" style="fill:#000000;fill-rule:nonzero;fill-opacity:1;stroke:none;"/>
  <path id="path66" d="  M 47.405073,15.47383   L 52.872325,15.47383   L 52.872325,20.943029   L 47.405073,20.943029   L 47.405073,15.47383  z " clip-path="url(#clipWmfPath1)" style="fill:none;stroke:#000000;stroke-width:0.0666738px;stroke-linecap:round;stroke-linejoin:round;stroke-miterlimit:4;stroke-dasharray:none;stroke-opacity:1;"/>
  <path id="path68" d="  M 55.872646,3.4015748   L 65.206978,3.4015748   L 65.206978,23.811024   L 55.872646,23.811024   L 55.872646,3.4015748  z " clip-path="url(#clipWmfPath1)" style="fill:#ffffff;fill-rule:nonzero;fill-opacity:1;stroke:none;"/>
  <path id="path70" d="  M 55.872646,3.4015748   L 65.206978,3.4015748   L 65.206978,23.811024   L 55.872646,23.811024   L 55.872646,3.4015748  z " clip-path="url(#clipWmfPath1)" style="fill:none;stroke:#000000;stroke-width:0.0666738px;stroke-linecap:round;stroke-linejoin:round;stroke-miterlimit:4;stroke-dasharray:none;stroke-opacity:1;"/>
  <path id="path72" d="  M 57.939534,6.4029643   L 63.406785,6.4029643   L 63.406785,11.872163   L 57.939534,11.872163   L 57.939534,6.4029643  z " clip-path="url(#clipWmfPath1)" style="fill:#000000;fill-rule:nonzero;fill-opacity:1;stroke:none;"/>
  <path id="path74" d="  M 57.939534,6.4029643   L 63.406785,6.4029643   L 63.406785,11.872163   L 57.939534,11.872163   L 57.939534,6.4029643  z " clip-path="url(#clipWmfPath1)" style="fill:none;stroke:#000000;stroke-width:0.0666738px;stroke-linecap:round;stroke-linejoin:round;stroke-miterlimit:4;stroke-dasharray:none;stroke-opacity:1;"/>
  <path id="path76" d="  M 57.939534,15.47383   L 63.406785,15.47383   L 63.406785,20.943029   L 57.939534,20.943029   L 57.939534,15.47383  z " clip-path="url(#clipWmfPath1)" style="fill:#000000;fill-rule:nonzero;fill-opacity:1;stroke:none;"/>
  <path id="path78" d="  M 57.939534,15.47383   L 63.406785,15.47383   L 63.406785,20.943029   L 57.939534,20.943029   L 57.939534,15.47383  z " clip-path="url(#clipWmfPath1)" style="fill:none;stroke:#000000;stroke-width:0.0666738px;stroke-linecap:round;stroke-linejoin:round;stroke-miterlimit:4;stroke-dasharray:none;stroke-opacity:1;"/>
</svg>