<svg xmlns:dc="http://purl.org/dc/elements/1.1/" xmlns:cc="http://creativecommons.org/ns#" xmlns:rdf="http://www.w3.org/1999/02/22-rdf-syntax-ns#" xmlns:svg="http://www.w3.org/2000/svg" xmlns="http://www.w3.org/2000/svg" id="svg402" height="53.140002mm" width="59.949999mm" version="1.0">
  <metadata id="metadata406">
    <rdf:RDF>
      <cc:Work rdf:about="">
        <dc:format>image/svg+xml</dc:format>
        <dc:type rdf:resource="http://purl.org/dc/dcmitype/StillImage"/>
      </cc:Work>
    </rdf:RDF>
  </metadata>
  <defs id="defs6">
    <clipPath id="clipWmfPath1" clipPathUnits="userSpaceOnUse">
      <path id="path2" d="M 0,0 L 226.47821,0 L 226.47821,200.73963 L 0,200.73963 z"/>
    </clipPath>
    <pattern y="0" x="0" height="6" width="6" patternUnits="userSpaceOnUse" id="WMFhbasepattern"/>
  </defs>
  <path id="path8" d="  M 220.47791,180.00565   L 11.933942,180.20565   L 6.0003059,180.00565   L 6.0003059,24.400765   L 220.47791,24.400765   L 220.47791,180.00565  z " clip-path="url(#clipWmfPath1)" style="fill:#e5e5cb;fill-rule:nonzero;fill-opacity:1;stroke:none;"/>
  <path id="path10" d="  M 221.01127,24.400765   L 219.94455,24.400765   L 219.94455,179.4723   L 11.933942,179.6723   L 6.5336664,179.53897   L 6.5336664,24.934116   L 219.94455,24.934116   L 219.94455,179.4723   L 11.933942,179.6723   L 11.933942,180.739   L 221.01127,180.539   L 221.01127,23.867415   L 5.4669454,23.867415   L 5.4669454,180.47233   L 11.933942,180.739   L 221.01127,180.539   L 221.01127,24.400765  z " clip-path="url(#clipWmfPath1)" style="fill:#000000;fill-rule:nonzero;fill-opacity:1;stroke:#000000;stroke-width:0.066670068px;stroke-linecap:round;stroke-linejoin:round;stroke-miterlimit:4;stroke-dasharray:none;stroke-opacity:1;"/>
  <path id="path12" d="  M 17.000867,197.47286   L 17.000867,180.539   L 209.07732,180.539   L 209.07732,197.47286   L 17.000867,197.47286  z " clip-path="url(#clipWmfPath1)" style="fill:#7f7f59;fill-rule:evenodd;fill-opacity:1;stroke:none;"/>
  <path id="path14" d="  M 17.000867,197.47286   L 17.000867,180.539   L 209.07732,180.539   L 209.07732,197.47286   L 17.000867,197.47286  z " clip-path="url(#clipWmfPath1)" style="fill:none;stroke:#000000;stroke-width:0.066670068px;stroke-linecap:round;stroke-linejoin:round;stroke-miterlimit:4;stroke-dasharray:none;stroke-opacity:1;"/>
  <path id="path46" d="  M 198.34344,181.27235   L 198.34344,169.13864   L 200.14354,169.13864   L 200.14354,181.27235   L 198.34344,181.27235  z " clip-path="url(#clipWmfPath1)" style="fill:#000000;fill-rule:evenodd;fill-opacity:1;stroke:none;"/>
  <path id="path48" d="  M 198.34344,181.27235   L 198.34344,169.13864   L 200.14354,169.13864   L 200.14354,181.27235   L 198.34344,181.27235  z " clip-path="url(#clipWmfPath1)" style="fill:none;stroke:#000000;stroke-width:0.066670068px;stroke-linecap:round;stroke-linejoin:round;stroke-miterlimit:4;stroke-dasharray:none;stroke-opacity:1;"/>
  <path id="path50" d="  M 194.80993,181.27235   L 194.80993,169.13864   L 196.61002,169.13864   L 196.61002,181.27235   L 194.80993,181.27235  z " clip-path="url(#clipWmfPath1)" style="fill:#000000;fill-rule:evenodd;fill-opacity:1;stroke:none;"/>
  <path id="path52" d="  M 194.80993,181.27235   L 194.80993,169.13864   L 196.61002,169.13864   L 196.61002,181.27235   L 194.80993,181.27235  z " clip-path="url(#clipWmfPath1)" style="fill:none;stroke:#000000;stroke-width:0.066670068px;stroke-linecap:round;stroke-linejoin:round;stroke-miterlimit:4;stroke-dasharray:none;stroke-opacity:1;"/>
  <path id="path54" d="  M 191.34309,181.27235   L 191.34309,169.13864   L 193.14318,169.13864   L 193.14318,181.27235   L 191.34309,181.27235  z " clip-path="url(#clipWmfPath1)" style="fill:#000000;fill-rule:evenodd;fill-opacity:1;stroke:none;"/>
  <path id="path56" d="  M 191.34309,181.27235   L 191.34309,169.13864   L 193.14318,169.13864   L 193.14318,181.27235   L 191.34309,181.27235  z " clip-path="url(#clipWmfPath1)" style="fill:none;stroke:#000000;stroke-width:0.066670068px;stroke-linecap:round;stroke-linejoin:round;stroke-miterlimit:4;stroke-dasharray:none;stroke-opacity:1;"/>
  <path id="path58" d="  M 187.80957,181.27235   L 187.80957,169.13864   L 189.60967,169.13864   L 189.60967,181.27235   L 187.80957,181.27235  z " clip-path="url(#clipWmfPath1)" style="fill:#000000;fill-rule:evenodd;fill-opacity:1;stroke:none;"/>
  <path id="path60" d="  M 187.80957,181.27235   L 187.80957,169.13864   L 189.60967,169.13864   L 189.60967,181.27235   L 187.80957,181.27235  z " clip-path="url(#clipWmfPath1)" style="fill:none;stroke:#000000;stroke-width:0.066670068px;stroke-linecap:round;stroke-linejoin:round;stroke-miterlimit:4;stroke-dasharray:none;stroke-opacity:1;"/>
  <path id="path62" d="  M 184.34273,181.27235   L 184.34273,169.13864   L 186.14282,169.13864   L 186.14282,181.27235   L 184.34273,181.27235  z " clip-path="url(#clipWmfPath1)" style="fill:#000000;fill-rule:evenodd;fill-opacity:1;stroke:none;"/>
  <path id="path64" d="  M 184.34273,181.27235   L 184.34273,169.13864   L 186.14282,169.13864   L 186.14282,181.27235   L 184.34273,181.27235  z " clip-path="url(#clipWmfPath1)" style="fill:none;stroke:#000000;stroke-width:0.066670068px;stroke-linecap:round;stroke-linejoin:round;stroke-miterlimit:4;stroke-dasharray:none;stroke-opacity:1;"/>
  <path id="path66" d="  M 180.80922,181.27235   L 180.80922,169.13864   L 182.60931,169.13864   L 182.60931,181.27235   L 180.80922,181.27235  z " clip-path="url(#clipWmfPath1)" style="fill:#000000;fill-rule:evenodd;fill-opacity:1;stroke:none;"/>
  <path id="path68" d="  M 180.80922,181.27235   L 180.80922,169.13864   L 182.60931,169.13864   L 182.60931,181.27235   L 180.80922,181.27235  z " clip-path="url(#clipWmfPath1)" style="fill:none;stroke:#000000;stroke-width:0.066670068px;stroke-linecap:round;stroke-linejoin:round;stroke-miterlimit:4;stroke-dasharray:none;stroke-opacity:1;"/>
  <path id="path70" d="  M 177.34237,181.27235   L 177.34237,169.13864   L 179.14247,169.13864   L 179.14247,181.27235   L 177.34237,181.27235  z " clip-path="url(#clipWmfPath1)" style="fill:#000000;fill-rule:evenodd;fill-opacity:1;stroke:none;"/>
  <path id="path72" d="  M 177.34237,181.27235   L 177.34237,169.13864   L 179.14247,169.13864   L 179.14247,181.27235   L 177.34237,181.27235  z " clip-path="url(#clipWmfPath1)" style="fill:none;stroke:#000000;stroke-width:0.066670068px;stroke-linecap:round;stroke-linejoin:round;stroke-miterlimit:4;stroke-dasharray:none;stroke-opacity:1;"/>
  <path id="path74" d="  M 173.80886,181.27235   L 173.80886,169.13864   L 175.60895,169.13864   L 175.60895,181.27235   L 173.80886,181.27235  z " clip-path="url(#clipWmfPath1)" style="fill:#000000;fill-rule:evenodd;fill-opacity:1;stroke:none;"/>
  <path id="path76" d="  M 173.80886,181.27235   L 173.80886,169.13864   L 175.60895,169.13864   L 175.60895,181.27235   L 173.80886,181.27235  z " clip-path="url(#clipWmfPath1)" style="fill:none;stroke:#000000;stroke-width:0.066670068px;stroke-linecap:round;stroke-linejoin:round;stroke-miterlimit:4;stroke-dasharray:none;stroke-opacity:1;"/>
  <path id="path78" d="  M 170.34202,181.27235   L 170.34202,169.13864   L 172.14211,169.13864   L 172.14211,181.27235   L 170.34202,181.27235  z " clip-path="url(#clipWmfPath1)" style="fill:#000000;fill-rule:evenodd;fill-opacity:1;stroke:none;"/>
  <path id="path80" d="  M 170.34202,181.27235   L 170.34202,169.13864   L 172.14211,169.13864   L 172.14211,181.27235   L 170.34202,181.27235  z " clip-path="url(#clipWmfPath1)" style="fill:none;stroke:#000000;stroke-width:0.066670068px;stroke-linecap:round;stroke-linejoin:round;stroke-miterlimit:4;stroke-dasharray:none;stroke-opacity:1;"/>
  <path id="path82" d="  M 166.8085,181.27235   L 166.8085,169.13864   L 168.6086,169.13864   L 168.6086,181.27235   L 166.8085,181.27235  z " clip-path="url(#clipWmfPath1)" style="fill:#000000;fill-rule:evenodd;fill-opacity:1;stroke:none;"/>
  <path id="path84" d="  M 166.8085,181.27235   L 166.8085,169.13864   L 168.6086,169.13864   L 168.6086,181.27235   L 166.8085,181.27235  z " clip-path="url(#clipWmfPath1)" style="fill:none;stroke:#000000;stroke-width:0.066670068px;stroke-linecap:round;stroke-linejoin:round;stroke-miterlimit:4;stroke-dasharray:none;stroke-opacity:1;"/>
  <path id="path86" d="  M 163.34166,181.27235   L 163.34166,169.13864   L 165.14175,169.13864   L 165.14175,181.27235   L 163.34166,181.27235  z " clip-path="url(#clipWmfPath1)" style="fill:#000000;fill-rule:evenodd;fill-opacity:1;stroke:none;"/>
  <path id="path88" d="  M 163.34166,181.27235   L 163.34166,169.13864   L 165.14175,169.13864   L 165.14175,181.27235   L 163.34166,181.27235  z " clip-path="url(#clipWmfPath1)" style="fill:none;stroke:#000000;stroke-width:0.066670068px;stroke-linecap:round;stroke-linejoin:round;stroke-miterlimit:4;stroke-dasharray:none;stroke-opacity:1;"/>
  <path id="path90" d="  M 159.80815,181.27235   L 159.80815,169.13864   L 161.60824,169.13864   L 161.60824,181.27235   L 159.80815,181.27235  z " clip-path="url(#clipWmfPath1)" style="fill:#000000;fill-rule:evenodd;fill-opacity:1;stroke:none;"/>
  <path id="path92" d="  M 159.80815,181.27235   L 159.80815,169.13864   L 161.60824,169.13864   L 161.60824,181.27235   L 159.80815,181.27235  z " clip-path="url(#clipWmfPath1)" style="fill:none;stroke:#000000;stroke-width:0.066670068px;stroke-linecap:round;stroke-linejoin:round;stroke-miterlimit:4;stroke-dasharray:none;stroke-opacity:1;"/>
  <path id="path94" d="  M 156.3413,181.27235   L 156.3413,169.13864   L 158.14139,169.13864   L 158.14139,181.27235   L 156.3413,181.27235  z " clip-path="url(#clipWmfPath1)" style="fill:#000000;fill-rule:evenodd;fill-opacity:1;stroke:none;"/>
  <path id="path96" d="  M 156.3413,181.27235   L 156.3413,169.13864   L 158.14139,169.13864   L 158.14139,181.27235   L 156.3413,181.27235  z " clip-path="url(#clipWmfPath1)" style="fill:none;stroke:#000000;stroke-width:0.066670068px;stroke-linecap:round;stroke-linejoin:round;stroke-miterlimit:4;stroke-dasharray:none;stroke-opacity:1;"/>
  <path id="path98" d="  M 152.80779,181.27235   L 152.80779,169.13864   L 154.60788,169.13864   L 154.60788,181.27235   L 152.80779,181.27235  z " clip-path="url(#clipWmfPath1)" style="fill:#000000;fill-rule:evenodd;fill-opacity:1;stroke:none;"/>
  <path id="path100" d="  M 152.80779,181.27235   L 152.80779,169.13864   L 154.60788,169.13864   L 154.60788,181.27235   L 152.80779,181.27235  z " clip-path="url(#clipWmfPath1)" style="fill:none;stroke:#000000;stroke-width:0.066670068px;stroke-linecap:round;stroke-linejoin:round;stroke-miterlimit:4;stroke-dasharray:none;stroke-opacity:1;"/>
  <path id="path102" d="  M 149.34095,181.27235   L 149.34095,169.13864   L 151.14104,169.13864   L 151.14104,181.27235   L 149.34095,181.27235  z " clip-path="url(#clipWmfPath1)" style="fill:#000000;fill-rule:evenodd;fill-opacity:1;stroke:none;"/>
  <path id="path104" d="  M 149.34095,181.27235   L 149.34095,169.13864   L 151.14104,169.13864   L 151.14104,181.27235   L 149.34095,181.27235  z " clip-path="url(#clipWmfPath1)" style="fill:none;stroke:#000000;stroke-width:0.066670068px;stroke-linecap:round;stroke-linejoin:round;stroke-miterlimit:4;stroke-dasharray:none;stroke-opacity:1;"/>
  <path id="path106" d="  M 145.80743,181.27235   L 145.80743,169.13864   L 147.60752,169.13864   L 147.60752,181.27235   L 145.80743,181.27235  z " clip-path="url(#clipWmfPath1)" style="fill:#000000;fill-rule:evenodd;fill-opacity:1;stroke:none;"/>
  <path id="path108" d="  M 145.80743,181.27235   L 145.80743,169.13864   L 147.60752,169.13864   L 147.60752,181.27235   L 145.80743,181.27235  z " clip-path="url(#clipWmfPath1)" style="fill:none;stroke:#000000;stroke-width:0.066670068px;stroke-linecap:round;stroke-linejoin:round;stroke-miterlimit:4;stroke-dasharray:none;stroke-opacity:1;"/>
  <path id="path110" d="  M 142.34059,181.27235   L 142.34059,169.13864   L 144.14068,169.13864   L 144.14068,181.27235   L 142.34059,181.27235  z " clip-path="url(#clipWmfPath1)" style="fill:#000000;fill-rule:evenodd;fill-opacity:1;stroke:none;"/>
  <path id="path112" d="  M 142.34059,181.27235   L 142.34059,169.13864   L 144.14068,169.13864   L 144.14068,181.27235   L 142.34059,181.27235  z " clip-path="url(#clipWmfPath1)" style="fill:none;stroke:#000000;stroke-width:0.066670068px;stroke-linecap:round;stroke-linejoin:round;stroke-miterlimit:4;stroke-dasharray:none;stroke-opacity:1;"/>
  <path id="path114" d="  M 138.80708,181.27235   L 138.80708,169.13864   L 140.60717,169.13864   L 140.60717,181.27235   L 138.80708,181.27235  z " clip-path="url(#clipWmfPath1)" style="fill:#000000;fill-rule:evenodd;fill-opacity:1;stroke:none;"/>
  <path id="path116" d="  M 138.80708,181.27235   L 138.80708,169.13864   L 140.60717,169.13864   L 140.60717,181.27235   L 138.80708,181.27235  z " clip-path="url(#clipWmfPath1)" style="fill:none;stroke:#000000;stroke-width:0.066670068px;stroke-linecap:round;stroke-linejoin:round;stroke-miterlimit:4;stroke-dasharray:none;stroke-opacity:1;"/>
  <path id="path118" d="  M 135.34023,181.27235   L 135.34023,169.13864   L 137.14032,169.13864   L 137.14032,181.27235   L 135.34023,181.27235  z " clip-path="url(#clipWmfPath1)" style="fill:#000000;fill-rule:evenodd;fill-opacity:1;stroke:none;"/>
  <path id="path120" d="  M 135.34023,181.27235   L 135.34023,169.13864   L 137.14032,169.13864   L 137.14032,181.27235   L 135.34023,181.27235  z " clip-path="url(#clipWmfPath1)" style="fill:none;stroke:#000000;stroke-width:0.066670068px;stroke-linecap:round;stroke-linejoin:round;stroke-miterlimit:4;stroke-dasharray:none;stroke-opacity:1;"/>
  <path id="path122" d="  M 131.80672,181.27235   L 131.80672,169.13864   L 133.60681,169.13864   L 133.60681,181.27235   L 131.80672,181.27235  z " clip-path="url(#clipWmfPath1)" style="fill:#000000;fill-rule:evenodd;fill-opacity:1;stroke:none;"/>
  <path id="path124" d="  M 131.80672,181.27235   L 131.80672,169.13864   L 133.60681,169.13864   L 133.60681,181.27235   L 131.80672,181.27235  z " clip-path="url(#clipWmfPath1)" style="fill:none;stroke:#000000;stroke-width:0.066670068px;stroke-linecap:round;stroke-linejoin:round;stroke-miterlimit:4;stroke-dasharray:none;stroke-opacity:1;"/>
  <path id="path126" d="  M 128.33988,181.27235   L 128.33988,169.13864   L 130.13997,169.13864   L 130.13997,181.27235   L 128.33988,181.27235  z " clip-path="url(#clipWmfPath1)" style="fill:#000000;fill-rule:evenodd;fill-opacity:1;stroke:none;"/>
  <path id="path128" d="  M 128.33988,181.27235   L 128.33988,169.13864   L 130.13997,169.13864   L 130.13997,181.27235   L 128.33988,181.27235  z " clip-path="url(#clipWmfPath1)" style="fill:none;stroke:#000000;stroke-width:0.066670068px;stroke-linecap:round;stroke-linejoin:round;stroke-miterlimit:4;stroke-dasharray:none;stroke-opacity:1;"/>
  <path id="path130" d="  M 124.80636,181.27235   L 124.80636,169.13864   L 126.60645,169.13864   L 126.60645,181.27235   L 124.80636,181.27235  z " clip-path="url(#clipWmfPath1)" style="fill:#000000;fill-rule:evenodd;fill-opacity:1;stroke:none;"/>
  <path id="path132" d="  M 124.80636,181.27235   L 124.80636,169.13864   L 126.60645,169.13864   L 126.60645,181.27235   L 124.80636,181.27235  z " clip-path="url(#clipWmfPath1)" style="fill:none;stroke:#000000;stroke-width:0.066670068px;stroke-linecap:round;stroke-linejoin:round;stroke-miterlimit:4;stroke-dasharray:none;stroke-opacity:1;"/>
  <path id="path134" d="  M 121.33952,181.27235   L 121.33952,169.13864   L 123.13961,169.13864   L 123.13961,181.27235   L 121.33952,181.27235  z " clip-path="url(#clipWmfPath1)" style="fill:#000000;fill-rule:evenodd;fill-opacity:1;stroke:none;"/>
  <path id="path136" d="  M 121.33952,181.27235   L 121.33952,169.13864   L 123.13961,169.13864   L 123.13961,181.27235   L 121.33952,181.27235  z " clip-path="url(#clipWmfPath1)" style="fill:none;stroke:#000000;stroke-width:0.066670068px;stroke-linecap:round;stroke-linejoin:round;stroke-miterlimit:4;stroke-dasharray:none;stroke-opacity:1;"/>
  <path id="path138" d="  M 117.80601,181.27235   L 117.80601,169.13864   L 119.6061,169.13864   L 119.6061,181.27235   L 117.80601,181.27235  z " clip-path="url(#clipWmfPath1)" style="fill:#000000;fill-rule:evenodd;fill-opacity:1;stroke:none;"/>
  <path id="path140" d="  M 117.80601,181.27235   L 117.80601,169.13864   L 119.6061,169.13864   L 119.6061,181.27235   L 117.80601,181.27235  z " clip-path="url(#clipWmfPath1)" style="fill:none;stroke:#000000;stroke-width:0.066670068px;stroke-linecap:round;stroke-linejoin:round;stroke-miterlimit:4;stroke-dasharray:none;stroke-opacity:1;"/>
  <path id="path142" d="  M 114.33916,181.27235   L 114.33916,169.13864   L 116.13925,169.13864   L 116.13925,181.27235   L 114.33916,181.27235  z " clip-path="url(#clipWmfPath1)" style="fill:#000000;fill-rule:evenodd;fill-opacity:1;stroke:none;"/>
  <path id="path144" d="  M 114.33916,181.27235   L 114.33916,169.13864   L 116.13925,169.13864   L 116.13925,181.27235   L 114.33916,181.27235  z " clip-path="url(#clipWmfPath1)" style="fill:none;stroke:#000000;stroke-width:0.066670068px;stroke-linecap:round;stroke-linejoin:round;stroke-miterlimit:4;stroke-dasharray:none;stroke-opacity:1;"/>
  <path id="path146" d="  M 110.80565,181.27235   L 110.80565,169.13864   L 112.60574,169.13864   L 112.60574,181.27235   L 110.80565,181.27235  z " clip-path="url(#clipWmfPath1)" style="fill:#000000;fill-rule:evenodd;fill-opacity:1;stroke:none;"/>
  <path id="path148" d="  M 110.80565,181.27235   L 110.80565,169.13864   L 112.60574,169.13864   L 112.60574,181.27235   L 110.80565,181.27235  z " clip-path="url(#clipWmfPath1)" style="fill:none;stroke:#000000;stroke-width:0.066670068px;stroke-linecap:round;stroke-linejoin:round;stroke-miterlimit:4;stroke-dasharray:none;stroke-opacity:1;"/>
  <path id="path150" d="  M 107.27214,181.27235   L 107.27214,169.13864   L 109.07223,169.13864   L 109.07223,181.27235   L 107.27214,181.27235  z " clip-path="url(#clipWmfPath1)" style="fill:#000000;fill-rule:evenodd;fill-opacity:1;stroke:none;"/>
  <path id="path152" d="  M 107.27214,181.27235   L 107.27214,169.13864   L 109.07223,169.13864   L 109.07223,181.27235   L 107.27214,181.27235  z " clip-path="url(#clipWmfPath1)" style="fill:none;stroke:#000000;stroke-width:0.066670068px;stroke-linecap:round;stroke-linejoin:round;stroke-miterlimit:4;stroke-dasharray:none;stroke-opacity:1;"/>
  <path id="path154" d="  M 103.80529,181.27235   L 103.80529,169.13864   L 105.60538,169.13864   L 105.60538,181.27235   L 103.80529,181.27235  z " clip-path="url(#clipWmfPath1)" style="fill:#000000;fill-rule:evenodd;fill-opacity:1;stroke:none;"/>
  <path id="path156" d="  M 103.80529,181.27235   L 103.80529,169.13864   L 105.60538,169.13864   L 105.60538,181.27235   L 103.80529,181.27235  z " clip-path="url(#clipWmfPath1)" style="fill:none;stroke:#000000;stroke-width:0.066670068px;stroke-linecap:round;stroke-linejoin:round;stroke-miterlimit:4;stroke-dasharray:none;stroke-opacity:1;"/>
  <path id="path158" d="  M 100.27178,181.27235   L 100.27178,169.13864   L 102.07187,169.13864   L 102.07187,181.27235   L 100.27178,181.27235  z " clip-path="url(#clipWmfPath1)" style="fill:#000000;fill-rule:evenodd;fill-opacity:1;stroke:none;"/>
  <path id="path160" d="  M 100.27178,181.27235   L 100.27178,169.13864   L 102.07187,169.13864   L 102.07187,181.27235   L 100.27178,181.27235  z " clip-path="url(#clipWmfPath1)" style="fill:none;stroke:#000000;stroke-width:0.066670068px;stroke-linecap:round;stroke-linejoin:round;stroke-miterlimit:4;stroke-dasharray:none;stroke-opacity:1;"/>
  <path id="path162" d="  M 96.804935,181.27235   L 96.804935,169.13864   L 98.605027,169.13864   L 98.605027,181.27235   L 96.804935,181.27235  z " clip-path="url(#clipWmfPath1)" style="fill:#000000;fill-rule:evenodd;fill-opacity:1;stroke:none;"/>
  <path id="path164" d="  M 96.804935,181.27235   L 96.804935,169.13864   L 98.605027,169.13864   L 98.605027,181.27235   L 96.804935,181.27235  z " clip-path="url(#clipWmfPath1)" style="fill:none;stroke:#000000;stroke-width:0.066670068px;stroke-linecap:round;stroke-linejoin:round;stroke-miterlimit:4;stroke-dasharray:none;stroke-opacity:1;"/>
  <path id="path166" d="  M 93.271421,181.27235   L 93.271421,169.13864   L 95.071513,169.13864   L 95.071513,181.27235   L 93.271421,181.27235  z " clip-path="url(#clipWmfPath1)" style="fill:#000000;fill-rule:evenodd;fill-opacity:1;stroke:none;"/>
  <path id="path168" d="  M 93.271421,181.27235   L 93.271421,169.13864   L 95.071513,169.13864   L 95.071513,181.27235   L 93.271421,181.27235  z " clip-path="url(#clipWmfPath1)" style="fill:none;stroke:#000000;stroke-width:0.066670068px;stroke-linecap:round;stroke-linejoin:round;stroke-miterlimit:4;stroke-dasharray:none;stroke-opacity:1;"/>
  <path id="path170" d="  M 89.804578,181.27235   L 89.804578,169.13864   L 91.60467,169.13864   L 91.60467,181.27235   L 89.804578,181.27235  z " clip-path="url(#clipWmfPath1)" style="fill:#000000;fill-rule:evenodd;fill-opacity:1;stroke:none;"/>
  <path id="path172" d="  M 89.804578,181.27235   L 89.804578,169.13864   L 91.60467,169.13864   L 91.60467,181.27235   L 89.804578,181.27235  z " clip-path="url(#clipWmfPath1)" style="fill:none;stroke:#000000;stroke-width:0.066670068px;stroke-linecap:round;stroke-linejoin:round;stroke-miterlimit:4;stroke-dasharray:none;stroke-opacity:1;"/>
  <path id="path174" d="  M 86.271064,181.27235   L 86.271064,169.13864   L 88.071156,169.13864   L 88.071156,181.27235   L 86.271064,181.27235  z " clip-path="url(#clipWmfPath1)" style="fill:#000000;fill-rule:evenodd;fill-opacity:1;stroke:none;"/>
  <path id="path176" d="  M 86.271064,181.27235   L 86.271064,169.13864   L 88.071156,169.13864   L 88.071156,181.27235   L 86.271064,181.27235  z " clip-path="url(#clipWmfPath1)" style="fill:none;stroke:#000000;stroke-width:0.066670068px;stroke-linecap:round;stroke-linejoin:round;stroke-miterlimit:4;stroke-dasharray:none;stroke-opacity:1;"/>
  <path id="path178" d="  M 82.804221,181.27235   L 82.804221,169.13864   L 84.604313,169.13864   L 84.604313,181.27235   L 82.804221,181.27235  z " clip-path="url(#clipWmfPath1)" style="fill:#000000;fill-rule:evenodd;fill-opacity:1;stroke:none;"/>
  <path id="path180" d="  M 82.804221,181.27235   L 82.804221,169.13864   L 84.604313,169.13864   L 84.604313,181.27235   L 82.804221,181.27235  z " clip-path="url(#clipWmfPath1)" style="fill:none;stroke:#000000;stroke-width:0.066670068px;stroke-linecap:round;stroke-linejoin:round;stroke-miterlimit:4;stroke-dasharray:none;stroke-opacity:1;"/>
  <path id="path182" d="  M 79.270708,181.27235   L 79.270708,169.13864   L 81.070799,169.13864   L 81.070799,181.27235   L 79.270708,181.27235  z " clip-path="url(#clipWmfPath1)" style="fill:#000000;fill-rule:evenodd;fill-opacity:1;stroke:none;"/>
  <path id="path184" d="  M 79.270708,181.27235   L 79.270708,169.13864   L 81.070799,169.13864   L 81.070799,181.27235   L 79.270708,181.27235  z " clip-path="url(#clipWmfPath1)" style="fill:none;stroke:#000000;stroke-width:0.066670068px;stroke-linecap:round;stroke-linejoin:round;stroke-miterlimit:4;stroke-dasharray:none;stroke-opacity:1;"/>
  <path id="path186" d="  M 75.803864,181.27235   L 75.803864,169.13864   L 77.603956,169.13864   L 77.603956,181.27235   L 75.803864,181.27235  z " clip-path="url(#clipWmfPath1)" style="fill:#000000;fill-rule:evenodd;fill-opacity:1;stroke:none;"/>
  <path id="path188" d="  M 75.803864,181.27235   L 75.803864,169.13864   L 77.603956,169.13864   L 77.603956,181.27235   L 75.803864,181.27235  z " clip-path="url(#clipWmfPath1)" style="fill:none;stroke:#000000;stroke-width:0.066670068px;stroke-linecap:round;stroke-linejoin:round;stroke-miterlimit:4;stroke-dasharray:none;stroke-opacity:1;"/>
  <path id="path190" d="  M 72.270351,181.27235   L 72.270351,169.13864   L 74.070443,169.13864   L 74.070443,181.27235   L 72.270351,181.27235  z " clip-path="url(#clipWmfPath1)" style="fill:#000000;fill-rule:evenodd;fill-opacity:1;stroke:none;"/>
  <path id="path192" d="  M 72.270351,181.27235   L 72.270351,169.13864   L 74.070443,169.13864   L 74.070443,181.27235   L 72.270351,181.27235  z " clip-path="url(#clipWmfPath1)" style="fill:none;stroke:#000000;stroke-width:0.066670068px;stroke-linecap:round;stroke-linejoin:round;stroke-miterlimit:4;stroke-dasharray:none;stroke-opacity:1;"/>
  <path id="path194" d="  M 68.803507,181.27235   L 68.803507,169.13864   L 70.603599,169.13864   L 70.603599,181.27235   L 68.803507,181.27235  z " clip-path="url(#clipWmfPath1)" style="fill:#000000;fill-rule:evenodd;fill-opacity:1;stroke:none;"/>
  <path id="path196" d="  M 68.803507,181.27235   L 68.803507,169.13864   L 70.603599,169.13864   L 70.603599,181.27235   L 68.803507,181.27235  z " clip-path="url(#clipWmfPath1)" style="fill:none;stroke:#000000;stroke-width:0.066670068px;stroke-linecap:round;stroke-linejoin:round;stroke-miterlimit:4;stroke-dasharray:none;stroke-opacity:1;"/>
  <path id="path198" d="  M 65.269994,181.27235   L 65.269994,169.13864   L 67.070086,169.13864   L 67.070086,181.27235   L 65.269994,181.27235  z " clip-path="url(#clipWmfPath1)" style="fill:#000000;fill-rule:evenodd;fill-opacity:1;stroke:none;"/>
  <path id="path200" d="  M 65.269994,181.27235   L 65.269994,169.13864   L 67.070086,169.13864   L 67.070086,181.27235   L 65.269994,181.27235  z " clip-path="url(#clipWmfPath1)" style="fill:none;stroke:#000000;stroke-width:0.066670068px;stroke-linecap:round;stroke-linejoin:round;stroke-miterlimit:4;stroke-dasharray:none;stroke-opacity:1;"/>
  <path id="path202" d="  M 61.803151,181.27235   L 61.803151,169.13864   L 63.603242,169.13864   L 63.603242,181.27235   L 61.803151,181.27235  z " clip-path="url(#clipWmfPath1)" style="fill:#000000;fill-rule:evenodd;fill-opacity:1;stroke:none;"/>
  <path id="path204" d="  M 61.803151,181.27235   L 61.803151,169.13864   L 63.603242,169.13864   L 63.603242,181.27235   L 61.803151,181.27235  z " clip-path="url(#clipWmfPath1)" style="fill:none;stroke:#000000;stroke-width:0.066670068px;stroke-linecap:round;stroke-linejoin:round;stroke-miterlimit:4;stroke-dasharray:none;stroke-opacity:1;"/>
  <path id="path206" d="  M 58.269637,181.27235   L 58.269637,169.13864   L 60.069729,169.13864   L 60.069729,181.27235   L 58.269637,181.27235  z " clip-path="url(#clipWmfPath1)" style="fill:#000000;fill-rule:evenodd;fill-opacity:1;stroke:none;"/>
  <path id="path208" d="  M 58.269637,181.27235   L 58.269637,169.13864   L 60.069729,169.13864   L 60.069729,181.27235   L 58.269637,181.27235  z " clip-path="url(#clipWmfPath1)" style="fill:none;stroke:#000000;stroke-width:0.066670068px;stroke-linecap:round;stroke-linejoin:round;stroke-miterlimit:4;stroke-dasharray:none;stroke-opacity:1;"/>
  <path id="path210" d="  M 54.802794,181.27235   L 54.802794,169.13864   L 56.602885,169.13864   L 56.602885,181.27235   L 54.802794,181.27235  z " clip-path="url(#clipWmfPath1)" style="fill:#000000;fill-rule:evenodd;fill-opacity:1;stroke:none;"/>
  <path id="path212" d="  M 54.802794,181.27235   L 54.802794,169.13864   L 56.602885,169.13864   L 56.602885,181.27235   L 54.802794,181.27235  z " clip-path="url(#clipWmfPath1)" style="fill:none;stroke:#000000;stroke-width:0.066670068px;stroke-linecap:round;stroke-linejoin:round;stroke-miterlimit:4;stroke-dasharray:none;stroke-opacity:1;"/>
  <path id="path214" d="  M 51.26928,181.27235   L 51.26928,169.13864   L 53.069372,169.13864   L 53.069372,181.27235   L 51.26928,181.27235  z " clip-path="url(#clipWmfPath1)" style="fill:#000000;fill-rule:evenodd;fill-opacity:1;stroke:none;"/>
  <path id="path216" d="  M 51.26928,181.27235   L 51.26928,169.13864   L 53.069372,169.13864   L 53.069372,181.27235   L 51.26928,181.27235  z " clip-path="url(#clipWmfPath1)" style="fill:none;stroke:#000000;stroke-width:0.066670068px;stroke-linecap:round;stroke-linejoin:round;stroke-miterlimit:4;stroke-dasharray:none;stroke-opacity:1;"/>
  <path id="path218" d="  M 47.802437,181.27235   L 47.802437,169.13864   L 49.602529,169.13864   L 49.602529,181.27235   L 47.802437,181.27235  z " clip-path="url(#clipWmfPath1)" style="fill:#000000;fill-rule:evenodd;fill-opacity:1;stroke:none;"/>
  <path id="path220" d="  M 47.802437,181.27235   L 47.802437,169.13864   L 49.602529,169.13864   L 49.602529,181.27235   L 47.802437,181.27235  z " clip-path="url(#clipWmfPath1)" style="fill:none;stroke:#000000;stroke-width:0.066670068px;stroke-linecap:round;stroke-linejoin:round;stroke-miterlimit:4;stroke-dasharray:none;stroke-opacity:1;"/>
  <path id="path222" d="  M 44.268923,181.27235   L 44.268923,169.13864   L 46.069015,169.13864   L 46.069015,181.27235   L 44.268923,181.27235  z " clip-path="url(#clipWmfPath1)" style="fill:#000000;fill-rule:evenodd;fill-opacity:1;stroke:none;"/>
  <path id="path224" d="  M 44.268923,181.27235   L 44.268923,169.13864   L 46.069015,169.13864   L 46.069015,181.27235   L 44.268923,181.27235  z " clip-path="url(#clipWmfPath1)" style="fill:none;stroke:#000000;stroke-width:0.066670068px;stroke-linecap:round;stroke-linejoin:round;stroke-miterlimit:4;stroke-dasharray:none;stroke-opacity:1;"/>
  <path id="path226" d="  M 40.80208,181.27235   L 40.80208,169.13864   L 42.602172,169.13864   L 42.602172,181.27235   L 40.80208,181.27235  z " clip-path="url(#clipWmfPath1)" style="fill:#000000;fill-rule:evenodd;fill-opacity:1;stroke:none;"/>
  <path id="path228" d="  M 40.80208,181.27235   L 40.80208,169.13864   L 42.602172,169.13864   L 42.602172,181.27235   L 40.80208,181.27235  z " clip-path="url(#clipWmfPath1)" style="fill:none;stroke:#000000;stroke-width:0.066670068px;stroke-linecap:round;stroke-linejoin:round;stroke-miterlimit:4;stroke-dasharray:none;stroke-opacity:1;"/>
  <path id="path230" d="  M 37.268567,181.27235   L 37.268567,169.13864   L 39.068658,169.13864   L 39.068658,181.27235   L 37.268567,181.27235  z " clip-path="url(#clipWmfPath1)" style="fill:#000000;fill-rule:evenodd;fill-opacity:1;stroke:none;"/>
  <path id="path232" d="  M 37.268567,181.27235   L 37.268567,169.13864   L 39.068658,169.13864   L 39.068658,181.27235   L 37.268567,181.27235  z " clip-path="url(#clipWmfPath1)" style="fill:none;stroke:#000000;stroke-width:0.066670068px;stroke-linecap:round;stroke-linejoin:round;stroke-miterlimit:4;stroke-dasharray:none;stroke-opacity:1;"/>
  <path id="path234" d="  M 33.801723,181.27235   L 33.801723,169.13864   L 35.601815,169.13864   L 35.601815,181.27235   L 33.801723,181.27235  z " clip-path="url(#clipWmfPath1)" style="fill:#000000;fill-rule:evenodd;fill-opacity:1;stroke:none;"/>
  <path id="path236" d="  M 33.801723,181.27235   L 33.801723,169.13864   L 35.601815,169.13864   L 35.601815,181.27235   L 33.801723,181.27235  z " clip-path="url(#clipWmfPath1)" style="fill:none;stroke:#000000;stroke-width:0.066670068px;stroke-linecap:round;stroke-linejoin:round;stroke-miterlimit:4;stroke-dasharray:none;stroke-opacity:1;"/>
  <path id="path238" d="  M 30.26821,181.27235   L 30.26821,169.13864   L 32.068301,169.13864   L 32.068301,181.27235   L 30.26821,181.27235  z " clip-path="url(#clipWmfPath1)" style="fill:#000000;fill-rule:evenodd;fill-opacity:1;stroke:none;"/>
  <path id="path240" d="  M 30.26821,181.27235   L 30.26821,169.13864   L 32.068301,169.13864   L 32.068301,181.27235   L 30.26821,181.27235  z " clip-path="url(#clipWmfPath1)" style="fill:none;stroke:#000000;stroke-width:0.066670068px;stroke-linecap:round;stroke-linejoin:round;stroke-miterlimit:4;stroke-dasharray:none;stroke-opacity:1;"/>
  <path id="path242" d="  M 26.801366,181.27235   L 26.801366,169.13864   L 28.601458,169.13864   L 28.601458,181.27235   L 26.801366,181.27235  z " clip-path="url(#clipWmfPath1)" style="fill:#000000;fill-rule:evenodd;fill-opacity:1;stroke:none;"/>
  <path id="path244" d="  M 26.801366,181.27235   L 26.801366,169.13864   L 28.601458,169.13864   L 28.601458,181.27235   L 26.801366,181.27235  z " clip-path="url(#clipWmfPath1)" style="fill:none;stroke:#000000;stroke-width:0.066670068px;stroke-linecap:round;stroke-linejoin:round;stroke-miterlimit:4;stroke-dasharray:none;stroke-opacity:1;"/>
  <path id="path246" d="  M 23.267853,181.27235   L 23.267853,169.13864   L 25.067945,169.13864   L 25.067945,181.27235   L 23.267853,181.27235  z " clip-path="url(#clipWmfPath1)" style="fill:#000000;fill-rule:evenodd;fill-opacity:1;stroke:none;"/>
  <path id="path248" d="  M 23.267853,181.27235   L 23.267853,169.13864   L 25.067945,169.13864   L 25.067945,181.27235   L 23.267853,181.27235  z " clip-path="url(#clipWmfPath1)" style="fill:none;stroke:#000000;stroke-width:0.066670068px;stroke-linecap:round;stroke-linejoin:round;stroke-miterlimit:4;stroke-dasharray:none;stroke-opacity:1;"/>
  <g id="g250" clip-path="url(#clipWmfPath1)"/>
  <g id="g270" clip-path="url(#clipWmfPath1)">
    <text id="text268" y="8.874813" x="0.000000" transform="matrix(1.000000,-0.000000,0.000000,1.000000,170.942047,151.671425)" style="font-size:9.312500px;font-style:normal;font-variant:normal;font-weight:400;font-stretch:Condensed;line-height:125.000000%;letter-spacing:0px;word-spacing:0px;fill:#000000;fill-opacity:1;stroke:none;font-family:Helvetica-Narrow;text-align:start;text-anchor:start;" xml:space="preserve"><tspan id="tspan266" y="8.874813" x="0.000000"><tspan id="tspan252" style="fill:#000000;font-size:9.312500px;font-style:normal;font-variant:normal;font-weight:400;font-stretch:Condensed;font-family:Helvetica-Narrow;" dy="0.000000" dx="0.000000">M</tspan><tspan id="tspan254" style="fill:#000000;font-size:9.312500px;font-style:normal;font-variant:normal;font-weight:400;font-stretch:Condensed;font-family:Helvetica-Narrow;" dy="0.000000" dx="-0.156925">H</tspan><tspan id="tspan256" style="fill:#000000;font-size:9.312500px;font-style:normal;font-variant:normal;font-weight:400;font-stretch:Condensed;font-family:Helvetica-Narrow;" dy="0.000000" dx="0.117263">1</tspan><tspan id="tspan258" style="fill:#000000;font-size:9.312500px;font-style:normal;font-variant:normal;font-weight:400;font-stretch:Condensed;font-family:Helvetica-Narrow;" dy="0.000000" dx="0.050362">4</tspan><tspan id="tspan260" style="fill:#000000;font-size:9.312500px;font-style:normal;font-variant:normal;font-weight:400;font-stretch:Condensed;font-family:Helvetica-Narrow;" dy="0.000000" dx="0.050362">6</tspan><tspan id="tspan262" style="fill:#000000;font-size:9.312500px;font-style:normal;font-variant:normal;font-weight:400;font-stretch:Condensed;font-family:Helvetica-Narrow;" dy="0.000000" dx="0.050362">6</tspan><tspan id="tspan264" style="fill:#000000;font-size:9.312500px;font-style:normal;font-variant:normal;font-weight:400;font-stretch:Condensed;font-family:Helvetica-Narrow;" dy="0.000000" dx="0.050362">A</tspan></tspan></text>
  </g>
  <g id="g272" clip-path="url(#clipWmfPath1)"/>
  <g id="g322" clip-path="url(#clipWmfPath1)">
    <text id="text282" y="10.249313" x="0.000000" transform="matrix(1.000000,-0.000000,0.000000,1.000000,51.869311,4.933488)" style="font-size:10.687500px;font-style:normal;font-variant:normal;font-weight:400;font-stretch:Condensed;line-height:125.000000%;letter-spacing:0px;word-spacing:0px;fill:#000000;fill-opacity:1;stroke:none;font-family:Helvetica-Narrow;text-align:start;text-anchor:start;" xml:space="preserve"><tspan id="tspan280" y="10.249313" x="0.000000"><tspan id="tspan274" style="fill:#000000;font-size:10.687500px;font-style:normal;font-variant:normal;font-weight:400;font-stretch:Condensed;font-family:Helvetica-Narrow;" dy="0.000000" dx="0.000000">C</tspan><tspan id="tspan276" style="fill:#000000;font-size:10.687500px;font-style:normal;font-variant:normal;font-weight:400;font-stretch:Condensed;font-family:Helvetica-Narrow;" dy="0.000000" dx="0.083568">P</tspan><tspan id="tspan278" style="fill:#000000;font-size:10.687500px;font-style:normal;font-variant:normal;font-weight:400;font-stretch:Condensed;font-family:Helvetica-Narrow;" dy="0.000000" dx="-0.102195">U</tspan></tspan></text>
    <text id="text304" y="10.249313" x="26.868036" transform="matrix(1.000000,-0.000000,0.000000,1.000000,51.869311,4.933488)" style="font-size:10.687500px;font-style:normal;font-variant:normal;font-weight:400;font-stretch:Condensed;line-height:125.000000%;letter-spacing:0px;word-spacing:0px;fill:#000000;fill-opacity:1;stroke:none;font-family:Helvetica-Narrow;text-align:start;text-anchor:start;" xml:space="preserve"><tspan id="tspan302" y="10.249313" x="26.868036"><tspan id="tspan284" style="fill:#000000;font-size:10.687500px;font-style:normal;font-variant:normal;font-weight:400;font-stretch:Condensed;font-family:Helvetica-Narrow;" dy="0.000000" dx="0.000000">P</tspan><tspan id="tspan286" style="fill:#000000;font-size:10.687500px;font-style:normal;font-variant:normal;font-weight:400;font-stretch:Condensed;font-family:Helvetica-Narrow;" dy="0.000000" dx="-0.102195">r</tspan><tspan id="tspan288" style="fill:#000000;font-size:10.687500px;font-style:normal;font-variant:normal;font-weight:400;font-stretch:Condensed;font-family:Helvetica-Narrow;" dy="0.000000" dx="-0.040633">o</tspan><tspan id="tspan290" style="fill:#000000;font-size:10.687500px;font-style:normal;font-variant:normal;font-weight:400;font-stretch:Condensed;font-family:Helvetica-Narrow;" dy="0.000000" dx="-0.063013">c</tspan><tspan id="tspan292" style="fill:#000000;font-size:10.687500px;font-style:normal;font-variant:normal;font-weight:400;font-stretch:Condensed;font-family:Helvetica-Narrow;" dy="0.000000" dx="0.951730">e</tspan><tspan id="tspan294" style="fill:#000000;font-size:10.687500px;font-style:normal;font-variant:normal;font-weight:400;font-stretch:Condensed;font-family:Helvetica-Narrow;" dy="0.000000" dx="-0.063013">s</tspan><tspan id="tspan296" style="fill:#000000;font-size:10.687500px;font-style:normal;font-variant:normal;font-weight:400;font-stretch:Condensed;font-family:Helvetica-Narrow;" dy="0.000000" dx="0.951730">s</tspan><tspan id="tspan298" style="fill:#000000;font-size:10.687500px;font-style:normal;font-variant:normal;font-weight:400;font-stretch:Condensed;font-family:Helvetica-Narrow;" dy="0.000000" dx="0.951730">o</tspan><tspan id="tspan300" style="fill:#000000;font-size:10.687500px;font-style:normal;font-variant:normal;font-weight:400;font-stretch:Condensed;font-family:Helvetica-Narrow;" dy="0.000000" dx="-0.063013">r</tspan></tspan></text>
    <text id="text320" y="10.249313" x="80.670779" transform="matrix(1.000000,-0.000000,0.000000,1.000000,51.869311,4.933488)" style="font-size:10.687500px;font-style:normal;font-variant:normal;font-weight:400;font-stretch:Condensed;line-height:125.000000%;letter-spacing:0px;word-spacing:0px;fill:#000000;fill-opacity:1;stroke:none;font-family:Helvetica-Narrow;text-align:start;text-anchor:start;" xml:space="preserve"><tspan id="tspan318" y="10.249313" x="80.670779"><tspan id="tspan306" style="fill:#000000;font-size:10.687500px;font-style:normal;font-variant:normal;font-weight:400;font-stretch:Condensed;font-family:Helvetica-Narrow;" dy="0.000000" dx="0.000000">M</tspan><tspan id="tspan308" style="fill:#000000;font-size:10.687500px;font-style:normal;font-variant:normal;font-weight:400;font-stretch:Condensed;font-family:Helvetica-Narrow;" dy="0.000000" dx="0.044387">o</tspan><tspan id="tspan310" style="fill:#000000;font-size:10.687500px;font-style:normal;font-variant:normal;font-weight:400;font-stretch:Condensed;font-family:Helvetica-Narrow;" dy="0.000000" dx="-0.063013">d</tspan><tspan id="tspan312" style="fill:#000000;font-size:10.687500px;font-style:normal;font-variant:normal;font-weight:400;font-stretch:Condensed;font-family:Helvetica-Narrow;" dy="0.000000" dx="-0.063013">u</tspan><tspan id="tspan314" style="fill:#000000;font-size:10.687500px;font-style:normal;font-variant:normal;font-weight:400;font-stretch:Condensed;font-family:Helvetica-Narrow;" dy="0.000000" dx="-0.063013">l</tspan><tspan id="tspan316" style="fill:#000000;font-size:10.687500px;font-style:normal;font-variant:normal;font-weight:400;font-stretch:Condensed;font-family:Helvetica-Narrow;" dy="0.000000" dx="-0.001451">e</tspan></tspan></text>
  </g>
  <path id="path324" d="  M 184.4094,109.27009   L 125.40639,109.27009   L 125.40639,49.868231   L 179.47582,49.868231   L 184.4094,54.801719   L 184.4094,109.27009  z " clip-path="url(#clipWmfPath1)" style="fill:#000000;fill-rule:nonzero;fill-opacity:1;stroke:none;"/>
  <path id="path326" d="  M 184.4094,109.27009   L 125.40639,109.27009   L 125.40639,49.868231   L 179.47582,49.868231   L 184.4094,54.801719   L 184.4094,109.27009  z " clip-path="url(#clipWmfPath1)" style="fill:none;stroke:#000000;stroke-width:0.066670068px;stroke-linecap:round;stroke-linejoin:round;stroke-miterlimit:4;stroke-dasharray:none;stroke-opacity:1;"/>
  <path id="path328" d="  M 157.40802,79.602497   L 157.20801,80.53586   L 156.74132,81.335885   L 155.94128,81.802566   L 155.0079,82.002572   L 154.00785,81.802566   L 153.20781,81.335885   L 152.67445,80.53586   L 152.47444,79.602497   L 152.67445,78.669134   L 153.20781,77.935778   L 154.00785,77.402428   L 155.0079,77.202422   L 155.94128,77.402428   L 156.74132,77.935778   L 157.20801,78.669134   L 157.40802,79.602497  z " clip-path="url(#clipWmfPath1)" style="fill:#ffffff;fill-rule:nonzero;fill-opacity:1;stroke:none;"/>
  <path id="path330" d="  M 157.40802,79.602497   L 157.20801,80.53586   L 156.74132,81.335885   L 155.94128,81.802566   L 155.0079,82.002572   L 154.00785,81.802566   L 153.20781,81.335885   L 152.67445,80.53586   L 152.47444,79.602497   L 152.67445,78.669134   L 153.20781,77.935778   L 154.00785,77.402428   L 155.0079,77.202422   L 155.94128,77.402428   L 156.74132,77.935778   L 157.20801,78.669134   L 157.40802,79.602497  z " clip-path="url(#clipWmfPath1)" style="fill:none;stroke:#ffffff;stroke-width:0.066670068px;stroke-linecap:round;stroke-linejoin:round;stroke-miterlimit:4;stroke-dasharray:none;stroke-opacity:1;"/>
  <path id="path332" d="  M 133.07345,93.202924   L 131.94006,93.136255   L 130.80667,92.86958   L 128.93991,91.936217   L 127.6065,90.669511   L 127.27315,89.869486   L 127.13981,89.069461   L 127.13981,69.668852   L 127.27315,68.868827   L 127.6065,68.202139   L 128.93991,67.068771   L 130.80667,66.268745   L 133.07345,66.00207   L 176.74234,66.00207   L 179.00913,66.335414   L 180.87589,67.135439   L 181.60926,67.735458   L 182.20929,68.402146   L 182.54264,69.135502   L 182.67598,69.935527   L 182.67598,89.269467   L 182.54264,90.069492   L 182.20929,90.802848   L 181.60926,91.469536   L 180.87589,92.069555   L 179.00913,92.86958   L 176.74234,93.202924   L 133.07345,93.202924  z " clip-path="url(#clipWmfPath1)" style="fill:#ffffff;fill-rule:nonzero;fill-opacity:1;stroke:none;"/>
  <path id="path334" d="  M 176.74234,93.736274   L 176.74234,92.669574   L 133.07345,92.669574   L 132.00673,92.602905   L 131.00668,92.402899   L 129.20659,91.536205   L 128.00653,90.402836   L 127.73985,89.736148   L 127.67318,89.002792   L 127.67318,69.735521   L 127.73985,69.002165   L 128.00653,68.535483   L 129.20659,67.535452   L 130.94001,66.735427   L 133.07345,66.535421   L 176.67567,66.535421   L 178.87579,66.802096   L 180.60921,67.602121   L 181.27591,68.135471   L 181.80927,68.668821   L 182.07595,69.26884   L 182.14262,70.002196   L 182.14262,89.202798   L 182.07595,89.936155   L 181.80927,90.536173   L 181.27591,91.069523   L 180.60921,91.602874   L 178.87579,92.402899   L 176.67567,92.669574   L 133.07345,92.669574   L 131.94006,92.602905   L 131.94006,93.669605   L 133.07345,93.736274   L 176.80901,93.736274   L 179.14247,93.336261   L 181.14257,92.536236   L 181.94261,91.869549   L 182.60931,91.069523   L 183.00933,90.20283   L 183.20934,89.336136   L 183.20934,69.868858   L 183.00933,69.002165   L 182.60931,68.135471   L 181.94261,67.335446   L 181.14257,66.668758   L 179.14247,65.868733   L 176.80901,65.46872   L 133.07345,65.46872   L 130.67333,65.802064   L 128.67323,66.602089   L 127.20648,67.868796   L 126.80646,68.73549   L 126.60645,69.602183   L 126.60645,89.136129   L 126.80646,90.002823   L 127.20648,90.936186   L 128.67323,92.33623   L 130.60666,93.336261   L 131.87339,93.669605   L 133.07345,93.736274   L 176.74234,93.736274  z " clip-path="url(#clipWmfPath1)" style="fill:#000000;fill-rule:nonzero;fill-opacity:1;stroke:#000000;stroke-width:0.066670068px;stroke-linecap:round;stroke-linejoin:round;stroke-miterlimit:4;stroke-dasharray:none;stroke-opacity:1;"/>
  <g id="g336" clip-path="url(#clipWmfPath1)"/>
  <g id="g374" clip-path="url(#clipWmfPath1)">
    <text id="text372" y="10.249313" x="21.390639" transform="matrix(1.000000,-0.000000,0.000000,1.000000,134.606862,67.935464)" style="font-size:10.687500px;font-style:normal;font-variant:normal;font-weight:400;font-stretch:Condensed;line-height:112.284224%;letter-spacing:0px;word-spacing:0px;fill:#000000;fill-opacity:1;stroke:none;font-family:Helvetica-Narrow;text-align:center;text-anchor:middle;" xml:space="preserve"><tspan id="tspan352" y="10.249313" x="21.390639"><tspan id="tspan338" style="fill:#000000;font-size:10.687500px;font-style:normal;font-variant:normal;font-weight:400;font-stretch:Condensed;font-family:Helvetica-Narrow;" dy="0.000000" dx="0.000000">8</tspan><tspan id="tspan340" style="fill:#000000;font-size:10.687500px;font-style:normal;font-variant:normal;font-weight:400;font-stretch:Condensed;font-family:Helvetica-Narrow;" dy="0.000000" dx="-0.063013">0</tspan><tspan id="tspan342" style="fill:#000000;font-size:10.687500px;font-style:normal;font-variant:normal;font-weight:400;font-stretch:Condensed;font-family:Helvetica-Narrow;" dy="0.000000" dx="-0.063013">3</tspan><tspan id="tspan344" style="fill:#000000;font-size:10.687500px;font-style:normal;font-variant:normal;font-weight:400;font-stretch:Condensed;font-family:Helvetica-Narrow;" dy="0.000000" dx="-0.063013">8</tspan><tspan id="tspan346" style="fill:#000000;font-size:10.687500px;font-style:normal;font-variant:normal;font-weight:400;font-stretch:Condensed;font-family:Helvetica-Narrow;" dy="0.000000" dx="-0.063013">6</tspan><tspan id="tspan348" style="fill:#000000;font-size:10.687500px;font-style:normal;font-variant:normal;font-weight:400;font-stretch:Condensed;font-family:Helvetica-Narrow;" dy="0.000000" dx="-0.063013">S</tspan><tspan id="tspan350" style="fill:#000000;font-size:10.687500px;font-style:normal;font-variant:normal;font-weight:400;font-stretch:Condensed;font-family:Helvetica-Narrow;" dy="0.000000" dx="-0.102195">X</tspan></tspan><tspan id="tspan370" y="22.249689" x="21.297758"><tspan id="tspan354" style="fill:#000000;font-size:10.687500px;font-style:normal;font-variant:normal;font-weight:400;font-stretch:Condensed;font-family:Helvetica-Narrow;" dy="0.000000" dx="0.000000">C</tspan><tspan id="tspan356" style="fill:#000000;font-size:10.687500px;font-style:normal;font-variant:normal;font-weight:400;font-stretch:Condensed;font-family:Helvetica-Narrow;" dy="0.000000" dx="0.083568">X</tspan><tspan id="tspan358" style="fill:#000000;font-size:10.687500px;font-style:normal;font-variant:normal;font-weight:400;font-stretch:Condensed;font-family:Helvetica-Narrow;" dy="0.000000" dx="-0.102195">4</tspan><tspan id="tspan360" style="fill:#000000;font-size:10.687500px;font-style:normal;font-variant:normal;font-weight:400;font-stretch:Condensed;font-family:Helvetica-Narrow;" dy="0.000000" dx="-0.063013">8</tspan><tspan id="tspan362" style="fill:#000000;font-size:10.687500px;font-style:normal;font-variant:normal;font-weight:400;font-stretch:Condensed;font-family:Helvetica-Narrow;" dy="0.000000" dx="-0.063013">6</tspan><tspan id="tspan364" style="fill:#000000;font-size:10.687500px;font-style:normal;font-variant:normal;font-weight:400;font-stretch:Condensed;font-family:Helvetica-Narrow;" dy="0.000000" dx="-0.063013">S</tspan><tspan id="tspan366" style="fill:#000000;font-size:10.687500px;font-style:normal;font-variant:normal;font-weight:400;font-stretch:Condensed;font-family:Helvetica-Narrow;" dy="0.000000" dx="-0.102195">L</tspan><tspan id="tspan368" style="fill:#000000;font-size:10.687500px;font-style:normal;font-variant:normal;font-weight:400;font-stretch:Condensed;font-family:Helvetica-Narrow;" dy="0.000000" dx="-0.063013">C</tspan></tspan></text>
  </g>
  <path id="path376" d="  M 97.204955,58.135157   L 97.204955,105.80332   L 49.669199,105.80332   L 49.669199,58.135157   L 97.204955,58.135157  z " clip-path="url(#clipWmfPath1)" style="fill:#000000;fill-rule:nonzero;fill-opacity:1;stroke:none;"/>
  <path id="path378" d="  M 97.204955,58.135157   L 97.204955,105.80332   L 49.669199,105.80332   L 49.669199,58.135157   L 97.204955,58.135157  z " clip-path="url(#clipWmfPath1)" style="fill:none;stroke:#000000;stroke-width:0.066670068px;stroke-linecap:round;stroke-linejoin:round;stroke-miterlimit:4;stroke-dasharray:none;stroke-opacity:1;"/>
  <path id="path380" d="  M 91.93802,64.868702   L 91.93802,63.802001   L 90.737959,63.802001   L 90.737959,60.001882   L 89.937918,60.001882   L 89.871248,63.802001   L 89.004537,63.802001   L 89.004537,60.001882   L 88.204496,60.001882   L 88.204496,63.802001   L 87.204445,63.802001   L 87.204445,60.001882   L 86.337735,60.001882   L 86.337735,63.802001   L 85.471024,63.802001   L 85.471024,60.001882   L 84.604313,60.001882   L 84.604313,63.802001   L 83.737602,63.802001   L 83.737602,60.001882   L 82.937561,60.001882   L 82.937561,63.802001   L 81.93751,63.802001   L 81.93751,60.001882   L 81.004129,60.001882   L 81.004129,63.802001   L 80.070748,63.802001   L 80.070748,60.001882   L 79.204038,60.001882   L 79.204038,63.802001   L 78.403997,63.802001   L 78.403997,60.001882   L 77.470616,60.001882   L 77.470616,63.802001   L 76.670575,63.802001   L 76.670575,59.935213   L 75.803864,60.001882   L 75.803864,63.802001   L 74.803813,63.802001   L 74.803813,60.001882   L 73.937102,60.001882   L 73.937102,63.802001   L 72.937051,63.802001   L 72.937051,60.001882   L 72.003671,60.001882   L 72.003671,63.802001   L 71.20363,63.802001   L 71.20363,60.001882   L 70.403589,60.001882   L 70.403589,63.802001   L 69.336868,63.802001   L 69.336868,60.001882   L 68.470157,60.001882   L 68.470157,63.802001   L 67.603446,63.802001   L 67.603446,60.001882   L 66.736735,60.001882   L 66.736735,63.802001   L 65.870025,63.802001   L 65.870025,60.001882   L 64.936644,60.001882   L 64.936644,63.802001   L 64.003263,63.802001   L 64.003263,60.201889   L 63.069882,60.001882   L 63.069882,63.802001   L 62.203171,63.802001   L 62.203171,60.001882   L 61.33646,60.001882   L 61.33646,63.802001   L 60.469749,63.802001   L 60.469749,60.13522   L 59.603038,60.001882   L 59.603038,63.802001   L 58.669657,63.802001   L 58.669657,60.001882   L 57.802947,60.001882   L 57.802947,63.802001   L 56.936236,63.802001   L 56.936236,60.001882   L 56.069525,60.001882   L 56.069525,63.802001   L 55.002804,63.802001   L 55.002804,64.602027   L 51.20261,64.602027   L 51.20261,65.46872   L 55.002804,65.335383   L 55.002804,66.268745   L 51.20261,66.268745   L 51.20261,67.202108   L 55.002804,67.202108   L 55.002804,68.135471   L 51.20261,68.135471   L 51.20261,69.002165   L 55.002804,69.002165   L 55.002804,69.868858   L 51.20261,69.868858   L 51.20261,70.735552   L 55.002804,70.735552   L 55.002804,71.602246   L 51.20261,71.602246   L 51.20261,72.46894   L 55.002804,72.46894   L 55.002804,73.468971   L 51.20261,73.53564   L 51.20261,74.335665   L 55.002804,74.335665   L 55.002804,75.269028   L 51.20261,75.269028   L 51.20261,76.135722   L 55.002804,76.135722   L 55.002804,77.002416   L 51.20261,77.002416   L 51.20261,77.869109   L 55.002804,77.869109   L 55.002804,78.869141   L 51.20261,78.869141   L 51.20261,79.735835   L 55.002804,79.735835   L 55.002804,80.53586   L 51.20261,80.53586   L 51.20261,81.402554   L 55.002804,81.402554   L 55.002804,82.469254   L 51.20261,82.469254   L 51.20261,83.269279   L 55.002804,83.269279   L 55.002804,84.335979   L 51.20261,84.335979   L 51.20261,85.136004   L 55.002804,85.136004   L 55.002804,86.002698   L 51.20261,86.002698   L 51.0026,86.869392   L 55.002804,86.869392   L 55.002804,87.736086   L 51.20261,87.736086   L 51.20261,88.602779   L 55.002804,88.602779   L 55.002804,89.602811   L 51.20261,89.602811   L 51.20261,90.402836   L 55.002804,90.402836   L 55.002804,91.536205   L 51.20261,91.402867   L 51.20261,92.269561   L 55.002804,92.269561   L 55.002804,93.136255   L 51.20261,93.136255   L 51.20261,94.002949   L 55.002804,94.002949   L 55.002804,94.869643   L 51.20261,94.869643   L 51.20261,95.669668   L 55.002804,95.669668   L 55.002804,96.669699   L 51.20261,96.669699   L 51.20261,97.536393   L 55.002804,97.536393   L 55.002804,98.336418   L 51.20261,98.336418   L 51.20261,99.203112   L 55.002804,99.203112   L 55.002804,100.53649   L 56.136195,100.53649   L 56.136195,104.33661   L 56.936236,104.33661   L 56.936236,100.53649   L 57.802947,100.53649   L 57.802947,104.33661   L 58.669657,104.33661   L 58.669657,100.53649   L 59.603038,100.53649   L 59.603038,104.33661   L 60.469749,104.33661   L 60.469749,100.53649   L 61.33646,100.53649   L 61.33646,104.33661   L 62.203171,104.33661   L 62.203171,100.53649   L 63.069882,100.53649   L 63.069882,104.33661   L 64.003263,104.33661   L 64.003263,100.53649   L 64.936644,100.53649   L 64.936644,104.33661   L 65.803354,104.33661   L 65.803354,100.53649   L 66.736735,100.53649   L 66.736735,104.33661   L 67.603446,104.33661   L 67.603446,100.53649   L 68.470157,100.53649   L 68.470157,104.33661   L 69.336868,104.33661   L 69.336868,100.53649   L 70.136909,100.53649   L 70.003569,104.33661   L 71.00362,104.33661   L 71.00362,100.53649   L 72.003671,100.53649   L 72.003671,104.33661   L 72.937051,104.33661   L 72.937051,100.53649   L 73.937102,100.53649   L 73.937102,104.33661   L 74.803813,104.33661   L 74.870483,100.53649   L 75.603854,100.53649   L 75.603854,104.33661   L 76.470565,104.33661   L 76.470565,100.53649   L 77.470616,100.53649   L 77.470616,104.33661   L 78.403997,104.33661   L 78.403997,100.53649   L 79.204038,100.60316   L 79.204038,104.33661   L 80.070748,104.33661   L 80.070748,100.53649   L 81.004129,100.53649   L 81.004129,104.33661   L 81.87084,104.33661   L 81.87084,100.53649   L 82.937561,100.53649   L 82.937561,104.33661   L 83.737602,104.33661   L 83.737602,100.53649   L 84.604313,100.53649   L 84.604313,104.33661   L 85.471024,104.33661   L 85.471024,100.53649   L 86.337735,100.53649   L 86.337735,104.33661   L 87.204445,104.33661   L 87.204445,100.53649   L 88.204496,100.60316   L 88.204496,104.33661   L 89.004537,104.33661   L 89.004537,100.53649   L 89.937918,100.53649   L 89.937918,104.33661   L 90.804629,104.33661   L 90.804629,100.53649   L 91.93802,100.53649   L 91.93802,99.469787   L 95.738214,99.469787   L 95.738214,98.603093   L 91.93802,98.603093   L 91.93802,97.803068   L 95.738214,97.803068   L 95.738214,96.936374   L 91.93802,96.936374   L 91.93802,96.003012   L 95.738214,96.003012   L 95.738214,95.136318   L 91.93802,95.136318   L 91.93802,94.202955   L 95.738214,94.202955   L 95.738214,93.40293   L 91.93802,93.40293   L 91.93802,92.536236   L 95.738214,92.536236   L 95.738214,91.602874   L 91.93802,91.602874   L 91.93802,90.669511   L 95.738214,90.669511   L 95.738214,89.802817   L 91.93802,89.802817   L 91.93802,88.869454   L 95.738214,88.869454   L 95.738214,88.002761   L 91.93802,88.002761   L 91.93802,87.136067   L 95.738214,87.002729   L 95.738214,86.269373   L 91.93802,86.269373   L 91.93802,85.469348   L 95.738214,85.469348   L 95.738214,84.602654   L 91.93802,84.602654   L 91.93802,83.602623   L 95.738214,83.602623   L 95.738214,82.66926   L 91.93802,82.66926   L 91.93802,81.669229   L 95.738214,81.669229   L 95.738214,80.802535   L 91.93802,80.802535   L 91.93802,80.00251   L 95.738214,80.00251   L 95.738214,79.202485   L 91.93802,79.202485   L 91.93802,78.135784   L 95.738214,78.135784   L 95.738214,77.269091   L 91.93802,77.269091   L 91.93802,76.402397   L 95.738214,76.402397   L 95.738214,75.535703   L 91.93802,75.535703   L 91.93802,74.669009   L 95.738214,74.669009   L 95.738214,73.868984   L 91.93802,73.735646   L 91.93802,72.735615   L 95.738214,72.735615   L 95.738214,71.868921   L 91.93802,71.868921   L 91.93802,71.002227   L 95.738214,71.002227   L 95.738214,70.135533   L 91.93802,70.135533   L 91.93802,69.26884   L 95.738214,69.26884   L 95.738214,68.402146   L 91.93802,68.402146   L 91.93802,67.468783   L 95.738214,67.468783   L 95.738214,66.602089   L 91.93802,66.602089   L 91.93802,65.735395   L 95.738214,65.735395   L 95.738214,64.868702   L 91.93802,64.868702  z " clip-path="url(#clipWmfPath1)" style="fill:#ffffff;fill-rule:nonzero;fill-opacity:1;stroke:none;"/>
  <path id="path382" d="  M 91.93802,64.868702   L 91.93802,63.802001   L 90.737959,63.802001   L 90.737959,60.001882   L 89.937918,60.001882   L 89.871248,63.802001   L 89.004537,63.802001   L 89.004537,60.001882   L 88.204496,60.001882   L 88.204496,63.802001   L 87.204445,63.802001   L 87.204445,60.001882   L 86.337735,60.001882   L 86.337735,63.802001   L 85.471024,63.802001   L 85.471024,60.001882   L 84.604313,60.001882   L 84.604313,63.802001   L 83.737602,63.802001   L 83.737602,60.001882   L 82.937561,60.001882   L 82.937561,63.802001   L 81.93751,63.802001   L 81.93751,60.001882   L 81.004129,60.001882   L 81.004129,63.802001   L 80.070748,63.802001   L 80.070748,60.001882   L 79.204038,60.001882   L 79.204038,63.802001   L 78.403997,63.802001   L 78.403997,60.001882   L 77.470616,60.001882   L 77.470616,63.802001   L 76.670575,63.802001   L 76.670575,59.935213   L 75.803864,60.001882   L 75.803864,63.802001   L 74.803813,63.802001   L 74.803813,60.001882   L 73.937102,60.001882   L 73.937102,63.802001   L 72.937051,63.802001   L 72.937051,60.001882   L 72.003671,60.001882   L 72.003671,63.802001   L 71.20363,63.802001   L 71.20363,60.001882   L 70.403589,60.001882   L 70.403589,63.802001   L 69.336868,63.802001   L 69.336868,60.001882   L 68.470157,60.001882   L 68.470157,63.802001   L 67.603446,63.802001   L 67.603446,60.001882   L 66.736735,60.001882   L 66.736735,63.802001   L 65.870025,63.802001   L 65.870025,60.001882   L 64.936644,60.001882   L 64.936644,63.802001   L 64.003263,63.802001   L 64.003263,60.201889   L 63.069882,60.001882   L 63.069882,63.802001   L 62.203171,63.802001   L 62.203171,60.001882   L 61.33646,60.001882   L 61.33646,63.802001   L 60.469749,63.802001   L 60.469749,60.13522   L 59.603038,60.001882   L 59.603038,63.802001   L 58.669657,63.802001   L 58.669657,60.001882   L 57.802947,60.001882   L 57.802947,63.802001   L 56.936236,63.802001   L 56.936236,60.001882   L 56.069525,60.001882   L 56.069525,63.802001   L 55.002804,63.802001   L 55.002804,64.602027   L 51.20261,64.602027   L 51.20261,65.46872   L 55.002804,65.335383   L 55.002804,66.268745   L 51.20261,66.268745   L 51.20261,67.202108   L 55.002804,67.202108   L 55.002804,68.135471   L 51.20261,68.135471   L 51.20261,69.002165   L 55.002804,69.002165   L 55.002804,69.868858   L 51.20261,69.868858   L 51.20261,70.735552   L 55.002804,70.735552   L 55.002804,71.602246   L 51.20261,71.602246   L 51.20261,72.46894   L 55.002804,72.46894   L 55.002804,73.468971   L 51.20261,73.53564   L 51.20261,74.335665   L 55.002804,74.335665   L 55.002804,75.269028   L 51.20261,75.269028   L 51.20261,76.135722   L 55.002804,76.135722   L 55.002804,77.002416   L 51.20261,77.002416   L 51.20261,77.869109   L 55.002804,77.869109   L 55.002804,78.869141   L 51.20261,78.869141   L 51.20261,79.735835   L 55.002804,79.735835   L 55.002804,80.53586   L 51.20261,80.53586   L 51.20261,81.402554   L 55.002804,81.402554   L 55.002804,82.469254   L 51.20261,82.469254   L 51.20261,83.269279   L 55.002804,83.269279   L 55.002804,84.335979   L 51.20261,84.335979   L 51.20261,85.136004   L 55.002804,85.136004   L 55.002804,86.002698   L 51.20261,86.002698   L 51.0026,86.869392   L 55.002804,86.869392   L 55.002804,87.736086   L 51.20261,87.736086   L 51.20261,88.602779   L 55.002804,88.602779   L 55.002804,89.602811   L 51.20261,89.602811   L 51.20261,90.402836   L 55.002804,90.402836   L 55.002804,91.536205   L 51.20261,91.402867   L 51.20261,92.269561   L 55.002804,92.269561   L 55.002804,93.136255   L 51.20261,93.136255   L 51.20261,94.002949   L 55.002804,94.002949   L 55.002804,94.869643   L 51.20261,94.869643   L 51.20261,95.669668   L 55.002804,95.669668   L 55.002804,96.669699   L 51.20261,96.669699   L 51.20261,97.536393   L 55.002804,97.536393   L 55.002804,98.336418   L 51.20261,98.336418   L 51.20261,99.203112   L 55.002804,99.203112   L 55.002804,100.53649   L 56.136195,100.53649   L 56.136195,104.33661   L 56.936236,104.33661   L 56.936236,100.53649   L 57.802947,100.53649   L 57.802947,104.33661   L 58.669657,104.33661   L 58.669657,100.53649   L 59.603038,100.53649   L 59.603038,104.33661   L 60.469749,104.33661   L 60.469749,100.53649   L 61.33646,100.53649   L 61.33646,104.33661   L 62.203171,104.33661   L 62.203171,100.53649   L 63.069882,100.53649   L 63.069882,104.33661   L 64.003263,104.33661   L 64.003263,100.53649   L 64.936644,100.53649   L 64.936644,104.33661   L 65.803354,104.33661   L 65.803354,100.53649   L 66.736735,100.53649   L 66.736735,104.33661   L 67.603446,104.33661   L 67.603446,100.53649   L 68.470157,100.53649   L 68.470157,104.33661   L 69.336868,104.33661   L 69.336868,100.53649   L 70.136909,100.53649   L 70.003569,104.33661   L 71.00362,104.33661   L 71.00362,100.53649   L 72.003671,100.53649   L 72.003671,104.33661   L 72.937051,104.33661   L 72.937051,100.53649   L 73.937102,100.53649   L 73.937102,104.33661   L 74.803813,104.33661   L 74.870483,100.53649   L 75.603854,100.53649   L 75.603854,104.33661   L 76.470565,104.33661   L 76.470565,100.53649   L 77.470616,100.53649   L 77.470616,104.33661   L 78.403997,104.33661   L 78.403997,100.53649   L 79.204038,100.60316   L 79.204038,104.33661   L 80.070748,104.33661   L 80.070748,100.53649   L 81.004129,100.53649   L 81.004129,104.33661   L 81.87084,104.33661   L 81.87084,100.53649   L 82.937561,100.53649   L 82.937561,104.33661   L 83.737602,104.33661   L 83.737602,100.53649   L 84.604313,100.53649   L 84.604313,104.33661   L 85.471024,104.33661   L 85.471024,100.53649   L 86.337735,100.53649   L 86.337735,104.33661   L 87.204445,104.33661   L 87.204445,100.53649   L 88.204496,100.60316   L 88.204496,104.33661   L 89.004537,104.33661   L 89.004537,100.53649   L 89.937918,100.53649   L 89.937918,104.33661   L 90.804629,104.33661   L 90.804629,100.53649   L 91.93802,100.53649   L 91.93802,99.469787   L 95.738214,99.469787   L 95.738214,98.603093   L 91.93802,98.603093   L 91.93802,97.803068   L 95.738214,97.803068   L 95.738214,96.936374   L 91.93802,96.936374   L 91.93802,96.003012   L 95.738214,96.003012   L 95.738214,95.136318   L 91.93802,95.136318   L 91.93802,94.202955   L 95.738214,94.202955   L 95.738214,93.40293   L 91.93802,93.40293   L 91.93802,92.536236   L 95.738214,92.536236   L 95.738214,91.602874   L 91.93802,91.602874   L 91.93802,90.669511   L 95.738214,90.669511   L 95.738214,89.802817   L 91.93802,89.802817   L 91.93802,88.869454   L 95.738214,88.869454   L 95.738214,88.002761   L 91.93802,88.002761   L 91.93802,87.136067   L 95.738214,87.002729   L 95.738214,86.269373   L 91.93802,86.269373   L 91.93802,85.469348   L 95.738214,85.469348   L 95.738214,84.602654   L 91.93802,84.602654   L 91.93802,83.602623   L 95.738214,83.602623   L 95.738214,82.66926   L 91.93802,82.66926   L 91.93802,81.669229   L 95.738214,81.669229   L 95.738214,80.802535   L 91.93802,80.802535   L 91.93802,80.00251   L 95.738214,80.00251   L 95.738214,79.202485   L 91.93802,79.202485   L 91.93802,78.135784   L 95.738214,78.135784   L 95.738214,77.269091   L 91.93802,77.269091   L 91.93802,76.402397   L 95.738214,76.402397   L 95.738214,75.535703   L 91.93802,75.535703   L 91.93802,74.669009   L 95.738214,74.669009   L 95.738214,73.868984   L 91.93802,73.735646   L 91.93802,72.735615   L 95.738214,72.735615   L 95.738214,71.868921   L 91.93802,71.868921   L 91.93802,71.002227   L 95.738214,71.002227   L 95.738214,70.135533   L 91.93802,70.135533   L 91.93802,69.26884   L 95.738214,69.26884   L 95.738214,68.402146   L 91.93802,68.402146   L 91.93802,67.468783   L 95.738214,67.468783   L 95.738214,66.602089   L 91.93802,66.602089   L 91.93802,65.735395   L 95.738214,65.735395   L 95.738214,64.868702   L 91.93802,64.868702  z " clip-path="url(#clipWmfPath1)" style="fill:none;stroke:#ffffff;stroke-width:0.066670068px;stroke-linecap:round;stroke-linejoin:round;stroke-miterlimit:4;stroke-dasharray:none;stroke-opacity:1;"/>
  <path id="path384" d="  M 83.070901,75.402365   L 84.070952,75.535703   L 84.870993,76.002384   L 85.471024,76.669072   L 85.671034,77.402428   L 85.671034,86.869392   L 85.471024,87.602748   L 84.870993,88.202767   L 84.070952,88.536111   L 83.070901,88.669448   L 63.803252,88.669448   L 62.803202,88.536111   L 62.003161,88.136098   L 61.40313,87.469411   L 61.20312,86.736054   L 61.20312,77.335759   L 61.40313,76.602403   L 62.003161,76.002384   L 62.803202,75.535703   L 63.803252,75.402365   L 83.070901,75.402365  z " clip-path="url(#clipWmfPath1)" style="fill:#ffffff;fill-rule:nonzero;fill-opacity:1;stroke:none;"/>
  <path id="path386" d="  M 63.803252,74.869015   L 63.803252,75.935715   L 83.004231,75.935715   L 83.870942,76.002384   L 84.537643,76.402397   L 85.004333,76.935747   L 85.137673,77.469097   L 85.137673,86.802723   L 85.004333,87.336073   L 84.604313,87.802754   L 83.937612,88.069429   L 83.004231,88.136098   L 63.803252,88.136098   L 62.936542,88.069429   L 62.336511,87.736086   L 61.869821,87.202736   L 61.73648,86.669385   L 61.73648,77.402428   L 61.869821,76.869078   L 62.336511,76.402397   L 63.003212,76.002384   L 63.803252,75.935715   L 83.004231,75.935715   L 84.004282,76.069053   L 84.137622,75.002353   L 83.070901,74.869015   L 63.736582,74.869015   L 62.603191,75.069022   L 61.66981,75.602372   L 60.93644,76.335728   L 60.669759,77.269091   L 60.669759,86.802723   L 60.93644,87.736086   L 61.66981,88.536111   L 62.669861,89.002792   L 63.736582,89.202798   L 83.070901,89.202798   L 84.204292,89.002792   L 85.137673,88.602779   L 85.937714,87.869423   L 86.204394,86.93606   L 86.204394,77.335759   L 85.937714,76.402397   L 85.204343,75.602372   L 84.270963,75.069022   L 83.070901,74.869015   L 63.803252,74.869015  z " clip-path="url(#clipWmfPath1)" style="fill:#000000;fill-rule:nonzero;fill-opacity:1;stroke:#000000;stroke-width:0.066670068px;stroke-linecap:round;stroke-linejoin:round;stroke-miterlimit:4;stroke-dasharray:none;stroke-opacity:1;"/>
  <g id="g388" clip-path="url(#clipWmfPath1)"/>
  <g id="g400" clip-path="url(#clipWmfPath1)">
    <text id="text398" y="10.249313" x="0.000000" transform="matrix(1.000000,-0.000000,0.000000,1.000000,63.336562,76.335728)" style="font-size:10.687500px;font-style:normal;font-variant:normal;font-weight:400;font-stretch:Condensed;line-height:125.000000%;letter-spacing:0px;word-spacing:0px;fill:#000000;fill-opacity:1;stroke:none;font-family:Helvetica-Narrow;text-align:start;text-anchor:start;" xml:space="preserve"><tspan id="tspan396" y="10.249313" x="0.000000"><tspan id="tspan390" style="fill:#000000;font-size:10.687500px;font-style:normal;font-variant:normal;font-weight:400;font-stretch:Condensed;font-family:Helvetica-Narrow;" dy="0.000000" dx="0.000000">N</tspan><tspan id="tspan392" style="fill:#000000;font-size:10.687500px;font-style:normal;font-variant:normal;font-weight:400;font-stretch:Condensed;font-family:Helvetica-Narrow;" dy="0.000000" dx="0.083568">P</tspan><tspan id="tspan394" style="fill:#000000;font-size:10.687500px;font-style:normal;font-variant:normal;font-weight:400;font-stretch:Condensed;font-family:Helvetica-Narrow;" dy="0.000000" dx="-0.102195">U</tspan></tspan></text>
  </g>
</svg>