<?xml version="1.0" encoding="UTF-8" standalone="no"?>
<svg
   xmlns:dc="http://purl.org/dc/elements/1.1/"
   xmlns:cc="http://creativecommons.org/ns#"
   xmlns:rdf="http://www.w3.org/1999/02/22-rdf-syntax-ns#"
   xmlns:svg="http://www.w3.org/2000/svg"
   xmlns="http://www.w3.org/2000/svg"
   id="svg402"
   height="53.140002mm"
   width="59.949999mm"
   version="1.0">
  <metadata
     id="metadata406">
    <rdf:RDF>
      <cc:Work
         rdf:about="">
        <dc:format>image/svg+xml</dc:format>
        <dc:type
           rdf:resource="http://purl.org/dc/dcmitype/StillImage" />
      </cc:Work>
    </rdf:RDF>
  </metadata>
  <defs
     id="defs6">
    <clipPath
       id="clipWmfPath1"
       clipPathUnits="userSpaceOnUse">
      <path
         id="path2"
         d="M 0,0 L 226.47821,0 L 226.47821,200.73963 L 0,200.73963 z" />
    </clipPath>
    <pattern
       y="0"
       x="0"
       height="6"
       width="6"
       patternUnits="userSpaceOnUse"
       id="WMFhbasepattern" />
  </defs>
  <path
     id="path8"
     d="  M 220.47791,180.00565   L 11.933942,180.20565   L 6.0003059,180.00565   L 6.0003059,24.400765   L 220.47791,24.400765   L 220.47791,180.00565  z "
     clip-path="url(#clipWmfPath1)"
     style="fill:#e5e5cb;fill-rule:nonzero;fill-opacity:1;stroke:none;" />
  <path
     id="path10"
     d="  M 221.01127,24.400765   L 219.94455,24.400765   L 219.94455,179.4723   L 11.933942,179.6723   L 6.5336664,179.53897   L 6.5336664,24.934116   L 219.94455,24.934116   L 219.94455,179.4723   L 11.933942,179.6723   L 11.933942,180.739   L 221.01127,180.539   L 221.01127,23.867415   L 5.4669454,23.867415   L 5.4669454,180.47233   L 11.933942,180.739   L 221.01127,180.539   L 221.01127,24.400765  z "
     clip-path="url(#clipWmfPath1)"
     style="fill:#000000;fill-rule:nonzero;fill-opacity:1;stroke:#000000;stroke-width:0.066670068px;stroke-linecap:round;stroke-linejoin:round;stroke-miterlimit:4;stroke-dasharray:none;stroke-opacity:1;" />
  <path
     id="path12"
     d="  M 17.000867,197.47286   L 17.000867,180.539   L 209.07732,180.539   L 209.07732,197.47286   L 17.000867,197.47286  z "
     clip-path="url(#clipWmfPath1)"
     style="fill:#7f7f59;fill-rule:evenodd;fill-opacity:1;stroke:none;" />
  <path
     id="path14"
     d="  M 17.000867,197.47286   L 17.000867,180.539   L 209.07732,180.539   L 209.07732,197.47286   L 17.000867,197.47286  z "
     clip-path="url(#clipWmfPath1)"
     style="fill:none;stroke:#000000;stroke-width:0.066670068px;stroke-linecap:round;stroke-linejoin:round;stroke-miterlimit:4;stroke-dasharray:none;stroke-opacity:1;" />
  <path
     id="path16"
     d="  M 42.335491,66.335414   L 42.335491,67.268777   L 43.535553,67.335446   L 44.468934,67.668789   L 45.202304,68.135471   L 45.802335,68.802158   L 46.135685,69.735521   L 46.402365,70.86889   L 46.602376,73.935653   L 46.602376,100.26981   L 46.402365,103.33657   L 46.135685,104.46994   L 45.802335,105.40331   L 45.202304,106.06999   L 44.468934,106.53668   L 43.535553,106.80335   L 42.335491,106.87002   L 42.335491,107.87005   L 52.736022,107.87005   L 52.736022,106.87002   L 51.46929,106.80335   L 50.535909,106.53668   L 49.735869,106.06999   L 49.202508,105.40331   L 48.535808,103.33657   L 48.402467,100.26981   L 48.402467,73.935653   L 59.536368,107.87005   L 60.003059,107.87005   L 71.07029,72.335602   L 71.07029,100.26981   L 70.936949,102.86989   L 70.403589,104.93663   L 69.936898,105.73665   L 69.270198,106.33667   L 68.470157,106.73668   L 67.403436,106.87002   L 67.403436,107.87005   L 79.070697,107.87005   L 79.070697,106.87002   L 77.937306,106.73668   L 77.070595,106.47001   L 76.403895,105.93666   L 75.937204,105.2033   L 75.603854,104.26994   L 75.403844,103.13657   L 75.270504,100.26981   L 75.270504,72.335602   L 75.470514,69.935527   L 76.203885,68.335477   L 77.337276,67.535452   L 79.070697,67.268777   L 79.070697,66.335414   L 70.536929,66.335414   L 61.20312,97.536393   L 61.00311,97.803068   L 60.8031,97.469724   L 50.80259,66.335414   L 42.335491,66.335414  z "
     clip-path="url(#clipWmfPath1)"
     style="fill:#cccccc;fill-rule:nonzero;fill-opacity:1;stroke:none;" />
  <path
     id="path18"
     d="  M 146.67414,63.201983   L 82.937561,63.201983   L 114.87252,31.200979   L 146.67414,63.201983  z "
     clip-path="url(#clipWmfPath1)"
     style="fill:#cccccc;fill-rule:nonzero;fill-opacity:1;stroke:none;" />
  <path
     id="path20"
     d="  M 123.07294,32.934366   L 129.47327,36.534479   L 116.60594,50.201575   L 110.27229,46.468124   L 123.07294,32.934366  z "
     clip-path="url(#clipWmfPath1)"
     style="fill:#cccccc;fill-rule:nonzero;fill-opacity:1;stroke:none;" />
  <path
     id="path22"
     d="  M 41.33544,122.00383   L 41.33544,122.87052   L 42.202151,122.93719   L 42.935522,123.20386   L 43.535553,123.67055   L 44.002243,124.2039   L 44.602274,125.80395   L 44.802284,127.87068   L 44.802284,153.40481   L 44.602274,155.53821   L 44.002243,157.13826   L 42.935522,158.20496   L 41.33544,158.53831   L 41.33544,159.33833   L 52.736022,159.33833   L 52.736022,158.53831   L 51.869311,158.47164   L 51.13594,158.20496   L 50.535909,157.73828   L 50.069219,157.13826   L 49.535859,155.53821   L 49.335848,153.40481   L 49.335848,141.4711   L 61.869821,141.4711   L 61.869821,153.40481   L 61.66981,155.53821   L 61.06978,157.13826   L 60.603089,157.73828   L 60.003059,158.20496   L 58.336307,158.53831   L 58.336307,159.33833   L 69.870228,159.33833   L 69.870228,158.53831   L 69.003518,158.47164   L 68.203477,158.20496   L 67.603446,157.73828   L 67.136756,157.13826   L 66.536725,155.53821   L 66.336715,153.40481   L 66.336715,127.87068   L 66.536725,125.80395   L 67.136756,124.2039   L 67.603446,123.67055   L 68.203477,123.20386   L 69.003518,122.93719   L 69.870228,122.87052   L 69.870228,122.00383   L 58.336307,122.00383   L 58.336307,122.87052   L 59.203018,122.93719   L 60.003059,123.20386   L 60.603089,123.67055   L 61.06978,124.2039   L 61.66981,125.80395   L 61.869821,127.87068   L 61.869821,139.1377   L 49.335848,139.1377   L 49.335848,127.87068   L 49.535859,125.80395   L 50.069219,124.2039   L 50.535909,123.67055   L 51.13594,123.20386   L 51.869311,122.93719   L 52.736022,122.87052   L 52.736022,122.00383   L 41.33544,122.00383  z "
     clip-path="url(#clipWmfPath1)"
     style="fill:#cccccc;fill-rule:nonzero;fill-opacity:1;stroke:none;" />
  <path
     id="path24"
     d="  M 100.47179,122.00383   L 100.47179,122.87052   L 102.20521,123.1372   L 103.3386,123.93722   L 104.0053,125.40393   L 104.20531,127.80401   L 104.20531,145.20456   L 104.33865,148.60466   L 104.87201,151.60476   L 105.67205,154.20484   L 106.80544,156.33824   L 108.27219,158.07163   L 110.07228,159.27166   L 112.20572,160.00502   L 114.73918,160.27169   L 117.33931,160.00502   L 119.53943,159.20499   L 121.40619,157.93829   L 122.9396,156.27157   L 124.13966,154.0715   L 124.9397,151.47142   L 125.47306,148.53799   L 125.6064,145.20456   L 125.6064,127.80401   L 125.80641,125.60394   L 126.47311,124.07056   L 127.6065,123.20386   L 129.20659,122.87052   L 129.20659,122.00383   L 120.07279,122.00383   L 120.07279,122.87052   L 121.67287,123.20386   L 122.2729,123.53721   L 122.80626,124.07056   L 123.40629,125.60394   L 123.6063,127.80401   L 123.6063,144.60454   L 123.53963,147.13795   L 123.27295,149.53802   L 122.80626,151.73809   L 122.07289,153.67149   L 121.07284,155.20487   L 119.80611,156.40491   L 118.13936,157.20493   L 116.13925,157.47161   L 114.07248,157.2716   L 112.40573,156.60491   L 111.07233,155.53821   L 110.00561,154.0715   L 109.27224,152.33811   L 108.73888,150.20471   L 108.4722,147.80464   L 108.40553,145.20456   L 108.40553,127.80401   L 108.4722,126.47063   L 108.60554,125.40393   L 109.27224,123.93722   L 110.40563,123.1372   L 112.20572,122.87052   L 112.20572,122.00383   L 100.47179,122.00383  z "
     clip-path="url(#clipWmfPath1)"
     style="fill:#cccccc;fill-rule:nonzero;fill-opacity:1;stroke:none;" />
  <path
     id="path26"
     d="  M 147.47418,121.2038   L 146.67414,121.2038   L 146.5408,122.13716   L 146.14078,122.73718   L 145.54075,123.00386   L 144.80738,123.00386   L 142.80728,122.20383   L 141.07386,121.67048   L 139.07376,121.47048   L 137.60701,121.60381   L 136.27361,122.0705   L 135.07355,122.87052   L 133.94016,123.87055   L 133.07345,125.20393   L 132.40675,126.67064   L 131.94006,128.4707   L 131.80672,130.40409   L 131.94006,132.67083   L 132.40675,134.53755   L 133.07345,136.20427   L 133.94016,137.60432   L 136.14027,140.00439   L 138.74041,142.20446   L 140.87385,143.87118   L 143.00729,145.80457   L 143.874,146.93794   L 144.5407,148.27132   L 145.00739,149.73803   L 145.2074,151.47142   L 145.14073,152.93813   L 144.80738,154.27151   L 143.80733,156.33824   L 143.07396,157.13826   L 142.14058,157.73828   L 141.2072,158.07163   L 140.07381,158.20496   L 138.40706,158.00496   L 137.00698,157.33827   L 135.74025,156.33824   L 134.67353,155.07153   L 133.74015,153.53815   L 132.94011,151.87143   L 131.67338,148.07131   L 130.74,148.07131   L 131.87339,160.07169   L 132.80677,160.07169   L 133.07345,158.80498   L 133.4068,158.40497   L 133.94016,158.27163   L 135.20689,158.60498   L 136.47362,159.27166   L 138.07371,159.93835   L 140.27382,160.27169   L 141.94057,160.07169   L 143.60732,159.47167   L 145.07406,158.53831   L 146.47413,157.20493   L 147.67419,155.67155   L 148.54091,153.80482   L 149.14094,151.73809   L 149.34095,149.47136   L 149.14094,147.33796   L 148.54091,145.40456   L 147.67419,143.67117   L 146.5408,142.13779   L 143.94067,139.47104   L 141.2072,137.2043   L 139.2071,135.53759   L 137.27366,133.60419   L 135.87359,131.13745   L 135.47357,129.7374   L 135.34023,128.13735   L 135.4069,127.13732   L 135.67358,126.13729   L 136.54029,124.53724   L 137.8737,123.47054   L 139.34044,123.07053   L 140.94052,123.27053   L 142.40726,123.87055   L 143.74066,124.80392   L 144.94072,126.07062   L 145.8741,127.53733   L 146.60747,129.20405   L 147.07416,131.07078   L 147.27417,133.07084   L 148.27423,133.07084   L 147.47418,121.2038  z "
     clip-path="url(#clipWmfPath1)"
     style="fill:#cccccc;fill-rule:nonzero;fill-opacity:1;stroke:none;" />
  <path
     id="path28"
     d="  M 150.80769,122.00383   L 150.80769,122.87052   L 152.40777,123.1372   L 153.54116,123.93722   L 153.94118,124.60391   L 154.20786,125.40393   L 154.40787,127.47067   L 154.40787,153.93816   L 154.20786,156.07156   L 153.54116,157.47161   L 152.40777,158.27163   L 150.80769,158.53831   L 150.80769,159.33833   L 173.47551,159.33833   L 175.20893,150.00471   L 174.34222,150.00471   L 173.14216,152.73812   L 171.67542,155.00486   L 170.74204,155.87156   L 169.80866,156.60491   L 168.74194,157.07159   L 167.54187,157.2716   L 162.1416,157.47161   L 161.14155,157.47161   L 159.94149,157.40494   L 159.20812,157.00493   L 158.8081,156.13823   L 158.67476,154.67152   L 158.67476,140.87109   L 164.47505,140.87109   L 166.74183,141.00442   L 167.60854,141.2711   L 168.34191,141.73778   L 168.94195,142.40447   L 169.40864,143.4045   L 169.67532,144.80454   L 169.80866,146.53793   L 170.74204,146.53793   L 170.74204,132.9375   L 169.80866,132.9375   L 169.40864,136.00427   L 168.34191,137.67099   L 167.60854,138.13767   L 166.74183,138.40434   L 164.47505,138.53768   L 158.67476,138.53768   L 158.67476,124.87058   L 158.94144,124.07056   L 159.54147,123.73721   L 165.20842,123.73721   L 167.80855,123.93722   L 168.94195,124.27056   L 169.942,124.80392   L 170.74204,125.60394   L 171.40874,126.67064   L 171.87543,128.13735   L 172.07544,130.00408   L 172.94215,130.00408   L 172.94215,122.00383   L 150.80769,122.00383  z "
     clip-path="url(#clipWmfPath1)"
     style="fill:#cccccc;fill-rule:nonzero;fill-opacity:1;stroke:none;" />
  <path
     id="path30"
     d="  M 79.604058,70.668884   L 79.604058,71.40224   L 80.537439,71.468909   L 81.33748,71.802252   L 82.470871,72.802284   L 83.137571,74.469003   L 83.337582,76.535734   L 83.337582,102.0032   L 83.137571,104.1366   L 82.470871,105.73665   L 82.00418,106.27   L 81.33748,106.73668   L 80.537439,107.00336   L 79.604058,107.07003   L 79.604058,107.93672   L 91.73801,107.93672   L 91.73801,107.07003   L 90.804629,107.00336   L 90.004588,106.73668   L 89.337888,106.27   L 88.871197,105.73665   L 88.204496,104.1366   L 88.004486,102.0032   L 88.004486,76.535734   L 88.204496,74.469003   L 88.871197,72.802284   L 90.004588,71.802252   L 90.804629,71.468909   L 91.73801,71.40224   L 91.73801,70.668884   L 79.604058,70.668884  z "
     clip-path="url(#clipWmfPath1)"
     style="fill:#cccccc;fill-rule:nonzero;fill-opacity:1;stroke:none;" />
  <path
     id="path32"
     d="  M 120.53948,101.20317   L 119.67277,100.26981   L 117.47266,102.60322   L 114.93919,104.46994   L 112.20572,105.66998   L 110.80565,105.93666   L 109.40558,106.06999   L 108.00551,106.00333   L 106.73877,105.66998   L 104.47199,104.66995   L 102.60523,103.00323   L 101.13849,100.86983   L 100.0051,98.336418   L 99.205057,95.53633   L 98.738367,92.536236   L 98.605027,89.469473   L 98.738367,86.336042   L 99.071717,83.20261   L 99.738418,80.202516   L 100.73847,77.535766   L 102.13854,75.269028   L 103.93863,73.468971   L 105.00535,72.802284   L 106.20541,72.335602   L 107.53882,72.068927   L 109.00556,71.93559   L 110.80565,72.135596   L 112.53907,72.802284   L 114.13915,73.735646   L 115.53922,75.069022   L 116.73928,76.602403   L 117.73934,78.402459   L 118.47271,80.402522   L 118.87273,82.535922   L 119.73944,82.535922   L 119.6061,70.002196   L 118.67272,70.002196   L 118.07269,70.935559   L 117.40598,71.535577   L 116.53927,71.802252   L 115.53922,71.668915   L 112.13905,70.402208   L 110.53897,70.135533   L 108.73888,70.002196   L 107.13879,70.068865   L 105.60538,70.33554   L 102.6719,71.335571   L 100.07177,73.00229   L 97.804986,75.202359   L 95.938224,77.869109   L 94.604823,81.002541   L 93.738112,84.602654   L 93.404761,88.536111   L 93.671442,92.802911   L 94.471483,96.669699   L 95.738214,100.13647   L 97.471635,103.0699   L 99.671748,105.46998   L 102.27188,107.27003   L 105.27203,108.4034   L 107.00545,108.73674   L 108.73888,108.80341   L 110.53897,108.67008   L 112.20572,108.27006   L 113.73913,107.60338   L 115.27254,106.73668   L 118.00602,104.33661   L 120.53948,101.20317  z "
     clip-path="url(#clipWmfPath1)"
     style="fill:#cccccc;fill-rule:nonzero;fill-opacity:1;stroke:none;" />
  <path
     id="path34"
     d="  M 174.74224,70.602215   L 174.74224,68.402146   L 173.74219,68.402146   L 173.74219,68.135471   L 176.14231,68.135471   L 176.14231,68.402146   L 175.14226,68.402146   L 175.14226,70.602215   L 174.74224,70.602215  z "
     clip-path="url(#clipWmfPath1)"
     style="fill:#cccccc;fill-rule:nonzero;fill-opacity:1;stroke:none;" />
  <path
     id="path36"
     d="  M 176.34232,70.602215   L 176.34232,68.135471   L 176.94235,68.135471   L 177.74239,70.135533   L 178.34242,68.135471   L 179.00913,68.135471   L 179.00913,70.602215   L 178.67578,70.602215   L 178.67578,68.468815   L 177.80906,70.602215   L 177.47571,70.602215   L 176.80901,68.468815   L 176.80901,70.602215   L 176.34232,70.602215  z "
     clip-path="url(#clipWmfPath1)"
     style="fill:#cccccc;fill-rule:nonzero;fill-opacity:1;stroke:none;" />
  <path
     id="path38"
     d="  M 160.40818,65.602058   L 157.34135,66.00207   L 154.60788,67.135439   L 152.14109,68.935496   L 150.07432,71.40224   L 148.40757,74.402334   L 147.2075,77.869109   L 146.40746,81.802566   L 146.14078,86.136035   L 146.34079,90.73618   L 147.00749,95.069649   L 148.14089,98.936437   L 149.74097,102.26987   L 151.74107,105.00329   L 152.87446,106.13666   L 154.20786,107.07003   L 155.60793,107.80338   L 157.07467,108.33673   L 158.67476,108.67008   L 160.40818,108.80341   L 162.07493,108.67008   L 163.67501,108.33673   L 165.14175,107.80338   L 166.54182,107.07003   L 167.80855,106.13666   L 169.00862,105.00329   L 171.07539,102.26987   L 172.67547,98.936437   L 173.80886,95.069649   L 174.47556,90.73618   L 174.74224,86.136035   L 174.47556,81.802566   L 173.67552,77.869109   L 172.47546,74.402334   L 170.80871,71.40224   L 168.67527,68.935496   L 166.27514,67.135439   L 163.475,66.00207   L 160.40818,65.602058   L 160.40818,67.735458   L 162.87497,68.135471   L 164.94174,69.335508   L 166.60849,71.202234   L 167.94189,73.53564   L 168.87528,76.335728   L 169.54198,79.46916   L 169.87533,82.735929   L 170.00867,86.136035   L 169.87533,89.536142   L 169.60865,93.069586   L 168.94195,96.469693   L 168.07523,99.603125   L 166.8085,102.33654   L 166.00846,103.46991   L 165.14175,104.46994   L 164.1417,105.26997   L 163.00831,105.86999   L 161.74158,106.27   L 160.40818,106.40334   L 159.00811,106.27   L 157.80804,105.86999   L 156.67465,105.26997   L 155.6746,104.46994   L 154.00785,102.33654   L 152.74112,99.603125   L 151.80774,96.469693   L 151.20771,93.069586   L 150.87436,89.536142   L 150.80769,86.136035   L 150.94103,82.735929   L 151.27438,79.46916   L 151.94108,76.335728   L 152.94113,73.53564   L 154.20786,71.202234   L 155.87461,69.335508   L 157.94138,68.135471   L 159.14145,67.868796   L 160.40818,67.735458   L 160.40818,65.602058  z "
     clip-path="url(#clipWmfPath1)"
     style="fill:#cccccc;fill-rule:evenodd;fill-opacity:1;stroke:none;" />
  <path
     id="path40"
     d="  M 125.93975,77.135753   L 125.93975,101.60319   L 125.80641,104.06993   L 125.33972,105.80332   L 124.87303,106.33667   L 124.13966,106.73668   L 122.07289,107.07003   L 122.07289,107.93672   L 134.34018,107.93672   L 134.34018,107.07003   L 132.20674,106.73668   L 131.54004,106.33667   L 131.00668,105.80332   L 130.53999,104.06993   L 130.40665,101.60319   L 130.40665,90.73618   L 133.07345,90.73618   L 143.67399,107.93672   L 150.60768,107.93672   L 150.60768,107.07003   L 149.20761,106.60334   L 147.80753,105.46998   L 146.40746,103.73659   L 145.14073,101.80319   L 137.60701,90.269498   L 139.07376,89.936155   L 140.5405,89.269467   L 141.8739,88.336104   L 143.14063,87.136067   L 144.14068,85.736023   L 144.94072,84.202641   L 145.47408,82.402585   L 145.67409,80.53586   L 145.40741,77.802441   L 144.60737,75.535703   L 143.40731,73.868984   L 141.8739,72.535609   L 140.14048,71.668915   L 138.20705,71.068896   L 136.20694,70.735552   L 134.20684,70.668884   L 122.07289,70.668884   L 122.07289,71.40224   L 124.13966,71.735584   L 124.87303,72.135596   L 125.33972,72.735615   L 125.80641,74.469003   L 125.93975,77.135753   L 130.40665,88.602779   L 130.40665,74.268996   L 130.60666,73.202296   L 131.07335,72.668946   L 131.80672,72.535609   L 132.80677,72.535609   L 133.4068,72.535609   L 134.94021,72.668946   L 136.40695,72.935621   L 137.60701,73.53564   L 138.67374,74.335665   L 139.54045,75.402365   L 140.20715,76.802409   L 140.60717,78.469128   L 140.74051,80.53586   L 140.47383,83.135941   L 139.80713,85.069335   L 138.67374,86.469379   L 137.34033,87.469411   L 135.74025,88.069429   L 134.00683,88.402773   L 130.40665,88.602779   L 125.93975,77.135753  z "
     clip-path="url(#clipWmfPath1)"
     style="fill:#cccccc;fill-rule:evenodd;fill-opacity:1;stroke:none;" />
  <path
     id="path42"
     d="  M 85.204343,121.33714   L 83.670932,121.40381   L 82.270861,121.67048   L 79.537388,122.73718   L 77.203936,124.33723   L 75.137164,126.5373   L 73.537082,129.20405   L 72.270351,132.40415   L 71.53698,135.9376   L 71.2703,139.87105   L 71.47031,144.00452   L 72.203681,147.87131   L 73.270402,151.33808   L 74.870483,154.33817   L 76.803915,156.80492   L 79.204038,158.67164   L 82.00418,159.87168   L 83.537592,160.13836   L 85.204343,160.27169   L 86.804425,160.13836   L 88.337837,159.87168   L 91.137979,158.67164   L 93.471432,156.80492   L 95.471534,154.33817   L 97.004945,151.33808   L 98.138336,147.87131   L 98.805037,144.00452   L 99.005047,139.87105   L 98.738367,135.9376   L 98.004996,132.40415   L 96.804935,129.20405   L 95.138183,126.5373   L 93.138081,124.33723   L 90.804629,122.73718   L 89.471228,122.13716   L 88.137826,121.67048   L 86.671085,121.40381   L 85.204343,121.33714   L 85.204343,123.20386   L 86.471075,123.27053   L 87.604466,123.60388   L 89.537898,124.67058   L 91.137979,126.3373   L 92.404711,128.4707   L 93.271421,131.00411   L 93.938122,133.8042   L 94.271472,136.73762   L 94.404812,139.80439   L 94.004792,146.07125   L 93.471432,149.13801   L 92.604721,152.00477   L 91.337989,154.47151   L 89.737908,156.40491   L 87.737806,157.67161   L 86.537745,158.00496   L 85.204343,158.13829   L 83.870942,158.00496   L 82.604211,157.67161   L 80.537439,156.40491   L 79.670728,155.53821   L 78.937357,154.47151   L 77.670626,152.00477   L 76.803915,149.13801   L 76.203885,146.07125   L 75.870534,142.93782   L 75.803864,139.80439   L 75.937204,136.73762   L 76.270555,133.8042   L 76.937255,131.00411   L 77.870636,128.4707   L 79.137368,126.3373   L 80.737449,124.67058   L 82.804221,123.60388   L 83.937612,123.27053   L 85.204343,123.20386   L 85.204343,121.33714  z "
     clip-path="url(#clipWmfPath1)"
     style="fill:#cccccc;fill-rule:evenodd;fill-opacity:1;stroke:none;" />
  <path
     id="path44"
     d="  M 39.735359,116.20365   L 39.735359,115.13695   L 177.00902,115.13695   L 177.00902,116.20365   L 39.735359,116.20365  z "
     clip-path="url(#clipWmfPath1)"
     style="fill:#cccccc;fill-rule:evenodd;fill-opacity:1;stroke:none;" />
  <path
     id="path46"
     d="  M 198.34344,181.27235   L 198.34344,169.13864   L 200.14354,169.13864   L 200.14354,181.27235   L 198.34344,181.27235  z "
     clip-path="url(#clipWmfPath1)"
     style="fill:#000000;fill-rule:evenodd;fill-opacity:1;stroke:none;" />
  <path
     id="path48"
     d="  M 198.34344,181.27235   L 198.34344,169.13864   L 200.14354,169.13864   L 200.14354,181.27235   L 198.34344,181.27235  z "
     clip-path="url(#clipWmfPath1)"
     style="fill:none;stroke:#000000;stroke-width:0.066670068px;stroke-linecap:round;stroke-linejoin:round;stroke-miterlimit:4;stroke-dasharray:none;stroke-opacity:1;" />
  <path
     id="path50"
     d="  M 194.80993,181.27235   L 194.80993,169.13864   L 196.61002,169.13864   L 196.61002,181.27235   L 194.80993,181.27235  z "
     clip-path="url(#clipWmfPath1)"
     style="fill:#000000;fill-rule:evenodd;fill-opacity:1;stroke:none;" />
  <path
     id="path52"
     d="  M 194.80993,181.27235   L 194.80993,169.13864   L 196.61002,169.13864   L 196.61002,181.27235   L 194.80993,181.27235  z "
     clip-path="url(#clipWmfPath1)"
     style="fill:none;stroke:#000000;stroke-width:0.066670068px;stroke-linecap:round;stroke-linejoin:round;stroke-miterlimit:4;stroke-dasharray:none;stroke-opacity:1;" />
  <path
     id="path54"
     d="  M 191.34309,181.27235   L 191.34309,169.13864   L 193.14318,169.13864   L 193.14318,181.27235   L 191.34309,181.27235  z "
     clip-path="url(#clipWmfPath1)"
     style="fill:#000000;fill-rule:evenodd;fill-opacity:1;stroke:none;" />
  <path
     id="path56"
     d="  M 191.34309,181.27235   L 191.34309,169.13864   L 193.14318,169.13864   L 193.14318,181.27235   L 191.34309,181.27235  z "
     clip-path="url(#clipWmfPath1)"
     style="fill:none;stroke:#000000;stroke-width:0.066670068px;stroke-linecap:round;stroke-linejoin:round;stroke-miterlimit:4;stroke-dasharray:none;stroke-opacity:1;" />
  <path
     id="path58"
     d="  M 187.80957,181.27235   L 187.80957,169.13864   L 189.60967,169.13864   L 189.60967,181.27235   L 187.80957,181.27235  z "
     clip-path="url(#clipWmfPath1)"
     style="fill:#000000;fill-rule:evenodd;fill-opacity:1;stroke:none;" />
  <path
     id="path60"
     d="  M 187.80957,181.27235   L 187.80957,169.13864   L 189.60967,169.13864   L 189.60967,181.27235   L 187.80957,181.27235  z "
     clip-path="url(#clipWmfPath1)"
     style="fill:none;stroke:#000000;stroke-width:0.066670068px;stroke-linecap:round;stroke-linejoin:round;stroke-miterlimit:4;stroke-dasharray:none;stroke-opacity:1;" />
  <path
     id="path62"
     d="  M 184.34273,181.27235   L 184.34273,169.13864   L 186.14282,169.13864   L 186.14282,181.27235   L 184.34273,181.27235  z "
     clip-path="url(#clipWmfPath1)"
     style="fill:#000000;fill-rule:evenodd;fill-opacity:1;stroke:none;" />
  <path
     id="path64"
     d="  M 184.34273,181.27235   L 184.34273,169.13864   L 186.14282,169.13864   L 186.14282,181.27235   L 184.34273,181.27235  z "
     clip-path="url(#clipWmfPath1)"
     style="fill:none;stroke:#000000;stroke-width:0.066670068px;stroke-linecap:round;stroke-linejoin:round;stroke-miterlimit:4;stroke-dasharray:none;stroke-opacity:1;" />
  <path
     id="path66"
     d="  M 180.80922,181.27235   L 180.80922,169.13864   L 182.60931,169.13864   L 182.60931,181.27235   L 180.80922,181.27235  z "
     clip-path="url(#clipWmfPath1)"
     style="fill:#000000;fill-rule:evenodd;fill-opacity:1;stroke:none;" />
  <path
     id="path68"
     d="  M 180.80922,181.27235   L 180.80922,169.13864   L 182.60931,169.13864   L 182.60931,181.27235   L 180.80922,181.27235  z "
     clip-path="url(#clipWmfPath1)"
     style="fill:none;stroke:#000000;stroke-width:0.066670068px;stroke-linecap:round;stroke-linejoin:round;stroke-miterlimit:4;stroke-dasharray:none;stroke-opacity:1;" />
  <path
     id="path70"
     d="  M 177.34237,181.27235   L 177.34237,169.13864   L 179.14247,169.13864   L 179.14247,181.27235   L 177.34237,181.27235  z "
     clip-path="url(#clipWmfPath1)"
     style="fill:#000000;fill-rule:evenodd;fill-opacity:1;stroke:none;" />
  <path
     id="path72"
     d="  M 177.34237,181.27235   L 177.34237,169.13864   L 179.14247,169.13864   L 179.14247,181.27235   L 177.34237,181.27235  z "
     clip-path="url(#clipWmfPath1)"
     style="fill:none;stroke:#000000;stroke-width:0.066670068px;stroke-linecap:round;stroke-linejoin:round;stroke-miterlimit:4;stroke-dasharray:none;stroke-opacity:1;" />
  <path
     id="path74"
     d="  M 173.80886,181.27235   L 173.80886,169.13864   L 175.60895,169.13864   L 175.60895,181.27235   L 173.80886,181.27235  z "
     clip-path="url(#clipWmfPath1)"
     style="fill:#000000;fill-rule:evenodd;fill-opacity:1;stroke:none;" />
  <path
     id="path76"
     d="  M 173.80886,181.27235   L 173.80886,169.13864   L 175.60895,169.13864   L 175.60895,181.27235   L 173.80886,181.27235  z "
     clip-path="url(#clipWmfPath1)"
     style="fill:none;stroke:#000000;stroke-width:0.066670068px;stroke-linecap:round;stroke-linejoin:round;stroke-miterlimit:4;stroke-dasharray:none;stroke-opacity:1;" />
  <path
     id="path78"
     d="  M 170.34202,181.27235   L 170.34202,169.13864   L 172.14211,169.13864   L 172.14211,181.27235   L 170.34202,181.27235  z "
     clip-path="url(#clipWmfPath1)"
     style="fill:#000000;fill-rule:evenodd;fill-opacity:1;stroke:none;" />
  <path
     id="path80"
     d="  M 170.34202,181.27235   L 170.34202,169.13864   L 172.14211,169.13864   L 172.14211,181.27235   L 170.34202,181.27235  z "
     clip-path="url(#clipWmfPath1)"
     style="fill:none;stroke:#000000;stroke-width:0.066670068px;stroke-linecap:round;stroke-linejoin:round;stroke-miterlimit:4;stroke-dasharray:none;stroke-opacity:1;" />
  <path
     id="path82"
     d="  M 166.8085,181.27235   L 166.8085,169.13864   L 168.6086,169.13864   L 168.6086,181.27235   L 166.8085,181.27235  z "
     clip-path="url(#clipWmfPath1)"
     style="fill:#000000;fill-rule:evenodd;fill-opacity:1;stroke:none;" />
  <path
     id="path84"
     d="  M 166.8085,181.27235   L 166.8085,169.13864   L 168.6086,169.13864   L 168.6086,181.27235   L 166.8085,181.27235  z "
     clip-path="url(#clipWmfPath1)"
     style="fill:none;stroke:#000000;stroke-width:0.066670068px;stroke-linecap:round;stroke-linejoin:round;stroke-miterlimit:4;stroke-dasharray:none;stroke-opacity:1;" />
  <path
     id="path86"
     d="  M 163.34166,181.27235   L 163.34166,169.13864   L 165.14175,169.13864   L 165.14175,181.27235   L 163.34166,181.27235  z "
     clip-path="url(#clipWmfPath1)"
     style="fill:#000000;fill-rule:evenodd;fill-opacity:1;stroke:none;" />
  <path
     id="path88"
     d="  M 163.34166,181.27235   L 163.34166,169.13864   L 165.14175,169.13864   L 165.14175,181.27235   L 163.34166,181.27235  z "
     clip-path="url(#clipWmfPath1)"
     style="fill:none;stroke:#000000;stroke-width:0.066670068px;stroke-linecap:round;stroke-linejoin:round;stroke-miterlimit:4;stroke-dasharray:none;stroke-opacity:1;" />
  <path
     id="path90"
     d="  M 159.80815,181.27235   L 159.80815,169.13864   L 161.60824,169.13864   L 161.60824,181.27235   L 159.80815,181.27235  z "
     clip-path="url(#clipWmfPath1)"
     style="fill:#000000;fill-rule:evenodd;fill-opacity:1;stroke:none;" />
  <path
     id="path92"
     d="  M 159.80815,181.27235   L 159.80815,169.13864   L 161.60824,169.13864   L 161.60824,181.27235   L 159.80815,181.27235  z "
     clip-path="url(#clipWmfPath1)"
     style="fill:none;stroke:#000000;stroke-width:0.066670068px;stroke-linecap:round;stroke-linejoin:round;stroke-miterlimit:4;stroke-dasharray:none;stroke-opacity:1;" />
  <path
     id="path94"
     d="  M 156.3413,181.27235   L 156.3413,169.13864   L 158.14139,169.13864   L 158.14139,181.27235   L 156.3413,181.27235  z "
     clip-path="url(#clipWmfPath1)"
     style="fill:#000000;fill-rule:evenodd;fill-opacity:1;stroke:none;" />
  <path
     id="path96"
     d="  M 156.3413,181.27235   L 156.3413,169.13864   L 158.14139,169.13864   L 158.14139,181.27235   L 156.3413,181.27235  z "
     clip-path="url(#clipWmfPath1)"
     style="fill:none;stroke:#000000;stroke-width:0.066670068px;stroke-linecap:round;stroke-linejoin:round;stroke-miterlimit:4;stroke-dasharray:none;stroke-opacity:1;" />
  <path
     id="path98"
     d="  M 152.80779,181.27235   L 152.80779,169.13864   L 154.60788,169.13864   L 154.60788,181.27235   L 152.80779,181.27235  z "
     clip-path="url(#clipWmfPath1)"
     style="fill:#000000;fill-rule:evenodd;fill-opacity:1;stroke:none;" />
  <path
     id="path100"
     d="  M 152.80779,181.27235   L 152.80779,169.13864   L 154.60788,169.13864   L 154.60788,181.27235   L 152.80779,181.27235  z "
     clip-path="url(#clipWmfPath1)"
     style="fill:none;stroke:#000000;stroke-width:0.066670068px;stroke-linecap:round;stroke-linejoin:round;stroke-miterlimit:4;stroke-dasharray:none;stroke-opacity:1;" />
  <path
     id="path102"
     d="  M 149.34095,181.27235   L 149.34095,169.13864   L 151.14104,169.13864   L 151.14104,181.27235   L 149.34095,181.27235  z "
     clip-path="url(#clipWmfPath1)"
     style="fill:#000000;fill-rule:evenodd;fill-opacity:1;stroke:none;" />
  <path
     id="path104"
     d="  M 149.34095,181.27235   L 149.34095,169.13864   L 151.14104,169.13864   L 151.14104,181.27235   L 149.34095,181.27235  z "
     clip-path="url(#clipWmfPath1)"
     style="fill:none;stroke:#000000;stroke-width:0.066670068px;stroke-linecap:round;stroke-linejoin:round;stroke-miterlimit:4;stroke-dasharray:none;stroke-opacity:1;" />
  <path
     id="path106"
     d="  M 145.80743,181.27235   L 145.80743,169.13864   L 147.60752,169.13864   L 147.60752,181.27235   L 145.80743,181.27235  z "
     clip-path="url(#clipWmfPath1)"
     style="fill:#000000;fill-rule:evenodd;fill-opacity:1;stroke:none;" />
  <path
     id="path108"
     d="  M 145.80743,181.27235   L 145.80743,169.13864   L 147.60752,169.13864   L 147.60752,181.27235   L 145.80743,181.27235  z "
     clip-path="url(#clipWmfPath1)"
     style="fill:none;stroke:#000000;stroke-width:0.066670068px;stroke-linecap:round;stroke-linejoin:round;stroke-miterlimit:4;stroke-dasharray:none;stroke-opacity:1;" />
  <path
     id="path110"
     d="  M 142.34059,181.27235   L 142.34059,169.13864   L 144.14068,169.13864   L 144.14068,181.27235   L 142.34059,181.27235  z "
     clip-path="url(#clipWmfPath1)"
     style="fill:#000000;fill-rule:evenodd;fill-opacity:1;stroke:none;" />
  <path
     id="path112"
     d="  M 142.34059,181.27235   L 142.34059,169.13864   L 144.14068,169.13864   L 144.14068,181.27235   L 142.34059,181.27235  z "
     clip-path="url(#clipWmfPath1)"
     style="fill:none;stroke:#000000;stroke-width:0.066670068px;stroke-linecap:round;stroke-linejoin:round;stroke-miterlimit:4;stroke-dasharray:none;stroke-opacity:1;" />
  <path
     id="path114"
     d="  M 138.80708,181.27235   L 138.80708,169.13864   L 140.60717,169.13864   L 140.60717,181.27235   L 138.80708,181.27235  z "
     clip-path="url(#clipWmfPath1)"
     style="fill:#000000;fill-rule:evenodd;fill-opacity:1;stroke:none;" />
  <path
     id="path116"
     d="  M 138.80708,181.27235   L 138.80708,169.13864   L 140.60717,169.13864   L 140.60717,181.27235   L 138.80708,181.27235  z "
     clip-path="url(#clipWmfPath1)"
     style="fill:none;stroke:#000000;stroke-width:0.066670068px;stroke-linecap:round;stroke-linejoin:round;stroke-miterlimit:4;stroke-dasharray:none;stroke-opacity:1;" />
  <path
     id="path118"
     d="  M 135.34023,181.27235   L 135.34023,169.13864   L 137.14032,169.13864   L 137.14032,181.27235   L 135.34023,181.27235  z "
     clip-path="url(#clipWmfPath1)"
     style="fill:#000000;fill-rule:evenodd;fill-opacity:1;stroke:none;" />
  <path
     id="path120"
     d="  M 135.34023,181.27235   L 135.34023,169.13864   L 137.14032,169.13864   L 137.14032,181.27235   L 135.34023,181.27235  z "
     clip-path="url(#clipWmfPath1)"
     style="fill:none;stroke:#000000;stroke-width:0.066670068px;stroke-linecap:round;stroke-linejoin:round;stroke-miterlimit:4;stroke-dasharray:none;stroke-opacity:1;" />
  <path
     id="path122"
     d="  M 131.80672,181.27235   L 131.80672,169.13864   L 133.60681,169.13864   L 133.60681,181.27235   L 131.80672,181.27235  z "
     clip-path="url(#clipWmfPath1)"
     style="fill:#000000;fill-rule:evenodd;fill-opacity:1;stroke:none;" />
  <path
     id="path124"
     d="  M 131.80672,181.27235   L 131.80672,169.13864   L 133.60681,169.13864   L 133.60681,181.27235   L 131.80672,181.27235  z "
     clip-path="url(#clipWmfPath1)"
     style="fill:none;stroke:#000000;stroke-width:0.066670068px;stroke-linecap:round;stroke-linejoin:round;stroke-miterlimit:4;stroke-dasharray:none;stroke-opacity:1;" />
  <path
     id="path126"
     d="  M 128.33988,181.27235   L 128.33988,169.13864   L 130.13997,169.13864   L 130.13997,181.27235   L 128.33988,181.27235  z "
     clip-path="url(#clipWmfPath1)"
     style="fill:#000000;fill-rule:evenodd;fill-opacity:1;stroke:none;" />
  <path
     id="path128"
     d="  M 128.33988,181.27235   L 128.33988,169.13864   L 130.13997,169.13864   L 130.13997,181.27235   L 128.33988,181.27235  z "
     clip-path="url(#clipWmfPath1)"
     style="fill:none;stroke:#000000;stroke-width:0.066670068px;stroke-linecap:round;stroke-linejoin:round;stroke-miterlimit:4;stroke-dasharray:none;stroke-opacity:1;" />
  <path
     id="path130"
     d="  M 124.80636,181.27235   L 124.80636,169.13864   L 126.60645,169.13864   L 126.60645,181.27235   L 124.80636,181.27235  z "
     clip-path="url(#clipWmfPath1)"
     style="fill:#000000;fill-rule:evenodd;fill-opacity:1;stroke:none;" />
  <path
     id="path132"
     d="  M 124.80636,181.27235   L 124.80636,169.13864   L 126.60645,169.13864   L 126.60645,181.27235   L 124.80636,181.27235  z "
     clip-path="url(#clipWmfPath1)"
     style="fill:none;stroke:#000000;stroke-width:0.066670068px;stroke-linecap:round;stroke-linejoin:round;stroke-miterlimit:4;stroke-dasharray:none;stroke-opacity:1;" />
  <path
     id="path134"
     d="  M 121.33952,181.27235   L 121.33952,169.13864   L 123.13961,169.13864   L 123.13961,181.27235   L 121.33952,181.27235  z "
     clip-path="url(#clipWmfPath1)"
     style="fill:#000000;fill-rule:evenodd;fill-opacity:1;stroke:none;" />
  <path
     id="path136"
     d="  M 121.33952,181.27235   L 121.33952,169.13864   L 123.13961,169.13864   L 123.13961,181.27235   L 121.33952,181.27235  z "
     clip-path="url(#clipWmfPath1)"
     style="fill:none;stroke:#000000;stroke-width:0.066670068px;stroke-linecap:round;stroke-linejoin:round;stroke-miterlimit:4;stroke-dasharray:none;stroke-opacity:1;" />
  <path
     id="path138"
     d="  M 117.80601,181.27235   L 117.80601,169.13864   L 119.6061,169.13864   L 119.6061,181.27235   L 117.80601,181.27235  z "
     clip-path="url(#clipWmfPath1)"
     style="fill:#000000;fill-rule:evenodd;fill-opacity:1;stroke:none;" />
  <path
     id="path140"
     d="  M 117.80601,181.27235   L 117.80601,169.13864   L 119.6061,169.13864   L 119.6061,181.27235   L 117.80601,181.27235  z "
     clip-path="url(#clipWmfPath1)"
     style="fill:none;stroke:#000000;stroke-width:0.066670068px;stroke-linecap:round;stroke-linejoin:round;stroke-miterlimit:4;stroke-dasharray:none;stroke-opacity:1;" />
  <path
     id="path142"
     d="  M 114.33916,181.27235   L 114.33916,169.13864   L 116.13925,169.13864   L 116.13925,181.27235   L 114.33916,181.27235  z "
     clip-path="url(#clipWmfPath1)"
     style="fill:#000000;fill-rule:evenodd;fill-opacity:1;stroke:none;" />
  <path
     id="path144"
     d="  M 114.33916,181.27235   L 114.33916,169.13864   L 116.13925,169.13864   L 116.13925,181.27235   L 114.33916,181.27235  z "
     clip-path="url(#clipWmfPath1)"
     style="fill:none;stroke:#000000;stroke-width:0.066670068px;stroke-linecap:round;stroke-linejoin:round;stroke-miterlimit:4;stroke-dasharray:none;stroke-opacity:1;" />
  <path
     id="path146"
     d="  M 110.80565,181.27235   L 110.80565,169.13864   L 112.60574,169.13864   L 112.60574,181.27235   L 110.80565,181.27235  z "
     clip-path="url(#clipWmfPath1)"
     style="fill:#000000;fill-rule:evenodd;fill-opacity:1;stroke:none;" />
  <path
     id="path148"
     d="  M 110.80565,181.27235   L 110.80565,169.13864   L 112.60574,169.13864   L 112.60574,181.27235   L 110.80565,181.27235  z "
     clip-path="url(#clipWmfPath1)"
     style="fill:none;stroke:#000000;stroke-width:0.066670068px;stroke-linecap:round;stroke-linejoin:round;stroke-miterlimit:4;stroke-dasharray:none;stroke-opacity:1;" />
  <path
     id="path150"
     d="  M 107.27214,181.27235   L 107.27214,169.13864   L 109.07223,169.13864   L 109.07223,181.27235   L 107.27214,181.27235  z "
     clip-path="url(#clipWmfPath1)"
     style="fill:#000000;fill-rule:evenodd;fill-opacity:1;stroke:none;" />
  <path
     id="path152"
     d="  M 107.27214,181.27235   L 107.27214,169.13864   L 109.07223,169.13864   L 109.07223,181.27235   L 107.27214,181.27235  z "
     clip-path="url(#clipWmfPath1)"
     style="fill:none;stroke:#000000;stroke-width:0.066670068px;stroke-linecap:round;stroke-linejoin:round;stroke-miterlimit:4;stroke-dasharray:none;stroke-opacity:1;" />
  <path
     id="path154"
     d="  M 103.80529,181.27235   L 103.80529,169.13864   L 105.60538,169.13864   L 105.60538,181.27235   L 103.80529,181.27235  z "
     clip-path="url(#clipWmfPath1)"
     style="fill:#000000;fill-rule:evenodd;fill-opacity:1;stroke:none;" />
  <path
     id="path156"
     d="  M 103.80529,181.27235   L 103.80529,169.13864   L 105.60538,169.13864   L 105.60538,181.27235   L 103.80529,181.27235  z "
     clip-path="url(#clipWmfPath1)"
     style="fill:none;stroke:#000000;stroke-width:0.066670068px;stroke-linecap:round;stroke-linejoin:round;stroke-miterlimit:4;stroke-dasharray:none;stroke-opacity:1;" />
  <path
     id="path158"
     d="  M 100.27178,181.27235   L 100.27178,169.13864   L 102.07187,169.13864   L 102.07187,181.27235   L 100.27178,181.27235  z "
     clip-path="url(#clipWmfPath1)"
     style="fill:#000000;fill-rule:evenodd;fill-opacity:1;stroke:none;" />
  <path
     id="path160"
     d="  M 100.27178,181.27235   L 100.27178,169.13864   L 102.07187,169.13864   L 102.07187,181.27235   L 100.27178,181.27235  z "
     clip-path="url(#clipWmfPath1)"
     style="fill:none;stroke:#000000;stroke-width:0.066670068px;stroke-linecap:round;stroke-linejoin:round;stroke-miterlimit:4;stroke-dasharray:none;stroke-opacity:1;" />
  <path
     id="path162"
     d="  M 96.804935,181.27235   L 96.804935,169.13864   L 98.605027,169.13864   L 98.605027,181.27235   L 96.804935,181.27235  z "
     clip-path="url(#clipWmfPath1)"
     style="fill:#000000;fill-rule:evenodd;fill-opacity:1;stroke:none;" />
  <path
     id="path164"
     d="  M 96.804935,181.27235   L 96.804935,169.13864   L 98.605027,169.13864   L 98.605027,181.27235   L 96.804935,181.27235  z "
     clip-path="url(#clipWmfPath1)"
     style="fill:none;stroke:#000000;stroke-width:0.066670068px;stroke-linecap:round;stroke-linejoin:round;stroke-miterlimit:4;stroke-dasharray:none;stroke-opacity:1;" />
  <path
     id="path166"
     d="  M 93.271421,181.27235   L 93.271421,169.13864   L 95.071513,169.13864   L 95.071513,181.27235   L 93.271421,181.27235  z "
     clip-path="url(#clipWmfPath1)"
     style="fill:#000000;fill-rule:evenodd;fill-opacity:1;stroke:none;" />
  <path
     id="path168"
     d="  M 93.271421,181.27235   L 93.271421,169.13864   L 95.071513,169.13864   L 95.071513,181.27235   L 93.271421,181.27235  z "
     clip-path="url(#clipWmfPath1)"
     style="fill:none;stroke:#000000;stroke-width:0.066670068px;stroke-linecap:round;stroke-linejoin:round;stroke-miterlimit:4;stroke-dasharray:none;stroke-opacity:1;" />
  <path
     id="path170"
     d="  M 89.804578,181.27235   L 89.804578,169.13864   L 91.60467,169.13864   L 91.60467,181.27235   L 89.804578,181.27235  z "
     clip-path="url(#clipWmfPath1)"
     style="fill:#000000;fill-rule:evenodd;fill-opacity:1;stroke:none;" />
  <path
     id="path172"
     d="  M 89.804578,181.27235   L 89.804578,169.13864   L 91.60467,169.13864   L 91.60467,181.27235   L 89.804578,181.27235  z "
     clip-path="url(#clipWmfPath1)"
     style="fill:none;stroke:#000000;stroke-width:0.066670068px;stroke-linecap:round;stroke-linejoin:round;stroke-miterlimit:4;stroke-dasharray:none;stroke-opacity:1;" />
  <path
     id="path174"
     d="  M 86.271064,181.27235   L 86.271064,169.13864   L 88.071156,169.13864   L 88.071156,181.27235   L 86.271064,181.27235  z "
     clip-path="url(#clipWmfPath1)"
     style="fill:#000000;fill-rule:evenodd;fill-opacity:1;stroke:none;" />
  <path
     id="path176"
     d="  M 86.271064,181.27235   L 86.271064,169.13864   L 88.071156,169.13864   L 88.071156,181.27235   L 86.271064,181.27235  z "
     clip-path="url(#clipWmfPath1)"
     style="fill:none;stroke:#000000;stroke-width:0.066670068px;stroke-linecap:round;stroke-linejoin:round;stroke-miterlimit:4;stroke-dasharray:none;stroke-opacity:1;" />
  <path
     id="path178"
     d="  M 82.804221,181.27235   L 82.804221,169.13864   L 84.604313,169.13864   L 84.604313,181.27235   L 82.804221,181.27235  z "
     clip-path="url(#clipWmfPath1)"
     style="fill:#000000;fill-rule:evenodd;fill-opacity:1;stroke:none;" />
  <path
     id="path180"
     d="  M 82.804221,181.27235   L 82.804221,169.13864   L 84.604313,169.13864   L 84.604313,181.27235   L 82.804221,181.27235  z "
     clip-path="url(#clipWmfPath1)"
     style="fill:none;stroke:#000000;stroke-width:0.066670068px;stroke-linecap:round;stroke-linejoin:round;stroke-miterlimit:4;stroke-dasharray:none;stroke-opacity:1;" />
  <path
     id="path182"
     d="  M 79.270708,181.27235   L 79.270708,169.13864   L 81.070799,169.13864   L 81.070799,181.27235   L 79.270708,181.27235  z "
     clip-path="url(#clipWmfPath1)"
     style="fill:#000000;fill-rule:evenodd;fill-opacity:1;stroke:none;" />
  <path
     id="path184"
     d="  M 79.270708,181.27235   L 79.270708,169.13864   L 81.070799,169.13864   L 81.070799,181.27235   L 79.270708,181.27235  z "
     clip-path="url(#clipWmfPath1)"
     style="fill:none;stroke:#000000;stroke-width:0.066670068px;stroke-linecap:round;stroke-linejoin:round;stroke-miterlimit:4;stroke-dasharray:none;stroke-opacity:1;" />
  <path
     id="path186"
     d="  M 75.803864,181.27235   L 75.803864,169.13864   L 77.603956,169.13864   L 77.603956,181.27235   L 75.803864,181.27235  z "
     clip-path="url(#clipWmfPath1)"
     style="fill:#000000;fill-rule:evenodd;fill-opacity:1;stroke:none;" />
  <path
     id="path188"
     d="  M 75.803864,181.27235   L 75.803864,169.13864   L 77.603956,169.13864   L 77.603956,181.27235   L 75.803864,181.27235  z "
     clip-path="url(#clipWmfPath1)"
     style="fill:none;stroke:#000000;stroke-width:0.066670068px;stroke-linecap:round;stroke-linejoin:round;stroke-miterlimit:4;stroke-dasharray:none;stroke-opacity:1;" />
  <path
     id="path190"
     d="  M 72.270351,181.27235   L 72.270351,169.13864   L 74.070443,169.13864   L 74.070443,181.27235   L 72.270351,181.27235  z "
     clip-path="url(#clipWmfPath1)"
     style="fill:#000000;fill-rule:evenodd;fill-opacity:1;stroke:none;" />
  <path
     id="path192"
     d="  M 72.270351,181.27235   L 72.270351,169.13864   L 74.070443,169.13864   L 74.070443,181.27235   L 72.270351,181.27235  z "
     clip-path="url(#clipWmfPath1)"
     style="fill:none;stroke:#000000;stroke-width:0.066670068px;stroke-linecap:round;stroke-linejoin:round;stroke-miterlimit:4;stroke-dasharray:none;stroke-opacity:1;" />
  <path
     id="path194"
     d="  M 68.803507,181.27235   L 68.803507,169.13864   L 70.603599,169.13864   L 70.603599,181.27235   L 68.803507,181.27235  z "
     clip-path="url(#clipWmfPath1)"
     style="fill:#000000;fill-rule:evenodd;fill-opacity:1;stroke:none;" />
  <path
     id="path196"
     d="  M 68.803507,181.27235   L 68.803507,169.13864   L 70.603599,169.13864   L 70.603599,181.27235   L 68.803507,181.27235  z "
     clip-path="url(#clipWmfPath1)"
     style="fill:none;stroke:#000000;stroke-width:0.066670068px;stroke-linecap:round;stroke-linejoin:round;stroke-miterlimit:4;stroke-dasharray:none;stroke-opacity:1;" />
  <path
     id="path198"
     d="  M 65.269994,181.27235   L 65.269994,169.13864   L 67.070086,169.13864   L 67.070086,181.27235   L 65.269994,181.27235  z "
     clip-path="url(#clipWmfPath1)"
     style="fill:#000000;fill-rule:evenodd;fill-opacity:1;stroke:none;" />
  <path
     id="path200"
     d="  M 65.269994,181.27235   L 65.269994,169.13864   L 67.070086,169.13864   L 67.070086,181.27235   L 65.269994,181.27235  z "
     clip-path="url(#clipWmfPath1)"
     style="fill:none;stroke:#000000;stroke-width:0.066670068px;stroke-linecap:round;stroke-linejoin:round;stroke-miterlimit:4;stroke-dasharray:none;stroke-opacity:1;" />
  <path
     id="path202"
     d="  M 61.803151,181.27235   L 61.803151,169.13864   L 63.603242,169.13864   L 63.603242,181.27235   L 61.803151,181.27235  z "
     clip-path="url(#clipWmfPath1)"
     style="fill:#000000;fill-rule:evenodd;fill-opacity:1;stroke:none;" />
  <path
     id="path204"
     d="  M 61.803151,181.27235   L 61.803151,169.13864   L 63.603242,169.13864   L 63.603242,181.27235   L 61.803151,181.27235  z "
     clip-path="url(#clipWmfPath1)"
     style="fill:none;stroke:#000000;stroke-width:0.066670068px;stroke-linecap:round;stroke-linejoin:round;stroke-miterlimit:4;stroke-dasharray:none;stroke-opacity:1;" />
  <path
     id="path206"
     d="  M 58.269637,181.27235   L 58.269637,169.13864   L 60.069729,169.13864   L 60.069729,181.27235   L 58.269637,181.27235  z "
     clip-path="url(#clipWmfPath1)"
     style="fill:#000000;fill-rule:evenodd;fill-opacity:1;stroke:none;" />
  <path
     id="path208"
     d="  M 58.269637,181.27235   L 58.269637,169.13864   L 60.069729,169.13864   L 60.069729,181.27235   L 58.269637,181.27235  z "
     clip-path="url(#clipWmfPath1)"
     style="fill:none;stroke:#000000;stroke-width:0.066670068px;stroke-linecap:round;stroke-linejoin:round;stroke-miterlimit:4;stroke-dasharray:none;stroke-opacity:1;" />
  <path
     id="path210"
     d="  M 54.802794,181.27235   L 54.802794,169.13864   L 56.602885,169.13864   L 56.602885,181.27235   L 54.802794,181.27235  z "
     clip-path="url(#clipWmfPath1)"
     style="fill:#000000;fill-rule:evenodd;fill-opacity:1;stroke:none;" />
  <path
     id="path212"
     d="  M 54.802794,181.27235   L 54.802794,169.13864   L 56.602885,169.13864   L 56.602885,181.27235   L 54.802794,181.27235  z "
     clip-path="url(#clipWmfPath1)"
     style="fill:none;stroke:#000000;stroke-width:0.066670068px;stroke-linecap:round;stroke-linejoin:round;stroke-miterlimit:4;stroke-dasharray:none;stroke-opacity:1;" />
  <path
     id="path214"
     d="  M 51.26928,181.27235   L 51.26928,169.13864   L 53.069372,169.13864   L 53.069372,181.27235   L 51.26928,181.27235  z "
     clip-path="url(#clipWmfPath1)"
     style="fill:#000000;fill-rule:evenodd;fill-opacity:1;stroke:none;" />
  <path
     id="path216"
     d="  M 51.26928,181.27235   L 51.26928,169.13864   L 53.069372,169.13864   L 53.069372,181.27235   L 51.26928,181.27235  z "
     clip-path="url(#clipWmfPath1)"
     style="fill:none;stroke:#000000;stroke-width:0.066670068px;stroke-linecap:round;stroke-linejoin:round;stroke-miterlimit:4;stroke-dasharray:none;stroke-opacity:1;" />
  <path
     id="path218"
     d="  M 47.802437,181.27235   L 47.802437,169.13864   L 49.602529,169.13864   L 49.602529,181.27235   L 47.802437,181.27235  z "
     clip-path="url(#clipWmfPath1)"
     style="fill:#000000;fill-rule:evenodd;fill-opacity:1;stroke:none;" />
  <path
     id="path220"
     d="  M 47.802437,181.27235   L 47.802437,169.13864   L 49.602529,169.13864   L 49.602529,181.27235   L 47.802437,181.27235  z "
     clip-path="url(#clipWmfPath1)"
     style="fill:none;stroke:#000000;stroke-width:0.066670068px;stroke-linecap:round;stroke-linejoin:round;stroke-miterlimit:4;stroke-dasharray:none;stroke-opacity:1;" />
  <path
     id="path222"
     d="  M 44.268923,181.27235   L 44.268923,169.13864   L 46.069015,169.13864   L 46.069015,181.27235   L 44.268923,181.27235  z "
     clip-path="url(#clipWmfPath1)"
     style="fill:#000000;fill-rule:evenodd;fill-opacity:1;stroke:none;" />
  <path
     id="path224"
     d="  M 44.268923,181.27235   L 44.268923,169.13864   L 46.069015,169.13864   L 46.069015,181.27235   L 44.268923,181.27235  z "
     clip-path="url(#clipWmfPath1)"
     style="fill:none;stroke:#000000;stroke-width:0.066670068px;stroke-linecap:round;stroke-linejoin:round;stroke-miterlimit:4;stroke-dasharray:none;stroke-opacity:1;" />
  <path
     id="path226"
     d="  M 40.80208,181.27235   L 40.80208,169.13864   L 42.602172,169.13864   L 42.602172,181.27235   L 40.80208,181.27235  z "
     clip-path="url(#clipWmfPath1)"
     style="fill:#000000;fill-rule:evenodd;fill-opacity:1;stroke:none;" />
  <path
     id="path228"
     d="  M 40.80208,181.27235   L 40.80208,169.13864   L 42.602172,169.13864   L 42.602172,181.27235   L 40.80208,181.27235  z "
     clip-path="url(#clipWmfPath1)"
     style="fill:none;stroke:#000000;stroke-width:0.066670068px;stroke-linecap:round;stroke-linejoin:round;stroke-miterlimit:4;stroke-dasharray:none;stroke-opacity:1;" />
  <path
     id="path230"
     d="  M 37.268567,181.27235   L 37.268567,169.13864   L 39.068658,169.13864   L 39.068658,181.27235   L 37.268567,181.27235  z "
     clip-path="url(#clipWmfPath1)"
     style="fill:#000000;fill-rule:evenodd;fill-opacity:1;stroke:none;" />
  <path
     id="path232"
     d="  M 37.268567,181.27235   L 37.268567,169.13864   L 39.068658,169.13864   L 39.068658,181.27235   L 37.268567,181.27235  z "
     clip-path="url(#clipWmfPath1)"
     style="fill:none;stroke:#000000;stroke-width:0.066670068px;stroke-linecap:round;stroke-linejoin:round;stroke-miterlimit:4;stroke-dasharray:none;stroke-opacity:1;" />
  <path
     id="path234"
     d="  M 33.801723,181.27235   L 33.801723,169.13864   L 35.601815,169.13864   L 35.601815,181.27235   L 33.801723,181.27235  z "
     clip-path="url(#clipWmfPath1)"
     style="fill:#000000;fill-rule:evenodd;fill-opacity:1;stroke:none;" />
  <path
     id="path236"
     d="  M 33.801723,181.27235   L 33.801723,169.13864   L 35.601815,169.13864   L 35.601815,181.27235   L 33.801723,181.27235  z "
     clip-path="url(#clipWmfPath1)"
     style="fill:none;stroke:#000000;stroke-width:0.066670068px;stroke-linecap:round;stroke-linejoin:round;stroke-miterlimit:4;stroke-dasharray:none;stroke-opacity:1;" />
  <path
     id="path238"
     d="  M 30.26821,181.27235   L 30.26821,169.13864   L 32.068301,169.13864   L 32.068301,181.27235   L 30.26821,181.27235  z "
     clip-path="url(#clipWmfPath1)"
     style="fill:#000000;fill-rule:evenodd;fill-opacity:1;stroke:none;" />
  <path
     id="path240"
     d="  M 30.26821,181.27235   L 30.26821,169.13864   L 32.068301,169.13864   L 32.068301,181.27235   L 30.26821,181.27235  z "
     clip-path="url(#clipWmfPath1)"
     style="fill:none;stroke:#000000;stroke-width:0.066670068px;stroke-linecap:round;stroke-linejoin:round;stroke-miterlimit:4;stroke-dasharray:none;stroke-opacity:1;" />
  <path
     id="path242"
     d="  M 26.801366,181.27235   L 26.801366,169.13864   L 28.601458,169.13864   L 28.601458,181.27235   L 26.801366,181.27235  z "
     clip-path="url(#clipWmfPath1)"
     style="fill:#000000;fill-rule:evenodd;fill-opacity:1;stroke:none;" />
  <path
     id="path244"
     d="  M 26.801366,181.27235   L 26.801366,169.13864   L 28.601458,169.13864   L 28.601458,181.27235   L 26.801366,181.27235  z "
     clip-path="url(#clipWmfPath1)"
     style="fill:none;stroke:#000000;stroke-width:0.066670068px;stroke-linecap:round;stroke-linejoin:round;stroke-miterlimit:4;stroke-dasharray:none;stroke-opacity:1;" />
  <path
     id="path246"
     d="  M 23.267853,181.27235   L 23.267853,169.13864   L 25.067945,169.13864   L 25.067945,181.27235   L 23.267853,181.27235  z "
     clip-path="url(#clipWmfPath1)"
     style="fill:#000000;fill-rule:evenodd;fill-opacity:1;stroke:none;" />
  <path
     id="path248"
     d="  M 23.267853,181.27235   L 23.267853,169.13864   L 25.067945,169.13864   L 25.067945,181.27235   L 23.267853,181.27235  z "
     clip-path="url(#clipWmfPath1)"
     style="fill:none;stroke:#000000;stroke-width:0.066670068px;stroke-linecap:round;stroke-linejoin:round;stroke-miterlimit:4;stroke-dasharray:none;stroke-opacity:1;" />
  <g
     id="g250"
     clip-path="url(#clipWmfPath1)" />
  <g
     id="g270"
     clip-path="url(#clipWmfPath1)">
    <text
       id="text268"
       y="8.874813"
       x="0.000000"
       transform="matrix(1.000000,-0.000000,0.000000,1.000000,170.942047,151.671425)"
       style="font-size:9.312500px;font-style:normal;font-variant:normal;font-weight:400;font-stretch:Condensed;line-height:125.000000%;letter-spacing:0px;word-spacing:0px;fill:#000000;fill-opacity:1;stroke:none;font-family:Helvetica-Narrow;text-align:start;text-anchor:start;"
       xml:space="preserve"><tspan
         id="tspan266"
         y="8.874813"
         x="0.000000"><tspan
           id="tspan252"
           style="fill:#000000;font-size:9.312500px;font-style:normal;font-variant:normal;font-weight:400;font-stretch:Condensed;font-family:Helvetica-Narrow;"
           dy="0.000000"
           dx="0.000000">M</tspan><tspan
           id="tspan254"
           style="fill:#000000;font-size:9.312500px;font-style:normal;font-variant:normal;font-weight:400;font-stretch:Condensed;font-family:Helvetica-Narrow;"
           dy="0.000000"
           dx="-0.156925">H</tspan><tspan
           id="tspan256"
           style="fill:#000000;font-size:9.312500px;font-style:normal;font-variant:normal;font-weight:400;font-stretch:Condensed;font-family:Helvetica-Narrow;"
           dy="0.000000"
           dx="0.117263">1</tspan><tspan
           id="tspan258"
           style="fill:#000000;font-size:9.312500px;font-style:normal;font-variant:normal;font-weight:400;font-stretch:Condensed;font-family:Helvetica-Narrow;"
           dy="0.000000"
           dx="0.050362">4</tspan><tspan
           id="tspan260"
           style="fill:#000000;font-size:9.312500px;font-style:normal;font-variant:normal;font-weight:400;font-stretch:Condensed;font-family:Helvetica-Narrow;"
           dy="0.000000"
           dx="0.050362">6</tspan><tspan
           id="tspan262"
           style="fill:#000000;font-size:9.312500px;font-style:normal;font-variant:normal;font-weight:400;font-stretch:Condensed;font-family:Helvetica-Narrow;"
           dy="0.000000"
           dx="0.050362">6</tspan><tspan
           id="tspan264"
           style="fill:#000000;font-size:9.312500px;font-style:normal;font-variant:normal;font-weight:400;font-stretch:Condensed;font-family:Helvetica-Narrow;"
           dy="0.000000"
           dx="0.050362">A</tspan></tspan></text>
  </g>
  <g
     id="g272"
     clip-path="url(#clipWmfPath1)" />
  <g
     id="g322"
     clip-path="url(#clipWmfPath1)">
    <text
       id="text282"
       y="10.249313"
       x="0.000000"
       transform="matrix(1.000000,-0.000000,0.000000,1.000000,51.869311,4.933488)"
       style="font-size:10.687500px;font-style:normal;font-variant:normal;font-weight:400;font-stretch:Condensed;line-height:125.000000%;letter-spacing:0px;word-spacing:0px;fill:#000000;fill-opacity:1;stroke:none;font-family:Helvetica-Narrow;text-align:start;text-anchor:start;"
       xml:space="preserve"><tspan
         id="tspan280"
         y="10.249313"
         x="0.000000"><tspan
           id="tspan274"
           style="fill:#000000;font-size:10.687500px;font-style:normal;font-variant:normal;font-weight:400;font-stretch:Condensed;font-family:Helvetica-Narrow;"
           dy="0.000000"
           dx="0.000000">C</tspan><tspan
           id="tspan276"
           style="fill:#000000;font-size:10.687500px;font-style:normal;font-variant:normal;font-weight:400;font-stretch:Condensed;font-family:Helvetica-Narrow;"
           dy="0.000000"
           dx="0.083568">P</tspan><tspan
           id="tspan278"
           style="fill:#000000;font-size:10.687500px;font-style:normal;font-variant:normal;font-weight:400;font-stretch:Condensed;font-family:Helvetica-Narrow;"
           dy="0.000000"
           dx="-0.102195">U</tspan></tspan></text>
    <text
       id="text304"
       y="10.249313"
       x="26.868036"
       transform="matrix(1.000000,-0.000000,0.000000,1.000000,51.869311,4.933488)"
       style="font-size:10.687500px;font-style:normal;font-variant:normal;font-weight:400;font-stretch:Condensed;line-height:125.000000%;letter-spacing:0px;word-spacing:0px;fill:#000000;fill-opacity:1;stroke:none;font-family:Helvetica-Narrow;text-align:start;text-anchor:start;"
       xml:space="preserve"><tspan
         id="tspan302"
         y="10.249313"
         x="26.868036"><tspan
           id="tspan284"
           style="fill:#000000;font-size:10.687500px;font-style:normal;font-variant:normal;font-weight:400;font-stretch:Condensed;font-family:Helvetica-Narrow;"
           dy="0.000000"
           dx="0.000000">P</tspan><tspan
           id="tspan286"
           style="fill:#000000;font-size:10.687500px;font-style:normal;font-variant:normal;font-weight:400;font-stretch:Condensed;font-family:Helvetica-Narrow;"
           dy="0.000000"
           dx="-0.102195">r</tspan><tspan
           id="tspan288"
           style="fill:#000000;font-size:10.687500px;font-style:normal;font-variant:normal;font-weight:400;font-stretch:Condensed;font-family:Helvetica-Narrow;"
           dy="0.000000"
           dx="-0.040633">o</tspan><tspan
           id="tspan290"
           style="fill:#000000;font-size:10.687500px;font-style:normal;font-variant:normal;font-weight:400;font-stretch:Condensed;font-family:Helvetica-Narrow;"
           dy="0.000000"
           dx="-0.063013">c</tspan><tspan
           id="tspan292"
           style="fill:#000000;font-size:10.687500px;font-style:normal;font-variant:normal;font-weight:400;font-stretch:Condensed;font-family:Helvetica-Narrow;"
           dy="0.000000"
           dx="0.951730">e</tspan><tspan
           id="tspan294"
           style="fill:#000000;font-size:10.687500px;font-style:normal;font-variant:normal;font-weight:400;font-stretch:Condensed;font-family:Helvetica-Narrow;"
           dy="0.000000"
           dx="-0.063013">s</tspan><tspan
           id="tspan296"
           style="fill:#000000;font-size:10.687500px;font-style:normal;font-variant:normal;font-weight:400;font-stretch:Condensed;font-family:Helvetica-Narrow;"
           dy="0.000000"
           dx="0.951730">s</tspan><tspan
           id="tspan298"
           style="fill:#000000;font-size:10.687500px;font-style:normal;font-variant:normal;font-weight:400;font-stretch:Condensed;font-family:Helvetica-Narrow;"
           dy="0.000000"
           dx="0.951730">o</tspan><tspan
           id="tspan300"
           style="fill:#000000;font-size:10.687500px;font-style:normal;font-variant:normal;font-weight:400;font-stretch:Condensed;font-family:Helvetica-Narrow;"
           dy="0.000000"
           dx="-0.063013">r</tspan></tspan></text>
    <text
       id="text320"
       y="10.249313"
       x="80.670779"
       transform="matrix(1.000000,-0.000000,0.000000,1.000000,51.869311,4.933488)"
       style="font-size:10.687500px;font-style:normal;font-variant:normal;font-weight:400;font-stretch:Condensed;line-height:125.000000%;letter-spacing:0px;word-spacing:0px;fill:#000000;fill-opacity:1;stroke:none;font-family:Helvetica-Narrow;text-align:start;text-anchor:start;"
       xml:space="preserve"><tspan
         id="tspan318"
         y="10.249313"
         x="80.670779"><tspan
           id="tspan306"
           style="fill:#000000;font-size:10.687500px;font-style:normal;font-variant:normal;font-weight:400;font-stretch:Condensed;font-family:Helvetica-Narrow;"
           dy="0.000000"
           dx="0.000000">M</tspan><tspan
           id="tspan308"
           style="fill:#000000;font-size:10.687500px;font-style:normal;font-variant:normal;font-weight:400;font-stretch:Condensed;font-family:Helvetica-Narrow;"
           dy="0.000000"
           dx="0.044387">o</tspan><tspan
           id="tspan310"
           style="fill:#000000;font-size:10.687500px;font-style:normal;font-variant:normal;font-weight:400;font-stretch:Condensed;font-family:Helvetica-Narrow;"
           dy="0.000000"
           dx="-0.063013">d</tspan><tspan
           id="tspan312"
           style="fill:#000000;font-size:10.687500px;font-style:normal;font-variant:normal;font-weight:400;font-stretch:Condensed;font-family:Helvetica-Narrow;"
           dy="0.000000"
           dx="-0.063013">u</tspan><tspan
           id="tspan314"
           style="fill:#000000;font-size:10.687500px;font-style:normal;font-variant:normal;font-weight:400;font-stretch:Condensed;font-family:Helvetica-Narrow;"
           dy="0.000000"
           dx="-0.063013">l</tspan><tspan
           id="tspan316"
           style="fill:#000000;font-size:10.687500px;font-style:normal;font-variant:normal;font-weight:400;font-stretch:Condensed;font-family:Helvetica-Narrow;"
           dy="0.000000"
           dx="-0.001451">e</tspan></tspan></text>
  </g>
  <path
     id="path324"
     d="  M 184.4094,109.27009   L 125.40639,109.27009   L 125.40639,49.868231   L 179.47582,49.868231   L 184.4094,54.801719   L 184.4094,109.27009  z "
     clip-path="url(#clipWmfPath1)"
     style="fill:#000000;fill-rule:nonzero;fill-opacity:1;stroke:none;" />
  <path
     id="path326"
     d="  M 184.4094,109.27009   L 125.40639,109.27009   L 125.40639,49.868231   L 179.47582,49.868231   L 184.4094,54.801719   L 184.4094,109.27009  z "
     clip-path="url(#clipWmfPath1)"
     style="fill:none;stroke:#000000;stroke-width:0.066670068px;stroke-linecap:round;stroke-linejoin:round;stroke-miterlimit:4;stroke-dasharray:none;stroke-opacity:1;" />
  <path
     id="path328"
     d="  M 157.40802,79.602497   L 157.20801,80.53586   L 156.74132,81.335885   L 155.94128,81.802566   L 155.0079,82.002572   L 154.00785,81.802566   L 153.20781,81.335885   L 152.67445,80.53586   L 152.47444,79.602497   L 152.67445,78.669134   L 153.20781,77.935778   L 154.00785,77.402428   L 155.0079,77.202422   L 155.94128,77.402428   L 156.74132,77.935778   L 157.20801,78.669134   L 157.40802,79.602497  z "
     clip-path="url(#clipWmfPath1)"
     style="fill:#ffffff;fill-rule:nonzero;fill-opacity:1;stroke:none;" />
  <path
     id="path330"
     d="  M 157.40802,79.602497   L 157.20801,80.53586   L 156.74132,81.335885   L 155.94128,81.802566   L 155.0079,82.002572   L 154.00785,81.802566   L 153.20781,81.335885   L 152.67445,80.53586   L 152.47444,79.602497   L 152.67445,78.669134   L 153.20781,77.935778   L 154.00785,77.402428   L 155.0079,77.202422   L 155.94128,77.402428   L 156.74132,77.935778   L 157.20801,78.669134   L 157.40802,79.602497  z "
     clip-path="url(#clipWmfPath1)"
     style="fill:none;stroke:#ffffff;stroke-width:0.066670068px;stroke-linecap:round;stroke-linejoin:round;stroke-miterlimit:4;stroke-dasharray:none;stroke-opacity:1;" />
  <path
     id="path332"
     d="  M 133.07345,93.202924   L 131.94006,93.136255   L 130.80667,92.86958   L 128.93991,91.936217   L 127.6065,90.669511   L 127.27315,89.869486   L 127.13981,89.069461   L 127.13981,69.668852   L 127.27315,68.868827   L 127.6065,68.202139   L 128.93991,67.068771   L 130.80667,66.268745   L 133.07345,66.00207   L 176.74234,66.00207   L 179.00913,66.335414   L 180.87589,67.135439   L 181.60926,67.735458   L 182.20929,68.402146   L 182.54264,69.135502   L 182.67598,69.935527   L 182.67598,89.269467   L 182.54264,90.069492   L 182.20929,90.802848   L 181.60926,91.469536   L 180.87589,92.069555   L 179.00913,92.86958   L 176.74234,93.202924   L 133.07345,93.202924  z "
     clip-path="url(#clipWmfPath1)"
     style="fill:#ffffff;fill-rule:nonzero;fill-opacity:1;stroke:none;" />
  <path
     id="path334"
     d="  M 176.74234,93.736274   L 176.74234,92.669574   L 133.07345,92.669574   L 132.00673,92.602905   L 131.00668,92.402899   L 129.20659,91.536205   L 128.00653,90.402836   L 127.73985,89.736148   L 127.67318,89.002792   L 127.67318,69.735521   L 127.73985,69.002165   L 128.00653,68.535483   L 129.20659,67.535452   L 130.94001,66.735427   L 133.07345,66.535421   L 176.67567,66.535421   L 178.87579,66.802096   L 180.60921,67.602121   L 181.27591,68.135471   L 181.80927,68.668821   L 182.07595,69.26884   L 182.14262,70.002196   L 182.14262,89.202798   L 182.07595,89.936155   L 181.80927,90.536173   L 181.27591,91.069523   L 180.60921,91.602874   L 178.87579,92.402899   L 176.67567,92.669574   L 133.07345,92.669574   L 131.94006,92.602905   L 131.94006,93.669605   L 133.07345,93.736274   L 176.80901,93.736274   L 179.14247,93.336261   L 181.14257,92.536236   L 181.94261,91.869549   L 182.60931,91.069523   L 183.00933,90.20283   L 183.20934,89.336136   L 183.20934,69.868858   L 183.00933,69.002165   L 182.60931,68.135471   L 181.94261,67.335446   L 181.14257,66.668758   L 179.14247,65.868733   L 176.80901,65.46872   L 133.07345,65.46872   L 130.67333,65.802064   L 128.67323,66.602089   L 127.20648,67.868796   L 126.80646,68.73549   L 126.60645,69.602183   L 126.60645,89.136129   L 126.80646,90.002823   L 127.20648,90.936186   L 128.67323,92.33623   L 130.60666,93.336261   L 131.87339,93.669605   L 133.07345,93.736274   L 176.74234,93.736274  z "
     clip-path="url(#clipWmfPath1)"
     style="fill:#000000;fill-rule:nonzero;fill-opacity:1;stroke:#000000;stroke-width:0.066670068px;stroke-linecap:round;stroke-linejoin:round;stroke-miterlimit:4;stroke-dasharray:none;stroke-opacity:1;" />
  <g
     id="g336"
     clip-path="url(#clipWmfPath1)" />
  <g
     id="g374"
     clip-path="url(#clipWmfPath1)">
    <text
       id="text372"
       y="10.249313"
       x="21.390639"
       transform="matrix(1.000000,-0.000000,0.000000,1.000000,134.606862,67.935464)"
       style="font-size:10.687500px;font-style:normal;font-variant:normal;font-weight:400;font-stretch:Condensed;line-height:112.284224%;letter-spacing:0px;word-spacing:0px;fill:#000000;fill-opacity:1;stroke:none;font-family:Helvetica-Narrow;text-align:center;text-anchor:middle;"
       xml:space="preserve"><tspan
         id="tspan352"
         y="10.249313"
         x="21.390639"><tspan
           id="tspan338"
           style="fill:#000000;font-size:10.687500px;font-style:normal;font-variant:normal;font-weight:400;font-stretch:Condensed;font-family:Helvetica-Narrow;"
           dy="0.000000"
           dx="0.000000">8</tspan><tspan
           id="tspan340"
           style="fill:#000000;font-size:10.687500px;font-style:normal;font-variant:normal;font-weight:400;font-stretch:Condensed;font-family:Helvetica-Narrow;"
           dy="0.000000"
           dx="-0.063013">0</tspan><tspan
           id="tspan342"
           style="fill:#000000;font-size:10.687500px;font-style:normal;font-variant:normal;font-weight:400;font-stretch:Condensed;font-family:Helvetica-Narrow;"
           dy="0.000000"
           dx="-0.063013">3</tspan><tspan
           id="tspan344"
           style="fill:#000000;font-size:10.687500px;font-style:normal;font-variant:normal;font-weight:400;font-stretch:Condensed;font-family:Helvetica-Narrow;"
           dy="0.000000"
           dx="-0.063013">8</tspan><tspan
           id="tspan346"
           style="fill:#000000;font-size:10.687500px;font-style:normal;font-variant:normal;font-weight:400;font-stretch:Condensed;font-family:Helvetica-Narrow;"
           dy="0.000000"
           dx="-0.063013">6</tspan><tspan
           id="tspan348"
           style="fill:#000000;font-size:10.687500px;font-style:normal;font-variant:normal;font-weight:400;font-stretch:Condensed;font-family:Helvetica-Narrow;"
           dy="0.000000"
           dx="-0.063013">S</tspan><tspan
           id="tspan350"
           style="fill:#000000;font-size:10.687500px;font-style:normal;font-variant:normal;font-weight:400;font-stretch:Condensed;font-family:Helvetica-Narrow;"
           dy="0.000000"
           dx="-0.102195">X</tspan></tspan><tspan
         id="tspan370"
         y="22.249689"
         x="21.297758"><tspan
           id="tspan354"
           style="fill:#000000;font-size:10.687500px;font-style:normal;font-variant:normal;font-weight:400;font-stretch:Condensed;font-family:Helvetica-Narrow;"
           dy="0.000000"
           dx="0.000000">C</tspan><tspan
           id="tspan356"
           style="fill:#000000;font-size:10.687500px;font-style:normal;font-variant:normal;font-weight:400;font-stretch:Condensed;font-family:Helvetica-Narrow;"
           dy="0.000000"
           dx="0.083568">X</tspan><tspan
           id="tspan358"
           style="fill:#000000;font-size:10.687500px;font-style:normal;font-variant:normal;font-weight:400;font-stretch:Condensed;font-family:Helvetica-Narrow;"
           dy="0.000000"
           dx="-0.102195">4</tspan><tspan
           id="tspan360"
           style="fill:#000000;font-size:10.687500px;font-style:normal;font-variant:normal;font-weight:400;font-stretch:Condensed;font-family:Helvetica-Narrow;"
           dy="0.000000"
           dx="-0.063013">8</tspan><tspan
           id="tspan362"
           style="fill:#000000;font-size:10.687500px;font-style:normal;font-variant:normal;font-weight:400;font-stretch:Condensed;font-family:Helvetica-Narrow;"
           dy="0.000000"
           dx="-0.063013">6</tspan><tspan
           id="tspan364"
           style="fill:#000000;font-size:10.687500px;font-style:normal;font-variant:normal;font-weight:400;font-stretch:Condensed;font-family:Helvetica-Narrow;"
           dy="0.000000"
           dx="-0.063013">S</tspan><tspan
           id="tspan366"
           style="fill:#000000;font-size:10.687500px;font-style:normal;font-variant:normal;font-weight:400;font-stretch:Condensed;font-family:Helvetica-Narrow;"
           dy="0.000000"
           dx="-0.102195">L</tspan><tspan
           id="tspan368"
           style="fill:#000000;font-size:10.687500px;font-style:normal;font-variant:normal;font-weight:400;font-stretch:Condensed;font-family:Helvetica-Narrow;"
           dy="0.000000"
           dx="-0.063013">C</tspan></tspan></text>
  </g>
  <path
     id="path376"
     d="  M 97.204955,58.135157   L 97.204955,105.80332   L 49.669199,105.80332   L 49.669199,58.135157   L 97.204955,58.135157  z "
     clip-path="url(#clipWmfPath1)"
     style="fill:#000000;fill-rule:nonzero;fill-opacity:1;stroke:none;" />
  <path
     id="path378"
     d="  M 97.204955,58.135157   L 97.204955,105.80332   L 49.669199,105.80332   L 49.669199,58.135157   L 97.204955,58.135157  z "
     clip-path="url(#clipWmfPath1)"
     style="fill:none;stroke:#000000;stroke-width:0.066670068px;stroke-linecap:round;stroke-linejoin:round;stroke-miterlimit:4;stroke-dasharray:none;stroke-opacity:1;" />
  <path
     id="path380"
     d="  M 91.93802,64.868702   L 91.93802,63.802001   L 90.737959,63.802001   L 90.737959,60.001882   L 89.937918,60.001882   L 89.871248,63.802001   L 89.004537,63.802001   L 89.004537,60.001882   L 88.204496,60.001882   L 88.204496,63.802001   L 87.204445,63.802001   L 87.204445,60.001882   L 86.337735,60.001882   L 86.337735,63.802001   L 85.471024,63.802001   L 85.471024,60.001882   L 84.604313,60.001882   L 84.604313,63.802001   L 83.737602,63.802001   L 83.737602,60.001882   L 82.937561,60.001882   L 82.937561,63.802001   L 81.93751,63.802001   L 81.93751,60.001882   L 81.004129,60.001882   L 81.004129,63.802001   L 80.070748,63.802001   L 80.070748,60.001882   L 79.204038,60.001882   L 79.204038,63.802001   L 78.403997,63.802001   L 78.403997,60.001882   L 77.470616,60.001882   L 77.470616,63.802001   L 76.670575,63.802001   L 76.670575,59.935213   L 75.803864,60.001882   L 75.803864,63.802001   L 74.803813,63.802001   L 74.803813,60.001882   L 73.937102,60.001882   L 73.937102,63.802001   L 72.937051,63.802001   L 72.937051,60.001882   L 72.003671,60.001882   L 72.003671,63.802001   L 71.20363,63.802001   L 71.20363,60.001882   L 70.403589,60.001882   L 70.403589,63.802001   L 69.336868,63.802001   L 69.336868,60.001882   L 68.470157,60.001882   L 68.470157,63.802001   L 67.603446,63.802001   L 67.603446,60.001882   L 66.736735,60.001882   L 66.736735,63.802001   L 65.870025,63.802001   L 65.870025,60.001882   L 64.936644,60.001882   L 64.936644,63.802001   L 64.003263,63.802001   L 64.003263,60.201889   L 63.069882,60.001882   L 63.069882,63.802001   L 62.203171,63.802001   L 62.203171,60.001882   L 61.33646,60.001882   L 61.33646,63.802001   L 60.469749,63.802001   L 60.469749,60.13522   L 59.603038,60.001882   L 59.603038,63.802001   L 58.669657,63.802001   L 58.669657,60.001882   L 57.802947,60.001882   L 57.802947,63.802001   L 56.936236,63.802001   L 56.936236,60.001882   L 56.069525,60.001882   L 56.069525,63.802001   L 55.002804,63.802001   L 55.002804,64.602027   L 51.20261,64.602027   L 51.20261,65.46872   L 55.002804,65.335383   L 55.002804,66.268745   L 51.20261,66.268745   L 51.20261,67.202108   L 55.002804,67.202108   L 55.002804,68.135471   L 51.20261,68.135471   L 51.20261,69.002165   L 55.002804,69.002165   L 55.002804,69.868858   L 51.20261,69.868858   L 51.20261,70.735552   L 55.002804,70.735552   L 55.002804,71.602246   L 51.20261,71.602246   L 51.20261,72.46894   L 55.002804,72.46894   L 55.002804,73.468971   L 51.20261,73.53564   L 51.20261,74.335665   L 55.002804,74.335665   L 55.002804,75.269028   L 51.20261,75.269028   L 51.20261,76.135722   L 55.002804,76.135722   L 55.002804,77.002416   L 51.20261,77.002416   L 51.20261,77.869109   L 55.002804,77.869109   L 55.002804,78.869141   L 51.20261,78.869141   L 51.20261,79.735835   L 55.002804,79.735835   L 55.002804,80.53586   L 51.20261,80.53586   L 51.20261,81.402554   L 55.002804,81.402554   L 55.002804,82.469254   L 51.20261,82.469254   L 51.20261,83.269279   L 55.002804,83.269279   L 55.002804,84.335979   L 51.20261,84.335979   L 51.20261,85.136004   L 55.002804,85.136004   L 55.002804,86.002698   L 51.20261,86.002698   L 51.0026,86.869392   L 55.002804,86.869392   L 55.002804,87.736086   L 51.20261,87.736086   L 51.20261,88.602779   L 55.002804,88.602779   L 55.002804,89.602811   L 51.20261,89.602811   L 51.20261,90.402836   L 55.002804,90.402836   L 55.002804,91.536205   L 51.20261,91.402867   L 51.20261,92.269561   L 55.002804,92.269561   L 55.002804,93.136255   L 51.20261,93.136255   L 51.20261,94.002949   L 55.002804,94.002949   L 55.002804,94.869643   L 51.20261,94.869643   L 51.20261,95.669668   L 55.002804,95.669668   L 55.002804,96.669699   L 51.20261,96.669699   L 51.20261,97.536393   L 55.002804,97.536393   L 55.002804,98.336418   L 51.20261,98.336418   L 51.20261,99.203112   L 55.002804,99.203112   L 55.002804,100.53649   L 56.136195,100.53649   L 56.136195,104.33661   L 56.936236,104.33661   L 56.936236,100.53649   L 57.802947,100.53649   L 57.802947,104.33661   L 58.669657,104.33661   L 58.669657,100.53649   L 59.603038,100.53649   L 59.603038,104.33661   L 60.469749,104.33661   L 60.469749,100.53649   L 61.33646,100.53649   L 61.33646,104.33661   L 62.203171,104.33661   L 62.203171,100.53649   L 63.069882,100.53649   L 63.069882,104.33661   L 64.003263,104.33661   L 64.003263,100.53649   L 64.936644,100.53649   L 64.936644,104.33661   L 65.803354,104.33661   L 65.803354,100.53649   L 66.736735,100.53649   L 66.736735,104.33661   L 67.603446,104.33661   L 67.603446,100.53649   L 68.470157,100.53649   L 68.470157,104.33661   L 69.336868,104.33661   L 69.336868,100.53649   L 70.136909,100.53649   L 70.003569,104.33661   L 71.00362,104.33661   L 71.00362,100.53649   L 72.003671,100.53649   L 72.003671,104.33661   L 72.937051,104.33661   L 72.937051,100.53649   L 73.937102,100.53649   L 73.937102,104.33661   L 74.803813,104.33661   L 74.870483,100.53649   L 75.603854,100.53649   L 75.603854,104.33661   L 76.470565,104.33661   L 76.470565,100.53649   L 77.470616,100.53649   L 77.470616,104.33661   L 78.403997,104.33661   L 78.403997,100.53649   L 79.204038,100.60316   L 79.204038,104.33661   L 80.070748,104.33661   L 80.070748,100.53649   L 81.004129,100.53649   L 81.004129,104.33661   L 81.87084,104.33661   L 81.87084,100.53649   L 82.937561,100.53649   L 82.937561,104.33661   L 83.737602,104.33661   L 83.737602,100.53649   L 84.604313,100.53649   L 84.604313,104.33661   L 85.471024,104.33661   L 85.471024,100.53649   L 86.337735,100.53649   L 86.337735,104.33661   L 87.204445,104.33661   L 87.204445,100.53649   L 88.204496,100.60316   L 88.204496,104.33661   L 89.004537,104.33661   L 89.004537,100.53649   L 89.937918,100.53649   L 89.937918,104.33661   L 90.804629,104.33661   L 90.804629,100.53649   L 91.93802,100.53649   L 91.93802,99.469787   L 95.738214,99.469787   L 95.738214,98.603093   L 91.93802,98.603093   L 91.93802,97.803068   L 95.738214,97.803068   L 95.738214,96.936374   L 91.93802,96.936374   L 91.93802,96.003012   L 95.738214,96.003012   L 95.738214,95.136318   L 91.93802,95.136318   L 91.93802,94.202955   L 95.738214,94.202955   L 95.738214,93.40293   L 91.93802,93.40293   L 91.93802,92.536236   L 95.738214,92.536236   L 95.738214,91.602874   L 91.93802,91.602874   L 91.93802,90.669511   L 95.738214,90.669511   L 95.738214,89.802817   L 91.93802,89.802817   L 91.93802,88.869454   L 95.738214,88.869454   L 95.738214,88.002761   L 91.93802,88.002761   L 91.93802,87.136067   L 95.738214,87.002729   L 95.738214,86.269373   L 91.93802,86.269373   L 91.93802,85.469348   L 95.738214,85.469348   L 95.738214,84.602654   L 91.93802,84.602654   L 91.93802,83.602623   L 95.738214,83.602623   L 95.738214,82.66926   L 91.93802,82.66926   L 91.93802,81.669229   L 95.738214,81.669229   L 95.738214,80.802535   L 91.93802,80.802535   L 91.93802,80.00251   L 95.738214,80.00251   L 95.738214,79.202485   L 91.93802,79.202485   L 91.93802,78.135784   L 95.738214,78.135784   L 95.738214,77.269091   L 91.93802,77.269091   L 91.93802,76.402397   L 95.738214,76.402397   L 95.738214,75.535703   L 91.93802,75.535703   L 91.93802,74.669009   L 95.738214,74.669009   L 95.738214,73.868984   L 91.93802,73.735646   L 91.93802,72.735615   L 95.738214,72.735615   L 95.738214,71.868921   L 91.93802,71.868921   L 91.93802,71.002227   L 95.738214,71.002227   L 95.738214,70.135533   L 91.93802,70.135533   L 91.93802,69.26884   L 95.738214,69.26884   L 95.738214,68.402146   L 91.93802,68.402146   L 91.93802,67.468783   L 95.738214,67.468783   L 95.738214,66.602089   L 91.93802,66.602089   L 91.93802,65.735395   L 95.738214,65.735395   L 95.738214,64.868702   L 91.93802,64.868702  z "
     clip-path="url(#clipWmfPath1)"
     style="fill:#ffffff;fill-rule:nonzero;fill-opacity:1;stroke:none;" />
  <path
     id="path382"
     d="  M 91.93802,64.868702   L 91.93802,63.802001   L 90.737959,63.802001   L 90.737959,60.001882   L 89.937918,60.001882   L 89.871248,63.802001   L 89.004537,63.802001   L 89.004537,60.001882   L 88.204496,60.001882   L 88.204496,63.802001   L 87.204445,63.802001   L 87.204445,60.001882   L 86.337735,60.001882   L 86.337735,63.802001   L 85.471024,63.802001   L 85.471024,60.001882   L 84.604313,60.001882   L 84.604313,63.802001   L 83.737602,63.802001   L 83.737602,60.001882   L 82.937561,60.001882   L 82.937561,63.802001   L 81.93751,63.802001   L 81.93751,60.001882   L 81.004129,60.001882   L 81.004129,63.802001   L 80.070748,63.802001   L 80.070748,60.001882   L 79.204038,60.001882   L 79.204038,63.802001   L 78.403997,63.802001   L 78.403997,60.001882   L 77.470616,60.001882   L 77.470616,63.802001   L 76.670575,63.802001   L 76.670575,59.935213   L 75.803864,60.001882   L 75.803864,63.802001   L 74.803813,63.802001   L 74.803813,60.001882   L 73.937102,60.001882   L 73.937102,63.802001   L 72.937051,63.802001   L 72.937051,60.001882   L 72.003671,60.001882   L 72.003671,63.802001   L 71.20363,63.802001   L 71.20363,60.001882   L 70.403589,60.001882   L 70.403589,63.802001   L 69.336868,63.802001   L 69.336868,60.001882   L 68.470157,60.001882   L 68.470157,63.802001   L 67.603446,63.802001   L 67.603446,60.001882   L 66.736735,60.001882   L 66.736735,63.802001   L 65.870025,63.802001   L 65.870025,60.001882   L 64.936644,60.001882   L 64.936644,63.802001   L 64.003263,63.802001   L 64.003263,60.201889   L 63.069882,60.001882   L 63.069882,63.802001   L 62.203171,63.802001   L 62.203171,60.001882   L 61.33646,60.001882   L 61.33646,63.802001   L 60.469749,63.802001   L 60.469749,60.13522   L 59.603038,60.001882   L 59.603038,63.802001   L 58.669657,63.802001   L 58.669657,60.001882   L 57.802947,60.001882   L 57.802947,63.802001   L 56.936236,63.802001   L 56.936236,60.001882   L 56.069525,60.001882   L 56.069525,63.802001   L 55.002804,63.802001   L 55.002804,64.602027   L 51.20261,64.602027   L 51.20261,65.46872   L 55.002804,65.335383   L 55.002804,66.268745   L 51.20261,66.268745   L 51.20261,67.202108   L 55.002804,67.202108   L 55.002804,68.135471   L 51.20261,68.135471   L 51.20261,69.002165   L 55.002804,69.002165   L 55.002804,69.868858   L 51.20261,69.868858   L 51.20261,70.735552   L 55.002804,70.735552   L 55.002804,71.602246   L 51.20261,71.602246   L 51.20261,72.46894   L 55.002804,72.46894   L 55.002804,73.468971   L 51.20261,73.53564   L 51.20261,74.335665   L 55.002804,74.335665   L 55.002804,75.269028   L 51.20261,75.269028   L 51.20261,76.135722   L 55.002804,76.135722   L 55.002804,77.002416   L 51.20261,77.002416   L 51.20261,77.869109   L 55.002804,77.869109   L 55.002804,78.869141   L 51.20261,78.869141   L 51.20261,79.735835   L 55.002804,79.735835   L 55.002804,80.53586   L 51.20261,80.53586   L 51.20261,81.402554   L 55.002804,81.402554   L 55.002804,82.469254   L 51.20261,82.469254   L 51.20261,83.269279   L 55.002804,83.269279   L 55.002804,84.335979   L 51.20261,84.335979   L 51.20261,85.136004   L 55.002804,85.136004   L 55.002804,86.002698   L 51.20261,86.002698   L 51.0026,86.869392   L 55.002804,86.869392   L 55.002804,87.736086   L 51.20261,87.736086   L 51.20261,88.602779   L 55.002804,88.602779   L 55.002804,89.602811   L 51.20261,89.602811   L 51.20261,90.402836   L 55.002804,90.402836   L 55.002804,91.536205   L 51.20261,91.402867   L 51.20261,92.269561   L 55.002804,92.269561   L 55.002804,93.136255   L 51.20261,93.136255   L 51.20261,94.002949   L 55.002804,94.002949   L 55.002804,94.869643   L 51.20261,94.869643   L 51.20261,95.669668   L 55.002804,95.669668   L 55.002804,96.669699   L 51.20261,96.669699   L 51.20261,97.536393   L 55.002804,97.536393   L 55.002804,98.336418   L 51.20261,98.336418   L 51.20261,99.203112   L 55.002804,99.203112   L 55.002804,100.53649   L 56.136195,100.53649   L 56.136195,104.33661   L 56.936236,104.33661   L 56.936236,100.53649   L 57.802947,100.53649   L 57.802947,104.33661   L 58.669657,104.33661   L 58.669657,100.53649   L 59.603038,100.53649   L 59.603038,104.33661   L 60.469749,104.33661   L 60.469749,100.53649   L 61.33646,100.53649   L 61.33646,104.33661   L 62.203171,104.33661   L 62.203171,100.53649   L 63.069882,100.53649   L 63.069882,104.33661   L 64.003263,104.33661   L 64.003263,100.53649   L 64.936644,100.53649   L 64.936644,104.33661   L 65.803354,104.33661   L 65.803354,100.53649   L 66.736735,100.53649   L 66.736735,104.33661   L 67.603446,104.33661   L 67.603446,100.53649   L 68.470157,100.53649   L 68.470157,104.33661   L 69.336868,104.33661   L 69.336868,100.53649   L 70.136909,100.53649   L 70.003569,104.33661   L 71.00362,104.33661   L 71.00362,100.53649   L 72.003671,100.53649   L 72.003671,104.33661   L 72.937051,104.33661   L 72.937051,100.53649   L 73.937102,100.53649   L 73.937102,104.33661   L 74.803813,104.33661   L 74.870483,100.53649   L 75.603854,100.53649   L 75.603854,104.33661   L 76.470565,104.33661   L 76.470565,100.53649   L 77.470616,100.53649   L 77.470616,104.33661   L 78.403997,104.33661   L 78.403997,100.53649   L 79.204038,100.60316   L 79.204038,104.33661   L 80.070748,104.33661   L 80.070748,100.53649   L 81.004129,100.53649   L 81.004129,104.33661   L 81.87084,104.33661   L 81.87084,100.53649   L 82.937561,100.53649   L 82.937561,104.33661   L 83.737602,104.33661   L 83.737602,100.53649   L 84.604313,100.53649   L 84.604313,104.33661   L 85.471024,104.33661   L 85.471024,100.53649   L 86.337735,100.53649   L 86.337735,104.33661   L 87.204445,104.33661   L 87.204445,100.53649   L 88.204496,100.60316   L 88.204496,104.33661   L 89.004537,104.33661   L 89.004537,100.53649   L 89.937918,100.53649   L 89.937918,104.33661   L 90.804629,104.33661   L 90.804629,100.53649   L 91.93802,100.53649   L 91.93802,99.469787   L 95.738214,99.469787   L 95.738214,98.603093   L 91.93802,98.603093   L 91.93802,97.803068   L 95.738214,97.803068   L 95.738214,96.936374   L 91.93802,96.936374   L 91.93802,96.003012   L 95.738214,96.003012   L 95.738214,95.136318   L 91.93802,95.136318   L 91.93802,94.202955   L 95.738214,94.202955   L 95.738214,93.40293   L 91.93802,93.40293   L 91.93802,92.536236   L 95.738214,92.536236   L 95.738214,91.602874   L 91.93802,91.602874   L 91.93802,90.669511   L 95.738214,90.669511   L 95.738214,89.802817   L 91.93802,89.802817   L 91.93802,88.869454   L 95.738214,88.869454   L 95.738214,88.002761   L 91.93802,88.002761   L 91.93802,87.136067   L 95.738214,87.002729   L 95.738214,86.269373   L 91.93802,86.269373   L 91.93802,85.469348   L 95.738214,85.469348   L 95.738214,84.602654   L 91.93802,84.602654   L 91.93802,83.602623   L 95.738214,83.602623   L 95.738214,82.66926   L 91.93802,82.66926   L 91.93802,81.669229   L 95.738214,81.669229   L 95.738214,80.802535   L 91.93802,80.802535   L 91.93802,80.00251   L 95.738214,80.00251   L 95.738214,79.202485   L 91.93802,79.202485   L 91.93802,78.135784   L 95.738214,78.135784   L 95.738214,77.269091   L 91.93802,77.269091   L 91.93802,76.402397   L 95.738214,76.402397   L 95.738214,75.535703   L 91.93802,75.535703   L 91.93802,74.669009   L 95.738214,74.669009   L 95.738214,73.868984   L 91.93802,73.735646   L 91.93802,72.735615   L 95.738214,72.735615   L 95.738214,71.868921   L 91.93802,71.868921   L 91.93802,71.002227   L 95.738214,71.002227   L 95.738214,70.135533   L 91.93802,70.135533   L 91.93802,69.26884   L 95.738214,69.26884   L 95.738214,68.402146   L 91.93802,68.402146   L 91.93802,67.468783   L 95.738214,67.468783   L 95.738214,66.602089   L 91.93802,66.602089   L 91.93802,65.735395   L 95.738214,65.735395   L 95.738214,64.868702   L 91.93802,64.868702  z "
     clip-path="url(#clipWmfPath1)"
     style="fill:none;stroke:#ffffff;stroke-width:0.066670068px;stroke-linecap:round;stroke-linejoin:round;stroke-miterlimit:4;stroke-dasharray:none;stroke-opacity:1;" />
  <path
     id="path384"
     d="  M 83.070901,75.402365   L 84.070952,75.535703   L 84.870993,76.002384   L 85.471024,76.669072   L 85.671034,77.402428   L 85.671034,86.869392   L 85.471024,87.602748   L 84.870993,88.202767   L 84.070952,88.536111   L 83.070901,88.669448   L 63.803252,88.669448   L 62.803202,88.536111   L 62.003161,88.136098   L 61.40313,87.469411   L 61.20312,86.736054   L 61.20312,77.335759   L 61.40313,76.602403   L 62.003161,76.002384   L 62.803202,75.535703   L 63.803252,75.402365   L 83.070901,75.402365  z "
     clip-path="url(#clipWmfPath1)"
     style="fill:#ffffff;fill-rule:nonzero;fill-opacity:1;stroke:none;" />
  <path
     id="path386"
     d="  M 63.803252,74.869015   L 63.803252,75.935715   L 83.004231,75.935715   L 83.870942,76.002384   L 84.537643,76.402397   L 85.004333,76.935747   L 85.137673,77.469097   L 85.137673,86.802723   L 85.004333,87.336073   L 84.604313,87.802754   L 83.937612,88.069429   L 83.004231,88.136098   L 63.803252,88.136098   L 62.936542,88.069429   L 62.336511,87.736086   L 61.869821,87.202736   L 61.73648,86.669385   L 61.73648,77.402428   L 61.869821,76.869078   L 62.336511,76.402397   L 63.003212,76.002384   L 63.803252,75.935715   L 83.004231,75.935715   L 84.004282,76.069053   L 84.137622,75.002353   L 83.070901,74.869015   L 63.736582,74.869015   L 62.603191,75.069022   L 61.66981,75.602372   L 60.93644,76.335728   L 60.669759,77.269091   L 60.669759,86.802723   L 60.93644,87.736086   L 61.66981,88.536111   L 62.669861,89.002792   L 63.736582,89.202798   L 83.070901,89.202798   L 84.204292,89.002792   L 85.137673,88.602779   L 85.937714,87.869423   L 86.204394,86.93606   L 86.204394,77.335759   L 85.937714,76.402397   L 85.204343,75.602372   L 84.270963,75.069022   L 83.070901,74.869015   L 63.803252,74.869015  z "
     clip-path="url(#clipWmfPath1)"
     style="fill:#000000;fill-rule:nonzero;fill-opacity:1;stroke:#000000;stroke-width:0.066670068px;stroke-linecap:round;stroke-linejoin:round;stroke-miterlimit:4;stroke-dasharray:none;stroke-opacity:1;" />
  <g
     id="g388"
     clip-path="url(#clipWmfPath1)" />
  <g
     id="g400"
     clip-path="url(#clipWmfPath1)">
    <text
       id="text398"
       y="10.249313"
       x="0.000000"
       transform="matrix(1.000000,-0.000000,0.000000,1.000000,63.336562,76.335728)"
       style="font-size:10.687500px;font-style:normal;font-variant:normal;font-weight:400;font-stretch:Condensed;line-height:125.000000%;letter-spacing:0px;word-spacing:0px;fill:#000000;fill-opacity:1;stroke:none;font-family:Helvetica-Narrow;text-align:start;text-anchor:start;"
       xml:space="preserve"><tspan
         id="tspan396"
         y="10.249313"
         x="0.000000"><tspan
           id="tspan390"
           style="fill:#000000;font-size:10.687500px;font-style:normal;font-variant:normal;font-weight:400;font-stretch:Condensed;font-family:Helvetica-Narrow;"
           dy="0.000000"
           dx="0.000000">N</tspan><tspan
           id="tspan392"
           style="fill:#000000;font-size:10.687500px;font-style:normal;font-variant:normal;font-weight:400;font-stretch:Condensed;font-family:Helvetica-Narrow;"
           dy="0.000000"
           dx="0.083568">P</tspan><tspan
           id="tspan394"
           style="fill:#000000;font-size:10.687500px;font-style:normal;font-variant:normal;font-weight:400;font-stretch:Condensed;font-family:Helvetica-Narrow;"
           dy="0.000000"
           dx="-0.102195">U</tspan></tspan></text>
  </g>
</svg>
