<svg xmlns:dc="http://purl.org/dc/elements/1.1/" xmlns:cc="http://creativecommons.org/ns#" xmlns:rdf="http://www.w3.org/1999/02/22-rdf-syntax-ns#" xmlns:svg="http://www.w3.org/2000/svg" xmlns="http://www.w3.org/2000/svg" id="svg126" height="17.63mm" width="74.830001mm" version="1.0">
  <metadata id="metadata130">
    <rdf:RDF>
      <cc:Work rdf:about="">
        <dc:format>image/svg+xml</dc:format>
        <dc:type rdf:resource="http://purl.org/dc/dcmitype/StillImage"/>
      </cc:Work>
    </rdf:RDF>
  </metadata>
  <defs id="defs6">
    <clipPath id="clipWmfPath1" clipPathUnits="userSpaceOnUse">
      <path id="path2" d="M 0,0 L 282.71759,0 L 282.71759,66.528614 L 0,66.528614 z"/>
    </clipPath>
    <pattern y="0" x="0" height="6" width="6" patternUnits="userSpaceOnUse" id="WMFhbasepattern"/>
  </defs>
  <path id="path8" d="  M 171.05714,22.465073   L 171.05714,6.0662363   L 277.85119,6.0662363   L 277.85119,48.596552   L 171.05714,48.596552   L 171.05714,31.864406   L 173.05703,31.531096   L 174.79027,30.531167   L 175.92354,29.197929   L 176.19019,28.397985   L 176.32351,27.598042   L 176.19019,26.598113   L 175.92354,25.731508   L 174.79027,24.064959   L 173.05703,22.931707   L 171.05714,22.465073   L 270.98491,21.798454   L 270.98491,32.930997   L 230.78715,32.930997   L 230.78715,21.798454   L 223.05424,21.798454   L 223.05424,32.930997   L 182.85648,32.930997   L 182.85648,21.798454   L 270.98491,21.798454   L 171.05714,22.465073  z " clip-path="url(#clipWmfPath1)" style="fill:#000000;fill-rule:evenodd;fill-opacity:1;stroke:none;"/>
  <path id="path10" d="  M 171.05714,22.465073   L 171.05714,6.0662363   L 277.85119,6.0662363   L 277.85119,48.596552   L 171.05714,48.596552   L 171.05714,31.864406   L 173.05703,31.531096   L 174.79027,30.531167   L 175.92354,29.197929   L 176.19019,28.397985   L 176.32351,27.598042   L 176.19019,26.598113   L 175.92354,25.731508   L 174.79027,24.064959   L 173.05703,22.931707   L 171.05714,22.465073  z " clip-path="url(#clipWmfPath1)" style="fill:none;stroke:#000000;stroke-width:0.066662952px;stroke-linecap:round;stroke-linejoin:round;stroke-miterlimit:4;stroke-dasharray:none;stroke-opacity:1;"/>
  <path id="path12" d="  M 270.98491,21.798454   L 270.98491,32.930997   L 230.78715,32.930997   L 230.78715,21.798454   L 223.05424,21.798454   L 223.05424,32.930997   L 182.85648,32.930997   L 182.85648,21.798454   L 270.98491,21.798454  z " clip-path="url(#clipWmfPath1)" style="fill:none;stroke:#000000;stroke-width:0.066662952px;stroke-linecap:round;stroke-linejoin:round;stroke-miterlimit:4;stroke-dasharray:none;stroke-opacity:1;"/>
  <path id="path14" d="  M 275.65132,36.597404   L 275.65132,47.196652   L 268.05174,47.196652   L 268.05174,36.597404   L 265.38522,36.597404   L 265.38522,47.12999   L 257.85231,47.12999   L 257.85231,36.597404   L 254.85247,36.597404   L 254.85247,47.12999   L 247.38622,47.12999   L 247.38622,36.730728   L 244.45305,36.730728   L 244.45305,47.12999   L 236.85348,47.12999   L 236.85348,36.397418   L 233.65365,36.397418   L 233.65365,47.12999   L 226.05408,47.12999   L 226.05408,36.597404   L 223.78754,36.597404   L 223.78754,47.12999   L 216.25462,47.12999   L 216.25462,36.597404   L 213.25479,36.597404   L 213.25479,47.12999   L 205.45523,47.12999   L 205.45523,36.597404   L 202.45539,36.597404   L 202.45539,47.196652   L 194.98914,47.196652   L 194.98914,36.597404   L 191.58933,36.597404   L 191.58933,47.196652   L 184.18974,47.196652   L 184.18974,36.597404   L 181.3899,36.597404   L 181.3899,47.196652   L 173.657,47.196652   L 173.657,36.597404   L 275.65132,36.597404   L 270.58493,32.997659   L 270.58493,21.731792   L 275.65132,18.732004   L 268.05174,18.732004   L 268.05174,7.5327989   L 265.38522,7.7994467   L 265.38522,18.732004   L 257.65232,18.732004   L 257.65232,7.5994609   L 254.9858,7.5327989   L 254.9858,18.732004   L 246.78626,18.732004   L 246.78626,7.5327989   L 244.45305,7.5327989   L 244.45305,18.732004   L 236.85348,18.732004   L 236.85348,7.5327989   L 233.98697,7.5327989   L 233.98697,18.732004   L 226.65404,18.732004   L 226.65404,7.3328131   L 223.98753,7.1994893   L 223.98753,18.732004   L 216.45461,18.732004   L 216.45461,7.5327989   L 213.25479,7.5327989   L 213.25479,18.732004   L 205.78854,18.732004   L 205.78854,7.5327989   L 202.78871,7.5327989   L 202.78871,18.732004   L 194.98914,18.732004   L 194.98914,7.5327989   L 191.85598,7.5327989   L 191.85598,18.732004   L 184.45639,18.732004   L 184.45639,7.5327989   L 181.65655,7.5327989   L 181.65655,18.732004   L 173.99031,18.732004   L 173.99031,7.5327989   L 275.65132,7.5327989   L 275.65132,18.732004   L 270.58493,21.731792   L 270.58493,32.997659   L 275.65132,36.597404  z " clip-path="url(#clipWmfPath1)" style="fill:#ffffff;fill-rule:nonzero;fill-opacity:1;stroke:none;"/>
  <path id="path16" d="  M 275.65132,36.597404   L 275.65132,47.196652   L 268.05174,47.196652   L 268.05174,36.597404   L 265.38522,36.597404   L 265.38522,47.12999   L 257.85231,47.12999   L 257.85231,36.597404   L 254.85247,36.597404   L 254.85247,47.12999   L 247.38622,47.12999   L 247.38622,36.730728   L 244.45305,36.730728   L 244.45305,47.12999   L 236.85348,47.12999   L 236.85348,36.397418   L 233.65365,36.397418   L 233.65365,47.12999   L 226.05408,47.12999   L 226.05408,36.597404   L 223.78754,36.597404   L 223.78754,47.12999   L 216.25462,47.12999   L 216.25462,36.597404   L 213.25479,36.597404   L 213.25479,47.12999   L 205.45523,47.12999   L 205.45523,36.597404   L 202.45539,36.597404   L 202.45539,47.196652   L 194.98914,47.196652   L 194.98914,36.597404   L 191.58933,36.597404   L 191.58933,47.196652   L 184.18974,47.196652   L 184.18974,36.597404   L 181.3899,36.597404   L 181.3899,47.196652   L 173.657,47.196652   L 173.657,36.597404   L 275.65132,36.597404   L 270.58493,32.997659   L 270.58493,21.731792   L 275.65132,18.732004   L 268.05174,18.732004   L 268.05174,7.5327989   L 265.38522,7.7994467   L 265.38522,18.732004   L 257.65232,18.732004   L 257.65232,7.5994609   L 254.9858,7.5327989   L 254.9858,18.732004   L 246.78626,18.732004   L 246.78626,7.5327989   L 244.45305,7.5327989   L 244.45305,18.732004   L 236.85348,18.732004   L 236.85348,7.5327989   L 233.98697,7.5327989   L 233.98697,18.732004   L 226.65404,18.732004   L 226.65404,7.3328131   L 223.98753,7.1994893   L 223.98753,18.732004   L 216.45461,18.732004   L 216.45461,7.5327989   L 213.25479,7.5327989   L 213.25479,18.732004   L 205.78854,18.732004   L 205.78854,7.5327989   L 202.78871,7.5327989   L 202.78871,18.732004   L 194.98914,18.732004   L 194.98914,7.5327989   L 191.85598,7.5327989   L 191.85598,18.732004   L 184.45639,18.732004   L 184.45639,7.5327989   L 181.65655,7.5327989   L 181.65655,18.732004   L 173.99031,18.732004   L 173.99031,7.5327989   L 275.65132,7.5327989   L 275.65132,18.732004   L 270.58493,21.731792   L 270.58493,32.997659   L 275.65132,36.597404  z " clip-path="url(#clipWmfPath1)" style="fill:none;stroke:#000000;stroke-width:0.066662952px;stroke-linecap:round;stroke-linejoin:round;stroke-miterlimit:4;stroke-dasharray:none;stroke-opacity:1;"/>
  <g id="g18" clip-path="url(#clipWmfPath1)"/>
  <g id="g36" clip-path="url(#clipWmfPath1)">
    <text id="text34" y="6.730563" x="0.000000" transform="matrix(1.000000,-0.000000,0.000000,1.000000,251.652652,53.129564)" style="font-size:7.062500px;font-style:normal;font-variant:normal;font-weight:400;font-stretch:Condensed;line-height:125.000000%;letter-spacing:0px;word-spacing:0px;fill:#000000;fill-opacity:1;stroke:none;font-family:Helvetica-Narrow;text-align:start;text-anchor:start;" xml:space="preserve"><tspan id="tspan32" y="6.730563" x="0.000000"><tspan id="tspan20" style="fill:#000000;font-size:7.062500px;font-style:normal;font-variant:normal;font-weight:400;font-stretch:Condensed;font-family:Helvetica-Narrow;" dy="0.000000" dx="0.000000">M</tspan><tspan id="tspan22" style="fill:#000000;font-size:7.062500px;font-style:normal;font-variant:normal;font-weight:400;font-stretch:Condensed;font-family:Helvetica-Narrow;" dy="0.000000" dx="-0.150048">1</tspan><tspan id="tspan24" style="fill:#000000;font-size:7.062500px;font-style:normal;font-variant:normal;font-weight:400;font-stretch:Condensed;font-family:Helvetica-Narrow;" dy="0.000000" dx="0.126348">5</tspan><tspan id="tspan26" style="fill:#000000;font-size:7.062500px;font-style:normal;font-variant:normal;font-weight:400;font-stretch:Condensed;font-family:Helvetica-Narrow;" dy="0.000000" dx="0.126348">4</tspan><tspan id="tspan28" style="fill:#000000;font-size:7.062500px;font-style:normal;font-variant:normal;font-weight:400;font-stretch:Condensed;font-family:Helvetica-Narrow;" dy="0.000000" dx="0.126348">2</tspan><tspan id="tspan30" style="fill:#000000;font-size:7.062500px;font-style:normal;font-variant:normal;font-weight:400;font-stretch:Condensed;font-family:Helvetica-Narrow;" dy="0.000000" dx="0.126348">A</tspan></tspan></text>
  </g>
  <path id="path38" d="  M 3.3331477,22.465073   L 3.3331477,6.0662363   L 110.1272,6.0662363   L 110.1272,48.529891   L 3.3331477,48.529891   L 3.3331477,31.864406   L 5.3996993,31.464435   L 7.1329361,30.531167   L 8.2662063,29.131267   L 8.6661841,27.53138   L 8.5328581,26.598113   L 8.2662063,25.664846   L 7.1329361,23.998298   L 5.3996993,22.865045   L 3.3331477,22.465073   L 103.26092,21.798454   L 103.26092,32.864335   L 62.996492,32.864335   L 62.996492,21.798454   L 55.330252,21.798454   L 55.330252,32.864335   L 15.132491,32.864335   L 15.132491,21.798454   L 103.26092,21.798454   L 3.3331477,22.465073  z " clip-path="url(#clipWmfPath1)" style="fill:#000000;fill-rule:evenodd;fill-opacity:1;stroke:none;"/>
  <path id="path40" d="  M 3.3331477,22.465073   L 3.3331477,6.0662363   L 110.1272,6.0662363   L 110.1272,48.529891   L 3.3331477,48.529891   L 3.3331477,31.864406   L 5.3996993,31.464435   L 7.1329361,30.531167   L 8.2662063,29.131267   L 8.6661841,27.53138   L 8.5328581,26.598113   L 8.2662063,25.664846   L 7.1329361,23.998298   L 5.3996993,22.865045   L 3.3331477,22.465073  z " clip-path="url(#clipWmfPath1)" style="fill:none;stroke:#000000;stroke-width:0.066662952px;stroke-linecap:round;stroke-linejoin:round;stroke-miterlimit:4;stroke-dasharray:none;stroke-opacity:1;"/>
  <path id="path42" d="  M 103.26092,21.798454   L 103.26092,32.864335   L 62.996492,32.864335   L 62.996492,21.798454   L 55.330252,21.798454   L 55.330252,32.864335   L 15.132491,32.864335   L 15.132491,21.798454   L 103.26092,21.798454  z " clip-path="url(#clipWmfPath1)" style="fill:none;stroke:#000000;stroke-width:0.066662952px;stroke-linecap:round;stroke-linejoin:round;stroke-miterlimit:4;stroke-dasharray:none;stroke-opacity:1;"/>
  <path id="path44" d="  M 107.92732,36.530742   L 107.92732,47.12999   L 100.32775,47.12999   L 100.32775,36.530742   L 97.594565,36.530742   L 97.594565,46.996666   L 90.128314,46.996666   L 90.128314,36.530742   L 87.128481,36.530742   L 87.128481,46.996666   L 79.595567,46.996666   L 79.595567,36.597404   L 76.72906,36.597404   L 76.72906,46.996666   L 69.129484,46.996666   L 69.129484,36.330756   L 65.929662,36.330756   L 65.929662,46.996666   L 58.330085,46.996666   L 58.330085,36.530742   L 55.996882,36.530742   L 55.996882,46.996666   L 48.530631,46.996666   L 48.530631,36.530742   L 45.530798,36.530742   L 45.530798,46.996666   L 37.731232,46.996666   L 37.731232,36.530742   L 34.731399,36.530742   L 34.731399,47.12999   L 27.198485,47.12999   L 27.198485,36.530742   L 23.798675,36.530742   L 23.798675,47.12999   L 16.399087,47.12999   L 16.399087,36.530742   L 13.599243,36.530742   L 13.599243,47.12999   L 5.9330029,47.12999   L 5.9330029,36.530742   L 107.92732,36.530742   L 102.79428,32.930997   L 102.79428,21.598468   L 107.92732,18.598681   L 100.32775,18.598681   L 100.32775,7.3994751   L 97.594565,7.7327848   L 97.594565,18.598681   L 89.928325,18.598681   L 89.928325,7.5327989   L 87.195144,7.3994751   L 87.195144,18.598681   L 78.995601,18.598681   L 78.995601,7.3994751   L 76.72906,7.3994751   L 76.72906,18.598681   L 69.129484,18.598681   L 69.129484,7.3994751   L 66.196314,7.3994751   L 66.196314,18.598681   L 58.930052,18.598681   L 58.930052,7.1994893   L 56.19687,7.1328273   L 56.19687,18.598681   L 48.73062,18.598681   L 48.73062,7.3994751   L 45.530798,7.3994751   L 45.530798,18.598681   L 37.997884,18.598681   L 37.997884,7.3994751   L 34.998051,7.3994751   L 34.998051,18.598681   L 27.198485,18.598681   L 27.198485,7.3994751   L 24.131989,7.3994751   L 24.131989,18.598681   L 16.732402,18.598681   L 16.732402,7.3994751   L 13.932557,7.3994751   L 13.932557,18.598681   L 6.1996547,18.598681   L 6.1996547,7.3994751   L 107.92732,7.3994751   L 107.92732,18.598681   L 102.79428,21.598468   L 102.79428,32.930997   L 107.92732,36.530742  z " clip-path="url(#clipWmfPath1)" style="fill:#ffffff;fill-rule:nonzero;fill-opacity:1;stroke:none;"/>
  <path id="path46" d="  M 107.92732,36.530742   L 107.92732,47.12999   L 100.32775,47.12999   L 100.32775,36.530742   L 97.594565,36.530742   L 97.594565,46.996666   L 90.128314,46.996666   L 90.128314,36.530742   L 87.128481,36.530742   L 87.128481,46.996666   L 79.595567,46.996666   L 79.595567,36.597404   L 76.72906,36.597404   L 76.72906,46.996666   L 69.129484,46.996666   L 69.129484,36.330756   L 65.929662,36.330756   L 65.929662,46.996666   L 58.330085,46.996666   L 58.330085,36.530742   L 55.996882,36.530742   L 55.996882,46.996666   L 48.530631,46.996666   L 48.530631,36.530742   L 45.530798,36.530742   L 45.530798,46.996666   L 37.731232,46.996666   L 37.731232,36.530742   L 34.731399,36.530742   L 34.731399,47.12999   L 27.198485,47.12999   L 27.198485,36.530742   L 23.798675,36.530742   L 23.798675,47.12999   L 16.399087,47.12999   L 16.399087,36.530742   L 13.599243,36.530742   L 13.599243,47.12999   L 5.9330029,47.12999   L 5.9330029,36.530742   L 107.92732,36.530742   L 102.79428,32.930997   L 102.79428,21.598468   L 107.92732,18.598681   L 100.32775,18.598681   L 100.32775,7.3994751   L 97.594565,7.7327848   L 97.594565,18.598681   L 89.928325,18.598681   L 89.928325,7.5327989   L 87.195144,7.3994751   L 87.195144,18.598681   L 78.995601,18.598681   L 78.995601,7.3994751   L 76.72906,7.3994751   L 76.72906,18.598681   L 69.129484,18.598681   L 69.129484,7.3994751   L 66.196314,7.3994751   L 66.196314,18.598681   L 58.930052,18.598681   L 58.930052,7.1994893   L 56.19687,7.1328273   L 56.19687,18.598681   L 48.73062,18.598681   L 48.73062,7.3994751   L 45.530798,7.3994751   L 45.530798,18.598681   L 37.997884,18.598681   L 37.997884,7.3994751   L 34.998051,7.3994751   L 34.998051,18.598681   L 27.198485,18.598681   L 27.198485,7.3994751   L 24.131989,7.3994751   L 24.131989,18.598681   L 16.732402,18.598681   L 16.732402,7.3994751   L 13.932557,7.3994751   L 13.932557,18.598681   L 6.1996547,18.598681   L 6.1996547,7.3994751   L 107.92732,7.3994751   L 107.92732,18.598681   L 102.79428,21.598468   L 102.79428,32.930997   L 107.92732,36.530742  z " clip-path="url(#clipWmfPath1)" style="fill:none;stroke:#000000;stroke-width:0.066662952px;stroke-linecap:round;stroke-linejoin:round;stroke-miterlimit:4;stroke-dasharray:none;stroke-opacity:1;"/>
  <path id="path48" d="  M 87.32847,10.932558   L 87.32847,4.0663782   L 79.728893,4.0663782   L 79.728893,10.932558   L 76.995712,10.932558   L 76.995712,4.0663782   L 69.329472,4.0663782   L 69.329472,10.932558   L 66.596291,10.932558   L 66.596291,4.0663782   L 59.13004,4.0663782   L 59.13004,10.932558   L 56.396859,10.932558   L 56.396859,4.0663782   L 48.797283,4.0663782   L 48.797283,10.932558   L 45.79745,10.932558   L 45.79745,4.0663782   L 38.13121,4.0663782   L 38.13121,10.932558   L 34.998051,10.932558   L 34.998051,4.0663782   L 27.5318,4.0663782   L 27.5318,10.932558   L 24.331978,10.932558   L 24.331978,4.0663782   L 16.999053,4.0663782   L 16.999053,4.0663782   L 16.999053,10.932558   L 13.99922,10.932558   L 13.99922,4.0663782   L 6.3329807,4.0663782   L 6.3329807,10.932558   L 87.32847,10.932558   L 87.32847,10.932558  z " clip-path="url(#clipWmfPath1)" style="fill:#ffffff;fill-rule:nonzero;fill-opacity:1;stroke:none;"/>
  <path id="path50" d="  M 87.32847,10.932558   L 87.32847,4.0663782   L 79.728893,4.0663782   L 79.728893,10.932558   L 76.995712,10.932558   L 76.995712,4.0663782   L 69.329472,4.0663782   L 69.329472,10.932558   L 66.596291,10.932558   L 66.596291,4.0663782   L 59.13004,4.0663782   L 59.13004,10.932558   L 56.396859,10.932558   L 56.396859,4.0663782   L 48.797283,4.0663782   L 48.797283,10.932558   L 45.79745,10.932558   L 45.79745,4.0663782   L 38.13121,4.0663782   L 38.13121,10.932558   L 34.998051,10.932558   L 34.998051,4.0663782   L 27.5318,4.0663782   L 27.5318,10.932558   L 24.331978,10.932558   L 24.331978,4.0663782   L 16.999053,4.0663782   L 16.999053,4.0663782   L 16.999053,10.932558   L 13.99922,10.932558   L 13.99922,4.0663782   L 6.3329807,4.0663782   L 6.3329807,10.932558   L 87.32847,10.932558   L 87.32847,10.932558  z " clip-path="url(#clipWmfPath1)" style="fill:none;stroke:#000000;stroke-width:0.066662952px;stroke-linecap:round;stroke-linejoin:round;stroke-miterlimit:4;stroke-dasharray:none;stroke-opacity:1;"/>
  <path id="path52" d="  M 6.3329807,44.530174   L 6.3329807,51.463016   L 13.99922,51.463016   L 13.99922,44.530174   L 16.732402,44.530174   L 16.732402,51.463016   L 24.331978,51.463016   L 24.331978,44.530174   L 26.998496,44.530174   L 26.998496,51.463016   L 34.53141,51.463016   L 34.53141,44.530174   L 37.197928,44.530174   L 37.197928,51.463016   L 44.930831,51.463016   L 44.930831,44.530174   L 47.930664,44.530174   L 47.930664,51.463016   L 55.530241,51.463016   L 55.530241,44.530174   L 58.730063,44.530174   L 58.730063,51.463016   L 66.196314,51.463016   L 66.196314,44.530174   L 69.329472,44.530174   L 69.329472,51.463016   L 76.72906,51.463016   L 76.72906,51.463016   L 76.72906,44.530174   L 79.728893,44.530174   L 79.728893,51.463016   L 87.32847,51.463016   L 87.32847,44.530174   L 6.3329807,44.530174   L 6.3329807,44.530174  z " clip-path="url(#clipWmfPath1)" style="fill:#ffffff;fill-rule:nonzero;fill-opacity:1;stroke:none;"/>
  <path id="path54" d="  M 6.3329807,44.530174   L 6.3329807,51.463016   L 13.99922,51.463016   L 13.99922,44.530174   L 16.732402,44.530174   L 16.732402,51.463016   L 24.331978,51.463016   L 24.331978,44.530174   L 26.998496,44.530174   L 26.998496,51.463016   L 34.53141,51.463016   L 34.53141,44.530174   L 37.197928,44.530174   L 37.197928,51.463016   L 44.930831,51.463016   L 44.930831,44.530174   L 47.930664,44.530174   L 47.930664,51.463016   L 55.530241,51.463016   L 55.530241,44.530174   L 58.730063,44.530174   L 58.730063,51.463016   L 66.196314,51.463016   L 66.196314,44.530174   L 69.329472,44.530174   L 69.329472,51.463016   L 76.72906,51.463016   L 76.72906,51.463016   L 76.72906,44.530174   L 79.728893,44.530174   L 79.728893,51.463016   L 87.32847,51.463016   L 87.32847,44.530174   L 6.3329807,44.530174   L 6.3329807,44.530174  z " clip-path="url(#clipWmfPath1)" style="fill:none;stroke:#000000;stroke-width:0.066662952px;stroke-linecap:round;stroke-linejoin:round;stroke-miterlimit:4;stroke-dasharray:none;stroke-opacity:1;"/>
  <path id="path56" d="  M 4.9997216,33.864264   L 6.3329807,33.664278   L 7.3995879,33.330969   L 8.1995434,32.797673   L 8.8661729,32.131054   L 9.6661284,30.397844   L 9.9327802,28.064676   L 9.8661172,26.464789   L 9.5328025,25.198212   L 9.0661618,24.198283   L 8.4661952,23.39834   L 7.7329027,22.865045   L 6.9329472,22.465073   L 4.9997216,22.131763   L 5.0663845,9.5326571   L 88.995044,9.5326571   L 88.995044,45.996737   L 5.0663845,45.996737   L 4.9997216,33.864264  z " clip-path="url(#clipWmfPath1)" style="fill:#000000;fill-rule:nonzero;fill-opacity:1;stroke:none;"/>
  <path id="path58" d="  M 4.9997216,33.864264   L 6.3329807,33.664278   L 7.3995879,33.330969   L 8.1995434,32.797673   L 8.8661729,32.131054   L 9.6661284,30.397844   L 9.9327802,28.064676   L 9.8661172,26.464789   L 9.5328025,25.198212   L 9.0661618,24.198283   L 8.4661952,23.39834   L 7.7329027,22.865045   L 6.9329472,22.465073   L 4.9997216,22.131763   L 5.0663845,9.5326571   L 88.995044,9.5326571   L 88.995044,45.996737   L 5.0663845,45.996737   L 4.9997216,33.864264  z " clip-path="url(#clipWmfPath1)" style="fill:none;stroke:#000000;stroke-width:0.066662952px;stroke-linecap:round;stroke-linejoin:round;stroke-miterlimit:4;stroke-dasharray:none;stroke-opacity:1;"/>
  <path id="path60" d="  M 68.529517,19.198638   L 69.796113,19.398624   L 70.86272,19.865257   L 71.596013,20.598539   L 71.862665,21.465144   L 71.862665,32.131054   L 71.596013,32.997659   L 70.86272,33.664278   L 69.796113,34.06425   L 68.529517,34.197574   L 25.398586,34.197574   L 24.131989,34.06425   L 23.065382,33.597617   L 22.33209,32.864335   L 22.065438,31.99773   L 22.065438,21.398482   L 22.33209,20.531877   L 23.065382,19.798595   L 24.131989,19.331962   L 25.398586,19.198638   L 68.529517,19.198638  z " clip-path="url(#clipWmfPath1)" style="fill:#ffffff;fill-rule:nonzero;fill-opacity:1;stroke:none;"/>
  <path id="path62" d="  M 25.398586,18.665343   L 25.398586,19.731934   L 68.462854,19.731934   L 69.662787,19.865257   L 70.596069,20.265229   L 71.129372,20.865186   L 71.329361,21.531806   L 71.329361,32.064392   L 71.129372,32.731011   L 70.596069,33.197645   L 69.662787,33.597617   L 68.529517,33.664278   L 25.398586,33.664278   L 24.265315,33.597617   L 23.332034,33.197645   L 22.79873,32.597687   L 22.598741,31.931068   L 22.598741,21.465144   L 22.79873,20.798525   L 23.332034,20.198567   L 24.265315,19.798595   L 25.398586,19.731934   L 68.462854,19.731934   L 69.72945,19.931919   L 69.862776,18.865328   L 68.59618,18.665343   L 25.398586,18.665343   L 23.998664,18.865328   L 22.79873,19.398624   L 21.865449,20.265229   L 21.532134,21.33182   L 21.532134,32.064392   L 21.865449,33.130983   L 22.79873,33.997588   L 23.998664,34.530884   L 25.398586,34.730869   L 68.529517,34.730869   L 69.929439,34.530884   L 71.129372,34.130912   L 72.062654,33.264307   L 72.395968,32.197716   L 72.395968,21.398482   L 72.062654,20.331891   L 71.129372,19.465286   L 69.929439,18.93199   L 68.59618,18.665343   L 25.398586,18.665343  z " clip-path="url(#clipWmfPath1)" style="fill:#000000;fill-rule:nonzero;fill-opacity:1;stroke:#000000;stroke-width:0.066662952px;stroke-linecap:round;stroke-linejoin:round;stroke-miterlimit:4;stroke-dasharray:none;stroke-opacity:1;"/>
  <g id="g64" clip-path="url(#clipWmfPath1)"/>
  <g id="g80" clip-path="url(#clipWmfPath1)">
    <text id="text78" y="15.104250" x="0.000000" transform="matrix(1.000000,-0.000000,0.000000,1.000000,26.798508,18.065385)" style="font-size:15.750000px;font-style:normal;font-variant:normal;font-weight:400;font-stretch:Condensed;line-height:125.000000%;letter-spacing:0px;word-spacing:0px;fill:#000000;fill-opacity:1;stroke:none;font-family:Helvetica-Narrow;text-align:start;text-anchor:start;" xml:space="preserve"><tspan id="tspan76" y="15.104250" x="0.000000"><tspan id="tspan66" style="fill:#000000;font-size:15.750000px;font-style:normal;font-variant:normal;font-weight:400;font-stretch:Condensed;font-family:Helvetica-Narrow;" dy="0.000000" dx="0.000000">4</tspan><tspan id="tspan68" style="fill:#000000;font-size:15.750000px;font-style:normal;font-variant:normal;font-weight:400;font-stretch:Condensed;font-family:Helvetica-Narrow;" dy="0.000000" dx="1.150869">1</tspan><tspan id="tspan70" style="fill:#000000;font-size:15.750000px;font-style:normal;font-variant:normal;font-weight:400;font-stretch:Condensed;font-family:Helvetica-Narrow;" dy="0.000000" dx="1.150869">2</tspan><tspan id="tspan72" style="fill:#000000;font-size:15.750000px;font-style:normal;font-variant:normal;font-weight:400;font-stretch:Condensed;font-family:Helvetica-Narrow;" dy="0.000000" dx="1.150869">5</tspan><tspan id="tspan74" style="fill:#000000;font-size:15.750000px;font-style:normal;font-variant:normal;font-weight:400;font-stretch:Condensed;font-family:Helvetica-Narrow;" dy="0.000000" dx="1.150869">6</tspan></tspan></text>
  </g>
  <path id="path82" d="  M 183.78976,33.397631   L 185.25635,33.197645   L 186.45628,32.797673   L 187.52289,32.197716   L 188.32285,31.464435   L 188.92281,30.531167   L 189.38945,29.531238   L 189.72277,27.131409   L 189.58944,25.531522   L 189.18946,24.264945   L 188.52283,23.265016   L 187.72288,22.531735   L 185.72299,21.66513   L 183.45645,21.398482   L 183.45645,8.8660377   L 275.318,8.7993758   L 275.318,45.263456   L 183.78976,45.530103   L 183.78976,33.397631  z " clip-path="url(#clipWmfPath1)" style="fill:#000000;fill-rule:nonzero;fill-opacity:1;stroke:none;"/>
  <path id="path84" d="  M 183.78976,33.397631   L 185.25635,33.197645   L 186.45628,32.797673   L 187.52289,32.197716   L 188.32285,31.464435   L 188.92281,30.531167   L 189.38945,29.531238   L 189.72277,27.131409   L 189.58944,25.531522   L 189.18946,24.264945   L 188.52283,23.265016   L 187.72288,22.531735   L 185.72299,21.66513   L 183.45645,21.398482   L 183.45645,8.8660377   L 275.318,8.7993758   L 275.318,45.263456   L 183.78976,45.530103   L 183.78976,33.397631  z " clip-path="url(#clipWmfPath1)" style="fill:none;stroke:#000000;stroke-width:0.066662952px;stroke-linecap:round;stroke-linejoin:round;stroke-miterlimit:4;stroke-dasharray:none;stroke-opacity:1;"/>
  <path id="path86" d="  M 184.45639,44.130203   L 184.45639,51.063044   L 192.12263,51.063044   L 192.12263,44.130203   L 194.85582,44.130203   L 194.85582,51.063044   L 202.45539,51.063044   L 202.45539,44.130203   L 205.12191,44.130203   L 205.12191,51.063044   L 212.65482,51.063044   L 212.65482,44.130203   L 215.32134,44.130203   L 215.32134,51.063044   L 223.05424,51.063044   L 223.05424,44.130203   L 226.05408,44.130203   L 226.05408,51.063044   L 233.65365,51.063044   L 233.65365,44.130203   L 236.85348,44.130203   L 236.85348,51.063044   L 244.31973,51.063044   L 244.31973,44.130203   L 247.45289,44.130203   L 247.45289,51.063044   L 254.85247,51.063044   L 254.85247,51.063044   L 254.85247,44.130203   L 257.85231,44.130203   L 257.85231,51.063044   L 265.45188,51.063044   L 265.45188,44.130203   L 184.45639,44.130203   L 184.45639,44.130203  z " clip-path="url(#clipWmfPath1)" style="fill:#ffffff;fill-rule:nonzero;fill-opacity:1;stroke:none;"/>
  <path id="path88" d="  M 184.45639,44.130203   L 184.45639,51.063044   L 192.12263,51.063044   L 192.12263,44.130203   L 194.85582,44.130203   L 194.85582,51.063044   L 202.45539,51.063044   L 202.45539,44.130203   L 205.12191,44.130203   L 205.12191,51.063044   L 212.65482,51.063044   L 212.65482,44.130203   L 215.32134,44.130203   L 215.32134,51.063044   L 223.05424,51.063044   L 223.05424,44.130203   L 226.05408,44.130203   L 226.05408,51.063044   L 233.65365,51.063044   L 233.65365,44.130203   L 236.85348,44.130203   L 236.85348,51.063044   L 244.31973,51.063044   L 244.31973,44.130203   L 247.45289,44.130203   L 247.45289,51.063044   L 254.85247,51.063044   L 254.85247,51.063044   L 254.85247,44.130203   L 257.85231,44.130203   L 257.85231,51.063044   L 265.45188,51.063044   L 265.45188,44.130203   L 184.45639,44.130203   L 184.45639,44.130203  z " clip-path="url(#clipWmfPath1)" style="fill:none;stroke:#000000;stroke-width:0.066662952px;stroke-linecap:round;stroke-linejoin:round;stroke-miterlimit:4;stroke-dasharray:none;stroke-opacity:1;"/>
  <path id="path90" d="  M 265.45188,10.265938   L 265.45188,3.3330969   L 257.85231,3.3330969   L 257.85231,10.265938   L 255.11913,10.265938   L 255.11913,3.3330969   L 247.45289,3.3330969   L 247.45289,10.265938   L 244.71971,10.265938   L 244.71971,3.3330969   L 237.25345,3.3330969   L 237.25345,10.265938   L 234.52027,10.265938   L 234.52027,3.3330969   L 226.9207,3.3330969   L 226.9207,10.265938   L 223.92086,10.265938   L 223.92086,3.3330969   L 216.25462,3.3330969   L 216.25462,10.265938   L 213.12146,10.265938   L 213.12146,3.3330969   L 205.65521,3.3330969   L 205.65521,10.265938   L 202.45539,10.265938   L 202.45539,3.3330969   L 195.12247,3.3330969   L 195.12247,3.3330969   L 195.12247,10.265938   L 192.12263,10.265938   L 192.12263,3.3330969   L 184.45639,3.3330969   L 184.32307,10.132615   L 265.45188,10.265938   L 265.45188,10.265938  z " clip-path="url(#clipWmfPath1)" style="fill:#ffffff;fill-rule:nonzero;fill-opacity:1;stroke:none;"/>
  <path id="path92" d="  M 265.45188,10.265938   L 265.45188,3.3330969   L 257.85231,3.3330969   L 257.85231,10.265938   L 255.11913,10.265938   L 255.11913,3.3330969   L 247.45289,3.3330969   L 247.45289,10.265938   L 244.71971,10.265938   L 244.71971,3.3330969   L 237.25345,3.3330969   L 237.25345,10.265938   L 234.52027,10.265938   L 234.52027,3.3330969   L 226.9207,3.3330969   L 226.9207,10.265938   L 223.92086,10.265938   L 223.92086,3.3330969   L 216.25462,3.3330969   L 216.25462,10.265938   L 213.12146,10.265938   L 213.12146,3.3330969   L 205.65521,3.3330969   L 205.65521,10.265938   L 202.45539,10.265938   L 202.45539,3.3330969   L 195.12247,3.3330969   L 195.12247,3.3330969   L 195.12247,10.265938   L 192.12263,10.265938   L 192.12263,3.3330969   L 184.45639,3.3330969   L 184.32307,10.132615   L 265.45188,10.265938   L 265.45188,10.265938  z " clip-path="url(#clipWmfPath1)" style="fill:none;stroke:#000000;stroke-width:0.066662952px;stroke-linecap:round;stroke-linejoin:round;stroke-miterlimit:4;stroke-dasharray:none;stroke-opacity:1;"/>
  <path id="path94" d="  M 275.05135,10.3326   L 275.05135,3.3330969   L 267.5851,3.3330969   L 267.5851,10.3326   L 275.05135,10.3326  z " clip-path="url(#clipWmfPath1)" style="fill:#ffffff;fill-rule:evenodd;fill-opacity:1;stroke:none;"/>
  <path id="path96" d="  M 275.05135,10.3326   L 275.05135,3.3330969   L 267.5851,3.3330969   L 267.5851,10.3326   L 275.05135,10.3326  z " clip-path="url(#clipWmfPath1)" style="fill:none;stroke:#000000;stroke-width:0.066662952px;stroke-linecap:round;stroke-linejoin:round;stroke-miterlimit:4;stroke-dasharray:none;stroke-opacity:1;"/>
  <path id="path98" d="  M 275.05135,51.129706   L 275.05135,44.130203   L 267.5851,44.130203   L 267.5851,51.129706   L 275.05135,51.129706  z " clip-path="url(#clipWmfPath1)" style="fill:#ffffff;fill-rule:evenodd;fill-opacity:1;stroke:none;"/>
  <path id="path100" d="  M 275.05135,51.129706   L 275.05135,44.130203   L 267.5851,44.130203   L 267.5851,51.129706   L 275.05135,51.129706  z " clip-path="url(#clipWmfPath1)" style="fill:none;stroke:#000000;stroke-width:0.066662952px;stroke-linecap:round;stroke-linejoin:round;stroke-miterlimit:4;stroke-dasharray:none;stroke-opacity:1;"/>
  <path id="path102" d="  M 252.31928,18.598681   L 253.65254,18.798666   L 254.78581,19.2653   L 255.58577,19.998581   L 255.85242,20.865186   L 255.85242,31.531096   L 255.58577,32.397702   L 254.78581,33.064321   L 253.65254,33.464293   L 252.31928,33.597617   L 206.38851,33.597617   L 205.05525,33.464293   L 203.92198,32.997659   L 203.12202,32.264378   L 202.85537,31.397773   L 202.85537,20.798525   L 203.12202,19.931919   L 203.92198,19.198638   L 205.05525,18.732004   L 206.38851,18.598681   L 252.31928,18.598681  z " clip-path="url(#clipWmfPath1)" style="fill:#ffffff;fill-rule:nonzero;fill-opacity:1;stroke:none;"/>
  <path id="path104" d="  M 206.38851,18.065385   L 206.38851,19.131976   L 252.25262,19.131976   L 253.51922,19.2653   L 254.51916,19.731934   L 255.11913,20.265229   L 255.31911,20.931848   L 255.31911,31.464435   L 255.11913,32.131054   L 254.51916,32.597687   L 253.51922,32.997659   L 252.31928,33.064321   L 206.38851,33.064321   L 205.18857,32.997659   L 204.18863,32.531026   L 203.58866,31.99773   L 203.38867,31.331111   L 203.38867,20.865186   L 203.58866,20.198567   L 204.18863,19.665272   L 205.18857,19.198638   L 206.38851,19.131976   L 252.25262,19.131976   L 253.58588,19.331962   L 253.7192,18.265371   L 252.38594,18.065385   L 206.38851,18.065385   L 204.92192,18.265371   L 203.65533,18.732004   L 202.65538,19.665272   L 202.32207,20.731863   L 202.32207,31.464435   L 202.65538,32.531026   L 203.65533,33.464293   L 204.92192,33.930926   L 206.38851,34.130912   L 252.31928,34.130912   L 253.78587,33.930926   L 255.05246,33.530955   L 256.05241,32.664349   L 256.38572,31.597758   L 256.38572,20.798525   L 256.05241,19.731934   L 255.05246,18.798666   L 253.78587,18.332033   L 252.38594,18.065385   L 206.38851,18.065385  z " clip-path="url(#clipWmfPath1)" style="fill:#000000;fill-rule:nonzero;fill-opacity:1;stroke:#000000;stroke-width:0.066662952px;stroke-linecap:round;stroke-linejoin:round;stroke-miterlimit:4;stroke-dasharray:none;stroke-opacity:1;"/>
  <g id="g106" clip-path="url(#clipWmfPath1)"/>
  <g id="g124" clip-path="url(#clipWmfPath1)">
    <text id="text122" y="15.104250" x="0.000000" transform="matrix(1.000000,-0.000000,0.000000,1.000000,204.988584,17.465428)" style="font-size:15.750000px;font-style:normal;font-variant:normal;font-weight:400;font-stretch:Condensed;line-height:125.000000%;letter-spacing:0px;word-spacing:0px;fill:#000000;fill-opacity:1;stroke:none;font-family:Helvetica-Narrow;text-align:start;text-anchor:start;" xml:space="preserve"><tspan id="tspan120" y="15.104250" x="0.000000"><tspan id="tspan108" style="fill:#000000;font-size:15.750000px;font-style:normal;font-variant:normal;font-weight:400;font-stretch:Condensed;font-family:Helvetica-Narrow;" dy="0.000000" dx="0.000000">4</tspan><tspan id="tspan110" style="fill:#000000;font-size:15.750000px;font-style:normal;font-variant:normal;font-weight:400;font-stretch:Condensed;font-family:Helvetica-Narrow;" dy="0.000000" dx="1.150869">1</tspan><tspan id="tspan112" style="fill:#000000;font-size:15.750000px;font-style:normal;font-variant:normal;font-weight:400;font-stretch:Condensed;font-family:Helvetica-Narrow;" dy="0.000000" dx="0.617566">1</tspan><tspan id="tspan114" style="fill:#000000;font-size:15.750000px;font-style:normal;font-variant:normal;font-weight:400;font-stretch:Condensed;font-family:Helvetica-Narrow;" dy="0.000000" dx="1.150869">0</tspan><tspan id="tspan116" style="fill:#000000;font-size:15.750000px;font-style:normal;font-variant:normal;font-weight:400;font-stretch:Condensed;font-family:Helvetica-Narrow;" dy="0.000000" dx="1.150869">0</tspan><tspan id="tspan118" style="fill:#000000;font-size:15.750000px;font-style:normal;font-variant:normal;font-weight:400;font-stretch:Condensed;font-family:Helvetica-Narrow;" dy="0.000000" dx="1.150869">0</tspan></tspan></text>
  </g>
</svg>