<svg xmlns:dc="http://purl.org/dc/elements/1.1/" xmlns:cc="http://creativecommons.org/ns#" xmlns:rdf="http://www.w3.org/1999/02/22-rdf-syntax-ns#" xmlns:svg="http://www.w3.org/2000/svg" xmlns="http://www.w3.org/2000/svg" id="svg248" height="31.34mm" width="60.179999mm" version="1.0">
  <metadata id="metadata252">
    <rdf:RDF>
      <cc:Work rdf:about="">
        <dc:format>image/svg+xml</dc:format>
        <dc:type rdf:resource="http://purl.org/dc/dcmitype/StillImage"/>
      </cc:Work>
    </rdf:RDF>
  </metadata>
  <defs id="defs6">
    <clipPath id="clipWmfPath1" clipPathUnits="userSpaceOnUse">
      <path id="path2" d="M 0,0 L 227.3475,0 L 227.3475,118.34592 L 0,118.34592 z"/>
    </clipPath>
    <pattern y="0" x="0" height="6" width="6" patternUnits="userSpaceOnUse" id="WMFhbasepattern"/>
  </defs>
  <path id="path8" d="  M 163.01016,93.543286   L 163.01016,5.9339647   L 221.4138,5.9339647   L 221.4138,93.543286   L 163.01016,93.543286  z " clip-path="url(#clipWmfPath1)" style="fill:#d4ebe8;fill-rule:evenodd;fill-opacity:1;stroke:none;"/>
  <path id="path10" d="  M 163.01016,93.543286   L 163.01016,5.9339647   L 221.4138,5.9339647   L 221.4138,93.543286   L 163.01016,93.543286  z " clip-path="url(#clipWmfPath1)" style="fill:none;stroke:#000000;stroke-width:0.06667082px;stroke-linecap:round;stroke-linejoin:round;stroke-miterlimit:4;stroke-dasharray:none;stroke-opacity:1;"/>
  <path id="path12" d="  M 13.467506,93.543286   L 13.467506,5.9339647   L 162.27678,5.9339647   L 162.27678,11.401213   L 163.27684,13.201405   L 165.47698,14.334858   L 185.14487,14.334858   L 188.21173,15.401639   L 189.07845,18.335284   L 189.07845,79.941839   L 188.01172,81.608683   L 185.14487,82.27542   L 166.07702,82.27542   L 163.21017,83.408874   L 162.27678,85.27574   L 162.27678,93.543286   L 13.467506,93.543286  z " clip-path="url(#clipWmfPath1)" style="fill:#e5e5cb;fill-rule:evenodd;fill-opacity:1;stroke:none;"/>
  <path id="path14" d="  M 13.467506,93.543286   L 13.467506,5.9339647   L 162.27678,5.9339647   L 162.27678,11.401213   L 163.27684,13.201405   L 165.47698,14.334858   L 185.14487,14.334858   L 188.21173,15.401639   L 189.07845,18.335284   L 189.07845,79.941839   L 188.01172,81.608683   L 185.14487,82.27542   L 166.07702,82.27542   L 163.21017,83.408874   L 162.27678,85.27574   L 162.27678,93.543286   L 13.467506,93.543286  z " clip-path="url(#clipWmfPath1)" style="fill:none;stroke:#000000;stroke-width:0.06667082px;stroke-linecap:round;stroke-linejoin:round;stroke-miterlimit:4;stroke-dasharray:none;stroke-opacity:1;"/>
  <path id="path16" d="  M 162.94349,11.134518   L 162.94349,85.009044  " clip-path="url(#clipWmfPath1)" style="fill:none;stroke:#000000;stroke-width:0.06667082px;stroke-linecap:round;stroke-linejoin:round;stroke-miterlimit:4;stroke-dasharray:none;stroke-opacity:1;"/>
  <path id="path48" d="  M 163.21017,78.074973   L 178.6778,78.074973   L 179.94455,78.0083   L 181.14462,77.808278   L 182.07801,77.341562   L 182.41137,76.474803   L 182.01134,75.674718   L 181.07795,75.274675   L 179.07783,75.074654   L 163.21017,75.074654   L 163.21017,78.074973  z " clip-path="url(#clipWmfPath1)" style="fill:#bfbfbf;fill-rule:nonzero;fill-opacity:1;stroke:none;"/>
  <path id="path50" d="  M 163.21017,78.074973   L 178.6778,78.074973   L 179.94455,78.0083   L 181.14462,77.808278   L 182.07801,77.341562   L 182.41137,76.474803   L 182.01134,75.674718   L 181.07795,75.274675   L 179.07783,75.074654   L 163.21017,75.074654   L 163.21017,78.074973  z " clip-path="url(#clipWmfPath1)" style="fill:none;stroke:#000000;stroke-width:0.06667082px;stroke-linecap:round;stroke-linejoin:round;stroke-miterlimit:4;stroke-dasharray:none;stroke-opacity:1;"/>
  <path id="path52" d="  M 163.21017,71.874314   L 178.6778,71.874314   L 179.87788,71.80764   L 181.07795,71.607619   L 182.01134,71.140902   L 182.3447,70.274143   L 182.21136,69.807427   L 181.94467,69.474058   L 181.01128,69.007342   L 178.94449,68.807321   L 163.21017,68.807321   L 163.21017,71.874314  z " clip-path="url(#clipWmfPath1)" style="fill:#bfbfbf;fill-rule:nonzero;fill-opacity:1;stroke:none;"/>
  <path id="path54" d="  M 163.21017,71.874314   L 178.6778,71.874314   L 179.87788,71.80764   L 181.07795,71.607619   L 182.01134,71.140902   L 182.3447,70.274143   L 182.21136,69.807427   L 181.94467,69.474058   L 181.01128,69.007342   L 178.94449,68.807321   L 163.21017,68.807321   L 163.21017,71.874314  z " clip-path="url(#clipWmfPath1)" style="fill:none;stroke:#000000;stroke-width:0.06667082px;stroke-linecap:round;stroke-linejoin:round;stroke-miterlimit:4;stroke-dasharray:none;stroke-opacity:1;"/>
  <path id="path56" d="  M 163.21017,65.540306   L 178.6778,65.540306   L 179.94455,65.473633   L 181.14462,65.273611   L 182.07801,64.806895   L 182.41137,63.940136   L 182.01134,63.140051   L 181.07795,62.740009   L 179.07783,62.539987   L 163.21017,62.539987   L 163.21017,65.540306  z " clip-path="url(#clipWmfPath1)" style="fill:#bfbfbf;fill-rule:nonzero;fill-opacity:1;stroke:none;"/>
  <path id="path58" d="  M 163.21017,65.540306   L 178.6778,65.540306   L 179.94455,65.473633   L 181.14462,65.273611   L 182.07801,64.806895   L 182.41137,63.940136   L 182.01134,63.140051   L 181.07795,62.740009   L 179.07783,62.539987   L 163.21017,62.539987   L 163.21017,65.540306  z " clip-path="url(#clipWmfPath1)" style="fill:none;stroke:#000000;stroke-width:0.06667082px;stroke-linecap:round;stroke-linejoin:round;stroke-miterlimit:4;stroke-dasharray:none;stroke-opacity:1;"/>
  <path id="path60" d="  M 163.21017,59.006278   L 178.6778,59.006278   L 179.94455,58.939604   L 181.14462,58.739583   L 182.07801,58.272867   L 182.41137,57.406108   L 182.01134,56.606023   L 181.07795,56.20598   L 179.01116,56.005959   L 163.21017,56.005959   L 163.21017,59.006278  z " clip-path="url(#clipWmfPath1)" style="fill:#bfbfbf;fill-rule:nonzero;fill-opacity:1;stroke:none;"/>
  <path id="path62" d="  M 163.21017,59.006278   L 178.6778,59.006278   L 179.94455,58.939604   L 181.14462,58.739583   L 182.07801,58.272867   L 182.41137,57.406108   L 182.01134,56.606023   L 181.07795,56.20598   L 179.01116,56.005959   L 163.21017,56.005959   L 163.21017,59.006278  z " clip-path="url(#clipWmfPath1)" style="fill:none;stroke:#000000;stroke-width:0.06667082px;stroke-linecap:round;stroke-linejoin:round;stroke-miterlimit:4;stroke-dasharray:none;stroke-opacity:1;"/>
  <path id="path64" d="  M 163.21017,53.072313   L 178.6778,53.072313   L 179.94455,53.005639   L 181.14462,52.805618   L 182.07801,52.338902   L 182.41137,51.472143   L 182.01134,50.672058   L 181.07795,50.272015   L 179.07783,50.071994   L 163.21017,50.071994   L 163.21017,53.072313  z " clip-path="url(#clipWmfPath1)" style="fill:#bfbfbf;fill-rule:nonzero;fill-opacity:1;stroke:none;"/>
  <path id="path66" d="  M 163.21017,53.072313   L 178.6778,53.072313   L 179.94455,53.005639   L 181.14462,52.805618   L 182.07801,52.338902   L 182.41137,51.472143   L 182.01134,50.672058   L 181.07795,50.272015   L 179.07783,50.071994   L 163.21017,50.071994   L 163.21017,53.072313  z " clip-path="url(#clipWmfPath1)" style="fill:none;stroke:#000000;stroke-width:0.06667082px;stroke-linecap:round;stroke-linejoin:round;stroke-miterlimit:4;stroke-dasharray:none;stroke-opacity:1;"/>
  <path id="path68" d="  M 163.21017,46.80498   L 178.6778,46.80498   L 181.07795,46.538285   L 182.01134,46.071568   L 182.27803,45.871547   L 182.3447,45.804873   L 182.3447,45.271483   L 182.21136,44.804767   L 181.94467,44.471398   L 181.01128,44.004682   L 178.94449,43.804661   L 163.21017,43.804661   L 163.21017,46.80498  z " clip-path="url(#clipWmfPath1)" style="fill:#bfbfbf;fill-rule:nonzero;fill-opacity:1;stroke:none;"/>
  <path id="path70" d="  M 163.21017,46.80498   L 178.6778,46.80498   L 181.07795,46.538285   L 182.01134,46.071568   L 182.27803,45.871547   L 182.3447,45.804873   L 182.3447,45.271483   L 182.21136,44.804767   L 181.94467,44.471398   L 181.01128,44.004682   L 178.94449,43.804661   L 163.21017,43.804661   L 163.21017,46.80498  z " clip-path="url(#clipWmfPath1)" style="fill:none;stroke:#000000;stroke-width:0.06667082px;stroke-linecap:round;stroke-linejoin:round;stroke-miterlimit:4;stroke-dasharray:none;stroke-opacity:1;"/>
  <path id="path72" d="  M 163.21017,40.537646   L 178.6778,40.537646   L 179.94455,40.470973   L 181.14462,40.270951   L 182.07801,39.804235   L 182.41137,38.937476   L 182.01134,38.137391   L 181.07795,37.737348   L 179.07783,37.537327   L 163.21017,37.537327   L 163.21017,40.537646  z " clip-path="url(#clipWmfPath1)" style="fill:#bfbfbf;fill-rule:nonzero;fill-opacity:1;stroke:none;"/>
  <path id="path74" d="  M 163.21017,40.537646   L 178.6778,40.537646   L 179.94455,40.470973   L 181.14462,40.270951   L 182.07801,39.804235   L 182.41137,38.937476   L 182.01134,38.137391   L 181.07795,37.737348   L 179.07783,37.537327   L 163.21017,37.537327   L 163.21017,40.537646  z " clip-path="url(#clipWmfPath1)" style="fill:none;stroke:#000000;stroke-width:0.06667082px;stroke-linecap:round;stroke-linejoin:round;stroke-miterlimit:4;stroke-dasharray:none;stroke-opacity:1;"/>
  <path id="path76" d="  M 163.21017,34.603682   L 178.6778,34.603682   L 179.94455,34.537008   L 181.14462,34.336987   L 182.07801,33.87027   L 182.41137,33.003511   L 182.27803,32.536795   L 182.01134,32.203426   L 181.07795,31.73671   L 179.07783,31.536689   L 163.21017,31.536689   L 163.21017,34.603682  z " clip-path="url(#clipWmfPath1)" style="fill:#bfbfbf;fill-rule:nonzero;fill-opacity:1;stroke:none;"/>
  <path id="path78" d="  M 163.21017,34.603682   L 178.6778,34.603682   L 179.94455,34.537008   L 181.14462,34.336987   L 182.07801,33.87027   L 182.41137,33.003511   L 182.27803,32.536795   L 182.01134,32.203426   L 181.07795,31.73671   L 179.07783,31.536689   L 163.21017,31.536689   L 163.21017,34.603682  z " clip-path="url(#clipWmfPath1)" style="fill:none;stroke:#000000;stroke-width:0.06667082px;stroke-linecap:round;stroke-linejoin:round;stroke-miterlimit:4;stroke-dasharray:none;stroke-opacity:1;"/>
  <path id="path80" d="  M 163.21017,28.736391   L 178.74447,28.736391   L 179.94455,28.669717   L 181.14462,28.469696   L 182.01134,28.002979   L 182.3447,27.13622   L 181.94467,26.336135   L 181.07795,25.936093   L 179.01116,25.736072   L 163.21017,25.736072   L 163.21017,28.736391  z " clip-path="url(#clipWmfPath1)" style="fill:#bfbfbf;fill-rule:nonzero;fill-opacity:1;stroke:none;"/>
  <path id="path82" d="  M 163.21017,28.736391   L 178.74447,28.736391   L 179.94455,28.669717   L 181.14462,28.469696   L 182.01134,28.002979   L 182.3447,27.13622   L 181.94467,26.336135   L 181.07795,25.936093   L 179.01116,25.736072   L 163.21017,25.736072   L 163.21017,28.736391  z " clip-path="url(#clipWmfPath1)" style="fill:none;stroke:#000000;stroke-width:0.06667082px;stroke-linecap:round;stroke-linejoin:round;stroke-miterlimit:4;stroke-dasharray:none;stroke-opacity:1;"/>
  <path id="path84" d="  M 163.21017,22.469057   L 178.6778,22.469057   L 179.94455,22.402383   L 181.14462,22.202362   L 182.07801,21.735646   L 182.41137,20.868887   L 182.27803,20.402171   L 182.01134,20.068802   L 181.07795,19.602086   L 179.01116,19.402064   L 163.21017,19.402064   L 163.21017,22.469057  z " clip-path="url(#clipWmfPath1)" style="fill:#bfbfbf;fill-rule:nonzero;fill-opacity:1;stroke:none;"/>
  <path id="path86" d="  M 163.21017,22.469057   L 178.6778,22.469057   L 179.94455,22.402383   L 181.14462,22.202362   L 182.07801,21.735646   L 182.41137,20.868887   L 182.27803,20.402171   L 182.01134,20.068802   L 181.07795,19.602086   L 179.01116,19.402064   L 163.21017,19.402064   L 163.21017,22.469057  z " clip-path="url(#clipWmfPath1)" style="fill:none;stroke:#000000;stroke-width:0.06667082px;stroke-linecap:round;stroke-linejoin:round;stroke-miterlimit:4;stroke-dasharray:none;stroke-opacity:1;"/>
  <g id="g88" clip-path="url(#clipWmfPath1)"/>
  <g id="g108" clip-path="url(#clipWmfPath1)">
    <text id="text106" y="8.874813" x="0.000000" transform="matrix(1.000000,-0.000000,0.000000,1.000000,180.144561,83.208853)" style="font-size:9.312500px;font-style:normal;font-variant:normal;font-weight:400;font-stretch:Condensed;line-height:125.000000%;letter-spacing:0px;word-spacing:0px;fill:#000000;fill-opacity:1;stroke:none;font-family:Helvetica-Narrow;text-align:start;text-anchor:start;" xml:space="preserve"><tspan id="tspan104" y="8.874813" x="0.000000"><tspan id="tspan90" style="fill:#000000;font-size:9.312500px;font-style:normal;font-variant:normal;font-weight:400;font-stretch:Condensed;font-family:Helvetica-Narrow;" dy="0.000000" dx="0.000000">M</tspan><tspan id="tspan92" style="fill:#000000;font-size:9.312500px;font-style:normal;font-variant:normal;font-weight:400;font-stretch:Condensed;font-family:Helvetica-Narrow;" dy="0.000000" dx="-0.156839">H</tspan><tspan id="tspan94" style="fill:#000000;font-size:9.312500px;font-style:normal;font-variant:normal;font-weight:400;font-stretch:Condensed;font-family:Helvetica-Narrow;" dy="0.000000" dx="0.117339">1</tspan><tspan id="tspan96" style="fill:#000000;font-size:9.312500px;font-style:normal;font-variant:normal;font-weight:400;font-stretch:Condensed;font-family:Helvetica-Narrow;" dy="0.000000" dx="0.050423">5</tspan><tspan id="tspan98" style="fill:#000000;font-size:9.312500px;font-style:normal;font-variant:normal;font-weight:400;font-stretch:Condensed;font-family:Helvetica-Narrow;" dy="0.000000" dx="0.050423">6</tspan><tspan id="tspan100" style="fill:#000000;font-size:9.312500px;font-style:normal;font-variant:normal;font-weight:400;font-stretch:Condensed;font-family:Helvetica-Narrow;" dy="0.000000" dx="0.050423">7</tspan><tspan id="tspan102" style="fill:#000000;font-size:9.312500px;font-style:normal;font-variant:normal;font-weight:400;font-stretch:Condensed;font-family:Helvetica-Narrow;" dy="0.000000" dx="0.050423">A</tspan></tspan></text>
  </g>
  <path id="path110" d="  M 96.272667,90.742988   L 94.07253,90.542967   L 92.005734,89.876229   L 90.138951,88.876123   L 88.538851,87.542647   L 87.205435,85.942477   L 86.205373,84.075612   L 85.538664,82.075399   L 85.338652,79.875165   L 85.538664,77.674931   L 86.205373,75.608044   L 87.205435,73.741179   L 88.538851,72.141009   L 90.138951,70.807534   L 92.005734,69.807427   L 94.07253,69.14069   L 96.272667,68.940668   L 98.472804,69.14069   L 100.47293,69.807427   L 102.33971,70.807534   L 103.93981,72.141009   L 105.27323,73.741179   L 106.27329,75.608044   L 106.94,77.674931   L 107.14001,79.875165   L 106.94,82.075399   L 106.27329,84.075612   L 105.27323,85.942477   L 103.93981,87.542647   L 102.33971,88.876123   L 100.47293,89.876229   L 98.472804,90.542967   L 96.272667,90.742988  z " clip-path="url(#clipWmfPath1)" style="fill:#808080;fill-rule:nonzero;fill-opacity:1;stroke:none;"/>
  <path id="path112" d="  M 98.472804,90.742988   L 98.472804,90.342945   L 96.272667,90.542967   L 94.1392,90.342945   L 92.072405,89.742881   L 90.205622,88.742775   L 88.672193,87.4093   L 87.338777,85.875803   L 86.338714,84.008938   L 85.738677,82.008725   L 85.538664,79.875165   L 85.738677,77.741605   L 86.338714,75.674718   L 87.338777,73.807853   L 88.672193,72.274356   L 90.205622,70.940881   L 92.072405,69.940775   L 94.1392,69.340711   L 96.272667,69.14069   L 98.406133,69.340711   L 100.40626,69.940775   L 102.27304,70.940881   L 103.80647,72.274356   L 105.13989,73.807853   L 106.13995,75.674718   L 106.73999,77.741605   L 106.94,79.875165   L 106.73999,82.008725   L 106.13995,84.008938   L 105.13989,85.875803   L 103.80647,87.4093   L 102.27304,88.742775   L 100.40626,89.742881   L 98.406133,90.342945   L 96.272667,90.542967   L 94.07253,90.342945   L 94.07253,90.742988   L 96.272667,90.943009   L 98.539475,90.742988   L 100.5396,90.009577   L 102.40638,89.00947   L 104.07315,87.675995   L 105.40657,86.009151   L 106.40663,84.142286   L 107.14001,82.142073   L 107.34002,79.875165   L 107.14001,77.608257   L 106.40663,75.541371   L 105.40657,73.674505   L 104.07315,72.007661   L 102.40638,70.674186   L 100.5396,69.67408   L 98.539475,68.940668   L 96.272667,68.740647   L 94.005859,68.940668   L 91.939063,69.67408   L 90.07228,70.674186   L 88.40551,72.007661   L 87.072093,73.674505   L 86.072031,75.541371   L 85.338652,77.608257   L 85.138639,79.875165   L 85.338652,82.142073   L 86.072031,84.142286   L 87.072093,86.009151   L 88.40551,87.675995   L 90.07228,89.00947   L 91.939063,90.009577   L 94.005859,90.742988   L 96.272667,90.943009   L 98.472804,90.742988  z " clip-path="url(#clipWmfPath1)" style="fill:#000000;fill-rule:nonzero;fill-opacity:1;stroke:#000000;stroke-width:0.06667082px;stroke-linecap:round;stroke-linejoin:round;stroke-miterlimit:4;stroke-dasharray:none;stroke-opacity:1;"/>
  <path id="path114" d="  M 96.272667,89.209491   L 94.405884,89.00947   L 92.672442,88.47608   L 91.072343,87.609321   L 89.672255,86.475867   L 88.538851,85.075718   L 87.672131,83.475548   L 87.138764,81.74203   L 86.938752,79.875165   L 87.138764,78.0083   L 87.672131,76.274782   L 88.538851,74.674612   L 89.672255,73.274463   L 91.072343,72.141009   L 92.672442,71.27425   L 94.405884,70.74086   L 96.272667,70.540838   L 98.13945,70.74086   L 99.872891,71.27425   L 101.47299,72.141009   L 102.87308,73.274463   L 104.00648,74.674612   L 104.8732,76.274782   L 105.40657,78.0083   L 105.60658,79.875165   L 105.40657,81.74203   L 104.8732,83.475548   L 104.00648,85.075718   L 102.87308,86.475867   L 101.47299,87.609321   L 99.872891,88.47608   L 98.13945,89.00947   L 96.272667,89.209491  z " clip-path="url(#clipWmfPath1)" style="fill:#666666;fill-rule:nonzero;fill-opacity:1;stroke:none;"/>
  <path id="path116" d="  M 96.272667,89.209491   L 94.405884,89.00947   L 92.672442,88.47608   L 91.072343,87.609321   L 89.672255,86.475867   L 88.538851,85.075718   L 87.672131,83.475548   L 87.138764,81.74203   L 86.938752,79.875165   L 87.138764,78.0083   L 87.672131,76.274782   L 88.538851,74.674612   L 89.672255,73.274463   L 91.072343,72.141009   L 92.672442,71.27425   L 94.405884,70.74086   L 96.272667,70.540838   L 98.13945,70.74086   L 99.872891,71.27425   L 101.47299,72.141009   L 102.87308,73.274463   L 104.00648,74.674612   L 104.8732,76.274782   L 105.40657,78.0083   L 105.60658,79.875165   L 105.40657,81.74203   L 104.8732,83.475548   L 104.00648,85.075718   L 102.87308,86.475867   L 101.47299,87.609321   L 99.872891,88.47608   L 98.13945,89.00947   L 96.272667,89.209491  z " clip-path="url(#clipWmfPath1)" style="fill:none;stroke:#000000;stroke-width:0.06667082px;stroke-linecap:round;stroke-linejoin:round;stroke-miterlimit:4;stroke-dasharray:none;stroke-opacity:1;"/>
  <path id="path118" d="  M 96.272667,87.075931   L 94.805909,86.942584   L 93.472492,86.475867   L 92.205747,85.80913   L 91.139013,84.942371   L 90.272293,83.875591   L 89.605585,82.675463   L 89.138889,81.341988   L 89.005547,79.875165   L 89.138889,78.408342   L 89.605585,77.074867   L 90.272293,75.808066   L 91.139013,74.741285   L 92.205747,73.874526   L 93.472492,73.207789   L 94.805909,72.741073   L 96.272667,72.607725   L 97.739425,72.741073   L 99.072841,73.207789   L 100.27292,73.874526   L 101.33965,74.741285   L 102.20637,75.808066   L 102.87308,77.074867   L 103.33977,78.408342   L 103.47312,79.875165   L 103.33977,81.341988   L 102.87308,82.675463   L 101.33965,84.942371   L 99.072841,86.475867   L 97.739425,86.942584   L 96.272667,87.075931  z " clip-path="url(#clipWmfPath1)" style="fill:#808080;fill-rule:nonzero;fill-opacity:1;stroke:none;"/>
  <path id="path120" d="  M 96.272667,87.075931   L 94.805909,86.942584   L 93.472492,86.475867   L 92.205747,85.80913   L 91.139013,84.942371   L 90.272293,83.875591   L 89.605585,82.675463   L 89.138889,81.341988   L 89.005547,79.875165   L 89.138889,78.408342   L 89.605585,77.074867   L 90.272293,75.808066   L 91.139013,74.741285   L 92.205747,73.874526   L 93.472492,73.207789   L 94.805909,72.741073   L 96.272667,72.607725   L 97.739425,72.741073   L 99.072841,73.207789   L 100.27292,73.874526   L 101.33965,74.741285   L 102.20637,75.808066   L 102.87308,77.074867   L 103.33977,78.408342   L 103.47312,79.875165   L 103.33977,81.341988   L 102.87308,82.675463   L 101.33965,84.942371   L 99.072841,86.475867   L 97.739425,86.942584   L 96.272667,87.075931  z " clip-path="url(#clipWmfPath1)" style="fill:none;stroke:#000000;stroke-width:0.06667082px;stroke-linecap:round;stroke-linejoin:round;stroke-miterlimit:4;stroke-dasharray:none;stroke-opacity:1;"/>
  <path id="path122" d="  M 96.272667,82.742137   L 95.139263,82.542115   L 94.272542,81.942052   L 93.605834,81.008619   L 93.405821,79.875165   L 93.605834,78.741711   L 94.272542,77.874952   L 95.139263,77.208215   L 96.272667,77.008193   L 97.406071,77.208215   L 98.339462,77.874952   L 98.9395,78.741711   L 99.139512,79.875165   L 98.9395,81.008619   L 98.339462,81.942052   L 97.406071,82.542115   L 96.272667,82.742137  z " clip-path="url(#clipWmfPath1)" style="fill:#e6e6e6;fill-rule:nonzero;fill-opacity:1;stroke:none;"/>
  <path id="path124" d="  M 96.272667,82.742137   L 95.139263,82.542115   L 94.272542,81.942052   L 93.605834,81.008619   L 93.405821,79.875165   L 93.605834,78.741711   L 94.272542,77.874952   L 95.139263,77.208215   L 96.272667,77.008193   L 97.406071,77.208215   L 98.339462,77.874952   L 98.9395,78.741711   L 99.139512,79.875165   L 98.9395,81.008619   L 98.339462,81.942052   L 97.406071,82.542115   L 96.272667,82.742137  z " clip-path="url(#clipWmfPath1)" style="fill:none;stroke:#000000;stroke-width:0.06667082px;stroke-linecap:round;stroke-linejoin:round;stroke-miterlimit:4;stroke-dasharray:none;stroke-opacity:1;"/>
  <path id="path126" d="  M 81.13839,93.676633   L 82.205123,93.676633   L 82.205123,6.0006384   L 81.13839,6.0006384   L 81.13839,93.676633  z " clip-path="url(#clipWmfPath1)" style="fill:#000000;fill-rule:nonzero;fill-opacity:1;stroke:#000000;stroke-width:0.06667082px;stroke-linecap:round;stroke-linejoin:round;stroke-miterlimit:4;stroke-dasharray:none;stroke-opacity:1;"/>
  <path id="path128" d="  M 155.54303,12.134624   L 140.87545,12.134624   L 140.87545,42.337838   L 155.54303,42.337838   L 155.54303,12.134624  z " clip-path="url(#clipWmfPath1)" style="fill:#ffffff;fill-rule:nonzero;fill-opacity:1;stroke:none;"/>
  <path id="path130" d="  M 155.54303,12.134624   L 140.87545,12.134624   L 140.87545,42.337838   L 155.54303,42.337838   L 155.54303,12.134624  z " clip-path="url(#clipWmfPath1)" style="fill:none;stroke:#000000;stroke-width:0.06667082px;stroke-linecap:round;stroke-linejoin:round;stroke-miterlimit:4;stroke-dasharray:none;stroke-opacity:1;"/>
  <path id="path132" d="  M 141.40881,14.468206   L 141.54215,15.201617   L 141.94218,15.801681   L 142.54222,16.201724   L 143.2756,16.335071   L 144.00898,16.201724   L 144.54234,15.801681   L 144.94237,15.201617   L 145.07571,14.468206   L 144.94237,13.734795   L 144.54234,13.201405   L 144.00898,12.801362   L 143.2756,12.668014   L 142.54222,12.801362   L 141.94218,13.201405   L 141.54215,13.734795   L 141.40881,14.468206  z " clip-path="url(#clipWmfPath1)" style="fill:#ffffff;fill-rule:nonzero;fill-opacity:1;stroke:none;"/>
  <path id="path134" d="  M 141.40881,14.468206   L 141.54215,15.201617   L 141.94218,15.801681   L 142.54222,16.201724   L 143.2756,16.335071   L 144.00898,16.201724   L 144.54234,15.801681   L 144.94237,15.201617   L 145.07571,14.468206   L 144.94237,13.734795   L 144.54234,13.201405   L 144.00898,12.801362   L 143.2756,12.668014   L 142.54222,12.801362   L 141.94218,13.201405   L 141.54215,13.734795   L 141.40881,14.468206  z " clip-path="url(#clipWmfPath1)" style="fill:none;stroke:#000000;stroke-width:0.06667082px;stroke-linecap:round;stroke-linejoin:round;stroke-miterlimit:4;stroke-dasharray:none;stroke-opacity:1;"/>
  <path id="path136" d="  M 144.07565,28.803064   L 152.00947,28.803064   L 152.00947,32.870164   L 144.07565,32.870164   L 144.07565,28.803064  z " clip-path="url(#clipWmfPath1)" style="fill:#000000;fill-rule:nonzero;fill-opacity:1;stroke:none;"/>
  <path id="path138" d="  M 144.07565,28.803064   L 152.00947,28.803064   L 152.00947,32.870164   L 144.07565,32.870164   L 144.07565,28.803064  z " clip-path="url(#clipWmfPath1)" style="fill:none;stroke:#000000;stroke-width:0.06667082px;stroke-linecap:round;stroke-linejoin:round;stroke-miterlimit:4;stroke-dasharray:none;stroke-opacity:1;"/>
  <path id="path140" d="  M 144.07565,34.470334   L 152.00947,34.470334   L 152.00947,38.537433   L 144.07565,38.537433   L 144.07565,34.470334  z " clip-path="url(#clipWmfPath1)" style="fill:#000000;fill-rule:nonzero;fill-opacity:1;stroke:none;"/>
  <path id="path142" d="  M 144.07565,34.470334   L 152.00947,34.470334   L 152.00947,38.537433   L 144.07565,38.537433   L 144.07565,34.470334  z " clip-path="url(#clipWmfPath1)" style="fill:none;stroke:#000000;stroke-width:0.06667082px;stroke-linecap:round;stroke-linejoin:round;stroke-miterlimit:4;stroke-dasharray:none;stroke-opacity:1;"/>
  <path id="path144" d="  M 144.07565,22.669079   L 152.00947,22.669079   L 152.00947,26.736178   L 144.07565,26.736178   L 144.07565,22.669079  z " clip-path="url(#clipWmfPath1)" style="fill:#000000;fill-rule:nonzero;fill-opacity:1;stroke:none;"/>
  <path id="path146" d="  M 144.07565,22.669079   L 152.00947,22.669079   L 152.00947,26.736178   L 144.07565,26.736178   L 144.07565,22.669079  z " clip-path="url(#clipWmfPath1)" style="fill:none;stroke:#000000;stroke-width:0.06667082px;stroke-linecap:round;stroke-linejoin:round;stroke-miterlimit:4;stroke-dasharray:none;stroke-opacity:1;"/>
  <path id="path148" d="  M 144.07565,16.66844   L 152.00947,16.66844   L 152.00947,20.735539   L 144.07565,20.735539   L 144.07565,16.66844  z " clip-path="url(#clipWmfPath1)" style="fill:#ffffff;fill-rule:nonzero;fill-opacity:1;stroke:none;"/>
  <path id="path150" d="  M 144.07565,16.66844   L 152.00947,16.66844   L 152.00947,20.735539   L 144.07565,20.735539   L 144.07565,16.66844  z " clip-path="url(#clipWmfPath1)" style="fill:none;stroke:#000000;stroke-width:0.06667082px;stroke-linecap:round;stroke-linejoin:round;stroke-miterlimit:4;stroke-dasharray:none;stroke-opacity:1;"/>
  <path id="path152" d="  M 124.34108,30.469908   L 124.34108,33.270206   L 124.20774,34.003618   L 123.80772,34.537008   L 123.14101,34.803703   L 122.40763,34.93705   L 99.272854,34.93705   L 98.539475,34.803703   L 97.939437,34.40366   L 97.472742,33.736923   L 97.3394,33.003511   L 97.3394,23.535837   L 97.472742,22.802426   L 97.939437,22.269036   L 98.539475,21.868993   L 99.272854,21.735646   L 122.40763,21.735646   L 123.14101,21.935667   L 123.80772,22.402383   L 124.20774,23.069121   L 124.34108,23.869206   L 124.34108,26.402809   L 136.4085,28.403022   L 124.34108,30.469908  z " clip-path="url(#clipWmfPath1)" style="fill:#ffffff;fill-rule:nonzero;fill-opacity:1;stroke:none;"/>
  <path id="path154" d="  M 136.47517,28.869738   L 136.94187,28.336348   L 136.34183,27.936306   L 123.80772,30.069866   L 123.80772,33.203533   L 123.74105,33.803597   L 123.47436,34.136965   L 123.00767,34.336987   L 122.34096,34.40366   L 99.339525,34.40366   L 98.739487,34.336987   L 98.272791,34.003618   L 97.939437,33.536901   L 97.872766,32.936838   L 97.872766,23.602511   L 97.939437,23.002447   L 98.272791,22.669079   L 98.739487,22.33571   L 99.339525,22.269036   L 122.34096,22.269036   L 122.941,22.402383   L 123.40769,22.735752   L 123.74105,23.269142   L 123.80772,23.93588   L 123.80772,26.802852   L 133.34164,28.403022   L 123.80772,30.069866   L 123.80772,33.270206   L 124.34108,33.803597   L 124.87445,33.270206   L 124.87445,30.869951   L 136.47517,28.869738   L 136.47517,27.936306   L 124.87445,26.002767   L 124.87445,23.802532   L 124.67444,22.8691   L 124.20774,22.069015   L 123.34102,21.468951   L 122.4743,21.202256   L 99.206183,21.202256   L 98.339462,21.402277   L 97.606083,21.868993   L 97.006046,22.602405   L 96.806033,23.469164   L 96.806033,33.070185   L 97.006046,33.936944   L 97.606083,34.803703   L 98.339462,35.270419   L 99.206183,35.470441   L 122.4743,35.470441   L 123.27435,35.270419   L 124.14107,34.93705   L 124.67444,34.203639   L 124.87445,33.33688   L 124.87445,30.869951   L 136.47517,28.869738  z " clip-path="url(#clipWmfPath1)" style="fill:#000000;fill-rule:nonzero;fill-opacity:1;stroke:#000000;stroke-width:0.06667082px;stroke-linecap:round;stroke-linejoin:round;stroke-miterlimit:4;stroke-dasharray:none;stroke-opacity:1;"/>
  <g id="g156" clip-path="url(#clipWmfPath1)"/>
  <g id="g168" clip-path="url(#clipWmfPath1)">
    <text id="text166" y="8.930687" x="0.000000" transform="matrix(1.000000,-0.000000,0.000000,1.000000,102.273041,22.535731)" style="font-size:9.312500px;font-style:normal;font-variant:normal;font-weight:400;font-stretch:Condensed;line-height:125.000000%;letter-spacing:0px;word-spacing:0px;fill:#000000;fill-opacity:1;stroke:none;font-family:Helvetica-Narrow;text-align:start;text-anchor:start;" xml:space="preserve"><tspan id="tspan164" y="8.930687" x="0.000000"><tspan id="tspan158" style="fill:#000000;font-size:9.312500px;font-style:normal;font-variant:normal;font-weight:400;font-stretch:Condensed;font-family:Helvetica-Narrow;" dy="0.000000" dx="0.000000">S</tspan><tspan id="tspan160" style="fill:#000000;font-size:9.312500px;font-style:normal;font-variant:normal;font-weight:400;font-stretch:Condensed;font-family:Helvetica-Narrow;" dy="0.000000" dx="0.203047">W</tspan><tspan id="tspan162" style="fill:#000000;font-size:9.312500px;font-style:normal;font-variant:normal;font-weight:400;font-stretch:Condensed;font-family:Helvetica-Narrow;" dy="0.000000" dx="0.022564">1</tspan></tspan></text>
  </g>
  <path id="path170" d="  M 137.40856,55.872611   L 138.40863,56.005959   L 139.20868,56.472675   L 139.80871,57.139413   L 140.00873,57.872824   L 140.00873,67.340498   L 139.80871,68.073909   L 139.20868,68.673973   L 138.40863,69.007342   L 137.40856,69.14069   L 116.67394,69.14069   L 115.20718,70.074122   L 112.54035,72.074335   L 109.94019,74.007874   L 108.60677,74.741285   L 108.74011,74.341243   L 109.27348,73.474484   L 111.14026,70.940881   L 113.14038,68.340604   L 114.07378,66.940455   L 114.07378,57.539455   L 114.27379,56.806044   L 114.87383,56.339328   L 115.67388,56.005959   L 116.67394,55.872611   L 137.40856,55.872611  z " clip-path="url(#clipWmfPath1)" style="fill:#ffffff;fill-rule:nonzero;fill-opacity:1;stroke:none;"/>
  <path id="path172" d="  M 116.67394,55.339221   L 116.67394,56.406001   L 137.34189,56.406001   L 138.20861,56.472675   L 138.87532,56.872718   L 139.34202,57.406108   L 139.47536,57.939498   L 139.47536,67.273824   L 139.34202,67.807214   L 138.94199,68.273931   L 138.27528,68.540626   L 137.34189,68.607299   L 116.67394,68.607299   L 116.40725,68.740647   L 114.9405,69.67408   L 114.87383,69.67408   L 112.20699,71.674292   L 112.20699,71.674292   L 109.6735,73.607831   L 108.34009,74.274569   L 108.87345,75.208002   L 109.07346,74.874633   L 109.20681,74.541264   L 109.6735,73.741179   L 111.54028,71.27425   L 113.54041,68.673973   L 113.54041,68.607299   L 114.4738,67.20715   L 114.60714,66.940455   L 114.60714,57.606129   L 114.74048,57.072739   L 115.14051,56.806044   L 115.80722,56.472675   L 116.74061,56.406001   L 137.34189,56.406001   L 138.34196,56.539349   L 138.4753,55.472569   L 137.47523,55.339221   L 137.40856,55.339221   L 116.67394,55.339221   L 116.60727,55.339221   L 115.60721,55.472569   L 115.47386,55.539242   L 114.67381,55.872611   L 114.54047,55.939285   L 113.94043,56.406001   L 113.80709,56.672696   L 113.60708,57.406108   L 113.54041,57.539455   L 113.54041,66.807108   L 112.74036,68.073909   L 110.74024,70.607512   L 110.74024,70.607512   L 108.87345,73.141115   L 108.87345,73.207789   L 108.34009,74.074548   L 108.27341,74.207895   L 108.14007,74.607938   L 108.27341,75.141328   L 108.87345,75.208002   L 110.20687,74.47459   L 110.27354,74.407917   L 112.8737,72.474378   L 112.8737,72.474378   L 115.47386,70.474165   L 116.80728,69.67408   L 137.40856,69.67408   L 137.47523,69.67408   L 138.4753,69.540732   L 138.60864,69.474058   L 139.40869,69.14069   L 139.54203,69.007342   L 140.14207,68.407278   L 140.27541,68.207257   L 140.47542,67.473845   L 140.54209,67.340498   L 140.54209,57.872824   L 140.47542,57.739476   L 140.27541,57.006065   L 140.20874,56.806044   L 139.6087,56.139306   L 139.47536,56.005959   L 138.67531,55.539242   L 138.4753,55.472569   L 137.47523,55.339221   L 137.40856,55.339221   L 116.67394,55.339221  z " clip-path="url(#clipWmfPath1)" style="fill:#000000;fill-rule:nonzero;fill-opacity:1;stroke:#000000;stroke-width:0.06667082px;stroke-linecap:round;stroke-linejoin:round;stroke-miterlimit:4;stroke-dasharray:none;stroke-opacity:1;"/>
  <g id="g174" clip-path="url(#clipWmfPath1)"/>
  <g id="g186" clip-path="url(#clipWmfPath1)">
    <text id="text184" y="8.930687" x="0.000000" transform="matrix(1.000000,-0.000000,0.000000,1.000000,119.074088,57.472781)" style="font-size:9.312500px;font-style:normal;font-variant:normal;font-weight:400;font-stretch:Condensed;line-height:125.000000%;letter-spacing:0px;word-spacing:0px;fill:#000000;fill-opacity:1;stroke:none;font-family:Helvetica-Narrow;text-align:start;text-anchor:start;" xml:space="preserve"><tspan id="tspan182" y="8.930687" x="0.000000"><tspan id="tspan176" style="fill:#000000;font-size:9.312500px;font-style:normal;font-variant:normal;font-weight:400;font-stretch:Condensed;font-family:Helvetica-Narrow;" dy="0.000000" dx="0.000000">C</tspan><tspan id="tspan178" style="fill:#000000;font-size:9.312500px;font-style:normal;font-variant:normal;font-weight:400;font-stretch:Condensed;font-family:Helvetica-Narrow;" dy="0.000000" dx="0.117339">N</tspan><tspan id="tspan180" style="fill:#000000;font-size:9.312500px;font-style:normal;font-variant:normal;font-weight:400;font-stretch:Condensed;font-family:Helvetica-Narrow;" dy="0.000000" dx="0.117339">1</tspan></tspan></text>
  </g>
  <path id="path188" d="  M 39.469127,69.407385   L 39.469127,69.807427   L 40.53586,69.807427   L 40.53586,69.807427   L 41.33591,69.807427   L 41.33591,71.874314   L 41.33591,69.807427   L 42.20263,69.807427   L 42.20263,69.807427   L 43.069351,69.807427   L 43.069351,71.874314   L 43.069351,69.807427   L 43.936072,69.807427   L 43.936072,69.807427   L 44.736121,69.807427   L 44.736121,71.874314   L 44.736121,69.807427   L 45.602842,69.807427   L 45.602842,69.807427   L 46.469563,69.807427   L 46.469563,71.874314   L 46.469563,69.807427   L 47.336283,69.807427   L 47.336283,69.807427   L 48.136333,69.807427   L 48.136333,71.874314   L 48.136333,69.807427   L 49.003054,69.807427   L 49.003054,69.807427   L 49.869775,69.807427   L 49.869775,71.874314   L 49.869775,69.807427   L 50.736495,69.807427   L 50.736495,69.807427   L 51.536545,69.807427   L 51.536545,71.874314   L 51.536545,69.807427   L 52.469937,69.807427   L 52.469937,69.807427   L 53.336657,69.807427   L 53.336657,71.874314   L 53.336657,69.807427   L 54.136707,69.807427   L 54.136707,69.807427   L 54.936757,69.807427   L 54.936757,71.874314   L 54.936757,69.807427   L 55.803478,69.807427   L 55.803478,69.807427   L 56.670199,69.807427   L 56.670199,71.874314   L 56.670199,69.807427   L 57.536919,69.807427   L 57.536919,69.807427   L 58.40364,69.807427   L 58.40364,71.874314   L 58.40364,69.807427   L 59.20369,69.807427   L 59.20369,69.807427   L 60.07041,69.807427   L 60.07041,71.874314   L 60.07041,69.807427   L 60.87046,69.807427   L 60.87046,69.807427   L 61.803852,69.807427   L 61.803852,71.874314   L 61.803852,69.807427   L 62.603902,69.807427   L 62.603902,69.807427   L 63.403952,69.807427   L 63.403952,71.874314   L 63.403952,69.807427   L 64.337343,69.807427   L 64.337343,69.807427   L 65.204064,69.807427   L 65.204064,71.874314   L 65.204064,69.807427   L 66.070784,69.807427   L 66.070784,69.807427   L 66.870834,69.807427   L 66.870834,71.874314   L 66.870834,69.807427   L 67.804226,69.807427   L 67.804226,69.807427   L 68.604276,69.807427   L 68.604276,71.874314   L 68.604276,69.807427   L 69.404326,69.807427   L 69.404326,69.807427   L 70.337717,69.807427   L 70.337717,71.874314   L 70.337717,69.807427   L 71.137767,69.807427   L 71.137767,69.807427   L 72.004488,69.807427   L 72.004488,71.874314   L 72.004488,69.807427   L 73.071221,69.807427   L 73.071221,69.807427   L 73.671258,69.807427   L 73.671258,71.874314   L 73.671258,69.807427   L 74.271296,69.807427   L 74.271296,68.673973   L 74.271296,68.673973   L 74.271296,67.873888   L 76.338091,67.873888   L 74.271296,67.873888   L 74.271296,66.940455   L 74.271296,66.940455   L 74.271296,66.14037   L 76.338091,66.14037   L 74.271296,66.14037   L 74.271296,65.273611   L 74.271296,65.273611   L 74.271296,64.473526   L 76.338091,64.473526   L 74.271296,64.473526   L 74.271296,63.540094   L 74.271296,63.540094   L 74.271296,62.740009   L 76.338091,62.740009   L 74.271296,62.740009   L 74.271296,61.87325   L 74.271296,61.87325   L 74.271296,61.073165   L 76.338091,61.073165   L 74.271296,61.073165   L 74.271296,60.139732   L 74.271296,60.139732   L 74.271296,59.339647   L 76.338091,59.339647   L 74.271296,59.339647   L 74.271296,58.472888   L 74.271296,58.472888   L 74.271296,57.672803   L 76.338091,57.672803   L 74.271296,57.672803   L 74.271296,56.73937   L 74.271296,56.73937   L 74.271296,55.939285   L 76.338091,55.939285   L 74.271296,55.939285   L 74.271296,55.005852   L 74.271296,55.005852   L 74.271296,54.205767   L 76.338091,54.205767   L 74.271296,54.205767   L 74.271296,53.339008   L 74.271296,53.339008   L 74.271296,52.538923   L 76.338091,52.538923   L 74.271296,52.538923   L 74.271296,51.605491   L 74.271296,51.605491   L 74.271296,50.805405   L 76.338091,50.805405   L 74.271296,50.805405   L 74.271296,49.871973   L 74.271296,49.871973   L 74.271296,49.071888   L 76.338091,49.071888   L 74.271296,49.071888   L 74.271296,48.271803   L 74.271296,48.271803   L 74.271296,47.405044   L 76.338091,47.405044   L 74.271296,47.405044   L 74.271296,46.471611   L 74.271296,46.471611   L 74.271296,45.671526   L 76.338091,45.671526   L 74.271296,45.671526   L 74.271296,44.871441   L 74.271296,44.871441   L 74.271296,44.004682   L 76.338091,44.004682   L 74.271296,44.004682   L 74.271296,43.071249   L 74.271296,43.071249   L 74.271296,42.271164   L 76.338091,42.271164   L 74.271296,42.271164   L 74.271296,41.404405   L 74.271296,41.404405   L 74.271296,40.60432   L 76.338091,40.60432   L 74.271296,40.60432   L 74.271296,39.670887   L 74.271296,39.670887   L 74.271296,38.804129   L 76.338091,38.804129   L 74.271296,38.804129   L 74.271296,38.004043   L 74.271296,38.004043   L 74.271296,37.070611   L 76.338091,37.070611   L 74.271296,37.070611   L 74.271296,36.470547   L 74.271296,36.470547   L 74.271296,35.470441   L 76.338091,35.470441   L 74.271296,35.470441   L 74.271296,35.003724   L 73.204562,35.003724   L 73.204562,35.003724   L 72.404512,35.003724   L 72.404512,32.936838   L 72.404512,35.003724   L 71.537792,35.003724   L 71.537792,35.003724   L 70.671071,35.003724   L 70.671071,32.936838   L 70.671071,35.003724   L 69.80435,35.003724   L 69.80435,35.003724   L 69.004301,35.003724   L 69.004301,32.936838   L 69.004301,35.003724   L 68.13758,35.003724   L 68.13758,35.003724   L 67.270859,35.003724   L 67.270859,32.936838   L 67.270859,35.003724   L 66.404139,35.003724   L 66.404139,35.003724   L 65.604089,35.003724   L 65.604089,32.936838   L 65.604089,35.003724   L 64.737368,35.003724   L 64.737368,35.003724   L 63.870647,35.003724   L 63.870647,32.936838   L 63.870647,35.003724   L 63.003927,35.003724   L 63.003927,35.003724   L 62.203877,35.003724   L 62.203877,32.936838   L 62.203877,35.003724   L 61.270485,35.003724   L 61.270485,35.003724   L 60.403765,35.003724   L 60.403765,32.936838   L 60.403765,35.003724   L 59.603715,35.003724   L 59.603715,35.003724   L 58.803665,35.003724   L 58.803665,32.936838   L 58.803665,35.003724   L 57.936944,35.003724   L 57.936944,35.003724   L 57.070223,35.003724   L 57.070223,32.936838   L 57.070223,35.003724   L 56.203503,35.003724   L 56.203503,35.003724   L 55.336782,35.003724   L 55.336782,32.936838   L 55.336782,35.003724   L 54.536732,35.003724   L 54.536732,35.003724   L 53.670012,35.003724   L 53.670012,32.936838   L 53.670012,35.003724   L 52.869962,35.003724   L 52.869962,35.003724   L 51.93657,35.003724   L 51.93657,32.936838   L 51.93657,35.003724   L 51.13652,35.003724   L 51.13652,35.003724   L 50.33647,35.003724   L 50.33647,32.936838   L 50.33647,35.003724   L 49.403079,35.003724   L 49.403079,35.003724   L 48.536358,35.003724   L 48.536358,32.936838   L 48.536358,35.003724   L 47.669638,35.003724   L 47.669638,35.003724   L 46.869588,35.003724   L 46.869588,32.936838   L 46.869588,35.003724   L 45.936196,35.003724   L 45.936196,35.003724   L 45.136146,35.003724   L 45.136146,32.936838   L 45.136146,35.003724   L 44.336097,35.003724   L 44.336097,35.003724   L 43.402705,35.003724   L 43.402705,32.936838   L 43.402705,35.003724   L 42.602655,35.003724   L 42.602655,35.003724   L 41.735934,35.003724   L 41.735934,32.936838   L 41.735934,35.003724   L 40.802543,35.003724   L 40.802543,35.003724   L 40.202506,35.003724   L 40.202506,32.936838   L 40.202506,35.003724   L 39.469127,35.003724   L 39.469127,36.137178   L 39.469127,36.137178   L 39.469127,36.937263   L 37.402331,36.937263   L 39.469127,36.937263   L 39.469127,37.870696   L 39.469127,37.870696   L 39.469127,38.670781   L 37.402331,38.670781   L 39.469127,38.670781   L 39.469127,39.53754   L 39.469127,39.53754   L 39.469127,40.337625   L 37.402331,40.337625   L 39.469127,40.337625   L 39.469127,41.271058   L 39.469127,41.271058   L 39.469127,42.071143   L 37.402331,42.071143   L 39.469127,42.071143   L 39.469127,42.937902   L 39.469127,42.937902   L 39.469127,43.737987   L 37.402331,43.737987   L 39.469127,43.737987   L 39.469127,44.671419   L 39.469127,44.671419   L 39.469127,45.471505   L 37.402331,45.471505   L 39.469127,45.471505   L 39.469127,46.338263   L 39.469127,46.338263   L 39.469127,47.138349   L 37.402331,47.138349   L 39.469127,47.138349   L 39.469127,48.071781   L 39.469127,48.071781   L 39.469127,48.871866   L 37.402331,48.871866   L 39.469127,48.871866   L 39.469127,49.805299   L 39.469127,49.805299   L 39.469127,50.605384   L 37.402331,50.605384   L 39.469127,50.605384   L 39.469127,51.472143   L 39.469127,51.472143   L 39.469127,52.272228   L 37.402331,52.272228   L 39.469127,52.272228   L 39.469127,53.205661   L 39.469127,53.205661   L 39.469127,54.005746   L 37.402331,54.005746   L 39.469127,54.005746   L 39.469127,54.939179   L 39.469127,54.939179   L 39.469127,55.739264   L 37.402331,55.739264   L 39.469127,55.739264   L 39.469127,56.539349   L 39.469127,56.539349   L 39.469127,57.406108   L 37.402331,57.406108   L 39.469127,57.406108   L 39.469127,58.33954   L 39.469127,58.33954   L 39.469127,59.139625   L 37.402331,59.139625   L 39.469127,59.139625   L 39.469127,59.939711   L 39.469127,59.939711   L 39.469127,60.806469   L 37.402331,60.806469   L 39.469127,60.806469   L 39.469127,61.739902   L 39.469127,61.739902   L 39.469127,62.539987   L 37.402331,62.539987   L 39.469127,62.539987   L 39.469127,63.406746   L 39.469127,63.406746   L 39.469127,64.206831   L 37.402331,64.206831   L 39.469127,64.206831   L 39.469127,65.140264   L 39.469127,65.140264   L 39.469127,66.007023   L 37.402331,66.007023   L 39.469127,66.007023   L 39.469127,66.807108   L 39.469127,66.807108   L 39.469127,67.740541   L 37.402331,67.740541   L 39.469127,67.740541   L 39.469127,68.340604   L 39.469127,68.340604   L 39.469127,69.407385   L 37.402331,69.407385   L 39.469127,69.407385  z " clip-path="url(#clipWmfPath1)" style="fill:#000000;fill-rule:nonzero;fill-opacity:1;stroke:none;"/>
  <path id="path190" d="  M 37.402331,68.873994   L 37.402331,69.940775   L 39.469127,69.940775   L 39.469127,68.873994   L 38.93576,69.407385   L 38.93576,70.340817   L 40.53586,70.340817   L 40.53586,70.340817   L 40.802543,70.340817   L 40.802543,71.874314   L 41.869276,71.874314   L 41.869276,70.340817   L 42.20263,70.340817   L 42.20263,70.340817   L 42.535984,70.340817   L 42.535984,71.874314   L 43.602717,71.874314   L 43.602717,70.340817   L 43.936072,70.340817   L 43.936072,70.340817   L 44.202755,70.340817   L 44.202755,71.874314   L 45.269488,71.874314   L 45.269488,70.340817   L 45.602842,70.340817   L 45.602842,70.340817   L 45.936196,70.340817   L 45.936196,71.874314   L 47.002929,71.874314   L 47.002929,70.340817   L 47.336283,70.340817   L 47.336283,70.340817   L 47.602967,70.340817   L 47.602967,71.874314   L 48.6697,71.874314   L 48.6697,70.340817   L 49.003054,70.340817   L 49.003054,70.340817   L 49.336408,70.340817   L 49.336408,71.874314   L 50.403141,71.874314   L 50.403141,70.340817   L 50.736495,70.340817   L 50.736495,70.340817   L 51.003179,70.340817   L 51.003179,71.874314   L 52.069912,71.874314   L 52.069912,70.340817   L 52.469937,70.340817   L 52.469937,70.340817   L 52.803291,70.340817   L 52.803291,71.874314   L 53.870024,71.874314   L 53.870024,70.340817   L 54.136707,70.340817   L 54.136707,70.340817   L 54.403391,70.340817   L 54.403391,71.874314   L 55.470124,71.874314   L 55.470124,70.340817   L 55.803478,70.340817   L 55.803478,70.340817   L 56.136832,70.340817   L 56.136832,71.874314   L 57.203565,71.874314   L 57.203565,70.340817   L 57.536919,70.340817   L 57.536919,70.340817   L 57.870273,70.340817   L 57.870273,71.874314   L 58.937006,71.874314   L 58.937006,70.340817   L 59.20369,70.340817   L 59.20369,70.340817   L 59.537044,70.340817   L 59.537044,71.874314   L 60.603777,71.874314   L 60.603777,70.340817   L 60.87046,70.340817   L 60.87046,70.340817   L 61.270485,70.340817   L 61.270485,71.874314   L 62.337218,71.874314   L 62.337218,70.340817   L 62.603902,70.340817   L 62.603902,70.340817   L 62.870585,70.340817   L 62.870585,71.874314   L 63.937318,71.874314   L 63.937318,70.340817   L 64.337343,70.340817   L 64.337343,70.340817   L 64.670697,70.340817   L 64.670697,71.874314   L 65.73743,71.874314   L 65.73743,70.340817   L 66.070784,70.340817   L 66.070784,70.340817   L 66.337468,70.340817   L 66.337468,71.874314   L 67.404201,71.874314   L 67.404201,70.340817   L 67.804226,70.340817   L 67.804226,70.340817   L 68.070909,70.340817   L 68.070909,71.874314   L 69.137642,71.874314   L 69.137642,70.340817   L 69.404326,70.340817   L 69.404326,70.340817   L 69.80435,70.340817   L 69.80435,71.874314   L 70.871084,71.874314   L 70.871084,70.340817   L 71.137767,70.340817   L 71.137767,70.340817   L 71.471121,70.340817   L 71.471121,71.874314   L 72.537854,71.874314   L 72.537854,70.340817   L 73.071221,70.340817   L 73.071221,70.340817   L 73.137892,70.340817   L 73.137892,71.874314   L 74.204625,71.874314   L 74.204625,70.340817   L 74.804662,70.340817   L 74.804662,68.673973   L 74.804662,68.673973   L 74.804662,68.407278   L 76.338091,68.407278   L 76.338091,67.340498   L 74.804662,67.340498   L 74.804662,66.940455   L 74.804662,66.940455   L 74.804662,66.67376   L 76.338091,66.67376   L 76.338091,65.60698   L 74.804662,65.60698   L 74.804662,65.273611   L 74.804662,65.273611   L 74.804662,65.006916   L 76.338091,65.006916   L 76.338091,63.940136   L 74.804662,63.940136   L 74.804662,63.540094   L 74.804662,63.540094   L 74.804662,63.273399   L 76.338091,63.273399   L 76.338091,62.206618   L 74.804662,62.206618   L 74.804662,61.87325   L 74.804662,61.87325   L 74.804662,61.606555   L 76.338091,61.606555   L 76.338091,60.539774   L 74.804662,60.539774   L 74.804662,60.139732   L 74.804662,60.139732   L 74.804662,59.873037   L 76.338091,59.873037   L 76.338091,58.806257   L 74.804662,58.806257   L 74.804662,58.472888   L 74.804662,58.472888   L 74.804662,58.206193   L 76.338091,58.206193   L 76.338091,57.139413   L 74.804662,57.139413   L 74.804662,56.73937   L 74.804662,56.73937   L 74.804662,56.472675   L 76.338091,56.472675   L 76.338091,55.405895   L 74.804662,55.405895   L 74.804662,55.005852   L 74.804662,55.005852   L 74.804662,54.739157   L 76.338091,54.739157   L 76.338091,53.672377   L 74.804662,53.672377   L 74.804662,53.339008   L 74.804662,53.339008   L 74.804662,53.072313   L 76.338091,53.072313   L 76.338091,52.005533   L 74.804662,52.005533   L 74.804662,51.605491   L 74.804662,51.605491   L 74.804662,51.338795   L 76.338091,51.338795   L 76.338091,50.272015   L 74.804662,50.272015   L 74.804662,49.871973   L 74.804662,49.871973   L 74.804662,49.605278   L 76.338091,49.605278   L 76.338091,48.538498   L 74.804662,48.538498   L 74.804662,48.271803   L 74.804662,48.271803   L 74.804662,47.938434   L 76.338091,47.938434   L 76.338091,46.871654   L 74.804662,46.871654   L 74.804662,46.471611   L 74.804662,46.471611   L 74.804662,46.204916   L 76.338091,46.204916   L 76.338091,45.138136   L 74.804662,45.138136   L 74.804662,44.871441   L 74.804662,44.871441   L 74.804662,44.538072   L 76.338091,44.538072   L 76.338091,43.471292   L 74.804662,43.471292   L 74.804662,43.071249   L 74.804662,43.071249   L 74.804662,42.804554   L 76.338091,42.804554   L 76.338091,41.737774   L 74.804662,41.737774   L 74.804662,41.404405   L 74.804662,41.404405   L 74.804662,41.13771   L 76.338091,41.13771   L 76.338091,40.07093   L 74.804662,40.07093   L 74.804662,39.670887   L 74.804662,39.670887   L 74.804662,39.337519   L 76.338091,39.337519   L 76.338091,38.270738   L 74.804662,38.270738   L 74.804662,38.004043   L 74.804662,38.004043   L 74.804662,37.604001   L 76.338091,37.604001   L 76.338091,36.537221   L 74.804662,36.537221   L 74.804662,36.470547   L 74.804662,36.470547   L 74.804662,36.003831   L 76.338091,36.003831   L 76.338091,34.93705   L 74.271296,34.93705   L 74.271296,36.003831   L 74.804662,35.470441   L 74.804662,34.470334   L 73.204562,34.470334   L 73.204562,34.470334   L 72.937879,34.470334   L 72.937879,32.936838   L 71.871146,32.936838   L 71.871146,34.470334   L 71.537792,34.470334   L 71.537792,34.470334   L 71.204438,34.470334   L 71.204438,32.936838   L 70.137705,32.936838   L 70.137705,34.470334   L 69.80435,34.470334   L 69.80435,34.470334   L 69.537667,34.470334   L 69.537667,32.936838   L 68.470934,32.936838   L 68.470934,34.470334   L 68.13758,34.470334   L 68.13758,34.470334   L 67.804226,34.470334   L 67.804226,32.936838   L 66.737493,32.936838   L 66.737493,34.470334   L 66.404139,34.470334   L 66.404139,34.470334   L 66.137455,34.470334   L 66.137455,32.936838   L 65.070722,32.936838   L 65.070722,34.470334   L 64.737368,34.470334   L 64.737368,34.470334   L 64.404014,34.470334   L 64.404014,32.936838   L 63.337281,32.936838   L 63.337281,34.470334   L 63.003927,34.470334   L 63.003927,34.470334   L 62.737243,34.470334   L 62.737243,32.936838   L 61.67051,32.936838   L 61.67051,34.470334   L 61.270485,34.470334   L 61.270485,34.470334   L 60.937131,34.470334   L 60.937131,32.936838   L 59.870398,32.936838   L 59.870398,34.470334   L 59.603715,34.470334   L 59.603715,34.470334   L 59.337031,34.470334   L 59.337031,32.936838   L 58.270298,32.936838   L 58.270298,34.470334   L 57.936944,34.470334   L 57.936944,34.470334   L 57.60359,34.470334   L 57.60359,32.936838   L 56.536857,32.936838   L 56.536857,34.470334   L 56.203503,34.470334   L 56.203503,34.470334   L 55.870149,34.470334   L 55.870149,32.936838   L 54.803416,32.936838   L 54.803416,34.470334   L 54.536732,34.470334   L 54.536732,34.470334   L 54.203378,34.470334   L 54.203378,32.936838   L 53.136645,32.936838   L 53.136645,34.470334   L 52.869962,34.470334   L 52.869962,34.470334   L 52.469937,34.470334   L 52.469937,32.936838   L 51.403204,32.936838   L 51.403204,34.470334   L 51.13652,34.470334   L 51.13652,34.470334   L 50.869837,34.470334   L 50.869837,32.936838   L 49.803104,32.936838   L 49.803104,34.470334   L 49.403079,34.470334   L 49.403079,34.470334   L 49.069725,34.470334   L 49.069725,32.936838   L 48.002992,32.936838   L 48.002992,34.470334   L 47.669638,34.470334   L 47.669638,34.470334   L 47.402954,34.470334   L 47.402954,32.936838   L 46.336221,32.936838   L 46.336221,34.470334   L 45.936196,34.470334   L 45.936196,34.470334   L 45.669513,34.470334   L 45.669513,32.936838   L 44.60278,32.936838   L 44.60278,34.470334   L 44.336097,34.470334   L 44.336097,34.470334   L 43.936072,34.470334   L 43.936072,32.936838   L 42.869338,32.936838   L 42.869338,34.470334   L 42.602655,34.470334   L 42.602655,34.470334   L 42.269301,34.470334   L 42.269301,32.936838   L 41.202568,32.936838   L 41.202568,34.470334   L 40.802543,34.470334   L 40.802543,34.470334   L 40.735872,34.470334   L 40.735872,32.936838   L 39.669139,32.936838   L 39.669139,34.470334   L 38.93576,34.470334   L 38.93576,36.137178   L 38.93576,36.137178   L 38.93576,36.403873   L 37.402331,36.403873   L 37.402331,37.470653   L 38.93576,37.470653   L 38.93576,37.870696   L 38.93576,37.870696   L 38.93576,38.137391   L 37.402331,38.137391   L 37.402331,39.204171   L 38.93576,39.204171   L 38.93576,39.53754   L 38.93576,39.53754   L 38.93576,39.804235   L 37.402331,39.804235   L 37.402331,40.871015   L 38.93576,40.871015   L 38.93576,41.271058   L 38.93576,41.271058   L 38.93576,41.537753   L 37.402331,41.537753   L 37.402331,42.604533   L 38.93576,42.604533   L 38.93576,42.937902   L 38.93576,42.937902   L 38.93576,43.204597   L 37.402331,43.204597   L 37.402331,44.271377   L 38.93576,44.271377   L 38.93576,44.671419   L 38.93576,44.671419   L 38.93576,44.938114   L 37.402331,44.938114   L 37.402331,46.004895   L 38.93576,46.004895   L 38.93576,46.338263   L 38.93576,46.338263   L 38.93576,46.604959   L 37.402331,46.604959   L 37.402331,47.671739   L 38.93576,47.671739   L 38.93576,48.071781   L 38.93576,48.071781   L 38.93576,48.338476   L 37.402331,48.338476   L 37.402331,49.405256   L 38.93576,49.405256   L 38.93576,49.805299   L 38.93576,49.805299   L 38.93576,50.071994   L 37.402331,50.071994   L 37.402331,51.138774   L 38.93576,51.138774   L 38.93576,51.472143   L 38.93576,51.472143   L 38.93576,51.738838   L 37.402331,51.738838   L 37.402331,52.805618   L 38.93576,52.805618   L 38.93576,53.205661   L 38.93576,53.205661   L 38.93576,53.472356   L 37.402331,53.472356   L 37.402331,54.539136   L 38.93576,54.539136   L 38.93576,54.939179   L 38.93576,54.939179   L 38.93576,55.205874   L 37.402331,55.205874   L 37.402331,56.272654   L 38.93576,56.272654   L 38.93576,56.539349   L 38.93576,56.539349   L 38.93576,56.872718   L 37.402331,56.872718   L 37.402331,57.939498   L 38.93576,57.939498   L 38.93576,58.33954   L 38.93576,58.33954   L 38.93576,58.606235   L 37.402331,58.606235   L 37.402331,59.673016   L 38.93576,59.673016   L 38.93576,59.939711   L 38.93576,59.939711   L 38.93576,60.273079   L 37.402331,60.273079   L 37.402331,61.33986   L 38.93576,61.33986   L 38.93576,61.739902   L 38.93576,61.739902   L 38.93576,62.006597   L 37.402331,62.006597   L 37.402331,63.073377   L 38.93576,63.073377   L 38.93576,63.406746   L 38.93576,63.406746   L 38.93576,63.673441   L 37.402331,63.673441   L 37.402331,64.740221   L 38.93576,64.740221   L 38.93576,65.140264   L 38.93576,65.140264   L 38.93576,65.473633   L 37.402331,65.473633   L 37.402331,66.540413   L 38.93576,66.540413   L 38.93576,66.807108   L 38.93576,66.807108   L 38.93576,67.20715   L 37.402331,67.20715   L 37.402331,68.273931   L 38.93576,68.273931   L 38.93576,68.340604   L 38.93576,68.340604   L 38.93576,68.873994   L 37.402331,68.873994   L 37.402331,69.940775   L 39.469127,69.940775   L 39.469127,68.873994   L 38.93576,69.407385   L 38.93576,69.807427   L 40.002493,69.807427   L 40.002493,68.873994   L 37.402331,68.873994   L 37.402331,69.940775   L 40.002493,69.940775   L 40.002493,68.340604   L 40.002493,68.340604   L 40.002493,67.20715   L 37.402331,67.20715   L 37.402331,68.273931   L 40.002493,68.273931   L 40.002493,66.807108   L 40.002493,66.807108   L 40.002493,65.473633   L 37.402331,65.473633   L 37.402331,66.540413   L 40.002493,66.540413   L 40.002493,65.140264   L 40.002493,65.140264   L 40.002493,63.673441   L 37.402331,63.673441   L 37.402331,64.740221   L 40.002493,64.740221   L 40.002493,63.406746   L 40.002493,63.406746   L 40.002493,62.006597   L 37.402331,62.006597   L 37.402331,63.073377   L 40.002493,63.073377   L 40.002493,61.739902   L 40.002493,61.739902   L 40.002493,60.273079   L 37.402331,60.273079   L 37.402331,61.33986   L 40.002493,61.33986   L 40.002493,59.939711   L 40.002493,59.939711   L 40.002493,58.606235   L 37.402331,58.606235   L 37.402331,59.673016   L 40.002493,59.673016   L 40.002493,58.33954   L 40.002493,58.33954   L 40.002493,56.872718   L 37.402331,56.872718   L 37.402331,57.939498   L 40.002493,57.939498   L 40.002493,56.539349   L 40.002493,56.539349   L 40.002493,55.205874   L 37.402331,55.205874   L 37.402331,56.272654   L 40.002493,56.272654   L 40.002493,54.939179   L 40.002493,54.939179   L 40.002493,53.472356   L 37.402331,53.472356   L 37.402331,54.539136   L 40.002493,54.539136   L 40.002493,53.205661   L 40.002493,53.205661   L 40.002493,51.738838   L 37.402331,51.738838   L 37.402331,52.805618   L 40.002493,52.805618   L 40.002493,51.472143   L 40.002493,51.472143   L 40.002493,50.071994   L 37.402331,50.071994   L 37.402331,51.138774   L 40.002493,51.138774   L 40.002493,49.805299   L 40.002493,49.805299   L 40.002493,48.338476   L 37.402331,48.338476   L 37.402331,49.405256   L 40.002493,49.405256   L 40.002493,48.071781   L 40.002493,48.071781   L 40.002493,46.604959   L 37.402331,46.604959   L 37.402331,47.671739   L 40.002493,47.671739   L 40.002493,46.338263   L 40.002493,46.338263   L 40.002493,44.938114   L 37.402331,44.938114   L 37.402331,46.004895   L 40.002493,46.004895   L 40.002493,44.671419   L 40.002493,44.671419   L 40.002493,43.204597   L 37.402331,43.204597   L 37.402331,44.271377   L 40.002493,44.271377   L 40.002493,42.937902   L 40.002493,42.937902   L 40.002493,41.537753   L 37.402331,41.537753   L 37.402331,42.604533   L 40.002493,42.604533   L 40.002493,41.271058   L 40.002493,41.271058   L 40.002493,39.804235   L 37.402331,39.804235   L 37.402331,40.871015   L 40.002493,40.871015   L 40.002493,39.53754   L 40.002493,39.53754   L 40.002493,38.137391   L 37.402331,38.137391   L 37.402331,39.204171   L 40.002493,39.204171   L 40.002493,37.870696   L 40.002493,37.870696   L 40.002493,36.403873   L 37.402331,36.403873   L 37.402331,37.470653   L 40.002493,37.470653   L 40.002493,35.537114   L 40.002493,35.537114   L 40.735872,35.537114   L 40.735872,32.936838   L 39.669139,32.936838   L 39.669139,35.537114   L 40.802543,35.537114   L 40.802543,35.537114   L 42.269301,35.537114   L 42.269301,32.936838   L 41.202568,32.936838   L 41.202568,35.537114   L 42.602655,35.537114   L 42.602655,35.537114   L 43.936072,35.537114   L 43.936072,32.936838   L 42.869338,32.936838   L 42.869338,35.537114   L 44.336097,35.537114   L 44.336097,35.537114   L 45.669513,35.537114   L 45.669513,32.936838   L 44.60278,32.936838   L 44.60278,35.537114   L 45.936196,35.537114   L 45.936196,35.537114   L 47.402954,35.537114   L 47.402954,32.936838   L 46.336221,32.936838   L 46.336221,35.537114   L 47.669638,35.537114   L 47.669638,35.537114   L 49.069725,35.537114   L 49.069725,32.936838   L 48.002992,32.936838   L 48.002992,35.537114   L 49.403079,35.537114   L 49.403079,35.537114   L 50.869837,35.537114   L 50.869837,32.936838   L 49.803104,32.936838   L 49.803104,35.537114   L 51.13652,35.537114   L 51.13652,35.537114   L 52.469937,35.537114   L 52.469937,32.936838   L 51.403204,32.936838   L 51.403204,35.537114   L 52.869962,35.537114   L 52.869962,35.537114   L 54.203378,35.537114   L 54.203378,32.936838   L 53.136645,32.936838   L 53.136645,35.537114   L 54.536732,35.537114   L 54.536732,35.537114   L 55.870149,35.537114   L 55.870149,32.936838   L 54.803416,32.936838   L 54.803416,35.537114   L 56.203503,35.537114   L 56.203503,35.537114   L 57.60359,35.537114   L 57.60359,32.936838   L 56.536857,32.936838   L 56.536857,35.537114   L 57.936944,35.537114   L 57.936944,35.537114   L 59.337031,35.537114   L 59.337031,32.936838   L 58.270298,32.936838   L 58.270298,35.537114   L 59.603715,35.537114   L 59.603715,35.537114   L 60.937131,35.537114   L 60.937131,32.936838   L 59.870398,32.936838   L 59.870398,35.537114   L 61.270485,35.537114   L 61.270485,35.537114   L 62.737243,35.537114   L 62.737243,32.936838   L 61.67051,32.936838   L 61.67051,35.537114   L 63.003927,35.537114   L 63.003927,35.537114   L 64.404014,35.537114   L 64.404014,32.936838   L 63.337281,32.936838   L 63.337281,35.537114   L 64.737368,35.537114   L 64.737368,35.537114   L 66.137455,35.537114   L 66.137455,32.936838   L 65.070722,32.936838   L 65.070722,35.537114   L 66.404139,35.537114   L 66.404139,35.537114   L 67.804226,35.537114   L 67.804226,32.936838   L 66.737493,32.936838   L 66.737493,35.537114   L 68.13758,35.537114   L 68.13758,35.537114   L 69.537667,35.537114   L 69.537667,32.936838   L 68.470934,32.936838   L 68.470934,35.537114   L 69.80435,35.537114   L 69.80435,35.537114   L 71.204438,35.537114   L 71.204438,32.936838   L 70.137705,32.936838   L 70.137705,35.537114   L 71.537792,35.537114   L 71.537792,35.537114   L 72.937879,35.537114   L 72.937879,32.936838   L 71.871146,32.936838   L 71.871146,35.537114   L 73.204562,35.537114   L 73.204562,34.470334   L 73.204562,35.537114   L 74.271296,35.537114   L 74.271296,34.470334   L 73.737929,35.003724   L 73.737929,36.003831   L 76.338091,36.003831   L 76.338091,34.93705   L 73.737929,34.93705   L 73.737929,36.470547   L 73.737929,36.470547   L 73.737929,37.604001   L 76.338091,37.604001   L 76.338091,36.537221   L 73.737929,36.537221   L 73.737929,38.004043   L 73.737929,38.004043   L 73.737929,39.337519   L 76.338091,39.337519   L 76.338091,38.270738   L 73.737929,38.270738   L 73.737929,39.670887   L 73.737929,39.670887   L 73.737929,41.13771   L 76.338091,41.13771   L 76.338091,40.07093   L 73.737929,40.07093   L 73.737929,41.404405   L 73.737929,41.404405   L 73.737929,42.804554   L 76.338091,42.804554   L 76.338091,41.737774   L 73.737929,41.737774   L 73.737929,43.071249   L 73.737929,43.071249   L 73.737929,44.538072   L 76.338091,44.538072   L 76.338091,43.471292   L 73.737929,43.471292   L 73.737929,44.871441   L 73.737929,44.871441   L 73.737929,46.204916   L 76.338091,46.204916   L 76.338091,45.138136   L 73.737929,45.138136   L 73.737929,46.471611   L 73.737929,46.471611   L 73.737929,47.938434   L 76.338091,47.938434   L 76.338091,46.871654   L 73.737929,46.871654   L 73.737929,48.271803   L 73.737929,48.271803   L 73.737929,49.605278   L 76.338091,49.605278   L 76.338091,48.538498   L 73.737929,48.538498   L 73.737929,49.871973   L 73.737929,49.871973   L 73.737929,51.338795   L 76.338091,51.338795   L 76.338091,50.272015   L 73.737929,50.272015   L 73.737929,51.605491   L 73.737929,51.605491   L 73.737929,53.072313   L 76.338091,53.072313   L 76.338091,52.005533   L 73.737929,52.005533   L 73.737929,53.339008   L 73.737929,53.339008   L 73.737929,54.739157   L 76.338091,54.739157   L 76.338091,53.672377   L 73.737929,53.672377   L 73.737929,55.005852   L 73.737929,55.005852   L 73.737929,56.472675   L 76.338091,56.472675   L 76.338091,55.405895   L 73.737929,55.405895   L 73.737929,56.73937   L 73.737929,56.73937   L 73.737929,58.206193   L 76.338091,58.206193   L 76.338091,57.139413   L 73.737929,57.139413   L 73.737929,58.472888   L 73.737929,58.472888   L 73.737929,59.873037   L 76.338091,59.873037   L 76.338091,58.806257   L 73.737929,58.806257   L 73.737929,60.139732   L 73.737929,60.139732   L 73.737929,61.606555   L 76.338091,61.606555   L 76.338091,60.539774   L 73.737929,60.539774   L 73.737929,61.87325   L 73.737929,61.87325   L 73.737929,63.273399   L 76.338091,63.273399   L 76.338091,62.206618   L 73.737929,62.206618   L 73.737929,63.540094   L 73.737929,63.540094   L 73.737929,65.006916   L 76.338091,65.006916   L 76.338091,63.940136   L 73.737929,63.940136   L 73.737929,65.273611   L 73.737929,65.273611   L 73.737929,66.67376   L 76.338091,66.67376   L 76.338091,65.60698   L 73.737929,65.60698   L 73.737929,66.940455   L 73.737929,66.940455   L 73.737929,68.407278   L 76.338091,68.407278   L 76.338091,67.340498   L 73.737929,67.340498   L 73.737929,69.274037   L 73.737929,69.274037   L 73.137892,69.274037   L 73.137892,71.874314   L 74.204625,71.874314   L 74.204625,69.274037   L 73.071221,69.274037   L 73.071221,69.274037   L 71.471121,69.274037   L 71.471121,71.874314   L 72.537854,71.874314   L 72.537854,69.274037   L 71.137767,69.274037   L 71.137767,69.274037   L 69.80435,69.274037   L 69.80435,71.874314   L 70.871084,71.874314   L 70.871084,69.274037   L 69.404326,69.274037   L 69.404326,69.274037   L 68.070909,69.274037   L 68.070909,71.874314   L 69.137642,71.874314   L 69.137642,69.274037   L 67.804226,69.274037   L 67.804226,69.274037   L 66.337468,69.274037   L 66.337468,71.874314   L 67.404201,71.874314   L 67.404201,69.274037   L 66.070784,69.274037   L 66.070784,69.274037   L 64.670697,69.274037   L 64.670697,71.874314   L 65.73743,71.874314   L 65.73743,69.274037   L 64.337343,69.274037   L 64.337343,69.274037   L 62.870585,69.274037   L 62.870585,71.874314   L 63.937318,71.874314   L 63.937318,69.274037   L 62.603902,69.274037   L 62.603902,69.274037   L 61.270485,69.274037   L 61.270485,71.874314   L 62.337218,71.874314   L 62.337218,69.274037   L 60.87046,69.274037   L 60.87046,69.274037   L 59.537044,69.274037   L 59.537044,71.874314   L 60.603777,71.874314   L 60.603777,69.274037   L 59.20369,69.274037   L 59.20369,69.274037   L 57.870273,69.274037   L 57.870273,71.874314   L 58.937006,71.874314   L 58.937006,69.274037   L 57.536919,69.274037   L 57.536919,69.274037   L 56.136832,69.274037   L 56.136832,71.874314   L 57.203565,71.874314   L 57.203565,69.274037   L 55.803478,69.274037   L 55.803478,69.274037   L 54.403391,69.274037   L 54.403391,71.874314   L 55.470124,71.874314   L 55.470124,69.274037   L 54.136707,69.274037   L 54.136707,69.274037   L 52.803291,69.274037   L 52.803291,71.874314   L 53.870024,71.874314   L 53.870024,69.274037   L 52.469937,69.274037   L 52.469937,69.274037   L 51.003179,69.274037   L 51.003179,71.874314   L 52.069912,71.874314   L 52.069912,69.274037   L 50.736495,69.274037   L 50.736495,69.274037   L 49.336408,69.274037   L 49.336408,71.874314   L 50.403141,71.874314   L 50.403141,69.274037   L 49.003054,69.274037   L 49.003054,69.274037   L 47.602967,69.274037   L 47.602967,71.874314   L 48.6697,71.874314   L 48.6697,69.274037   L 47.336283,69.274037   L 47.336283,69.274037   L 45.936196,69.274037   L 45.936196,71.874314   L 47.002929,71.874314   L 47.002929,69.274037   L 45.602842,69.274037   L 45.602842,69.274037   L 44.202755,69.274037   L 44.202755,71.874314   L 45.269488,71.874314   L 45.269488,69.274037   L 43.936072,69.274037   L 43.936072,69.274037   L 42.535984,69.274037   L 42.535984,71.874314   L 43.602717,71.874314   L 43.602717,69.274037   L 42.20263,69.274037   L 42.20263,69.274037   L 40.802543,69.274037   L 40.802543,71.874314   L 41.869276,71.874314   L 41.869276,69.274037   L 40.53586,69.274037   L 40.53586,70.340817   L 40.53586,69.274037   L 39.469127,69.274037   L 39.469127,70.340817   L 40.002493,69.807427   L 40.002493,68.873994   L 37.402331,68.873994  z " clip-path="url(#clipWmfPath1)" style="fill:#000000;fill-rule:nonzero;fill-opacity:1;stroke:#000000;stroke-width:0.06667082px;stroke-linecap:round;stroke-linejoin:round;stroke-miterlimit:4;stroke-dasharray:none;stroke-opacity:1;"/>
  <path id="path192" d="  M 8.9338901,65.340285   L 13.534177,65.340285   L 13.534177,59.339647   L 32.46869,59.339647   L 32.46869,42.537859   L 13.400835,42.537859   L 13.400835,37.270632   L 8.9338901,37.270632   L 8.9338901,42.671207   L 4.4002742,42.671207   L 4.4002742,59.472994   L 8.9338901,59.472994   L 8.9338901,65.340285  z " clip-path="url(#clipWmfPath1)" style="fill:#666666;fill-rule:nonzero;fill-opacity:1;stroke:none;"/>
  <path id="path194" d="  M 8.9338901,65.340285   L 13.534177,65.340285   L 13.534177,59.339647   L 32.46869,59.339647   L 32.46869,42.537859   L 13.400835,42.537859   L 13.400835,37.270632   L 8.9338901,37.270632   L 8.9338901,42.671207   L 4.4002742,42.671207   L 4.4002742,59.472994   L 8.9338901,59.472994   L 8.9338901,65.340285  z " clip-path="url(#clipWmfPath1)" style="fill:none;stroke:#000000;stroke-width:0.06667082px;stroke-linecap:round;stroke-linejoin:round;stroke-miterlimit:4;stroke-dasharray:none;stroke-opacity:1;"/>
  <path id="path196" d="  M 28.335099,44.671419   L 29.335162,44.804767   L 30.135211,45.271483   L 30.735249,45.938221   L 30.935261,46.671632   L 30.935261,56.139306   L 30.735249,56.872718   L 30.135211,57.472781   L 29.335162,57.80615   L 28.335099,57.939498   L 8.600536,57.939498   L 7.6004737,57.80615   L 6.8004238,57.406108   L 6.2003864,56.806044   L 6.000374,56.072632   L 6.000374,46.671632   L 6.2003864,45.938221   L 6.8004238,45.271483   L 7.6004737,44.804767   L 8.600536,44.671419   L 28.335099,44.671419  z " clip-path="url(#clipWmfPath1)" style="fill:#ffffff;fill-rule:nonzero;fill-opacity:1;stroke:none;"/>
  <path id="path198" d="  M 8.600536,44.138029   L 8.600536,45.20481   L 28.268428,45.20481   L 29.135149,45.271483   L 29.801857,45.671526   L 30.268553,46.204916   L 30.401895,46.738306   L 30.401895,56.072632   L 30.268553,56.606023   L 29.868528,57.072739   L 29.20182,57.339434   L 28.268428,57.406108   L 8.6672068,57.406108   L 7.7338153,57.339434   L 7.1337779,57.006065   L 6.6670822,56.539349   L 6.5337405,56.005959   L 6.5337405,46.738306   L 6.6670822,46.204916   L 7.1337779,45.671526   L 7.8004862,45.271483   L 8.6672068,45.20481   L 28.268428,45.20481   L 29.268491,45.338157   L 29.401832,44.271377   L 28.40177,44.138029   L 8.5338652,44.138029   L 7.4004612,44.338051   L 6.4670697,44.871441   L 5.7336907,45.671526   L 5.4670074,46.604959   L 5.4670074,56.139306   L 5.7336907,57.072739   L 6.4670697,57.80615   L 7.467132,58.272867   L 8.5338652,58.472888   L 28.40177,58.472888   L 29.468503,58.272867   L 30.401895,57.872824   L 31.201945,57.139413   L 31.468628,56.20598   L 31.468628,46.604959   L 31.201945,45.671526   L 30.468566,44.871441   L 29.535174,44.338051   L 28.40177,44.138029   L 8.600536,44.138029  z " clip-path="url(#clipWmfPath1)" style="fill:#000000;fill-rule:nonzero;fill-opacity:1;stroke:#000000;stroke-width:0.06667082px;stroke-linecap:round;stroke-linejoin:round;stroke-miterlimit:4;stroke-dasharray:none;stroke-opacity:1;"/>
  <g id="g200" clip-path="url(#clipWmfPath1)"/>
  <g id="g212" clip-path="url(#clipWmfPath1)">
    <text id="text210" y="8.930687" x="0.000000" transform="matrix(1.000000,-0.000000,0.000000,1.000000,9.733940,46.071568)" style="font-size:9.312500px;font-style:normal;font-variant:normal;font-weight:400;font-stretch:Condensed;line-height:125.000000%;letter-spacing:0px;word-spacing:0px;fill:#000000;fill-opacity:1;stroke:none;font-family:Helvetica-Narrow;text-align:start;text-anchor:start;" xml:space="preserve"><tspan id="tspan208" y="8.930687" x="0.000000"><tspan id="tspan202" style="fill:#000000;font-size:9.312500px;font-style:normal;font-variant:normal;font-weight:400;font-stretch:Condensed;font-family:Helvetica-Narrow;" dy="0.000000" dx="0.000000">C</tspan><tspan id="tspan204" style="fill:#000000;font-size:9.312500px;font-style:normal;font-variant:normal;font-weight:400;font-stretch:Condensed;font-family:Helvetica-Narrow;" dy="0.000000" dx="0.117339">N</tspan><tspan id="tspan206" style="fill:#000000;font-size:9.312500px;font-style:normal;font-variant:normal;font-weight:400;font-stretch:Condensed;font-family:Helvetica-Narrow;" dy="0.000000" dx="0.117339">2</tspan></tspan></text>
  </g>
  <g id="g214" clip-path="url(#clipWmfPath1)"/>
  <g id="g246" clip-path="url(#clipWmfPath1)">
    <text id="text230" y="10.249313" x="0.000000" transform="matrix(1.000000,-0.000000,0.000000,1.000000,87.205435,96.876974)" style="font-size:10.687500px;font-style:normal;font-variant:normal;font-weight:400;font-stretch:Condensed;line-height:125.000000%;letter-spacing:0px;word-spacing:0px;fill:#000000;fill-opacity:1;stroke:none;font-family:Helvetica-Narrow;text-align:start;text-anchor:start;" xml:space="preserve"><tspan id="tspan228" y="10.249313" x="0.000000"><tspan id="tspan216" style="fill:#000000;font-size:10.687500px;font-style:normal;font-variant:normal;font-weight:400;font-stretch:Condensed;font-family:Helvetica-Narrow;" dy="0.000000" dx="0.000000">E</tspan><tspan id="tspan218" style="fill:#000000;font-size:10.687500px;font-style:normal;font-variant:normal;font-weight:400;font-stretch:Condensed;font-family:Helvetica-Narrow;" dy="0.000000" dx="-0.102116">V</tspan><tspan id="tspan220" style="fill:#000000;font-size:10.687500px;font-style:normal;font-variant:normal;font-weight:400;font-stretch:Condensed;font-family:Helvetica-Narrow;" dy="0.000000" dx="0.754349">-</tspan><tspan id="tspan222" style="fill:#000000;font-size:10.687500px;font-style:normal;font-variant:normal;font-weight:400;font-stretch:Condensed;font-family:Helvetica-Narrow;" dy="0.000000" dx="-0.040587">9</tspan><tspan id="tspan224" style="fill:#000000;font-size:10.687500px;font-style:normal;font-variant:normal;font-weight:400;font-stretch:Condensed;font-family:Helvetica-Narrow;" dy="0.000000" dx="-0.062945">0</tspan><tspan id="tspan226" style="fill:#000000;font-size:10.687500px;font-style:normal;font-variant:normal;font-weight:400;font-stretch:Condensed;font-family:Helvetica-Narrow;" dy="0.000000" dx="-0.062945">0</tspan></tspan></text>
    <text id="text244" y="10.249313" x="40.335847" transform="matrix(1.000000,-0.000000,0.000000,1.000000,87.205435,96.876974)" style="font-size:10.687500px;font-style:normal;font-variant:normal;font-weight:400;font-stretch:Condensed;line-height:125.000000%;letter-spacing:0px;word-spacing:0px;fill:#000000;fill-opacity:1;stroke:none;font-family:Helvetica-Narrow;text-align:start;text-anchor:start;" xml:space="preserve"><tspan id="tspan242" y="10.249313" x="40.335847"><tspan id="tspan232" style="fill:#000000;font-size:10.687500px;font-style:normal;font-variant:normal;font-weight:400;font-stretch:Condensed;font-family:Helvetica-Narrow;" dy="0.000000" dx="0.000000">M</tspan><tspan id="tspan234" style="fill:#000000;font-size:10.687500px;font-style:normal;font-variant:normal;font-weight:400;font-stretch:Condensed;font-family:Helvetica-Narrow;" dy="0.000000" dx="0.044483">o</tspan><tspan id="tspan236" style="fill:#000000;font-size:10.687500px;font-style:normal;font-variant:normal;font-weight:400;font-stretch:Condensed;font-family:Helvetica-Narrow;" dy="0.000000" dx="-0.062945">d</tspan><tspan id="tspan238" style="fill:#000000;font-size:10.687500px;font-style:normal;font-variant:normal;font-weight:400;font-stretch:Condensed;font-family:Helvetica-Narrow;" dy="0.000000" dx="-0.062945">e</tspan><tspan id="tspan240" style="fill:#000000;font-size:10.687500px;font-style:normal;font-variant:normal;font-weight:400;font-stretch:Condensed;font-family:Helvetica-Narrow;" dy="0.000000" dx="-0.062945">m</tspan></tspan></text>
  </g>
</svg>