<svg xmlns:dc="http://purl.org/dc/elements/1.1/" xmlns:cc="http://creativecommons.org/ns#" xmlns:rdf="http://www.w3.org/1999/02/22-rdf-syntax-ns#" xmlns:svg="http://www.w3.org/2000/svg" xmlns="http://www.w3.org/2000/svg" id="svg158" height="35.799999mm" width="55.059999mm" version="1.0">
  <metadata id="metadata162">
    <rdf:RDF>
      <cc:Work rdf:about="">
        <dc:format>image/svg+xml</dc:format>
        <dc:type rdf:resource="http://purl.org/dc/dcmitype/StillImage"/>
      </cc:Work>
    </rdf:RDF>
  </metadata>
  <defs id="defs6">
    <clipPath id="clipWmfPath1" clipPathUnits="userSpaceOnUse">
      <path id="path2" d="M 0,0 L 207.99633,0 L 207.99633,135.20262 L 0,135.20262 z"/>
    </clipPath>
    <pattern y="0" x="0" height="6" width="6" patternUnits="userSpaceOnUse" id="WMFhbasepattern"/>
  </defs>
  <path id="path8" d="  M 3.3332745,3.9334097   L 204.66305,3.9334097   L 204.66305,79.801548   L 161.39715,79.801548   L 161.39715,115.93558   L 3.3332745,115.93558   L 3.3332745,3.9334097  z " clip-path="url(#clipWmfPath1)" style="fill:#d4ebe8;fill-rule:nonzero;fill-opacity:1;stroke:none;"/>
  <path id="path10" d="  M 3.3332745,3.9334097   L 204.66305,3.9334097   L 204.66305,79.801548   L 161.39715,79.801548   L 161.39715,115.93558   L 3.3332745,115.93558   L 3.3332745,3.9334097  z " clip-path="url(#clipWmfPath1)" style="fill:none;stroke:#000000;stroke-width:0.066665493px;stroke-linecap:round;stroke-linejoin:round;stroke-miterlimit:4;stroke-dasharray:none;stroke-opacity:1;"/>
  <path id="path42" d="  M 65.998834,23.667126   L 65.998834,68.267991   L 62.732225,71.534721   L 18.466341,71.534721   L 18.466341,23.667126   L 65.998834,23.667126  z " clip-path="url(#clipWmfPath1)" style="fill:none;stroke:#000000;stroke-width:0.066665493px;stroke-linecap:round;stroke-linejoin:round;stroke-miterlimit:4;stroke-dasharray:none;stroke-opacity:1;"/>
  <path id="path44" d="  M 60.732261,30.467258   L 60.732261,29.40057   L 59.532282,29.40057   L 59.532282,25.600497   L 58.732296,25.600497   L 58.665631,29.40057   L 57.798979,29.40057   L 57.798979,25.600497   L 56.998993,25.600497   L 56.998993,29.40057   L 55.999011,29.40057   L 55.999011,25.600497   L 55.13236,25.600497   L 55.13236,29.40057   L 54.265708,29.40057   L 54.265708,25.600497   L 53.399057,25.600497   L 53.399057,29.40057   L 52.532406,29.40057   L 52.532406,25.600497   L 51.73242,25.600497   L 51.73242,29.40057   L 50.732437,29.40057   L 50.732437,25.600497   L 49.799121,25.600497   L 49.799121,29.40057   L 48.865804,29.40057   L 48.865804,25.600497   L 47.999152,25.600497   L 47.999152,29.40057   L 47.199166,29.40057   L 47.199166,25.600497   L 46.26585,25.600497   L 46.26585,29.40057   L 45.465864,29.40057   L 45.465864,25.533829   L 44.599212,25.600497   L 44.599212,29.40057   L 43.59923,29.40057   L 43.59923,25.600497   L 42.732579,25.600497   L 42.732579,29.40057   L 41.732596,29.40057   L 41.732596,25.600497   L 40.799279,25.600497   L 40.799279,29.40057   L 39.999294,29.40057   L 39.999294,25.600497   L 39.199308,25.600497   L 39.199308,29.40057   L 38.13266,29.40057   L 38.13266,25.600497   L 37.266009,25.600497   L 37.266009,29.40057   L 36.399357,29.40057   L 36.399357,25.600497   L 35.532706,25.600497   L 35.532706,29.40057   L 34.666054,29.40057   L 34.666054,25.600497   L 33.732738,25.600497   L 33.732738,29.40057   L 32.799421,29.40057   L 32.799421,25.800501   L 31.866104,25.600497   L 31.866104,29.40057   L 30.999453,29.40057   L 30.999453,25.600497   L 30.132801,25.600497   L 30.132801,29.40057   L 29.26615,29.40057   L 29.26615,25.733833   L 28.399498,25.600497   L 28.399498,29.40057   L 27.466182,29.40057   L 27.466182,25.600497   L 26.59953,25.600497   L 26.59953,29.40057   L 25.732879,29.40057   L 25.732879,25.600497   L 24.866228,25.600497   L 24.866228,29.40057   L 23.79958,29.40057   L 23.79958,30.200586   L 19.999647,30.200586   L 19.999647,31.067269   L 23.79958,30.933934   L 23.79958,31.867285   L 19.999647,31.867285   L 19.999647,32.800636   L 23.79958,32.800636   L 23.79958,33.733988   L 19.999647,33.733988   L 19.999647,34.600671   L 23.79958,34.600671   L 23.79958,35.467355   L 19.999647,35.467355   L 19.999647,36.334038   L 23.79958,36.334038   L 23.79958,37.200722   L 19.999647,37.200722   L 19.999647,38.067405   L 23.79958,38.067405   L 23.79958,39.067425   L 19.999647,39.134093   L 19.999647,39.934108   L 23.79958,39.934108   L 23.79958,40.86746   L 19.999647,40.86746   L 19.999647,41.734143   L 23.79958,41.734143   L 23.79958,42.600827   L 19.999647,42.600827   L 19.999647,43.46751   L 23.79958,43.46751   L 23.79958,44.467529   L 19.999647,44.467529   L 19.999647,45.334213   L 23.79958,45.334213   L 23.79958,46.134228   L 19.999647,46.134228   L 19.999647,47.000912   L 23.79958,47.000912   L 23.79958,48.067599   L 19.999647,48.067599   L 19.999647,48.867615   L 23.79958,48.867615   L 23.79958,49.934302   L 19.999647,49.934302   L 19.999647,50.734318   L 23.79958,50.734318   L 23.79958,51.601001   L 19.999647,51.601001   L 19.79965,52.467685   L 23.79958,52.467685   L 23.79958,53.334368   L 19.999647,53.334368   L 19.999647,54.201052   L 23.79958,54.201052   L 23.79958,55.201071   L 19.999647,55.201071   L 19.999647,56.001087   L 23.79958,56.001087   L 23.79958,57.134442   L 19.999647,57.001106   L 19.999647,57.867789   L 23.79958,57.867789   L 23.79958,58.734473   L 19.999647,58.734473   L 19.999647,59.601156   L 23.79958,59.601156   L 23.79958,60.46784   L 19.999647,60.46784   L 19.999647,61.267855   L 23.79958,61.267855   L 23.79958,62.267875   L 19.999647,62.267875   L 19.999647,63.134558   L 23.79958,63.134558   L 23.79958,63.934574   L 19.999647,63.934574   L 19.999647,64.801257   L 23.79958,64.801257   L 23.79958,66.134617   L 24.932893,66.134617   L 24.932893,69.93469   L 25.732879,69.93469   L 25.732879,66.134617   L 26.59953,66.134617   L 26.59953,69.93469   L 27.466182,69.93469   L 27.466182,66.134617   L 28.399498,66.134617   L 28.399498,69.93469   L 29.26615,69.93469   L 29.26615,66.134617   L 30.132801,66.134617   L 30.132801,69.93469   L 30.999453,69.93469   L 30.999453,66.134617   L 31.866104,66.134617   L 31.866104,69.93469   L 32.799421,69.93469   L 32.799421,66.134617   L 33.732738,66.134617   L 33.732738,69.93469   L 34.599389,69.93469   L 34.599389,66.134617   L 35.532706,66.134617   L 35.532706,69.93469   L 36.399357,69.93469   L 36.399357,66.134617   L 37.266009,66.134617   L 37.266009,69.93469   L 38.13266,69.93469   L 38.13266,66.134617   L 38.932646,66.134617   L 38.799315,69.93469   L 39.799297,69.93469   L 39.799297,66.134617   L 40.799279,66.134617   L 40.799279,69.93469   L 41.732596,69.93469   L 41.732596,66.134617   L 42.732579,66.134617   L 42.732579,69.93469   L 43.59923,69.93469   L 43.665895,66.134617   L 44.399216,66.134617   L 44.399216,69.93469   L 45.265867,69.93469   L 45.265867,66.134617   L 46.26585,66.134617   L 46.26585,69.93469   L 47.199166,69.93469   L 47.199166,66.134617   L 47.999152,66.201285   L 47.999152,69.93469   L 48.865804,69.93469   L 48.865804,66.134617   L 49.799121,66.134617   L 49.799121,69.93469   L 50.665772,69.93469   L 50.665772,66.134617   L 51.73242,66.134617   L 51.73242,69.93469   L 52.532406,69.93469   L 52.532406,66.134617   L 53.399057,66.134617   L 53.399057,69.93469   L 54.265708,69.93469   L 54.265708,66.134617   L 55.13236,66.134617   L 55.13236,69.93469   L 55.999011,69.93469   L 55.999011,66.134617   L 56.998993,66.201285   L 56.998993,69.93469   L 57.798979,69.93469   L 57.798979,66.134617   L 58.732296,66.134617   L 58.732296,69.93469   L 59.598947,69.93469   L 59.598947,66.134617   L 60.732261,66.134617   L 60.732261,65.067929   L 64.532194,65.067929   L 64.532194,64.201246   L 60.732261,64.201246   L 60.732261,63.40123   L 64.532194,63.40123   L 64.532194,62.534547   L 60.732261,62.534547   L 60.732261,61.601195   L 64.532194,61.601195   L 64.532194,60.734512   L 60.732261,60.734512   L 60.732261,59.80116   L 64.532194,59.80116   L 64.532194,59.001145   L 60.732261,59.001145   L 60.732261,58.134461   L 64.532194,58.134461   L 64.532194,57.20111   L 60.732261,57.20111   L 60.732261,56.267758   L 64.532194,56.267758   L 64.532194,55.401075   L 60.732261,55.401075   L 60.732261,54.467724   L 64.532194,54.467724   L 64.532194,53.60104   L 60.732261,53.60104   L 60.732261,52.734357   L 64.532194,52.601021   L 64.532194,51.867673   L 60.732261,51.867673   L 60.732261,51.067658   L 64.532194,51.067658   L 64.532194,50.200974   L 60.732261,50.200974   L 60.732261,49.200955   L 64.532194,49.200955   L 64.532194,48.267603   L 60.732261,48.267603   L 60.732261,47.267584   L 64.532194,47.267584   L 64.532194,46.4009   L 60.732261,46.4009   L 60.732261,45.600885   L 64.532194,45.600885   L 64.532194,44.800869   L 60.732261,44.800869   L 60.732261,43.734182   L 64.532194,43.734182   L 64.532194,42.867498   L 60.732261,42.867498   L 60.732261,42.000815   L 64.532194,42.000815   L 64.532194,41.134131   L 60.732261,41.134131   L 60.732261,40.267448   L 64.532194,40.267448   L 64.532194,39.467432   L 60.732261,39.334097   L 60.732261,38.334077   L 64.532194,38.334077   L 64.532194,37.467394   L 60.732261,37.467394   L 60.732261,36.60071   L 64.532194,36.60071   L 64.532194,35.734027   L 60.732261,35.734027   L 60.732261,34.867343   L 64.532194,34.867343   L 64.532194,34.00066   L 60.732261,34.00066   L 60.732261,33.067308   L 64.532194,33.067308   L 64.532194,32.200625   L 60.732261,32.200625   L 60.732261,31.333941   L 64.532194,31.333941   L 64.532194,30.467258   L 60.732261,30.467258  z " clip-path="url(#clipWmfPath1)" style="fill:none;stroke:#ffffff;stroke-width:0.066665493px;stroke-linecap:round;stroke-linejoin:round;stroke-miterlimit:4;stroke-dasharray:none;stroke-opacity:1;"/>
  <path id="path46" d="  M 62.798891,66.66796   L 63.865539,67.067968   L 64.132201,67.534644   L 64.265532,68.067987   L 63.865539,69.068007   L 63.39888,69.334679   L 62.798891,69.468015   L 62.265567,69.334679   L 61.798909,69.068007   L 61.33225,68.067987   L 61.798909,67.067968   L 62.265567,66.801296   L 62.798891,66.66796  z " clip-path="url(#clipWmfPath1)" style="fill:none;stroke:#ffffff;stroke-width:0.066665493px;stroke-linecap:round;stroke-linejoin:round;stroke-miterlimit:4;stroke-dasharray:none;stroke-opacity:1;"/>
  <path id="path48" d="  M 60.198937,29.867246   L 60.198937,62.867887   L 57.19899,65.801277   L 24.266238,65.801277   L 24.266238,29.867246   L 60.198937,29.867246  z " clip-path="url(#clipWmfPath1)" style="fill:none;stroke:#000000;stroke-width:0.066665493px;stroke-linecap:round;stroke-linejoin:round;stroke-miterlimit:4;stroke-dasharray:none;stroke-opacity:1;"/>
  <path id="path50" d="  M 186.93003,24.267138   L 187.73002,22.667106   L 188.79667,21.133743   L 189.72998,20.467064   L 190.6633,20.133724   L 191.46329,20.200392   L 192.06327,20.6004   L 192.46327,21.200411   L 192.5966,21.933759   L 192.32994,22.800442   L 191.66328,23.733794   L 190.26331,25.067153   L 188.79667,25.933837   L 188.79667,27.200528   L 192.46327,27.200528   L 188.79667,27.200528   L 188.79667,28.400551   L 192.46327,28.400551   L 188.79667,28.400551   L 188.79667,29.800578   L 192.46327,29.800578   L 188.79667,29.800578   L 188.79667,31.000602   L 192.46327,31.000602   L 188.79667,31.000602   L 188.79667,32.200625   L 192.46327,32.200625   L 188.79667,32.200625   L 188.79667,33.467316   L 192.46327,33.467316   L 188.79667,33.467316   L 188.79667,34.734007   L 192.46327,34.734007   L 188.79667,34.734007   L 188.79667,36.067366   L 192.46327,36.067366   L 188.79667,36.067366   L 188.79667,37.26739   L 192.46327,37.26739   L 188.79667,37.26739   L 188.79667,38.534081   L 192.46327,38.534081   L 188.79667,38.534081   L 188.79667,39.734104   L 192.46327,39.734104   L 188.79667,39.734104   L 188.79667,41.134131   L 192.46327,41.134131   L 188.79667,41.134131   L 188.79667,42.334155   L 192.46327,42.334155   L 188.79667,42.334155   L 188.79667,43.667514   L 192.46327,43.667514   L 188.79667,43.667514   L 188.79667,44.734201   L 192.46327,44.734201   L 188.79667,44.734201   L 188.79667,46.134228   L 192.46327,46.134228   L 188.79667,46.134228   L 188.79667,47.40092   L 192.46327,47.40092   L 188.79667,47.40092   L 188.79667,48.734279   L 192.46327,48.734279   L 188.79667,48.734279   L 188.79667,49.934302   L 192.46327,49.934302   L 188.79667,49.934302   L 188.79667,51.067658   L 192.46327,51.067658   L 188.79667,51.067658   L 188.79667,52.401017   L 192.46327,52.401017   L 188.79667,52.401017   L 188.79667,53.667708   L 192.46327,53.667708   L 188.79667,53.667708   L 188.79667,54.934399   L 192.46327,54.934399   L 188.79667,54.934399   L 188.79667,56.20109   L 192.46327,56.20109   L 188.79667,56.20109   L 188.79667,57.934457   L 190.06331,58.601137   L 191.19662,59.601156   L 191.92994,60.534508   L 192.19661,61.401191   L 192.12994,62.201207   L 191.79661,62.801219   L 191.19662,63.201226   L 190.39664,63.334562   L 189.52999,63.06789   L 188.59667,62.401211   L 187.39669,61.001184   L 186.5967,59.601156   L 185.66339,59.601156   L 185.66339,63.201226   L 185.66339,59.601156   L 184.39674,59.601156   L 184.39674,63.201226   L 184.39674,59.601156   L 183.06343,59.601156   L 183.06343,63.201226   L 183.06343,59.601156   L 181.79679,59.601156   L 181.79679,63.201226   L 181.79679,59.601156   L 180.53015,59.601156   L 180.53015,63.201226   L 180.53015,59.601156   L 179.33017,59.601156   L 179.33017,63.201226   L 179.33017,59.601156   L 177.99686,59.601156   L 177.99686,63.201226   L 177.99686,59.601156   L 176.73021,59.601156   L 176.73021,63.201226   L 176.73021,59.601156   L 175.46357,59.601156   L 175.46357,63.201226   L 175.46357,59.601156   L 174.26359,59.601156   L 174.26359,63.201226   L 174.26359,59.601156   L 172.99694,59.601156   L 172.99694,63.201226   L 172.99694,59.601156   L 171.59697,59.601156   L 171.59697,63.201226   L 171.59697,59.601156   L 170.33033,59.601156   L 170.33033,63.201226   L 170.33033,59.601156   L 168.99702,59.601156   L 168.99702,63.201226   L 168.99702,59.601156   L 167.93037,59.601156   L 167.93037,63.201226   L 167.93037,59.601156   L 166.53039,59.601156   L 166.53039,63.201226   L 166.53039,59.601156   L 165.19708,59.601156   L 165.19708,63.201226   L 165.19708,59.601156   L 163.93044,59.601156   L 163.93044,63.201226   L 163.93044,59.601156   L 162.66379,59.601156   L 162.66379,63.201226   L 162.66379,59.601156   L 161.53048,59.601156   L 161.53048,63.201226   L 161.53048,59.601156   L 160.19717,59.601156   L 160.19717,63.201226   L 160.19717,59.601156   L 158.86386,59.601156   L 158.86386,63.201226   L 158.86386,59.601156   L 157.66388,59.601156   L 157.66388,63.201226   L 157.66388,59.601156   L 156.33057,59.601156   L 156.33057,63.201226   L 156.33057,59.601156   L 154.86393,59.601156   L 154.19728,61.067852   L 153.26396,62.467879   L 152.33064,63.134558   L 151.39733,63.467898   L 150.59734,63.40123   L 149.99735,63.001222   L 149.59736,62.401211   L 149.46403,61.667863   L 149.73069,60.80118   L 150.46401,59.867828   L 151.79732,58.734473   L 153.26396,58.001125   L 153.26396,57.134442   L 149.59736,57.134442   L 153.26396,57.134442   L 153.26396,55.801083   L 149.59736,55.801083   L 153.26396,55.801083   L 153.26396,54.601059   L 149.59736,54.601059   L 153.26396,54.601059   L 153.26396,53.2677   L 149.59736,53.2677   L 153.26396,53.2677   L 153.26396,53.2677   L 153.26396,52.001009   L 149.59736,52.001009   L 153.26396,52.001009   L 153.26396,50.800986   L 149.59736,50.800986   L 153.26396,50.800986   L 153.26396,49.600962   L 149.59736,49.600962   L 153.26396,49.600962   L 153.26396,48.267603   L 149.59736,48.267603   L 153.26396,48.267603   L 153.26396,47.000912   L 149.59736,47.000912   L 153.26396,47.000912   L 153.26396,45.600885   L 149.59736,45.600885   L 153.26396,45.600885   L 153.26396,44.534197   L 149.59736,44.534197   L 153.26396,44.534197   L 153.26396,43.267506   L 149.59736,43.267506   L 153.26396,43.267506   L 153.26396,42.000815   L 149.59736,42.000815   L 153.26396,42.000815   L 153.26396,40.667456   L 149.59736,40.667456   L 153.26396,40.667456   L 153.26396,39.400765   L 149.59736,39.400765   L 153.26396,39.400765   L 153.26396,38.200741   L 149.59736,38.200741   L 153.26396,38.200741   L 153.26396,36.93405   L 149.59736,36.93405   L 153.26396,36.93405   L 153.26396,35.667359   L 149.59736,35.667359   L 153.26396,35.667359   L 153.26396,34.334   L 149.59736,34.334   L 153.26396,34.334   L 153.26396,33.133976   L 149.59736,33.133976   L 153.26396,33.133976   L 153.26396,31.867285   L 149.59736,31.867285   L 153.26396,31.867285   L 153.26396,30.667262   L 149.59736,30.667262   L 153.26396,30.667262   L 153.26396,29.267235   L 149.59736,29.267235   L 153.26396,29.267235   L 153.26396,28.067211   L 149.59736,28.067211   L 153.26396,28.067211   L 153.26396,26.867188   L 149.59736,26.867188   L 153.26396,26.867188   L 153.26396,26.13384   L 151.73065,25.333825   L 150.26401,24.267138   L 149.59736,23.333786   L 149.26403,22.467103   L 149.39736,21.667087   L 149.73069,21.000407   L 150.33068,20.6004   L 151.13066,20.467064   L 151.99732,20.733736   L 152.93063,21.400415   L 154.19728,22.800442   L 155.13059,24.267138   L 156.4639,24.267138   L 156.4639,20.6004   L 156.4639,24.267138   L 157.73055,24.267138   L 157.73055,20.6004   L 157.73055,24.267138   L 159.13052,24.267138   L 159.13052,20.6004   L 159.13052,24.267138   L 160.3305,24.267138   L 160.3305,20.6004   L 160.3305,24.267138   L 161.59715,24.267138   L 161.59715,20.6004   L 161.59715,24.267138   L 162.79712,24.267138   L 162.79712,20.6004   L 162.79712,24.267138   L 164.13043,24.267138   L 164.13043,20.6004   L 164.13043,24.267138   L 165.39708,24.267138   L 165.39708,20.6004   L 165.39708,24.267138   L 166.66372,24.267138   L 166.66372,20.6004   L 166.66372,24.267138   L 167.93037,24.267138   L 167.93037,20.6004   L 167.93037,24.267138   L 169.13035,24.267138   L 169.13035,20.6004   L 169.13035,24.267138   L 170.53032,24.267138   L 170.53032,20.6004   L 170.53032,24.267138   L 171.79697,24.267138   L 171.79697,20.6004   L 171.79697,24.267138   L 173.13028,24.267138   L 173.13028,20.6004   L 173.13028,24.267138   L 174.26359,24.267138   L 174.26359,20.6004   L 174.26359,24.267138   L 175.5969,24.267138   L 175.5969,20.6004   L 175.5969,24.267138   L 176.93021,24.267138   L 176.93021,20.6004   L 176.93021,24.267138   L 178.19685,24.267138   L 178.19685,20.6004   L 178.19685,24.267138   L 179.4635,24.267138   L 179.4635,20.6004   L 179.4635,24.267138   L 180.59681,24.267138   L 180.59681,20.6004   L 180.59681,24.267138   L 181.93012,24.267138   L 181.93012,20.6004   L 181.93012,24.267138   L 183.26343,24.267138   L 183.26343,20.6004   L 183.26343,24.267138   L 184.46341,24.267138   L 184.46341,20.6004   L 184.46341,24.267138   L 185.79672,24.267138   L 185.79672,20.6004   L 185.79672,24.267138   L 186.93003,24.267138  z " clip-path="url(#clipWmfPath1)" style="fill:#000000;fill-rule:nonzero;fill-opacity:1;stroke:none;"/>
  <path id="path52" d="  M 186.93003,24.267138   L 187.73002,22.667106   L 188.79667,21.133743   L 189.72998,20.467064   L 190.6633,20.133724   L 191.46329,20.200392   L 192.06327,20.6004   L 192.46327,21.200411   L 192.5966,21.933759   L 192.32994,22.800442   L 191.66328,23.733794   L 190.26331,25.067153   L 188.79667,25.933837   L 188.79667,27.200528   L 192.46327,27.200528   L 188.79667,27.200528   L 188.79667,28.400551   L 192.46327,28.400551   L 188.79667,28.400551   L 188.79667,29.800578   L 192.46327,29.800578   L 188.79667,29.800578   L 188.79667,31.000602   L 192.46327,31.000602   L 188.79667,31.000602   L 188.79667,32.200625   L 192.46327,32.200625   L 188.79667,32.200625   L 188.79667,33.467316   L 192.46327,33.467316   L 188.79667,33.467316   L 188.79667,34.734007   L 192.46327,34.734007   L 188.79667,34.734007   L 188.79667,36.067366   L 192.46327,36.067366   L 188.79667,36.067366   L 188.79667,37.26739   L 192.46327,37.26739   L 188.79667,37.26739   L 188.79667,38.534081   L 192.46327,38.534081   L 188.79667,38.534081   L 188.79667,39.734104   L 192.46327,39.734104   L 188.79667,39.734104   L 188.79667,41.134131   L 192.46327,41.134131   L 188.79667,41.134131   L 188.79667,42.334155   L 192.46327,42.334155   L 188.79667,42.334155   L 188.79667,43.667514   L 192.46327,43.667514   L 188.79667,43.667514   L 188.79667,44.734201   L 192.46327,44.734201   L 188.79667,44.734201   L 188.79667,46.134228   L 192.46327,46.134228   L 188.79667,46.134228   L 188.79667,47.40092   L 192.46327,47.40092   L 188.79667,47.40092   L 188.79667,48.734279   L 192.46327,48.734279   L 188.79667,48.734279   L 188.79667,49.934302   L 192.46327,49.934302   L 188.79667,49.934302   L 188.79667,51.067658   L 192.46327,51.067658   L 188.79667,51.067658   L 188.79667,52.401017   L 192.46327,52.401017   L 188.79667,52.401017   L 188.79667,53.667708   L 192.46327,53.667708   L 188.79667,53.667708   L 188.79667,54.934399   L 192.46327,54.934399   L 188.79667,54.934399   L 188.79667,56.20109   L 192.46327,56.20109   L 188.79667,56.20109   L 188.79667,57.934457   L 190.06331,58.601137   L 191.19662,59.601156   L 191.92994,60.534508   L 192.19661,61.401191   L 192.12994,62.201207   L 191.79661,62.801219   L 191.19662,63.201226   L 190.39664,63.334562   L 189.52999,63.06789   L 188.59667,62.401211   L 187.39669,61.001184   L 186.5967,59.601156   L 185.66339,59.601156   L 185.66339,63.201226   L 185.66339,59.601156   L 184.39674,59.601156   L 184.39674,63.201226   L 184.39674,59.601156   L 183.06343,59.601156   L 183.06343,63.201226   L 183.06343,59.601156   L 181.79679,59.601156   L 181.79679,63.201226   L 181.79679,59.601156   L 180.53015,59.601156   L 180.53015,63.201226   L 180.53015,59.601156   L 179.33017,59.601156   L 179.33017,63.201226   L 179.33017,59.601156   L 177.99686,59.601156   L 177.99686,63.201226   L 177.99686,59.601156   L 176.73021,59.601156   L 176.73021,63.201226   L 176.73021,59.601156   L 175.46357,59.601156   L 175.46357,63.201226   L 175.46357,59.601156   L 174.26359,59.601156   L 174.26359,63.201226   L 174.26359,59.601156   L 172.99694,59.601156   L 172.99694,63.201226   L 172.99694,59.601156   L 171.59697,59.601156   L 171.59697,63.201226   L 171.59697,59.601156   L 170.33033,59.601156   L 170.33033,63.201226   L 170.33033,59.601156   L 168.99702,59.601156   L 168.99702,63.201226   L 168.99702,59.601156   L 167.93037,59.601156   L 167.93037,63.201226   L 167.93037,59.601156   L 166.53039,59.601156   L 166.53039,63.201226   L 166.53039,59.601156   L 165.19708,59.601156   L 165.19708,63.201226   L 165.19708,59.601156   L 163.93044,59.601156   L 163.93044,63.201226   L 163.93044,59.601156   L 162.66379,59.601156   L 162.66379,63.201226   L 162.66379,59.601156   L 161.53048,59.601156   L 161.53048,63.201226   L 161.53048,59.601156   L 160.19717,59.601156   L 160.19717,63.201226   L 160.19717,59.601156   L 158.86386,59.601156   L 158.86386,63.201226   L 158.86386,59.601156   L 157.66388,59.601156   L 157.66388,63.201226   L 157.66388,59.601156   L 156.33057,59.601156   L 156.33057,63.201226   L 156.33057,59.601156   L 154.86393,59.601156   L 154.19728,61.067852   L 153.26396,62.467879   L 152.33064,63.134558   L 151.39733,63.467898   L 150.59734,63.40123   L 149.99735,63.001222   L 149.59736,62.401211   L 149.46403,61.667863   L 149.73069,60.80118   L 150.46401,59.867828   L 151.79732,58.734473   L 153.26396,58.001125   L 153.26396,57.134442   L 149.59736,57.134442   L 153.26396,57.134442   L 153.26396,55.801083   L 149.59736,55.801083   L 153.26396,55.801083   L 153.26396,54.601059   L 149.59736,54.601059   L 153.26396,54.601059   L 153.26396,53.2677   L 149.59736,53.2677   L 153.26396,53.2677   L 153.26396,53.2677   L 153.26396,52.001009   L 149.59736,52.001009   L 153.26396,52.001009   L 153.26396,50.800986   L 149.59736,50.800986   L 153.26396,50.800986   L 153.26396,49.600962   L 149.59736,49.600962   L 153.26396,49.600962   L 153.26396,48.267603   L 149.59736,48.267603   L 153.26396,48.267603   L 153.26396,47.000912   L 149.59736,47.000912   L 153.26396,47.000912   L 153.26396,45.600885   L 149.59736,45.600885   L 153.26396,45.600885   L 153.26396,44.534197   L 149.59736,44.534197   L 153.26396,44.534197   L 153.26396,43.267506   L 149.59736,43.267506   L 153.26396,43.267506   L 153.26396,42.000815   L 149.59736,42.000815   L 153.26396,42.000815   L 153.26396,40.667456   L 149.59736,40.667456   L 153.26396,40.667456   L 153.26396,39.400765   L 149.59736,39.400765   L 153.26396,39.400765   L 153.26396,38.200741   L 149.59736,38.200741   L 153.26396,38.200741   L 153.26396,36.93405   L 149.59736,36.93405   L 153.26396,36.93405   L 153.26396,35.667359   L 149.59736,35.667359   L 153.26396,35.667359   L 153.26396,34.334   L 149.59736,34.334   L 153.26396,34.334   L 153.26396,33.133976   L 149.59736,33.133976   L 153.26396,33.133976   L 153.26396,31.867285   L 149.59736,31.867285   L 153.26396,31.867285   L 153.26396,30.667262   L 149.59736,30.667262   L 153.26396,30.667262   L 153.26396,29.267235   L 149.59736,29.267235   L 153.26396,29.267235   L 153.26396,28.067211   L 149.59736,28.067211   L 153.26396,28.067211   L 153.26396,26.867188   L 149.59736,26.867188   L 153.26396,26.867188   L 153.26396,26.13384   L 151.73065,25.333825   L 150.26401,24.267138   L 149.59736,23.333786   L 149.26403,22.467103   L 149.39736,21.667087   L 149.73069,21.000407   L 150.33068,20.6004   L 151.13066,20.467064   L 151.99732,20.733736   L 152.93063,21.400415   L 154.19728,22.800442   L 155.13059,24.267138   L 156.4639,24.267138   L 156.4639,20.6004   L 156.4639,24.267138   L 157.73055,24.267138   L 157.73055,20.6004   L 157.73055,24.267138   L 159.13052,24.267138   L 159.13052,20.6004   L 159.13052,24.267138   L 160.3305,24.267138   L 160.3305,20.6004   L 160.3305,24.267138   L 161.59715,24.267138   L 161.59715,20.6004   L 161.59715,24.267138   L 162.79712,24.267138   L 162.79712,20.6004   L 162.79712,24.267138   L 164.13043,24.267138   L 164.13043,20.6004   L 164.13043,24.267138   L 165.39708,24.267138   L 165.39708,20.6004   L 165.39708,24.267138   L 166.66372,24.267138   L 166.66372,20.6004   L 166.66372,24.267138   L 167.93037,24.267138   L 167.93037,20.6004   L 167.93037,24.267138   L 169.13035,24.267138   L 169.13035,20.6004   L 169.13035,24.267138   L 170.53032,24.267138   L 170.53032,20.6004   L 170.53032,24.267138   L 171.79697,24.267138   L 171.79697,20.6004   L 171.79697,24.267138   L 173.13028,24.267138   L 173.13028,20.6004   L 173.13028,24.267138   L 174.26359,24.267138   L 174.26359,20.6004   L 174.26359,24.267138   L 175.5969,24.267138   L 175.5969,20.6004   L 175.5969,24.267138   L 176.93021,24.267138   L 176.93021,20.6004   L 176.93021,24.267138   L 178.19685,24.267138   L 178.19685,20.6004   L 178.19685,24.267138   L 179.4635,24.267138   L 179.4635,20.6004   L 179.4635,24.267138   L 180.59681,24.267138   L 180.59681,20.6004   L 180.59681,24.267138   L 181.93012,24.267138   L 181.93012,20.6004   L 181.93012,24.267138   L 183.26343,24.267138   L 183.26343,20.6004   L 183.26343,24.267138   L 184.46341,24.267138   L 184.46341,20.6004   L 184.46341,24.267138   L 185.79672,24.267138   L 185.79672,20.6004   L 185.79672,24.267138   L 186.93003,24.267138  z " clip-path="url(#clipWmfPath1)" style="fill:none;stroke:#000000;stroke-width:0.066665493px;stroke-linecap:round;stroke-linejoin:round;stroke-miterlimit:4;stroke-dasharray:none;stroke-opacity:1;"/>
  <path id="path54" d="  M 180.53015,35.134015   L 181.53013,35.267351   L 182.33011,35.734027   L 182.9301,36.400706   L 183.1301,37.134054   L 183.1301,46.600904   L 182.9301,47.334252   L 182.33011,47.934263   L 181.53013,48.267603   L 180.53015,48.400939   L 161.26382,48.400939   L 160.26384,48.267603   L 159.46385,47.867595   L 158.86386,47.200916   L 158.66386,46.467568   L 158.66386,37.067386   L 158.86386,36.334038   L 159.46385,35.734027   L 160.26384,35.267351   L 161.26382,35.134015   L 180.53015,35.134015  z " clip-path="url(#clipWmfPath1)" style="fill:#ffffff;fill-rule:nonzero;fill-opacity:1;stroke:none;"/>
  <path id="path56" d="  M 161.26382,34.600671   L 161.26382,35.667359   L 180.46348,35.667359   L 181.33013,35.734027   L 181.99679,36.134034   L 182.46344,36.667378   L 182.59678,37.200722   L 182.59678,46.534236   L 182.46344,47.06758   L 182.06345,47.534256   L 181.3968,47.800927   L 180.46348,47.867595   L 161.33048,47.867595   L 160.39717,47.800927   L 159.79718,47.467588   L 159.33052,46.934244   L 159.19719,46.4009   L 159.19719,37.134054   L 159.33052,36.60071   L 159.79718,36.134034   L 160.46383,35.734027   L 161.33048,35.667359   L 180.46348,35.667359   L 181.46346,35.800695   L 181.59679,34.734007   L 180.59681,34.600671   L 161.19715,34.600671   L 160.06384,34.800675   L 159.13052,35.334019   L 158.3972,36.067366   L 158.13054,37.000718   L 158.13054,46.534236   L 158.3972,47.467588   L 159.13052,48.267603   L 160.13051,48.734279   L 161.19715,48.934283   L 180.59681,48.934283   L 181.66346,48.734279   L 182.59678,48.334271   L 183.39676,47.600924   L 183.66342,46.667572   L 183.66342,37.067386   L 183.39676,36.134034   L 182.66344,35.334019   L 181.73012,34.800675   L 180.59681,34.600671   L 161.26382,34.600671  z " clip-path="url(#clipWmfPath1)" style="fill:#000000;fill-rule:nonzero;fill-opacity:1;stroke:#000000;stroke-width:0.066665493px;stroke-linecap:round;stroke-linejoin:round;stroke-miterlimit:4;stroke-dasharray:none;stroke-opacity:1;"/>
  <g id="g58" clip-path="url(#clipWmfPath1)"/>
  <g id="g70" clip-path="url(#clipWmfPath1)">
    <text id="text68" y="10.185188" x="0.000000" transform="matrix(1.000000,-0.000000,0.000000,1.000000,160.530498,36.000699)" style="font-size:10.687500px;font-style:normal;font-variant:normal;font-weight:400;font-stretch:Condensed;line-height:125.000000%;letter-spacing:0px;word-spacing:0px;fill:#000000;fill-opacity:1;stroke:none;font-family:Helvetica-Narrow;text-align:start;text-anchor:start;" xml:space="preserve"><tspan id="tspan66" y="10.185188" x="0.000000"><tspan id="tspan60" style="fill:#000000;font-size:10.687500px;font-style:normal;font-variant:normal;font-weight:400;font-stretch:Condensed;font-family:Helvetica-Narrow;" dy="0.000000" dx="0.000000">C</tspan><tspan id="tspan62" style="fill:#000000;font-size:10.687500px;font-style:normal;font-variant:normal;font-weight:400;font-stretch:Condensed;font-family:Helvetica-Narrow;" dy="0.000000" dx="-0.116509">P</tspan><tspan id="tspan64" style="fill:#000000;font-size:10.687500px;font-style:normal;font-variant:normal;font-weight:400;font-stretch:Condensed;font-family:Helvetica-Narrow;" dy="0.000000" dx="-0.102671">U</tspan></tspan></text>
  </g>
  <path id="path72" d="  M 83.398527,33.133976   L 127.93107,33.133976   L 131.19768,36.400706   L 131.19768,80.668232   L 83.398527,80.668232   L 83.398527,33.133976  z " clip-path="url(#clipWmfPath1)" style="fill:#000000;fill-rule:nonzero;fill-opacity:1;stroke:none;"/>
  <path id="path74" d="  M 83.398527,33.133976   L 127.93107,33.133976   L 131.19768,36.400706   L 131.19768,80.668232   L 83.398527,80.668232   L 83.398527,33.133976  z " clip-path="url(#clipWmfPath1)" style="fill:none;stroke:#000000;stroke-width:0.066665493px;stroke-linecap:round;stroke-linejoin:round;stroke-miterlimit:4;stroke-dasharray:none;stroke-opacity:1;"/>
  <path id="path76" d="  M 90.131742,38.400745   L 89.065094,38.400745   L 89.065094,39.600768   L 85.265161,39.600768   L 85.265161,40.400784   L 89.065094,40.467452   L 89.065094,41.334135   L 85.265161,41.334135   L 85.265161,42.134151   L 89.065094,42.134151   L 89.065094,43.13417   L 85.265161,43.13417   L 85.265161,44.000854   L 89.065094,44.000854   L 89.065094,44.867537   L 85.265161,44.867537   L 85.265161,45.734221   L 89.065094,45.734221   L 89.065094,46.600904   L 85.265161,46.600904   L 85.265161,47.40092   L 89.065094,47.40092   L 89.065094,48.400939   L 85.265161,48.400939   L 85.265161,49.334291   L 89.065094,49.334291   L 89.065094,50.267642   L 85.265161,50.267642   L 85.265161,51.134326   L 89.065094,51.134326   L 89.065094,51.934341   L 85.265161,51.934341   L 85.265161,52.867692   L 89.065094,52.867692   L 89.065094,53.667708   L 85.198495,53.667708   L 85.265161,54.534391   L 89.065094,54.534391   L 89.065094,55.534411   L 85.265161,55.534411   L 85.265161,56.401094   L 89.065094,56.401094   L 89.065094,57.401114   L 85.265161,57.401114   L 85.265161,58.334465   L 89.065094,58.334465   L 89.065094,59.134481   L 85.265161,59.134481   L 85.265161,59.934496   L 89.065094,59.934496   L 89.065094,61.001184   L 85.265161,61.001184   L 85.265161,61.867867   L 89.065094,61.867867   L 89.065094,62.734551   L 85.265161,62.734551   L 85.265161,63.601234   L 89.065094,63.601234   L 89.065094,64.467918   L 85.265161,64.467918   L 85.265161,65.401269   L 89.065094,65.401269   L 89.065094,66.33462   L 85.465157,66.33462   L 85.265161,67.267972   L 89.065094,67.267972   L 89.065094,68.134655   L 85.265161,68.134655   L 85.265161,69.001339   L 89.065094,69.001339   L 89.065094,69.868022   L 85.398492,69.868022   L 85.265161,70.734706   L 89.065094,70.734706   L 89.065094,71.668057   L 85.265161,71.668057   L 85.265161,72.534741   L 89.065094,72.534741   L 89.065094,73.401424   L 85.265161,73.401424   L 85.265161,74.268108   L 89.065094,74.268108   L 89.065094,75.334795   L 89.86508,75.334795   L 89.86508,79.134869   L 90.731731,79.134869   L 90.5984,75.334795   L 91.531717,75.334795   L 91.531717,79.134869   L 92.465034,79.134869   L 92.465034,75.334795   L 93.398351,75.334795   L 93.398351,79.134869   L 94.265002,79.134869   L 94.265002,75.334795   L 95.131653,75.334795   L 95.131653,79.134869   L 95.998305,79.134869   L 95.998305,75.334795   L 96.864956,75.334795   L 96.864956,79.134869   L 97.731607,79.134869   L 97.731607,75.334795   L 98.73159,75.334795   L 98.798255,79.134869   L 99.598241,79.134869   L 99.598241,75.334795   L 100.53156,75.334795   L 100.53156,79.134869   L 101.39821,79.134869   L 101.39821,75.334795   L 102.26486,75.334795   L 102.26486,79.134869   L 103.13151,79.134869   L 103.13151,75.334795   L 104.13149,75.334795   L 104.13149,79.134869   L 104.99815,79.134869   L 104.99815,75.334795   L 105.79813,75.334795   L 105.79813,79.134869   L 106.66478,79.134869   L 106.66478,75.334795   L 107.73143,75.334795   L 107.73143,79.134869   L 108.53142,79.134869   L 108.53142,75.334795   L 109.59806,75.334795   L 109.59806,79.134869   L 110.39805,79.134869   L 110.39805,75.334795   L 111.2647,75.334795   L 111.2647,79.134869   L 112.13135,79.334873   L 112.13135,75.334795   L 112.998,75.334795   L 112.998,79.134869   L 113.86466,79.134869   L 113.86466,75.334795   L 114.86464,75.334795   L 114.86464,79.134869   L 115.66462,79.134869   L 115.66462,75.334795   L 116.79794,75.334795   L 116.66461,79.134869   L 117.53126,79.134869   L 117.53126,75.334795   L 118.39791,75.334795   L 118.39791,79.134869   L 119.26456,79.134869   L 119.26456,75.334795   L 120.13121,75.334795   L 120.13121,79.134869   L 120.9312,79.134869   L 120.9312,75.334795   L 121.93118,75.334795   L 121.93118,79.134869   L 122.79783,79.134869   L 122.79783,75.334795   L 123.59782,75.334795   L 123.59782,79.134869   L 124.46447,79.134869   L 124.46447,75.334795   L 125.79778,75.334795   L 125.79778,74.20144   L 129.59771,74.20144   L 129.59771,73.401424   L 125.79778,73.401424   L 125.79778,72.534741   L 129.59771,72.534741   L 129.59771,71.668057   L 125.79778,71.668057   L 125.79778,70.734706   L 129.59771,70.734706   L 129.59771,69.868022   L 125.79778,69.868022   L 125.79778,69.001339   L 129.59771,69.001339   L 129.59771,68.134655   L 125.79778,68.134655   L 125.79778,67.267972   L 129.59771,67.267972   L 129.59771,66.33462   L 125.79778,66.33462   L 125.79778,65.401269   L 129.59771,65.401269   L 129.59771,64.534586   L 125.79778,64.534586   L 125.79778,63.601234   L 129.59771,63.601234   L 129.59771,62.734551   L 125.79778,62.734551   L 125.79778,61.867867   L 129.59771,61.867867   L 129.59771,61.001184   L 125.79778,61.001184   L 125.79778,60.201168   L 129.59771,60.334504   L 129.59771,59.334485   L 125.79778,59.334485   L 125.79778,58.334465   L 129.59771,58.334465   L 129.59771,57.401114   L 125.79778,57.401114   L 125.79778,56.401094   L 129.59771,56.401094   L 129.59771,55.534411   L 125.79778,55.467743   L 125.79778,54.734395   L 129.59771,54.734395   L 129.59771,53.867712   L 125.79778,53.867712   L 125.79778,52.867692   L 129.59771,52.867692   L 129.59771,51.934341   L 125.79778,51.934341   L 125.86444,51.134326   L 129.59771,51.134326   L 129.59771,50.267642   L 125.79778,50.267642   L 125.79778,49.334291   L 129.59771,49.334291   L 129.59771,48.467607   L 125.79778,48.467607   L 125.79778,47.40092   L 129.59771,47.40092   L 129.59771,46.600904   L 125.79778,46.600904   L 125.79778,45.734221   L 129.59771,45.734221   L 129.59771,44.867537   L 125.79778,44.867537   L 125.79778,44.000854   L 129.59771,44.000854   L 129.59771,43.13417   L 125.79778,43.13417   L 125.86444,42.134151   L 129.59771,42.134151   L 129.59771,41.334135   L 125.79778,41.334135   L 125.79778,40.400784   L 129.59771,40.400784   L 129.59771,39.5341   L 125.79778,39.5341   L 125.79778,38.400745   L 124.73113,38.400745   L 124.73113,34.600671   L 123.86448,34.600671   L 123.86448,38.400745   L 123.06449,38.400745   L 123.06449,34.600671   L 122.19784,34.600671   L 122.19784,38.400745   L 121.26453,38.400745   L 121.26453,34.600671   L 120.39787,34.600671   L 120.39787,38.400745   L 119.46456,38.400745   L 119.46456,34.600671   L 118.66457,34.600671   L 118.66457,38.400745   L 117.79792,38.400745   L 117.79792,34.600671   L 116.8646,34.600671   L 116.8646,38.400745   L 115.93129,38.400745   L 115.93129,34.600671   L 115.06463,34.600671   L 115.06463,38.400745   L 114.13132,38.400745   L 114.13132,34.600671   L 113.26467,34.600671   L 113.26467,38.400745   L 112.39801,38.400745   L 112.26468,34.600671   L 111.53136,34.600671   L 111.53136,38.400745   L 110.73138,38.400745   L 110.73138,34.600671   L 109.86473,34.600671   L 109.86473,38.400745   L 108.86474,38.400745   L 108.86474,34.600671   L 107.93143,34.600671   L 107.93143,38.400745   L 106.93144,38.400745   L 106.93144,34.600671   L 106.06479,34.600671   L 106.06479,38.400745   L 105.26481,38.400745   L 105.26481,34.600671   L 104.46482,34.600671   L 104.46482,38.400745   L 103.39817,38.400745   L 103.39817,34.600671   L 102.53152,34.600671   L 102.53152,38.400745   L 101.66487,38.400745   L 101.66487,34.600671   L 100.79822,34.600671   L 100.79822,38.400745   L 99.931568,38.400745   L 99.931568,34.600671   L 99.131583,34.600671   L 98.998252,38.400745   L 97.998269,38.400745   L 97.998269,34.600671   L 97.131618,34.600671   L 97.131618,38.400745   L 96.264967,38.400745   L 96.264967,34.600671   L 95.398315,34.600671   L 95.398315,38.400745   L 94.531664,38.400745   L 94.531664,34.600671   L 93.665012,34.600671   L 93.665012,38.400745   L 92.731696,38.400745   L 92.731696,34.600671   L 91.865044,34.600671   L 91.865044,38.400745   L 90.998393,38.400745   L 90.998393,34.600671   L 90.131742,34.600671   L 90.131742,38.400745  z " clip-path="url(#clipWmfPath1)" style="fill:#ffffff;fill-rule:nonzero;fill-opacity:1;stroke:none;"/>
  <path id="path78" d="  M 90.131742,38.400745   L 89.065094,38.400745   L 89.065094,39.600768   L 85.265161,39.600768   L 85.265161,40.400784   L 89.065094,40.467452   L 89.065094,41.334135   L 85.265161,41.334135   L 85.265161,42.134151   L 89.065094,42.134151   L 89.065094,43.13417   L 85.265161,43.13417   L 85.265161,44.000854   L 89.065094,44.000854   L 89.065094,44.867537   L 85.265161,44.867537   L 85.265161,45.734221   L 89.065094,45.734221   L 89.065094,46.600904   L 85.265161,46.600904   L 85.265161,47.40092   L 89.065094,47.40092   L 89.065094,48.400939   L 85.265161,48.400939   L 85.265161,49.334291   L 89.065094,49.334291   L 89.065094,50.267642   L 85.265161,50.267642   L 85.265161,51.134326   L 89.065094,51.134326   L 89.065094,51.934341   L 85.265161,51.934341   L 85.265161,52.867692   L 89.065094,52.867692   L 89.065094,53.667708   L 85.198495,53.667708   L 85.265161,54.534391   L 89.065094,54.534391   L 89.065094,55.534411   L 85.265161,55.534411   L 85.265161,56.401094   L 89.065094,56.401094   L 89.065094,57.401114   L 85.265161,57.401114   L 85.265161,58.334465   L 89.065094,58.334465   L 89.065094,59.134481   L 85.265161,59.134481   L 85.265161,59.934496   L 89.065094,59.934496   L 89.065094,61.001184   L 85.265161,61.001184   L 85.265161,61.867867   L 89.065094,61.867867   L 89.065094,62.734551   L 85.265161,62.734551   L 85.265161,63.601234   L 89.065094,63.601234   L 89.065094,64.467918   L 85.265161,64.467918   L 85.265161,65.401269   L 89.065094,65.401269   L 89.065094,66.33462   L 85.465157,66.33462   L 85.265161,67.267972   L 89.065094,67.267972   L 89.065094,68.134655   L 85.265161,68.134655   L 85.265161,69.001339   L 89.065094,69.001339   L 89.065094,69.868022   L 85.398492,69.868022   L 85.265161,70.734706   L 89.065094,70.734706   L 89.065094,71.668057   L 85.265161,71.668057   L 85.265161,72.534741   L 89.065094,72.534741   L 89.065094,73.401424   L 85.265161,73.401424   L 85.265161,74.268108   L 89.065094,74.268108   L 89.065094,75.334795   L 89.86508,75.334795   L 89.86508,79.134869   L 90.731731,79.134869   L 90.5984,75.334795   L 91.531717,75.334795   L 91.531717,79.134869   L 92.465034,79.134869   L 92.465034,75.334795   L 93.398351,75.334795   L 93.398351,79.134869   L 94.265002,79.134869   L 94.265002,75.334795   L 95.131653,75.334795   L 95.131653,79.134869   L 95.998305,79.134869   L 95.998305,75.334795   L 96.864956,75.334795   L 96.864956,79.134869   L 97.731607,79.134869   L 97.731607,75.334795   L 98.73159,75.334795   L 98.798255,79.134869   L 99.598241,79.134869   L 99.598241,75.334795   L 100.53156,75.334795   L 100.53156,79.134869   L 101.39821,79.134869   L 101.39821,75.334795   L 102.26486,75.334795   L 102.26486,79.134869   L 103.13151,79.134869   L 103.13151,75.334795   L 104.13149,75.334795   L 104.13149,79.134869   L 104.99815,79.134869   L 104.99815,75.334795   L 105.79813,75.334795   L 105.79813,79.134869   L 106.66478,79.134869   L 106.66478,75.334795   L 107.73143,75.334795   L 107.73143,79.134869   L 108.53142,79.134869   L 108.53142,75.334795   L 109.59806,75.334795   L 109.59806,79.134869   L 110.39805,79.134869   L 110.39805,75.334795   L 111.2647,75.334795   L 111.2647,79.134869   L 112.13135,79.334873   L 112.13135,75.334795   L 112.998,75.334795   L 112.998,79.134869   L 113.86466,79.134869   L 113.86466,75.334795   L 114.86464,75.334795   L 114.86464,79.134869   L 115.66462,79.134869   L 115.66462,75.334795   L 116.79794,75.334795   L 116.66461,79.134869   L 117.53126,79.134869   L 117.53126,75.334795   L 118.39791,75.334795   L 118.39791,79.134869   L 119.26456,79.134869   L 119.26456,75.334795   L 120.13121,75.334795   L 120.13121,79.134869   L 120.9312,79.134869   L 120.9312,75.334795   L 121.93118,75.334795   L 121.93118,79.134869   L 122.79783,79.134869   L 122.79783,75.334795   L 123.59782,75.334795   L 123.59782,79.134869   L 124.46447,79.134869   L 124.46447,75.334795   L 125.79778,75.334795   L 125.79778,74.20144   L 129.59771,74.20144   L 129.59771,73.401424   L 125.79778,73.401424   L 125.79778,72.534741   L 129.59771,72.534741   L 129.59771,71.668057   L 125.79778,71.668057   L 125.79778,70.734706   L 129.59771,70.734706   L 129.59771,69.868022   L 125.79778,69.868022   L 125.79778,69.001339   L 129.59771,69.001339   L 129.59771,68.134655   L 125.79778,68.134655   L 125.79778,67.267972   L 129.59771,67.267972   L 129.59771,66.33462   L 125.79778,66.33462   L 125.79778,65.401269   L 129.59771,65.401269   L 129.59771,64.534586   L 125.79778,64.534586   L 125.79778,63.601234   L 129.59771,63.601234   L 129.59771,62.734551   L 125.79778,62.734551   L 125.79778,61.867867   L 129.59771,61.867867   L 129.59771,61.001184   L 125.79778,61.001184   L 125.79778,60.201168   L 129.59771,60.334504   L 129.59771,59.334485   L 125.79778,59.334485   L 125.79778,58.334465   L 129.59771,58.334465   L 129.59771,57.401114   L 125.79778,57.401114   L 125.79778,56.401094   L 129.59771,56.401094   L 129.59771,55.534411   L 125.79778,55.467743   L 125.79778,54.734395   L 129.59771,54.734395   L 129.59771,53.867712   L 125.79778,53.867712   L 125.79778,52.867692   L 129.59771,52.867692   L 129.59771,51.934341   L 125.79778,51.934341   L 125.86444,51.134326   L 129.59771,51.134326   L 129.59771,50.267642   L 125.79778,50.267642   L 125.79778,49.334291   L 129.59771,49.334291   L 129.59771,48.467607   L 125.79778,48.467607   L 125.79778,47.40092   L 129.59771,47.40092   L 129.59771,46.600904   L 125.79778,46.600904   L 125.79778,45.734221   L 129.59771,45.734221   L 129.59771,44.867537   L 125.79778,44.867537   L 125.79778,44.000854   L 129.59771,44.000854   L 129.59771,43.13417   L 125.79778,43.13417   L 125.86444,42.134151   L 129.59771,42.134151   L 129.59771,41.334135   L 125.79778,41.334135   L 125.79778,40.400784   L 129.59771,40.400784   L 129.59771,39.5341   L 125.79778,39.5341   L 125.79778,38.400745   L 124.73113,38.400745   L 124.73113,34.600671   L 123.86448,34.600671   L 123.86448,38.400745   L 123.06449,38.400745   L 123.06449,34.600671   L 122.19784,34.600671   L 122.19784,38.400745   L 121.26453,38.400745   L 121.26453,34.600671   L 120.39787,34.600671   L 120.39787,38.400745   L 119.46456,38.400745   L 119.46456,34.600671   L 118.66457,34.600671   L 118.66457,38.400745   L 117.79792,38.400745   L 117.79792,34.600671   L 116.8646,34.600671   L 116.8646,38.400745   L 115.93129,38.400745   L 115.93129,34.600671   L 115.06463,34.600671   L 115.06463,38.400745   L 114.13132,38.400745   L 114.13132,34.600671   L 113.26467,34.600671   L 113.26467,38.400745   L 112.39801,38.400745   L 112.26468,34.600671   L 111.53136,34.600671   L 111.53136,38.400745   L 110.73138,38.400745   L 110.73138,34.600671   L 109.86473,34.600671   L 109.86473,38.400745   L 108.86474,38.400745   L 108.86474,34.600671   L 107.93143,34.600671   L 107.93143,38.400745   L 106.93144,38.400745   L 106.93144,34.600671   L 106.06479,34.600671   L 106.06479,38.400745   L 105.26481,38.400745   L 105.26481,34.600671   L 104.46482,34.600671   L 104.46482,38.400745   L 103.39817,38.400745   L 103.39817,34.600671   L 102.53152,34.600671   L 102.53152,38.400745   L 101.66487,38.400745   L 101.66487,34.600671   L 100.79822,34.600671   L 100.79822,38.400745   L 99.931568,38.400745   L 99.931568,34.600671   L 99.131583,34.600671   L 98.998252,38.400745   L 97.998269,38.400745   L 97.998269,34.600671   L 97.131618,34.600671   L 97.131618,38.400745   L 96.264967,38.400745   L 96.264967,34.600671   L 95.398315,34.600671   L 95.398315,38.400745   L 94.531664,38.400745   L 94.531664,34.600671   L 93.665012,34.600671   L 93.665012,38.400745   L 92.731696,38.400745   L 92.731696,34.600671   L 91.865044,34.600671   L 91.865044,38.400745   L 90.998393,38.400745   L 90.998393,34.600671   L 90.131742,34.600671   L 90.131742,38.400745  z " clip-path="url(#clipWmfPath1)" style="fill:none;stroke:#ffffff;stroke-width:0.066665493px;stroke-linecap:round;stroke-linejoin:round;stroke-miterlimit:4;stroke-dasharray:none;stroke-opacity:1;"/>
  <path id="path80" d="  M 126.3311,36.334038   L 126.46443,35.800695   L 126.7311,35.334019   L 127.73108,34.867343   L 128.73106,35.334019   L 128.99772,35.800695   L 129.13105,36.334038   L 128.99772,36.93405   L 128.73106,37.400726   L 127.73108,37.800733   L 127.19775,37.667398   L 126.7311,37.400726   L 126.3311,36.334038  z " clip-path="url(#clipWmfPath1)" style="fill:#ffffff;fill-rule:nonzero;fill-opacity:1;stroke:none;"/>
  <path id="path82" d="  M 126.3311,36.334038   L 126.46443,35.800695   L 126.7311,35.334019   L 127.73108,34.867343   L 128.73106,35.334019   L 128.99772,35.800695   L 129.13105,36.334038   L 128.99772,36.93405   L 128.73106,37.400726   L 127.73108,37.800733   L 127.19775,37.667398   L 126.7311,37.400726   L 126.3311,36.334038  z " clip-path="url(#clipWmfPath1)" style="fill:none;stroke:#ffffff;stroke-width:0.066665493px;stroke-linecap:round;stroke-linejoin:round;stroke-miterlimit:4;stroke-dasharray:none;stroke-opacity:1;"/>
  <path id="path84" d="  M 116.93127,50.200974   L 117.93125,50.33431   L 118.73124,50.800986   L 119.33123,51.467665   L 119.53122,52.201013   L 119.53122,61.667863   L 119.33123,62.401211   L 118.73124,63.001222   L 117.93125,63.334562   L 116.93127,63.467898   L 97.664942,63.467898   L 96.664959,63.334562   L 95.864974,62.934554   L 95.264984,62.267875   L 95.064988,61.534527   L 95.064988,52.134345   L 95.264984,51.400997   L 95.864974,50.800986   L 96.664959,50.33431   L 97.664942,50.200974   L 116.93127,50.200974  z " clip-path="url(#clipWmfPath1)" style="fill:#ffffff;fill-rule:nonzero;fill-opacity:1;stroke:none;"/>
  <path id="path86" d="  M 97.664942,49.66763   L 97.664942,50.734318   L 116.8646,50.734318   L 117.73125,50.800986   L 118.39791,51.200993   L 118.86457,51.734337   L 118.9979,52.267681   L 118.9979,61.601195   L 118.86457,62.134539   L 118.46457,62.601215   L 117.79792,62.867887   L 116.8646,62.934554   L 97.731607,62.934554   L 96.79829,62.867887   L 96.198301,62.534547   L 95.731643,62.001203   L 95.598312,61.467859   L 95.598312,52.201013   L 95.731643,51.667669   L 96.198301,51.200993   L 96.864956,50.800986   L 97.731607,50.734318   L 116.8646,50.734318   L 117.86459,50.867654   L 117.99792,49.800966   L 116.99793,49.66763   L 97.598276,49.66763   L 96.464963,49.867634   L 95.531646,50.400978   L 94.798326,51.134326   L 94.531664,52.067677   L 94.531664,61.601195   L 94.798326,62.534547   L 95.531646,63.334562   L 96.531629,63.801238   L 97.598276,64.001242   L 116.99793,64.001242   L 118.06458,63.801238   L 118.9979,63.40123   L 119.79788,62.667883   L 120.06455,61.734531   L 120.06455,52.134345   L 119.79788,51.200993   L 119.06456,50.400978   L 118.13125,49.867634   L 116.99793,49.66763   L 97.664942,49.66763  z " clip-path="url(#clipWmfPath1)" style="fill:#000000;fill-rule:nonzero;fill-opacity:1;stroke:#000000;stroke-width:0.066665493px;stroke-linecap:round;stroke-linejoin:round;stroke-miterlimit:4;stroke-dasharray:none;stroke-opacity:1;"/>
  <g id="g88" clip-path="url(#clipWmfPath1)"/>
  <g id="g100" clip-path="url(#clipWmfPath1)">
    <text id="text98" y="10.249313" x="0.000000" transform="matrix(1.000000,-0.000000,0.000000,1.000000,96.798290,51.067658)" style="font-size:10.687500px;font-style:normal;font-variant:normal;font-weight:400;font-stretch:Condensed;line-height:125.000000%;letter-spacing:0px;word-spacing:0px;fill:#000000;fill-opacity:1;stroke:none;font-family:Helvetica-Narrow;text-align:start;text-anchor:start;" xml:space="preserve"><tspan id="tspan96" y="10.249313" x="0.000000"><tspan id="tspan90" style="fill:#000000;font-size:10.687500px;font-style:normal;font-variant:normal;font-weight:400;font-stretch:Condensed;font-family:Helvetica-Narrow;" dy="0.000000" dx="0.000000">N</tspan><tspan id="tspan92" style="fill:#000000;font-size:10.687500px;font-style:normal;font-variant:normal;font-weight:400;font-stretch:Condensed;font-family:Helvetica-Narrow;" dy="0.000000" dx="0.083046">P</tspan><tspan id="tspan94" style="fill:#000000;font-size:10.687500px;font-style:normal;font-variant:normal;font-weight:400;font-stretch:Condensed;font-family:Helvetica-Narrow;" dy="0.000000" dx="-0.102671">U</tspan></tspan></text>
  </g>
  <g id="g102" clip-path="url(#clipWmfPath1)"/>
  <g id="g122" clip-path="url(#clipWmfPath1)">
    <text id="text120" y="8.930687" x="0.000000" transform="matrix(1.000000,-0.000000,0.000000,1.000000,154.597270,4.533421)" style="font-size:9.312500px;font-style:normal;font-variant:normal;font-weight:400;font-stretch:Condensed;line-height:125.000000%;letter-spacing:0px;word-spacing:0px;fill:#000000;fill-opacity:1;stroke:none;font-family:Helvetica-Narrow;text-align:start;text-anchor:start;" xml:space="preserve"><tspan id="tspan118" y="8.930687" x="0.000000"><tspan id="tspan104" style="fill:#000000;font-size:9.312500px;font-style:normal;font-variant:normal;font-weight:400;font-stretch:Condensed;font-family:Helvetica-Narrow;" dy="0.000000" dx="0.000000">M</tspan><tspan id="tspan106" style="fill:#000000;font-size:9.312500px;font-style:normal;font-variant:normal;font-weight:400;font-stretch:Condensed;font-family:Helvetica-Narrow;" dy="0.000000" dx="0.202685">H</tspan><tspan id="tspan108" style="fill:#000000;font-size:9.312500px;font-style:normal;font-variant:normal;font-weight:400;font-stretch:Condensed;font-family:Helvetica-Narrow;" dy="0.000000" dx="0.116806">1</tspan><tspan id="tspan110" style="fill:#000000;font-size:9.312500px;font-style:normal;font-variant:normal;font-weight:400;font-stretch:Condensed;font-family:Helvetica-Narrow;" dy="0.000000" dx="0.049996">5</tspan><tspan id="tspan112" style="fill:#000000;font-size:9.312500px;font-style:normal;font-variant:normal;font-weight:400;font-stretch:Condensed;font-family:Helvetica-Narrow;" dy="0.000000" dx="0.049996">8</tspan><tspan id="tspan114" style="fill:#000000;font-size:9.312500px;font-style:normal;font-variant:normal;font-weight:400;font-stretch:Condensed;font-family:Helvetica-Narrow;" dy="0.000000" dx="0.049996">7</tspan><tspan id="tspan116" style="fill:#000000;font-size:9.312500px;font-style:normal;font-variant:normal;font-weight:400;font-stretch:Condensed;font-family:Helvetica-Narrow;" dy="0.000000" dx="0.049996">A</tspan></tspan></text>
  </g>
  <g id="g124" clip-path="url(#clipWmfPath1)"/>
  <g id="g156" clip-path="url(#clipWmfPath1)">
    <text id="text140" y="8.930687" x="0.000000" transform="matrix(1.000000,-0.000000,0.000000,1.000000,46.265850,118.135626)" style="font-size:9.312500px;font-style:normal;font-variant:normal;font-weight:400;font-stretch:Condensed;line-height:125.000000%;letter-spacing:0px;word-spacing:0px;fill:#000000;fill-opacity:1;stroke:none;font-family:Helvetica-Narrow;text-align:start;text-anchor:start;" xml:space="preserve"><tspan id="tspan138" y="8.930687" x="0.000000"><tspan id="tspan126" style="fill:#000000;font-size:9.312500px;font-style:normal;font-variant:normal;font-weight:400;font-stretch:Condensed;font-family:Helvetica-Narrow;" dy="0.000000" dx="0.000000">I</tspan><tspan id="tspan128" style="fill:#000000;font-size:9.312500px;font-style:normal;font-variant:normal;font-weight:400;font-stretch:Condensed;font-family:Helvetica-Narrow;" dy="0.000000" dx="0.306612">N</tspan><tspan id="tspan130" style="fill:#000000;font-size:9.312500px;font-style:normal;font-variant:normal;font-weight:400;font-stretch:Condensed;font-family:Helvetica-Narrow;" dy="0.000000" dx="0.116806">S</tspan><tspan id="tspan132" style="fill:#000000;font-size:9.312500px;font-style:normal;font-variant:normal;font-weight:400;font-stretch:Condensed;font-family:Helvetica-Narrow;" dy="0.000000" dx="0.202541">T</tspan><tspan id="tspan134" style="fill:#000000;font-size:9.312500px;font-style:normal;font-variant:normal;font-weight:400;font-stretch:Condensed;font-family:Helvetica-Narrow;" dy="0.000000" dx="0.297588">E</tspan><tspan id="tspan136" style="fill:#000000;font-size:9.312500px;font-style:normal;font-variant:normal;font-weight:400;font-stretch:Condensed;font-family:Helvetica-Narrow;" dy="0.000000" dx="0.202541">P</tspan></tspan></text>
    <text id="text154" y="8.930687" x="39.465970" transform="matrix(1.000000,-0.000000,0.000000,1.000000,46.265850,118.135626)" style="font-size:9.312500px;font-style:normal;font-variant:normal;font-weight:400;font-stretch:Condensed;line-height:125.000000%;letter-spacing:0px;word-spacing:0px;fill:#000000;fill-opacity:1;stroke:none;font-family:Helvetica-Narrow;text-align:start;text-anchor:start;" xml:space="preserve"><tspan id="tspan152" y="8.930687" x="39.465970"><tspan id="tspan142" style="fill:#000000;font-size:9.312500px;font-style:normal;font-variant:normal;font-weight:400;font-stretch:Condensed;font-family:Helvetica-Narrow;" dy="0.000000" dx="0.000000">B</tspan><tspan id="tspan144" style="fill:#000000;font-size:9.312500px;font-style:normal;font-variant:normal;font-weight:400;font-stretch:Condensed;font-family:Helvetica-Narrow;" dy="0.000000" dx="0.202541">O</tspan><tspan id="tspan146" style="fill:#000000;font-size:9.312500px;font-style:normal;font-variant:normal;font-weight:400;font-stretch:Condensed;font-family:Helvetica-Narrow;" dy="0.000000" dx="-0.044907">A</tspan><tspan id="tspan148" style="fill:#000000;font-size:9.312500px;font-style:normal;font-variant:normal;font-weight:400;font-stretch:Condensed;font-family:Helvetica-Narrow;" dy="0.000000" dx="0.202541">R</tspan><tspan id="tspan150" style="fill:#000000;font-size:9.312500px;font-style:normal;font-variant:normal;font-weight:400;font-stretch:Condensed;font-family:Helvetica-Narrow;" dy="0.000000" dx="0.116806">D</tspan></tspan></text>
  </g>
</svg>