<svg xmlns:dc="http://purl.org/dc/elements/1.1/" xmlns:cc="http://creativecommons.org/ns#" xmlns:rdf="http://www.w3.org/1999/02/22-rdf-syntax-ns#" xmlns:svg="http://www.w3.org/2000/svg" xmlns="http://www.w3.org/2000/svg" id="svg198" height="65.869998mm" width="74.110003mm" version="1.0">
  <metadata id="metadata202">
    <rdf:RDF>
      <cc:Work rdf:about="">
        <dc:format>image/svg+xml</dc:format>
        <dc:type rdf:resource="http://purl.org/dc/dcmitype/StillImage"/>
      </cc:Work>
    </rdf:RDF>
  </metadata>
  <defs id="defs6">
    <clipPath id="clipWmfPath1" clipPathUnits="userSpaceOnUse">
      <path id="path2" d="M 0,0 L 279.99633,0 L 279.99633,248.85302 L 0,248.85302 z"/>
    </clipPath>
    <pattern y="0" x="0" height="6" width="6" patternUnits="userSpaceOnUse" id="WMFhbasepattern"/>
  </defs>
  <path id="path8" d="  M 256.2633,205.12209   L 222.06375,205.12209   L 222.19708,222.72112   L 69.332424,222.72112   L 69.132426,205.18875   L 35.066207,204.98876   L 35.066207,18.865632   L 256.2633,18.532317   L 256.2633,205.12209  z " clip-path="url(#clipWmfPath1)" style="fill:#e6e6e6;fill-rule:nonzero;fill-opacity:1;stroke:none;"/>
  <path id="path10" d="  M 256.79663,18.532317   L 255.72998,18.532317   L 255.72998,204.58878   L 221.53043,204.58878   L 221.66376,222.18782   L 69.86575,222.18782   L 69.665753,204.65545   L 35.599533,204.45546   L 35.599533,19.398936   L 255.72998,19.065621   L 255.72998,204.58878   L 222.06375,204.58878   L 222.06375,205.65539   L 256.79663,205.65539   L 256.79663,17.999013   L 34.53288,18.332328   L 34.53288,205.52206   L 68.5991,205.72205   L 68.799097,223.25443   L 222.73041,223.25443   L 222.59708,205.65539   L 256.79663,205.65539   L 256.79663,18.532317  z " clip-path="url(#clipWmfPath1)" style="fill:#000000;fill-rule:nonzero;fill-opacity:1;stroke:#000000;stroke-width:0.066665791px;stroke-linecap:round;stroke-linejoin:round;stroke-miterlimit:4;stroke-dasharray:none;stroke-opacity:1;"/>
  <path id="path42" d="  M 170.3311,81.262211   L 171.13109,79.662299   L 172.19774,78.12905   L 173.13106,77.462419   L 174.06438,77.129104   L 174.86437,77.195767   L 175.46436,77.595745   L 175.86436,78.195713   L 175.99769,78.929006   L 175.73103,79.795625   L 175.06437,80.728907   L 173.66439,82.062167   L 172.19774,82.928786   L 172.19774,84.195384   L 175.86436,84.195384   L 172.19774,84.195384   L 172.19774,85.395318   L 175.86436,85.395318   L 172.19774,85.395318   L 172.19774,86.795241   L 175.86436,86.795241   L 172.19774,86.795241   L 172.19774,87.995175   L 175.86436,87.995175   L 172.19774,87.995175   L 172.19774,89.195109   L 175.86436,89.195109   L 172.19774,89.195109   L 172.19774,90.461707   L 175.86436,90.461707   L 172.19774,90.461707   L 172.19774,91.728304   L 175.86436,91.728304   L 172.19774,91.728304   L 172.19774,93.061564   L 175.86436,93.061564   L 172.19774,93.061564   L 172.19774,94.261498   L 175.86436,94.261498   L 172.19774,94.261498   L 172.19774,95.528096   L 175.86436,95.528096   L 172.19774,95.528096   L 172.19774,96.72803   L 175.86436,96.72803   L 172.19774,96.72803   L 172.19774,98.127953   L 175.86436,98.127953   L 172.19774,98.127953   L 172.19774,99.327887   L 175.86436,99.327887   L 172.19774,99.327887   L 172.19774,100.66115   L 175.86436,100.66115   L 172.19774,100.66115   L 172.19774,101.72776   L 175.86436,101.72776   L 172.19774,101.72776   L 172.19774,103.12768   L 175.86436,103.12768   L 172.19774,103.12768   L 172.19774,104.39428   L 175.86436,104.39428   L 172.19774,104.39428   L 172.19774,105.72754   L 175.86436,105.72754   L 172.19774,105.72754   L 172.19774,106.92747   L 175.86436,106.92747   L 172.19774,106.92747   L 172.19774,108.06074   L 175.86436,108.06074   L 172.19774,108.06074   L 172.19774,109.394   L 175.86436,109.394   L 172.19774,109.394   L 172.19774,110.6606   L 175.86436,110.6606   L 172.19774,110.6606   L 172.19774,111.9272   L 175.86436,111.9272   L 172.19774,111.9272   L 172.19774,113.19379   L 175.86436,113.19379   L 172.19774,113.19379   L 172.19774,114.92703   L 173.46439,115.59366   L 174.59771,116.59361   L 175.33103,117.52689   L 175.5977,118.39351   L 175.53103,119.19346   L 175.1977,119.79343   L 174.59771,120.19341   L 173.79772,120.32674   L 172.93106,120.06008   L 171.99774,119.39345   L 170.79776,117.99353   L 169.99777,116.59361   L 169.06445,116.59361   L 169.06445,120.19341   L 169.06445,116.59361   L 167.7978,116.59361   L 167.7978,120.19341   L 167.7978,116.59361   L 166.46448,116.59361   L 166.46448,120.19341   L 166.46448,116.59361   L 165.19783,116.59361   L 165.19783,120.19341   L 165.19783,116.59361   L 163.93118,116.59361   L 163.93118,120.19341   L 163.93118,116.59361   L 162.7312,116.59361   L 162.7312,120.19341   L 162.7312,116.59361   L 161.39788,116.59361   L 161.39788,120.19341   L 161.39788,116.59361   L 160.13123,116.59361   L 160.13123,120.19341   L 160.13123,116.59361   L 158.86458,116.59361   L 158.86458,120.19341   L 158.86458,116.59361   L 157.6646,116.59361   L 157.6646,120.19341   L 157.6646,116.59361   L 156.39795,116.59361   L 156.39795,120.19341   L 156.39795,116.59361   L 154.99797,116.59361   L 154.99797,120.19341   L 154.99797,116.59361   L 153.73132,116.59361   L 153.73132,120.19341   L 153.73132,116.59361   L 152.398,116.59361   L 152.398,120.19341   L 152.398,116.59361   L 151.33135,116.59361   L 151.33135,120.19341   L 151.33135,116.59361   L 149.93137,116.59361   L 149.93137,120.19341   L 149.93137,116.59361   L 148.59805,116.59361   L 148.59805,120.19341   L 148.59805,116.59361   L 147.3314,116.59361   L 147.3314,120.19341   L 147.3314,116.59361   L 146.06475,116.59361   L 146.06475,120.19341   L 146.06475,116.59361   L 144.93143,116.59361   L 144.93143,120.19341   L 144.93143,116.59361   L 143.59812,116.59361   L 143.59812,120.19341   L 143.59812,116.59361   L 142.2648,116.59361   L 142.2648,120.19341   L 142.2648,116.59361   L 141.06482,116.59361   L 141.06482,120.19341   L 141.06482,116.59361   L 139.7315,116.59361   L 139.7315,120.19341   L 139.7315,116.59361   L 138.26485,116.59361   L 137.59819,118.06019   L 136.66487,119.46012   L 135.73155,120.12675   L 134.79823,120.46006   L 133.99824,120.3934   L 133.39825,119.99342   L 132.99826,119.39345   L 132.86492,118.66016   L 133.13159,117.79354   L 133.86491,116.86026   L 135.19823,115.72699   L 136.66487,114.99369   L 136.66487,114.12708   L 132.99826,114.12708   L 136.66487,114.12708   L 136.66487,112.79382   L 132.99826,112.79382   L 136.66487,112.79382   L 136.66487,111.59388   L 132.99826,111.59388   L 136.66487,111.59388   L 136.66487,110.26062   L 132.99826,110.26062   L 136.66487,110.26062   L 136.66487,110.26062   L 136.66487,108.99402   L 132.99826,108.99402   L 136.66487,108.99402   L 136.66487,107.79409   L 132.99826,107.79409   L 136.66487,107.79409   L 136.66487,106.59416   L 132.99826,106.59416   L 136.66487,106.59416   L 136.66487,105.2609   L 132.99826,105.2609   L 136.66487,105.2609   L 136.66487,103.9943   L 132.99826,103.9943   L 136.66487,103.9943   L 136.66487,102.59437   L 132.99826,102.59437   L 136.66487,102.59437   L 136.66487,101.52777   L 132.99826,101.52777   L 136.66487,101.52777   L 136.66487,100.26117   L 132.99826,100.26117   L 136.66487,100.26117   L 136.66487,98.994572   L 132.99826,98.994572   L 136.66487,98.994572   L 136.66487,97.661312   L 132.99826,97.661312   L 136.66487,97.661312   L 136.66487,96.394715   L 132.99826,96.394715   L 136.66487,96.394715   L 136.66487,95.19478   L 132.99826,95.19478   L 136.66487,95.19478   L 136.66487,93.928183   L 132.99826,93.928183   L 136.66487,93.928183   L 136.66487,92.661586   L 132.99826,92.661586   L 136.66487,92.661586   L 136.66487,91.328326   L 132.99826,91.328326   L 136.66487,91.328326   L 136.66487,90.128392   L 132.99826,90.128392   L 136.66487,90.128392   L 136.66487,88.861794   L 132.99826,88.861794   L 136.66487,88.861794   L 136.66487,87.66186   L 132.99826,87.66186   L 136.66487,87.66186   L 136.66487,86.261937   L 132.99826,86.261937   L 136.66487,86.261937   L 136.66487,85.062003   L 132.99826,85.062003   L 136.66487,85.062003   L 136.66487,83.862069   L 132.99826,83.862069   L 136.66487,83.862069   L 136.66487,83.128775   L 135.13156,82.328819   L 133.66491,81.262211   L 132.99826,80.328929   L 132.66493,79.46231   L 132.79826,78.662354   L 133.13159,77.995723   L 133.73158,77.595745   L 134.53157,77.462419   L 135.39822,77.729071   L 136.33154,78.395702   L 137.59819,79.795625   L 138.53152,81.262211   L 139.86483,81.262211   L 139.86483,77.595745   L 139.86483,81.262211   L 141.13148,81.262211   L 141.13148,77.595745   L 141.13148,81.262211   L 142.53146,81.262211   L 142.53146,77.595745   L 142.53146,81.262211   L 143.73145,81.262211   L 143.73145,77.595745   L 143.73145,81.262211   L 144.9981,81.262211   L 144.9981,77.595745   L 144.9981,81.262211   L 146.19808,81.262211   L 146.19808,77.595745   L 146.19808,81.262211   L 147.5314,81.262211   L 147.5314,77.595745   L 147.5314,81.262211   L 148.79805,81.262211   L 148.79805,77.595745   L 148.79805,81.262211   L 150.0647,81.262211   L 150.0647,77.595745   L 150.0647,81.262211   L 151.33135,81.262211   L 151.33135,77.595745   L 151.33135,81.262211   L 152.53133,81.262211   L 152.53133,77.595745   L 152.53133,81.262211   L 153.93131,81.262211   L 153.93131,77.595745   L 153.93131,81.262211   L 155.19796,81.262211   L 155.19796,77.595745   L 155.19796,81.262211   L 156.53128,81.262211   L 156.53128,77.595745   L 156.53128,81.262211   L 157.6646,81.262211   L 157.6646,77.595745   L 157.6646,81.262211   L 158.99791,81.262211   L 158.99791,77.595745   L 158.99791,81.262211   L 160.33123,81.262211   L 160.33123,77.595745   L 160.33123,81.262211   L 161.59788,81.262211   L 161.59788,77.595745   L 161.59788,81.262211   L 162.86453,81.262211   L 162.86453,77.595745   L 162.86453,81.262211   L 163.99785,81.262211   L 163.99785,77.595745   L 163.99785,81.262211   L 165.33116,81.262211   L 165.33116,77.595745   L 165.33116,81.262211   L 166.66448,81.262211   L 166.66448,77.595745   L 166.66448,81.262211   L 167.86446,81.262211   L 167.86446,77.595745   L 167.86446,81.262211   L 169.19778,81.262211   L 169.19778,77.595745   L 169.19778,81.262211   L 170.3311,81.262211  z " clip-path="url(#clipWmfPath1)" style="fill:#000000;fill-rule:nonzero;fill-opacity:1;stroke:none;"/>
  <path id="path44" d="  M 170.3311,81.262211   L 171.13109,79.662299   L 172.19774,78.12905   L 173.13106,77.462419   L 174.06438,77.129104   L 174.86437,77.195767   L 175.46436,77.595745   L 175.86436,78.195713   L 175.99769,78.929006   L 175.73103,79.795625   L 175.06437,80.728907   L 173.66439,82.062167   L 172.19774,82.928786   L 172.19774,84.195384   L 175.86436,84.195384   L 172.19774,84.195384   L 172.19774,85.395318   L 175.86436,85.395318   L 172.19774,85.395318   L 172.19774,86.795241   L 175.86436,86.795241   L 172.19774,86.795241   L 172.19774,87.995175   L 175.86436,87.995175   L 172.19774,87.995175   L 172.19774,89.195109   L 175.86436,89.195109   L 172.19774,89.195109   L 172.19774,90.461707   L 175.86436,90.461707   L 172.19774,90.461707   L 172.19774,91.728304   L 175.86436,91.728304   L 172.19774,91.728304   L 172.19774,93.061564   L 175.86436,93.061564   L 172.19774,93.061564   L 172.19774,94.261498   L 175.86436,94.261498   L 172.19774,94.261498   L 172.19774,95.528096   L 175.86436,95.528096   L 172.19774,95.528096   L 172.19774,96.72803   L 175.86436,96.72803   L 172.19774,96.72803   L 172.19774,98.127953   L 175.86436,98.127953   L 172.19774,98.127953   L 172.19774,99.327887   L 175.86436,99.327887   L 172.19774,99.327887   L 172.19774,100.66115   L 175.86436,100.66115   L 172.19774,100.66115   L 172.19774,101.72776   L 175.86436,101.72776   L 172.19774,101.72776   L 172.19774,103.12768   L 175.86436,103.12768   L 172.19774,103.12768   L 172.19774,104.39428   L 175.86436,104.39428   L 172.19774,104.39428   L 172.19774,105.72754   L 175.86436,105.72754   L 172.19774,105.72754   L 172.19774,106.92747   L 175.86436,106.92747   L 172.19774,106.92747   L 172.19774,108.06074   L 175.86436,108.06074   L 172.19774,108.06074   L 172.19774,109.394   L 175.86436,109.394   L 172.19774,109.394   L 172.19774,110.6606   L 175.86436,110.6606   L 172.19774,110.6606   L 172.19774,111.9272   L 175.86436,111.9272   L 172.19774,111.9272   L 172.19774,113.19379   L 175.86436,113.19379   L 172.19774,113.19379   L 172.19774,114.92703   L 173.46439,115.59366   L 174.59771,116.59361   L 175.33103,117.52689   L 175.5977,118.39351   L 175.53103,119.19346   L 175.1977,119.79343   L 174.59771,120.19341   L 173.79772,120.32674   L 172.93106,120.06008   L 171.99774,119.39345   L 170.79776,117.99353   L 169.99777,116.59361   L 169.06445,116.59361   L 169.06445,120.19341   L 169.06445,116.59361   L 167.7978,116.59361   L 167.7978,120.19341   L 167.7978,116.59361   L 166.46448,116.59361   L 166.46448,120.19341   L 166.46448,116.59361   L 165.19783,116.59361   L 165.19783,120.19341   L 165.19783,116.59361   L 163.93118,116.59361   L 163.93118,120.19341   L 163.93118,116.59361   L 162.7312,116.59361   L 162.7312,120.19341   L 162.7312,116.59361   L 161.39788,116.59361   L 161.39788,120.19341   L 161.39788,116.59361   L 160.13123,116.59361   L 160.13123,120.19341   L 160.13123,116.59361   L 158.86458,116.59361   L 158.86458,120.19341   L 158.86458,116.59361   L 157.6646,116.59361   L 157.6646,120.19341   L 157.6646,116.59361   L 156.39795,116.59361   L 156.39795,120.19341   L 156.39795,116.59361   L 154.99797,116.59361   L 154.99797,120.19341   L 154.99797,116.59361   L 153.73132,116.59361   L 153.73132,120.19341   L 153.73132,116.59361   L 152.398,116.59361   L 152.398,120.19341   L 152.398,116.59361   L 151.33135,116.59361   L 151.33135,120.19341   L 151.33135,116.59361   L 149.93137,116.59361   L 149.93137,120.19341   L 149.93137,116.59361   L 148.59805,116.59361   L 148.59805,120.19341   L 148.59805,116.59361   L 147.3314,116.59361   L 147.3314,120.19341   L 147.3314,116.59361   L 146.06475,116.59361   L 146.06475,120.19341   L 146.06475,116.59361   L 144.93143,116.59361   L 144.93143,120.19341   L 144.93143,116.59361   L 143.59812,116.59361   L 143.59812,120.19341   L 143.59812,116.59361   L 142.2648,116.59361   L 142.2648,120.19341   L 142.2648,116.59361   L 141.06482,116.59361   L 141.06482,120.19341   L 141.06482,116.59361   L 139.7315,116.59361   L 139.7315,120.19341   L 139.7315,116.59361   L 138.26485,116.59361   L 137.59819,118.06019   L 136.66487,119.46012   L 135.73155,120.12675   L 134.79823,120.46006   L 133.99824,120.3934   L 133.39825,119.99342   L 132.99826,119.39345   L 132.86492,118.66016   L 133.13159,117.79354   L 133.86491,116.86026   L 135.19823,115.72699   L 136.66487,114.99369   L 136.66487,114.12708   L 132.99826,114.12708   L 136.66487,114.12708   L 136.66487,112.79382   L 132.99826,112.79382   L 136.66487,112.79382   L 136.66487,111.59388   L 132.99826,111.59388   L 136.66487,111.59388   L 136.66487,110.26062   L 132.99826,110.26062   L 136.66487,110.26062   L 136.66487,110.26062   L 136.66487,108.99402   L 132.99826,108.99402   L 136.66487,108.99402   L 136.66487,107.79409   L 132.99826,107.79409   L 136.66487,107.79409   L 136.66487,106.59416   L 132.99826,106.59416   L 136.66487,106.59416   L 136.66487,105.2609   L 132.99826,105.2609   L 136.66487,105.2609   L 136.66487,103.9943   L 132.99826,103.9943   L 136.66487,103.9943   L 136.66487,102.59437   L 132.99826,102.59437   L 136.66487,102.59437   L 136.66487,101.52777   L 132.99826,101.52777   L 136.66487,101.52777   L 136.66487,100.26117   L 132.99826,100.26117   L 136.66487,100.26117   L 136.66487,98.994572   L 132.99826,98.994572   L 136.66487,98.994572   L 136.66487,97.661312   L 132.99826,97.661312   L 136.66487,97.661312   L 136.66487,96.394715   L 132.99826,96.394715   L 136.66487,96.394715   L 136.66487,95.19478   L 132.99826,95.19478   L 136.66487,95.19478   L 136.66487,93.928183   L 132.99826,93.928183   L 136.66487,93.928183   L 136.66487,92.661586   L 132.99826,92.661586   L 136.66487,92.661586   L 136.66487,91.328326   L 132.99826,91.328326   L 136.66487,91.328326   L 136.66487,90.128392   L 132.99826,90.128392   L 136.66487,90.128392   L 136.66487,88.861794   L 132.99826,88.861794   L 136.66487,88.861794   L 136.66487,87.66186   L 132.99826,87.66186   L 136.66487,87.66186   L 136.66487,86.261937   L 132.99826,86.261937   L 136.66487,86.261937   L 136.66487,85.062003   L 132.99826,85.062003   L 136.66487,85.062003   L 136.66487,83.862069   L 132.99826,83.862069   L 136.66487,83.862069   L 136.66487,83.128775   L 135.13156,82.328819   L 133.66491,81.262211   L 132.99826,80.328929   L 132.66493,79.46231   L 132.79826,78.662354   L 133.13159,77.995723   L 133.73158,77.595745   L 134.53157,77.462419   L 135.39822,77.729071   L 136.33154,78.395702   L 137.59819,79.795625   L 138.53152,81.262211   L 139.86483,81.262211   L 139.86483,77.595745   L 139.86483,81.262211   L 141.13148,81.262211   L 141.13148,77.595745   L 141.13148,81.262211   L 142.53146,81.262211   L 142.53146,77.595745   L 142.53146,81.262211   L 143.73145,81.262211   L 143.73145,77.595745   L 143.73145,81.262211   L 144.9981,81.262211   L 144.9981,77.595745   L 144.9981,81.262211   L 146.19808,81.262211   L 146.19808,77.595745   L 146.19808,81.262211   L 147.5314,81.262211   L 147.5314,77.595745   L 147.5314,81.262211   L 148.79805,81.262211   L 148.79805,77.595745   L 148.79805,81.262211   L 150.0647,81.262211   L 150.0647,77.595745   L 150.0647,81.262211   L 151.33135,81.262211   L 151.33135,77.595745   L 151.33135,81.262211   L 152.53133,81.262211   L 152.53133,77.595745   L 152.53133,81.262211   L 153.93131,81.262211   L 153.93131,77.595745   L 153.93131,81.262211   L 155.19796,81.262211   L 155.19796,77.595745   L 155.19796,81.262211   L 156.53128,81.262211   L 156.53128,77.595745   L 156.53128,81.262211   L 157.6646,81.262211   L 157.6646,77.595745   L 157.6646,81.262211   L 158.99791,81.262211   L 158.99791,77.595745   L 158.99791,81.262211   L 160.33123,81.262211   L 160.33123,77.595745   L 160.33123,81.262211   L 161.59788,81.262211   L 161.59788,77.595745   L 161.59788,81.262211   L 162.86453,81.262211   L 162.86453,77.595745   L 162.86453,81.262211   L 163.99785,81.262211   L 163.99785,77.595745   L 163.99785,81.262211   L 165.33116,81.262211   L 165.33116,77.595745   L 165.33116,81.262211   L 166.66448,81.262211   L 166.66448,77.595745   L 166.66448,81.262211   L 167.86446,81.262211   L 167.86446,77.595745   L 167.86446,81.262211   L 169.19778,81.262211   L 169.19778,77.595745   L 169.19778,81.262211   L 170.3311,81.262211  z " clip-path="url(#clipWmfPath1)" style="fill:none;stroke:#000000;stroke-width:0.066665791px;stroke-linecap:round;stroke-linejoin:round;stroke-miterlimit:4;stroke-dasharray:none;stroke-opacity:1;"/>
  <path id="path46" d="  M 170.26443,86.061948   L 170.06444,87.195219   L 169.46444,88.061838   L 168.59779,88.661805   L 167.53114,88.861794   L 166.46448,88.661805   L 165.59783,88.061838   L 164.99784,87.195219   L 164.79784,86.061948   L 164.99784,84.99534   L 165.59783,84.062058   L 166.46448,83.46209   L 167.53114,83.262101   L 168.59779,83.46209   L 169.46444,84.062058   L 170.06444,84.99534   L 170.26443,86.061948  z " clip-path="url(#clipWmfPath1)" style="fill:#ffffff;fill-rule:nonzero;fill-opacity:1;stroke:none;"/>
  <path id="path48" d="  M 170.26443,86.061948   L 170.06444,87.195219   L 169.46444,88.061838   L 168.59779,88.661805   L 167.53114,88.861794   L 166.46448,88.661805   L 165.59783,88.061838   L 164.99784,87.195219   L 164.79784,86.061948   L 164.99784,84.99534   L 165.59783,84.062058   L 166.46448,83.46209   L 167.53114,83.262101   L 168.59779,83.46209   L 169.46444,84.062058   L 170.06444,84.99534   L 170.26443,86.061948  z " clip-path="url(#clipWmfPath1)" style="fill:none;stroke:#000000;stroke-width:0.066665791px;stroke-linecap:round;stroke-linejoin:round;stroke-miterlimit:4;stroke-dasharray:none;stroke-opacity:1;"/>
  <path id="path50" d="  M 144.73143,105.46088   L 143.73145,105.32756   L 142.93146,104.86092   L 142.33147,104.19429   L 142.13147,103.46099   L 142.13147,93.994846   L 142.33147,93.261553   L 142.93146,92.728249   L 143.73145,92.328271   L 144.73143,92.194945   L 163.99785,92.194945   L 164.99784,92.328271   L 165.79782,92.794912   L 166.39782,93.394879   L 166.59781,94.128172   L 166.59781,103.52766   L 166.39782,104.26095   L 165.79782,104.92758   L 164.99784,105.32756   L 163.99785,105.46088   L 144.73143,105.46088  z " clip-path="url(#clipWmfPath1)" style="fill:#ffffff;fill-rule:nonzero;fill-opacity:1;stroke:none;"/>
  <path id="path52" d="  M 163.99785,105.99419   L 163.99785,104.92758   L 144.7981,104.92758   L 143.93144,104.86092   L 143.26479,104.46094   L 142.79813,103.92763   L 142.66479,103.39433   L 142.66479,94.061509   L 142.79813,93.528205   L 143.19812,93.128227   L 143.86478,92.794912   L 144.7981,92.728249   L 163.93118,92.728249   L 164.79784,92.794912   L 165.4645,93.19489   L 165.93116,93.661531   L 166.06449,94.194835   L 166.06449,103.46099   L 165.93116,103.9943   L 165.4645,104.5276   L 164.8645,104.86092   L 163.93118,104.92758   L 144.7981,104.92758   L 143.79811,104.79425   L 143.66478,105.86086   L 144.66477,105.99419   L 164.06451,105.99419   L 165.13117,105.7942   L 166.13115,105.32756   L 166.86448,104.5276   L 167.13114,103.59432   L 167.13114,94.061509   L 166.86448,93.128227   L 166.13115,92.394934   L 165.19783,91.86163   L 164.06451,91.661641   L 144.66477,91.661641   L 143.59812,91.86163   L 142.66479,92.328271   L 141.86481,92.994901   L 141.59814,93.928183   L 141.59814,103.52766   L 141.86481,104.46094   L 142.59813,105.2609   L 143.53145,105.7942   L 144.66477,105.99419   L 163.99785,105.99419  z " clip-path="url(#clipWmfPath1)" style="fill:#000000;fill-rule:nonzero;fill-opacity:1;stroke:#000000;stroke-width:0.066665791px;stroke-linecap:round;stroke-linejoin:round;stroke-miterlimit:4;stroke-dasharray:none;stroke-opacity:1;"/>
  <g id="g54" clip-path="url(#clipWmfPath1)"/>
  <g id="g66" clip-path="url(#clipWmfPath1)">
    <text id="text64" y="10.185188" x="0.000000" transform="matrix(1.000000,-0.000000,0.000000,1.000000,143.798113,92.661586)" style="font-size:10.687500px;font-style:normal;font-variant:normal;font-weight:400;font-stretch:Condensed;line-height:125.000000%;letter-spacing:0px;word-spacing:0px;fill:#000000;fill-opacity:1;stroke:none;font-family:Helvetica-Narrow;text-align:start;text-anchor:start;" xml:space="preserve"><tspan id="tspan62" y="10.185188" x="0.000000"><tspan id="tspan56" style="fill:#000000;font-size:10.687500px;font-style:normal;font-variant:normal;font-weight:400;font-stretch:Condensed;font-family:Helvetica-Narrow;" dy="0.000000" dx="0.000000">C</tspan><tspan id="tspan58" style="fill:#000000;font-size:10.687500px;font-style:normal;font-variant:normal;font-weight:400;font-stretch:Condensed;font-family:Helvetica-Narrow;" dy="0.000000" dx="-0.183141">P</tspan><tspan id="tspan60" style="fill:#000000;font-size:10.687500px;font-style:normal;font-variant:normal;font-weight:400;font-stretch:Condensed;font-family:Helvetica-Narrow;" dy="0.000000" dx="-0.035974">U</tspan></tspan></text>
  </g>
  <path id="path68" d="  M 117.19846,70.196151   L 117.19846,120.9267   L 115.59848,122.59328   L 65.665805,122.59328   L 65.665805,70.196151   L 117.19846,70.196151  z    M 76.332332,81.662189   L 106.53194,81.662189   L 106.53194,111.79387   L 76.332332,111.79387   L 76.332332,81.662189  z   " clip-path="url(#clipWmfPath1)" style="fill:#000000;fill-rule:evenodd;fill-opacity:1;stroke:none;"/>
  <path id="path70" d="  M 117.19846,70.196151   L 117.19846,120.9267   L 115.59848,122.59328   L 65.665805,122.59328   L 65.665805,70.196151   L 117.19846,70.196151  z " clip-path="url(#clipWmfPath1)" style="fill:none;stroke:#000000;stroke-width:0.066665791px;stroke-linecap:round;stroke-linejoin:round;stroke-miterlimit:4;stroke-dasharray:none;stroke-opacity:1;"/>
  <path id="path72" d="  M 76.332332,81.662189   L 106.53194,81.662189   L 106.53194,111.79387   L 76.332332,111.79387   L 76.332332,81.662189  z " clip-path="url(#clipWmfPath1)" style="fill:none;stroke:#000000;stroke-width:0.066665791px;stroke-linecap:round;stroke-linejoin:round;stroke-miterlimit:4;stroke-dasharray:none;stroke-opacity:1;"/>
  <path id="path74" d="  M 73.6657,120.86004   L 74.332358,120.72671   L 74.865684,120.3934   L 75.199013,119.92676   L 75.332345,119.39345   L 75.199013,118.66016   L 74.865684,118.06019   L 74.332358,117.66022   L 73.6657,117.52689   L 73.6657,116.32696   L 74.332358,116.19363   L 74.865684,115.86031   L 75.199013,115.32701   L 75.332345,114.79371   L 75.199013,114.12708   L 74.865684,113.52711   L 74.332358,113.19379   L 73.6657,113.06047   L 73.6657,111.72721   L 74.332358,111.59388   L 74.865684,111.12724   L 75.199013,110.59394   L 75.332345,109.92731   L 75.199013,109.32734   L 74.865684,108.8607   L 74.332358,108.52738   L 73.6657,108.39406   L 73.6657,107.0608   L 74.332358,106.92747   L 74.865684,106.59416   L 75.199013,106.06085   L 75.332345,105.32756   L 75.199013,104.79425   L 74.865684,104.32761   L 74.332358,103.9943   L 73.6657,103.86097   L 73.6657,102.66104   L 74.332358,102.52771   L 74.865684,102.1944   L 75.265679,101.72776   L 75.399011,101.06113   L 75.265679,100.3945   L 74.865684,99.861191   L 74.332358,99.39455   L 73.6657,99.261224   L 73.799032,98.06129   L 74.399024,97.927964   L 74.865684,97.594649   L 75.199013,97.128008   L 75.332345,96.528041   L 75.199013,95.861411   L 74.865684,95.328106   L 74.332358,94.994791   L 73.6657,94.861465   L 73.6657,93.661531   L 74.332358,93.528205   L 74.865684,93.19489   L 75.199013,92.661586   L 75.332345,91.994956   L 75.199013,91.394989   L 74.865684,90.928348   L 74.332358,90.595033   L 73.6657,90.461707   L 73.6657,89.061783   L 74.332358,88.928457   L 74.865684,88.595142   L 75.199013,88.061838   L 75.332345,87.461871   L 75.199013,86.795241   L 74.865684,86.195274   L 74.332358,85.861959   L 73.6657,85.728633   L 73.6657,84.528699   L 74.332358,84.395373   L 74.865684,84.062058   L 75.199013,83.528753   L 75.332345,82.928786   L 75.199013,82.262156   L 74.865684,81.662189   L 74.332358,81.262211   L 73.6657,81.128885   L 73.6657,79.995614   L 74.332358,79.862288   L 74.865684,79.595636   L 75.265679,79.128995   L 75.399011,78.529028   L 75.265679,77.795734   L 74.865684,77.26243   L 74.332358,76.862452   L 73.6657,76.729126   L 73.6657,75.529192   L 74.332358,75.395866   L 74.865684,74.995888   L 75.265679,74.395921   L 75.399011,73.729291   L 75.265679,73.062661   L 74.93235,72.529357   L 74.399024,72.196041   L 73.799032,72.062715   L 73.065708,72.196041   L 72.465716,72.529357   L 71.999055,73.062661   L 71.865724,73.729291   L 71.999055,74.395921   L 72.39905,74.995888   L 72.932376,75.395866   L 73.6657,75.529192   L 73.6657,76.729126   L 72.932376,76.862452   L 72.332384,77.195767   L 71.93239,77.729071   L 71.799058,78.462365   L 71.93239,79.062332   L 72.332384,79.528973   L 72.932376,79.862288   L 73.6657,79.995614   L 73.6657,81.128885   L 72.932376,81.262211   L 72.332384,81.662189   L 71.93239,82.262156   L 71.799058,82.928786   L 71.93239,83.528753   L 72.332384,84.062058   L 72.932376,84.395373   L 73.6657,84.528699   L 73.6657,85.728633   L 72.932376,85.861959   L 72.332384,86.195274   L 71.93239,86.795241   L 71.799058,87.461871   L 71.93239,88.061838   L 72.332384,88.595142   L 72.932376,88.928457   L 73.6657,89.061783   L 73.6657,90.461707   L 72.932376,90.595033   L 72.332384,90.928348   L 71.93239,91.394989   L 71.799058,91.994956   L 71.93239,92.661586   L 72.332384,93.19489   L 72.932376,93.528205   L 73.6657,93.661531   L 73.6657,94.861465   L 72.932376,94.994791   L 72.332384,95.328106   L 71.93239,95.861411   L 71.799058,96.528041   L 71.93239,97.128008   L 72.39905,97.594649   L 73.065708,97.927964   L 73.799032,98.06129   L 73.6657,99.261224   L 72.932376,99.39455   L 72.332384,99.794528   L 71.93239,100.32783   L 71.799058,100.9278   L 71.93239,101.59443   L 72.332384,102.1944   L 72.932376,102.52771   L 73.6657,102.66104   L 73.6657,103.86097   L 72.932376,103.9943   L 72.332384,104.32761   L 71.93239,104.79425   L 71.799058,105.32756   L 71.93239,106.06085   L 72.332384,106.59416   L 72.932376,106.92747   L 73.6657,107.0608   L 73.6657,108.39406   L 72.932376,108.52738   L 72.332384,108.8607   L 71.93239,109.32734   L 71.799058,109.92731   L 71.93239,110.59394   L 72.332384,111.12724   L 72.932376,111.59388   L 73.6657,111.72721   L 73.6657,113.06047   L 72.932376,113.19379   L 72.332384,113.52711   L 71.93239,114.12708   L 71.799058,114.79371   L 71.93239,115.32701   L 72.332384,115.86031   L 72.932376,116.19363   L 73.6657,116.32696   L 73.6657,117.52689   L 72.932376,117.66022   L 72.332384,118.06019   L 71.93239,118.66016   L 71.799058,119.39345   L 71.93239,119.92676   L 72.332384,120.3934   L 72.932376,120.72671   L 73.6657,120.86004  z " clip-path="url(#clipWmfPath1)" style="fill:#f7f7f7;fill-rule:nonzero;fill-opacity:1;stroke:none;"/>
  <path id="path76" d="  M 73.6657,120.86004   L 74.332358,120.72671   L 74.865684,120.3934   L 75.199013,119.92676   L 75.332345,119.39345   L 75.199013,118.66016   L 74.865684,118.06019   L 74.332358,117.66022   L 73.6657,117.52689   L 73.6657,116.32696   L 74.332358,116.19363   L 74.865684,115.86031   L 75.199013,115.32701   L 75.332345,114.79371   L 75.199013,114.12708   L 74.865684,113.52711   L 74.332358,113.19379   L 73.6657,113.06047   L 73.6657,111.72721   L 74.332358,111.59388   L 74.865684,111.12724   L 75.199013,110.59394   L 75.332345,109.92731   L 75.199013,109.32734   L 74.865684,108.8607   L 74.332358,108.52738   L 73.6657,108.39406   L 73.6657,107.0608   L 74.332358,106.92747   L 74.865684,106.59416   L 75.199013,106.06085   L 75.332345,105.32756   L 75.199013,104.79425   L 74.865684,104.32761   L 74.332358,103.9943   L 73.6657,103.86097   L 73.6657,102.66104   L 74.332358,102.52771   L 74.865684,102.1944   L 75.265679,101.72776   L 75.399011,101.06113   L 75.265679,100.3945   L 74.865684,99.861191   L 74.332358,99.39455   L 73.6657,99.261224   L 73.799032,98.06129   L 74.399024,97.927964   L 74.865684,97.594649   L 75.199013,97.128008   L 75.332345,96.528041   L 75.199013,95.861411   L 74.865684,95.328106   L 74.332358,94.994791   L 73.6657,94.861465   L 73.6657,93.661531   L 74.332358,93.528205   L 74.865684,93.19489   L 75.199013,92.661586   L 75.332345,91.994956   L 75.199013,91.394989   L 74.865684,90.928348   L 74.332358,90.595033   L 73.6657,90.461707   L 73.6657,89.061783   L 74.332358,88.928457   L 74.865684,88.595142   L 75.199013,88.061838   L 75.332345,87.461871   L 75.199013,86.795241   L 74.865684,86.195274   L 74.332358,85.861959   L 73.6657,85.728633   L 73.6657,84.528699   L 74.332358,84.395373   L 74.865684,84.062058   L 75.199013,83.528753   L 75.332345,82.928786   L 75.199013,82.262156   L 74.865684,81.662189   L 74.332358,81.262211   L 73.6657,81.128885   L 73.6657,79.995614   L 74.332358,79.862288   L 74.865684,79.595636   L 75.265679,79.128995   L 75.399011,78.529028   L 75.265679,77.795734   L 74.865684,77.26243   L 74.332358,76.862452   L 73.6657,76.729126   L 73.6657,75.529192   L 74.332358,75.395866   L 74.865684,74.995888   L 75.265679,74.395921   L 75.399011,73.729291   L 75.265679,73.062661   L 74.93235,72.529357   L 74.399024,72.196041   L 73.799032,72.062715   L 73.065708,72.196041   L 72.465716,72.529357   L 71.999055,73.062661   L 71.865724,73.729291   L 71.999055,74.395921   L 72.39905,74.995888   L 72.932376,75.395866   L 73.6657,75.529192   L 73.6657,76.729126   L 72.932376,76.862452   L 72.332384,77.195767   L 71.93239,77.729071   L 71.799058,78.462365   L 71.93239,79.062332   L 72.332384,79.528973   L 72.932376,79.862288   L 73.6657,79.995614   L 73.6657,81.128885   L 72.932376,81.262211   L 72.332384,81.662189   L 71.93239,82.262156   L 71.799058,82.928786   L 71.93239,83.528753   L 72.332384,84.062058   L 72.932376,84.395373   L 73.6657,84.528699   L 73.6657,85.728633   L 72.932376,85.861959   L 72.332384,86.195274   L 71.93239,86.795241   L 71.799058,87.461871   L 71.93239,88.061838   L 72.332384,88.595142   L 72.932376,88.928457   L 73.6657,89.061783   L 73.6657,90.461707   L 72.932376,90.595033   L 72.332384,90.928348   L 71.93239,91.394989   L 71.799058,91.994956   L 71.93239,92.661586   L 72.332384,93.19489   L 72.932376,93.528205   L 73.6657,93.661531   L 73.6657,94.861465   L 72.932376,94.994791   L 72.332384,95.328106   L 71.93239,95.861411   L 71.799058,96.528041   L 71.93239,97.128008   L 72.39905,97.594649   L 73.065708,97.927964   L 73.799032,98.06129   L 73.6657,99.261224   L 72.932376,99.39455   L 72.332384,99.794528   L 71.93239,100.32783   L 71.799058,100.9278   L 71.93239,101.59443   L 72.332384,102.1944   L 72.932376,102.52771   L 73.6657,102.66104   L 73.6657,103.86097   L 72.932376,103.9943   L 72.332384,104.32761   L 71.93239,104.79425   L 71.799058,105.32756   L 71.93239,106.06085   L 72.332384,106.59416   L 72.932376,106.92747   L 73.6657,107.0608   L 73.6657,108.39406   L 72.932376,108.52738   L 72.332384,108.8607   L 71.93239,109.32734   L 71.799058,109.92731   L 71.93239,110.59394   L 72.332384,111.12724   L 72.932376,111.59388   L 73.6657,111.72721   L 73.6657,113.06047   L 72.932376,113.19379   L 72.332384,113.52711   L 71.93239,114.12708   L 71.799058,114.79371   L 71.93239,115.32701   L 72.332384,115.86031   L 72.932376,116.19363   L 73.6657,116.32696   L 73.6657,117.52689   L 72.932376,117.66022   L 72.332384,118.06019   L 71.93239,118.66016   L 71.799058,119.39345   L 71.93239,119.92676   L 72.332384,120.3934   L 72.932376,120.72671   L 73.6657,120.86004  z " clip-path="url(#clipWmfPath1)" style="fill:none;stroke:#000000;stroke-width:0.066665791px;stroke-linecap:round;stroke-linejoin:round;stroke-miterlimit:4;stroke-dasharray:none;stroke-opacity:1;"/>
  <path id="path78" d="  M 69.06576,120.9267   L 69.665753,120.79338   L 70.199079,120.46006   L 70.532408,119.99342   L 70.66574,119.46012   L 70.532408,118.72682   L 70.199079,118.12686   L 69.665753,117.72688   L 69.06576,117.59355   L 69.06576,116.39362   L 69.665753,116.26029   L 70.199079,115.92698   L 70.532408,115.39367   L 70.66574,114.86037   L 70.532408,114.19374   L 70.199079,113.66043   L 69.665753,113.26046   L 69.06576,113.12713   L 69.06576,111.79387   L 69.665753,111.66054   L 70.199079,111.26057   L 70.532408,110.6606   L 70.66574,109.99397   L 70.532408,109.46066   L 70.199079,108.99402   L 69.665753,108.66071   L 69.06576,108.52738   L 69.06576,107.12746   L 69.665753,106.99413   L 70.199079,106.66082   L 70.532408,106.12751   L 70.66574,105.39422   L 70.532408,104.86092   L 70.199079,104.39428   L 69.665753,104.06096   L 69.06576,103.92763   L 69.06576,102.7277   L 70.265745,102.26106   L 70.66574,101.79442   L 70.799071,101.12779   L 70.66574,100.46116   L 70.265745,99.927854   L 69.732418,99.461213   L 69.06576,99.327887   L 69.132426,98.127953   L 69.732418,97.994627   L 70.199079,97.661312   L 70.532408,97.194671   L 70.66574,96.594704   L 70.532408,95.928074   L 70.199079,95.394769   L 69.665753,95.061454   L 69.06576,94.928128   L 69.06576,93.728194   L 69.665753,93.594868   L 70.199079,93.261553   L 70.532408,92.728249   L 70.66574,92.061619   L 70.532408,91.461652   L 70.199079,90.995011   L 69.665753,90.661696   L 69.06576,90.52837   L 69.06576,89.128446   L 69.665753,88.99512   L 70.199079,88.661805   L 70.532408,88.128501   L 70.66574,87.461871   L 70.532408,86.795241   L 70.199079,86.261937   L 69.665753,85.928622   L 69.06576,85.795296   L 69.06576,84.595362   L 69.665753,84.462036   L 70.199079,84.128721   L 70.532408,83.595416   L 70.66574,82.995449   L 70.532408,82.328819   L 70.199079,81.728852   L 69.665753,81.328874   L 69.06576,81.195548   L 69.06576,80.062277   L 70.265745,79.662299   L 70.66574,79.195658   L 70.799071,78.595691   L 70.66574,77.862397   L 70.265745,77.329093   L 69.06576,76.795789   L 69.06576,75.595855   L 69.732418,75.462529   L 70.265745,75.062551   L 70.66574,74.529247   L 70.799071,73.795954   L 70.66574,73.129324   L 70.265745,72.59602   L 69.732418,72.262704   L 69.132426,72.129378   L 68.399103,72.262704   L 67.865776,72.59602   L 67.465781,73.129324   L 67.33245,73.795954   L 67.465781,74.529247   L 67.79911,75.062551   L 68.332437,75.462529   L 69.06576,75.595855   L 69.06576,76.795789   L 68.332437,76.929115   L 67.79911,77.26243   L 67.399116,77.795734   L 67.265784,78.529028   L 67.399116,79.128995   L 67.79911,79.595636   L 68.332437,79.928951   L 69.06576,80.062277   L 69.06576,81.195548   L 68.332437,81.328874   L 67.79911,81.728852   L 67.399116,82.328819   L 67.265784,82.995449   L 67.399116,83.595416   L 67.79911,84.128721   L 68.332437,84.462036   L 69.06576,84.595362   L 69.06576,85.795296   L 68.332437,85.928622   L 67.79911,86.261937   L 67.399116,86.795241   L 67.265784,87.461871   L 67.399116,88.128501   L 67.79911,88.661805   L 68.332437,88.99512   L 69.06576,89.128446   L 69.06576,90.52837   L 68.332437,90.661696   L 67.79911,90.995011   L 67.399116,91.461652   L 67.265784,92.061619   L 67.399116,92.728249   L 67.79911,93.261553   L 68.332437,93.594868   L 69.06576,93.728194   L 69.06576,94.928128   L 68.332437,95.061454   L 67.79911,95.394769   L 67.399116,95.928074   L 67.265784,96.594704   L 67.399116,97.194671   L 67.79911,97.661312   L 68.399103,97.994627   L 69.132426,98.127953   L 69.06576,99.327887   L 68.332437,99.461213   L 67.79911,99.861191   L 67.399116,100.3945   L 67.265784,100.99446   L 67.399116,101.66109   L 67.79911,102.26106   L 68.332437,102.59437   L 69.06576,102.7277   L 69.06576,103.92763   L 68.332437,104.06096   L 67.79911,104.39428   L 67.399116,104.86092   L 67.265784,105.39422   L 67.399116,106.12751   L 67.79911,106.66082   L 68.332437,106.99413   L 69.06576,107.12746   L 69.06576,108.52738   L 68.332437,108.66071   L 67.79911,108.99402   L 67.399116,109.46066   L 67.265784,109.99397   L 67.399116,110.6606   L 67.79911,111.26057   L 68.332437,111.66054   L 69.06576,111.79387   L 69.06576,113.12713   L 68.332437,113.26046   L 67.79911,113.66043   L 67.399116,114.19374   L 67.265784,114.86037   L 67.399116,115.39367   L 67.79911,115.92698   L 68.332437,116.26029   L 69.06576,116.39362   L 69.06576,117.59355   L 68.332437,117.72688   L 67.79911,118.12686   L 67.399116,118.72682   L 67.265784,119.46012   L 67.399116,119.99342   L 67.79911,120.46006   L 68.332437,120.79338   L 69.06576,120.9267  z " clip-path="url(#clipWmfPath1)" style="fill:#f7f7f7;fill-rule:nonzero;fill-opacity:1;stroke:none;"/>
  <path id="path80" d="  M 69.06576,120.9267   L 69.665753,120.79338   L 70.199079,120.46006   L 70.532408,119.99342   L 70.66574,119.46012   L 70.532408,118.72682   L 70.199079,118.12686   L 69.665753,117.72688   L 69.06576,117.59355   L 69.06576,116.39362   L 69.665753,116.26029   L 70.199079,115.92698   L 70.532408,115.39367   L 70.66574,114.86037   L 70.532408,114.19374   L 70.199079,113.66043   L 69.665753,113.26046   L 69.06576,113.12713   L 69.06576,111.79387   L 69.665753,111.66054   L 70.199079,111.26057   L 70.532408,110.6606   L 70.66574,109.99397   L 70.532408,109.46066   L 70.199079,108.99402   L 69.665753,108.66071   L 69.06576,108.52738   L 69.06576,107.12746   L 69.665753,106.99413   L 70.199079,106.66082   L 70.532408,106.12751   L 70.66574,105.39422   L 70.532408,104.86092   L 70.199079,104.39428   L 69.665753,104.06096   L 69.06576,103.92763   L 69.06576,102.7277   L 70.265745,102.26106   L 70.66574,101.79442   L 70.799071,101.12779   L 70.66574,100.46116   L 70.265745,99.927854   L 69.732418,99.461213   L 69.06576,99.327887   L 69.132426,98.127953   L 69.732418,97.994627   L 70.199079,97.661312   L 70.532408,97.194671   L 70.66574,96.594704   L 70.532408,95.928074   L 70.199079,95.394769   L 69.665753,95.061454   L 69.06576,94.928128   L 69.06576,93.728194   L 69.665753,93.594868   L 70.199079,93.261553   L 70.532408,92.728249   L 70.66574,92.061619   L 70.532408,91.461652   L 70.199079,90.995011   L 69.665753,90.661696   L 69.06576,90.52837   L 69.06576,89.128446   L 69.665753,88.99512   L 70.199079,88.661805   L 70.532408,88.128501   L 70.66574,87.461871   L 70.532408,86.795241   L 70.199079,86.261937   L 69.665753,85.928622   L 69.06576,85.795296   L 69.06576,84.595362   L 69.665753,84.462036   L 70.199079,84.128721   L 70.532408,83.595416   L 70.66574,82.995449   L 70.532408,82.328819   L 70.199079,81.728852   L 69.665753,81.328874   L 69.06576,81.195548   L 69.06576,80.062277   L 70.265745,79.662299   L 70.66574,79.195658   L 70.799071,78.595691   L 70.66574,77.862397   L 70.265745,77.329093   L 69.06576,76.795789   L 69.06576,75.595855   L 69.732418,75.462529   L 70.265745,75.062551   L 70.66574,74.529247   L 70.799071,73.795954   L 70.66574,73.129324   L 70.265745,72.59602   L 69.732418,72.262704   L 69.132426,72.129378   L 68.399103,72.262704   L 67.865776,72.59602   L 67.465781,73.129324   L 67.33245,73.795954   L 67.465781,74.529247   L 67.79911,75.062551   L 68.332437,75.462529   L 69.06576,75.595855   L 69.06576,76.795789   L 68.332437,76.929115   L 67.79911,77.26243   L 67.399116,77.795734   L 67.265784,78.529028   L 67.399116,79.128995   L 67.79911,79.595636   L 68.332437,79.928951   L 69.06576,80.062277   L 69.06576,81.195548   L 68.332437,81.328874   L 67.79911,81.728852   L 67.399116,82.328819   L 67.265784,82.995449   L 67.399116,83.595416   L 67.79911,84.128721   L 68.332437,84.462036   L 69.06576,84.595362   L 69.06576,85.795296   L 68.332437,85.928622   L 67.79911,86.261937   L 67.399116,86.795241   L 67.265784,87.461871   L 67.399116,88.128501   L 67.79911,88.661805   L 68.332437,88.99512   L 69.06576,89.128446   L 69.06576,90.52837   L 68.332437,90.661696   L 67.79911,90.995011   L 67.399116,91.461652   L 67.265784,92.061619   L 67.399116,92.728249   L 67.79911,93.261553   L 68.332437,93.594868   L 69.06576,93.728194   L 69.06576,94.928128   L 68.332437,95.061454   L 67.79911,95.394769   L 67.399116,95.928074   L 67.265784,96.594704   L 67.399116,97.194671   L 67.79911,97.661312   L 68.399103,97.994627   L 69.132426,98.127953   L 69.06576,99.327887   L 68.332437,99.461213   L 67.79911,99.861191   L 67.399116,100.3945   L 67.265784,100.99446   L 67.399116,101.66109   L 67.79911,102.26106   L 68.332437,102.59437   L 69.06576,102.7277   L 69.06576,103.92763   L 68.332437,104.06096   L 67.79911,104.39428   L 67.399116,104.86092   L 67.265784,105.39422   L 67.399116,106.12751   L 67.79911,106.66082   L 68.332437,106.99413   L 69.06576,107.12746   L 69.06576,108.52738   L 68.332437,108.66071   L 67.79911,108.99402   L 67.399116,109.46066   L 67.265784,109.99397   L 67.399116,110.6606   L 67.79911,111.26057   L 68.332437,111.66054   L 69.06576,111.79387   L 69.06576,113.12713   L 68.332437,113.26046   L 67.79911,113.66043   L 67.399116,114.19374   L 67.265784,114.86037   L 67.399116,115.39367   L 67.79911,115.92698   L 68.332437,116.26029   L 69.06576,116.39362   L 69.06576,117.59355   L 68.332437,117.72688   L 67.79911,118.12686   L 67.399116,118.72682   L 67.265784,119.46012   L 67.399116,119.99342   L 67.79911,120.46006   L 68.332437,120.79338   L 69.06576,120.9267  z " clip-path="url(#clipWmfPath1)" style="fill:none;stroke:#000000;stroke-width:0.066665791px;stroke-linecap:round;stroke-linejoin:round;stroke-miterlimit:4;stroke-dasharray:none;stroke-opacity:1;"/>
  <path id="path82" d="  M 78.065642,72.196041   L 77.398984,72.329368   L 76.865658,72.729346   L 76.465663,73.26265   L 76.332332,73.862617   L 76.465663,74.59591   L 76.798992,75.26254   L 77.332319,75.662518   L 77.865645,75.795844   L 77.865645,77.26243   L 77.332319,77.395756   L 76.798992,77.795734   L 76.465663,78.329039   L 76.332332,79.062332   L 76.465663,79.662299   L 76.798992,80.12894   L 77.332319,80.395592   L 77.865645,80.528918   L 78.532303,80.395592   L 78.998964,80.062277   L 79.332292,79.46231   L 79.398958,78.79568   L 80.79894,78.79568   L 80.932271,79.46231   L 81.2656,80.062277   L 81.798927,80.395592   L 82.53225,80.528918   L 83.198908,80.395592   L 83.665569,80.062277   L 83.998898,79.46231   L 84.132229,78.79568   L 85.265548,78.79568   L 85.39888,79.46231   L 85.798874,80.062277   L 86.265535,80.395592   L 86.865527,80.528918   L 87.598851,80.395592   L 88.132177,80.062277   L 88.532172,79.46231   L 88.665503,78.79568   L 89.798822,78.79568   L 89.932153,79.46231   L 90.265482,80.062277   L 90.798809,80.395592   L 91.465467,80.528918   L 92.19879,80.395592   L 92.732117,80.062277   L 93.132111,79.46231   L 93.265443,78.79568   L 94.398761,78.79568   L 94.532093,79.46231   L 94.865422,80.062277   L 95.398748,80.395592   L 96.065406,80.528918   L 96.665398,80.395592   L 97.198725,80.062277   L 97.532054,79.46231   L 97.665385,78.79568   L 98.998701,78.79568   L 99.132033,79.46231   L 99.465362,80.062277   L 99.998688,80.395592   L 100.59868,80.528918   L 101.26534,80.395592   L 101.79866,80.062277   L 102.13199,79.46231   L 102.26532,78.79568   L 103.46531,78.79568   L 103.59864,79.46231   L 103.93197,80.062277   L 104.4653,80.395592   L 105.13195,80.528918   L 105.79861,80.395592   L 106.33194,80.062277   L 106.73193,79.46231   L 106.86526,78.79568   L 106.73193,78.12905   L 106.33194,77.595745   L 105.79861,77.195767   L 105.13195,77.062441   L 104.4653,77.195767   L 103.93197,77.595745   L 103.46531,78.79568   L 102.26532,78.79568   L 102.13199,78.12905   L 101.79866,77.595745   L 101.26534,77.195767   L 100.59868,77.062441   L 99.998688,77.195767   L 99.465362,77.595745   L 99.132033,78.12905   L 98.998701,78.79568   L 97.665385,78.79568   L 97.532054,78.12905   L 97.198725,77.595745   L 96.665398,77.195767   L 96.065406,77.062441   L 95.398748,77.195767   L 94.865422,77.595745   L 94.532093,78.12905   L 94.398761,78.79568   L 93.265443,78.79568   L 93.132111,78.12905   L 92.732117,77.595745   L 92.19879,77.195767   L 91.465467,77.062441   L 90.798809,77.195767   L 90.265482,77.595745   L 89.798822,78.79568   L 88.665503,78.79568   L 88.532172,78.12905   L 88.132177,77.595745   L 87.598851,77.129104   L 86.865527,76.995778   L 86.332201,77.129104   L 85.798874,77.595745   L 85.39888,78.12905   L 85.265548,78.79568   L 84.132229,78.79568   L 83.998898,78.12905   L 83.665569,77.595745   L 83.198908,77.195767   L 82.53225,77.062441   L 81.798927,77.195767   L 81.2656,77.595745   L 80.79894,78.79568   L 79.398958,78.79568   L 79.332292,78.195713   L 78.998964,77.729071   L 78.532303,77.395756   L 77.865645,77.26243   L 77.865645,75.795844   L 78.532303,75.662518   L 79.065629,75.26254   L 79.398958,74.59591   L 79.53229,73.862617   L 80.865606,73.862617   L 80.998937,74.59591   L 81.2656,75.26254   L 81.798927,75.662518   L 82.53225,75.795844   L 83.198908,75.662518   L 83.665569,75.26254   L 83.998898,74.59591   L 84.132229,73.862617   L 85.332214,73.862617   L 85.465545,74.59591   L 85.798874,75.26254   L 86.265535,75.662518   L 86.865527,75.795844   L 87.598851,75.662518   L 88.132177,75.26254   L 88.532172,74.59591   L 88.665503,73.862617   L 89.865488,73.862617   L 89.998819,74.59591   L 90.265482,75.26254   L 90.798809,75.662518   L 91.465467,75.795844   L 92.19879,75.662518   L 92.732117,75.26254   L 93.132111,74.59591   L 93.265443,73.862617   L 94.465427,73.862617   L 94.598759,74.59591   L 94.932088,75.26254   L 95.398748,75.662518   L 96.065406,75.795844   L 96.732064,75.662518   L 97.265391,75.26254   L 97.665385,74.59591   L 97.798717,73.862617   L 99.065367,73.862617   L 99.198698,74.59591   L 99.532027,75.26254   L 99.998688,75.662518   L 100.59868,75.795844   L 101.26534,75.662518   L 101.79866,75.26254   L 102.13199,74.59591   L 102.26532,73.862617   L 103.53197,73.862617   L 103.66531,74.59591   L 103.93197,75.26254   L 104.4653,75.662518   L 105.13195,75.795844   L 105.79861,75.662518   L 106.3986,75.26254   L 106.86526,74.59591   L 106.9986,73.862617   L 106.86526,73.26265   L 106.46527,72.729346   L 105.86528,72.329368   L 105.13195,72.196041   L 104.4653,72.329368   L 103.99864,72.729346   L 103.53197,73.862617   L 102.26532,73.862617   L 102.13199,73.26265   L 101.79866,72.729346   L 101.26534,72.329368   L 100.59868,72.196041   L 99.998688,72.329368   L 99.532027,72.729346   L 99.198698,73.26265   L 99.065367,73.862617   L 97.798717,73.862617   L 97.665385,73.26265   L 97.265391,72.729346   L 96.132072,72.196041   L 95.53208,72.329368   L 94.998754,72.729346   L 94.598759,73.26265   L 94.465427,73.862617   L 93.265443,73.862617   L 93.132111,73.26265   L 92.798782,72.729346   L 92.19879,72.329368   L 91.532132,72.196041   L 90.865474,72.329368   L 90.332148,72.729346   L 89.998819,73.26265   L 89.865488,73.862617   L 88.665503,73.862617   L 88.532172,73.195987   L 88.198843,72.662683   L 87.665516,72.262704   L 86.998859,72.129378   L 86.398866,72.262704   L 85.86554,72.662683   L 85.465545,73.195987   L 85.332214,73.862617   L 84.132229,73.862617   L 83.998898,73.26265   L 83.732235,72.729346   L 83.265574,72.329368   L 82.598916,72.196041   L 81.865593,72.329368   L 81.332266,72.729346   L 80.865606,73.862617   L 79.53229,73.862617   L 79.398958,73.26265   L 79.132295,72.729346   L 78.665635,72.329368   L 78.065642,72.196041   L 78.065642,72.196041  z " clip-path="url(#clipWmfPath1)" style="fill:#f7f7f7;fill-rule:nonzero;fill-opacity:1;stroke:none;"/>
  <path id="path84" d="  M 78.065642,72.196041   L 77.398984,72.329368   L 76.865658,72.729346   L 76.465663,73.26265   L 76.332332,73.862617   L 76.465663,74.59591   L 76.798992,75.26254   L 77.332319,75.662518   L 77.865645,75.795844   L 77.865645,77.26243   L 77.332319,77.395756   L 76.798992,77.795734   L 76.465663,78.329039   L 76.332332,79.062332   L 76.465663,79.662299   L 76.798992,80.12894   L 77.332319,80.395592   L 77.865645,80.528918   L 78.532303,80.395592   L 78.998964,80.062277   L 79.332292,79.46231   L 79.398958,78.79568   L 80.79894,78.79568   L 80.932271,79.46231   L 81.2656,80.062277   L 81.798927,80.395592   L 82.53225,80.528918   L 83.198908,80.395592   L 83.665569,80.062277   L 83.998898,79.46231   L 84.132229,78.79568   L 85.265548,78.79568   L 85.39888,79.46231   L 85.798874,80.062277   L 86.265535,80.395592   L 86.865527,80.528918   L 87.598851,80.395592   L 88.132177,80.062277   L 88.532172,79.46231   L 88.665503,78.79568   L 89.798822,78.79568   L 89.932153,79.46231   L 90.265482,80.062277   L 90.798809,80.395592   L 91.465467,80.528918   L 92.19879,80.395592   L 92.732117,80.062277   L 93.132111,79.46231   L 93.265443,78.79568   L 94.398761,78.79568   L 94.532093,79.46231   L 94.865422,80.062277   L 95.398748,80.395592   L 96.065406,80.528918   L 96.665398,80.395592   L 97.198725,80.062277   L 97.532054,79.46231   L 97.665385,78.79568   L 98.998701,78.79568   L 99.132033,79.46231   L 99.465362,80.062277   L 99.998688,80.395592   L 100.59868,80.528918   L 101.26534,80.395592   L 101.79866,80.062277   L 102.13199,79.46231   L 102.26532,78.79568   L 103.46531,78.79568   L 103.59864,79.46231   L 103.93197,80.062277   L 104.4653,80.395592   L 105.13195,80.528918   L 105.79861,80.395592   L 106.33194,80.062277   L 106.73193,79.46231   L 106.86526,78.79568   L 106.73193,78.12905   L 106.33194,77.595745   L 105.79861,77.195767   L 105.13195,77.062441   L 104.4653,77.195767   L 103.93197,77.595745   L 103.46531,78.79568   L 102.26532,78.79568   L 102.13199,78.12905   L 101.79866,77.595745   L 101.26534,77.195767   L 100.59868,77.062441   L 99.998688,77.195767   L 99.465362,77.595745   L 99.132033,78.12905   L 98.998701,78.79568   L 97.665385,78.79568   L 97.532054,78.12905   L 97.198725,77.595745   L 96.665398,77.195767   L 96.065406,77.062441   L 95.398748,77.195767   L 94.865422,77.595745   L 94.532093,78.12905   L 94.398761,78.79568   L 93.265443,78.79568   L 93.132111,78.12905   L 92.732117,77.595745   L 92.19879,77.195767   L 91.465467,77.062441   L 90.798809,77.195767   L 90.265482,77.595745   L 89.798822,78.79568   L 88.665503,78.79568   L 88.532172,78.12905   L 88.132177,77.595745   L 87.598851,77.129104   L 86.865527,76.995778   L 86.332201,77.129104   L 85.798874,77.595745   L 85.39888,78.12905   L 85.265548,78.79568   L 84.132229,78.79568   L 83.998898,78.12905   L 83.665569,77.595745   L 83.198908,77.195767   L 82.53225,77.062441   L 81.798927,77.195767   L 81.2656,77.595745   L 80.79894,78.79568   L 79.398958,78.79568   L 79.332292,78.195713   L 78.998964,77.729071   L 78.532303,77.395756   L 77.865645,77.26243   L 77.865645,75.795844   L 78.532303,75.662518   L 79.065629,75.26254   L 79.398958,74.59591   L 79.53229,73.862617   L 80.865606,73.862617   L 80.998937,74.59591   L 81.2656,75.26254   L 81.798927,75.662518   L 82.53225,75.795844   L 83.198908,75.662518   L 83.665569,75.26254   L 83.998898,74.59591   L 84.132229,73.862617   L 85.332214,73.862617   L 85.465545,74.59591   L 85.798874,75.26254   L 86.265535,75.662518   L 86.865527,75.795844   L 87.598851,75.662518   L 88.132177,75.26254   L 88.532172,74.59591   L 88.665503,73.862617   L 89.865488,73.862617   L 89.998819,74.59591   L 90.265482,75.26254   L 90.798809,75.662518   L 91.465467,75.795844   L 92.19879,75.662518   L 92.732117,75.26254   L 93.132111,74.59591   L 93.265443,73.862617   L 94.465427,73.862617   L 94.598759,74.59591   L 94.932088,75.26254   L 95.398748,75.662518   L 96.065406,75.795844   L 96.732064,75.662518   L 97.265391,75.26254   L 97.665385,74.59591   L 97.798717,73.862617   L 99.065367,73.862617   L 99.198698,74.59591   L 99.532027,75.26254   L 99.998688,75.662518   L 100.59868,75.795844   L 101.26534,75.662518   L 101.79866,75.26254   L 102.13199,74.59591   L 102.26532,73.862617   L 103.53197,73.862617   L 103.66531,74.59591   L 103.93197,75.26254   L 104.4653,75.662518   L 105.13195,75.795844   L 105.79861,75.662518   L 106.3986,75.26254   L 106.86526,74.59591   L 106.9986,73.862617   L 106.86526,73.26265   L 106.46527,72.729346   L 105.86528,72.329368   L 105.13195,72.196041   L 104.4653,72.329368   L 103.99864,72.729346   L 103.53197,73.862617   L 102.26532,73.862617   L 102.13199,73.26265   L 101.79866,72.729346   L 101.26534,72.329368   L 100.59868,72.196041   L 99.998688,72.329368   L 99.532027,72.729346   L 99.198698,73.26265   L 99.065367,73.862617   L 97.798717,73.862617   L 97.665385,73.26265   L 97.265391,72.729346   L 96.132072,72.196041   L 95.53208,72.329368   L 94.998754,72.729346   L 94.598759,73.26265   L 94.465427,73.862617   L 93.265443,73.862617   L 93.132111,73.26265   L 92.798782,72.729346   L 92.19879,72.329368   L 91.532132,72.196041   L 90.865474,72.329368   L 90.332148,72.729346   L 89.998819,73.26265   L 89.865488,73.862617   L 88.665503,73.862617   L 88.532172,73.195987   L 88.198843,72.662683   L 87.665516,72.262704   L 86.998859,72.129378   L 86.398866,72.262704   L 85.86554,72.662683   L 85.465545,73.195987   L 85.332214,73.862617   L 84.132229,73.862617   L 83.998898,73.26265   L 83.732235,72.729346   L 83.265574,72.329368   L 82.598916,72.196041   L 81.865593,72.329368   L 81.332266,72.729346   L 80.865606,73.862617   L 79.53229,73.862617   L 79.398958,73.26265   L 79.132295,72.729346   L 78.665635,72.329368   L 78.065642,72.196041   L 78.065642,72.196041  z " clip-path="url(#clipWmfPath1)" style="fill:none;stroke:#000000;stroke-width:0.066665791px;stroke-linecap:round;stroke-linejoin:round;stroke-miterlimit:4;stroke-dasharray:none;stroke-opacity:1;"/>
  <path id="path86" d="  M 109.26523,72.262704   L 108.59858,72.396031   L 108.06525,72.796009   L 107.73192,73.26265   L 107.59859,73.795954   L 107.73192,74.529247   L 108.06525,75.129214   L 108.59858,75.529192   L 109.26523,75.662518   L 109.26523,76.862452   L 108.59858,76.995778   L 108.06525,77.329093   L 107.73192,77.795734   L 107.59859,78.395702   L 107.73192,79.062332   L 108.06525,79.662299   L 108.59858,80.062277   L 109.26523,80.195603   L 109.26523,81.4622   L 108.59858,81.662189   L 108.06525,82.062167   L 107.73192,82.662134   L 107.59859,83.262101   L 107.73192,83.862069   L 108.06525,84.32871   L 108.59858,84.595362   L 109.26523,84.728688   L 109.26523,86.195274   L 108.59858,86.3286   L 108.06525,86.661915   L 107.73192,87.195219   L 107.59859,87.861849   L 107.73192,88.461816   L 108.06525,88.928457   L 108.59858,89.261772   L 109.26523,89.395098   L 109.26523,90.52837   L 108.59858,90.661696   L 108.06525,90.995011   L 107.66525,91.528315   L 107.53192,92.261608   L 107.66525,92.861575   L 108.06525,93.394879   L 108.59858,93.728194   L 109.26523,93.86152   L 109.19857,95.128117   L 108.53191,95.261443   L 108.06525,95.594759   L 107.73192,96.128063   L 107.59859,96.72803   L 107.73192,97.39466   L 108.06525,97.927964   L 108.59858,98.261279   L 109.26523,98.394605   L 109.26523,99.594539   L 108.59858,99.727865   L 108.06525,100.06118   L 107.73192,100.59448   L 107.59859,101.26111   L 107.73192,101.86108   L 108.06525,102.39439   L 108.59858,102.79436   L 109.26523,102.92769   L 109.26523,104.26095   L 108.59858,104.39428   L 108.06525,104.72759   L 107.73192,105.2609   L 107.59859,105.7942   L 107.73192,106.46083   L 108.06525,107.0608   L 108.59858,107.39411   L 109.26523,107.52744   L 109.26523,108.72737   L 108.59858,108.8607   L 108.06525,109.26068   L 107.73192,109.79398   L 107.59859,110.39395   L 107.73192,111.06058   L 108.06525,111.66054   L 108.59858,111.99386   L 109.26523,112.12719   L 109.26523,113.19379   L 108.59858,113.32712   L 108.06525,113.7271   L 107.53192,114.79371   L 107.66525,115.527   L 108.06525,116.0603   L 108.59858,116.39362   L 109.26523,116.52694   L 109.26523,117.79354   L 108.59858,117.92687   L 108.06525,118.26018   L 107.73192,118.79349   L 107.59859,119.46012   L 107.73192,120.06008   L 108.06525,120.59339   L 108.59858,120.99337   L 109.26523,121.12669   L 109.93189,120.99337   L 110.53188,120.59339   L 110.93188,120.06008   L 111.06521,119.46012   L 110.93188,118.79349   L 110.53188,118.26018   L 109.26523,117.79354   L 109.26523,116.52694   L 109.93189,116.39362   L 110.53188,116.12697   L 110.93188,115.59366   L 111.06521,114.86037   L 110.93188,114.2604   L 110.53188,113.7271   L 109.93189,113.32712   L 109.26523,113.19379   L 109.26523,112.12719   L 109.93189,111.99386   L 110.53188,111.66054   L 110.93188,111.06058   L 111.06521,110.39395   L 110.93188,109.79398   L 110.53188,109.26068   L 109.93189,108.8607   L 109.26523,108.72737   L 109.26523,107.52744   L 109.93189,107.39411   L 110.53188,107.0608   L 110.93188,106.46083   L 111.06521,105.7942   L 110.93188,105.2609   L 110.53188,104.72759   L 109.93189,104.39428   L 109.26523,104.26095   L 109.26523,102.92769   L 109.93189,102.79436   L 110.53188,102.39439   L 110.93188,101.86108   L 111.06521,101.26111   L 110.93188,100.59448   L 110.53188,100.06118   L 109.93189,99.727865   L 109.26523,99.594539   L 109.26523,98.394605   L 109.93189,98.261279   L 110.53188,97.927964   L 110.93188,97.39466   L 111.06521,96.72803   L 110.93188,96.128063   L 110.46522,95.594759   L 109.86523,95.261443   L 109.19857,95.128117   L 109.26523,93.86152   L 109.93189,93.728194   L 110.53188,93.394879   L 110.93188,92.928238   L 111.06521,92.328271   L 110.93188,91.594978   L 110.53188,91.061674   L 109.93189,90.661696   L 109.26523,90.52837   L 109.26523,89.395098   L 109.93189,89.261772   L 110.53188,88.928457   L 110.93188,88.461816   L 111.06521,87.861849   L 110.93188,87.195219   L 110.53188,86.661915   L 109.26523,86.195274   L 109.26523,84.728688   L 109.93189,84.595362   L 110.53188,84.32871   L 110.93188,83.862069   L 111.06521,83.262101   L 110.93188,82.662134   L 110.53188,82.062167   L 109.93189,81.662189   L 109.26523,81.4622   L 109.26523,80.195603   L 109.93189,80.062277   L 110.53188,79.662299   L 110.93188,79.062332   L 111.06521,78.395702   L 110.93188,77.795734   L 110.53188,77.329093   L 109.93189,76.995778   L 109.26523,76.862452   L 109.26523,75.662518   L 109.93189,75.529192   L 110.53188,75.129214   L 110.93188,74.529247   L 111.06521,73.795954   L 110.93188,73.26265   L 110.53188,72.796009   L 109.93189,72.396031   L 109.26523,72.262704  z " clip-path="url(#clipWmfPath1)" style="fill:#f7f7f7;fill-rule:nonzero;fill-opacity:1;stroke:none;"/>
  <path id="path88" d="  M 109.26523,72.262704   L 108.59858,72.396031   L 108.06525,72.796009   L 107.73192,73.26265   L 107.59859,73.795954   L 107.73192,74.529247   L 108.06525,75.129214   L 108.59858,75.529192   L 109.26523,75.662518   L 109.26523,76.862452   L 108.59858,76.995778   L 108.06525,77.329093   L 107.73192,77.795734   L 107.59859,78.395702   L 107.73192,79.062332   L 108.06525,79.662299   L 108.59858,80.062277   L 109.26523,80.195603   L 109.26523,81.4622   L 108.59858,81.662189   L 108.06525,82.062167   L 107.73192,82.662134   L 107.59859,83.262101   L 107.73192,83.862069   L 108.06525,84.32871   L 108.59858,84.595362   L 109.26523,84.728688   L 109.26523,86.195274   L 108.59858,86.3286   L 108.06525,86.661915   L 107.73192,87.195219   L 107.59859,87.861849   L 107.73192,88.461816   L 108.06525,88.928457   L 108.59858,89.261772   L 109.26523,89.395098   L 109.26523,90.52837   L 108.59858,90.661696   L 108.06525,90.995011   L 107.66525,91.528315   L 107.53192,92.261608   L 107.66525,92.861575   L 108.06525,93.394879   L 108.59858,93.728194   L 109.26523,93.86152   L 109.19857,95.128117   L 108.53191,95.261443   L 108.06525,95.594759   L 107.73192,96.128063   L 107.59859,96.72803   L 107.73192,97.39466   L 108.06525,97.927964   L 108.59858,98.261279   L 109.26523,98.394605   L 109.26523,99.594539   L 108.59858,99.727865   L 108.06525,100.06118   L 107.73192,100.59448   L 107.59859,101.26111   L 107.73192,101.86108   L 108.06525,102.39439   L 108.59858,102.79436   L 109.26523,102.92769   L 109.26523,104.26095   L 108.59858,104.39428   L 108.06525,104.72759   L 107.73192,105.2609   L 107.59859,105.7942   L 107.73192,106.46083   L 108.06525,107.0608   L 108.59858,107.39411   L 109.26523,107.52744   L 109.26523,108.72737   L 108.59858,108.8607   L 108.06525,109.26068   L 107.73192,109.79398   L 107.59859,110.39395   L 107.73192,111.06058   L 108.06525,111.66054   L 108.59858,111.99386   L 109.26523,112.12719   L 109.26523,113.19379   L 108.59858,113.32712   L 108.06525,113.7271   L 107.53192,114.79371   L 107.66525,115.527   L 108.06525,116.0603   L 108.59858,116.39362   L 109.26523,116.52694   L 109.26523,117.79354   L 108.59858,117.92687   L 108.06525,118.26018   L 107.73192,118.79349   L 107.59859,119.46012   L 107.73192,120.06008   L 108.06525,120.59339   L 108.59858,120.99337   L 109.26523,121.12669   L 109.93189,120.99337   L 110.53188,120.59339   L 110.93188,120.06008   L 111.06521,119.46012   L 110.93188,118.79349   L 110.53188,118.26018   L 109.26523,117.79354   L 109.26523,116.52694   L 109.93189,116.39362   L 110.53188,116.12697   L 110.93188,115.59366   L 111.06521,114.86037   L 110.93188,114.2604   L 110.53188,113.7271   L 109.93189,113.32712   L 109.26523,113.19379   L 109.26523,112.12719   L 109.93189,111.99386   L 110.53188,111.66054   L 110.93188,111.06058   L 111.06521,110.39395   L 110.93188,109.79398   L 110.53188,109.26068   L 109.93189,108.8607   L 109.26523,108.72737   L 109.26523,107.52744   L 109.93189,107.39411   L 110.53188,107.0608   L 110.93188,106.46083   L 111.06521,105.7942   L 110.93188,105.2609   L 110.53188,104.72759   L 109.93189,104.39428   L 109.26523,104.26095   L 109.26523,102.92769   L 109.93189,102.79436   L 110.53188,102.39439   L 110.93188,101.86108   L 111.06521,101.26111   L 110.93188,100.59448   L 110.53188,100.06118   L 109.93189,99.727865   L 109.26523,99.594539   L 109.26523,98.394605   L 109.93189,98.261279   L 110.53188,97.927964   L 110.93188,97.39466   L 111.06521,96.72803   L 110.93188,96.128063   L 110.46522,95.594759   L 109.86523,95.261443   L 109.19857,95.128117   L 109.26523,93.86152   L 109.93189,93.728194   L 110.53188,93.394879   L 110.93188,92.928238   L 111.06521,92.328271   L 110.93188,91.594978   L 110.53188,91.061674   L 109.93189,90.661696   L 109.26523,90.52837   L 109.26523,89.395098   L 109.93189,89.261772   L 110.53188,88.928457   L 110.93188,88.461816   L 111.06521,87.861849   L 110.93188,87.195219   L 110.53188,86.661915   L 109.26523,86.195274   L 109.26523,84.728688   L 109.93189,84.595362   L 110.53188,84.32871   L 110.93188,83.862069   L 111.06521,83.262101   L 110.93188,82.662134   L 110.53188,82.062167   L 109.93189,81.662189   L 109.26523,81.4622   L 109.26523,80.195603   L 109.93189,80.062277   L 110.53188,79.662299   L 110.93188,79.062332   L 111.06521,78.395702   L 110.93188,77.795734   L 110.53188,77.329093   L 109.93189,76.995778   L 109.26523,76.862452   L 109.26523,75.662518   L 109.93189,75.529192   L 110.53188,75.129214   L 110.93188,74.529247   L 111.06521,73.795954   L 110.93188,73.26265   L 110.53188,72.796009   L 109.93189,72.396031   L 109.26523,72.262704  z " clip-path="url(#clipWmfPath1)" style="fill:none;stroke:#000000;stroke-width:0.066665791px;stroke-linecap:round;stroke-linejoin:round;stroke-miterlimit:4;stroke-dasharray:none;stroke-opacity:1;"/>
  <path id="path90" d="  M 113.86517,72.196041   L 113.19851,72.329368   L 112.66519,72.729346   L 112.33186,73.195987   L 112.19853,73.729291   L 112.33186,74.529247   L 112.66519,75.062551   L 113.19851,75.462529   L 113.86517,75.595855   L 113.86517,76.795789   L 113.19851,76.929115   L 112.66519,77.26243   L 112.33186,77.729071   L 112.19853,78.262376   L 112.33186,78.995669   L 112.66519,79.528973   L 113.19851,79.928951   L 113.86517,80.062277   L 113.86517,81.395537   L 113.19851,81.595526   L 112.66519,81.995504   L 112.33186,82.595471   L 112.19853,83.195438   L 112.33186,83.795405   L 112.66519,84.262047   L 113.19851,84.528699   L 113.86517,84.662025   L 113.86517,85.995285   L 113.19851,86.128611   L 112.66519,86.528589   L 112.33186,87.061893   L 112.19853,87.795186   L 112.33186,88.32849   L 112.66519,88.795131   L 113.19851,89.128446   L 113.86517,89.261772   L 113.86517,90.461707   L 113.19851,90.595033   L 112.59852,90.928348   L 112.19853,91.461652   L 112.0652,92.128282   L 112.19853,92.728249   L 112.59852,93.261553   L 113.19851,93.661531   L 113.86517,93.794857   L 113.73184,94.994791   L 113.13185,95.128117   L 112.66519,95.461433   L 112.19853,96.594704   L 112.33186,97.261334   L 112.66519,97.794638   L 113.19851,98.127953   L 113.86517,98.261279   L 113.86517,99.461213   L 113.19851,99.594539   L 112.66519,99.927854   L 112.33186,100.46116   L 112.19853,101.06113   L 112.33186,101.72776   L 112.66519,102.32772   L 113.19851,102.66104   L 113.86517,102.79436   L 113.86517,104.06096   L 113.19851,104.19429   L 112.66519,104.59427   L 112.33186,105.12757   L 112.19853,105.72754   L 112.33186,106.3275   L 112.66519,106.86081   L 113.19851,107.26079   L 113.86517,107.39411   L 113.86517,108.59405   L 113.19851,108.72737   L 112.66519,109.12735   L 112.33186,109.59399   L 112.19853,110.19396   L 112.33186,110.92725   L 112.66519,111.46056   L 113.19851,111.79387   L 113.86517,111.9272   L 113.86517,113.06047   L 113.19851,113.19379   L 112.59852,113.52711   L 112.19853,114.06041   L 112.0652,114.66038   L 112.19853,115.39367   L 112.59852,115.92698   L 113.19851,116.26029   L 113.86517,116.39362   L 113.86517,117.66022   L 113.19851,117.79354   L 112.66519,118.12686   L 112.33186,118.66016   L 112.19853,119.32679   L 112.33186,119.92676   L 112.66519,120.46006   L 113.19851,120.79338   L 113.86517,120.9267   L 114.53183,120.79338   L 115.13182,120.46006   L 115.46515,119.92676   L 115.59848,119.32679   L 115.46515,118.66016   L 115.13182,118.12686   L 114.53183,117.79354   L 113.86517,117.66022   L 113.86517,116.39362   L 114.53183,116.26029   L 115.13182,115.99364   L 115.46515,115.46034   L 115.59848,114.72704   L 115.46515,114.12708   L 115.13182,113.59377   L 114.53183,113.19379   L 113.86517,113.06047   L 113.86517,111.9272   L 114.53183,111.79387   L 115.13182,111.46056   L 115.46515,110.92725   L 115.59848,110.19396   L 115.46515,109.59399   L 115.13182,109.12735   L 114.53183,108.72737   L 113.86517,108.59405   L 113.86517,107.39411   L 114.53183,107.26079   L 115.13182,106.86081   L 115.46515,106.3275   L 115.59848,105.72754   L 115.46515,105.12757   L 115.13182,104.59427   L 114.53183,104.19429   L 113.86517,104.06096   L 113.86517,102.79436   L 114.53183,102.66104   L 115.13182,102.32772   L 115.46515,101.72776   L 115.59848,101.06113   L 115.46515,100.46116   L 115.13182,99.927854   L 114.53183,99.594539   L 113.86517,99.461213   L 113.86517,98.261279   L 114.53183,98.127953   L 115.13182,97.794638   L 115.46515,97.261334   L 115.59848,96.594704   L 115.46515,95.928074   L 115.06516,95.461433   L 114.46516,95.128117   L 113.73184,94.994791   L 113.86517,93.794857   L 114.53183,93.661531   L 115.13182,93.328216   L 115.46515,92.861575   L 115.59848,92.261608   L 115.46515,91.528315   L 115.13182,90.995011   L 114.53183,90.595033   L 113.86517,90.461707   L 113.86517,89.261772   L 114.53183,89.128446   L 115.13182,88.795131   L 115.46515,88.32849   L 115.59848,87.795186   L 115.46515,87.061893   L 115.13182,86.528589   L 114.53183,86.128611   L 113.86517,85.995285   L 113.86517,84.662025   L 114.53183,84.528699   L 115.13182,84.262047   L 115.46515,83.795405   L 115.59848,83.195438   L 115.46515,82.595471   L 115.13182,81.995504   L 114.53183,81.595526   L 113.86517,81.395537   L 113.86517,80.062277   L 114.53183,79.928951   L 115.13182,79.528973   L 115.46515,78.995669   L 115.59848,78.262376   L 115.46515,77.729071   L 115.13182,77.26243   L 114.53183,76.929115   L 113.86517,76.795789   L 113.86517,75.595855   L 114.53183,75.462529   L 115.13182,75.062551   L 115.46515,74.529247   L 115.59848,73.729291   L 115.13182,72.729346   L 114.53183,72.329368   L 113.86517,72.196041  z " clip-path="url(#clipWmfPath1)" style="fill:#f7f7f7;fill-rule:nonzero;fill-opacity:1;stroke:none;"/>
  <path id="path92" d="  M 113.86517,72.196041   L 113.19851,72.329368   L 112.66519,72.729346   L 112.33186,73.195987   L 112.19853,73.729291   L 112.33186,74.529247   L 112.66519,75.062551   L 113.19851,75.462529   L 113.86517,75.595855   L 113.86517,76.795789   L 113.19851,76.929115   L 112.66519,77.26243   L 112.33186,77.729071   L 112.19853,78.262376   L 112.33186,78.995669   L 112.66519,79.528973   L 113.19851,79.928951   L 113.86517,80.062277   L 113.86517,81.395537   L 113.19851,81.595526   L 112.66519,81.995504   L 112.33186,82.595471   L 112.19853,83.195438   L 112.33186,83.795405   L 112.66519,84.262047   L 113.19851,84.528699   L 113.86517,84.662025   L 113.86517,85.995285   L 113.19851,86.128611   L 112.66519,86.528589   L 112.33186,87.061893   L 112.19853,87.795186   L 112.33186,88.32849   L 112.66519,88.795131   L 113.19851,89.128446   L 113.86517,89.261772   L 113.86517,90.461707   L 113.19851,90.595033   L 112.59852,90.928348   L 112.19853,91.461652   L 112.0652,92.128282   L 112.19853,92.728249   L 112.59852,93.261553   L 113.19851,93.661531   L 113.86517,93.794857   L 113.73184,94.994791   L 113.13185,95.128117   L 112.66519,95.461433   L 112.19853,96.594704   L 112.33186,97.261334   L 112.66519,97.794638   L 113.19851,98.127953   L 113.86517,98.261279   L 113.86517,99.461213   L 113.19851,99.594539   L 112.66519,99.927854   L 112.33186,100.46116   L 112.19853,101.06113   L 112.33186,101.72776   L 112.66519,102.32772   L 113.19851,102.66104   L 113.86517,102.79436   L 113.86517,104.06096   L 113.19851,104.19429   L 112.66519,104.59427   L 112.33186,105.12757   L 112.19853,105.72754   L 112.33186,106.3275   L 112.66519,106.86081   L 113.19851,107.26079   L 113.86517,107.39411   L 113.86517,108.59405   L 113.19851,108.72737   L 112.66519,109.12735   L 112.33186,109.59399   L 112.19853,110.19396   L 112.33186,110.92725   L 112.66519,111.46056   L 113.19851,111.79387   L 113.86517,111.9272   L 113.86517,113.06047   L 113.19851,113.19379   L 112.59852,113.52711   L 112.19853,114.06041   L 112.0652,114.66038   L 112.19853,115.39367   L 112.59852,115.92698   L 113.19851,116.26029   L 113.86517,116.39362   L 113.86517,117.66022   L 113.19851,117.79354   L 112.66519,118.12686   L 112.33186,118.66016   L 112.19853,119.32679   L 112.33186,119.92676   L 112.66519,120.46006   L 113.19851,120.79338   L 113.86517,120.9267   L 114.53183,120.79338   L 115.13182,120.46006   L 115.46515,119.92676   L 115.59848,119.32679   L 115.46515,118.66016   L 115.13182,118.12686   L 114.53183,117.79354   L 113.86517,117.66022   L 113.86517,116.39362   L 114.53183,116.26029   L 115.13182,115.99364   L 115.46515,115.46034   L 115.59848,114.72704   L 115.46515,114.12708   L 115.13182,113.59377   L 114.53183,113.19379   L 113.86517,113.06047   L 113.86517,111.9272   L 114.53183,111.79387   L 115.13182,111.46056   L 115.46515,110.92725   L 115.59848,110.19396   L 115.46515,109.59399   L 115.13182,109.12735   L 114.53183,108.72737   L 113.86517,108.59405   L 113.86517,107.39411   L 114.53183,107.26079   L 115.13182,106.86081   L 115.46515,106.3275   L 115.59848,105.72754   L 115.46515,105.12757   L 115.13182,104.59427   L 114.53183,104.19429   L 113.86517,104.06096   L 113.86517,102.79436   L 114.53183,102.66104   L 115.13182,102.32772   L 115.46515,101.72776   L 115.59848,101.06113   L 115.46515,100.46116   L 115.13182,99.927854   L 114.53183,99.594539   L 113.86517,99.461213   L 113.86517,98.261279   L 114.53183,98.127953   L 115.13182,97.794638   L 115.46515,97.261334   L 115.59848,96.594704   L 115.46515,95.928074   L 115.06516,95.461433   L 114.46516,95.128117   L 113.73184,94.994791   L 113.86517,93.794857   L 114.53183,93.661531   L 115.13182,93.328216   L 115.46515,92.861575   L 115.59848,92.261608   L 115.46515,91.528315   L 115.13182,90.995011   L 114.53183,90.595033   L 113.86517,90.461707   L 113.86517,89.261772   L 114.53183,89.128446   L 115.13182,88.795131   L 115.46515,88.32849   L 115.59848,87.795186   L 115.46515,87.061893   L 115.13182,86.528589   L 114.53183,86.128611   L 113.86517,85.995285   L 113.86517,84.662025   L 114.53183,84.528699   L 115.13182,84.262047   L 115.46515,83.795405   L 115.59848,83.195438   L 115.46515,82.595471   L 115.13182,81.995504   L 114.53183,81.595526   L 113.86517,81.395537   L 113.86517,80.062277   L 114.53183,79.928951   L 115.13182,79.528973   L 115.46515,78.995669   L 115.59848,78.262376   L 115.46515,77.729071   L 115.13182,77.26243   L 114.53183,76.929115   L 113.86517,76.795789   L 113.86517,75.595855   L 114.53183,75.462529   L 115.13182,75.062551   L 115.46515,74.529247   L 115.59848,73.729291   L 115.13182,72.729346   L 114.53183,72.329368   L 113.86517,72.196041  z " clip-path="url(#clipWmfPath1)" style="fill:none;stroke:#000000;stroke-width:0.066665791px;stroke-linecap:round;stroke-linejoin:round;stroke-miterlimit:4;stroke-dasharray:none;stroke-opacity:1;"/>
  <path id="path94" d="  M 104.86529,120.86004   L 105.53195,120.72671   L 106.06528,120.3934   L 106.46527,119.86009   L 106.5986,119.1268   L 106.46527,118.46017   L 106.06528,117.99353   L 104.86529,117.52689   L 104.86529,116.0603   L 105.53195,115.92698   L 106.06528,115.527   L 106.3986,114.92703   L 106.53194,114.19374   L 106.3986,113.59377   L 106.06528,113.12713   L 105.53195,112.86048   L 104.86529,112.72715   L 104.2653,112.86048   L 103.79864,113.26046   L 103.53197,113.79376   L 103.39864,114.52705   L 102.06533,114.52705   L 101.932,113.79376   L 101.59867,113.26046   L 101.06534,112.86048   L 100.33202,112.72715   L 99.732025,112.86048   L 99.198698,113.26046   L 98.932035,113.79376   L 98.798704,114.52705   L 97.598719,114.52705   L 97.465388,113.79376   L 97.132059,113.26046   L 96.598733,112.86048   L 96.065406,112.72715   L 95.332083,112.86048   L 94.798756,113.26046   L 94.398761,113.79376   L 94.26543,114.52705   L 93.065446,114.52705   L 92.932114,113.79376   L 92.598785,113.26046   L 92.065459,112.86048   L 91.398801,112.72715   L 90.732143,112.86048   L 90.132151,113.26046   L 89.798822,113.79376   L 89.66549,114.52705   L 88.465506,114.52705   L 88.332174,113.79376   L 87.93218,113.26046   L 87.398853,112.86048   L 86.798861,112.72715   L 86.198869,112.86048   L 85.665543,113.26046   L 85.332214,113.79376   L 85.198882,114.52705   L 83.865566,114.52705   L 83.732235,113.79376   L 83.398906,113.26046   L 82.932245,112.86048   L 82.332253,112.72715   L 81.665595,112.86048   L 81.132269,113.26046   L 80.79894,113.79376   L 80.665608,114.52705   L 79.398958,114.52705   L 79.265627,113.79376   L 78.932298,113.26046   L 78.465637,112.86048   L 77.798979,112.72715   L 77.065656,112.86048   L 76.532329,113.26046   L 76.132334,113.79376   L 75.999003,114.52705   L 76.132334,115.12702   L 76.532329,115.59366   L 77.065656,115.92698   L 77.798979,116.0603   L 78.465637,115.92698   L 78.932298,115.59366   L 79.265627,115.12702   L 79.398958,114.52705   L 80.665608,114.52705   L 80.79894,115.12702   L 81.132269,115.59366   L 81.665595,115.92698   L 82.332253,116.0603   L 82.932245,115.92698   L 83.398906,115.59366   L 83.732235,115.12702   L 83.865566,114.52705   L 85.198882,114.52705   L 85.332214,115.12702   L 85.665543,115.59366   L 86.198869,115.92698   L 86.798861,116.0603   L 87.93218,115.59366   L 88.332174,115.12702   L 88.465506,114.52705   L 89.66549,114.52705   L 89.798822,115.12702   L 90.132151,115.59366   L 90.732143,115.92698   L 91.398801,116.0603   L 92.065459,115.92698   L 92.598785,115.59366   L 92.932114,115.12702   L 93.065446,114.52705   L 94.26543,114.52705   L 94.398761,115.12702   L 94.73209,115.66032   L 95.332083,115.99364   L 95.99874,116.12697   L 96.598733,115.99364   L 97.132059,115.66032   L 97.465388,115.12702   L 97.598719,114.52705   L 98.798704,114.52705   L 98.932035,115.12702   L 99.198698,115.59366   L 99.732025,115.92698   L 100.33202,116.0603   L 101.06534,115.92698   L 101.59867,115.59366   L 101.932,115.12702   L 102.06533,114.52705   L 103.39864,114.52705   L 103.53197,115.12702   L 103.79864,115.59366   L 104.2653,115.92698   L 104.86529,116.0603   L 104.86529,117.52689   L 104.2653,117.66022   L 103.79864,117.99353   L 103.39864,119.1268   L 102.06533,119.1268   L 101.932,118.46017   L 101.59867,117.99353   L 101.06534,117.66022   L 100.33202,117.52689   L 99.732025,117.66022   L 99.198698,117.99353   L 98.798704,119.1268   L 97.598719,119.1268   L 97.465388,118.46017   L 97.132059,117.99353   L 96.065406,117.52689   L 95.332083,117.66022   L 94.798756,117.99353   L 94.398761,118.46017   L 94.26543,119.1268   L 93.065446,119.1268   L 92.932114,118.46017   L 92.598785,117.99353   L 91.398801,117.52689   L 90.732143,117.66022   L 90.132151,117.99353   L 89.798822,118.46017   L 89.66549,119.1268   L 88.465506,119.1268   L 88.332174,118.46017   L 87.93218,117.99353   L 86.798861,117.52689   L 86.198869,117.66022   L 85.665543,117.99353   L 85.332214,118.46017   L 85.198882,119.1268   L 83.865566,119.1268   L 83.732235,118.46017   L 83.398906,117.99353   L 82.332253,117.52689   L 81.665595,117.66022   L 81.132269,117.99353   L 80.665608,119.1268   L 79.398958,119.1268   L 79.265627,118.46017   L 78.932298,117.99353   L 78.465637,117.66022   L 77.798979,117.52689   L 77.065656,117.66022   L 76.465663,117.99353   L 76.065669,118.46017   L 75.932337,119.1268   L 76.065669,119.86009   L 76.465663,120.3934   L 77.065656,120.72671   L 77.798979,120.86004   L 78.465637,120.72671   L 78.932298,120.3934   L 79.265627,119.86009   L 79.398958,119.1268   L 80.665608,119.1268   L 80.79894,119.86009   L 81.132269,120.3934   L 81.665595,120.72671   L 82.332253,120.86004   L 82.932245,120.72671   L 83.398906,120.3934   L 83.732235,119.86009   L 83.865566,119.1268   L 85.198882,119.1268   L 85.332214,119.86009   L 85.665543,120.3934   L 86.198869,120.72671   L 86.798861,120.86004   L 87.93218,120.3934   L 88.332174,119.86009   L 88.465506,119.1268   L 89.66549,119.1268   L 89.798822,119.86009   L 90.132151,120.3934   L 90.732143,120.72671   L 91.398801,120.86004   L 92.065459,120.72671   L 92.598785,120.3934   L 92.932114,119.86009   L 93.065446,119.1268   L 94.26543,119.1268   L 94.398761,119.86009   L 94.73209,120.46006   L 95.332083,120.79338   L 95.99874,120.9267   L 96.598733,120.79338   L 97.132059,120.46006   L 97.465388,119.86009   L 97.598719,119.1268   L 98.798704,119.1268   L 98.932035,119.86009   L 99.198698,120.3934   L 99.732025,120.72671   L 100.33202,120.86004   L 101.06534,120.72671   L 101.59867,120.3934   L 101.932,119.86009   L 102.06533,119.1268   L 103.39864,119.1268   L 103.53197,119.86009   L 103.79864,120.3934   L 104.2653,120.72671   L 104.86529,120.86004  z " clip-path="url(#clipWmfPath1)" style="fill:#f7f7f7;fill-rule:nonzero;fill-opacity:1;stroke:none;"/>
  <path id="path96" d="  M 104.86529,120.86004   L 105.53195,120.72671   L 106.06528,120.3934   L 106.46527,119.86009   L 106.5986,119.1268   L 106.46527,118.46017   L 106.06528,117.99353   L 104.86529,117.52689   L 104.86529,116.0603   L 105.53195,115.92698   L 106.06528,115.527   L 106.3986,114.92703   L 106.53194,114.19374   L 106.3986,113.59377   L 106.06528,113.12713   L 105.53195,112.86048   L 104.86529,112.72715   L 104.2653,112.86048   L 103.79864,113.26046   L 103.53197,113.79376   L 103.39864,114.52705   L 102.06533,114.52705   L 101.932,113.79376   L 101.59867,113.26046   L 101.06534,112.86048   L 100.33202,112.72715   L 99.732025,112.86048   L 99.198698,113.26046   L 98.932035,113.79376   L 98.798704,114.52705   L 97.598719,114.52705   L 97.465388,113.79376   L 97.132059,113.26046   L 96.598733,112.86048   L 96.065406,112.72715   L 95.332083,112.86048   L 94.798756,113.26046   L 94.398761,113.79376   L 94.26543,114.52705   L 93.065446,114.52705   L 92.932114,113.79376   L 92.598785,113.26046   L 92.065459,112.86048   L 91.398801,112.72715   L 90.732143,112.86048   L 90.132151,113.26046   L 89.798822,113.79376   L 89.66549,114.52705   L 88.465506,114.52705   L 88.332174,113.79376   L 87.93218,113.26046   L 87.398853,112.86048   L 86.798861,112.72715   L 86.198869,112.86048   L 85.665543,113.26046   L 85.332214,113.79376   L 85.198882,114.52705   L 83.865566,114.52705   L 83.732235,113.79376   L 83.398906,113.26046   L 82.932245,112.86048   L 82.332253,112.72715   L 81.665595,112.86048   L 81.132269,113.26046   L 80.79894,113.79376   L 80.665608,114.52705   L 79.398958,114.52705   L 79.265627,113.79376   L 78.932298,113.26046   L 78.465637,112.86048   L 77.798979,112.72715   L 77.065656,112.86048   L 76.532329,113.26046   L 76.132334,113.79376   L 75.999003,114.52705   L 76.132334,115.12702   L 76.532329,115.59366   L 77.065656,115.92698   L 77.798979,116.0603   L 78.465637,115.92698   L 78.932298,115.59366   L 79.265627,115.12702   L 79.398958,114.52705   L 80.665608,114.52705   L 80.79894,115.12702   L 81.132269,115.59366   L 81.665595,115.92698   L 82.332253,116.0603   L 82.932245,115.92698   L 83.398906,115.59366   L 83.732235,115.12702   L 83.865566,114.52705   L 85.198882,114.52705   L 85.332214,115.12702   L 85.665543,115.59366   L 86.198869,115.92698   L 86.798861,116.0603   L 87.93218,115.59366   L 88.332174,115.12702   L 88.465506,114.52705   L 89.66549,114.52705   L 89.798822,115.12702   L 90.132151,115.59366   L 90.732143,115.92698   L 91.398801,116.0603   L 92.065459,115.92698   L 92.598785,115.59366   L 92.932114,115.12702   L 93.065446,114.52705   L 94.26543,114.52705   L 94.398761,115.12702   L 94.73209,115.66032   L 95.332083,115.99364   L 95.99874,116.12697   L 96.598733,115.99364   L 97.132059,115.66032   L 97.465388,115.12702   L 97.598719,114.52705   L 98.798704,114.52705   L 98.932035,115.12702   L 99.198698,115.59366   L 99.732025,115.92698   L 100.33202,116.0603   L 101.06534,115.92698   L 101.59867,115.59366   L 101.932,115.12702   L 102.06533,114.52705   L 103.39864,114.52705   L 103.53197,115.12702   L 103.79864,115.59366   L 104.2653,115.92698   L 104.86529,116.0603   L 104.86529,117.52689   L 104.2653,117.66022   L 103.79864,117.99353   L 103.39864,119.1268   L 102.06533,119.1268   L 101.932,118.46017   L 101.59867,117.99353   L 101.06534,117.66022   L 100.33202,117.52689   L 99.732025,117.66022   L 99.198698,117.99353   L 98.798704,119.1268   L 97.598719,119.1268   L 97.465388,118.46017   L 97.132059,117.99353   L 96.065406,117.52689   L 95.332083,117.66022   L 94.798756,117.99353   L 94.398761,118.46017   L 94.26543,119.1268   L 93.065446,119.1268   L 92.932114,118.46017   L 92.598785,117.99353   L 91.398801,117.52689   L 90.732143,117.66022   L 90.132151,117.99353   L 89.798822,118.46017   L 89.66549,119.1268   L 88.465506,119.1268   L 88.332174,118.46017   L 87.93218,117.99353   L 86.798861,117.52689   L 86.198869,117.66022   L 85.665543,117.99353   L 85.332214,118.46017   L 85.198882,119.1268   L 83.865566,119.1268   L 83.732235,118.46017   L 83.398906,117.99353   L 82.332253,117.52689   L 81.665595,117.66022   L 81.132269,117.99353   L 80.665608,119.1268   L 79.398958,119.1268   L 79.265627,118.46017   L 78.932298,117.99353   L 78.465637,117.66022   L 77.798979,117.52689   L 77.065656,117.66022   L 76.465663,117.99353   L 76.065669,118.46017   L 75.932337,119.1268   L 76.065669,119.86009   L 76.465663,120.3934   L 77.065656,120.72671   L 77.798979,120.86004   L 78.465637,120.72671   L 78.932298,120.3934   L 79.265627,119.86009   L 79.398958,119.1268   L 80.665608,119.1268   L 80.79894,119.86009   L 81.132269,120.3934   L 81.665595,120.72671   L 82.332253,120.86004   L 82.932245,120.72671   L 83.398906,120.3934   L 83.732235,119.86009   L 83.865566,119.1268   L 85.198882,119.1268   L 85.332214,119.86009   L 85.665543,120.3934   L 86.198869,120.72671   L 86.798861,120.86004   L 87.93218,120.3934   L 88.332174,119.86009   L 88.465506,119.1268   L 89.66549,119.1268   L 89.798822,119.86009   L 90.132151,120.3934   L 90.732143,120.72671   L 91.398801,120.86004   L 92.065459,120.72671   L 92.598785,120.3934   L 92.932114,119.86009   L 93.065446,119.1268   L 94.26543,119.1268   L 94.398761,119.86009   L 94.73209,120.46006   L 95.332083,120.79338   L 95.99874,120.9267   L 96.598733,120.79338   L 97.132059,120.46006   L 97.465388,119.86009   L 97.598719,119.1268   L 98.798704,119.1268   L 98.932035,119.86009   L 99.198698,120.3934   L 99.732025,120.72671   L 100.33202,120.86004   L 101.06534,120.72671   L 101.59867,120.3934   L 101.932,119.86009   L 102.06533,119.1268   L 103.39864,119.1268   L 103.53197,119.86009   L 103.79864,120.3934   L 104.2653,120.72671   L 104.86529,120.86004  z " clip-path="url(#clipWmfPath1)" style="fill:none;stroke:#000000;stroke-width:0.066665791px;stroke-linecap:round;stroke-linejoin:round;stroke-miterlimit:4;stroke-dasharray:none;stroke-opacity:1;"/>
  <path id="path98" d="  M 101.59867,108.46072   L 101.732,107.72743   L 102.06533,107.12746   L 102.66532,106.72748   L 103.33198,106.59416   L 104.0653,106.72748   L 104.59863,107.12746   L 104.99862,107.72743   L 105.13195,108.46072   L 104.99862,109.12735   L 104.59863,109.66065   L 104.0653,110.06063   L 103.33198,110.19396   L 102.66532,110.06063   L 102.06533,109.66065   L 101.732,109.12735   L 101.59867,108.46072  z " clip-path="url(#clipWmfPath1)" style="fill:#000000;fill-rule:nonzero;fill-opacity:1;stroke:none;"/>
  <path id="path100" d="  M 101.59867,108.46072   L 101.732,107.72743   L 102.06533,107.12746   L 102.66532,106.72748   L 103.33198,106.59416   L 104.0653,106.72748   L 104.59863,107.12746   L 104.99862,107.72743   L 105.13195,108.46072   L 104.99862,109.12735   L 104.59863,109.66065   L 104.0653,110.06063   L 103.33198,110.19396   L 102.66532,110.06063   L 102.06533,109.66065   L 101.732,109.12735   L 101.59867,108.46072  z " clip-path="url(#clipWmfPath1)" style="fill:none;stroke:#000000;stroke-width:0.066665791px;stroke-linecap:round;stroke-linejoin:round;stroke-miterlimit:4;stroke-dasharray:none;stroke-opacity:1;"/>
  <path id="path102" d="  M 100.59868,89.995066   L 101.532,90.128392   L 102.39866,90.52837   L 102.93198,91.128337   L 103.13198,91.86163   L 103.13198,100.86114   L 102.93198,101.59443   L 102.39866,102.12773   L 101.532,102.46105   L 100.59868,102.59437   L 82.265587,102.59437   L 81.332266,102.46105   L 80.532277,102.06107   L 79.932285,101.52777   L 79.732287,100.72781   L 79.732287,91.86163   L 79.932285,91.128337   L 80.532277,90.52837   L 81.332266,90.128392   L 82.265587,89.995066   L 100.59868,89.995066  z " clip-path="url(#clipWmfPath1)" style="fill:#ffffff;fill-rule:nonzero;fill-opacity:1;stroke:none;"/>
  <path id="path104" d="  M 82.265587,89.461761   L 82.265587,90.52837   L 100.53201,90.52837   L 101.39867,90.595033   L 102.06533,90.928348   L 102.46532,91.394989   L 102.59865,91.928293   L 102.59865,100.79447   L 102.46532,101.32778   L 102.13199,101.66109   L 101.39867,101.99441   L 100.53201,102.06107   L 82.332253,102.06107   L 81.465598,101.99441   L 80.79894,101.66109   L 80.398945,101.26111   L 80.265614,100.66115   L 80.265614,91.928293   L 80.398945,91.394989   L 80.865606,90.928348   L 81.465598,90.595033   L 82.332253,90.52837   L 100.53201,90.52837   L 101.46534,90.661696   L 101.59867,89.595087   L 100.66535,89.461761   L 82.198922,89.461761   L 81.198935,89.661751   L 80.198948,90.128392   L 79.465624,90.861685   L 79.198961,91.794967   L 79.198961,100.79447   L 79.465624,101.79442   L 80.265614,102.46105   L 81.198935,102.92769   L 82.198922,103.12768   L 100.66535,103.12768   L 101.66533,102.92769   L 102.66532,102.59437   L 103.39864,101.86108   L 103.66531,100.9278   L 103.66531,91.794967   L 103.39864,90.861685   L 102.73199,90.128392   L 101.66533,89.661751   L 100.66535,89.461761   L 82.265587,89.461761  z " clip-path="url(#clipWmfPath1)" style="fill:#000000;fill-rule:nonzero;fill-opacity:1;stroke:#000000;stroke-width:0.066665791px;stroke-linecap:round;stroke-linejoin:round;stroke-miterlimit:4;stroke-dasharray:none;stroke-opacity:1;"/>
  <g id="g106" clip-path="url(#clipWmfPath1)"/>
  <g id="g118" clip-path="url(#clipWmfPath1)">
    <text id="text116" y="10.249313" x="0.000000" transform="matrix(1.000000,-0.000000,0.000000,1.000000,80.932271,90.728359)" style="font-size:10.687500px;font-style:normal;font-variant:normal;font-weight:400;font-stretch:Condensed;line-height:125.000000%;letter-spacing:0px;word-spacing:0px;fill:#000000;fill-opacity:1;stroke:none;font-family:Helvetica-Narrow;text-align:start;text-anchor:start;" xml:space="preserve"><tspan id="tspan114" y="10.249313" x="0.000000"><tspan id="tspan108" style="fill:#000000;font-size:10.687500px;font-style:normal;font-variant:normal;font-weight:400;font-stretch:Condensed;font-family:Helvetica-Narrow;" dy="0.000000" dx="0.000000">N</tspan><tspan id="tspan110" style="fill:#000000;font-size:10.687500px;font-style:normal;font-variant:normal;font-weight:400;font-stretch:Condensed;font-family:Helvetica-Narrow;" dy="0.000000" dx="0.016415">P</tspan><tspan id="tspan112" style="fill:#000000;font-size:10.687500px;font-style:normal;font-variant:normal;font-weight:400;font-stretch:Condensed;font-family:Helvetica-Narrow;" dy="0.000000" dx="-0.035974">U</tspan></tspan></text>
  </g>
  <g id="g120" clip-path="url(#clipWmfPath1)"/>
  <g id="g140" clip-path="url(#clipWmfPath1)">
    <text id="text138" y="8.930687" x="0.000000" transform="matrix(1.000000,-0.000000,0.000000,1.000000,193.397463,28.798421)" style="font-size:9.312500px;font-style:normal;font-variant:normal;font-weight:400;font-stretch:Condensed;line-height:125.000000%;letter-spacing:0px;word-spacing:0px;fill:#000000;fill-opacity:1;stroke:none;font-family:Helvetica-Narrow;text-align:start;text-anchor:start;" xml:space="preserve"><tspan id="tspan136" y="8.930687" x="0.000000"><tspan id="tspan122" style="fill:#000000;font-size:9.312500px;font-style:normal;font-variant:normal;font-weight:400;font-stretch:Condensed;font-family:Helvetica-Narrow;" dy="0.000000" dx="0.000000">M</tspan><tspan id="tspan124" style="fill:#000000;font-size:9.312500px;font-style:normal;font-variant:normal;font-weight:400;font-stretch:Condensed;font-family:Helvetica-Narrow;" dy="0.000000" dx="0.202720">H</tspan><tspan id="tspan126" style="fill:#000000;font-size:9.312500px;font-style:normal;font-variant:normal;font-weight:400;font-stretch:Condensed;font-family:Helvetica-Narrow;" dy="0.000000" dx="0.183502">2</tspan><tspan id="tspan128" style="fill:#000000;font-size:9.312500px;font-style:normal;font-variant:normal;font-weight:400;font-stretch:Condensed;font-family:Helvetica-Narrow;" dy="0.000000" dx="0.183352">1</tspan><tspan id="tspan130" style="fill:#000000;font-size:9.312500px;font-style:normal;font-variant:normal;font-weight:400;font-stretch:Condensed;font-family:Helvetica-Narrow;" dy="0.000000" dx="0.183352">9</tspan><tspan id="tspan132" style="fill:#000000;font-size:9.312500px;font-style:normal;font-variant:normal;font-weight:400;font-stretch:Condensed;font-family:Helvetica-Narrow;" dy="0.000000" dx="0.183352">9</tspan><tspan id="tspan134" style="fill:#000000;font-size:9.312500px;font-style:normal;font-variant:normal;font-weight:400;font-stretch:Condensed;font-family:Helvetica-Narrow;" dy="0.000000" dx="0.183352">A</tspan></tspan></text>
  </g>
  <g id="g142" clip-path="url(#clipWmfPath1)"/>
  <g id="g196" clip-path="url(#clipWmfPath1)">
    <text id="text156" y="10.249313" x="0.000000" transform="matrix(1.000000,-0.000000,0.000000,1.000000,69.665753,226.120935)" style="font-size:10.687500px;font-style:normal;font-variant:normal;font-weight:400;font-stretch:Condensed;line-height:125.000000%;letter-spacing:0px;word-spacing:0px;fill:#000000;fill-opacity:1;stroke:none;font-family:Helvetica-Narrow;text-align:start;text-anchor:start;" xml:space="preserve"><tspan id="tspan154" y="10.249313" x="0.000000"><tspan id="tspan144" style="fill:#000000;font-size:10.687500px;font-style:normal;font-variant:normal;font-weight:400;font-stretch:Condensed;font-family:Helvetica-Narrow;" dy="0.000000" dx="0.000000">3</tspan><tspan id="tspan146" style="fill:#000000;font-size:10.687500px;font-style:normal;font-variant:normal;font-weight:400;font-stretch:Condensed;font-family:Helvetica-Narrow;" dy="0.000000" dx="0.003268">8</tspan><tspan id="tspan148" style="fill:#000000;font-size:10.687500px;font-style:normal;font-variant:normal;font-weight:400;font-stretch:Condensed;font-family:Helvetica-Narrow;" dy="0.000000" dx="0.003268">6</tspan><tspan id="tspan150" style="fill:#000000;font-size:10.687500px;font-style:normal;font-variant:normal;font-weight:400;font-stretch:Condensed;font-family:Helvetica-Narrow;" dy="0.000000" dx="0.003268">S</tspan><tspan id="tspan152" style="fill:#000000;font-size:10.687500px;font-style:normal;font-variant:normal;font-weight:400;font-stretch:Condensed;font-family:Helvetica-Narrow;" dy="0.000000" dx="-0.035974">X</tspan></tspan></text>
    <text id="text178" y="10.249313" x="36.932849" transform="matrix(1.000000,-0.000000,0.000000,1.000000,69.665753,226.120935)" style="font-size:10.687500px;font-style:normal;font-variant:normal;font-weight:400;font-stretch:Condensed;line-height:125.000000%;letter-spacing:0px;word-spacing:0px;fill:#000000;fill-opacity:1;stroke:none;font-family:Helvetica-Narrow;text-align:start;text-anchor:start;" xml:space="preserve"><tspan id="tspan176" y="10.249313" x="36.932849"><tspan id="tspan158" style="fill:#000000;font-size:10.687500px;font-style:normal;font-variant:normal;font-weight:400;font-stretch:Condensed;font-family:Helvetica-Narrow;" dy="0.000000" dx="0.000000">P</tspan><tspan id="tspan160" style="fill:#000000;font-size:10.687500px;font-style:normal;font-variant:normal;font-weight:400;font-stretch:Condensed;font-family:Helvetica-Narrow;" dy="0.000000" dx="-0.035974">O</tspan><tspan id="tspan162" style="fill:#000000;font-size:10.687500px;font-style:normal;font-variant:normal;font-weight:400;font-stretch:Condensed;font-family:Helvetica-Narrow;" dy="0.000000" dx="-0.075215">W</tspan><tspan id="tspan164" style="fill:#000000;font-size:10.687500px;font-style:normal;font-variant:normal;font-weight:400;font-stretch:Condensed;font-family:Helvetica-Narrow;" dy="0.000000" dx="0.004598">E</tspan><tspan id="tspan166" style="fill:#000000;font-size:10.687500px;font-style:normal;font-variant:normal;font-weight:400;font-stretch:Condensed;font-family:Helvetica-Narrow;" dy="0.000000" dx="-0.035974">R</tspan><tspan id="tspan168" style="fill:#000000;font-size:10.687500px;font-style:normal;font-variant:normal;font-weight:400;font-stretch:Condensed;font-family:Helvetica-Narrow;" dy="0.000000" dx="0.016415">F</tspan><tspan id="tspan170" style="fill:#000000;font-size:10.687500px;font-style:normal;font-variant:normal;font-weight:400;font-stretch:Condensed;font-family:Helvetica-Narrow;" dy="0.000000" dx="-0.011009">L</tspan><tspan id="tspan172" style="fill:#000000;font-size:10.687500px;font-style:normal;font-variant:normal;font-weight:400;font-stretch:Condensed;font-family:Helvetica-Narrow;" dy="0.000000" dx="0.003268">E</tspan><tspan id="tspan174" style="fill:#000000;font-size:10.687500px;font-style:normal;font-variant:normal;font-weight:400;font-stretch:Condensed;font-family:Helvetica-Narrow;" dy="0.000000" dx="-0.035974">X</tspan></tspan></text>
    <text id="text194" y="10.249313" x="107.198594" transform="matrix(1.000000,-0.000000,0.000000,1.000000,69.665753,226.120935)" style="font-size:10.687500px;font-style:normal;font-variant:normal;font-weight:400;font-stretch:Condensed;line-height:125.000000%;letter-spacing:0px;word-spacing:0px;fill:#000000;fill-opacity:1;stroke:none;font-family:Helvetica-Narrow;text-align:start;text-anchor:start;" xml:space="preserve"><tspan id="tspan192" y="10.249313" x="107.198594"><tspan id="tspan180" style="fill:#000000;font-size:10.687500px;font-style:normal;font-variant:normal;font-weight:400;font-stretch:Condensed;font-family:Helvetica-Narrow;" dy="0.000000" dx="0.000000">M</tspan><tspan id="tspan182" style="fill:#000000;font-size:10.687500px;font-style:normal;font-variant:normal;font-weight:400;font-stretch:Condensed;font-family:Helvetica-Narrow;" dy="0.000000" dx="-0.022826">O</tspan><tspan id="tspan184" style="fill:#000000;font-size:10.687500px;font-style:normal;font-variant:normal;font-weight:400;font-stretch:Condensed;font-family:Helvetica-Narrow;" dy="0.000000" dx="-0.008549">D</tspan><tspan id="tspan186" style="fill:#000000;font-size:10.687500px;font-style:normal;font-variant:normal;font-weight:400;font-stretch:Condensed;font-family:Helvetica-Narrow;" dy="0.000000" dx="0.016415">U</tspan><tspan id="tspan188" style="fill:#000000;font-size:10.687500px;font-style:normal;font-variant:normal;font-weight:400;font-stretch:Condensed;font-family:Helvetica-Narrow;" dy="0.000000" dx="0.016415">L</tspan><tspan id="tspan190" style="fill:#000000;font-size:10.687500px;font-style:normal;font-variant:normal;font-weight:400;font-stretch:Condensed;font-family:Helvetica-Narrow;" dy="0.000000" dx="0.003268">E</tspan></tspan></text>
  </g>
</svg>