<svg xmlns:inkscape="http://www.inkscape.org/namespaces/inkscape" xmlns:sodipodi="http://sodipodi.sourceforge.net/DTD/sodipodi-0.dtd" xmlns="http://www.w3.org/2000/svg" xmlns:svg="http://www.w3.org/2000/svg" xmlns:rdf="http://www.w3.org/1999/02/22-rdf-syntax-ns#" xmlns:cc="http://creativecommons.org/ns#" xmlns:dc="http://purl.org/dc/elements/1.1/" id="svg206" height="35.199999mm" width="53.209999mm" version="1.0" sodipodi:docname="32830.svg" inkscape:version="1.1.1 (3bf5ae0d25, 2021-09-20)">
  <sodipodi:namedview id="namedview92" pagecolor="#ffffff" bordercolor="#666666" borderopacity="1.0" inkscape:pageshadow="2" inkscape:pageopacity="0.0" inkscape:pagecheckerboard="0" inkscape:document-units="mm" showgrid="false" inkscape:zoom="5.2608377" inkscape:cx="100.55433" inkscape:cy="66.529329" inkscape:window-width="1920" inkscape:window-height="1017" inkscape:window-x="1672" inkscape:window-y="-8" inkscape:window-maximized="0" inkscape:current-layer="svg206"/>
  <metadata id="metadata210">
    <rdf:RDF>
      <cc:Work rdf:about="">
        <dc:format>image/svg+xml</dc:format>
        <dc:type rdf:resource="http://purl.org/dc/dcmitype/StillImage"/>
      </cc:Work>
    </rdf:RDF>
  </metadata>
  <defs id="defs6">
    <clipPath id="clipWmfPath1" clipPathUnits="userSpaceOnUse">
      <path id="path2" d="M 0,0 L 201.0042,0 L 201.0042,132.93491 L 0,132.93491 z"/>
    </clipPath>
    <pattern y="0" x="0" height="6" width="6" patternUnits="userSpaceOnUse" id="WMFhbasepattern"/>
  </defs>
  <path id="path8" d="M 197.93747,129.8682 H 2.7333904 L 2.6667224,2.8000332 197.93747,2.6666982 Z" clip-path="url(#clipWmfPath1)" style="fill:#e5e5e5;fill-opacity:1;fill-rule:nonzero;stroke:none" transform="rotate(180,100.30209,66.26745)"/>
  <path id="path10" d="m 198.47081,2.6666982 h -1.06669 V 129.33486 H 3.2667349 L 3.2000668,3.3333728 197.40412,3.2000379 V 129.33486 H 2.7333904 v 1.06668 H 198.47081 V 2.1333586 L 2.1333779,2.2666935 2.2000459,130.40154 H 198.47081 Z" clip-path="url(#clipWmfPath1)" style="fill:#000000;fill-opacity:1;fill-rule:nonzero;stroke:#000000;stroke-width:0.0666681px;stroke-linecap:round;stroke-linejoin:round;stroke-miterlimit:4;stroke-dasharray:none;stroke-opacity:1" transform="rotate(180,100.30209,66.26745)"/>
  <path id="path42" d="M 120.66919,21.666923 V 11.80014 h 14.53363 v 9.866783 z" clip-path="url(#clipWmfPath1)" style="fill:#ffffff;fill-opacity:1;fill-rule:nonzero;stroke:none" transform="rotate(180,100.30209,66.26745)"/>
  <path id="path44" d="M 120.66919,21.666923 V 11.80014 h 14.53363 v 9.866783 z" clip-path="url(#clipWmfPath1)" style="fill:none;stroke:#000000;stroke-width:0.0666681px;stroke-linecap:round;stroke-linejoin:round;stroke-miterlimit:4;stroke-dasharray:none;stroke-opacity:1" transform="rotate(180,100.30209,66.26745)"/>
  <path id="path46" d="m 122.20255,15.666852 v -2.733366 h 2.73339 v 2.733366 z" clip-path="url(#clipWmfPath1)" style="fill:#000000;fill-opacity:1;fill-rule:nonzero;stroke:none" transform="rotate(180,100.30209,66.26745)"/>
  <path id="path48" d="m 122.20255,15.666852 v -2.733366 h 2.73339 v 2.733366 z" clip-path="url(#clipWmfPath1)" style="fill:none;stroke:#000000;stroke-width:0.0666681px;stroke-linecap:round;stroke-linejoin:round;stroke-miterlimit:4;stroke-dasharray:none;stroke-opacity:1" transform="rotate(180,100.30209,66.26745)"/>
  <path id="path50" d="m 126.53598,15.666852 v -2.733366 h 2.73339 v 2.733366 z" clip-path="url(#clipWmfPath1)" style="fill:#000000;fill-opacity:1;fill-rule:nonzero;stroke:none" transform="rotate(180,100.30209,66.26745)"/>
  <path id="path52" d="m 126.53598,15.666852 v -2.733366 h 2.73339 v 2.733366 z" clip-path="url(#clipWmfPath1)" style="fill:none;stroke:#000000;stroke-width:0.0666681px;stroke-linecap:round;stroke-linejoin:round;stroke-miterlimit:4;stroke-dasharray:none;stroke-opacity:1" transform="rotate(180,100.30209,66.26745)"/>
  <path id="path54" d="m 131.26941,15.666852 v -2.733366 h 2.73339 v 2.733366 z" clip-path="url(#clipWmfPath1)" style="fill:#000000;fill-opacity:1;fill-rule:nonzero;stroke:none" transform="rotate(180,100.30209,66.26745)"/>
  <path id="path56" d="m 131.26941,15.666852 v -2.733366 h 2.73339 v 2.733366 z" clip-path="url(#clipWmfPath1)" style="fill:none;stroke:#000000;stroke-width:0.0666681px;stroke-linecap:round;stroke-linejoin:round;stroke-miterlimit:4;stroke-dasharray:none;stroke-opacity:1" transform="rotate(180,100.30209,66.26745)"/>
  <path id="path58" d="m 122.20255,20.333574 v -2.733366 h 2.73339 v 2.733366 z" clip-path="url(#clipWmfPath1)" style="fill:#ffffff;fill-opacity:1;fill-rule:nonzero;stroke:none" transform="rotate(180,100.30209,66.26745)"/>
  <path id="path60" d="m 122.20255,20.333574 v -2.733366 h 2.73339 v 2.733366 z" clip-path="url(#clipWmfPath1)" style="fill:none;stroke:#000000;stroke-width:0.0666681px;stroke-linecap:round;stroke-linejoin:round;stroke-miterlimit:4;stroke-dasharray:none;stroke-opacity:1" transform="rotate(180,100.30209,66.26745)"/>
  <path id="path62" d="m 126.53598,20.333574 v -2.733366 h 2.73339 v 2.733366 z" clip-path="url(#clipWmfPath1)" style="fill:#000000;fill-opacity:1;fill-rule:nonzero;stroke:none" transform="rotate(180,100.30209,66.26745)"/>
  <path id="path64" d="m 126.53598,20.333574 v -2.733366 h 2.73339 v 2.733366 z" clip-path="url(#clipWmfPath1)" style="fill:none;stroke:#000000;stroke-width:0.0666681px;stroke-linecap:round;stroke-linejoin:round;stroke-miterlimit:4;stroke-dasharray:none;stroke-opacity:1" transform="rotate(180,100.30209,66.26745)"/>
  <path id="path66" d="m 131.26941,20.333574 v -2.733366 h 2.73339 v 2.733366 z" clip-path="url(#clipWmfPath1)" style="fill:#000000;fill-opacity:1;fill-rule:nonzero;stroke:none" transform="rotate(180,100.30209,66.26745)"/>
  <path id="path68" d="m 131.26941,20.333574 v -2.733366 h 2.73339 v 2.733366 z" clip-path="url(#clipWmfPath1)" style="fill:none;stroke:#000000;stroke-width:0.0666681px;stroke-linecap:round;stroke-linejoin:round;stroke-miterlimit:4;stroke-dasharray:none;stroke-opacity:1" transform="rotate(180,100.30209,66.26745)"/>
  <path id="path70" d="m 82.001713,60.600718 v 50.733932 l -1.600034,1.66669 H 30.467303 V 60.600718 Z M 41.134192,72.06752 h 30.200631 v 30.13369 H 41.134192 Z" clip-path="url(#clipWmfPath1)" style="fill:#000000;fill-opacity:1;fill-rule:evenodd;stroke:none" transform="rotate(180,100.30209,66.26745)"/>
  <path id="path72" d="m 82.001713,60.600718 v 50.733932 l -1.600034,1.66669 H 30.467303 V 60.600718 Z" clip-path="url(#clipWmfPath1)" style="fill:none;stroke:#000000;stroke-width:0.0666681px;stroke-linecap:round;stroke-linejoin:round;stroke-miterlimit:4;stroke-dasharray:none;stroke-opacity:1" transform="rotate(180,100.30209,66.26745)"/>
  <path id="path74" d="m 41.134192,72.06752 h 30.200631 v 30.13369 H 41.134192 Z" clip-path="url(#clipWmfPath1)" style="fill:none;stroke:#000000;stroke-width:0.0666681px;stroke-linecap:round;stroke-linejoin:round;stroke-miterlimit:4;stroke-dasharray:none;stroke-opacity:1" transform="rotate(180,100.30209,66.26745)"/>
  <path id="path76" d="m 38.46747,111.26798 0.666681,-0.13333 0.533344,-0.33334 0.33334,-0.46667 0.133337,-0.53334 -0.133337,-0.73334 -0.33334,-0.60001 -0.533344,-0.4 -0.666681,-0.13334 v -1.20001 l 0.666681,-0.13334 0.533344,-0.33334 0.33334,-0.53333 0.133337,-0.53334 -0.133337,-0.66668 -0.33334,-0.60001 -0.533344,-0.33333 -0.666681,-0.13334 v -1.33335 l 0.666681,-0.13333 0.533344,-0.46667 0.33334,-0.53334 0.133337,-0.66668 -0.133337,-0.600006 -0.33334,-0.466672 -0.533344,-0.333337 -0.666681,-0.133335 v -1.333349 l 0.666681,-0.133335 0.533344,-0.333337 0.33334,-0.53334 0.133337,-0.733342 -0.133337,-0.53334 -0.33334,-0.466672 -0.533344,-0.333337 -0.666681,-0.133335 v -1.200014 l 0.666681,-0.133335 0.533344,-0.333338 0.400008,-0.466672 0.133337,-0.666674 -0.133337,-0.666675 -0.400008,-0.53334 -0.533344,-0.466672 -0.666681,-0.133335 0.133336,-1.200014 0.600013,-0.133335 0.466676,-0.333337 0.33334,-0.466672 0.133337,-0.600007 -0.133337,-0.666675 -0.33334,-0.53334 -0.533344,-0.333337 -0.666681,-0.133335 v -1.200014 l 0.666681,-0.133335 0.533344,-0.333337 0.33334,-0.53334 0.133337,-0.666674 -0.133337,-0.600007 -0.33334,-0.466673 -0.533344,-0.333337 -0.666681,-0.133335 v -1.400016 l 0.666681,-0.133335 0.533344,-0.333338 0.33334,-0.533339 0.133337,-0.600007 -0.133337,-0.666675 -0.33334,-0.600007 -0.533344,-0.333337 -0.666681,-0.133335 v -1.200014 l 0.666681,-0.133335 0.533344,-0.333338 0.33334,-0.533339 0.133337,-0.600007 -0.133337,-0.666675 -0.33334,-0.600007 -0.533344,-0.400005 -0.666681,-0.133335 v -1.133346 l 0.666681,-0.133335 0.533344,-0.26667 0.400008,-0.466672 0.133337,-0.600007 -0.133337,-0.733342 -0.400008,-0.53334 -0.533344,-0.400005 -0.666681,-0.133335 v -1.200014 l 0.666681,-0.133335 0.533344,-0.400005 0.400008,-0.600007 0.133337,-0.666674 -0.133337,-0.666675 -0.33334,-0.533339 -0.533344,-0.333338 -0.600013,-0.133335 -0.733348,0.133335 -0.600013,0.333338 -0.466676,0.533339 -0.133337,0.666675 0.133337,0.666674 0.400008,0.600007 0.533344,0.400005 0.733349,0.133335 v 1.200014 l -0.733349,0.133335 -0.600012,0.333337 -0.400008,0.53334 -0.133337,0.733342 0.133337,0.600007 0.400008,0.466672 0.600012,0.333338 0.733349,0.133335 v 1.133346 l -0.733349,0.133335 -0.600012,0.400005 -0.400008,0.600007 -0.133337,0.666675 0.133337,0.600007 0.400008,0.533339 0.600012,0.333338 0.733349,0.133335 v 1.200014 l -0.733349,0.133335 -0.600012,0.333337 -0.400008,0.600007 -0.133337,0.666675 0.133337,0.600007 0.400008,0.533339 0.600012,0.333338 0.733349,0.133335 v 1.400016 l -0.733349,0.133335 -0.600012,0.333337 -0.400008,0.466673 -0.133337,0.600007 0.133337,0.666674 0.400008,0.53334 0.600012,0.333337 0.733349,0.133335 v 1.200014 l -0.733349,0.133335 -0.600012,0.333337 -0.400008,0.53334 -0.133337,0.666675 0.133337,0.600007 0.466676,0.466672 0.666681,0.333337 0.733348,0.133335 -0.133336,1.200014 -0.733349,0.133335 -0.600012,0.400005 -0.400008,0.53334 -0.133337,0.600007 0.133337,0.666674 0.400008,0.600007 0.600012,0.333338 0.733349,0.133335 v 1.200014 l -0.733349,0.133335 -0.600012,0.333337 -0.400008,0.466672 -0.133337,0.53334 0.133337,0.733342 0.400008,0.53334 0.600012,0.333337 0.733349,0.133335 v 1.333349 l -0.733349,0.133335 -0.600012,0.333337 -0.400008,0.466672 -0.133337,0.600006 0.133337,0.66668 0.400008,0.53334 0.600012,0.46667 0.733349,0.13333 v 1.33335 l -0.733349,0.13334 -0.600012,0.33333 -0.400008,0.60001 -0.133337,0.66668 0.133337,0.53334 0.400008,0.53333 0.600012,0.33334 0.733349,0.13334 v 1.20001 l -0.733349,0.13334 -0.600012,0.4 -0.400008,0.60001 -0.133337,0.73334 0.133337,0.53334 0.400008,0.46667 0.600012,0.33334 z" clip-path="url(#clipWmfPath1)" style="fill:#f7f7f7;fill-opacity:1;fill-rule:nonzero;stroke:none" transform="rotate(180,100.30209,66.26745)"/>
  <path id="path78" d="m 38.46747,111.26798 0.666681,-0.13333 0.533344,-0.33334 0.33334,-0.46667 0.133337,-0.53334 -0.133337,-0.73334 -0.33334,-0.60001 -0.533344,-0.4 -0.666681,-0.13334 v -1.20001 l 0.666681,-0.13334 0.533344,-0.33334 0.33334,-0.53333 0.133337,-0.53334 -0.133337,-0.66668 -0.33334,-0.60001 -0.533344,-0.33333 -0.666681,-0.13334 v -1.33335 l 0.666681,-0.13333 0.533344,-0.46667 0.33334,-0.53334 0.133337,-0.66668 -0.133337,-0.600006 -0.33334,-0.466672 -0.533344,-0.333337 -0.666681,-0.133335 v -1.333349 l 0.666681,-0.133335 0.533344,-0.333337 0.33334,-0.53334 0.133337,-0.733342 -0.133337,-0.53334 -0.33334,-0.466672 -0.533344,-0.333337 -0.666681,-0.133335 v -1.200014 l 0.666681,-0.133335 0.533344,-0.333338 0.400008,-0.466672 0.133337,-0.666674 -0.133337,-0.666675 -0.400008,-0.53334 -0.533344,-0.466672 -0.666681,-0.133335 0.133336,-1.200014 0.600013,-0.133335 0.466676,-0.333337 0.33334,-0.466672 0.133337,-0.600007 -0.133337,-0.666675 -0.33334,-0.53334 -0.533344,-0.333337 -0.666681,-0.133335 v -1.200014 l 0.666681,-0.133335 0.533344,-0.333337 0.33334,-0.53334 0.133337,-0.666674 -0.133337,-0.600007 -0.33334,-0.466673 -0.533344,-0.333337 -0.666681,-0.133335 v -1.400016 l 0.666681,-0.133335 0.533344,-0.333338 0.33334,-0.533339 0.133337,-0.600007 -0.133337,-0.666675 -0.33334,-0.600007 -0.533344,-0.333337 -0.666681,-0.133335 v -1.200014 l 0.666681,-0.133335 0.533344,-0.333338 0.33334,-0.533339 0.133337,-0.600007 -0.133337,-0.666675 -0.33334,-0.600007 -0.533344,-0.400005 -0.666681,-0.133335 v -1.133346 l 0.666681,-0.133335 0.533344,-0.26667 0.400008,-0.466672 0.133337,-0.600007 -0.133337,-0.733342 -0.400008,-0.53334 -0.533344,-0.400005 -0.666681,-0.133335 v -1.200014 l 0.666681,-0.133335 0.533344,-0.400005 0.400008,-0.600007 0.133337,-0.666674 -0.133337,-0.666675 -0.33334,-0.533339 -0.533344,-0.333338 -0.600013,-0.133335 -0.733348,0.133335 -0.600013,0.333338 -0.466676,0.533339 -0.133337,0.666675 0.133337,0.666674 0.400008,0.600007 0.533344,0.400005 0.733349,0.133335 v 1.200014 l -0.733349,0.133335 -0.600012,0.333337 -0.400008,0.53334 -0.133337,0.733342 0.133337,0.600007 0.400008,0.466672 0.600012,0.333338 0.733349,0.133335 v 1.133346 l -0.733349,0.133335 -0.600012,0.400005 -0.400008,0.600007 -0.133337,0.666675 0.133337,0.600007 0.400008,0.533339 0.600012,0.333338 0.733349,0.133335 v 1.200014 l -0.733349,0.133335 -0.600012,0.333337 -0.400008,0.600007 -0.133337,0.666675 0.133337,0.600007 0.400008,0.533339 0.600012,0.333338 0.733349,0.133335 v 1.400016 l -0.733349,0.133335 -0.600012,0.333337 -0.400008,0.466673 -0.133337,0.600007 0.133337,0.666674 0.400008,0.53334 0.600012,0.333337 0.733349,0.133335 v 1.200014 l -0.733349,0.133335 -0.600012,0.333337 -0.400008,0.53334 -0.133337,0.666675 0.133337,0.600007 0.466676,0.466672 0.666681,0.333337 0.733348,0.133335 -0.133336,1.200014 -0.733349,0.133335 -0.600012,0.400005 -0.400008,0.53334 -0.133337,0.600007 0.133337,0.666674 0.400008,0.600007 0.600012,0.333338 0.733349,0.133335 v 1.200014 l -0.733349,0.133335 -0.600012,0.333337 -0.400008,0.466672 -0.133337,0.53334 0.133337,0.733342 0.400008,0.53334 0.600012,0.333337 0.733349,0.133335 v 1.333349 l -0.733349,0.133335 -0.600012,0.333337 -0.400008,0.466672 -0.133337,0.600006 0.133337,0.66668 0.400008,0.53334 0.600012,0.46667 0.733349,0.13333 v 1.33335 l -0.733349,0.13334 -0.600012,0.33333 -0.400008,0.60001 -0.133337,0.66668 0.133337,0.53334 0.400008,0.53333 0.600012,0.33334 0.733349,0.13334 v 1.20001 l -0.733349,0.13334 -0.600012,0.4 -0.400008,0.60001 -0.133337,0.73334 0.133337,0.53334 0.400008,0.46667 0.600012,0.33334 z" clip-path="url(#clipWmfPath1)" style="fill:none;stroke:#000000;stroke-width:0.0666681px;stroke-linecap:round;stroke-linejoin:round;stroke-miterlimit:4;stroke-dasharray:none;stroke-opacity:1" transform="rotate(180,100.30209,66.26745)"/>
  <path id="path80" d="m 33.867374,111.33465 0.600013,-0.13333 0.533344,-0.33334 0.33334,-0.46667 0.133336,-0.53334 -0.133336,-0.73334 -0.33334,-0.60001 -0.533344,-0.40001 -0.600013,-0.13333 v -1.20002 l 0.600013,-0.13333 0.533344,-0.33334 0.33334,-0.53334 0.133336,-0.53334 -0.133336,-0.66667 -0.33334,-0.53334 -0.533344,-0.40001 -0.600013,-0.13333 v -1.33335 l 0.600013,-0.13333 0.533344,-0.40001 0.33334,-0.60001 0.133336,-0.66667 -0.133336,-0.533341 -0.33334,-0.466672 -0.533344,-0.333337 -0.600013,-0.133335 v -1.400017 l 0.600013,-0.133335 0.533344,-0.333337 0.33334,-0.53334 0.133336,-0.733342 -0.133336,-0.533339 -0.33334,-0.466673 -0.533344,-0.333337 -0.600013,-0.133335 v -1.200014 l 1.200025,-0.466672 0.400008,-0.466672 0.133337,-0.666675 -0.133337,-0.666674 -0.400008,-0.53334 -0.533344,-0.466672 -0.666681,-0.133335 0.06667,-1.200014 0.600013,-0.133335 0.466676,-0.333338 0.33334,-0.466672 0.133336,-0.600007 -0.133336,-0.666674 -0.33334,-0.53334 -0.533344,-0.333337 -0.600013,-0.133335 V 84.13433 l 0.600013,-0.133335 0.533344,-0.333338 0.33334,-0.533339 0.133336,-0.666675 -0.133336,-0.600007 -0.33334,-0.466672 -0.533344,-0.333337 -0.600013,-0.133335 v -1.400017 l 0.600013,-0.133335 0.533344,-0.333337 0.33334,-0.53334 0.133336,-0.666674 -0.133336,-0.666675 -0.33334,-0.53334 -0.533344,-0.333337 -0.600013,-0.133335 v -1.200014 l 0.600013,-0.133335 0.533344,-0.333337 0.33334,-0.53334 0.133336,-0.600007 -0.133336,-0.666674 -0.33334,-0.600008 -0.533344,-0.400004 -0.600013,-0.133335 v -1.133347 l 1.200025,-0.400005 0.400008,-0.466672 0.133337,-0.600007 -0.133337,-0.733342 -0.400008,-0.53334 -1.200025,-0.533339 v -1.200015 l 0.666681,-0.133334 0.533344,-0.400005 0.400008,-0.53334 0.133337,-0.733342 -0.133337,-0.666674 -0.400008,-0.53334 -0.533344,-0.333337 -0.600013,-0.133335 -0.733349,0.133335 -0.533344,0.333337 -0.400008,0.53334 -0.133337,0.666674 0.133337,0.733342 0.33334,0.53334 0.533344,0.400005 0.733349,0.133334 v 1.200015 l -0.733349,0.133335 -0.533344,0.333337 -0.400008,0.53334 -0.133337,0.733342 0.133337,0.600007 0.400008,0.466672 0.533344,0.333337 0.733349,0.133335 v 1.133347 l -0.733349,0.133335 -0.533344,0.400004 -0.400008,0.600008 -0.133337,0.666674 0.133337,0.600007 0.400008,0.53334 0.533344,0.333337 0.733349,0.133335 v 1.200014 l -0.733349,0.133335 -0.533344,0.333337 -0.400008,0.53334 -0.133337,0.666675 0.133337,0.666674 0.400008,0.53334 0.533344,0.333337 0.733349,0.133335 v 1.400017 l -0.733349,0.133335 -0.533344,0.333337 -0.400008,0.466672 -0.133337,0.600007 0.133337,0.666675 0.400008,0.533339 0.533344,0.333338 0.733349,0.133335 v 1.200014 l -0.733349,0.133335 -0.533344,0.333337 -0.400008,0.53334 -0.133337,0.666674 0.133337,0.600007 0.400008,0.466672 0.600012,0.333338 0.733349,0.133335 -0.06667,1.200014 -0.733349,0.133335 -0.533344,0.400004 -0.400008,0.53334 -0.133337,0.600007 0.133337,0.666675 0.400008,0.600007 0.533344,0.333337 0.733349,0.133335 v 1.200014 l -0.733349,0.133335 -0.533344,0.333337 -0.400008,0.466673 -0.133337,0.533339 0.133337,0.733342 0.400008,0.53334 0.533344,0.333337 0.733349,0.133335 v 1.400017 l -0.733349,0.133335 -0.533344,0.333337 -0.400008,0.466672 -0.133337,0.533341 0.133337,0.66667 0.400008,0.60001 0.533344,0.40001 0.733349,0.13333 v 1.33335 l -0.733349,0.13333 -0.533344,0.40001 -0.400008,0.53334 -0.133337,0.66667 0.133337,0.53334 0.400008,0.53334 0.533344,0.33334 0.733349,0.13333 v 1.20002 l -0.733349,0.13333 -0.533344,0.40001 -0.400008,0.60001 -0.133337,0.73334 0.133337,0.53334 0.400008,0.46667 0.533344,0.33334 z" clip-path="url(#clipWmfPath1)" style="fill:#f7f7f7;fill-opacity:1;fill-rule:nonzero;stroke:none" transform="rotate(180,100.30209,66.26745)"/>
  <path id="path82" d="m 33.867374,111.33465 0.600013,-0.13333 0.533344,-0.33334 0.33334,-0.46667 0.133336,-0.53334 -0.133336,-0.73334 -0.33334,-0.60001 -0.533344,-0.40001 -0.600013,-0.13333 v -1.20002 l 0.600013,-0.13333 0.533344,-0.33334 0.33334,-0.53334 0.133336,-0.53334 -0.133336,-0.66667 -0.33334,-0.53334 -0.533344,-0.40001 -0.600013,-0.13333 v -1.33335 l 0.600013,-0.13333 0.533344,-0.40001 0.33334,-0.60001 0.133336,-0.66667 -0.133336,-0.533341 -0.33334,-0.466672 -0.533344,-0.333337 -0.600013,-0.133335 v -1.400017 l 0.600013,-0.133335 0.533344,-0.333337 0.33334,-0.53334 0.133336,-0.733342 -0.133336,-0.533339 -0.33334,-0.466673 -0.533344,-0.333337 -0.600013,-0.133335 v -1.200014 l 1.200025,-0.466672 0.400008,-0.466672 0.133337,-0.666675 -0.133337,-0.666674 -0.400008,-0.53334 -0.533344,-0.466672 -0.666681,-0.133335 0.06667,-1.200014 0.600013,-0.133335 0.466676,-0.333338 0.33334,-0.466672 0.133336,-0.600007 -0.133336,-0.666674 -0.33334,-0.53334 -0.533344,-0.333337 -0.600013,-0.133335 V 84.13433 l 0.600013,-0.133335 0.533344,-0.333338 0.33334,-0.533339 0.133336,-0.666675 -0.133336,-0.600007 -0.33334,-0.466672 -0.533344,-0.333337 -0.600013,-0.133335 v -1.400017 l 0.600013,-0.133335 0.533344,-0.333337 0.33334,-0.53334 0.133336,-0.666674 -0.133336,-0.666675 -0.33334,-0.53334 -0.533344,-0.333337 -0.600013,-0.133335 v -1.200014 l 0.600013,-0.133335 0.533344,-0.333337 0.33334,-0.53334 0.133336,-0.600007 -0.133336,-0.666674 -0.33334,-0.600008 -0.533344,-0.400004 -0.600013,-0.133335 v -1.133347 l 1.200025,-0.400005 0.400008,-0.466672 0.133337,-0.600007 -0.133337,-0.733342 -0.400008,-0.53334 -1.200025,-0.533339 v -1.200015 l 0.666681,-0.133334 0.533344,-0.400005 0.400008,-0.53334 0.133337,-0.733342 -0.133337,-0.666674 -0.400008,-0.53334 -0.533344,-0.333337 -0.600013,-0.133335 -0.733349,0.133335 -0.533344,0.333337 -0.400008,0.53334 -0.133337,0.666674 0.133337,0.733342 0.33334,0.53334 0.533344,0.400005 0.733349,0.133334 v 1.200015 l -0.733349,0.133335 -0.533344,0.333337 -0.400008,0.53334 -0.133337,0.733342 0.133337,0.600007 0.400008,0.466672 0.533344,0.333337 0.733349,0.133335 v 1.133347 l -0.733349,0.133335 -0.533344,0.400004 -0.400008,0.600008 -0.133337,0.666674 0.133337,0.600007 0.400008,0.53334 0.533344,0.333337 0.733349,0.133335 v 1.200014 l -0.733349,0.133335 -0.533344,0.333337 -0.400008,0.53334 -0.133337,0.666675 0.133337,0.666674 0.400008,0.53334 0.533344,0.333337 0.733349,0.133335 v 1.400017 l -0.733349,0.133335 -0.533344,0.333337 -0.400008,0.466672 -0.133337,0.600007 0.133337,0.666675 0.400008,0.533339 0.533344,0.333338 0.733349,0.133335 v 1.200014 l -0.733349,0.133335 -0.533344,0.333337 -0.400008,0.53334 -0.133337,0.666674 0.133337,0.600007 0.400008,0.466672 0.600012,0.333338 0.733349,0.133335 -0.06667,1.200014 -0.733349,0.133335 -0.533344,0.400004 -0.400008,0.53334 -0.133337,0.600007 0.133337,0.666675 0.400008,0.600007 0.533344,0.333337 0.733349,0.133335 v 1.200014 l -0.733349,0.133335 -0.533344,0.333337 -0.400008,0.466673 -0.133337,0.533339 0.133337,0.733342 0.400008,0.53334 0.533344,0.333337 0.733349,0.133335 v 1.400017 l -0.733349,0.133335 -0.533344,0.333337 -0.400008,0.466672 -0.133337,0.533341 0.133337,0.66667 0.400008,0.60001 0.533344,0.40001 0.733349,0.13333 v 1.33335 l -0.733349,0.13333 -0.533344,0.40001 -0.400008,0.53334 -0.133337,0.66667 0.133337,0.53334 0.400008,0.53334 0.533344,0.33334 0.733349,0.13333 v 1.20002 l -0.733349,0.13333 -0.533344,0.40001 -0.400008,0.60001 -0.133337,0.73334 0.133337,0.53334 0.400008,0.46667 0.533344,0.33334 z" clip-path="url(#clipWmfPath1)" style="fill:none;stroke:#000000;stroke-width:0.0666681px;stroke-linecap:round;stroke-linejoin:round;stroke-miterlimit:4;stroke-dasharray:none;stroke-opacity:1" transform="rotate(180,100.30209,66.26745)"/>
  <path id="path84" d="m 42.867562,62.600741 -0.666681,0.133335 -0.533344,0.400005 -0.400008,0.53334 -0.133337,0.600007 0.133337,0.733342 0.33334,0.666674 0.533344,0.400005 0.533345,0.133335 v 1.466684 l -0.533345,0.133335 -0.533344,0.400005 -0.33334,0.533339 -0.133337,0.733342 0.133337,0.600007 0.33334,0.466672 0.533344,0.26667 0.533345,0.133335 0.66668,-0.133335 0.466677,-0.333337 0.33334,-0.600007 0.06667,-0.666675 h 1.400029 l 0.133337,0.666675 0.33334,0.600007 0.533344,0.333337 0.733349,0.133335 0.666681,-0.133335 0.466676,-0.333337 0.33334,-0.600007 0.133336,-0.666675 h 1.133357 l 0.133336,0.666675 0.400009,0.600007 0.466676,0.333337 0.600013,0.133335 0.733348,-0.133335 0.533345,-0.333337 0.400008,-0.600007 0.133336,-0.666675 h 1.133357 l 0.133336,0.666675 0.333341,0.600007 0.533344,0.333337 0.666681,0.133335 0.733349,-0.133335 0.533344,-0.333337 0.400008,-0.600007 0.133336,-0.666675 h 1.133357 l 0.133337,0.666675 0.33334,0.600007 0.533344,0.333337 0.666681,0.133335 0.600012,-0.133335 0.533345,-0.333337 0.33334,-0.600007 0.133336,-0.666675 h 1.333362 l 0.133336,0.666675 0.33334,0.600007 0.533344,0.333337 0.600013,0.133335 0.666681,-0.133335 0.533344,-0.333337 0.33334,-0.600007 0.133336,-0.666675 h 1.200025 l 0.133337,0.666675 0.33334,0.600007 0.533344,0.333337 0.666681,0.133335 0.666681,-0.133335 0.533344,-0.333337 0.400008,-0.600007 0.133336,-0.666675 -0.133336,-0.666674 -0.400008,-0.53334 -0.533344,-0.400005 -0.666681,-0.133334 -0.666681,0.133334 -0.533344,0.400005 -0.466677,1.200014 h -1.200025 l -0.133336,-0.666674 -0.33334,-0.53334 -0.533344,-0.400005 -0.666681,-0.133334 -0.600013,0.133334 -0.533344,0.400005 -0.33334,0.53334 -0.133336,0.666674 h -1.333362 l -0.133336,-0.666674 -0.33334,-0.53334 -0.533345,-0.400005 -0.600012,-0.133334 -0.666681,0.133334 -0.533344,0.400005 -0.33334,0.53334 -0.133337,0.666674 H 58.067879 L 57.934543,68.534145 57.534535,68.000805 57.001191,67.6008 56.267842,67.467466 55.601161,67.6008 55.067817,68.000805 54.60114,69.200819 h -1.133357 l -0.133336,-0.666674 -0.400008,-0.53334 -0.533345,-0.466672 -0.733348,-0.133335 -0.533345,0.133335 -0.533344,0.466672 -0.400009,0.53334 -0.133336,0.666674 h -1.133357 l -0.133336,-0.666674 -0.33334,-0.53334 -0.466676,-0.400005 -0.666681,-0.133334 -0.733349,0.133334 -0.533344,0.400005 -0.466677,1.200014 h -1.400029 l -0.06667,-0.600007 -0.33334,-0.466672 -0.466677,-0.333337 -0.66668,-0.133335 v -1.466684 l 0.66668,-0.133335 0.533345,-0.400005 0.33334,-0.666674 0.133336,-0.733342 h 1.333361 l 0.133337,0.733342 0.266672,0.666674 0.533344,0.400005 0.733349,0.133335 0.666681,-0.133335 0.466676,-0.400005 0.33334,-0.666674 0.133336,-0.733342 h 1.200025 l 0.133337,0.733342 0.33334,0.666674 0.466676,0.400005 0.600013,0.133335 0.733348,-0.133335 0.533345,-0.400005 0.400008,-0.666674 0.133336,-0.733342 h 1.200025 l 0.133337,0.733342 0.266672,0.666674 0.533344,0.400005 0.666681,0.133335 0.733349,-0.133335 0.533344,-0.400005 0.400008,-0.666674 0.133336,-0.733342 h 1.200026 l 0.133336,0.733342 0.33334,0.666674 0.466676,0.400005 0.666681,0.133335 0.666681,-0.133335 0.533344,-0.400005 0.400008,-0.666674 0.133336,-0.733342 h 1.266694 l 0.133336,0.733342 0.33334,0.666674 0.466676,0.400005 0.600013,0.133335 0.666681,-0.133335 0.533344,-0.400005 0.33334,-0.666674 0.133336,-0.733342 h 1.266694 l 0.133336,0.733342 0.266672,0.666674 0.533344,0.400005 0.666681,0.133335 0.666681,-0.133335 0.600012,-0.400005 0.466676,-0.666674 0.133337,-0.733342 -0.133337,-0.600007 -0.400008,-0.53334 -0.600012,-0.400005 -0.733349,-0.133335 -0.666681,0.133335 -0.466676,0.400005 -0.466676,1.133347 h -1.266694 l -0.133336,-0.600007 -0.33334,-0.53334 -0.533344,-0.400005 -0.666681,-0.133335 -0.600013,0.133335 -0.466676,0.400005 -0.33334,0.53334 -0.133336,0.600007 h -1.266694 l -0.133336,-0.600007 -0.400008,-0.53334 -1.133357,-0.53334 -0.600013,0.133335 -0.533344,0.400005 -0.400008,0.53334 -0.133336,0.600007 h -1.200026 l -0.133336,-0.600007 -0.33334,-0.53334 -0.600012,-0.400005 -0.666681,-0.133335 -0.666681,0.133335 -0.533344,0.400005 -0.33334,0.53334 -0.133337,0.600007 h -1.200025 l -0.133336,-0.666675 -0.33334,-0.53334 -0.533345,-0.400004 -0.66668,-0.133335 -0.600013,0.133335 -0.533344,0.400004 -0.400008,0.53334 -0.133337,0.666675 h -1.200025 l -0.133336,-0.600007 -0.266672,-0.53334 -0.466676,-0.400005 -0.666681,-0.133335 -0.733349,0.133335 -0.533344,0.400005 -0.466677,1.133347 h -1.333361 l -0.133336,-0.600007 -0.266672,-0.53334 -0.466676,-0.400005 -0.600013,-0.133335 z" clip-path="url(#clipWmfPath1)" style="fill:#f7f7f7;fill-opacity:1;fill-rule:nonzero;stroke:none" transform="rotate(180,100.30209,66.26745)"/>
  <path id="path86" d="m 42.867562,62.600741 -0.666681,0.133335 -0.533344,0.400005 -0.400008,0.53334 -0.133337,0.600007 0.133337,0.733342 0.33334,0.666674 0.533344,0.400005 0.533345,0.133335 v 1.466684 l -0.533345,0.133335 -0.533344,0.400005 -0.33334,0.533339 -0.133337,0.733342 0.133337,0.600007 0.33334,0.466672 0.533344,0.26667 0.533345,0.133335 0.66668,-0.133335 0.466677,-0.333337 0.33334,-0.600007 0.06667,-0.666675 h 1.400029 l 0.133337,0.666675 0.33334,0.600007 0.533344,0.333337 0.733349,0.133335 0.666681,-0.133335 0.466676,-0.333337 0.33334,-0.600007 0.133336,-0.666675 h 1.133357 l 0.133336,0.666675 0.400009,0.600007 0.466676,0.333337 0.600013,0.133335 0.733348,-0.133335 0.533345,-0.333337 0.400008,-0.600007 0.133336,-0.666675 h 1.133357 l 0.133336,0.666675 0.333341,0.600007 0.533344,0.333337 0.666681,0.133335 0.733349,-0.133335 0.533344,-0.333337 0.400008,-0.600007 0.133336,-0.666675 h 1.133357 l 0.133337,0.666675 0.33334,0.600007 0.533344,0.333337 0.666681,0.133335 0.600012,-0.133335 0.533345,-0.333337 0.33334,-0.600007 0.133336,-0.666675 h 1.333362 l 0.133336,0.666675 0.33334,0.600007 0.533344,0.333337 0.600013,0.133335 0.666681,-0.133335 0.533344,-0.333337 0.33334,-0.600007 0.133336,-0.666675 h 1.200025 l 0.133337,0.666675 0.33334,0.600007 0.533344,0.333337 0.666681,0.133335 0.666681,-0.133335 0.533344,-0.333337 0.400008,-0.600007 0.133336,-0.666675 -0.133336,-0.666674 -0.400008,-0.53334 -0.533344,-0.400005 -0.666681,-0.133334 -0.666681,0.133334 -0.533344,0.400005 -0.466677,1.200014 h -1.200025 l -0.133336,-0.666674 -0.33334,-0.53334 -0.533344,-0.400005 -0.666681,-0.133334 -0.600013,0.133334 -0.533344,0.400005 -0.33334,0.53334 -0.133336,0.666674 h -1.333362 l -0.133336,-0.666674 -0.33334,-0.53334 -0.533345,-0.400005 -0.600012,-0.133334 -0.666681,0.133334 -0.533344,0.400005 -0.33334,0.53334 -0.133337,0.666674 H 58.067879 L 57.934543,68.534145 57.534535,68.000805 57.001191,67.6008 56.267842,67.467466 55.601161,67.6008 55.067817,68.000805 54.60114,69.200819 h -1.133357 l -0.133336,-0.666674 -0.400008,-0.53334 -0.533345,-0.466672 -0.733348,-0.133335 -0.533345,0.133335 -0.533344,0.466672 -0.400009,0.53334 -0.133336,0.666674 h -1.133357 l -0.133336,-0.666674 -0.33334,-0.53334 -0.466676,-0.400005 -0.666681,-0.133334 -0.733349,0.133334 -0.533344,0.400005 -0.466677,1.200014 h -1.400029 l -0.06667,-0.600007 -0.33334,-0.466672 -0.466677,-0.333337 -0.66668,-0.133335 v -1.466684 l 0.66668,-0.133335 0.533345,-0.400005 0.33334,-0.666674 0.133336,-0.733342 h 1.333361 l 0.133337,0.733342 0.266672,0.666674 0.533344,0.400005 0.733349,0.133335 0.666681,-0.133335 0.466676,-0.400005 0.33334,-0.666674 0.133336,-0.733342 h 1.200025 l 0.133337,0.733342 0.33334,0.666674 0.466676,0.400005 0.600013,0.133335 0.733348,-0.133335 0.533345,-0.400005 0.400008,-0.666674 0.133336,-0.733342 h 1.200025 l 0.133337,0.733342 0.266672,0.666674 0.533344,0.400005 0.666681,0.133335 0.733349,-0.133335 0.533344,-0.400005 0.400008,-0.666674 0.133336,-0.733342 h 1.200026 l 0.133336,0.733342 0.33334,0.666674 0.466676,0.400005 0.666681,0.133335 0.666681,-0.133335 0.533344,-0.400005 0.400008,-0.666674 0.133336,-0.733342 h 1.266694 l 0.133336,0.733342 0.33334,0.666674 0.466676,0.400005 0.600013,0.133335 0.666681,-0.133335 0.533344,-0.400005 0.33334,-0.666674 0.133336,-0.733342 h 1.266694 l 0.133336,0.733342 0.266672,0.666674 0.533344,0.400005 0.666681,0.133335 0.666681,-0.133335 0.600012,-0.400005 0.466676,-0.666674 0.133337,-0.733342 -0.133337,-0.600007 -0.400008,-0.53334 -0.600012,-0.400005 -0.733349,-0.133335 -0.666681,0.133335 -0.466676,0.400005 -0.466676,1.133347 h -1.266694 l -0.133336,-0.600007 -0.33334,-0.53334 -0.533344,-0.400005 -0.666681,-0.133335 -0.600013,0.133335 -0.466676,0.400005 -0.33334,0.53334 -0.133336,0.600007 h -1.266694 l -0.133336,-0.600007 -0.400008,-0.53334 -1.133357,-0.53334 -0.600013,0.133335 -0.533344,0.400005 -0.400008,0.53334 -0.133336,0.600007 h -1.200026 l -0.133336,-0.600007 -0.33334,-0.53334 -0.600012,-0.400005 -0.666681,-0.133335 -0.666681,0.133335 -0.533344,0.400005 -0.33334,0.53334 -0.133337,0.600007 h -1.200025 l -0.133336,-0.666675 -0.33334,-0.53334 -0.533345,-0.400004 -0.66668,-0.133335 -0.600013,0.133335 -0.533344,0.400004 -0.400008,0.53334 -0.133337,0.666675 h -1.200025 l -0.133336,-0.600007 -0.266672,-0.53334 -0.466676,-0.400005 -0.666681,-0.133335 -0.733349,0.133335 -0.533344,0.400005 -0.466677,1.133347 h -1.333361 l -0.133336,-0.600007 -0.266672,-0.53334 -0.466676,-0.400005 -0.600013,-0.133335 z" clip-path="url(#clipWmfPath1)" style="fill:none;stroke:#000000;stroke-width:0.0666681px;stroke-linecap:round;stroke-linejoin:round;stroke-miterlimit:4;stroke-dasharray:none;stroke-opacity:1" transform="rotate(180,100.30209,66.26745)"/>
  <path id="path88" d="m 74.068214,62.667409 -0.666681,0.133335 -0.533344,0.400004 -0.333341,0.466673 -0.133336,0.533339 0.133336,0.733342 0.333341,0.600007 0.533344,0.400005 0.666681,0.133335 v 1.200014 l -0.666681,0.133335 -0.533344,0.333337 -0.333341,0.466673 -0.133336,0.600007 0.133336,0.666674 0.333341,0.600007 0.533344,0.400005 0.666681,0.133335 v 1.266682 l -0.666681,0.200002 -0.533344,0.400005 -0.333341,0.600007 -0.133336,0.600007 0.133336,0.600007 0.333341,0.466672 0.533344,0.26667 0.666681,0.133335 v 1.466684 l -0.666681,0.133335 -0.533344,0.333337 -0.333341,0.53334 -0.133336,0.666674 0.133336,0.600007 0.333341,0.466673 0.533344,0.333337 0.666681,0.133335 v 1.133347 l -0.666681,0.133335 -0.533344,0.333337 -0.400009,0.533339 -0.133336,0.733342 0.133336,0.600008 0.400009,0.533339 0.533344,0.333338 0.666681,0.133334 -0.06667,1.266682 -0.666681,0.133335 -0.466676,0.333337 -0.333341,0.53334 -0.133336,0.600007 0.133336,0.666675 0.333341,0.533339 0.533344,0.333338 0.666681,0.133334 v 1.200015 l -0.666681,0.133335 -0.533344,0.333337 -0.333341,0.533339 -0.133336,0.666675 0.133336,0.600007 0.333341,0.53334 0.533344,0.400005 0.666681,0.133334 v 1.33335 l -0.666681,0.133334 -0.533344,0.333338 -0.333341,0.533339 -0.133336,0.53334 0.133336,0.666675 0.333341,0.600007 0.533344,0.333337 0.666681,0.133335 v 1.200014 l -0.666681,0.133335 -0.533344,0.400005 -0.333341,0.533343 -0.133336,0.6 0.133336,0.66668 0.333341,0.60001 0.533344,0.33333 0.666681,0.13334 v 1.06668 l -0.666681,0.13333 -0.533344,0.40001 -0.533345,1.06668 0.133336,0.73334 0.400009,0.53334 0.533344,0.33333 0.666681,0.13334 v 1.26668 l -0.666681,0.13334 -0.533344,0.33333 -0.333341,0.53334 -0.133336,0.66668 0.133336,0.6 0.333341,0.53334 0.533344,0.40001 0.666681,0.13333 0.66668,-0.13333 0.600013,-0.40001 0.400008,-0.53334 0.133336,-0.6 -0.133336,-0.66668 -0.400008,-0.53334 -1.266693,-0.46667 v -1.26668 l 0.66668,-0.13334 0.600013,-0.26667 0.400008,-0.53333 0.133336,-0.73335 -0.133336,-0.6 -0.400008,-0.53334 -0.600013,-0.40001 -0.66668,-0.13333 v -1.06668 l 0.66668,-0.13334 0.600013,-0.33333 0.400008,-0.60001 0.133336,-0.66668 -0.133336,-0.6 -0.400008,-0.533343 -0.600013,-0.400005 -0.66668,-0.133335 v -1.200014 l 0.66668,-0.133335 0.600013,-0.333337 0.400008,-0.600007 0.133336,-0.666675 -0.133336,-0.53334 -0.400008,-0.533339 -0.600013,-0.333338 -0.66668,-0.133334 v -1.33335 l 0.66668,-0.133334 0.600013,-0.400005 0.400008,-0.53334 0.133336,-0.600007 -0.133336,-0.666675 -0.400008,-0.533339 -0.600013,-0.333337 -0.66668,-0.133335 v -1.200015 l 0.66668,-0.133334 0.600013,-0.333338 0.400008,-0.533339 0.133336,-0.666675 -0.133336,-0.600007 -0.466676,-0.53334 -0.600013,-0.333337 -0.66668,-0.133335 0.06667,-1.266682 0.66668,-0.133334 0.600013,-0.333338 0.400008,-0.466672 0.133336,-0.600007 -0.133336,-0.733342 -0.400008,-0.53334 -0.600013,-0.400004 -0.66668,-0.133335 v -1.133347 l 0.66668,-0.133335 0.600013,-0.333337 0.400008,-0.466673 0.133336,-0.600007 -0.133336,-0.666674 -0.400008,-0.53334 -1.266693,-0.466672 v -1.466684 l 0.66668,-0.133335 0.600013,-0.26667 0.400008,-0.466672 0.133336,-0.600007 -0.133336,-0.600007 -0.400008,-0.600007 -0.600013,-0.400005 -0.66668,-0.200002 v -1.266682 l 0.66668,-0.133335 0.600013,-0.400005 0.400008,-0.600007 0.133336,-0.666674 -0.133336,-0.600007 -0.400008,-0.466673 -0.600013,-0.333337 -0.66668,-0.133335 v -1.200014 l 0.66668,-0.133335 0.600013,-0.400005 0.400008,-0.600007 0.133336,-0.733342 -0.133336,-0.533339 -0.400008,-0.466673 -0.600013,-0.400004 z" clip-path="url(#clipWmfPath1)" style="fill:#f7f7f7;fill-opacity:1;fill-rule:nonzero;stroke:none" transform="rotate(180,100.30209,66.26745)"/>
  <path id="path90" d="m 74.068214,62.667409 -0.666681,0.133335 -0.533344,0.400004 -0.333341,0.466673 -0.133336,0.533339 0.133336,0.733342 0.333341,0.600007 0.533344,0.400005 0.666681,0.133335 v 1.200014 l -0.666681,0.133335 -0.533344,0.333337 -0.333341,0.466673 -0.133336,0.600007 0.133336,0.666674 0.333341,0.600007 0.533344,0.400005 0.666681,0.133335 v 1.266682 l -0.666681,0.200002 -0.533344,0.400005 -0.333341,0.600007 -0.133336,0.600007 0.133336,0.600007 0.333341,0.466672 0.533344,0.26667 0.666681,0.133335 v 1.466684 l -0.666681,0.133335 -0.533344,0.333337 -0.333341,0.53334 -0.133336,0.666674 0.133336,0.600007 0.333341,0.466673 0.533344,0.333337 0.666681,0.133335 v 1.133347 l -0.666681,0.133335 -0.533344,0.333337 -0.400009,0.533339 -0.133336,0.733342 0.133336,0.600008 0.400009,0.533339 0.533344,0.333338 0.666681,0.133334 -0.06667,1.266682 -0.666681,0.133335 -0.466676,0.333337 -0.333341,0.53334 -0.133336,0.600007 0.133336,0.666675 0.333341,0.533339 0.533344,0.333338 0.666681,0.133334 v 1.200015 l -0.666681,0.133335 -0.533344,0.333337 -0.333341,0.533339 -0.133336,0.666675 0.133336,0.600007 0.333341,0.53334 0.533344,0.400005 0.666681,0.133334 v 1.33335 l -0.666681,0.133334 -0.533344,0.333338 -0.333341,0.533339 -0.133336,0.53334 0.133336,0.666675 0.333341,0.600007 0.533344,0.333337 0.666681,0.133335 v 1.200014 l -0.666681,0.133335 -0.533344,0.400005 -0.333341,0.533343 -0.133336,0.6 0.133336,0.66668 0.333341,0.60001 0.533344,0.33333 0.666681,0.13334 v 1.06668 l -0.666681,0.13333 -0.533344,0.40001 -0.533345,1.06668 0.133336,0.73334 0.400009,0.53334 0.533344,0.33333 0.666681,0.13334 v 1.26668 l -0.666681,0.13334 -0.533344,0.33333 -0.333341,0.53334 -0.133336,0.66668 0.133336,0.6 0.333341,0.53334 0.533344,0.40001 0.666681,0.13333 0.66668,-0.13333 0.600013,-0.40001 0.400008,-0.53334 0.133336,-0.6 -0.133336,-0.66668 -0.400008,-0.53334 -1.266693,-0.46667 v -1.26668 l 0.66668,-0.13334 0.600013,-0.26667 0.400008,-0.53333 0.133336,-0.73335 -0.133336,-0.6 -0.400008,-0.53334 -0.600013,-0.40001 -0.66668,-0.13333 v -1.06668 l 0.66668,-0.13334 0.600013,-0.33333 0.400008,-0.60001 0.133336,-0.66668 -0.133336,-0.6 -0.400008,-0.533343 -0.600013,-0.400005 -0.66668,-0.133335 v -1.200014 l 0.66668,-0.133335 0.600013,-0.333337 0.400008,-0.600007 0.133336,-0.666675 -0.133336,-0.53334 -0.400008,-0.533339 -0.600013,-0.333338 -0.66668,-0.133334 v -1.33335 l 0.66668,-0.133334 0.600013,-0.400005 0.400008,-0.53334 0.133336,-0.600007 -0.133336,-0.666675 -0.400008,-0.533339 -0.600013,-0.333337 -0.66668,-0.133335 v -1.200015 l 0.66668,-0.133334 0.600013,-0.333338 0.400008,-0.533339 0.133336,-0.666675 -0.133336,-0.600007 -0.466676,-0.53334 -0.600013,-0.333337 -0.66668,-0.133335 0.06667,-1.266682 0.66668,-0.133334 0.600013,-0.333338 0.400008,-0.466672 0.133336,-0.600007 -0.133336,-0.733342 -0.400008,-0.53334 -0.600013,-0.400004 -0.66668,-0.133335 v -1.133347 l 0.66668,-0.133335 0.600013,-0.333337 0.400008,-0.466673 0.133336,-0.600007 -0.133336,-0.666674 -0.400008,-0.53334 -1.266693,-0.466672 v -1.466684 l 0.66668,-0.133335 0.600013,-0.26667 0.400008,-0.466672 0.133336,-0.600007 -0.133336,-0.600007 -0.400008,-0.600007 -0.600013,-0.400005 -0.66668,-0.200002 v -1.266682 l 0.66668,-0.133335 0.600013,-0.400005 0.400008,-0.600007 0.133336,-0.666674 -0.133336,-0.600007 -0.400008,-0.466673 -0.600013,-0.333337 -0.66668,-0.133335 v -1.200014 l 0.66668,-0.133335 0.600013,-0.400005 0.400008,-0.600007 0.133336,-0.733342 -0.133336,-0.533339 -0.400008,-0.466673 -0.600013,-0.400004 z" clip-path="url(#clipWmfPath1)" style="fill:none;stroke:#000000;stroke-width:0.0666681px;stroke-linecap:round;stroke-linejoin:round;stroke-miterlimit:4;stroke-dasharray:none;stroke-opacity:1" transform="rotate(180,100.30209,66.26745)"/>
  <path id="path92" d="m 78.66831,62.600741 -0.666681,0.133335 -0.533344,0.400005 -0.333341,0.466672 -0.133336,0.53334 0.133336,0.800009 0.333341,0.53334 0.533344,0.400005 0.666681,0.133334 v 1.200015 l -0.666681,0.133335 -0.533344,0.333337 -0.333341,0.466672 -0.133336,0.53334 0.133336,0.733342 0.333341,0.533339 0.533344,0.400005 0.666681,0.133335 v 1.333349 l -0.666681,0.200003 -0.533344,0.400004 -0.333341,0.600007 -0.133336,0.600007 0.133336,0.600008 0.333341,0.466672 0.533344,0.26667 0.666681,0.133335 v 1.333349 l -0.666681,0.133335 -0.533344,0.400004 -0.333341,0.53334 -0.133336,0.733342 0.133336,0.53334 0.333341,0.466672 0.533344,0.333337 0.666681,0.133335 v 1.200014 l -0.666681,0.133335 -0.600012,0.333337 -0.400009,0.53334 -0.133336,0.666675 0.133336,0.600007 0.400009,0.533339 0.600012,0.400005 0.666681,0.133335 -0.133336,1.200014 -0.600013,0.133335 -0.466676,0.333337 -0.466677,1.133347 0.133336,0.666675 0.333341,0.533339 0.533344,0.333338 0.666681,0.133335 v 1.200014 l -0.666681,0.133335 -0.533344,0.333337 -0.333341,0.53334 -0.133336,0.600007 0.133336,0.666674 0.333341,0.600007 0.533344,0.333338 0.666681,0.133335 v 1.266681 l -0.666681,0.133335 -0.533344,0.400005 -0.333341,0.53334 -0.133336,0.600007 0.133336,0.600007 0.333341,0.533339 0.533344,0.400005 0.666681,0.133335 v 1.200014 l -0.666681,0.133335 -0.533344,0.400005 -0.333341,0.466668 -0.133336,0.60001 0.133336,0.73334 0.333341,0.53334 0.533344,0.33334 0.666681,0.13334 v 1.13334 l -0.666681,0.13334 -0.600012,0.33333 -0.400009,0.53334 -0.133336,0.60001 0.133336,0.73334 0.400009,0.53334 0.600012,0.33334 0.666681,0.13333 v 1.26669 l -0.666681,0.13333 -0.533344,0.33334 -0.333341,0.53334 -0.133336,0.66667 0.133336,0.60001 0.333341,0.53334 0.533344,0.33334 0.666681,0.13333 0.66668,-0.13333 0.600013,-0.33334 0.33334,-0.53334 0.133336,-0.60001 -0.133336,-0.66667 -0.33334,-0.53334 -0.600013,-0.33334 -0.66668,-0.13333 v -1.26669 l 0.66668,-0.13333 0.600013,-0.26667 0.33334,-0.53334 0.133336,-0.73334 -0.133336,-0.60001 -0.33334,-0.53334 -0.600013,-0.4 -0.66668,-0.13334 v -1.13334 l 0.66668,-0.13334 0.600013,-0.33334 0.33334,-0.53334 0.133336,-0.73334 -0.133336,-0.60001 -0.33334,-0.466668 -0.600013,-0.400005 -0.66668,-0.133335 v -1.200014 l 0.66668,-0.133335 0.600013,-0.400005 0.33334,-0.533339 0.133336,-0.600007 -0.133336,-0.600007 -0.33334,-0.53334 -0.600013,-0.400005 -0.66668,-0.133335 v -1.266681 l 0.66668,-0.133335 0.600013,-0.333338 0.33334,-0.600007 0.133336,-0.666674 -0.133336,-0.600007 -0.33334,-0.53334 -0.600013,-0.333337 -0.66668,-0.133335 v -1.200014 l 0.66668,-0.133335 0.600013,-0.333338 0.33334,-0.533339 0.133336,-0.666675 -0.133336,-0.666674 -0.400008,-0.466673 -0.600013,-0.333337 -0.733348,-0.133335 0.133336,-1.200014 0.66668,-0.133335 0.600013,-0.333337 0.33334,-0.466672 0.133336,-0.600008 -0.133336,-0.733342 -0.33334,-0.533339 -0.600013,-0.400005 -0.66668,-0.133335 V 79.66761 l 0.66668,-0.133335 0.600013,-0.333337 0.33334,-0.466672 0.133336,-0.53334 -0.133336,-0.733342 -0.33334,-0.53334 -0.600013,-0.400004 -0.66668,-0.133335 v -1.333349 l 0.66668,-0.133335 0.600013,-0.26667 0.33334,-0.466672 0.133336,-0.600008 -0.133336,-0.600007 -0.33334,-0.600007 -0.600013,-0.400004 -0.66668,-0.200003 v -1.333349 l 0.66668,-0.133335 0.600013,-0.400005 0.33334,-0.533339 0.133336,-0.733342 -0.133336,-0.53334 -0.33334,-0.466672 -0.600013,-0.333337 -0.66668,-0.133335 v -1.200015 l 0.66668,-0.133334 0.600013,-0.400005 0.33334,-0.53334 0.133336,-0.800009 -0.466676,-1.000012 -0.600013,-0.400005 z" clip-path="url(#clipWmfPath1)" style="fill:#f7f7f7;fill-opacity:1;fill-rule:nonzero;stroke:none" transform="rotate(180,100.30209,66.26745)"/>
  <path id="path94" d="m 78.66831,62.600741 -0.666681,0.133335 -0.533344,0.400005 -0.333341,0.466672 -0.133336,0.53334 0.133336,0.800009 0.333341,0.53334 0.533344,0.400005 0.666681,0.133334 v 1.200015 l -0.666681,0.133335 -0.533344,0.333337 -0.333341,0.466672 -0.133336,0.53334 0.133336,0.733342 0.333341,0.533339 0.533344,0.400005 0.666681,0.133335 v 1.333349 l -0.666681,0.200003 -0.533344,0.400004 -0.333341,0.600007 -0.133336,0.600007 0.133336,0.600008 0.333341,0.466672 0.533344,0.26667 0.666681,0.133335 v 1.333349 l -0.666681,0.133335 -0.533344,0.400004 -0.333341,0.53334 -0.133336,0.733342 0.133336,0.53334 0.333341,0.466672 0.533344,0.333337 0.666681,0.133335 v 1.200014 l -0.666681,0.133335 -0.600012,0.333337 -0.400009,0.53334 -0.133336,0.666675 0.133336,0.600007 0.400009,0.533339 0.600012,0.400005 0.666681,0.133335 -0.133336,1.200014 -0.600013,0.133335 -0.466676,0.333337 -0.466677,1.133347 0.133336,0.666675 0.333341,0.533339 0.533344,0.333338 0.666681,0.133335 v 1.200014 l -0.666681,0.133335 -0.533344,0.333337 -0.333341,0.53334 -0.133336,0.600007 0.133336,0.666674 0.333341,0.600007 0.533344,0.333338 0.666681,0.133335 v 1.266681 l -0.666681,0.133335 -0.533344,0.400005 -0.333341,0.53334 -0.133336,0.600007 0.133336,0.600007 0.333341,0.533339 0.533344,0.400005 0.666681,0.133335 v 1.200014 l -0.666681,0.133335 -0.533344,0.400005 -0.333341,0.466668 -0.133336,0.60001 0.133336,0.73334 0.333341,0.53334 0.533344,0.33334 0.666681,0.13334 v 1.13334 l -0.666681,0.13334 -0.600012,0.33333 -0.400009,0.53334 -0.133336,0.60001 0.133336,0.73334 0.400009,0.53334 0.600012,0.33334 0.666681,0.13333 v 1.26669 l -0.666681,0.13333 -0.533344,0.33334 -0.333341,0.53334 -0.133336,0.66667 0.133336,0.60001 0.333341,0.53334 0.533344,0.33334 0.666681,0.13333 0.66668,-0.13333 0.600013,-0.33334 0.33334,-0.53334 0.133336,-0.60001 -0.133336,-0.66667 -0.33334,-0.53334 -0.600013,-0.33334 -0.66668,-0.13333 v -1.26669 l 0.66668,-0.13333 0.600013,-0.26667 0.33334,-0.53334 0.133336,-0.73334 -0.133336,-0.60001 -0.33334,-0.53334 -0.600013,-0.4 -0.66668,-0.13334 v -1.13334 l 0.66668,-0.13334 0.600013,-0.33334 0.33334,-0.53334 0.133336,-0.73334 -0.133336,-0.60001 -0.33334,-0.466668 -0.600013,-0.400005 -0.66668,-0.133335 v -1.200014 l 0.66668,-0.133335 0.600013,-0.400005 0.33334,-0.533339 0.133336,-0.600007 -0.133336,-0.600007 -0.33334,-0.53334 -0.600013,-0.400005 -0.66668,-0.133335 v -1.266681 l 0.66668,-0.133335 0.600013,-0.333338 0.33334,-0.600007 0.133336,-0.666674 -0.133336,-0.600007 -0.33334,-0.53334 -0.600013,-0.333337 -0.66668,-0.133335 v -1.200014 l 0.66668,-0.133335 0.600013,-0.333338 0.33334,-0.533339 0.133336,-0.666675 -0.133336,-0.666674 -0.400008,-0.466673 -0.600013,-0.333337 -0.733348,-0.133335 0.133336,-1.200014 0.66668,-0.133335 0.600013,-0.333337 0.33334,-0.466672 0.133336,-0.600008 -0.133336,-0.733342 -0.33334,-0.533339 -0.600013,-0.400005 -0.66668,-0.133335 V 79.66761 l 0.66668,-0.133335 0.600013,-0.333337 0.33334,-0.466672 0.133336,-0.53334 -0.133336,-0.733342 -0.33334,-0.53334 -0.600013,-0.400004 -0.66668,-0.133335 v -1.333349 l 0.66668,-0.133335 0.600013,-0.26667 0.33334,-0.466672 0.133336,-0.600008 -0.133336,-0.600007 -0.33334,-0.600007 -0.600013,-0.400004 -0.66668,-0.200003 v -1.333349 l 0.66668,-0.133335 0.600013,-0.400005 0.33334,-0.533339 0.133336,-0.733342 -0.133336,-0.53334 -0.33334,-0.466672 -0.600013,-0.333337 -0.66668,-0.133335 v -1.200015 l 0.66668,-0.133334 0.600013,-0.400005 0.33334,-0.53334 0.133336,-0.800009 -0.466676,-1.000012 -0.600013,-0.400005 z" clip-path="url(#clipWmfPath1)" style="fill:none;stroke:#000000;stroke-width:0.0666681px;stroke-linecap:round;stroke-linejoin:round;stroke-miterlimit:4;stroke-dasharray:none;stroke-opacity:1" transform="rotate(180,100.30209,66.26745)"/>
  <path id="path96" d="m 69.668122,111.26798 0.66668,-0.13333 0.533345,-0.33334 0.400008,-0.53334 0.133336,-0.73334 -0.133336,-0.66667 -0.400008,-0.46668 -1.200025,-0.46667 v -1.46668 l 0.66668,-0.13334 0.533345,-0.4 0.33334,-0.60001 0.133336,-0.73334 -0.133336,-0.60001 -0.33334,-0.46667 -0.533345,-0.26667 -0.66668,-0.13334 -0.600013,0.13334 -0.466676,0.4 -0.266672,0.53334 -0.133337,0.73335 h -1.333361 l -0.133336,-0.73335 -0.33334,-0.53334 -0.533345,-0.4 -0.733348,-0.13334 -0.600013,0.13334 -0.533344,0.4 -0.266673,0.53334 -0.133336,0.73335 h -1.200025 l -0.133336,-0.73335 -0.33334,-0.53334 -0.533345,-0.4 -0.533344,-0.13334 -0.733349,0.13334 -0.533344,0.4 -0.400009,0.53334 -0.133336,0.73335 h -1.200025 l -0.133336,-0.73335 -0.33334,-0.53334 -0.533345,-0.4 -0.66668,-0.13334 -0.666681,0.13334 -0.600012,0.4 -0.333341,0.53334 -0.133336,0.73335 h -1.200025 l -0.133336,-0.73335 -0.400008,-0.53334 -0.533345,-0.4 -0.600012,-0.13334 -0.600013,0.13334 -0.533344,0.4 -0.333341,0.53334 -0.133336,0.73335 h -1.333361 l -0.133336,-0.73335 -0.33334,-0.53334 -0.466677,-0.4 -0.600012,-0.13334 -0.666681,0.13334 -0.533344,0.4 -0.333341,0.53334 -0.133336,0.73335 h -1.266693 l -0.133336,-0.73335 -0.33334,-0.53334 -0.466677,-0.4 -0.66668,-0.13334 -0.733349,0.13334 -0.533344,0.4 -0.400009,0.53334 -0.133336,0.73335 0.133336,0.6 0.400009,0.46668 0.533344,0.33333 0.733349,0.13334 0.66668,-0.13334 0.466677,-0.33333 0.33334,-0.46668 0.133336,-0.6 h 1.266693 l 0.133336,0.6 0.333341,0.46668 0.533344,0.33333 0.666681,0.13334 0.600012,-0.13334 0.466677,-0.33333 0.33334,-0.46668 0.133336,-0.6 h 1.333361 l 0.133336,0.6 0.333341,0.46668 0.533344,0.33333 0.600013,0.13334 1.133357,-0.46667 0.400008,-0.46668 0.133336,-0.6 h 1.200025 l 0.133336,0.6 0.333341,0.46668 0.600012,0.33333 0.666681,0.13334 0.66668,-0.13334 0.533345,-0.33333 0.33334,-0.46668 0.133336,-0.6 H 59.0679 l 0.133336,0.6 0.333341,0.53334 0.600012,0.33334 0.666681,0.13333 0.600012,-0.13333 0.533345,-0.33334 0.33334,-0.53334 0.133336,-0.6 h 1.200025 l 0.133336,0.6 0.266673,0.46668 0.533344,0.33333 0.600013,0.13334 0.733348,-0.13334 0.533345,-0.33333 0.33334,-0.46668 0.133336,-0.6 h 1.333361 l 0.133337,0.6 0.266672,0.46668 0.466676,0.33333 0.600013,0.13334 v 1.46668 l -0.600013,0.13334 -0.466676,0.33333 -0.400009,1.13335 h -1.333361 l -0.133336,-0.66667 -0.33334,-0.46668 -0.533345,-0.33333 -0.733348,-0.13334 -0.600013,0.13334 -0.533344,0.33333 -0.400009,1.13335 h -1.200025 l -0.133336,-0.66667 -0.33334,-0.46668 -1.066689,-0.46667 -0.733349,0.13334 -0.533344,0.33333 -0.400009,0.46668 -0.133336,0.66667 h -1.200025 l -0.133336,-0.66667 -0.33334,-0.46668 -1.200025,-0.46667 -0.666681,0.13334 -0.600012,0.33333 -0.333341,0.46668 -0.133336,0.66667 h -1.200025 l -0.133336,-0.66667 -0.400008,-0.46668 -1.133357,-0.46667 -0.600013,0.13334 -0.533344,0.33333 -0.333341,0.46668 -0.133336,0.66667 h -1.333361 l -0.133336,-0.66667 -0.33334,-0.46668 -1.066689,-0.46667 -0.666681,0.13334 -0.533344,0.33333 -0.466677,1.13335 h -1.266693 l -0.133336,-0.66667 -0.33334,-0.46668 -0.466677,-0.33333 -0.66668,-0.13334 -0.733349,0.13334 -0.600012,0.33333 -0.400009,0.46668 -0.133336,0.66667 0.133336,0.73334 0.400009,0.53334 0.600012,0.33334 0.733349,0.13333 0.66668,-0.13333 0.466677,-0.33334 0.33334,-0.53334 0.133336,-0.73334 h 1.266693 l 0.133336,0.73334 0.333341,0.53334 0.533344,0.33334 0.666681,0.13333 0.600012,-0.13333 0.466677,-0.33334 0.33334,-0.53334 0.133336,-0.73334 h 1.333361 l 0.133336,0.73334 0.333341,0.53334 0.533344,0.33334 0.600013,0.13333 1.133357,-0.46667 0.400008,-0.53334 0.133336,-0.73334 h 1.200025 l 0.133336,0.73334 0.333341,0.53334 0.600012,0.33334 0.666681,0.13333 0.66668,-0.13333 0.533345,-0.33334 0.33334,-0.53334 0.133336,-0.73334 H 59.0679 l 0.133336,0.73334 0.333341,0.60001 0.600012,0.33334 0.666681,0.13333 0.600012,-0.13333 0.533345,-0.33334 0.33334,-0.60001 0.133336,-0.73334 h 1.200025 l 0.133336,0.73334 0.266673,0.53334 0.533344,0.33334 0.600013,0.13333 0.733348,-0.13333 0.533345,-0.33334 0.33334,-0.53334 0.133336,-0.73334 h 1.333361 l 0.133337,0.73334 0.266672,0.53334 0.466676,0.33334 z" clip-path="url(#clipWmfPath1)" style="fill:#f7f7f7;fill-opacity:1;fill-rule:nonzero;stroke:none" transform="rotate(180,100.30209,66.26745)"/>
  <path id="path98" d="m 69.668122,111.26798 0.66668,-0.13333 0.533345,-0.33334 0.400008,-0.53334 0.133336,-0.73334 -0.133336,-0.66667 -0.400008,-0.46668 -1.200025,-0.46667 v -1.46668 l 0.66668,-0.13334 0.533345,-0.4 0.33334,-0.60001 0.133336,-0.73334 -0.133336,-0.60001 -0.33334,-0.46667 -0.533345,-0.26667 -0.66668,-0.13334 -0.600013,0.13334 -0.466676,0.4 -0.266672,0.53334 -0.133337,0.73335 h -1.333361 l -0.133336,-0.73335 -0.33334,-0.53334 -0.533345,-0.4 -0.733348,-0.13334 -0.600013,0.13334 -0.533344,0.4 -0.266673,0.53334 -0.133336,0.73335 h -1.200025 l -0.133336,-0.73335 -0.33334,-0.53334 -0.533345,-0.4 -0.533344,-0.13334 -0.733349,0.13334 -0.533344,0.4 -0.400009,0.53334 -0.133336,0.73335 h -1.200025 l -0.133336,-0.73335 -0.33334,-0.53334 -0.533345,-0.4 -0.66668,-0.13334 -0.666681,0.13334 -0.600012,0.4 -0.333341,0.53334 -0.133336,0.73335 h -1.200025 l -0.133336,-0.73335 -0.400008,-0.53334 -0.533345,-0.4 -0.600012,-0.13334 -0.600013,0.13334 -0.533344,0.4 -0.333341,0.53334 -0.133336,0.73335 h -1.333361 l -0.133336,-0.73335 -0.33334,-0.53334 -0.466677,-0.4 -0.600012,-0.13334 -0.666681,0.13334 -0.533344,0.4 -0.333341,0.53334 -0.133336,0.73335 h -1.266693 l -0.133336,-0.73335 -0.33334,-0.53334 -0.466677,-0.4 -0.66668,-0.13334 -0.733349,0.13334 -0.533344,0.4 -0.400009,0.53334 -0.133336,0.73335 0.133336,0.6 0.400009,0.46668 0.533344,0.33333 0.733349,0.13334 0.66668,-0.13334 0.466677,-0.33333 0.33334,-0.46668 0.133336,-0.6 h 1.266693 l 0.133336,0.6 0.333341,0.46668 0.533344,0.33333 0.666681,0.13334 0.600012,-0.13334 0.466677,-0.33333 0.33334,-0.46668 0.133336,-0.6 h 1.333361 l 0.133336,0.6 0.333341,0.46668 0.533344,0.33333 0.600013,0.13334 1.133357,-0.46667 0.400008,-0.46668 0.133336,-0.6 h 1.200025 l 0.133336,0.6 0.333341,0.46668 0.600012,0.33333 0.666681,0.13334 0.66668,-0.13334 0.533345,-0.33333 0.33334,-0.46668 0.133336,-0.6 H 59.0679 l 0.133336,0.6 0.333341,0.53334 0.600012,0.33334 0.666681,0.13333 0.600012,-0.13333 0.533345,-0.33334 0.33334,-0.53334 0.133336,-0.6 h 1.200025 l 0.133336,0.6 0.266673,0.46668 0.533344,0.33333 0.600013,0.13334 0.733348,-0.13334 0.533345,-0.33333 0.33334,-0.46668 0.133336,-0.6 h 1.333361 l 0.133337,0.6 0.266672,0.46668 0.466676,0.33333 0.600013,0.13334 v 1.46668 l -0.600013,0.13334 -0.466676,0.33333 -0.400009,1.13335 h -1.333361 l -0.133336,-0.66667 -0.33334,-0.46668 -0.533345,-0.33333 -0.733348,-0.13334 -0.600013,0.13334 -0.533344,0.33333 -0.400009,1.13335 h -1.200025 l -0.133336,-0.66667 -0.33334,-0.46668 -1.066689,-0.46667 -0.733349,0.13334 -0.533344,0.33333 -0.400009,0.46668 -0.133336,0.66667 h -1.200025 l -0.133336,-0.66667 -0.33334,-0.46668 -1.200025,-0.46667 -0.666681,0.13334 -0.600012,0.33333 -0.333341,0.46668 -0.133336,0.66667 h -1.200025 l -0.133336,-0.66667 -0.400008,-0.46668 -1.133357,-0.46667 -0.600013,0.13334 -0.533344,0.33333 -0.333341,0.46668 -0.133336,0.66667 h -1.333361 l -0.133336,-0.66667 -0.33334,-0.46668 -1.066689,-0.46667 -0.666681,0.13334 -0.533344,0.33333 -0.466677,1.13335 h -1.266693 l -0.133336,-0.66667 -0.33334,-0.46668 -0.466677,-0.33333 -0.66668,-0.13334 -0.733349,0.13334 -0.600012,0.33333 -0.400009,0.46668 -0.133336,0.66667 0.133336,0.73334 0.400009,0.53334 0.600012,0.33334 0.733349,0.13333 0.66668,-0.13333 0.466677,-0.33334 0.33334,-0.53334 0.133336,-0.73334 h 1.266693 l 0.133336,0.73334 0.333341,0.53334 0.533344,0.33334 0.666681,0.13333 0.600012,-0.13333 0.466677,-0.33334 0.33334,-0.53334 0.133336,-0.73334 h 1.333361 l 0.133336,0.73334 0.333341,0.53334 0.533344,0.33334 0.600013,0.13333 1.133357,-0.46667 0.400008,-0.53334 0.133336,-0.73334 h 1.200025 l 0.133336,0.73334 0.333341,0.53334 0.600012,0.33334 0.666681,0.13333 0.66668,-0.13333 0.533345,-0.33334 0.33334,-0.53334 0.133336,-0.73334 H 59.0679 l 0.133336,0.73334 0.333341,0.60001 0.600012,0.33334 0.666681,0.13333 0.600012,-0.13333 0.533345,-0.33334 0.33334,-0.60001 0.133336,-0.73334 h 1.200025 l 0.133336,0.73334 0.266673,0.53334 0.533344,0.33334 0.600013,0.13333 0.733348,-0.13333 0.533345,-0.33334 0.33334,-0.53334 0.133336,-0.73334 h 1.333361 l 0.133337,0.73334 0.266672,0.53334 0.466676,0.33334 z" clip-path="url(#clipWmfPath1)" style="fill:none;stroke:#000000;stroke-width:0.0666681px;stroke-linecap:round;stroke-linejoin:round;stroke-miterlimit:4;stroke-dasharray:none;stroke-opacity:1" transform="rotate(180,100.30209,66.26745)"/>
  <path id="path100" d="m 66.401387,98.867837 0.133336,-0.733342 0.33334,-0.600007 0.600013,-0.400005 0.66668,-0.133334 0.733349,0.133334 0.533344,0.400005 0.400009,0.600007 0.133336,0.733342 -0.133336,0.666675 -0.400009,0.533338 -0.533344,0.40001 -0.733349,0.13333 -0.66668,-0.13333 -0.600013,-0.40001 -0.33334,-0.533338 z" clip-path="url(#clipWmfPath1)" style="fill:#000000;fill-opacity:1;fill-rule:nonzero;stroke:none" transform="rotate(180,100.30209,66.26745)"/>
  <path id="path102" d="m 66.401387,98.867837 0.133336,-0.733342 0.33334,-0.600007 0.600013,-0.400005 0.66668,-0.133334 0.733349,0.133334 0.533344,0.400005 0.400009,0.600007 0.133336,0.733342 -0.133336,0.666675 -0.400009,0.533338 -0.533344,0.40001 -0.733349,0.13333 -0.66668,-0.13333 -0.600013,-0.40001 -0.33334,-0.533338 z" clip-path="url(#clipWmfPath1)" style="fill:none;stroke:#000000;stroke-width:0.0666681px;stroke-linecap:round;stroke-linejoin:round;stroke-miterlimit:4;stroke-dasharray:none;stroke-opacity:1" transform="rotate(180,100.30209,66.26745)"/>
  <path id="path104" d="m 65.401366,80.400952 0.933353,0.133335 0.866685,0.400005 0.533344,0.600007 0.200004,0.733342 v 9.000106 l -0.200004,0.733342 -0.533344,0.53334 -0.866685,0.333337 -0.933353,0.133335 H 47.06765 l -0.933353,-0.133335 -0.800017,-0.400004 -0.600012,-0.53334 -0.200005,-0.80001 v -8.866771 l 0.200005,-0.733342 0.600012,-0.600007 0.800017,-0.400005 0.933353,-0.133335 z" clip-path="url(#clipWmfPath1)" style="fill:#ffffff;fill-opacity:1;fill-rule:nonzero;stroke:none" transform="rotate(180,100.30209,66.26745)"/>
  <path id="path106" d="m 47.06765,79.867612 v 1.06668 h 18.267048 l 0.866685,0.06667 0.66668,0.333337 0.400009,0.466673 0.133336,0.533339 v 8.866772 l -0.133336,0.53334 -0.333341,0.333337 -0.733348,0.333337 -0.866685,0.06667 h -18.20038 l -0.866685,-0.06667 -0.666681,-0.333337 -0.400008,-0.400005 -0.133336,-0.600007 v -8.733437 l 0.133336,-0.533339 0.466676,-0.466673 0.600013,-0.333337 0.866685,-0.06667 h 18.20038 l 0.933353,0.133335 0.133336,-1.06668 -0.933353,-0.133335 H 47.000982 l -1.000021,0.200003 -1.000021,0.466672 -0.733349,0.733342 -0.266672,0.933344 v 9.000107 l 0.266672,1.000012 0.800017,0.666674 0.933353,0.466672 1.000021,0.200003 h 18.467052 l 1.000021,-0.200003 1.000021,-0.333337 0.733348,-0.733342 0.266673,-0.933344 v -9.133442 l -0.266673,-0.933344 -0.66668,-0.733342 -1.066689,-0.466672 -1.000021,-0.200003 z" clip-path="url(#clipWmfPath1)" style="fill:#000000;fill-opacity:1;fill-rule:nonzero;stroke:#000000;stroke-width:0.0666681px;stroke-linecap:round;stroke-linejoin:round;stroke-miterlimit:4;stroke-dasharray:none;stroke-opacity:1" transform="rotate(180,100.30209,66.26745)"/>
  <g id="g108" clip-path="url(#clipWmfPath1)" transform="rotate(180,100.30209,66.26745)"/>
  <g id="g120" clip-path="url(#clipWmfPath1)" transform="translate(132.01989100000003, 39.400487999999996)">
    <text id="text118" y="0" x="0" transform="translate(0,9)" style="font-style:normal;font-variant:normal;font-weight:400;font-size:10.6875px;line-height:125%;font-family:Helvetica-Narrow;text-align:start;letter-spacing:0px;word-spacing:0px;text-anchor:start;fill:#000000;fill-opacity:1;stroke:none" xml:space="preserve"><tspan id="tspan116" y="0" x="0"><tspan id="tspan110" style="font-style:normal;font-variant:normal;font-weight:400;font-size:10.6875px;font-family:Helvetica-Narrow;fill:#000000" dy="0" dx="0">N</tspan><tspan id="tspan112" style="font-style:normal;font-variant:normal;font-weight:400;font-size:10.6875px;font-family:Helvetica-Narrow;fill:#000000" dy="0" dx="-0.18288399">P</tspan><tspan id="tspan114" style="font-style:normal;font-variant:normal;font-weight:400;font-size:10.6875px;font-family:Helvetica-Narrow;fill:#000000" dy="0" dx="0.030932">U</tspan></tspan></text>
  </g>
  <path id="path122" d="m 150.33647,56.000663 -0.80001,1.600019 -1.06669,1.533352 -0.93336,0.666674 -0.93335,0.333337 -0.80001,-0.06667 -0.60002,-0.400005 -0.40001,-0.600007 -0.13333,-0.733342 0.26667,-0.866677 0.66668,-0.933344 1.40003,-1.266682 1.4667,-0.933344 v -1.266682 h -3.66675 3.66675 v -1.200014 h -3.66675 3.66675 v -1.400017 h -3.66675 3.66675 V 49.26725 h -3.66675 3.66675 v -1.200014 h -3.66675 3.66675 v -1.266682 h -3.66675 3.66675 v -1.266682 h -3.66675 3.66675 v -1.333349 h -3.66675 3.66675 v -1.200014 h -3.66675 3.66675 v -1.266682 h -3.66675 3.66675 v -1.200014 h -3.66675 3.66675 v -1.400016 h -3.66675 3.66675 v -1.200015 h -3.66675 3.66675 v -1.333349 h -3.66675 3.66675 v -1.066679 h -3.66675 3.66675 v -1.400017 h -3.66675 3.66675 v -1.266681 h -3.66675 3.66675 v -1.333349 h -3.66675 3.66675 v -1.200015 h -3.66675 3.66675 v -1.133346 h -3.66675 3.66675 v -1.333349 h -3.66675 3.66675 v -1.266682 h -3.66675 3.66675 v -1.266682 h -3.66675 3.66675 v -1.266681 h -3.66675 3.66675 v -1.733354 l -1.2667,-0.666675 -1.13335,-1.000012 -0.73335,-0.933344 -0.26667,-0.866677 0.0667,-0.800009 0.33334,-0.600008 0.60002,-0.400004 0.80001,-0.133335 0.86669,0.26667 0.93335,0.666674 1.20003,1.400017 0.80001,1.400016 h 0.93336 v -3.600042 3.600042 h 1.26669 v -3.600042 3.600042 h 1.33336 v -3.600042 3.600042 h 1.26669 v -3.600042 3.600042 h 1.2667 v -3.600042 3.600042 h 1.20002 v -3.600042 3.600042 h 1.33336 v -3.600042 3.600042 h 1.2667 v -3.600042 3.600042 h 1.26669 v -3.600042 3.600042 h 1.20002 v -3.600042 3.600042 h 1.2667 v -3.600042 3.600042 h 1.40003 v -3.600042 3.600042 h 1.26669 v -3.600042 3.600042 h 1.33336 v -3.600042 3.600042 h 1.06669 v -3.600042 3.600042 h 1.40003 v -3.600042 3.600042 h 1.33336 v -3.600042 3.600042 h 1.26669 v -3.600042 3.600042 h 1.2667 v -3.600042 3.600042 h 1.13335 v -3.600042 3.600042 h 1.33336 v -3.600042 3.600042 h 1.33337 v -3.600042 3.600042 h 1.20002 v -3.600042 3.600042 h 1.33336 v -3.600042 3.600042 h 1.4667 l 0.66668,-1.466684 0.93335,-1.400016 0.93336,-0.666675 0.93335,-0.333337 0.80002,0.06667 0.60001,0.400005 0.40001,0.600007 0.13333,0.733342 -0.26667,0.866677 -0.73335,0.933345 -1.33336,1.133346 -1.4667,0.733342 v 0.866677 h 3.66675 -3.66675 v 1.333349 h 3.66675 -3.66675 v 1.200015 h 3.66675 -3.66675 v 1.333349 h 3.66675 -3.66675 v 0 1.266681 h 3.66675 -3.66675 v 1.200015 h 3.66675 -3.66675 v 1.200014 h 3.66675 -3.66675 v 1.333349 h 3.66675 -3.66675 v 1.266682 h 3.66675 -3.66675 v 1.400016 h 3.66675 -3.66675 v 1.066679 h 3.66675 -3.66675 v 1.266682 h 3.66675 -3.66675 v 1.266682 h 3.66675 -3.66675 v 1.333349 h 3.66675 -3.66675 v 1.266682 h 3.66675 -3.66675 v 1.200014 h 3.66675 -3.66675 v 1.266681 h 3.66675 -3.66675 v 1.266682 h 3.66675 -3.66675 v 1.333349 h 3.66675 -3.66675 v 1.200014 h 3.66675 -3.66675 v 1.266682 h 3.66675 -3.66675 v 1.200014 h 3.66675 -3.66675 v 1.400017 h 3.66675 -3.66675 v 1.200014 h 3.66675 -3.66675 v 1.200014 h 3.66675 -3.66675 v 0.733342 l 1.53337,0.80001 1.4667,1.066679 0.66668,0.933344 0.33334,0.866677 -0.13334,0.80001 -0.33334,0.666674 -0.60001,0.400005 -0.80002,0.133335 -0.86668,-0.26667 -0.93336,-0.666674 -1.26669,-1.400017 -0.93335,-1.466684 h -1.33336 v 3.66671 -3.66671 h -1.2667 v 3.66671 -3.66671 h -1.40003 v 3.66671 -3.66671 h -1.20002 v 3.66671 -3.66671 h -1.26669 v 3.66671 -3.66671 h -1.20003 v 3.66671 -3.66671 h -1.33336 v 3.66671 -3.66671 h -1.26669 v 3.66671 -3.66671 h -1.2667 v 3.66671 -3.66671 h -1.26669 v 3.66671 -3.66671 h -1.20003 v 3.66671 -3.66671 h -1.40002 v 3.66671 -3.66671 h -1.2667 v 3.66671 -3.66671 h -1.33336 v 3.66671 -3.66671 h -1.13336 v 3.66671 -3.66671 h -1.33336 v 3.66671 -3.66671 h -1.33336 v 3.66671 -3.66671 h -1.26669 v 3.66671 -3.66671 h -1.26669 v 3.66671 -3.66671 h -1.13336 v 3.66671 -3.66671 h -1.33336 v 3.66671 -3.66671 h -1.33336 v 3.66671 -3.66671 h -1.20003 v 3.66671 -3.66671 h -1.33336 v 3.66671 -3.66671 z" clip-path="url(#clipWmfPath1)" style="fill:#000000;fill-opacity:1;fill-rule:nonzero;stroke:none" transform="rotate(180,100.30209,66.26745)"/>
  <path id="path124" d="m 150.33647,56.000663 -0.80001,1.600019 -1.06669,1.533352 -0.93336,0.666674 -0.93335,0.333337 -0.80001,-0.06667 -0.60002,-0.400005 -0.40001,-0.600007 -0.13333,-0.733342 0.26667,-0.866677 0.66668,-0.933344 1.40003,-1.266682 1.4667,-0.933344 v -1.266682 h -3.66675 3.66675 v -1.200014 h -3.66675 3.66675 v -1.400017 h -3.66675 3.66675 V 49.26725 h -3.66675 3.66675 v -1.200014 h -3.66675 3.66675 v -1.266682 h -3.66675 3.66675 v -1.266682 h -3.66675 3.66675 v -1.333349 h -3.66675 3.66675 v -1.200014 h -3.66675 3.66675 v -1.266682 h -3.66675 3.66675 v -1.200014 h -3.66675 3.66675 v -1.400016 h -3.66675 3.66675 v -1.200015 h -3.66675 3.66675 v -1.333349 h -3.66675 3.66675 v -1.066679 h -3.66675 3.66675 v -1.400017 h -3.66675 3.66675 v -1.266681 h -3.66675 3.66675 v -1.333349 h -3.66675 3.66675 v -1.200015 h -3.66675 3.66675 v -1.133346 h -3.66675 3.66675 v -1.333349 h -3.66675 3.66675 v -1.266682 h -3.66675 3.66675 v -1.266682 h -3.66675 3.66675 v -1.266681 h -3.66675 3.66675 v -1.733354 l -1.2667,-0.666675 -1.13335,-1.000012 -0.73335,-0.933344 -0.26667,-0.866677 0.0667,-0.800009 0.33334,-0.600008 0.60002,-0.400004 0.80001,-0.133335 0.86669,0.26667 0.93335,0.666674 1.20003,1.400017 0.80001,1.400016 h 0.93336 v -3.600042 3.600042 h 1.26669 v -3.600042 3.600042 h 1.33336 v -3.600042 3.600042 h 1.26669 v -3.600042 3.600042 h 1.2667 v -3.600042 3.600042 h 1.20002 v -3.600042 3.600042 h 1.33336 v -3.600042 3.600042 h 1.2667 v -3.600042 3.600042 h 1.26669 v -3.600042 3.600042 h 1.20002 v -3.600042 3.600042 h 1.2667 v -3.600042 3.600042 h 1.40003 v -3.600042 3.600042 h 1.26669 v -3.600042 3.600042 h 1.33336 v -3.600042 3.600042 h 1.06669 v -3.600042 3.600042 h 1.40003 v -3.600042 3.600042 h 1.33336 v -3.600042 3.600042 h 1.26669 v -3.600042 3.600042 h 1.2667 v -3.600042 3.600042 h 1.13335 v -3.600042 3.600042 h 1.33336 v -3.600042 3.600042 h 1.33337 v -3.600042 3.600042 h 1.20002 v -3.600042 3.600042 h 1.33336 v -3.600042 3.600042 h 1.4667 l 0.66668,-1.466684 0.93335,-1.400016 0.93336,-0.666675 0.93335,-0.333337 0.80002,0.06667 0.60001,0.400005 0.40001,0.600007 0.13333,0.733342 -0.26667,0.866677 -0.73335,0.933345 -1.33336,1.133346 -1.4667,0.733342 v 0.866677 h 3.66675 -3.66675 v 1.333349 h 3.66675 -3.66675 v 1.200015 h 3.66675 -3.66675 v 1.333349 h 3.66675 -3.66675 v 0 1.266681 h 3.66675 -3.66675 v 1.200015 h 3.66675 -3.66675 v 1.200014 h 3.66675 -3.66675 v 1.333349 h 3.66675 -3.66675 v 1.266682 h 3.66675 -3.66675 v 1.400016 h 3.66675 -3.66675 v 1.066679 h 3.66675 -3.66675 v 1.266682 h 3.66675 -3.66675 v 1.266682 h 3.66675 -3.66675 v 1.333349 h 3.66675 -3.66675 v 1.266682 h 3.66675 -3.66675 v 1.200014 h 3.66675 -3.66675 v 1.266681 h 3.66675 -3.66675 v 1.266682 h 3.66675 -3.66675 v 1.333349 h 3.66675 -3.66675 v 1.200014 h 3.66675 -3.66675 v 1.266682 h 3.66675 -3.66675 v 1.200014 h 3.66675 -3.66675 v 1.400017 h 3.66675 -3.66675 v 1.200014 h 3.66675 -3.66675 v 1.200014 h 3.66675 -3.66675 v 0.733342 l 1.53337,0.80001 1.4667,1.066679 0.66668,0.933344 0.33334,0.866677 -0.13334,0.80001 -0.33334,0.666674 -0.60001,0.400005 -0.80002,0.133335 -0.86668,-0.26667 -0.93336,-0.666674 -1.26669,-1.400017 -0.93335,-1.466684 h -1.33336 v 3.66671 -3.66671 h -1.2667 v 3.66671 -3.66671 h -1.40003 v 3.66671 -3.66671 h -1.20002 v 3.66671 -3.66671 h -1.26669 v 3.66671 -3.66671 h -1.20003 v 3.66671 -3.66671 h -1.33336 v 3.66671 -3.66671 h -1.26669 v 3.66671 -3.66671 h -1.2667 v 3.66671 -3.66671 h -1.26669 v 3.66671 -3.66671 h -1.20003 v 3.66671 -3.66671 h -1.40002 v 3.66671 -3.66671 h -1.2667 v 3.66671 -3.66671 h -1.33336 v 3.66671 -3.66671 h -1.13336 v 3.66671 -3.66671 h -1.33336 v 3.66671 -3.66671 h -1.33336 v 3.66671 -3.66671 h -1.26669 v 3.66671 -3.66671 h -1.26669 v 3.66671 -3.66671 h -1.13336 v 3.66671 -3.66671 h -1.33336 v 3.66671 -3.66671 h -1.33336 v 3.66671 -3.66671 h -1.20003 v 3.66671 -3.66671 h -1.33336 v 3.66671 -3.66671 z" clip-path="url(#clipWmfPath1)" style="fill:none;stroke:#000000;stroke-width:0.0666681px;stroke-linecap:round;stroke-linejoin:round;stroke-miterlimit:4;stroke-dasharray:none;stroke-opacity:1" transform="rotate(180,100.30209,66.26745)"/>
  <path id="path126" d="m 150.40314,51.200606 0.20001,-1.133347 0.60001,-0.866676 0.86668,-0.600008 1.06669,-0.200002 1.06669,0.200002 0.86669,0.600008 0.60001,0.866676 0.2,1.133347 -0.2,1.06668 -0.60001,0.933344 -0.86669,0.600007 -1.06669,0.200002 -1.06669,-0.200002 -0.86668,-0.600007 -0.60001,-0.933344 z" clip-path="url(#clipWmfPath1)" style="fill:#ffffff;fill-opacity:1;fill-rule:nonzero;stroke:none" transform="rotate(180,100.30209,66.26745)"/>
  <path id="path128" d="m 150.40314,51.200606 0.20001,-1.133347 0.60001,-0.866676 0.86668,-0.600008 1.06669,-0.200002 1.06669,0.200002 0.86669,0.600008 0.60001,0.866676 0.2,1.133347 -0.2,1.06668 -0.60001,0.933344 -0.86669,0.600007 -1.06669,0.200002 -1.06669,-0.200002 -0.86668,-0.600007 -0.60001,-0.933344 z" clip-path="url(#clipWmfPath1)" style="fill:none;stroke:#000000;stroke-width:0.0666681px;stroke-linecap:round;stroke-linejoin:round;stroke-miterlimit:4;stroke-dasharray:none;stroke-opacity:1" transform="rotate(180,100.30209,66.26745)"/>
  <path id="path130" d="m 175.93701,31.800377 1.00002,0.133334 0.80002,0.466673 0.60001,0.666674 0.2,0.733342 v 9.466779 l -0.2,0.733342 -0.60001,0.600007 -0.80002,0.333337 -1.00002,0.133335 h -19.26707 l -1.00002,-0.133335 -0.80002,-0.400004 -0.60001,-0.666675 -0.20001,-0.733342 v -9.400111 l 0.20001,-0.733342 0.60001,-0.600007 0.80002,-0.466673 1.00002,-0.133334 z" clip-path="url(#clipWmfPath1)" style="fill:#ffffff;fill-opacity:1;fill-rule:nonzero;stroke:none" transform="rotate(180,100.30209,66.26745)"/>
  <path id="path132" d="m 156.66994,31.267037 v 1.066679 h 19.2004 l 0.86668,0.06667 0.66669,0.400004 0.46667,0.53334 0.13334,0.53334 v 9.333444 l -0.13334,0.533339 -0.40001,0.466672 -0.66668,0.26667 -0.93335,0.06667 h -19.13373 l -0.93336,-0.06667 -0.60001,-0.333337 -0.46667,-0.53334 -0.13334,-0.533339 V 33.8004 l 0.13334,-0.533339 0.46667,-0.466673 0.66668,-0.400004 0.86669,-0.06667 h 19.13373 l 1.00002,0.133335 0.13334,-1.066679 -1.00002,-0.133335 h -19.40041 l -1.13336,0.200002 -0.93335,0.53334 -0.73335,0.733342 -0.26667,0.933344 v 9.533447 l 0.26667,0.933344 0.73335,0.800009 1.00002,0.466673 1.06669,0.200002 h 19.40041 l 1.06668,-0.200002 0.93336,-0.400005 0.80001,-0.733342 0.26668,-0.933345 v -9.600113 l -0.26668,-0.933345 -0.73334,-0.800009 -0.93336,-0.53334 -1.13335,-0.200002 z" clip-path="url(#clipWmfPath1)" style="fill:#000000;fill-opacity:1;fill-rule:nonzero;stroke:#000000;stroke-width:0.0666681px;stroke-linecap:round;stroke-linejoin:round;stroke-miterlimit:4;stroke-dasharray:none;stroke-opacity:1" transform="rotate(180,100.30209,66.26745)"/>
  <g id="g134" clip-path="url(#clipWmfPath1)" transform="rotate(180,100.30209,66.26745)"/>
  <g id="g146" clip-path="url(#clipWmfPath1)" transform="translate(23.08759000000005, 87.66772600000002)">
    <text id="text144" y="0" x="0" transform="translate(0,9)" style="font-style:normal;font-variant:normal;font-weight:400;font-size:10.6875px;line-height:125%;font-family:Helvetica-Narrow;text-align:start;letter-spacing:0px;word-spacing:0px;text-anchor:start;fill:#000000;fill-opacity:1;stroke:none" xml:space="preserve"><tspan id="tspan142" y="0" x="0"><tspan id="tspan136" style="font-style:normal;font-variant:normal;font-weight:400;font-size:10.6875px;font-family:Helvetica-Narrow;fill:#000000" dy="0" dx="0">C</tspan><tspan id="tspan138" style="font-style:normal;font-variant:normal;font-weight:400;font-size:10.6875px;font-family:Helvetica-Narrow;fill:#000000" dy="0" dx="-0.049996998">P</tspan><tspan id="tspan140" style="font-style:normal;font-variant:normal;font-weight:400;font-size:10.6875px;font-family:Helvetica-Narrow;fill:#000000" dy="0" dx="-0.102404">U</tspan></tspan></text>
  </g>
  <path id="path148" d="m 108.06892,19.200227 v 2.800033 l -0.13333,0.733343 -0.40001,0.533339 -0.66668,0.26667 -0.73335,0.133335 H 83.001734 L 82.268385,23.533612 81.668372,23.133607 81.201696,22.466933 81.06836,21.733591 v -9.466779 l 0.133336,-0.733342 0.466676,-0.53334 0.600013,-0.400004 0.733349,-0.133335 h 23.133816 l 0.73335,0.200002 0.66668,0.466672 0.40001,0.666675 0.13333,0.800009 v 2.533364 l 12.06692,2.000023 z" clip-path="url(#clipWmfPath1)" style="fill:#ffffff;fill-opacity:1;fill-rule:nonzero;stroke:none" transform="rotate(180,100.30209,66.26745)"/>
  <path id="path150" d="m 120.20251,17.600208 0.46668,-0.533339 -0.60002,-0.400005 -12.53359,2.133359 v 3.13337 l -0.0667,0.600007 -0.26667,0.333337 -0.46668,0.200003 -0.66668,0.06667 H 83.068402 l -0.600013,-0.06667 -0.466676,-0.333337 -0.333341,-0.466673 -0.06667,-0.600007 v -9.333444 l 0.06667,-0.600007 0.333341,-0.333337 0.466676,-0.333337 0.600013,-0.06667 h 23.000478 l 0.60001,0.133335 0.46668,0.333337 0.33334,0.53334 0.0667,0.666675 v 2.8667 l 9.53353,1.600019 -9.53353,1.666687 v 3.200037 l 0.53334,0.53334 0.53335,-0.53334 V 19.60023 l 11.60024,-2.000024 V 16.666862 L 108.6023,14.733506 V 12.53348 l -0.20001,-0.933345 -0.46667,-0.800009 -0.86669,-0.600007 -0.86668,-0.26667 H 82.935065 l -0.866684,0.200002 -0.733349,0.466673 -0.600012,0.733342 -0.200005,0.866676 v 9.600114 l 0.200005,0.866677 0.600012,0.866677 0.733349,0.466672 0.866684,0.200003 h 23.267155 l 0.80001,-0.200003 0.86669,-0.333337 0.53334,-0.733342 0.20001,-0.866677 V 19.60023 Z" clip-path="url(#clipWmfPath1)" style="fill:#000000;fill-opacity:1;fill-rule:nonzero;stroke:#000000;stroke-width:0.0666681px;stroke-linecap:round;stroke-linejoin:round;stroke-miterlimit:4;stroke-dasharray:none;stroke-opacity:1" transform="rotate(180,100.30209,66.26745)"/>
  <g id="g152" clip-path="url(#clipWmfPath1)" transform="rotate(180,100.30209,66.26745)"/>
  <g id="g164" clip-path="url(#clipWmfPath1)" transform="translate(99.61240100000003, 109.667986)">
    <text id="text162" y="0" x="0" transform="translate(0,9)" style="font-style:normal;font-variant:normal;font-weight:400;font-size:10.6875px;line-height:125%;font-family:Helvetica-Narrow;text-align:start;letter-spacing:0px;word-spacing:0px;text-anchor:start;fill:#000000;fill-opacity:1;stroke:none" xml:space="preserve"><tspan id="tspan160" y="0" x="0"><tspan id="tspan154" style="font-style:normal;font-variant:normal;font-weight:400;font-size:10.6875px;font-family:Helvetica-Narrow;fill:#000000" dy="0" dx="0">J</tspan><tspan id="tspan156" style="font-style:normal;font-variant:normal;font-weight:400;font-size:10.6875px;font-family:Helvetica-Narrow;fill:#000000" dy="0" dx="0.028423">P</tspan><tspan id="tspan158" style="font-style:normal;font-variant:normal;font-weight:400;font-size:10.6875px;font-family:Helvetica-Narrow;fill:#000000" dy="0" dx="-0.102404">1</tspan></tspan></text>
  </g>
  <g id="g166" clip-path="url(#clipWmfPath1)" transform="rotate(180,100.30209,66.26745)"/>
  <g id="g184" clip-path="url(#clipWmfPath1)" transform="translate(34.46486000000002, 46.33390300000001)">
    <text id="text182" y="0" x="0" transform="translate(0,9)" style="font-style:normal;font-variant:normal;font-weight:400;font-size:9.3125px;line-height:125%;font-family:Helvetica-Narrow;text-align:start;letter-spacing:0px;word-spacing:0px;text-anchor:start;fill:#000000;fill-opacity:1;stroke:none" xml:space="preserve"><tspan id="tspan180" y="0" x="0"><tspan id="tspan168" style="font-style:normal;font-variant:normal;font-weight:400;font-size:9.3125px;font-family:Helvetica-Narrow;fill:#000000" dy="0" dx="0">M</tspan><tspan id="tspan170" style="font-style:normal;font-variant:normal;font-weight:400;font-size:9.3125px;font-family:Helvetica-Narrow;fill:#000000" dy="0" dx="0.202978">H</tspan><tspan id="tspan172" style="font-style:normal;font-variant:normal;font-weight:400;font-size:9.3125px;font-family:Helvetica-Narrow;fill:#000000" dy="0" dx="0.183731">2</tspan><tspan id="tspan174" style="font-style:normal;font-variant:normal;font-weight:400;font-size:9.3125px;font-family:Helvetica-Narrow;fill:#000000" dy="0" dx="0.183538">8</tspan><tspan id="tspan176" style="font-style:normal;font-variant:normal;font-weight:400;font-size:9.3125px;font-family:Helvetica-Narrow;fill:#000000" dy="0" dx="0.183538">3</tspan><tspan id="tspan178" style="font-style:normal;font-variant:normal;font-weight:400;font-size:9.3125px;font-family:Helvetica-Narrow;fill:#000000" dy="0" dx="0.183538">0</tspan></tspan></text>
  </g>
  <g id="g186" clip-path="url(#clipWmfPath1)" transform="rotate(180,100.30209,66.26745)"/>
  <g id="g194" clip-path="url(#clipWmfPath1)" transform="translate(80.04177000000004, 116.60140200000001)">
    <text id="text192" y="0" x="0" transform="translate(0,9)" style="font-style:normal;font-variant:normal;font-weight:400;font-size:10.6875px;line-height:125%;font-family:Helvetica-Narrow;text-align:start;letter-spacing:0px;word-spacing:0px;text-anchor:start;fill:#000000;fill-opacity:1;stroke:none" xml:space="preserve"><tspan id="tspan190" y="0" x="0"><tspan id="tspan188" style="font-style:normal;font-variant:normal;font-weight:400;font-size:10.6875px;font-family:Helvetica-Narrow;fill:#000000" dy="0" dx="0">2</tspan></tspan></text>
  </g>
  <g id="g196" clip-path="url(#clipWmfPath1)" transform="rotate(180,100.30209,66.26745)"/>
  <g id="g204" clip-path="url(#clipWmfPath1)" transform="translate(59.77468000000003, 116.801404)">
    <text id="text202" y="0" x="0" transform="translate(0,9)" style="font-style:normal;font-variant:normal;font-weight:400;font-size:10.6875px;line-height:125%;font-family:Helvetica-Narrow;text-align:start;letter-spacing:0px;word-spacing:0px;text-anchor:start;fill:#000000;fill-opacity:1;stroke:none" xml:space="preserve"><tspan id="tspan200" y="0" x="0"><tspan id="tspan198" style="font-style:normal;font-variant:normal;font-weight:400;font-size:10.6875px;font-family:Helvetica-Narrow;fill:#000000" dy="0" dx="0">6</tspan></tspan></text>
  </g>
</svg>