<?xml version="1.0" encoding="UTF-8" standalone="no"?>
<svg
   xmlns:dc="http://purl.org/dc/elements/1.1/"
   xmlns:cc="http://creativecommons.org/ns#"
   xmlns:rdf="http://www.w3.org/1999/02/22-rdf-syntax-ns#"
   xmlns:svg="http://www.w3.org/2000/svg"
   xmlns="http://www.w3.org/2000/svg"
   id="svg176"
   height="34.369999mm"
   width="82.190001mm"
   version="1.0">
  <metadata
     id="metadata180">
    <rdf:RDF>
      <cc:Work
         rdf:about="">
        <dc:format>image/svg+xml</dc:format>
        <dc:type
           rdf:resource="http://purl.org/dc/dcmitype/StillImage" />
      </cc:Work>
    </rdf:RDF>
  </metadata>
  <defs
     id="defs6">
    <clipPath
       id="clipWmfPath1"
       clipPathUnits="userSpaceOnUse">
      <path
         id="path2"
         d="M 0,0 L 310.53491,0 L 310.53491,129.7979 L 0,129.7979 z" />
    </clipPath>
    <pattern
       y="0"
       x="0"
       height="6"
       width="6"
       patternUnits="userSpaceOnUse"
       id="WMFhbasepattern" />
  </defs>
  <path
     id="path8"
     d="  M 287.33479,100.19838   L 26.133466,100.06505   L 26.133466,40.132684   L 287.26812,40.132684   L 287.33479,100.19838  z "
     clip-path="url(#clipWmfPath1)"
     style="fill:#e6e6e6;fill-rule:nonzero;fill-opacity:1;stroke:none;" />
  <path
     id="path10"
     d="  M 287.80146,40.132684   L 286.73479,40.132684   L 286.80145,99.665055   L 26.666802,99.531724   L 26.666802,40.666009   L 286.73479,40.666009   L 286.80145,99.665055   L 26.133466,99.531724   L 26.133466,100.59837   L 287.86813,100.7317   L 287.80146,39.59936   L 25.60013,39.59936   L 25.60013,100.59837   L 287.86813,100.7317   L 287.80146,40.132684  z "
     clip-path="url(#clipWmfPath1)"
     style="fill:#000000;fill-rule:nonzero;fill-opacity:1;stroke:#000000;stroke-width:0.066667005px;stroke-linecap:round;stroke-linejoin:round;stroke-miterlimit:4;stroke-dasharray:none;stroke-opacity:1;" />
  <path
     id="path12"
     d="  M 139.93404,63.398975   L 139.93404,63.732303   L 140.53405,63.865634   L 140.93405,64.332293   L 141.20072,66.132264   L 141.20072,75.86544   L 141.13405,76.998755   L 140.93405,77.732077   L 140.53405,78.13207   L 139.93404,78.265401   L 139.93404,78.665395   L 142.86739,78.665395   L 142.86739,78.265401   L 142.26739,78.13207   L 141.86739,77.732077   L 141.73405,76.998755   L 141.66738,75.86544   L 141.66738,66.132264   L 144.80073,78.665395   L 145.00074,78.665395   L 148.13408,65.598939   L 148.13408,75.86544   L 147.93408,77.598745   L 147.60075,78.065404   L 147.06741,78.265401   L 147.06741,78.665395   L 150.40076,78.665395   L 150.40076,78.265401   L 149.80076,78.13207   L 149.46742,77.665411   L 149.26742,75.86544   L 149.26742,65.598939   L 149.53409,64.132296   L 149.93409,63.798968   L 150.40076,63.732303   L 150.40076,63.398975   L 147.93408,63.398975   L 145.33407,74.798791   L 145.2674,74.932122   L 145.13407,74.798791   L 142.40072,63.398975   L 139.93404,63.398975  z "
     clip-path="url(#clipWmfPath1)"
     style="fill:#cccccc;fill-rule:nonzero;fill-opacity:1;stroke:none;" />
  <path
     id="path14"
     d="  M 169.60086,62.198994   L 151.46743,62.198994   L 160.53415,50.465851   L 169.60086,62.198994  z "
     clip-path="url(#clipWmfPath1)"
     style="fill:#cccccc;fill-rule:nonzero;fill-opacity:1;stroke:none;" />
  <path
     id="path16"
     d="  M 162.86749,51.065841   L 164.6675,52.399153   L 161.06748,57.465738   L 159.20081,56.06576   L 162.86749,51.065841  z "
     clip-path="url(#clipWmfPath1)"
     style="fill:#cccccc;fill-rule:nonzero;fill-opacity:1;stroke:none;" />
  <path
     id="path18"
     d="  M 139.66737,83.798645   L 139.66737,84.131973   L 140.13404,84.265304   L 140.40071,84.598632   L 140.60071,85.99861   L 140.60071,95.331792   L 140.40071,96.731769   L 140.13404,97.131763   L 139.66737,97.265094   L 139.66737,97.531756   L 142.93406,97.531756   L 142.93406,97.265094   L 142.46739,97.131763   L 142.13405,96.731769   L 142.00072,96.131779   L 141.93405,95.331792   L 141.93405,90.998529   L 145.4674,90.998529   L 145.4674,95.331792   L 145.2674,96.731769   L 144.93407,97.131763   L 144.4674,97.265094   L 144.4674,97.531756   L 147.80075,97.531756   L 147.80075,97.265094   L 147.33408,97.131763   L 147.00075,96.731769   L 146.86741,96.131779   L 146.80074,95.331792   L 146.80074,85.99861   L 146.86741,85.198622   L 147.00075,84.598632   L 147.33408,84.265304   L 147.80075,84.131973   L 147.80075,83.798645   L 144.4674,83.798645   L 144.4674,84.131973   L 144.93407,84.265304   L 145.2674,84.598632   L 145.4674,85.99861   L 145.4674,90.06521   L 141.93405,90.06521   L 141.93405,85.99861   L 142.00072,85.198622   L 142.13405,84.598632   L 142.46739,84.265304   L 142.93406,84.131973   L 142.93406,83.798645   L 139.66737,83.798645  z "
     clip-path="url(#clipWmfPath1)"
     style="fill:#cccccc;fill-rule:nonzero;fill-opacity:1;stroke:none;" />
  <path
     id="path20"
     d="  M 156.46746,83.798645   L 156.46746,84.131973   L 156.93413,84.198639   L 157.26746,84.531967   L 157.53413,85.931944   L 157.53413,92.33184   L 157.73413,94.731802   L 158.26747,96.465107   L 159.20081,97.531756   L 160.53415,97.865084   L 161.26748,97.798419   L 161.93415,97.465091   L 162.86749,96.398441   L 163.33416,94.59847   L 163.53416,92.33184   L 163.53416,85.931944   L 163.80083,84.598632   L 164.13417,84.265304   L 164.60083,84.131973   L 164.60083,83.798645   L 162.00082,83.798645   L 162.00082,84.131973   L 162.46749,84.265304   L 162.73416,84.598632   L 163.00083,85.931944   L 163.00083,92.131844   L 162.93416,93.931815   L 162.53416,95.465123   L 161.93415,96.465107   L 160.86748,96.8651   L 159.80081,96.531773   L 159.20081,95.598454   L 158.80081,94.198477   L 158.73414,92.33184   L 158.73414,85.931944   L 158.93414,84.531967   L 159.26747,84.198639   L 159.73414,84.131973   L 159.73414,83.798645   L 156.46746,83.798645  z "
     clip-path="url(#clipWmfPath1)"
     style="fill:#cccccc;fill-rule:nonzero;fill-opacity:1;stroke:none;" />
  <path
     id="path22"
     d="  M 169.80086,83.531983   L 169.53419,83.531983   L 169.40086,84.065307   L 169.00086,84.198639   L 168.46752,83.865311   L 167.33418,83.598648   L 166.60084,83.798645   L 166.00084,84.465301   L 165.53417,85.53195   L 165.40084,86.865262   L 165.53417,88.398571   L 165.93417,89.598551   L 167.26751,91.265191   L 168.53419,92.598503   L 168.93419,93.465155   L 169.06752,93.865149   L 169.13419,94.665136   L 169.06752,95.66512   L 168.73419,96.465107   L 168.26752,96.931766   L 167.66752,97.131763   L 166.80085,96.798435   L 166.13418,95.998448   L 165.33417,93.39849   L 165.0675,93.39849   L 165.40084,97.798419   L 165.60084,97.798419   L 165.66751,97.33176   L 165.93417,97.131763   L 166.60084,97.531756   L 167.06751,97.731753   L 167.73418,97.865084   L 168.66752,97.598422   L 169.46753,96.731769   L 170.06753,95.531789   L 170.26753,93.931815   L 170.06753,92.398506   L 169.53419,91.198525   L 168.06752,89.398555   L 166.93418,88.065243   L 166.46751,87.19859   L 166.33418,86.065275   L 166.66751,84.731963   L 167.06751,84.33197   L 167.46752,84.198639   L 168.33419,84.531967   L 169.06752,85.331954   L 169.53419,86.465269   L 169.73419,87.865246   L 170.00086,87.865246   L 169.80086,83.531983  z "
     clip-path="url(#clipWmfPath1)"
     style="fill:#cccccc;fill-rule:nonzero;fill-opacity:1;stroke:none;" />
  <path
     id="path24"
     d="  M 170.7342,83.798645   L 170.7342,84.131973   L 171.20087,84.198639   L 171.46754,84.531967   L 171.7342,85.865278   L 171.7342,95.531789   L 171.46754,96.8651   L 171.20087,97.198428   L 170.7342,97.265094   L 170.7342,97.531756   L 177.2009,97.531756   L 177.66757,94.065146   L 177.4009,94.065146   L 176.66756,95.931782   L 176.13423,96.531773   L 175.46756,96.798435   L 173.93422,96.8651   L 173.66755,96.8651   L 173.13421,96.665104   L 172.93421,95.798451   L 172.93421,90.798532   L 174.60089,90.798532   L 175.26756,90.865197   L 175.73422,91.065194   L 176.06756,91.665185   L 176.20089,92.7985   L 176.40089,92.7985   L 176.40089,87.865246   L 176.20089,87.865246   L 176.06756,88.998561   L 175.73422,89.598551   L 175.26756,89.798548   L 174.60089,89.865214   L 172.93421,89.865214   L 172.93421,84.865295   L 173.20088,84.398635   L 174.80089,84.398635   L 175.53422,84.465301   L 176.13423,84.798629   L 176.6009,85.53195   L 176.8009,86.731931   L 177.0009,86.731931   L 177.0009,83.798645   L 170.7342,83.798645  z "
     clip-path="url(#clipWmfPath1)"
     style="fill:#cccccc;fill-rule:nonzero;fill-opacity:1;stroke:none;" />
  <path
     id="path26"
     d="  M 150.5341,64.932283   L 150.5341,65.265611   L 151.00077,65.398943   L 151.3341,65.798936   L 151.60077,67.132248   L 151.60077,76.46543   L 151.3341,77.798742   L 151.00077,78.198736   L 150.5341,78.332067   L 150.5341,78.665395   L 153.93411,78.665395   L 153.93411,78.332067   L 153.46744,78.198736   L 153.13411,77.798742   L 152.93411,76.46543   L 152.93411,67.132248   L 153.13411,65.798936   L 153.46744,65.398943   L 153.93411,65.265611   L 153.93411,64.932283   L 150.5341,64.932283  z "
     clip-path="url(#clipWmfPath1)"
     style="fill:#cccccc;fill-rule:nonzero;fill-opacity:1;stroke:none;" />
  <path
     id="path28"
     d="  M 162.13416,76.198768   L 161.86749,75.86544   L 160.53415,77.398749   L 159.80081,77.865408   L 159.00081,77.998739   L 158.26747,77.865408   L 157.6008,77.465414   L 156.66746,76.065437   L 156.13412,74.132135   L 155.93412,71.865505   L 156.06746,69.532209   L 156.53413,67.465576   L 157.46747,65.998933   L 158.06747,65.532274   L 158.86747,65.398943   L 159.86748,65.732271   L 160.73415,66.598923   L 161.33415,67.798904   L 161.66749,69.332212   L 161.93415,69.332212   L 161.86749,64.732287   L 161.60082,64.732287   L 161.26748,65.332277   L 160.73415,65.332277   L 159.80081,64.865618   L 158.80081,64.732287   L 157.93413,64.865618   L 157.06746,65.265611   L 155.73412,66.665589   L 154.80078,68.798888   L 154.46745,71.532177   L 154.73412,74.532128   L 155.60079,76.865424   L 156.20079,77.798742   L 156.93413,78.465398   L 157.8008,78.865392   L 158.80081,78.998723   L 159.80081,78.798726   L 160.66748,78.265401   L 161.40082,77.398749   L 162.13416,76.198768  z "
     clip-path="url(#clipWmfPath1)"
     style="fill:#cccccc;fill-rule:nonzero;fill-opacity:1;stroke:none;" />
  <path
     id="path30"
     d="  M 173.46755,63.132313   L 172.60088,63.265644   L 171.80087,63.665637   L 171.1342,64.332293   L 170.5342,65.265611   L 169.66753,67.598907   L 169.40086,70.598859   L 169.66753,73.932138   L 170.46753,76.598761   L 171.00087,77.598745   L 171.7342,78.332067   L 172.53421,78.798726   L 173.46755,78.998723   L 174.40088,78.798726   L 175.20089,78.332067   L 175.86756,77.598745   L 176.46756,76.598761   L 177.2009,73.932138   L 177.46757,70.598859   L 177.2009,67.598907   L 176.40089,65.265611   L 175.80089,64.332293   L 175.13422,63.665637   L 174.33422,63.265644   L 173.46755,63.132313  z    M 173.46755,63.9323   L 174.13422,64.065631   L 174.73422,64.53229   L 175.60089,66.065598   L 176.06756,68.198897   L 176.20089,70.598859   L 176.06756,73.132151   L 175.66756,75.532112   L 174.80089,77.332083   L 174.20088,77.865408   L 173.46755,78.065404   L 172.73421,77.865408   L 172.13421,77.332083   L 171.26754,75.532112   L 170.86753,73.132151   L 170.7342,70.598859   L 170.86753,68.198897   L 171.3342,66.065598   L 172.20087,64.53229   L 172.73421,64.065631   L 173.46755,63.9323  z   "
     clip-path="url(#clipWmfPath1)"
     style="fill:#cccccc;fill-rule:evenodd;fill-opacity:1;stroke:none;" />
  <path
     id="path32"
     d="  M 163.6675,67.332245   L 163.6675,76.265434   L 163.4675,77.865408   L 163.13416,78.198736   L 162.60082,78.332067   L 162.60082,78.665395   L 166.00084,78.665395   L 166.00084,78.332067   L 165.46751,78.198736   L 165.13417,77.865408   L 164.93417,76.265434   L 164.93417,72.332164   L 165.66751,72.332164   L 168.73419,78.665395   L 170.66753,78.665395   L 170.66753,78.332067   L 170.26753,78.198736   L 169.86753,77.732077   L 169.06752,76.398765   L 167.00085,72.132167   L 167.80085,71.798839   L 168.53419,71.065518   L 169.06752,69.932203   L 169.26752,68.598891   L 168.93419,66.732254   L 168.20085,65.665605   L 167.13418,65.065615   L 166.00084,64.932283   L 162.60082,64.932283   L 162.60082,65.265611   L 163.13416,65.398943   L 163.4675,65.732271   L 163.6675,67.332245  z    M 164.93417,71.532177   L 164.93417,66.265595   L 165.13417,65.732271   L 165.60084,65.665605   L 165.73417,65.665605   L 166.60084,65.798936   L 167.33418,66.332261   L 167.73418,67.198913   L 167.86752,68.598891   L 167.60085,70.265531   L 166.93418,71.132183   L 165.93417,71.465511   L 164.93417,71.532177  z   "
     clip-path="url(#clipWmfPath1)"
     style="fill:#cccccc;fill-rule:evenodd;fill-opacity:1;stroke:none;" />
  <path
     id="path34"
     d="  M 152.06744,83.598648   L 151.26743,83.731979   L 150.46743,84.131973   L 149.26742,85.53195   L 148.40075,87.665249   L 148.13408,90.398538   L 148.40075,93.331824   L 149.13409,95.731785   L 150.40076,97.265094   L 151.20077,97.731753   L 152.06744,97.865084   L 153.00078,97.731753   L 153.80078,97.265094   L 154.46745,96.598438   L 155.00079,95.731785   L 155.73412,93.331824   L 156.00079,90.398538   L 155.73412,87.665249   L 154.93412,85.53195   L 153.66745,84.131973   L 152.93411,83.731979   L 152.06744,83.598648  z    M 152.06744,84.265304   L 152.73411,84.398635   L 153.33411,84.798629   L 153.80078,85.398619   L 154.13411,86.198606   L 154.60078,88.131908   L 154.73412,90.398538   L 154.60078,92.665168   L 154.20078,94.865133   L 153.86745,95.731785   L 153.40078,96.465107   L 152.80077,96.931766   L 152.06744,97.131763   L 151.3341,96.931766   L 150.7341,96.465107   L 150.00076,94.865133   L 149.60076,92.665168   L 149.46742,90.398538   L 149.60076,88.131908   L 150.06743,86.198606   L 150.86743,84.798629   L 151.40077,84.398635   L 152.06744,84.265304  z   "
     clip-path="url(#clipWmfPath1)"
     style="fill:#cccccc;fill-rule:evenodd;fill-opacity:1;stroke:none;" />
  <path
     id="path36"
     d="  M 139.20071,81.732012   L 139.20071,81.332018   L 178.13424,81.332018   L 178.13424,81.732012   L 139.20071,81.732012  z "
     clip-path="url(#clipWmfPath1)"
     style="fill:#cccccc;fill-rule:evenodd;fill-opacity:1;stroke:none;" />
  <path
     id="path38"
     d="  M 178.0009,63.9323   L 178.26757,63.998965   L 178.46757,64.198962   L 178.53424,64.465624   L 178.46757,64.732287   L 178.26757,64.932283   L 178.0009,64.998949   L 177.8009,64.932283   L 177.53423,64.732287   L 177.46757,64.465624   L 177.53423,64.198962   L 177.8009,63.998965   L 178.0009,63.9323  z    M 178.0009,63.998965   L 177.8009,64.065631   L 177.6009,64.198962   L 177.53423,64.465624   L 177.6009,64.732287   L 177.8009,64.865618   L 178.0009,64.998949   L 178.26757,64.865618   L 178.4009,64.732287   L 178.46757,64.465624   L 178.4009,64.198962   L 178.26757,64.065631   L 178.0009,63.998965  z    M 177.73423,64.198962   L 178.0009,64.198962   L 178.13424,64.198962   L 178.26757,64.332293   L 178.2009,64.465624   L 178.06757,64.53229   L 178.2009,64.732287   L 178.26757,64.798952   L 178.33424,64.798952   L 178.33424,64.798952   L 178.13424,64.798952   L 177.93424,64.53229   L 177.93424,64.53229   L 177.93424,64.732287   L 177.93424,64.798952   L 178.06757,64.798952   L 178.06757,64.798952   L 177.73423,64.798952   L 177.73423,64.798952   L 177.8009,64.798952   L 177.8009,64.732287   L 177.8009,64.665621   L 177.8009,64.265628   L 177.8009,64.198962   L 177.73423,64.198962   L 177.73423,64.198962  z    M 177.93424,64.465624   L 178.06757,64.465624   L 178.06757,64.398959   L 178.06757,64.332293   L 178.06757,64.198962   L 178.0009,64.198962   L 177.93424,64.198962   L 177.93424,64.465624  z   "
     clip-path="url(#clipWmfPath1)"
     style="fill:#bfbfbf;fill-rule:evenodd;fill-opacity:1;stroke:none;" />
  <path
     id="path40"
     d="  M 40.666873,46.799243   L 40.666873,46.799243   L 41.733545,46.799243   L 41.733545,44.065954   L 41.733545,46.799243   L 42.866884,46.799243   L 42.866884,46.799243   L 44.000223,46.799243   L 44.000223,44.065954   L 44.000223,46.799243   L 45.133562,46.799243   L 45.133562,46.799243   L 46.266901,46.799243   L 46.266901,44.065954   L 46.266901,46.799243   L 47.40024,46.799243   L 47.40024,46.799243   L 48.533579,46.799243   L 48.533579,44.065954   L 48.533579,46.799243   L 49.666918,46.799243   L 49.666918,46.799243   L 50.800258,46.799243   L 50.800258,44.065954   L 50.800258,46.799243   L 51.933597,46.799243   L 51.933597,46.799243   L 53.066936,46.799243   L 53.066936,44.065954   L 53.066936,46.799243   L 54.266942,46.799243   L 54.266942,46.799243   L 55.333614,46.799243   L 55.333614,44.065954   L 55.333614,46.799243   L 56.53362,46.799243   L 56.53362,46.799243   L 57.666959,46.799243   L 57.666959,44.065954   L 57.666959,46.799243   L 58.800298,46.799243   L 58.800298,46.799243   L 59.86697,46.799243   L 59.86697,44.065954   L 59.86697,46.799243   L 61.000309,46.799243   L 61.000309,46.799243   L 62.133648,46.799243   L 62.133648,44.065954   L 62.133648,46.799243   L 63.266987,46.799243   L 63.266987,46.799243   L 64.400327,46.799243   L 64.400327,44.065954   L 64.400327,46.799243   L 65.533666,46.799243   L 65.533666,46.799243   L 66.667005,46.799243   L 66.667005,44.065954   L 66.667005,46.799243   L 67.733677,46.799243   L 67.733677,46.799243   L 68.933683,46.799243   L 68.933683,44.065954   L 68.933683,46.799243   L 70.067022,46.799243   L 70.067022,46.799243   L 71.133694,46.799243   L 71.133694,44.065954   L 71.133694,46.799243   L 72.3337,46.799243   L 72.3337,46.799243   L 73.467039,46.799243   L 73.467039,44.065954   L 73.467039,46.799243   L 74.667045,46.799243   L 74.667045,46.799243   L 75.733717,46.799243   L 75.733717,44.065954   L 75.733717,46.799243   L 76.933723,46.799243   L 76.933723,46.799243   L 78.000395,46.799243   L 78.000395,44.065954   L 78.000395,46.799243   L 79.133735,46.799243   L 79.133735,46.799243   L 80.333741,46.799243   L 80.333741,44.065954   L 80.333741,46.799243   L 81.400413,46.799243   L 81.400413,46.799243   L 82.533752,46.799243   L 82.533752,44.065954   L 82.533752,46.799243   L 84.000426,46.799243   L 84.000426,46.799243   L 84.80043,46.799243   L 84.80043,44.065954   L 84.80043,46.799243   L 85.400433,46.799243   L 85.400433,48.999208   L 88.13378,48.999208   L 85.400433,48.999208   L 85.400433,50.199188   L 85.400433,50.199188   L 85.400433,51.265838   L 88.13378,51.265838   L 85.400433,51.265838   L 85.400433,52.465818   L 85.400433,52.465818   L 85.400433,53.532468   L 88.13378,53.532468   L 85.400433,53.532468   L 85.400433,54.732448   L 85.400433,54.732448   L 85.400433,55.799098   L 88.13378,55.799098   L 85.400433,55.799098   L 85.400433,56.932413   L 85.400433,56.932413   L 85.400433,58.065728   L 88.13378,58.065728   L 85.400433,58.065728   L 85.400433,59.265708   L 85.400433,59.265708   L 85.400433,60.332358   L 88.13378,60.332358   L 85.400433,60.332358   L 85.400433,61.465673   L 85.400433,61.465673   L 85.400433,62.598988   L 88.13378,62.598988   L 85.400433,62.598988   L 85.400433,63.798968   L 85.400433,63.798968   L 85.400433,64.865618   L 88.13378,64.865618   L 85.400433,64.865618   L 85.400433,66.065598   L 85.400433,66.065598   L 85.400433,67.132248   L 88.13378,67.132248   L 85.400433,67.132248   L 85.400433,68.332228   L 85.400433,68.332228   L 85.400433,69.532209   L 88.13378,69.532209   L 85.400433,69.532209   L 85.400433,70.598859   L 85.400433,70.598859   L 85.400433,71.798839   L 88.13378,71.798839   L 85.400433,71.798839   L 85.400433,72.598826   L 85.400433,72.598826   L 85.400433,73.932138   L 88.13378,73.932138   L 85.400433,73.932138   L 85.400433,74.598794   L 83.933759,74.598794   L 83.933759,74.598794   L 82.867087,74.598794   L 82.867087,77.332083   L 82.867087,74.598794   L 81.733748,74.598794   L 81.733748,74.598794   L 80.600409,74.598794   L 80.600409,77.332083   L 80.600409,74.598794   L 79.46707,74.598794   L 79.46707,74.598794   L 78.33373,74.598794   L 78.33373,77.332083   L 78.33373,74.598794   L 77.200391,74.598794   L 77.200391,74.598794   L 76.067052,74.598794   L 76.067052,77.332083   L 76.067052,74.598794   L 74.933713,74.598794   L 74.933713,74.598794   L 73.800374,74.598794   L 73.800374,77.332083   L 73.800374,74.598794   L 72.667035,74.598794   L 72.667035,74.598794   L 71.533696,74.598794   L 71.533696,77.332083   L 71.533696,74.598794   L 70.33369,74.598794   L 70.33369,74.598794   L 69.267018,74.598794   L 69.267018,77.332083   L 69.267018,74.598794   L 68.067012,74.598794   L 68.067012,74.598794   L 66.933673,74.598794   L 66.933673,77.332083   L 66.933673,74.598794   L 65.800334,74.598794   L 65.800334,74.598794   L 64.733662,74.598794   L 64.733662,77.332083   L 64.733662,74.598794   L 63.600322,74.598794   L 63.600322,74.598794   L 62.466983,74.598794   L 62.466983,77.332083   L 62.466983,74.598794   L 61.333644,74.598794   L 61.333644,74.598794   L 60.200305,74.598794   L 60.200305,77.332083   L 60.200305,74.598794   L 59.066966,74.598794   L 59.066966,74.598794   L 57.933627,74.598794   L 57.933627,77.332083   L 57.933627,74.598794   L 56.866955,74.598794   L 56.866955,74.598794   L 55.666949,74.598794   L 55.666949,77.332083   L 55.666949,74.598794   L 54.53361,74.598794   L 54.53361,74.598794   L 53.466938,74.598794   L 53.466938,77.332083   L 53.466938,74.598794   L 52.266932,74.598794   L 52.266932,74.598794   L 51.133593,74.598794   L 51.133593,77.332083   L 51.133593,74.598794   L 49.933587,74.598794   L 49.933587,74.598794   L 48.866914,74.598794   L 48.866914,77.332083   L 48.866914,74.598794   L 47.666908,74.598794   L 47.666908,74.598794   L 46.600236,74.598794   L 46.600236,77.332083   L 46.600236,74.598794   L 45.466897,74.598794   L 45.466897,74.598794   L 44.266891,74.598794   L 44.266891,77.332083   L 44.266891,74.598794   L 43.200219,74.598794   L 43.200219,74.598794   L 42.06688,74.598794   L 42.06688,77.332083   L 42.06688,74.598794   L 40.800207,74.598794   L 40.800207,74.598794   L 40.000203,74.598794   L 40.000203,77.332083   L 40.000203,74.598794   L 39.000198,74.598794   L 39.000198,73.065485   L 39.000198,73.065485   L 39.000198,71.998836   L 36.266851,71.998836   L 39.000198,71.998836   L 39.000198,70.798855   L 39.000198,70.798855   L 39.000198,69.732206   L 36.266851,69.732206   L 39.000198,69.732206   L 39.000198,68.532225   L 39.000198,68.532225   L 39.000198,67.465576   L 36.266851,67.465576   L 39.000198,67.465576   L 39.000198,66.265595   L 39.000198,66.265595   L 39.000198,65.198946   L 36.266851,65.198946   L 39.000198,65.198946   L 39.000198,63.998965   L 39.000198,63.998965   L 39.000198,62.932316   L 36.266851,62.932316   L 39.000198,62.932316   L 39.000198,61.732335   L 39.000198,61.732335   L 39.000198,60.59902   L 36.266851,60.59902   L 39.000198,60.59902   L 39.000198,59.465705   L 39.000198,59.465705   L 39.000198,58.399056   L 36.266851,58.399056   L 39.000198,58.399056   L 39.000198,57.199075   L 39.000198,57.199075   L 39.000198,56.06576   L 36.266851,56.06576   L 39.000198,56.06576   L 39.000198,54.86578   L 39.000198,54.86578   L 39.000198,53.79913   L 36.266851,53.79913   L 39.000198,53.79913   L 39.000198,52.59915   L 39.000198,52.59915   L 39.000198,51.5325   L 36.266851,51.5325   L 39.000198,51.5325   L 39.000198,50.33252   L 39.000198,50.33252   L 39.000198,49.26587   L 36.266851,49.26587   L 39.000198,49.26587   L 39.000198,48.06589   L 39.000198,48.06589   L 39.000198,46.799243   L 40.666873,46.799243  z "
     clip-path="url(#clipWmfPath1)"
     style="fill:#000000;fill-rule:nonzero;fill-opacity:1;stroke:none;" />
  <path
     id="path42"
     d="  M 39.000198,46.265919   L 39.000198,47.332568   L 40.666873,47.332568   L 40.666873,47.332568   L 42.266881,47.332568   L 42.266881,44.065954   L 41.200209,44.065954   L 41.200209,47.332568   L 42.866884,47.332568   L 42.866884,47.332568   L 44.533559,47.332568   L 44.533559,44.065954   L 43.466887,44.065954   L 43.466887,47.332568   L 45.133562,47.332568   L 45.133562,47.332568   L 46.800237,47.332568   L 46.800237,44.065954   L 45.733565,44.065954   L 45.733565,47.332568   L 47.40024,47.332568   L 47.40024,47.332568   L 49.066915,47.332568   L 49.066915,44.065954   L 48.000243,44.065954   L 48.000243,47.332568   L 49.666918,47.332568   L 49.666918,47.332568   L 51.333594,47.332568   L 51.333594,44.065954   L 50.266922,44.065954   L 50.266922,47.332568   L 51.933597,47.332568   L 51.933597,47.332568   L 53.600272,47.332568   L 53.600272,44.065954   L 52.5336,44.065954   L 52.5336,47.332568   L 54.266942,47.332568   L 54.266942,47.332568   L 55.86695,47.332568   L 55.86695,44.065954   L 54.800278,44.065954   L 54.800278,47.332568   L 56.53362,47.332568   L 56.53362,47.332568   L 58.200295,47.332568   L 58.200295,44.065954   L 57.133623,44.065954   L 57.133623,47.332568   L 58.800298,47.332568   L 58.800298,47.332568   L 60.400306,47.332568   L 60.400306,44.065954   L 59.333634,44.065954   L 59.333634,47.332568   L 61.000309,47.332568   L 61.000309,47.332568   L 62.666984,47.332568   L 62.666984,44.065954   L 61.600312,44.065954   L 61.600312,47.332568   L 63.266987,47.332568   L 63.266987,47.332568   L 64.933663,47.332568   L 64.933663,44.065954   L 63.86699,44.065954   L 63.86699,47.332568   L 65.533666,47.332568   L 65.533666,47.332568   L 67.200341,47.332568   L 67.200341,44.065954   L 66.133669,44.065954   L 66.133669,47.332568   L 67.733677,47.332568   L 67.733677,47.332568   L 69.467019,47.332568   L 69.467019,44.065954   L 68.400347,44.065954   L 68.400347,47.332568   L 70.067022,47.332568   L 70.067022,47.332568   L 71.66703,47.332568   L 71.66703,44.065954   L 70.600358,44.065954   L 70.600358,47.332568   L 72.3337,47.332568   L 72.3337,47.332568   L 74.000375,47.332568   L 74.000375,44.065954   L 72.933703,44.065954   L 72.933703,47.332568   L 74.667045,47.332568   L 74.667045,47.332568   L 76.267053,47.332568   L 76.267053,44.065954   L 75.200381,44.065954   L 75.200381,47.332568   L 76.933723,47.332568   L 76.933723,47.332568   L 78.533732,47.332568   L 78.533732,44.065954   L 77.467059,44.065954   L 77.467059,47.332568   L 79.133735,47.332568   L 79.133735,47.332568   L 80.867077,47.332568   L 80.867077,44.065954   L 79.800405,44.065954   L 79.800405,47.332568   L 81.400413,47.332568   L 81.400413,47.332568   L 83.067088,47.332568   L 83.067088,44.065954   L 82.000416,44.065954   L 82.000416,47.332568   L 84.000426,47.332568   L 84.000426,47.332568   L 85.333766,47.332568   L 85.333766,44.065954   L 84.267094,44.065954   L 84.267094,47.332568   L 84.867097,47.332568   L 84.867097,49.532532   L 88.13378,49.532532   L 88.13378,48.465883   L 84.867097,48.465883   L 84.867097,50.199188   L 84.867097,50.199188   L 84.867097,51.799162   L 88.13378,51.799162   L 88.13378,50.732513   L 84.867097,50.732513   L 84.867097,52.465818   L 84.867097,52.465818   L 84.867097,54.065792   L 88.13378,54.065792   L 88.13378,52.999143   L 84.867097,52.999143   L 84.867097,54.732448   L 84.867097,54.732448   L 84.867097,56.332423   L 88.13378,56.332423   L 88.13378,55.265773   L 84.867097,55.265773   L 84.867097,56.932413   L 84.867097,56.932413   L 84.867097,58.599053   L 88.13378,58.599053   L 88.13378,57.532403   L 84.867097,57.532403   L 84.867097,59.265708   L 84.867097,59.265708   L 84.867097,60.865683   L 88.13378,60.865683   L 88.13378,59.799033   L 84.867097,59.799033   L 84.867097,61.465673   L 84.867097,61.465673   L 84.867097,63.132313   L 88.13378,63.132313   L 88.13378,62.065663   L 84.867097,62.065663   L 84.867097,63.798968   L 84.867097,63.798968   L 84.867097,65.398943   L 88.13378,65.398943   L 88.13378,64.332293   L 84.867097,64.332293   L 84.867097,66.065598   L 84.867097,66.065598   L 84.867097,67.665573   L 88.13378,67.665573   L 88.13378,66.598923   L 84.867097,66.598923   L 84.867097,68.332228   L 84.867097,68.332228   L 84.867097,70.065534   L 88.13378,70.065534   L 88.13378,68.998884   L 84.867097,68.998884   L 84.867097,70.598859   L 84.867097,70.598859   L 84.867097,72.332164   L 88.13378,72.332164   L 88.13378,71.265514   L 84.867097,71.265514   L 84.867097,72.598826   L 84.867097,72.598826   L 84.867097,74.465463   L 88.13378,74.465463   L 88.13378,73.398813   L 84.867097,73.398813   L 84.867097,74.065469   L 83.933759,74.065469   L 83.933759,74.065469   L 82.333751,74.065469   L 82.333751,77.332083   L 83.400423,77.332083   L 83.400423,74.065469   L 81.733748,74.065469   L 81.733748,74.065469   L 80.067073,74.065469   L 80.067073,77.332083   L 81.133745,77.332083   L 81.133745,74.065469   L 79.46707,74.065469   L 79.46707,74.065469   L 77.800394,74.065469   L 77.800394,77.332083   L 78.867067,77.332083   L 78.867067,74.065469   L 77.200391,74.065469   L 77.200391,74.065469   L 75.533716,74.065469   L 75.533716,77.332083   L 76.600388,77.332083   L 76.600388,74.065469   L 74.933713,74.065469   L 74.933713,74.065469   L 73.267038,74.065469   L 73.267038,77.332083   L 74.33371,77.332083   L 74.33371,74.065469   L 72.667035,74.065469   L 72.667035,74.065469   L 71.00036,74.065469   L 71.00036,77.332083   L 72.067032,77.332083   L 72.067032,74.065469   L 70.33369,74.065469   L 70.33369,74.065469   L 68.733682,74.065469   L 68.733682,77.332083   L 69.800354,77.332083   L 69.800354,74.065469   L 68.067012,74.065469   L 68.067012,74.065469   L 66.400337,74.065469   L 66.400337,77.332083   L 67.467009,77.332083   L 67.467009,74.065469   L 65.800334,74.065469   L 65.800334,74.065469   L 64.200326,74.065469   L 64.200326,77.332083   L 65.266998,77.332083   L 65.266998,74.065469   L 63.600322,74.065469   L 63.600322,74.065469   L 61.933647,74.065469   L 61.933647,77.332083   L 63.000319,77.332083   L 63.000319,74.065469   L 61.333644,74.065469   L 61.333644,74.065469   L 59.666969,74.065469   L 59.666969,77.332083   L 60.733641,77.332083   L 60.733641,74.065469   L 59.066966,74.065469   L 59.066966,74.065469   L 57.400291,74.065469   L 57.400291,77.332083   L 58.466963,77.332083   L 58.466963,74.065469   L 56.866955,74.065469   L 56.866955,74.065469   L 55.133613,74.065469   L 55.133613,77.332083   L 56.200285,77.332083   L 56.200285,74.065469   L 54.53361,74.065469   L 54.53361,74.065469   L 52.933602,74.065469   L 52.933602,77.332083   L 54.000274,77.332083   L 54.000274,74.065469   L 52.266932,74.065469   L 52.266932,74.065469   L 50.600257,74.065469   L 50.600257,77.332083   L 51.666929,77.332083   L 51.666929,74.065469   L 49.933587,74.065469   L 49.933587,74.065469   L 48.333578,74.065469   L 48.333578,77.332083   L 49.40025,77.332083   L 49.40025,74.065469   L 47.666908,74.065469   L 47.666908,74.065469   L 46.0669,74.065469   L 46.0669,77.332083   L 47.133572,77.332083   L 47.133572,74.065469   L 45.466897,74.065469   L 45.466897,74.065469   L 43.733555,74.065469   L 43.733555,77.332083   L 44.800227,77.332083   L 44.800227,74.065469   L 43.200219,74.065469   L 43.200219,74.065469   L 41.533544,74.065469   L 41.533544,77.332083   L 42.600216,77.332083   L 42.600216,74.065469   L 40.800207,74.065469   L 40.800207,74.065469   L 39.466867,74.065469   L 39.466867,77.332083   L 40.533539,77.332083   L 40.533539,74.065469   L 39.533534,74.065469   L 39.533534,73.065485   L 39.533534,73.065485   L 39.533534,71.465511   L 36.266851,71.465511   L 36.266851,72.532161   L 39.533534,72.532161   L 39.533534,70.798855   L 39.533534,70.798855   L 39.533534,69.198881   L 36.266851,69.198881   L 36.266851,70.265531   L 39.533534,70.265531   L 39.533534,68.532225   L 39.533534,68.532225   L 39.533534,66.932251   L 36.266851,66.932251   L 36.266851,67.998901   L 39.533534,67.998901   L 39.533534,66.265595   L 39.533534,66.265595   L 39.533534,64.665621   L 36.266851,64.665621   L 36.266851,65.732271   L 39.533534,65.732271   L 39.533534,63.998965   L 39.533534,63.998965   L 39.533534,62.398991   L 36.266851,62.398991   L 36.266851,63.465641   L 39.533534,63.465641   L 39.533534,61.732335   L 39.533534,61.732335   L 39.533534,60.065695   L 36.266851,60.065695   L 36.266851,61.132345   L 39.533534,61.132345   L 39.533534,59.465705   L 39.533534,59.465705   L 39.533534,57.865731   L 36.266851,57.865731   L 36.266851,58.93238   L 39.533534,58.93238   L 39.533534,57.199075   L 39.533534,57.199075   L 39.533534,55.532435   L 36.266851,55.532435   L 36.266851,56.599085   L 39.533534,56.599085   L 39.533534,54.86578   L 39.533534,54.86578   L 39.533534,53.265805   L 36.266851,53.265805   L 36.266851,54.332455   L 39.533534,54.332455   L 39.533534,52.59915   L 39.533534,52.59915   L 39.533534,50.999175   L 36.266851,50.999175   L 36.266851,52.065825   L 39.533534,52.065825   L 39.533534,50.33252   L 39.533534,50.33252   L 39.533534,48.732545   L 36.266851,48.732545   L 36.266851,49.799195   L 39.533534,49.799195   L 39.533534,48.06589   L 39.533534,48.06589   L 39.533534,47.332568   L 40.666873,47.332568   L 40.666873,47.332568   L 41.733545,47.332568   L 41.733545,46.265919   L 40.666873,46.265919   L 40.666873,46.265919   L 38.466862,46.265919   L 38.466862,48.732545   L 38.466862,48.732545   L 38.466862,49.799195   L 38.466862,49.799195   L 38.466862,50.999175   L 38.466862,50.999175   L 38.466862,52.065825   L 38.466862,52.065825   L 38.466862,53.265805   L 38.466862,53.265805   L 38.466862,54.332455   L 38.466862,54.332455   L 38.466862,55.532435   L 38.466862,55.532435   L 38.466862,56.599085   L 38.466862,56.599085   L 38.466862,57.865731   L 38.466862,57.865731   L 38.466862,58.93238   L 38.466862,58.93238   L 38.466862,60.065695   L 38.466862,60.065695   L 38.466862,61.132345   L 38.466862,61.132345   L 38.466862,62.398991   L 38.466862,62.398991   L 38.466862,63.465641   L 38.466862,63.465641   L 38.466862,64.665621   L 38.466862,64.665621   L 38.466862,65.732271   L 38.466862,65.732271   L 38.466862,66.932251   L 38.466862,66.932251   L 38.466862,67.998901   L 38.466862,67.998901   L 38.466862,69.198881   L 38.466862,69.198881   L 38.466862,70.265531   L 38.466862,70.265531   L 38.466862,71.465511   L 38.466862,71.465511   L 38.466862,72.532161   L 38.466862,72.532161   L 38.466862,73.065485   L 38.466862,73.065485   L 38.466862,75.132119   L 39.466867,75.132119   L 40.533539,75.132119   L 40.533539,75.132119   L 41.533544,75.132119   L 41.533544,75.132119   L 42.600216,75.132119   L 42.600216,75.132119   L 43.733555,75.132119   L 43.733555,75.132119   L 44.800227,75.132119   L 44.800227,75.132119   L 46.0669,75.132119   L 46.0669,75.132119   L 47.133572,75.132119   L 47.133572,75.132119   L 48.333578,75.132119   L 48.333578,75.132119   L 49.40025,75.132119   L 49.40025,75.132119   L 50.600257,75.132119   L 50.600257,75.132119   L 51.666929,75.132119   L 51.666929,75.132119   L 52.933602,75.132119   L 52.933602,75.132119   L 54.000274,75.132119   L 54.000274,75.132119   L 55.133613,75.132119   L 55.133613,75.132119   L 56.200285,75.132119   L 56.200285,75.132119   L 57.400291,75.132119   L 57.400291,75.132119   L 58.466963,75.132119   L 58.466963,75.132119   L 59.666969,75.132119   L 59.666969,75.132119   L 60.733641,75.132119   L 60.733641,75.132119   L 61.933647,75.132119   L 61.933647,75.132119   L 63.000319,75.132119   L 63.000319,75.132119   L 64.200326,75.132119   L 64.200326,75.132119   L 65.266998,75.132119   L 65.266998,75.132119   L 66.400337,75.132119   L 66.400337,75.132119   L 67.467009,75.132119   L 67.467009,75.132119   L 68.733682,75.132119   L 68.733682,75.132119   L 69.800354,75.132119   L 69.800354,75.132119   L 71.00036,75.132119   L 71.00036,75.132119   L 72.067032,75.132119   L 72.067032,75.132119   L 73.267038,75.132119   L 73.267038,75.132119   L 74.33371,75.132119   L 74.33371,75.132119   L 75.533716,75.132119   L 75.533716,75.132119   L 76.600388,75.132119   L 76.600388,75.132119   L 77.800394,75.132119   L 77.800394,75.132119   L 78.867067,75.132119   L 78.867067,75.132119   L 80.067073,75.132119   L 80.067073,75.132119   L 81.133745,75.132119   L 81.133745,75.132119   L 82.333751,75.132119   L 82.333751,75.132119   L 83.400423,75.132119   L 83.400423,75.132119   L 83.933759,75.132119   L 83.933759,75.132119   L 85.933769,75.132119   L 85.933769,74.465463   L 85.933769,73.398813   L 85.933769,73.398813   L 85.933769,72.332164   L 85.933769,72.332164   L 85.933769,71.265514   L 85.933769,71.265514   L 85.933769,70.065534   L 85.933769,70.065534   L 85.933769,68.998884   L 85.933769,68.998884   L 85.933769,67.665573   L 85.933769,67.665573   L 85.933769,66.598923   L 85.933769,66.598923   L 85.933769,65.398943   L 85.933769,65.398943   L 85.933769,64.332293   L 85.933769,64.332293   L 85.933769,63.132313   L 85.933769,63.132313   L 85.933769,62.065663   L 85.933769,62.065663   L 85.933769,60.865683   L 85.933769,60.865683   L 85.933769,59.799033   L 85.933769,59.799033   L 85.933769,58.599053   L 85.933769,58.599053   L 85.933769,57.532403   L 85.933769,57.532403   L 85.933769,56.332423   L 85.933769,56.332423   L 85.933769,55.265773   L 85.933769,55.265773   L 85.933769,54.065792   L 85.933769,54.065792   L 85.933769,52.999143   L 85.933769,52.999143   L 85.933769,51.799162   L 85.933769,51.799162   L 85.933769,50.732513   L 85.933769,50.732513   L 85.933769,49.532532   L 85.933769,49.532532   L 85.933769,48.465883   L 85.933769,48.465883   L 85.933769,46.265919   L 85.333766,46.265919   L 84.267094,46.265919   L 84.267094,46.265919   L 83.067088,46.265919   L 83.067088,46.265919   L 82.000416,46.265919   L 82.000416,46.265919   L 80.867077,46.265919   L 80.867077,46.265919   L 79.800405,46.265919   L 79.800405,46.265919   L 78.533732,46.265919   L 78.533732,46.265919   L 77.467059,46.265919   L 77.467059,46.265919   L 76.267053,46.265919   L 76.267053,46.265919   L 75.200381,46.265919   L 75.200381,46.265919   L 74.000375,46.265919   L 74.000375,46.265919   L 72.933703,46.265919   L 72.933703,46.265919   L 71.66703,46.265919   L 71.66703,46.265919   L 70.600358,46.265919   L 70.600358,46.265919   L 69.467019,46.265919   L 69.467019,46.265919   L 68.400347,46.265919   L 68.400347,46.265919   L 67.200341,46.265919   L 67.200341,46.265919   L 66.133669,46.265919   L 66.133669,46.265919   L 64.933663,46.265919   L 64.933663,46.265919   L 63.86699,46.265919   L 63.86699,46.265919   L 62.666984,46.265919   L 62.666984,46.265919   L 61.600312,46.265919   L 61.600312,46.265919   L 60.400306,46.265919   L 60.400306,46.265919   L 59.333634,46.265919   L 59.333634,46.265919   L 58.200295,46.265919   L 58.200295,46.265919   L 57.133623,46.265919   L 57.133623,46.265919   L 55.86695,46.265919   L 55.86695,46.265919   L 54.800278,46.265919   L 54.800278,46.265919   L 53.600272,46.265919   L 53.600272,46.265919   L 52.5336,46.265919   L 52.5336,46.265919   L 51.333594,46.265919   L 51.333594,46.265919   L 50.266922,46.265919   L 50.266922,46.265919   L 49.066915,46.265919   L 49.066915,46.265919   L 48.000243,46.265919   L 48.000243,46.265919   L 46.800237,46.265919   L 46.800237,46.265919   L 45.733565,46.265919   L 45.733565,46.265919   L 44.533559,46.265919   L 44.533559,46.265919   L 43.466887,46.265919   L 43.466887,46.265919   L 42.266881,46.265919   L 42.266881,46.265919   L 41.200209,46.265919   L 41.200209,46.265919   L 40.666873,46.265919   L 40.666873,46.265919   L 39.000198,46.265919  z "
     clip-path="url(#clipWmfPath1)"
     style="fill:#000000;fill-rule:nonzero;fill-opacity:1;stroke:#000000;stroke-width:0.066667005px;stroke-linecap:round;stroke-linejoin:round;stroke-miterlimit:4;stroke-dasharray:none;stroke-opacity:1;" />
  <path
     id="path44"
     d="  M 98.800501,47.399234   L 98.800501,47.399234   L 99.867173,47.399234   L 99.867173,44.665944   L 99.867173,47.399234   L 101.00051,47.399234   L 101.00051,47.399234   L 102.13385,47.399234   L 102.13385,44.665944   L 102.13385,47.399234   L 103.26719,47.399234   L 103.26719,47.399234   L 104.40053,47.399234   L 104.40053,44.665944   L 104.40053,47.399234   L 105.53387,47.399234   L 105.53387,47.399234   L 106.66721,47.399234   L 106.66721,44.665944   L 106.66721,47.399234   L 107.80055,47.399234   L 107.80055,47.399234   L 108.93389,47.399234   L 108.93389,44.665944   L 108.93389,47.399234   L 110.06722,47.399234   L 110.06722,47.399234   L 111.20056,47.399234   L 111.20056,44.665944   L 111.20056,47.399234   L 112.40057,47.399234   L 112.40057,47.399234   L 113.46724,47.399234   L 113.46724,44.665944   L 113.46724,47.399234   L 114.66725,47.399234   L 114.66725,47.399234   L 115.80059,47.399234   L 115.80059,44.665944   L 115.80059,47.399234   L 116.93393,47.399234   L 116.93393,47.399234   L 118.0006,47.399234   L 118.0006,44.665944   L 118.0006,47.399234   L 119.13394,47.399234   L 119.13394,47.399234   L 120.26728,47.399234   L 120.26728,44.665944   L 120.26728,47.399234   L 121.40062,47.399234   L 121.40062,47.399234   L 122.53395,47.399234   L 122.53395,44.665944   L 122.53395,47.399234   L 123.66729,47.399234   L 123.66729,47.399234   L 124.80063,47.399234   L 124.80063,44.665944   L 124.80063,47.399234   L 125.8673,47.399234   L 125.8673,47.399234   L 127.06731,47.399234   L 127.06731,44.665944   L 127.06731,47.399234   L 128.20065,47.399234   L 128.20065,47.399234   L 129.26732,47.399234   L 129.26732,44.665944   L 129.26732,47.399234   L 130.46733,47.399234   L 130.46733,47.399234   L 131.60067,47.399234   L 131.60067,44.665944   L 131.60067,47.399234   L 132.80067,47.399234   L 132.80067,47.399234   L 133.86735,47.399234   L 133.86735,44.665944   L 133.86735,47.399234   L 135.06735,47.399234   L 135.06735,47.399234   L 136.13402,47.399234   L 136.13402,44.665944   L 136.13402,47.399234   L 137.26736,47.399234   L 137.26736,47.399234   L 138.46737,47.399234   L 138.46737,44.665944   L 138.46737,47.399234   L 139.53404,47.399234   L 139.53404,47.399234   L 140.66738,47.399234   L 140.66738,44.665944   L 140.66738,47.399234   L 142.13405,47.399234   L 142.13405,47.399234   L 142.93406,47.399234   L 142.93406,44.665944   L 142.93406,47.399234   L 143.53406,47.399234   L 143.53406,49.599198   L 146.26741,49.599198   L 143.53406,49.599198   L 143.53406,50.799179   L 143.53406,50.799179   L 143.53406,51.865828   L 146.26741,51.865828   L 143.53406,51.865828   L 143.53406,53.065809   L 143.53406,53.065809   L 143.53406,54.132458   L 146.26741,54.132458   L 143.53406,54.132458   L 143.53406,55.332439   L 143.53406,55.332439   L 143.53406,56.399088   L 146.26741,56.399088   L 143.53406,56.399088   L 143.53406,57.532403   L 143.53406,57.532403   L 143.53406,58.665718   L 146.26741,58.665718   L 143.53406,58.665718   L 143.53406,59.865699   L 143.53406,59.865699   L 143.53406,60.932348   L 146.26741,60.932348   L 143.53406,60.932348   L 143.53406,62.065663   L 143.53406,62.065663   L 143.53406,63.198978   L 146.26741,63.198978   L 143.53406,63.198978   L 143.53406,64.398959   L 143.53406,64.398959   L 143.53406,65.465608   L 146.26741,65.465608   L 143.53406,65.465608   L 143.53406,66.665589   L 143.53406,66.665589   L 143.53406,67.732238   L 146.26741,67.732238   L 143.53406,67.732238   L 143.53406,68.932219   L 143.53406,68.932219   L 143.53406,70.132199   L 146.26741,70.132199   L 143.53406,70.132199   L 143.53406,71.198849   L 143.53406,71.198849   L 143.53406,72.398829   L 146.26741,72.398829   L 143.53406,72.398829   L 143.53406,73.198816   L 143.53406,73.198816   L 143.53406,74.532128   L 146.26741,74.532128   L 143.53406,74.532128   L 143.53406,75.198784   L 142.06739,75.198784   L 142.06739,75.198784   L 141.00071,75.198784   L 141.00071,77.932073   L 141.00071,75.198784   L 139.86738,75.198784   L 139.86738,75.198784   L 138.73404,75.198784   L 138.73404,77.932073   L 138.73404,75.198784   L 137.6007,75.198784   L 137.6007,75.198784   L 136.46736,75.198784   L 136.46736,77.932073   L 136.46736,75.198784   L 135.33402,75.198784   L 135.33402,75.198784   L 134.20068,75.198784   L 134.20068,77.932073   L 134.20068,75.198784   L 133.06734,75.198784   L 133.06734,75.198784   L 131.934,75.198784   L 131.934,77.932073   L 131.934,75.198784   L 130.80066,75.198784   L 130.80066,75.198784   L 129.66732,75.198784   L 129.66732,77.932073   L 129.66732,75.198784   L 128.46732,75.198784   L 128.46732,75.198784   L 127.40065,75.198784   L 127.40065,77.932073   L 127.40065,75.198784   L 126.20064,75.198784   L 126.20064,75.198784   L 125.0673,75.198784   L 125.0673,77.932073   L 125.0673,75.198784   L 123.93396,75.198784   L 123.93396,75.198784   L 122.86729,75.198784   L 122.86729,77.932073   L 122.86729,75.198784   L 121.73395,75.198784   L 121.73395,75.198784   L 120.60061,75.198784   L 120.60061,77.932073   L 120.60061,75.198784   L 119.46727,75.198784   L 119.46727,75.198784   L 118.33393,75.198784   L 118.33393,77.932073   L 118.33393,75.198784   L 117.20059,75.198784   L 117.20059,75.198784   L 116.06726,75.198784   L 116.06726,77.932073   L 116.06726,75.198784   L 115.00058,75.198784   L 115.00058,75.198784   L 113.80058,75.198784   L 113.80058,77.932073   L 113.80058,75.198784   L 112.66724,75.198784   L 112.66724,75.198784   L 111.60057,75.198784   L 111.60057,77.932073   L 111.60057,75.198784   L 110.40056,75.198784   L 110.40056,75.198784   L 109.26722,75.198784   L 109.26722,77.932073   L 109.26722,75.198784   L 108.06721,75.198784   L 108.06721,75.198784   L 107.00054,75.198784   L 107.00054,77.932073   L 107.00054,75.198784   L 105.80054,75.198784   L 105.80054,75.198784   L 104.73386,75.198784   L 104.73386,77.932073   L 104.73386,75.198784   L 103.60053,75.198784   L 103.60053,75.198784   L 102.40052,75.198784   L 102.40052,77.932073   L 102.40052,75.198784   L 101.33385,75.198784   L 101.33385,75.198784   L 100.20051,75.198784   L 100.20051,77.932073   L 100.20051,75.198784   L 98.933835,75.198784   L 98.933835,75.198784   L 98.133831,75.198784   L 98.133831,77.932073   L 98.133831,75.198784   L 97.133826,75.198784   L 97.133826,73.665476   L 97.133826,73.665476   L 97.133826,72.598826   L 94.400479,72.598826   L 97.133826,72.598826   L 97.133826,71.398846   L 97.133826,71.398846   L 97.133826,70.332196   L 94.400479,70.332196   L 97.133826,70.332196   L 97.133826,69.132216   L 97.133826,69.132216   L 97.133826,68.065566   L 94.400479,68.065566   L 97.133826,68.065566   L 97.133826,66.865586   L 97.133826,66.865586   L 97.133826,65.798936   L 94.400479,65.798936   L 97.133826,65.798936   L 97.133826,64.598956   L 97.133826,64.598956   L 97.133826,63.532306   L 94.400479,63.532306   L 97.133826,63.532306   L 97.133826,62.332326   L 97.133826,62.332326   L 97.133826,61.19901   L 94.400479,61.19901   L 97.133826,61.19901   L 97.133826,60.065695   L 97.133826,60.065695   L 97.133826,58.999046   L 94.400479,58.999046   L 97.133826,58.999046   L 97.133826,57.799065   L 97.133826,57.799065   L 97.133826,56.66575   L 94.400479,56.66575   L 97.133826,56.66575   L 97.133826,55.46577   L 97.133826,55.46577   L 97.133826,54.39912   L 94.400479,54.39912   L 97.133826,54.39912   L 97.133826,53.19914   L 97.133826,53.19914   L 97.133826,52.13249   L 94.400479,52.13249   L 97.133826,52.13249   L 97.133826,50.93251   L 97.133826,50.93251   L 97.133826,49.86586   L 94.400479,49.86586   L 97.133826,49.86586   L 97.133826,48.66588   L 97.133826,48.66588   L 97.133826,47.399234   L 98.800501,47.399234  z "
     clip-path="url(#clipWmfPath1)"
     style="fill:#000000;fill-rule:nonzero;fill-opacity:1;stroke:none;" />
  <path
     id="path46"
     d="  M 97.133826,46.865909   L 97.133826,47.932558   L 98.800501,47.932558   L 98.800501,47.932558   L 100.40051,47.932558   L 100.40051,44.665944   L 99.333837,44.665944   L 99.333837,47.932558   L 101.00051,47.932558   L 101.00051,47.932558   L 102.66719,47.932558   L 102.66719,44.665944   L 101.60052,44.665944   L 101.60052,47.932558   L 103.26719,47.932558   L 103.26719,47.932558   L 104.93387,47.932558   L 104.93387,44.665944   L 103.86719,44.665944   L 103.86719,47.932558   L 105.53387,47.932558   L 105.53387,47.932558   L 107.20054,47.932558   L 107.20054,44.665944   L 106.13387,44.665944   L 106.13387,47.932558   L 107.80055,47.932558   L 107.80055,47.932558   L 109.46722,47.932558   L 109.46722,44.665944   L 108.40055,44.665944   L 108.40055,47.932558   L 110.06722,47.932558   L 110.06722,47.932558   L 111.7339,47.932558   L 111.7339,44.665944   L 110.66723,44.665944   L 110.66723,47.932558   L 112.40057,47.932558   L 112.40057,47.932558   L 114.00058,47.932558   L 114.00058,44.665944   L 112.93391,44.665944   L 112.93391,47.932558   L 114.66725,47.932558   L 114.66725,47.932558   L 116.33392,47.932558   L 116.33392,44.665944   L 115.26725,44.665944   L 115.26725,47.932558   L 116.93393,47.932558   L 116.93393,47.932558   L 118.53393,47.932558   L 118.53393,44.665944   L 117.46726,44.665944   L 117.46726,47.932558   L 119.13394,47.932558   L 119.13394,47.932558   L 120.80061,47.932558   L 120.80061,44.665944   L 119.73394,44.665944   L 119.73394,47.932558   L 121.40062,47.932558   L 121.40062,47.932558   L 123.06729,47.932558   L 123.06729,44.665944   L 122.00062,44.665944   L 122.00062,47.932558   L 123.66729,47.932558   L 123.66729,47.932558   L 125.33397,47.932558   L 125.33397,44.665944   L 124.2673,44.665944   L 124.2673,47.932558   L 125.8673,47.932558   L 125.8673,47.932558   L 127.60065,47.932558   L 127.60065,44.665944   L 126.53397,44.665944   L 126.53397,47.932558   L 128.20065,47.932558   L 128.20065,47.932558   L 129.80066,47.932558   L 129.80066,44.665944   L 128.73399,44.665944   L 128.73399,47.932558   L 130.46733,47.932558   L 130.46733,47.932558   L 132.134,47.932558   L 132.134,44.665944   L 131.06733,44.665944   L 131.06733,47.932558   L 132.80067,47.932558   L 132.80067,47.932558   L 134.40068,47.932558   L 134.40068,44.665944   L 133.33401,44.665944   L 133.33401,47.932558   L 135.06735,47.932558   L 135.06735,47.932558   L 136.66736,47.932558   L 136.66736,44.665944   L 135.60069,44.665944   L 135.60069,47.932558   L 137.26736,47.932558   L 137.26736,47.932558   L 139.0007,47.932558   L 139.0007,44.665944   L 137.93403,44.665944   L 137.93403,47.932558   L 139.53404,47.932558   L 139.53404,47.932558   L 141.20072,47.932558   L 141.20072,44.665944   L 140.13404,44.665944   L 140.13404,47.932558   L 142.13405,47.932558   L 142.13405,47.932558   L 143.46739,47.932558   L 143.46739,44.665944   L 142.40072,44.665944   L 142.40072,47.932558   L 143.00073,47.932558   L 143.00073,50.132523   L 146.26741,50.132523   L 146.26741,49.065873   L 143.00073,49.065873   L 143.00073,50.799179   L 143.00073,50.799179   L 143.00073,52.399153   L 146.26741,52.399153   L 146.26741,51.332503   L 143.00073,51.332503   L 143.00073,53.065809   L 143.00073,53.065809   L 143.00073,54.665783   L 146.26741,54.665783   L 146.26741,53.599133   L 143.00073,53.599133   L 143.00073,55.332439   L 143.00073,55.332439   L 143.00073,56.932413   L 146.26741,56.932413   L 146.26741,55.865763   L 143.00073,55.865763   L 143.00073,57.532403   L 143.00073,57.532403   L 143.00073,59.199043   L 146.26741,59.199043   L 146.26741,58.132393   L 143.00073,58.132393   L 143.00073,59.865699   L 143.00073,59.865699   L 143.00073,61.465673   L 146.26741,61.465673   L 146.26741,60.399023   L 143.00073,60.399023   L 143.00073,62.065663   L 143.00073,62.065663   L 143.00073,63.732303   L 146.26741,63.732303   L 146.26741,62.665653   L 143.00073,62.665653   L 143.00073,64.398959   L 143.00073,64.398959   L 143.00073,65.998933   L 146.26741,65.998933   L 146.26741,64.932283   L 143.00073,64.932283   L 143.00073,66.665589   L 143.00073,66.665589   L 143.00073,68.265563   L 146.26741,68.265563   L 146.26741,67.198913   L 143.00073,67.198913   L 143.00073,68.932219   L 143.00073,68.932219   L 143.00073,70.665524   L 146.26741,70.665524   L 146.26741,69.598875   L 143.00073,69.598875   L 143.00073,71.198849   L 143.00073,71.198849   L 143.00073,72.932154   L 146.26741,72.932154   L 146.26741,71.865505   L 143.00073,71.865505   L 143.00073,73.198816   L 143.00073,73.198816   L 143.00073,75.065453   L 146.26741,75.065453   L 146.26741,73.998804   L 143.00073,73.998804   L 143.00073,74.665459   L 142.06739,74.665459   L 142.06739,74.665459   L 140.46738,74.665459   L 140.46738,77.932073   L 141.53405,77.932073   L 141.53405,74.665459   L 139.86738,74.665459   L 139.86738,74.665459   L 138.2007,74.665459   L 138.2007,77.932073   L 139.26737,77.932073   L 139.26737,74.665459   L 137.6007,74.665459   L 137.6007,74.665459   L 135.93402,74.665459   L 135.93402,77.932073   L 137.00069,77.932073   L 137.00069,74.665459   L 135.33402,74.665459   L 135.33402,74.665459   L 133.66734,74.665459   L 133.66734,77.932073   L 134.73402,77.932073   L 134.73402,74.665459   L 133.06734,74.665459   L 133.06734,74.665459   L 131.40067,74.665459   L 131.40067,77.932073   L 132.46734,77.932073   L 132.46734,74.665459   L 130.80066,74.665459   L 130.80066,74.665459   L 129.13399,74.665459   L 129.13399,77.932073   L 130.20066,77.932073   L 130.20066,74.665459   L 128.46732,74.665459   L 128.46732,74.665459   L 126.86731,74.665459   L 126.86731,77.932073   L 127.93398,77.932073   L 127.93398,74.665459   L 126.20064,74.665459   L 126.20064,74.665459   L 124.53396,74.665459   L 124.53396,77.932073   L 125.60064,77.932073   L 125.60064,74.665459   L 123.93396,74.665459   L 123.93396,74.665459   L 122.33395,74.665459   L 122.33395,77.932073   L 123.40063,77.932073   L 123.40063,74.665459   L 121.73395,74.665459   L 121.73395,74.665459   L 120.06728,74.665459   L 120.06728,77.932073   L 121.13395,77.932073   L 121.13395,74.665459   L 119.46727,74.665459   L 119.46727,74.665459   L 117.8006,74.665459   L 117.8006,77.932073   L 118.86727,77.932073   L 118.86727,74.665459   L 117.20059,74.665459   L 117.20059,74.665459   L 115.53392,74.665459   L 115.53392,77.932073   L 116.60059,77.932073   L 116.60059,74.665459   L 115.00058,74.665459   L 115.00058,74.665459   L 113.26724,74.665459   L 113.26724,77.932073   L 114.33391,77.932073   L 114.33391,74.665459   L 112.66724,74.665459   L 112.66724,74.665459   L 111.06723,74.665459   L 111.06723,77.932073   L 112.1339,77.932073   L 112.1339,74.665459   L 110.40056,74.665459   L 110.40056,74.665459   L 108.73388,74.665459   L 108.73388,77.932073   L 109.80056,77.932073   L 109.80056,74.665459   L 108.06721,74.665459   L 108.06721,74.665459   L 106.46721,74.665459   L 106.46721,77.932073   L 107.53388,77.932073   L 107.53388,74.665459   L 105.80054,74.665459   L 105.80054,74.665459   L 104.20053,74.665459   L 104.20053,77.932073   L 105.2672,77.932073   L 105.2672,74.665459   L 103.60053,74.665459   L 103.60053,74.665459   L 101.86718,74.665459   L 101.86718,77.932073   L 102.93386,77.932073   L 102.93386,74.665459   L 101.33385,74.665459   L 101.33385,74.665459   L 99.667172,74.665459   L 99.667172,77.932073   L 100.73384,77.932073   L 100.73384,74.665459   L 98.933835,74.665459   L 98.933835,74.665459   L 97.600495,74.665459   L 97.600495,77.932073   L 98.667167,77.932073   L 98.667167,74.665459   L 97.667162,74.665459   L 97.667162,73.665476   L 97.667162,73.665476   L 97.667162,72.065501   L 94.400479,72.065501   L 94.400479,73.132151   L 97.667162,73.132151   L 97.667162,71.398846   L 97.667162,71.398846   L 97.667162,69.798871   L 94.400479,69.798871   L 94.400479,70.865521   L 97.667162,70.865521   L 97.667162,69.132216   L 97.667162,69.132216   L 97.667162,67.532241   L 94.400479,67.532241   L 94.400479,68.598891   L 97.667162,68.598891   L 97.667162,66.865586   L 97.667162,66.865586   L 97.667162,65.265611   L 94.400479,65.265611   L 94.400479,66.332261   L 97.667162,66.332261   L 97.667162,64.598956   L 97.667162,64.598956   L 97.667162,62.998981   L 94.400479,62.998981   L 94.400479,64.065631   L 97.667162,64.065631   L 97.667162,62.332326   L 97.667162,62.332326   L 97.667162,60.665686   L 94.400479,60.665686   L 94.400479,61.732335   L 97.667162,61.732335   L 97.667162,60.065695   L 97.667162,60.065695   L 97.667162,58.465721   L 94.400479,58.465721   L 94.400479,59.532371   L 97.667162,59.532371   L 97.667162,57.799065   L 97.667162,57.799065   L 97.667162,56.132426   L 94.400479,56.132426   L 94.400479,57.199075   L 97.667162,57.199075   L 97.667162,55.46577   L 97.667162,55.46577   L 97.667162,53.865796   L 94.400479,53.865796   L 94.400479,54.932445   L 97.667162,54.932445   L 97.667162,53.19914   L 97.667162,53.19914   L 97.667162,51.599166   L 94.400479,51.599166   L 94.400479,52.665815   L 97.667162,52.665815   L 97.667162,50.93251   L 97.667162,50.93251   L 97.667162,49.332536   L 94.400479,49.332536   L 94.400479,50.399185   L 97.667162,50.399185   L 97.667162,48.66588   L 97.667162,48.66588   L 97.667162,47.932558   L 98.800501,47.932558   L 98.800501,47.932558   L 99.867173,47.932558   L 99.867173,46.865909   L 98.800501,46.865909   L 98.800501,46.865909   L 96.60049,46.865909   L 96.60049,49.332536   L 96.60049,49.332536   L 96.60049,50.399185   L 96.60049,50.399185   L 96.60049,51.599166   L 96.60049,51.599166   L 96.60049,52.665815   L 96.60049,52.665815   L 96.60049,53.865796   L 96.60049,53.865796   L 96.60049,54.932445   L 96.60049,54.932445   L 96.60049,56.132426   L 96.60049,56.132426   L 96.60049,57.199075   L 96.60049,57.199075   L 96.60049,58.465721   L 96.60049,58.465721   L 96.60049,59.532371   L 96.60049,59.532371   L 96.60049,60.665686   L 96.60049,60.665686   L 96.60049,61.732335   L 96.60049,61.732335   L 96.60049,62.998981   L 96.60049,62.998981   L 96.60049,64.065631   L 96.60049,64.065631   L 96.60049,65.265611   L 96.60049,65.265611   L 96.60049,66.332261   L 96.60049,66.332261   L 96.60049,67.532241   L 96.60049,67.532241   L 96.60049,68.598891   L 96.60049,68.598891   L 96.60049,69.798871   L 96.60049,69.798871   L 96.60049,70.865521   L 96.60049,70.865521   L 96.60049,72.065501   L 96.60049,72.065501   L 96.60049,73.132151   L 96.60049,73.132151   L 96.60049,73.665476   L 96.60049,73.665476   L 96.60049,75.732109   L 97.600495,75.732109   L 98.667167,75.732109   L 98.667167,75.732109   L 99.667172,75.732109   L 99.667172,75.732109   L 100.73384,75.732109   L 100.73384,75.732109   L 101.86718,75.732109   L 101.86718,75.732109   L 102.93386,75.732109   L 102.93386,75.732109   L 104.20053,75.732109   L 104.20053,75.732109   L 105.2672,75.732109   L 105.2672,75.732109   L 106.46721,75.732109   L 106.46721,75.732109   L 107.53388,75.732109   L 107.53388,75.732109   L 108.73388,75.732109   L 108.73388,75.732109   L 109.80056,75.732109   L 109.80056,75.732109   L 111.06723,75.732109   L 111.06723,75.732109   L 112.1339,75.732109   L 112.1339,75.732109   L 113.26724,75.732109   L 113.26724,75.732109   L 114.33391,75.732109   L 114.33391,75.732109   L 115.53392,75.732109   L 115.53392,75.732109   L 116.60059,75.732109   L 116.60059,75.732109   L 117.8006,75.732109   L 117.8006,75.732109   L 118.86727,75.732109   L 118.86727,75.732109   L 120.06728,75.732109   L 120.06728,75.732109   L 121.13395,75.732109   L 121.13395,75.732109   L 122.33395,75.732109   L 122.33395,75.732109   L 123.40063,75.732109   L 123.40063,75.732109   L 124.53396,75.732109   L 124.53396,75.732109   L 125.60064,75.732109   L 125.60064,75.732109   L 126.86731,75.732109   L 126.86731,75.732109   L 127.93398,75.732109   L 127.93398,75.732109   L 129.13399,75.732109   L 129.13399,75.732109   L 130.20066,75.732109   L 130.20066,75.732109   L 131.40067,75.732109   L 131.40067,75.732109   L 132.46734,75.732109   L 132.46734,75.732109   L 133.66734,75.732109   L 133.66734,75.732109   L 134.73402,75.732109   L 134.73402,75.732109   L 135.93402,75.732109   L 135.93402,75.732109   L 137.00069,75.732109   L 137.00069,75.732109   L 138.2007,75.732109   L 138.2007,75.732109   L 139.26737,75.732109   L 139.26737,75.732109   L 140.46738,75.732109   L 140.46738,75.732109   L 141.53405,75.732109   L 141.53405,75.732109   L 142.06739,75.732109   L 142.06739,75.732109   L 144.0674,75.732109   L 144.0674,75.065453   L 144.0674,73.998804   L 144.0674,73.998804   L 144.0674,72.932154   L 144.0674,72.932154   L 144.0674,71.865505   L 144.0674,71.865505   L 144.0674,70.665524   L 144.0674,70.665524   L 144.0674,69.598875   L 144.0674,69.598875   L 144.0674,68.265563   L 144.0674,68.265563   L 144.0674,67.198913   L 144.0674,67.198913   L 144.0674,65.998933   L 144.0674,65.998933   L 144.0674,64.932283   L 144.0674,64.932283   L 144.0674,63.732303   L 144.0674,63.732303   L 144.0674,62.665653   L 144.0674,62.665653   L 144.0674,61.465673   L 144.0674,61.465673   L 144.0674,60.399023   L 144.0674,60.399023   L 144.0674,59.199043   L 144.0674,59.199043   L 144.0674,58.132393   L 144.0674,58.132393   L 144.0674,56.932413   L 144.0674,56.932413   L 144.0674,55.865763   L 144.0674,55.865763   L 144.0674,54.665783   L 144.0674,54.665783   L 144.0674,53.599133   L 144.0674,53.599133   L 144.0674,52.399153   L 144.0674,52.399153   L 144.0674,51.332503   L 144.0674,51.332503   L 144.0674,50.132523   L 144.0674,50.132523   L 144.0674,49.065873   L 144.0674,49.065873   L 144.0674,46.865909   L 143.46739,46.865909   L 142.40072,46.865909   L 142.40072,46.865909   L 141.20072,46.865909   L 141.20072,46.865909   L 140.13404,46.865909   L 140.13404,46.865909   L 139.0007,46.865909   L 139.0007,46.865909   L 137.93403,46.865909   L 137.93403,46.865909   L 136.66736,46.865909   L 136.66736,46.865909   L 135.60069,46.865909   L 135.60069,46.865909   L 134.40068,46.865909   L 134.40068,46.865909   L 133.33401,46.865909   L 133.33401,46.865909   L 132.134,46.865909   L 132.134,46.865909   L 131.06733,46.865909   L 131.06733,46.865909   L 129.80066,46.865909   L 129.80066,46.865909   L 128.73399,46.865909   L 128.73399,46.865909   L 127.60065,46.865909   L 127.60065,46.865909   L 126.53397,46.865909   L 126.53397,46.865909   L 125.33397,46.865909   L 125.33397,46.865909   L 124.2673,46.865909   L 124.2673,46.865909   L 123.06729,46.865909   L 123.06729,46.865909   L 122.00062,46.865909   L 122.00062,46.865909   L 120.80061,46.865909   L 120.80061,46.865909   L 119.73394,46.865909   L 119.73394,46.865909   L 118.53393,46.865909   L 118.53393,46.865909   L 117.46726,46.865909   L 117.46726,46.865909   L 116.33392,46.865909   L 116.33392,46.865909   L 115.26725,46.865909   L 115.26725,46.865909   L 114.00058,46.865909   L 114.00058,46.865909   L 112.93391,46.865909   L 112.93391,46.865909   L 111.7339,46.865909   L 111.7339,46.865909   L 110.66723,46.865909   L 110.66723,46.865909   L 109.46722,46.865909   L 109.46722,46.865909   L 108.40055,46.865909   L 108.40055,46.865909   L 107.20054,46.865909   L 107.20054,46.865909   L 106.13387,46.865909   L 106.13387,46.865909   L 104.93387,46.865909   L 104.93387,46.865909   L 103.86719,46.865909   L 103.86719,46.865909   L 102.66719,46.865909   L 102.66719,46.865909   L 101.60052,46.865909   L 101.60052,46.865909   L 100.40051,46.865909   L 100.40051,46.865909   L 99.333837,46.865909   L 99.333837,46.865909   L 98.800501,46.865909   L 98.800501,46.865909   L 97.133826,46.865909  z "
     clip-path="url(#clipWmfPath1)"
     style="fill:#000000;fill-rule:nonzero;fill-opacity:1;stroke:#000000;stroke-width:0.066667005px;stroke-linecap:round;stroke-linejoin:round;stroke-miterlimit:4;stroke-dasharray:none;stroke-opacity:1;" />
  <path
     id="path48"
     d="  M 257.40131,32.999466   L 266.66802,32.999466   L 267.40136,32.866135   L 268.06803,32.466142   L 268.46803,31.866151   L 268.60136,31.13283   L 268.60136,21.666316   L 268.46803,20.932995   L 268.06803,20.333005   L 267.40136,19.866345   L 266.66802,19.733014   L 245.20124,19.733014   L 244.46791,19.866345   L 243.8679,20.266339   L 243.40123,20.866329   L 243.2679,21.599651   L 243.2679,30.999499   L 243.40123,31.73282   L 243.8679,32.399476   L 244.46791,32.79947   L 245.20124,32.932801   L 253.60129,32.932801   L 255.20129,46.132587   L 257.40131,32.999466  z "
     clip-path="url(#clipWmfPath1)"
     style="fill:#ffffff;fill-rule:nonzero;fill-opacity:1;stroke:none;" />
  <path
     id="path50"
     d="  M 254.73462,46.065922   L 255.13463,46.665912   L 255.66796,46.199253   L 257.80131,33.532791   L 266.73469,33.532791   L 267.60136,33.332794   L 268.40136,32.866135   L 268.9347,32.066148   L 269.1347,31.199496   L 269.1347,21.599651   L 268.9347,20.732998   L 268.46803,19.999677   L 267.60136,19.399686   L 266.73469,19.19969   L 245.13458,19.19969   L 244.26791,19.399686   L 243.53457,19.866345   L 242.93457,20.666333   L 242.73456,21.532985   L 242.73456,31.066164   L 242.93457,31.932817   L 243.53457,32.79947   L 244.26791,33.266129   L 245.13458,33.466126   L 253.13462,33.466126   L 254.66796,46.199253   L 255.66796,46.199253   L 257.80131,33.532791   L 266.66802,33.532791   L 267.20135,32.999466   L 266.66802,32.466142   L 257.0013,32.466142   L 255.26796,42.599311   L 254.06795,32.399476   L 245.26791,32.399476   L 244.66791,32.332811   L 244.20124,31.999483   L 243.8679,31.532823   L 243.80124,30.932833   L 243.80124,21.666316   L 243.8679,21.066326   L 244.20124,20.666333   L 244.66791,20.333005   L 245.26791,20.266339   L 266.60135,20.266339   L 267.20135,20.333005   L 267.66802,20.666333   L 268.00136,21.132992   L 268.06803,21.732982   L 268.06803,31.066164   L 268.00136,31.666155   L 267.73469,32.066148   L 267.20135,32.399476   L 266.60135,32.466142   L 257.0013,32.466142   L 254.73462,46.065922  z "
     clip-path="url(#clipWmfPath1)"
     style="fill:#000000;fill-rule:nonzero;fill-opacity:1;stroke:#000000;stroke-width:0.066667005px;stroke-linecap:round;stroke-linejoin:round;stroke-miterlimit:4;stroke-dasharray:none;stroke-opacity:1;" />
  <path
     id="path52"
     d="  M 242.40123,70.065534   L 241.40122,69.932203   L 240.60122,69.465544   L 240.00122,68.798888   L 239.80122,68.065566   L 239.80122,58.599053   L 240.00122,57.865731   L 240.60122,57.332406   L 241.40122,56.932413   L 242.40123,56.799082   L 263.13467,56.799082   L 264.60134,55.865763   L 267.26802,53.865796   L 269.86803,51.932494   L 270.73471,51.332503   L 271.00137,51.199172   L 271.20138,51.199172   L 270.5347,52.465818   L 268.66803,54.999111   L 266.66802,57.599069   L 265.73468,58.999046   L 265.73468,68.398894   L 265.53468,69.132216   L 264.93468,69.66554   L 264.13467,69.932203   L 263.13467,70.065534   L 242.40123,70.065534  z "
     clip-path="url(#clipWmfPath1)"
     style="fill:#ffffff;fill-rule:nonzero;fill-opacity:1;stroke:none;" />
  <path
     id="path54"
     d="  M 263.13467,70.598859   L 263.13467,69.532209   L 242.4679,69.532209   L 241.60122,69.465544   L 240.93455,69.06555   L 240.46789,68.532225   L 240.33455,67.998901   L 240.33455,58.665718   L 240.46789,58.132393   L 240.86789,57.7324   L 241.53456,57.399072   L 242.4679,57.332406   L 263.13467,57.332406   L 263.40134,57.199075   L 264.86801,56.265757   L 264.93468,56.265757   L 267.60136,54.265789   L 267.60136,54.265789   L 270.1347,52.332487   L 271.00137,51.799162   L 271.13471,51.732497   L 271.20138,51.732497   L 271.66804,51.465835   L 270.73471,50.93251   L 270.1347,52.199156   L 268.26803,54.665783   L 266.26802,57.265741   L 266.26802,57.332406   L 265.33468,58.732384   L 265.20134,58.999046   L 265.20134,68.332228   L 265.06801,68.865553   L 264.66801,69.198881   L 264.00134,69.465544   L 263.068,69.532209   L 242.4679,69.532209   L 241.46789,69.398878   L 241.33456,70.465527   L 242.33456,70.598859   L 242.40123,70.598859   L 263.13467,70.598859   L 263.20133,70.598859   L 264.20134,70.465527   L 264.26801,70.398862   L 265.06801,70.132199   L 265.26801,70.065534   L 265.86801,69.532209   L 266.00135,69.265547   L 266.20135,68.532225   L 266.26802,68.398894   L 266.26802,59.132377   L 267.06802,57.865731   L 269.06803,55.332439   L 269.06803,55.332439   L 270.93471,52.799146   L 271.00137,52.732481   L 271.66804,51.465835   L 271.66804,50.93251   L 271.20138,50.665847   L 271.00137,50.665847   L 270.80137,50.732513   L 270.5347,50.865844   L 270.46804,50.93251   L 269.60137,51.5325   L 269.5347,51.5325   L 266.93469,53.465802   L 266.93469,53.465802   L 264.33467,55.46577   L 263.00133,56.265757   L 242.40123,56.265757   L 242.33456,56.265757   L 241.33456,56.399088   L 241.20122,56.465754   L 240.40122,56.865747   L 240.26788,56.932413   L 239.66788,57.465738   L 239.53455,57.7324   L 239.33455,58.465721   L 239.26788,58.599053   L 239.26788,68.065566   L 239.33455,68.198897   L 239.53455,68.932219   L 239.60121,69.132216   L 240.20122,69.798871   L 240.33455,69.932203   L 241.13456,70.398862   L 241.33456,70.465527   L 242.33456,70.598859   L 242.40123,70.598859   L 263.13467,70.598859  z "
     clip-path="url(#clipWmfPath1)"
     style="fill:#000000;fill-rule:nonzero;fill-opacity:1;stroke:#000000;stroke-width:0.066667005px;stroke-linecap:round;stroke-linejoin:round;stroke-miterlimit:4;stroke-dasharray:none;stroke-opacity:1;" />
  <path
     id="path56"
     d="  M 225.60114,50.999175   L 225.60114,53.79913   L 225.46781,54.532452   L 225.06781,55.065776   L 224.40114,55.332439   L 223.6678,55.46577   L 200.53435,55.46577   L 199.80101,55.332439   L 199.20101,54.932445   L 198.73434,54.265789   L 198.60101,53.532468   L 198.60101,44.065954   L 198.73434,43.332633   L 199.20101,42.799308   L 199.80101,42.399314   L 200.53435,42.265983   L 223.6678,42.265983   L 224.40114,42.46598   L 225.06781,42.932639   L 225.46781,43.599295   L 225.60114,44.399282   L 225.60114,46.932574   L 237.66787,48.932542   L 225.60114,50.999175  z "
     clip-path="url(#clipWmfPath1)"
     style="fill:#ffffff;fill-rule:nonzero;fill-opacity:1;stroke:none;" />
  <path
     id="path58"
     d="  M 237.73454,49.399201   L 238.20121,48.865877   L 237.6012,48.465883   L 225.06781,50.599182   L 225.06781,53.732465   L 225.00114,54.332455   L 224.73447,54.665783   L 224.2678,54.86578   L 223.60113,54.932445   L 200.60102,54.932445   L 200.00101,54.86578   L 199.53435,54.532452   L 199.20101,54.065792   L 199.13434,53.465802   L 199.13434,44.13262   L 199.20101,43.532629   L 199.53435,43.199302   L 200.00101,42.865974   L 200.60102,42.799308   L 223.60113,42.799308   L 224.20114,42.932639   L 224.66781,43.265967   L 225.00114,43.799292   L 225.06781,44.465948   L 225.06781,47.332568   L 234.60119,48.932542   L 225.06781,50.599182   L 225.06781,53.79913   L 225.60114,54.332455   L 226.13448,53.79913   L 226.13448,51.399169   L 237.73454,49.399201   L 237.73454,48.465883   L 226.13448,46.532581   L 226.13448,44.332617   L 225.93448,43.399298   L 225.46781,42.599311   L 224.60114,41.999321   L 223.73447,41.732659   L 200.46768,41.732659   L 199.60101,41.932655   L 198.86767,42.399314   L 198.26767,43.132636   L 198.06767,43.999289   L 198.06767,53.599133   L 198.26767,54.465786   L 198.86767,55.332439   L 199.60101,55.799098   L 200.46768,55.999095   L 223.73447,55.999095   L 224.53447,55.799098   L 225.40114,55.46577   L 225.93448,54.732448   L 226.13448,53.865796   L 226.13448,51.399169   L 237.73454,49.399201  z "
     clip-path="url(#clipWmfPath1)"
     style="fill:#000000;fill-rule:nonzero;fill-opacity:1;stroke:#000000;stroke-width:0.066667005px;stroke-linecap:round;stroke-linejoin:round;stroke-miterlimit:4;stroke-dasharray:none;stroke-opacity:1;" />
  <path
     id="path60"
     d="  M 250.7346,51.332503   L 250.7346,46.665912   L 260.93466,46.665912   L 260.93466,51.332503   L 250.7346,51.332503  z "
     clip-path="url(#clipWmfPath1)"
     style="fill:#ffffff;fill-rule:nonzero;fill-opacity:1;stroke:none;" />
  <path
     id="path62"
     d="  M 250.7346,51.332503   L 250.7346,46.665912   L 260.93466,46.665912   L 260.93466,51.332503   L 250.7346,51.332503  z "
     clip-path="url(#clipWmfPath1)"
     style="fill:none;stroke:#000000;stroke-width:0.066667005px;stroke-linecap:round;stroke-linejoin:round;stroke-miterlimit:4;stroke-dasharray:none;stroke-opacity:1;" />
  <path
     id="path64"
     d="  M 252.20128,50.33252   L 252.20128,47.59923   L 254.93463,47.59923   L 254.93463,50.33252   L 252.20128,50.33252  z "
     clip-path="url(#clipWmfPath1)"
     style="fill:#000000;fill-rule:nonzero;fill-opacity:1;stroke:none;" />
  <path
     id="path66"
     d="  M 252.20128,50.33252   L 252.20128,47.59923   L 254.93463,47.59923   L 254.93463,50.33252   L 252.20128,50.33252  z "
     clip-path="url(#clipWmfPath1)"
     style="fill:none;stroke:#000000;stroke-width:0.066667005px;stroke-linecap:round;stroke-linejoin:round;stroke-miterlimit:4;stroke-dasharray:none;stroke-opacity:1;" />
  <path
     id="path68"
     d="  M 256.73464,50.33252   L 256.73464,47.59923   L 259.46798,47.59923   L 259.46798,50.33252   L 256.73464,50.33252  z "
     clip-path="url(#clipWmfPath1)"
     style="fill:#000000;fill-rule:nonzero;fill-opacity:1;stroke:none;" />
  <path
     id="path70"
     d="  M 256.73464,50.33252   L 256.73464,47.59923   L 259.46798,47.59923   L 259.46798,50.33252   L 256.73464,50.33252  z "
     clip-path="url(#clipWmfPath1)"
     style="fill:none;stroke:#000000;stroke-width:0.066667005px;stroke-linecap:round;stroke-linejoin:round;stroke-miterlimit:4;stroke-dasharray:none;stroke-opacity:1;" />
  <path
     id="path72"
     d="  M 237.86787,51.332503   L 237.86787,46.665912   L 248.06792,46.665912   L 248.06792,51.332503   L 237.86787,51.332503  z "
     clip-path="url(#clipWmfPath1)"
     style="fill:#ffffff;fill-rule:nonzero;fill-opacity:1;stroke:none;" />
  <path
     id="path74"
     d="  M 237.86787,51.332503   L 237.86787,46.665912   L 248.06792,46.665912   L 248.06792,51.332503   L 237.86787,51.332503  z "
     clip-path="url(#clipWmfPath1)"
     style="fill:none;stroke:#000000;stroke-width:0.066667005px;stroke-linecap:round;stroke-linejoin:round;stroke-miterlimit:4;stroke-dasharray:none;stroke-opacity:1;" />
  <path
     id="path76"
     d="  M 239.33455,50.33252   L 239.33455,47.59923   L 242.06789,47.59923   L 242.06789,50.33252   L 239.33455,50.33252  z "
     clip-path="url(#clipWmfPath1)"
     style="fill:#000000;fill-rule:nonzero;fill-opacity:1;stroke:none;" />
  <path
     id="path78"
     d="  M 239.33455,50.33252   L 239.33455,47.59923   L 242.06789,47.59923   L 242.06789,50.33252   L 239.33455,50.33252  z "
     clip-path="url(#clipWmfPath1)"
     style="fill:none;stroke:#000000;stroke-width:0.066667005px;stroke-linecap:round;stroke-linejoin:round;stroke-miterlimit:4;stroke-dasharray:none;stroke-opacity:1;" />
  <path
     id="path80"
     d="  M 243.8679,50.33252   L 243.8679,47.59923   L 246.60125,47.59923   L 246.60125,50.33252   L 243.8679,50.33252  z "
     clip-path="url(#clipWmfPath1)"
     style="fill:#000000;fill-rule:nonzero;fill-opacity:1;stroke:none;" />
  <path
     id="path82"
     d="  M 243.8679,50.33252   L 243.8679,47.59923   L 246.60125,47.59923   L 246.60125,50.33252   L 243.8679,50.33252  z "
     clip-path="url(#clipWmfPath1)"
     style="fill:none;stroke:#000000;stroke-width:0.066667005px;stroke-linecap:round;stroke-linejoin:round;stroke-miterlimit:4;stroke-dasharray:none;stroke-opacity:1;" />
  <path
     id="path84"
     d="  M 263.40134,51.332503   L 263.40134,46.665912   L 277.93474,46.665912   L 277.93474,51.332503   L 263.40134,51.332503  z "
     clip-path="url(#clipWmfPath1)"
     style="fill:#ffffff;fill-rule:nonzero;fill-opacity:1;stroke:none;" />
  <path
     id="path86"
     d="  M 263.40134,51.332503   L 263.40134,46.665912   L 277.93474,46.665912   L 277.93474,51.332503   L 263.40134,51.332503  z "
     clip-path="url(#clipWmfPath1)"
     style="fill:none;stroke:#000000;stroke-width:0.066667005px;stroke-linecap:round;stroke-linejoin:round;stroke-miterlimit:4;stroke-dasharray:none;stroke-opacity:1;" />
  <path
     id="path88"
     d="  M 274.13472,50.465851   L 274.13472,47.732562   L 276.93474,47.732562   L 276.93474,50.465851   L 274.13472,50.465851  z "
     clip-path="url(#clipWmfPath1)"
     style="fill:#000000;fill-rule:nonzero;fill-opacity:1;stroke:none;" />
  <path
     id="path90"
     d="  M 274.13472,50.465851   L 274.13472,47.732562   L 276.93474,47.732562   L 276.93474,50.465851   L 274.13472,50.465851  z "
     clip-path="url(#clipWmfPath1)"
     style="fill:none;stroke:#000000;stroke-width:0.066667005px;stroke-linecap:round;stroke-linejoin:round;stroke-miterlimit:4;stroke-dasharray:none;stroke-opacity:1;" />
  <path
     id="path92"
     d="  M 264.86801,50.465851   L 264.86801,47.732562   L 267.60136,47.732562   L 267.60136,50.465851   L 264.86801,50.465851  z "
     clip-path="url(#clipWmfPath1)"
     style="fill:#ffffff;fill-rule:nonzero;fill-opacity:1;stroke:none;" />
  <path
     id="path94"
     d="  M 264.86801,50.465851   L 264.86801,47.732562   L 267.60136,47.732562   L 267.60136,50.465851   L 264.86801,50.465851  z "
     clip-path="url(#clipWmfPath1)"
     style="fill:none;stroke:#000000;stroke-width:0.066667005px;stroke-linecap:round;stroke-linejoin:round;stroke-miterlimit:4;stroke-dasharray:none;stroke-opacity:1;" />
  <path
     id="path96"
     d="  M 269.46803,50.465851   L 269.46803,47.732562   L 272.20138,47.732562   L 272.20138,50.465851   L 269.46803,50.465851  z "
     clip-path="url(#clipWmfPath1)"
     style="fill:#000000;fill-rule:nonzero;fill-opacity:1;stroke:none;" />
  <path
     id="path98"
     d="  M 269.46803,50.465851   L 269.46803,47.732562   L 272.20138,47.732562   L 272.20138,50.465851   L 269.46803,50.465851  z "
     clip-path="url(#clipWmfPath1)"
     style="fill:none;stroke:#000000;stroke-width:0.066667005px;stroke-linecap:round;stroke-linejoin:round;stroke-miterlimit:4;stroke-dasharray:none;stroke-opacity:1;" />
  <g
     id="g100"
     clip-path="url(#clipWmfPath1)" />
  <g
     id="g112"
     clip-path="url(#clipWmfPath1)">
    <text
       id="text110"
       y="0.000000"
       x="0.000000"
       transform="matrix(1.000000,-0.000000,0.000000,1.000000,244.201238,67.798904)"
       style="font-size:10.687500px;font-style:normal;font-variant:normal;font-weight:400;font-stretch:Condensed;line-height:125.000000%;letter-spacing:0px;word-spacing:0px;fill:#000000;fill-opacity:1;stroke:none;font-family:Helvetica-Narrow;text-align:start;text-anchor:start;"
       xml:space="preserve"><tspan
         id="tspan108"
         y="0.000000"
         x="0.000000"><tspan
           id="tspan102"
           style="fill:#000000;font-size:10.687500px;font-style:normal;font-variant:normal;font-weight:400;font-stretch:Condensed;font-family:Helvetica-Narrow;"
           dy="0.000000"
           dx="0.000000">J</tspan><tspan
           id="tspan104"
           style="fill:#000000;font-size:10.687500px;font-style:normal;font-variant:normal;font-weight:400;font-stretch:Condensed;font-family:Helvetica-Narrow;"
           dy="0.000000"
           dx="0.256278">P</tspan><tspan
           id="tspan106"
           style="fill:#000000;font-size:10.687500px;font-style:normal;font-variant:normal;font-weight:400;font-stretch:Condensed;font-family:Helvetica-Narrow;"
           dy="0.000000"
           dx="-0.102513">2</tspan></tspan></text>
  </g>
  <g
     id="g114"
     clip-path="url(#clipWmfPath1)" />
  <g
     id="g126"
     clip-path="url(#clipWmfPath1)">
    <text
       id="text124"
       y="0.000000"
       x="0.000000"
       transform="matrix(1.000000,-0.000000,0.000000,1.000000,246.934585,30.132846)"
       style="font-size:10.687500px;font-style:normal;font-variant:normal;font-weight:400;font-stretch:Condensed;line-height:125.000000%;letter-spacing:0px;word-spacing:0px;fill:#000000;fill-opacity:1;stroke:none;font-family:Helvetica-Narrow;text-align:start;text-anchor:start;"
       xml:space="preserve"><tspan
         id="tspan122"
         y="0.000000"
         x="0.000000"><tspan
           id="tspan116"
           style="fill:#000000;font-size:10.687500px;font-style:normal;font-variant:normal;font-weight:400;font-stretch:Condensed;font-family:Helvetica-Narrow;"
           dy="0.000000"
           dx="0.000000">J</tspan><tspan
           id="tspan118"
           style="fill:#000000;font-size:10.687500px;font-style:normal;font-variant:normal;font-weight:400;font-stretch:Condensed;font-family:Helvetica-Narrow;"
           dy="0.000000"
           dx="0.028334">P</tspan><tspan
           id="tspan120"
           style="fill:#000000;font-size:10.687500px;font-style:normal;font-variant:normal;font-weight:400;font-stretch:Condensed;font-family:Helvetica-Narrow;"
           dy="0.000000"
           dx="-0.102513">1</tspan></tspan></text>
  </g>
  <g
     id="g128"
     clip-path="url(#clipWmfPath1)" />
  <g
     id="g140"
     clip-path="url(#clipWmfPath1)">
    <text
       id="text138"
       y="0.000000"
       x="0.000000"
       transform="matrix(1.000000,-0.000000,0.000000,1.000000,202.801028,52.665815)"
       style="font-size:10.687500px;font-style:normal;font-variant:normal;font-weight:400;font-stretch:Condensed;line-height:125.000000%;letter-spacing:0px;word-spacing:0px;fill:#000000;fill-opacity:1;stroke:none;font-family:Helvetica-Narrow;text-align:start;text-anchor:start;"
       xml:space="preserve"><tspan
         id="tspan136"
         y="0.000000"
         x="0.000000"><tspan
           id="tspan130"
           style="fill:#000000;font-size:10.687500px;font-style:normal;font-variant:normal;font-weight:400;font-stretch:Condensed;font-family:Helvetica-Narrow;"
           dy="0.000000"
           dx="0.000000">J</tspan><tspan
           id="tspan132"
           style="fill:#000000;font-size:10.687500px;font-style:normal;font-variant:normal;font-weight:400;font-stretch:Condensed;font-family:Helvetica-Narrow;"
           dy="0.000000"
           dx="0.028334">P</tspan><tspan
           id="tspan134"
           style="fill:#000000;font-size:10.687500px;font-style:normal;font-variant:normal;font-weight:400;font-stretch:Condensed;font-family:Helvetica-Narrow;"
           dy="0.000000"
           dx="-0.102513">3</tspan></tspan></text>
  </g>
  <g
     id="g142"
     clip-path="url(#clipWmfPath1)" />
  <g
     id="g174"
     clip-path="url(#clipWmfPath1)">
    <text
       id="text156"
       y="0.000000"
       x="0.000000"
       transform="matrix(1.000000,-0.000000,0.000000,1.000000,116.200589,115.331469)"
       style="font-size:10.687500px;font-style:normal;font-variant:normal;font-weight:400;font-stretch:Condensed;line-height:125.000000%;letter-spacing:0px;word-spacing:0px;fill:#000000;fill-opacity:1;stroke:none;font-family:Helvetica-Narrow;text-align:start;text-anchor:start;"
       xml:space="preserve"><tspan
         id="tspan154"
         y="0.000000"
         x="0.000000"><tspan
           id="tspan144"
           style="fill:#000000;font-size:10.687500px;font-style:normal;font-variant:normal;font-weight:400;font-stretch:Condensed;font-family:Helvetica-Narrow;"
           dy="0.000000"
           dx="0.000000">C</tspan><tspan
           id="tspan146"
           style="fill:#000000;font-size:10.687500px;font-style:normal;font-variant:normal;font-weight:400;font-stretch:Condensed;font-family:Helvetica-Narrow;"
           dy="0.000000"
           dx="-0.050115">A</tspan><tspan
           id="tspan148"
           style="fill:#000000;font-size:10.687500px;font-style:normal;font-variant:normal;font-weight:400;font-stretch:Condensed;font-family:Helvetica-Narrow;"
           dy="0.000000"
           dx="-0.102513">C</tspan><tspan
           id="tspan150"
           style="fill:#000000;font-size:10.687500px;font-style:normal;font-variant:normal;font-weight:400;font-stretch:Condensed;font-family:Helvetica-Narrow;"
           dy="0.000000"
           dx="-0.050115">H</tspan><tspan
           id="tspan152"
           style="fill:#000000;font-size:10.687500px;font-style:normal;font-variant:normal;font-weight:400;font-stretch:Condensed;font-family:Helvetica-Narrow;"
           dy="0.000000"
           dx="-0.050115">E</tspan></tspan></text>
    <text
       id="text172"
       y="0.000000"
       x="41.000208"
       transform="matrix(1.000000,-0.000000,0.000000,1.000000,116.200589,115.331469)"
       style="font-size:10.687500px;font-style:normal;font-variant:normal;font-weight:400;font-stretch:Condensed;line-height:125.000000%;letter-spacing:0px;word-spacing:0px;fill:#000000;fill-opacity:1;stroke:none;font-family:Helvetica-Narrow;text-align:start;text-anchor:start;"
       xml:space="preserve"><tspan
         id="tspan170"
         y="0.000000"
         x="41.000208"><tspan
           id="tspan158"
           style="fill:#000000;font-size:10.687500px;font-style:normal;font-variant:normal;font-weight:400;font-stretch:Condensed;font-family:Helvetica-Narrow;"
           dy="0.000000"
           dx="0.000000">M</tspan><tspan
           id="tspan160"
           style="fill:#000000;font-size:10.687500px;font-style:normal;font-variant:normal;font-weight:400;font-stretch:Condensed;font-family:Helvetica-Narrow;"
           dy="0.000000"
           dx="-0.022672">O</tspan><tspan
           id="tspan162"
           style="fill:#000000;font-size:10.687500px;font-style:normal;font-variant:normal;font-weight:400;font-stretch:Condensed;font-family:Helvetica-Narrow;"
           dy="0.000000"
           dx="-0.075071">D</tspan><tspan
           id="tspan164"
           style="fill:#000000;font-size:10.687500px;font-style:normal;font-variant:normal;font-weight:400;font-stretch:Condensed;font-family:Helvetica-Narrow;"
           dy="0.000000"
           dx="-0.050115">U</tspan><tspan
           id="tspan166"
           style="fill:#000000;font-size:10.687500px;font-style:normal;font-variant:normal;font-weight:400;font-stretch:Condensed;font-family:Helvetica-Narrow;"
           dy="0.000000"
           dx="-0.050115">L</tspan><tspan
           id="tspan168"
           style="fill:#000000;font-size:10.687500px;font-style:normal;font-variant:normal;font-weight:400;font-stretch:Condensed;font-family:Helvetica-Narrow;"
           dy="0.000000"
           dx="0.003378">E</tspan></tspan></text>
  </g>
</svg>
