<?xml version="1.0" encoding="UTF-8" standalone="no"?>
<svg
   xmlns:dc="http://purl.org/dc/elements/1.1/"
   xmlns:cc="http://creativecommons.org/ns#"
   xmlns:rdf="http://www.w3.org/1999/02/22-rdf-syntax-ns#"
   xmlns:svg="http://www.w3.org/2000/svg"
   xmlns="http://www.w3.org/2000/svg"
   id="svg278"
   height="62.169998mm"
   width="86.44mm"
   version="1.0">
  <metadata
     id="metadata282">
    <rdf:RDF>
      <cc:Work
         rdf:about="">
        <dc:format>image/svg+xml</dc:format>
        <dc:type
           rdf:resource="http://purl.org/dc/dcmitype/StillImage" />
      </cc:Work>
    </rdf:RDF>
  </metadata>
  <defs
     id="defs6">
    <clipPath
       id="clipWmfPath1"
       clipPathUnits="userSpaceOnUse">
      <path
         id="path2"
         d="M 0,0 L 326.48655,0 L 326.48655,234.75745 L 0,234.75745 z" />
    </clipPath>
    <pattern
       y="0"
       x="0"
       height="6"
       width="6"
       patternUnits="userSpaceOnUse"
       id="WMFhbasepattern" />
  </defs>
  <path
     id="path8"
     d="  M 272.01278,39.333887   L 274.68307,39.68985   L 276.81929,40.935719   L 278.42146,42.715533   L 278.95552,44.673329   L 278.95552,69.946686   L 278.42146,71.904481   L 276.81929,73.506314   L 274.68307,74.39622   L 272.01278,74.752183   L 216.64893,74.752183   L 212.73251,77.243923   L 205.61176,82.583364   L 198.66902,87.744825   L 195.10865,89.70262   L 195.46468,88.634732   L 196.88883,86.320974   L 201.87336,79.557681   L 207.21393,72.616407   L 209.70619,68.878797   L 209.70619,43.783422   L 210.24025,41.825626   L 211.84242,40.579757   L 213.97864,39.68985   L 216.64893,39.333887   L 272.01278,39.333887  z "
     clip-path="url(#clipWmfPath1)"
     style="fill:#ffffff;fill-rule:nonzero;fill-opacity:1;stroke:none;" />
  <path
     id="path10"
     d="  M 216.64893,37.910036   L 216.64893,40.757738   L 271.83476,40.757738   L 274.14901,40.935719   L 275.9292,42.003608   L 277.17533,43.427459   L 277.53137,44.85131   L 277.53137,69.768704   L 277.17533,71.192555   L 276.10722,72.438425   L 274.32703,73.150351   L 271.83476,73.328332   L 216.64893,73.328332   L 215.93685,73.684295   L 212.02044,76.176034   L 211.84242,76.176034   L 204.72166,81.515476   L 204.72166,81.515476   L 197.95695,86.676936   L 194.39657,88.45675   L 195.82072,90.94849   L 196.35478,90.058583   L 196.71082,89.168676   L 197.95695,87.032899   L 202.94147,80.447588   L 208.28204,73.506314   L 208.28204,73.328332   L 210.7743,69.590723   L 211.13034,68.878797   L 211.13034,43.961403   L 211.48638,42.537552   L 212.55449,41.825626   L 214.33468,40.935719   L 216.82694,40.757738   L 271.83476,40.757738   L 274.50505,41.113701   L 274.86109,38.265999   L 272.1908,37.910036   L 272.01278,37.910036   L 216.64893,37.910036   L 216.47091,37.910036   L 213.80062,38.265999   L 213.44459,38.44398   L 211.30836,39.333887   L 210.95232,39.511868   L 209.35015,40.757738   L 208.99412,41.469664   L 208.46006,43.427459   L 208.28204,43.783422   L 208.28204,68.522835   L 206.14581,71.904481   L 200.80525,78.667774   L 200.80525,78.667774   L 195.82072,85.431067   L 195.82072,85.609048   L 194.39657,87.922806   L 194.21855,88.278769   L 193.86251,89.346657   L 194.21855,90.770508   L 195.82072,90.94849   L 199.3811,88.990694   L 199.55912,88.812713   L 206.50185,83.651253   L 206.50185,83.651253   L 213.44459,78.311811   L 217.00496,76.176034   L 272.01278,76.176034   L 272.1908,76.176034   L 274.86109,75.820072   L 275.21712,75.64209   L 277.35335,74.752183   L 277.70939,74.39622   L 279.31156,72.794388   L 279.66759,72.260444   L 280.20165,70.302649   L 280.37967,69.946686   L 280.37967,44.673329   L 280.20165,44.317366   L 279.66759,42.359571   L 279.48957,41.825626   L 277.88741,40.045812   L 277.53137,39.68985   L 275.39514,38.44398   L 274.86109,38.265999   L 272.1908,37.910036   L 272.01278,37.910036   L 216.64893,37.910036  z "
     clip-path="url(#clipWmfPath1)"
     style="fill:#000000;fill-rule:nonzero;fill-opacity:1;stroke:#000000;stroke-width:0.17801884px;stroke-linecap:round;stroke-linejoin:round;stroke-miterlimit:4;stroke-dasharray:none;stroke-opacity:1;" />
  <path
     id="path12"
     d="  M 106.45526,130.81632   L 106.45526,138.29154   L 106.09923,140.24933   L 105.03111,141.67319   L 103.25093,142.56309   L 101.29272,142.91906   L 26.880844,142.91906   L 24.922637,142.20713   L 23.320468,140.6053   L 22.074336,138.46952   L 21.718298,136.15576   L 21.718298,110.88241   L 22.074336,109.10259   L 23.320468,108.21268   L 24.922637,107.85672   L 26.880844,107.67874   L 101.29272,107.67874   L 103.25093,108.21268   L 105.03111,109.45855   L 106.09923,111.06039   L 106.45526,113.19616   L 106.45526,119.95946   L 138.67667,125.2989   L 106.45526,130.81632  z "
     clip-path="url(#clipWmfPath1)"
     style="fill:#ffffff;fill-rule:nonzero;fill-opacity:1;stroke:none;" />
  <path
     id="path14"
     d="  M 138.85469,126.54477   L 140.10083,125.12092   L 138.49866,124.05303   L 105.03111,129.74843   L 105.03111,138.11356   L 104.8531,139.71539   L 104.14102,140.6053   L 102.89489,141.31722   L 101.1147,141.4952   L 27.058863,141.4952   L 25.634713,140.96126   L 24.388581,139.71539   L 23.320468,137.93558   L 23.142449,135.97778   L 23.142449,111.06039   L 23.320468,109.81452   L 23.854524,109.45855   L 25.100656,109.28057   L 26.880844,109.10259   L 101.1147,109.10259   L 102.71687,109.45855   L 103.963,110.34846   L 104.8531,111.59433   L 105.03111,113.37414   L 105.03111,121.02734   L 130.48781,125.2989   L 105.03111,129.74843   L 105.03111,138.29154   L 106.45526,139.71539   L 107.87942,138.29154   L 107.87942,131.88421   L 138.85469,126.54477   L 138.85469,124.05303   L 107.87942,118.89157   L 107.87942,113.01818   L 107.34536,110.52644   L 106.09923,108.56865   L 103.78498,106.96681   L 101.47074,106.25489   L 26.880844,106.25489   L 24.744618,106.43287   L 22.786411,106.96681   L 20.828204,108.39067   L 20.294147,110.70442   L 20.294147,136.33374   L 20.828204,139.00346   L 22.252355,141.4952   L 24.210562,143.453   L 26.702826,144.34291   L 101.47074,144.34291   L 103.60696,143.80896   L 105.92121,142.74107   L 107.34536,140.78328   L 107.87942,138.46952   L 107.87942,131.88421   L 138.85469,126.54477  z "
     clip-path="url(#clipWmfPath1)"
     style="fill:#000000;fill-rule:nonzero;fill-opacity:1;stroke:#000000;stroke-width:0.17801884px;stroke-linecap:round;stroke-linejoin:round;stroke-miterlimit:4;stroke-dasharray:none;stroke-opacity:1;" />
  <path
     id="path16"
     d="  M 214.5127,143.63098   L 202.05138,143.63098   L 202.05138,90.414545   L 214.5127,90.414545   L 214.5127,143.63098  z "
     clip-path="url(#clipWmfPath1)"
     style="fill:#ffffff;fill-rule:nonzero;fill-opacity:1;stroke:none;" />
  <path
     id="path18"
     d="  M 214.5127,143.63098   L 202.05138,143.63098   L 202.05138,90.414545   L 214.5127,90.414545   L 214.5127,143.63098  z "
     clip-path="url(#clipWmfPath1)"
     style="fill:none;stroke:#000000;stroke-width:0.17801884px;stroke-linecap:round;stroke-linejoin:round;stroke-miterlimit:4;stroke-dasharray:none;stroke-opacity:1;" />
  <path
     id="path20"
     d="  M 212.02044,139.53741   L 204.72166,139.53741   L 204.72166,132.24017   L 212.02044,132.24017   L 212.02044,139.53741  z "
     clip-path="url(#clipWmfPath1)"
     style="fill:#ffffff;fill-rule:nonzero;fill-opacity:1;stroke:none;" />
  <path
     id="path22"
     d="  M 212.02044,139.53741   L 204.72166,139.53741   L 204.72166,132.24017   L 212.02044,132.24017   L 212.02044,139.53741  z "
     clip-path="url(#clipWmfPath1)"
     style="fill:none;stroke:#000000;stroke-width:0.17801884px;stroke-linecap:round;stroke-linejoin:round;stroke-miterlimit:4;stroke-dasharray:none;stroke-opacity:1;" />
  <path
     id="path24"
     d="  M 212.02044,127.25669   L 204.72166,127.25669   L 204.72166,119.95946   L 212.02044,119.95946   L 212.02044,127.25669  z "
     clip-path="url(#clipWmfPath1)"
     style="fill:#000000;fill-rule:nonzero;fill-opacity:1;stroke:none;" />
  <path
     id="path26"
     d="  M 212.02044,127.25669   L 204.72166,127.25669   L 204.72166,119.95946   L 212.02044,119.95946   L 212.02044,127.25669  z "
     clip-path="url(#clipWmfPath1)"
     style="fill:none;stroke:#000000;stroke-width:0.17801884px;stroke-linecap:round;stroke-linejoin:round;stroke-miterlimit:4;stroke-dasharray:none;stroke-opacity:1;" />
  <path
     id="path28"
     d="  M 212.02044,114.798   L 204.72166,114.798   L 204.72166,107.50076   L 212.02044,107.50076   L 212.02044,114.798  z "
     clip-path="url(#clipWmfPath1)"
     style="fill:#000000;fill-rule:nonzero;fill-opacity:1;stroke:none;" />
  <path
     id="path30"
     d="  M 212.02044,114.798   L 204.72166,114.798   L 204.72166,107.50076   L 212.02044,107.50076   L 212.02044,114.798  z "
     clip-path="url(#clipWmfPath1)"
     style="fill:none;stroke:#000000;stroke-width:0.17801884px;stroke-linecap:round;stroke-linejoin:round;stroke-miterlimit:4;stroke-dasharray:none;stroke-opacity:1;" />
  <path
     id="path32"
     d="  M 212.02044,102.69526   L 204.72166,102.69526   L 204.72166,95.398024   L 212.02044,95.398024   L 212.02044,102.69526  z "
     clip-path="url(#clipWmfPath1)"
     style="fill:#000000;fill-rule:nonzero;fill-opacity:1;stroke:none;" />
  <path
     id="path34"
     d="  M 212.02044,102.69526   L 204.72166,102.69526   L 204.72166,95.398024   L 212.02044,95.398024   L 212.02044,102.69526  z "
     clip-path="url(#clipWmfPath1)"
     style="fill:none;stroke:#000000;stroke-width:0.17801884px;stroke-linecap:round;stroke-linejoin:round;stroke-miterlimit:4;stroke-dasharray:none;stroke-opacity:1;" />
  <path
     id="path36"
     d="  M 152.20611,143.63098   L 139.74479,143.63098   L 139.74479,90.414545   L 152.20611,90.414545   L 152.20611,143.63098  z "
     clip-path="url(#clipWmfPath1)"
     style="fill:#ffffff;fill-rule:nonzero;fill-opacity:1;stroke:none;" />
  <path
     id="path38"
     d="  M 152.20611,143.63098   L 139.74479,143.63098   L 139.74479,90.414545   L 152.20611,90.414545   L 152.20611,143.63098  z "
     clip-path="url(#clipWmfPath1)"
     style="fill:none;stroke:#000000;stroke-width:0.17801884px;stroke-linecap:round;stroke-linejoin:round;stroke-miterlimit:4;stroke-dasharray:none;stroke-opacity:1;" />
  <path
     id="path40"
     d="  M 149.71384,139.53741   L 142.41507,139.53741   L 142.41507,132.24017   L 149.71384,132.24017   L 149.71384,139.53741  z "
     clip-path="url(#clipWmfPath1)"
     style="fill:#ffffff;fill-rule:nonzero;fill-opacity:1;stroke:none;" />
  <path
     id="path42"
     d="  M 149.71384,139.53741   L 142.41507,139.53741   L 142.41507,132.24017   L 149.71384,132.24017   L 149.71384,139.53741  z "
     clip-path="url(#clipWmfPath1)"
     style="fill:none;stroke:#000000;stroke-width:0.17801884px;stroke-linecap:round;stroke-linejoin:round;stroke-miterlimit:4;stroke-dasharray:none;stroke-opacity:1;" />
  <path
     id="path44"
     d="  M 149.71384,127.25669   L 142.41507,127.25669   L 142.41507,119.95946   L 149.71384,119.95946   L 149.71384,127.25669  z "
     clip-path="url(#clipWmfPath1)"
     style="fill:#000000;fill-rule:nonzero;fill-opacity:1;stroke:none;" />
  <path
     id="path46"
     d="  M 149.71384,127.25669   L 142.41507,127.25669   L 142.41507,119.95946   L 149.71384,119.95946   L 149.71384,127.25669  z "
     clip-path="url(#clipWmfPath1)"
     style="fill:none;stroke:#000000;stroke-width:0.17801884px;stroke-linecap:round;stroke-linejoin:round;stroke-miterlimit:4;stroke-dasharray:none;stroke-opacity:1;" />
  <path
     id="path48"
     d="  M 149.71384,114.798   L 142.41507,114.798   L 142.41507,107.50076   L 149.71384,107.50076   L 149.71384,114.798  z "
     clip-path="url(#clipWmfPath1)"
     style="fill:#000000;fill-rule:nonzero;fill-opacity:1;stroke:none;" />
  <path
     id="path50"
     d="  M 149.71384,114.798   L 142.41507,114.798   L 142.41507,107.50076   L 149.71384,107.50076   L 149.71384,114.798  z "
     clip-path="url(#clipWmfPath1)"
     style="fill:none;stroke:#000000;stroke-width:0.17801884px;stroke-linecap:round;stroke-linejoin:round;stroke-miterlimit:4;stroke-dasharray:none;stroke-opacity:1;" />
  <path
     id="path52"
     d="  M 149.71384,102.69526   L 142.41507,102.69526   L 142.41507,95.398024   L 149.71384,95.398024   L 149.71384,102.69526  z "
     clip-path="url(#clipWmfPath1)"
     style="fill:#000000;fill-rule:nonzero;fill-opacity:1;stroke:none;" />
  <path
     id="path54"
     d="  M 149.71384,102.69526   L 142.41507,102.69526   L 142.41507,95.398024   L 149.71384,95.398024   L 149.71384,102.69526  z "
     clip-path="url(#clipWmfPath1)"
     style="fill:none;stroke:#000000;stroke-width:0.17801884px;stroke-linecap:round;stroke-linejoin:round;stroke-miterlimit:4;stroke-dasharray:none;stroke-opacity:1;" />
  <path
     id="path56"
     d="  M 201.87336,166.59058   L 189.41204,166.59058   L 189.41204,90.414545   L 201.87336,90.414545   L 201.87336,166.59058  z "
     clip-path="url(#clipWmfPath1)"
     style="fill:#ffffff;fill-rule:nonzero;fill-opacity:1;stroke:none;" />
  <path
     id="path58"
     d="  M 201.87336,166.59058   L 189.41204,166.59058   L 189.41204,90.414545   L 201.87336,90.414545   L 201.87336,166.59058  z "
     clip-path="url(#clipWmfPath1)"
     style="fill:none;stroke:#000000;stroke-width:0.17801884px;stroke-linecap:round;stroke-linejoin:round;stroke-miterlimit:4;stroke-dasharray:none;stroke-opacity:1;" />
  <path
     id="path60"
     d="  M 199.55912,137.93558   L 192.26034,137.93558   L 192.26034,130.63834   L 199.55912,130.63834   L 199.55912,137.93558  z "
     clip-path="url(#clipWmfPath1)"
     style="fill:#000000;fill-rule:nonzero;fill-opacity:1;stroke:none;" />
  <path
     id="path62"
     d="  M 199.55912,137.93558   L 192.26034,137.93558   L 192.26034,130.63834   L 199.55912,130.63834   L 199.55912,137.93558  z "
     clip-path="url(#clipWmfPath1)"
     style="fill:none;stroke:#000000;stroke-width:0.17801884px;stroke-linecap:round;stroke-linejoin:round;stroke-miterlimit:4;stroke-dasharray:none;stroke-opacity:1;" />
  <path
     id="path64"
     d="  M 199.55912,125.65486   L 192.26034,125.65486   L 192.26034,118.35762   L 199.55912,118.35762   L 199.55912,125.65486  z "
     clip-path="url(#clipWmfPath1)"
     style="fill:#000000;fill-rule:nonzero;fill-opacity:1;stroke:none;" />
  <path
     id="path66"
     d="  M 199.55912,125.65486   L 192.26034,125.65486   L 192.26034,118.35762   L 199.55912,118.35762   L 199.55912,125.65486  z "
     clip-path="url(#clipWmfPath1)"
     style="fill:none;stroke:#000000;stroke-width:0.17801884px;stroke-linecap:round;stroke-linejoin:round;stroke-miterlimit:4;stroke-dasharray:none;stroke-opacity:1;" />
  <path
     id="path68"
     d="  M 199.55912,162.67499   L 192.26034,162.67499   L 192.26034,155.37775   L 199.55912,155.37775   L 199.55912,162.67499  z "
     clip-path="url(#clipWmfPath1)"
     style="fill:#ffffff;fill-rule:nonzero;fill-opacity:1;stroke:none;" />
  <path
     id="path70"
     d="  M 199.55912,162.67499   L 192.26034,162.67499   L 192.26034,155.37775   L 199.55912,155.37775   L 199.55912,162.67499  z "
     clip-path="url(#clipWmfPath1)"
     style="fill:none;stroke:#000000;stroke-width:0.17801884px;stroke-linecap:round;stroke-linejoin:round;stroke-miterlimit:4;stroke-dasharray:none;stroke-opacity:1;" />
  <path
     id="path72"
     d="  M 199.55912,150.39427   L 192.26034,150.39427   L 192.26034,143.09704   L 199.55912,143.09704   L 199.55912,150.39427  z "
     clip-path="url(#clipWmfPath1)"
     style="fill:#000000;fill-rule:nonzero;fill-opacity:1;stroke:none;" />
  <path
     id="path74"
     d="  M 199.55912,150.39427   L 192.26034,150.39427   L 192.26034,143.09704   L 199.55912,143.09704   L 199.55912,150.39427  z "
     clip-path="url(#clipWmfPath1)"
     style="fill:none;stroke:#000000;stroke-width:0.17801884px;stroke-linecap:round;stroke-linejoin:round;stroke-miterlimit:4;stroke-dasharray:none;stroke-opacity:1;" />
  <path
     id="path76"
     d="  M 199.73714,113.37414   L 192.43836,113.37414   L 192.43836,106.07691   L 199.73714,106.07691   L 199.73714,113.37414  z "
     clip-path="url(#clipWmfPath1)"
     style="fill:#000000;fill-rule:nonzero;fill-opacity:1;stroke:none;" />
  <path
     id="path78"
     d="  M 199.73714,113.37414   L 192.43836,113.37414   L 192.43836,106.07691   L 199.73714,106.07691   L 199.73714,113.37414  z "
     clip-path="url(#clipWmfPath1)"
     style="fill:none;stroke:#000000;stroke-width:0.17801884px;stroke-linecap:round;stroke-linejoin:round;stroke-miterlimit:4;stroke-dasharray:none;stroke-opacity:1;" />
  <path
     id="path80"
     d="  M 199.73714,100.73747   L 192.43836,100.73747   L 192.43836,93.440229   L 199.73714,93.440229   L 199.73714,100.73747  z "
     clip-path="url(#clipWmfPath1)"
     style="fill:#000000;fill-rule:nonzero;fill-opacity:1;stroke:none;" />
  <path
     id="path82"
     d="  M 199.73714,100.73747   L 192.43836,100.73747   L 192.43836,93.440229   L 199.73714,93.440229   L 199.73714,100.73747  z "
     clip-path="url(#clipWmfPath1)"
     style="fill:none;stroke:#000000;stroke-width:0.17801884px;stroke-linecap:round;stroke-linejoin:round;stroke-miterlimit:4;stroke-dasharray:none;stroke-opacity:1;" />
  <path
     id="path84"
     d="  M 189.41204,166.59058   L 176.95072,166.59058   L 176.95072,90.414545   L 189.41204,90.414545   L 189.41204,166.59058  z "
     clip-path="url(#clipWmfPath1)"
     style="fill:#ffffff;fill-rule:nonzero;fill-opacity:1;stroke:none;" />
  <path
     id="path86"
     d="  M 189.41204,166.59058   L 176.95072,166.59058   L 176.95072,90.414545   L 189.41204,90.414545   L 189.41204,166.59058  z "
     clip-path="url(#clipWmfPath1)"
     style="fill:none;stroke:#000000;stroke-width:0.17801884px;stroke-linecap:round;stroke-linejoin:round;stroke-miterlimit:4;stroke-dasharray:none;stroke-opacity:1;" />
  <path
     id="path88"
     d="  M 187.0978,137.93558   L 179.79903,137.93558   L 179.79903,130.63834   L 187.0978,130.63834   L 187.0978,137.93558  z "
     clip-path="url(#clipWmfPath1)"
     style="fill:#000000;fill-rule:nonzero;fill-opacity:1;stroke:none;" />
  <path
     id="path90"
     d="  M 187.0978,137.93558   L 179.79903,137.93558   L 179.79903,130.63834   L 187.0978,130.63834   L 187.0978,137.93558  z "
     clip-path="url(#clipWmfPath1)"
     style="fill:none;stroke:#000000;stroke-width:0.17801884px;stroke-linecap:round;stroke-linejoin:round;stroke-miterlimit:4;stroke-dasharray:none;stroke-opacity:1;" />
  <path
     id="path92"
     d="  M 187.0978,125.65486   L 179.79903,125.65486   L 179.79903,118.35762   L 187.0978,118.35762   L 187.0978,125.65486  z "
     clip-path="url(#clipWmfPath1)"
     style="fill:#000000;fill-rule:nonzero;fill-opacity:1;stroke:none;" />
  <path
     id="path94"
     d="  M 187.0978,125.65486   L 179.79903,125.65486   L 179.79903,118.35762   L 187.0978,118.35762   L 187.0978,125.65486  z "
     clip-path="url(#clipWmfPath1)"
     style="fill:none;stroke:#000000;stroke-width:0.17801884px;stroke-linecap:round;stroke-linejoin:round;stroke-miterlimit:4;stroke-dasharray:none;stroke-opacity:1;" />
  <path
     id="path96"
     d="  M 187.0978,162.67499   L 179.79903,162.67499   L 179.79903,155.37775   L 187.0978,155.37775   L 187.0978,162.67499  z "
     clip-path="url(#clipWmfPath1)"
     style="fill:#ffffff;fill-rule:nonzero;fill-opacity:1;stroke:none;" />
  <path
     id="path98"
     d="  M 187.0978,162.67499   L 179.79903,162.67499   L 179.79903,155.37775   L 187.0978,155.37775   L 187.0978,162.67499  z "
     clip-path="url(#clipWmfPath1)"
     style="fill:none;stroke:#000000;stroke-width:0.17801884px;stroke-linecap:round;stroke-linejoin:round;stroke-miterlimit:4;stroke-dasharray:none;stroke-opacity:1;" />
  <path
     id="path100"
     d="  M 187.0978,150.39427   L 179.79903,150.39427   L 179.79903,143.09704   L 187.0978,143.09704   L 187.0978,150.39427  z "
     clip-path="url(#clipWmfPath1)"
     style="fill:#000000;fill-rule:nonzero;fill-opacity:1;stroke:none;" />
  <path
     id="path102"
     d="  M 187.0978,150.39427   L 179.79903,150.39427   L 179.79903,143.09704   L 187.0978,143.09704   L 187.0978,150.39427  z "
     clip-path="url(#clipWmfPath1)"
     style="fill:none;stroke:#000000;stroke-width:0.17801884px;stroke-linecap:round;stroke-linejoin:round;stroke-miterlimit:4;stroke-dasharray:none;stroke-opacity:1;" />
  <path
     id="path104"
     d="  M 187.27582,113.37414   L 179.97704,113.37414   L 179.97704,106.07691   L 187.27582,106.07691   L 187.27582,113.37414  z "
     clip-path="url(#clipWmfPath1)"
     style="fill:#000000;fill-rule:nonzero;fill-opacity:1;stroke:none;" />
  <path
     id="path106"
     d="  M 187.27582,113.37414   L 179.97704,113.37414   L 179.97704,106.07691   L 187.27582,106.07691   L 187.27582,113.37414  z "
     clip-path="url(#clipWmfPath1)"
     style="fill:none;stroke:#000000;stroke-width:0.17801884px;stroke-linecap:round;stroke-linejoin:round;stroke-miterlimit:4;stroke-dasharray:none;stroke-opacity:1;" />
  <path
     id="path108"
     d="  M 187.27582,100.73747   L 179.97704,100.73747   L 179.97704,93.440229   L 187.27582,93.440229   L 187.27582,100.73747  z "
     clip-path="url(#clipWmfPath1)"
     style="fill:#000000;fill-rule:nonzero;fill-opacity:1;stroke:none;" />
  <path
     id="path110"
     d="  M 187.27582,100.73747   L 179.97704,100.73747   L 179.97704,93.440229   L 187.27582,93.440229   L 187.27582,100.73747  z "
     clip-path="url(#clipWmfPath1)"
     style="fill:none;stroke:#000000;stroke-width:0.17801884px;stroke-linecap:round;stroke-linejoin:round;stroke-miterlimit:4;stroke-dasharray:none;stroke-opacity:1;" />
  <path
     id="path112"
     d="  M 164.66742,166.59058   L 152.20611,166.59058   L 152.20611,90.414545   L 164.66742,90.414545   L 164.66742,166.59058  z "
     clip-path="url(#clipWmfPath1)"
     style="fill:#ffffff;fill-rule:nonzero;fill-opacity:1;stroke:none;" />
  <path
     id="path114"
     d="  M 164.66742,166.59058   L 152.20611,166.59058   L 152.20611,90.414545   L 164.66742,90.414545   L 164.66742,166.59058  z "
     clip-path="url(#clipWmfPath1)"
     style="fill:none;stroke:#000000;stroke-width:0.17801884px;stroke-linecap:round;stroke-linejoin:round;stroke-miterlimit:4;stroke-dasharray:none;stroke-opacity:1;" />
  <path
     id="path116"
     d="  M 162.35318,137.93558   L 155.05441,137.93558   L 155.05441,130.63834   L 162.35318,130.63834   L 162.35318,137.93558  z "
     clip-path="url(#clipWmfPath1)"
     style="fill:#000000;fill-rule:nonzero;fill-opacity:1;stroke:none;" />
  <path
     id="path118"
     d="  M 162.35318,137.93558   L 155.05441,137.93558   L 155.05441,130.63834   L 162.35318,130.63834   L 162.35318,137.93558  z "
     clip-path="url(#clipWmfPath1)"
     style="fill:none;stroke:#000000;stroke-width:0.17801884px;stroke-linecap:round;stroke-linejoin:round;stroke-miterlimit:4;stroke-dasharray:none;stroke-opacity:1;" />
  <path
     id="path120"
     d="  M 162.35318,125.65486   L 155.05441,125.65486   L 155.05441,118.35762   L 162.35318,118.35762   L 162.35318,125.65486  z "
     clip-path="url(#clipWmfPath1)"
     style="fill:#000000;fill-rule:nonzero;fill-opacity:1;stroke:none;" />
  <path
     id="path122"
     d="  M 162.35318,125.65486   L 155.05441,125.65486   L 155.05441,118.35762   L 162.35318,118.35762   L 162.35318,125.65486  z "
     clip-path="url(#clipWmfPath1)"
     style="fill:none;stroke:#000000;stroke-width:0.17801884px;stroke-linecap:round;stroke-linejoin:round;stroke-miterlimit:4;stroke-dasharray:none;stroke-opacity:1;" />
  <path
     id="path124"
     d="  M 162.35318,162.67499   L 155.05441,162.67499   L 155.05441,155.37775   L 162.35318,155.37775   L 162.35318,162.67499  z "
     clip-path="url(#clipWmfPath1)"
     style="fill:#ffffff;fill-rule:nonzero;fill-opacity:1;stroke:none;" />
  <path
     id="path126"
     d="  M 162.35318,162.67499   L 155.05441,162.67499   L 155.05441,155.37775   L 162.35318,155.37775   L 162.35318,162.67499  z "
     clip-path="url(#clipWmfPath1)"
     style="fill:none;stroke:#000000;stroke-width:0.17801884px;stroke-linecap:round;stroke-linejoin:round;stroke-miterlimit:4;stroke-dasharray:none;stroke-opacity:1;" />
  <path
     id="path128"
     d="  M 162.35318,150.39427   L 155.05441,150.39427   L 155.05441,143.09704   L 162.35318,143.09704   L 162.35318,150.39427  z "
     clip-path="url(#clipWmfPath1)"
     style="fill:#000000;fill-rule:nonzero;fill-opacity:1;stroke:none;" />
  <path
     id="path130"
     d="  M 162.35318,150.39427   L 155.05441,150.39427   L 155.05441,143.09704   L 162.35318,143.09704   L 162.35318,150.39427  z "
     clip-path="url(#clipWmfPath1)"
     style="fill:none;stroke:#000000;stroke-width:0.17801884px;stroke-linecap:round;stroke-linejoin:round;stroke-miterlimit:4;stroke-dasharray:none;stroke-opacity:1;" />
  <path
     id="path132"
     d="  M 162.5312,113.37414   L 155.23243,113.37414   L 155.23243,106.07691   L 162.5312,106.07691   L 162.5312,113.37414  z "
     clip-path="url(#clipWmfPath1)"
     style="fill:#000000;fill-rule:nonzero;fill-opacity:1;stroke:none;" />
  <path
     id="path134"
     d="  M 162.5312,113.37414   L 155.23243,113.37414   L 155.23243,106.07691   L 162.5312,106.07691   L 162.5312,113.37414  z "
     clip-path="url(#clipWmfPath1)"
     style="fill:none;stroke:#000000;stroke-width:0.17801884px;stroke-linecap:round;stroke-linejoin:round;stroke-miterlimit:4;stroke-dasharray:none;stroke-opacity:1;" />
  <path
     id="path136"
     d="  M 162.5312,100.73747   L 155.23243,100.73747   L 155.23243,93.440229   L 162.5312,93.440229   L 162.5312,100.73747  z "
     clip-path="url(#clipWmfPath1)"
     style="fill:#000000;fill-rule:nonzero;fill-opacity:1;stroke:none;" />
  <path
     id="path138"
     d="  M 162.5312,100.73747   L 155.23243,100.73747   L 155.23243,93.440229   L 162.5312,93.440229   L 162.5312,100.73747  z "
     clip-path="url(#clipWmfPath1)"
     style="fill:none;stroke:#000000;stroke-width:0.17801884px;stroke-linecap:round;stroke-linejoin:round;stroke-miterlimit:4;stroke-dasharray:none;stroke-opacity:1;" />
  <path
     id="path140"
     d="  M 176.95072,166.59058   L 164.48941,166.59058   L 164.48941,90.414545   L 176.95072,90.414545   L 176.95072,166.59058  z "
     clip-path="url(#clipWmfPath1)"
     style="fill:#ffffff;fill-rule:nonzero;fill-opacity:1;stroke:none;" />
  <path
     id="path142"
     d="  M 176.95072,166.59058   L 164.48941,166.59058   L 164.48941,90.414545   L 176.95072,90.414545   L 176.95072,166.59058  z "
     clip-path="url(#clipWmfPath1)"
     style="fill:none;stroke:#000000;stroke-width:0.17801884px;stroke-linecap:round;stroke-linejoin:round;stroke-miterlimit:4;stroke-dasharray:none;stroke-opacity:1;" />
  <path
     id="path144"
     d="  M 174.63648,137.93558   L 167.33771,137.93558   L 167.33771,130.63834   L 174.63648,130.63834   L 174.63648,137.93558  z "
     clip-path="url(#clipWmfPath1)"
     style="fill:#000000;fill-rule:nonzero;fill-opacity:1;stroke:none;" />
  <path
     id="path146"
     d="  M 174.63648,137.93558   L 167.33771,137.93558   L 167.33771,130.63834   L 174.63648,130.63834   L 174.63648,137.93558  z "
     clip-path="url(#clipWmfPath1)"
     style="fill:none;stroke:#000000;stroke-width:0.17801884px;stroke-linecap:round;stroke-linejoin:round;stroke-miterlimit:4;stroke-dasharray:none;stroke-opacity:1;" />
  <path
     id="path148"
     d="  M 174.63648,125.65486   L 167.33771,125.65486   L 167.33771,118.35762   L 174.63648,118.35762   L 174.63648,125.65486  z "
     clip-path="url(#clipWmfPath1)"
     style="fill:#000000;fill-rule:nonzero;fill-opacity:1;stroke:none;" />
  <path
     id="path150"
     d="  M 174.63648,125.65486   L 167.33771,125.65486   L 167.33771,118.35762   L 174.63648,118.35762   L 174.63648,125.65486  z "
     clip-path="url(#clipWmfPath1)"
     style="fill:none;stroke:#000000;stroke-width:0.17801884px;stroke-linecap:round;stroke-linejoin:round;stroke-miterlimit:4;stroke-dasharray:none;stroke-opacity:1;" />
  <path
     id="path152"
     d="  M 174.63648,162.67499   L 167.33771,162.67499   L 167.33771,155.37775   L 174.63648,155.37775   L 174.63648,162.67499  z "
     clip-path="url(#clipWmfPath1)"
     style="fill:#ffffff;fill-rule:nonzero;fill-opacity:1;stroke:none;" />
  <path
     id="path154"
     d="  M 174.63648,162.67499   L 167.33771,162.67499   L 167.33771,155.37775   L 174.63648,155.37775   L 174.63648,162.67499  z "
     clip-path="url(#clipWmfPath1)"
     style="fill:none;stroke:#000000;stroke-width:0.17801884px;stroke-linecap:round;stroke-linejoin:round;stroke-miterlimit:4;stroke-dasharray:none;stroke-opacity:1;" />
  <path
     id="path156"
     d="  M 174.63648,150.39427   L 167.33771,150.39427   L 167.33771,143.09704   L 174.63648,143.09704   L 174.63648,150.39427  z "
     clip-path="url(#clipWmfPath1)"
     style="fill:#000000;fill-rule:nonzero;fill-opacity:1;stroke:none;" />
  <path
     id="path158"
     d="  M 174.63648,150.39427   L 167.33771,150.39427   L 167.33771,143.09704   L 174.63648,143.09704   L 174.63648,150.39427  z "
     clip-path="url(#clipWmfPath1)"
     style="fill:none;stroke:#000000;stroke-width:0.17801884px;stroke-linecap:round;stroke-linejoin:round;stroke-miterlimit:4;stroke-dasharray:none;stroke-opacity:1;" />
  <path
     id="path160"
     d="  M 174.8145,113.37414   L 167.51573,113.37414   L 167.51573,106.07691   L 174.8145,106.07691   L 174.8145,113.37414  z "
     clip-path="url(#clipWmfPath1)"
     style="fill:#000000;fill-rule:nonzero;fill-opacity:1;stroke:none;" />
  <path
     id="path162"
     d="  M 174.8145,113.37414   L 167.51573,113.37414   L 167.51573,106.07691   L 174.8145,106.07691   L 174.8145,113.37414  z "
     clip-path="url(#clipWmfPath1)"
     style="fill:none;stroke:#000000;stroke-width:0.17801884px;stroke-linecap:round;stroke-linejoin:round;stroke-miterlimit:4;stroke-dasharray:none;stroke-opacity:1;" />
  <path
     id="path164"
     d="  M 174.8145,100.73747   L 167.51573,100.73747   L 167.51573,93.440229   L 174.8145,93.440229   L 174.8145,100.73747  z "
     clip-path="url(#clipWmfPath1)"
     style="fill:#000000;fill-rule:nonzero;fill-opacity:1;stroke:none;" />
  <path
     id="path166"
     d="  M 174.8145,100.73747   L 167.51573,100.73747   L 167.51573,93.440229   L 174.8145,93.440229   L 174.8145,100.73747  z "
     clip-path="url(#clipWmfPath1)"
     style="fill:none;stroke:#000000;stroke-width:0.17801884px;stroke-linecap:round;stroke-linejoin:round;stroke-miterlimit:4;stroke-dasharray:none;stroke-opacity:1;" />
  <path
     id="path168"
     d="  M 82.422722,38.621961   L 79.752439,38.977924   L 77.616213,40.223794   L 76.014044,42.003608   L 75.479987,43.961403   L 75.479987,69.23476   L 76.014044,71.192555   L 77.616213,72.794388   L 79.752439,73.684295   L 82.422722,74.040258   L 137.78658,74.040258   L 141.70299,76.531997   L 148.82375,81.871439   L 155.76648,87.032899   L 159.32686,88.990694   L 157.54667,85.609048   L 152.56214,78.845755   L 147.22158,71.904481   L 144.72931,68.166872   L 144.72931,43.071496   L 144.19526,41.113701   L 142.59309,39.867831   L 137.78658,38.621961   L 82.422722,38.621961  z "
     clip-path="url(#clipWmfPath1)"
     style="fill:#ffffff;fill-rule:nonzero;fill-opacity:1;stroke:none;" />
  <path
     id="path170"
     d="  M 137.78658,40.045812   L 137.78658,37.19811   L 82.422722,37.19811   L 82.244703,37.19811   L 79.57442,37.554073   L 79.040364,37.732054   L 76.904138,38.977924   L 76.5481,39.333887   L 74.945931,41.113701   L 74.767912,41.647645   L 74.233855,43.60544   L 74.055836,43.961403   L 74.055836,69.23476   L 74.233855,69.590723   L 74.767912,71.548518   L 75.123949,72.082462   L 76.726119,73.684295   L 77.082157,74.040258   L 79.218383,74.930165   L 79.57442,75.108146   L 82.244703,75.464109   L 82.422722,75.464109   L 137.43054,75.464109   L 140.99092,77.599885   L 147.93365,82.939327   L 147.93365,82.939327   L 154.87639,88.100787   L 155.05441,88.278769   L 158.61478,90.236564   L 160.57299,88.278769   L 158.7928,84.897122   L 158.61478,84.719141   L 153.63026,77.955848   L 153.63026,77.955848   L 148.28969,71.192555   L 146.15347,67.810909   L 146.15347,43.071496   L 145.97545,42.715533   L 145.44139,40.757738   L 145.08535,40.045812   L 143.48318,38.799943   L 142.94913,38.621961   L 138.14262,37.376092   L 137.78658,37.19811   L 82.422722,37.19811   L 82.244703,37.19811   L 79.57442,37.554073   L 79.930458,40.401775   L 82.600741,40.045812   L 137.60856,40.045812   L 142.05903,41.113701   L 142.94913,41.825626   L 143.30516,43.249477   L 143.30516,68.166872   L 143.6612,68.878797   L 146.15347,72.616407   L 146.15347,72.794388   L 151.49403,79.735662   L 156.47856,86.320974   L 158.08073,89.70262   L 158.61478,90.236564   L 160.03893,87.744825   L 156.47856,85.965011   L 149.71384,80.80355   L 149.71384,80.80355   L 142.59309,75.464109   L 142.41507,75.464109   L 138.49866,72.972369   L 137.78658,72.616407   L 82.600741,72.616407   L 80.108477,72.438425   L 78.328289,71.7265   L 77.260176,70.48063   L 76.904138,69.056779   L 76.904138,44.139384   L 77.260176,42.715533   L 78.506307,41.291682   L 80.286496,40.223794   L 82.600741,40.045812   L 137.78658,40.045812  z "
     clip-path="url(#clipWmfPath1)"
     style="fill:#000000;fill-rule:nonzero;fill-opacity:1;stroke:#000000;stroke-width:0.17801884px;stroke-linecap:round;stroke-linejoin:round;stroke-miterlimit:4;stroke-dasharray:none;stroke-opacity:1;" />
  <path
     id="path172"
     d="  M 93.815927,218.38316   L 91.145645,218.0272   L 89.009419,216.78133   L 87.407249,215.00152   L 86.873193,213.04372   L 86.873193,187.77037   L 87.407249,185.81257   L 89.009419,184.38872   L 91.145645,183.32083   L 93.815927,182.96487   L 149.17979,182.96487   L 153.0962,180.47313   L 160.21695,175.13369   L 167.15969,169.97223   L 169.47393,168.37039   L 170.18601,168.01443   L 170.72007,168.01443   L 168.93988,171.39608   L 163.95535,178.15937   L 158.61478,185.10064   L 156.12252,188.83825   L 156.12252,213.93363   L 155.58846,215.89142   L 153.98629,217.31528   L 151.85007,218.0272   L 149.17979,218.38316   L 93.815927,218.38316  z "
     clip-path="url(#clipWmfPath1)"
     style="fill:#ffffff;fill-rule:nonzero;fill-opacity:1;stroke:none;" />
  <path
     id="path174"
     d="  M 149.17979,219.80702   L 149.17979,216.95931   L 93.993946,216.95931   L 91.679701,216.78133   L 89.899513,215.71344   L 88.653381,214.28959   L 88.297343,212.86574   L 88.297343,187.94835   L 88.653381,186.5245   L 89.721494,185.45661   L 91.501683,184.5667   L 93.993946,184.38872   L 149.17979,184.38872   L 149.89186,184.03276   L 153.80828,181.54102   L 153.98629,181.54102   L 161.10705,176.20157   L 161.10705,176.20157   L 167.87176,171.04011   L 170.18601,169.61626   L 170.54205,169.43828   L 170.72007,169.43828   L 171.9662,168.72636   L 169.47393,167.30251   L 167.87176,170.68415   L 162.88724,177.26946   L 157.54667,184.21074   L 157.54667,184.38872   L 155.05441,188.12633   L 154.69837,188.83825   L 154.69837,213.75565   L 154.34233,215.1795   L 153.27422,216.06941   L 151.49403,216.78133   L 149.00177,216.95931   L 93.993946,216.95931   L 91.323664,216.60335   L 90.967626,219.45105   L 93.637909,219.80702   L 93.815927,219.80702   L 149.17979,219.80702   L 149.3578,219.80702   L 152.02809,219.45105   L 152.20611,219.27307   L 154.34233,218.56115   L 154.87639,218.38316   L 156.47856,216.95931   L 156.8346,216.24739   L 157.36865,214.28959   L 157.54667,213.93363   L 157.54667,189.19422   L 159.6829,185.81257   L 165.02346,179.04928   L 165.02346,179.04928   L 170.00799,172.28598   L 170.18601,172.108   L 171.9662,168.72636   L 171.9662,167.30251   L 170.72007,166.59058   L 170.18601,166.59058   L 169.65195,166.76856   L 168.93988,167.12452   L 168.76186,167.30251   L 166.44761,168.90434   L 166.26959,168.90434   L 159.32686,174.0658   L 159.32686,174.0658   L 152.38412,179.40524   L 148.82375,181.54102   L 93.815927,181.54102   L 93.637909,181.54102   L 90.967626,181.89698   L 90.611588,182.07496   L 88.475362,183.14285   L 88.119325,183.32083   L 86.517155,184.74468   L 86.161117,185.45661   L 85.627061,187.4144   L 85.449042,187.77037   L 85.449042,213.04372   L 85.627061,213.39969   L 86.161117,215.35748   L 86.339136,215.89142   L 87.941306,217.67124   L 88.297343,218.0272   L 90.433569,219.27307   L 90.967626,219.45105   L 93.637909,219.80702   L 93.815927,219.80702   L 149.17979,219.80702  z "
     clip-path="url(#clipWmfPath1)"
     style="fill:#000000;fill-rule:nonzero;fill-opacity:1;stroke:#000000;stroke-width:0.17801884px;stroke-linecap:round;stroke-linejoin:round;stroke-miterlimit:4;stroke-dasharray:none;stroke-opacity:1;" />
  <path
     id="path176"
     d="  M 258.83939,218.38316   L 261.50967,218.0272   L 263.6459,216.78133   L 265.24807,215.00152   L 265.78212,213.04372   L 265.78212,187.77037   L 265.24807,185.81257   L 263.6459,184.38872   L 261.50967,183.32083   L 258.83939,182.96487   L 203.47553,182.96487   L 199.55912,180.47313   L 192.43836,175.13369   L 185.49563,169.97223   L 181.93525,168.01443   L 183.71544,171.39608   L 188.69997,178.15937   L 194.04053,185.10064   L 196.5328,188.83825   L 196.5328,213.93363   L 197.06685,215.89142   L 198.66902,217.31528   L 200.80525,218.0272   L 203.47553,218.38316   L 258.83939,218.38316  z "
     clip-path="url(#clipWmfPath1)"
     style="fill:#ffffff;fill-rule:nonzero;fill-opacity:1;stroke:none;" />
  <path
     id="path178"
     d="  M 203.47553,216.95931   L 203.47553,219.80702   L 258.83939,219.80702   L 259.01741,219.80702   L 261.68769,219.45105   L 262.22175,219.27307   L 264.35797,218.0272   L 264.71401,217.67124   L 266.31618,215.89142   L 266.4942,215.35748   L 267.02826,213.39969   L 267.20628,213.04372   L 267.20628,187.77037   L 267.02826,187.4144   L 266.4942,185.45661   L 266.13816,184.74468   L 264.53599,183.32083   L 264.17995,183.14285   L 262.04373,182.07496   L 261.68769,181.89698   L 259.01741,181.54102   L 258.83939,181.54102   L 203.83157,181.54102   L 200.27119,179.40524   L 193.32846,174.0658   L 193.32846,174.0658   L 186.38572,168.90434   L 186.2077,168.72636   L 182.64733,166.76856   L 180.68912,168.72636   L 182.46931,172.108   L 182.64733,172.28598   L 187.63185,179.04928   L 187.63185,179.04928   L 192.97242,185.81257   L 195.10865,189.19422   L 195.10865,213.93363   L 195.28666,214.28959   L 195.82072,216.24739   L 196.17676,216.95931   L 197.77893,218.38316   L 198.31299,218.56115   L 200.44921,219.27307   L 200.62723,219.45105   L 203.29751,219.80702   L 203.47553,219.80702   L 258.83939,219.80702   L 259.01741,219.80702   L 261.68769,219.45105   L 261.33165,216.60335   L 258.66137,216.95931   L 203.65355,216.95931   L 201.16129,216.78133   L 199.3811,216.06941   L 198.31299,215.1795   L 197.95695,213.75565   L 197.95695,188.83825   L 197.60091,188.12633   L 195.10865,184.38872   L 195.10865,184.21074   L 189.76808,177.26946   L 184.78355,170.68415   L 183.18138,167.30251   L 182.64733,166.76856   L 181.22318,169.2603   L 184.78355,171.04011   L 191.54827,176.20157   L 191.54827,176.20157   L 198.66902,181.54102   L 198.84704,181.54102   L 202.76346,184.03276   L 203.47553,184.38872   L 258.66137,184.38872   L 261.15363,184.5667   L 262.93382,185.45661   L 264.00194,186.5245   L 264.35797,187.94835   L 264.35797,212.86574   L 264.00194,214.28959   L 262.7558,215.71344   L 260.97562,216.78133   L 258.66137,216.95931   L 203.47553,216.95931  z "
     clip-path="url(#clipWmfPath1)"
     style="fill:#000000;fill-rule:nonzero;fill-opacity:1;stroke:#000000;stroke-width:0.17801884px;stroke-linecap:round;stroke-linejoin:round;stroke-miterlimit:4;stroke-dasharray:none;stroke-opacity:1;" />
  <path
     id="path180"
     d="  M 293.01901,174.0658   L 295.68929,173.70984   L 297.82552,172.46397   L 299.42768,170.68415   L 299.96174,168.72636   L 299.96174,143.453   L 299.42768,141.4952   L 297.82552,140.07135   L 295.68929,139.00346   L 293.01901,138.6475   L 237.65515,138.6475   L 233.73873,136.15576   L 226.61798,130.81632   L 219.67525,125.65486   L 216.11487,123.69707   L 217.89506,127.07871   L 222.87958,133.842   L 228.22015,140.78328   L 230.71241,144.52089   L 230.71241,169.61626   L 231.24647,171.57406   L 232.84864,172.99791   L 234.98487,173.70984   L 237.65515,174.0658   L 293.01901,174.0658  z "
     clip-path="url(#clipWmfPath1)"
     style="fill:#ffffff;fill-rule:nonzero;fill-opacity:1;stroke:none;" />
  <path
     id="path182"
     d="  M 237.65515,172.64195   L 237.65515,175.48965   L 293.01901,175.48965   L 293.19703,175.48965   L 295.86731,175.13369   L 296.40136,174.95571   L 298.53759,173.70984   L 298.89363,173.35387   L 300.4958,171.57406   L 300.67382,171.04011   L 301.20787,169.08232   L 301.38589,168.72636   L 301.38589,143.453   L 301.20787,143.09704   L 300.67382,141.13924   L 300.31778,140.42732   L 298.71561,139.00346   L 298.35957,138.82548   L 296.22335,137.75759   L 295.86731,137.57961   L 293.19703,137.22365   L 293.01901,137.22365   L 238.01119,137.22365   L 234.45081,135.08787   L 227.50807,129.74843   L 227.50807,129.74843   L 220.56534,124.58697   L 220.38732,124.40899   L 216.82694,122.4512   L 214.86874,124.40899   L 216.64893,127.79064   L 216.82694,127.96862   L 221.81147,134.73191   L 221.81147,134.73191   L 227.15204,141.4952   L 229.28826,144.87685   L 229.28826,169.61626   L 229.46628,169.97223   L 230.00034,171.93002   L 230.35638,172.64195   L 231.95855,174.0658   L 232.4926,174.24378   L 234.62883,174.95571   L 234.80685,175.13369   L 237.47713,175.48965   L 237.65515,175.48965   L 293.01901,175.48965   L 293.19703,175.48965   L 295.86731,175.13369   L 295.51127,172.28598   L 292.84099,172.64195   L 237.83317,172.64195   L 235.3409,172.46397   L 233.56071,171.75204   L 232.4926,170.86213   L 232.13656,169.43828   L 232.13656,144.52089   L 231.78053,143.80896   L 229.28826,140.07135   L 229.28826,139.89337   L 223.9477,132.9521   L 218.96317,126.36679   L 217.361,122.98514   L 216.82694,122.4512   L 215.40279,124.94293   L 218.96317,126.72275   L 225.72789,131.88421   L 225.72789,131.88421   L 232.84864,137.22365   L 233.02666,137.22365   L 236.94307,139.71539   L 237.65515,140.07135   L 292.84099,140.07135   L 295.33325,140.24933   L 297.11344,141.13924   L 298.18155,142.20713   L 298.53759,143.63098   L 298.53759,168.54838   L 298.18155,169.97223   L 296.93542,171.39608   L 295.15523,172.46397   L 292.84099,172.64195   L 237.65515,172.64195  z "
     clip-path="url(#clipWmfPath1)"
     style="fill:#000000;fill-rule:nonzero;fill-opacity:1;stroke:#000000;stroke-width:0.17801884px;stroke-linecap:round;stroke-linejoin:round;stroke-miterlimit:4;stroke-dasharray:none;stroke-opacity:1;" />
  <g
     id="g184"
     clip-path="url(#clipWmfPath1)" />
  <g
     id="g196"
     clip-path="url(#clipWmfPath1)">
    <text
       id="text194"
       y="0.000000"
       x="0.000000"
       transform="matrix(1.000000,-0.000000,0.000000,1.000000,241.215525,167.124524)"
       style="font-size:28.500000px;font-style:normal;font-variant:normal;font-weight:400;font-stretch:Condensed;line-height:125.000000%;letter-spacing:0px;word-spacing:0px;fill:#000000;fill-opacity:1;stroke:none;font-family:Helvetica-Narrow;text-align:start;text-anchor:start;"
       xml:space="preserve"><tspan
         id="tspan192"
         y="0.000000"
         x="0.000000"><tspan
           id="tspan186"
           style="fill:#000000;font-size:28.500000px;font-style:normal;font-variant:normal;font-weight:400;font-stretch:Condensed;font-family:Helvetica-Narrow;"
           dy="0.000000"
           dx="0.000000">J</tspan><tspan
           id="tspan188"
           style="fill:#000000;font-size:28.500000px;font-style:normal;font-variant:normal;font-weight:400;font-stretch:Condensed;font-family:Helvetica-Narrow;"
           dy="0.000000"
           dx="0.703582">C</tspan><tspan
           id="tspan190"
           style="fill:#000000;font-size:28.500000px;font-style:normal;font-variant:normal;font-weight:400;font-stretch:Condensed;font-family:Helvetica-Narrow;"
           dy="0.000000"
           dx="0.071277">4</tspan></tspan></text>
  </g>
  <g
     id="g198"
     clip-path="url(#clipWmfPath1)" />
  <g
     id="g210"
     clip-path="url(#clipWmfPath1)">
    <text
       id="text208"
       y="0.000000"
       x="0.000000"
       transform="matrix(1.000000,-0.000000,0.000000,1.000000,220.743359,68.878797)"
       style="font-size:28.500000px;font-style:normal;font-variant:normal;font-weight:400;font-stretch:Condensed;line-height:125.000000%;letter-spacing:0px;word-spacing:0px;fill:#000000;fill-opacity:1;stroke:none;font-family:Helvetica-Narrow;text-align:start;text-anchor:start;"
       xml:space="preserve"><tspan
         id="tspan206"
         y="0.000000"
         x="0.000000"><tspan
           id="tspan200"
           style="fill:#000000;font-size:28.500000px;font-style:normal;font-variant:normal;font-weight:400;font-stretch:Condensed;font-family:Helvetica-Narrow;"
           dy="0.000000"
           dx="0.000000">J</tspan><tspan
           id="tspan202"
           style="fill:#000000;font-size:28.500000px;font-style:normal;font-variant:normal;font-weight:400;font-stretch:Condensed;font-family:Helvetica-Narrow;"
           dy="0.000000"
           dx="0.095731">C</tspan><tspan
           id="tspan204"
           style="fill:#000000;font-size:28.500000px;font-style:normal;font-variant:normal;font-weight:400;font-stretch:Condensed;font-family:Helvetica-Narrow;"
           dy="0.000000"
           dx="0.071277">5</tspan></tspan></text>
  </g>
  <g
     id="g212"
     clip-path="url(#clipWmfPath1)" />
  <g
     id="g224"
     clip-path="url(#clipWmfPath1)">
    <text
       id="text222"
       y="0.000000"
       x="0.000000"
       transform="matrix(1.000000,-0.000000,0.000000,1.000000,208.816096,210.729964)"
       style="font-size:28.500000px;font-style:normal;font-variant:normal;font-weight:400;font-stretch:Condensed;line-height:125.000000%;letter-spacing:0px;word-spacing:0px;fill:#000000;fill-opacity:1;stroke:none;font-family:Helvetica-Narrow;text-align:start;text-anchor:start;"
       xml:space="preserve"><tspan
         id="tspan220"
         y="0.000000"
         x="0.000000"><tspan
           id="tspan214"
           style="fill:#000000;font-size:28.500000px;font-style:normal;font-variant:normal;font-weight:400;font-stretch:Condensed;font-family:Helvetica-Narrow;"
           dy="0.000000"
           dx="0.000000">J</tspan><tspan
           id="tspan216"
           style="fill:#000000;font-size:28.500000px;font-style:normal;font-variant:normal;font-weight:400;font-stretch:Condensed;font-family:Helvetica-Narrow;"
           dy="0.000000"
           dx="0.095731">C</tspan><tspan
           id="tspan218"
           style="fill:#000000;font-size:28.500000px;font-style:normal;font-variant:normal;font-weight:400;font-stretch:Condensed;font-family:Helvetica-Narrow;"
           dy="0.000000"
           dx="0.071277">6</tspan></tspan></text>
  </g>
  <g
     id="g226"
     clip-path="url(#clipWmfPath1)" />
  <g
     id="g238"
     clip-path="url(#clipWmfPath1)">
    <text
       id="text236"
       y="0.000000"
       x="0.000000"
       transform="matrix(1.000000,-0.000000,0.000000,1.000000,97.910361,210.729964)"
       style="font-size:28.500000px;font-style:normal;font-variant:normal;font-weight:400;font-stretch:Condensed;line-height:125.000000%;letter-spacing:0px;word-spacing:0px;fill:#000000;fill-opacity:1;stroke:none;font-family:Helvetica-Narrow;text-align:start;text-anchor:start;"
       xml:space="preserve"><tspan
         id="tspan234"
         y="0.000000"
         x="0.000000"><tspan
           id="tspan228"
           style="fill:#000000;font-size:28.500000px;font-style:normal;font-variant:normal;font-weight:400;font-stretch:Condensed;font-family:Helvetica-Narrow;"
           dy="0.000000"
           dx="0.000000">J</tspan><tspan
           id="tspan230"
           style="fill:#000000;font-size:28.500000px;font-style:normal;font-variant:normal;font-weight:400;font-stretch:Condensed;font-family:Helvetica-Narrow;"
           dy="0.000000"
           dx="0.095731">C</tspan><tspan
           id="tspan232"
           style="fill:#000000;font-size:28.500000px;font-style:normal;font-variant:normal;font-weight:400;font-stretch:Condensed;font-family:Helvetica-Narrow;"
           dy="0.000000"
           dx="0.071277">7</tspan></tspan></text>
  </g>
  <g
     id="g240"
     clip-path="url(#clipWmfPath1)" />
  <g
     id="g252"
     clip-path="url(#clipWmfPath1)">
    <text
       id="text250"
       y="0.000000"
       x="0.000000"
       transform="matrix(1.000000,-0.000000,0.000000,1.000000,85.983099,67.632928)"
       style="font-size:28.500000px;font-style:normal;font-variant:normal;font-weight:400;font-stretch:Condensed;line-height:125.000000%;letter-spacing:0px;word-spacing:0px;fill:#000000;fill-opacity:1;stroke:none;font-family:Helvetica-Narrow;text-align:start;text-anchor:start;"
       xml:space="preserve"><tspan
         id="tspan248"
         y="0.000000"
         x="0.000000"><tspan
           id="tspan242"
           style="fill:#000000;font-size:28.500000px;font-style:normal;font-variant:normal;font-weight:400;font-stretch:Condensed;font-family:Helvetica-Narrow;"
           dy="0.000000"
           dx="0.000000">J</tspan><tspan
           id="tspan244"
           style="fill:#000000;font-size:28.500000px;font-style:normal;font-variant:normal;font-weight:400;font-stretch:Condensed;font-family:Helvetica-Narrow;"
           dy="0.000000"
           dx="0.095731">C</tspan><tspan
           id="tspan246"
           style="fill:#000000;font-size:28.500000px;font-style:normal;font-variant:normal;font-weight:400;font-stretch:Condensed;font-family:Helvetica-Narrow;"
           dy="0.000000"
           dx="0.071277">8</tspan></tspan></text>
  </g>
  <g
     id="g254"
     clip-path="url(#clipWmfPath1)" />
  <g
     id="g268"
     clip-path="url(#clipWmfPath1)">
    <text
       id="text266"
       y="0.000000"
       x="0.000000"
       transform="matrix(1.000000,-0.000000,0.000000,1.000000,30.797259,135.977781)"
       style="font-size:28.500000px;font-style:normal;font-variant:normal;font-weight:400;font-stretch:Condensed;line-height:125.000000%;letter-spacing:0px;word-spacing:0px;fill:#000000;fill-opacity:1;stroke:none;font-family:Helvetica-Narrow;text-align:start;text-anchor:start;"
       xml:space="preserve"><tspan
         id="tspan264"
         y="0.000000"
         x="0.000000"><tspan
           id="tspan256"
           style="fill:#000000;font-size:28.500000px;font-style:normal;font-variant:normal;font-weight:400;font-stretch:Condensed;font-family:Helvetica-Narrow;"
           dy="0.000000"
           dx="0.000000">J</tspan><tspan
           id="tspan258"
           style="fill:#000000;font-size:28.500000px;font-style:normal;font-variant:normal;font-weight:400;font-stretch:Condensed;font-family:Helvetica-Narrow;"
           dy="0.000000"
           dx="0.095731">C</tspan><tspan
           id="tspan260"
           style="fill:#000000;font-size:28.500000px;font-style:normal;font-variant:normal;font-weight:400;font-stretch:Condensed;font-family:Helvetica-Narrow;"
           dy="0.000000"
           dx="0.071277">1</tspan><tspan
           id="tspan262"
           style="fill:#000000;font-size:28.500000px;font-style:normal;font-variant:normal;font-weight:400;font-stretch:Condensed;font-family:Helvetica-Narrow;"
           dy="0.000000"
           dx="0.030863">0</tspan></tspan></text>
  </g>
  <path
     id="path270"
     d="  M 179.26497,169.2603   L 179.26497,151.64014   L 207.74798,151.64014   L 207.74798,169.2603   L 179.26497,169.2603  z "
     clip-path="url(#clipWmfPath1)"
     style="fill:#ff0000;fill-rule:evenodd;fill-opacity:1;stroke:none;" />
  <path
     id="path272"
     d="  M 179.26497,169.2603   L 179.26497,151.64014   L 207.74798,151.64014   L 207.74798,169.2603   L 179.26497,169.2603  z "
     clip-path="url(#clipWmfPath1)"
     style="fill:none;stroke:#000000;stroke-width:0.17801884px;stroke-linecap:round;stroke-linejoin:round;stroke-miterlimit:4;stroke-dasharray:none;stroke-opacity:1;" />
  <path
     id="path274"
     d="  M 148.46771,169.2603   L 148.46771,151.64014   L 176.95072,151.64014   L 176.95072,169.2603   L 148.46771,169.2603  z "
     clip-path="url(#clipWmfPath1)"
     style="fill:#ff0000;fill-rule:evenodd;fill-opacity:1;stroke:none;" />
  <path
     id="path276"
     d="  M 148.46771,169.2603   L 148.46771,151.64014   L 176.95072,151.64014   L 176.95072,169.2603   L 148.46771,169.2603  z "
     clip-path="url(#clipWmfPath1)"
     style="fill:none;stroke:#000000;stroke-width:0.17801884px;stroke-linecap:round;stroke-linejoin:round;stroke-miterlimit:4;stroke-dasharray:none;stroke-opacity:1;" />
</svg>
