<svg xmlns:dc="http://purl.org/dc/elements/1.1/" xmlns:cc="http://creativecommons.org/ns#" xmlns:rdf="http://www.w3.org/1999/02/22-rdf-syntax-ns#" xmlns:svg="http://www.w3.org/2000/svg" xmlns="http://www.w3.org/2000/svg" id="svg552" height="63.790002mm" width="165.13mm" version="1.0">
  <metadata id="metadata556">
    <rdf:RDF>
      <cc:Work rdf:about="">
        <dc:format>image/svg+xml</dc:format>
        <dc:type rdf:resource="http://purl.org/dc/dcmitype/StillImage"/>
      </cc:Work>
    </rdf:RDF>
  </metadata>
  <defs id="defs6">
    <clipPath id="clipWmfPath1" clipPathUnits="userSpaceOnUse">
      <path id="path2" d="M 0,0 L 624.00892,0 L 624.00892,240.9916 L 0,240.9916 z"/>
    </clipPath>
    <pattern y="0" x="0" height="6" width="6" patternUnits="userSpaceOnUse" id="WMFhbasepattern"/>
  </defs>
  <path id="path8" d="  M 575.80823,202.59294   L 541.60774,202.59294   L 541.74108,220.19233   L 388.87223,220.19233   L 388.87223,202.65961   L 380.13877,202.65961   L 380.13877,220.19233   L 289.40414,220.19233   L 289.40414,201.65964   L 14.0002,201.65964   L 14.0002,15.999443   L 575.80823,15.999443   L 575.80823,202.59294  z " clip-path="url(#clipWmfPath1)" style="fill:#e5e5e5;fill-rule:nonzero;fill-opacity:1;stroke:none;"/>
  <path id="path10" d="  M 576.34157,15.999443   L 575.27489,15.999443   L 575.27489,202.05963   L 541.0744,202.05963   L 541.20774,219.65901   L 389.40557,219.65901   L 389.40557,202.12629   L 379.60543,202.12629   L 379.60543,219.65901   L 289.93748,219.65901   L 289.93748,201.12633   L 14.533541,201.12633   L 14.533541,16.532757   L 575.27489,16.532757   L 575.27489,202.05963   L 541.60774,202.05963   L 541.60774,203.12626   L 576.34157,203.12626   L 576.34157,15.466128   L 13.466859,15.466128   L 13.466859,202.19296   L 288.8708,202.19296   L 288.8708,220.72564   L 380.67211,220.72564   L 380.67211,203.19292   L 388.33889,203.19292   L 388.33889,220.72564   L 542.27442,220.72564   L 542.14109,203.12626   L 576.34157,203.12626   L 576.34157,15.999443  z " clip-path="url(#clipWmfPath1)" style="fill:#000000;fill-rule:nonzero;fill-opacity:1;stroke:#000000;stroke-width:0.066667616px;stroke-linecap:round;stroke-linejoin:round;stroke-miterlimit:4;stroke-dasharray:none;stroke-opacity:1;"/>
  <path id="path12" d="  M 376.40538,219.59235   L 376.40538,207.59277   L 376.33871,206.5928   L 376.13871,205.6595   L 375.67204,204.99286   L 374.80536,204.7262   L 374.00535,205.05952   L 373.60534,205.72617   L 373.40534,207.32611   L 373.40534,219.59235   L 376.40538,219.59235  z " clip-path="url(#clipWmfPath1)" style="fill:#bfbfbf;fill-rule:nonzero;fill-opacity:1;stroke:none;"/>
  <path id="path14" d="  M 376.40538,219.59235   L 376.40538,207.59277   L 376.33871,206.5928   L 376.13871,205.6595   L 375.67204,204.99286   L 374.80536,204.7262   L 374.00535,205.05952   L 373.60534,205.72617   L 373.40534,207.32611   L 373.40534,219.59235   L 376.40538,219.59235  z " clip-path="url(#clipWmfPath1)" style="fill:none;stroke:#000000;stroke-width:0.066667616px;stroke-linecap:round;stroke-linejoin:round;stroke-miterlimit:4;stroke-dasharray:none;stroke-opacity:1;"/>
  <path id="path16" d="  M 371.60531,219.59235   L 371.60531,207.59277   L 371.53865,206.5928   L 371.33864,205.6595   L 370.87197,204.99286   L 370.00529,204.7262   L 369.20528,205.05952   L 368.73861,205.72617   L 368.5386,207.32611   L 368.5386,219.59235   L 371.60531,219.59235  z " clip-path="url(#clipWmfPath1)" style="fill:#bfbfbf;fill-rule:nonzero;fill-opacity:1;stroke:none;"/>
  <path id="path18" d="  M 371.60531,219.59235   L 371.60531,207.59277   L 371.53865,206.5928   L 371.33864,205.6595   L 370.87197,204.99286   L 370.00529,204.7262   L 369.20528,205.05952   L 368.73861,205.72617   L 368.5386,207.32611   L 368.5386,219.59235   L 371.60531,219.59235  z " clip-path="url(#clipWmfPath1)" style="fill:none;stroke:#000000;stroke-width:0.066667616px;stroke-linecap:round;stroke-linejoin:round;stroke-miterlimit:4;stroke-dasharray:none;stroke-opacity:1;"/>
  <path id="path20" d="  M 366.67191,219.59235   L 366.67191,207.59277   L 366.60524,206.5928   L 366.40524,205.6595   L 365.93857,204.99286   L 365.07189,204.7262   L 364.27188,205.05952   L 363.87187,205.72617   L 363.67187,207.32611   L 363.67187,219.59235   L 366.67191,219.59235  z " clip-path="url(#clipWmfPath1)" style="fill:#bfbfbf;fill-rule:nonzero;fill-opacity:1;stroke:none;"/>
  <path id="path22" d="  M 366.67191,219.59235   L 366.67191,207.59277   L 366.60524,206.5928   L 366.40524,205.6595   L 365.93857,204.99286   L 365.07189,204.7262   L 364.27188,205.05952   L 363.87187,205.72617   L 363.67187,207.32611   L 363.67187,219.59235   L 366.67191,219.59235  z " clip-path="url(#clipWmfPath1)" style="fill:none;stroke:#000000;stroke-width:0.066667616px;stroke-linecap:round;stroke-linejoin:round;stroke-miterlimit:4;stroke-dasharray:none;stroke-opacity:1;"/>
  <path id="path24" d="  M 361.60517,219.59235   L 361.60517,207.59277   L 361.5385,206.5928   L 361.3385,205.6595   L 360.87183,204.99286   L 360.00515,204.7262   L 359.20514,205.05952   L 358.80513,205.72617   L 358.60513,207.32611   L 358.60513,219.59235   L 361.60517,219.59235  z " clip-path="url(#clipWmfPath1)" style="fill:#bfbfbf;fill-rule:nonzero;fill-opacity:1;stroke:none;"/>
  <path id="path26" d="  M 361.60517,219.59235   L 361.60517,207.59277   L 361.5385,206.5928   L 361.3385,205.6595   L 360.87183,204.99286   L 360.00515,204.7262   L 359.20514,205.05952   L 358.80513,205.72617   L 358.60513,207.32611   L 358.60513,219.59235   L 361.60517,219.59235  z " clip-path="url(#clipWmfPath1)" style="fill:none;stroke:#000000;stroke-width:0.066667616px;stroke-linecap:round;stroke-linejoin:round;stroke-miterlimit:4;stroke-dasharray:none;stroke-opacity:1;"/>
  <path id="path28" d="  M 357.0051,219.59235   L 357.0051,207.59277   L 356.93844,206.5928   L 356.73843,205.6595   L 356.27176,204.99286   L 355.40508,204.7262   L 354.60507,205.05952   L 354.20506,205.72617   L 354.00506,207.32611   L 354.00506,219.59235   L 357.0051,219.59235  z " clip-path="url(#clipWmfPath1)" style="fill:#bfbfbf;fill-rule:nonzero;fill-opacity:1;stroke:none;"/>
  <path id="path30" d="  M 357.0051,219.59235   L 357.0051,207.59277   L 356.93844,206.5928   L 356.73843,205.6595   L 356.27176,204.99286   L 355.40508,204.7262   L 354.60507,205.05952   L 354.20506,205.72617   L 354.00506,207.32611   L 354.00506,219.59235   L 357.0051,219.59235  z " clip-path="url(#clipWmfPath1)" style="fill:none;stroke:#000000;stroke-width:0.066667616px;stroke-linecap:round;stroke-linejoin:round;stroke-miterlimit:4;stroke-dasharray:none;stroke-opacity:1;"/>
  <path id="path32" d="  M 352.13837,219.59235   L 352.13837,207.59277   L 351.8717,205.6595   L 351.40502,204.99286   L 351.20502,204.79286   L 350.60501,204.7262   L 349.805,205.05952   L 349.33833,205.72617   L 349.13833,207.32611   L 349.13833,219.59235   L 352.13837,219.59235  z " clip-path="url(#clipWmfPath1)" style="fill:#bfbfbf;fill-rule:nonzero;fill-opacity:1;stroke:none;"/>
  <path id="path34" d="  M 352.13837,219.59235   L 352.13837,207.59277   L 351.8717,205.6595   L 351.40502,204.99286   L 351.20502,204.79286   L 350.60501,204.7262   L 349.805,205.05952   L 349.33833,205.72617   L 349.13833,207.32611   L 349.13833,219.59235   L 352.13837,219.59235  z " clip-path="url(#clipWmfPath1)" style="fill:none;stroke:#000000;stroke-width:0.066667616px;stroke-linecap:round;stroke-linejoin:round;stroke-miterlimit:4;stroke-dasharray:none;stroke-opacity:1;"/>
  <path id="path36" d="  M 347.27163,219.59235   L 347.27163,207.59277   L 347.20496,206.5928   L 347.00496,205.6595   L 346.53829,204.99286   L 345.67161,204.7262   L 344.8716,205.05952   L 344.47159,205.72617   L 344.27159,207.32611   L 344.27159,219.59235   L 347.27163,219.59235  z " clip-path="url(#clipWmfPath1)" style="fill:#bfbfbf;fill-rule:nonzero;fill-opacity:1;stroke:none;"/>
  <path id="path38" d="  M 347.27163,219.59235   L 347.27163,207.59277   L 347.20496,206.5928   L 347.00496,205.6595   L 346.53829,204.99286   L 345.67161,204.7262   L 344.8716,205.05952   L 344.47159,205.72617   L 344.27159,207.32611   L 344.27159,219.59235   L 347.27163,219.59235  z " clip-path="url(#clipWmfPath1)" style="fill:none;stroke:#000000;stroke-width:0.066667616px;stroke-linecap:round;stroke-linejoin:round;stroke-miterlimit:4;stroke-dasharray:none;stroke-opacity:1;"/>
  <path id="path40" d="  M 342.67157,219.59235   L 342.67157,207.59277   L 342.6049,206.5928   L 342.4049,205.6595   L 341.93822,204.99286   L 341.07154,204.7262   L 340.27153,205.05952   L 339.80486,205.72617   L 339.60486,207.32611   L 339.60486,219.59235   L 342.67157,219.59235  z " clip-path="url(#clipWmfPath1)" style="fill:#bfbfbf;fill-rule:nonzero;fill-opacity:1;stroke:none;"/>
  <path id="path42" d="  M 342.67157,219.59235   L 342.67157,207.59277   L 342.6049,206.5928   L 342.4049,205.6595   L 341.93822,204.99286   L 341.07154,204.7262   L 340.27153,205.05952   L 339.80486,205.72617   L 339.60486,207.32611   L 339.60486,219.59235   L 342.67157,219.59235  z " clip-path="url(#clipWmfPath1)" style="fill:none;stroke:#000000;stroke-width:0.066667616px;stroke-linecap:round;stroke-linejoin:round;stroke-miterlimit:4;stroke-dasharray:none;stroke-opacity:1;"/>
  <path id="path44" d="  M 338.0715,219.59235   L 338.0715,207.59277   L 338.00483,206.5928   L 337.80483,205.6595   L 337.33816,204.99286   L 336.47148,204.7262   L 335.67147,205.05952   L 335.27146,205.72617   L 335.07146,207.32611   L 335.07146,219.59235   L 338.0715,219.59235  z " clip-path="url(#clipWmfPath1)" style="fill:#bfbfbf;fill-rule:nonzero;fill-opacity:1;stroke:none;"/>
  <path id="path46" d="  M 338.0715,219.59235   L 338.0715,207.59277   L 338.00483,206.5928   L 337.80483,205.6595   L 337.33816,204.99286   L 336.47148,204.7262   L 335.67147,205.05952   L 335.27146,205.72617   L 335.07146,207.32611   L 335.07146,219.59235   L 338.0715,219.59235  z " clip-path="url(#clipWmfPath1)" style="fill:none;stroke:#000000;stroke-width:0.066667616px;stroke-linecap:round;stroke-linejoin:round;stroke-miterlimit:4;stroke-dasharray:none;stroke-opacity:1;"/>
  <path id="path48" d="  M 333.27143,219.59235   L 333.27143,207.59277   L 333.20476,206.5928   L 333.00476,205.6595   L 332.53809,204.99286   L 331.67141,204.7262   L 330.8714,205.05952   L 330.40472,205.72617   L 330.20472,207.32611   L 330.20472,219.59235   L 333.27143,219.59235  z " clip-path="url(#clipWmfPath1)" style="fill:#bfbfbf;fill-rule:nonzero;fill-opacity:1;stroke:none;"/>
  <path id="path50" d="  M 333.27143,219.59235   L 333.27143,207.59277   L 333.20476,206.5928   L 333.00476,205.6595   L 332.53809,204.99286   L 331.67141,204.7262   L 330.8714,205.05952   L 330.40472,205.72617   L 330.20472,207.32611   L 330.20472,219.59235   L 333.27143,219.59235  z " clip-path="url(#clipWmfPath1)" style="fill:none;stroke:#000000;stroke-width:0.066667616px;stroke-linecap:round;stroke-linejoin:round;stroke-miterlimit:4;stroke-dasharray:none;stroke-opacity:1;"/>
  <path id="path52" d="  M 328.4047,219.59235   L 328.4047,207.59277   L 328.33803,206.5928   L 328.13803,205.6595   L 327.67135,204.99286   L 326.80467,204.7262   L 326.00466,205.05952   L 325.60466,205.72617   L 325.40465,207.32611   L 325.40465,219.59235   L 328.4047,219.59235  z " clip-path="url(#clipWmfPath1)" style="fill:#bfbfbf;fill-rule:nonzero;fill-opacity:1;stroke:none;"/>
  <path id="path54" d="  M 328.4047,219.59235   L 328.4047,207.59277   L 328.33803,206.5928   L 328.13803,205.6595   L 327.67135,204.99286   L 326.80467,204.7262   L 326.00466,205.05952   L 325.60466,205.72617   L 325.40465,207.32611   L 325.40465,219.59235   L 328.4047,219.59235  z " clip-path="url(#clipWmfPath1)" style="fill:none;stroke:#000000;stroke-width:0.066667616px;stroke-linecap:round;stroke-linejoin:round;stroke-miterlimit:4;stroke-dasharray:none;stroke-opacity:1;"/>
  <path id="path56" d="  M 323.60463,219.59235   L 323.60463,207.59277   L 323.53796,206.5928   L 323.33796,205.6595   L 322.87128,204.99286   L 322.0046,204.7262   L 321.20459,205.05952   L 320.73792,205.72617   L 320.53792,207.32611   L 320.53792,219.59235   L 323.60463,219.59235  z " clip-path="url(#clipWmfPath1)" style="fill:#bfbfbf;fill-rule:nonzero;fill-opacity:1;stroke:none;"/>
  <path id="path58" d="  M 323.60463,219.59235   L 323.60463,207.59277   L 323.53796,206.5928   L 323.33796,205.6595   L 322.87128,204.99286   L 322.0046,204.7262   L 321.20459,205.05952   L 320.73792,205.72617   L 320.53792,207.32611   L 320.53792,219.59235   L 323.60463,219.59235  z " clip-path="url(#clipWmfPath1)" style="fill:none;stroke:#000000;stroke-width:0.066667616px;stroke-linecap:round;stroke-linejoin:round;stroke-miterlimit:4;stroke-dasharray:none;stroke-opacity:1;"/>
  <path id="path60" d="  M 318.93789,219.59235   L 318.93789,207.59277   L 318.87123,206.5928   L 318.67122,205.6595   L 318.20455,204.99286   L 317.33787,204.7262   L 316.53786,205.05952   L 316.07119,205.72617   L 315.87118,207.32611   L 315.87118,219.59235   L 318.93789,219.59235  z " clip-path="url(#clipWmfPath1)" style="fill:#bfbfbf;fill-rule:nonzero;fill-opacity:1;stroke:none;"/>
  <path id="path62" d="  M 318.93789,219.59235   L 318.93789,207.59277   L 318.87123,206.5928   L 318.67122,205.6595   L 318.20455,204.99286   L 317.33787,204.7262   L 316.53786,205.05952   L 316.07119,205.72617   L 315.87118,207.32611   L 315.87118,219.59235   L 318.93789,219.59235  z " clip-path="url(#clipWmfPath1)" style="fill:none;stroke:#000000;stroke-width:0.066667616px;stroke-linecap:round;stroke-linejoin:round;stroke-miterlimit:4;stroke-dasharray:none;stroke-opacity:1;"/>
  <path id="path64" d="  M 314.33783,219.59235   L 314.33783,207.59277   L 314.27116,206.5928   L 314.07116,205.6595   L 313.60448,204.99286   L 312.73781,204.7262   L 311.93779,205.05952   L 311.53779,205.72617   L 311.33779,207.32611   L 311.33779,219.59235   L 314.33783,219.59235  z " clip-path="url(#clipWmfPath1)" style="fill:#bfbfbf;fill-rule:nonzero;fill-opacity:1;stroke:none;"/>
  <path id="path66" d="  M 314.33783,219.59235   L 314.33783,207.59277   L 314.27116,206.5928   L 314.07116,205.6595   L 313.60448,204.99286   L 312.73781,204.7262   L 311.93779,205.05952   L 311.53779,205.72617   L 311.33779,207.32611   L 311.33779,219.59235   L 314.33783,219.59235  z " clip-path="url(#clipWmfPath1)" style="fill:none;stroke:#000000;stroke-width:0.066667616px;stroke-linecap:round;stroke-linejoin:round;stroke-miterlimit:4;stroke-dasharray:none;stroke-opacity:1;"/>
  <path id="path68" d="  M 309.73776,219.59235   L 309.73776,207.59277   L 309.67109,206.5928   L 309.47109,205.6595   L 309.00442,204.99286   L 308.13774,204.7262   L 307.33773,205.05952   L 306.87105,205.72617   L 306.67105,207.32611   L 306.67105,219.59235   L 309.73776,219.59235  z " clip-path="url(#clipWmfPath1)" style="fill:#bfbfbf;fill-rule:nonzero;fill-opacity:1;stroke:none;"/>
  <path id="path70" d="  M 309.73776,219.59235   L 309.73776,207.59277   L 309.67109,206.5928   L 309.47109,205.6595   L 309.00442,204.99286   L 308.13774,204.7262   L 307.33773,205.05952   L 306.87105,205.72617   L 306.67105,207.32611   L 306.67105,219.59235   L 309.73776,219.59235  z " clip-path="url(#clipWmfPath1)" style="fill:none;stroke:#000000;stroke-width:0.066667616px;stroke-linecap:round;stroke-linejoin:round;stroke-miterlimit:4;stroke-dasharray:none;stroke-opacity:1;"/>
  <path id="path72" d="  M 305.07103,219.59235   L 305.07103,207.59277   L 304.80436,205.6595   L 304.33769,204.99286   L 304.13768,204.79286   L 303.53767,204.7262   L 302.73766,205.05952   L 302.33766,205.72617   L 302.13765,207.32611   L 302.13765,219.59235   L 305.07103,219.59235  z " clip-path="url(#clipWmfPath1)" style="fill:#bfbfbf;fill-rule:nonzero;fill-opacity:1;stroke:none;"/>
  <path id="path74" d="  M 305.07103,219.59235   L 305.07103,207.59277   L 304.80436,205.6595   L 304.33769,204.99286   L 304.13768,204.79286   L 303.53767,204.7262   L 302.73766,205.05952   L 302.33766,205.72617   L 302.13765,207.32611   L 302.13765,219.59235   L 305.07103,219.59235  z " clip-path="url(#clipWmfPath1)" style="fill:none;stroke:#000000;stroke-width:0.066667616px;stroke-linecap:round;stroke-linejoin:round;stroke-miterlimit:4;stroke-dasharray:none;stroke-opacity:1;"/>
  <path id="path76" d="  M 300.4043,219.59235   L 300.4043,207.59277   L 300.13763,205.6595   L 299.67095,204.99286   L 299.47095,204.79286   L 298.87094,204.7262   L 298.07093,205.05952   L 297.67092,205.72617   L 297.47092,207.32611   L 297.47092,219.59235   L 300.4043,219.59235  z " clip-path="url(#clipWmfPath1)" style="fill:#bfbfbf;fill-rule:nonzero;fill-opacity:1;stroke:none;"/>
  <path id="path78" d="  M 300.4043,219.59235   L 300.4043,207.59277   L 300.13763,205.6595   L 299.67095,204.99286   L 299.47095,204.79286   L 298.87094,204.7262   L 298.07093,205.05952   L 297.67092,205.72617   L 297.47092,207.32611   L 297.47092,219.59235   L 300.4043,219.59235  z " clip-path="url(#clipWmfPath1)" style="fill:none;stroke:#000000;stroke-width:0.066667616px;stroke-linecap:round;stroke-linejoin:round;stroke-miterlimit:4;stroke-dasharray:none;stroke-opacity:1;"/>
  <path id="path80" d="  M 295.60423,219.59235   L 295.60423,207.59277   L 295.53756,206.5928   L 295.33756,205.6595   L 294.87088,204.99286   L 294.0042,204.7262   L 293.20419,205.05952   L 292.80419,205.72617   L 292.60418,207.32611   L 292.60418,219.59235   L 295.60423,219.59235  z " clip-path="url(#clipWmfPath1)" style="fill:#bfbfbf;fill-rule:nonzero;fill-opacity:1;stroke:none;"/>
  <path id="path82" d="  M 295.60423,219.59235   L 295.60423,207.59277   L 295.53756,206.5928   L 295.33756,205.6595   L 294.87088,204.99286   L 294.0042,204.7262   L 293.20419,205.05952   L 292.80419,205.72617   L 292.60418,207.32611   L 292.60418,219.59235   L 295.60423,219.59235  z " clip-path="url(#clipWmfPath1)" style="fill:none;stroke:#000000;stroke-width:0.066667616px;stroke-linecap:round;stroke-linejoin:round;stroke-miterlimit:4;stroke-dasharray:none;stroke-opacity:1;"/>
  <path id="path84" d="  M 539.14104,219.59235   L 539.14104,207.59277   L 539.07438,206.5928   L 538.87437,205.6595   L 538.4077,204.99286   L 537.54102,204.7262   L 536.74101,205.05952   L 536.341,205.72617   L 536.141,207.32611   L 536.141,219.59235   L 539.14104,219.59235  z " clip-path="url(#clipWmfPath1)" style="fill:#bfbfbf;fill-rule:nonzero;fill-opacity:1;stroke:none;"/>
  <path id="path86" d="  M 539.14104,219.59235   L 539.14104,207.59277   L 539.07438,206.5928   L 538.87437,205.6595   L 538.4077,204.99286   L 537.54102,204.7262   L 536.74101,205.05952   L 536.341,205.72617   L 536.141,207.32611   L 536.141,219.59235   L 539.14104,219.59235  z " clip-path="url(#clipWmfPath1)" style="fill:none;stroke:#000000;stroke-width:0.066667616px;stroke-linecap:round;stroke-linejoin:round;stroke-miterlimit:4;stroke-dasharray:none;stroke-opacity:1;"/>
  <path id="path88" d="  M 534.40764,219.59235   L 534.40764,207.59277   L 534.34097,206.5928   L 534.14097,205.6595   L 533.6743,204.99286   L 532.80762,204.7262   L 532.00761,205.05952   L 531.6076,205.72617   L 531.4076,207.32611   L 531.4076,219.59235   L 534.40764,219.59235  z " clip-path="url(#clipWmfPath1)" style="fill:#bfbfbf;fill-rule:nonzero;fill-opacity:1;stroke:none;"/>
  <path id="path90" d="  M 534.40764,219.59235   L 534.40764,207.59277   L 534.34097,206.5928   L 534.14097,205.6595   L 533.6743,204.99286   L 532.80762,204.7262   L 532.00761,205.05952   L 531.6076,205.72617   L 531.4076,207.32611   L 531.4076,219.59235   L 534.40764,219.59235  z " clip-path="url(#clipWmfPath1)" style="fill:none;stroke:#000000;stroke-width:0.066667616px;stroke-linecap:round;stroke-linejoin:round;stroke-miterlimit:4;stroke-dasharray:none;stroke-opacity:1;"/>
  <path id="path92" d="  M 529.74091,219.59235   L 529.74091,207.59277   L 529.47424,205.6595   L 529.00756,204.99286   L 528.80756,204.79286   L 528.20755,204.7262   L 527.40754,205.05952   L 526.94087,205.72617   L 526.74087,207.32611   L 526.74087,219.59235   L 529.74091,219.59235  z " clip-path="url(#clipWmfPath1)" style="fill:#bfbfbf;fill-rule:nonzero;fill-opacity:1;stroke:none;"/>
  <path id="path94" d="  M 529.74091,219.59235   L 529.74091,207.59277   L 529.47424,205.6595   L 529.00756,204.99286   L 528.80756,204.79286   L 528.20755,204.7262   L 527.40754,205.05952   L 526.94087,205.72617   L 526.74087,207.32611   L 526.74087,219.59235   L 529.74091,219.59235  z " clip-path="url(#clipWmfPath1)" style="fill:none;stroke:#000000;stroke-width:0.066667616px;stroke-linecap:round;stroke-linejoin:round;stroke-miterlimit:4;stroke-dasharray:none;stroke-opacity:1;"/>
  <path id="path96" d="  M 525.07417,219.59235   L 525.07417,207.59277   L 524.8075,205.6595   L 524.34083,204.99286   L 524.14083,204.79286   L 523.54082,204.7262   L 522.74081,205.05952   L 522.3408,205.72617   L 522.1408,207.32611   L 522.1408,219.59235   L 525.07417,219.59235  z " clip-path="url(#clipWmfPath1)" style="fill:#bfbfbf;fill-rule:nonzero;fill-opacity:1;stroke:none;"/>
  <path id="path98" d="  M 525.07417,219.59235   L 525.07417,207.59277   L 524.8075,205.6595   L 524.34083,204.99286   L 524.14083,204.79286   L 523.54082,204.7262   L 522.74081,205.05952   L 522.3408,205.72617   L 522.1408,207.32611   L 522.1408,219.59235   L 525.07417,219.59235  z " clip-path="url(#clipWmfPath1)" style="fill:none;stroke:#000000;stroke-width:0.066667616px;stroke-linecap:round;stroke-linejoin:round;stroke-miterlimit:4;stroke-dasharray:none;stroke-opacity:1;"/>
  <path id="path100" d="  M 520.54078,219.59235   L 520.54078,207.59277   L 520.47411,206.5928   L 520.27411,205.6595   L 519.80743,204.99286   L 518.94075,204.7262   L 518.14074,205.05952   L 517.67407,205.72617   L 517.47407,207.32611   L 517.47407,219.59235   L 520.54078,219.59235  z " clip-path="url(#clipWmfPath1)" style="fill:#bfbfbf;fill-rule:nonzero;fill-opacity:1;stroke:none;"/>
  <path id="path102" d="  M 520.54078,219.59235   L 520.54078,207.59277   L 520.47411,206.5928   L 520.27411,205.6595   L 519.80743,204.99286   L 518.94075,204.7262   L 518.14074,205.05952   L 517.67407,205.72617   L 517.47407,207.32611   L 517.47407,219.59235   L 520.54078,219.59235  z " clip-path="url(#clipWmfPath1)" style="fill:none;stroke:#000000;stroke-width:0.066667616px;stroke-linecap:round;stroke-linejoin:round;stroke-miterlimit:4;stroke-dasharray:none;stroke-opacity:1;"/>
  <path id="path104" d="  M 515.74071,219.59235   L 515.74071,207.59277   L 515.67404,206.5928   L 515.47404,205.6595   L 515.00736,204.99286   L 514.14069,204.7262   L 513.34067,205.05952   L 512.94067,205.72617   L 512.74067,207.32611   L 512.74067,219.59235   L 515.74071,219.59235  z " clip-path="url(#clipWmfPath1)" style="fill:#bfbfbf;fill-rule:nonzero;fill-opacity:1;stroke:none;"/>
  <path id="path106" d="  M 515.74071,219.59235   L 515.74071,207.59277   L 515.67404,206.5928   L 515.47404,205.6595   L 515.00736,204.99286   L 514.14069,204.7262   L 513.34067,205.05952   L 512.94067,205.72617   L 512.74067,207.32611   L 512.74067,219.59235   L 515.74071,219.59235  z " clip-path="url(#clipWmfPath1)" style="fill:none;stroke:#000000;stroke-width:0.066667616px;stroke-linecap:round;stroke-linejoin:round;stroke-miterlimit:4;stroke-dasharray:none;stroke-opacity:1;"/>
  <path id="path108" d="  M 510.87397,219.59235   L 510.87397,207.59277   L 510.8073,206.5928   L 510.6073,205.6595   L 510.14063,204.99286   L 509.27395,204.7262   L 508.47394,205.05952   L 508.00726,205.72617   L 507.80726,207.32611   L 507.80726,219.59235   L 510.87397,219.59235  z " clip-path="url(#clipWmfPath1)" style="fill:#bfbfbf;fill-rule:nonzero;fill-opacity:1;stroke:none;"/>
  <path id="path110" d="  M 510.87397,219.59235   L 510.87397,207.59277   L 510.8073,206.5928   L 510.6073,205.6595   L 510.14063,204.99286   L 509.27395,204.7262   L 508.47394,205.05952   L 508.00726,205.72617   L 507.80726,207.32611   L 507.80726,219.59235   L 510.87397,219.59235  z " clip-path="url(#clipWmfPath1)" style="fill:none;stroke:#000000;stroke-width:0.066667616px;stroke-linecap:round;stroke-linejoin:round;stroke-miterlimit:4;stroke-dasharray:none;stroke-opacity:1;"/>
  <path id="path112" d="  M 506.14057,219.59235   L 506.14057,207.59277   L 506.0739,206.5928   L 505.8739,205.6595   L 505.40723,204.99286   L 504.54055,204.7262   L 503.74054,205.05952   L 503.27386,205.72617   L 503.07386,207.32611   L 503.07386,219.59235   L 506.14057,219.59235  z " clip-path="url(#clipWmfPath1)" style="fill:#bfbfbf;fill-rule:nonzero;fill-opacity:1;stroke:none;"/>
  <path id="path114" d="  M 506.14057,219.59235   L 506.14057,207.59277   L 506.0739,206.5928   L 505.8739,205.6595   L 505.40723,204.99286   L 504.54055,204.7262   L 503.74054,205.05952   L 503.27386,205.72617   L 503.07386,207.32611   L 503.07386,219.59235   L 506.14057,219.59235  z " clip-path="url(#clipWmfPath1)" style="fill:none;stroke:#000000;stroke-width:0.066667616px;stroke-linecap:round;stroke-linejoin:round;stroke-miterlimit:4;stroke-dasharray:none;stroke-opacity:1;"/>
  <path id="path116" d="  M 501.47384,219.59235   L 501.47384,207.59277   L 501.20717,205.6595   L 500.74049,204.99286   L 500.54049,204.79286   L 499.94048,204.7262   L 499.14047,205.05952   L 498.74047,205.72617   L 498.54046,207.32611   L 498.54046,219.59235   L 501.47384,219.59235  z " clip-path="url(#clipWmfPath1)" style="fill:#bfbfbf;fill-rule:nonzero;fill-opacity:1;stroke:none;"/>
  <path id="path118" d="  M 501.47384,219.59235   L 501.47384,207.59277   L 501.20717,205.6595   L 500.74049,204.99286   L 500.54049,204.79286   L 499.94048,204.7262   L 499.14047,205.05952   L 498.74047,205.72617   L 498.54046,207.32611   L 498.54046,219.59235   L 501.47384,219.59235  z " clip-path="url(#clipWmfPath1)" style="fill:none;stroke:#000000;stroke-width:0.066667616px;stroke-linecap:round;stroke-linejoin:round;stroke-miterlimit:4;stroke-dasharray:none;stroke-opacity:1;"/>
  <path id="path120" d="  M 496.6071,219.59235   L 496.6071,207.59277   L 496.34043,205.6595   L 495.94042,204.99286   L 495.74042,204.79286   L 495.14041,204.7262   L 494.27373,205.05952   L 493.80706,205.72617   L 493.60706,207.32611   L 493.60706,219.59235   L 496.6071,219.59235  z " clip-path="url(#clipWmfPath1)" style="fill:#bfbfbf;fill-rule:nonzero;fill-opacity:1;stroke:none;"/>
  <path id="path122" d="  M 496.6071,219.59235   L 496.6071,207.59277   L 496.34043,205.6595   L 495.94042,204.99286   L 495.74042,204.79286   L 495.14041,204.7262   L 494.27373,205.05952   L 493.80706,205.72617   L 493.60706,207.32611   L 493.60706,219.59235   L 496.6071,219.59235  z " clip-path="url(#clipWmfPath1)" style="fill:none;stroke:#000000;stroke-width:0.066667616px;stroke-linecap:round;stroke-linejoin:round;stroke-miterlimit:4;stroke-dasharray:none;stroke-opacity:1;"/>
  <path id="path124" d="  M 492.00704,219.59235   L 492.00704,207.59277   L 491.94037,206.5928   L 491.74036,205.6595   L 491.27369,204.99286   L 490.40701,204.7262   L 489.607,205.05952   L 489.207,205.72617   L 489.00699,207.32611   L 489.00699,219.59235   L 492.00704,219.59235  z " clip-path="url(#clipWmfPath1)" style="fill:#bfbfbf;fill-rule:nonzero;fill-opacity:1;stroke:none;"/>
  <path id="path126" d="  M 492.00704,219.59235   L 492.00704,207.59277   L 491.94037,206.5928   L 491.74036,205.6595   L 491.27369,204.99286   L 490.40701,204.7262   L 489.607,205.05952   L 489.207,205.72617   L 489.00699,207.32611   L 489.00699,219.59235   L 492.00704,219.59235  z " clip-path="url(#clipWmfPath1)" style="fill:none;stroke:#000000;stroke-width:0.066667616px;stroke-linecap:round;stroke-linejoin:round;stroke-miterlimit:4;stroke-dasharray:none;stroke-opacity:1;"/>
  <path id="path128" d="  M 487.40697,219.59235   L 487.40697,207.59277   L 487.1403,205.6595   L 486.74029,204.99286   L 486.54029,204.79286   L 485.94028,204.7262   L 485.0736,205.05952   L 484.60693,205.72617   L 484.40693,207.32611   L 484.40693,219.59235   L 487.40697,219.59235  z " clip-path="url(#clipWmfPath1)" style="fill:#bfbfbf;fill-rule:nonzero;fill-opacity:1;stroke:none;"/>
  <path id="path130" d="  M 487.40697,219.59235   L 487.40697,207.59277   L 487.1403,205.6595   L 486.74029,204.99286   L 486.54029,204.79286   L 485.94028,204.7262   L 485.0736,205.05952   L 484.60693,205.72617   L 484.40693,207.32611   L 484.40693,219.59235   L 487.40697,219.59235  z " clip-path="url(#clipWmfPath1)" style="fill:none;stroke:#000000;stroke-width:0.066667616px;stroke-linecap:round;stroke-linejoin:round;stroke-miterlimit:4;stroke-dasharray:none;stroke-opacity:1;"/>
  <path id="path132" d="  M 482.8069,219.59235   L 482.8069,207.59277   L 482.74024,206.5928   L 482.54023,205.6595   L 482.07356,204.99286   L 481.20688,204.7262   L 480.40687,205.05952   L 479.9402,205.72617   L 479.74019,207.32611   L 479.74019,219.59235   L 482.8069,219.59235  z " clip-path="url(#clipWmfPath1)" style="fill:#bfbfbf;fill-rule:nonzero;fill-opacity:1;stroke:none;"/>
  <path id="path134" d="  M 482.8069,219.59235   L 482.8069,207.59277   L 482.74024,206.5928   L 482.54023,205.6595   L 482.07356,204.99286   L 481.20688,204.7262   L 480.40687,205.05952   L 479.9402,205.72617   L 479.74019,207.32611   L 479.74019,219.59235   L 482.8069,219.59235  z " clip-path="url(#clipWmfPath1)" style="fill:none;stroke:#000000;stroke-width:0.066667616px;stroke-linecap:round;stroke-linejoin:round;stroke-miterlimit:4;stroke-dasharray:none;stroke-opacity:1;"/>
  <path id="path136" d="  M 477.94017,219.59235   L 477.94017,207.59277   L 477.8735,206.5928   L 477.6735,205.6595   L 477.20682,204.99286   L 476.34014,204.7262   L 475.54013,205.05952   L 475.14013,205.72617   L 474.94012,207.32611   L 474.94012,219.59235   L 477.94017,219.59235  z " clip-path="url(#clipWmfPath1)" style="fill:#bfbfbf;fill-rule:nonzero;fill-opacity:1;stroke:none;"/>
  <path id="path138" d="  M 477.94017,219.59235   L 477.94017,207.59277   L 477.8735,206.5928   L 477.6735,205.6595   L 477.20682,204.99286   L 476.34014,204.7262   L 475.54013,205.05952   L 475.14013,205.72617   L 474.94012,207.32611   L 474.94012,219.59235   L 477.94017,219.59235  z " clip-path="url(#clipWmfPath1)" style="fill:none;stroke:#000000;stroke-width:0.066667616px;stroke-linecap:round;stroke-linejoin:round;stroke-miterlimit:4;stroke-dasharray:none;stroke-opacity:1;"/>
  <path id="path140" d="  M 473.1401,219.59235   L 473.1401,207.59277   L 473.07343,206.5928   L 472.87343,205.6595   L 472.40676,204.99286   L 471.54008,204.7262   L 470.74006,205.05952   L 470.27339,205.72617   L 470.07339,207.32611   L 470.07339,219.59235   L 473.1401,219.59235  z " clip-path="url(#clipWmfPath1)" style="fill:#bfbfbf;fill-rule:nonzero;fill-opacity:1;stroke:none;"/>
  <path id="path142" d="  M 473.1401,219.59235   L 473.1401,207.59277   L 473.07343,206.5928   L 472.87343,205.6595   L 472.40676,204.99286   L 471.54008,204.7262   L 470.74006,205.05952   L 470.27339,205.72617   L 470.07339,207.32611   L 470.07339,219.59235   L 473.1401,219.59235  z " clip-path="url(#clipWmfPath1)" style="fill:none;stroke:#000000;stroke-width:0.066667616px;stroke-linecap:round;stroke-linejoin:round;stroke-miterlimit:4;stroke-dasharray:none;stroke-opacity:1;"/>
  <path id="path144" d="  M 468.2067,219.59235   L 468.2067,207.59277   L 468.14003,206.5928   L 467.94002,205.6595   L 467.47335,204.99286   L 466.60667,204.7262   L 465.80666,205.05952   L 465.40666,205.72617   L 465.20665,207.32611   L 465.20665,219.59235   L 468.2067,219.59235  z " clip-path="url(#clipWmfPath1)" style="fill:#bfbfbf;fill-rule:nonzero;fill-opacity:1;stroke:none;"/>
  <path id="path146" d="  M 468.2067,219.59235   L 468.2067,207.59277   L 468.14003,206.5928   L 467.94002,205.6595   L 467.47335,204.99286   L 466.60667,204.7262   L 465.80666,205.05952   L 465.40666,205.72617   L 465.20665,207.32611   L 465.20665,219.59235   L 468.2067,219.59235  z " clip-path="url(#clipWmfPath1)" style="fill:none;stroke:#000000;stroke-width:0.066667616px;stroke-linecap:round;stroke-linejoin:round;stroke-miterlimit:4;stroke-dasharray:none;stroke-opacity:1;"/>
  <path id="path148" d="  M 463.13996,219.59235   L 463.13996,207.59277   L 463.07329,206.5928   L 462.87329,205.6595   L 462.40661,204.99286   L 461.53993,204.7262   L 460.73992,205.05952   L 460.33992,205.72617   L 460.13991,207.32611   L 460.13991,219.59235   L 463.13996,219.59235  z " clip-path="url(#clipWmfPath1)" style="fill:#bfbfbf;fill-rule:nonzero;fill-opacity:1;stroke:none;"/>
  <path id="path150" d="  M 463.13996,219.59235   L 463.13996,207.59277   L 463.07329,206.5928   L 462.87329,205.6595   L 462.40661,204.99286   L 461.53993,204.7262   L 460.73992,205.05952   L 460.33992,205.72617   L 460.13991,207.32611   L 460.13991,219.59235   L 463.13996,219.59235  z " clip-path="url(#clipWmfPath1)" style="fill:none;stroke:#000000;stroke-width:0.066667616px;stroke-linecap:round;stroke-linejoin:round;stroke-miterlimit:4;stroke-dasharray:none;stroke-opacity:1;"/>
  <path id="path152" d="  M 458.53989,219.59235   L 458.53989,207.59277   L 458.47322,206.5928   L 458.27322,205.6595   L 457.80655,204.99286   L 456.93987,204.7262   L 456.13986,205.05952   L 455.73985,205.72617   L 455.53985,207.32611   L 455.53985,219.59235   L 458.53989,219.59235  z " clip-path="url(#clipWmfPath1)" style="fill:#bfbfbf;fill-rule:nonzero;fill-opacity:1;stroke:none;"/>
  <path id="path154" d="  M 458.53989,219.59235   L 458.53989,207.59277   L 458.47322,206.5928   L 458.27322,205.6595   L 457.80655,204.99286   L 456.93987,204.7262   L 456.13986,205.05952   L 455.73985,205.72617   L 455.53985,207.32611   L 455.53985,219.59235   L 458.53989,219.59235  z " clip-path="url(#clipWmfPath1)" style="fill:none;stroke:#000000;stroke-width:0.066667616px;stroke-linecap:round;stroke-linejoin:round;stroke-miterlimit:4;stroke-dasharray:none;stroke-opacity:1;"/>
  <path id="path156" d="  M 453.67315,219.59235   L 453.67315,207.59277   L 453.40648,205.6595   L 452.93981,204.99286   L 452.73981,204.79286   L 452.1398,204.7262   L 451.33979,205.05952   L 450.87311,205.72617   L 450.67311,207.32611   L 450.67311,219.59235   L 453.67315,219.59235  z " clip-path="url(#clipWmfPath1)" style="fill:#bfbfbf;fill-rule:nonzero;fill-opacity:1;stroke:none;"/>
  <path id="path158" d="  M 453.67315,219.59235   L 453.67315,207.59277   L 453.40648,205.6595   L 452.93981,204.99286   L 452.73981,204.79286   L 452.1398,204.7262   L 451.33979,205.05952   L 450.87311,205.72617   L 450.67311,207.32611   L 450.67311,219.59235   L 453.67315,219.59235  z " clip-path="url(#clipWmfPath1)" style="fill:none;stroke:#000000;stroke-width:0.066667616px;stroke-linecap:round;stroke-linejoin:round;stroke-miterlimit:4;stroke-dasharray:none;stroke-opacity:1;"/>
  <path id="path160" d="  M 448.80642,219.59235   L 448.80642,207.59277   L 448.73975,206.5928   L 448.53975,205.6595   L 448.07307,204.99286   L 447.20639,204.7262   L 446.40638,205.05952   L 446.00638,205.72617   L 445.80637,207.32611   L 445.80637,219.59235   L 448.80642,219.59235  z " clip-path="url(#clipWmfPath1)" style="fill:#bfbfbf;fill-rule:nonzero;fill-opacity:1;stroke:none;"/>
  <path id="path162" d="  M 448.80642,219.59235   L 448.80642,207.59277   L 448.73975,206.5928   L 448.53975,205.6595   L 448.07307,204.99286   L 447.20639,204.7262   L 446.40638,205.05952   L 446.00638,205.72617   L 445.80637,207.32611   L 445.80637,219.59235   L 448.80642,219.59235  z " clip-path="url(#clipWmfPath1)" style="fill:none;stroke:#000000;stroke-width:0.066667616px;stroke-linecap:round;stroke-linejoin:round;stroke-miterlimit:4;stroke-dasharray:none;stroke-opacity:1;"/>
  <path id="path164" d="  M 444.20635,219.59235   L 444.20635,207.59277   L 444.13968,206.5928   L 443.93968,205.6595   L 443.47301,204.99286   L 442.60633,204.7262   L 441.80632,205.05952   L 441.33964,205.72617   L 441.13964,207.32611   L 441.13964,219.59235   L 444.20635,219.59235  z " clip-path="url(#clipWmfPath1)" style="fill:#bfbfbf;fill-rule:nonzero;fill-opacity:1;stroke:none;"/>
  <path id="path166" d="  M 444.20635,219.59235   L 444.20635,207.59277   L 444.13968,206.5928   L 443.93968,205.6595   L 443.47301,204.99286   L 442.60633,204.7262   L 441.80632,205.05952   L 441.33964,205.72617   L 441.13964,207.32611   L 441.13964,219.59235   L 444.20635,219.59235  z " clip-path="url(#clipWmfPath1)" style="fill:none;stroke:#000000;stroke-width:0.066667616px;stroke-linecap:round;stroke-linejoin:round;stroke-miterlimit:4;stroke-dasharray:none;stroke-opacity:1;"/>
  <path id="path168" d="  M 439.60629,219.59235   L 439.60629,207.59277   L 439.53962,206.5928   L 439.33962,205.6595   L 438.87294,204.99286   L 438.00626,204.7262   L 437.20625,205.05952   L 436.80625,205.72617   L 436.60624,207.32611   L 436.60624,219.59235   L 439.60629,219.59235  z " clip-path="url(#clipWmfPath1)" style="fill:#bfbfbf;fill-rule:nonzero;fill-opacity:1;stroke:none;"/>
  <path id="path170" d="  M 439.60629,219.59235   L 439.60629,207.59277   L 439.53962,206.5928   L 439.33962,205.6595   L 438.87294,204.99286   L 438.00626,204.7262   L 437.20625,205.05952   L 436.80625,205.72617   L 436.60624,207.32611   L 436.60624,219.59235   L 439.60629,219.59235  z " clip-path="url(#clipWmfPath1)" style="fill:none;stroke:#000000;stroke-width:0.066667616px;stroke-linecap:round;stroke-linejoin:round;stroke-miterlimit:4;stroke-dasharray:none;stroke-opacity:1;"/>
  <path id="path172" d="  M 434.80622,219.59235   L 434.80622,207.59277   L 434.73955,206.5928   L 434.53955,205.6595   L 434.07287,204.99286   L 433.20619,204.7262   L 432.40618,205.05952   L 431.93951,205.72617   L 431.73951,207.32611   L 431.73951,219.59235   L 434.80622,219.59235  z " clip-path="url(#clipWmfPath1)" style="fill:#bfbfbf;fill-rule:nonzero;fill-opacity:1;stroke:none;"/>
  <path id="path174" d="  M 434.80622,219.59235   L 434.80622,207.59277   L 434.73955,206.5928   L 434.53955,205.6595   L 434.07287,204.99286   L 433.20619,204.7262   L 432.40618,205.05952   L 431.93951,205.72617   L 431.73951,207.32611   L 431.73951,219.59235   L 434.80622,219.59235  z " clip-path="url(#clipWmfPath1)" style="fill:none;stroke:#000000;stroke-width:0.066667616px;stroke-linecap:round;stroke-linejoin:round;stroke-miterlimit:4;stroke-dasharray:none;stroke-opacity:1;"/>
  <path id="path176" d="  M 429.93948,219.59235   L 429.93948,207.59277   L 429.87281,206.5928   L 429.67281,205.6595   L 429.20614,204.99286   L 428.33946,204.7262   L 427.53945,205.05952   L 427.13944,205.72617   L 426.93944,207.32611   L 426.93944,219.59235   L 429.93948,219.59235  z " clip-path="url(#clipWmfPath1)" style="fill:#bfbfbf;fill-rule:nonzero;fill-opacity:1;stroke:none;"/>
  <path id="path178" d="  M 429.93948,219.59235   L 429.93948,207.59277   L 429.87281,206.5928   L 429.67281,205.6595   L 429.20614,204.99286   L 428.33946,204.7262   L 427.53945,205.05952   L 427.13944,205.72617   L 426.93944,207.32611   L 426.93944,219.59235   L 429.93948,219.59235  z " clip-path="url(#clipWmfPath1)" style="fill:none;stroke:#000000;stroke-width:0.066667616px;stroke-linecap:round;stroke-linejoin:round;stroke-miterlimit:4;stroke-dasharray:none;stroke-opacity:1;"/>
  <path id="path180" d="  M 425.13941,219.59235   L 425.13941,207.59277   L 425.07274,206.5928   L 424.87274,205.6595   L 424.40607,204.99286   L 423.53939,204.7262   L 422.73938,205.05952   L 422.2727,205.72617   L 422.0727,207.32611   L 422.0727,219.59235   L 425.13941,219.59235  z " clip-path="url(#clipWmfPath1)" style="fill:#bfbfbf;fill-rule:nonzero;fill-opacity:1;stroke:none;"/>
  <path id="path182" d="  M 425.13941,219.59235   L 425.13941,207.59277   L 425.07274,206.5928   L 424.87274,205.6595   L 424.40607,204.99286   L 423.53939,204.7262   L 422.73938,205.05952   L 422.2727,205.72617   L 422.0727,207.32611   L 422.0727,219.59235   L 425.13941,219.59235  z " clip-path="url(#clipWmfPath1)" style="fill:none;stroke:#000000;stroke-width:0.066667616px;stroke-linecap:round;stroke-linejoin:round;stroke-miterlimit:4;stroke-dasharray:none;stroke-opacity:1;"/>
  <path id="path184" d="  M 420.47268,219.59235   L 420.47268,207.59277   L 420.40601,206.5928   L 420.20601,205.6595   L 419.73934,204.99286   L 418.87266,204.7262   L 418.07264,205.05952   L 417.60597,205.72617   L 417.40597,207.32611   L 417.40597,219.59235   L 420.47268,219.59235  z " clip-path="url(#clipWmfPath1)" style="fill:#bfbfbf;fill-rule:nonzero;fill-opacity:1;stroke:none;"/>
  <path id="path186" d="  M 420.47268,219.59235   L 420.47268,207.59277   L 420.40601,206.5928   L 420.20601,205.6595   L 419.73934,204.99286   L 418.87266,204.7262   L 418.07264,205.05952   L 417.60597,205.72617   L 417.40597,207.32611   L 417.40597,219.59235   L 420.47268,219.59235  z " clip-path="url(#clipWmfPath1)" style="fill:none;stroke:#000000;stroke-width:0.066667616px;stroke-linecap:round;stroke-linejoin:round;stroke-miterlimit:4;stroke-dasharray:none;stroke-opacity:1;"/>
  <path id="path188" d="  M 415.87261,219.59235   L 415.87261,207.59277   L 415.80595,206.5928   L 415.60594,205.6595   L 415.13927,204.99286   L 414.27259,204.7262   L 413.47258,205.05952   L 413.07257,205.72617   L 412.87257,207.32611   L 412.87257,219.59235   L 415.87261,219.59235  z " clip-path="url(#clipWmfPath1)" style="fill:#bfbfbf;fill-rule:nonzero;fill-opacity:1;stroke:none;"/>
  <path id="path190" d="  M 415.87261,219.59235   L 415.87261,207.59277   L 415.80595,206.5928   L 415.60594,205.6595   L 415.13927,204.99286   L 414.27259,204.7262   L 413.47258,205.05952   L 413.07257,205.72617   L 412.87257,207.32611   L 412.87257,219.59235   L 415.87261,219.59235  z " clip-path="url(#clipWmfPath1)" style="fill:none;stroke:#000000;stroke-width:0.066667616px;stroke-linecap:round;stroke-linejoin:round;stroke-miterlimit:4;stroke-dasharray:none;stroke-opacity:1;"/>
  <path id="path192" d="  M 411.27255,219.59235   L 411.27255,207.59277   L 411.20588,206.5928   L 411.00588,205.6595   L 410.5392,204.99286   L 409.67252,204.7262   L 408.87251,205.05952   L 408.40584,205.72617   L 408.20584,207.32611   L 408.20584,219.59235   L 411.27255,219.59235  z " clip-path="url(#clipWmfPath1)" style="fill:#bfbfbf;fill-rule:nonzero;fill-opacity:1;stroke:none;"/>
  <path id="path194" d="  M 411.27255,219.59235   L 411.27255,207.59277   L 411.20588,206.5928   L 411.00588,205.6595   L 410.5392,204.99286   L 409.67252,204.7262   L 408.87251,205.05952   L 408.40584,205.72617   L 408.20584,207.32611   L 408.20584,219.59235   L 411.27255,219.59235  z " clip-path="url(#clipWmfPath1)" style="fill:none;stroke:#000000;stroke-width:0.066667616px;stroke-linecap:round;stroke-linejoin:round;stroke-miterlimit:4;stroke-dasharray:none;stroke-opacity:1;"/>
  <path id="path196" d="  M 406.60581,219.59235   L 406.60581,207.59277   L 406.33914,205.6595   L 405.87247,204.99286   L 405.67247,204.79286   L 405.07246,204.7262   L 404.27245,205.05952   L 403.87244,205.72617   L 403.67244,207.32611   L 403.67244,219.59235   L 406.60581,219.59235  z " clip-path="url(#clipWmfPath1)" style="fill:#bfbfbf;fill-rule:nonzero;fill-opacity:1;stroke:none;"/>
  <path id="path198" d="  M 406.60581,219.59235   L 406.60581,207.59277   L 406.33914,205.6595   L 405.87247,204.99286   L 405.67247,204.79286   L 405.07246,204.7262   L 404.27245,205.05952   L 403.87244,205.72617   L 403.67244,207.32611   L 403.67244,219.59235   L 406.60581,219.59235  z " clip-path="url(#clipWmfPath1)" style="fill:none;stroke:#000000;stroke-width:0.066667616px;stroke-linecap:round;stroke-linejoin:round;stroke-miterlimit:4;stroke-dasharray:none;stroke-opacity:1;"/>
  <path id="path200" d="  M 401.93908,219.59235   L 401.93908,207.59277   L 401.67241,205.6595   L 401.20574,204.99286   L 401.00573,204.79286   L 400.40573,204.7262   L 399.60571,205.05952   L 399.20571,205.72617   L 399.00571,207.32611   L 399.00571,219.59235   L 401.93908,219.59235  z " clip-path="url(#clipWmfPath1)" style="fill:#bfbfbf;fill-rule:nonzero;fill-opacity:1;stroke:none;"/>
  <path id="path202" d="  M 401.93908,219.59235   L 401.93908,207.59277   L 401.67241,205.6595   L 401.20574,204.99286   L 401.00573,204.79286   L 400.40573,204.7262   L 399.60571,205.05952   L 399.20571,205.72617   L 399.00571,207.32611   L 399.00571,219.59235   L 401.93908,219.59235  z " clip-path="url(#clipWmfPath1)" style="fill:none;stroke:#000000;stroke-width:0.066667616px;stroke-linecap:round;stroke-linejoin:round;stroke-miterlimit:4;stroke-dasharray:none;stroke-opacity:1;"/>
  <path id="path204" d="  M 397.13901,219.59235   L 397.13901,207.59277   L 397.07234,206.5928   L 396.87234,205.6595   L 396.40567,204.99286   L 395.53899,204.7262   L 394.73898,205.05952   L 394.33897,205.72617   L 394.13897,207.32611   L 394.13897,219.59235   L 397.13901,219.59235  z " clip-path="url(#clipWmfPath1)" style="fill:#bfbfbf;fill-rule:nonzero;fill-opacity:1;stroke:none;"/>
  <path id="path206" d="  M 397.13901,219.59235   L 397.13901,207.59277   L 397.07234,206.5928   L 396.87234,205.6595   L 396.40567,204.99286   L 395.53899,204.7262   L 394.73898,205.05952   L 394.33897,205.72617   L 394.13897,207.32611   L 394.13897,219.59235   L 397.13901,219.59235  z " clip-path="url(#clipWmfPath1)" style="fill:none;stroke:#000000;stroke-width:0.066667616px;stroke-linecap:round;stroke-linejoin:round;stroke-miterlimit:4;stroke-dasharray:none;stroke-opacity:1;"/>
  <path id="path208" d="  M 581.60832,59.331266   L 581.60832,35.265438   L 610.60873,35.265438   L 610.60873,39.331963   L 585.20837,39.331963   L 585.20837,226.19212   L 581.74165,226.19212   L 581.60832,71.197519   L 581.60832,59.331266  z " clip-path="url(#clipWmfPath1)" style="fill:#ffffff;fill-rule:nonzero;fill-opacity:1;stroke:none;"/>
  <path id="path210" d="  M 581.07498,71.197519   L 582.14166,71.197519   L 582.14166,59.331266   L 582.14166,59.331266   L 582.14166,35.798753   L 610.07539,35.798753   L 610.07539,38.798648   L 584.67503,38.798648   L 584.67503,225.6588   L 582.27499,225.6588   L 582.14166,71.197519   L 582.14166,59.331266   L 582.14166,59.331266   L 582.14166,35.265438   L 581.07498,35.265438   L 581.07498,59.331266   L 581.07498,59.331266   L 581.07498,71.197519   L 581.20831,226.72543   L 585.74171,226.72543   L 585.74171,39.865278   L 611.14207,39.865278   L 611.14207,34.732123   L 581.07498,34.732123   L 581.07498,59.331266   L 581.07498,59.331266   L 581.07498,71.197519  z " clip-path="url(#clipWmfPath1)" style="fill:#000000;fill-rule:nonzero;fill-opacity:1;stroke:#000000;stroke-width:0.066667616px;stroke-linecap:round;stroke-linejoin:round;stroke-miterlimit:4;stroke-dasharray:none;stroke-opacity:1;"/>
  <path id="path212" d="  M 581.40831,70.397547   L 561.60803,70.397547   L 561.60803,58.93128   L 581.40831,58.93128   L 581.40831,70.397547  z " clip-path="url(#clipWmfPath1)" style="fill:#ffffff;fill-rule:nonzero;fill-opacity:1;stroke:none;"/>
  <path id="path214" d="  M 581.94165,58.93128   L 580.87497,58.93128   L 580.87497,69.864232   L 562.14137,69.864232   L 562.14137,59.464595   L 580.87497,59.464595   L 580.87497,69.864232   L 561.60803,69.864232   L 561.60803,70.930862   L 581.94165,70.930862   L 581.94165,58.397965   L 561.07469,58.397965   L 561.07469,70.930862   L 581.94165,70.930862   L 581.94165,58.93128  z " clip-path="url(#clipWmfPath1)" style="fill:#000000;fill-rule:nonzero;fill-opacity:1;stroke:#000000;stroke-width:0.066667616px;stroke-linecap:round;stroke-linejoin:round;stroke-miterlimit:4;stroke-dasharray:none;stroke-opacity:1;"/>
  <path id="path216" d="  M 569.14147,69.130925   L 569.00814,68.197624   L 567.40811,68.464281   L 566.67477,68.397617   L 565.94143,68.197624   L 564.67474,67.397652   L 563.87473,66.131029   L 563.67473,65.397721   L 563.60806,64.664414   L 563.67473,63.931106   L 563.87473,63.197798   L 564.67474,61.931176   L 565.94143,61.131203   L 566.67477,60.93121   L 567.40811,60.864546   L 568.14146,60.93121   L 568.8748,61.131203   L 570.14149,61.931176   L 570.9415,63.197798   L 571.1415,63.931106   L 571.20817,64.664414   L 570.9415,66.131029   L 570.14149,67.397652   L 568.8748,68.197624   L 567.40811,68.464281   L 566.6081,68.397617   L 566.47477,69.464246   L 567.40811,69.530911   L 569.27481,69.130925   L 570.80816,68.064295   L 571.87484,66.531015   L 572.27485,64.664414   L 572.20818,63.664448   L 571.87484,62.797812   L 570.80816,61.264532   L 569.27481,60.197903   L 568.40813,59.864581   L 567.40811,59.797917   L 566.4081,59.864581   L 565.54142,60.197903   L 564.00806,61.264532   L 562.94138,62.797812   L 562.60804,63.664448   L 562.54138,64.664414   L 562.60804,65.664379   L 562.94138,66.531015   L 564.00806,68.064295   L 565.54142,69.130925   L 566.4081,69.464246   L 567.40811,69.530911   L 569.14147,69.130925  z " clip-path="url(#clipWmfPath1)" style="fill:#000000;fill-rule:nonzero;fill-opacity:1;stroke:#000000;stroke-width:0.066667616px;stroke-linecap:round;stroke-linejoin:round;stroke-miterlimit:4;stroke-dasharray:none;stroke-opacity:1;"/>
  <path id="path218" d="  M 581.54165,189.46007   L 561.74137,189.46007   L 561.74137,177.9938   L 581.54165,177.9938   L 581.54165,189.46007  z " clip-path="url(#clipWmfPath1)" style="fill:#ffffff;fill-rule:nonzero;fill-opacity:1;stroke:none;"/>
  <path id="path220" d="  M 582.07499,177.9938   L 581.00831,177.9938   L 581.00831,188.92675   L 562.27471,188.92675   L 562.27471,178.52711   L 581.00831,178.52711   L 581.00831,188.92675   L 561.74137,188.92675   L 561.74137,189.99338   L 582.07499,189.99338   L 582.07499,177.46048   L 561.20802,177.46048   L 561.20802,189.99338   L 582.07499,189.99338   L 582.07499,177.9938  z " clip-path="url(#clipWmfPath1)" style="fill:#000000;fill-rule:nonzero;fill-opacity:1;stroke:#000000;stroke-width:0.066667616px;stroke-linecap:round;stroke-linejoin:round;stroke-miterlimit:4;stroke-dasharray:none;stroke-opacity:1;"/>
  <path id="path222" d="  M 569.27481,188.19344   L 569.14147,187.26014   L 567.54145,187.5268   L 566.8081,187.46014   L 566.07476,187.26014   L 564.80808,186.46017   L 564.00806,185.19355   L 563.80806,184.46024   L 563.74139,183.72693   L 563.80806,182.99362   L 564.00806,182.26032   L 564.80808,180.99369   L 566.07476,180.19372   L 566.8081,179.99373   L 567.54145,179.92706   L 568.27479,179.99373   L 569.00814,180.19372   L 570.27482,180.99369   L 571.07483,182.26032   L 571.27484,182.99362   L 571.3415,183.72693   L 571.07483,185.19355   L 570.27482,186.46017   L 569.00814,187.26014   L 567.54145,187.5268   L 566.74144,187.46014   L 566.6081,188.52676   L 567.54145,188.59343   L 569.40814,188.19344   L 570.9415,187.12681   L 572.00818,185.59353   L 572.40819,183.72693   L 572.34152,182.72697   L 572.00818,181.86033   L 570.9415,180.32705   L 569.40814,179.26042   L 568.54146,178.9271   L 567.54145,178.86043   L 566.54143,178.9271   L 565.67476,179.26042   L 564.1414,180.32705   L 563.07472,181.86033   L 562.74138,182.72697   L 562.67471,183.72693   L 562.74138,184.7269   L 563.07472,185.59353   L 564.1414,187.12681   L 565.67476,188.19344   L 566.54143,188.52676   L 567.54145,188.59343   L 569.27481,188.19344  z " clip-path="url(#clipWmfPath1)" style="fill:#000000;fill-rule:nonzero;fill-opacity:1;stroke:#000000;stroke-width:0.066667616px;stroke-linecap:round;stroke-linejoin:round;stroke-miterlimit:4;stroke-dasharray:none;stroke-opacity:1;"/>
  <path id="path250" d="  M 382.40547,74.264079   L 383.47215,74.530737   L 384.13883,75.330709   L 384.4055,76.264009   L 384.13883,77.263975   L 383.47215,77.930618   L 382.40547,78.197275   L 381.40545,77.930618   L 380.73878,77.263975   L 380.53877,76.264009   L 380.80545,75.330709   L 381.40545,74.530737   L 382.40547,74.264079  z    M 382.40547,74.397408   L 381.60546,74.73073   L 380.87211,75.397373   L 380.67211,76.264009   L 380.87211,77.130646   L 381.13878,77.530632   L 381.60546,77.797289   L 382.40547,78.063947   L 383.27215,77.797289   L 384.00549,77.130646   L 384.27216,76.264009   L 384.00549,75.397373   L 383.67215,74.997387   L 383.27215,74.73073   L 382.40547,74.397408  z    M 381.33879,74.997387   L 382.40547,74.997387   L 383.07214,75.19738   L 383.27215,75.66403   L 383.07214,76.064016   L 382.60547,76.264009   L 383.20548,77.130646   L 383.47215,77.330639   L 383.60549,77.330639   L 383.60549,77.463968   L 383.07214,77.463968   L 382.20547,76.264009   L 382.1388,76.264009   L 382.1388,77.130646   L 382.20547,77.330639   L 382.47214,77.330639   L 382.47214,77.463968   L 381.33879,77.463968   L 381.33879,77.330639   L 381.53879,77.330639   L 381.60546,77.263975   L 381.67212,76.930653   L 381.67212,75.530702   L 381.60546,75.330709   L 381.60546,75.130716   L 381.33879,75.130716   L 381.33879,74.997387  z    M 382.1388,76.197345   L 382.47214,76.130681   L 382.73881,75.930688   L 382.80547,75.66403   L 382.60547,75.330709   L 382.3388,75.064051   L 382.1388,75.130716   L 382.1388,76.197345  z   " clip-path="url(#clipWmfPath1)" style="fill:#bfbfbf;fill-rule:evenodd;fill-opacity:1;stroke:none;"/>
  <path id="path252" d="  M 522.80748,77.730625   L 522.80748,80.530527   L 522.67414,81.263835   L 522.27413,81.79715   L 521.60746,82.063807   L 520.87411,82.197136   L 497.74045,82.197136   L 497.00711,82.063807   L 496.4071,81.663821   L 495.94042,80.997178   L 495.80709,80.26387   L 495.80709,70.797533   L 495.94042,70.064225   L 496.4071,69.530911   L 497.00711,69.130925   L 497.74045,68.997596   L 520.87411,68.997596   L 521.60746,69.197589   L 522.27413,69.664239   L 522.67414,70.330883   L 522.80748,71.130855   L 522.80748,73.6641   L 534.87432,75.66403   L 522.80748,77.730625  z " clip-path="url(#clipWmfPath1)" style="fill:#ffffff;fill-rule:nonzero;fill-opacity:1;stroke:none;"/>
  <path id="path254" d="  M 534.94098,76.130681   L 535.40766,75.597366   L 534.80765,75.19738   L 522.27413,77.330639   L 522.27413,80.463863   L 522.20747,81.063842   L 521.9408,81.397164   L 521.47412,81.597157   L 520.80745,81.663821   L 497.80712,81.663821   L 497.20711,81.597157   L 496.74044,81.263835   L 496.4071,80.797185   L 496.34043,80.197206   L 496.34043,70.864198   L 496.4071,70.264219   L 496.74044,69.930897   L 497.20711,69.597575   L 497.80712,69.530911   L 520.80745,69.530911   L 521.40746,69.664239   L 521.87413,69.997561   L 522.20747,70.530876   L 522.27413,71.197519   L 522.27413,74.064086   L 531.8076,75.66403   L 522.27413,77.330639   L 522.27413,80.530527   L 522.80748,81.063842   L 523.34082,80.530527   L 523.34082,78.130611   L 534.94098,76.130681   L 534.94098,75.19738   L 523.34082,73.264114   L 523.34082,71.064191   L 523.14081,70.13089   L 522.67414,69.330918   L 521.80746,68.730939   L 520.94078,68.464281   L 497.67378,68.464281   L 496.8071,68.664274   L 496.07376,69.130925   L 495.47375,69.864232   L 495.27375,70.730869   L 495.27375,80.330534   L 495.47375,81.197171   L 496.07376,82.063807   L 496.8071,82.530458   L 497.67378,82.730451   L 520.94078,82.730451   L 521.74079,82.530458   L 522.60747,82.197136   L 523.14081,81.463828   L 523.34082,80.597192   L 523.34082,78.130611   L 534.94098,76.130681  z " clip-path="url(#clipWmfPath1)" style="fill:#000000;fill-rule:nonzero;fill-opacity:1;stroke:#000000;stroke-width:0.066667616px;stroke-linecap:round;stroke-linejoin:round;stroke-miterlimit:4;stroke-dasharray:none;stroke-opacity:1;"/>
  <path id="path256" d="  M 535.14099,44.731775   L 549.80786,44.731775   L 549.80786,109.72951   L 535.14099,109.72951   L 535.14099,44.731775  z " clip-path="url(#clipWmfPath1)" style="fill:#ffffff;fill-rule:nonzero;fill-opacity:1;stroke:none;"/>
  <path id="path258" d="  M 535.14099,44.731775   L 549.80786,44.731775   L 549.80786,109.72951   L 535.14099,109.72951   L 535.14099,44.731775  z " clip-path="url(#clipWmfPath1)" style="fill:none;stroke:#000000;stroke-width:0.066667616px;stroke-linecap:round;stroke-linejoin:round;stroke-miterlimit:4;stroke-dasharray:none;stroke-opacity:1;"/>
  <path id="path260" d="  M 546.60782,73.130785   L 538.67437,73.130785   L 538.67437,77.19731   L 546.60782,77.19731   L 546.60782,73.130785  z " clip-path="url(#clipWmfPath1)" style="fill:#000000;fill-rule:nonzero;fill-opacity:1;stroke:none;"/>
  <path id="path262" d="  M 546.60782,73.130785   L 538.67437,73.130785   L 538.67437,77.19731   L 546.60782,77.19731   L 546.60782,73.130785  z " clip-path="url(#clipWmfPath1)" style="fill:none;stroke:#000000;stroke-width:0.066667616px;stroke-linecap:round;stroke-linejoin:round;stroke-miterlimit:4;stroke-dasharray:none;stroke-opacity:1;"/>
  <path id="path264" d="  M 546.60782,78.863919   L 538.67437,78.863919   L 538.67437,82.930444   L 546.60782,82.930444   L 546.60782,78.863919  z " clip-path="url(#clipWmfPath1)" style="fill:#000000;fill-rule:nonzero;fill-opacity:1;stroke:none;"/>
  <path id="path266" d="  M 546.60782,78.863919   L 538.67437,78.863919   L 538.67437,82.930444   L 546.60782,82.930444   L 546.60782,78.863919  z " clip-path="url(#clipWmfPath1)" style="fill:none;stroke:#000000;stroke-width:0.066667616px;stroke-linecap:round;stroke-linejoin:round;stroke-miterlimit:4;stroke-dasharray:none;stroke-opacity:1;"/>
  <path id="path268" d="  M 546.60782,61.397861   L 538.67437,61.397861   L 538.67437,65.464386   L 546.60782,65.464386   L 546.60782,61.397861  z " clip-path="url(#clipWmfPath1)" style="fill:#000000;fill-rule:nonzero;fill-opacity:1;stroke:none;"/>
  <path id="path270" d="  M 546.60782,61.397861   L 538.67437,61.397861   L 538.67437,65.464386   L 546.60782,65.464386   L 546.60782,61.397861  z " clip-path="url(#clipWmfPath1)" style="fill:none;stroke:#000000;stroke-width:0.066667616px;stroke-linecap:round;stroke-linejoin:round;stroke-miterlimit:4;stroke-dasharray:none;stroke-opacity:1;"/>
  <path id="path272" d="  M 546.60782,67.06433   L 538.67437,67.06433   L 538.67437,71.130855   L 546.60782,71.130855   L 546.60782,67.06433  z " clip-path="url(#clipWmfPath1)" style="fill:#000000;fill-rule:nonzero;fill-opacity:1;stroke:none;"/>
  <path id="path274" d="  M 546.60782,67.06433   L 538.67437,67.06433   L 538.67437,71.130855   L 546.60782,71.130855   L 546.60782,67.06433  z " clip-path="url(#clipWmfPath1)" style="fill:none;stroke:#000000;stroke-width:0.066667616px;stroke-linecap:round;stroke-linejoin:round;stroke-miterlimit:4;stroke-dasharray:none;stroke-opacity:1;"/>
  <path id="path276" d="  M 546.60782,55.264741   L 538.67437,55.264741   L 538.67437,59.331266   L 546.60782,59.331266   L 546.60782,55.264741  z " clip-path="url(#clipWmfPath1)" style="fill:#000000;fill-rule:nonzero;fill-opacity:1;stroke:none;"/>
  <path id="path278" d="  M 546.60782,55.264741   L 538.67437,55.264741   L 538.67437,59.331266   L 546.60782,59.331266   L 546.60782,55.264741  z " clip-path="url(#clipWmfPath1)" style="fill:none;stroke:#000000;stroke-width:0.066667616px;stroke-linecap:round;stroke-linejoin:round;stroke-miterlimit:4;stroke-dasharray:none;stroke-opacity:1;"/>
  <path id="path280" d="  M 546.60782,49.26495   L 538.67437,49.26495   L 538.67437,53.331475   L 546.60782,53.331475   L 546.60782,49.26495  z " clip-path="url(#clipWmfPath1)" style="fill:#000000;fill-rule:nonzero;fill-opacity:1;stroke:none;"/>
  <path id="path282" d="  M 546.60782,49.26495   L 538.67437,49.26495   L 538.67437,53.331475   L 546.60782,53.331475   L 546.60782,49.26495  z " clip-path="url(#clipWmfPath1)" style="fill:none;stroke:#000000;stroke-width:0.066667616px;stroke-linecap:round;stroke-linejoin:round;stroke-miterlimit:4;stroke-dasharray:none;stroke-opacity:1;"/>
  <path id="path284" d="  M 546.60782,90.596843   L 538.67437,90.596843   L 538.67437,94.663368   L 546.60782,94.663368   L 546.60782,90.596843  z " clip-path="url(#clipWmfPath1)" style="fill:#000000;fill-rule:nonzero;fill-opacity:1;stroke:none;"/>
  <path id="path286" d="  M 546.60782,90.596843   L 538.67437,90.596843   L 538.67437,94.663368   L 546.60782,94.663368   L 546.60782,90.596843  z " clip-path="url(#clipWmfPath1)" style="fill:none;stroke:#000000;stroke-width:0.066667616px;stroke-linecap:round;stroke-linejoin:round;stroke-miterlimit:4;stroke-dasharray:none;stroke-opacity:1;"/>
  <path id="path288" d="  M 546.60782,96.329977   L 538.67437,96.329977   L 538.67437,100.3965   L 546.60782,100.3965   L 546.60782,96.329977  z " clip-path="url(#clipWmfPath1)" style="fill:#000000;fill-rule:nonzero;fill-opacity:1;stroke:none;"/>
  <path id="path290" d="  M 546.60782,96.329977   L 538.67437,96.329977   L 538.67437,100.3965   L 546.60782,100.3965   L 546.60782,96.329977  z " clip-path="url(#clipWmfPath1)" style="fill:none;stroke:#000000;stroke-width:0.066667616px;stroke-linecap:round;stroke-linejoin:round;stroke-miterlimit:4;stroke-dasharray:none;stroke-opacity:1;"/>
  <path id="path292" d="  M 546.60782,102.12977   L 538.67437,102.12977   L 538.67437,106.1963   L 546.60782,106.1963   L 546.60782,102.12977  z " clip-path="url(#clipWmfPath1)" style="fill:#000000;fill-rule:nonzero;fill-opacity:1;stroke:none;"/>
  <path id="path294" d="  M 546.60782,102.12977   L 538.67437,102.12977   L 538.67437,106.1963   L 546.60782,106.1963   L 546.60782,102.12977  z " clip-path="url(#clipWmfPath1)" style="fill:none;stroke:#000000;stroke-width:0.066667616px;stroke-linecap:round;stroke-linejoin:round;stroke-miterlimit:4;stroke-dasharray:none;stroke-opacity:1;"/>
  <path id="path296" d="  M 546.60782,84.530388   L 538.67437,84.530388   L 538.67437,88.596913   L 546.60782,88.596913   L 546.60782,84.530388  z " clip-path="url(#clipWmfPath1)" style="fill:#000000;fill-rule:nonzero;fill-opacity:1;stroke:none;"/>
  <path id="path298" d="  M 546.60782,84.530388   L 538.67437,84.530388   L 538.67437,88.596913   L 546.60782,88.596913   L 546.60782,84.530388  z " clip-path="url(#clipWmfPath1)" style="fill:none;stroke:#000000;stroke-width:0.066667616px;stroke-linecap:round;stroke-linejoin:round;stroke-miterlimit:4;stroke-dasharray:none;stroke-opacity:1;"/>
  <path id="path300" d="  M 535.14099,119.99582   L 549.80786,119.99582   L 549.80786,184.99355   L 535.14099,184.99355   L 535.14099,119.99582  z " clip-path="url(#clipWmfPath1)" style="fill:#ffffff;fill-rule:nonzero;fill-opacity:1;stroke:none;"/>
  <path id="path302" d="  M 535.14099,119.99582   L 549.80786,119.99582   L 549.80786,184.99355   L 535.14099,184.99355   L 535.14099,119.99582  z " clip-path="url(#clipWmfPath1)" style="fill:none;stroke:#000000;stroke-width:0.066667616px;stroke-linecap:round;stroke-linejoin:round;stroke-miterlimit:4;stroke-dasharray:none;stroke-opacity:1;"/>
  <path id="path304" d="  M 546.60782,148.39483   L 538.67437,148.39483   L 538.67437,152.46135   L 546.60782,152.46135   L 546.60782,148.39483  z " clip-path="url(#clipWmfPath1)" style="fill:#000000;fill-rule:nonzero;fill-opacity:1;stroke:none;"/>
  <path id="path306" d="  M 546.60782,148.39483   L 538.67437,148.39483   L 538.67437,152.46135   L 546.60782,152.46135   L 546.60782,148.39483  z " clip-path="url(#clipWmfPath1)" style="fill:none;stroke:#000000;stroke-width:0.066667616px;stroke-linecap:round;stroke-linejoin:round;stroke-miterlimit:4;stroke-dasharray:none;stroke-opacity:1;"/>
  <path id="path308" d="  M 546.60782,154.12796   L 538.67437,154.12796   L 538.67437,158.19449   L 546.60782,158.19449   L 546.60782,154.12796  z " clip-path="url(#clipWmfPath1)" style="fill:#000000;fill-rule:nonzero;fill-opacity:1;stroke:none;"/>
  <path id="path310" d="  M 546.60782,154.12796   L 538.67437,154.12796   L 538.67437,158.19449   L 546.60782,158.19449   L 546.60782,154.12796  z " clip-path="url(#clipWmfPath1)" style="fill:none;stroke:#000000;stroke-width:0.066667616px;stroke-linecap:round;stroke-linejoin:round;stroke-miterlimit:4;stroke-dasharray:none;stroke-opacity:1;"/>
  <path id="path312" d="  M 546.60782,136.66191   L 538.67437,136.66191   L 538.67437,140.72843   L 546.60782,140.72843   L 546.60782,136.66191  z " clip-path="url(#clipWmfPath1)" style="fill:#000000;fill-rule:nonzero;fill-opacity:1;stroke:none;"/>
  <path id="path314" d="  M 546.60782,136.66191   L 538.67437,136.66191   L 538.67437,140.72843   L 546.60782,140.72843   L 546.60782,136.66191  z " clip-path="url(#clipWmfPath1)" style="fill:none;stroke:#000000;stroke-width:0.066667616px;stroke-linecap:round;stroke-linejoin:round;stroke-miterlimit:4;stroke-dasharray:none;stroke-opacity:1;"/>
  <path id="path316" d="  M 546.60782,142.32837   L 538.67437,142.32837   L 538.67437,146.3949   L 546.60782,146.3949   L 546.60782,142.32837  z " clip-path="url(#clipWmfPath1)" style="fill:#000000;fill-rule:nonzero;fill-opacity:1;stroke:none;"/>
  <path id="path318" d="  M 546.60782,142.32837   L 538.67437,142.32837   L 538.67437,146.3949   L 546.60782,146.3949   L 546.60782,142.32837  z " clip-path="url(#clipWmfPath1)" style="fill:none;stroke:#000000;stroke-width:0.066667616px;stroke-linecap:round;stroke-linejoin:round;stroke-miterlimit:4;stroke-dasharray:none;stroke-opacity:1;"/>
  <path id="path320" d="  M 546.60782,130.52879   L 538.67437,130.52879   L 538.67437,134.59531   L 546.60782,134.59531   L 546.60782,130.52879  z " clip-path="url(#clipWmfPath1)" style="fill:#000000;fill-rule:nonzero;fill-opacity:1;stroke:none;"/>
  <path id="path322" d="  M 546.60782,130.52879   L 538.67437,130.52879   L 538.67437,134.59531   L 546.60782,134.59531   L 546.60782,130.52879  z " clip-path="url(#clipWmfPath1)" style="fill:none;stroke:#000000;stroke-width:0.066667616px;stroke-linecap:round;stroke-linejoin:round;stroke-miterlimit:4;stroke-dasharray:none;stroke-opacity:1;"/>
  <path id="path324" d="  M 546.60782,124.52899   L 538.67437,124.52899   L 538.67437,128.59552   L 546.60782,128.59552   L 546.60782,124.52899  z " clip-path="url(#clipWmfPath1)" style="fill:#000000;fill-rule:nonzero;fill-opacity:1;stroke:none;"/>
  <path id="path326" d="  M 546.60782,124.52899   L 538.67437,124.52899   L 538.67437,128.59552   L 546.60782,128.59552   L 546.60782,124.52899  z " clip-path="url(#clipWmfPath1)" style="fill:none;stroke:#000000;stroke-width:0.066667616px;stroke-linecap:round;stroke-linejoin:round;stroke-miterlimit:4;stroke-dasharray:none;stroke-opacity:1;"/>
  <path id="path328" d="  M 546.60782,165.86089   L 538.67437,165.86089   L 538.67437,169.92741   L 546.60782,169.92741   L 546.60782,165.86089  z " clip-path="url(#clipWmfPath1)" style="fill:#000000;fill-rule:nonzero;fill-opacity:1;stroke:none;"/>
  <path id="path330" d="  M 546.60782,165.86089   L 538.67437,165.86089   L 538.67437,169.92741   L 546.60782,169.92741   L 546.60782,165.86089  z " clip-path="url(#clipWmfPath1)" style="fill:none;stroke:#000000;stroke-width:0.066667616px;stroke-linecap:round;stroke-linejoin:round;stroke-miterlimit:4;stroke-dasharray:none;stroke-opacity:1;"/>
  <path id="path332" d="  M 546.60782,171.59402   L 538.67437,171.59402   L 538.67437,175.66055   L 546.60782,175.66055   L 546.60782,171.59402  z " clip-path="url(#clipWmfPath1)" style="fill:#000000;fill-rule:nonzero;fill-opacity:1;stroke:none;"/>
  <path id="path334" d="  M 546.60782,171.59402   L 538.67437,171.59402   L 538.67437,175.66055   L 546.60782,175.66055   L 546.60782,171.59402  z " clip-path="url(#clipWmfPath1)" style="fill:none;stroke:#000000;stroke-width:0.066667616px;stroke-linecap:round;stroke-linejoin:round;stroke-miterlimit:4;stroke-dasharray:none;stroke-opacity:1;"/>
  <path id="path336" d="  M 546.60782,177.39382   L 538.67437,177.39382   L 538.67437,181.46034   L 546.60782,181.46034   L 546.60782,177.39382  z " clip-path="url(#clipWmfPath1)" style="fill:#000000;fill-rule:nonzero;fill-opacity:1;stroke:none;"/>
  <path id="path338" d="  M 546.60782,177.39382   L 538.67437,177.39382   L 538.67437,181.46034   L 546.60782,181.46034   L 546.60782,177.39382  z " clip-path="url(#clipWmfPath1)" style="fill:none;stroke:#000000;stroke-width:0.066667616px;stroke-linecap:round;stroke-linejoin:round;stroke-miterlimit:4;stroke-dasharray:none;stroke-opacity:1;"/>
  <path id="path340" d="  M 546.60782,159.79443   L 538.67437,159.79443   L 538.67437,163.86096   L 546.60782,163.86096   L 546.60782,159.79443  z " clip-path="url(#clipWmfPath1)" style="fill:#000000;fill-rule:nonzero;fill-opacity:1;stroke:none;"/>
  <path id="path342" d="  M 546.60782,159.79443   L 538.67437,159.79443   L 538.67437,163.86096   L 546.60782,163.86096   L 546.60782,159.79443  z " clip-path="url(#clipWmfPath1)" style="fill:none;stroke:#000000;stroke-width:0.066667616px;stroke-linecap:round;stroke-linejoin:round;stroke-miterlimit:4;stroke-dasharray:none;stroke-opacity:1;"/>
  <path id="path344" d="  M 522.40747,154.12796   L 522.40747,156.92787   L 522.27413,157.66117   L 521.87413,158.19449   L 521.20745,158.46115   L 520.47411,158.59447   L 497.34044,158.59447   L 496.6071,158.46115   L 496.00709,158.06116   L 495.54042,157.39452   L 495.40708,156.66121   L 495.40708,147.19487   L 495.54042,146.46156   L 496.00709,145.92825   L 496.6071,145.52826   L 497.34044,145.39493   L 520.47411,145.39493   L 521.20745,145.59493   L 521.87413,146.06158   L 522.27413,146.72822   L 522.40747,147.52819   L 522.40747,150.06144   L 534.47431,152.06137   L 522.40747,154.12796  z " clip-path="url(#clipWmfPath1)" style="fill:#ffffff;fill-rule:nonzero;fill-opacity:1;stroke:none;"/>
  <path id="path346" d="  M 534.54098,152.52802   L 535.00765,151.9947   L 534.40764,151.59472   L 521.87413,153.72798   L 521.87413,156.8612   L 521.80746,157.46118   L 521.54079,157.7945   L 521.07412,157.9945   L 520.40744,158.06116   L 497.40711,158.06116   L 496.8071,157.9945   L 496.34043,157.66117   L 496.00709,157.19452   L 495.94042,156.59454   L 495.94042,147.26154   L 496.00709,146.66156   L 496.34043,146.32823   L 496.8071,145.99491   L 497.40711,145.92825   L 520.40744,145.92825   L 521.00745,146.06158   L 521.47412,146.3949   L 521.80746,146.92821   L 521.87413,147.59486   L 521.87413,150.46142   L 531.4076,152.06137   L 521.87413,153.72798   L 521.87413,156.92787   L 522.40747,157.46118   L 522.94081,156.92787   L 522.94081,154.52795   L 534.54098,152.52802   L 534.54098,151.59472   L 522.94081,149.66145   L 522.94081,147.46153   L 522.74081,146.52823   L 522.27413,145.72826   L 521.40746,145.12828   L 520.54078,144.86162   L 497.27378,144.86162   L 496.4071,145.06161   L 495.67375,145.52826   L 495.07375,146.26157   L 494.87374,147.12821   L 494.87374,156.72787   L 495.07375,157.59451   L 495.67375,158.46115   L 496.4071,158.9278   L 497.27378,159.12779   L 520.54078,159.12779   L 521.34079,158.9278   L 522.20747,158.59447   L 522.74081,157.86117   L 522.94081,156.99453   L 522.94081,154.52795   L 534.54098,152.52802  z " clip-path="url(#clipWmfPath1)" style="fill:#000000;fill-rule:nonzero;fill-opacity:1;stroke:#000000;stroke-width:0.066667616px;stroke-linecap:round;stroke-linejoin:round;stroke-miterlimit:4;stroke-dasharray:none;stroke-opacity:1;"/>
  <g id="g348" clip-path="url(#clipWmfPath1)"/>
  <g id="g360" clip-path="url(#clipWmfPath1)">
    <text id="text358" y="0.000000" x="0.000000" transform="matrix(1.000000,-0.000000,0.000000,1.000000,499.207138,155.994565)" style="font-size:10.687500px;font-style:normal;font-variant:normal;font-weight:400;font-stretch:Condensed;line-height:125.000000%;letter-spacing:0px;word-spacing:0px;fill:#000000;fill-opacity:1;stroke:none;font-family:Helvetica-Narrow;text-align:start;text-anchor:start;" xml:space="preserve"><tspan id="tspan356" y="0.000000" x="0.000000"><tspan id="tspan350" style="fill:#000000;font-size:10.687500px;font-style:normal;font-variant:normal;font-weight:400;font-stretch:Condensed;font-family:Helvetica-Narrow;" dy="0.000000" dx="0.000000">S</tspan><tspan id="tspan352" style="fill:#000000;font-size:10.687500px;font-style:normal;font-variant:normal;font-weight:400;font-stretch:Condensed;font-family:Helvetica-Narrow;" dy="0.000000" dx="-0.195130">W</tspan><tspan id="tspan354" style="fill:#000000;font-size:10.687500px;font-style:normal;font-variant:normal;font-weight:400;font-stretch:Condensed;font-family:Helvetica-Narrow;" dy="0.000000" dx="0.004858">1</tspan></tspan></text>
  </g>
  <g id="g362" clip-path="url(#clipWmfPath1)"/>
  <g id="g374" clip-path="url(#clipWmfPath1)">
    <text id="text372" y="0.000000" x="0.000000" transform="matrix(1.000000,-0.000000,0.000000,1.000000,499.273806,79.663891)" style="font-size:10.687500px;font-style:normal;font-variant:normal;font-weight:400;font-stretch:Condensed;line-height:125.000000%;letter-spacing:0px;word-spacing:0px;fill:#000000;fill-opacity:1;stroke:none;font-family:Helvetica-Narrow;text-align:start;text-anchor:start;" xml:space="preserve"><tspan id="tspan370" y="0.000000" x="0.000000"><tspan id="tspan364" style="fill:#000000;font-size:10.687500px;font-style:normal;font-variant:normal;font-weight:400;font-stretch:Condensed;font-family:Helvetica-Narrow;" dy="0.000000" dx="0.000000">S</tspan><tspan id="tspan366" style="fill:#000000;font-size:10.687500px;font-style:normal;font-variant:normal;font-weight:400;font-stretch:Condensed;font-family:Helvetica-Narrow;" dy="0.000000" dx="-0.102449">W</tspan><tspan id="tspan368" style="fill:#000000;font-size:10.687500px;font-style:normal;font-variant:normal;font-weight:400;font-stretch:Condensed;font-family:Helvetica-Narrow;" dy="0.000000" dx="0.004858">2</tspan></tspan></text>
  </g>
  <g id="g376" clip-path="url(#clipWmfPath1)"/>
  <g id="g428" clip-path="url(#clipWmfPath1)">
    <text id="text398" y="0.000000" x="0.000000" transform="matrix(1.000000,-0.000000,0.000000,1.000000,84.001201,218.992370)" style="font-size:10.687500px;font-style:normal;font-variant:normal;font-weight:400;font-stretch:Condensed;line-height:125.000000%;letter-spacing:0px;word-spacing:0px;fill:#000000;fill-opacity:1;stroke:none;font-family:Helvetica-Narrow;text-align:start;text-anchor:start;" xml:space="preserve"><tspan id="tspan396" y="0.000000" x="0.000000"><tspan id="tspan378" style="fill:#000000;font-size:10.687500px;font-style:normal;font-variant:normal;font-weight:400;font-stretch:Condensed;font-family:Helvetica-Narrow;" dy="0.000000" dx="0.000000">A</tspan><tspan id="tspan380" style="fill:#000000;font-size:10.687500px;font-style:normal;font-variant:normal;font-weight:400;font-stretch:Condensed;font-family:Helvetica-Narrow;" dy="0.000000" dx="-0.102449">P</tspan><tspan id="tspan382" style="fill:#000000;font-size:10.687500px;font-style:normal;font-variant:normal;font-weight:400;font-stretch:Condensed;font-family:Helvetica-Narrow;" dy="0.000000" dx="-0.102449">C</tspan><tspan id="tspan384" style="fill:#000000;font-size:10.687500px;font-style:normal;font-variant:normal;font-weight:400;font-stretch:Condensed;font-family:Helvetica-Narrow;" dy="0.000000" dx="-0.050046">-</tspan><tspan id="tspan386" style="fill:#000000;font-size:10.687500px;font-style:normal;font-variant:normal;font-weight:400;font-stretch:Condensed;font-family:Helvetica-Narrow;" dy="0.000000" dx="-0.040782">H</tspan><tspan id="tspan388" style="fill:#000000;font-size:10.687500px;font-style:normal;font-variant:normal;font-weight:400;font-stretch:Condensed;font-family:Helvetica-Narrow;" dy="0.000000" dx="-0.050046">4</tspan><tspan id="tspan390" style="fill:#000000;font-size:10.687500px;font-style:normal;font-variant:normal;font-weight:400;font-stretch:Condensed;font-family:Helvetica-Narrow;" dy="0.000000" dx="0.003434">5</tspan><tspan id="tspan392" style="fill:#000000;font-size:10.687500px;font-style:normal;font-variant:normal;font-weight:400;font-stretch:Condensed;font-family:Helvetica-Narrow;" dy="0.000000" dx="0.003434">0</tspan><tspan id="tspan394" style="fill:#000000;font-size:10.687500px;font-style:normal;font-variant:normal;font-weight:400;font-stretch:Condensed;font-family:Helvetica-Narrow;" dy="0.000000" dx="0.003434">E</tspan></tspan></text>
    <text id="text414" y="0.000000" x="62.734230" transform="matrix(1.000000,-0.000000,0.000000,1.000000,84.001201,218.992370)" style="font-size:10.687500px;font-style:normal;font-variant:normal;font-weight:400;font-stretch:Condensed;line-height:125.000000%;letter-spacing:0px;word-spacing:0px;fill:#000000;fill-opacity:1;stroke:none;font-family:Helvetica-Narrow;text-align:start;text-anchor:start;" xml:space="preserve"><tspan id="tspan412" y="0.000000" x="62.734230"><tspan id="tspan400" style="fill:#000000;font-size:10.687500px;font-style:normal;font-variant:normal;font-weight:400;font-stretch:Condensed;font-family:Helvetica-Narrow;" dy="0.000000" dx="0.000000">M</tspan><tspan id="tspan402" style="fill:#000000;font-size:10.687500px;font-style:normal;font-variant:normal;font-weight:400;font-stretch:Condensed;font-family:Helvetica-Narrow;" dy="0.000000" dx="-0.022594">E</tspan><tspan id="tspan404" style="fill:#000000;font-size:10.687500px;font-style:normal;font-variant:normal;font-weight:400;font-stretch:Condensed;font-family:Helvetica-Narrow;" dy="0.000000" dx="-0.102449">M</tspan><tspan id="tspan406" style="fill:#000000;font-size:10.687500px;font-style:normal;font-variant:normal;font-weight:400;font-stretch:Condensed;font-family:Helvetica-Narrow;" dy="0.000000" dx="-0.022594">O</tspan><tspan id="tspan408" style="fill:#000000;font-size:10.687500px;font-style:normal;font-variant:normal;font-weight:400;font-stretch:Condensed;font-family:Helvetica-Narrow;" dy="0.000000" dx="-0.074998">R</tspan><tspan id="tspan410" style="fill:#000000;font-size:10.687500px;font-style:normal;font-variant:normal;font-weight:400;font-stretch:Condensed;font-family:Helvetica-Narrow;" dy="0.000000" dx="-0.116714">Y</tspan></tspan></text>
    <text id="text426" y="0.000000" x="113.601624" transform="matrix(1.000000,-0.000000,0.000000,1.000000,84.001201,218.992370)" style="font-size:10.687500px;font-style:normal;font-variant:normal;font-weight:400;font-stretch:Condensed;line-height:125.000000%;letter-spacing:0px;word-spacing:0px;fill:#000000;fill-opacity:1;stroke:none;font-family:Helvetica-Narrow;text-align:start;text-anchor:start;" xml:space="preserve"><tspan id="tspan424" y="0.000000" x="113.601624"><tspan id="tspan416" style="fill:#000000;font-size:10.687500px;font-style:normal;font-variant:normal;font-weight:400;font-stretch:Condensed;font-family:Helvetica-Narrow;" dy="0.000000" dx="0.000000">C</tspan><tspan id="tspan418" style="fill:#000000;font-size:10.687500px;font-style:normal;font-variant:normal;font-weight:400;font-stretch:Condensed;font-family:Helvetica-Narrow;" dy="0.000000" dx="-0.050046">A</tspan><tspan id="tspan420" style="fill:#000000;font-size:10.687500px;font-style:normal;font-variant:normal;font-weight:400;font-stretch:Condensed;font-family:Helvetica-Narrow;" dy="0.000000" dx="-0.102449">R</tspan><tspan id="tspan422" style="fill:#000000;font-size:10.687500px;font-style:normal;font-variant:normal;font-weight:400;font-stretch:Condensed;font-family:Helvetica-Narrow;" dy="0.000000" dx="-0.050046">D</tspan></tspan></text>
  </g>
  <g id="g430" clip-path="url(#clipWmfPath1)"/>
  <g id="g448" clip-path="url(#clipWmfPath1)">
    <text id="text446" y="0.000000" x="0.000000" transform="matrix(1.000000,-0.000000,0.000000,1.000000,453.006478,34.732123)" style="font-size:9.312500px;font-style:normal;font-variant:normal;font-weight:400;font-stretch:Condensed;line-height:125.000000%;letter-spacing:0px;word-spacing:0px;fill:#000000;fill-opacity:1;stroke:none;font-family:Helvetica-Narrow;text-align:start;text-anchor:start;" xml:space="preserve"><tspan id="tspan444" y="0.000000" x="0.000000"><tspan id="tspan432" style="fill:#000000;font-size:9.312500px;font-style:normal;font-variant:normal;font-weight:400;font-stretch:Condensed;font-family:Helvetica-Narrow;" dy="0.000000" dx="0.000000">M</tspan><tspan id="tspan434" style="fill:#000000;font-size:9.312500px;font-style:normal;font-variant:normal;font-weight:400;font-stretch:Condensed;font-family:Helvetica-Narrow;" dy="0.000000" dx="0.202928">3</tspan><tspan id="tspan436" style="fill:#000000;font-size:9.312500px;font-style:normal;font-variant:normal;font-weight:400;font-stretch:Condensed;font-family:Helvetica-Narrow;" dy="0.000000" dx="0.183502">2</tspan><tspan id="tspan438" style="fill:#000000;font-size:9.312500px;font-style:normal;font-variant:normal;font-weight:400;font-stretch:Condensed;font-family:Helvetica-Narrow;" dy="0.000000" dx="0.183502">6</tspan><tspan id="tspan440" style="fill:#000000;font-size:9.312500px;font-style:normal;font-variant:normal;font-weight:400;font-stretch:Condensed;font-family:Helvetica-Narrow;" dy="0.000000" dx="0.183502">0</tspan><tspan id="tspan442" style="fill:#000000;font-size:9.312500px;font-style:normal;font-variant:normal;font-weight:400;font-stretch:Condensed;font-family:Helvetica-Narrow;" dy="0.000000" dx="0.183502">B</tspan></tspan></text>
  </g>
  <path id="path450" d="  M 32.533799,168.06081   L 32.533799,50.998223   L 42.600609,50.998223   L 42.600609,168.06081   L 32.533799,168.06081  z " clip-path="url(#clipWmfPath1)" style="fill:#6e6e6e;fill-rule:evenodd;fill-opacity:1;stroke:none;"/>
  <path id="path452" d="  M 32.533799,168.06081   L 32.533799,50.998223   L 42.600609,50.998223   L 42.600609,168.06081   L 32.533799,168.06081  z " clip-path="url(#clipWmfPath1)" style="fill:none;stroke:#000000;stroke-width:0.066667616px;stroke-linecap:round;stroke-linejoin:round;stroke-miterlimit:4;stroke-dasharray:none;stroke-opacity:1;"/>
  <path id="path454" d="  M 91.534642,168.06081   L 91.534642,50.998223   L 101.60145,50.998223   L 101.60145,168.06081   L 91.534642,168.06081  z " clip-path="url(#clipWmfPath1)" style="fill:#6e6e6e;fill-rule:evenodd;fill-opacity:1;stroke:none;"/>
  <path id="path456" d="  M 91.534642,168.06081   L 91.534642,50.998223   L 101.60145,50.998223   L 101.60145,168.06081   L 91.534642,168.06081  z " clip-path="url(#clipWmfPath1)" style="fill:none;stroke:#000000;stroke-width:0.066667616px;stroke-linecap:round;stroke-linejoin:round;stroke-miterlimit:4;stroke-dasharray:none;stroke-opacity:1;"/>
  <path id="path458" d="  M 88.201261,102.72975   L 88.934605,102.86308   L 89.601281,103.32973   L 90.001287,103.92971   L 90.134622,104.66302   L 90.134622,114.12936   L 90.001287,114.86266   L 89.601281,115.46264   L 88.934605,115.86263   L 88.201261,115.99596   L 45.93399,115.99596   L 45.200646,115.86263   L 44.600638,115.46264   L 44.133964,114.796   L 44.000629,114.06269   L 44.000629,104.66302   L 44.133964,103.92971   L 44.600638,103.32973   L 45.200646,102.86308   L 45.93399,102.72975   L 88.201261,102.72975  z " clip-path="url(#clipWmfPath1)" style="fill:#ffffff;fill-rule:nonzero;fill-opacity:1;stroke:none;"/>
  <path id="path460" d="  M 45.93399,102.19644   L 45.93399,103.26307   L 88.134594,103.26307   L 88.734602,103.32973   L 89.201276,103.66305   L 89.534614,104.12971   L 89.601281,104.72968   L 89.601281,114.06269   L 89.534614,114.66267   L 89.267943,115.06266   L 88.734602,115.39598   L 88.134594,115.46264   L 46.000658,115.46264   L 45.400649,115.39598   L 44.933976,115.06266   L 44.600638,114.59601   L 44.53397,113.99603   L 44.53397,104.72968   L 44.600638,104.12971   L 44.933976,103.66305   L 45.400649,103.32973   L 46.000658,103.26307   L 88.134594,103.26307   L 88.867937,103.32973   L 89.001273,102.39643   L 88.267929,102.19644   L 45.867323,102.19644   L 45.000643,102.39643   L 44.2673,102.99641   L 43.667291,103.72972   L 43.467288,104.59636   L 43.467288,114.12936   L 43.667291,114.99599   L 44.2673,115.86263   L 45.000643,116.32928   L 45.867323,116.52927   L 88.267929,116.52927   L 89.134608,116.32928   L 89.934619,115.86263   L 90.46796,115.06266   L 90.667963,114.19602   L 90.667963,104.59636   L 90.46796,103.72972   L 90.001287,102.99641   L 89.134608,102.39643   L 88.267929,102.19644   L 45.93399,102.19644  z " clip-path="url(#clipWmfPath1)" style="fill:#000000;fill-rule:nonzero;fill-opacity:1;stroke:#000000;stroke-width:0.066667616px;stroke-linecap:round;stroke-linejoin:round;stroke-miterlimit:4;stroke-dasharray:none;stroke-opacity:1;"/>
  <g id="g462" clip-path="url(#clipWmfPath1)"/>
  <g id="g482" clip-path="url(#clipWmfPath1)">
    <text id="text474" y="0.000000" x="0.000000" transform="matrix(1.000000,-0.000000,0.000000,1.000000,48.534027,113.862699)" style="font-size:10.687500px;font-style:normal;font-variant:normal;font-weight:400;font-stretch:Condensed;line-height:125.000000%;letter-spacing:0px;word-spacing:0px;fill:#000000;fill-opacity:1;stroke:none;font-family:Helvetica-Narrow;text-align:start;text-anchor:start;" xml:space="preserve"><tspan id="tspan472" y="0.000000" x="0.000000"><tspan id="tspan464" style="fill:#000000;font-size:10.687500px;font-style:normal;font-variant:normal;font-weight:400;font-stretch:Condensed;font-family:Helvetica-Narrow;" dy="0.000000" dx="0.000000">B</tspan><tspan id="tspan466" style="fill:#000000;font-size:10.687500px;font-style:normal;font-variant:normal;font-weight:400;font-stretch:Condensed;font-family:Helvetica-Narrow;" dy="0.000000" dx="-0.035782">A</tspan><tspan id="tspan468" style="fill:#000000;font-size:10.687500px;font-style:normal;font-variant:normal;font-weight:400;font-stretch:Condensed;font-family:Helvetica-Narrow;" dy="0.000000" dx="-0.035782">N</tspan><tspan id="tspan470" style="fill:#000000;font-size:10.687500px;font-style:normal;font-variant:normal;font-weight:400;font-stretch:Condensed;font-family:Helvetica-Narrow;" dy="0.000000" dx="0.016622">K</tspan></tspan></text>
    <text id="text480" y="0.000000" x="33.267142" transform="matrix(1.000000,-0.000000,0.000000,1.000000,48.534027,113.862699)" style="font-size:10.687500px;font-style:normal;font-variant:normal;font-weight:400;font-stretch:Condensed;line-height:125.000000%;letter-spacing:0px;word-spacing:0px;fill:#000000;fill-opacity:1;stroke:none;font-family:Helvetica-Narrow;text-align:start;text-anchor:start;" xml:space="preserve"><tspan id="tspan478" y="0.000000" x="33.267142"><tspan id="tspan476" style="fill:#000000;font-size:10.687500px;font-style:normal;font-variant:normal;font-weight:400;font-stretch:Condensed;font-family:Helvetica-Narrow;" dy="0.000000" dx="0.000000">3</tspan></tspan></text>
  </g>
  <path id="path484" d="  M 114.0683,168.06081   L 114.0683,50.998223   L 124.13511,50.998223   L 124.13511,168.06081   L 114.0683,168.06081  z " clip-path="url(#clipWmfPath1)" style="fill:#6e6e6e;fill-rule:evenodd;fill-opacity:1;stroke:none;"/>
  <path id="path486" d="  M 114.0683,168.06081   L 114.0683,50.998223   L 124.13511,50.998223   L 124.13511,168.06081   L 114.0683,168.06081  z " clip-path="url(#clipWmfPath1)" style="fill:none;stroke:#000000;stroke-width:0.066667616px;stroke-linecap:round;stroke-linejoin:round;stroke-miterlimit:4;stroke-dasharray:none;stroke-opacity:1;"/>
  <path id="path488" d="  M 173.06914,168.06081   L 173.06914,50.998223   L 183.13595,50.998223   L 183.13595,168.06081   L 173.06914,168.06081  z " clip-path="url(#clipWmfPath1)" style="fill:#6e6e6e;fill-rule:evenodd;fill-opacity:1;stroke:none;"/>
  <path id="path490" d="  M 173.06914,168.06081   L 173.06914,50.998223   L 183.13595,50.998223   L 183.13595,168.06081   L 173.06914,168.06081  z " clip-path="url(#clipWmfPath1)" style="fill:none;stroke:#000000;stroke-width:0.066667616px;stroke-linecap:round;stroke-linejoin:round;stroke-miterlimit:4;stroke-dasharray:none;stroke-opacity:1;"/>
  <path id="path492" d="  M 169.73576,102.72975   L 170.4691,102.86308   L 171.13578,103.32973   L 171.53579,103.92971   L 171.66912,104.66302   L 171.66912,114.12936   L 171.53579,114.86266   L 171.13578,115.46264   L 170.4691,115.86263   L 169.73576,115.99596   L 127.46849,115.99596   L 126.73515,115.86263   L 126.13514,115.46264   L 125.66846,114.796   L 125.53513,114.06269   L 125.53513,104.66302   L 125.66846,103.92971   L 126.13514,103.32973   L 126.73515,102.86308   L 127.46849,102.72975   L 169.73576,102.72975  z " clip-path="url(#clipWmfPath1)" style="fill:#ffffff;fill-rule:nonzero;fill-opacity:1;stroke:none;"/>
  <path id="path494" d="  M 127.46849,102.19644   L 127.46849,103.26307   L 169.66909,103.26307   L 170.2691,103.32973   L 170.73577,103.66305   L 171.06911,104.12971   L 171.13578,104.72968   L 171.13578,114.06269   L 171.06911,114.66267   L 170.80244,115.06266   L 170.2691,115.39598   L 169.66909,115.46264   L 127.53516,115.46264   L 126.93515,115.39598   L 126.46848,115.06266   L 126.13514,114.59601   L 126.06847,113.99603   L 126.06847,104.72968   L 126.13514,104.12971   L 126.46848,103.66305   L 126.93515,103.32973   L 127.53516,103.26307   L 169.66909,103.26307   L 170.40244,103.32973   L 170.53577,102.39643   L 169.80243,102.19644   L 127.40182,102.19644   L 126.53514,102.39643   L 125.8018,102.99641   L 125.20179,103.72972   L 125.00179,104.59636   L 125.00179,114.12936   L 125.20179,114.99599   L 125.8018,115.86263   L 126.53514,116.32928   L 127.40182,116.52927   L 169.80243,116.52927   L 170.66911,116.32928   L 171.46912,115.86263   L 172.00246,115.06266   L 172.20246,114.19602   L 172.20246,104.59636   L 172.00246,103.72972   L 171.53579,102.99641   L 170.66911,102.39643   L 169.80243,102.19644   L 127.46849,102.19644  z " clip-path="url(#clipWmfPath1)" style="fill:#000000;fill-rule:nonzero;fill-opacity:1;stroke:#000000;stroke-width:0.066667616px;stroke-linecap:round;stroke-linejoin:round;stroke-miterlimit:4;stroke-dasharray:none;stroke-opacity:1;"/>
  <g id="g496" clip-path="url(#clipWmfPath1)"/>
  <g id="g516" clip-path="url(#clipWmfPath1)">
    <text id="text508" y="0.000000" x="0.000000" transform="matrix(1.000000,-0.000000,0.000000,1.000000,129.668521,113.929364)" style="font-size:10.687500px;font-style:normal;font-variant:normal;font-weight:400;font-stretch:Condensed;line-height:125.000000%;letter-spacing:0px;word-spacing:0px;fill:#000000;fill-opacity:1;stroke:none;font-family:Helvetica-Narrow;text-align:start;text-anchor:start;" xml:space="preserve"><tspan id="tspan506" y="0.000000" x="0.000000"><tspan id="tspan498" style="fill:#000000;font-size:10.687500px;font-style:normal;font-variant:normal;font-weight:400;font-stretch:Condensed;font-family:Helvetica-Narrow;" dy="0.000000" dx="0.000000">B</tspan><tspan id="tspan500" style="fill:#000000;font-size:10.687500px;font-style:normal;font-variant:normal;font-weight:400;font-stretch:Condensed;font-family:Helvetica-Narrow;" dy="0.000000" dx="-0.035782">A</tspan><tspan id="tspan502" style="fill:#000000;font-size:10.687500px;font-style:normal;font-variant:normal;font-weight:400;font-stretch:Condensed;font-family:Helvetica-Narrow;" dy="0.000000" dx="-0.035782">N</tspan><tspan id="tspan504" style="fill:#000000;font-size:10.687500px;font-style:normal;font-variant:normal;font-weight:400;font-stretch:Condensed;font-family:Helvetica-Narrow;" dy="0.000000" dx="0.016622">K</tspan></tspan></text>
    <text id="text514" y="0.000000" x="33.267142" transform="matrix(1.000000,-0.000000,0.000000,1.000000,129.668521,113.929364)" style="font-size:10.687500px;font-style:normal;font-variant:normal;font-weight:400;font-stretch:Condensed;line-height:125.000000%;letter-spacing:0px;word-spacing:0px;fill:#000000;fill-opacity:1;stroke:none;font-family:Helvetica-Narrow;text-align:start;text-anchor:start;" xml:space="preserve"><tspan id="tspan512" y="0.000000" x="33.267142"><tspan id="tspan510" style="fill:#000000;font-size:10.687500px;font-style:normal;font-variant:normal;font-weight:400;font-stretch:Condensed;font-family:Helvetica-Narrow;" dy="0.000000" dx="0.000000">2</tspan></tspan></text>
  </g>
  <path id="path518" d="  M 198.0695,168.06081   L 198.0695,50.998223   L 208.13631,50.998223   L 208.13631,168.06081   L 198.0695,168.06081  z " clip-path="url(#clipWmfPath1)" style="fill:#6e6e6e;fill-rule:evenodd;fill-opacity:1;stroke:none;"/>
  <path id="path520" d="  M 198.0695,168.06081   L 198.0695,50.998223   L 208.13631,50.998223   L 208.13631,168.06081   L 198.0695,168.06081  z " clip-path="url(#clipWmfPath1)" style="fill:none;stroke:#000000;stroke-width:0.066667616px;stroke-linecap:round;stroke-linejoin:round;stroke-miterlimit:4;stroke-dasharray:none;stroke-opacity:1;"/>
  <path id="path522" d="  M 257.07034,168.06081   L 257.07034,50.998223   L 267.13715,50.998223   L 267.13715,168.06081   L 257.07034,168.06081  z " clip-path="url(#clipWmfPath1)" style="fill:#6e6e6e;fill-rule:evenodd;fill-opacity:1;stroke:none;"/>
  <path id="path524" d="  M 257.07034,168.06081   L 257.07034,50.998223   L 267.13715,50.998223   L 267.13715,168.06081   L 257.07034,168.06081  z " clip-path="url(#clipWmfPath1)" style="fill:none;stroke:#000000;stroke-width:0.066667616px;stroke-linecap:round;stroke-linejoin:round;stroke-miterlimit:4;stroke-dasharray:none;stroke-opacity:1;"/>
  <path id="path526" d="  M 253.73696,102.52976   L 254.47031,102.66309   L 255.13698,103.12974   L 255.53699,103.72972   L 255.67032,104.46303   L 255.67032,113.92936   L 255.53699,114.66267   L 255.13698,115.26265   L 254.47031,115.66264   L 253.73696,115.79597   L 211.46969,115.79597   L 210.73635,115.66264   L 210.13634,115.26265   L 209.66966,114.59601   L 209.53633,113.8627   L 209.53633,104.46303   L 209.66966,103.72972   L 210.13634,103.12974   L 210.73635,102.66309   L 211.46969,102.52976   L 253.73696,102.52976  z " clip-path="url(#clipWmfPath1)" style="fill:#ffffff;fill-rule:nonzero;fill-opacity:1;stroke:none;"/>
  <path id="path528" d="  M 211.46969,101.99645   L 211.46969,103.06308   L 253.67029,103.06308   L 254.2703,103.12974   L 254.73698,103.46306   L 255.07031,103.92971   L 255.13698,104.52969   L 255.13698,113.8627   L 255.07031,114.46268   L 254.80364,114.86266   L 254.2703,115.19599   L 253.67029,115.26265   L 211.53636,115.26265   L 210.93635,115.19599   L 210.46968,114.86266   L 210.13634,114.39601   L 210.06967,113.79604   L 210.06967,104.52969   L 210.13634,103.92971   L 210.46968,103.46306   L 210.93635,103.12974   L 211.53636,103.06308   L 253.67029,103.06308   L 254.40364,103.12974   L 254.53697,102.19644   L 253.80363,101.99645   L 211.40302,101.99645   L 210.53634,102.19644   L 209.803,102.79642   L 209.20299,103.52973   L 209.00299,104.39636   L 209.00299,113.92936   L 209.20299,114.796   L 209.803,115.66264   L 210.53634,116.12929   L 211.40302,116.32928   L 253.80363,116.32928   L 254.67031,116.12929   L 255.47032,115.66264   L 256.00366,114.86266   L 256.20366,113.99603   L 256.20366,104.39636   L 256.00366,103.52973   L 255.53699,102.79642   L 254.67031,102.19644   L 253.80363,101.99645   L 211.46969,101.99645  z " clip-path="url(#clipWmfPath1)" style="fill:#000000;fill-rule:nonzero;fill-opacity:1;stroke:#000000;stroke-width:0.066667616px;stroke-linecap:round;stroke-linejoin:round;stroke-miterlimit:4;stroke-dasharray:none;stroke-opacity:1;"/>
  <g id="g530" clip-path="url(#clipWmfPath1)"/>
  <g id="g550" clip-path="url(#clipWmfPath1)">
    <text id="text542" y="0.000000" x="0.000000" transform="matrix(1.000000,-0.000000,0.000000,1.000000,214.069728,113.396049)" style="font-size:10.687500px;font-style:normal;font-variant:normal;font-weight:400;font-stretch:Condensed;line-height:125.000000%;letter-spacing:0px;word-spacing:0px;fill:#000000;fill-opacity:1;stroke:none;font-family:Helvetica-Narrow;text-align:start;text-anchor:start;" xml:space="preserve"><tspan id="tspan540" y="0.000000" x="0.000000"><tspan id="tspan532" style="fill:#000000;font-size:10.687500px;font-style:normal;font-variant:normal;font-weight:400;font-stretch:Condensed;font-family:Helvetica-Narrow;" dy="0.000000" dx="0.000000">B</tspan><tspan id="tspan534" style="fill:#000000;font-size:10.687500px;font-style:normal;font-variant:normal;font-weight:400;font-stretch:Condensed;font-family:Helvetica-Narrow;" dy="0.000000" dx="-0.102449">A</tspan><tspan id="tspan536" style="fill:#000000;font-size:10.687500px;font-style:normal;font-variant:normal;font-weight:400;font-stretch:Condensed;font-family:Helvetica-Narrow;" dy="0.000000" dx="-0.102449">N</tspan><tspan id="tspan538" style="fill:#000000;font-size:10.687500px;font-style:normal;font-variant:normal;font-weight:400;font-stretch:Condensed;font-family:Helvetica-Narrow;" dy="0.000000" dx="-0.050046">K</tspan></tspan></text>
    <text id="text548" y="0.000000" x="33.000472" transform="matrix(1.000000,-0.000000,0.000000,1.000000,214.069728,113.396049)" style="font-size:10.687500px;font-style:normal;font-variant:normal;font-weight:400;font-stretch:Condensed;line-height:125.000000%;letter-spacing:0px;word-spacing:0px;fill:#000000;fill-opacity:1;stroke:none;font-family:Helvetica-Narrow;text-align:start;text-anchor:start;" xml:space="preserve"><tspan id="tspan546" y="0.000000" x="33.000472"><tspan id="tspan544" style="fill:#000000;font-size:10.687500px;font-style:normal;font-variant:normal;font-weight:400;font-stretch:Condensed;font-family:Helvetica-Narrow;" dy="0.000000" dx="0.000000">1</tspan></tspan></text>
  </g>
</svg>