<svg xmlns:dc="http://purl.org/dc/elements/1.1/" xmlns:cc="http://creativecommons.org/ns#" xmlns:rdf="http://www.w3.org/1999/02/22-rdf-syntax-ns#" xmlns:svg="http://www.w3.org/2000/svg" xmlns="http://www.w3.org/2000/svg" id="svg350" height="64.590001mm" width="80.199998mm" version="1.0">
  <metadata id="metadata354">
    <rdf:RDF>
      <cc:Work rdf:about="">
        <dc:format>image/svg+xml</dc:format>
        <dc:type rdf:resource="http://purl.org/dc/dcmitype/StillImage"/>
      </cc:Work>
    </rdf:RDF>
  </metadata>
  <defs id="defs6">
    <clipPath id="clipWmfPath1" clipPathUnits="userSpaceOnUse">
      <path id="path2" d="M 0,0 L 303.01365,0 L 303.01365,244.01522 L 0,244.01522 z"/>
    </clipPath>
    <pattern y="0" x="0" height="6" width="6" patternUnits="userSpaceOnUse" id="WMFhbasepattern"/>
  </defs>
  <path id="path8" d="  M 267.14536,209.27972   L 94.60426,209.14638   L 94.60426,214.21336   L 62.002792,214.21336   L 62.002792,209.14638   L 47.735483,209.14638   L 47.735483,22.868093   L 267.14536,22.66808   L 267.14536,209.27972  z " clip-path="url(#clipWmfPath1)" style="fill:#e5e5e5;fill-rule:nonzero;fill-opacity:1;stroke:none;"/>
  <path id="path10" d="  M 267.67872,22.66808   L 266.61201,22.66808   L 266.61201,208.74635   L 94.070903,208.61301   L 94.070903,213.67999   L 62.536149,213.67999   L 62.536149,208.61301   L 48.26884,208.61301   L 48.26884,23.40146   L 266.61201,23.201447   L 266.61201,208.74635   L 94.60426,208.61301   L 94.60426,209.67974   L 267.67872,209.81309   L 267.67872,22.134714   L 47.202126,22.334726   L 47.202126,209.67974   L 61.469435,209.67974   L 61.469435,214.74673   L 95.137618,214.74673   L 95.137618,209.67974   L 267.67872,209.81309   L 267.67872,22.66808  z " clip-path="url(#clipWmfPath1)" style="fill:#000000;fill-rule:nonzero;fill-opacity:1;stroke:#000000;stroke-width:0.066669665px;stroke-linecap:round;stroke-linejoin:round;stroke-miterlimit:4;stroke-dasharray:none;stroke-opacity:1;"/>
  <g id="g38" clip-path="url(#clipWmfPath1)"/>
  <g id="g86" clip-path="url(#clipWmfPath1)">
    <text id="text56" y="0.000000" x="0.000000" transform="matrix(1.000000,-0.000000,0.000000,1.000000,102.737960,235.281341)" style="font-size:10.687500px;font-style:normal;font-variant:normal;font-weight:400;font-stretch:Condensed;line-height:125.000000%;letter-spacing:0px;word-spacing:0px;fill:#000000;fill-opacity:1;stroke:none;font-family:Helvetica-Narrow;text-align:start;text-anchor:start;" xml:space="preserve"><tspan id="tspan54" y="0.000000" x="0.000000"><tspan id="tspan40" style="fill:#000000;font-size:10.687500px;font-style:normal;font-variant:normal;font-weight:400;font-stretch:Condensed;font-family:Helvetica-Narrow;" dy="0.000000" dx="0.000000">C</tspan><tspan id="tspan42" style="fill:#000000;font-size:10.687500px;font-style:normal;font-variant:normal;font-weight:400;font-stretch:Condensed;font-family:Helvetica-Narrow;" dy="0.000000" dx="-0.249372">O</tspan><tspan id="tspan44" style="fill:#000000;font-size:10.687500px;font-style:normal;font-variant:normal;font-weight:400;font-stretch:Condensed;font-family:Helvetica-Narrow;" dy="0.000000" dx="-0.074754">N</tspan><tspan id="tspan46" style="fill:#000000;font-size:10.687500px;font-style:normal;font-variant:normal;font-weight:400;font-stretch:Condensed;font-family:Helvetica-Narrow;" dy="0.000000" dx="-0.049816">S</tspan><tspan id="tspan48" style="fill:#000000;font-size:10.687500px;font-style:normal;font-variant:normal;font-weight:400;font-stretch:Condensed;font-family:Helvetica-Narrow;" dy="0.000000" dx="-0.102236">O</tspan><tspan id="tspan50" style="fill:#000000;font-size:10.687500px;font-style:normal;font-variant:normal;font-weight:400;font-stretch:Condensed;font-family:Helvetica-Narrow;" dy="0.000000" dx="-0.074754">L</tspan><tspan id="tspan52" style="fill:#000000;font-size:10.687500px;font-style:normal;font-variant:normal;font-weight:400;font-stretch:Condensed;font-family:Helvetica-Narrow;" dy="0.000000" dx="0.003621">E</tspan></tspan></text>
    <text id="text70" y="0.000000" x="55.469165" transform="matrix(1.000000,-0.000000,0.000000,1.000000,102.737960,235.281341)" style="font-size:10.687500px;font-style:normal;font-variant:normal;font-weight:400;font-stretch:Condensed;line-height:125.000000%;letter-spacing:0px;word-spacing:0px;fill:#000000;fill-opacity:1;stroke:none;font-family:Helvetica-Narrow;text-align:start;text-anchor:start;" xml:space="preserve"><tspan id="tspan68" y="0.000000" x="55.469165"><tspan id="tspan58" style="fill:#000000;font-size:10.687500px;font-style:normal;font-variant:normal;font-weight:400;font-stretch:Condensed;font-family:Helvetica-Narrow;" dy="0.000000" dx="0.000000">B</tspan><tspan id="tspan60" style="fill:#000000;font-size:10.687500px;font-style:normal;font-variant:normal;font-weight:400;font-stretch:Condensed;font-family:Helvetica-Narrow;" dy="0.000000" dx="-0.102236">O</tspan><tspan id="tspan62" style="fill:#000000;font-size:10.687500px;font-style:normal;font-variant:normal;font-weight:400;font-stretch:Condensed;font-family:Helvetica-Narrow;" dy="0.000000" dx="-0.074754">A</tspan><tspan id="tspan64" style="fill:#000000;font-size:10.687500px;font-style:normal;font-variant:normal;font-weight:400;font-stretch:Condensed;font-family:Helvetica-Narrow;" dy="0.000000" dx="-0.102236">R</tspan><tspan id="tspan66" style="fill:#000000;font-size:10.687500px;font-style:normal;font-variant:normal;font-weight:400;font-stretch:Condensed;font-family:Helvetica-Narrow;" dy="0.000000" dx="-0.049816">D</tspan></tspan></text>
    <text id="text84" y="0.000000" x="96.937699" transform="matrix(1.000000,-0.000000,0.000000,1.000000,102.737960,235.281341)" style="font-size:10.687500px;font-style:normal;font-variant:normal;font-weight:400;font-stretch:Condensed;line-height:125.000000%;letter-spacing:0px;word-spacing:0px;fill:#000000;fill-opacity:1;stroke:none;font-family:Helvetica-Narrow;text-align:start;text-anchor:start;" xml:space="preserve"><tspan id="tspan82" y="0.000000" x="96.937699"><tspan id="tspan72" style="fill:#000000;font-size:10.687500px;font-style:normal;font-variant:normal;font-weight:400;font-stretch:Condensed;font-family:Helvetica-Narrow;" dy="0.000000" dx="0.000000">I</tspan><tspan id="tspan74" style="fill:#000000;font-size:10.687500px;font-style:normal;font-variant:normal;font-weight:400;font-stretch:Condensed;font-family:Helvetica-Narrow;" dy="0.000000" dx="-0.026407">F</tspan><tspan id="tspan76" style="fill:#000000;font-size:10.687500px;font-style:normal;font-variant:normal;font-weight:400;font-stretch:Condensed;font-family:Helvetica-Narrow;" dy="0.000000" dx="0.056040">4</tspan><tspan id="tspan78" style="fill:#000000;font-size:10.687500px;font-style:normal;font-variant:normal;font-weight:400;font-stretch:Condensed;font-family:Helvetica-Narrow;" dy="0.000000" dx="0.003621">9</tspan><tspan id="tspan80" style="fill:#000000;font-size:10.687500px;font-style:normal;font-variant:normal;font-weight:400;font-stretch:Condensed;font-family:Helvetica-Narrow;" dy="0.000000" dx="0.003621">6</tspan></tspan></text>
  </g>
  <path id="path88" d="  M 157.6071,29.001809   L 162.27397,29.001809   L 162.27397,48.936385   L 157.6071,48.936385   L 157.6071,29.001809  z " clip-path="url(#clipWmfPath1)" style="fill:#ffffff;fill-rule:nonzero;fill-opacity:1;stroke:none;"/>
  <path id="path90" d="  M 157.6071,29.001809   L 162.27397,29.001809   L 162.27397,48.936385   L 157.6071,48.936385   L 157.6071,29.001809  z " clip-path="url(#clipWmfPath1)" style="fill:none;stroke:#000000;stroke-width:0.066669665px;stroke-linecap:round;stroke-linejoin:round;stroke-miterlimit:4;stroke-dasharray:none;stroke-opacity:1;"/>
  <path id="path92" d="  M 184.00829,185.67825   L 184.00829,181.01129   L 226.47687,181.01129   L 226.47687,185.67825   L 184.00829,185.67825  z " clip-path="url(#clipWmfPath1)" style="fill:#ffffff;fill-rule:nonzero;fill-opacity:1;stroke:none;"/>
  <path id="path94" d="  M 184.00829,185.67825   L 184.00829,181.01129   L 226.47687,181.01129   L 226.47687,185.67825   L 184.00829,185.67825  z " clip-path="url(#clipWmfPath1)" style="fill:none;stroke:#000000;stroke-width:0.066669665px;stroke-linecap:round;stroke-linejoin:round;stroke-miterlimit:4;stroke-dasharray:none;stroke-opacity:1;"/>
  <path id="path96" d="  M 172.87445,49.936448   L 172.87445,40.535862   L 253.07806,40.535862   L 253.07806,49.936448   L 172.87445,49.936448  z " clip-path="url(#clipWmfPath1)" style="fill:#ffffff;fill-rule:nonzero;fill-opacity:1;stroke:none;"/>
  <path id="path98" d="  M 172.87445,49.936448   L 172.87445,40.535862   L 253.07806,40.535862   L 253.07806,49.936448   L 172.87445,49.936448  z " clip-path="url(#clipWmfPath1)" style="fill:none;stroke:#000000;stroke-width:0.066669665px;stroke-linecap:round;stroke-linejoin:round;stroke-miterlimit:4;stroke-dasharray:none;stroke-opacity:1;"/>
  <path id="path100" d="  M 69.336456,49.936448   L 69.336456,40.535862   L 149.54007,40.535862   L 149.54007,49.936448   L 69.336456,49.936448  z " clip-path="url(#clipWmfPath1)" style="fill:#ffffff;fill-rule:nonzero;fill-opacity:1;stroke:none;"/>
  <path id="path102" d="  M 69.336456,49.936448   L 69.336456,40.535862   L 149.54007,40.535862   L 149.54007,49.936448   L 69.336456,49.936448  z " clip-path="url(#clipWmfPath1)" style="fill:none;stroke:#000000;stroke-width:0.066669665px;stroke-linecap:round;stroke-linejoin:round;stroke-miterlimit:4;stroke-dasharray:none;stroke-opacity:1;"/>
  <path id="path104" d="  M 175.54124,168.01048   L 175.54124,158.60989   L 255.74485,158.60989   L 255.74485,168.01048   L 175.54124,168.01048  z " clip-path="url(#clipWmfPath1)" style="fill:#ffffff;fill-rule:nonzero;fill-opacity:1;stroke:none;"/>
  <path id="path106" d="  M 175.54124,168.01048   L 175.54124,158.60989   L 255.74485,158.60989   L 255.74485,168.01048   L 175.54124,168.01048  z " clip-path="url(#clipWmfPath1)" style="fill:none;stroke:#000000;stroke-width:0.066669665px;stroke-linecap:round;stroke-linejoin:round;stroke-miterlimit:4;stroke-dasharray:none;stroke-opacity:1;"/>
  <path id="path108" d="  M 111.80503,27.201697   L 121.07212,27.201697   L 121.80549,27.068355   L 122.47218,26.66833   L 122.8722,26.068293   L 123.00554,25.334913   L 123.00554,15.867656   L 122.8722,15.134277   L 122.47218,14.53424   L 121.80549,14.067544   L 121.07212,13.934202   L 99.604485,13.934202   L 98.871119,14.067544   L 98.271092,14.467569   L 97.804404,15.067606   L 97.671065,15.800985   L 97.671065,25.201572   L 97.804404,25.934951   L 98.271092,26.601659   L 98.871119,27.001684   L 99.604485,27.135026   L 108.00486,27.135026   L 109.60494,40.335849   L 111.80503,27.201697  z " clip-path="url(#clipWmfPath1)" style="fill:#ffffff;fill-rule:nonzero;fill-opacity:1;stroke:none;"/>
  <path id="path110" d="  M 109.13825,40.269178   L 109.53827,40.869216   L 110.07162,40.40252   L 112.20505,27.735063   L 121.13879,27.735063   L 122.00549,27.535051   L 122.80553,27.068355   L 123.33889,26.268305   L 123.5389,25.401584   L 123.5389,15.800985   L 123.33889,14.934265   L 122.8722,14.200886   L 122.00549,13.600848   L 121.13879,13.400836   L 99.537816,13.400836   L 98.67111,13.600848   L 97.937744,14.067544   L 97.337717,14.867594   L 97.137708,15.734315   L 97.137708,25.268243   L 97.337717,26.134963   L 97.937744,27.001684   L 98.67111,27.46838   L 99.537816,27.668392   L 107.53818,27.668392   L 109.07158,40.40252   L 110.07162,40.40252   L 112.20505,27.735063   L 121.07212,27.735063   L 121.60548,27.201697   L 121.07212,26.66833   L 111.40502,26.66833   L 109.67161,36.802295   L 108.47155,26.601659   L 99.671155,26.601659   L 99.071128,26.534988   L 98.60444,26.201634   L 98.271092,25.734938   L 98.204422,25.134901   L 98.204422,15.867656   L 98.271092,15.267619   L 98.60444,14.867594   L 99.071128,14.53424   L 99.671155,14.467569   L 121.00545,14.467569   L 121.60548,14.53424   L 122.07216,14.867594   L 122.40551,15.33429   L 122.47218,15.934327   L 122.47218,25.268243   L 122.40551,25.86828   L 122.13883,26.268305   L 121.60548,26.601659   L 121.00545,26.66833   L 111.40502,26.66833   L 109.13825,40.269178  z " clip-path="url(#clipWmfPath1)" style="fill:#000000;fill-rule:nonzero;fill-opacity:1;stroke:#000000;stroke-width:0.066669665px;stroke-linecap:round;stroke-linejoin:round;stroke-miterlimit:4;stroke-dasharray:none;stroke-opacity:1;"/>
  <path id="path112" d="  M 58.669309,199.47911   L 58.669309,202.27928   L 58.535969,203.01266   L 58.135951,203.54603   L 57.469255,203.81271   L 56.735888,203.94605   L 33.601513,203.94605   L 32.868147,203.81271   L 32.26812,203.41269   L 31.801432,202.74598   L 31.668093,202.0126   L 31.668093,192.54534   L 31.801432,191.81196   L 32.26812,191.2786   L 32.868147,190.87857   L 33.601513,190.74523   L 56.735888,190.74523   L 57.469255,190.94524   L 58.135951,191.41194   L 58.535969,192.07865   L 58.669309,192.8787   L 58.669309,195.41219   L 70.736519,197.41231   L 58.669309,199.47911  z " clip-path="url(#clipWmfPath1)" style="fill:#ffffff;fill-rule:nonzero;fill-opacity:1;stroke:none;"/>
  <path id="path114" d="  M 70.803188,197.87901   L 71.269876,197.34564   L 70.669849,196.94562   L 58.135951,199.07908   L 58.135951,202.21261   L 58.069282,202.81265   L 57.802603,203.146   L 57.335915,203.34602   L 56.669219,203.41269   L 33.668183,203.41269   L 33.068156,203.34602   L 32.601468,203.01266   L 32.26812,202.54597   L 32.20145,201.94593   L 32.20145,192.61201   L 32.26812,192.01198   L 32.601468,191.67862   L 33.068156,191.34527   L 33.668183,191.2786   L 56.669219,191.2786   L 57.269246,191.41194   L 57.735933,191.74529   L 58.069282,192.27866   L 58.135951,192.94537   L 58.135951,195.81221   L 67.669714,197.41231   L 58.135951,199.07908   L 58.135951,202.27928   L 58.669309,202.81265   L 59.202666,202.27928   L 59.202666,199.87913   L 70.803188,197.87901   L 70.803188,196.94562   L 59.202666,195.01216   L 59.202666,192.81203   L 59.002657,191.87863   L 58.535969,191.07858   L 57.669264,190.47855   L 56.802558,190.21186   L 33.534843,190.21186   L 32.668138,190.41188   L 31.934771,190.87857   L 31.334744,191.61195   L 31.134735,192.47867   L 31.134735,202.07927   L 31.334744,202.94599   L 31.934771,203.81271   L 32.668138,204.27941   L 33.534843,204.47942   L 56.802558,204.47942   L 57.602594,204.27941   L 58.4693,203.94605   L 59.002657,203.21267   L 59.202666,202.34595   L 59.202666,199.87913   L 70.803188,197.87901  z " clip-path="url(#clipWmfPath1)" style="fill:#000000;fill-rule:nonzero;fill-opacity:1;stroke:#000000;stroke-width:0.066669665px;stroke-linecap:round;stroke-linejoin:round;stroke-miterlimit:4;stroke-dasharray:none;stroke-opacity:1;"/>
  <path id="path116" d="  M 142.33974,77.671511   L 151.74017,77.671511   L 151.74017,109.0068   L 142.33974,109.0068   L 142.33974,77.671511  z " clip-path="url(#clipWmfPath1)" style="fill:#ffffff;fill-rule:nonzero;fill-opacity:1;stroke:none;"/>
  <path id="path118" d="  M 142.33974,77.671511   L 151.74017,77.671511   L 151.74017,109.0068   L 142.33974,109.0068   L 142.33974,77.671511  z " clip-path="url(#clipWmfPath1)" style="fill:none;stroke:#000000;stroke-width:0.066669665px;stroke-linecap:round;stroke-linejoin:round;stroke-miterlimit:4;stroke-dasharray:none;stroke-opacity:1;"/>
  <path id="path120" d="  M 114.60516,142.47555   L 114.60516,127.80797   L 168.20757,127.80797   L 168.20757,142.47555   L 114.60516,142.47555  z " clip-path="url(#clipWmfPath1)" style="fill:#ffffff;fill-rule:nonzero;fill-opacity:1;stroke:none;"/>
  <path id="path122" d="  M 114.60516,142.47555   L 114.60516,127.80797   L 168.20757,127.80797   L 168.20757,142.47555   L 114.60516,142.47555  z " clip-path="url(#clipWmfPath1)" style="fill:none;stroke:#000000;stroke-width:0.066669665px;stroke-linecap:round;stroke-linejoin:round;stroke-miterlimit:4;stroke-dasharray:none;stroke-opacity:1;"/>
  <path id="path124" d="  M 143.00644,131.00817   L 143.00644,138.942   L 147.07329,138.942   L 147.07329,131.00817   L 143.00644,131.00817  z " clip-path="url(#clipWmfPath1)" style="fill:#000000;fill-rule:nonzero;fill-opacity:1;stroke:none;"/>
  <path id="path126" d="  M 143.00644,131.00817   L 143.00644,138.942   L 147.07329,138.942   L 147.07329,131.00817   L 143.00644,131.00817  z " clip-path="url(#clipWmfPath1)" style="fill:none;stroke:#000000;stroke-width:0.066669665px;stroke-linecap:round;stroke-linejoin:round;stroke-miterlimit:4;stroke-dasharray:none;stroke-opacity:1;"/>
  <path id="path128" d="  M 148.74003,131.00817   L 148.74003,138.942   L 152.80688,138.942   L 152.80688,131.00817   L 148.74003,131.00817  z " clip-path="url(#clipWmfPath1)" style="fill:#000000;fill-rule:nonzero;fill-opacity:1;stroke:none;"/>
  <path id="path130" d="  M 148.74003,131.00817   L 148.74003,138.942   L 152.80688,138.942   L 152.80688,131.00817   L 148.74003,131.00817  z " clip-path="url(#clipWmfPath1)" style="fill:none;stroke:#000000;stroke-width:0.066669665px;stroke-linecap:round;stroke-linejoin:round;stroke-miterlimit:4;stroke-dasharray:none;stroke-opacity:1;"/>
  <path id="path132" d="  M 131.27258,131.00817   L 131.27258,138.942   L 135.33943,138.942   L 135.33943,131.00817   L 131.27258,131.00817  z " clip-path="url(#clipWmfPath1)" style="fill:#000000;fill-rule:nonzero;fill-opacity:1;stroke:none;"/>
  <path id="path134" d="  M 131.27258,131.00817   L 131.27258,138.942   L 135.33943,138.942   L 135.33943,131.00817   L 131.27258,131.00817  z " clip-path="url(#clipWmfPath1)" style="fill:none;stroke:#000000;stroke-width:0.066669665px;stroke-linecap:round;stroke-linejoin:round;stroke-miterlimit:4;stroke-dasharray:none;stroke-opacity:1;"/>
  <path id="path136" d="  M 136.9395,131.00817   L 136.9395,138.942   L 141.00635,138.942   L 141.00635,131.00817   L 136.9395,131.00817  z " clip-path="url(#clipWmfPath1)" style="fill:#000000;fill-rule:nonzero;fill-opacity:1;stroke:none;"/>
  <path id="path138" d="  M 136.9395,131.00817   L 136.9395,138.942   L 141.00635,138.942   L 141.00635,131.00817   L 136.9395,131.00817  z " clip-path="url(#clipWmfPath1)" style="fill:none;stroke:#000000;stroke-width:0.066669665px;stroke-linecap:round;stroke-linejoin:round;stroke-miterlimit:4;stroke-dasharray:none;stroke-opacity:1;"/>
  <path id="path140" d="  M 125.13897,131.00817   L 125.13897,138.942   L 129.20582,138.942   L 129.20582,131.00817   L 125.13897,131.00817  z " clip-path="url(#clipWmfPath1)" style="fill:#000000;fill-rule:nonzero;fill-opacity:1;stroke:none;"/>
  <path id="path142" d="  M 125.13897,131.00817   L 125.13897,138.942   L 129.20582,138.942   L 129.20582,131.00817   L 125.13897,131.00817  z " clip-path="url(#clipWmfPath1)" style="fill:none;stroke:#000000;stroke-width:0.066669665px;stroke-linecap:round;stroke-linejoin:round;stroke-miterlimit:4;stroke-dasharray:none;stroke-opacity:1;"/>
  <path id="path144" d="  M 119.1387,131.00817   L 119.1387,138.942   L 123.20555,138.942   L 123.20555,131.00817   L 119.1387,131.00817  z " clip-path="url(#clipWmfPath1)" style="fill:#000000;fill-rule:nonzero;fill-opacity:1;stroke:none;"/>
  <path id="path146" d="  M 119.1387,131.00817   L 119.1387,138.942   L 123.20555,138.942   L 123.20555,131.00817   L 119.1387,131.00817  z " clip-path="url(#clipWmfPath1)" style="fill:none;stroke:#000000;stroke-width:0.066669665px;stroke-linecap:round;stroke-linejoin:round;stroke-miterlimit:4;stroke-dasharray:none;stroke-opacity:1;"/>
  <path id="path148" d="  M 160.47389,131.00817   L 160.47389,138.942   L 164.54074,138.942   L 164.54074,131.00817   L 160.47389,131.00817  z " clip-path="url(#clipWmfPath1)" style="fill:#000000;fill-rule:nonzero;fill-opacity:1;stroke:none;"/>
  <path id="path150" d="  M 160.47389,131.00817   L 160.47389,138.942   L 164.54074,138.942   L 164.54074,131.00817   L 160.47389,131.00817  z " clip-path="url(#clipWmfPath1)" style="fill:none;stroke:#000000;stroke-width:0.066669665px;stroke-linecap:round;stroke-linejoin:round;stroke-miterlimit:4;stroke-dasharray:none;stroke-opacity:1;"/>
  <path id="path152" d="  M 154.40695,131.00817   L 154.40695,138.942   L 158.4738,138.942   L 158.4738,131.00817   L 154.40695,131.00817  z " clip-path="url(#clipWmfPath1)" style="fill:#000000;fill-rule:nonzero;fill-opacity:1;stroke:none;"/>
  <path id="path154" d="  M 154.40695,131.00817   L 154.40695,138.942   L 158.4738,138.942   L 158.4738,131.00817   L 154.40695,131.00817  z " clip-path="url(#clipWmfPath1)" style="fill:none;stroke:#000000;stroke-width:0.066669665px;stroke-linecap:round;stroke-linejoin:round;stroke-miterlimit:4;stroke-dasharray:none;stroke-opacity:1;"/>
  <path id="path156" d="  M 94.937609,188.27841   L 94.937609,178.87782   L 107.67152,178.87782   L 107.67152,188.27841   L 94.937609,188.27841  z " clip-path="url(#clipWmfPath1)" style="fill:#ffffff;fill-rule:nonzero;fill-opacity:1;stroke:none;"/>
  <path id="path158" d="  M 94.937609,188.27841   L 94.937609,178.87782   L 107.67152,178.87782   L 107.67152,188.27841   L 94.937609,188.27841  z " clip-path="url(#clipWmfPath1)" style="fill:none;stroke:#000000;stroke-width:0.066669665px;stroke-linecap:round;stroke-linejoin:round;stroke-miterlimit:4;stroke-dasharray:none;stroke-opacity:1;"/>
  <path id="path160" d="  M 216.34308,26.735001   L 225.61016,26.735001   L 226.34353,26.601659   L 227.01022,26.201634   L 227.41024,25.601597   L 227.54358,24.868218   L 227.54358,15.400961   L 227.41024,14.667581   L 227.01022,14.067544   L 226.34353,13.600848   L 225.61016,13.467507   L 204.14253,13.467507   L 203.40916,13.600848   L 202.80913,14.000873   L 202.34245,14.600911   L 202.20911,15.33429   L 202.20911,24.734876   L 202.34245,25.468255   L 202.80913,26.134963   L 203.40916,26.534988   L 204.14253,26.66833   L 212.5429,26.66833   L 214.14298,39.869153   L 216.34308,26.735001  z " clip-path="url(#clipWmfPath1)" style="fill:#ffffff;fill-rule:nonzero;fill-opacity:1;stroke:none;"/>
  <path id="path162" d="  M 213.67629,39.802482   L 214.07631,40.40252   L 214.60966,39.935824   L 216.74309,27.268367   L 225.67683,27.268367   L 226.54354,27.068355   L 227.34357,26.601659   L 227.87693,25.801609   L 228.07694,24.934888   L 228.07694,15.33429   L 227.87693,14.467569   L 227.41024,13.73419   L 226.54354,13.134152   L 225.67683,12.93414   L 204.07586,12.93414   L 203.20915,13.134152   L 202.47578,13.600848   L 201.87576,14.400898   L 201.67575,15.267619   L 201.67575,24.801547   L 201.87576,25.668268   L 202.47578,26.534988   L 203.20915,27.001684   L 204.07586,27.201697   L 212.07622,27.201697   L 213.60962,39.935824   L 214.60966,39.935824   L 216.74309,27.268367   L 225.61016,27.268367   L 226.14352,26.735001   L 225.61016,26.201634   L 215.94306,26.201634   L 214.20965,36.3356   L 213.00959,26.134963   L 204.2092,26.134963   L 203.60917,26.068293   L 203.14248,25.734938   L 202.80913,25.268243   L 202.74246,24.668205   L 202.74246,15.400961   L 202.80913,14.800923   L 203.14248,14.400898   L 203.60917,14.067544   L 204.2092,14.000873   L 225.54349,14.000873   L 226.14352,14.067544   L 226.6102,14.400898   L 226.94355,14.867594   L 227.01022,15.467631   L 227.01022,24.801547   L 226.94355,25.401584   L 226.67687,25.801609   L 226.14352,26.134963   L 225.54349,26.201634   L 215.94306,26.201634   L 213.67629,39.802482  z " clip-path="url(#clipWmfPath1)" style="fill:#000000;fill-rule:nonzero;fill-opacity:1;stroke:#000000;stroke-width:0.066669665px;stroke-linecap:round;stroke-linejoin:round;stroke-miterlimit:4;stroke-dasharray:none;stroke-opacity:1;"/>
  <path id="path164" d="  M 191.74197,14.867594   L 192.74201,15.000936   L 193.54205,15.467631   L 194.14208,16.13434   L 194.34208,16.867719   L 194.34208,26.334976   L 194.14208,27.068355   L 193.54205,27.668392   L 192.74201,28.001746   L 191.74197,28.135088   L 171.0077,28.135088   L 169.54097,29.06848   L 166.87418,31.068604   L 164.27406,33.002058   L 162.94067,33.735437   L 163.07401,33.335412   L 163.60737,32.468692   L 165.47412,29.9352   L 167.47421,27.335038   L 168.40758,25.934951   L 168.40758,16.534365   L 168.60759,15.800985   L 169.20762,15.33429   L 170.00766,15.000936   L 171.0077,14.867594   L 191.74197,14.867594  z " clip-path="url(#clipWmfPath1)" style="fill:#ffffff;fill-rule:nonzero;fill-opacity:1;stroke:none;"/>
  <path id="path166" d="  M 171.0077,14.334227   L 171.0077,15.400961   L 191.74197,15.400961   L 192.542,15.467631   L 193.2087,15.867656   L 193.67539,16.401023   L 193.80873,16.93439   L 193.80873,26.268305   L 193.67539,26.801672   L 193.27537,27.268367   L 192.60867,27.535051   L 191.74197,27.601721   L 171.0077,27.601721   L 170.74102,27.735063   L 169.27429,28.668455   L 169.20762,28.668455   L 166.54083,30.668579   L 166.54083,30.668579   L 164.00739,32.602033   L 162.67399,33.268742   L 163.20735,34.202133   L 163.40736,33.868779   L 163.5407,33.535425   L 164.00739,32.735375   L 165.87414,30.268554   L 167.87423,27.668392   L 167.87423,27.601721   L 168.8076,26.201634   L 168.94094,25.934951   L 168.94094,16.601035   L 169.07428,16.067669   L 169.4743,15.800985   L 170.141,15.467631   L 171.0077,15.400961   L 191.74197,15.400961   L 192.67534,15.534302   L 192.80868,14.467569   L 191.80864,14.334227   L 191.74197,14.334227   L 171.0077,14.334227   L 170.94103,14.334227   L 169.94099,14.467569   L 169.80765,14.53424   L 169.00761,14.867594   L 168.87427,14.934265   L 168.27424,15.400961   L 168.14091,15.667644   L 167.9409,16.401023   L 167.87423,16.534365   L 167.87423,25.801609   L 167.07419,27.068355   L 165.0741,29.601846   L 165.0741,29.601846   L 163.20735,32.135338   L 163.20735,32.202008   L 162.67399,33.068729   L 162.60732,33.202071   L 162.47398,33.602096   L 162.60732,34.135462   L 163.20735,34.202133   L 164.54074,33.468754   L 164.60741,33.402083   L 167.20753,31.468629   L 167.20753,31.468629   L 169.80765,29.468505   L 171.14104,28.668455   L 191.74197,28.668455   L 191.80864,28.668455   L 192.80868,28.535113   L 192.94202,28.468442   L 193.74206,28.135088   L 193.8754,28.001746   L 194.47542,27.401709   L 194.60876,27.201697   L 194.80877,26.468317   L 194.87544,26.334976   L 194.87544,16.867719   L 194.80877,16.734377   L 194.60876,16.000998   L 194.54209,15.800985   L 193.94207,15.134277   L 193.80873,15.000936   L 193.00869,14.53424   L 192.80868,14.467569   L 191.80864,14.334227   L 191.74197,14.334227   L 171.0077,14.334227  z " clip-path="url(#clipWmfPath1)" style="fill:#000000;fill-rule:nonzero;fill-opacity:1;stroke:#000000;stroke-width:0.066669665px;stroke-linecap:round;stroke-linejoin:round;stroke-miterlimit:4;stroke-dasharray:none;stroke-opacity:1;"/>
  <path id="path168" d="  M 129.40583,94.53923   L 129.40583,97.339404   L 129.27249,98.072783   L 128.87247,98.60615   L 128.20577,98.872833   L 127.47241,99.006175   L 104.33803,99.006175   L 103.60467,98.872833   L 103.00464,98.472808   L 102.53795,97.8061   L 102.40461,97.072721   L 102.40461,87.605464   L 102.53795,86.872085   L 103.00464,86.338718   L 103.60467,85.938693   L 104.33803,85.805352   L 127.47241,85.805352   L 128.20577,86.005364   L 128.87247,86.47206   L 129.27249,87.138768   L 129.40583,87.938818   L 129.40583,90.472309   L 141.47304,92.472434   L 129.40583,94.53923  z " clip-path="url(#clipWmfPath1)" style="fill:#ffffff;fill-rule:nonzero;fill-opacity:1;stroke:none;"/>
  <path id="path170" d="  M 141.53971,92.93913   L 142.00639,92.405763   L 141.40637,92.005738   L 128.87247,94.139205   L 128.87247,97.272733   L 128.8058,97.872771   L 128.53912,98.206125   L 128.07243,98.406137   L 127.40574,98.472808   L 104.4047,98.472808   L 103.80467,98.406137   L 103.33799,98.072783   L 103.00464,97.606088   L 102.93797,97.00605   L 102.93797,87.672135   L 103.00464,87.072097   L 103.33799,86.738743   L 103.80467,86.405389   L 104.4047,86.338718   L 127.40574,86.338718   L 128.00576,86.47206   L 128.47245,86.805414   L 128.8058,87.338781   L 128.87247,88.005489   L 128.87247,90.872334   L 138.40623,92.472434   L 128.87247,94.139205   L 128.87247,97.339404   L 129.40583,97.872771   L 129.93918,97.339404   L 129.93918,94.939255   L 141.53971,92.93913   L 141.53971,92.005738   L 129.93918,90.072284   L 129.93918,87.872147   L 129.73918,86.938756   L 129.27249,86.138706   L 128.40578,85.538668   L 127.53908,85.271985   L 104.27136,85.271985   L 103.40466,85.471997   L 102.67129,85.938693   L 102.07126,86.672072   L 101.87125,87.538793   L 101.87125,97.139392   L 102.07126,98.006113   L 102.67129,98.872833   L 103.40466,99.339529   L 104.27136,99.539541   L 127.53908,99.539541   L 128.33911,99.339529   L 129.20582,99.006175   L 129.73918,98.272796   L 129.93918,97.406075   L 129.93918,94.939255   L 141.53971,92.93913  z " clip-path="url(#clipWmfPath1)" style="fill:#000000;fill-rule:nonzero;fill-opacity:1;stroke:#000000;stroke-width:0.066669665px;stroke-linecap:round;stroke-linejoin:round;stroke-miterlimit:4;stroke-dasharray:none;stroke-opacity:1;"/>
  <path id="path172" d="  M 102.40461,137.80859   L 102.40461,140.60877   L 102.27127,141.34215   L 101.87125,141.87552   L 101.20456,142.1422   L 100.47119,142.27554   L 77.336816,142.27554   L 76.60345,142.1422   L 76.003423,141.74217   L 75.536735,141.07547   L 75.403396,140.34209   L 75.403396,130.87483   L 75.536735,130.14145   L 76.003423,129.60808   L 76.60345,129.20806   L 77.336816,129.07472   L 100.47119,129.07472   L 101.20456,129.27473   L 101.87125,129.74143   L 102.27127,130.40813   L 102.40461,131.20818   L 102.40461,133.74167   L 114.47182,135.7418   L 102.40461,137.80859  z " clip-path="url(#clipWmfPath1)" style="fill:#ffffff;fill-rule:nonzero;fill-opacity:1;stroke:none;"/>
  <path id="path174" d="  M 114.53849,136.2085   L 115.00518,135.67513   L 114.40515,135.2751   L 101.87125,137.40857   L 101.87125,140.5421   L 101.80458,141.14214   L 101.53791,141.47549   L 101.07122,141.6755   L 100.40452,141.74217   L 77.403486,141.74217   L 76.803459,141.6755   L 76.336771,141.34215   L 76.003423,140.87545   L 75.936753,140.27542   L 75.936753,130.9415   L 76.003423,130.34146   L 76.336771,130.00811   L 76.803459,129.67475   L 77.403486,129.60808   L 100.40452,129.60808   L 101.00455,129.74143   L 101.47124,130.07478   L 101.80458,130.60815   L 101.87125,131.27485   L 101.87125,134.1417   L 111.40502,135.7418   L 101.87125,137.40857   L 101.87125,140.60877   L 102.40461,141.14214   L 102.93797,140.60877   L 102.93797,138.20862   L 114.53849,136.2085   L 114.53849,135.2751   L 102.93797,133.34165   L 102.93797,131.14151   L 102.73796,130.20812   L 102.27127,129.40807   L 101.40457,128.80803   L 100.53786,128.54135   L 77.270146,128.54135   L 76.403441,128.74136   L 75.670074,129.20806   L 75.070047,129.94144   L 74.870038,130.80816   L 74.870038,140.40876   L 75.070047,141.27548   L 75.670074,142.1422   L 76.403441,142.60889   L 77.270146,142.80891   L 100.53786,142.80891   L 101.3379,142.60889   L 102.2046,142.27554   L 102.73796,141.54216   L 102.93797,140.67544   L 102.93797,138.20862   L 114.53849,136.2085  z " clip-path="url(#clipWmfPath1)" style="fill:#000000;fill-rule:nonzero;fill-opacity:1;stroke:#000000;stroke-width:0.066669665px;stroke-linecap:round;stroke-linejoin:round;stroke-miterlimit:4;stroke-dasharray:none;stroke-opacity:1;"/>
  <path id="path176" d="  M 162.80733,164.81028   L 162.80733,167.61045   L 162.67399,168.34383   L 162.27397,168.8772   L 161.60728,169.14388   L 160.87391,169.27722   L 137.73954,169.27722   L 137.00617,169.14388   L 136.40614,168.74386   L 135.93945,168.07715   L 135.80612,167.34377   L 135.80612,157.87651   L 135.93945,157.14313   L 136.40614,156.60977   L 137.00617,156.20974   L 137.73954,156.0764   L 160.87391,156.0764   L 161.60728,156.27641   L 162.27397,156.74311   L 162.67399,157.40982   L 162.80733,158.20987   L 162.80733,160.74336   L 174.87454,162.74348   L 162.80733,164.81028  z " clip-path="url(#clipWmfPath1)" style="fill:#ffffff;fill-rule:nonzero;fill-opacity:1;stroke:none;"/>
  <path id="path178" d="  M 174.94121,163.21018   L 175.4079,162.67681   L 174.80787,162.27679   L 162.27397,164.41025   L 162.27397,167.54378   L 162.2073,168.14382   L 161.94063,168.47717   L 161.47394,168.67719   L 160.80724,168.74386   L 137.80621,168.74386   L 137.20618,168.67719   L 136.73949,168.34383   L 136.40614,167.87714   L 136.33947,167.2771   L 136.33947,157.94318   L 136.40614,157.34315   L 136.73949,157.00979   L 137.20618,156.67644   L 137.80621,156.60977   L 160.80724,156.60977   L 161.40727,156.74311   L 161.87396,157.07646   L 162.2073,157.60983   L 162.27397,158.27654   L 162.27397,161.14338   L 171.80774,162.74348   L 162.27397,164.41025   L 162.27397,167.61045   L 162.80733,168.14382   L 163.34069,167.61045   L 163.34069,165.2103   L 174.94121,163.21018   L 174.94121,162.27679   L 163.34069,160.34333   L 163.34069,158.1432   L 163.14068,157.2098   L 162.67399,156.40976   L 161.80729,155.80972   L 160.94058,155.54303   L 137.67287,155.54303   L 136.80616,155.74305   L 136.07279,156.20974   L 135.47277,156.94312   L 135.27276,157.80984   L 135.27276,167.41044   L 135.47277,168.27716   L 136.07279,169.14388   L 136.80616,169.61058   L 137.67287,169.81059   L 160.94058,169.81059   L 161.74062,169.61058   L 162.60732,169.27722   L 163.14068,168.54385   L 163.34069,167.67712   L 163.34069,165.2103   L 174.94121,163.21018  z " clip-path="url(#clipWmfPath1)" style="fill:#000000;fill-rule:nonzero;fill-opacity:1;stroke:#000000;stroke-width:0.066669665px;stroke-linecap:round;stroke-linejoin:round;stroke-miterlimit:4;stroke-dasharray:none;stroke-opacity:1;"/>
  <path id="path180" d="  M 120.0054,181.61133   L 120.0054,178.81115   L 120.13874,178.07777   L 120.60543,177.61108   L 121.20546,177.27772   L 121.93882,177.14438   L 145.0732,177.14438   L 145.80657,177.27772   L 146.47326,177.74442   L 146.87328,178.34446   L 147.00662,179.07784   L 147.00662,188.54509   L 146.87328,189.27847   L 146.47326,189.87851   L 145.80657,190.21186   L 145.0732,190.3452   L 121.93882,190.3452   L 121.20546,190.14519   L 120.60543,189.6785   L 120.13874,189.01179   L 120.0054,188.21174   L 120.0054,185.67825   L 107.93819,183.67812   L 120.0054,181.61133  z " clip-path="url(#clipWmfPath1)" style="fill:#ffffff;fill-rule:nonzero;fill-opacity:1;stroke:none;"/>
  <path id="path182" d="  M 107.87152,183.21143   L 107.40484,183.74479   L 108.00486,184.14482   L 120.53876,182.01135   L 120.53876,178.87782   L 120.60543,178.34446   L 120.93878,178.0111   L 121.40547,177.74442   L 122.00549,177.67775   L 145.00653,177.67775   L 145.60656,177.74442   L 146.07324,178.07777   L 146.40659,178.54447   L 146.47326,179.14451   L 146.47326,188.47842   L 146.40659,189.07846   L 146.13991,189.47848   L 145.67323,189.74517   L 145.00653,189.81184   L 122.00549,189.81184   L 121.40547,189.6785   L 121.00545,189.34514   L 120.60543,188.81178   L 120.53876,188.14507   L 120.53876,185.27822   L 111.005,183.67812   L 120.53876,182.01135   L 120.53876,178.81115   L 120.0054,178.27779   L 119.47205,178.81115   L 119.47205,181.2113   L 107.87152,183.21143   L 107.87152,184.14482   L 119.47205,186.07827   L 119.47205,188.27841   L 119.67206,189.2118   L 120.20541,190.01185   L 121.00545,190.61189   L 121.87215,190.87857   L 145.13987,190.87857   L 145.93991,190.67856   L 146.80661,190.27853   L 147.33997,189.47848   L 147.53998,188.61176   L 147.53998,179.01116   L 147.33997,178.14444   L 146.87328,177.41106   L 146.00657,176.81103   L 145.13987,176.61102   L 121.87215,176.61102   L 121.00545,176.81103   L 120.27208,177.21105   L 119.67206,177.81109   L 119.47205,178.74448   L 119.47205,181.2113   L 107.87152,183.21143  z " clip-path="url(#clipWmfPath1)" style="fill:#000000;fill-rule:nonzero;fill-opacity:1;stroke:#000000;stroke-width:0.066669665px;stroke-linecap:round;stroke-linejoin:round;stroke-miterlimit:4;stroke-dasharray:none;stroke-opacity:1;"/>
  <path id="path184" d="  M 204.00919,198.94574   L 194.7421,198.94574   L 194.00874,199.07908   L 193.40871,199.47911   L 192.94202,200.07915   L 192.80868,200.81252   L 192.80868,210.27978   L 192.94202,211.01316   L 193.40871,211.67987   L 194.00874,212.07989   L 194.7421,212.21324   L 216.20974,212.21324   L 216.9431,212.07989   L 217.6098,211.67987   L 218.00982,211.07983   L 218.14316,210.34645   L 218.14316,200.94587   L 218.00982,200.21249   L 217.6098,199.61245   L 216.9431,199.14575   L 216.20974,199.01241   L 207.80936,199.01241   L 206.20929,185.81159   L 204.00919,198.94574  z " clip-path="url(#clipWmfPath1)" style="fill:#ffffff;fill-rule:nonzero;fill-opacity:1;stroke:none;"/>
  <path id="path186" d="  M 206.67597,185.87826   L 206.27596,185.27822   L 205.7426,185.74492   L 203.60917,198.41237   L 194.67543,198.41237   L 193.80873,198.61239   L 193.07536,199.07908   L 192.47533,199.87913   L 192.27533,200.74585   L 192.27533,210.34645   L 192.47533,211.21317   L 193.07536,212.07989   L 193.80873,212.54659   L 194.67543,212.7466   L 216.27641,212.7466   L 217.14311,212.54659   L 217.94315,212.07989   L 218.47651,211.27984   L 218.67651,210.41312   L 218.67651,200.8792   L 218.47651,200.01247   L 218.00982,199.2791   L 217.14311,198.67906   L 216.27641,198.47905   L 208.27605,198.47905   L 206.74264,185.74492   L 205.7426,185.74492   L 203.60917,198.41237   L 194.7421,198.41237   L 194.20875,198.94574   L 194.7421,199.47911   L 204.4092,199.47911   L 206.14262,189.34514   L 207.34267,199.54578   L 216.14307,199.54578   L 216.74309,199.61245   L 217.20978,199.9458   L 217.54313,200.4125   L 217.6098,201.01254   L 217.6098,210.27978   L 217.54313,210.87982   L 217.27645,211.27984   L 216.74309,211.6132   L 216.14307,211.67987   L 194.80877,211.67987   L 194.20875,211.6132   L 193.74206,211.27984   L 193.40871,210.81315   L 193.34204,210.21311   L 193.34204,200.8792   L 193.40871,200.27916   L 193.74206,199.87913   L 194.20875,199.54578   L 194.80877,199.47911   L 204.4092,199.47911   L 206.67597,185.87826  z " clip-path="url(#clipWmfPath1)" style="fill:#000000;fill-rule:nonzero;fill-opacity:1;stroke:#000000;stroke-width:0.066669665px;stroke-linecap:round;stroke-linejoin:round;stroke-miterlimit:4;stroke-dasharray:none;stroke-opacity:1;"/>
  <g id="g188" clip-path="url(#clipWmfPath1)"/>
  <g id="g206" clip-path="url(#clipWmfPath1)">
    <text id="text204" y="0.000000" x="0.000000" transform="matrix(1.000000,-0.000000,0.000000,1.000000,199.608989,65.670762)" style="font-size:9.312500px;font-style:normal;font-variant:normal;font-weight:400;font-stretch:Condensed;line-height:125.000000%;letter-spacing:0px;word-spacing:0px;fill:#000000;fill-opacity:1;stroke:none;font-family:Helvetica-Narrow;text-align:start;text-anchor:start;" xml:space="preserve"><tspan id="tspan202" y="0.000000" x="0.000000"><tspan id="tspan190" style="fill:#000000;font-size:9.312500px;font-style:normal;font-variant:normal;font-weight:400;font-stretch:Condensed;font-family:Helvetica-Narrow;" dy="0.000000" dx="0.000000">M</tspan><tspan id="tspan192" style="fill:#000000;font-size:9.312500px;font-style:normal;font-variant:normal;font-weight:400;font-stretch:Condensed;font-family:Helvetica-Narrow;" dy="0.000000" dx="0.203162">3</tspan><tspan id="tspan194" style="fill:#000000;font-size:9.312500px;font-style:normal;font-variant:normal;font-weight:400;font-stretch:Condensed;font-family:Helvetica-Narrow;" dy="0.000000" dx="0.183670">3</tspan><tspan id="tspan196" style="fill:#000000;font-size:9.312500px;font-style:normal;font-variant:normal;font-weight:400;font-stretch:Condensed;font-family:Helvetica-Narrow;" dy="0.000000" dx="0.183670">6</tspan><tspan id="tspan198" style="fill:#000000;font-size:9.312500px;font-style:normal;font-variant:normal;font-weight:400;font-stretch:Condensed;font-family:Helvetica-Narrow;" dy="0.000000" dx="0.183670">2</tspan><tspan id="tspan200" style="fill:#000000;font-size:9.312500px;font-style:normal;font-variant:normal;font-weight:400;font-stretch:Condensed;font-family:Helvetica-Narrow;" dy="0.000000" dx="0.183670">A</tspan></tspan></text>
  </g>
  <path id="path208" d="  M 75.403396,210.14644   L 82.670389,210.14644   L 82.670389,228.48092   L 75.403396,228.48092   L 75.403396,210.14644  z " clip-path="url(#clipWmfPath1)" style="fill:#bfbfbf;fill-rule:evenodd;fill-opacity:1;stroke:none;"/>
  <path id="path210" d="  M 75.403396,210.14644   L 82.670389,210.14644   L 82.670389,228.48092   L 75.403396,228.48092   L 75.403396,210.14644  z " clip-path="url(#clipWmfPath1)" style="fill:none;stroke:#000000;stroke-width:0.066669665px;stroke-linecap:round;stroke-linejoin:round;stroke-miterlimit:4;stroke-dasharray:none;stroke-opacity:1;"/>
  <path id="path212" d="  M 82.670389,212.47992   L 75.403396,215.34676  " clip-path="url(#clipWmfPath1)" style="fill:none;stroke:#000000;stroke-width:0.066669665px;stroke-linecap:round;stroke-linejoin:round;stroke-miterlimit:4;stroke-dasharray:none;stroke-opacity:1;"/>
  <path id="path214" d="  M 82.60372,216.61351   L 75.336726,219.94705  " clip-path="url(#clipWmfPath1)" style="fill:none;stroke:#000000;stroke-width:0.066669665px;stroke-linecap:round;stroke-linejoin:round;stroke-miterlimit:4;stroke-dasharray:none;stroke-opacity:1;"/>
  <path id="path216" d="  M 71.669894,187.6117   L 86.203882,187.6117   L 86.203882,210.27978   L 71.669894,210.27978   L 71.669894,187.6117  z " clip-path="url(#clipWmfPath1)" style="fill:#bfbfbf;fill-rule:evenodd;fill-opacity:1;stroke:none;"/>
  <path id="path218" d="  M 71.669894,187.6117   L 86.203882,187.6117   L 86.203882,210.27978   L 71.669894,210.27978   L 71.669894,187.6117  z " clip-path="url(#clipWmfPath1)" style="fill:none;stroke:#000000;stroke-width:0.066669665px;stroke-linecap:round;stroke-linejoin:round;stroke-miterlimit:4;stroke-dasharray:none;stroke-opacity:1;"/>
  <path id="path220" d="  M 82.670389,220.54709   L 75.403396,223.88063  " clip-path="url(#clipWmfPath1)" style="fill:none;stroke:#000000;stroke-width:0.066669665px;stroke-linecap:round;stroke-linejoin:round;stroke-miterlimit:4;stroke-dasharray:none;stroke-opacity:1;"/>
  <path id="path222" d="  M 82.670389,224.28065   L 75.403396,227.6142  " clip-path="url(#clipWmfPath1)" style="fill:none;stroke:#000000;stroke-width:0.066669665px;stroke-linecap:round;stroke-linejoin:round;stroke-miterlimit:4;stroke-dasharray:none;stroke-opacity:1;"/>
  <g id="g224" clip-path="url(#clipWmfPath1)"/>
  <g id="g236" clip-path="url(#clipWmfPath1)">
    <text id="text234" y="0.000000" x="0.000000" transform="matrix(1.000000,-0.000000,0.000000,1.000000,206.075947,24.134839)" style="font-size:10.687500px;font-style:normal;font-variant:normal;font-weight:400;font-stretch:Condensed;line-height:125.000000%;letter-spacing:0px;word-spacing:0px;fill:#000000;fill-opacity:1;stroke:none;font-family:Helvetica-Narrow;text-align:start;text-anchor:start;" xml:space="preserve"><tspan id="tspan232" y="0.000000" x="0.000000"><tspan id="tspan226" style="fill:#000000;font-size:10.687500px;font-style:normal;font-variant:normal;font-weight:400;font-stretch:Condensed;font-family:Helvetica-Narrow;" dy="0.000000" dx="0.000000">C</tspan><tspan id="tspan228" style="fill:#000000;font-size:10.687500px;font-style:normal;font-variant:normal;font-weight:400;font-stretch:Condensed;font-family:Helvetica-Narrow;" dy="0.000000" dx="-0.049816">N</tspan><tspan id="tspan230" style="fill:#000000;font-size:10.687500px;font-style:normal;font-variant:normal;font-weight:400;font-stretch:Condensed;font-family:Helvetica-Narrow;" dy="0.000000" dx="-0.049816">1</tspan></tspan></text>
  </g>
  <g id="g238" clip-path="url(#clipWmfPath1)"/>
  <g id="g250" clip-path="url(#clipWmfPath1)">
    <text id="text248" y="0.000000" x="0.000000" transform="matrix(1.000000,-0.000000,0.000000,1.000000,139.606287,166.810404)" style="font-size:10.687500px;font-style:normal;font-variant:normal;font-weight:400;font-stretch:Condensed;line-height:125.000000%;letter-spacing:0px;word-spacing:0px;fill:#000000;fill-opacity:1;stroke:none;font-family:Helvetica-Narrow;text-align:start;text-anchor:start;" xml:space="preserve"><tspan id="tspan246" y="0.000000" x="0.000000"><tspan id="tspan240" style="fill:#000000;font-size:10.687500px;font-style:normal;font-variant:normal;font-weight:400;font-stretch:Condensed;font-family:Helvetica-Narrow;" dy="0.000000" dx="0.000000">C</tspan><tspan id="tspan242" style="fill:#000000;font-size:10.687500px;font-style:normal;font-variant:normal;font-weight:400;font-stretch:Condensed;font-family:Helvetica-Narrow;" dy="0.000000" dx="-0.049816">N</tspan><tspan id="tspan244" style="fill:#000000;font-size:10.687500px;font-style:normal;font-variant:normal;font-weight:400;font-stretch:Condensed;font-family:Helvetica-Narrow;" dy="0.000000" dx="-0.049816">2</tspan></tspan></text>
  </g>
  <g id="g252" clip-path="url(#clipWmfPath1)"/>
  <g id="g264" clip-path="url(#clipWmfPath1)">
    <text id="text262" y="0.000000" x="0.000000" transform="matrix(1.000000,-0.000000,0.000000,1.000000,124.138924,187.345018)" style="font-size:10.687500px;font-style:normal;font-variant:normal;font-weight:400;font-stretch:Condensed;line-height:125.000000%;letter-spacing:0px;word-spacing:0px;fill:#000000;fill-opacity:1;stroke:none;font-family:Helvetica-Narrow;text-align:start;text-anchor:start;" xml:space="preserve"><tspan id="tspan260" y="0.000000" x="0.000000"><tspan id="tspan254" style="fill:#000000;font-size:10.687500px;font-style:normal;font-variant:normal;font-weight:400;font-stretch:Condensed;font-family:Helvetica-Narrow;" dy="0.000000" dx="0.000000">C</tspan><tspan id="tspan256" style="fill:#000000;font-size:10.687500px;font-style:normal;font-variant:normal;font-weight:400;font-stretch:Condensed;font-family:Helvetica-Narrow;" dy="0.000000" dx="-0.049816">N</tspan><tspan id="tspan258" style="fill:#000000;font-size:10.687500px;font-style:normal;font-variant:normal;font-weight:400;font-stretch:Condensed;font-family:Helvetica-Narrow;" dy="0.000000" dx="-0.049816">8</tspan></tspan></text>
  </g>
  <g id="g266" clip-path="url(#clipWmfPath1)"/>
  <g id="g278" clip-path="url(#clipWmfPath1)">
    <text id="text276" y="0.000000" x="0.000000" transform="matrix(1.000000,-0.000000,0.000000,1.000000,100.604530,23.734814)" style="font-size:10.687500px;font-style:normal;font-variant:normal;font-weight:400;font-stretch:Condensed;line-height:125.000000%;letter-spacing:0px;word-spacing:0px;fill:#000000;fill-opacity:1;stroke:none;font-family:Helvetica-Narrow;text-align:start;text-anchor:start;" xml:space="preserve"><tspan id="tspan274" y="0.000000" x="0.000000"><tspan id="tspan268" style="fill:#000000;font-size:10.687500px;font-style:normal;font-variant:normal;font-weight:400;font-stretch:Condensed;font-family:Helvetica-Narrow;" dy="0.000000" dx="0.000000">C</tspan><tspan id="tspan270" style="fill:#000000;font-size:10.687500px;font-style:normal;font-variant:normal;font-weight:400;font-stretch:Condensed;font-family:Helvetica-Narrow;" dy="0.000000" dx="-0.049816">N</tspan><tspan id="tspan272" style="fill:#000000;font-size:10.687500px;font-style:normal;font-variant:normal;font-weight:400;font-stretch:Condensed;font-family:Helvetica-Narrow;" dy="0.000000" dx="-0.049816">6</tspan></tspan></text>
  </g>
  <g id="g280" clip-path="url(#clipWmfPath1)"/>
  <g id="g292" clip-path="url(#clipWmfPath1)">
    <text id="text290" y="0.000000" x="0.000000" transform="matrix(1.000000,-0.000000,0.000000,1.000000,172.141085,25.468255)" style="font-size:10.687500px;font-style:normal;font-variant:normal;font-weight:400;font-stretch:Condensed;line-height:125.000000%;letter-spacing:0px;word-spacing:0px;fill:#000000;fill-opacity:1;stroke:none;font-family:Helvetica-Narrow;text-align:start;text-anchor:start;" xml:space="preserve"><tspan id="tspan288" y="0.000000" x="0.000000"><tspan id="tspan282" style="fill:#000000;font-size:10.687500px;font-style:normal;font-variant:normal;font-weight:400;font-stretch:Condensed;font-family:Helvetica-Narrow;" dy="0.000000" dx="0.000000">C</tspan><tspan id="tspan284" style="fill:#000000;font-size:10.687500px;font-style:normal;font-variant:normal;font-weight:400;font-stretch:Condensed;font-family:Helvetica-Narrow;" dy="0.000000" dx="-0.049816">N</tspan><tspan id="tspan286" style="fill:#000000;font-size:10.687500px;font-style:normal;font-variant:normal;font-weight:400;font-stretch:Condensed;font-family:Helvetica-Narrow;" dy="0.000000" dx="-0.049816">5</tspan></tspan></text>
  </g>
  <g id="g294" clip-path="url(#clipWmfPath1)"/>
  <g id="g306" clip-path="url(#clipWmfPath1)">
    <text id="text304" y="0.000000" x="0.000000" transform="matrix(1.000000,-0.000000,0.000000,1.000000,107.004819,96.072659)" style="font-size:10.687500px;font-style:normal;font-variant:normal;font-weight:400;font-stretch:Condensed;line-height:125.000000%;letter-spacing:0px;word-spacing:0px;fill:#000000;fill-opacity:1;stroke:none;font-family:Helvetica-Narrow;text-align:start;text-anchor:start;" xml:space="preserve"><tspan id="tspan302" y="0.000000" x="0.000000"><tspan id="tspan296" style="fill:#000000;font-size:10.687500px;font-style:normal;font-variant:normal;font-weight:400;font-stretch:Condensed;font-family:Helvetica-Narrow;" dy="0.000000" dx="0.000000">C</tspan><tspan id="tspan298" style="fill:#000000;font-size:10.687500px;font-style:normal;font-variant:normal;font-weight:400;font-stretch:Condensed;font-family:Helvetica-Narrow;" dy="0.000000" dx="-0.049816">N</tspan><tspan id="tspan300" style="fill:#000000;font-size:10.687500px;font-style:normal;font-variant:normal;font-weight:400;font-stretch:Condensed;font-family:Helvetica-Narrow;" dy="0.000000" dx="-0.049816">3</tspan></tspan></text>
  </g>
  <g id="g308" clip-path="url(#clipWmfPath1)"/>
  <g id="g320" clip-path="url(#clipWmfPath1)">
    <text id="text318" y="0.000000" x="0.000000" transform="matrix(1.000000,-0.000000,0.000000,1.000000,196.208836,208.813023)" style="font-size:10.687500px;font-style:normal;font-variant:normal;font-weight:400;font-stretch:Condensed;line-height:125.000000%;letter-spacing:0px;word-spacing:0px;fill:#000000;fill-opacity:1;stroke:none;font-family:Helvetica-Narrow;text-align:start;text-anchor:start;" xml:space="preserve"><tspan id="tspan316" y="0.000000" x="0.000000"><tspan id="tspan310" style="fill:#000000;font-size:10.687500px;font-style:normal;font-variant:normal;font-weight:400;font-stretch:Condensed;font-family:Helvetica-Narrow;" dy="0.000000" dx="0.000000">C</tspan><tspan id="tspan312" style="fill:#000000;font-size:10.687500px;font-style:normal;font-variant:normal;font-weight:400;font-stretch:Condensed;font-family:Helvetica-Narrow;" dy="0.000000" dx="-0.049816">N</tspan><tspan id="tspan314" style="fill:#000000;font-size:10.687500px;font-style:normal;font-variant:normal;font-weight:400;font-stretch:Condensed;font-family:Helvetica-Narrow;" dy="0.000000" dx="-0.049816">4</tspan></tspan></text>
  </g>
  <g id="g322" clip-path="url(#clipWmfPath1)"/>
  <g id="g334" clip-path="url(#clipWmfPath1)">
    <text id="text332" y="0.000000" x="0.000000" transform="matrix(1.000000,-0.000000,0.000000,1.000000,36.734988,201.079208)" style="font-size:10.687500px;font-style:normal;font-variant:normal;font-weight:400;font-stretch:Condensed;line-height:125.000000%;letter-spacing:0px;word-spacing:0px;fill:#000000;fill-opacity:1;stroke:none;font-family:Helvetica-Narrow;text-align:start;text-anchor:start;" xml:space="preserve"><tspan id="tspan330" y="0.000000" x="0.000000"><tspan id="tspan324" style="fill:#000000;font-size:10.687500px;font-style:normal;font-variant:normal;font-weight:400;font-stretch:Condensed;font-family:Helvetica-Narrow;" dy="0.000000" dx="0.000000">C</tspan><tspan id="tspan326" style="fill:#000000;font-size:10.687500px;font-style:normal;font-variant:normal;font-weight:400;font-stretch:Condensed;font-family:Helvetica-Narrow;" dy="0.000000" dx="-0.049816">N</tspan><tspan id="tspan328" style="fill:#000000;font-size:10.687500px;font-style:normal;font-variant:normal;font-weight:400;font-stretch:Condensed;font-family:Helvetica-Narrow;" dy="0.000000" dx="-0.049816">7</tspan></tspan></text>
  </g>
  <g id="g336" clip-path="url(#clipWmfPath1)"/>
  <g id="g348" clip-path="url(#clipWmfPath1)">
    <text id="text346" y="0.000000" x="0.000000" transform="matrix(1.000000,-0.000000,0.000000,1.000000,79.203567,139.342024)" style="font-size:10.687500px;font-style:normal;font-variant:normal;font-weight:400;font-stretch:Condensed;line-height:125.000000%;letter-spacing:0px;word-spacing:0px;fill:#000000;fill-opacity:1;stroke:none;font-family:Helvetica-Narrow;text-align:start;text-anchor:start;" xml:space="preserve"><tspan id="tspan344" y="0.000000" x="0.000000"><tspan id="tspan338" style="fill:#000000;font-size:10.687500px;font-style:normal;font-variant:normal;font-weight:400;font-stretch:Condensed;font-family:Helvetica-Narrow;" dy="0.000000" dx="0.000000">S</tspan><tspan id="tspan340" style="fill:#000000;font-size:10.687500px;font-style:normal;font-variant:normal;font-weight:400;font-stretch:Condensed;font-family:Helvetica-Narrow;" dy="0.000000" dx="-0.102236">W</tspan><tspan id="tspan342" style="fill:#000000;font-size:10.687500px;font-style:normal;font-variant:normal;font-weight:400;font-stretch:Condensed;font-family:Helvetica-Narrow;" dy="0.000000" dx="0.005149">1</tspan></tspan></text>
  </g>
</svg>