<?xml version="1.0" encoding="UTF-8" standalone="no"?>
<svg
   xmlns:dc="http://purl.org/dc/elements/1.1/"
   xmlns:cc="http://creativecommons.org/ns#"
   xmlns:rdf="http://www.w3.org/1999/02/22-rdf-syntax-ns#"
   xmlns:svg="http://www.w3.org/2000/svg"
   xmlns="http://www.w3.org/2000/svg"
   id="svg190"
   height="60.880001mm"
   width="119.62mm"
   version="1.0">
  <metadata
     id="metadata194">
    <rdf:RDF>
      <cc:Work
         rdf:about="">
        <dc:format>image/svg+xml</dc:format>
        <dc:type
           rdf:resource="http://purl.org/dc/dcmitype/StillImage" />
      </cc:Work>
    </rdf:RDF>
  </metadata>
  <defs
     id="defs6">
    <clipPath
       id="clipWmfPath1"
       clipPathUnits="userSpaceOnUse">
      <path
         id="path2"
         d="M 0,0 L 452.00262,0 L 452.00262,229.99318 L 0,229.99318 z" />
    </clipPath>
    <pattern
       y="0"
       x="0"
       height="6"
       width="6"
       patternUnits="userSpaceOnUse"
       id="WMFhbasepattern" />
  </defs>
  <path
     id="path8"
     d="  M 97.000563,160.99522   L 11.000064,160.99522   L 11.000064,30.99908   L 98.000569,30.99908   L 98.000569,47.998576   L 353.00205,47.998576   L 353.00205,60.998191   L 418.00243,60.998191   L 418.00243,193.99425   L 97.000563,193.99425   L 97.000563,160.99522  z "
     clip-path="url(#clipWmfPath1)"
     style="fill:#e5e5e5;fill-rule:nonzero;fill-opacity:1;stroke:none;" />
  <path
     id="path10"
     d="  M 96.800562,193.99425   L 97.200564,193.99425   L 97.200564,160.79523   L 11.200065,160.79523   L 11.200065,31.199075   L 97.800568,31.199075   L 97.800568,48.19857   L 352.80205,48.19857   L 352.80205,61.198185   L 417.80243,61.198185   L 417.80243,193.79425   L 97.200564,193.79425   L 97.200564,160.79523   L 11.000064,160.79523   L 11.000064,161.19522   L 96.800562,161.19522   L 96.800562,194.19424   L 418.20243,194.19424   L 418.20243,60.798197   L 353.20205,60.798197   L 353.20205,47.798582   L 98.20057,47.798582   L 98.20057,30.799086   L 10.800063,30.799086   L 10.800063,161.19522   L 96.800562,161.19522   L 96.800562,193.99425  z "
     clip-path="url(#clipWmfPath1)"
     style="fill:#000000;fill-rule:nonzero;fill-opacity:1;stroke:#000000;stroke-width:0.06666705px;stroke-linecap:round;stroke-linejoin:round;stroke-miterlimit:4;stroke-dasharray:none;stroke-opacity:1;" />
  <path
     id="path12"
     d="  M 347.33535,75.931081   L 349.93537,76.131075   L 352.33538,76.597728   L 354.66873,77.397704   L 356.80207,78.531004   L 358.66875,79.864298   L 360.40209,81.397586   L 361.93543,83.197532   L 363.20211,85.130808   L 364.26878,87.197414   L 365.00212,89.397348   L 365.46879,91.663948   L 365.66879,93.997212   L 365.60212,96.397141   L 365.13545,98.797069   L 364.33545,101.13033   L 363.20211,103.4636   L 361.73543,105.59687   L 360.06876,107.46348   L 358.26875,109.06343   L 356.26874,110.39673   L 354.13539,111.3967   L 351.86871,112.06334   L 349.60203,112.53   L 347.33535,112.66332   L 345.002,112.53   L 342.73532,112.06334   L 340.46864,111.3967   L 338.3353,110.39673   L 336.33529,109.06343   L 334.53528,107.46348   L 332.8686,105.59687   L 331.40192,103.4636   L 330.26858,101.13033   L 329.46858,98.797069   L 329.00191,96.397141   L 328.93524,93.997212   L 329.13524,91.663948   L 329.60191,89.397348   L 330.33525,87.197414   L 331.40192,85.130808   L 332.6686,83.197532   L 334.20194,81.397586   L 335.93528,79.864298   L 337.86863,78.531004   L 340.00197,77.397704   L 342.26865,76.597728   L 344.73533,76.131075   L 347.33535,75.931081  z "
     clip-path="url(#clipWmfPath1)"
     style="fill:#bfbfbf;fill-rule:evenodd;fill-opacity:1;stroke:none;" />
  <path
     id="path14"
     d="  M 347.33535,75.931081   L 349.93537,76.131075   L 352.33538,76.597728   L 354.66873,77.397704   L 356.80207,78.531004   L 358.66875,79.864298   L 360.40209,81.397586   L 361.93543,83.197532   L 363.20211,85.130808   L 364.26878,87.197414   L 365.00212,89.397348   L 365.46879,91.663948   L 365.66879,93.997212   L 365.60212,96.397141   L 365.13545,98.797069   L 364.33545,101.13033   L 363.20211,103.4636   L 361.73543,105.59687   L 360.06876,107.46348   L 358.26875,109.06343   L 356.26874,110.39673   L 354.13539,111.3967   L 351.86871,112.06334   L 349.60203,112.53   L 347.33535,112.66332   L 345.002,112.53   L 342.73532,112.06334   L 340.46864,111.3967   L 338.3353,110.39673   L 336.33529,109.06343   L 334.53528,107.46348   L 332.8686,105.59687   L 331.40192,103.4636   L 330.26858,101.13033   L 329.46858,98.797069   L 329.00191,96.397141   L 328.93524,93.997212   L 329.13524,91.663948   L 329.60191,89.397348   L 330.33525,87.197414   L 331.40192,85.130808   L 332.6686,83.197532   L 334.20194,81.397586   L 335.93528,79.864298   L 337.86863,78.531004   L 340.00197,77.397704   L 342.26865,76.597728   L 344.73533,76.131075   L 347.33535,75.931081  z "
     clip-path="url(#clipWmfPath1)"
     style="fill:none;stroke:#000000;stroke-width:0.06666705px;stroke-linecap:round;stroke-linejoin:round;stroke-miterlimit:4;stroke-dasharray:none;stroke-opacity:1;" />
  <path
     id="path16"
     d="  M 329.20191,87.99739   L 329.20191,100.13036   L 317.06851,100.13036   L 317.06851,87.99739   L 329.20191,87.99739  z "
     clip-path="url(#clipWmfPath1)"
     style="fill:#000000;fill-rule:evenodd;fill-opacity:1;stroke:none;" />
  <path
     id="path18"
     d="  M 329.20191,87.99739   L 329.20191,100.13036   L 317.06851,100.13036   L 317.06851,87.99739   L 329.20191,87.99739  z "
     clip-path="url(#clipWmfPath1)"
     style="fill:none;stroke:#000000;stroke-width:0.06666705px;stroke-linecap:round;stroke-linejoin:round;stroke-miterlimit:4;stroke-dasharray:none;stroke-opacity:1;" />
  <path
     id="path20"
     d="  M 329.20191,90.197325   L 329.20191,98.730405   L 326.93523,98.730405   L 326.93523,90.197325   L 329.20191,90.197325  z "
     clip-path="url(#clipWmfPath1)"
     style="fill:#000000;fill-rule:evenodd;fill-opacity:1;stroke:none;" />
  <path
     id="path22"
     d="  M 329.20191,90.197325   L 329.20191,98.730405   L 326.93523,98.730405   L 326.93523,90.197325   L 329.20191,90.197325  z "
     clip-path="url(#clipWmfPath1)"
     style="fill:none;stroke:#000000;stroke-width:0.06666705px;stroke-linecap:round;stroke-linejoin:round;stroke-miterlimit:4;stroke-dasharray:none;stroke-opacity:1;" />
  <path
     id="path24"
     d="  M 355.3354,91.930606   L 357.06874,92.330595   L 358.26875,92.930577   L 359.00208,93.663888   L 359.13542,94.3972   L 358.86875,95.130512   L 358.13541,95.797158   L 356.93541,96.263811   L 355.3354,96.597135   L 317.00184,96.597135   L 317.00184,91.930606   L 355.3354,91.930606  z "
     clip-path="url(#clipWmfPath1)"
     style="fill:#ffffff;fill-rule:evenodd;fill-opacity:1;stroke:none;" />
  <path
     id="path26"
     d="  M 355.3354,91.930606   L 357.06874,92.330595   L 358.26875,92.930577   L 359.00208,93.663888   L 359.13542,94.3972   L 358.86875,95.130512   L 358.13541,95.797158   L 356.93541,96.263811   L 355.3354,96.597135   L 317.00184,96.597135   L 317.00184,91.930606   L 355.3354,91.930606  z "
     clip-path="url(#clipWmfPath1)"
     style="fill:none;stroke:#000000;stroke-width:0.06666705px;stroke-linecap:round;stroke-linejoin:round;stroke-miterlimit:4;stroke-dasharray:none;stroke-opacity:1;" />
  <path
     id="path28"
     d="  M 350.80204,91.997271   L 350.80204,96.53047   L 350.2687,96.53047   L 350.2687,91.997271   L 350.80204,91.997271  z "
     clip-path="url(#clipWmfPath1)"
     style="fill:#000000;fill-rule:evenodd;fill-opacity:1;stroke:none;" />
  <path
     id="path30"
     d="  M 350.80204,91.997271   L 350.80204,96.53047   L 350.2687,96.53047   L 350.2687,91.997271   L 350.80204,91.997271  z "
     clip-path="url(#clipWmfPath1)"
     style="fill:none;stroke:#000000;stroke-width:0.06666705px;stroke-linecap:round;stroke-linejoin:round;stroke-miterlimit:4;stroke-dasharray:none;stroke-opacity:1;" />
  <path
     id="path32"
     d="  M 352.80205,123.19635   L 357.46874,123.19635   L 357.46874,133.39604   L 352.80205,133.39604   L 352.80205,123.19635  z "
     clip-path="url(#clipWmfPath1)"
     style="fill:#ffffff;fill-rule:nonzero;fill-opacity:1;stroke:none;" />
  <path
     id="path34"
     d="  M 352.80205,123.19635   L 357.46874,123.19635   L 357.46874,133.39604   L 352.80205,133.39604   L 352.80205,123.19635  z "
     clip-path="url(#clipWmfPath1)"
     style="fill:none;stroke:#000000;stroke-width:0.06666705px;stroke-linecap:round;stroke-linejoin:round;stroke-miterlimit:4;stroke-dasharray:none;stroke-opacity:1;" />
  <path
     id="path36"
     d="  M 353.80205,124.66297   L 356.5354,124.66297   L 356.5354,127.39622   L 353.80205,127.39622   L 353.80205,124.66297  z "
     clip-path="url(#clipWmfPath1)"
     style="fill:#000000;fill-rule:nonzero;fill-opacity:1;stroke:none;" />
  <path
     id="path38"
     d="  M 353.80205,124.66297   L 356.5354,124.66297   L 356.5354,127.39622   L 353.80205,127.39622   L 353.80205,124.66297  z "
     clip-path="url(#clipWmfPath1)"
     style="fill:none;stroke:#000000;stroke-width:0.06666705px;stroke-linecap:round;stroke-linejoin:round;stroke-miterlimit:4;stroke-dasharray:none;stroke-opacity:1;" />
  <path
     id="path40"
     d="  M 353.80205,129.19617   L 356.5354,129.19617   L 356.5354,131.92942   L 353.80205,131.92942   L 353.80205,129.19617  z "
     clip-path="url(#clipWmfPath1)"
     style="fill:#000000;fill-rule:nonzero;fill-opacity:1;stroke:none;" />
  <path
     id="path42"
     d="  M 353.80205,129.19617   L 356.5354,129.19617   L 356.5354,131.92942   L 353.80205,131.92942   L 353.80205,129.19617  z "
     clip-path="url(#clipWmfPath1)"
     style="fill:none;stroke:#000000;stroke-width:0.06666705px;stroke-linecap:round;stroke-linejoin:round;stroke-miterlimit:4;stroke-dasharray:none;stroke-opacity:1;" />
  <path
     id="path44"
     d="  M 418.00243,93.997212   L 413.33573,93.997212   L 413.33573,69.997924   L 418.00243,69.997924   L 418.00243,93.997212  z "
     clip-path="url(#clipWmfPath1)"
     style="fill:#ffffff;fill-rule:nonzero;fill-opacity:1;stroke:none;" />
  <path
     id="path46"
     d="  M 418.00243,93.997212   L 413.33573,93.997212   L 413.33573,69.997924   L 418.00243,69.997924   L 418.00243,93.997212  z "
     clip-path="url(#clipWmfPath1)"
     style="fill:none;stroke:#000000;stroke-width:0.06666705px;stroke-linecap:round;stroke-linejoin:round;stroke-miterlimit:4;stroke-dasharray:none;stroke-opacity:1;" />
  <path
     id="path48"
     d="  M 431.2025,78.664333   L 414.40241,78.664333   L 414.40241,75.931081   L 431.2025,75.931081   L 431.2025,78.664333  z "
     clip-path="url(#clipWmfPath1)"
     style="fill:#000000;fill-rule:nonzero;fill-opacity:1;stroke:none;" />
  <path
     id="path50"
     d="  M 431.2025,78.664333   L 414.40241,78.664333   L 414.40241,75.931081   L 431.2025,75.931081   L 431.2025,78.664333  z "
     clip-path="url(#clipWmfPath1)"
     style="fill:none;stroke:#000000;stroke-width:0.06666705px;stroke-linecap:round;stroke-linejoin:round;stroke-miterlimit:4;stroke-dasharray:none;stroke-opacity:1;" />
  <path
     id="path52"
     d="  M 431.2025,73.93114   L 414.40241,73.93114   L 414.40241,71.197888   L 431.2025,71.197888   L 431.2025,73.93114  z "
     clip-path="url(#clipWmfPath1)"
     style="fill:#000000;fill-rule:nonzero;fill-opacity:1;stroke:none;" />
  <path
     id="path54"
     d="  M 431.2025,73.93114   L 414.40241,73.93114   L 414.40241,71.197888   L 431.2025,71.197888   L 431.2025,73.93114  z "
     clip-path="url(#clipWmfPath1)"
     style="fill:none;stroke:#000000;stroke-width:0.06666705px;stroke-linecap:round;stroke-linejoin:round;stroke-miterlimit:4;stroke-dasharray:none;stroke-opacity:1;" />
  <path
     id="path56"
     d="  M 431.13584,83.264197   L 414.2024,83.264197   L 414.2024,80.530945   L 431.13584,80.530945   L 431.13584,83.264197  z "
     clip-path="url(#clipWmfPath1)"
     style="fill:#000000;fill-rule:nonzero;fill-opacity:1;stroke:none;" />
  <path
     id="path58"
     d="  M 431.13584,83.264197   L 414.2024,83.264197   L 414.2024,80.530945   L 431.13584,80.530945   L 431.13584,83.264197  z "
     clip-path="url(#clipWmfPath1)"
     style="fill:none;stroke:#000000;stroke-width:0.06666705px;stroke-linecap:round;stroke-linejoin:round;stroke-miterlimit:4;stroke-dasharray:none;stroke-opacity:1;" />
  <path
     id="path60"
     d="  M 431.06917,87.797396   L 414.2024,87.797396   L 414.2024,85.064143   L 431.06917,85.064143   L 431.06917,87.797396  z "
     clip-path="url(#clipWmfPath1)"
     style="fill:#000000;fill-rule:nonzero;fill-opacity:1;stroke:none;" />
  <path
     id="path62"
     d="  M 431.06917,87.797396   L 414.2024,87.797396   L 414.2024,85.064143   L 431.06917,85.064143   L 431.06917,87.797396  z "
     clip-path="url(#clipWmfPath1)"
     style="fill:none;stroke:#000000;stroke-width:0.06666705px;stroke-linecap:round;stroke-linejoin:round;stroke-miterlimit:4;stroke-dasharray:none;stroke-opacity:1;" />
  <path
     id="path64"
     d="  M 431.2025,92.197265   L 414.26907,92.197265   L 414.26907,89.464013   L 431.2025,89.464013   L 431.2025,92.197265  z "
     clip-path="url(#clipWmfPath1)"
     style="fill:#000000;fill-rule:nonzero;fill-opacity:1;stroke:none;" />
  <path
     id="path66"
     d="  M 431.2025,92.197265   L 414.26907,92.197265   L 414.26907,89.464013   L 431.2025,89.464013   L 431.2025,92.197265  z "
     clip-path="url(#clipWmfPath1)"
     style="fill:none;stroke:#000000;stroke-width:0.06666705px;stroke-linecap:round;stroke-linejoin:round;stroke-miterlimit:4;stroke-dasharray:none;stroke-opacity:1;" />
  <path
     id="path68"
     d="  M 369.66881,130.52946   L 369.66881,133.32938   L 369.80215,134.06269   L 370.26882,134.59601   L 370.86882,134.86267   L 371.60216,134.996   L 386.66891,134.996   L 387.40225,134.86267   L 388.06892,134.46268   L 388.46892,133.8627   L 388.60226,133.12938   L 388.60226,123.663   L 388.46892,122.92969   L 388.06892,122.39637   L 387.40225,121.99638   L 386.66891,121.86305   L 371.60216,121.86305   L 370.86882,122.06305   L 370.26882,122.5297   L 369.80215,123.12968   L 369.66881,123.92966   L 369.66881,126.46292   L 357.60208,128.46286   L 369.66881,130.52946  z "
     clip-path="url(#clipWmfPath1)"
     style="fill:#ffffff;fill-rule:nonzero;fill-opacity:1;stroke:none;" />
  <path
     id="path70"
     d="  M 357.66874,127.9962   L 357.06874,128.39619   L 357.53541,128.92951   L 369.13548,130.92945   L 369.13548,133.39604   L 369.33548,134.26268   L 369.93548,134.996   L 370.73549,135.32932   L 371.53549,135.52931   L 386.73558,135.52931   L 387.60225,135.32932   L 388.40226,134.86267   L 388.93559,134.06269   L 389.13559,133.19605   L 389.13559,123.59633   L 388.93559,122.72969   L 388.40226,121.99638   L 387.60225,121.52973   L 386.73558,121.32973   L 371.53549,121.32973   L 370.66882,121.59639   L 369.93548,122.19638   L 369.33548,122.92969   L 369.13548,123.86299   L 369.13548,126.06293   L 357.53541,127.9962   L 357.53541,128.92951   L 369.13548,130.92945   L 369.13548,133.32938   L 369.66881,133.8627   L 370.20215,133.32938   L 370.20215,130.12947   L 360.66876,128.46286   L 370.20215,126.8629   L 370.20215,123.99632   L 370.26882,123.32968   L 370.60215,122.86302   L 371.06882,122.5297   L 371.66882,122.39637   L 386.60224,122.39637   L 387.20225,122.46303   L 387.73558,122.79636   L 388.00225,123.12968   L 388.06892,123.72966   L 388.06892,133.06272   L 388.00225,133.6627   L 387.73558,134.06269   L 387.20225,134.39601   L 386.60224,134.46268   L 371.66882,134.46268   L 371.00215,134.39601   L 370.60215,134.19602   L 370.26882,133.8627   L 370.20215,133.26271   L 370.20215,130.12947   L 357.66874,127.9962  z "
     clip-path="url(#clipWmfPath1)"
     style="fill:#000000;fill-rule:nonzero;fill-opacity:1;stroke:#000000;stroke-width:0.06666705px;stroke-linecap:round;stroke-linejoin:round;stroke-miterlimit:4;stroke-dasharray:none;stroke-opacity:1;" />
  <path
     id="path72"
     d="  M 304.60177,82.997538   L 143.73417,82.997538   L 143.73417,97.997093   L 304.60177,97.997093   L 304.60177,82.997538  z "
     clip-path="url(#clipWmfPath1)"
     style="fill:#000000;fill-rule:nonzero;fill-opacity:1;stroke:none;" />
  <path
     id="path74"
     d="  M 304.60177,82.997538   L 143.73417,82.997538   L 143.73417,97.997093   L 304.60177,97.997093   L 304.60177,82.997538  z "
     clip-path="url(#clipWmfPath1)"
     style="fill:none;stroke:#000000;stroke-width:0.06666705px;stroke-linecap:round;stroke-linejoin:round;stroke-miterlimit:4;stroke-dasharray:none;stroke-opacity:1;" />
  <path
     id="path76"
     d="  M 298.8684,93.197236   L 149.3342,93.197236   L 149.3342,87.730731   L 298.8684,87.730731   L 298.8684,93.197236  z "
     clip-path="url(#clipWmfPath1)"
     style="fill:#ffffff;fill-rule:nonzero;fill-opacity:1;stroke:none;" />
  <path
     id="path78"
     d="  M 298.8684,93.197236   L 149.3342,93.197236   L 149.3342,87.730731   L 298.8684,87.730731   L 298.8684,93.197236  z "
     clip-path="url(#clipWmfPath1)"
     style="fill:none;stroke:#000000;stroke-width:0.06666705px;stroke-linecap:round;stroke-linejoin:round;stroke-miterlimit:4;stroke-dasharray:none;stroke-opacity:1;" />
  <path
     id="path80"
     d="  M 304.60177,118.72981   L 143.73417,118.72981   L 143.73417,133.72937   L 304.60177,133.72937   L 304.60177,118.72981  z "
     clip-path="url(#clipWmfPath1)"
     style="fill:#000000;fill-rule:nonzero;fill-opacity:1;stroke:none;" />
  <path
     id="path82"
     d="  M 304.60177,118.72981   L 143.73417,118.72981   L 143.73417,133.72937   L 304.60177,133.72937   L 304.60177,118.72981  z "
     clip-path="url(#clipWmfPath1)"
     style="fill:none;stroke:#000000;stroke-width:0.06666705px;stroke-linecap:round;stroke-linejoin:round;stroke-miterlimit:4;stroke-dasharray:none;stroke-opacity:1;" />
  <path
     id="path84"
     d="  M 298.8684,128.92951   L 149.3342,128.92951   L 149.3342,123.463   L 298.8684,123.463   L 298.8684,128.92951  z "
     clip-path="url(#clipWmfPath1)"
     style="fill:#ffffff;fill-rule:nonzero;fill-opacity:1;stroke:none;" />
  <path
     id="path86"
     d="  M 298.8684,128.92951   L 149.3342,128.92951   L 149.3342,123.463   L 298.8684,123.463   L 298.8684,128.92951  z "
     clip-path="url(#clipWmfPath1)"
     style="fill:none;stroke:#000000;stroke-width:0.06666705px;stroke-linecap:round;stroke-linejoin:round;stroke-miterlimit:4;stroke-dasharray:none;stroke-opacity:1;" />
  <path
     id="path88"
     d="  M 134.93412,118.72981   L 33.000192,118.72981   L 33.000192,133.72937   L 134.93412,133.72937   L 134.93412,118.72981  z "
     clip-path="url(#clipWmfPath1)"
     style="fill:#000000;fill-rule:nonzero;fill-opacity:1;stroke:none;" />
  <path
     id="path90"
     d="  M 134.93412,118.72981   L 33.000192,118.72981   L 33.000192,133.72937   L 134.93412,133.72937   L 134.93412,118.72981  z "
     clip-path="url(#clipWmfPath1)"
     style="fill:none;stroke:#000000;stroke-width:0.06666705px;stroke-linecap:round;stroke-linejoin:round;stroke-miterlimit:4;stroke-dasharray:none;stroke-opacity:1;" />
  <path
     id="path92"
     d="  M 129.46742,128.92951   L 38.400223,128.92951   L 38.400223,123.463   L 129.46742,123.463   L 129.46742,128.92951  z "
     clip-path="url(#clipWmfPath1)"
     style="fill:#ffffff;fill-rule:nonzero;fill-opacity:1;stroke:none;" />
  <path
     id="path94"
     d="  M 129.46742,128.92951   L 38.400223,128.92951   L 38.400223,123.463   L 129.46742,123.463   L 129.46742,128.92951  z "
     clip-path="url(#clipWmfPath1)"
     style="fill:none;stroke:#000000;stroke-width:0.06666705px;stroke-linecap:round;stroke-linejoin:round;stroke-miterlimit:4;stroke-dasharray:none;stroke-opacity:1;" />
  <path
     id="path96"
     d="  M 134.93412,82.997538   L 33.000192,82.997538   L 33.000192,97.997093   L 134.93412,97.997093   L 134.93412,82.997538  z "
     clip-path="url(#clipWmfPath1)"
     style="fill:#000000;fill-rule:nonzero;fill-opacity:1;stroke:none;" />
  <path
     id="path98"
     d="  M 134.93412,82.997538   L 33.000192,82.997538   L 33.000192,97.997093   L 134.93412,97.997093   L 134.93412,82.997538  z "
     clip-path="url(#clipWmfPath1)"
     style="fill:none;stroke:#000000;stroke-width:0.06666705px;stroke-linecap:round;stroke-linejoin:round;stroke-miterlimit:4;stroke-dasharray:none;stroke-opacity:1;" />
  <path
     id="path100"
     d="  M 129.46742,93.197236   L 38.400223,93.197236   L 38.400223,87.730731   L 129.46742,87.730731   L 129.46742,93.197236  z "
     clip-path="url(#clipWmfPath1)"
     style="fill:#ffffff;fill-rule:nonzero;fill-opacity:1;stroke:none;" />
  <path
     id="path102"
     d="  M 129.46742,93.197236   L 38.400223,93.197236   L 38.400223,87.730731   L 129.46742,87.730731   L 129.46742,93.197236  z "
     clip-path="url(#clipWmfPath1)"
     style="fill:none;stroke:#000000;stroke-width:0.06666705px;stroke-linecap:round;stroke-linejoin:round;stroke-miterlimit:4;stroke-dasharray:none;stroke-opacity:1;" />
  <g
     id="g104"
     clip-path="url(#clipWmfPath1)" />
  <g
     id="g114"
     clip-path="url(#clipWmfPath1)">
    <text
       id="text112"
       y="0.000000"
       x="0.000000"
       transform="matrix(1.000000,-0.000000,0.000000,1.000000,372.335495,132.729396)"
       style="font-size:10.687500px;font-style:normal;font-variant:normal;font-weight:400;font-stretch:Condensed;line-height:125.000000%;letter-spacing:0px;word-spacing:0px;fill:#000000;fill-opacity:1;stroke:none;font-family:Helvetica-Narrow;text-align:start;text-anchor:start;"
       xml:space="preserve"><tspan
         id="tspan110"
         y="0.000000"
         x="0.000000"><tspan
           id="tspan106"
           style="fill:#000000;font-size:10.687500px;font-style:normal;font-variant:normal;font-weight:400;font-stretch:Condensed;font-family:Helvetica-Narrow;"
           dy="0.000000"
           dx="0.000000">P</tspan><tspan
           id="tspan108"
           style="fill:#000000;font-size:10.687500px;font-style:normal;font-variant:normal;font-weight:400;font-stretch:Condensed;font-family:Helvetica-Narrow;"
           dy="0.000000"
           dx="-0.195189">1</tspan></tspan></text>
  </g>
  <path
     id="path116"
     d="  M 401.00233,79.264315   L 401.00233,76.464399   L 400.86899,75.731087   L 400.46899,75.264434   L 399.80232,74.931111   L 399.06898,74.797781   L 384.00223,74.797781   L 383.26889,74.931111   L 382.66889,75.331099   L 382.20222,75.931081   L 382.06888,76.664393   L 382.06888,86.130778   L 382.20222,86.86409   L 382.66889,87.464072   L 383.26889,87.797396   L 384.00223,87.930725   L 399.06898,87.930725   L 399.80232,87.730731   L 400.46899,87.330743   L 400.86899,86.664096   L 401.00233,85.86412   L 401.00233,83.330862   L 413.06906,81.330921   L 401.00233,79.264315  z "
     clip-path="url(#clipWmfPath1)"
     style="fill:#ffffff;fill-rule:nonzero;fill-opacity:1;stroke:none;" />
  <path
     id="path118"
     d="  M 413.0024,81.797574   L 413.6024,81.397586   L 413.13573,80.864268   L 401.53566,78.864327   L 401.53566,76.397734   L 401.33566,75.531093   L 400.80233,74.864446   L 399.93566,74.464458   L 399.13565,74.264464   L 383.93556,74.264464   L 383.06889,74.464458   L 382.33555,74.931111   L 381.73555,75.731087   L 381.53555,76.597728   L 381.53555,86.197443   L 381.73555,87.064084   L 382.33555,87.86406   L 383.06889,88.264049   L 383.93556,88.464043   L 399.13565,88.464043   L 400.00232,88.197384   L 400.86899,87.730731   L 401.33566,86.86409   L 401.53566,85.930784   L 401.53566,83.73085   L 413.13573,81.797574   L 413.13573,80.864268   L 401.53566,78.864327   L 401.53566,76.464399   L 401.00233,75.931081   L 400.46899,76.464399   L 400.46899,79.664304   L 410.00238,81.330921   L 400.46899,82.930873   L 400.46899,85.797455   L 400.40232,86.464102   L 400.06899,86.930755   L 399.60232,87.264078   L 399.00232,87.397408   L 384.0689,87.397408   L 383.46889,87.330743   L 383.00222,87.064084   L 382.66889,86.664096   L 382.60222,86.064114   L 382.60222,76.731057   L 382.66889,76.131075   L 383.00222,75.731087   L 383.46889,75.397764   L 384.0689,75.331099   L 399.00232,75.331099   L 399.66899,75.397764   L 400.13566,75.664422   L 400.40232,75.931081   L 400.46899,76.531063   L 400.46899,79.664304   L 413.0024,81.797574  z "
     clip-path="url(#clipWmfPath1)"
     style="fill:#000000;fill-rule:nonzero;fill-opacity:1;stroke:#000000;stroke-width:0.06666705px;stroke-linecap:round;stroke-linejoin:round;stroke-miterlimit:4;stroke-dasharray:none;stroke-opacity:1;" />
  <g
     id="g120"
     clip-path="url(#clipWmfPath1)" />
  <g
     id="g130"
     clip-path="url(#clipWmfPath1)">
    <text
       id="text128"
       y="0.000000"
       x="0.000000"
       transform="matrix(1.000000,-0.000000,0.000000,1.000000,385.602239,84.997479)"
       style="font-size:10.687500px;font-style:normal;font-variant:normal;font-weight:400;font-stretch:Condensed;line-height:125.000000%;letter-spacing:0px;word-spacing:0px;fill:#000000;fill-opacity:1;stroke:none;font-family:Helvetica-Narrow;text-align:start;text-anchor:start;"
       xml:space="preserve"><tspan
         id="tspan126"
         y="0.000000"
         x="0.000000"><tspan
           id="tspan122"
           style="fill:#000000;font-size:10.687500px;font-style:normal;font-variant:normal;font-weight:400;font-stretch:Condensed;font-family:Helvetica-Narrow;"
           dy="0.000000"
           dx="0.000000">P</tspan><tspan
           id="tspan124"
           style="fill:#000000;font-size:10.687500px;font-style:normal;font-variant:normal;font-weight:400;font-stretch:Condensed;font-family:Helvetica-Narrow;"
           dy="0.000000"
           dx="-0.102508">3</tspan></tspan></text>
  </g>
  <g
     id="g132"
     clip-path="url(#clipWmfPath1)" />
  <g
     id="g150"
     clip-path="url(#clipWmfPath1)">
    <text
       id="text148"
       y="0.000000"
       x="0.000000"
       transform="matrix(1.000000,-0.000000,0.000000,1.000000,308.935127,59.664897)"
       style="font-size:9.312500px;font-style:normal;font-variant:normal;font-weight:400;font-stretch:Condensed;line-height:125.000000%;letter-spacing:0px;word-spacing:0px;fill:#000000;fill-opacity:1;stroke:none;font-family:Helvetica-Narrow;text-align:start;text-anchor:start;"
       xml:space="preserve"><tspan
         id="tspan146"
         y="0.000000"
         x="0.000000"><tspan
           id="tspan134"
           style="fill:#000000;font-size:9.312500px;font-style:normal;font-variant:normal;font-weight:400;font-stretch:Condensed;font-family:Helvetica-Narrow;"
           dy="0.000000"
           dx="0.000000">M</tspan><tspan
           id="tspan136"
           style="fill:#000000;font-size:9.312500px;font-style:normal;font-variant:normal;font-weight:400;font-stretch:Condensed;font-family:Helvetica-Narrow;"
           dy="0.000000"
           dx="0.202863">3</tspan><tspan
           id="tspan138"
           style="fill:#000000;font-size:9.312500px;font-style:normal;font-variant:normal;font-weight:400;font-stretch:Condensed;font-family:Helvetica-Narrow;"
           dy="0.000000"
           dx="0.183455">4</tspan><tspan
           id="tspan140"
           style="fill:#000000;font-size:9.312500px;font-style:normal;font-variant:normal;font-weight:400;font-stretch:Condensed;font-family:Helvetica-Narrow;"
           dy="0.000000"
           dx="0.183455">5</tspan><tspan
           id="tspan142"
           style="fill:#000000;font-size:9.312500px;font-style:normal;font-variant:normal;font-weight:400;font-stretch:Condensed;font-family:Helvetica-Narrow;"
           dy="0.000000"
           dx="0.183455">7</tspan><tspan
           id="tspan144"
           style="fill:#000000;font-size:9.312500px;font-style:normal;font-variant:normal;font-weight:400;font-stretch:Condensed;font-family:Helvetica-Narrow;"
           dy="0.000000"
           dx="0.183455">A</tspan></tspan></text>
  </g>
  <g
     id="g152"
     clip-path="url(#clipWmfPath1)" />
  <g
     id="g188"
     clip-path="url(#clipWmfPath1)">
    <text
       id="text174"
       y="0.000000"
       x="0.000000"
       transform="matrix(1.000000,-0.000000,0.000000,1.000000,207.001202,210.993741)"
       style="font-size:10.687500px;font-style:normal;font-variant:normal;font-weight:400;font-stretch:Condensed;line-height:125.000000%;letter-spacing:0px;word-spacing:0px;fill:#000000;fill-opacity:1;stroke:none;font-family:Helvetica-Narrow;text-align:start;text-anchor:start;"
       xml:space="preserve"><tspan
         id="tspan172"
         y="0.000000"
         x="0.000000"><tspan
           id="tspan154"
           style="fill:#000000;font-size:10.687500px;font-style:normal;font-variant:normal;font-weight:400;font-stretch:Condensed;font-family:Helvetica-Narrow;"
           dy="0.000000"
           dx="0.000000">E</tspan><tspan
           id="tspan156"
           style="fill:#000000;font-size:10.687500px;font-style:normal;font-variant:normal;font-weight:400;font-stretch:Condensed;font-family:Helvetica-Narrow;"
           dy="0.000000"
           dx="-0.102508">X</tspan><tspan
           id="tspan158"
           style="fill:#000000;font-size:10.687500px;font-style:normal;font-variant:normal;font-weight:400;font-stretch:Condensed;font-family:Helvetica-Narrow;"
           dy="0.000000"
           dx="-0.102508">P</tspan><tspan
           id="tspan160"
           style="fill:#000000;font-size:10.687500px;font-style:normal;font-variant:normal;font-weight:400;font-stretch:Condensed;font-family:Helvetica-Narrow;"
           dy="0.000000"
           dx="0.753976">A</tspan><tspan
           id="tspan162"
           style="fill:#000000;font-size:10.687500px;font-style:normal;font-variant:normal;font-weight:400;font-stretch:Condensed;font-family:Helvetica-Narrow;"
           dy="0.000000"
           dx="-0.102508">N</tspan><tspan
           id="tspan164"
           style="fill:#000000;font-size:10.687500px;font-style:normal;font-variant:normal;font-weight:400;font-stretch:Condensed;font-family:Helvetica-Narrow;"
           dy="0.000000"
           dx="-0.050109">S</tspan><tspan
           id="tspan166"
           style="fill:#000000;font-size:10.687500px;font-style:normal;font-variant:normal;font-weight:400;font-stretch:Condensed;font-family:Helvetica-Narrow;"
           dy="0.000000"
           dx="-0.102508">I</tspan><tspan
           id="tspan168"
           style="fill:#000000;font-size:10.687500px;font-style:normal;font-variant:normal;font-weight:400;font-stretch:Condensed;font-family:Helvetica-Narrow;"
           dy="0.000000"
           dx="-0.026548">O</tspan><tspan
           id="tspan170"
           style="fill:#000000;font-size:10.687500px;font-style:normal;font-variant:normal;font-weight:400;font-stretch:Condensed;font-family:Helvetica-Narrow;"
           dy="0.000000"
           dx="-0.075065">N</tspan></tspan></text>
    <text
       id="text186"
       y="0.000000"
       x="65.533714"
       transform="matrix(1.000000,-0.000000,0.000000,1.000000,207.001202,210.993741)"
       style="font-size:10.687500px;font-style:normal;font-variant:normal;font-weight:400;font-stretch:Condensed;line-height:125.000000%;letter-spacing:0px;word-spacing:0px;fill:#000000;fill-opacity:1;stroke:none;font-family:Helvetica-Narrow;text-align:start;text-anchor:start;"
       xml:space="preserve"><tspan
         id="tspan184"
         y="0.000000"
         x="65.533714"><tspan
           id="tspan176"
           style="fill:#000000;font-size:10.687500px;font-style:normal;font-variant:normal;font-weight:400;font-stretch:Condensed;font-family:Helvetica-Narrow;"
           dy="0.000000"
           dx="0.000000">C</tspan><tspan
           id="tspan178"
           style="fill:#000000;font-size:10.687500px;font-style:normal;font-variant:normal;font-weight:400;font-stretch:Condensed;font-family:Helvetica-Narrow;"
           dy="0.000000"
           dx="-0.050109">A</tspan><tspan
           id="tspan180"
           style="fill:#000000;font-size:10.687500px;font-style:normal;font-variant:normal;font-weight:400;font-stretch:Condensed;font-family:Helvetica-Narrow;"
           dy="0.000000"
           dx="-0.102508">R</tspan><tspan
           id="tspan182"
           style="fill:#000000;font-size:10.687500px;font-style:normal;font-variant:normal;font-weight:400;font-stretch:Condensed;font-family:Helvetica-Narrow;"
           dy="0.000000"
           dx="-0.050109">D</tspan></tspan></text>
  </g>
</svg>
