<svg xmlns:dc="http://purl.org/dc/elements/1.1/" xmlns:cc="http://creativecommons.org/ns#" xmlns:rdf="http://www.w3.org/1999/02/22-rdf-syntax-ns#" xmlns:svg="http://www.w3.org/2000/svg" xmlns="http://www.w3.org/2000/svg" id="svg440" height="64.849998mm" width="164.86mm" version="1.0">
  <metadata id="metadata444">
    <rdf:RDF>
      <cc:Work rdf:about="">
        <dc:format>image/svg+xml</dc:format>
        <dc:type rdf:resource="http://purl.org/dc/dcmitype/StillImage"/>
      </cc:Work>
    </rdf:RDF>
  </metadata>
  <defs id="defs6">
    <clipPath id="clipWmfPath1" clipPathUnits="userSpaceOnUse">
      <path id="path2" d="M 0,0 L 622.98845,0 L 622.98845,244.9979 L 0,244.9979 z"/>
    </clipPath>
    <pattern y="0" x="0" height="6" width="6" patternUnits="userSpaceOnUse" id="WMFhbasepattern"/>
  </defs>
  <path id="path8" d="  M 565.78951,195.59832   L 531.59015,195.59832   L 531.72348,213.19817   L 378.85964,213.19817   L 378.85964,195.66499   L 370.12647,195.66499   L 370.12647,213.19817   L 279.39482,213.19817   L 279.39482,194.665   L 3.9999259,194.665   L 3.9999259,8.9999229   L 565.78951,8.9999229   L 565.78951,195.59832  z " clip-path="url(#clipWmfPath1)" style="fill:#e5e5e5;fill-rule:nonzero;fill-opacity:1;stroke:none;"/>
  <path id="path10" d="  M 566.32284,8.9999229   L 565.25619,8.9999229   L 565.25619,195.065   L 531.05682,195.065   L 531.19015,212.66484   L 379.39297,212.66484   L 379.39297,195.13166   L 369.59315,195.13166   L 369.59315,212.66484   L 279.92814,212.66484   L 279.92814,194.13167   L 4.5332493,194.13167   L 4.5332493,9.5332517   L 565.25619,9.5332517   L 565.25619,195.065   L 531.59015,195.065   L 531.59015,196.13165   L 566.32284,196.13165   L 566.32284,8.4665941   L 3.4666024,8.4665941   L 3.4666024,195.19833   L 278.8615,195.19833   L 278.8615,213.7315   L 370.6598,213.7315   L 370.6598,196.19832   L 378.32632,196.19832   L 378.32632,213.7315   L 532.2568,213.7315   L 532.12347,196.13165   L 566.32284,196.13165   L 566.32284,8.9999229  z " clip-path="url(#clipWmfPath1)" style="fill:#000000;fill-rule:nonzero;fill-opacity:1;stroke:#000000;stroke-width:0.066665433px;stroke-linecap:round;stroke-linejoin:round;stroke-miterlimit:4;stroke-dasharray:none;stroke-opacity:1;"/>
  <path id="path12" d="  M 366.39321,212.59818   L 366.39321,200.59828   L 366.32654,199.59829   L 366.12655,198.66496   L 365.65989,197.9983   L 364.79324,197.73164   L 363.99325,198.06497   L 363.59326,198.73163   L 363.39326,200.33162   L 363.39326,212.59818   L 366.39321,212.59818  z " clip-path="url(#clipWmfPath1)" style="fill:#bfbfbf;fill-rule:nonzero;fill-opacity:1;stroke:none;"/>
  <path id="path14" d="  M 366.39321,212.59818   L 366.39321,200.59828   L 366.32654,199.59829   L 366.12655,198.66496   L 365.65989,197.9983   L 364.79324,197.73164   L 363.99325,198.06497   L 363.59326,198.73163   L 363.39326,200.33162   L 363.39326,212.59818   L 366.39321,212.59818  z " clip-path="url(#clipWmfPath1)" style="fill:none;stroke:#000000;stroke-width:0.066665433px;stroke-linecap:round;stroke-linejoin:round;stroke-miterlimit:4;stroke-dasharray:none;stroke-opacity:1;"/>
  <path id="path16" d="  M 361.5933,212.59818   L 361.5933,200.59828   L 361.52663,199.59829   L 361.32664,198.66496   L 360.85998,197.9983   L 359.99333,197.73164   L 359.19334,198.06497   L 358.72668,198.73163   L 358.52669,200.33162   L 358.52669,212.59818   L 361.5933,212.59818  z " clip-path="url(#clipWmfPath1)" style="fill:#bfbfbf;fill-rule:nonzero;fill-opacity:1;stroke:none;"/>
  <path id="path18" d="  M 361.5933,212.59818   L 361.5933,200.59828   L 361.52663,199.59829   L 361.32664,198.66496   L 360.85998,197.9983   L 359.99333,197.73164   L 359.19334,198.06497   L 358.72668,198.73163   L 358.52669,200.33162   L 358.52669,212.59818   L 361.5933,212.59818  z " clip-path="url(#clipWmfPath1)" style="fill:none;stroke:#000000;stroke-width:0.066665433px;stroke-linecap:round;stroke-linejoin:round;stroke-miterlimit:4;stroke-dasharray:none;stroke-opacity:1;"/>
  <path id="path20" d="  M 356.66006,212.59818   L 356.66006,200.59828   L 356.59339,199.59829   L 356.39339,198.66496   L 355.92674,197.9983   L 355.06009,197.73164   L 354.2601,198.06497   L 353.86011,198.73163   L 353.66011,200.33162   L 353.66011,212.59818   L 356.66006,212.59818  z " clip-path="url(#clipWmfPath1)" style="fill:#bfbfbf;fill-rule:nonzero;fill-opacity:1;stroke:none;"/>
  <path id="path22" d="  M 356.66006,212.59818   L 356.66006,200.59828   L 356.59339,199.59829   L 356.39339,198.66496   L 355.92674,197.9983   L 355.06009,197.73164   L 354.2601,198.06497   L 353.86011,198.73163   L 353.66011,200.33162   L 353.66011,212.59818   L 356.66006,212.59818  z " clip-path="url(#clipWmfPath1)" style="fill:none;stroke:#000000;stroke-width:0.066665433px;stroke-linecap:round;stroke-linejoin:round;stroke-miterlimit:4;stroke-dasharray:none;stroke-opacity:1;"/>
  <path id="path24" d="  M 351.59348,212.59818   L 351.59348,200.59828   L 351.52682,199.59829   L 351.32682,198.66496   L 350.86016,197.9983   L 349.99351,197.73164   L 349.19353,198.06497   L 348.79353,198.73163   L 348.59354,200.33162   L 348.59354,212.59818   L 351.59348,212.59818  z " clip-path="url(#clipWmfPath1)" style="fill:#bfbfbf;fill-rule:nonzero;fill-opacity:1;stroke:none;"/>
  <path id="path26" d="  M 351.59348,212.59818   L 351.59348,200.59828   L 351.52682,199.59829   L 351.32682,198.66496   L 350.86016,197.9983   L 349.99351,197.73164   L 349.19353,198.06497   L 348.79353,198.73163   L 348.59354,200.33162   L 348.59354,212.59818   L 351.59348,212.59818  z " clip-path="url(#clipWmfPath1)" style="fill:none;stroke:#000000;stroke-width:0.066665433px;stroke-linecap:round;stroke-linejoin:round;stroke-miterlimit:4;stroke-dasharray:none;stroke-opacity:1;"/>
  <path id="path28" d="  M 346.99357,212.59818   L 346.99357,200.59828   L 346.9269,199.59829   L 346.72691,198.66496   L 346.26025,197.9983   L 345.3936,197.73164   L 344.59361,198.06497   L 344.19362,198.73163   L 343.99362,200.33162   L 343.99362,212.59818   L 346.99357,212.59818  z " clip-path="url(#clipWmfPath1)" style="fill:#bfbfbf;fill-rule:nonzero;fill-opacity:1;stroke:none;"/>
  <path id="path30" d="  M 346.99357,212.59818   L 346.99357,200.59828   L 346.9269,199.59829   L 346.72691,198.66496   L 346.26025,197.9983   L 345.3936,197.73164   L 344.59361,198.06497   L 344.19362,198.73163   L 343.99362,200.33162   L 343.99362,212.59818   L 346.99357,212.59818  z " clip-path="url(#clipWmfPath1)" style="fill:none;stroke:#000000;stroke-width:0.066665433px;stroke-linecap:round;stroke-linejoin:round;stroke-miterlimit:4;stroke-dasharray:none;stroke-opacity:1;"/>
  <path id="path32" d="  M 342.12699,212.59818   L 342.12699,200.59828   L 341.86033,198.66496   L 341.39367,197.9983   L 341.19368,197.79831   L 340.59369,197.73164   L 339.7937,198.06497   L 339.32704,198.73163   L 339.12705,200.33162   L 339.12705,212.59818   L 342.12699,212.59818  z " clip-path="url(#clipWmfPath1)" style="fill:#bfbfbf;fill-rule:nonzero;fill-opacity:1;stroke:none;"/>
  <path id="path34" d="  M 342.12699,212.59818   L 342.12699,200.59828   L 341.86033,198.66496   L 341.39367,197.9983   L 341.19368,197.79831   L 340.59369,197.73164   L 339.7937,198.06497   L 339.32704,198.73163   L 339.12705,200.33162   L 339.12705,212.59818   L 342.12699,212.59818  z " clip-path="url(#clipWmfPath1)" style="fill:none;stroke:#000000;stroke-width:0.066665433px;stroke-linecap:round;stroke-linejoin:round;stroke-miterlimit:4;stroke-dasharray:none;stroke-opacity:1;"/>
  <path id="path36" d="  M 337.26042,212.59818   L 337.26042,200.59828   L 337.19375,199.59829   L 336.99375,198.66496   L 336.5271,197.9983   L 335.66045,197.73164   L 334.86046,198.06497   L 334.46047,198.73163   L 334.26047,200.33162   L 334.26047,212.59818   L 337.26042,212.59818  z " clip-path="url(#clipWmfPath1)" style="fill:#bfbfbf;fill-rule:nonzero;fill-opacity:1;stroke:none;"/>
  <path id="path38" d="  M 337.26042,212.59818   L 337.26042,200.59828   L 337.19375,199.59829   L 336.99375,198.66496   L 336.5271,197.9983   L 335.66045,197.73164   L 334.86046,198.06497   L 334.46047,198.73163   L 334.26047,200.33162   L 334.26047,212.59818   L 337.26042,212.59818  z " clip-path="url(#clipWmfPath1)" style="fill:none;stroke:#000000;stroke-width:0.066665433px;stroke-linecap:round;stroke-linejoin:round;stroke-miterlimit:4;stroke-dasharray:none;stroke-opacity:1;"/>
  <path id="path40" d="  M 332.6605,212.59818   L 332.6605,200.59828   L 332.59384,199.59829   L 332.39384,198.66496   L 331.92718,197.9983   L 331.06053,197.73164   L 330.26055,198.06497   L 329.79389,198.73163   L 329.59389,200.33162   L 329.59389,212.59818   L 332.6605,212.59818  z " clip-path="url(#clipWmfPath1)" style="fill:#bfbfbf;fill-rule:nonzero;fill-opacity:1;stroke:none;"/>
  <path id="path42" d="  M 332.6605,212.59818   L 332.6605,200.59828   L 332.59384,199.59829   L 332.39384,198.66496   L 331.92718,197.9983   L 331.06053,197.73164   L 330.26055,198.06497   L 329.79389,198.73163   L 329.59389,200.33162   L 329.59389,212.59818   L 332.6605,212.59818  z " clip-path="url(#clipWmfPath1)" style="fill:none;stroke:#000000;stroke-width:0.066665433px;stroke-linecap:round;stroke-linejoin:round;stroke-miterlimit:4;stroke-dasharray:none;stroke-opacity:1;"/>
  <path id="path44" d="  M 328.06059,212.59818   L 328.06059,200.59828   L 327.99392,199.59829   L 327.79392,198.66496   L 327.32727,197.9983   L 326.46062,197.73164   L 325.66063,198.06497   L 325.26064,198.73163   L 325.06064,200.33162   L 325.06064,212.59818   L 328.06059,212.59818  z " clip-path="url(#clipWmfPath1)" style="fill:#bfbfbf;fill-rule:nonzero;fill-opacity:1;stroke:none;"/>
  <path id="path46" d="  M 328.06059,212.59818   L 328.06059,200.59828   L 327.99392,199.59829   L 327.79392,198.66496   L 327.32727,197.9983   L 326.46062,197.73164   L 325.66063,198.06497   L 325.26064,198.73163   L 325.06064,200.33162   L 325.06064,212.59818   L 328.06059,212.59818  z " clip-path="url(#clipWmfPath1)" style="fill:none;stroke:#000000;stroke-width:0.066665433px;stroke-linecap:round;stroke-linejoin:round;stroke-miterlimit:4;stroke-dasharray:none;stroke-opacity:1;"/>
  <path id="path48" d="  M 323.26067,212.59818   L 323.26067,200.59828   L 323.19401,199.59829   L 322.99401,198.66496   L 322.52736,197.9983   L 321.6607,197.73164   L 320.86072,198.06497   L 320.39406,198.73163   L 320.19407,200.33162   L 320.19407,212.59818   L 323.26067,212.59818  z " clip-path="url(#clipWmfPath1)" style="fill:#bfbfbf;fill-rule:nonzero;fill-opacity:1;stroke:none;"/>
  <path id="path50" d="  M 323.26067,212.59818   L 323.26067,200.59828   L 323.19401,199.59829   L 322.99401,198.66496   L 322.52736,197.9983   L 321.6607,197.73164   L 320.86072,198.06497   L 320.39406,198.73163   L 320.19407,200.33162   L 320.19407,212.59818   L 323.26067,212.59818  z " clip-path="url(#clipWmfPath1)" style="fill:none;stroke:#000000;stroke-width:0.066665433px;stroke-linecap:round;stroke-linejoin:round;stroke-miterlimit:4;stroke-dasharray:none;stroke-opacity:1;"/>
  <path id="path52" d="  M 318.3941,212.59818   L 318.3941,200.59828   L 318.32743,199.59829   L 318.12744,198.66496   L 317.66078,197.9983   L 316.79413,197.73164   L 315.99414,198.06497   L 315.59415,198.73163   L 315.39415,200.33162   L 315.39415,212.59818   L 318.3941,212.59818  z " clip-path="url(#clipWmfPath1)" style="fill:#bfbfbf;fill-rule:nonzero;fill-opacity:1;stroke:none;"/>
  <path id="path54" d="  M 318.3941,212.59818   L 318.3941,200.59828   L 318.32743,199.59829   L 318.12744,198.66496   L 317.66078,197.9983   L 316.79413,197.73164   L 315.99414,198.06497   L 315.59415,198.73163   L 315.39415,200.33162   L 315.39415,212.59818   L 318.3941,212.59818  z " clip-path="url(#clipWmfPath1)" style="fill:none;stroke:#000000;stroke-width:0.066665433px;stroke-linecap:round;stroke-linejoin:round;stroke-miterlimit:4;stroke-dasharray:none;stroke-opacity:1;"/>
  <path id="path56" d="  M 313.59419,212.59818   L 313.59419,200.59828   L 313.52752,199.59829   L 313.32753,198.66496   L 312.86087,197.9983   L 311.99422,197.73164   L 311.19423,198.06497   L 310.72757,198.73163   L 310.52758,200.33162   L 310.52758,212.59818   L 313.59419,212.59818  z " clip-path="url(#clipWmfPath1)" style="fill:#bfbfbf;fill-rule:nonzero;fill-opacity:1;stroke:none;"/>
  <path id="path58" d="  M 313.59419,212.59818   L 313.59419,200.59828   L 313.52752,199.59829   L 313.32753,198.66496   L 312.86087,197.9983   L 311.99422,197.73164   L 311.19423,198.06497   L 310.72757,198.73163   L 310.52758,200.33162   L 310.52758,212.59818   L 313.59419,212.59818  z " clip-path="url(#clipWmfPath1)" style="fill:none;stroke:#000000;stroke-width:0.066665433px;stroke-linecap:round;stroke-linejoin:round;stroke-miterlimit:4;stroke-dasharray:none;stroke-opacity:1;"/>
  <path id="path60" d="  M 308.92761,212.59818   L 308.92761,200.59828   L 308.86094,199.59829   L 308.66095,198.66496   L 308.19429,197.9983   L 307.32764,197.73164   L 306.52765,198.06497   L 306.06099,198.73163   L 305.861,200.33162   L 305.861,212.59818   L 308.92761,212.59818  z " clip-path="url(#clipWmfPath1)" style="fill:#bfbfbf;fill-rule:nonzero;fill-opacity:1;stroke:none;"/>
  <path id="path62" d="  M 308.92761,212.59818   L 308.92761,200.59828   L 308.86094,199.59829   L 308.66095,198.66496   L 308.19429,197.9983   L 307.32764,197.73164   L 306.52765,198.06497   L 306.06099,198.73163   L 305.861,200.33162   L 305.861,212.59818   L 308.92761,212.59818  z " clip-path="url(#clipWmfPath1)" style="fill:none;stroke:#000000;stroke-width:0.066665433px;stroke-linecap:round;stroke-linejoin:round;stroke-miterlimit:4;stroke-dasharray:none;stroke-opacity:1;"/>
  <path id="path64" d="  M 304.32769,212.59818   L 304.32769,200.59828   L 304.26103,199.59829   L 304.06103,198.66496   L 303.59437,197.9983   L 302.72772,197.73164   L 301.92774,198.06497   L 301.52774,198.73163   L 301.32775,200.33162   L 301.32775,212.59818   L 304.32769,212.59818  z " clip-path="url(#clipWmfPath1)" style="fill:#bfbfbf;fill-rule:nonzero;fill-opacity:1;stroke:none;"/>
  <path id="path66" d="  M 304.32769,212.59818   L 304.32769,200.59828   L 304.26103,199.59829   L 304.06103,198.66496   L 303.59437,197.9983   L 302.72772,197.73164   L 301.92774,198.06497   L 301.52774,198.73163   L 301.32775,200.33162   L 301.32775,212.59818   L 304.32769,212.59818  z " clip-path="url(#clipWmfPath1)" style="fill:none;stroke:#000000;stroke-width:0.066665433px;stroke-linecap:round;stroke-linejoin:round;stroke-miterlimit:4;stroke-dasharray:none;stroke-opacity:1;"/>
  <path id="path68" d="  M 299.72778,212.59818   L 299.72778,200.59828   L 299.66111,199.59829   L 299.46112,198.66496   L 298.99446,197.9983   L 298.12781,197.73164   L 297.32782,198.06497   L 296.86116,198.73163   L 296.66117,200.33162   L 296.66117,212.59818   L 299.72778,212.59818  z " clip-path="url(#clipWmfPath1)" style="fill:#bfbfbf;fill-rule:nonzero;fill-opacity:1;stroke:none;"/>
  <path id="path70" d="  M 299.72778,212.59818   L 299.72778,200.59828   L 299.66111,199.59829   L 299.46112,198.66496   L 298.99446,197.9983   L 298.12781,197.73164   L 297.32782,198.06497   L 296.86116,198.73163   L 296.66117,200.33162   L 296.66117,212.59818   L 299.72778,212.59818  z " clip-path="url(#clipWmfPath1)" style="fill:none;stroke:#000000;stroke-width:0.066665433px;stroke-linecap:round;stroke-linejoin:round;stroke-miterlimit:4;stroke-dasharray:none;stroke-opacity:1;"/>
  <path id="path72" d="  M 295.0612,212.59818   L 295.0612,200.59828   L 294.79454,198.66496   L 294.32788,197.9983   L 294.12788,197.79831   L 293.52789,197.73164   L 292.72791,198.06497   L 292.32791,198.73163   L 292.12792,200.33162   L 292.12792,212.59818   L 295.0612,212.59818  z " clip-path="url(#clipWmfPath1)" style="fill:#bfbfbf;fill-rule:nonzero;fill-opacity:1;stroke:none;"/>
  <path id="path74" d="  M 295.0612,212.59818   L 295.0612,200.59828   L 294.79454,198.66496   L 294.32788,197.9983   L 294.12788,197.79831   L 293.52789,197.73164   L 292.72791,198.06497   L 292.32791,198.73163   L 292.12792,200.33162   L 292.12792,212.59818   L 295.0612,212.59818  z " clip-path="url(#clipWmfPath1)" style="fill:none;stroke:#000000;stroke-width:0.066665433px;stroke-linecap:round;stroke-linejoin:round;stroke-miterlimit:4;stroke-dasharray:none;stroke-opacity:1;"/>
  <path id="path76" d="  M 290.39462,212.59818   L 290.39462,200.59828   L 290.12796,198.66496   L 289.6613,197.9983   L 289.4613,197.79831   L 288.86131,197.73164   L 288.06133,198.06497   L 287.66133,198.73163   L 287.46134,200.33162   L 287.46134,212.59818   L 290.39462,212.59818  z " clip-path="url(#clipWmfPath1)" style="fill:#bfbfbf;fill-rule:nonzero;fill-opacity:1;stroke:none;"/>
  <path id="path78" d="  M 290.39462,212.59818   L 290.39462,200.59828   L 290.12796,198.66496   L 289.6613,197.9983   L 289.4613,197.79831   L 288.86131,197.73164   L 288.06133,198.06497   L 287.66133,198.73163   L 287.46134,200.33162   L 287.46134,212.59818   L 290.39462,212.59818  z " clip-path="url(#clipWmfPath1)" style="fill:none;stroke:#000000;stroke-width:0.066665433px;stroke-linecap:round;stroke-linejoin:round;stroke-miterlimit:4;stroke-dasharray:none;stroke-opacity:1;"/>
  <path id="path80" d="  M 285.59471,212.59818   L 285.59471,200.59828   L 285.52804,199.59829   L 285.32804,198.66496   L 284.86139,197.9983   L 283.99474,197.73164   L 283.19475,198.06497   L 282.79476,198.73163   L 282.59476,200.33162   L 282.59476,212.59818   L 285.59471,212.59818  z " clip-path="url(#clipWmfPath1)" style="fill:#bfbfbf;fill-rule:nonzero;fill-opacity:1;stroke:none;"/>
  <path id="path82" d="  M 285.59471,212.59818   L 285.59471,200.59828   L 285.52804,199.59829   L 285.32804,198.66496   L 284.86139,197.9983   L 283.99474,197.73164   L 283.19475,198.06497   L 282.79476,198.73163   L 282.59476,200.33162   L 282.59476,212.59818   L 285.59471,212.59818  z " clip-path="url(#clipWmfPath1)" style="fill:none;stroke:#000000;stroke-width:0.066665433px;stroke-linecap:round;stroke-linejoin:round;stroke-miterlimit:4;stroke-dasharray:none;stroke-opacity:1;"/>
  <path id="path84" d="  M 529.12353,212.59818   L 529.12353,200.59828   L 529.05686,199.59829   L 528.85686,198.66496   L 528.39021,197.9983   L 527.52356,197.73164   L 526.72357,198.06497   L 526.32358,198.73163   L 526.12358,200.33162   L 526.12358,212.59818   L 529.12353,212.59818  z " clip-path="url(#clipWmfPath1)" style="fill:#bfbfbf;fill-rule:nonzero;fill-opacity:1;stroke:none;"/>
  <path id="path86" d="  M 529.12353,212.59818   L 529.12353,200.59828   L 529.05686,199.59829   L 528.85686,198.66496   L 528.39021,197.9983   L 527.52356,197.73164   L 526.72357,198.06497   L 526.32358,198.73163   L 526.12358,200.33162   L 526.12358,212.59818   L 529.12353,212.59818  z " clip-path="url(#clipWmfPath1)" style="fill:none;stroke:#000000;stroke-width:0.066665433px;stroke-linecap:round;stroke-linejoin:round;stroke-miterlimit:4;stroke-dasharray:none;stroke-opacity:1;"/>
  <path id="path88" d="  M 524.39028,212.59818   L 524.39028,200.59828   L 524.32361,199.59829   L 524.12362,198.66496   L 523.65696,197.9983   L 522.79031,197.73164   L 521.99032,198.06497   L 521.59033,198.73163   L 521.39034,200.33162   L 521.39034,212.59818   L 524.39028,212.59818  z " clip-path="url(#clipWmfPath1)" style="fill:#bfbfbf;fill-rule:nonzero;fill-opacity:1;stroke:none;"/>
  <path id="path90" d="  M 524.39028,212.59818   L 524.39028,200.59828   L 524.32361,199.59829   L 524.12362,198.66496   L 523.65696,197.9983   L 522.79031,197.73164   L 521.99032,198.06497   L 521.59033,198.73163   L 521.39034,200.33162   L 521.39034,212.59818   L 524.39028,212.59818  z " clip-path="url(#clipWmfPath1)" style="fill:none;stroke:#000000;stroke-width:0.066665433px;stroke-linecap:round;stroke-linejoin:round;stroke-miterlimit:4;stroke-dasharray:none;stroke-opacity:1;"/>
  <path id="path92" d="  M 519.7237,212.59818   L 519.7237,200.59828   L 519.45704,198.66496   L 518.99038,197.9983   L 518.79038,197.79831   L 518.1904,197.73164   L 517.39041,198.06497   L 516.92375,198.73163   L 516.72376,200.33162   L 516.72376,212.59818   L 519.7237,212.59818  z " clip-path="url(#clipWmfPath1)" style="fill:#bfbfbf;fill-rule:nonzero;fill-opacity:1;stroke:none;"/>
  <path id="path94" d="  M 519.7237,212.59818   L 519.7237,200.59828   L 519.45704,198.66496   L 518.99038,197.9983   L 518.79038,197.79831   L 518.1904,197.73164   L 517.39041,198.06497   L 516.92375,198.73163   L 516.72376,200.33162   L 516.72376,212.59818   L 519.7237,212.59818  z " clip-path="url(#clipWmfPath1)" style="fill:none;stroke:#000000;stroke-width:0.066665433px;stroke-linecap:round;stroke-linejoin:round;stroke-miterlimit:4;stroke-dasharray:none;stroke-opacity:1;"/>
  <path id="path96" d="  M 515.05712,212.59818   L 515.05712,200.59828   L 514.79046,198.66496   L 514.3238,197.9983   L 514.1238,197.79831   L 513.52381,197.73164   L 512.72383,198.06497   L 512.32384,198.73163   L 512.12384,200.33162   L 512.12384,212.59818   L 515.05712,212.59818  z " clip-path="url(#clipWmfPath1)" style="fill:#bfbfbf;fill-rule:nonzero;fill-opacity:1;stroke:none;"/>
  <path id="path98" d="  M 515.05712,212.59818   L 515.05712,200.59828   L 514.79046,198.66496   L 514.3238,197.9983   L 514.1238,197.79831   L 513.52381,197.73164   L 512.72383,198.06497   L 512.32384,198.73163   L 512.12384,200.33162   L 512.12384,212.59818   L 515.05712,212.59818  z " clip-path="url(#clipWmfPath1)" style="fill:none;stroke:#000000;stroke-width:0.066665433px;stroke-linecap:round;stroke-linejoin:round;stroke-miterlimit:4;stroke-dasharray:none;stroke-opacity:1;"/>
  <path id="path100" d="  M 510.52387,212.59818   L 510.52387,200.59828   L 510.45721,199.59829   L 510.25721,198.66496   L 509.79055,197.9983   L 508.9239,197.73164   L 508.12392,198.06497   L 507.65726,198.73163   L 507.45726,200.33162   L 507.45726,212.59818   L 510.52387,212.59818  z " clip-path="url(#clipWmfPath1)" style="fill:#bfbfbf;fill-rule:nonzero;fill-opacity:1;stroke:none;"/>
  <path id="path102" d="  M 510.52387,212.59818   L 510.52387,200.59828   L 510.45721,199.59829   L 510.25721,198.66496   L 509.79055,197.9983   L 508.9239,197.73164   L 508.12392,198.06497   L 507.65726,198.73163   L 507.45726,200.33162   L 507.45726,212.59818   L 510.52387,212.59818  z " clip-path="url(#clipWmfPath1)" style="fill:none;stroke:#000000;stroke-width:0.066665433px;stroke-linecap:round;stroke-linejoin:round;stroke-miterlimit:4;stroke-dasharray:none;stroke-opacity:1;"/>
  <path id="path104" d="  M 505.72396,212.59818   L 505.72396,200.59828   L 505.65729,199.59829   L 505.4573,198.66496   L 504.99064,197.9983   L 504.12399,197.73164   L 503.324,198.06497   L 502.92401,198.73163   L 502.72402,200.33162   L 502.72402,212.59818   L 505.72396,212.59818  z " clip-path="url(#clipWmfPath1)" style="fill:#bfbfbf;fill-rule:nonzero;fill-opacity:1;stroke:none;"/>
  <path id="path106" d="  M 505.72396,212.59818   L 505.72396,200.59828   L 505.65729,199.59829   L 505.4573,198.66496   L 504.99064,197.9983   L 504.12399,197.73164   L 503.324,198.06497   L 502.92401,198.73163   L 502.72402,200.33162   L 502.72402,212.59818   L 505.72396,212.59818  z " clip-path="url(#clipWmfPath1)" style="fill:none;stroke:#000000;stroke-width:0.066665433px;stroke-linecap:round;stroke-linejoin:round;stroke-miterlimit:4;stroke-dasharray:none;stroke-opacity:1;"/>
  <path id="path108" d="  M 500.85738,212.59818   L 500.85738,200.59828   L 500.79072,199.59829   L 500.59072,198.66496   L 500.12406,197.9983   L 499.25741,197.73164   L 498.45743,198.06497   L 497.99077,198.73163   L 497.79077,200.33162   L 497.79077,212.59818   L 500.85738,212.59818  z " clip-path="url(#clipWmfPath1)" style="fill:#bfbfbf;fill-rule:nonzero;fill-opacity:1;stroke:none;"/>
  <path id="path110" d="  M 500.85738,212.59818   L 500.85738,200.59828   L 500.79072,199.59829   L 500.59072,198.66496   L 500.12406,197.9983   L 499.25741,197.73164   L 498.45743,198.06497   L 497.99077,198.73163   L 497.79077,200.33162   L 497.79077,212.59818   L 500.85738,212.59818  z " clip-path="url(#clipWmfPath1)" style="fill:none;stroke:#000000;stroke-width:0.066665433px;stroke-linecap:round;stroke-linejoin:round;stroke-miterlimit:4;stroke-dasharray:none;stroke-opacity:1;"/>
  <path id="path112" d="  M 496.12414,212.59818   L 496.12414,200.59828   L 496.05747,199.59829   L 495.85748,198.66496   L 495.39082,197.9983   L 494.52417,197.73164   L 493.72418,198.06497   L 493.25752,198.73163   L 493.05753,200.33162   L 493.05753,212.59818   L 496.12414,212.59818  z " clip-path="url(#clipWmfPath1)" style="fill:#bfbfbf;fill-rule:nonzero;fill-opacity:1;stroke:none;"/>
  <path id="path114" d="  M 496.12414,212.59818   L 496.12414,200.59828   L 496.05747,199.59829   L 495.85748,198.66496   L 495.39082,197.9983   L 494.52417,197.73164   L 493.72418,198.06497   L 493.25752,198.73163   L 493.05753,200.33162   L 493.05753,212.59818   L 496.12414,212.59818  z " clip-path="url(#clipWmfPath1)" style="fill:none;stroke:#000000;stroke-width:0.066665433px;stroke-linecap:round;stroke-linejoin:round;stroke-miterlimit:4;stroke-dasharray:none;stroke-opacity:1;"/>
  <path id="path116" d="  M 491.45756,212.59818   L 491.45756,200.59828   L 491.1909,198.66496   L 490.72424,197.9983   L 490.52424,197.79831   L 489.92425,197.73164   L 489.12427,198.06497   L 488.72427,198.73163   L 488.52428,200.33162   L 488.52428,212.59818   L 491.45756,212.59818  z " clip-path="url(#clipWmfPath1)" style="fill:#bfbfbf;fill-rule:nonzero;fill-opacity:1;stroke:none;"/>
  <path id="path118" d="  M 491.45756,212.59818   L 491.45756,200.59828   L 491.1909,198.66496   L 490.72424,197.9983   L 490.52424,197.79831   L 489.92425,197.73164   L 489.12427,198.06497   L 488.72427,198.73163   L 488.52428,200.33162   L 488.52428,212.59818   L 491.45756,212.59818  z " clip-path="url(#clipWmfPath1)" style="fill:none;stroke:#000000;stroke-width:0.066665433px;stroke-linecap:round;stroke-linejoin:round;stroke-miterlimit:4;stroke-dasharray:none;stroke-opacity:1;"/>
  <path id="path120" d="  M 486.59098,212.59818   L 486.59098,200.59828   L 486.32432,198.66496   L 485.92433,197.9983   L 485.72433,197.79831   L 485.12434,197.73164   L 484.25769,198.06497   L 483.79103,198.73163   L 483.59104,200.33162   L 483.59104,212.59818   L 486.59098,212.59818  z " clip-path="url(#clipWmfPath1)" style="fill:#bfbfbf;fill-rule:nonzero;fill-opacity:1;stroke:none;"/>
  <path id="path122" d="  M 486.59098,212.59818   L 486.59098,200.59828   L 486.32432,198.66496   L 485.92433,197.9983   L 485.72433,197.79831   L 485.12434,197.73164   L 484.25769,198.06497   L 483.79103,198.73163   L 483.59104,200.33162   L 483.59104,212.59818   L 486.59098,212.59818  z " clip-path="url(#clipWmfPath1)" style="fill:none;stroke:#000000;stroke-width:0.066665433px;stroke-linecap:round;stroke-linejoin:round;stroke-miterlimit:4;stroke-dasharray:none;stroke-opacity:1;"/>
  <path id="path124" d="  M 481.99107,212.59818   L 481.99107,200.59828   L 481.9244,199.59829   L 481.7244,198.66496   L 481.25775,197.9983   L 480.3911,197.73164   L 479.59111,198.06497   L 479.19112,198.73163   L 478.99112,200.33162   L 478.99112,212.59818   L 481.99107,212.59818  z " clip-path="url(#clipWmfPath1)" style="fill:#bfbfbf;fill-rule:nonzero;fill-opacity:1;stroke:none;"/>
  <path id="path126" d="  M 481.99107,212.59818   L 481.99107,200.59828   L 481.9244,199.59829   L 481.7244,198.66496   L 481.25775,197.9983   L 480.3911,197.73164   L 479.59111,198.06497   L 479.19112,198.73163   L 478.99112,200.33162   L 478.99112,212.59818   L 481.99107,212.59818  z " clip-path="url(#clipWmfPath1)" style="fill:none;stroke:#000000;stroke-width:0.066665433px;stroke-linecap:round;stroke-linejoin:round;stroke-miterlimit:4;stroke-dasharray:none;stroke-opacity:1;"/>
  <path id="path128" d="  M 477.39115,212.59818   L 477.39115,200.59828   L 477.12449,198.66496   L 476.7245,197.9983   L 476.5245,197.79831   L 475.92451,197.73164   L 475.05786,198.06497   L 474.5912,198.73163   L 474.39121,200.33162   L 474.39121,212.59818   L 477.39115,212.59818  z " clip-path="url(#clipWmfPath1)" style="fill:#bfbfbf;fill-rule:nonzero;fill-opacity:1;stroke:none;"/>
  <path id="path130" d="  M 477.39115,212.59818   L 477.39115,200.59828   L 477.12449,198.66496   L 476.7245,197.9983   L 476.5245,197.79831   L 475.92451,197.73164   L 475.05786,198.06497   L 474.5912,198.73163   L 474.39121,200.33162   L 474.39121,212.59818   L 477.39115,212.59818  z " clip-path="url(#clipWmfPath1)" style="fill:none;stroke:#000000;stroke-width:0.066665433px;stroke-linecap:round;stroke-linejoin:round;stroke-miterlimit:4;stroke-dasharray:none;stroke-opacity:1;"/>
  <path id="path132" d="  M 472.79124,212.59818   L 472.79124,200.59828   L 472.72457,199.59829   L 472.52457,198.66496   L 472.05792,197.9983   L 471.19127,197.73164   L 470.39128,198.06497   L 469.92462,198.73163   L 469.72463,200.33162   L 469.72463,212.59818   L 472.79124,212.59818  z " clip-path="url(#clipWmfPath1)" style="fill:#bfbfbf;fill-rule:nonzero;fill-opacity:1;stroke:none;"/>
  <path id="path134" d="  M 472.79124,212.59818   L 472.79124,200.59828   L 472.72457,199.59829   L 472.52457,198.66496   L 472.05792,197.9983   L 471.19127,197.73164   L 470.39128,198.06497   L 469.92462,198.73163   L 469.72463,200.33162   L 469.72463,212.59818   L 472.79124,212.59818  z " clip-path="url(#clipWmfPath1)" style="fill:none;stroke:#000000;stroke-width:0.066665433px;stroke-linecap:round;stroke-linejoin:round;stroke-miterlimit:4;stroke-dasharray:none;stroke-opacity:1;"/>
  <path id="path136" d="  M 467.92466,212.59818   L 467.92466,200.59828   L 467.85799,199.59829   L 467.658,198.66496   L 467.19134,197.9983   L 466.32469,197.73164   L 465.5247,198.06497   L 465.12471,198.73163   L 464.92472,200.33162   L 464.92472,212.59818   L 467.92466,212.59818  z " clip-path="url(#clipWmfPath1)" style="fill:#bfbfbf;fill-rule:nonzero;fill-opacity:1;stroke:none;"/>
  <path id="path138" d="  M 467.92466,212.59818   L 467.92466,200.59828   L 467.85799,199.59829   L 467.658,198.66496   L 467.19134,197.9983   L 466.32469,197.73164   L 465.5247,198.06497   L 465.12471,198.73163   L 464.92472,200.33162   L 464.92472,212.59818   L 467.92466,212.59818  z " clip-path="url(#clipWmfPath1)" style="fill:none;stroke:#000000;stroke-width:0.066665433px;stroke-linecap:round;stroke-linejoin:round;stroke-miterlimit:4;stroke-dasharray:none;stroke-opacity:1;"/>
  <path id="path140" d="  M 463.12475,212.59818   L 463.12475,200.59828   L 463.05808,199.59829   L 462.85809,198.66496   L 462.39143,197.9983   L 461.52478,197.73164   L 460.72479,198.06497   L 460.25814,198.73163   L 460.05814,200.33162   L 460.05814,212.59818   L 463.12475,212.59818  z " clip-path="url(#clipWmfPath1)" style="fill:#bfbfbf;fill-rule:nonzero;fill-opacity:1;stroke:none;"/>
  <path id="path142" d="  M 463.12475,212.59818   L 463.12475,200.59828   L 463.05808,199.59829   L 462.85809,198.66496   L 462.39143,197.9983   L 461.52478,197.73164   L 460.72479,198.06497   L 460.25814,198.73163   L 460.05814,200.33162   L 460.05814,212.59818   L 463.12475,212.59818  z " clip-path="url(#clipWmfPath1)" style="fill:none;stroke:#000000;stroke-width:0.066665433px;stroke-linecap:round;stroke-linejoin:round;stroke-miterlimit:4;stroke-dasharray:none;stroke-opacity:1;"/>
  <path id="path144" d="  M 458.19151,212.59818   L 458.19151,200.59828   L 458.12484,199.59829   L 457.92485,198.66496   L 457.45819,197.9983   L 456.59154,197.73164   L 455.79155,198.06497   L 455.39156,198.73163   L 455.19156,200.33162   L 455.19156,212.59818   L 458.19151,212.59818  z " clip-path="url(#clipWmfPath1)" style="fill:#bfbfbf;fill-rule:nonzero;fill-opacity:1;stroke:none;"/>
  <path id="path146" d="  M 458.19151,212.59818   L 458.19151,200.59828   L 458.12484,199.59829   L 457.92485,198.66496   L 457.45819,197.9983   L 456.59154,197.73164   L 455.79155,198.06497   L 455.39156,198.73163   L 455.19156,200.33162   L 455.19156,212.59818   L 458.19151,212.59818  z " clip-path="url(#clipWmfPath1)" style="fill:none;stroke:#000000;stroke-width:0.066665433px;stroke-linecap:round;stroke-linejoin:round;stroke-miterlimit:4;stroke-dasharray:none;stroke-opacity:1;"/>
  <path id="path148" d="  M 453.12493,212.59818   L 453.12493,200.59828   L 453.05827,199.59829   L 452.85827,198.66496   L 452.39161,197.9983   L 451.52496,197.73164   L 450.72498,198.06497   L 450.32499,198.73163   L 450.12499,200.33162   L 450.12499,212.59818   L 453.12493,212.59818  z " clip-path="url(#clipWmfPath1)" style="fill:#bfbfbf;fill-rule:nonzero;fill-opacity:1;stroke:none;"/>
  <path id="path150" d="  M 453.12493,212.59818   L 453.12493,200.59828   L 453.05827,199.59829   L 452.85827,198.66496   L 452.39161,197.9983   L 451.52496,197.73164   L 450.72498,198.06497   L 450.32499,198.73163   L 450.12499,200.33162   L 450.12499,212.59818   L 453.12493,212.59818  z " clip-path="url(#clipWmfPath1)" style="fill:none;stroke:#000000;stroke-width:0.066665433px;stroke-linecap:round;stroke-linejoin:round;stroke-miterlimit:4;stroke-dasharray:none;stroke-opacity:1;"/>
  <path id="path152" d="  M 448.52502,212.59818   L 448.52502,200.59828   L 448.45835,199.59829   L 448.25836,198.66496   L 447.7917,197.9983   L 446.92505,197.73164   L 446.12506,198.06497   L 445.72507,198.73163   L 445.52508,200.33162   L 445.52508,212.59818   L 448.52502,212.59818  z " clip-path="url(#clipWmfPath1)" style="fill:#bfbfbf;fill-rule:nonzero;fill-opacity:1;stroke:none;"/>
  <path id="path154" d="  M 448.52502,212.59818   L 448.52502,200.59828   L 448.45835,199.59829   L 448.25836,198.66496   L 447.7917,197.9983   L 446.92505,197.73164   L 446.12506,198.06497   L 445.72507,198.73163   L 445.52508,200.33162   L 445.52508,212.59818   L 448.52502,212.59818  z " clip-path="url(#clipWmfPath1)" style="fill:none;stroke:#000000;stroke-width:0.066665433px;stroke-linecap:round;stroke-linejoin:round;stroke-miterlimit:4;stroke-dasharray:none;stroke-opacity:1;"/>
  <path id="path156" d="  M 443.65844,212.59818   L 443.65844,200.59828   L 443.39178,198.66496   L 442.92512,197.9983   L 442.72513,197.79831   L 442.12514,197.73164   L 441.32515,198.06497   L 440.8585,198.73163   L 440.6585,200.33162   L 440.6585,212.59818   L 443.65844,212.59818  z " clip-path="url(#clipWmfPath1)" style="fill:#bfbfbf;fill-rule:nonzero;fill-opacity:1;stroke:none;"/>
  <path id="path158" d="  M 443.65844,212.59818   L 443.65844,200.59828   L 443.39178,198.66496   L 442.92512,197.9983   L 442.72513,197.79831   L 442.12514,197.73164   L 441.32515,198.06497   L 440.8585,198.73163   L 440.6585,200.33162   L 440.6585,212.59818   L 443.65844,212.59818  z " clip-path="url(#clipWmfPath1)" style="fill:none;stroke:#000000;stroke-width:0.066665433px;stroke-linecap:round;stroke-linejoin:round;stroke-miterlimit:4;stroke-dasharray:none;stroke-opacity:1;"/>
  <path id="path160" d="  M 438.79187,212.59818   L 438.79187,200.59828   L 438.7252,199.59829   L 438.52521,198.66496   L 438.05855,197.9983   L 437.1919,197.73164   L 436.39191,198.06497   L 435.99192,198.73163   L 435.79192,200.33162   L 435.79192,212.59818   L 438.79187,212.59818  z " clip-path="url(#clipWmfPath1)" style="fill:#bfbfbf;fill-rule:nonzero;fill-opacity:1;stroke:none;"/>
  <path id="path162" d="  M 438.79187,212.59818   L 438.79187,200.59828   L 438.7252,199.59829   L 438.52521,198.66496   L 438.05855,197.9983   L 437.1919,197.73164   L 436.39191,198.06497   L 435.99192,198.73163   L 435.79192,200.33162   L 435.79192,212.59818   L 438.79187,212.59818  z " clip-path="url(#clipWmfPath1)" style="fill:none;stroke:#000000;stroke-width:0.066665433px;stroke-linecap:round;stroke-linejoin:round;stroke-miterlimit:4;stroke-dasharray:none;stroke-opacity:1;"/>
  <path id="path164" d="  M 434.19195,212.59818   L 434.19195,200.59828   L 434.12529,199.59829   L 433.92529,198.66496   L 433.45863,197.9983   L 432.59198,197.73164   L 431.792,198.06497   L 431.32534,198.73163   L 431.12534,200.33162   L 431.12534,212.59818   L 434.19195,212.59818  z " clip-path="url(#clipWmfPath1)" style="fill:#bfbfbf;fill-rule:nonzero;fill-opacity:1;stroke:none;"/>
  <path id="path166" d="  M 434.19195,212.59818   L 434.19195,200.59828   L 434.12529,199.59829   L 433.92529,198.66496   L 433.45863,197.9983   L 432.59198,197.73164   L 431.792,198.06497   L 431.32534,198.73163   L 431.12534,200.33162   L 431.12534,212.59818   L 434.19195,212.59818  z " clip-path="url(#clipWmfPath1)" style="fill:none;stroke:#000000;stroke-width:0.066665433px;stroke-linecap:round;stroke-linejoin:round;stroke-miterlimit:4;stroke-dasharray:none;stroke-opacity:1;"/>
  <path id="path168" d="  M 429.59204,212.59818   L 429.59204,200.59828   L 429.52537,199.59829   L 429.32538,198.66496   L 428.85872,197.9983   L 427.99207,197.73164   L 427.19208,198.06497   L 426.79209,198.73163   L 426.59209,200.33162   L 426.59209,212.59818   L 429.59204,212.59818  z " clip-path="url(#clipWmfPath1)" style="fill:#bfbfbf;fill-rule:nonzero;fill-opacity:1;stroke:none;"/>
  <path id="path170" d="  M 429.59204,212.59818   L 429.59204,200.59828   L 429.52537,199.59829   L 429.32538,198.66496   L 428.85872,197.9983   L 427.99207,197.73164   L 427.19208,198.06497   L 426.79209,198.73163   L 426.59209,200.33162   L 426.59209,212.59818   L 429.59204,212.59818  z " clip-path="url(#clipWmfPath1)" style="fill:none;stroke:#000000;stroke-width:0.066665433px;stroke-linecap:round;stroke-linejoin:round;stroke-miterlimit:4;stroke-dasharray:none;stroke-opacity:1;"/>
  <path id="path172" d="  M 424.79213,212.59818   L 424.79213,200.59828   L 424.72546,199.59829   L 424.52546,198.66496   L 424.05881,197.9983   L 423.19216,197.73164   L 422.39217,198.06497   L 421.92551,198.73163   L 421.72552,200.33162   L 421.72552,212.59818   L 424.79213,212.59818  z " clip-path="url(#clipWmfPath1)" style="fill:#bfbfbf;fill-rule:nonzero;fill-opacity:1;stroke:none;"/>
  <path id="path174" d="  M 424.79213,212.59818   L 424.79213,200.59828   L 424.72546,199.59829   L 424.52546,198.66496   L 424.05881,197.9983   L 423.19216,197.73164   L 422.39217,198.06497   L 421.92551,198.73163   L 421.72552,200.33162   L 421.72552,212.59818   L 424.79213,212.59818  z " clip-path="url(#clipWmfPath1)" style="fill:none;stroke:#000000;stroke-width:0.066665433px;stroke-linecap:round;stroke-linejoin:round;stroke-miterlimit:4;stroke-dasharray:none;stroke-opacity:1;"/>
  <path id="path176" d="  M 419.92555,212.59818   L 419.92555,200.59828   L 419.85888,199.59829   L 419.65889,198.66496   L 419.19223,197.9983   L 418.32558,197.73164   L 417.52559,198.06497   L 417.1256,198.73163   L 416.92561,200.33162   L 416.92561,212.59818   L 419.92555,212.59818  z " clip-path="url(#clipWmfPath1)" style="fill:#bfbfbf;fill-rule:nonzero;fill-opacity:1;stroke:none;"/>
  <path id="path178" d="  M 419.92555,212.59818   L 419.92555,200.59828   L 419.85888,199.59829   L 419.65889,198.66496   L 419.19223,197.9983   L 418.32558,197.73164   L 417.52559,198.06497   L 417.1256,198.73163   L 416.92561,200.33162   L 416.92561,212.59818   L 419.92555,212.59818  z " clip-path="url(#clipWmfPath1)" style="fill:none;stroke:#000000;stroke-width:0.066665433px;stroke-linecap:round;stroke-linejoin:round;stroke-miterlimit:4;stroke-dasharray:none;stroke-opacity:1;"/>
  <path id="path180" d="  M 415.12564,212.59818   L 415.12564,200.59828   L 415.05897,199.59829   L 414.85898,198.66496   L 414.39232,197.9983   L 413.52567,197.73164   L 412.72568,198.06497   L 412.25903,198.73163   L 412.05903,200.33162   L 412.05903,212.59818   L 415.12564,212.59818  z " clip-path="url(#clipWmfPath1)" style="fill:#bfbfbf;fill-rule:nonzero;fill-opacity:1;stroke:none;"/>
  <path id="path182" d="  M 415.12564,212.59818   L 415.12564,200.59828   L 415.05897,199.59829   L 414.85898,198.66496   L 414.39232,197.9983   L 413.52567,197.73164   L 412.72568,198.06497   L 412.25903,198.73163   L 412.05903,200.33162   L 412.05903,212.59818   L 415.12564,212.59818  z " clip-path="url(#clipWmfPath1)" style="fill:none;stroke:#000000;stroke-width:0.066665433px;stroke-linecap:round;stroke-linejoin:round;stroke-miterlimit:4;stroke-dasharray:none;stroke-opacity:1;"/>
  <path id="path184" d="  M 410.45906,212.59818   L 410.45906,200.59828   L 410.39239,199.59829   L 410.1924,198.66496   L 409.72574,197.9983   L 408.85909,197.73164   L 408.0591,198.06497   L 407.59245,198.73163   L 407.39245,200.33162   L 407.39245,212.59818   L 410.45906,212.59818  z " clip-path="url(#clipWmfPath1)" style="fill:#bfbfbf;fill-rule:nonzero;fill-opacity:1;stroke:none;"/>
  <path id="path186" d="  M 410.45906,212.59818   L 410.45906,200.59828   L 410.39239,199.59829   L 410.1924,198.66496   L 409.72574,197.9983   L 408.85909,197.73164   L 408.0591,198.06497   L 407.59245,198.73163   L 407.39245,200.33162   L 407.39245,212.59818   L 410.45906,212.59818  z " clip-path="url(#clipWmfPath1)" style="fill:none;stroke:#000000;stroke-width:0.066665433px;stroke-linecap:round;stroke-linejoin:round;stroke-miterlimit:4;stroke-dasharray:none;stroke-opacity:1;"/>
  <path id="path188" d="  M 405.85914,212.59818   L 405.85914,200.59828   L 405.79248,199.59829   L 405.59248,198.66496   L 405.12582,197.9983   L 404.25917,197.73164   L 403.45919,198.06497   L 403.0592,198.73163   L 402.8592,200.33162   L 402.8592,212.59818   L 405.85914,212.59818  z " clip-path="url(#clipWmfPath1)" style="fill:#bfbfbf;fill-rule:nonzero;fill-opacity:1;stroke:none;"/>
  <path id="path190" d="  M 405.85914,212.59818   L 405.85914,200.59828   L 405.79248,199.59829   L 405.59248,198.66496   L 405.12582,197.9983   L 404.25917,197.73164   L 403.45919,198.06497   L 403.0592,198.73163   L 402.8592,200.33162   L 402.8592,212.59818   L 405.85914,212.59818  z " clip-path="url(#clipWmfPath1)" style="fill:none;stroke:#000000;stroke-width:0.066665433px;stroke-linecap:round;stroke-linejoin:round;stroke-miterlimit:4;stroke-dasharray:none;stroke-opacity:1;"/>
  <path id="path192" d="  M 401.25923,212.59818   L 401.25923,200.59828   L 401.19256,199.59829   L 400.99257,198.66496   L 400.52591,197.9983   L 399.65926,197.73164   L 398.85927,198.06497   L 398.39262,198.73163   L 398.19262,200.33162   L 398.19262,212.59818   L 401.25923,212.59818  z " clip-path="url(#clipWmfPath1)" style="fill:#bfbfbf;fill-rule:nonzero;fill-opacity:1;stroke:none;"/>
  <path id="path194" d="  M 401.25923,212.59818   L 401.25923,200.59828   L 401.19256,199.59829   L 400.99257,198.66496   L 400.52591,197.9983   L 399.65926,197.73164   L 398.85927,198.06497   L 398.39262,198.73163   L 398.19262,200.33162   L 398.19262,212.59818   L 401.25923,212.59818  z " clip-path="url(#clipWmfPath1)" style="fill:none;stroke:#000000;stroke-width:0.066665433px;stroke-linecap:round;stroke-linejoin:round;stroke-miterlimit:4;stroke-dasharray:none;stroke-opacity:1;"/>
  <path id="path196" d="  M 396.59265,212.59818   L 396.59265,200.59828   L 396.32599,198.66496   L 395.85933,197.9983   L 395.65933,197.79831   L 395.05934,197.73164   L 394.25936,198.06497   L 393.85937,198.73163   L 393.65937,200.33162   L 393.65937,212.59818   L 396.59265,212.59818  z " clip-path="url(#clipWmfPath1)" style="fill:#bfbfbf;fill-rule:nonzero;fill-opacity:1;stroke:none;"/>
  <path id="path198" d="  M 396.59265,212.59818   L 396.59265,200.59828   L 396.32599,198.66496   L 395.85933,197.9983   L 395.65933,197.79831   L 395.05934,197.73164   L 394.25936,198.06497   L 393.85937,198.73163   L 393.65937,200.33162   L 393.65937,212.59818   L 396.59265,212.59818  z " clip-path="url(#clipWmfPath1)" style="fill:none;stroke:#000000;stroke-width:0.066665433px;stroke-linecap:round;stroke-linejoin:round;stroke-miterlimit:4;stroke-dasharray:none;stroke-opacity:1;"/>
  <path id="path200" d="  M 391.92607,212.59818   L 391.92607,200.59828   L 391.65941,198.66496   L 391.19275,197.9983   L 390.99275,197.79831   L 390.39276,197.73164   L 389.59278,198.06497   L 389.19279,198.73163   L 388.99279,200.33162   L 388.99279,212.59818   L 391.92607,212.59818  z " clip-path="url(#clipWmfPath1)" style="fill:#bfbfbf;fill-rule:nonzero;fill-opacity:1;stroke:none;"/>
  <path id="path202" d="  M 391.92607,212.59818   L 391.92607,200.59828   L 391.65941,198.66496   L 391.19275,197.9983   L 390.99275,197.79831   L 390.39276,197.73164   L 389.59278,198.06497   L 389.19279,198.73163   L 388.99279,200.33162   L 388.99279,212.59818   L 391.92607,212.59818  z " clip-path="url(#clipWmfPath1)" style="fill:none;stroke:#000000;stroke-width:0.066665433px;stroke-linecap:round;stroke-linejoin:round;stroke-miterlimit:4;stroke-dasharray:none;stroke-opacity:1;"/>
  <path id="path204" d="  M 387.12616,212.59818   L 387.12616,200.59828   L 387.05949,199.59829   L 386.8595,198.66496   L 386.39284,197.9983   L 385.52619,197.73164   L 384.7262,198.06497   L 384.32621,198.73163   L 384.12621,200.33162   L 384.12621,212.59818   L 387.12616,212.59818  z " clip-path="url(#clipWmfPath1)" style="fill:#bfbfbf;fill-rule:nonzero;fill-opacity:1;stroke:none;"/>
  <path id="path206" d="  M 387.12616,212.59818   L 387.12616,200.59828   L 387.05949,199.59829   L 386.8595,198.66496   L 386.39284,197.9983   L 385.52619,197.73164   L 384.7262,198.06497   L 384.32621,198.73163   L 384.12621,200.33162   L 384.12621,212.59818   L 387.12616,212.59818  z " clip-path="url(#clipWmfPath1)" style="fill:none;stroke:#000000;stroke-width:0.066665433px;stroke-linecap:round;stroke-linejoin:round;stroke-miterlimit:4;stroke-dasharray:none;stroke-opacity:1;"/>
  <path id="path208" d="  M 571.58941,52.332885   L 571.58941,28.266424   L 600.58887,28.266424   L 600.58887,32.333056   L 575.18934,32.333056   L 575.18934,219.19812   L 571.72274,219.19812   L 571.58941,64.19945   L 571.58941,52.332885  z " clip-path="url(#clipWmfPath1)" style="fill:#ffffff;fill-rule:nonzero;fill-opacity:1;stroke:none;"/>
  <path id="path210" d="  M 571.05608,64.19945   L 572.12273,64.19945   L 572.12273,52.332885   L 572.12273,52.332885   L 572.12273,28.799753   L 600.05554,28.799753   L 600.05554,31.799728   L 574.65602,31.799728   L 574.65602,218.66479   L 572.25606,218.66479   L 572.12273,64.19945   L 572.12273,52.332885   L 572.12273,52.332885   L 572.12273,28.266424   L 571.05608,28.266424   L 571.05608,52.332885   L 571.05608,52.332885   L 571.05608,64.19945   L 571.18941,219.73145   L 575.72266,219.73145   L 575.72266,32.866385   L 601.12219,32.866385   L 601.12219,27.733096   L 571.05608,27.733096   L 571.05608,52.332885   L 571.05608,52.332885   L 571.05608,64.19945  z " clip-path="url(#clipWmfPath1)" style="fill:#000000;fill-rule:nonzero;fill-opacity:1;stroke:#000000;stroke-width:0.066665433px;stroke-linecap:round;stroke-linejoin:round;stroke-miterlimit:4;stroke-dasharray:none;stroke-opacity:1;"/>
  <path id="path212" d="  M 571.38941,63.399457   L 551.58978,63.399457   L 551.58978,51.932888   L 571.38941,51.932888   L 571.38941,63.399457  z " clip-path="url(#clipWmfPath1)" style="fill:#ffffff;fill-rule:nonzero;fill-opacity:1;stroke:none;"/>
  <path id="path214" d="  M 571.92273,51.932888   L 570.85609,51.932888   L 570.85609,62.866128   L 552.1231,62.866128   L 552.1231,52.466217   L 570.85609,52.466217   L 570.85609,62.866128   L 551.58978,62.866128   L 551.58978,63.932786   L 571.92273,63.932786   L 571.92273,51.39956   L 551.05645,51.39956   L 551.05645,63.932786   L 571.92273,63.932786   L 571.92273,51.932888  z " clip-path="url(#clipWmfPath1)" style="fill:#000000;fill-rule:nonzero;fill-opacity:1;stroke:#000000;stroke-width:0.066665433px;stroke-linecap:round;stroke-linejoin:round;stroke-miterlimit:4;stroke-dasharray:none;stroke-opacity:1;"/>
  <path id="path216" d="  M 559.12297,62.132801   L 558.98964,61.199476   L 557.38967,61.46614   L 556.65635,61.399474   L 555.92303,61.199476   L 554.65639,60.399482   L 553.8564,59.132827   L 553.6564,58.3995   L 553.58974,57.666173   L 553.6564,56.932846   L 553.8564,56.199518   L 554.65639,54.932863   L 555.92303,54.13287   L 556.65635,53.932871   L 557.38967,53.866205   L 558.12299,53.932871   L 558.85631,54.13287   L 560.12295,54.932863   L 560.92294,56.199518   L 561.12293,56.932846   L 561.1896,57.666173   L 560.92294,59.132827   L 560.12295,60.399482   L 558.85631,61.199476   L 557.38967,61.46614   L 556.58968,61.399474   L 556.45635,62.466131   L 557.38967,62.532798   L 559.2563,62.132801   L 560.78961,61.066143   L 561.85625,59.532823   L 562.25625,57.666173   L 562.18958,56.666181   L 561.85625,55.799522   L 560.78961,54.266202   L 559.2563,53.199544   L 558.38965,52.866214   L 557.38967,52.799548   L 556.38969,52.866214   L 555.52304,53.199544   L 553.98973,54.266202   L 552.92308,55.799522   L 552.58976,56.666181   L 552.52309,57.666173   L 552.58976,58.666164   L 552.92308,59.532823   L 553.98973,61.066143   L 555.52304,62.132801   L 556.38969,62.466131   L 557.38967,62.532798   L 559.12297,62.132801  z " clip-path="url(#clipWmfPath1)" style="fill:#000000;fill-rule:nonzero;fill-opacity:1;stroke:#000000;stroke-width:0.066665433px;stroke-linecap:round;stroke-linejoin:round;stroke-miterlimit:4;stroke-dasharray:none;stroke-opacity:1;"/>
  <path id="path218" d="  M 571.52274,182.4651   L 551.72311,182.4651   L 551.72311,170.99853   L 571.52274,170.99853   L 571.52274,182.4651  z " clip-path="url(#clipWmfPath1)" style="fill:#ffffff;fill-rule:nonzero;fill-opacity:1;stroke:none;"/>
  <path id="path220" d="  M 572.05606,170.99853   L 570.98942,170.99853   L 570.98942,181.93177   L 552.25643,181.93177   L 552.25643,171.53186   L 570.98942,171.53186   L 570.98942,181.93177   L 551.72311,181.93177   L 551.72311,182.99843   L 572.05606,182.99843   L 572.05606,170.46521   L 551.18978,170.46521   L 551.18978,182.99843   L 572.05606,182.99843   L 572.05606,170.99853  z " clip-path="url(#clipWmfPath1)" style="fill:#000000;fill-rule:nonzero;fill-opacity:1;stroke:#000000;stroke-width:0.066665433px;stroke-linecap:round;stroke-linejoin:round;stroke-miterlimit:4;stroke-dasharray:none;stroke-opacity:1;"/>
  <path id="path222" d="  M 559.2563,181.19845   L 559.12297,180.26512   L 557.523,180.53179   L 556.78968,180.46512   L 556.05636,180.26512   L 554.78972,179.46513   L 553.98973,178.19847   L 553.78974,177.46515   L 553.72307,176.73182   L 553.78974,175.99849   L 553.98973,175.26516   L 554.78972,173.99851   L 556.05636,173.19852   L 556.78968,172.99852   L 557.523,172.93185   L 558.25632,172.99852   L 558.98964,173.19852   L 560.25628,173.99851   L 561.05627,175.26516   L 561.25626,175.99849   L 561.32293,176.73182   L 561.05627,178.19847   L 560.25628,179.46513   L 558.98964,180.26512   L 557.523,180.53179   L 556.72301,180.46512   L 556.58968,181.53178   L 557.523,181.59844   L 559.38963,181.19845   L 560.92294,180.13179   L 561.98958,178.59847   L 562.38958,176.73182   L 562.32291,175.73183   L 561.98958,174.86517   L 560.92294,173.33185   L 559.38963,172.26519   L 558.52298,171.93186   L 557.523,171.86519   L 556.52302,171.93186   L 555.65637,172.26519   L 554.12306,173.33185   L 553.05642,174.86517   L 552.72309,175.73183   L 552.65642,176.73182   L 552.72309,177.73181   L 553.05642,178.59847   L 554.12306,180.13179   L 555.65637,181.19845   L 556.52302,181.53178   L 557.523,181.59844   L 559.2563,181.19845  z " clip-path="url(#clipWmfPath1)" style="fill:#000000;fill-rule:nonzero;fill-opacity:1;stroke:#000000;stroke-width:0.066665433px;stroke-linecap:round;stroke-linejoin:round;stroke-miterlimit:4;stroke-dasharray:none;stroke-opacity:1;"/>
  <path id="path250" d="  M 372.3931,67.26609   L 373.45974,67.532755   L 374.1264,68.332748   L 374.39306,69.266073   L 374.1264,70.266065   L 373.45974,70.932726   L 372.3931,71.19939   L 371.39312,70.932726   L 370.72646,70.266065   L 370.52647,69.266073   L 370.79313,68.332748   L 371.39312,67.532755   L 372.3931,67.26609  z    M 372.3931,67.399423   L 371.59311,67.732753   L 370.85979,68.399414   L 370.6598,69.266073   L 370.85979,70.132732   L 371.12645,70.532729   L 371.59311,70.799393   L 372.3931,71.066058   L 373.25975,70.799393   L 373.99307,70.132732   L 374.25973,69.266073   L 373.99307,68.399414   L 373.65974,67.999417   L 373.25975,67.732753   L 372.3931,67.399423  z    M 371.32645,67.999417   L 372.3931,67.999417   L 373.05975,68.199416   L 373.25975,68.666078   L 373.05975,69.066075   L 372.59309,69.266073   L 373.19308,70.132732   L 373.45974,70.332731   L 373.59308,70.332731   L 373.59308,70.466063   L 373.05975,70.466063   L 372.1931,69.266073   L 372.12644,69.266073   L 372.12644,70.132732   L 372.1931,70.332731   L 372.45976,70.332731   L 372.45976,70.466063   L 371.32645,70.466063   L 371.32645,70.332731   L 371.52645,70.332731   L 371.59311,70.266065   L 371.65978,69.932734   L 371.65978,68.532746   L 371.59311,68.332748   L 371.59311,68.13275   L 371.32645,68.13275   L 371.32645,67.999417  z    M 372.12644,69.199407   L 372.45976,69.132741   L 372.72642,68.932743   L 372.79309,68.666078   L 372.59309,68.332748   L 372.32643,68.066083   L 372.12644,68.13275   L 372.12644,69.199407  z   " clip-path="url(#clipWmfPath1)" style="fill:#bfbfbf;fill-rule:evenodd;fill-opacity:1;stroke:none;"/>
  <path id="path252" d="  M 13.999741,184.06509   L 13.999741,14.999871   L 325.06064,14.999871   L 325.06064,184.06509   L 13.999741,184.06509  z " clip-path="url(#clipWmfPath1)" style="fill:#ababab;fill-rule:evenodd;fill-opacity:1;stroke:none;"/>
  <path id="path254" d="  M 13.999741,184.06509   L 13.999741,14.999871   L 325.06064,14.999871   L 325.06064,184.06509   L 13.999741,184.06509  z " clip-path="url(#clipWmfPath1)" style="fill:none;stroke:#000000;stroke-width:0.066665433px;stroke-linecap:round;stroke-linejoin:round;stroke-miterlimit:4;stroke-dasharray:none;stroke-opacity:1;"/>
  <path id="path256" d="  M 182.66328,92.865871   L 183.72993,92.999203   L 184.59658,93.465866   L 185.19657,94.132527   L 185.39656,94.865854   L 185.39656,104.33244   L 185.19657,105.06577   L 184.59658,105.66576   L 183.72993,105.99909   L 182.66328,106.13242   L 156.33044,106.13242   L 155.26379,105.99909   L 154.39714,105.53243   L 153.79715,104.86577   L 153.59715,104.13244   L 153.59715,94.732522   L 153.79715,93.999195   L 154.39714,93.3992   L 155.26379,92.999203   L 156.33044,92.865871   L 182.66328,92.865871  z " clip-path="url(#clipWmfPath1)" style="fill:#ffffff;fill-rule:nonzero;fill-opacity:1;stroke:none;"/>
  <path id="path258" d="  M 156.33044,92.332542   L 156.33044,93.3992   L 182.66328,93.3992   L 183.5966,93.465866   L 184.26325,93.865862   L 184.72991,94.399191   L 184.86324,94.93252   L 184.86324,104.26577   L 184.72991,104.7991   L 184.32992,105.1991   L 183.5966,105.53243   L 182.66328,105.5991   L 156.33044,105.5991   L 155.39712,105.53243   L 154.73047,105.13243   L 154.26381,104.5991   L 154.13048,104.06578   L 154.13048,94.799188   L 154.26381,94.265859   L 154.6638,93.799196   L 155.39712,93.465866   L 156.33044,93.3992   L 182.66328,93.3992   L 183.66326,93.532532   L 183.79659,92.465874   L 182.66328,92.332542   L 156.33044,92.332542   L 155.13046,92.532541   L 154.13048,92.999203   L 153.33049,93.73253   L 153.06383,94.665856   L 153.06383,104.19911   L 153.33049,105.13243   L 154.06381,105.93243   L 155.13046,106.46575   L 156.33044,106.66575   L 182.66328,106.66575   L 183.86326,106.46575   L 184.86324,106.13242   L 185.66323,105.33243   L 185.92989,104.39911   L 185.92989,94.799188   L 185.66323,93.865862   L 184.92991,93.065869   L 183.86326,92.532541   L 182.66328,92.332542   L 156.33044,92.332542  z " clip-path="url(#clipWmfPath1)" style="fill:#000000;fill-rule:nonzero;fill-opacity:1;stroke:#000000;stroke-width:0.066665433px;stroke-linecap:round;stroke-linejoin:round;stroke-miterlimit:4;stroke-dasharray:none;stroke-opacity:1;"/>
  <g id="g260" clip-path="url(#clipWmfPath1)"/>
  <g id="g274" clip-path="url(#clipWmfPath1)">
    <text id="text272" y="0.000000" x="0.000000" transform="matrix(1.000000,-0.000000,0.000000,1.000000,154.930462,103.665778)" style="font-size:10.687500px;font-style:normal;font-variant:normal;font-weight:400;font-stretch:Condensed;line-height:125.000000%;letter-spacing:0px;word-spacing:0px;fill:#000000;fill-opacity:1;stroke:none;font-family:Helvetica-Narrow;text-align:start;text-anchor:start;" xml:space="preserve"><tspan id="tspan270" y="0.000000" x="0.000000"><tspan id="tspan262" style="fill:#000000;font-size:10.687500px;font-style:normal;font-variant:normal;font-weight:400;font-stretch:Condensed;font-family:Helvetica-Narrow;" dy="0.000000" dx="0.000000">D</tspan><tspan id="tspan264" style="fill:#000000;font-size:10.687500px;font-style:normal;font-variant:normal;font-weight:400;font-stretch:Condensed;font-family:Helvetica-Narrow;" dy="0.000000" dx="-0.249847">R</tspan><tspan id="tspan266" style="fill:#000000;font-size:10.687500px;font-style:normal;font-variant:normal;font-weight:400;font-stretch:Condensed;font-family:Helvetica-Narrow;" dy="0.000000" dx="0.016374">A</tspan><tspan id="tspan268" style="fill:#000000;font-size:10.687500px;font-style:normal;font-variant:normal;font-weight:400;font-stretch:Condensed;font-family:Helvetica-Narrow;" dy="0.000000" dx="-0.102677">M</tspan></tspan></text>
  </g>
  <path id="path276" d="  M 525.25693,49.866239   L 529.92351,49.866239   L 529.92351,64.399448   L 525.25693,64.399448   L 525.25693,49.866239  z " clip-path="url(#clipWmfPath1)" style="fill:#ffffff;fill-rule:nonzero;fill-opacity:1;stroke:none;"/>
  <path id="path278" d="  M 525.25693,49.866239   L 529.92351,49.866239   L 529.92351,64.399448   L 525.25693,64.399448   L 525.25693,49.866239  z " clip-path="url(#clipWmfPath1)" style="fill:none;stroke:#000000;stroke-width:0.066665433px;stroke-linecap:round;stroke-linejoin:round;stroke-miterlimit:4;stroke-dasharray:none;stroke-opacity:1;"/>
  <path id="path280" d="  M 526.12358,60.599481   L 528.85686,60.599481   L 528.85686,63.399457   L 526.12358,63.399457   L 526.12358,60.599481  z " clip-path="url(#clipWmfPath1)" style="fill:#000000;fill-rule:nonzero;fill-opacity:1;stroke:none;"/>
  <path id="path282" d="  M 526.12358,60.599481   L 528.85686,60.599481   L 528.85686,63.399457   L 526.12358,63.399457   L 526.12358,60.599481  z " clip-path="url(#clipWmfPath1)" style="fill:none;stroke:#000000;stroke-width:0.066665433px;stroke-linecap:round;stroke-linejoin:round;stroke-miterlimit:4;stroke-dasharray:none;stroke-opacity:1;"/>
  <path id="path284" d="  M 526.12358,51.332894   L 528.85686,51.332894   L 528.85686,54.066203   L 526.12358,54.066203   L 526.12358,51.332894  z " clip-path="url(#clipWmfPath1)" style="fill:#000000;fill-rule:nonzero;fill-opacity:1;stroke:none;"/>
  <path id="path286" d="  M 526.12358,51.332894   L 528.85686,51.332894   L 528.85686,54.066203   L 526.12358,54.066203   L 526.12358,51.332894  z " clip-path="url(#clipWmfPath1)" style="fill:none;stroke:#000000;stroke-width:0.066665433px;stroke-linecap:round;stroke-linejoin:round;stroke-miterlimit:4;stroke-dasharray:none;stroke-opacity:1;"/>
  <path id="path288" d="  M 526.12358,55.932854   L 528.85686,55.932854   L 528.85686,58.666164   L 526.12358,58.666164   L 526.12358,55.932854  z " clip-path="url(#clipWmfPath1)" style="fill:#000000;fill-rule:nonzero;fill-opacity:1;stroke:none;"/>
  <path id="path290" d="  M 526.12358,55.932854   L 528.85686,55.932854   L 528.85686,58.666164   L 526.12358,58.666164   L 526.12358,55.932854  z " clip-path="url(#clipWmfPath1)" style="fill:none;stroke:#000000;stroke-width:0.066665433px;stroke-linecap:round;stroke-linejoin:round;stroke-miterlimit:4;stroke-dasharray:none;stroke-opacity:1;"/>
  <g id="g292" clip-path="url(#clipWmfPath1)"/>
  <g id="g322" clip-path="url(#clipWmfPath1)">
    <text id="text308" y="0.000000" x="0.000000" transform="matrix(1.000000,-0.000000,0.000000,1.000000,117.997813,210.998192)" style="font-size:10.687500px;font-style:normal;font-variant:normal;font-weight:400;font-stretch:Condensed;line-height:125.000000%;letter-spacing:0px;word-spacing:0px;fill:#000000;fill-opacity:1;stroke:none;font-family:Helvetica-Narrow;text-align:start;text-anchor:start;" xml:space="preserve"><tspan id="tspan306" y="0.000000" x="0.000000"><tspan id="tspan294" style="fill:#000000;font-size:10.687500px;font-style:normal;font-variant:normal;font-weight:400;font-stretch:Condensed;font-family:Helvetica-Narrow;" dy="0.000000" dx="0.000000">M</tspan><tspan id="tspan296" style="fill:#000000;font-size:10.687500px;font-style:normal;font-variant:normal;font-weight:400;font-stretch:Condensed;font-family:Helvetica-Narrow;" dy="0.000000" dx="-0.022872">E</tspan><tspan id="tspan298" style="fill:#000000;font-size:10.687500px;font-style:normal;font-variant:normal;font-weight:400;font-stretch:Condensed;font-family:Helvetica-Narrow;" dy="0.000000" dx="-0.102677">M</tspan><tspan id="tspan300" style="fill:#000000;font-size:10.687500px;font-style:normal;font-variant:normal;font-weight:400;font-stretch:Condensed;font-family:Helvetica-Narrow;" dy="0.000000" dx="-0.022872">O</tspan><tspan id="tspan302" style="fill:#000000;font-size:10.687500px;font-style:normal;font-variant:normal;font-weight:400;font-stretch:Condensed;font-family:Helvetica-Narrow;" dy="0.000000" dx="-0.075258">R</tspan><tspan id="tspan304" style="fill:#000000;font-size:10.687500px;font-style:normal;font-variant:normal;font-weight:400;font-stretch:Condensed;font-family:Helvetica-Narrow;" dy="0.000000" dx="-0.116956">Y</tspan></tspan></text>
    <text id="text320" y="0.000000" x="50.865724" transform="matrix(1.000000,-0.000000,0.000000,1.000000,117.997813,210.998192)" style="font-size:10.687500px;font-style:normal;font-variant:normal;font-weight:400;font-stretch:Condensed;line-height:125.000000%;letter-spacing:0px;word-spacing:0px;fill:#000000;fill-opacity:1;stroke:none;font-family:Helvetica-Narrow;text-align:start;text-anchor:start;" xml:space="preserve"><tspan id="tspan318" y="0.000000" x="50.865724"><tspan id="tspan310" style="fill:#000000;font-size:10.687500px;font-style:normal;font-variant:normal;font-weight:400;font-stretch:Condensed;font-family:Helvetica-Narrow;" dy="0.000000" dx="0.000000">C</tspan><tspan id="tspan312" style="fill:#000000;font-size:10.687500px;font-style:normal;font-variant:normal;font-weight:400;font-stretch:Condensed;font-family:Helvetica-Narrow;" dy="0.000000" dx="-0.050291">A</tspan><tspan id="tspan314" style="fill:#000000;font-size:10.687500px;font-style:normal;font-variant:normal;font-weight:400;font-stretch:Condensed;font-family:Helvetica-Narrow;" dy="0.000000" dx="-0.102677">R</tspan><tspan id="tspan316" style="fill:#000000;font-size:10.687500px;font-style:normal;font-variant:normal;font-weight:400;font-stretch:Condensed;font-family:Helvetica-Narrow;" dy="0.000000" dx="-0.050291">D</tspan></tspan></text>
  </g>
  <path id="path324" d="  M 512.19051,55.399525   L 512.19051,52.599549   L 512.05718,51.866222   L 511.65718,51.39956   L 510.99053,51.066229   L 510.25721,50.932897   L 495.19082,50.932897   L 494.4575,51.066229   L 493.85751,51.466226   L 493.39085,52.066221   L 493.25752,52.799548   L 493.25752,62.266133   L 493.39085,62.99946   L 493.85751,63.599455   L 494.4575,63.932786   L 495.19082,64.066118   L 510.25721,64.066118   L 510.99053,63.866119   L 511.65718,63.466123   L 512.05718,62.799462   L 512.19051,61.999469   L 512.19051,59.466157   L 524.25695,57.466174   L 512.19051,55.399525  z " clip-path="url(#clipWmfPath1)" style="fill:#ffffff;fill-rule:nonzero;fill-opacity:1;stroke:none;"/>
  <path id="path326" d="  M 524.19028,57.932837   L 524.79027,57.53284   L 524.32361,56.999512   L 512.72383,54.999529   L 512.72383,52.532883   L 512.52383,51.666224   L 511.99051,50.999563   L 511.12386,50.599566   L 510.32387,50.399568   L 495.12416,50.399568   L 494.25751,50.599566   L 493.52419,51.066229   L 492.9242,51.866222   L 492.7242,52.732882   L 492.7242,62.332799   L 492.9242,63.199459   L 493.52419,63.999452   L 494.25751,64.399448   L 495.12416,64.599447   L 510.32387,64.599447   L 511.19052,64.332782   L 512.05718,63.866119   L 512.52383,62.99946   L 512.72383,62.066135   L 512.72383,59.866154   L 524.32361,57.932837   L 524.32361,56.999512   L 512.72383,54.999529   L 512.72383,52.599549   L 512.19051,52.066221   L 511.65718,52.599549   L 511.65718,55.799522   L 521.19034,57.466174   L 511.65718,59.066161   L 511.65718,61.932803   L 511.59052,62.599464   L 511.25719,63.066126   L 510.79053,63.399457   L 510.19054,63.532789   L 495.25749,63.532789   L 494.6575,63.466123   L 494.19084,63.199459   L 493.85751,62.799462   L 493.79085,62.199467   L 493.79085,52.866214   L 493.85751,52.266219   L 494.19084,51.866222   L 494.6575,51.532892   L 495.25749,51.466226   L 510.19054,51.466226   L 510.8572,51.532892   L 511.32386,51.799556   L 511.59052,52.066221   L 511.65718,52.666215   L 511.65718,55.799522   L 524.19028,57.932837  z " clip-path="url(#clipWmfPath1)" style="fill:#000000;fill-rule:nonzero;fill-opacity:1;stroke:#000000;stroke-width:0.066665433px;stroke-linecap:round;stroke-linejoin:round;stroke-miterlimit:4;stroke-dasharray:none;stroke-opacity:1;"/>
  <g id="g328" clip-path="url(#clipWmfPath1)"/>
  <g id="g338" clip-path="url(#clipWmfPath1)">
    <text id="text336" y="0.000000" x="0.000000" transform="matrix(1.000000,-0.000000,0.000000,1.000000,496.457465,61.532806)" style="font-size:10.687500px;font-style:normal;font-variant:normal;font-weight:400;font-stretch:Condensed;line-height:125.000000%;letter-spacing:0px;word-spacing:0px;fill:#000000;fill-opacity:1;stroke:none;font-family:Helvetica-Narrow;text-align:start;text-anchor:start;" xml:space="preserve"><tspan id="tspan334" y="0.000000" x="0.000000"><tspan id="tspan330" style="fill:#000000;font-size:10.687500px;font-style:normal;font-variant:normal;font-weight:400;font-stretch:Condensed;font-family:Helvetica-Narrow;" dy="0.000000" dx="0.000000">P</tspan><tspan id="tspan332" style="fill:#000000;font-size:10.687500px;font-style:normal;font-variant:normal;font-weight:400;font-stretch:Condensed;font-family:Helvetica-Narrow;" dy="0.000000" dx="-0.102677">1</tspan></tspan></text>
  </g>
  <path id="path340" d="  M 503.39067,116.46567   L 503.39067,101.79913   L 539.52333,101.79913   L 539.52333,116.46567   L 503.39067,116.46567  z " clip-path="url(#clipWmfPath1)" style="fill:#ffffff;fill-rule:nonzero;fill-opacity:1;stroke:none;"/>
  <path id="path342" d="  M 503.39067,116.46567   L 503.39067,101.79913   L 539.52333,101.79913   L 539.52333,116.46567   L 503.39067,116.46567  z " clip-path="url(#clipWmfPath1)" style="fill:none;stroke:#000000;stroke-width:0.066665433px;stroke-linecap:round;stroke-linejoin:round;stroke-miterlimit:4;stroke-dasharray:none;stroke-opacity:1;"/>
  <path id="path344" d="  M 531.79014,104.9991   L 531.79014,112.93237   L 535.85673,112.93237   L 535.85673,104.9991   L 531.79014,104.9991  z " clip-path="url(#clipWmfPath1)" style="fill:#000000;fill-rule:nonzero;fill-opacity:1;stroke:none;"/>
  <path id="path346" d="  M 531.79014,104.9991   L 531.79014,112.93237   L 535.85673,112.93237   L 535.85673,104.9991   L 531.79014,104.9991  z " clip-path="url(#clipWmfPath1)" style="fill:none;stroke:#000000;stroke-width:0.066665433px;stroke-linecap:round;stroke-linejoin:round;stroke-miterlimit:4;stroke-dasharray:none;stroke-opacity:1;"/>
  <path id="path348" d="  M 520.05703,104.9991   L 520.05703,112.93237   L 524.12362,112.93237   L 524.12362,104.9991   L 520.05703,104.9991  z " clip-path="url(#clipWmfPath1)" style="fill:#000000;fill-rule:nonzero;fill-opacity:1;stroke:none;"/>
  <path id="path350" d="  M 520.05703,104.9991   L 520.05703,112.93237   L 524.12362,112.93237   L 524.12362,104.9991   L 520.05703,104.9991  z " clip-path="url(#clipWmfPath1)" style="fill:none;stroke:#000000;stroke-width:0.066665433px;stroke-linecap:round;stroke-linejoin:round;stroke-miterlimit:4;stroke-dasharray:none;stroke-opacity:1;"/>
  <path id="path352" d="  M 525.72359,104.9991   L 525.72359,112.93237   L 529.79018,112.93237   L 529.79018,104.9991   L 525.72359,104.9991  z " clip-path="url(#clipWmfPath1)" style="fill:#000000;fill-rule:nonzero;fill-opacity:1;stroke:none;"/>
  <path id="path354" d="  M 525.72359,104.9991   L 525.72359,112.93237   L 529.79018,112.93237   L 529.79018,104.9991   L 525.72359,104.9991  z " clip-path="url(#clipWmfPath1)" style="fill:none;stroke:#000000;stroke-width:0.066665433px;stroke-linecap:round;stroke-linejoin:round;stroke-miterlimit:4;stroke-dasharray:none;stroke-opacity:1;"/>
  <path id="path356" d="  M 513.92381,104.9991   L 513.92381,112.93237   L 517.9904,112.93237   L 517.9904,104.9991   L 513.92381,104.9991  z " clip-path="url(#clipWmfPath1)" style="fill:#000000;fill-rule:nonzero;fill-opacity:1;stroke:none;"/>
  <path id="path358" d="  M 513.92381,104.9991   L 513.92381,112.93237   L 517.9904,112.93237   L 517.9904,104.9991   L 513.92381,104.9991  z " clip-path="url(#clipWmfPath1)" style="fill:none;stroke:#000000;stroke-width:0.066665433px;stroke-linecap:round;stroke-linejoin:round;stroke-miterlimit:4;stroke-dasharray:none;stroke-opacity:1;"/>
  <path id="path360" d="  M 507.92392,104.9991   L 507.92392,112.93237   L 511.99051,112.93237   L 511.99051,104.9991   L 507.92392,104.9991  z " clip-path="url(#clipWmfPath1)" style="fill:#000000;fill-rule:nonzero;fill-opacity:1;stroke:none;"/>
  <path id="path362" d="  M 507.92392,104.9991   L 507.92392,112.93237   L 511.99051,112.93237   L 511.99051,104.9991   L 507.92392,104.9991  z " clip-path="url(#clipWmfPath1)" style="fill:none;stroke:#000000;stroke-width:0.066665433px;stroke-linecap:round;stroke-linejoin:round;stroke-miterlimit:4;stroke-dasharray:none;stroke-opacity:1;"/>
  <path id="path364" d="  M 503.39067,141.59879   L 503.39067,126.93225   L 539.52333,126.93225   L 539.52333,141.59879   L 503.39067,141.59879  z " clip-path="url(#clipWmfPath1)" style="fill:#ffffff;fill-rule:nonzero;fill-opacity:1;stroke:none;"/>
  <path id="path366" d="  M 503.39067,141.59879   L 503.39067,126.93225   L 539.52333,126.93225   L 539.52333,141.59879   L 503.39067,141.59879  z " clip-path="url(#clipWmfPath1)" style="fill:none;stroke:#000000;stroke-width:0.066665433px;stroke-linecap:round;stroke-linejoin:round;stroke-miterlimit:4;stroke-dasharray:none;stroke-opacity:1;"/>
  <path id="path368" d="  M 531.79014,130.13222   L 531.79014,138.06548   L 535.85673,138.06548   L 535.85673,130.13222   L 531.79014,130.13222  z " clip-path="url(#clipWmfPath1)" style="fill:#000000;fill-rule:nonzero;fill-opacity:1;stroke:none;"/>
  <path id="path370" d="  M 531.79014,130.13222   L 531.79014,138.06548   L 535.85673,138.06548   L 535.85673,130.13222   L 531.79014,130.13222  z " clip-path="url(#clipWmfPath1)" style="fill:none;stroke:#000000;stroke-width:0.066665433px;stroke-linecap:round;stroke-linejoin:round;stroke-miterlimit:4;stroke-dasharray:none;stroke-opacity:1;"/>
  <path id="path372" d="  M 520.05703,130.13222   L 520.05703,138.06548   L 524.12362,138.06548   L 524.12362,130.13222   L 520.05703,130.13222  z " clip-path="url(#clipWmfPath1)" style="fill:#000000;fill-rule:nonzero;fill-opacity:1;stroke:none;"/>
  <path id="path374" d="  M 520.05703,130.13222   L 520.05703,138.06548   L 524.12362,138.06548   L 524.12362,130.13222   L 520.05703,130.13222  z " clip-path="url(#clipWmfPath1)" style="fill:none;stroke:#000000;stroke-width:0.066665433px;stroke-linecap:round;stroke-linejoin:round;stroke-miterlimit:4;stroke-dasharray:none;stroke-opacity:1;"/>
  <path id="path376" d="  M 525.72359,130.13222   L 525.72359,138.06548   L 529.79018,138.06548   L 529.79018,130.13222   L 525.72359,130.13222  z " clip-path="url(#clipWmfPath1)" style="fill:#000000;fill-rule:nonzero;fill-opacity:1;stroke:none;"/>
  <path id="path378" d="  M 525.72359,130.13222   L 525.72359,138.06548   L 529.79018,138.06548   L 529.79018,130.13222   L 525.72359,130.13222  z " clip-path="url(#clipWmfPath1)" style="fill:none;stroke:#000000;stroke-width:0.066665433px;stroke-linecap:round;stroke-linejoin:round;stroke-miterlimit:4;stroke-dasharray:none;stroke-opacity:1;"/>
  <path id="path380" d="  M 513.92381,130.13222   L 513.92381,138.06548   L 517.9904,138.06548   L 517.9904,130.13222   L 513.92381,130.13222  z " clip-path="url(#clipWmfPath1)" style="fill:#000000;fill-rule:nonzero;fill-opacity:1;stroke:none;"/>
  <path id="path382" d="  M 513.92381,130.13222   L 513.92381,138.06548   L 517.9904,138.06548   L 517.9904,130.13222   L 513.92381,130.13222  z " clip-path="url(#clipWmfPath1)" style="fill:none;stroke:#000000;stroke-width:0.066665433px;stroke-linecap:round;stroke-linejoin:round;stroke-miterlimit:4;stroke-dasharray:none;stroke-opacity:1;"/>
  <path id="path384" d="  M 507.92392,130.13222   L 507.92392,138.06548   L 511.99051,138.06548   L 511.99051,130.13222   L 507.92392,130.13222  z " clip-path="url(#clipWmfPath1)" style="fill:#000000;fill-rule:nonzero;fill-opacity:1;stroke:none;"/>
  <path id="path386" d="  M 507.92392,130.13222   L 507.92392,138.06548   L 511.99051,138.06548   L 511.99051,130.13222   L 507.92392,130.13222  z " clip-path="url(#clipWmfPath1)" style="fill:none;stroke:#000000;stroke-width:0.066665433px;stroke-linecap:round;stroke-linejoin:round;stroke-miterlimit:4;stroke-dasharray:none;stroke-opacity:1;"/>
  <path id="path388" d="  M 490.85757,106.86575   L 490.85757,104.06578   L 490.72424,103.33245   L 490.32424,102.86579   L 489.65759,102.53245   L 488.92427,102.39912   L 473.85788,102.39912   L 473.12456,102.53245   L 472.52457,102.93245   L 472.05792,103.53245   L 471.92459,104.26577   L 471.92459,113.73236   L 472.05792,114.46569   L 472.52457,115.06568   L 473.12456,115.39901   L 473.85788,115.53234   L 488.92427,115.53234   L 489.65759,115.33235   L 490.32424,114.93235   L 490.72424,114.26569   L 490.85757,113.46569   L 490.85757,110.93238   L 502.92401,108.9324   L 490.85757,106.86575  z " clip-path="url(#clipWmfPath1)" style="fill:#ffffff;fill-rule:nonzero;fill-opacity:1;stroke:none;"/>
  <path id="path390" d="  M 502.85735,109.39906   L 503.45733,108.99907   L 502.99068,108.46574   L 491.39089,106.46575   L 491.39089,103.99911   L 491.1909,103.13245   L 490.65757,102.46579   L 489.79092,102.06579   L 488.99094,101.86579   L 473.79122,101.86579   L 472.92457,102.06579   L 472.19125,102.53245   L 471.59126,103.33245   L 471.39126,104.19911   L 471.39126,113.79902   L 471.59126,114.66568   L 472.19125,115.46568   L 472.92457,115.86567   L 473.79122,116.06567   L 488.99094,116.06567   L 489.85759,115.79901   L 490.72424,115.33235   L 491.1909,114.46569   L 491.39089,113.53236   L 491.39089,111.33238   L 502.99068,109.39906   L 502.99068,108.46574   L 491.39089,106.46575   L 491.39089,104.06578   L 490.85757,103.53245   L 490.32424,104.06578   L 490.32424,107.26575   L 499.8574,108.9324   L 490.32424,110.53239   L 490.32424,113.39903   L 490.25758,114.06569   L 489.92425,114.53235   L 489.45759,114.86568   L 488.85761,114.99901   L 473.92455,114.99901   L 473.32456,114.93235   L 472.8579,114.66568   L 472.52457,114.26569   L 472.45791,113.66569   L 472.45791,104.33244   L 472.52457,103.73244   L 472.8579,103.33245   L 473.32456,102.99912   L 473.92455,102.93245   L 488.85761,102.93245   L 489.52426,102.99912   L 489.99092,103.26578   L 490.25758,103.53245   L 490.32424,104.13244   L 490.32424,107.26575   L 502.85735,109.39906  z " clip-path="url(#clipWmfPath1)" style="fill:#000000;fill-rule:nonzero;fill-opacity:1;stroke:#000000;stroke-width:0.066665433px;stroke-linecap:round;stroke-linejoin:round;stroke-miterlimit:4;stroke-dasharray:none;stroke-opacity:1;"/>
  <path id="path392" d="  M 490.85757,132.39887   L 490.85757,129.59889   L 490.72424,128.86556   L 490.32424,128.3989   L 489.65759,128.06557   L 488.92427,127.93224   L 473.85788,127.93224   L 473.12456,128.06557   L 472.52457,128.46557   L 472.05792,129.06556   L 471.92459,129.79889   L 471.92459,139.26547   L 472.05792,139.9988   L 472.52457,140.5988   L 473.12456,140.93213   L 473.85788,141.06546   L 488.92427,141.06546   L 489.65759,140.86546   L 490.32424,140.46546   L 490.72424,139.7988   L 490.85757,138.99881   L 490.85757,136.4655   L 502.92401,134.46551   L 490.85757,132.39887  z " clip-path="url(#clipWmfPath1)" style="fill:#ffffff;fill-rule:nonzero;fill-opacity:1;stroke:none;"/>
  <path id="path394" d="  M 502.85735,134.93218   L 503.45733,134.53218   L 502.99068,133.99885   L 491.39089,131.99887   L 491.39089,129.53222   L 491.1909,128.66556   L 490.65757,127.9989   L 489.79092,127.59891   L 488.99094,127.39891   L 473.79122,127.39891   L 472.92457,127.59891   L 472.19125,128.06557   L 471.59126,128.86556   L 471.39126,129.73222   L 471.39126,139.33214   L 471.59126,140.1988   L 472.19125,140.99879   L 472.92457,141.39879   L 473.79122,141.59879   L 488.99094,141.59879   L 489.85759,141.33212   L 490.72424,140.86546   L 491.1909,139.9988   L 491.39089,139.06548   L 491.39089,136.86549   L 502.99068,134.93218   L 502.99068,133.99885   L 491.39089,131.99887   L 491.39089,129.59889   L 490.85757,129.06556   L 490.32424,129.59889   L 490.32424,132.79886   L 499.8574,134.46551   L 490.32424,136.0655   L 490.32424,138.93214   L 490.25758,139.5988   L 489.92425,140.06547   L 489.45759,140.3988   L 488.85761,140.53213   L 473.92455,140.53213   L 473.32456,140.46546   L 472.8579,140.1988   L 472.52457,139.7988   L 472.45791,139.19881   L 472.45791,129.86555   L 472.52457,129.26556   L 472.8579,128.86556   L 473.32456,128.53223   L 473.92455,128.46557   L 488.85761,128.46557   L 489.52426,128.53223   L 489.99092,128.7989   L 490.25758,129.06556   L 490.32424,129.66556   L 490.32424,132.79886   L 502.85735,134.93218  z " clip-path="url(#clipWmfPath1)" style="fill:#000000;fill-rule:nonzero;fill-opacity:1;stroke:#000000;stroke-width:0.066665433px;stroke-linecap:round;stroke-linejoin:round;stroke-miterlimit:4;stroke-dasharray:none;stroke-opacity:1;"/>
  <g id="g396" clip-path="url(#clipWmfPath1)"/>
  <g id="g406" clip-path="url(#clipWmfPath1)">
    <text id="text404" y="0.000000" x="0.000000" transform="matrix(1.000000,-0.000000,0.000000,1.000000,475.124527,112.599035)" style="font-size:10.687500px;font-style:normal;font-variant:normal;font-weight:400;font-stretch:Condensed;line-height:125.000000%;letter-spacing:0px;word-spacing:0px;fill:#000000;fill-opacity:1;stroke:none;font-family:Helvetica-Narrow;text-align:start;text-anchor:start;" xml:space="preserve"><tspan id="tspan402" y="0.000000" x="0.000000"><tspan id="tspan398" style="fill:#000000;font-size:10.687500px;font-style:normal;font-variant:normal;font-weight:400;font-stretch:Condensed;font-family:Helvetica-Narrow;" dy="0.000000" dx="0.000000">S</tspan><tspan id="tspan400" style="fill:#000000;font-size:10.687500px;font-style:normal;font-variant:normal;font-weight:400;font-stretch:Condensed;font-family:Helvetica-Narrow;" dy="0.000000" dx="-0.102677">1</tspan></tspan></text>
  </g>
  <g id="g408" clip-path="url(#clipWmfPath1)"/>
  <g id="g418" clip-path="url(#clipWmfPath1)">
    <text id="text416" y="0.000000" x="0.000000" transform="matrix(1.000000,-0.000000,0.000000,1.000000,475.124527,138.132150)" style="font-size:10.687500px;font-style:normal;font-variant:normal;font-weight:400;font-stretch:Condensed;line-height:125.000000%;letter-spacing:0px;word-spacing:0px;fill:#000000;fill-opacity:1;stroke:none;font-family:Helvetica-Narrow;text-align:start;text-anchor:start;" xml:space="preserve"><tspan id="tspan414" y="0.000000" x="0.000000"><tspan id="tspan410" style="fill:#000000;font-size:10.687500px;font-style:normal;font-variant:normal;font-weight:400;font-stretch:Condensed;font-family:Helvetica-Narrow;" dy="0.000000" dx="0.000000">S</tspan><tspan id="tspan412" style="fill:#000000;font-size:10.687500px;font-style:normal;font-variant:normal;font-weight:400;font-stretch:Condensed;font-family:Helvetica-Narrow;" dy="0.000000" dx="-0.102677">2</tspan></tspan></text>
  </g>
  <g id="g420" clip-path="url(#clipWmfPath1)"/>
  <g id="g438" clip-path="url(#clipWmfPath1)">
    <text id="text436" y="0.000000" x="0.000000" transform="matrix(1.000000,-0.000000,0.000000,1.000000,431.392004,27.733096)" style="font-size:9.312500px;font-style:normal;font-variant:normal;font-weight:400;font-stretch:Condensed;line-height:125.000000%;letter-spacing:0px;word-spacing:0px;fill:#000000;fill-opacity:1;stroke:none;font-family:Helvetica-Narrow;text-align:start;text-anchor:start;" xml:space="preserve"><tspan id="tspan434" y="0.000000" x="0.000000"><tspan id="tspan422" style="fill:#000000;font-size:9.312500px;font-style:normal;font-variant:normal;font-weight:400;font-stretch:Condensed;font-family:Helvetica-Narrow;" dy="0.000000" dx="0.000000">M</tspan><tspan id="tspan424" style="fill:#000000;font-size:9.312500px;font-style:normal;font-variant:normal;font-weight:400;font-stretch:Condensed;font-family:Helvetica-Narrow;" dy="0.000000" dx="0.202678">3</tspan><tspan id="tspan426" style="fill:#000000;font-size:9.312500px;font-style:normal;font-variant:normal;font-weight:400;font-stretch:Condensed;font-family:Helvetica-Narrow;" dy="0.000000" dx="0.183322">4</tspan><tspan id="tspan428" style="fill:#000000;font-size:9.312500px;font-style:normal;font-variant:normal;font-weight:400;font-stretch:Condensed;font-family:Helvetica-Narrow;" dy="0.000000" dx="0.183322">8</tspan><tspan id="tspan430" style="fill:#000000;font-size:9.312500px;font-style:normal;font-variant:normal;font-weight:400;font-stretch:Condensed;font-family:Helvetica-Narrow;" dy="0.000000" dx="0.183322">4</tspan><tspan id="tspan432" style="fill:#000000;font-size:9.312500px;font-style:normal;font-variant:normal;font-weight:400;font-stretch:Condensed;font-family:Helvetica-Narrow;" dy="0.000000" dx="0.183322">A</tspan></tspan></text>
  </g>
</svg>