<?xml version="1.0" encoding="UTF-8" standalone="no"?>
<svg
   xmlns:dc="http://purl.org/dc/elements/1.1/"
   xmlns:cc="http://creativecommons.org/ns#"
   xmlns:rdf="http://www.w3.org/1999/02/22-rdf-syntax-ns#"
   xmlns:svg="http://www.w3.org/2000/svg"
   xmlns="http://www.w3.org/2000/svg"
   id="svg204"
   height="37.07mm"
   width="84.960003mm"
   version="1.0">
  <metadata
     id="metadata208">
    <rdf:RDF>
      <cc:Work
         rdf:about="">
        <dc:format>image/svg+xml</dc:format>
        <dc:type
           rdf:resource="http://purl.org/dc/dcmitype/StillImage" />
      </cc:Work>
    </rdf:RDF>
  </metadata>
  <defs
     id="defs6">
    <clipPath
       id="clipWmfPath1"
       clipPathUnits="userSpaceOnUse">
      <path
         id="path2"
         d="M 0,0 L 321.0042,0 L 321.0042,140.00262 L 0,140.00262 z" />
    </clipPath>
    <pattern
       y="0"
       x="0"
       height="6"
       width="6"
       patternUnits="userSpaceOnUse"
       id="WMFhbasepattern" />
  </defs>
  <path
     id="path8"
     d="  M 34.000445,99.068523   L 34.000445,29.000543   L 292.07049,29.000543   L 292.07049,99.068523   L 34.000445,99.068523  z "
     clip-path="url(#clipWmfPath1)"
     style="fill:#e5e5e5;fill-rule:evenodd;fill-opacity:1;stroke:none;" />
  <path
     id="path10"
     d="  M 34.000445,99.068523   L 34.000445,29.000543   L 292.07049,29.000543   L 292.07049,99.068523   L 34.000445,99.068523  z "
     clip-path="url(#clipWmfPath1)"
     style="fill:none;stroke:#000000;stroke-width:0.066667542px;stroke-linecap:round;stroke-linejoin:round;stroke-miterlimit:4;stroke-dasharray:none;stroke-opacity:1;" />
  <path
     id="path12"
     d="  M 48.133963,83.601567   L 48.133963,90.935037   L 114.86817,90.935037   L 114.86817,72.001349   L 48.133963,72.001349   L 48.133963,79.401488   L 49.000641,79.534824   L 49.800651,80.001499   L 50.267324,80.668178   L 50.467327,81.401525   L 50.267324,82.20154   L 49.800651,82.934887   L 49.000641,83.401563   L 48.133963,83.601567  z    M 53.400698,79.00148   L 53.400698,83.934906   L 81.201062,83.934906   L 81.201062,79.00148   L 84.667774,79.00148   L 84.667774,83.934906   L 111.46812,83.934906   L 111.46812,79.00148   L 53.400698,79.00148  z   "
     clip-path="url(#clipWmfPath1)"
     style="fill:#000000;fill-rule:evenodd;fill-opacity:1;stroke:none;" />
  <path
     id="path14"
     d="  M 48.133963,83.601567   L 48.133963,90.935037   L 114.86817,90.935037   L 114.86817,72.001349   L 48.133963,72.001349   L 48.133963,79.401488   L 49.000641,79.534824   L 49.800651,80.001499   L 50.267324,80.668178   L 50.467327,81.401525   L 50.267324,82.20154   L 49.800651,82.934887   L 49.000641,83.401563   L 48.133963,83.601567  z "
     clip-path="url(#clipWmfPath1)"
     style="fill:none;stroke:#000000;stroke-width:0.066667542px;stroke-linecap:round;stroke-linejoin:round;stroke-miterlimit:4;stroke-dasharray:none;stroke-opacity:1;" />
  <path
     id="path16"
     d="  M 53.400698,79.00148   L 53.400698,83.934906   L 81.201062,83.934906   L 81.201062,79.00148   L 84.667774,79.00148   L 84.667774,83.934906   L 111.46812,83.934906   L 111.46812,79.00148   L 53.400698,79.00148  z "
     clip-path="url(#clipWmfPath1)"
     style="fill:none;stroke:#000000;stroke-width:0.066667542px;stroke-linecap:round;stroke-linejoin:round;stroke-miterlimit:4;stroke-dasharray:none;stroke-opacity:1;" />
  <path
     id="path18"
     d="  M 113.73482,77.668122   L 113.73482,72.868032   L 110.33478,72.868032   L 110.33478,77.668122   L 109.13476,77.668122   L 109.13476,72.801364   L 105.73472,72.801364   L 105.73472,77.668122   L 104.46803,77.668122   L 104.46803,72.801364   L 101.06799,72.801364   L 101.06799,77.601454   L 99.867973,77.601454   L 99.867973,72.801364   L 96.467928,72.801364   L 96.467928,77.601454   L 95.06791,77.601454   L 95.06791,72.801364   L 91.801201,72.801364   L 91.801201,77.668122   L 90.667853,77.668122   L 90.667853,72.801364   L 87.334476,72.801364   L 87.334476,77.668122   L 86.001125,77.668122   L 86.001125,72.9347   L 82.60108,72.9347   L 82.60108,77.668122   L 81.201062,77.601454   L 81.201062,72.9347   L 77.867685,72.9347   L 77.867685,77.601454   L 76.334332,77.601454   L 76.334332,72.868032   L 73.067622,72.868032   L 73.067622,77.601454   L 71.800939,77.601454   L 71.800939,72.868032   L 68.334227,72.868032   L 68.334227,77.601454   L 67.000876,77.601454   L 67.000876,72.9347   L 63.600832,72.9347   L 63.600832,77.601454   L 62.200814,77.601454   L 62.200814,72.9347   L 58.867437,72.9347   L 58.867437,77.601454   L 57.334083,77.601454   L 57.334083,72.868032   L 54.067374,72.868032   L 54.067374,77.601454   L 52.800691,77.601454   L 52.800691,72.868032   L 49.400646,72.868032   L 49.400646,77.601454   L 113.73482,77.668122   L 111.46812,79.268152   L 111.46812,83.934906   L 113.73482,85.068261   L 110.33478,85.068261   L 110.33478,90.001686   L 109.13476,90.001686   L 109.13476,85.068261   L 105.73472,85.068261   L 105.73472,90.001686   L 104.46803,90.001686   L 104.46803,85.134929   L 101.06799,85.134929   L 101.06799,90.001686   L 99.867973,90.001686   L 99.867973,85.134929   L 96.401261,85.134929   L 96.401261,90.001686   L 95.201245,90.001686   L 95.201245,85.068261   L 91.934536,85.068261   L 91.934536,90.001686   L 90.867855,90.001686   L 90.867855,85.134929   L 87.401143,85.134929   L 87.401143,90.001686   L 85.934457,90.001686   L 85.934457,85.201597   L 82.60108,85.201597   L 82.60108,90.001686   L 81.201062,90.068354   L 81.201062,85.134929   L 77.867685,85.134929   L 77.867685,90.068354   L 76.534334,90.068354   L 76.534334,85.134929   L 73.267625,85.134929   L 73.267625,90.068354   L 71.934274,90.068354   L 71.934274,85.134929   L 68.400895,85.134929   L 68.400895,90.068354   L 67.000876,90.068354   L 67.000876,85.134929   L 63.667499,85.134929   L 63.667499,90.068354   L 62.200814,90.068354   L 62.200814,85.134929   L 58.867437,85.134929   L 58.867437,90.068354   L 57.534086,90.068354   L 57.534086,85.134929   L 54.267376,85.134929   L 54.267376,90.068354   L 52.934026,90.068354   L 52.934026,85.134929   L 49.533981,85.134929   L 49.533981,90.068354   L 113.73482,90.001686   L 113.73482,85.068261   L 111.46812,83.934906   L 111.46812,79.268152   L 113.73482,77.668122  z "
     clip-path="url(#clipWmfPath1)"
     style="fill:#ffffff;fill-rule:nonzero;fill-opacity:1;stroke:none;" />
  <path
     id="path20"
     d="  M 113.73482,77.668122   L 113.73482,72.868032   L 110.33478,72.868032   L 110.33478,77.668122   L 109.13476,77.668122   L 109.13476,72.801364   L 105.73472,72.801364   L 105.73472,77.668122   L 104.46803,77.668122   L 104.46803,72.801364   L 101.06799,72.801364   L 101.06799,77.601454   L 99.867973,77.601454   L 99.867973,72.801364   L 96.467928,72.801364   L 96.467928,77.601454   L 95.06791,77.601454   L 95.06791,72.801364   L 91.801201,72.801364   L 91.801201,77.668122   L 90.667853,77.668122   L 90.667853,72.801364   L 87.334476,72.801364   L 87.334476,77.668122   L 86.001125,77.668122   L 86.001125,72.9347   L 82.60108,72.9347   L 82.60108,77.668122   L 81.201062,77.601454   L 81.201062,72.9347   L 77.867685,72.9347   L 77.867685,77.601454   L 76.334332,77.601454   L 76.334332,72.868032   L 73.067622,72.868032   L 73.067622,77.601454   L 71.800939,77.601454   L 71.800939,72.868032   L 68.334227,72.868032   L 68.334227,77.601454   L 67.000876,77.601454   L 67.000876,72.9347   L 63.600832,72.9347   L 63.600832,77.601454   L 62.200814,77.601454   L 62.200814,72.9347   L 58.867437,72.9347   L 58.867437,77.601454   L 57.334083,77.601454   L 57.334083,72.868032   L 54.067374,72.868032   L 54.067374,77.601454   L 52.800691,77.601454   L 52.800691,72.868032   L 49.400646,72.868032   L 49.400646,77.601454   L 113.73482,77.668122   L 111.46812,79.268152   L 111.46812,83.934906   L 113.73482,85.068261   L 110.33478,85.068261   L 110.33478,90.001686   L 109.13476,90.001686   L 109.13476,85.068261   L 105.73472,85.068261   L 105.73472,90.001686   L 104.46803,90.001686   L 104.46803,85.134929   L 101.06799,85.134929   L 101.06799,90.001686   L 99.867973,90.001686   L 99.867973,85.134929   L 96.401261,85.134929   L 96.401261,90.001686   L 95.201245,90.001686   L 95.201245,85.068261   L 91.934536,85.068261   L 91.934536,90.001686   L 90.867855,90.001686   L 90.867855,85.134929   L 87.401143,85.134929   L 87.401143,90.001686   L 85.934457,90.001686   L 85.934457,85.201597   L 82.60108,85.201597   L 82.60108,90.001686   L 81.201062,90.068354   L 81.201062,85.134929   L 77.867685,85.134929   L 77.867685,90.068354   L 76.534334,90.068354   L 76.534334,85.134929   L 73.267625,85.134929   L 73.267625,90.068354   L 71.934274,90.068354   L 71.934274,85.134929   L 68.400895,85.134929   L 68.400895,90.068354   L 67.000876,90.068354   L 67.000876,85.134929   L 63.667499,85.134929   L 63.667499,90.068354   L 62.200814,90.068354   L 62.200814,85.134929   L 58.867437,85.134929   L 58.867437,90.068354   L 57.534086,90.068354   L 57.534086,85.134929   L 54.267376,85.134929   L 54.267376,90.068354   L 52.934026,90.068354   L 52.934026,85.134929   L 49.533981,85.134929   L 49.533981,90.068354   L 113.73482,90.001686   L 113.73482,85.068261   L 111.46812,83.934906   L 111.46812,79.268152   L 113.73482,77.668122  z "
     clip-path="url(#clipWmfPath1)"
     style="fill:none;stroke:#000000;stroke-width:0.066667542px;stroke-linecap:round;stroke-linejoin:round;stroke-miterlimit:4;stroke-dasharray:none;stroke-opacity:1;" />
  <path
     id="path22"
     d="  M 49.400646,72.868032   L 113.73482,72.868032  "
     clip-path="url(#clipWmfPath1)"
     style="fill:none;stroke:#000000;stroke-width:0.066667542px;stroke-linecap:round;stroke-linejoin:round;stroke-miterlimit:4;stroke-dasharray:none;stroke-opacity:1;" />
  <path
     id="path24"
     d="  M 49.400646,77.601454   L 113.73482,77.668122  "
     clip-path="url(#clipWmfPath1)"
     style="fill:none;stroke:#000000;stroke-width:0.066667542px;stroke-linecap:round;stroke-linejoin:round;stroke-miterlimit:4;stroke-dasharray:none;stroke-opacity:1;" />
  <path
     id="path26"
     d="  M 49.533981,85.134929   L 113.73482,85.068261  "
     clip-path="url(#clipWmfPath1)"
     style="fill:none;stroke:#000000;stroke-width:0.066667542px;stroke-linecap:round;stroke-linejoin:round;stroke-miterlimit:4;stroke-dasharray:none;stroke-opacity:1;" />
  <path
     id="path28"
     d="  M 49.533981,90.068354   L 113.73482,90.001686  "
     clip-path="url(#clipWmfPath1)"
     style="fill:none;stroke:#000000;stroke-width:0.066667542px;stroke-linecap:round;stroke-linejoin:round;stroke-miterlimit:4;stroke-dasharray:none;stroke-opacity:1;" />
  <path
     id="path30"
     d="  M 49.533981,90.068354   L 113.93482,90.135022   L 113.73482,90.001686  "
     clip-path="url(#clipWmfPath1)"
     style="fill:none;stroke:#000000;stroke-width:0.066667542px;stroke-linecap:round;stroke-linejoin:round;stroke-miterlimit:4;stroke-dasharray:none;stroke-opacity:1;" />
  <path
     id="path32"
     d="  M 49.400646,90.135022   L 114.06816,90.135022  "
     clip-path="url(#clipWmfPath1)"
     style="fill:none;stroke:#000000;stroke-width:0.066667542px;stroke-linecap:round;stroke-linejoin:round;stroke-miterlimit:4;stroke-dasharray:none;stroke-opacity:1;" />
  <path
     id="path34"
     d="  M 49.533981,90.068354   L 113.73482,90.001686  "
     clip-path="url(#clipWmfPath1)"
     style="fill:none;stroke:#000000;stroke-width:0.066667542px;stroke-linecap:round;stroke-linejoin:round;stroke-miterlimit:4;stroke-dasharray:none;stroke-opacity:1;" />
  <path
     id="path36"
     d="  M 91.067858,74.668066   L 92.067871,74.801402   L 92.867881,75.268077   L 93.467889,75.934756   L 93.667892,76.668103   L 93.667892,86.134947   L 93.467889,86.868294   L 92.867881,87.468306   L 92.067871,87.801645   L 91.067858,87.934981   L 71.800939,87.934981   L 70.800926,87.801645   L 70.000916,87.401638   L 69.400908,86.734959   L 69.200905,86.001612   L 69.200905,76.601435   L 69.400908,75.868088   L 70.000916,75.268077   L 70.800926,74.801402   L 71.800939,74.668066   L 91.067858,74.668066  z "
     clip-path="url(#clipWmfPath1)"
     style="fill:#ffffff;fill-rule:nonzero;fill-opacity:1;stroke:none;" />
  <path
     id="path38"
     d="  M 71.800939,74.134722   L 71.800939,75.201409   L 91.00119,75.201409   L 91.867868,75.268077   L 92.534544,75.668085   L 93.001216,76.201428   L 93.134551,76.734771   L 93.134551,86.068279   L 93.001216,86.601623   L 92.601211,87.068298   L 91.934536,87.33497   L 91.00119,87.401638   L 71.867607,87.401638   L 70.934261,87.33497   L 70.334253,87.00163   L 69.867581,86.468287   L 69.734245,85.934944   L 69.734245,76.668103   L 69.867581,76.13476   L 70.334253,75.668085   L 71.000929,75.268077   L 71.867607,75.201409   L 91.00119,75.201409   L 92.001203,75.334745   L 92.134538,74.268058   L 91.134525,74.134722   L 71.734272,74.134722   L 70.600923,74.334726   L 69.667578,74.86807   L 68.934235,75.601417   L 68.667565,76.534767   L 68.667565,86.068279   L 68.934235,87.00163   L 69.667578,87.801645   L 70.667591,88.268321   L 71.734272,88.468324   L 91.134525,88.468324   L 92.201206,88.268321   L 93.134551,87.868313   L 93.934562,87.134966   L 94.201232,86.201615   L 94.201232,76.601435   L 93.934562,75.668085   L 93.201219,74.86807   L 92.267873,74.334726   L 91.134525,74.134722   L 71.800939,74.134722  z "
     clip-path="url(#clipWmfPath1)"
     style="fill:#000000;fill-rule:nonzero;fill-opacity:1;stroke:#000000;stroke-width:0.066667542px;stroke-linecap:round;stroke-linejoin:round;stroke-miterlimit:4;stroke-dasharray:none;stroke-opacity:1;" />
  <g
     id="g40"
     clip-path="url(#clipWmfPath1)" />
  <g
     id="g52"
     clip-path="url(#clipWmfPath1)">
    <text
       id="text50"
       y="0.000000"
       x="0.000000"
       transform="matrix(1.000000,-0.000000,0.000000,1.000000,70.534256,85.334932)"
       style="font-size:10.687500px;font-style:normal;font-variant:normal;font-weight:400;font-stretch:Condensed;line-height:125.000000%;letter-spacing:0px;word-spacing:0px;fill:#000000;fill-opacity:1;stroke:none;font-family:Helvetica-Narrow;text-align:start;text-anchor:start;"
       xml:space="preserve"><tspan
         id="tspan48"
         y="0.000000"
         x="0.000000"><tspan
           id="tspan42"
           style="fill:#000000;font-size:10.687500px;font-style:normal;font-variant:normal;font-weight:400;font-stretch:Condensed;font-family:Helvetica-Narrow;"
           dy="0.000000"
           dx="0.000000">T</tspan><tspan
           id="tspan44"
           style="fill:#000000;font-size:10.687500px;font-style:normal;font-variant:normal;font-weight:400;font-stretch:Condensed;font-family:Helvetica-Narrow;"
           dy="0.000000"
           dx="-0.263314">A</tspan><tspan
           id="tspan46"
           style="fill:#000000;font-size:10.687500px;font-style:normal;font-variant:normal;font-weight:400;font-stretch:Condensed;font-family:Helvetica-Narrow;"
           dy="0.000000"
           dx="-0.102458">G</tspan></tspan></text>
  </g>
  <path
     id="path54"
     d="  M 102.66801,39.600742   L 111.9348,39.600742   L 112.66814,39.467406   L 113.33482,39.067399   L 113.73482,38.467387   L 113.86816,37.73404   L 113.86816,28.267196   L 113.73482,27.533849   L 113.33482,26.933838   L 112.66814,26.467163   L 111.9348,26.333827   L 90.46785,26.333827   L 89.734507,26.467163   L 89.134499,26.86717   L 88.667826,27.467181   L 88.534491,28.200528   L 88.534491,37.600705   L 88.667826,38.334052   L 89.134499,39.000731   L 89.734507,39.400738   L 90.46785,39.534074   L 98.86796,39.534074   L 100.46798,52.734321   L 102.66801,39.600742  z "
     clip-path="url(#clipWmfPath1)"
     style="fill:#ffffff;fill-rule:nonzero;fill-opacity:1;stroke:none;" />
  <path
     id="path56"
     d="  M 100.00131,52.667654   L 100.40131,53.267665   L 100.93465,52.800989   L 103.06801,40.134085   L 112.00146,40.134085   L 112.86814,39.934082   L 113.66815,39.467406   L 114.20149,38.667391   L 114.4015,37.800708   L 114.4015,28.200528   L 114.20149,27.333846   L 113.73482,26.600498   L 112.86814,26.000487   L 112.00146,25.800483   L 90.401182,25.800483   L 89.534504,26.000487   L 88.801161,26.467163   L 88.201154,27.267178   L 88.001151,28.133861   L 88.001151,37.667372   L 88.201154,38.534055   L 88.801161,39.400738   L 89.534504,39.867414   L 90.401182,40.067417   L 98.401287,40.067417   L 99.93464,52.800989   L 100.93465,52.800989   L 103.06801,40.134085   L 111.9348,40.134085   L 112.46814,39.600742   L 111.9348,39.067399   L 102.268,39.067399   L 100.53465,49.200922   L 99.334633,39.000731   L 90.534517,39.000731   L 89.93451,38.934063   L 89.467837,38.600723   L 89.134499,38.134048   L 89.067832,37.534037   L 89.067832,28.267196   L 89.134499,27.667185   L 89.467837,27.267178   L 89.93451,26.933838   L 90.534517,26.86717   L 111.86813,26.86717   L 112.46814,26.933838   L 112.93481,27.267178   L 113.26815,27.733853   L 113.33482,28.333864   L 113.33482,37.667372   L 113.26815,38.267384   L 113.00148,38.667391   L 112.46814,39.000731   L 111.86813,39.067399   L 102.268,39.067399   L 100.00131,52.667654  z "
     clip-path="url(#clipWmfPath1)"
     style="fill:#000000;fill-rule:nonzero;fill-opacity:1;stroke:#000000;stroke-width:0.066667542px;stroke-linecap:round;stroke-linejoin:round;stroke-miterlimit:4;stroke-dasharray:none;stroke-opacity:1;" />
  <path
     id="path58"
     d="  M 275.13693,87.33497   L 275.13693,86.268283   L 273.33691,86.268283   L 273.33691,86.268283   L 271.67022,86.268283   L 271.67022,90.068354   L 272.7369,90.068354   L 272.7369,86.268283   L 271.00354,86.268283   L 271.00354,86.268283   L 269.27019,86.268283   L 269.27019,90.068354   L 270.33687,90.068354   L 270.33687,86.268283   L 268.53685,86.268283   L 268.53685,86.268283   L 266.73682,86.268283   L 266.73682,90.068354   L 267.8035,90.068354   L 267.8035,86.268283   L 266.07015,86.268283   L 266.07015,86.268283   L 264.33679,86.268283   L 264.33679,90.068354   L 265.40347,90.068354   L 265.40347,86.268283   L 263.67012,86.268283   L 263.67012,86.268283   L 261.87009,86.268283   L 261.87009,90.068354   L 262.93677,90.068354   L 262.93677,86.268283   L 261.20342,86.268283   L 261.20342,86.268283   L 259.47006,86.268283   L 259.47006,90.068354   L 260.53674,90.068354   L 260.53674,86.268283   L 258.67005,86.268283   L 258.67005,86.268283   L 256.93669,86.268283   L 256.93669,90.068354   L 258.00337,90.068354   L 258.00337,86.268283   L 256.20335,86.268283   L 256.20335,86.268283   L 254.47,86.268283   L 254.47,90.068354   L 255.53668,90.068354   L 255.53668,86.268283   L 253.73665,86.268283   L 253.73665,86.268283   L 252.06996,86.268283   L 252.06996,90.068354   L 253.13664,90.068354   L 253.13664,86.268283   L 251.40329,86.268283   L 251.40329,86.268283   L 249.60326,86.268283   L 249.60326,90.068354   L 250.66995,90.068354   L 250.66995,86.268283   L 248.86992,86.268283   L 248.86992,86.268283   L 247.13657,86.268283   L 247.13657,90.068354   L 248.20325,90.068354   L 248.20325,86.268283   L 246.46989,86.268283   L 246.46989,86.268283   L 244.73653,86.268283   L 244.73653,90.068354   L 245.80322,90.068354   L 245.80322,86.268283   L 244.13653,86.268283   L 244.13653,86.268283   L 242.26984,86.268283   L 242.26984,90.068354   L 243.33652,90.068354   L 243.33652,86.268283   L 241.53649,86.268283   L 241.53649,86.268283   L 239.8698,86.268283   L 239.8698,90.068354   L 240.93648,90.068354   L 240.93648,86.268283   L 239.06979,86.268283   L 239.06979,86.268283   L 237.33644,86.268283   L 237.33644,90.068354   L 238.40312,90.068354   L 238.40312,86.268283   L 236.60309,86.268283   L 236.60309,86.268283   L 234.93641,86.268283   L 234.93641,90.068354   L 236.00309,90.068354   L 236.00309,86.268283   L 234.1364,86.268283   L 234.1364,86.268283   L 232.40304,86.268283   L 232.40304,90.068354   L 233.46972,90.068354   L 233.46972,86.268283   L 231.73636,86.268283   L 231.73636,86.268283   L 229.86967,86.268283   L 229.86967,90.068354   L 230.93635,90.068354   L 230.93635,86.268283   L 229.26967,86.268283   L 229.26967,86.268283   L 227.53631,86.268283   L 227.53631,90.068354   L 228.60299,90.068354   L 228.60299,86.268283   L 226.46963,86.268283   L 226.46963,86.268283   L 225.06961,86.268283   L 225.06961,90.068354   L 226.13629,90.068354   L 226.13629,86.268283   L 225.53628,86.268283   L 225.53628,83.668234   L 222.0029,83.668234   L 222.0029,84.734921   L 225.53628,84.734921   L 225.53628,82.734884   L 225.53628,82.734884   L 225.53628,80.93485   L 222.0029,80.93485   L 222.0029,82.001537   L 225.53628,82.001537   L 225.53628,80.068167   L 225.53628,80.068167   L 225.53628,78.268133   L 222.0029,78.268133   L 222.0029,79.33482   L 225.53628,79.33482   L 225.53628,77.334782   L 225.53628,77.334782   L 225.53628,75.534749   L 222.0029,75.534749   L 222.0029,76.601435   L 225.53628,76.601435   L 225.53628,74.734734   L 225.53628,74.734734   L 225.53628,72.868032   L 222.0029,72.868032   L 222.0029,73.934719   L 225.53628,73.934719   L 225.53628,71.934681   L 225.53628,71.934681   L 225.53628,70.134648   L 222.0029,70.134648   L 222.0029,71.201334   L 225.53628,71.201334   L 225.53628,69.334633   L 225.53628,69.334633   L 225.53628,67.467931   L 222.0029,67.467931   L 222.0029,68.534618   L 225.53628,68.534618   L 225.53628,66.53458   L 225.53628,66.53458   L 225.53628,64.734546   L 222.0029,64.734546   L 222.0029,65.801233   L 225.53628,65.801233   L 225.53628,63.867863   L 225.53628,63.867863   L 225.53628,62.001162   L 222.0029,62.001162   L 222.0029,63.067848   L 225.53628,63.067848   L 225.53628,61.134479   L 225.53628,61.134479   L 225.53628,59.201109   L 222.0029,59.201109   L 222.0029,60.267796   L 225.53628,60.267796   L 225.53628,58.401094   L 225.53628,58.401094   L 225.53628,56.467725   L 222.0029,56.467725   L 222.0029,57.534411   L 225.53628,57.534411   L 225.53628,56.067717   L 225.53628,56.067717   L 225.53628,53.934344   L 222.0029,53.934344   L 222.0029,55.001031   L 225.53628,55.001031   L 225.53628,54.201016   L 226.5363,54.201016   L 226.5363,54.201016   L 228.20298,54.201016   L 228.20298,50.400944   L 227.1363,50.400944   L 227.1363,54.201016   L 228.93633,54.201016   L 228.93633,54.201016   L 230.73635,54.201016   L 230.73635,50.400944   L 229.66967,50.400944   L 229.66967,54.201016   L 231.40303,54.201016   L 231.40303,54.201016   L 233.13638,54.201016   L 233.13638,50.400944   L 232.0697,50.400944   L 232.0697,54.201016   L 233.80306,54.201016   L 233.80306,54.201016   L 235.60308,54.201016   L 235.60308,50.400944   L 234.5364,50.400944   L 234.5364,54.201016   L 236.26976,54.201016   L 236.26976,54.201016   L 238.06978,54.201016   L 238.06978,50.400944   L 237.0031,50.400944   L 237.0031,54.201016   L 238.73646,54.201016   L 238.73646,54.201016   L 240.53648,54.201016   L 240.53648,50.400944   L 239.4698,50.400944   L 239.4698,54.201016   L 241.26982,54.201016   L 241.26982,54.201016   L 242.93651,54.201016   L 242.93651,50.400944   L 241.86983,50.400944   L 241.86983,54.201016   L 243.73652,54.201016   L 243.73652,54.201016   L 245.46988,54.201016   L 245.46988,50.400944   L 244.4032,50.400944   L 244.4032,54.201016   L 246.13655,54.201016   L 246.13655,54.201016   L 247.86991,54.201016   L 247.86991,50.400944   L 246.80323,50.400944   L 246.80323,54.201016   L 248.53658,54.201016   L 248.53658,54.201016   L 250.33661,54.201016   L 250.33661,50.400944   L 249.26993,50.400944   L 249.26993,54.201016   L 251.00328,54.201016   L 251.00328,54.201016   L 252.73664,54.201016   L 252.73664,50.400944   L 251.66996,50.400944   L 251.66996,54.201016   L 253.46998,54.201016   L 253.46998,54.201016   L 255.20334,54.201016   L 255.20334,50.400944   L 254.13666,50.400944   L 254.13666,54.201016   L 255.87001,54.201016   L 255.87001,54.201016   L 257.67004,54.201016   L 257.67004,50.400944   L 256.60336,50.400944   L 256.60336,54.201016   L 258.40338,54.201016   L 258.40338,54.201016   L 260.07007,54.201016   L 260.07007,50.400944   L 259.00339,50.400944   L 259.00339,54.201016   L 260.80341,54.201016   L 260.80341,54.201016   L 262.53677,54.201016   L 262.53677,50.400944   L 261.47009,50.400944   L 261.47009,54.201016   L 263.33678,54.201016   L 263.33678,54.201016   L 265.07013,54.201016   L 265.07013,50.400944   L 264.00345,50.400944   L 264.00345,54.201016   L 265.80348,54.201016   L 265.80348,54.201016   L 267.47017,54.201016   L 267.47017,50.400944   L 266.40348,50.400944   L 266.40348,54.201016   L 268.20351,54.201016   L 268.20351,54.201016   L 270.00353,54.201016   L 270.00353,50.400944   L 268.93685,50.400944   L 268.93685,54.201016   L 270.60354,54.201016   L 270.60354,54.201016   L 272.40356,54.201016   L 272.40356,50.400944   L 271.33688,50.400944   L 271.33688,54.201016   L 273.20357,54.201016   L 273.20357,54.201016   L 274.60359,54.201016   L 274.60359,50.400944   L 273.53691,50.400944   L 273.53691,54.201016   L 274.60359,54.201016   L 274.60359,55.467706   L 274.60359,55.467706   L 274.60359,57.26774   L 278.13697,57.26774   L 278.13697,56.201053   L 274.60359,56.201053   L 274.60359,58.201091   L 274.60359,58.201091   L 274.60359,60.001124   L 278.13697,60.001124   L 278.13697,58.934438   L 274.60359,58.934438   L 274.60359,60.867807   L 274.60359,60.867807   L 274.60359,62.667841   L 278.13697,62.667841   L 278.13697,61.601154   L 274.60359,61.601154   L 274.60359,63.601192   L 274.60359,63.601192   L 274.60359,65.401226   L 278.13697,65.401226   L 278.13697,64.334539   L 274.60359,64.334539   L 274.60359,66.267908   L 274.60359,66.267908   L 274.60359,68.13461   L 278.13697,68.13461   L 278.13697,67.067923   L 274.60359,67.067923   L 274.60359,69.001293   L 274.60359,69.001293   L 274.60359,70.867995   L 278.13697,70.867995   L 278.13697,69.801308   L 274.60359,69.801308   L 274.60359,71.734678   L 274.60359,71.734678   L 274.60359,73.534711   L 278.13697,73.534711   L 278.13697,72.468025   L 274.60359,72.468025   L 274.60359,74.401394   L 274.60359,74.401394   L 274.60359,76.268096   L 278.13697,76.268096   L 278.13697,75.201409   L 274.60359,75.201409   L 274.60359,77.201447   L 274.60359,77.201447   L 274.60359,79.00148   L 278.13697,79.00148   L 278.13697,77.934794   L 274.60359,77.934794   L 274.60359,79.868163   L 274.60359,79.868163   L 274.60359,81.668197   L 278.13697,81.668197   L 278.13697,80.60151   L 274.60359,80.60151   L 274.60359,82.601548   L 274.60359,82.601548   L 274.60359,84.401582   L 278.13697,84.401582   L 278.13697,83.334895   L 274.60359,83.334895   L 274.60359,85.268264   L 274.60359,85.268264   L 274.60359,86.268283   L 273.33691,86.268283   L 273.33691,86.268283   L 272.20356,86.268283   L 272.20356,87.33497   L 273.33691,87.33497   L 273.33691,87.33497   L 275.67027,87.33497   L 275.67027,84.401582   L 275.67027,84.401582   L 275.67027,83.334895   L 275.67027,83.334895   L 275.67027,81.668197   L 275.67027,81.668197   L 275.67027,80.60151   L 275.67027,80.60151   L 275.67027,79.00148   L 275.67027,79.00148   L 275.67027,77.934794   L 275.67027,77.934794   L 275.67027,76.268096   L 275.67027,76.268096   L 275.67027,75.201409   L 275.67027,75.201409   L 275.67027,73.534711   L 275.67027,73.534711   L 275.67027,72.468025   L 275.67027,72.468025   L 275.67027,70.867995   L 275.67027,70.867995   L 275.67027,69.801308   L 275.67027,69.801308   L 275.67027,68.13461   L 275.67027,68.13461   L 275.67027,67.067923   L 275.67027,67.067923   L 275.67027,65.401226   L 275.67027,65.401226   L 275.67027,64.334539   L 275.67027,64.334539   L 275.67027,62.667841   L 275.67027,62.667841   L 275.67027,61.601154   L 275.67027,61.601154   L 275.67027,60.001124   L 275.67027,60.001124   L 275.67027,58.934438   L 275.67027,58.934438   L 275.67027,57.26774   L 275.67027,57.26774   L 275.67027,56.201053   L 275.67027,56.201053   L 275.67027,55.467706   L 275.67027,55.467706   L 275.67027,53.134329   L 274.60359,53.134329   L 273.53691,53.134329   L 273.53691,53.134329   L 272.40356,53.134329   L 272.40356,53.134329   L 271.33688,53.134329   L 271.33688,53.134329   L 270.00353,53.134329   L 270.00353,53.134329   L 268.93685,53.134329   L 268.93685,53.134329   L 267.47017,53.134329   L 267.47017,53.134329   L 266.40348,53.134329   L 266.40348,53.134329   L 265.07013,53.134329   L 265.07013,53.134329   L 264.00345,53.134329   L 264.00345,53.134329   L 262.53677,53.134329   L 262.53677,53.134329   L 261.47009,53.134329   L 261.47009,53.134329   L 260.07007,53.134329   L 260.07007,53.134329   L 259.00339,53.134329   L 259.00339,53.134329   L 257.67004,53.134329   L 257.67004,53.134329   L 256.60336,53.134329   L 256.60336,53.134329   L 255.20334,53.134329   L 255.20334,53.134329   L 254.13666,53.134329   L 254.13666,53.134329   L 252.73664,53.134329   L 252.73664,53.134329   L 251.66996,53.134329   L 251.66996,53.134329   L 250.33661,53.134329   L 250.33661,53.134329   L 249.26993,53.134329   L 249.26993,53.134329   L 247.86991,53.134329   L 247.86991,53.134329   L 246.80323,53.134329   L 246.80323,53.134329   L 245.46988,53.134329   L 245.46988,53.134329   L 244.4032,53.134329   L 244.4032,53.134329   L 242.93651,53.134329   L 242.93651,53.134329   L 241.86983,53.134329   L 241.86983,53.134329   L 240.53648,53.134329   L 240.53648,53.134329   L 239.4698,53.134329   L 239.4698,53.134329   L 238.06978,53.134329   L 238.06978,53.134329   L 237.0031,53.134329   L 237.0031,53.134329   L 235.60308,53.134329   L 235.60308,53.134329   L 234.5364,53.134329   L 234.5364,53.134329   L 233.13638,53.134329   L 233.13638,53.134329   L 232.0697,53.134329   L 232.0697,53.134329   L 230.73635,53.134329   L 230.73635,53.134329   L 229.66967,53.134329   L 229.66967,53.134329   L 228.20298,53.134329   L 228.20298,53.134329   L 227.1363,53.134329   L 227.1363,53.134329   L 226.5363,53.134329   L 226.5363,53.134329   L 224.4696,53.134329   L 224.4696,53.934344   L 224.4696,55.001031   L 224.4696,55.001031   L 224.4696,56.467725   L 224.4696,56.467725   L 224.4696,57.534411   L 224.4696,57.534411   L 224.4696,59.201109   L 224.4696,59.201109   L 224.4696,60.267796   L 224.4696,60.267796   L 224.4696,62.001162   L 224.4696,62.001162   L 224.4696,63.067848   L 224.4696,63.067848   L 224.4696,64.734546   L 224.4696,64.734546   L 224.4696,65.801233   L 224.4696,65.801233   L 224.4696,67.467931   L 224.4696,67.467931   L 224.4696,68.534618   L 224.4696,68.534618   L 224.4696,70.134648   L 224.4696,70.134648   L 224.4696,71.201334   L 224.4696,71.201334   L 224.4696,72.868032   L 224.4696,72.868032   L 224.4696,73.934719   L 224.4696,73.934719   L 224.4696,75.534749   L 224.4696,75.534749   L 224.4696,76.601435   L 224.4696,76.601435   L 224.4696,78.268133   L 224.4696,78.268133   L 224.4696,79.33482   L 224.4696,79.33482   L 224.4696,80.93485   L 224.4696,80.93485   L 224.4696,82.001537   L 224.4696,82.001537   L 224.4696,83.668234   L 224.4696,83.668234   L 224.4696,84.734921   L 224.4696,84.734921   L 224.4696,87.33497   L 225.06961,87.33497   L 226.13629,87.33497   L 226.13629,87.33497   L 227.53631,87.33497   L 227.53631,87.33497   L 228.60299,87.33497   L 228.60299,87.33497   L 229.86967,87.33497   L 229.86967,87.33497   L 230.93635,87.33497   L 230.93635,87.33497   L 232.40304,87.33497   L 232.40304,87.33497   L 233.46972,87.33497   L 233.46972,87.33497   L 234.93641,87.33497   L 234.93641,87.33497   L 236.00309,87.33497   L 236.00309,87.33497   L 237.33644,87.33497   L 237.33644,87.33497   L 238.40312,87.33497   L 238.40312,87.33497   L 239.8698,87.33497   L 239.8698,87.33497   L 240.93648,87.33497   L 240.93648,87.33497   L 242.26984,87.33497   L 242.26984,87.33497   L 243.33652,87.33497   L 243.33652,87.33497   L 244.73653,87.33497   L 244.73653,87.33497   L 245.80322,87.33497   L 245.80322,87.33497   L 247.13657,87.33497   L 247.13657,87.33497   L 248.20325,87.33497   L 248.20325,87.33497   L 249.60326,87.33497   L 249.60326,87.33497   L 250.66995,87.33497   L 250.66995,87.33497   L 252.06996,87.33497   L 252.06996,87.33497   L 253.13664,87.33497   L 253.13664,87.33497   L 254.47,87.33497   L 254.47,87.33497   L 255.53668,87.33497   L 255.53668,87.33497   L 256.93669,87.33497   L 256.93669,87.33497   L 258.00337,87.33497   L 258.00337,87.33497   L 259.47006,87.33497   L 259.47006,87.33497   L 260.53674,87.33497   L 260.53674,87.33497   L 261.87009,87.33497   L 261.87009,87.33497   L 262.93677,87.33497   L 262.93677,87.33497   L 264.33679,87.33497   L 264.33679,87.33497   L 265.40347,87.33497   L 265.40347,87.33497   L 266.73682,87.33497   L 266.73682,87.33497   L 267.8035,87.33497   L 267.8035,87.33497   L 269.27019,87.33497   L 269.27019,87.33497   L 270.33687,87.33497   L 270.33687,87.33497   L 271.67022,87.33497   L 271.67022,87.33497   L 272.7369,87.33497   L 272.7369,87.33497   L 273.33691,87.33497   L 273.33691,87.33497   L 275.13693,87.33497  z "
     clip-path="url(#clipWmfPath1)"
     style="fill:#000000;fill-rule:nonzero;fill-opacity:1;stroke:#000000;stroke-width:0.066667542px;stroke-linecap:round;stroke-linejoin:round;stroke-miterlimit:4;stroke-dasharray:none;stroke-opacity:1;" />
  <path
     id="path60"
     d="  M 191.13583,87.33497   L 191.13583,86.268283   L 189.33581,86.268283   L 189.33581,86.268283   L 187.66912,86.268283   L 187.66912,90.068354   L 188.7358,90.068354   L 188.7358,86.268283   L 187.00245,86.268283   L 187.00245,86.268283   L 185.26909,86.268283   L 185.26909,90.068354   L 186.33577,90.068354   L 186.33577,86.268283   L 184.53575,86.268283   L 184.53575,86.268283   L 182.73572,86.268283   L 182.73572,90.068354   L 183.8024,90.068354   L 183.8024,86.268283   L 182.06905,86.268283   L 182.06905,86.268283   L 180.33569,86.268283   L 180.33569,90.068354   L 181.40237,90.068354   L 181.40237,86.268283   L 179.66902,86.268283   L 179.66902,86.268283   L 177.86899,86.268283   L 177.86899,90.068354   L 178.93567,90.068354   L 178.93567,86.268283   L 177.20232,86.268283   L 177.20232,86.268283   L 175.46896,86.268283   L 175.46896,90.068354   L 176.53564,90.068354   L 176.53564,86.268283   L 174.66895,86.268283   L 174.66895,86.268283   L 172.9356,86.268283   L 172.9356,90.068354   L 174.00228,90.068354   L 174.00228,86.268283   L 172.20225,86.268283   L 172.20225,86.268283   L 170.4689,86.268283   L 170.4689,90.068354   L 171.53558,90.068354   L 171.53558,86.268283   L 169.73555,86.268283   L 169.73555,86.268283   L 168.06886,86.268283   L 168.06886,90.068354   L 169.13555,90.068354   L 169.13555,86.268283   L 167.40219,86.268283   L 167.40219,86.268283   L 165.60217,86.268283   L 165.60217,90.068354   L 166.66885,90.068354   L 166.66885,86.268283   L 164.86882,86.268283   L 164.86882,86.268283   L 163.13547,86.268283   L 163.13547,90.068354   L 164.20215,90.068354   L 164.20215,86.268283   L 162.46879,86.268283   L 162.46879,86.268283   L 160.73544,86.268283   L 160.73544,90.068354   L 161.80212,90.068354   L 161.80212,86.268283   L 160.13543,86.268283   L 160.13543,86.268283   L 158.26874,86.268283   L 158.26874,90.068354   L 159.33542,90.068354   L 159.33542,86.268283   L 157.53539,86.268283   L 157.53539,86.268283   L 155.86871,86.268283   L 155.86871,90.068354   L 156.93539,90.068354   L 156.93539,86.268283   L 155.06869,86.268283   L 155.06869,86.268283   L 153.33534,86.268283   L 153.33534,90.068354   L 154.40202,90.068354   L 154.40202,86.268283   L 152.602,86.268283   L 152.602,86.268283   L 150.93531,86.268283   L 150.93531,90.068354   L 152.00199,90.068354   L 152.00199,86.268283   L 150.1353,86.268283   L 150.1353,86.268283   L 148.40194,86.268283   L 148.40194,90.068354   L 149.46862,90.068354   L 149.46862,86.268283   L 147.73527,86.268283   L 147.73527,86.268283   L 145.86857,86.268283   L 145.86857,90.068354   L 146.93526,90.068354   L 146.93526,86.268283   L 145.26857,86.268283   L 145.26857,86.268283   L 143.53521,86.268283   L 143.53521,90.068354   L 144.60189,90.068354   L 144.60189,86.268283   L 142.46853,86.268283   L 142.46853,86.268283   L 141.06851,86.268283   L 141.06851,90.068354   L 142.13519,90.068354   L 142.13519,86.268283   L 141.53518,86.268283   L 141.53518,83.668234   L 138.00181,83.668234   L 138.00181,84.734921   L 141.53518,84.734921   L 141.53518,82.734884   L 141.53518,82.734884   L 141.53518,80.93485   L 138.00181,80.93485   L 138.00181,82.001537   L 141.53518,82.001537   L 141.53518,80.068167   L 141.53518,80.068167   L 141.53518,78.268133   L 138.00181,78.268133   L 138.00181,79.33482   L 141.53518,79.33482   L 141.53518,77.334782   L 141.53518,77.334782   L 141.53518,75.534749   L 138.00181,75.534749   L 138.00181,76.601435   L 141.53518,76.601435   L 141.53518,74.734734   L 141.53518,74.734734   L 141.53518,72.868032   L 138.00181,72.868032   L 138.00181,73.934719   L 141.53518,73.934719   L 141.53518,71.934681   L 141.53518,71.934681   L 141.53518,70.134648   L 138.00181,70.134648   L 138.00181,71.201334   L 141.53518,71.201334   L 141.53518,69.334633   L 141.53518,69.334633   L 141.53518,67.467931   L 138.00181,67.467931   L 138.00181,68.534618   L 141.53518,68.534618   L 141.53518,66.53458   L 141.53518,66.53458   L 141.53518,64.734546   L 138.00181,64.734546   L 138.00181,65.801233   L 141.53518,65.801233   L 141.53518,63.867863   L 141.53518,63.867863   L 141.53518,62.001162   L 138.00181,62.001162   L 138.00181,63.067848   L 141.53518,63.067848   L 141.53518,61.134479   L 141.53518,61.134479   L 141.53518,59.201109   L 138.00181,59.201109   L 138.00181,60.267796   L 141.53518,60.267796   L 141.53518,58.401094   L 141.53518,58.401094   L 141.53518,56.467725   L 138.00181,56.467725   L 138.00181,57.534411   L 141.53518,57.534411   L 141.53518,56.067717   L 141.53518,56.067717   L 141.53518,53.934344   L 138.00181,53.934344   L 138.00181,55.001031   L 141.53518,55.001031   L 141.53518,54.201016   L 142.5352,54.201016   L 142.5352,54.201016   L 144.20189,54.201016   L 144.20189,50.400944   L 143.13521,50.400944   L 143.13521,54.201016   L 144.93523,54.201016   L 144.93523,54.201016   L 146.73525,54.201016   L 146.73525,50.400944   L 145.66857,50.400944   L 145.66857,54.201016   L 147.40193,54.201016   L 147.40193,54.201016   L 149.13528,54.201016   L 149.13528,50.400944   L 148.0686,50.400944   L 148.0686,54.201016   L 149.80196,54.201016   L 149.80196,54.201016   L 151.60198,54.201016   L 151.60198,50.400944   L 150.5353,50.400944   L 150.5353,54.201016   L 152.26866,54.201016   L 152.26866,54.201016   L 154.06868,54.201016   L 154.06868,50.400944   L 153.002,50.400944   L 153.002,54.201016   L 154.73536,54.201016   L 154.73536,54.201016   L 156.53538,54.201016   L 156.53538,50.400944   L 155.4687,50.400944   L 155.4687,54.201016   L 157.26872,54.201016   L 157.26872,54.201016   L 158.93541,54.201016   L 158.93541,50.400944   L 157.86873,50.400944   L 157.86873,54.201016   L 159.73542,54.201016   L 159.73542,54.201016   L 161.46878,54.201016   L 161.46878,50.400944   L 160.4021,50.400944   L 160.4021,54.201016   L 162.13545,54.201016   L 162.13545,54.201016   L 163.86881,54.201016   L 163.86881,50.400944   L 162.80213,50.400944   L 162.80213,54.201016   L 164.53549,54.201016   L 164.53549,54.201016   L 166.33551,54.201016   L 166.33551,50.400944   L 165.26883,50.400944   L 165.26883,54.201016   L 167.00218,54.201016   L 167.00218,54.201016   L 168.73554,54.201016   L 168.73554,50.400944   L 167.66886,50.400944   L 167.66886,54.201016   L 169.46888,54.201016   L 169.46888,54.201016   L 171.20224,54.201016   L 171.20224,50.400944   L 170.13556,50.400944   L 170.13556,54.201016   L 171.86891,54.201016   L 171.86891,54.201016   L 173.66894,54.201016   L 173.66894,50.400944   L 172.60226,50.400944   L 172.60226,54.201016   L 174.40228,54.201016   L 174.40228,54.201016   L 176.06897,54.201016   L 176.06897,50.400944   L 175.00229,50.400944   L 175.00229,54.201016   L 176.80231,54.201016   L 176.80231,54.201016   L 178.53567,54.201016   L 178.53567,50.400944   L 177.46899,50.400944   L 177.46899,54.201016   L 179.33568,54.201016   L 179.33568,54.201016   L 181.06903,54.201016   L 181.06903,50.400944   L 180.00235,50.400944   L 180.00235,54.201016   L 181.80238,54.201016   L 181.80238,54.201016   L 183.46907,54.201016   L 183.46907,50.400944   L 182.40239,50.400944   L 182.40239,54.201016   L 184.20241,54.201016   L 184.20241,54.201016   L 186.00243,54.201016   L 186.00243,50.400944   L 184.93575,50.400944   L 184.93575,54.201016   L 186.60244,54.201016   L 186.60244,54.201016   L 188.40246,54.201016   L 188.40246,50.400944   L 187.33578,50.400944   L 187.33578,54.201016   L 189.20247,54.201016   L 189.20247,54.201016   L 190.60249,54.201016   L 190.60249,50.400944   L 189.53581,50.400944   L 189.53581,54.201016   L 190.60249,54.201016   L 190.60249,55.467706   L 190.60249,55.467706   L 190.60249,57.26774   L 194.13587,57.26774   L 194.13587,56.201053   L 190.60249,56.201053   L 190.60249,58.201091   L 190.60249,58.201091   L 190.60249,60.001124   L 194.13587,60.001124   L 194.13587,58.934438   L 190.60249,58.934438   L 190.60249,60.867807   L 190.60249,60.867807   L 190.60249,62.667841   L 194.13587,62.667841   L 194.13587,61.601154   L 190.60249,61.601154   L 190.60249,63.601192   L 190.60249,63.601192   L 190.60249,65.401226   L 194.13587,65.401226   L 194.13587,64.334539   L 190.60249,64.334539   L 190.60249,66.267908   L 190.60249,66.267908   L 190.60249,68.13461   L 194.13587,68.13461   L 194.13587,67.067923   L 190.60249,67.067923   L 190.60249,69.001293   L 190.60249,69.001293   L 190.60249,70.867995   L 194.13587,70.867995   L 194.13587,69.801308   L 190.60249,69.801308   L 190.60249,71.734678   L 190.60249,71.734678   L 190.60249,73.534711   L 194.13587,73.534711   L 194.13587,72.468025   L 190.60249,72.468025   L 190.60249,74.401394   L 190.60249,74.401394   L 190.60249,76.268096   L 194.13587,76.268096   L 194.13587,75.201409   L 190.60249,75.201409   L 190.60249,77.201447   L 190.60249,77.201447   L 190.60249,79.00148   L 194.13587,79.00148   L 194.13587,77.934794   L 190.60249,77.934794   L 190.60249,79.868163   L 190.60249,79.868163   L 190.60249,81.668197   L 194.13587,81.668197   L 194.13587,80.60151   L 190.60249,80.60151   L 190.60249,82.601548   L 190.60249,82.601548   L 190.60249,84.401582   L 194.13587,84.401582   L 194.13587,83.334895   L 190.60249,83.334895   L 190.60249,85.268264   L 190.60249,85.268264   L 190.60249,86.268283   L 189.33581,86.268283   L 189.33581,86.268283   L 188.20246,86.268283   L 188.20246,87.33497   L 189.33581,87.33497   L 189.33581,87.33497   L 191.66917,87.33497   L 191.66917,84.401582   L 191.66917,84.401582   L 191.66917,83.334895   L 191.66917,83.334895   L 191.66917,81.668197   L 191.66917,81.668197   L 191.66917,80.60151   L 191.66917,80.60151   L 191.66917,79.00148   L 191.66917,79.00148   L 191.66917,77.934794   L 191.66917,77.934794   L 191.66917,76.268096   L 191.66917,76.268096   L 191.66917,75.201409   L 191.66917,75.201409   L 191.66917,73.534711   L 191.66917,73.534711   L 191.66917,72.468025   L 191.66917,72.468025   L 191.66917,70.867995   L 191.66917,70.867995   L 191.66917,69.801308   L 191.66917,69.801308   L 191.66917,68.13461   L 191.66917,68.13461   L 191.66917,67.067923   L 191.66917,67.067923   L 191.66917,65.401226   L 191.66917,65.401226   L 191.66917,64.334539   L 191.66917,64.334539   L 191.66917,62.667841   L 191.66917,62.667841   L 191.66917,61.601154   L 191.66917,61.601154   L 191.66917,60.001124   L 191.66917,60.001124   L 191.66917,58.934438   L 191.66917,58.934438   L 191.66917,57.26774   L 191.66917,57.26774   L 191.66917,56.201053   L 191.66917,56.201053   L 191.66917,55.467706   L 191.66917,55.467706   L 191.66917,53.134329   L 190.60249,53.134329   L 189.53581,53.134329   L 189.53581,53.134329   L 188.40246,53.134329   L 188.40246,53.134329   L 187.33578,53.134329   L 187.33578,53.134329   L 186.00243,53.134329   L 186.00243,53.134329   L 184.93575,53.134329   L 184.93575,53.134329   L 183.46907,53.134329   L 183.46907,53.134329   L 182.40239,53.134329   L 182.40239,53.134329   L 181.06903,53.134329   L 181.06903,53.134329   L 180.00235,53.134329   L 180.00235,53.134329   L 178.53567,53.134329   L 178.53567,53.134329   L 177.46899,53.134329   L 177.46899,53.134329   L 176.06897,53.134329   L 176.06897,53.134329   L 175.00229,53.134329   L 175.00229,53.134329   L 173.66894,53.134329   L 173.66894,53.134329   L 172.60226,53.134329   L 172.60226,53.134329   L 171.20224,53.134329   L 171.20224,53.134329   L 170.13556,53.134329   L 170.13556,53.134329   L 168.73554,53.134329   L 168.73554,53.134329   L 167.66886,53.134329   L 167.66886,53.134329   L 166.33551,53.134329   L 166.33551,53.134329   L 165.26883,53.134329   L 165.26883,53.134329   L 163.86881,53.134329   L 163.86881,53.134329   L 162.80213,53.134329   L 162.80213,53.134329   L 161.46878,53.134329   L 161.46878,53.134329   L 160.4021,53.134329   L 160.4021,53.134329   L 158.93541,53.134329   L 158.93541,53.134329   L 157.86873,53.134329   L 157.86873,53.134329   L 156.53538,53.134329   L 156.53538,53.134329   L 155.4687,53.134329   L 155.4687,53.134329   L 154.06868,53.134329   L 154.06868,53.134329   L 153.002,53.134329   L 153.002,53.134329   L 151.60198,53.134329   L 151.60198,53.134329   L 150.5353,53.134329   L 150.5353,53.134329   L 149.13528,53.134329   L 149.13528,53.134329   L 148.0686,53.134329   L 148.0686,53.134329   L 146.73525,53.134329   L 146.73525,53.134329   L 145.66857,53.134329   L 145.66857,53.134329   L 144.20189,53.134329   L 144.20189,53.134329   L 143.13521,53.134329   L 143.13521,53.134329   L 142.5352,53.134329   L 142.5352,53.134329   L 140.4685,53.134329   L 140.4685,53.934344   L 140.4685,55.001031   L 140.4685,55.001031   L 140.4685,56.467725   L 140.4685,56.467725   L 140.4685,57.534411   L 140.4685,57.534411   L 140.4685,59.201109   L 140.4685,59.201109   L 140.4685,60.267796   L 140.4685,60.267796   L 140.4685,62.001162   L 140.4685,62.001162   L 140.4685,63.067848   L 140.4685,63.067848   L 140.4685,64.734546   L 140.4685,64.734546   L 140.4685,65.801233   L 140.4685,65.801233   L 140.4685,67.467931   L 140.4685,67.467931   L 140.4685,68.534618   L 140.4685,68.534618   L 140.4685,70.134648   L 140.4685,70.134648   L 140.4685,71.201334   L 140.4685,71.201334   L 140.4685,72.868032   L 140.4685,72.868032   L 140.4685,73.934719   L 140.4685,73.934719   L 140.4685,75.534749   L 140.4685,75.534749   L 140.4685,76.601435   L 140.4685,76.601435   L 140.4685,78.268133   L 140.4685,78.268133   L 140.4685,79.33482   L 140.4685,79.33482   L 140.4685,80.93485   L 140.4685,80.93485   L 140.4685,82.001537   L 140.4685,82.001537   L 140.4685,83.668234   L 140.4685,83.668234   L 140.4685,84.734921   L 140.4685,84.734921   L 140.4685,87.33497   L 141.06851,87.33497   L 142.13519,87.33497   L 142.13519,87.33497   L 143.53521,87.33497   L 143.53521,87.33497   L 144.60189,87.33497   L 144.60189,87.33497   L 145.86857,87.33497   L 145.86857,87.33497   L 146.93526,87.33497   L 146.93526,87.33497   L 148.40194,87.33497   L 148.40194,87.33497   L 149.46862,87.33497   L 149.46862,87.33497   L 150.93531,87.33497   L 150.93531,87.33497   L 152.00199,87.33497   L 152.00199,87.33497   L 153.33534,87.33497   L 153.33534,87.33497   L 154.40202,87.33497   L 154.40202,87.33497   L 155.86871,87.33497   L 155.86871,87.33497   L 156.93539,87.33497   L 156.93539,87.33497   L 158.26874,87.33497   L 158.26874,87.33497   L 159.33542,87.33497   L 159.33542,87.33497   L 160.73544,87.33497   L 160.73544,87.33497   L 161.80212,87.33497   L 161.80212,87.33497   L 163.13547,87.33497   L 163.13547,87.33497   L 164.20215,87.33497   L 164.20215,87.33497   L 165.60217,87.33497   L 165.60217,87.33497   L 166.66885,87.33497   L 166.66885,87.33497   L 168.06886,87.33497   L 168.06886,87.33497   L 169.13555,87.33497   L 169.13555,87.33497   L 170.4689,87.33497   L 170.4689,87.33497   L 171.53558,87.33497   L 171.53558,87.33497   L 172.9356,87.33497   L 172.9356,87.33497   L 174.00228,87.33497   L 174.00228,87.33497   L 175.46896,87.33497   L 175.46896,87.33497   L 176.53564,87.33497   L 176.53564,87.33497   L 177.86899,87.33497   L 177.86899,87.33497   L 178.93567,87.33497   L 178.93567,87.33497   L 180.33569,87.33497   L 180.33569,87.33497   L 181.40237,87.33497   L 181.40237,87.33497   L 182.73572,87.33497   L 182.73572,87.33497   L 183.8024,87.33497   L 183.8024,87.33497   L 185.26909,87.33497   L 185.26909,87.33497   L 186.33577,87.33497   L 186.33577,87.33497   L 187.66912,87.33497   L 187.66912,87.33497   L 188.7358,87.33497   L 188.7358,87.33497   L 189.33581,87.33497   L 189.33581,87.33497   L 191.13583,87.33497  z "
     clip-path="url(#clipWmfPath1)"
     style="fill:#000000;fill-rule:nonzero;fill-opacity:1;stroke:#000000;stroke-width:0.066667542px;stroke-linecap:round;stroke-linejoin:round;stroke-miterlimit:4;stroke-dasharray:none;stroke-opacity:1;" />
  <path
     id="path62"
     d="  M 224.80294,63.66786   L 225.80295,63.801196   L 226.60296,64.267871   L 227.20297,64.93455   L 227.40297,65.667897   L 227.40297,75.134741   L 227.20297,75.868088   L 226.60296,76.4681   L 225.80295,76.801439   L 224.80294,76.934775   L 191.33584,76.934775   L 190.33582,76.801439   L 189.53581,76.401432   L 188.9358,75.734752   L 188.7358,75.001405   L 188.7358,65.601229   L 188.9358,64.867882   L 189.53581,64.267871   L 190.33582,63.801196   L 191.33584,63.66786   L 224.80294,63.66786  z "
     clip-path="url(#clipWmfPath1)"
     style="fill:#ffffff;fill-rule:nonzero;fill-opacity:1;stroke:none;" />
  <path
     id="path64"
     d="  M 191.33584,63.134516   L 191.33584,64.201203   L 224.73627,64.201203   L 225.60295,64.267871   L 226.26963,64.667878   L 226.7363,65.201222   L 226.86963,65.734565   L 226.86963,75.068073   L 226.7363,75.601417   L 226.33629,76.068092   L 225.66962,76.334764   L 224.73627,76.401432   L 191.4025,76.401432   L 190.46916,76.334764   L 189.86915,76.001424   L 189.40248,75.468081   L 189.26914,74.934737   L 189.26914,65.667897   L 189.40248,65.134554   L 189.86915,64.667878   L 190.53583,64.267871   L 191.4025,64.201203   L 224.73627,64.201203   L 225.73629,64.334539   L 225.86962,63.267852   L 224.86961,63.134516   L 191.26917,63.134516   L 190.13582,63.33452   L 189.20247,63.867863   L 188.46913,64.601211   L 188.20246,65.534561   L 188.20246,75.068073   L 188.46913,76.001424   L 189.20247,76.801439   L 190.20249,77.268115   L 191.26917,77.468118   L 224.86961,77.468118   L 225.93629,77.268115   L 226.86963,76.868107   L 227.66964,76.13476   L 227.93631,75.201409   L 227.93631,65.601229   L 227.66964,64.667878   L 226.9363,63.867863   L 226.00296,63.33452   L 224.86961,63.134516   L 191.33584,63.134516  z "
     clip-path="url(#clipWmfPath1)"
     style="fill:#000000;fill-rule:nonzero;fill-opacity:1;stroke:#000000;stroke-width:0.066667542px;stroke-linecap:round;stroke-linejoin:round;stroke-miterlimit:4;stroke-dasharray:none;stroke-opacity:1;" />
  <g
     id="g66"
     clip-path="url(#clipWmfPath1)" />
  <g
     id="g82"
     clip-path="url(#clipWmfPath1)">
    <text
       id="text80"
       y="0.000000"
       x="0.000000"
       transform="matrix(1.000000,-0.000000,0.000000,1.000000,190.935831,73.534711)"
       style="font-size:10.687500px;font-style:normal;font-variant:normal;font-weight:400;font-stretch:Condensed;line-height:125.000000%;letter-spacing:0px;word-spacing:0px;fill:#000000;fill-opacity:1;stroke:none;font-family:Helvetica-Narrow;text-align:start;text-anchor:start;"
       xml:space="preserve"><tspan
         id="tspan78"
         y="0.000000"
         x="0.000000"><tspan
           id="tspan68"
           style="fill:#000000;font-size:10.687500px;font-style:normal;font-variant:normal;font-weight:400;font-stretch:Condensed;font-family:Helvetica-Narrow;"
           dy="0.000000"
           dx="0.000000">C</tspan><tspan
           id="tspan70"
           style="fill:#000000;font-size:10.687500px;font-style:normal;font-variant:normal;font-weight:400;font-stretch:Condensed;font-family:Helvetica-Narrow;"
           dy="0.000000"
           dx="-0.050055">A</tspan><tspan
           id="tspan72"
           style="fill:#000000;font-size:10.687500px;font-style:normal;font-variant:normal;font-weight:400;font-stretch:Condensed;font-family:Helvetica-Narrow;"
           dy="0.000000"
           dx="-0.102458">C</tspan><tspan
           id="tspan74"
           style="fill:#000000;font-size:10.687500px;font-style:normal;font-variant:normal;font-weight:400;font-stretch:Condensed;font-family:Helvetica-Narrow;"
           dy="0.000000"
           dx="-0.050055">H</tspan><tspan
           id="tspan76"
           style="fill:#000000;font-size:10.687500px;font-style:normal;font-variant:normal;font-weight:400;font-stretch:Condensed;font-family:Helvetica-Narrow;"
           dy="0.000000"
           dx="-0.050055">E</tspan></tspan></text>
  </g>
  <path
     id="path84"
     d="  M 114.53483,53.000993   L 114.53483,57.667747   L 86.001125,57.667747   L 86.001125,53.000993   L 114.53483,53.000993  z "
     clip-path="url(#clipWmfPath1)"
     style="fill:#ffffff;fill-rule:nonzero;fill-opacity:1;stroke:none;" />
  <path
     id="path86"
     d="  M 114.53483,53.000993   L 114.53483,57.667747   L 86.001125,57.667747   L 86.001125,53.000993   L 114.53483,53.000993  z "
     clip-path="url(#clipWmfPath1)"
     style="fill:none;stroke:#000000;stroke-width:0.066667542px;stroke-linecap:round;stroke-linejoin:round;stroke-miterlimit:4;stroke-dasharray:none;stroke-opacity:1;" />
  <path
     id="path88"
     d="  M 103.80136,53.867676   L 103.80136,56.601061   L 101.06799,56.601061   L 101.06799,53.867676   L 103.80136,53.867676  z "
     clip-path="url(#clipWmfPath1)"
     style="fill:#000000;fill-rule:nonzero;fill-opacity:1;stroke:none;" />
  <path
     id="path90"
     d="  M 103.80136,53.867676   L 103.80136,56.601061   L 101.06799,56.601061   L 101.06799,53.867676   L 103.80136,53.867676  z "
     clip-path="url(#clipWmfPath1)"
     style="fill:none;stroke:#000000;stroke-width:0.066667542px;stroke-linecap:round;stroke-linejoin:round;stroke-miterlimit:4;stroke-dasharray:none;stroke-opacity:1;" />
  <path
     id="path92"
     d="  M 99.201298,53.867676   L 99.201298,56.601061   L 96.467928,56.601061   L 96.467928,53.867676   L 99.201298,53.867676  z "
     clip-path="url(#clipWmfPath1)"
     style="fill:#000000;fill-rule:nonzero;fill-opacity:1;stroke:none;" />
  <path
     id="path94"
     d="  M 99.201298,53.867676   L 99.201298,56.601061   L 96.467928,56.601061   L 96.467928,53.867676   L 99.201298,53.867676  z "
     clip-path="url(#clipWmfPath1)"
     style="fill:none;stroke:#000000;stroke-width:0.066667542px;stroke-linecap:round;stroke-linejoin:round;stroke-miterlimit:4;stroke-dasharray:none;stroke-opacity:1;" />
  <path
     id="path96"
     d="  M 113.06815,53.867676   L 113.06815,56.601061   L 110.33478,56.601061   L 110.33478,53.867676   L 113.06815,53.867676  z "
     clip-path="url(#clipWmfPath1)"
     style="fill:#ffffff;fill-rule:nonzero;fill-opacity:1;stroke:none;" />
  <path
     id="path98"
     d="  M 113.06815,53.867676   L 113.06815,56.601061   L 110.33478,56.601061   L 110.33478,53.867676   L 113.06815,53.867676  z "
     clip-path="url(#clipWmfPath1)"
     style="fill:none;stroke:#000000;stroke-width:0.066667542px;stroke-linecap:round;stroke-linejoin:round;stroke-miterlimit:4;stroke-dasharray:none;stroke-opacity:1;" />
  <path
     id="path100"
     d="  M 108.46809,53.867676   L 108.46809,56.601061   L 105.73472,56.601061   L 105.73472,53.867676   L 108.46809,53.867676  z "
     clip-path="url(#clipWmfPath1)"
     style="fill:#000000;fill-rule:nonzero;fill-opacity:1;stroke:none;" />
  <path
     id="path102"
     d="  M 108.46809,53.867676   L 108.46809,56.601061   L 105.73472,56.601061   L 105.73472,53.867676   L 108.46809,53.867676  z "
     clip-path="url(#clipWmfPath1)"
     style="fill:none;stroke:#000000;stroke-width:0.066667542px;stroke-linecap:round;stroke-linejoin:round;stroke-miterlimit:4;stroke-dasharray:none;stroke-opacity:1;" />
  <path
     id="path104"
     d="  M 94.601237,53.801008   L 94.601237,56.534393   L 91.867868,56.534393   L 91.867868,53.801008   L 94.601237,53.801008  z "
     clip-path="url(#clipWmfPath1)"
     style="fill:#000000;fill-rule:nonzero;fill-opacity:1;stroke:none;" />
  <path
     id="path106"
     d="  M 94.601237,53.801008   L 94.601237,56.534393   L 91.867868,56.534393   L 91.867868,53.801008   L 94.601237,53.801008  z "
     clip-path="url(#clipWmfPath1)"
     style="fill:none;stroke:#000000;stroke-width:0.066667542px;stroke-linecap:round;stroke-linejoin:round;stroke-miterlimit:4;stroke-dasharray:none;stroke-opacity:1;" />
  <path
     id="path108"
     d="  M 89.867842,53.801008   L 89.867842,56.534393   L 87.134473,56.534393   L 87.134473,53.801008   L 89.867842,53.801008  z "
     clip-path="url(#clipWmfPath1)"
     style="fill:#000000;fill-rule:nonzero;fill-opacity:1;stroke:none;" />
  <path
     id="path110"
     d="  M 89.867842,53.801008   L 89.867842,56.534393   L 87.134473,56.534393   L 87.134473,53.801008   L 89.867842,53.801008  z "
     clip-path="url(#clipWmfPath1)"
     style="fill:none;stroke:#000000;stroke-width:0.066667542px;stroke-linecap:round;stroke-linejoin:round;stroke-miterlimit:4;stroke-dasharray:none;stroke-opacity:1;" />
  <g
     id="g112"
     clip-path="url(#clipWmfPath1)" />
  <g
     id="g124"
     clip-path="url(#clipWmfPath1)">
    <text
       id="text122"
       y="0.000000"
       x="0.000000"
       transform="matrix(1.000000,-0.000000,0.000000,1.000000,93.867894,36.667354)"
       style="font-size:10.687500px;font-style:normal;font-variant:normal;font-weight:400;font-stretch:Condensed;line-height:125.000000%;letter-spacing:0px;word-spacing:0px;fill:#000000;fill-opacity:1;stroke:none;font-family:Helvetica-Narrow;text-align:start;text-anchor:start;"
       xml:space="preserve"><tspan
         id="tspan120"
         y="0.000000"
         x="0.000000"><tspan
           id="tspan114"
           style="fill:#000000;font-size:10.687500px;font-style:normal;font-variant:normal;font-weight:400;font-stretch:Condensed;font-family:Helvetica-Narrow;"
           dy="0.000000"
           dx="0.000000">J</tspan><tspan
           id="tspan116"
           style="fill:#000000;font-size:10.687500px;font-style:normal;font-variant:normal;font-weight:400;font-stretch:Condensed;font-family:Helvetica-Narrow;"
           dy="0.000000"
           dx="0.028379">P</tspan><tspan
           id="tspan118"
           style="fill:#000000;font-size:10.687500px;font-style:normal;font-variant:normal;font-weight:400;font-stretch:Condensed;font-family:Helvetica-Narrow;"
           dy="0.000000"
           dx="-0.102458">1</tspan></tspan></text>
  </g>
  <g
     id="g126"
     clip-path="url(#clipWmfPath1)" />
  <g
     id="g144"
     clip-path="url(#clipWmfPath1)">
    <text
       id="text142"
       y="0.000000"
       x="0.000000"
       transform="matrix(1.000000,-0.000000,0.000000,1.000000,234.869739,41.467444)"
       style="font-size:9.312500px;font-style:normal;font-variant:normal;font-weight:400;font-stretch:Condensed;line-height:125.000000%;letter-spacing:0px;word-spacing:0px;fill:#000000;fill-opacity:1;stroke:none;font-family:Helvetica-Narrow;text-align:start;text-anchor:start;"
       xml:space="preserve"><tspan
         id="tspan140"
         y="0.000000"
         x="0.000000"><tspan
           id="tspan128"
           style="fill:#000000;font-size:9.312500px;font-style:normal;font-variant:normal;font-weight:400;font-stretch:Condensed;font-family:Helvetica-Narrow;"
           dy="0.000000"
           dx="0.000000">M</tspan><tspan
           id="tspan130"
           style="fill:#000000;font-size:9.312500px;font-style:normal;font-variant:normal;font-weight:400;font-stretch:Condensed;font-family:Helvetica-Narrow;"
           dy="0.000000"
           dx="0.202919">3</tspan><tspan
           id="tspan132"
           style="fill:#000000;font-size:9.312500px;font-style:normal;font-variant:normal;font-weight:400;font-stretch:Condensed;font-family:Helvetica-Narrow;"
           dy="0.000000"
           dx="0.183495">5</tspan><tspan
           id="tspan134"
           style="fill:#000000;font-size:9.312500px;font-style:normal;font-variant:normal;font-weight:400;font-stretch:Condensed;font-family:Helvetica-Narrow;"
           dy="0.000000"
           dx="0.183495">3</tspan><tspan
           id="tspan136"
           style="fill:#000000;font-size:9.312500px;font-style:normal;font-variant:normal;font-weight:400;font-stretch:Condensed;font-family:Helvetica-Narrow;"
           dy="0.000000"
           dx="0.183495">6</tspan><tspan
           id="tspan138"
           style="fill:#000000;font-size:9.312500px;font-style:normal;font-variant:normal;font-weight:400;font-stretch:Condensed;font-family:Helvetica-Narrow;"
           dy="0.000000"
           dx="0.183495">A</tspan></tspan></text>
  </g>
  <g
     id="g146"
     clip-path="url(#clipWmfPath1)" />
  <g
     id="g202"
     clip-path="url(#clipWmfPath1)">
    <text
       id="text158"
       y="0.000000"
       x="0.000000"
       transform="matrix(1.000000,-0.000000,0.000000,1.000000,96.267926,112.535442)"
       style="font-size:10.687500px;font-style:normal;font-variant:normal;font-weight:400;font-stretch:Condensed;line-height:125.000000%;letter-spacing:0px;word-spacing:0px;fill:#000000;fill-opacity:1;stroke:none;font-family:Helvetica-Narrow;text-align:start;text-anchor:start;"
       xml:space="preserve"><tspan
         id="tspan156"
         y="0.000000"
         x="0.000000"><tspan
           id="tspan148"
           style="fill:#000000;font-size:10.687500px;font-style:normal;font-variant:normal;font-weight:400;font-stretch:Condensed;font-family:Helvetica-Narrow;"
           dy="0.000000"
           dx="0.000000">E</tspan><tspan
           id="tspan150"
           style="fill:#000000;font-size:10.687500px;font-style:normal;font-variant:normal;font-weight:400;font-stretch:Condensed;font-family:Helvetica-Narrow;"
           dy="0.000000"
           dx="-0.102458">S</tspan><tspan
           id="tspan152"
           style="fill:#000000;font-size:10.687500px;font-style:normal;font-variant:normal;font-weight:400;font-stretch:Condensed;font-family:Helvetica-Narrow;"
           dy="0.000000"
           dx="-0.102458">C</tspan><tspan
           id="tspan154"
           style="fill:#000000;font-size:10.687500px;font-style:normal;font-variant:normal;font-weight:400;font-stretch:Condensed;font-family:Helvetica-Narrow;"
           dy="0.000000"
           dx="-0.050055">M</tspan></tspan></text>
    <text
       id="text170"
       y="0.000000"
       x="34.533785"
       transform="matrix(1.000000,-0.000000,0.000000,1.000000,96.267926,112.535442)"
       style="font-size:10.687500px;font-style:normal;font-variant:normal;font-weight:400;font-stretch:Condensed;line-height:125.000000%;letter-spacing:0px;word-spacing:0px;fill:#000000;fill-opacity:1;stroke:none;font-family:Helvetica-Narrow;text-align:start;text-anchor:start;"
       xml:space="preserve"><tspan
         id="tspan168"
         y="0.000000"
         x="34.533785"><tspan
           id="tspan160"
           style="fill:#000000;font-size:10.687500px;font-style:normal;font-variant:normal;font-weight:400;font-stretch:Condensed;font-family:Helvetica-Narrow;"
           dy="0.000000"
           dx="0.000000">V</tspan><tspan
           id="tspan162"
           style="fill:#000000;font-size:10.687500px;font-style:normal;font-variant:normal;font-weight:400;font-stretch:Condensed;font-family:Helvetica-Narrow;"
           dy="0.000000"
           dx="-0.102458">0</tspan><tspan
           id="tspan164"
           style="fill:#000000;font-size:10.687500px;font-style:normal;font-variant:normal;font-weight:400;font-stretch:Condensed;font-family:Helvetica-Narrow;"
           dy="0.000000"
           dx="0.003427">.</tspan><tspan
           id="tspan166"
           style="fill:#000000;font-size:10.687500px;font-style:normal;font-variant:normal;font-weight:400;font-stretch:Condensed;font-family:Helvetica-Narrow;"
           dy="0.000000"
           dx="-0.026522">3</tspan></tspan></text>
    <text
       id="text184"
       y="0.000000"
       x="61.934143"
       transform="matrix(1.000000,-0.000000,0.000000,1.000000,96.267926,112.535442)"
       style="font-size:10.687500px;font-style:normal;font-variant:normal;font-weight:400;font-stretch:Condensed;line-height:125.000000%;letter-spacing:0px;word-spacing:0px;fill:#000000;fill-opacity:1;stroke:none;font-family:Helvetica-Narrow;text-align:start;text-anchor:start;"
       xml:space="preserve"><tspan
         id="tspan182"
         y="0.000000"
         x="61.934143"><tspan
           id="tspan172"
           style="fill:#000000;font-size:10.687500px;font-style:normal;font-variant:normal;font-weight:400;font-stretch:Condensed;font-family:Helvetica-Narrow;"
           dy="0.000000"
           dx="0.000000">C</tspan><tspan
           id="tspan174"
           style="fill:#000000;font-size:10.687500px;font-style:normal;font-variant:normal;font-weight:400;font-stretch:Condensed;font-family:Helvetica-Narrow;"
           dy="0.000000"
           dx="-0.050055">A</tspan><tspan
           id="tspan176"
           style="fill:#000000;font-size:10.687500px;font-style:normal;font-variant:normal;font-weight:400;font-stretch:Condensed;font-family:Helvetica-Narrow;"
           dy="0.000000"
           dx="-0.102458">C</tspan><tspan
           id="tspan178"
           style="fill:#000000;font-size:10.687500px;font-style:normal;font-variant:normal;font-weight:400;font-stretch:Condensed;font-family:Helvetica-Narrow;"
           dy="0.000000"
           dx="-0.050055">H</tspan><tspan
           id="tspan180"
           style="fill:#000000;font-size:10.687500px;font-style:normal;font-variant:normal;font-weight:400;font-stretch:Condensed;font-family:Helvetica-Narrow;"
           dy="0.000000"
           dx="-0.050055">E</tspan></tspan></text>
    <text
       id="text200"
       y="0.000000"
       x="102.934680"
       transform="matrix(1.000000,-0.000000,0.000000,1.000000,96.267926,112.535442)"
       style="font-size:10.687500px;font-style:normal;font-variant:normal;font-weight:400;font-stretch:Condensed;line-height:125.000000%;letter-spacing:0px;word-spacing:0px;fill:#000000;fill-opacity:1;stroke:none;font-family:Helvetica-Narrow;text-align:start;text-anchor:start;"
       xml:space="preserve"><tspan
         id="tspan198"
         y="0.000000"
         x="102.934680"><tspan
           id="tspan186"
           style="fill:#000000;font-size:10.687500px;font-style:normal;font-variant:normal;font-weight:400;font-stretch:Condensed;font-family:Helvetica-Narrow;"
           dy="0.000000"
           dx="0.000000">M</tspan><tspan
           id="tspan188"
           style="fill:#000000;font-size:10.687500px;font-style:normal;font-variant:normal;font-weight:400;font-stretch:Condensed;font-family:Helvetica-Narrow;"
           dy="0.000000"
           dx="-0.022604">O</tspan><tspan
           id="tspan190"
           style="fill:#000000;font-size:10.687500px;font-style:normal;font-variant:normal;font-weight:400;font-stretch:Condensed;font-family:Helvetica-Narrow;"
           dy="0.000000"
           dx="-0.075007">D</tspan><tspan
           id="tspan192"
           style="fill:#000000;font-size:10.687500px;font-style:normal;font-variant:normal;font-weight:400;font-stretch:Condensed;font-family:Helvetica-Narrow;"
           dy="0.000000"
           dx="-0.050055">U</tspan><tspan
           id="tspan194"
           style="fill:#000000;font-size:10.687500px;font-style:normal;font-variant:normal;font-weight:400;font-stretch:Condensed;font-family:Helvetica-Narrow;"
           dy="0.000000"
           dx="-0.050055">L</tspan><tspan
           id="tspan196"
           style="fill:#000000;font-size:10.687500px;font-style:normal;font-variant:normal;font-weight:400;font-stretch:Condensed;font-family:Helvetica-Narrow;"
           dy="0.000000"
           dx="0.003427">E</tspan></tspan></text>
  </g>
</svg>
