<svg xmlns:inkscape="http://www.inkscape.org/namespaces/inkscape" xmlns:sodipodi="http://sodipodi.sourceforge.net/DTD/sodipodi-0.dtd" xmlns="http://www.w3.org/2000/svg" xmlns:svg="http://www.w3.org/2000/svg" xmlns:rdf="http://www.w3.org/1999/02/22-rdf-syntax-ns#" xmlns:cc="http://creativecommons.org/ns#" xmlns:dc="http://purl.org/dc/elements/1.1/" id="svg410" height="110.2mm" width="128.7mm" version="1.0" sodipodi:docname="33583.svg" inkscape:version="1.1.1 (3bf5ae0d25, 2021-09-20)">
  <sodipodi:namedview id="namedview196" pagecolor="#ffffff" bordercolor="#666666" borderopacity="1.0" inkscape:pageshadow="2" inkscape:pageopacity="0.0" inkscape:pagecheckerboard="0" inkscape:document-units="mm" showgrid="false" inkscape:zoom="1.9975802" inkscape:cx="243.29436" inkscape:cy="208.25196" inkscape:window-width="1920" inkscape:window-height="1017" inkscape:window-x="1672" inkscape:window-y="-8" inkscape:window-maximized="0" inkscape:current-layer="svg410"/>
  <metadata id="metadata414">
    <rdf:RDF>
      <cc:Work rdf:about="">
        <dc:format>image/svg+xml</dc:format>
        <dc:type rdf:resource="http://purl.org/dc/dcmitype/StillImage"/>
      </cc:Work>
    </rdf:RDF>
  </metadata>
  <defs id="defs6">
    <clipPath id="clipWmfPath1" clipPathUnits="userSpaceOnUse">
      <path id="path2" d="M 0,0 L 486.32074,0 L 486.32074,416.39948 L 0,416.39948 z"/>
    </clipPath>
    <pattern y="0" x="0" height="6" width="6" patternUnits="userSpaceOnUse" id="WMFhbasepattern"/>
  </defs>
  <path id="path8" d="M 3.9998964,414.06614 V 1.3333317 H 483.98746 V 414.06614 Z" clip-path="url(#clipWmfPath1)" style="fill:#e5e5e5;fill-opacity:1;fill-rule:nonzero;stroke:none" transform="rotate(180,243.16037,207.69973)"/>
  <path id="path10" d="m 483.98746,414.26614 v -0.39999 H 4.1998912 V 1.5333314 H 483.78747 V 413.86615 H 4.1998912 V 1.3333317 H 3.7999016 V 414.26614 H 484.18746 V 1.1333319 H 3.7999016 V 414.26614 Z" clip-path="url(#clipWmfPath1)" style="fill:#000000;fill-opacity:1;fill-rule:nonzero;stroke:#000000;stroke-width:0.0666649px;stroke-linecap:round;stroke-linejoin:round;stroke-miterlimit:4;stroke-dasharray:none;stroke-opacity:1" transform="rotate(180,243.16037,207.69973)"/>
  <path id="path38" d="m 395.52309,118.13318 0.99997,0.13334 1.13331,0.33333 0.86664,0.8 0.66665,0.86667 0.39999,0.99999 0.26666,0.93334 -0.2,1.19999 -0.39998,1 -0.66665,0.93334 -0.93331,0.66666 -1.06664,0.4 -1.06664,0.13333 -0.93331,-0.13333 -1.06664,-0.4 -0.86664,-0.66666 -0.79998,-0.93334 -0.39999,-1 -0.0667,-1.19999 0.13333,-1 0.46666,-0.93333 0.66665,-0.86667 0.86664,-0.8 1.06664,-0.33333 z m 0,0.26667 -0.86665,0.2 -0.99997,0.53333 -0.73331,0.53334 -0.59999,0.79999 -0.39999,0.93334 -0.0667,0.8 0.0667,1.06666 0.39999,1.13333 0.53332,0.6 0.79998,0.66667 0.93331,0.4 0.93331,0.13333 0.99997,-0.13333 0.93331,-0.4 1.5333,-1.26667 0.39998,-2.19999 -0.39998,-1.73334 -0.79998,-0.86666 -0.73332,-0.46667 -0.93331,-0.53333 z m -2.06661,1.26667 h 2.06661 l 0.73331,0.13333 0.73332,0.26667 0.33332,0.46666 0.13333,0.6 -0.33332,0.86667 -1.13331,0.33333 1.26664,1.73333 0.39999,0.53333 h 0.33332 v 0.33334 h -0.99997 l -1.86662,-2.6 h -0.13333 v 2.06666 l 0.13333,0.2 h 0.59998 v 0.33334 h -2.59993 v -0.33334 h 0.39999 l 0.13333,-0.2 0.13333,-0.46666 v -3.26667 l -0.13333,-0.39999 v -0.46667 h -0.19999 z m 1.53329,2.39999 h 0.73331 l 0.26666,-0.2 0.0667,-0.2 0.33332,-0.53333 -0.19999,-0.53333 -0.2,-0.33333 -0.19999,-0.4 -0.53332,-0.0667 h -0.26666 z" clip-path="url(#clipWmfPath1)" style="fill:#bfbfbf;fill-opacity:1;fill-rule:evenodd;stroke:none" transform="rotate(180,243.16037,207.69973)"/>
  <path id="path40" d="m 216.99438,248.79969 v -19.39998 h -28.53259 v 19.39998 h -2.93326 v -19.39998 h -28.5326 v 19.39998 z" clip-path="url(#clipWmfPath1)" style="fill:#ffffff;fill-opacity:1;fill-rule:nonzero;stroke:none" transform="rotate(180,243.16037,207.69973)"/>
  <path id="path42" d="m 216.99438,248.79969 v -19.39998 h -28.53259 v 19.39998 h -2.93326 v -19.39998 h -28.5326 v 19.39998 z" clip-path="url(#clipWmfPath1)" style="fill:none;stroke:#000000;stroke-width:0.0666649px;stroke-linecap:round;stroke-linejoin:round;stroke-miterlimit:4;stroke-dasharray:none;stroke-opacity:1" transform="rotate(180,243.16037,207.69973)"/>
  <path id="path44" d="m 221.92758,255.59968 v -33.26663 h -69.93152 v 33.26663 z" clip-path="url(#clipWmfPath1)" style="fill:#000000;fill-opacity:1;fill-rule:nonzero;stroke:none" transform="rotate(180,243.16037,207.69973)"/>
  <path id="path46" d="m 221.92758,255.59968 v -33.26663 h -69.93152 v 33.26663 z" clip-path="url(#clipWmfPath1)" style="fill:none;stroke:#000000;stroke-width:0.0666649px;stroke-linecap:round;stroke-linejoin:round;stroke-miterlimit:4;stroke-dasharray:none;stroke-opacity:1" transform="rotate(180,243.16037,207.69973)"/>
  <path id="path48" d="m 220.99428,249.99968 v 4.86667 h -3.59991 v -4.86667 h -1.39996 v 4.86667 h -3.53325 v -4.86667 h -1.39996 v 4.86667 h -3.59991 v -4.86667 H 205.928 v 4.86667 h -3.46658 v -4.86667 h -1.46663 v 4.86667 h -3.5999 v -4.86667 h -1.06664 v 4.86667 h -3.53324 v -4.86667 h -1.46663 v 4.86667 h -3.59991 v -4.86667 h -1.3333 v 4.86667 h -3.5999 v -4.86667 h -1.46663 v 4.86667 h -3.59991 v -4.86667 h -1.53329 v 4.86667 h -3.59991 v -4.86667 h -1.3333 v 4.86667 h -3.46658 v -4.86667 h -1.39996 v 4.86667 h -3.59991 v -4.86667 h -1.39996 v 4.86667 h -3.53324 v -4.86667 h -1.5333 v 4.86667 h -3.5999 v -4.86667 h 68.2649 l -6.4665,-1.19999 v -19.39998 l 6.73316,-1.4 h -4.93321 1.39996 v -4.86666 h -1.39996 v 4.86666 h -3.59991 v -4.86666 h -1.39996 v 4.86666 h -3.53324 v -4.86666 h -1.5333 v 4.86666 h -3.53324 v -4.86666 h -1.3333 v 4.86666 h -3.5999 v -4.86666 h -1.13331 v 4.86666 h -3.5999 v -4.86666 h -1.46663 v 4.86666 h -3.53324 v -4.86666 h -1.39997 v 4.86666 h -3.53324 v -4.86666 h -1.53329 v 4.86666 h -3.53325 v -4.86666 h -1.53329 v 4.86666 h -3.59991 v -4.86666 h -1.33329 v 4.86666 h -3.53325 v -4.86666 h -1.39996 v 4.86666 h -3.53324 v -4.86666 h -1.39997 v 4.86666 h -3.5999 v -4.86666 h -1.5333 v 4.86666 h -3.53324 v -4.86666 h 68.19824 v 4.86666 l -6.73316,1.4 v 19.39998 z" clip-path="url(#clipWmfPath1)" style="fill:#ffffff;fill-opacity:1;fill-rule:nonzero;stroke:none" transform="rotate(180,243.16037,207.69973)"/>
  <path id="path50" d="m 220.99428,249.99968 v 4.86667 h -3.59991 v -4.86667 h -1.39996 v 4.86667 h -3.53325 v -4.86667 h -1.39996 v 4.86667 h -3.59991 v -4.86667 H 205.928 v 4.86667 h -3.46658 v -4.86667 h -1.46663 v 4.86667 h -3.5999 v -4.86667 h -1.06664 v 4.86667 h -3.53324 v -4.86667 h -1.46663 v 4.86667 h -3.59991 v -4.86667 h -1.3333 v 4.86667 h -3.5999 v -4.86667 h -1.46663 v 4.86667 h -3.59991 v -4.86667 h -1.53329 v 4.86667 h -3.59991 v -4.86667 h -1.3333 v 4.86667 h -3.46658 v -4.86667 h -1.39996 v 4.86667 h -3.59991 v -4.86667 h -1.39996 v 4.86667 h -3.53324 v -4.86667 h -1.5333 v 4.86667 h -3.5999 v -4.86667 h 68.2649 l -6.4665,-1.19999 v -19.39998 l 6.73316,-1.4 h -4.93321 1.39996 v -4.86666 h -1.39996 v 4.86666 h -3.59991 v -4.86666 h -1.39996 v 4.86666 h -3.53324 v -4.86666 h -1.5333 v 4.86666 h -3.53324 v -4.86666 h -1.3333 v 4.86666 h -3.5999 v -4.86666 h -1.13331 v 4.86666 h -3.5999 v -4.86666 h -1.46663 v 4.86666 h -3.53324 v -4.86666 h -1.39997 v 4.86666 h -3.53324 v -4.86666 h -1.53329 v 4.86666 h -3.53325 v -4.86666 h -1.53329 v 4.86666 h -3.59991 v -4.86666 h -1.33329 v 4.86666 h -3.53325 v -4.86666 h -1.39996 v 4.86666 h -3.53324 v -4.86666 h -1.39997 v 4.86666 h -3.5999 v -4.86666 h -1.5333 v 4.86666 h -3.53324 v -4.86666 h 68.19824 v 4.86666 l -6.73316,1.4 v 19.39998 z" clip-path="url(#clipWmfPath1)" style="fill:none;stroke:#000000;stroke-width:0.0666649px;stroke-linecap:round;stroke-linejoin:round;stroke-miterlimit:4;stroke-dasharray:none;stroke-opacity:1" transform="rotate(180,243.16037,207.69973)"/>
  <path id="path52" d="m 153.59602,253.73301 v -29.46663 h 66.73161 v 29.46663 z" clip-path="url(#clipWmfPath1)" style="fill:#808080;fill-opacity:1;fill-rule:nonzero;stroke:none" transform="rotate(180,243.16037,207.69973)"/>
  <path id="path54" d="m 153.59602,253.73301 v -29.46663 h 66.73161 v 29.46663 z" clip-path="url(#clipWmfPath1)" style="fill:none;stroke:#000000;stroke-width:0.0666649px;stroke-linecap:round;stroke-linejoin:round;stroke-miterlimit:4;stroke-dasharray:none;stroke-opacity:1" transform="rotate(180,243.16037,207.69973)"/>
  <path id="path56" d="m 201.9281,245.86636 0.79998,-0.2 0.66665,-0.53334 0.46666,-0.73333 0.13333,-0.8 v -9.73332 l -0.13333,-0.73333 -0.46666,-0.53333 -0.66665,-0.4 -0.79998,-0.13334 h -29.93256 l -0.79997,0.2 -0.66665,0.46667 -0.46666,0.6 -0.13333,0.8 v 9.26665 l 0.0667,0.86667 0.33332,0.8 0.46666,0.53333 0.73331,0.26667 z" clip-path="url(#clipWmfPath1)" style="fill:#ffffff;fill-opacity:1;fill-rule:nonzero;stroke:none" transform="rotate(180,243.16037,207.69973)"/>
  <path id="path58" d="m 171.52889,245.33302 v 1.06667 h 30.46588 l 0.93331,-0.26667 0.86664,-0.66666 0.53332,-0.86667 0.2,-0.93333 v -9.86665 l -0.2,-0.86667 -0.59998,-0.73333 -0.79998,-0.46667 -0.93331,-0.2 h -30.06589 l -0.93331,0.26667 -0.79998,0.53333 -0.59998,0.8 -0.2,0.93333 v 9.33332 l 0.13333,1 0.33333,0.93333 0.66665,0.66667 0.93331,0.4 h 30.53254 l 0.86664,-0.26667 -0.26666,-0.93333 -0.73331,0.13333 h -30.26588 l -0.53332,-0.13333 -0.26666,-0.4 -0.33333,-0.66666 v -0.73334 -9.19999 l 0.0667,-0.66666 0.33332,-0.4 0.53332,-0.4 0.66665,-0.13333 h 29.79923 l 0.66665,0.0667 0.53332,0.33334 0.33332,0.33333 0.0667,0.6 v 9.59999 l -0.0667,0.66666 -0.39999,0.6 -0.46665,0.4 -0.66665,0.13333 z" clip-path="url(#clipWmfPath1)" style="fill:#000000;fill-opacity:1;fill-rule:nonzero;stroke:#000000;stroke-width:0.0666649px;stroke-linecap:round;stroke-linejoin:round;stroke-miterlimit:4;stroke-dasharray:none;stroke-opacity:1" transform="rotate(180,243.16037,207.69973)"/>
  <g id="g60" clip-path="url(#clipWmfPath1)" transform="rotate(180,243.16037,207.69973)"/>
  <g id="g74" clip-path="url(#clipWmfPath1)" transform="translate(287.0385999999999, 169.66643)">
    <text id="text72" y="0" x="0" transform="translate(0,9)" style="font-style:normal;font-variant:normal;font-weight:400;font-size:10.9375px;line-height:125%;font-family:Helvetica-Narrow;text-align:start;letter-spacing:0px;word-spacing:0px;text-anchor:start;fill:#000000;fill-opacity:1;stroke:none" xml:space="preserve"><tspan id="tspan70" y="0" x="0"><tspan id="tspan62" style="font-style:normal;font-variant:normal;font-weight:400;font-size:10.9375px;font-family:Helvetica-Narrow;fill:#000000" dy="0" dx="0">B</tspan><tspan id="tspan64" style="font-style:normal;font-variant:normal;font-weight:400;font-size:10.9375px;font-family:Helvetica-Narrow;fill:#000000" dy="0" dx="-0.495489">I</tspan><tspan id="tspan66" style="font-style:normal;font-variant:normal;font-weight:400;font-size:10.9375px;font-family:Helvetica-Narrow;fill:#000000" dy="0" dx="0.97282702">O</tspan><tspan id="tspan68" style="font-style:normal;font-variant:normal;font-weight:400;font-size:10.9375px;font-family:Helvetica-Narrow;fill:#000000" dy="0" dx="0.82167298">S</tspan></tspan></text>
  </g>
  <path id="path76" d="M 284.4593,11.333319 H 445.3218 V 26.3333 H 284.4593 Z" clip-path="url(#clipWmfPath1)" style="fill:#000000;fill-opacity:1;fill-rule:nonzero;stroke:none" transform="rotate(180,243.16037,207.69973)"/>
  <path id="path78" d="M 284.4593,11.333319 H 445.3218 V 26.3333 H 284.4593 Z" clip-path="url(#clipWmfPath1)" style="fill:none;stroke:#000000;stroke-width:0.0666649px;stroke-linecap:round;stroke-linejoin:round;stroke-miterlimit:4;stroke-dasharray:none;stroke-opacity:1" transform="rotate(180,243.16037,207.69973)"/>
  <path id="path80" d="m 290.12582,21.599973 h 149.52946 v -5.46666 H 290.12582 Z" clip-path="url(#clipWmfPath1)" style="fill:#ffffff;fill-opacity:1;fill-rule:nonzero;stroke:none" transform="rotate(180,243.16037,207.69973)"/>
  <path id="path82" d="m 290.12582,21.599973 h 149.52946 v -5.46666 H 290.12582 Z" clip-path="url(#clipWmfPath1)" style="fill:none;stroke:#000000;stroke-width:0.0666649px;stroke-linecap:round;stroke-linejoin:round;stroke-miterlimit:4;stroke-dasharray:none;stroke-opacity:1" transform="rotate(180,243.16037,207.69973)"/>
  <path id="path84" d="M 284.4593,46.933274 H 445.3218 V 61.933255 H 284.4593 Z" clip-path="url(#clipWmfPath1)" style="fill:#000000;fill-opacity:1;fill-rule:nonzero;stroke:none" transform="rotate(180,243.16037,207.69973)"/>
  <path id="path86" d="M 284.4593,46.933274 H 445.3218 V 61.933255 H 284.4593 Z" clip-path="url(#clipWmfPath1)" style="fill:none;stroke:#000000;stroke-width:0.0666649px;stroke-linecap:round;stroke-linejoin:round;stroke-miterlimit:4;stroke-dasharray:none;stroke-opacity:1" transform="rotate(180,243.16037,207.69973)"/>
  <path id="path88" d="m 290.12582,57.199928 h 149.52946 v -5.46666 H 290.12582 Z" clip-path="url(#clipWmfPath1)" style="fill:#ffffff;fill-opacity:1;fill-rule:nonzero;stroke:none" transform="rotate(180,243.16037,207.69973)"/>
  <path id="path90" d="m 290.12582,57.199928 h 149.52946 v -5.46666 H 290.12582 Z" clip-path="url(#clipWmfPath1)" style="fill:none;stroke:#000000;stroke-width:0.0666649px;stroke-linecap:round;stroke-linejoin:round;stroke-miterlimit:4;stroke-dasharray:none;stroke-opacity:1" transform="rotate(180,243.16037,207.69973)"/>
  <path id="path92" d="M 284.4593,82.533229 H 445.3218 V 97.53321 H 284.4593 Z" clip-path="url(#clipWmfPath1)" style="fill:#000000;fill-opacity:1;fill-rule:nonzero;stroke:none" transform="rotate(180,243.16037,207.69973)"/>
  <path id="path94" d="M 284.4593,82.533229 H 445.3218 V 97.53321 H 284.4593 Z" clip-path="url(#clipWmfPath1)" style="fill:none;stroke:#000000;stroke-width:0.0666649px;stroke-linecap:round;stroke-linejoin:round;stroke-miterlimit:4;stroke-dasharray:none;stroke-opacity:1" transform="rotate(180,243.16037,207.69973)"/>
  <path id="path96" d="m 290.12582,92.799883 h 149.52946 v -5.46666 H 290.12582 Z" clip-path="url(#clipWmfPath1)" style="fill:#ffffff;fill-opacity:1;fill-rule:nonzero;stroke:none" transform="rotate(180,243.16037,207.69973)"/>
  <path id="path98" d="m 290.12582,92.799883 h 149.52946 v -5.46666 H 290.12582 Z" clip-path="url(#clipWmfPath1)" style="fill:none;stroke:#000000;stroke-width:0.0666649px;stroke-linecap:round;stroke-linejoin:round;stroke-miterlimit:4;stroke-dasharray:none;stroke-opacity:1" transform="rotate(180,243.16037,207.69973)"/>
  <path id="path100" d="m 284.4593,118.13318 h 160.8625 v 14.99999 H 284.4593 Z" clip-path="url(#clipWmfPath1)" style="fill:#000000;fill-opacity:1;fill-rule:nonzero;stroke:none" transform="rotate(180,243.16037,207.69973)"/>
  <path id="path102" d="m 284.4593,118.13318 h 160.8625 v 14.99999 H 284.4593 Z" clip-path="url(#clipWmfPath1)" style="fill:none;stroke:#000000;stroke-width:0.0666649px;stroke-linecap:round;stroke-linejoin:round;stroke-miterlimit:4;stroke-dasharray:none;stroke-opacity:1" transform="rotate(180,243.16037,207.69973)"/>
  <path id="path104" d="m 290.12582,128.39984 h 149.52946 v -5.46666 H 290.12582 Z" clip-path="url(#clipWmfPath1)" style="fill:#ffffff;fill-opacity:1;fill-rule:nonzero;stroke:none" transform="rotate(180,243.16037,207.69973)"/>
  <path id="path106" d="m 290.12582,128.39984 h 149.52946 v -5.46666 H 290.12582 Z" clip-path="url(#clipWmfPath1)" style="fill:none;stroke:#000000;stroke-width:0.0666649px;stroke-linecap:round;stroke-linejoin:round;stroke-miterlimit:4;stroke-dasharray:none;stroke-opacity:1" transform="rotate(180,243.16037,207.69973)"/>
  <path id="path108" d="m 283.99264,152.26647 h 160.8625 v 14.99999 h -160.8625 z" clip-path="url(#clipWmfPath1)" style="fill:#000000;fill-opacity:1;fill-rule:nonzero;stroke:none" transform="rotate(180,243.16037,207.69973)"/>
  <path id="path110" d="m 283.99264,152.26647 h 160.8625 v 14.99999 h -160.8625 z" clip-path="url(#clipWmfPath1)" style="fill:none;stroke:#000000;stroke-width:0.0666649px;stroke-linecap:round;stroke-linejoin:round;stroke-miterlimit:4;stroke-dasharray:none;stroke-opacity:1" transform="rotate(180,243.16037,207.69973)"/>
  <path id="path112" d="m 289.65916,162.53313 h 149.52946 v -5.46666 H 289.65916 Z" clip-path="url(#clipWmfPath1)" style="fill:#ffffff;fill-opacity:1;fill-rule:nonzero;stroke:none" transform="rotate(180,243.16037,207.69973)"/>
  <path id="path114" d="m 289.65916,162.53313 h 149.52946 v -5.46666 H 289.65916 Z" clip-path="url(#clipWmfPath1)" style="fill:none;stroke:#000000;stroke-width:0.0666649px;stroke-linecap:round;stroke-linejoin:round;stroke-miterlimit:4;stroke-dasharray:none;stroke-opacity:1" transform="rotate(180,243.16037,207.69973)"/>
  <path id="path116" d="m 283.99264,187.86643 h 160.8625 v 14.99998 h -160.8625 z" clip-path="url(#clipWmfPath1)" style="fill:#000000;fill-opacity:1;fill-rule:nonzero;stroke:none" transform="rotate(180,243.16037,207.69973)"/>
  <path id="path118" d="m 283.99264,187.86643 h 160.8625 v 14.99998 h -160.8625 z" clip-path="url(#clipWmfPath1)" style="fill:none;stroke:#000000;stroke-width:0.0666649px;stroke-linecap:round;stroke-linejoin:round;stroke-miterlimit:4;stroke-dasharray:none;stroke-opacity:1" transform="rotate(180,243.16037,207.69973)"/>
  <path id="path120" d="m 289.65916,198.13308 h 149.52946 v -5.46666 H 289.65916 Z" clip-path="url(#clipWmfPath1)" style="fill:#ffffff;fill-opacity:1;fill-rule:nonzero;stroke:none" transform="rotate(180,243.16037,207.69973)"/>
  <path id="path122" d="m 289.65916,198.13308 h 149.52946 v -5.46666 H 289.65916 Z" clip-path="url(#clipWmfPath1)" style="fill:none;stroke:#000000;stroke-width:0.0666649px;stroke-linecap:round;stroke-linejoin:round;stroke-miterlimit:4;stroke-dasharray:none;stroke-opacity:1" transform="rotate(180,243.16037,207.69973)"/>
  <path id="path124" d="m 283.99264,223.46638 h 160.8625 v 14.99999 h -160.8625 z" clip-path="url(#clipWmfPath1)" style="fill:#000000;fill-opacity:1;fill-rule:nonzero;stroke:none" transform="rotate(180,243.16037,207.69973)"/>
  <path id="path126" d="m 283.99264,223.46638 h 160.8625 v 14.99999 h -160.8625 z" clip-path="url(#clipWmfPath1)" style="fill:none;stroke:#000000;stroke-width:0.0666649px;stroke-linecap:round;stroke-linejoin:round;stroke-miterlimit:4;stroke-dasharray:none;stroke-opacity:1" transform="rotate(180,243.16037,207.69973)"/>
  <path id="path128" d="m 289.65916,233.73304 h 149.52946 v -5.46666 H 289.65916 Z" clip-path="url(#clipWmfPath1)" style="fill:#ffffff;fill-opacity:1;fill-rule:nonzero;stroke:none" transform="rotate(180,243.16037,207.69973)"/>
  <path id="path130" d="m 289.65916,233.73304 h 149.52946 v -5.46666 H 289.65916 Z" clip-path="url(#clipWmfPath1)" style="fill:none;stroke:#000000;stroke-width:0.0666649px;stroke-linecap:round;stroke-linejoin:round;stroke-miterlimit:4;stroke-dasharray:none;stroke-opacity:1" transform="rotate(180,243.16037,207.69973)"/>
  <path id="path132" d="m 283.99264,259.06634 h 160.8625 v 14.99998 h -160.8625 z" clip-path="url(#clipWmfPath1)" style="fill:#000000;fill-opacity:1;fill-rule:nonzero;stroke:none" transform="rotate(180,243.16037,207.69973)"/>
  <path id="path134" d="m 283.99264,259.06634 h 160.8625 v 14.99998 h -160.8625 z" clip-path="url(#clipWmfPath1)" style="fill:none;stroke:#000000;stroke-width:0.0666649px;stroke-linecap:round;stroke-linejoin:round;stroke-miterlimit:4;stroke-dasharray:none;stroke-opacity:1" transform="rotate(180,243.16037,207.69973)"/>
  <path id="path136" d="m 289.65916,269.33299 h 149.52946 v -5.46666 H 289.65916 Z" clip-path="url(#clipWmfPath1)" style="fill:#ffffff;fill-opacity:1;fill-rule:nonzero;stroke:none" transform="rotate(180,243.16037,207.69973)"/>
  <path id="path138" d="m 289.65916,269.33299 h 149.52946 v -5.46666 H 289.65916 Z" clip-path="url(#clipWmfPath1)" style="fill:none;stroke:#000000;stroke-width:0.0666649px;stroke-linecap:round;stroke-linejoin:round;stroke-miterlimit:4;stroke-dasharray:none;stroke-opacity:1" transform="rotate(180,243.16037,207.69973)"/>
  <path id="path140" d="m 202.1281,56.066596 h -9.86641 v 19.199976 h 9.86641 z" clip-path="url(#clipWmfPath1)" style="fill:#ffffff;fill-opacity:1;fill-rule:nonzero;stroke:none" transform="rotate(180,243.16037,207.69973)"/>
  <path id="path142" d="m 202.1281,56.066596 h -9.86641 v 19.199976 h 9.86641 z" clip-path="url(#clipWmfPath1)" style="fill:none;stroke:#000000;stroke-width:0.0666649px;stroke-linecap:round;stroke-linejoin:round;stroke-miterlimit:4;stroke-dasharray:none;stroke-opacity:1" transform="rotate(180,243.16037,207.69973)"/>
  <path id="path144" d="m 196.19492,57.466594 h -2.73326 v 2.73333 h 2.73326 z" clip-path="url(#clipWmfPath1)" style="fill:#000000;fill-opacity:1;fill-rule:nonzero;stroke:none" transform="rotate(180,243.16037,207.69973)"/>
  <path id="path146" d="m 196.19492,57.466594 h -2.73326 v 2.73333 h 2.73326 z" clip-path="url(#clipWmfPath1)" style="fill:none;stroke:#000000;stroke-width:0.0666649px;stroke-linecap:round;stroke-linejoin:round;stroke-miterlimit:4;stroke-dasharray:none;stroke-opacity:1" transform="rotate(180,243.16037,207.69973)"/>
  <path id="path148" d="m 196.19492,62.066588 h -2.73326 v 2.73333 h 2.73326 z" clip-path="url(#clipWmfPath1)" style="fill:#000000;fill-opacity:1;fill-rule:nonzero;stroke:none" transform="rotate(180,243.16037,207.69973)"/>
  <path id="path150" d="m 196.19492,62.066588 h -2.73326 v 2.73333 h 2.73326 z" clip-path="url(#clipWmfPath1)" style="fill:none;stroke:#000000;stroke-width:0.0666649px;stroke-linecap:round;stroke-linejoin:round;stroke-miterlimit:4;stroke-dasharray:none;stroke-opacity:1" transform="rotate(180,243.16037,207.69973)"/>
  <path id="path152" d="m 196.19492,66.666583 h -2.73326 v 2.73333 h 2.73326 z" clip-path="url(#clipWmfPath1)" style="fill:#000000;fill-opacity:1;fill-rule:nonzero;stroke:none" transform="rotate(180,243.16037,207.69973)"/>
  <path id="path154" d="m 196.19492,66.666583 h -2.73326 v 2.73333 h 2.73326 z" clip-path="url(#clipWmfPath1)" style="fill:none;stroke:#000000;stroke-width:0.0666649px;stroke-linecap:round;stroke-linejoin:round;stroke-miterlimit:4;stroke-dasharray:none;stroke-opacity:1" transform="rotate(180,243.16037,207.69973)"/>
  <path id="path156" d="m 196.19492,71.39991 h -2.73326 v 2.73333 h 2.73326 z" clip-path="url(#clipWmfPath1)" style="fill:#000000;fill-opacity:1;fill-rule:nonzero;stroke:none" transform="rotate(180,243.16037,207.69973)"/>
  <path id="path158" d="m 196.19492,71.39991 h -2.73326 v 2.73333 h 2.73326 z" clip-path="url(#clipWmfPath1)" style="fill:none;stroke:#000000;stroke-width:0.0666649px;stroke-linecap:round;stroke-linejoin:round;stroke-miterlimit:4;stroke-dasharray:none;stroke-opacity:1" transform="rotate(180,243.16037,207.69973)"/>
  <path id="path160" d="m 200.86146,57.466594 h -2.73326 v 2.73333 h 2.73326 z" clip-path="url(#clipWmfPath1)" style="fill:#ffffff;fill-opacity:1;fill-rule:nonzero;stroke:none" transform="rotate(180,243.16037,207.69973)"/>
  <path id="path162" d="m 200.86146,57.466594 h -2.73326 v 2.73333 h 2.73326 z" clip-path="url(#clipWmfPath1)" style="fill:none;stroke:#000000;stroke-width:0.0666649px;stroke-linecap:round;stroke-linejoin:round;stroke-miterlimit:4;stroke-dasharray:none;stroke-opacity:1" transform="rotate(180,243.16037,207.69973)"/>
  <path id="path164" d="m 200.86146,62.066588 h -2.73326 v 2.73333 h 2.73326 z" clip-path="url(#clipWmfPath1)" style="fill:#000000;fill-opacity:1;fill-rule:nonzero;stroke:none" transform="rotate(180,243.16037,207.69973)"/>
  <path id="path166" d="m 200.86146,62.066588 h -2.73326 v 2.73333 h 2.73326 z" clip-path="url(#clipWmfPath1)" style="fill:none;stroke:#000000;stroke-width:0.0666649px;stroke-linecap:round;stroke-linejoin:round;stroke-miterlimit:4;stroke-dasharray:none;stroke-opacity:1" transform="rotate(180,243.16037,207.69973)"/>
  <path id="path168" d="m 200.86146,66.666583 h -2.73326 v 2.73333 h 2.73326 z" clip-path="url(#clipWmfPath1)" style="fill:#000000;fill-opacity:1;fill-rule:nonzero;stroke:none" transform="rotate(180,243.16037,207.69973)"/>
  <path id="path170" d="m 200.86146,66.666583 h -2.73326 v 2.73333 h 2.73326 z" clip-path="url(#clipWmfPath1)" style="fill:none;stroke:#000000;stroke-width:0.0666649px;stroke-linecap:round;stroke-linejoin:round;stroke-miterlimit:4;stroke-dasharray:none;stroke-opacity:1" transform="rotate(180,243.16037,207.69973)"/>
  <path id="path172" d="m 200.86146,71.39991 h -2.73326 v 2.73333 h 2.73326 z" clip-path="url(#clipWmfPath1)" style="fill:#000000;fill-opacity:1;fill-rule:nonzero;stroke:none" transform="rotate(180,243.16037,207.69973)"/>
  <path id="path174" d="m 200.86146,71.39991 h -2.73326 v 2.73333 h 2.73326 z" clip-path="url(#clipWmfPath1)" style="fill:none;stroke:#000000;stroke-width:0.0666649px;stroke-linecap:round;stroke-linejoin:round;stroke-miterlimit:4;stroke-dasharray:none;stroke-opacity:1" transform="rotate(180,243.16037,207.69973)"/>
  <path id="path176" d="m 226.99412,298.99962 v -14.66665 h 53.59861 v 14.66665 z" clip-path="url(#clipWmfPath1)" style="fill:#ffffff;fill-opacity:1;fill-rule:nonzero;stroke:none" transform="rotate(180,243.16037,207.69973)"/>
  <path id="path178" d="m 226.99412,298.99962 v -14.66665 h 53.59861 v 14.66665 z" clip-path="url(#clipWmfPath1)" style="fill:none;stroke:#000000;stroke-width:0.0666649px;stroke-linecap:round;stroke-linejoin:round;stroke-miterlimit:4;stroke-dasharray:none;stroke-opacity:1" transform="rotate(180,243.16037,207.69973)"/>
  <path id="path180" d="m 255.39338,287.53297 v 7.93332 h 4.06657 v -7.93332 z" clip-path="url(#clipWmfPath1)" style="fill:#000000;fill-opacity:1;fill-rule:nonzero;stroke:none" transform="rotate(180,243.16037,207.69973)"/>
  <path id="path182" d="m 255.39338,287.53297 v 7.93332 h 4.06657 v -7.93332 z" clip-path="url(#clipWmfPath1)" style="fill:none;stroke:#000000;stroke-width:0.0666649px;stroke-linecap:round;stroke-linejoin:round;stroke-miterlimit:4;stroke-dasharray:none;stroke-opacity:1" transform="rotate(180,243.16037,207.69973)"/>
  <path id="path184" d="m 261.12657,287.53297 v 7.93332 h 4.06656 v -7.93332 z" clip-path="url(#clipWmfPath1)" style="fill:#000000;fill-opacity:1;fill-rule:nonzero;stroke:none" transform="rotate(180,243.16037,207.69973)"/>
  <path id="path186" d="m 261.12657,287.53297 v 7.93332 h 4.06656 v -7.93332 z" clip-path="url(#clipWmfPath1)" style="fill:none;stroke:#000000;stroke-width:0.0666649px;stroke-linecap:round;stroke-linejoin:round;stroke-miterlimit:4;stroke-dasharray:none;stroke-opacity:1" transform="rotate(180,243.16037,207.69973)"/>
  <path id="path188" d="m 243.66036,287.53297 v 7.93332 h 4.06656 v -7.93332 z" clip-path="url(#clipWmfPath1)" style="fill:#000000;fill-opacity:1;fill-rule:nonzero;stroke:none" transform="rotate(180,243.16037,207.69973)"/>
  <path id="path190" d="m 243.66036,287.53297 v 7.93332 h 4.06656 v -7.93332 z" clip-path="url(#clipWmfPath1)" style="fill:none;stroke:#000000;stroke-width:0.0666649px;stroke-linecap:round;stroke-linejoin:round;stroke-miterlimit:4;stroke-dasharray:none;stroke-opacity:1" transform="rotate(180,243.16037,207.69973)"/>
  <path id="path192" d="m 249.32688,287.53297 v 7.93332 h 4.06656 v -7.93332 z" clip-path="url(#clipWmfPath1)" style="fill:#000000;fill-opacity:1;fill-rule:nonzero;stroke:none" transform="rotate(180,243.16037,207.69973)"/>
  <path id="path194" d="m 249.32688,287.53297 v 7.93332 h 4.06656 v -7.93332 z" clip-path="url(#clipWmfPath1)" style="fill:none;stroke:#000000;stroke-width:0.0666649px;stroke-linecap:round;stroke-linejoin:round;stroke-miterlimit:4;stroke-dasharray:none;stroke-opacity:1" transform="rotate(180,243.16037,207.69973)"/>
  <path id="path196" d="m 237.52718,287.53297 v 7.93332 h 4.06656 v -7.93332 z" clip-path="url(#clipWmfPath1)" style="fill:#000000;fill-opacity:1;fill-rule:nonzero;stroke:none" transform="rotate(180,243.16037,207.69973)"/>
  <path id="path198" d="m 237.52718,287.53297 v 7.93332 h 4.06656 v -7.93332 z" clip-path="url(#clipWmfPath1)" style="fill:none;stroke:#000000;stroke-width:0.0666649px;stroke-linecap:round;stroke-linejoin:round;stroke-miterlimit:4;stroke-dasharray:none;stroke-opacity:1" transform="rotate(180,243.16037,207.69973)"/>
  <path id="path200" d="m 231.52734,287.53297 v 7.93332 h 4.06656 v -7.93332 z" clip-path="url(#clipWmfPath1)" style="fill:#000000;fill-opacity:1;fill-rule:nonzero;stroke:none" transform="rotate(180,243.16037,207.69973)"/>
  <path id="path202" d="m 231.52734,287.53297 v 7.93332 h 4.06656 v -7.93332 z" clip-path="url(#clipWmfPath1)" style="fill:none;stroke:#000000;stroke-width:0.0666649px;stroke-linecap:round;stroke-linejoin:round;stroke-miterlimit:4;stroke-dasharray:none;stroke-opacity:1" transform="rotate(180,243.16037,207.69973)"/>
  <path id="path204" d="m 272.8596,287.53297 v 7.93332 h 4.06656 v -7.93332 z" clip-path="url(#clipWmfPath1)" style="fill:#000000;fill-opacity:1;fill-rule:nonzero;stroke:none" transform="rotate(180,243.16037,207.69973)"/>
  <path id="path206" d="m 272.8596,287.53297 v 7.93332 h 4.06656 v -7.93332 z" clip-path="url(#clipWmfPath1)" style="fill:none;stroke:#000000;stroke-width:0.0666649px;stroke-linecap:round;stroke-linejoin:round;stroke-miterlimit:4;stroke-dasharray:none;stroke-opacity:1" transform="rotate(180,243.16037,207.69973)"/>
  <path id="path208" d="m 266.79309,287.53297 v 7.93332 h 4.06656 v -7.93332 z" clip-path="url(#clipWmfPath1)" style="fill:#000000;fill-opacity:1;fill-rule:nonzero;stroke:none" transform="rotate(180,243.16037,207.69973)"/>
  <path id="path210" d="m 266.79309,287.53297 v 7.93332 h 4.06656 v -7.93332 z" clip-path="url(#clipWmfPath1)" style="fill:none;stroke:#000000;stroke-width:0.0666649px;stroke-linecap:round;stroke-linejoin:round;stroke-miterlimit:4;stroke-dasharray:none;stroke-opacity:1" transform="rotate(180,243.16037,207.69973)"/>
  <path id="path212" d="m 365.99052,285.33297 h 100.53073 v 33.39996 H 365.99052 Z" clip-path="url(#clipWmfPath1)" style="fill:#000000;fill-opacity:1;fill-rule:nonzero;stroke:none" transform="rotate(180,243.16037,207.69973)"/>
  <path id="path214" d="m 365.99052,285.33297 h 100.53073 v 33.39996 H 365.99052 Z" clip-path="url(#clipWmfPath1)" style="fill:none;stroke:#000000;stroke-width:0.0666649px;stroke-linecap:round;stroke-linejoin:round;stroke-miterlimit:4;stroke-dasharray:none;stroke-opacity:1" transform="rotate(180,243.16037,207.69973)"/>
  <path id="path216" d="m 368.99044,292.2663 v 19.66664 h 42.46557 V 292.2663 h 3.86657 v 19.66664 h 42.46556 V 292.2663 Z" clip-path="url(#clipWmfPath1)" style="fill:#f2f2f2;fill-opacity:1;fill-rule:nonzero;stroke:none" transform="rotate(180,243.16037,207.69973)"/>
  <path id="path218" d="m 368.99044,292.2663 v 19.66664 h 42.46557 V 292.2663 h 3.86657 v 19.66664 h 42.46556 V 292.2663 Z" clip-path="url(#clipWmfPath1)" style="fill:none;stroke:#000000;stroke-width:0.0666649px;stroke-linecap:round;stroke-linejoin:round;stroke-miterlimit:4;stroke-dasharray:none;stroke-opacity:1" transform="rotate(180,243.16037,207.69973)"/>
  <path id="path220" d="m 367.59048,291.13297 v -4.93333 h 3.59991 v 4.93333 h 1.53329 v -4.93333 h 3.59991 v 4.93333 h 1.46662 v -4.93333 h 3.59991 v 4.93333 h 1.3333 v -4.93333 h 3.59991 v 4.93333 h 1.46663 v -4.93333 h 3.53324 v 4.93333 h 1.06664 v -4.93333 h 3.5999 v 4.93333 h 1.46663 v -4.93333 h 3.53324 v 4.93333 h 1.5333 v -4.93333 h 3.5999 v 4.93333 h 1.39997 v -4.93333 h 3.53324 v 4.93333 h 1.3333 v -4.93333 h 3.66657 v 4.93333 h 1.3333 v -4.93333 h 3.59991 v 4.93333 h 1.53329 v -4.93333 h 3.53324 v 4.93333 h 1.53329 v -4.93333 4.93333 -4.93333 h 3.53325 v 4.93333 h 1.39996 v -4.93333 h 3.53324 v 4.93333 h 1.46663 v -4.93333 h 3.59991 v 4.93333 h 0.99997 v -4.93333 h 3.59991 v 4.93333 h 1.46663 v -4.93333 h 3.5999 v 4.93333 h 1.5333 v -4.93333 h 3.53324 v 4.93333 h 1.39996 v -4.93333 h 3.59991 v 4.93333 h 1.39996 v -4.93333 h 3.53325 v 4.93333 h -98.19746 l 1.39996,1.13333 v 19.66664 l -1.66662,1.26667 h 3.59991 v 4.93332 h 1.53329 v -4.93332 h 3.53324 v 4.93332 h 1.53329 v -4.93332 h 3.53325 v 4.93332 h 1.39996 v -4.93332 H 385.99 v 4.93332 h 1.46663 v -4.93332 h 3.59991 v 4.93332 h 0.99997 v -4.93332 h 3.59991 v 4.93332 h 1.46663 v -4.93332 h 3.5999 v 4.93332 h 1.5333 v -4.93332 h 3.53324 v 4.93332 h 1.39996 v -4.93332 h 3.59991 v 4.93332 h 1.39996 v -4.93332 h 3.53325 v 4.93332 h 1.33329 v -4.93332 h 3.66658 v 4.93332 h 1.46662 v -4.93332 h 3.59991 v 4.93332 h 1.46663 v -4.93332 h 3.59991 v 4.93332 h 1.3333 v -4.93332 h 3.5999 v 4.93332 h 1.46663 v -4.93332 h 3.53324 v 4.93332 h 1.06664 v -4.93332 h 3.59991 v 4.93332 h 1.46663 v -4.93332 h 3.53324 v 4.93332 h 1.53329 v -4.93332 h 3.59991 v 4.93332 h 1.39996 v -4.93332 h 3.53324 v 4.93332 h 1.39997 v -4.93332 h 3.59991 v 4.93332 h -98.19746 v -4.93332 l 1.66662,-1.26667 V 292.2663 Z" clip-path="url(#clipWmfPath1)" style="fill:#ffffff;fill-opacity:1;fill-rule:nonzero;stroke:none" transform="rotate(180,243.16037,207.69973)"/>
  <path id="path222" d="m 367.59048,291.13297 v -4.93333 h 3.59991 v 4.93333 h 1.53329 v -4.93333 h 3.59991 v 4.93333 h 1.46662 v -4.93333 h 3.59991 v 4.93333 h 1.3333 v -4.93333 h 3.59991 v 4.93333 h 1.46663 v -4.93333 h 3.53324 v 4.93333 h 1.06664 v -4.93333 h 3.5999 v 4.93333 h 1.46663 v -4.93333 h 3.53324 v 4.93333 h 1.5333 v -4.93333 h 3.5999 v 4.93333 h 1.39997 v -4.93333 h 3.53324 v 4.93333 h 1.3333 v -4.93333 h 3.66657 v 4.93333 h 1.3333 v -4.93333 h 3.59991 v 4.93333 h 1.53329 v -4.93333 h 3.53324 v 4.93333 h 1.53329 v -4.93333 4.93333 -4.93333 h 3.53325 v 4.93333 h 1.39996 v -4.93333 h 3.53324 v 4.93333 h 1.46663 v -4.93333 h 3.59991 v 4.93333 h 0.99997 v -4.93333 h 3.59991 v 4.93333 h 1.46663 v -4.93333 h 3.5999 v 4.93333 h 1.5333 v -4.93333 h 3.53324 v 4.93333 h 1.39996 v -4.93333 h 3.59991 v 4.93333 h 1.39996 v -4.93333 h 3.53325 v 4.93333 h -98.19746 l 1.39996,1.13333 v 19.66664 l -1.66662,1.26667 h 3.59991 v 4.93332 h 1.53329 v -4.93332 h 3.53324 v 4.93332 h 1.53329 v -4.93332 h 3.53325 v 4.93332 h 1.39996 v -4.93332 H 385.99 v 4.93332 h 1.46663 v -4.93332 h 3.59991 v 4.93332 h 0.99997 v -4.93332 h 3.59991 v 4.93332 h 1.46663 v -4.93332 h 3.5999 v 4.93332 h 1.5333 v -4.93332 h 3.53324 v 4.93332 h 1.39996 v -4.93332 h 3.59991 v 4.93332 h 1.39996 v -4.93332 h 3.53325 v 4.93332 h 1.33329 v -4.93332 h 3.66658 v 4.93332 h 1.46662 v -4.93332 h 3.59991 v 4.93332 h 1.46663 v -4.93332 h 3.59991 v 4.93332 h 1.3333 v -4.93332 h 3.5999 v 4.93332 h 1.46663 v -4.93332 h 3.53324 v 4.93332 h 1.06664 v -4.93332 h 3.59991 v 4.93332 h 1.46663 v -4.93332 h 3.53324 v 4.93332 h 1.53329 v -4.93332 h 3.59991 v 4.93332 h 1.39996 v -4.93332 h 3.53324 v 4.93332 h 1.39997 v -4.93332 h 3.59991 v 4.93332 h -98.19746 v -4.93332 l 1.66662,-1.26667 V 292.2663 Z" clip-path="url(#clipWmfPath1)" style="fill:none;stroke:#000000;stroke-width:0.0666649px;stroke-linecap:round;stroke-linejoin:round;stroke-miterlimit:4;stroke-dasharray:none;stroke-opacity:1" transform="rotate(180,243.16037,207.69973)"/>
  <path id="path224" d="m 368.05713,316.93293 v -29.53329 h 96.99749 v 29.53329 z" clip-path="url(#clipWmfPath1)" style="fill:#808080;fill-opacity:1;fill-rule:nonzero;stroke:none" transform="rotate(180,243.16037,207.69973)"/>
  <path id="path226" d="m 368.05713,316.93293 v -29.53329 h 96.99749 v 29.53329 z" clip-path="url(#clipWmfPath1)" style="fill:none;stroke:#000000;stroke-width:0.0666649px;stroke-linecap:round;stroke-linejoin:round;stroke-miterlimit:4;stroke-dasharray:none;stroke-opacity:1" transform="rotate(180,243.16037,207.69973)"/>
  <path id="path228" d="m 425.85564,295.39963 0.99997,0.13333 0.79998,0.46667 0.59998,0.66666 0.2,0.73334 v 9.46665 l -0.2,0.73333 -0.59998,0.6 -0.79998,0.33333 -0.99997,0.13334 h -19.26617 l -0.99998,-0.13334 -0.79997,-0.4 -0.59999,-0.66666 -0.19999,-0.73333 v -9.39999 l 0.19999,-0.73333 0.59999,-0.6 0.79997,-0.46667 0.99998,-0.13333 z" clip-path="url(#clipWmfPath1)" style="fill:#ffffff;fill-opacity:1;fill-rule:nonzero;stroke:none" transform="rotate(180,243.16037,207.69973)"/>
  <path id="path230" d="m 406.58947,294.8663 v 1.06666 h 19.1995 l 0.86665,0.0667 0.66664,0.4 0.46666,0.53333 0.13333,0.53333 v 9.33332 l -0.13333,0.53334 -0.39999,0.46666 -0.66665,0.26667 -0.93331,0.0667 h -19.13284 l -0.93331,-0.0667 -0.59998,-0.33333 -0.46665,-0.53334 -0.13333,-0.53333 v -9.26665 l 0.13333,-0.53334 0.46665,-0.46666 0.66665,-0.4 0.86664,-0.0667 h 19.13284 l 0.99998,0.13333 0.13333,-1.06666 -0.99998,-0.13333 h -19.3995 l -1.1333,0.19999 -0.93331,0.53334 -0.73331,0.73333 -0.26666,0.93333 v 9.53332 l 0.26666,0.93334 0.73331,0.79999 0.99997,0.46667 1.06664,0.2 h 19.3995 l 1.06664,-0.2 0.93331,-0.4 0.79998,-0.73333 0.26666,-0.93333 v -9.59999 l -0.26666,-0.93333 -0.73332,-0.8 -0.9333,-0.53334 -1.13331,-0.19999 z" clip-path="url(#clipWmfPath1)" style="fill:#000000;fill-opacity:1;fill-rule:nonzero;stroke:#000000;stroke-width:0.0666649px;stroke-linecap:round;stroke-linejoin:round;stroke-miterlimit:4;stroke-dasharray:none;stroke-opacity:1" transform="rotate(180,243.16037,207.69973)"/>
  <g id="g232" clip-path="url(#clipWmfPath1)" transform="rotate(180,243.16037,207.69973)"/>
  <g id="g244" clip-path="url(#clipWmfPath1)" transform="translate(58.48459999999993, 106.53318000000002)">
    <text id="text242" y="0" x="0" transform="translate(0,9)" style="font-style:normal;font-variant:normal;font-weight:400;font-size:10.6875px;line-height:125%;font-family:Helvetica-Narrow;text-align:start;letter-spacing:0px;word-spacing:0px;text-anchor:start;fill:#000000;fill-opacity:1;stroke:none" xml:space="preserve"><tspan id="tspan240" y="0" x="0"><tspan id="tspan234" style="font-style:normal;font-variant:normal;font-weight:400;font-size:10.6875px;font-family:Helvetica-Narrow;fill:#000000" dy="0" dx="0">C</tspan><tspan id="tspan236" style="font-style:normal;font-variant:normal;font-weight:400;font-size:10.6875px;font-family:Helvetica-Narrow;fill:#000000" dy="0" dx="-0.050345998">P</tspan><tspan id="tspan238" style="font-style:normal;font-variant:normal;font-weight:400;font-size:10.6875px;font-family:Helvetica-Narrow;fill:#000000" dy="0" dx="-0.102728">U</tspan></tspan></text>
  </g>
  <path id="path246" d="m 365.99052,324.33292 h 100.53073 v 33.39996 H 365.99052 Z m 5.66652,6.73333 v 19.66664 h 42.46557 v -19.66664 h 3.86656 v 19.66664 h 42.46557 v -19.66664 z" clip-path="url(#clipWmfPath1)" style="fill:#000000;fill-opacity:1;fill-rule:evenodd;stroke:none" transform="rotate(180,243.16037,207.69973)"/>
  <path id="path248" d="m 365.99052,324.33292 h 100.53073 v 33.39996 H 365.99052 Z" clip-path="url(#clipWmfPath1)" style="fill:none;stroke:#000000;stroke-width:0.0666649px;stroke-linecap:round;stroke-linejoin:round;stroke-miterlimit:4;stroke-dasharray:none;stroke-opacity:1" transform="rotate(180,243.16037,207.69973)"/>
  <path id="path250" d="m 371.65704,331.06625 v 19.66664 h 42.46557 v -19.66664 h 3.86656 v 19.66664 h 42.46557 v -19.66664 z" clip-path="url(#clipWmfPath1)" style="fill:none;stroke:#000000;stroke-width:0.0666649px;stroke-linecap:round;stroke-linejoin:round;stroke-miterlimit:4;stroke-dasharray:none;stroke-opacity:1" transform="rotate(180,243.16037,207.69973)"/>
  <path id="path252" d="m 367.59048,330.13292 v -4.93333 h 3.59991 v 4.93333 h 1.53329 v -4.93333 h 3.59991 v 4.93333 h 1.46662 v -4.93333 h 3.59991 v 4.93333 h 1.3333 v -4.93333 h 3.59991 v 4.93333 h 1.46663 v -4.93333 h 3.53324 v 4.93333 h 1.06664 v -4.93333 h 3.5999 v 4.93333 h 1.46663 v -4.93333 h 3.53324 v 4.93333 h 1.5333 v -4.93333 h 3.5999 v 4.93333 h 1.39997 v -4.93333 h 3.53324 v 4.93333 h 1.39996 v -4.93333 h 3.59991 v 4.93333 h 1.3333 v -4.93333 h 3.59991 v 4.93333 h 1.53329 v -4.93333 h 3.53324 v 4.93333 h 1.53329 v -4.93333 4.93333 -4.93333 h 3.53325 v 4.93333 h 1.39996 v -4.93333 h 3.53324 v 4.93333 h 1.46663 v -4.93333 h 3.59991 v 4.93333 h 0.99997 v -4.93333 h 3.59991 v 4.93333 h 1.46663 v -4.93333 h 3.5999 v 4.93333 h 1.5333 v -4.93333 h 3.53324 v 4.93333 h 1.39996 v -4.93333 h 3.59991 v 4.93333 h 1.39996 v -4.93333 h 3.53325 v 4.93333 h -98.19746 l 1.39996,1.13333 v 19.66664 l -1.66662,1.26667 h 3.59991 v 4.93332 h 1.53329 v -4.93332 h 3.53324 v 4.93332 h 1.53329 v -4.93332 h 3.53325 v 4.93332 h 1.39996 v -4.93332 H 385.99 v 4.93332 h 1.46663 v -4.93332 h 3.59991 v 4.93332 h 0.99997 v -4.93332 h 3.59991 v 4.93332 h 1.46663 v -4.93332 h 3.5999 v 4.93332 h 1.5333 v -4.93332 h 3.53324 v 4.93332 h 1.39996 v -4.93332 h 3.59991 v 4.93332 h 1.39996 v -4.93332 h 3.53325 v 4.93332 h 1.33329 v -4.93332 h 3.59991 v 4.93332 h 1.53329 v -4.93332 h 3.59991 v 4.93332 h 1.46663 v -4.93332 h 3.59991 v 4.93332 h 1.3333 v -4.93332 h 3.5999 v 4.93332 h 1.46663 v -4.93332 h 3.53324 v 4.93332 h 1.06664 v -4.93332 h 3.59991 v 4.93332 h 1.46663 v -4.93332 h 3.53324 v 4.93332 h 1.53329 v -4.93332 h 3.59991 v 4.93332 h 1.39996 v -4.93332 h 3.53324 v 4.93332 h 1.39997 v -4.93332 h 3.59991 v 4.93332 h -98.19746 v -4.93332 l 1.66662,-1.26667 v -19.66664 z" clip-path="url(#clipWmfPath1)" style="fill:#ffffff;fill-opacity:1;fill-rule:nonzero;stroke:none" transform="rotate(180,243.16037,207.69973)"/>
  <path id="path254" d="m 367.59048,330.13292 v -4.93333 h 3.59991 v 4.93333 h 1.53329 v -4.93333 h 3.59991 v 4.93333 h 1.46662 v -4.93333 h 3.59991 v 4.93333 h 1.3333 v -4.93333 h 3.59991 v 4.93333 h 1.46663 v -4.93333 h 3.53324 v 4.93333 h 1.06664 v -4.93333 h 3.5999 v 4.93333 h 1.46663 v -4.93333 h 3.53324 v 4.93333 h 1.5333 v -4.93333 h 3.5999 v 4.93333 h 1.39997 v -4.93333 h 3.53324 v 4.93333 h 1.39996 v -4.93333 h 3.59991 v 4.93333 h 1.3333 v -4.93333 h 3.59991 v 4.93333 h 1.53329 v -4.93333 h 3.53324 v 4.93333 h 1.53329 v -4.93333 4.93333 -4.93333 h 3.53325 v 4.93333 h 1.39996 v -4.93333 h 3.53324 v 4.93333 h 1.46663 v -4.93333 h 3.59991 v 4.93333 h 0.99997 v -4.93333 h 3.59991 v 4.93333 h 1.46663 v -4.93333 h 3.5999 v 4.93333 h 1.5333 v -4.93333 h 3.53324 v 4.93333 h 1.39996 v -4.93333 h 3.59991 v 4.93333 h 1.39996 v -4.93333 h 3.53325 v 4.93333 h -98.19746 l 1.39996,1.13333 v 19.66664 l -1.66662,1.26667 h 3.59991 v 4.93332 h 1.53329 v -4.93332 h 3.53324 v 4.93332 h 1.53329 v -4.93332 h 3.53325 v 4.93332 h 1.39996 v -4.93332 H 385.99 v 4.93332 h 1.46663 v -4.93332 h 3.59991 v 4.93332 h 0.99997 v -4.93332 h 3.59991 v 4.93332 h 1.46663 v -4.93332 h 3.5999 v 4.93332 h 1.5333 v -4.93332 h 3.53324 v 4.93332 h 1.39996 v -4.93332 h 3.59991 v 4.93332 h 1.39996 v -4.93332 h 3.53325 v 4.93332 h 1.33329 v -4.93332 h 3.59991 v 4.93332 h 1.53329 v -4.93332 h 3.59991 v 4.93332 h 1.46663 v -4.93332 h 3.59991 v 4.93332 h 1.3333 v -4.93332 h 3.5999 v 4.93332 h 1.46663 v -4.93332 h 3.53324 v 4.93332 h 1.06664 v -4.93332 h 3.59991 v 4.93332 h 1.46663 v -4.93332 h 3.53324 v 4.93332 h 1.53329 v -4.93332 h 3.59991 v 4.93332 h 1.39996 v -4.93332 h 3.53324 v 4.93332 h 1.39997 v -4.93332 h 3.59991 v 4.93332 h -98.19746 v -4.93332 l 1.66662,-1.26667 v -19.66664 z" clip-path="url(#clipWmfPath1)" style="fill:none;stroke:#000000;stroke-width:0.0666649px;stroke-linecap:round;stroke-linejoin:round;stroke-miterlimit:4;stroke-dasharray:none;stroke-opacity:1" transform="rotate(180,243.16037,207.69973)"/>
  <path id="path256" d="m 425.85564,334.39958 0.99997,0.13333 0.79998,0.46667 0.59998,0.66666 0.2,0.73334 v 9.46665 l -0.2,0.73333 -0.59998,0.6 -0.79998,0.33334 -0.99997,0.13333 h -19.26617 l -0.99998,-0.13333 -0.79997,-0.4 -0.59999,-0.66667 -0.19999,-0.73333 v -9.39999 l 0.19999,-0.73333 0.59999,-0.6 0.79997,-0.46667 0.99998,-0.13333 z" clip-path="url(#clipWmfPath1)" style="fill:#ffffff;fill-opacity:1;fill-rule:nonzero;stroke:none" transform="rotate(180,243.16037,207.69973)"/>
  <path id="path258" d="m 406.58947,333.86625 v 1.06666 h 19.1995 l 0.86665,0.0667 0.66664,0.4 0.46666,0.53333 0.13333,0.53333 v 9.33332 l -0.13333,0.53334 -0.39999,0.46666 -0.66665,0.26667 -0.93331,0.0667 h -19.13284 l -0.93331,-0.0667 -0.59998,-0.33333 -0.46665,-0.53334 -0.13333,-0.53333 v -9.26665 l 0.13333,-0.53334 0.46665,-0.46666 0.66665,-0.4 0.86664,-0.0667 h 19.13284 l 0.99998,0.13333 0.13333,-1.06666 -0.99998,-0.13333 h -19.3995 l -1.1333,0.2 -0.93331,0.53333 -0.73331,0.73333 -0.26666,0.93333 v 9.53332 l 0.26666,0.93334 0.73331,0.8 0.99997,0.46666 1.06664,0.2 h 19.3995 l 1.06664,-0.2 0.93331,-0.4 0.79998,-0.73333 0.26666,-0.93333 v -9.59999 l -0.26666,-0.93333 -0.73332,-0.8 -0.9333,-0.53333 -1.13331,-0.2 z" clip-path="url(#clipWmfPath1)" style="fill:#000000;fill-opacity:1;fill-rule:nonzero;stroke:#000000;stroke-width:0.0666649px;stroke-linecap:round;stroke-linejoin:round;stroke-miterlimit:4;stroke-dasharray:none;stroke-opacity:1" transform="rotate(180,243.16037,207.69973)"/>
  <g id="g260" clip-path="url(#clipWmfPath1)" transform="rotate(180,243.16037,207.69973)"/>
  <g id="g272" clip-path="url(#clipWmfPath1)" transform="translate(57.214599999999926, 67.86656000000005)">
    <text id="text270" y="0" x="0" transform="translate(0,9)" style="font-style:normal;font-variant:normal;font-weight:400;font-size:10.6875px;line-height:125%;font-family:Helvetica-Narrow;text-align:start;letter-spacing:0px;word-spacing:0px;text-anchor:start;fill:#000000;fill-opacity:1;stroke:none" xml:space="preserve"><tspan id="tspan268" y="0" x="0"><tspan id="tspan262" style="font-style:normal;font-variant:normal;font-weight:400;font-size:10.6875px;font-family:Helvetica-Narrow;fill:#000000" dy="0" dx="0">N</tspan><tspan id="tspan264" style="font-style:normal;font-variant:normal;font-weight:400;font-size:10.6875px;font-family:Helvetica-Narrow;fill:#000000" dy="0" dx="0.016318999">P</tspan><tspan id="tspan266" style="font-style:normal;font-variant:normal;font-weight:400;font-size:10.6875px;font-family:Helvetica-Narrow;fill:#000000" dy="0" dx="0.030602001">U</tspan></tspan></text>
  </g>
  <g id="g274" clip-path="url(#clipWmfPath1)" transform="rotate(180,243.16037,207.69973)"/>
  <g id="g290" clip-path="url(#clipWmfPath1)" transform="translate(103.0132, 374.466176)">
    <text id="text288" y="0" x="0" transform="translate(0,9)" style="font-style:normal;font-variant:normal;font-weight:400;font-size:9.3125px;line-height:125%;font-family:Helvetica-Narrow;text-align:start;letter-spacing:0px;word-spacing:0px;text-anchor:start;fill:#000000;fill-opacity:1;stroke:none" xml:space="preserve"><tspan id="tspan286" y="0" x="0"><tspan id="tspan276" style="font-style:normal;font-variant:normal;font-weight:400;font-size:9.3125px;font-family:Helvetica-Narrow;fill:#000000" dy="0" dx="0">M</tspan><tspan id="tspan278" style="font-style:normal;font-variant:normal;font-weight:400;font-size:9.3125px;font-family:Helvetica-Narrow;fill:#000000" dy="0" dx="0.202622">3</tspan><tspan id="tspan280" style="font-style:normal;font-variant:normal;font-weight:400;font-size:9.3125px;font-family:Helvetica-Narrow;fill:#000000" dy="0" dx="0.183282">5</tspan><tspan id="tspan282" style="font-style:normal;font-variant:normal;font-weight:400;font-size:9.3125px;font-family:Helvetica-Narrow;fill:#000000" dy="0" dx="0.183282">8</tspan><tspan id="tspan284" style="font-style:normal;font-variant:normal;font-weight:400;font-size:9.3125px;font-family:Helvetica-Narrow;fill:#000000" dy="0" dx="0.183282">3</tspan></tspan></text>
  </g>
  <path id="path292" d="M 21.99943,198.39975 V 12.333318 h 126.0634 V 198.39975 Z" clip-path="url(#clipWmfPath1)" style="fill:#bfbfbf;fill-opacity:1;fill-rule:evenodd;stroke:none" transform="rotate(180,243.16037,207.69973)"/>
  <path id="path294" d="M 21.99943,198.39975 V 12.333318 h 126.0634 V 198.39975 Z" clip-path="url(#clipWmfPath1)" style="fill:none;stroke:#000000;stroke-width:0.0666649px;stroke-linecap:round;stroke-linejoin:round;stroke-miterlimit:4;stroke-dasharray:none;stroke-opacity:1" transform="rotate(180,243.16037,207.69973)"/>
  <path id="path296" d="m 98.130792,98.666542 1.066639,0.133333 0.866639,0.466667 0.59999,0.666665 0.19999,0.733333 v 9.46665 l -0.19999,0.73334 -0.59999,0.6 -0.866639,0.33333 -1.066639,0.13333 H 71.79814 l -1.066639,-0.13333 -0.866644,-0.46667 -0.599984,-0.66666 -0.199995,-0.73334 v -9.39998 l 0.199995,-0.733336 0.599984,-0.599999 0.866644,-0.4 1.066639,-0.133333 z" clip-path="url(#clipWmfPath1)" style="fill:#ffffff;fill-opacity:1;fill-rule:nonzero;stroke:none" transform="rotate(180,243.16037,207.69973)"/>
  <path id="path298" d="m 71.79814,98.13321 v 1.066665 h 26.332652 l 0.933309,0.06667 0.666649,0.399999 0.46665,0.533326 0.13333,0.53334 v 9.33332 l -0.13333,0.53333 -0.399985,0.4 -0.733314,0.33333 -0.933309,0.0667 H 71.79814 l -0.933309,-0.0667 -0.666649,-0.4 -0.466655,-0.53333 -0.13333,-0.53333 v -9.26666 l 0.13333,-0.53333 0.39999,-0.466663 0.733314,-0.333332 0.933309,-0.06667 h 26.332652 l 0.999974,0.133333 0.13333,-1.066665 -1.133304,-0.133333 H 71.79814 l -1.199969,0.199999 -0.999974,0.466666 -0.799979,0.733333 -0.26666,0.933332 v 9.53332 l 0.26666,0.93333 0.733314,0.8 1.066639,0.53334 1.199969,0.19999 h 26.332652 l 1.199968,-0.19999 0.99997,-0.33334 0.79998,-0.8 0.26666,-0.93333 v -9.59999 l -0.26666,-0.933329 -0.73331,-0.799999 -1.06664,-0.533333 -1.199968,-0.199999 z" clip-path="url(#clipWmfPath1)" style="fill:#000000;fill-opacity:1;fill-rule:nonzero;stroke:#000000;stroke-width:0.0666649px;stroke-linecap:round;stroke-linejoin:round;stroke-miterlimit:4;stroke-dasharray:none;stroke-opacity:1" transform="rotate(180,243.16037,207.69973)"/>
  <g id="g300" clip-path="url(#clipWmfPath1)" transform="rotate(180,243.16037,207.69973)"/>
  <g id="g314" clip-path="url(#clipWmfPath1)" transform="translate(382.532563, 303.93293)">
    <text id="text312" y="0" x="0" transform="translate(0,9)" style="font-style:normal;font-variant:normal;font-weight:400;font-size:10.6875px;line-height:125%;font-family:Helvetica-Narrow;text-align:start;letter-spacing:0px;word-spacing:0px;text-anchor:start;fill:#000000;fill-opacity:1;stroke:none" xml:space="preserve"><tspan id="tspan310" y="0" x="0"><tspan id="tspan302" style="font-style:normal;font-variant:normal;font-weight:400;font-size:10.6875px;font-family:Helvetica-Narrow;fill:#000000" dy="0" dx="0">D</tspan><tspan id="tspan304" style="font-style:normal;font-variant:normal;font-weight:400;font-size:10.6875px;font-family:Helvetica-Narrow;fill:#000000" dy="0" dx="-0.050345998">R</tspan><tspan id="tspan306" style="font-style:normal;font-variant:normal;font-weight:400;font-size:10.6875px;font-family:Helvetica-Narrow;fill:#000000" dy="0" dx="0.016318999">A</tspan><tspan id="tspan308" style="font-style:normal;font-variant:normal;font-weight:400;font-size:10.6875px;font-family:Helvetica-Narrow;fill:#000000" dy="0" dx="-0.102728">M</tspan></tspan></text>
  </g>
  <path id="path316" d="m 29.665898,244.06636 v 2.8 l -0.13333,0.73333 -0.399989,0.53333 -0.66665,0.26667 -0.733314,0.13333 H 4.5998809 l -0.7333144,-0.13333 -0.5999844,-0.4 -0.4666546,-0.66667 -0.1333299,-0.73333 v -9.46666 l 0.1333299,-0.73333 0.4666546,-0.53333 0.5999844,-0.4 0.7333144,-0.13333 H 27.732615 l 0.733314,0.2 0.66665,0.46666 0.399989,0.66667 0.13333,0.8 v 2.53333 l 12.066354,1.99999 z" clip-path="url(#clipWmfPath1)" style="fill:#ffffff;fill-opacity:1;fill-rule:nonzero;stroke:none" transform="rotate(180,243.16037,207.69973)"/>
  <path id="path318" d="m 41.798917,242.46636 0.466655,-0.53333 -0.599985,-0.4 -12.533008,2.13333 v 3.13333 l -0.06667,0.6 -0.26666,0.33333 -0.466655,0.2 -0.666649,0.0667 H 4.6665458 l -0.5999845,-0.0667 -0.4666545,-0.33333 -0.3333247,-0.46667 -0.066665,-0.6 v -9.33332 l 0.066665,-0.6 0.3333247,-0.33333 0.4666545,-0.33333 0.5999845,-0.0667 H 27.66595 l 0.599985,0.13333 0.466654,0.33334 0.333325,0.53333 0.06667,0.66666 v 2.86667 l 9.533086,1.59999 -9.533086,1.66667 v 3.2 l 0.533319,0.53333 0.53332,-0.53333 v -2.4 l 11.599699,-2 V 241.533 l -11.599704,-1.9333 v -2.2 l -0.199995,-0.93333 -0.466655,-0.8 -0.866644,-0.6 -0.866644,-0.26667 H 4.5332159 l -0.8666442,0.2 -0.7333143,0.46667 -0.5999845,0.73333 -0.1999948,0.86667 v 9.59999 l 0.1999948,0.86666 0.5999845,0.86667 0.7333143,0.46666 0.8666442,0.2 H 27.79928 l 0.799979,-0.2 0.866644,-0.33333 0.53332,-0.73333 0.199995,-0.86667 v -2.46666 z" clip-path="url(#clipWmfPath1)" style="fill:#000000;fill-opacity:1;fill-rule:nonzero;stroke:#000000;stroke-width:0.0666649px;stroke-linecap:round;stroke-linejoin:round;stroke-miterlimit:4;stroke-dasharray:none;stroke-opacity:1" transform="rotate(180,243.16037,207.69973)"/>
  <path id="path320" d="m 214.26112,293.99963 v 2.8 l -0.13333,0.73333 -0.39999,0.53333 -0.66665,0.26667 -0.73332,0.13333 H 189.1951 l -0.73331,-0.13333 -0.59999,-0.4 -0.46665,-0.66667 -0.13333,-0.73333 v -9.46666 l 0.13333,-0.73333 0.46665,-0.53333 0.59999,-0.4 0.73331,-0.13333 h 23.13273 l 0.73332,0.2 0.66665,0.46666 0.39999,0.66667 0.13333,0.8 v 2.53333 l 12.06635,2 z" clip-path="url(#clipWmfPath1)" style="fill:#ffffff;fill-opacity:1;fill-rule:nonzero;stroke:none" transform="rotate(180,243.16037,207.69973)"/>
  <path id="path322" d="m 226.39414,292.39963 0.46665,-0.53333 -0.59998,-0.4 -12.53301,2.13333 v 3.13333 l -0.0667,0.6 -0.26666,0.33333 -0.46665,0.2 -0.66665,0.0667 h -22.99941 l -0.59998,-0.0667 -0.46665,-0.33333 -0.33333,-0.46667 -0.0667,-0.6 v -9.33332 l 0.0667,-0.6 0.33333,-0.33333 0.46665,-0.33333 0.59998,-0.0667 h 22.99941 l 0.59998,0.13333 0.46666,0.33334 0.33332,0.53333 0.0667,0.66666 v 2.86667 l 9.53308,1.6 -9.53308,1.66666 v 3.2 l 0.53332,0.53333 0.53332,-0.53333 v -2.4 l 11.5997,-2 v -0.93333 l -11.5997,-1.93333 v -2.2 l -0.2,-0.93333 -0.46665,-0.8 -0.86665,-0.6 -0.86664,-0.26667 h -23.26607 l -0.86664,0.2 -0.73331,0.46667 -0.59999,0.73333 -0.19999,0.86667 v 9.59999 l 0.19999,0.86666 0.59999,0.86667 0.73331,0.46666 0.86664,0.2 h 23.26607 l 0.79998,-0.2 0.86664,-0.33333 0.53332,-0.73333 0.2,-0.86667 v -2.46666 z" clip-path="url(#clipWmfPath1)" style="fill:#000000;fill-opacity:1;fill-rule:nonzero;stroke:#000000;stroke-width:0.0666649px;stroke-linecap:round;stroke-linejoin:round;stroke-miterlimit:4;stroke-dasharray:none;stroke-opacity:1" transform="rotate(180,243.16037,207.69973)"/>
  <path id="path324" d="m 214.59444,64.666585 v -2.799996 l 0.13333,-0.733333 0.46666,-0.466666 0.59998,-0.333333 0.73331,-0.133333 h 23.13274 l 0.73331,0.133333 0.66665,0.466666 0.39999,0.6 0.13333,0.733332 v 9.466655 l -0.13333,0.733332 -0.39999,0.599999 -0.66665,0.333333 -0.73331,0.133333 h -23.13274 l -0.73331,-0.199999 -0.59998,-0.466666 -0.46666,-0.666666 -0.13333,-0.799999 v -2.53333 l -12.06635,-1.999998 z" clip-path="url(#clipWmfPath1)" style="fill:#ffffff;fill-opacity:1;fill-rule:nonzero;stroke:none" transform="rotate(180,243.16037,207.69973)"/>
  <path id="path326" d="m 202.46142,66.266583 -0.46665,0.533333 0.59998,0.399999 12.53301,-2.13333 v -3.13333 l 0.0667,-0.533332 0.33332,-0.333333 0.46666,-0.266667 0.59998,-0.06667 h 22.9994 l 0.59999,0.06667 0.46665,0.333333 0.33333,0.466666 0.0667,0.6 v 9.333321 l -0.0667,0.599999 -0.26666,0.4 -0.46666,0.266666 -0.66665,0.06667 h -22.9994 l -0.59998,-0.133333 -0.39999,-0.333333 -0.39999,-0.533333 -0.0667,-0.666666 V 68.33325 l -9.53309,-1.599998 9.53309,-1.666664 v -3.199996 l -0.53332,-0.533333 -0.53332,0.533333 v 2.399997 l -11.5997,1.999997 v 0.933332 l 11.5997,1.933331 v 2.199997 l 0.2,0.933333 0.53332,0.799999 0.79998,0.599999 0.86664,0.266666 h 23.26606 l 0.79998,-0.2 0.86665,-0.399999 0.53332,-0.799999 0.19999,-0.866666 v -9.599988 l -0.19999,-0.866665 -0.46666,-0.733333 -0.86664,-0.599999 -0.86665,-0.2 h -23.26606 l -0.86664,0.2 -0.73332,0.4 -0.59998,0.599999 -0.2,0.933332 v 2.466664 z" clip-path="url(#clipWmfPath1)" style="fill:#000000;fill-opacity:1;fill-rule:nonzero;stroke:#000000;stroke-width:0.0666649px;stroke-linecap:round;stroke-linejoin:round;stroke-miterlimit:4;stroke-dasharray:none;stroke-opacity:1" transform="rotate(180,243.16037,207.69973)"/>
  <g id="g328" clip-path="url(#clipWmfPath1)" transform="rotate(180,243.16037,207.69973)"/>
  <g id="g340" clip-path="url(#clipWmfPath1)" transform="translate(273.72902, 117.93316999999996)">
    <text id="text338" y="0" x="0" transform="translate(0,9)" style="font-style:normal;font-variant:normal;font-weight:400;font-size:10.6875px;line-height:125%;font-family:Helvetica-Narrow;text-align:start;letter-spacing:0px;word-spacing:0px;text-anchor:start;fill:#000000;fill-opacity:1;stroke:none" xml:space="preserve"><tspan id="tspan336" y="0" x="0"><tspan id="tspan330" style="font-style:normal;font-variant:normal;font-weight:400;font-size:10.6875px;font-family:Helvetica-Narrow;fill:#000000" dy="0" dx="0">S</tspan><tspan id="tspan332" style="font-style:normal;font-variant:normal;font-weight:400;font-size:10.6875px;font-family:Helvetica-Narrow;fill:#000000" dy="0" dx="-0.102728">W</tspan><tspan id="tspan334" style="font-style:normal;font-variant:normal;font-weight:400;font-size:10.6875px;font-family:Helvetica-Narrow;fill:#000000" dy="0" dx="0.0044769999">1</tspan></tspan></text>
  </g>
  <g id="g342" clip-path="url(#clipWmfPath1)" transform="rotate(180,243.16037,207.69973)"/>
  <g id="g354" clip-path="url(#clipWmfPath1)" transform="translate(464.59755999999993, 167.39977)">
    <text id="text352" y="0" x="0" transform="translate(0,9)" style="font-style:normal;font-variant:normal;font-weight:400;font-size:10.6875px;line-height:125%;font-family:Helvetica-Narrow;text-align:start;letter-spacing:0px;word-spacing:0px;text-anchor:start;fill:#000000;fill-opacity:1;stroke:none" xml:space="preserve"><tspan id="tspan350" y="0" x="0"><tspan id="tspan344" style="font-style:normal;font-variant:normal;font-weight:400;font-size:10.6875px;font-family:Helvetica-Narrow;fill:#000000" dy="0" dx="0">J</tspan><tspan id="tspan346" style="font-style:normal;font-variant:normal;font-weight:400;font-size:10.6875px;font-family:Helvetica-Narrow;fill:#000000" dy="0" dx="0.028161">P</tspan><tspan id="tspan348" style="font-style:normal;font-variant:normal;font-weight:400;font-size:10.6875px;font-family:Helvetica-Narrow;fill:#000000" dy="0" dx="-0.102728">4</tspan></tspan></text>
  </g>
  <path id="path356" d="m 42.065577,246.19969 v -9.86665 h 9.933076 v 9.86665 z" clip-path="url(#clipWmfPath1)" style="fill:#ffffff;fill-opacity:1;fill-rule:nonzero;stroke:none" transform="rotate(180,243.16037,207.69973)"/>
  <path id="path358" d="m 42.065577,246.19969 v -9.86665 h 9.933076 v 9.86665 z" clip-path="url(#clipWmfPath1)" style="fill:none;stroke:#000000;stroke-width:0.0666649px;stroke-linecap:round;stroke-linejoin:round;stroke-miterlimit:4;stroke-dasharray:none;stroke-opacity:1" transform="rotate(180,243.16037,207.69973)"/>
  <path id="path360" d="m 43.265546,240.33303 v -2.73333 h 2.733263 v 2.73333 z" clip-path="url(#clipWmfPath1)" style="fill:#000000;fill-opacity:1;fill-rule:nonzero;stroke:none" transform="rotate(180,243.16037,207.69973)"/>
  <path id="path362" d="m 43.265546,240.33303 v -2.73333 h 2.733263 v 2.73333 z" clip-path="url(#clipWmfPath1)" style="fill:none;stroke:#000000;stroke-width:0.0666649px;stroke-linecap:round;stroke-linejoin:round;stroke-miterlimit:4;stroke-dasharray:none;stroke-opacity:1" transform="rotate(180,243.16037,207.69973)"/>
  <path id="path364" d="m 47.998757,240.33303 v -2.73333 h 2.733262 v 2.73333 z" clip-path="url(#clipWmfPath1)" style="fill:#ffffff;fill-opacity:1;fill-rule:nonzero;stroke:none" transform="rotate(180,243.16037,207.69973)"/>
  <path id="path366" d="m 47.998757,240.33303 v -2.73333 h 2.733262 v 2.73333 z" clip-path="url(#clipWmfPath1)" style="fill:none;stroke:#000000;stroke-width:0.0666649px;stroke-linecap:round;stroke-linejoin:round;stroke-miterlimit:4;stroke-dasharray:none;stroke-opacity:1" transform="rotate(180,243.16037,207.69973)"/>
  <path id="path368" d="m 43.265546,244.99969 v -2.73333 h 2.733263 v 2.73333 z" clip-path="url(#clipWmfPath1)" style="fill:#000000;fill-opacity:1;fill-rule:nonzero;stroke:none" transform="rotate(180,243.16037,207.69973)"/>
  <path id="path370" d="m 43.265546,244.99969 v -2.73333 h 2.733263 v 2.73333 z" clip-path="url(#clipWmfPath1)" style="fill:none;stroke:#000000;stroke-width:0.0666649px;stroke-linecap:round;stroke-linejoin:round;stroke-miterlimit:4;stroke-dasharray:none;stroke-opacity:1" transform="rotate(180,243.16037,207.69973)"/>
  <path id="path372" d="m 47.998757,244.99969 v -2.73333 h 2.733262 v 2.73333 z" clip-path="url(#clipWmfPath1)" style="fill:#000000;fill-opacity:1;fill-rule:nonzero;stroke:none" transform="rotate(180,243.16037,207.69973)"/>
  <path id="path374" d="m 47.998757,244.99969 v -2.73333 h 2.733262 v 2.73333 z" clip-path="url(#clipWmfPath1)" style="fill:none;stroke:#000000;stroke-width:0.0666649px;stroke-linecap:round;stroke-linejoin:round;stroke-miterlimit:4;stroke-dasharray:none;stroke-opacity:1" transform="rotate(180,243.16037,207.69973)"/>
  <g id="g376" clip-path="url(#clipWmfPath1)" transform="rotate(180,243.16037,207.69973)"/>
  <g id="g384" clip-path="url(#clipWmfPath1)" transform="translate(444.96167199999996, 176.99975999999998)">
    <text id="text382" y="0" x="0" transform="translate(0,9)" style="font-style:normal;font-variant:normal;font-weight:400;font-size:10.6875px;line-height:125%;font-family:Helvetica-Narrow;text-align:start;letter-spacing:0px;word-spacing:0px;text-anchor:start;fill:#000000;fill-opacity:1;stroke:none" xml:space="preserve"><tspan id="tspan380" y="0" x="0"><tspan id="tspan378" style="font-style:normal;font-variant:normal;font-weight:400;font-size:10.6875px;font-family:Helvetica-Narrow;fill:#000000" dy="0" dx="0">2</tspan></tspan></text>
  </g>
  <g id="g386" clip-path="url(#clipWmfPath1)" transform="rotate(180,243.16037,207.69973)"/>
  <g id="g398" clip-path="url(#clipWmfPath1)" transform="translate(252.1364, 342.932882)">
    <text id="text396" y="0" x="0" transform="translate(0,9)" style="font-style:normal;font-variant:normal;font-weight:400;font-size:10.6875px;line-height:125%;font-family:Helvetica-Narrow;text-align:start;letter-spacing:0px;word-spacing:0px;text-anchor:start;fill:#000000;fill-opacity:1;stroke:none" xml:space="preserve"><tspan id="tspan394" y="0" x="0"><tspan id="tspan388" style="font-style:normal;font-variant:normal;font-weight:400;font-size:10.6875px;font-family:Helvetica-Narrow;fill:#000000" dy="0" dx="0">J</tspan><tspan id="tspan390" style="font-style:normal;font-variant:normal;font-weight:400;font-size:10.6875px;font-family:Helvetica-Narrow;fill:#000000" dy="0" dx="0.028161">P</tspan><tspan id="tspan392" style="font-style:normal;font-variant:normal;font-weight:400;font-size:10.6875px;font-family:Helvetica-Narrow;fill:#000000" dy="0" dx="-0.102728">3</tspan></tspan></text>
  </g>
  <g id="g400" clip-path="url(#clipWmfPath1)" transform="rotate(180,243.16037,207.69973)"/>
  <g id="g408" clip-path="url(#clipWmfPath1)" transform="translate(294.83223, 354.999534)">
    <text id="text406" y="0" x="0" transform="translate(0,9)" style="font-style:normal;font-variant:normal;font-weight:400;font-size:10.6875px;line-height:125%;font-family:Helvetica-Narrow;text-align:start;letter-spacing:0px;word-spacing:0px;text-anchor:start;fill:#000000;fill-opacity:1;stroke:none" xml:space="preserve"><tspan id="tspan404" y="0" x="0"><tspan id="tspan402" style="font-style:normal;font-variant:normal;font-weight:400;font-size:10.6875px;font-family:Helvetica-Narrow;fill:#000000" dy="0" dx="0">2</tspan></tspan></text>
  </g>
</svg>