<svg xmlns:dc="http://purl.org/dc/elements/1.1/" xmlns:cc="http://creativecommons.org/ns#" xmlns:rdf="http://www.w3.org/1999/02/22-rdf-syntax-ns#" xmlns:svg="http://www.w3.org/2000/svg" xmlns="http://www.w3.org/2000/svg" id="svg410" height="110.2mm" width="128.7mm" version="1.0">
  <metadata id="metadata414">
    <rdf:RDF>
      <cc:Work rdf:about="">
        <dc:format>image/svg+xml</dc:format>
        <dc:type rdf:resource="http://purl.org/dc/dcmitype/StillImage"/>
      </cc:Work>
    </rdf:RDF>
  </metadata>
  <defs id="defs6">
    <clipPath id="clipWmfPath1" clipPathUnits="userSpaceOnUse">
      <path id="path2" d="M 0,0 L 486.32074,0 L 486.32074,416.39948 L 0,416.39948 z"/>
    </clipPath>
    <pattern y="0" x="0" height="6" width="6" patternUnits="userSpaceOnUse" id="WMFhbasepattern"/>
  </defs>
  <path id="path8" d="  M 3.9998964,414.06614   L 3.9998964,1.3333317   L 483.98746,1.3333317   L 483.98746,414.06614   L 3.9998964,414.06614  z " clip-path="url(#clipWmfPath1)" style="fill:#e5e5e5;fill-rule:nonzero;fill-opacity:1;stroke:none;"/>
  <path id="path10" d="  M 483.98746,414.26614   L 483.98746,413.86615   L 4.1998912,413.86615   L 4.1998912,1.5333314   L 483.78747,1.5333314   L 483.78747,413.86615   L 4.1998912,413.86615   L 4.1998912,1.3333317   L 3.7999016,1.3333317   L 3.7999016,414.26614   L 484.18746,414.26614   L 484.18746,1.1333319   L 3.7999016,1.1333319   L 3.7999016,414.26614   L 483.98746,414.26614  z " clip-path="url(#clipWmfPath1)" style="fill:#000000;fill-rule:nonzero;fill-opacity:1;stroke:#000000;stroke-width:0.066664942px;stroke-linecap:round;stroke-linejoin:round;stroke-miterlimit:4;stroke-dasharray:none;stroke-opacity:1;"/>
  <path id="path38" d="  M 395.52309,118.13318   L 396.52306,118.26652   L 397.65637,118.59985   L 398.52301,119.39985   L 399.18966,120.26652   L 399.58965,121.26651   L 399.85631,122.19985   L 399.65631,123.39984   L 399.25633,124.39984   L 398.58968,125.33318   L 397.65637,125.99984   L 396.58973,126.39984   L 395.52309,126.53317   L 394.58978,126.39984   L 393.52314,125.99984   L 392.6565,125.33318   L 391.85652,124.39984   L 391.45653,123.39984   L 391.38986,122.19985   L 391.52319,121.19985   L 391.98985,120.26652   L 392.6565,119.39985   L 393.52314,118.59985   L 394.58978,118.26652   L 395.52309,118.13318  z    M 395.52309,118.39985   L 394.65644,118.59985   L 393.65647,119.13318   L 392.92316,119.66652   L 392.32317,120.46651   L 391.92318,121.39985   L 391.85652,122.19985   L 391.92318,123.26651   L 392.32317,124.39984   L 392.85649,124.99984   L 393.65647,125.66651   L 394.58978,126.06651   L 395.52309,126.19984   L 396.52306,126.06651   L 397.45637,125.66651   L 398.98967,124.39984   L 399.38965,122.19985   L 398.98967,120.46651   L 398.18969,119.59985   L 397.45637,119.13318   L 396.52306,118.59985   L 395.52309,118.39985  z    M 393.45648,119.66652   L 395.52309,119.66652   L 396.2564,119.79985   L 396.98972,120.06652   L 397.32304,120.53318   L 397.45637,121.13318   L 397.12305,121.99985   L 395.98974,122.33318   L 397.25638,124.06651   L 397.65637,124.59984   L 397.98969,124.59984   L 397.98969,124.93318   L 396.98972,124.93318   L 395.1231,122.33318   L 394.98977,122.33318   L 394.98977,124.39984   L 395.1231,124.59984   L 395.72308,124.59984   L 395.72308,124.93318   L 393.12315,124.93318   L 393.12315,124.59984   L 393.52314,124.59984   L 393.65647,124.39984   L 393.7898,123.93318   L 393.7898,120.66651   L 393.65647,120.26652   L 393.65647,119.79985   L 393.45648,119.79985   L 393.45648,119.66652  z    M 394.98977,122.06651   L 395.72308,122.06651   L 395.98974,121.86651   L 396.05641,121.66651   L 396.38973,121.13318   L 396.18974,120.59985   L 395.98974,120.26652   L 395.78975,119.86652   L 395.25643,119.79985   L 394.98977,119.79985   L 394.98977,122.06651  z   " clip-path="url(#clipWmfPath1)" style="fill:#bfbfbf;fill-rule:evenodd;fill-opacity:1;stroke:none;"/>
  <path id="path40" d="  M 216.99438,248.79969   L 216.99438,229.39971   L 188.46179,229.39971   L 188.46179,248.79969   L 185.52853,248.79969   L 185.52853,229.39971   L 156.99593,229.39971   L 156.99593,248.79969   L 216.99438,248.79969  z " clip-path="url(#clipWmfPath1)" style="fill:#ffffff;fill-rule:nonzero;fill-opacity:1;stroke:none;"/>
  <path id="path42" d="  M 216.99438,248.79969   L 216.99438,229.39971   L 188.46179,229.39971   L 188.46179,248.79969   L 185.52853,248.79969   L 185.52853,229.39971   L 156.99593,229.39971   L 156.99593,248.79969   L 216.99438,248.79969  z " clip-path="url(#clipWmfPath1)" style="fill:none;stroke:#000000;stroke-width:0.066664942px;stroke-linecap:round;stroke-linejoin:round;stroke-miterlimit:4;stroke-dasharray:none;stroke-opacity:1;"/>
  <path id="path44" d="  M 221.92758,255.59968   L 221.92758,222.33305   L 151.99606,222.33305   L 151.99606,255.59968   L 221.92758,255.59968  z " clip-path="url(#clipWmfPath1)" style="fill:#000000;fill-rule:nonzero;fill-opacity:1;stroke:none;"/>
  <path id="path46" d="  M 221.92758,255.59968   L 221.92758,222.33305   L 151.99606,222.33305   L 151.99606,255.59968   L 221.92758,255.59968  z " clip-path="url(#clipWmfPath1)" style="fill:none;stroke:#000000;stroke-width:0.066664942px;stroke-linecap:round;stroke-linejoin:round;stroke-miterlimit:4;stroke-dasharray:none;stroke-opacity:1;"/>
  <path id="path48" d="  M 220.99428,249.99968   L 220.99428,254.86635   L 217.39437,254.86635   L 217.39437,249.99968   L 215.99441,249.99968   L 215.99441,254.86635   L 212.46116,254.86635   L 212.46116,249.99968   L 211.0612,249.99968   L 211.0612,254.86635   L 207.46129,254.86635   L 207.46129,249.99968   L 205.928,249.99968   L 205.928,254.86635   L 202.46142,254.86635   L 202.46142,249.99968   L 200.99479,249.99968   L 200.99479,254.86635   L 197.39489,254.86635   L 197.39489,249.99968   L 196.32825,249.99968   L 196.32825,254.86635   L 192.79501,254.86635   L 192.79501,249.99968   L 191.32838,249.99968   L 191.32838,254.86635   L 187.72847,254.86635   L 187.72847,249.99968   L 186.39517,249.99968   L 186.39517,254.86635   L 182.79527,254.86635   L 182.79527,249.99968   L 181.32864,249.99968   L 181.32864,254.86635   L 177.72873,254.86635   L 177.72873,249.99968   L 176.19544,249.99968   L 176.19544,254.86635   L 172.59553,254.86635   L 172.59553,249.99968   L 171.26223,249.99968   L 171.26223,254.86635   L 167.79565,254.86635   L 167.79565,249.99968   L 166.39569,249.99968   L 166.39569,254.86635   L 162.79578,254.86635   L 162.79578,249.99968   L 161.39582,249.99968   L 161.39582,254.86635   L 157.86258,254.86635   L 157.86258,249.99968   L 156.32928,249.99968   L 156.32928,254.86635   L 152.72938,254.86635   L 152.72938,249.99968   L 220.99428,249.99968   L 214.52778,248.79969   L 214.52778,229.39971   L 221.26094,227.99971   L 216.32773,227.99971   L 217.72769,227.99971   L 217.72769,223.13305   L 216.32773,223.13305   L 216.32773,227.99971   L 212.72782,227.99971   L 212.72782,223.13305   L 211.32786,223.13305   L 211.32786,227.99971   L 207.79462,227.99971   L 207.79462,223.13305   L 206.26132,223.13305   L 206.26132,227.99971   L 202.72808,227.99971   L 202.72808,223.13305   L 201.39478,223.13305   L 201.39478,227.99971   L 197.79488,227.99971   L 197.79488,223.13305   L 196.66157,223.13305   L 196.66157,227.99971   L 193.06167,227.99971   L 193.06167,223.13305   L 191.59504,223.13305   L 191.59504,227.99971   L 188.0618,227.99971   L 188.0618,223.13305   L 186.66183,223.13305   L 186.66183,227.99971   L 183.12859,227.99971   L 183.12859,223.13305   L 181.5953,223.13305   L 181.5953,227.99971   L 178.06205,227.99971   L 178.06205,223.13305   L 176.52876,223.13305   L 176.52876,227.99971   L 172.92885,227.99971   L 172.92885,223.13305   L 171.59556,223.13305   L 171.59556,227.99971   L 168.06231,227.99971   L 168.06231,223.13305   L 166.66235,223.13305   L 166.66235,227.99971   L 163.12911,227.99971   L 163.12911,223.13305   L 161.72914,223.13305   L 161.72914,227.99971   L 158.12924,227.99971   L 158.12924,223.13305   L 156.59594,223.13305   L 156.59594,227.99971   L 153.0627,227.99971   L 153.0627,223.13305   L 221.26094,223.13305   L 221.26094,227.99971   L 214.52778,229.39971   L 214.52778,248.79969   L 220.99428,249.99968  z " clip-path="url(#clipWmfPath1)" style="fill:#ffffff;fill-rule:nonzero;fill-opacity:1;stroke:none;"/>
  <path id="path50" d="  M 220.99428,249.99968   L 220.99428,254.86635   L 217.39437,254.86635   L 217.39437,249.99968   L 215.99441,249.99968   L 215.99441,254.86635   L 212.46116,254.86635   L 212.46116,249.99968   L 211.0612,249.99968   L 211.0612,254.86635   L 207.46129,254.86635   L 207.46129,249.99968   L 205.928,249.99968   L 205.928,254.86635   L 202.46142,254.86635   L 202.46142,249.99968   L 200.99479,249.99968   L 200.99479,254.86635   L 197.39489,254.86635   L 197.39489,249.99968   L 196.32825,249.99968   L 196.32825,254.86635   L 192.79501,254.86635   L 192.79501,249.99968   L 191.32838,249.99968   L 191.32838,254.86635   L 187.72847,254.86635   L 187.72847,249.99968   L 186.39517,249.99968   L 186.39517,254.86635   L 182.79527,254.86635   L 182.79527,249.99968   L 181.32864,249.99968   L 181.32864,254.86635   L 177.72873,254.86635   L 177.72873,249.99968   L 176.19544,249.99968   L 176.19544,254.86635   L 172.59553,254.86635   L 172.59553,249.99968   L 171.26223,249.99968   L 171.26223,254.86635   L 167.79565,254.86635   L 167.79565,249.99968   L 166.39569,249.99968   L 166.39569,254.86635   L 162.79578,254.86635   L 162.79578,249.99968   L 161.39582,249.99968   L 161.39582,254.86635   L 157.86258,254.86635   L 157.86258,249.99968   L 156.32928,249.99968   L 156.32928,254.86635   L 152.72938,254.86635   L 152.72938,249.99968   L 220.99428,249.99968   L 214.52778,248.79969   L 214.52778,229.39971   L 221.26094,227.99971   L 216.32773,227.99971   L 217.72769,227.99971   L 217.72769,223.13305   L 216.32773,223.13305   L 216.32773,227.99971   L 212.72782,227.99971   L 212.72782,223.13305   L 211.32786,223.13305   L 211.32786,227.99971   L 207.79462,227.99971   L 207.79462,223.13305   L 206.26132,223.13305   L 206.26132,227.99971   L 202.72808,227.99971   L 202.72808,223.13305   L 201.39478,223.13305   L 201.39478,227.99971   L 197.79488,227.99971   L 197.79488,223.13305   L 196.66157,223.13305   L 196.66157,227.99971   L 193.06167,227.99971   L 193.06167,223.13305   L 191.59504,223.13305   L 191.59504,227.99971   L 188.0618,227.99971   L 188.0618,223.13305   L 186.66183,223.13305   L 186.66183,227.99971   L 183.12859,227.99971   L 183.12859,223.13305   L 181.5953,223.13305   L 181.5953,227.99971   L 178.06205,227.99971   L 178.06205,223.13305   L 176.52876,223.13305   L 176.52876,227.99971   L 172.92885,227.99971   L 172.92885,223.13305   L 171.59556,223.13305   L 171.59556,227.99971   L 168.06231,227.99971   L 168.06231,223.13305   L 166.66235,223.13305   L 166.66235,227.99971   L 163.12911,227.99971   L 163.12911,223.13305   L 161.72914,223.13305   L 161.72914,227.99971   L 158.12924,227.99971   L 158.12924,223.13305   L 156.59594,223.13305   L 156.59594,227.99971   L 153.0627,227.99971   L 153.0627,223.13305   L 221.26094,223.13305   L 221.26094,227.99971   L 214.52778,229.39971   L 214.52778,248.79969   L 220.99428,249.99968  z " clip-path="url(#clipWmfPath1)" style="fill:none;stroke:#000000;stroke-width:0.066664942px;stroke-linecap:round;stroke-linejoin:round;stroke-miterlimit:4;stroke-dasharray:none;stroke-opacity:1;"/>
  <path id="path52" d="  M 153.59602,253.73301   L 153.59602,224.26638   L 220.32763,224.26638   L 220.32763,253.73301   L 153.59602,253.73301  z " clip-path="url(#clipWmfPath1)" style="fill:#808080;fill-rule:nonzero;fill-opacity:1;stroke:none;"/>
  <path id="path54" d="  M 153.59602,253.73301   L 153.59602,224.26638   L 220.32763,224.26638   L 220.32763,253.73301   L 153.59602,253.73301  z " clip-path="url(#clipWmfPath1)" style="fill:none;stroke:#000000;stroke-width:0.066664942px;stroke-linecap:round;stroke-linejoin:round;stroke-miterlimit:4;stroke-dasharray:none;stroke-opacity:1;"/>
  <path id="path56" d="  M 201.9281,245.86636   L 202.72808,245.66636   L 203.39473,245.13302   L 203.86139,244.39969   L 203.99472,243.59969   L 203.99472,233.86637   L 203.86139,233.13304   L 203.39473,232.59971   L 202.72808,232.19971   L 201.9281,232.06637   L 171.99554,232.06637   L 171.19557,232.26637   L 170.52892,232.73304   L 170.06226,233.33304   L 169.92893,234.13304   L 169.92893,243.39969   L 169.9956,244.26636   L 170.32892,245.06636   L 170.79558,245.59969   L 171.52889,245.86636   L 201.9281,245.86636  z " clip-path="url(#clipWmfPath1)" style="fill:#ffffff;fill-rule:nonzero;fill-opacity:1;stroke:none;"/>
  <path id="path58" d="  M 171.52889,245.33302   L 171.52889,246.39969   L 201.99477,246.39969   L 202.92808,246.13302   L 203.79472,245.46636   L 204.32804,244.59969   L 204.52804,243.66636   L 204.52804,233.79971   L 204.32804,232.93304   L 203.72806,232.19971   L 202.92808,231.73304   L 201.99477,231.53304   L 171.92888,231.53304   L 170.99557,231.79971   L 170.19559,232.33304   L 169.59561,233.13304   L 169.39561,234.06637   L 169.39561,243.39969   L 169.52894,244.39969   L 169.86227,245.33302   L 170.52892,245.99969   L 171.46223,246.39969   L 201.99477,246.39969   L 202.86141,246.13302   L 202.59475,245.19969   L 201.86144,245.33302   L 171.59556,245.33302   L 171.06224,245.19969   L 170.79558,244.79969   L 170.46225,244.13303   L 170.46225,243.39969   L 170.46225,234.1997   L 170.52892,233.53304   L 170.86224,233.13304   L 171.39556,232.73304   L 172.06221,232.59971   L 201.86144,232.59971   L 202.52809,232.66637   L 203.06141,232.99971   L 203.39473,233.33304   L 203.4614,233.93304   L 203.4614,243.53303   L 203.39473,244.19969   L 202.99474,244.79969   L 202.52809,245.19969   L 201.86144,245.33302   L 171.52889,245.33302  z " clip-path="url(#clipWmfPath1)" style="fill:#000000;fill-rule:nonzero;fill-opacity:1;stroke:#000000;stroke-width:0.066664942px;stroke-linecap:round;stroke-linejoin:round;stroke-miterlimit:4;stroke-dasharray:none;stroke-opacity:1;"/>
  <g id="g60" clip-path="url(#clipWmfPath1)"/>
  <g id="g74" clip-path="url(#clipWmfPath1)">
    <text id="text72" y="0.000000" x="0.000000" transform="matrix(1.000000,-0.000000,0.000000,1.000000,174.862137,243.733026)" style="font-size:10.937500px;font-style:normal;font-variant:normal;font-weight:400;font-stretch:Condensed;line-height:125.000000%;letter-spacing:0px;word-spacing:0px;fill:#000000;fill-opacity:1;stroke:none;font-family:Helvetica-Narrow;text-align:start;text-anchor:start;" xml:space="preserve"><tspan id="tspan70" y="0.000000" x="0.000000"><tspan id="tspan62" style="fill:#000000;font-size:10.937500px;font-style:normal;font-variant:normal;font-weight:400;font-stretch:Condensed;font-family:Helvetica-Narrow;" dy="0.000000" dx="0.000000">B</tspan><tspan id="tspan64" style="fill:#000000;font-size:10.937500px;font-style:normal;font-variant:normal;font-weight:400;font-stretch:Condensed;font-family:Helvetica-Narrow;" dy="0.000000" dx="-0.495489">I</tspan><tspan id="tspan66" style="fill:#000000;font-size:10.937500px;font-style:normal;font-variant:normal;font-weight:400;font-stretch:Condensed;font-family:Helvetica-Narrow;" dy="0.000000" dx="0.972827">O</tspan><tspan id="tspan68" style="fill:#000000;font-size:10.937500px;font-style:normal;font-variant:normal;font-weight:400;font-stretch:Condensed;font-family:Helvetica-Narrow;" dy="0.000000" dx="0.821673">S</tspan></tspan></text>
  </g>
  <path id="path76" d="  M 284.4593,11.333319   L 445.3218,11.333319   L 445.3218,26.3333   L 284.4593,26.3333   L 284.4593,11.333319  z " clip-path="url(#clipWmfPath1)" style="fill:#000000;fill-rule:nonzero;fill-opacity:1;stroke:none;"/>
  <path id="path78" d="  M 284.4593,11.333319   L 445.3218,11.333319   L 445.3218,26.3333   L 284.4593,26.3333   L 284.4593,11.333319  z " clip-path="url(#clipWmfPath1)" style="fill:none;stroke:#000000;stroke-width:0.066664942px;stroke-linecap:round;stroke-linejoin:round;stroke-miterlimit:4;stroke-dasharray:none;stroke-opacity:1;"/>
  <path id="path80" d="  M 290.12582,21.599973   L 439.65528,21.599973   L 439.65528,16.133313   L 290.12582,16.133313   L 290.12582,21.599973  z " clip-path="url(#clipWmfPath1)" style="fill:#ffffff;fill-rule:nonzero;fill-opacity:1;stroke:none;"/>
  <path id="path82" d="  M 290.12582,21.599973   L 439.65528,21.599973   L 439.65528,16.133313   L 290.12582,16.133313   L 290.12582,21.599973  z " clip-path="url(#clipWmfPath1)" style="fill:none;stroke:#000000;stroke-width:0.066664942px;stroke-linecap:round;stroke-linejoin:round;stroke-miterlimit:4;stroke-dasharray:none;stroke-opacity:1;"/>
  <path id="path84" d="  M 284.4593,46.933274   L 445.3218,46.933274   L 445.3218,61.933255   L 284.4593,61.933255   L 284.4593,46.933274  z " clip-path="url(#clipWmfPath1)" style="fill:#000000;fill-rule:nonzero;fill-opacity:1;stroke:none;"/>
  <path id="path86" d="  M 284.4593,46.933274   L 445.3218,46.933274   L 445.3218,61.933255   L 284.4593,61.933255   L 284.4593,46.933274  z " clip-path="url(#clipWmfPath1)" style="fill:none;stroke:#000000;stroke-width:0.066664942px;stroke-linecap:round;stroke-linejoin:round;stroke-miterlimit:4;stroke-dasharray:none;stroke-opacity:1;"/>
  <path id="path88" d="  M 290.12582,57.199928   L 439.65528,57.199928   L 439.65528,51.733268   L 290.12582,51.733268   L 290.12582,57.199928  z " clip-path="url(#clipWmfPath1)" style="fill:#ffffff;fill-rule:nonzero;fill-opacity:1;stroke:none;"/>
  <path id="path90" d="  M 290.12582,57.199928   L 439.65528,57.199928   L 439.65528,51.733268   L 290.12582,51.733268   L 290.12582,57.199928  z " clip-path="url(#clipWmfPath1)" style="fill:none;stroke:#000000;stroke-width:0.066664942px;stroke-linecap:round;stroke-linejoin:round;stroke-miterlimit:4;stroke-dasharray:none;stroke-opacity:1;"/>
  <path id="path92" d="  M 284.4593,82.533229   L 445.3218,82.533229   L 445.3218,97.53321   L 284.4593,97.53321   L 284.4593,82.533229  z " clip-path="url(#clipWmfPath1)" style="fill:#000000;fill-rule:nonzero;fill-opacity:1;stroke:none;"/>
  <path id="path94" d="  M 284.4593,82.533229   L 445.3218,82.533229   L 445.3218,97.53321   L 284.4593,97.53321   L 284.4593,82.533229  z " clip-path="url(#clipWmfPath1)" style="fill:none;stroke:#000000;stroke-width:0.066664942px;stroke-linecap:round;stroke-linejoin:round;stroke-miterlimit:4;stroke-dasharray:none;stroke-opacity:1;"/>
  <path id="path96" d="  M 290.12582,92.799883   L 439.65528,92.799883   L 439.65528,87.333223   L 290.12582,87.333223   L 290.12582,92.799883  z " clip-path="url(#clipWmfPath1)" style="fill:#ffffff;fill-rule:nonzero;fill-opacity:1;stroke:none;"/>
  <path id="path98" d="  M 290.12582,92.799883   L 439.65528,92.799883   L 439.65528,87.333223   L 290.12582,87.333223   L 290.12582,92.799883  z " clip-path="url(#clipWmfPath1)" style="fill:none;stroke:#000000;stroke-width:0.066664942px;stroke-linecap:round;stroke-linejoin:round;stroke-miterlimit:4;stroke-dasharray:none;stroke-opacity:1;"/>
  <path id="path100" d="  M 284.4593,118.13318   L 445.3218,118.13318   L 445.3218,133.13317   L 284.4593,133.13317   L 284.4593,118.13318  z " clip-path="url(#clipWmfPath1)" style="fill:#000000;fill-rule:nonzero;fill-opacity:1;stroke:none;"/>
  <path id="path102" d="  M 284.4593,118.13318   L 445.3218,118.13318   L 445.3218,133.13317   L 284.4593,133.13317   L 284.4593,118.13318  z " clip-path="url(#clipWmfPath1)" style="fill:none;stroke:#000000;stroke-width:0.066664942px;stroke-linecap:round;stroke-linejoin:round;stroke-miterlimit:4;stroke-dasharray:none;stroke-opacity:1;"/>
  <path id="path104" d="  M 290.12582,128.39984   L 439.65528,128.39984   L 439.65528,122.93318   L 290.12582,122.93318   L 290.12582,128.39984  z " clip-path="url(#clipWmfPath1)" style="fill:#ffffff;fill-rule:nonzero;fill-opacity:1;stroke:none;"/>
  <path id="path106" d="  M 290.12582,128.39984   L 439.65528,128.39984   L 439.65528,122.93318   L 290.12582,122.93318   L 290.12582,128.39984  z " clip-path="url(#clipWmfPath1)" style="fill:none;stroke:#000000;stroke-width:0.066664942px;stroke-linecap:round;stroke-linejoin:round;stroke-miterlimit:4;stroke-dasharray:none;stroke-opacity:1;"/>
  <path id="path108" d="  M 283.99264,152.26647   L 444.85514,152.26647   L 444.85514,167.26646   L 283.99264,167.26646   L 283.99264,152.26647  z " clip-path="url(#clipWmfPath1)" style="fill:#000000;fill-rule:nonzero;fill-opacity:1;stroke:none;"/>
  <path id="path110" d="  M 283.99264,152.26647   L 444.85514,152.26647   L 444.85514,167.26646   L 283.99264,167.26646   L 283.99264,152.26647  z " clip-path="url(#clipWmfPath1)" style="fill:none;stroke:#000000;stroke-width:0.066664942px;stroke-linecap:round;stroke-linejoin:round;stroke-miterlimit:4;stroke-dasharray:none;stroke-opacity:1;"/>
  <path id="path112" d="  M 289.65916,162.53313   L 439.18862,162.53313   L 439.18862,157.06647   L 289.65916,157.06647   L 289.65916,162.53313  z " clip-path="url(#clipWmfPath1)" style="fill:#ffffff;fill-rule:nonzero;fill-opacity:1;stroke:none;"/>
  <path id="path114" d="  M 289.65916,162.53313   L 439.18862,162.53313   L 439.18862,157.06647   L 289.65916,157.06647   L 289.65916,162.53313  z " clip-path="url(#clipWmfPath1)" style="fill:none;stroke:#000000;stroke-width:0.066664942px;stroke-linecap:round;stroke-linejoin:round;stroke-miterlimit:4;stroke-dasharray:none;stroke-opacity:1;"/>
  <path id="path116" d="  M 283.99264,187.86643   L 444.85514,187.86643   L 444.85514,202.86641   L 283.99264,202.86641   L 283.99264,187.86643  z " clip-path="url(#clipWmfPath1)" style="fill:#000000;fill-rule:nonzero;fill-opacity:1;stroke:none;"/>
  <path id="path118" d="  M 283.99264,187.86643   L 444.85514,187.86643   L 444.85514,202.86641   L 283.99264,202.86641   L 283.99264,187.86643  z " clip-path="url(#clipWmfPath1)" style="fill:none;stroke:#000000;stroke-width:0.066664942px;stroke-linecap:round;stroke-linejoin:round;stroke-miterlimit:4;stroke-dasharray:none;stroke-opacity:1;"/>
  <path id="path120" d="  M 289.65916,198.13308   L 439.18862,198.13308   L 439.18862,192.66642   L 289.65916,192.66642   L 289.65916,198.13308  z " clip-path="url(#clipWmfPath1)" style="fill:#ffffff;fill-rule:nonzero;fill-opacity:1;stroke:none;"/>
  <path id="path122" d="  M 289.65916,198.13308   L 439.18862,198.13308   L 439.18862,192.66642   L 289.65916,192.66642   L 289.65916,198.13308  z " clip-path="url(#clipWmfPath1)" style="fill:none;stroke:#000000;stroke-width:0.066664942px;stroke-linecap:round;stroke-linejoin:round;stroke-miterlimit:4;stroke-dasharray:none;stroke-opacity:1;"/>
  <path id="path124" d="  M 283.99264,223.46638   L 444.85514,223.46638   L 444.85514,238.46637   L 283.99264,238.46637   L 283.99264,223.46638  z " clip-path="url(#clipWmfPath1)" style="fill:#000000;fill-rule:nonzero;fill-opacity:1;stroke:none;"/>
  <path id="path126" d="  M 283.99264,223.46638   L 444.85514,223.46638   L 444.85514,238.46637   L 283.99264,238.46637   L 283.99264,223.46638  z " clip-path="url(#clipWmfPath1)" style="fill:none;stroke:#000000;stroke-width:0.066664942px;stroke-linecap:round;stroke-linejoin:round;stroke-miterlimit:4;stroke-dasharray:none;stroke-opacity:1;"/>
  <path id="path128" d="  M 289.65916,233.73304   L 439.18862,233.73304   L 439.18862,228.26638   L 289.65916,228.26638   L 289.65916,233.73304  z " clip-path="url(#clipWmfPath1)" style="fill:#ffffff;fill-rule:nonzero;fill-opacity:1;stroke:none;"/>
  <path id="path130" d="  M 289.65916,233.73304   L 439.18862,233.73304   L 439.18862,228.26638   L 289.65916,228.26638   L 289.65916,233.73304  z " clip-path="url(#clipWmfPath1)" style="fill:none;stroke:#000000;stroke-width:0.066664942px;stroke-linecap:round;stroke-linejoin:round;stroke-miterlimit:4;stroke-dasharray:none;stroke-opacity:1;"/>
  <path id="path132" d="  M 283.99264,259.06634   L 444.85514,259.06634   L 444.85514,274.06632   L 283.99264,274.06632   L 283.99264,259.06634  z " clip-path="url(#clipWmfPath1)" style="fill:#000000;fill-rule:nonzero;fill-opacity:1;stroke:none;"/>
  <path id="path134" d="  M 283.99264,259.06634   L 444.85514,259.06634   L 444.85514,274.06632   L 283.99264,274.06632   L 283.99264,259.06634  z " clip-path="url(#clipWmfPath1)" style="fill:none;stroke:#000000;stroke-width:0.066664942px;stroke-linecap:round;stroke-linejoin:round;stroke-miterlimit:4;stroke-dasharray:none;stroke-opacity:1;"/>
  <path id="path136" d="  M 289.65916,269.33299   L 439.18862,269.33299   L 439.18862,263.86633   L 289.65916,263.86633   L 289.65916,269.33299  z " clip-path="url(#clipWmfPath1)" style="fill:#ffffff;fill-rule:nonzero;fill-opacity:1;stroke:none;"/>
  <path id="path138" d="  M 289.65916,269.33299   L 439.18862,269.33299   L 439.18862,263.86633   L 289.65916,263.86633   L 289.65916,269.33299  z " clip-path="url(#clipWmfPath1)" style="fill:none;stroke:#000000;stroke-width:0.066664942px;stroke-linecap:round;stroke-linejoin:round;stroke-miterlimit:4;stroke-dasharray:none;stroke-opacity:1;"/>
  <path id="path140" d="  M 202.1281,56.066596   L 192.26169,56.066596   L 192.26169,75.266572   L 202.1281,75.266572   L 202.1281,56.066596  z " clip-path="url(#clipWmfPath1)" style="fill:#ffffff;fill-rule:nonzero;fill-opacity:1;stroke:none;"/>
  <path id="path142" d="  M 202.1281,56.066596   L 192.26169,56.066596   L 192.26169,75.266572   L 202.1281,75.266572   L 202.1281,56.066596  z " clip-path="url(#clipWmfPath1)" style="fill:none;stroke:#000000;stroke-width:0.066664942px;stroke-linecap:round;stroke-linejoin:round;stroke-miterlimit:4;stroke-dasharray:none;stroke-opacity:1;"/>
  <path id="path144" d="  M 196.19492,57.466594   L 193.46166,57.466594   L 193.46166,60.199924   L 196.19492,60.199924   L 196.19492,57.466594  z " clip-path="url(#clipWmfPath1)" style="fill:#000000;fill-rule:nonzero;fill-opacity:1;stroke:none;"/>
  <path id="path146" d="  M 196.19492,57.466594   L 193.46166,57.466594   L 193.46166,60.199924   L 196.19492,60.199924   L 196.19492,57.466594  z " clip-path="url(#clipWmfPath1)" style="fill:none;stroke:#000000;stroke-width:0.066664942px;stroke-linecap:round;stroke-linejoin:round;stroke-miterlimit:4;stroke-dasharray:none;stroke-opacity:1;"/>
  <path id="path148" d="  M 196.19492,62.066588   L 193.46166,62.066588   L 193.46166,64.799918   L 196.19492,64.799918   L 196.19492,62.066588  z " clip-path="url(#clipWmfPath1)" style="fill:#000000;fill-rule:nonzero;fill-opacity:1;stroke:none;"/>
  <path id="path150" d="  M 196.19492,62.066588   L 193.46166,62.066588   L 193.46166,64.799918   L 196.19492,64.799918   L 196.19492,62.066588  z " clip-path="url(#clipWmfPath1)" style="fill:none;stroke:#000000;stroke-width:0.066664942px;stroke-linecap:round;stroke-linejoin:round;stroke-miterlimit:4;stroke-dasharray:none;stroke-opacity:1;"/>
  <path id="path152" d="  M 196.19492,66.666583   L 193.46166,66.666583   L 193.46166,69.399913   L 196.19492,69.399913   L 196.19492,66.666583  z " clip-path="url(#clipWmfPath1)" style="fill:#000000;fill-rule:nonzero;fill-opacity:1;stroke:none;"/>
  <path id="path154" d="  M 196.19492,66.666583   L 193.46166,66.666583   L 193.46166,69.399913   L 196.19492,69.399913   L 196.19492,66.666583  z " clip-path="url(#clipWmfPath1)" style="fill:none;stroke:#000000;stroke-width:0.066664942px;stroke-linecap:round;stroke-linejoin:round;stroke-miterlimit:4;stroke-dasharray:none;stroke-opacity:1;"/>
  <path id="path156" d="  M 196.19492,71.39991   L 193.46166,71.39991   L 193.46166,74.13324   L 196.19492,74.13324   L 196.19492,71.39991  z " clip-path="url(#clipWmfPath1)" style="fill:#000000;fill-rule:nonzero;fill-opacity:1;stroke:none;"/>
  <path id="path158" d="  M 196.19492,71.39991   L 193.46166,71.39991   L 193.46166,74.13324   L 196.19492,74.13324   L 196.19492,71.39991  z " clip-path="url(#clipWmfPath1)" style="fill:none;stroke:#000000;stroke-width:0.066664942px;stroke-linecap:round;stroke-linejoin:round;stroke-miterlimit:4;stroke-dasharray:none;stroke-opacity:1;"/>
  <path id="path160" d="  M 200.86146,57.466594   L 198.1282,57.466594   L 198.1282,60.199924   L 200.86146,60.199924   L 200.86146,57.466594  z " clip-path="url(#clipWmfPath1)" style="fill:#ffffff;fill-rule:nonzero;fill-opacity:1;stroke:none;"/>
  <path id="path162" d="  M 200.86146,57.466594   L 198.1282,57.466594   L 198.1282,60.199924   L 200.86146,60.199924   L 200.86146,57.466594  z " clip-path="url(#clipWmfPath1)" style="fill:none;stroke:#000000;stroke-width:0.066664942px;stroke-linecap:round;stroke-linejoin:round;stroke-miterlimit:4;stroke-dasharray:none;stroke-opacity:1;"/>
  <path id="path164" d="  M 200.86146,62.066588   L 198.1282,62.066588   L 198.1282,64.799918   L 200.86146,64.799918   L 200.86146,62.066588  z " clip-path="url(#clipWmfPath1)" style="fill:#000000;fill-rule:nonzero;fill-opacity:1;stroke:none;"/>
  <path id="path166" d="  M 200.86146,62.066588   L 198.1282,62.066588   L 198.1282,64.799918   L 200.86146,64.799918   L 200.86146,62.066588  z " clip-path="url(#clipWmfPath1)" style="fill:none;stroke:#000000;stroke-width:0.066664942px;stroke-linecap:round;stroke-linejoin:round;stroke-miterlimit:4;stroke-dasharray:none;stroke-opacity:1;"/>
  <path id="path168" d="  M 200.86146,66.666583   L 198.1282,66.666583   L 198.1282,69.399913   L 200.86146,69.399913   L 200.86146,66.666583  z " clip-path="url(#clipWmfPath1)" style="fill:#000000;fill-rule:nonzero;fill-opacity:1;stroke:none;"/>
  <path id="path170" d="  M 200.86146,66.666583   L 198.1282,66.666583   L 198.1282,69.399913   L 200.86146,69.399913   L 200.86146,66.666583  z " clip-path="url(#clipWmfPath1)" style="fill:none;stroke:#000000;stroke-width:0.066664942px;stroke-linecap:round;stroke-linejoin:round;stroke-miterlimit:4;stroke-dasharray:none;stroke-opacity:1;"/>
  <path id="path172" d="  M 200.86146,71.39991   L 198.1282,71.39991   L 198.1282,74.13324   L 200.86146,74.13324   L 200.86146,71.39991  z " clip-path="url(#clipWmfPath1)" style="fill:#000000;fill-rule:nonzero;fill-opacity:1;stroke:none;"/>
  <path id="path174" d="  M 200.86146,71.39991   L 198.1282,71.39991   L 198.1282,74.13324   L 200.86146,74.13324   L 200.86146,71.39991  z " clip-path="url(#clipWmfPath1)" style="fill:none;stroke:#000000;stroke-width:0.066664942px;stroke-linecap:round;stroke-linejoin:round;stroke-miterlimit:4;stroke-dasharray:none;stroke-opacity:1;"/>
  <path id="path176" d="  M 226.99412,298.99962   L 226.99412,284.33297   L 280.59273,284.33297   L 280.59273,298.99962   L 226.99412,298.99962  z " clip-path="url(#clipWmfPath1)" style="fill:#ffffff;fill-rule:nonzero;fill-opacity:1;stroke:none;"/>
  <path id="path178" d="  M 226.99412,298.99962   L 226.99412,284.33297   L 280.59273,284.33297   L 280.59273,298.99962   L 226.99412,298.99962  z " clip-path="url(#clipWmfPath1)" style="fill:none;stroke:#000000;stroke-width:0.066664942px;stroke-linecap:round;stroke-linejoin:round;stroke-miterlimit:4;stroke-dasharray:none;stroke-opacity:1;"/>
  <path id="path180" d="  M 255.39338,287.53297   L 255.39338,295.46629   L 259.45995,295.46629   L 259.45995,287.53297   L 255.39338,287.53297  z " clip-path="url(#clipWmfPath1)" style="fill:#000000;fill-rule:nonzero;fill-opacity:1;stroke:none;"/>
  <path id="path182" d="  M 255.39338,287.53297   L 255.39338,295.46629   L 259.45995,295.46629   L 259.45995,287.53297   L 255.39338,287.53297  z " clip-path="url(#clipWmfPath1)" style="fill:none;stroke:#000000;stroke-width:0.066664942px;stroke-linecap:round;stroke-linejoin:round;stroke-miterlimit:4;stroke-dasharray:none;stroke-opacity:1;"/>
  <path id="path184" d="  M 261.12657,287.53297   L 261.12657,295.46629   L 265.19313,295.46629   L 265.19313,287.53297   L 261.12657,287.53297  z " clip-path="url(#clipWmfPath1)" style="fill:#000000;fill-rule:nonzero;fill-opacity:1;stroke:none;"/>
  <path id="path186" d="  M 261.12657,287.53297   L 261.12657,295.46629   L 265.19313,295.46629   L 265.19313,287.53297   L 261.12657,287.53297  z " clip-path="url(#clipWmfPath1)" style="fill:none;stroke:#000000;stroke-width:0.066664942px;stroke-linecap:round;stroke-linejoin:round;stroke-miterlimit:4;stroke-dasharray:none;stroke-opacity:1;"/>
  <path id="path188" d="  M 243.66036,287.53297   L 243.66036,295.46629   L 247.72692,295.46629   L 247.72692,287.53297   L 243.66036,287.53297  z " clip-path="url(#clipWmfPath1)" style="fill:#000000;fill-rule:nonzero;fill-opacity:1;stroke:none;"/>
  <path id="path190" d="  M 243.66036,287.53297   L 243.66036,295.46629   L 247.72692,295.46629   L 247.72692,287.53297   L 243.66036,287.53297  z " clip-path="url(#clipWmfPath1)" style="fill:none;stroke:#000000;stroke-width:0.066664942px;stroke-linecap:round;stroke-linejoin:round;stroke-miterlimit:4;stroke-dasharray:none;stroke-opacity:1;"/>
  <path id="path192" d="  M 249.32688,287.53297   L 249.32688,295.46629   L 253.39344,295.46629   L 253.39344,287.53297   L 249.32688,287.53297  z " clip-path="url(#clipWmfPath1)" style="fill:#000000;fill-rule:nonzero;fill-opacity:1;stroke:none;"/>
  <path id="path194" d="  M 249.32688,287.53297   L 249.32688,295.46629   L 253.39344,295.46629   L 253.39344,287.53297   L 249.32688,287.53297  z " clip-path="url(#clipWmfPath1)" style="fill:none;stroke:#000000;stroke-width:0.066664942px;stroke-linecap:round;stroke-linejoin:round;stroke-miterlimit:4;stroke-dasharray:none;stroke-opacity:1;"/>
  <path id="path196" d="  M 237.52718,287.53297   L 237.52718,295.46629   L 241.59374,295.46629   L 241.59374,287.53297   L 237.52718,287.53297  z " clip-path="url(#clipWmfPath1)" style="fill:#000000;fill-rule:nonzero;fill-opacity:1;stroke:none;"/>
  <path id="path198" d="  M 237.52718,287.53297   L 237.52718,295.46629   L 241.59374,295.46629   L 241.59374,287.53297   L 237.52718,287.53297  z " clip-path="url(#clipWmfPath1)" style="fill:none;stroke:#000000;stroke-width:0.066664942px;stroke-linecap:round;stroke-linejoin:round;stroke-miterlimit:4;stroke-dasharray:none;stroke-opacity:1;"/>
  <path id="path200" d="  M 231.52734,287.53297   L 231.52734,295.46629   L 235.5939,295.46629   L 235.5939,287.53297   L 231.52734,287.53297  z " clip-path="url(#clipWmfPath1)" style="fill:#000000;fill-rule:nonzero;fill-opacity:1;stroke:none;"/>
  <path id="path202" d="  M 231.52734,287.53297   L 231.52734,295.46629   L 235.5939,295.46629   L 235.5939,287.53297   L 231.52734,287.53297  z " clip-path="url(#clipWmfPath1)" style="fill:none;stroke:#000000;stroke-width:0.066664942px;stroke-linecap:round;stroke-linejoin:round;stroke-miterlimit:4;stroke-dasharray:none;stroke-opacity:1;"/>
  <path id="path204" d="  M 272.8596,287.53297   L 272.8596,295.46629   L 276.92616,295.46629   L 276.92616,287.53297   L 272.8596,287.53297  z " clip-path="url(#clipWmfPath1)" style="fill:#000000;fill-rule:nonzero;fill-opacity:1;stroke:none;"/>
  <path id="path206" d="  M 272.8596,287.53297   L 272.8596,295.46629   L 276.92616,295.46629   L 276.92616,287.53297   L 272.8596,287.53297  z " clip-path="url(#clipWmfPath1)" style="fill:none;stroke:#000000;stroke-width:0.066664942px;stroke-linecap:round;stroke-linejoin:round;stroke-miterlimit:4;stroke-dasharray:none;stroke-opacity:1;"/>
  <path id="path208" d="  M 266.79309,287.53297   L 266.79309,295.46629   L 270.85965,295.46629   L 270.85965,287.53297   L 266.79309,287.53297  z " clip-path="url(#clipWmfPath1)" style="fill:#000000;fill-rule:nonzero;fill-opacity:1;stroke:none;"/>
  <path id="path210" d="  M 266.79309,287.53297   L 266.79309,295.46629   L 270.85965,295.46629   L 270.85965,287.53297   L 266.79309,287.53297  z " clip-path="url(#clipWmfPath1)" style="fill:none;stroke:#000000;stroke-width:0.066664942px;stroke-linecap:round;stroke-linejoin:round;stroke-miterlimit:4;stroke-dasharray:none;stroke-opacity:1;"/>
  <path id="path212" d="  M 365.99052,285.33297   L 466.52125,285.33297   L 466.52125,318.73293   L 365.99052,318.73293   L 365.99052,285.33297  z " clip-path="url(#clipWmfPath1)" style="fill:#000000;fill-rule:nonzero;fill-opacity:1;stroke:none;"/>
  <path id="path214" d="  M 365.99052,285.33297   L 466.52125,285.33297   L 466.52125,318.73293   L 365.99052,318.73293   L 365.99052,285.33297  z " clip-path="url(#clipWmfPath1)" style="fill:none;stroke:#000000;stroke-width:0.066664942px;stroke-linecap:round;stroke-linejoin:round;stroke-miterlimit:4;stroke-dasharray:none;stroke-opacity:1;"/>
  <path id="path216" d="  M 368.99044,292.2663   L 368.99044,311.93294   L 411.45601,311.93294   L 411.45601,292.2663   L 415.32258,292.2663   L 415.32258,311.93294   L 457.78814,311.93294   L 457.78814,292.2663   L 368.99044,292.2663  z " clip-path="url(#clipWmfPath1)" style="fill:#f2f2f2;fill-rule:nonzero;fill-opacity:1;stroke:none;"/>
  <path id="path218" d="  M 368.99044,292.2663   L 368.99044,311.93294   L 411.45601,311.93294   L 411.45601,292.2663   L 415.32258,292.2663   L 415.32258,311.93294   L 457.78814,311.93294   L 457.78814,292.2663   L 368.99044,292.2663  z " clip-path="url(#clipWmfPath1)" style="fill:none;stroke:#000000;stroke-width:0.066664942px;stroke-linecap:round;stroke-linejoin:round;stroke-miterlimit:4;stroke-dasharray:none;stroke-opacity:1;"/>
  <path id="path220" d="  M 367.59048,291.13297   L 367.59048,286.19964   L 371.19039,286.19964   L 371.19039,291.13297   L 372.72368,291.13297   L 372.72368,286.19964   L 376.32359,286.19964   L 376.32359,291.13297   L 377.79021,291.13297   L 377.79021,286.19964   L 381.39012,286.19964   L 381.39012,291.13297   L 382.72342,291.13297   L 382.72342,286.19964   L 386.32333,286.19964   L 386.32333,291.13297   L 387.78996,291.13297   L 387.78996,286.19964   L 391.3232,286.19964   L 391.3232,291.13297   L 392.38984,291.13297   L 392.38984,286.19964   L 395.98974,286.19964   L 395.98974,291.13297   L 397.45637,291.13297   L 397.45637,286.19964   L 400.98961,286.19964   L 400.98961,291.13297   L 402.52291,291.13297   L 402.52291,286.19964   L 406.12281,286.19964   L 406.12281,291.13297   L 407.52278,291.13297   L 407.52278,286.19964   L 411.05602,286.19964   L 411.05602,291.13297   L 412.38932,291.13297   L 412.38932,286.19964   L 416.05589,286.19964   L 416.05589,291.13297   L 417.38919,291.13297   L 417.38919,286.19964   L 420.9891,286.19964   L 420.9891,291.13297   L 422.52239,291.13297   L 422.52239,286.19964   L 426.05563,286.19964   L 426.05563,291.13297   L 427.58892,291.13297   L 427.58892,286.19964   L 427.58892,291.13297   L 427.58892,286.19964   L 431.12217,286.19964   L 431.12217,291.13297   L 432.52213,291.13297   L 432.52213,286.19964   L 436.05537,286.19964   L 436.05537,291.13297   L 437.522,291.13297   L 437.522,286.19964   L 441.12191,286.19964   L 441.12191,291.13297   L 442.12188,291.13297   L 442.12188,286.19964   L 445.72179,286.19964   L 445.72179,291.13297   L 447.18842,291.13297   L 447.18842,286.19964   L 450.78832,286.19964   L 450.78832,291.13297   L 452.32162,291.13297   L 452.32162,286.19964   L 455.85486,286.19964   L 455.85486,291.13297   L 457.25482,291.13297   L 457.25482,286.19964   L 460.85473,286.19964   L 460.85473,291.13297   L 462.25469,291.13297   L 462.25469,286.19964   L 465.78794,286.19964   L 465.78794,291.13297   L 367.59048,291.13297   L 368.99044,292.2663   L 368.99044,311.93294   L 367.32382,313.19961   L 370.92373,313.19961   L 370.92373,318.13293   L 372.45702,318.13293   L 372.45702,313.19961   L 375.99026,313.19961   L 375.99026,318.13293   L 377.52355,318.13293   L 377.52355,313.19961   L 381.0568,313.19961   L 381.0568,318.13293   L 382.45676,318.13293   L 382.45676,313.19961   L 385.99,313.19961   L 385.99,318.13293   L 387.45663,318.13293   L 387.45663,313.19961   L 391.05654,313.19961   L 391.05654,318.13293   L 392.05651,318.13293   L 392.05651,313.19961   L 395.65642,313.19961   L 395.65642,318.13293   L 397.12305,318.13293   L 397.12305,313.19961   L 400.72295,313.19961   L 400.72295,318.13293   L 402.25625,318.13293   L 402.25625,313.19961   L 405.78949,313.19961   L 405.78949,318.13293   L 407.18945,318.13293   L 407.18945,313.19961   L 410.78936,313.19961   L 410.78936,318.13293   L 412.18932,318.13293   L 412.18932,313.19961   L 415.72257,313.19961   L 415.72257,318.13293   L 417.05586,318.13293   L 417.05586,313.19961   L 420.72244,313.19961   L 420.72244,318.13293   L 422.18906,318.13293   L 422.18906,313.19961   L 425.78897,313.19961   L 425.78897,318.13293   L 427.2556,318.13293   L 427.2556,313.19961   L 430.85551,313.19961   L 430.85551,318.13293   L 432.18881,318.13293   L 432.18881,313.19961   L 435.78871,313.19961   L 435.78871,318.13293   L 437.25534,318.13293   L 437.25534,313.19961   L 440.78858,313.19961   L 440.78858,318.13293   L 441.85522,318.13293   L 441.85522,313.19961   L 445.45513,313.19961   L 445.45513,318.13293   L 446.92176,318.13293   L 446.92176,313.19961   L 450.455,313.19961   L 450.455,318.13293   L 451.98829,318.13293   L 451.98829,313.19961   L 455.5882,313.19961   L 455.5882,318.13293   L 456.98816,318.13293   L 456.98816,313.19961   L 460.5214,313.19961   L 460.5214,318.13293   L 461.92137,318.13293   L 461.92137,313.19961   L 465.52128,313.19961   L 465.52128,318.13293   L 367.32382,318.13293   L 367.32382,313.19961   L 368.99044,311.93294   L 368.99044,292.2663   L 367.59048,291.13297  z " clip-path="url(#clipWmfPath1)" style="fill:#ffffff;fill-rule:nonzero;fill-opacity:1;stroke:none;"/>
  <path id="path222" d="  M 367.59048,291.13297   L 367.59048,286.19964   L 371.19039,286.19964   L 371.19039,291.13297   L 372.72368,291.13297   L 372.72368,286.19964   L 376.32359,286.19964   L 376.32359,291.13297   L 377.79021,291.13297   L 377.79021,286.19964   L 381.39012,286.19964   L 381.39012,291.13297   L 382.72342,291.13297   L 382.72342,286.19964   L 386.32333,286.19964   L 386.32333,291.13297   L 387.78996,291.13297   L 387.78996,286.19964   L 391.3232,286.19964   L 391.3232,291.13297   L 392.38984,291.13297   L 392.38984,286.19964   L 395.98974,286.19964   L 395.98974,291.13297   L 397.45637,291.13297   L 397.45637,286.19964   L 400.98961,286.19964   L 400.98961,291.13297   L 402.52291,291.13297   L 402.52291,286.19964   L 406.12281,286.19964   L 406.12281,291.13297   L 407.52278,291.13297   L 407.52278,286.19964   L 411.05602,286.19964   L 411.05602,291.13297   L 412.38932,291.13297   L 412.38932,286.19964   L 416.05589,286.19964   L 416.05589,291.13297   L 417.38919,291.13297   L 417.38919,286.19964   L 420.9891,286.19964   L 420.9891,291.13297   L 422.52239,291.13297   L 422.52239,286.19964   L 426.05563,286.19964   L 426.05563,291.13297   L 427.58892,291.13297   L 427.58892,286.19964   L 427.58892,291.13297   L 427.58892,286.19964   L 431.12217,286.19964   L 431.12217,291.13297   L 432.52213,291.13297   L 432.52213,286.19964   L 436.05537,286.19964   L 436.05537,291.13297   L 437.522,291.13297   L 437.522,286.19964   L 441.12191,286.19964   L 441.12191,291.13297   L 442.12188,291.13297   L 442.12188,286.19964   L 445.72179,286.19964   L 445.72179,291.13297   L 447.18842,291.13297   L 447.18842,286.19964   L 450.78832,286.19964   L 450.78832,291.13297   L 452.32162,291.13297   L 452.32162,286.19964   L 455.85486,286.19964   L 455.85486,291.13297   L 457.25482,291.13297   L 457.25482,286.19964   L 460.85473,286.19964   L 460.85473,291.13297   L 462.25469,291.13297   L 462.25469,286.19964   L 465.78794,286.19964   L 465.78794,291.13297   L 367.59048,291.13297   L 368.99044,292.2663   L 368.99044,311.93294   L 367.32382,313.19961   L 370.92373,313.19961   L 370.92373,318.13293   L 372.45702,318.13293   L 372.45702,313.19961   L 375.99026,313.19961   L 375.99026,318.13293   L 377.52355,318.13293   L 377.52355,313.19961   L 381.0568,313.19961   L 381.0568,318.13293   L 382.45676,318.13293   L 382.45676,313.19961   L 385.99,313.19961   L 385.99,318.13293   L 387.45663,318.13293   L 387.45663,313.19961   L 391.05654,313.19961   L 391.05654,318.13293   L 392.05651,318.13293   L 392.05651,313.19961   L 395.65642,313.19961   L 395.65642,318.13293   L 397.12305,318.13293   L 397.12305,313.19961   L 400.72295,313.19961   L 400.72295,318.13293   L 402.25625,318.13293   L 402.25625,313.19961   L 405.78949,313.19961   L 405.78949,318.13293   L 407.18945,318.13293   L 407.18945,313.19961   L 410.78936,313.19961   L 410.78936,318.13293   L 412.18932,318.13293   L 412.18932,313.19961   L 415.72257,313.19961   L 415.72257,318.13293   L 417.05586,318.13293   L 417.05586,313.19961   L 420.72244,313.19961   L 420.72244,318.13293   L 422.18906,318.13293   L 422.18906,313.19961   L 425.78897,313.19961   L 425.78897,318.13293   L 427.2556,318.13293   L 427.2556,313.19961   L 430.85551,313.19961   L 430.85551,318.13293   L 432.18881,318.13293   L 432.18881,313.19961   L 435.78871,313.19961   L 435.78871,318.13293   L 437.25534,318.13293   L 437.25534,313.19961   L 440.78858,313.19961   L 440.78858,318.13293   L 441.85522,318.13293   L 441.85522,313.19961   L 445.45513,313.19961   L 445.45513,318.13293   L 446.92176,318.13293   L 446.92176,313.19961   L 450.455,313.19961   L 450.455,318.13293   L 451.98829,318.13293   L 451.98829,313.19961   L 455.5882,313.19961   L 455.5882,318.13293   L 456.98816,318.13293   L 456.98816,313.19961   L 460.5214,313.19961   L 460.5214,318.13293   L 461.92137,318.13293   L 461.92137,313.19961   L 465.52128,313.19961   L 465.52128,318.13293   L 367.32382,318.13293   L 367.32382,313.19961   L 368.99044,311.93294   L 368.99044,292.2663   L 367.59048,291.13297  z " clip-path="url(#clipWmfPath1)" style="fill:none;stroke:#000000;stroke-width:0.066664942px;stroke-linecap:round;stroke-linejoin:round;stroke-miterlimit:4;stroke-dasharray:none;stroke-opacity:1;"/>
  <path id="path224" d="  M 368.05713,316.93293   L 368.05713,287.39964   L 465.05462,287.39964   L 465.05462,316.93293   L 368.05713,316.93293  z " clip-path="url(#clipWmfPath1)" style="fill:#808080;fill-rule:nonzero;fill-opacity:1;stroke:none;"/>
  <path id="path226" d="  M 368.05713,316.93293   L 368.05713,287.39964   L 465.05462,287.39964   L 465.05462,316.93293   L 368.05713,316.93293  z " clip-path="url(#clipWmfPath1)" style="fill:none;stroke:#000000;stroke-width:0.066664942px;stroke-linecap:round;stroke-linejoin:round;stroke-miterlimit:4;stroke-dasharray:none;stroke-opacity:1;"/>
  <path id="path228" d="  M 425.85564,295.39963   L 426.85561,295.53296   L 427.65559,295.99963   L 428.25557,296.66629   L 428.45557,297.39963   L 428.45557,306.86628   L 428.25557,307.59961   L 427.65559,308.19961   L 426.85561,308.53294   L 425.85564,308.66628   L 406.58947,308.66628   L 405.58949,308.53294   L 404.78952,308.13294   L 404.18953,307.46628   L 403.98954,306.73295   L 403.98954,297.33296   L 404.18953,296.59963   L 404.78952,295.99963   L 405.58949,295.53296   L 406.58947,295.39963   L 425.85564,295.39963  z " clip-path="url(#clipWmfPath1)" style="fill:#ffffff;fill-rule:nonzero;fill-opacity:1;stroke:none;"/>
  <path id="path230" d="  M 406.58947,294.8663   L 406.58947,295.93296   L 425.78897,295.93296   L 426.65562,295.99963   L 427.32226,296.39963   L 427.78892,296.93296   L 427.92225,297.46629   L 427.92225,306.79961   L 427.78892,307.33295   L 427.38893,307.79961   L 426.72228,308.06628   L 425.78897,308.13294   L 406.65613,308.13294   L 405.72282,308.06628   L 405.12284,307.73295   L 404.65619,307.19961   L 404.52286,306.66628   L 404.52286,297.39963   L 404.65619,296.86629   L 405.12284,296.39963   L 405.78949,295.99963   L 406.65613,295.93296   L 425.78897,295.93296   L 426.78895,296.06629   L 426.92228,294.99963   L 425.9223,294.8663   L 406.5228,294.8663   L 405.3895,295.06629   L 404.45619,295.59963   L 403.72288,296.33296   L 403.45622,297.26629   L 403.45622,306.79961   L 403.72288,307.73295   L 404.45619,308.53294   L 405.45616,308.99961   L 406.5228,309.19961   L 425.9223,309.19961   L 426.98894,308.99961   L 427.92225,308.59961   L 428.72223,307.86628   L 428.98889,306.93295   L 428.98889,297.33296   L 428.72223,296.39963   L 427.98891,295.59963   L 427.05561,295.06629   L 425.9223,294.8663   L 406.58947,294.8663  z " clip-path="url(#clipWmfPath1)" style="fill:#000000;fill-rule:nonzero;fill-opacity:1;stroke:#000000;stroke-width:0.066664942px;stroke-linecap:round;stroke-linejoin:round;stroke-miterlimit:4;stroke-dasharray:none;stroke-opacity:1;"/>
  <g id="g232" clip-path="url(#clipWmfPath1)"/>
  <g id="g244" clip-path="url(#clipWmfPath1)">
    <text id="text242" y="0.000000" x="0.000000" transform="matrix(1.000000,-0.000000,0.000000,1.000000,406.256144,306.866280)" style="font-size:10.687500px;font-style:normal;font-variant:normal;font-weight:400;font-stretch:Condensed;line-height:125.000000%;letter-spacing:0px;word-spacing:0px;fill:#000000;fill-opacity:1;stroke:none;font-family:Helvetica-Narrow;text-align:start;text-anchor:start;" xml:space="preserve"><tspan id="tspan240" y="0.000000" x="0.000000"><tspan id="tspan234" style="fill:#000000;font-size:10.687500px;font-style:normal;font-variant:normal;font-weight:400;font-stretch:Condensed;font-family:Helvetica-Narrow;" dy="0.000000" dx="0.000000">C</tspan><tspan id="tspan236" style="fill:#000000;font-size:10.687500px;font-style:normal;font-variant:normal;font-weight:400;font-stretch:Condensed;font-family:Helvetica-Narrow;" dy="0.000000" dx="-0.050346">P</tspan><tspan id="tspan238" style="fill:#000000;font-size:10.687500px;font-style:normal;font-variant:normal;font-weight:400;font-stretch:Condensed;font-family:Helvetica-Narrow;" dy="0.000000" dx="-0.102728">U</tspan></tspan></text>
  </g>
  <path id="path246" d="  M 365.99052,324.33292   L 466.52125,324.33292   L 466.52125,357.73288   L 365.99052,357.73288   L 365.99052,324.33292  z    M 371.65704,331.06625   L 371.65704,350.73289   L 414.12261,350.73289   L 414.12261,331.06625   L 417.98917,331.06625   L 417.98917,350.73289   L 460.45474,350.73289   L 460.45474,331.06625   L 371.65704,331.06625  z   " clip-path="url(#clipWmfPath1)" style="fill:#000000;fill-rule:evenodd;fill-opacity:1;stroke:none;"/>
  <path id="path248" d="  M 365.99052,324.33292   L 466.52125,324.33292   L 466.52125,357.73288   L 365.99052,357.73288   L 365.99052,324.33292  z " clip-path="url(#clipWmfPath1)" style="fill:none;stroke:#000000;stroke-width:0.066664942px;stroke-linecap:round;stroke-linejoin:round;stroke-miterlimit:4;stroke-dasharray:none;stroke-opacity:1;"/>
  <path id="path250" d="  M 371.65704,331.06625   L 371.65704,350.73289   L 414.12261,350.73289   L 414.12261,331.06625   L 417.98917,331.06625   L 417.98917,350.73289   L 460.45474,350.73289   L 460.45474,331.06625   L 371.65704,331.06625  z " clip-path="url(#clipWmfPath1)" style="fill:none;stroke:#000000;stroke-width:0.066664942px;stroke-linecap:round;stroke-linejoin:round;stroke-miterlimit:4;stroke-dasharray:none;stroke-opacity:1;"/>
  <path id="path252" d="  M 367.59048,330.13292   L 367.59048,325.19959   L 371.19039,325.19959   L 371.19039,330.13292   L 372.72368,330.13292   L 372.72368,325.19959   L 376.32359,325.19959   L 376.32359,330.13292   L 377.79021,330.13292   L 377.79021,325.19959   L 381.39012,325.19959   L 381.39012,330.13292   L 382.72342,330.13292   L 382.72342,325.19959   L 386.32333,325.19959   L 386.32333,330.13292   L 387.78996,330.13292   L 387.78996,325.19959   L 391.3232,325.19959   L 391.3232,330.13292   L 392.38984,330.13292   L 392.38984,325.19959   L 395.98974,325.19959   L 395.98974,330.13292   L 397.45637,330.13292   L 397.45637,325.19959   L 400.98961,325.19959   L 400.98961,330.13292   L 402.52291,330.13292   L 402.52291,325.19959   L 406.12281,325.19959   L 406.12281,330.13292   L 407.52278,330.13292   L 407.52278,325.19959   L 411.05602,325.19959   L 411.05602,330.13292   L 412.45598,330.13292   L 412.45598,325.19959   L 416.05589,325.19959   L 416.05589,330.13292   L 417.38919,330.13292   L 417.38919,325.19959   L 420.9891,325.19959   L 420.9891,330.13292   L 422.52239,330.13292   L 422.52239,325.19959   L 426.05563,325.19959   L 426.05563,330.13292   L 427.58892,330.13292   L 427.58892,325.19959   L 427.58892,330.13292   L 427.58892,325.19959   L 431.12217,325.19959   L 431.12217,330.13292   L 432.52213,330.13292   L 432.52213,325.19959   L 436.05537,325.19959   L 436.05537,330.13292   L 437.522,330.13292   L 437.522,325.19959   L 441.12191,325.19959   L 441.12191,330.13292   L 442.12188,330.13292   L 442.12188,325.19959   L 445.72179,325.19959   L 445.72179,330.13292   L 447.18842,330.13292   L 447.18842,325.19959   L 450.78832,325.19959   L 450.78832,330.13292   L 452.32162,330.13292   L 452.32162,325.19959   L 455.85486,325.19959   L 455.85486,330.13292   L 457.25482,330.13292   L 457.25482,325.19959   L 460.85473,325.19959   L 460.85473,330.13292   L 462.25469,330.13292   L 462.25469,325.19959   L 465.78794,325.19959   L 465.78794,330.13292   L 367.59048,330.13292   L 368.99044,331.26625   L 368.99044,350.93289   L 367.32382,352.19956   L 370.92373,352.19956   L 370.92373,357.13288   L 372.45702,357.13288   L 372.45702,352.19956   L 375.99026,352.19956   L 375.99026,357.13288   L 377.52355,357.13288   L 377.52355,352.19956   L 381.0568,352.19956   L 381.0568,357.13288   L 382.45676,357.13288   L 382.45676,352.19956   L 385.99,352.19956   L 385.99,357.13288   L 387.45663,357.13288   L 387.45663,352.19956   L 391.05654,352.19956   L 391.05654,357.13288   L 392.05651,357.13288   L 392.05651,352.19956   L 395.65642,352.19956   L 395.65642,357.13288   L 397.12305,357.13288   L 397.12305,352.19956   L 400.72295,352.19956   L 400.72295,357.13288   L 402.25625,357.13288   L 402.25625,352.19956   L 405.78949,352.19956   L 405.78949,357.13288   L 407.18945,357.13288   L 407.18945,352.19956   L 410.78936,352.19956   L 410.78936,357.13288   L 412.18932,357.13288   L 412.18932,352.19956   L 415.72257,352.19956   L 415.72257,357.13288   L 417.05586,357.13288   L 417.05586,352.19956   L 420.65577,352.19956   L 420.65577,357.13288   L 422.18906,357.13288   L 422.18906,352.19956   L 425.78897,352.19956   L 425.78897,357.13288   L 427.2556,357.13288   L 427.2556,352.19956   L 430.85551,352.19956   L 430.85551,357.13288   L 432.18881,357.13288   L 432.18881,352.19956   L 435.78871,352.19956   L 435.78871,357.13288   L 437.25534,357.13288   L 437.25534,352.19956   L 440.78858,352.19956   L 440.78858,357.13288   L 441.85522,357.13288   L 441.85522,352.19956   L 445.45513,352.19956   L 445.45513,357.13288   L 446.92176,357.13288   L 446.92176,352.19956   L 450.455,352.19956   L 450.455,357.13288   L 451.98829,357.13288   L 451.98829,352.19956   L 455.5882,352.19956   L 455.5882,357.13288   L 456.98816,357.13288   L 456.98816,352.19956   L 460.5214,352.19956   L 460.5214,357.13288   L 461.92137,357.13288   L 461.92137,352.19956   L 465.52128,352.19956   L 465.52128,357.13288   L 367.32382,357.13288   L 367.32382,352.19956   L 368.99044,350.93289   L 368.99044,331.26625   L 367.59048,330.13292  z " clip-path="url(#clipWmfPath1)" style="fill:#ffffff;fill-rule:nonzero;fill-opacity:1;stroke:none;"/>
  <path id="path254" d="  M 367.59048,330.13292   L 367.59048,325.19959   L 371.19039,325.19959   L 371.19039,330.13292   L 372.72368,330.13292   L 372.72368,325.19959   L 376.32359,325.19959   L 376.32359,330.13292   L 377.79021,330.13292   L 377.79021,325.19959   L 381.39012,325.19959   L 381.39012,330.13292   L 382.72342,330.13292   L 382.72342,325.19959   L 386.32333,325.19959   L 386.32333,330.13292   L 387.78996,330.13292   L 387.78996,325.19959   L 391.3232,325.19959   L 391.3232,330.13292   L 392.38984,330.13292   L 392.38984,325.19959   L 395.98974,325.19959   L 395.98974,330.13292   L 397.45637,330.13292   L 397.45637,325.19959   L 400.98961,325.19959   L 400.98961,330.13292   L 402.52291,330.13292   L 402.52291,325.19959   L 406.12281,325.19959   L 406.12281,330.13292   L 407.52278,330.13292   L 407.52278,325.19959   L 411.05602,325.19959   L 411.05602,330.13292   L 412.45598,330.13292   L 412.45598,325.19959   L 416.05589,325.19959   L 416.05589,330.13292   L 417.38919,330.13292   L 417.38919,325.19959   L 420.9891,325.19959   L 420.9891,330.13292   L 422.52239,330.13292   L 422.52239,325.19959   L 426.05563,325.19959   L 426.05563,330.13292   L 427.58892,330.13292   L 427.58892,325.19959   L 427.58892,330.13292   L 427.58892,325.19959   L 431.12217,325.19959   L 431.12217,330.13292   L 432.52213,330.13292   L 432.52213,325.19959   L 436.05537,325.19959   L 436.05537,330.13292   L 437.522,330.13292   L 437.522,325.19959   L 441.12191,325.19959   L 441.12191,330.13292   L 442.12188,330.13292   L 442.12188,325.19959   L 445.72179,325.19959   L 445.72179,330.13292   L 447.18842,330.13292   L 447.18842,325.19959   L 450.78832,325.19959   L 450.78832,330.13292   L 452.32162,330.13292   L 452.32162,325.19959   L 455.85486,325.19959   L 455.85486,330.13292   L 457.25482,330.13292   L 457.25482,325.19959   L 460.85473,325.19959   L 460.85473,330.13292   L 462.25469,330.13292   L 462.25469,325.19959   L 465.78794,325.19959   L 465.78794,330.13292   L 367.59048,330.13292   L 368.99044,331.26625   L 368.99044,350.93289   L 367.32382,352.19956   L 370.92373,352.19956   L 370.92373,357.13288   L 372.45702,357.13288   L 372.45702,352.19956   L 375.99026,352.19956   L 375.99026,357.13288   L 377.52355,357.13288   L 377.52355,352.19956   L 381.0568,352.19956   L 381.0568,357.13288   L 382.45676,357.13288   L 382.45676,352.19956   L 385.99,352.19956   L 385.99,357.13288   L 387.45663,357.13288   L 387.45663,352.19956   L 391.05654,352.19956   L 391.05654,357.13288   L 392.05651,357.13288   L 392.05651,352.19956   L 395.65642,352.19956   L 395.65642,357.13288   L 397.12305,357.13288   L 397.12305,352.19956   L 400.72295,352.19956   L 400.72295,357.13288   L 402.25625,357.13288   L 402.25625,352.19956   L 405.78949,352.19956   L 405.78949,357.13288   L 407.18945,357.13288   L 407.18945,352.19956   L 410.78936,352.19956   L 410.78936,357.13288   L 412.18932,357.13288   L 412.18932,352.19956   L 415.72257,352.19956   L 415.72257,357.13288   L 417.05586,357.13288   L 417.05586,352.19956   L 420.65577,352.19956   L 420.65577,357.13288   L 422.18906,357.13288   L 422.18906,352.19956   L 425.78897,352.19956   L 425.78897,357.13288   L 427.2556,357.13288   L 427.2556,352.19956   L 430.85551,352.19956   L 430.85551,357.13288   L 432.18881,357.13288   L 432.18881,352.19956   L 435.78871,352.19956   L 435.78871,357.13288   L 437.25534,357.13288   L 437.25534,352.19956   L 440.78858,352.19956   L 440.78858,357.13288   L 441.85522,357.13288   L 441.85522,352.19956   L 445.45513,352.19956   L 445.45513,357.13288   L 446.92176,357.13288   L 446.92176,352.19956   L 450.455,352.19956   L 450.455,357.13288   L 451.98829,357.13288   L 451.98829,352.19956   L 455.5882,352.19956   L 455.5882,357.13288   L 456.98816,357.13288   L 456.98816,352.19956   L 460.5214,352.19956   L 460.5214,357.13288   L 461.92137,357.13288   L 461.92137,352.19956   L 465.52128,352.19956   L 465.52128,357.13288   L 367.32382,357.13288   L 367.32382,352.19956   L 368.99044,350.93289   L 368.99044,331.26625   L 367.59048,330.13292  z " clip-path="url(#clipWmfPath1)" style="fill:none;stroke:#000000;stroke-width:0.066664942px;stroke-linecap:round;stroke-linejoin:round;stroke-miterlimit:4;stroke-dasharray:none;stroke-opacity:1;"/>
  <path id="path256" d="  M 425.85564,334.39958   L 426.85561,334.53291   L 427.65559,334.99958   L 428.25557,335.66624   L 428.45557,336.39958   L 428.45557,345.86623   L 428.25557,346.59956   L 427.65559,347.19956   L 426.85561,347.5329   L 425.85564,347.66623   L 406.58947,347.66623   L 405.58949,347.5329   L 404.78952,347.1329   L 404.18953,346.46623   L 403.98954,345.7329   L 403.98954,336.33291   L 404.18953,335.59958   L 404.78952,334.99958   L 405.58949,334.53291   L 406.58947,334.39958   L 425.85564,334.39958  z " clip-path="url(#clipWmfPath1)" style="fill:#ffffff;fill-rule:nonzero;fill-opacity:1;stroke:none;"/>
  <path id="path258" d="  M 406.58947,333.86625   L 406.58947,334.93291   L 425.78897,334.93291   L 426.65562,334.99958   L 427.32226,335.39958   L 427.78892,335.93291   L 427.92225,336.46624   L 427.92225,345.79956   L 427.78892,346.3329   L 427.38893,346.79956   L 426.72228,347.06623   L 425.78897,347.1329   L 406.65613,347.1329   L 405.72282,347.06623   L 405.12284,346.7329   L 404.65619,346.19956   L 404.52286,345.66623   L 404.52286,336.39958   L 404.65619,335.86624   L 405.12284,335.39958   L 405.78949,334.99958   L 406.65613,334.93291   L 425.78897,334.93291   L 426.78895,335.06624   L 426.92228,333.99958   L 425.9223,333.86625   L 406.5228,333.86625   L 405.3895,334.06625   L 404.45619,334.59958   L 403.72288,335.33291   L 403.45622,336.26624   L 403.45622,345.79956   L 403.72288,346.7329   L 404.45619,347.5329   L 405.45616,347.99956   L 406.5228,348.19956   L 425.9223,348.19956   L 426.98894,347.99956   L 427.92225,347.59956   L 428.72223,346.86623   L 428.98889,345.9329   L 428.98889,336.33291   L 428.72223,335.39958   L 427.98891,334.59958   L 427.05561,334.06625   L 425.9223,333.86625   L 406.58947,333.86625  z " clip-path="url(#clipWmfPath1)" style="fill:#000000;fill-rule:nonzero;fill-opacity:1;stroke:#000000;stroke-width:0.066664942px;stroke-linecap:round;stroke-linejoin:round;stroke-miterlimit:4;stroke-dasharray:none;stroke-opacity:1;"/>
  <g id="g260" clip-path="url(#clipWmfPath1)"/>
  <g id="g272" clip-path="url(#clipWmfPath1)">
    <text id="text270" y="0.000000" x="0.000000" transform="matrix(1.000000,-0.000000,0.000000,1.000000,406.256144,345.532898)" style="font-size:10.687500px;font-style:normal;font-variant:normal;font-weight:400;font-stretch:Condensed;line-height:125.000000%;letter-spacing:0px;word-spacing:0px;fill:#000000;fill-opacity:1;stroke:none;font-family:Helvetica-Narrow;text-align:start;text-anchor:start;" xml:space="preserve"><tspan id="tspan268" y="0.000000" x="0.000000"><tspan id="tspan262" style="fill:#000000;font-size:10.687500px;font-style:normal;font-variant:normal;font-weight:400;font-stretch:Condensed;font-family:Helvetica-Narrow;" dy="0.000000" dx="0.000000">N</tspan><tspan id="tspan264" style="fill:#000000;font-size:10.687500px;font-style:normal;font-variant:normal;font-weight:400;font-stretch:Condensed;font-family:Helvetica-Narrow;" dy="0.000000" dx="0.016319">P</tspan><tspan id="tspan266" style="fill:#000000;font-size:10.687500px;font-style:normal;font-variant:normal;font-weight:400;font-stretch:Condensed;font-family:Helvetica-Narrow;" dy="0.000000" dx="0.030602">U</tspan></tspan></text>
  </g>
  <g id="g274" clip-path="url(#clipWmfPath1)"/>
  <g id="g290" clip-path="url(#clipWmfPath1)">
    <text id="text288" y="0.000000" x="0.000000" transform="matrix(1.000000,-0.000000,0.000000,1.000000,352.257542,38.933284)" style="font-size:9.312500px;font-style:normal;font-variant:normal;font-weight:400;font-stretch:Condensed;line-height:125.000000%;letter-spacing:0px;word-spacing:0px;fill:#000000;fill-opacity:1;stroke:none;font-family:Helvetica-Narrow;text-align:start;text-anchor:start;" xml:space="preserve"><tspan id="tspan286" y="0.000000" x="0.000000"><tspan id="tspan276" style="fill:#000000;font-size:9.312500px;font-style:normal;font-variant:normal;font-weight:400;font-stretch:Condensed;font-family:Helvetica-Narrow;" dy="0.000000" dx="0.000000">M</tspan><tspan id="tspan278" style="fill:#000000;font-size:9.312500px;font-style:normal;font-variant:normal;font-weight:400;font-stretch:Condensed;font-family:Helvetica-Narrow;" dy="0.000000" dx="0.202622">3</tspan><tspan id="tspan280" style="fill:#000000;font-size:9.312500px;font-style:normal;font-variant:normal;font-weight:400;font-stretch:Condensed;font-family:Helvetica-Narrow;" dy="0.000000" dx="0.183282">5</tspan><tspan id="tspan282" style="fill:#000000;font-size:9.312500px;font-style:normal;font-variant:normal;font-weight:400;font-stretch:Condensed;font-family:Helvetica-Narrow;" dy="0.000000" dx="0.183282">8</tspan><tspan id="tspan284" style="fill:#000000;font-size:9.312500px;font-style:normal;font-variant:normal;font-weight:400;font-stretch:Condensed;font-family:Helvetica-Narrow;" dy="0.000000" dx="0.183282">3</tspan></tspan></text>
  </g>
  <path id="path292" d="  M 21.99943,198.39975   L 21.99943,12.333318   L 148.06283,12.333318   L 148.06283,198.39975   L 21.99943,198.39975  z " clip-path="url(#clipWmfPath1)" style="fill:#bfbfbf;fill-rule:evenodd;fill-opacity:1;stroke:none;"/>
  <path id="path294" d="  M 21.99943,198.39975   L 21.99943,12.333318   L 148.06283,12.333318   L 148.06283,198.39975   L 21.99943,198.39975  z " clip-path="url(#clipWmfPath1)" style="fill:none;stroke:#000000;stroke-width:0.066664942px;stroke-linecap:round;stroke-linejoin:round;stroke-miterlimit:4;stroke-dasharray:none;stroke-opacity:1;"/>
  <path id="path296" d="  M 98.130792,98.666542   L 99.197431,98.799875   L 100.06407,99.266542   L 100.66406,99.933207   L 100.86405,100.66654   L 100.86405,110.13319   L 100.66406,110.86653   L 100.06407,111.46653   L 99.197431,111.79986   L 98.130792,111.93319   L 71.79814,111.93319   L 70.731501,111.79986   L 69.864857,111.33319   L 69.264873,110.66653   L 69.064878,109.93319   L 69.064878,100.53321   L 69.264873,99.799874   L 69.864857,99.199875   L 70.731501,98.799875   L 71.79814,98.666542   L 98.130792,98.666542  z " clip-path="url(#clipWmfPath1)" style="fill:#ffffff;fill-rule:nonzero;fill-opacity:1;stroke:none;"/>
  <path id="path298" d="  M 71.79814,98.13321   L 71.79814,99.199875   L 98.130792,99.199875   L 99.064101,99.266542   L 99.73075,99.666541   L 100.1974,100.19987   L 100.33073,100.73321   L 100.33073,110.06653   L 100.1974,110.59986   L 99.797415,110.99986   L 99.064101,111.33319   L 98.130792,111.39986   L 71.79814,111.39986   L 70.864831,111.33319   L 70.198182,110.93319   L 69.731527,110.39986   L 69.598197,109.86653   L 69.598197,100.59987   L 69.731527,100.06654   L 70.131517,99.599874   L 70.864831,99.266542   L 71.79814,99.199875   L 98.130792,99.199875   L 99.130766,99.333208   L 99.264096,98.266543   L 98.130792,98.13321   L 71.79814,98.13321   L 70.598171,98.333209   L 69.598197,98.799875   L 68.798218,99.533208   L 68.531558,100.46654   L 68.531558,109.99986   L 68.798218,110.93319   L 69.531532,111.73319   L 70.598171,112.26653   L 71.79814,112.46652   L 98.130792,112.46652   L 99.33076,112.26653   L 100.33073,111.93319   L 101.13071,111.13319   L 101.39737,110.19986   L 101.39737,100.59987   L 101.13071,99.666541   L 100.3974,98.866542   L 99.33076,98.333209   L 98.130792,98.13321   L 71.79814,98.13321  z " clip-path="url(#clipWmfPath1)" style="fill:#000000;fill-rule:nonzero;fill-opacity:1;stroke:#000000;stroke-width:0.066664942px;stroke-linecap:round;stroke-linejoin:round;stroke-miterlimit:4;stroke-dasharray:none;stroke-opacity:1;"/>
  <g id="g300" clip-path="url(#clipWmfPath1)"/>
  <g id="g314" clip-path="url(#clipWmfPath1)">
    <text id="text312" y="0.000000" x="0.000000" transform="matrix(1.000000,-0.000000,0.000000,1.000000,70.398177,109.466529)" style="font-size:10.687500px;font-style:normal;font-variant:normal;font-weight:400;font-stretch:Condensed;line-height:125.000000%;letter-spacing:0px;word-spacing:0px;fill:#000000;fill-opacity:1;stroke:none;font-family:Helvetica-Narrow;text-align:start;text-anchor:start;" xml:space="preserve"><tspan id="tspan310" y="0.000000" x="0.000000"><tspan id="tspan302" style="fill:#000000;font-size:10.687500px;font-style:normal;font-variant:normal;font-weight:400;font-stretch:Condensed;font-family:Helvetica-Narrow;" dy="0.000000" dx="0.000000">D</tspan><tspan id="tspan304" style="fill:#000000;font-size:10.687500px;font-style:normal;font-variant:normal;font-weight:400;font-stretch:Condensed;font-family:Helvetica-Narrow;" dy="0.000000" dx="-0.050346">R</tspan><tspan id="tspan306" style="fill:#000000;font-size:10.687500px;font-style:normal;font-variant:normal;font-weight:400;font-stretch:Condensed;font-family:Helvetica-Narrow;" dy="0.000000" dx="0.016319">A</tspan><tspan id="tspan308" style="fill:#000000;font-size:10.687500px;font-style:normal;font-variant:normal;font-weight:400;font-stretch:Condensed;font-family:Helvetica-Narrow;" dy="0.000000" dx="-0.102728">M</tspan></tspan></text>
  </g>
  <path id="path316" d="  M 29.665898,244.06636   L 29.665898,246.86636   L 29.532568,247.59969   L 29.132579,248.13302   L 28.465929,248.39969   L 27.732615,248.53302   L 4.5998809,248.53302   L 3.8665665,248.39969   L 3.2665821,247.99969   L 2.7999275,247.33302   L 2.6665976,246.59969   L 2.6665976,237.13303   L 2.7999275,236.3997   L 3.2665821,235.86637   L 3.8665665,235.46637   L 4.5998809,235.33304   L 27.732615,235.33304   L 28.465929,235.53304   L 29.132579,235.9997   L 29.532568,236.66637   L 29.665898,237.46637   L 29.665898,239.9997   L 41.732252,241.99969   L 29.665898,244.06636  z " clip-path="url(#clipWmfPath1)" style="fill:#ffffff;fill-rule:nonzero;fill-opacity:1;stroke:none;"/>
  <path id="path318" d="  M 41.798917,242.46636   L 42.265572,241.93303   L 41.665587,241.53303   L 29.132579,243.66636   L 29.132579,246.79969   L 29.065914,247.39969   L 28.799254,247.73302   L 28.332599,247.93302   L 27.66595,247.99969   L 4.6665458,247.99969   L 4.0665613,247.93302   L 3.5999068,247.59969   L 3.2665821,247.13302   L 3.1999171,246.53302   L 3.1999171,237.1997   L 3.2665821,236.5997   L 3.5999068,236.26637   L 4.0665613,235.93304   L 4.6665458,235.86637   L 27.66595,235.86637   L 28.265935,235.9997   L 28.732589,236.33304   L 29.065914,236.86637   L 29.132579,237.53303   L 29.132579,240.3997   L 38.665665,241.99969   L 29.132579,243.66636   L 29.132579,246.86636   L 29.665898,247.39969   L 30.199218,246.86636   L 30.199218,244.46636   L 41.798917,242.46636   L 41.798917,241.53303   L 30.199218,239.5997   L 30.199218,237.3997   L 29.999223,236.46637   L 29.532568,235.66637   L 28.665924,235.06637   L 27.79928,234.7997   L 4.5332159,234.7997   L 3.6665717,234.9997   L 2.9332574,235.46637   L 2.3332729,236.1997   L 2.1332781,237.06637   L 2.1332781,246.66636   L 2.3332729,247.53302   L 2.9332574,248.39969   L 3.6665717,248.86635   L 4.5332159,249.06635   L 27.79928,249.06635   L 28.599259,248.86635   L 29.465903,248.53302   L 29.999223,247.79969   L 30.199218,246.93302   L 30.199218,244.46636   L 41.798917,242.46636  z " clip-path="url(#clipWmfPath1)" style="fill:#000000;fill-rule:nonzero;fill-opacity:1;stroke:#000000;stroke-width:0.066664942px;stroke-linecap:round;stroke-linejoin:round;stroke-miterlimit:4;stroke-dasharray:none;stroke-opacity:1;"/>
  <path id="path320" d="  M 214.26112,293.99963   L 214.26112,296.79963   L 214.12779,297.53296   L 213.7278,298.06629   L 213.06115,298.33296   L 212.32783,298.46629   L 189.1951,298.46629   L 188.46179,298.33296   L 187.8618,297.93296   L 187.39515,297.26629   L 187.26182,296.53296   L 187.26182,287.0663   L 187.39515,286.33297   L 187.8618,285.79964   L 188.46179,285.39964   L 189.1951,285.26631   L 212.32783,285.26631   L 213.06115,285.46631   L 213.7278,285.93297   L 214.12779,286.59964   L 214.26112,287.39964   L 214.26112,289.93297   L 226.32747,291.93297   L 214.26112,293.99963  z " clip-path="url(#clipWmfPath1)" style="fill:#ffffff;fill-rule:nonzero;fill-opacity:1;stroke:none;"/>
  <path id="path322" d="  M 226.39414,292.39963   L 226.86079,291.8663   L 226.26081,291.4663   L 213.7278,293.59963   L 213.7278,296.73296   L 213.66113,297.33296   L 213.39447,297.66629   L 212.92782,297.86629   L 212.26117,297.93296   L 189.26176,297.93296   L 188.66178,297.86629   L 188.19513,297.53296   L 187.8618,297.06629   L 187.79514,296.46629   L 187.79514,287.13297   L 187.8618,286.53297   L 188.19513,286.19964   L 188.66178,285.86631   L 189.26176,285.79964   L 212.26117,285.79964   L 212.86115,285.93297   L 213.32781,286.26631   L 213.66113,286.79964   L 213.7278,287.4663   L 213.7278,290.33297   L 223.26088,291.93297   L 213.7278,293.59963   L 213.7278,296.79963   L 214.26112,297.33296   L 214.79444,296.79963   L 214.79444,294.39963   L 226.39414,292.39963   L 226.39414,291.4663   L 214.79444,289.53297   L 214.79444,287.33297   L 214.59444,286.39964   L 214.12779,285.59964   L 213.26114,284.99964   L 212.3945,284.73297   L 189.12843,284.73297   L 188.26179,284.93297   L 187.52848,285.39964   L 186.92849,286.13297   L 186.7285,286.99964   L 186.7285,296.59963   L 186.92849,297.46629   L 187.52848,298.33296   L 188.26179,298.79962   L 189.12843,298.99962   L 212.3945,298.99962   L 213.19448,298.79962   L 214.06112,298.46629   L 214.59444,297.73296   L 214.79444,296.86629   L 214.79444,294.39963   L 226.39414,292.39963  z " clip-path="url(#clipWmfPath1)" style="fill:#000000;fill-rule:nonzero;fill-opacity:1;stroke:#000000;stroke-width:0.066664942px;stroke-linecap:round;stroke-linejoin:round;stroke-miterlimit:4;stroke-dasharray:none;stroke-opacity:1;"/>
  <path id="path324" d="  M 214.59444,64.666585   L 214.59444,61.866589   L 214.72777,61.133256   L 215.19443,60.66659   L 215.79441,60.333257   L 216.52772,60.199924   L 239.66046,60.199924   L 240.39377,60.333257   L 241.06042,60.799923   L 241.46041,61.399923   L 241.59374,62.133255   L 241.59374,71.59991   L 241.46041,72.333242   L 241.06042,72.933241   L 240.39377,73.266574   L 239.66046,73.399907   L 216.52772,73.399907   L 215.79441,73.199908   L 215.19443,72.733242   L 214.72777,72.066576   L 214.59444,71.266577   L 214.59444,68.733247   L 202.52809,66.733249   L 214.59444,64.666585  z " clip-path="url(#clipWmfPath1)" style="fill:#ffffff;fill-rule:nonzero;fill-opacity:1;stroke:none;"/>
  <path id="path326" d="  M 202.46142,66.266583   L 201.99477,66.799916   L 202.59475,67.199915   L 215.12776,65.066585   L 215.12776,61.933255   L 215.19443,61.399923   L 215.52775,61.06659   L 215.99441,60.799923   L 216.59439,60.733257   L 239.59379,60.733257   L 240.19378,60.799923   L 240.66043,61.133256   L 240.99376,61.599922   L 241.06042,62.199922   L 241.06042,71.533243   L 240.99376,72.133242   L 240.7271,72.533242   L 240.26044,72.799908   L 239.59379,72.866575   L 216.59439,72.866575   L 215.99441,72.733242   L 215.59442,72.399909   L 215.19443,71.866576   L 215.12776,71.19991   L 215.12776,68.333247   L 205.59467,66.733249   L 215.12776,65.066585   L 215.12776,61.866589   L 214.59444,61.333256   L 214.06112,61.866589   L 214.06112,64.266586   L 202.46142,66.266583   L 202.46142,67.199915   L 214.06112,69.133246   L 214.06112,71.333243   L 214.26112,72.266576   L 214.79444,73.066575   L 215.59442,73.666574   L 216.46106,73.93324   L 239.72712,73.93324   L 240.5271,73.73324   L 241.39375,73.333241   L 241.92707,72.533242   L 242.12706,71.666576   L 242.12706,62.066588   L 241.92707,61.199923   L 241.46041,60.46659   L 240.59377,59.866591   L 239.72712,59.666591   L 216.46106,59.666591   L 215.59442,59.866591   L 214.8611,60.266591   L 214.26112,60.86659   L 214.06112,61.799922   L 214.06112,64.266586   L 202.46142,66.266583  z " clip-path="url(#clipWmfPath1)" style="fill:#000000;fill-rule:nonzero;fill-opacity:1;stroke:#000000;stroke-width:0.066664942px;stroke-linecap:round;stroke-linejoin:round;stroke-miterlimit:4;stroke-dasharray:none;stroke-opacity:1;"/>
  <g id="g328" clip-path="url(#clipWmfPath1)"/>
  <g id="g340" clip-path="url(#clipWmfPath1)">
    <text id="text338" y="0.000000" x="0.000000" transform="matrix(1.000000,-0.000000,0.000000,1.000000,190.861723,295.466294)" style="font-size:10.687500px;font-style:normal;font-variant:normal;font-weight:400;font-stretch:Condensed;line-height:125.000000%;letter-spacing:0px;word-spacing:0px;fill:#000000;fill-opacity:1;stroke:none;font-family:Helvetica-Narrow;text-align:start;text-anchor:start;" xml:space="preserve"><tspan id="tspan336" y="0.000000" x="0.000000"><tspan id="tspan330" style="fill:#000000;font-size:10.687500px;font-style:normal;font-variant:normal;font-weight:400;font-stretch:Condensed;font-family:Helvetica-Narrow;" dy="0.000000" dx="0.000000">S</tspan><tspan id="tspan332" style="fill:#000000;font-size:10.687500px;font-style:normal;font-variant:normal;font-weight:400;font-stretch:Condensed;font-family:Helvetica-Narrow;" dy="0.000000" dx="-0.102728">W</tspan><tspan id="tspan334" style="fill:#000000;font-size:10.687500px;font-style:normal;font-variant:normal;font-weight:400;font-stretch:Condensed;font-family:Helvetica-Narrow;" dy="0.000000" dx="0.004477">1</tspan></tspan></text>
  </g>
  <g id="g342" clip-path="url(#clipWmfPath1)"/>
  <g id="g354" clip-path="url(#clipWmfPath1)">
    <text id="text352" y="0.000000" x="0.000000" transform="matrix(1.000000,-0.000000,0.000000,1.000000,5.933180,245.999690)" style="font-size:10.687500px;font-style:normal;font-variant:normal;font-weight:400;font-stretch:Condensed;line-height:125.000000%;letter-spacing:0px;word-spacing:0px;fill:#000000;fill-opacity:1;stroke:none;font-family:Helvetica-Narrow;text-align:start;text-anchor:start;" xml:space="preserve"><tspan id="tspan350" y="0.000000" x="0.000000"><tspan id="tspan344" style="fill:#000000;font-size:10.687500px;font-style:normal;font-variant:normal;font-weight:400;font-stretch:Condensed;font-family:Helvetica-Narrow;" dy="0.000000" dx="0.000000">J</tspan><tspan id="tspan346" style="fill:#000000;font-size:10.687500px;font-style:normal;font-variant:normal;font-weight:400;font-stretch:Condensed;font-family:Helvetica-Narrow;" dy="0.000000" dx="0.028161">P</tspan><tspan id="tspan348" style="fill:#000000;font-size:10.687500px;font-style:normal;font-variant:normal;font-weight:400;font-stretch:Condensed;font-family:Helvetica-Narrow;" dy="0.000000" dx="-0.102728">4</tspan></tspan></text>
  </g>
  <path id="path356" d="  M 42.065577,246.19969   L 42.065577,236.33304   L 51.998653,236.33304   L 51.998653,246.19969   L 42.065577,246.19969  z " clip-path="url(#clipWmfPath1)" style="fill:#ffffff;fill-rule:nonzero;fill-opacity:1;stroke:none;"/>
  <path id="path358" d="  M 42.065577,246.19969   L 42.065577,236.33304   L 51.998653,236.33304   L 51.998653,246.19969   L 42.065577,246.19969  z " clip-path="url(#clipWmfPath1)" style="fill:none;stroke:#000000;stroke-width:0.066664942px;stroke-linecap:round;stroke-linejoin:round;stroke-miterlimit:4;stroke-dasharray:none;stroke-opacity:1;"/>
  <path id="path360" d="  M 43.265546,240.33303   L 43.265546,237.5997   L 45.998809,237.5997   L 45.998809,240.33303   L 43.265546,240.33303  z " clip-path="url(#clipWmfPath1)" style="fill:#000000;fill-rule:nonzero;fill-opacity:1;stroke:none;"/>
  <path id="path362" d="  M 43.265546,240.33303   L 43.265546,237.5997   L 45.998809,237.5997   L 45.998809,240.33303   L 43.265546,240.33303  z " clip-path="url(#clipWmfPath1)" style="fill:none;stroke:#000000;stroke-width:0.066664942px;stroke-linecap:round;stroke-linejoin:round;stroke-miterlimit:4;stroke-dasharray:none;stroke-opacity:1;"/>
  <path id="path364" d="  M 47.998757,240.33303   L 47.998757,237.5997   L 50.732019,237.5997   L 50.732019,240.33303   L 47.998757,240.33303  z " clip-path="url(#clipWmfPath1)" style="fill:#ffffff;fill-rule:nonzero;fill-opacity:1;stroke:none;"/>
  <path id="path366" d="  M 47.998757,240.33303   L 47.998757,237.5997   L 50.732019,237.5997   L 50.732019,240.33303   L 47.998757,240.33303  z " clip-path="url(#clipWmfPath1)" style="fill:none;stroke:#000000;stroke-width:0.066664942px;stroke-linecap:round;stroke-linejoin:round;stroke-miterlimit:4;stroke-dasharray:none;stroke-opacity:1;"/>
  <path id="path368" d="  M 43.265546,244.99969   L 43.265546,242.26636   L 45.998809,242.26636   L 45.998809,244.99969   L 43.265546,244.99969  z " clip-path="url(#clipWmfPath1)" style="fill:#000000;fill-rule:nonzero;fill-opacity:1;stroke:none;"/>
  <path id="path370" d="  M 43.265546,244.99969   L 43.265546,242.26636   L 45.998809,242.26636   L 45.998809,244.99969   L 43.265546,244.99969  z " clip-path="url(#clipWmfPath1)" style="fill:none;stroke:#000000;stroke-width:0.066664942px;stroke-linecap:round;stroke-linejoin:round;stroke-miterlimit:4;stroke-dasharray:none;stroke-opacity:1;"/>
  <path id="path372" d="  M 47.998757,244.99969   L 47.998757,242.26636   L 50.732019,242.26636   L 50.732019,244.99969   L 47.998757,244.99969  z " clip-path="url(#clipWmfPath1)" style="fill:#000000;fill-rule:nonzero;fill-opacity:1;stroke:none;"/>
  <path id="path374" d="  M 47.998757,244.99969   L 47.998757,242.26636   L 50.732019,242.26636   L 50.732019,244.99969   L 47.998757,244.99969  z " clip-path="url(#clipWmfPath1)" style="fill:none;stroke:#000000;stroke-width:0.066664942px;stroke-linecap:round;stroke-linejoin:round;stroke-miterlimit:4;stroke-dasharray:none;stroke-opacity:1;"/>
  <g id="g376" clip-path="url(#clipWmfPath1)"/>
  <g id="g384" clip-path="url(#clipWmfPath1)">
    <text id="text382" y="0.000000" x="0.000000" transform="matrix(1.000000,-0.000000,0.000000,1.000000,35.999068,236.399702)" style="font-size:10.687500px;font-style:normal;font-variant:normal;font-weight:400;font-stretch:Condensed;line-height:125.000000%;letter-spacing:0px;word-spacing:0px;fill:#000000;fill-opacity:1;stroke:none;font-family:Helvetica-Narrow;text-align:start;text-anchor:start;" xml:space="preserve"><tspan id="tspan380" y="0.000000" x="0.000000"><tspan id="tspan378" style="fill:#000000;font-size:10.687500px;font-style:normal;font-variant:normal;font-weight:400;font-stretch:Condensed;font-family:Helvetica-Narrow;" dy="0.000000" dx="0.000000">2</tspan></tspan></text>
  </g>
  <g id="g386" clip-path="url(#clipWmfPath1)"/>
  <g id="g398" clip-path="url(#clipWmfPath1)">
    <text id="text396" y="0.000000" x="0.000000" transform="matrix(1.000000,-0.000000,0.000000,1.000000,218.394343,70.466578)" style="font-size:10.687500px;font-style:normal;font-variant:normal;font-weight:400;font-stretch:Condensed;line-height:125.000000%;letter-spacing:0px;word-spacing:0px;fill:#000000;fill-opacity:1;stroke:none;font-family:Helvetica-Narrow;text-align:start;text-anchor:start;" xml:space="preserve"><tspan id="tspan394" y="0.000000" x="0.000000"><tspan id="tspan388" style="fill:#000000;font-size:10.687500px;font-style:normal;font-variant:normal;font-weight:400;font-stretch:Condensed;font-family:Helvetica-Narrow;" dy="0.000000" dx="0.000000">J</tspan><tspan id="tspan390" style="fill:#000000;font-size:10.687500px;font-style:normal;font-variant:normal;font-weight:400;font-stretch:Condensed;font-family:Helvetica-Narrow;" dy="0.000000" dx="0.028161">P</tspan><tspan id="tspan392" style="fill:#000000;font-size:10.687500px;font-style:normal;font-variant:normal;font-weight:400;font-stretch:Condensed;font-family:Helvetica-Narrow;" dy="0.000000" dx="-0.102728">3</tspan></tspan></text>
  </g>
  <g id="g400" clip-path="url(#clipWmfPath1)"/>
  <g id="g408" clip-path="url(#clipWmfPath1)">
    <text id="text406" y="0.000000" x="0.000000" transform="matrix(1.000000,-0.000000,0.000000,1.000000,186.128512,58.399926)" style="font-size:10.687500px;font-style:normal;font-variant:normal;font-weight:400;font-stretch:Condensed;line-height:125.000000%;letter-spacing:0px;word-spacing:0px;fill:#000000;fill-opacity:1;stroke:none;font-family:Helvetica-Narrow;text-align:start;text-anchor:start;" xml:space="preserve"><tspan id="tspan404" y="0.000000" x="0.000000"><tspan id="tspan402" style="fill:#000000;font-size:10.687500px;font-style:normal;font-variant:normal;font-weight:400;font-stretch:Condensed;font-family:Helvetica-Narrow;" dy="0.000000" dx="0.000000">2</tspan></tspan></text>
  </g>
</svg>