<svg xmlns:dc="http://purl.org/dc/elements/1.1/" xmlns:cc="http://creativecommons.org/ns#" xmlns:rdf="http://www.w3.org/1999/02/22-rdf-syntax-ns#" xmlns:svg="http://www.w3.org/2000/svg" xmlns="http://www.w3.org/2000/svg" id="svg480" height="67.760003mm" width="164.07001mm" version="1.0">
  <metadata id="metadata484">
    <rdf:RDF>
      <cc:Work rdf:about="">
        <dc:format>image/svg+xml</dc:format>
        <dc:type rdf:resource="http://purl.org/dc/dcmitype/StillImage"/>
      </cc:Work>
    </rdf:RDF>
  </metadata>
  <defs id="defs6">
    <clipPath id="clipWmfPath1" clipPathUnits="userSpaceOnUse">
      <path id="path2" d="M 0,0 L 620.00262,0 L 620.00262,255.99633 L 0,255.99633 z"/>
    </clipPath>
    <pattern y="0" x="0" height="6" width="6" patternUnits="userSpaceOnUse" id="WMFhbasepattern"/>
  </defs>
  <path id="path8" d="  M 574.80243,203.59708   L 540.60229,203.59708   L 540.73562,221.19683   L 387.86831,221.19683   L 387.86831,203.66374   L 379.13494,203.66374   L 379.13494,221.19683   L 288.40122,221.19683   L 288.40122,202.66376   L 13.000055,202.66376   L 13.000055,16.999756   L 574.80243,16.999756   L 574.80243,203.59708  z " clip-path="url(#clipWmfPath1)" style="fill:#e5e5e5;fill-rule:nonzero;fill-opacity:1;stroke:none;"/>
  <path id="path10" d="  M 575.33577,16.999756   L 574.2691,16.999756   L 574.2691,203.06375   L 540.06895,203.06375   L 540.20229,220.6635   L 388.40164,220.6635   L 388.40164,203.13042   L 378.6016,203.13042   L 378.6016,220.6635   L 288.93456,220.6635   L 288.93456,202.13043   L 13.533391,202.13043   L 13.533391,17.533082   L 574.2691,17.533082   L 574.2691,203.06375   L 540.60229,203.06375   L 540.60229,204.1304   L 575.33577,204.1304   L 575.33577,16.46643   L 12.466719,16.46643   L 12.466719,203.19708   L 287.86789,203.19708   L 287.86789,221.73015   L 379.66827,221.73015   L 379.66827,204.19707   L 387.33497,204.19707   L 387.33497,221.73015   L 541.26896,221.73015   L 541.13562,204.1304   L 575.33577,204.1304   L 575.33577,16.999756  z " clip-path="url(#clipWmfPath1)" style="fill:#000000;fill-rule:nonzero;fill-opacity:1;stroke:#000000;stroke-width:0.066666946px;stroke-linecap:round;stroke-linejoin:round;stroke-miterlimit:4;stroke-dasharray:none;stroke-opacity:1;"/>
  <path id="path12" d="  M 375.40159,220.59683   L 375.40159,208.59701   L 375.33492,207.59702   L 375.13492,206.6637   L 374.66825,205.99704   L 373.80158,205.73038   L 373.00158,206.06371   L 372.60158,206.73037   L 372.40158,208.33034   L 372.40158,220.59683   L 375.40159,220.59683  z " clip-path="url(#clipWmfPath1)" style="fill:#bfbfbf;fill-rule:nonzero;fill-opacity:1;stroke:none;"/>
  <path id="path14" d="  M 375.40159,220.59683   L 375.40159,208.59701   L 375.33492,207.59702   L 375.13492,206.6637   L 374.66825,205.99704   L 373.80158,205.73038   L 373.00158,206.06371   L 372.60158,206.73037   L 372.40158,208.33034   L 372.40158,220.59683   L 375.40159,220.59683  z " clip-path="url(#clipWmfPath1)" style="fill:none;stroke:#000000;stroke-width:0.066666946px;stroke-linecap:round;stroke-linejoin:round;stroke-miterlimit:4;stroke-dasharray:none;stroke-opacity:1;"/>
  <path id="path16" d="  M 370.60157,220.59683   L 370.60157,208.59701   L 370.5349,207.59702   L 370.3349,206.6637   L 369.86823,205.99704   L 369.00156,205.73038   L 368.20156,206.06371   L 367.73489,206.73037   L 367.53489,208.33034   L 367.53489,220.59683   L 370.60157,220.59683  z " clip-path="url(#clipWmfPath1)" style="fill:#bfbfbf;fill-rule:nonzero;fill-opacity:1;stroke:none;"/>
  <path id="path18" d="  M 370.60157,220.59683   L 370.60157,208.59701   L 370.5349,207.59702   L 370.3349,206.6637   L 369.86823,205.99704   L 369.00156,205.73038   L 368.20156,206.06371   L 367.73489,206.73037   L 367.53489,208.33034   L 367.53489,220.59683   L 370.60157,220.59683  z " clip-path="url(#clipWmfPath1)" style="fill:none;stroke:#000000;stroke-width:0.066666946px;stroke-linecap:round;stroke-linejoin:round;stroke-miterlimit:4;stroke-dasharray:none;stroke-opacity:1;"/>
  <path id="path20" d="  M 365.66821,220.59683   L 365.66821,208.59701   L 365.60155,207.59702   L 365.40155,206.6637   L 364.93488,205.99704   L 364.06821,205.73038   L 363.2682,206.06371   L 362.8682,206.73037   L 362.6682,208.33034   L 362.6682,220.59683   L 365.66821,220.59683  z " clip-path="url(#clipWmfPath1)" style="fill:#bfbfbf;fill-rule:nonzero;fill-opacity:1;stroke:none;"/>
  <path id="path22" d="  M 365.66821,220.59683   L 365.66821,208.59701   L 365.60155,207.59702   L 365.40155,206.6637   L 364.93488,205.99704   L 364.06821,205.73038   L 363.2682,206.06371   L 362.8682,206.73037   L 362.6682,208.33034   L 362.6682,220.59683   L 365.66821,220.59683  z " clip-path="url(#clipWmfPath1)" style="fill:none;stroke:#000000;stroke-width:0.066666946px;stroke-linecap:round;stroke-linejoin:round;stroke-miterlimit:4;stroke-dasharray:none;stroke-opacity:1;"/>
  <path id="path24" d="  M 360.60153,220.59683   L 360.60153,208.59701   L 360.53486,207.59702   L 360.33486,206.6637   L 359.86819,205.99704   L 359.00152,205.73038   L 358.20152,206.06371   L 357.80151,206.73037   L 357.60151,208.33034   L 357.60151,220.59683   L 360.60153,220.59683  z " clip-path="url(#clipWmfPath1)" style="fill:#bfbfbf;fill-rule:nonzero;fill-opacity:1;stroke:none;"/>
  <path id="path26" d="  M 360.60153,220.59683   L 360.60153,208.59701   L 360.53486,207.59702   L 360.33486,206.6637   L 359.86819,205.99704   L 359.00152,205.73038   L 358.20152,206.06371   L 357.80151,206.73037   L 357.60151,208.33034   L 357.60151,220.59683   L 360.60153,220.59683  z " clip-path="url(#clipWmfPath1)" style="fill:none;stroke:#000000;stroke-width:0.066666946px;stroke-linecap:round;stroke-linejoin:round;stroke-miterlimit:4;stroke-dasharray:none;stroke-opacity:1;"/>
  <path id="path28" d="  M 356.00151,220.59683   L 356.00151,208.59701   L 355.93484,207.59702   L 355.73484,206.6637   L 355.26817,205.99704   L 354.4015,205.73038   L 353.6015,206.06371   L 353.2015,206.73037   L 353.00149,208.33034   L 353.00149,220.59683   L 356.00151,220.59683  z " clip-path="url(#clipWmfPath1)" style="fill:#bfbfbf;fill-rule:nonzero;fill-opacity:1;stroke:none;"/>
  <path id="path30" d="  M 356.00151,220.59683   L 356.00151,208.59701   L 355.93484,207.59702   L 355.73484,206.6637   L 355.26817,205.99704   L 354.4015,205.73038   L 353.6015,206.06371   L 353.2015,206.73037   L 353.00149,208.33034   L 353.00149,220.59683   L 356.00151,220.59683  z " clip-path="url(#clipWmfPath1)" style="fill:none;stroke:#000000;stroke-width:0.066666946px;stroke-linecap:round;stroke-linejoin:round;stroke-miterlimit:4;stroke-dasharray:none;stroke-opacity:1;"/>
  <path id="path32" d="  M 351.13482,220.59683   L 351.13482,208.59701   L 350.86815,206.6637   L 350.40148,205.99704   L 350.20148,205.79705   L 349.60148,205.73038   L 348.80148,206.06371   L 348.33481,206.73037   L 348.13481,208.33034   L 348.13481,220.59683   L 351.13482,220.59683  z " clip-path="url(#clipWmfPath1)" style="fill:#bfbfbf;fill-rule:nonzero;fill-opacity:1;stroke:none;"/>
  <path id="path34" d="  M 351.13482,220.59683   L 351.13482,208.59701   L 350.86815,206.6637   L 350.40148,205.99704   L 350.20148,205.79705   L 349.60148,205.73038   L 348.80148,206.06371   L 348.33481,206.73037   L 348.13481,208.33034   L 348.13481,220.59683   L 351.13482,220.59683  z " clip-path="url(#clipWmfPath1)" style="fill:none;stroke:#000000;stroke-width:0.066666946px;stroke-linecap:round;stroke-linejoin:round;stroke-miterlimit:4;stroke-dasharray:none;stroke-opacity:1;"/>
  <path id="path36" d="  M 346.26813,220.59683   L 346.26813,208.59701   L 346.20147,207.59702   L 346.00146,206.6637   L 345.5348,205.99704   L 344.66813,205.73038   L 343.86812,206.06371   L 343.46812,206.73037   L 343.26812,208.33034   L 343.26812,220.59683   L 346.26813,220.59683  z " clip-path="url(#clipWmfPath1)" style="fill:#bfbfbf;fill-rule:nonzero;fill-opacity:1;stroke:none;"/>
  <path id="path38" d="  M 346.26813,220.59683   L 346.26813,208.59701   L 346.20147,207.59702   L 346.00146,206.6637   L 345.5348,205.99704   L 344.66813,205.73038   L 343.86812,206.06371   L 343.46812,206.73037   L 343.26812,208.33034   L 343.26812,220.59683   L 346.26813,220.59683  z " clip-path="url(#clipWmfPath1)" style="fill:none;stroke:#000000;stroke-width:0.066666946px;stroke-linecap:round;stroke-linejoin:round;stroke-miterlimit:4;stroke-dasharray:none;stroke-opacity:1;"/>
  <path id="path40" d="  M 341.66811,220.59683   L 341.66811,208.59701   L 341.60145,207.59702   L 341.40145,206.6637   L 340.93478,205.99704   L 340.06811,205.73038   L 339.2681,206.06371   L 338.80143,206.73037   L 338.60143,208.33034   L 338.60143,220.59683   L 341.66811,220.59683  z " clip-path="url(#clipWmfPath1)" style="fill:#bfbfbf;fill-rule:nonzero;fill-opacity:1;stroke:none;"/>
  <path id="path42" d="  M 341.66811,220.59683   L 341.66811,208.59701   L 341.60145,207.59702   L 341.40145,206.6637   L 340.93478,205.99704   L 340.06811,205.73038   L 339.2681,206.06371   L 338.80143,206.73037   L 338.60143,208.33034   L 338.60143,220.59683   L 341.66811,220.59683  z " clip-path="url(#clipWmfPath1)" style="fill:none;stroke:#000000;stroke-width:0.066666946px;stroke-linecap:round;stroke-linejoin:round;stroke-miterlimit:4;stroke-dasharray:none;stroke-opacity:1;"/>
  <path id="path44" d="  M 337.06809,220.59683   L 337.06809,208.59701   L 337.00143,207.59702   L 336.80143,206.6637   L 336.33476,205.99704   L 335.46809,205.73038   L 334.66808,206.06371   L 334.26808,206.73037   L 334.06808,208.33034   L 334.06808,220.59683   L 337.06809,220.59683  z " clip-path="url(#clipWmfPath1)" style="fill:#bfbfbf;fill-rule:nonzero;fill-opacity:1;stroke:none;"/>
  <path id="path46" d="  M 337.06809,220.59683   L 337.06809,208.59701   L 337.00143,207.59702   L 336.80143,206.6637   L 336.33476,205.99704   L 335.46809,205.73038   L 334.66808,206.06371   L 334.26808,206.73037   L 334.06808,208.33034   L 334.06808,220.59683   L 337.06809,220.59683  z " clip-path="url(#clipWmfPath1)" style="fill:none;stroke:#000000;stroke-width:0.066666946px;stroke-linecap:round;stroke-linejoin:round;stroke-miterlimit:4;stroke-dasharray:none;stroke-opacity:1;"/>
  <path id="path48" d="  M 332.26807,220.59683   L 332.26807,208.59701   L 332.20141,207.59702   L 332.00141,206.6637   L 331.53474,205.99704   L 330.66807,205.73038   L 329.86806,206.06371   L 329.40139,206.73037   L 329.20139,208.33034   L 329.20139,220.59683   L 332.26807,220.59683  z " clip-path="url(#clipWmfPath1)" style="fill:#bfbfbf;fill-rule:nonzero;fill-opacity:1;stroke:none;"/>
  <path id="path50" d="  M 332.26807,220.59683   L 332.26807,208.59701   L 332.20141,207.59702   L 332.00141,206.6637   L 331.53474,205.99704   L 330.66807,205.73038   L 329.86806,206.06371   L 329.40139,206.73037   L 329.20139,208.33034   L 329.20139,220.59683   L 332.26807,220.59683  z " clip-path="url(#clipWmfPath1)" style="fill:none;stroke:#000000;stroke-width:0.066666946px;stroke-linecap:round;stroke-linejoin:round;stroke-miterlimit:4;stroke-dasharray:none;stroke-opacity:1;"/>
  <path id="path52" d="  M 327.40139,220.59683   L 327.40139,208.59701   L 327.33472,207.59702   L 327.13472,206.6637   L 326.66805,205.99704   L 325.80138,205.73038   L 325.00138,206.06371   L 324.60137,206.73037   L 324.40137,208.33034   L 324.40137,220.59683   L 327.40139,220.59683  z " clip-path="url(#clipWmfPath1)" style="fill:#bfbfbf;fill-rule:nonzero;fill-opacity:1;stroke:none;"/>
  <path id="path54" d="  M 327.40139,220.59683   L 327.40139,208.59701   L 327.33472,207.59702   L 327.13472,206.6637   L 326.66805,205.99704   L 325.80138,205.73038   L 325.00138,206.06371   L 324.60137,206.73037   L 324.40137,208.33034   L 324.40137,220.59683   L 327.40139,220.59683  z " clip-path="url(#clipWmfPath1)" style="fill:none;stroke:#000000;stroke-width:0.066666946px;stroke-linecap:round;stroke-linejoin:round;stroke-miterlimit:4;stroke-dasharray:none;stroke-opacity:1;"/>
  <path id="path56" d="  M 322.60137,220.59683   L 322.60137,208.59701   L 322.5347,207.59702   L 322.3347,206.6637   L 321.86803,205.99704   L 321.00136,205.73038   L 320.20136,206.06371   L 319.73469,206.73037   L 319.53469,208.33034   L 319.53469,220.59683   L 322.60137,220.59683  z " clip-path="url(#clipWmfPath1)" style="fill:#bfbfbf;fill-rule:nonzero;fill-opacity:1;stroke:none;"/>
  <path id="path58" d="  M 322.60137,220.59683   L 322.60137,208.59701   L 322.5347,207.59702   L 322.3347,206.6637   L 321.86803,205.99704   L 321.00136,205.73038   L 320.20136,206.06371   L 319.73469,206.73037   L 319.53469,208.33034   L 319.53469,220.59683   L 322.60137,220.59683  z " clip-path="url(#clipWmfPath1)" style="fill:none;stroke:#000000;stroke-width:0.066666946px;stroke-linecap:round;stroke-linejoin:round;stroke-miterlimit:4;stroke-dasharray:none;stroke-opacity:1;"/>
  <path id="path60" d="  M 317.93468,220.59683   L 317.93468,208.59701   L 317.86801,207.59702   L 317.66801,206.6637   L 317.20134,205.99704   L 316.33467,205.73038   L 315.53467,206.06371   L 315.068,206.73037   L 314.868,208.33034   L 314.868,220.59683   L 317.93468,220.59683  z " clip-path="url(#clipWmfPath1)" style="fill:#bfbfbf;fill-rule:nonzero;fill-opacity:1;stroke:none;"/>
  <path id="path62" d="  M 317.93468,220.59683   L 317.93468,208.59701   L 317.86801,207.59702   L 317.66801,206.6637   L 317.20134,205.99704   L 316.33467,205.73038   L 315.53467,206.06371   L 315.068,206.73037   L 314.868,208.33034   L 314.868,220.59683   L 317.93468,220.59683  z " clip-path="url(#clipWmfPath1)" style="fill:none;stroke:#000000;stroke-width:0.066666946px;stroke-linecap:round;stroke-linejoin:round;stroke-miterlimit:4;stroke-dasharray:none;stroke-opacity:1;"/>
  <path id="path64" d="  M 313.33466,220.59683   L 313.33466,208.59701   L 313.26799,207.59702   L 313.06799,206.6637   L 312.60132,205.99704   L 311.73465,205.73038   L 310.93465,206.06371   L 310.53465,206.73037   L 310.33465,208.33034   L 310.33465,220.59683   L 313.33466,220.59683  z " clip-path="url(#clipWmfPath1)" style="fill:#bfbfbf;fill-rule:nonzero;fill-opacity:1;stroke:none;"/>
  <path id="path66" d="  M 313.33466,220.59683   L 313.33466,208.59701   L 313.26799,207.59702   L 313.06799,206.6637   L 312.60132,205.99704   L 311.73465,205.73038   L 310.93465,206.06371   L 310.53465,206.73037   L 310.33465,208.33034   L 310.33465,220.59683   L 313.33466,220.59683  z " clip-path="url(#clipWmfPath1)" style="fill:none;stroke:#000000;stroke-width:0.066666946px;stroke-linecap:round;stroke-linejoin:round;stroke-miterlimit:4;stroke-dasharray:none;stroke-opacity:1;"/>
  <path id="path68" d="  M 308.73464,220.59683   L 308.73464,208.59701   L 308.66797,207.59702   L 308.46797,206.6637   L 308.0013,205.99704   L 307.13463,205.73038   L 306.33463,206.06371   L 305.86796,206.73037   L 305.66796,208.33034   L 305.66796,220.59683   L 308.73464,220.59683  z " clip-path="url(#clipWmfPath1)" style="fill:#bfbfbf;fill-rule:nonzero;fill-opacity:1;stroke:none;"/>
  <path id="path70" d="  M 308.73464,220.59683   L 308.73464,208.59701   L 308.66797,207.59702   L 308.46797,206.6637   L 308.0013,205.99704   L 307.13463,205.73038   L 306.33463,206.06371   L 305.86796,206.73037   L 305.66796,208.33034   L 305.66796,220.59683   L 308.73464,220.59683  z " clip-path="url(#clipWmfPath1)" style="fill:none;stroke:#000000;stroke-width:0.066666946px;stroke-linecap:round;stroke-linejoin:round;stroke-miterlimit:4;stroke-dasharray:none;stroke-opacity:1;"/>
  <path id="path72" d="  M 304.06795,220.59683   L 304.06795,208.59701   L 303.80129,206.6637   L 303.33462,205.99704   L 303.13462,205.79705   L 302.53461,205.73038   L 301.73461,206.06371   L 301.33461,206.73037   L 301.13461,208.33034   L 301.13461,220.59683   L 304.06795,220.59683  z " clip-path="url(#clipWmfPath1)" style="fill:#bfbfbf;fill-rule:nonzero;fill-opacity:1;stroke:none;"/>
  <path id="path74" d="  M 304.06795,220.59683   L 304.06795,208.59701   L 303.80129,206.6637   L 303.33462,205.99704   L 303.13462,205.79705   L 302.53461,205.73038   L 301.73461,206.06371   L 301.33461,206.73037   L 301.13461,208.33034   L 301.13461,220.59683   L 304.06795,220.59683  z " clip-path="url(#clipWmfPath1)" style="fill:none;stroke:#000000;stroke-width:0.066666946px;stroke-linecap:round;stroke-linejoin:round;stroke-miterlimit:4;stroke-dasharray:none;stroke-opacity:1;"/>
  <path id="path76" d="  M 299.40127,220.59683   L 299.40127,208.59701   L 299.1346,206.6637   L 298.66793,205.99704   L 298.46793,205.79705   L 297.86793,205.73038   L 297.06792,206.06371   L 296.66792,206.73037   L 296.46792,208.33034   L 296.46792,220.59683   L 299.40127,220.59683  z " clip-path="url(#clipWmfPath1)" style="fill:#bfbfbf;fill-rule:nonzero;fill-opacity:1;stroke:none;"/>
  <path id="path78" d="  M 299.40127,220.59683   L 299.40127,208.59701   L 299.1346,206.6637   L 298.66793,205.99704   L 298.46793,205.79705   L 297.86793,205.73038   L 297.06792,206.06371   L 296.66792,206.73037   L 296.46792,208.33034   L 296.46792,220.59683   L 299.40127,220.59683  z " clip-path="url(#clipWmfPath1)" style="fill:none;stroke:#000000;stroke-width:0.066666946px;stroke-linecap:round;stroke-linejoin:round;stroke-miterlimit:4;stroke-dasharray:none;stroke-opacity:1;"/>
  <path id="path80" d="  M 294.60125,220.59683   L 294.60125,208.59701   L 294.53458,207.59702   L 294.33458,206.6637   L 293.86791,205.99704   L 293.00124,205.73038   L 292.20124,206.06371   L 291.80124,206.73037   L 291.60123,208.33034   L 291.60123,220.59683   L 294.60125,220.59683  z " clip-path="url(#clipWmfPath1)" style="fill:#bfbfbf;fill-rule:nonzero;fill-opacity:1;stroke:none;"/>
  <path id="path82" d="  M 294.60125,220.59683   L 294.60125,208.59701   L 294.53458,207.59702   L 294.33458,206.6637   L 293.86791,205.99704   L 293.00124,205.73038   L 292.20124,206.06371   L 291.80124,206.73037   L 291.60123,208.33034   L 291.60123,220.59683   L 294.60125,220.59683  z " clip-path="url(#clipWmfPath1)" style="fill:none;stroke:#000000;stroke-width:0.066666946px;stroke-linecap:round;stroke-linejoin:round;stroke-miterlimit:4;stroke-dasharray:none;stroke-opacity:1;"/>
  <path id="path84" d="  M 538.13561,220.59683   L 538.13561,208.59701   L 538.06894,207.59702   L 537.86894,206.6637   L 537.40227,205.99704   L 536.5356,205.73038   L 535.7356,206.06371   L 535.3356,206.73037   L 535.1356,208.33034   L 535.1356,220.59683   L 538.13561,220.59683  z " clip-path="url(#clipWmfPath1)" style="fill:#bfbfbf;fill-rule:nonzero;fill-opacity:1;stroke:none;"/>
  <path id="path86" d="  M 538.13561,220.59683   L 538.13561,208.59701   L 538.06894,207.59702   L 537.86894,206.6637   L 537.40227,205.99704   L 536.5356,205.73038   L 535.7356,206.06371   L 535.3356,206.73037   L 535.1356,208.33034   L 535.1356,220.59683   L 538.13561,220.59683  z " clip-path="url(#clipWmfPath1)" style="fill:none;stroke:#000000;stroke-width:0.066666946px;stroke-linecap:round;stroke-linejoin:round;stroke-miterlimit:4;stroke-dasharray:none;stroke-opacity:1;"/>
  <path id="path88" d="  M 533.40226,220.59683   L 533.40226,208.59701   L 533.33559,207.59702   L 533.13559,206.6637   L 532.66892,205.99704   L 531.80225,205.73038   L 531.00225,206.06371   L 530.60225,206.73037   L 530.40225,208.33034   L 530.40225,220.59683   L 533.40226,220.59683  z " clip-path="url(#clipWmfPath1)" style="fill:#bfbfbf;fill-rule:nonzero;fill-opacity:1;stroke:none;"/>
  <path id="path90" d="  M 533.40226,220.59683   L 533.40226,208.59701   L 533.33559,207.59702   L 533.13559,206.6637   L 532.66892,205.99704   L 531.80225,205.73038   L 531.00225,206.06371   L 530.60225,206.73037   L 530.40225,208.33034   L 530.40225,220.59683   L 533.40226,220.59683  z " clip-path="url(#clipWmfPath1)" style="fill:none;stroke:#000000;stroke-width:0.066666946px;stroke-linecap:round;stroke-linejoin:round;stroke-miterlimit:4;stroke-dasharray:none;stroke-opacity:1;"/>
  <path id="path92" d="  M 528.73557,220.59683   L 528.73557,208.59701   L 528.4689,206.6637   L 528.00223,205.99704   L 527.80223,205.79705   L 527.20223,205.73038   L 526.40223,206.06371   L 525.93556,206.73037   L 525.73556,208.33034   L 525.73556,220.59683   L 528.73557,220.59683  z " clip-path="url(#clipWmfPath1)" style="fill:#bfbfbf;fill-rule:nonzero;fill-opacity:1;stroke:none;"/>
  <path id="path94" d="  M 528.73557,220.59683   L 528.73557,208.59701   L 528.4689,206.6637   L 528.00223,205.99704   L 527.80223,205.79705   L 527.20223,205.73038   L 526.40223,206.06371   L 525.93556,206.73037   L 525.73556,208.33034   L 525.73556,220.59683   L 528.73557,220.59683  z " clip-path="url(#clipWmfPath1)" style="fill:none;stroke:#000000;stroke-width:0.066666946px;stroke-linecap:round;stroke-linejoin:round;stroke-miterlimit:4;stroke-dasharray:none;stroke-opacity:1;"/>
  <path id="path96" d="  M 524.06888,220.59683   L 524.06888,208.59701   L 523.80222,206.6637   L 523.33555,205.99704   L 523.13555,205.79705   L 522.53555,205.73038   L 521.73554,206.06371   L 521.33554,206.73037   L 521.13554,208.33034   L 521.13554,220.59683   L 524.06888,220.59683  z " clip-path="url(#clipWmfPath1)" style="fill:#bfbfbf;fill-rule:nonzero;fill-opacity:1;stroke:none;"/>
  <path id="path98" d="  M 524.06888,220.59683   L 524.06888,208.59701   L 523.80222,206.6637   L 523.33555,205.99704   L 523.13555,205.79705   L 522.53555,205.73038   L 521.73554,206.06371   L 521.33554,206.73037   L 521.13554,208.33034   L 521.13554,220.59683   L 524.06888,220.59683  z " clip-path="url(#clipWmfPath1)" style="fill:none;stroke:#000000;stroke-width:0.066666946px;stroke-linecap:round;stroke-linejoin:round;stroke-miterlimit:4;stroke-dasharray:none;stroke-opacity:1;"/>
  <path id="path100" d="  M 519.53553,220.59683   L 519.53553,208.59701   L 519.46887,207.59702   L 519.26886,206.6637   L 518.8022,205.99704   L 517.93553,205.73038   L 517.13552,206.06371   L 516.66885,206.73037   L 516.46885,208.33034   L 516.46885,220.59683   L 519.53553,220.59683  z " clip-path="url(#clipWmfPath1)" style="fill:#bfbfbf;fill-rule:nonzero;fill-opacity:1;stroke:none;"/>
  <path id="path102" d="  M 519.53553,220.59683   L 519.53553,208.59701   L 519.46887,207.59702   L 519.26886,206.6637   L 518.8022,205.99704   L 517.93553,205.73038   L 517.13552,206.06371   L 516.66885,206.73037   L 516.46885,208.33034   L 516.46885,220.59683   L 519.53553,220.59683  z " clip-path="url(#clipWmfPath1)" style="fill:none;stroke:#000000;stroke-width:0.066666946px;stroke-linecap:round;stroke-linejoin:round;stroke-miterlimit:4;stroke-dasharray:none;stroke-opacity:1;"/>
  <path id="path104" d="  M 514.73551,220.59683   L 514.73551,208.59701   L 514.66885,207.59702   L 514.46884,206.6637   L 514.00218,205.99704   L 513.13551,205.73038   L 512.3355,206.06371   L 511.9355,206.73037   L 511.7355,208.33034   L 511.7355,220.59683   L 514.73551,220.59683  z " clip-path="url(#clipWmfPath1)" style="fill:#bfbfbf;fill-rule:nonzero;fill-opacity:1;stroke:none;"/>
  <path id="path106" d="  M 514.73551,220.59683   L 514.73551,208.59701   L 514.66885,207.59702   L 514.46884,206.6637   L 514.00218,205.99704   L 513.13551,205.73038   L 512.3355,206.06371   L 511.9355,206.73037   L 511.7355,208.33034   L 511.7355,220.59683   L 514.73551,220.59683  z " clip-path="url(#clipWmfPath1)" style="fill:none;stroke:#000000;stroke-width:0.066666946px;stroke-linecap:round;stroke-linejoin:round;stroke-miterlimit:4;stroke-dasharray:none;stroke-opacity:1;"/>
  <path id="path108" d="  M 509.86882,220.59683   L 509.86882,208.59701   L 509.80216,207.59702   L 509.60216,206.6637   L 509.13549,205.99704   L 508.26882,205.73038   L 507.46881,206.06371   L 507.00215,206.73037   L 506.80215,208.33034   L 506.80215,220.59683   L 509.86882,220.59683  z " clip-path="url(#clipWmfPath1)" style="fill:#bfbfbf;fill-rule:nonzero;fill-opacity:1;stroke:none;"/>
  <path id="path110" d="  M 509.86882,220.59683   L 509.86882,208.59701   L 509.80216,207.59702   L 509.60216,206.6637   L 509.13549,205.99704   L 508.26882,205.73038   L 507.46881,206.06371   L 507.00215,206.73037   L 506.80215,208.33034   L 506.80215,220.59683   L 509.86882,220.59683  z " clip-path="url(#clipWmfPath1)" style="fill:none;stroke:#000000;stroke-width:0.066666946px;stroke-linecap:round;stroke-linejoin:round;stroke-miterlimit:4;stroke-dasharray:none;stroke-opacity:1;"/>
  <path id="path112" d="  M 505.13547,220.59683   L 505.13547,208.59701   L 505.0688,207.59702   L 504.8688,206.6637   L 504.40214,205.99704   L 503.53546,205.73038   L 502.73546,206.06371   L 502.26879,206.73037   L 502.06879,208.33034   L 502.06879,220.59683   L 505.13547,220.59683  z " clip-path="url(#clipWmfPath1)" style="fill:#bfbfbf;fill-rule:nonzero;fill-opacity:1;stroke:none;"/>
  <path id="path114" d="  M 505.13547,220.59683   L 505.13547,208.59701   L 505.0688,207.59702   L 504.8688,206.6637   L 504.40214,205.99704   L 503.53546,205.73038   L 502.73546,206.06371   L 502.26879,206.73037   L 502.06879,208.33034   L 502.06879,220.59683   L 505.13547,220.59683  z " clip-path="url(#clipWmfPath1)" style="fill:none;stroke:#000000;stroke-width:0.066666946px;stroke-linecap:round;stroke-linejoin:round;stroke-miterlimit:4;stroke-dasharray:none;stroke-opacity:1;"/>
  <path id="path116" d="  M 500.46879,220.59683   L 500.46879,208.59701   L 500.20212,206.6637   L 499.73545,205.99704   L 499.53545,205.79705   L 498.93545,205.73038   L 498.13544,206.06371   L 497.73544,206.73037   L 497.53544,208.33034   L 497.53544,220.59683   L 500.46879,220.59683  z " clip-path="url(#clipWmfPath1)" style="fill:#bfbfbf;fill-rule:nonzero;fill-opacity:1;stroke:none;"/>
  <path id="path118" d="  M 500.46879,220.59683   L 500.46879,208.59701   L 500.20212,206.6637   L 499.73545,205.99704   L 499.53545,205.79705   L 498.93545,205.73038   L 498.13544,206.06371   L 497.73544,206.73037   L 497.53544,208.33034   L 497.53544,220.59683   L 500.46879,220.59683  z " clip-path="url(#clipWmfPath1)" style="fill:none;stroke:#000000;stroke-width:0.066666946px;stroke-linecap:round;stroke-linejoin:round;stroke-miterlimit:4;stroke-dasharray:none;stroke-opacity:1;"/>
  <path id="path120" d="  M 495.6021,220.59683   L 495.6021,208.59701   L 495.33543,206.6637   L 494.93543,205.99704   L 494.73543,205.79705   L 494.13542,205.73038   L 493.26875,206.06371   L 492.80209,206.73037   L 492.60209,208.33034   L 492.60209,220.59683   L 495.6021,220.59683  z " clip-path="url(#clipWmfPath1)" style="fill:#bfbfbf;fill-rule:nonzero;fill-opacity:1;stroke:none;"/>
  <path id="path122" d="  M 495.6021,220.59683   L 495.6021,208.59701   L 495.33543,206.6637   L 494.93543,205.99704   L 494.73543,205.79705   L 494.13542,205.73038   L 493.26875,206.06371   L 492.80209,206.73037   L 492.60209,208.33034   L 492.60209,220.59683   L 495.6021,220.59683  z " clip-path="url(#clipWmfPath1)" style="fill:none;stroke:#000000;stroke-width:0.066666946px;stroke-linecap:round;stroke-linejoin:round;stroke-miterlimit:4;stroke-dasharray:none;stroke-opacity:1;"/>
  <path id="path124" d="  M 491.00208,220.59683   L 491.00208,208.59701   L 490.93541,207.59702   L 490.73541,206.6637   L 490.26874,205.99704   L 489.40207,205.73038   L 488.60207,206.06371   L 488.20207,206.73037   L 488.00207,208.33034   L 488.00207,220.59683   L 491.00208,220.59683  z " clip-path="url(#clipWmfPath1)" style="fill:#bfbfbf;fill-rule:nonzero;fill-opacity:1;stroke:none;"/>
  <path id="path126" d="  M 491.00208,220.59683   L 491.00208,208.59701   L 490.93541,207.59702   L 490.73541,206.6637   L 490.26874,205.99704   L 489.40207,205.73038   L 488.60207,206.06371   L 488.20207,206.73037   L 488.00207,208.33034   L 488.00207,220.59683   L 491.00208,220.59683  z " clip-path="url(#clipWmfPath1)" style="fill:none;stroke:#000000;stroke-width:0.066666946px;stroke-linecap:round;stroke-linejoin:round;stroke-miterlimit:4;stroke-dasharray:none;stroke-opacity:1;"/>
  <path id="path128" d="  M 486.40206,220.59683   L 486.40206,208.59701   L 486.13539,206.6637   L 485.73539,205.99704   L 485.53539,205.79705   L 484.93539,205.73038   L 484.06872,206.06371   L 483.60205,206.73037   L 483.40205,208.33034   L 483.40205,220.59683   L 486.40206,220.59683  z " clip-path="url(#clipWmfPath1)" style="fill:#bfbfbf;fill-rule:nonzero;fill-opacity:1;stroke:none;"/>
  <path id="path130" d="  M 486.40206,220.59683   L 486.40206,208.59701   L 486.13539,206.6637   L 485.73539,205.99704   L 485.53539,205.79705   L 484.93539,205.73038   L 484.06872,206.06371   L 483.60205,206.73037   L 483.40205,208.33034   L 483.40205,220.59683   L 486.40206,220.59683  z " clip-path="url(#clipWmfPath1)" style="fill:none;stroke:#000000;stroke-width:0.066666946px;stroke-linecap:round;stroke-linejoin:round;stroke-miterlimit:4;stroke-dasharray:none;stroke-opacity:1;"/>
  <path id="path132" d="  M 481.80204,220.59683   L 481.80204,208.59701   L 481.73537,207.59702   L 481.53537,206.6637   L 481.0687,205.99704   L 480.20203,205.73038   L 479.40203,206.06371   L 478.93536,206.73037   L 478.73536,208.33034   L 478.73536,220.59683   L 481.80204,220.59683  z " clip-path="url(#clipWmfPath1)" style="fill:#bfbfbf;fill-rule:nonzero;fill-opacity:1;stroke:none;"/>
  <path id="path134" d="  M 481.80204,220.59683   L 481.80204,208.59701   L 481.73537,207.59702   L 481.53537,206.6637   L 481.0687,205.99704   L 480.20203,205.73038   L 479.40203,206.06371   L 478.93536,206.73037   L 478.73536,208.33034   L 478.73536,220.59683   L 481.80204,220.59683  z " clip-path="url(#clipWmfPath1)" style="fill:none;stroke:#000000;stroke-width:0.066666946px;stroke-linecap:round;stroke-linejoin:round;stroke-miterlimit:4;stroke-dasharray:none;stroke-opacity:1;"/>
  <path id="path136" d="  M 476.93535,220.59683   L 476.93535,208.59701   L 476.86869,207.59702   L 476.66868,206.6637   L 476.20202,205.99704   L 475.33535,205.73038   L 474.53534,206.06371   L 474.13534,206.73037   L 473.93534,208.33034   L 473.93534,220.59683   L 476.93535,220.59683  z " clip-path="url(#clipWmfPath1)" style="fill:#bfbfbf;fill-rule:nonzero;fill-opacity:1;stroke:none;"/>
  <path id="path138" d="  M 476.93535,220.59683   L 476.93535,208.59701   L 476.86869,207.59702   L 476.66868,206.6637   L 476.20202,205.99704   L 475.33535,205.73038   L 474.53534,206.06371   L 474.13534,206.73037   L 473.93534,208.33034   L 473.93534,220.59683   L 476.93535,220.59683  z " clip-path="url(#clipWmfPath1)" style="fill:none;stroke:#000000;stroke-width:0.066666946px;stroke-linecap:round;stroke-linejoin:round;stroke-miterlimit:4;stroke-dasharray:none;stroke-opacity:1;"/>
  <path id="path140" d="  M 472.13533,220.59683   L 472.13533,208.59701   L 472.06866,207.59702   L 471.86866,206.6637   L 471.402,205.99704   L 470.53533,205.73038   L 469.73532,206.06371   L 469.26865,206.73037   L 469.06865,208.33034   L 469.06865,220.59683   L 472.13533,220.59683  z " clip-path="url(#clipWmfPath1)" style="fill:#bfbfbf;fill-rule:nonzero;fill-opacity:1;stroke:none;"/>
  <path id="path142" d="  M 472.13533,220.59683   L 472.13533,208.59701   L 472.06866,207.59702   L 471.86866,206.6637   L 471.402,205.99704   L 470.53533,205.73038   L 469.73532,206.06371   L 469.26865,206.73037   L 469.06865,208.33034   L 469.06865,220.59683   L 472.13533,220.59683  z " clip-path="url(#clipWmfPath1)" style="fill:none;stroke:#000000;stroke-width:0.066666946px;stroke-linecap:round;stroke-linejoin:round;stroke-miterlimit:4;stroke-dasharray:none;stroke-opacity:1;"/>
  <path id="path144" d="  M 467.20198,220.59683   L 467.20198,208.59701   L 467.13531,207.59702   L 466.93531,206.6637   L 466.46864,205.99704   L 465.60197,205.73038   L 464.80197,206.06371   L 464.40197,206.73037   L 464.20196,208.33034   L 464.20196,220.59683   L 467.20198,220.59683  z " clip-path="url(#clipWmfPath1)" style="fill:#bfbfbf;fill-rule:nonzero;fill-opacity:1;stroke:none;"/>
  <path id="path146" d="  M 467.20198,220.59683   L 467.20198,208.59701   L 467.13531,207.59702   L 466.93531,206.6637   L 466.46864,205.99704   L 465.60197,205.73038   L 464.80197,206.06371   L 464.40197,206.73037   L 464.20196,208.33034   L 464.20196,220.59683   L 467.20198,220.59683  z " clip-path="url(#clipWmfPath1)" style="fill:none;stroke:#000000;stroke-width:0.066666946px;stroke-linecap:round;stroke-linejoin:round;stroke-miterlimit:4;stroke-dasharray:none;stroke-opacity:1;"/>
  <path id="path148" d="  M 462.13529,220.59683   L 462.13529,208.59701   L 462.06862,207.59702   L 461.86862,206.6637   L 461.40195,205.99704   L 460.53528,205.73038   L 459.73528,206.06371   L 459.33528,206.73037   L 459.13528,208.33034   L 459.13528,220.59683   L 462.13529,220.59683  z " clip-path="url(#clipWmfPath1)" style="fill:#bfbfbf;fill-rule:nonzero;fill-opacity:1;stroke:none;"/>
  <path id="path150" d="  M 462.13529,220.59683   L 462.13529,208.59701   L 462.06862,207.59702   L 461.86862,206.6637   L 461.40195,205.99704   L 460.53528,205.73038   L 459.73528,206.06371   L 459.33528,206.73037   L 459.13528,208.33034   L 459.13528,220.59683   L 462.13529,220.59683  z " clip-path="url(#clipWmfPath1)" style="fill:none;stroke:#000000;stroke-width:0.066666946px;stroke-linecap:round;stroke-linejoin:round;stroke-miterlimit:4;stroke-dasharray:none;stroke-opacity:1;"/>
  <path id="path152" d="  M 457.53527,220.59683   L 457.53527,208.59701   L 457.4686,207.59702   L 457.2686,206.6637   L 456.80193,205.99704   L 455.93526,205.73038   L 455.13526,206.06371   L 454.73526,206.73037   L 454.53526,208.33034   L 454.53526,220.59683   L 457.53527,220.59683  z " clip-path="url(#clipWmfPath1)" style="fill:#bfbfbf;fill-rule:nonzero;fill-opacity:1;stroke:none;"/>
  <path id="path154" d="  M 457.53527,220.59683   L 457.53527,208.59701   L 457.4686,207.59702   L 457.2686,206.6637   L 456.80193,205.99704   L 455.93526,205.73038   L 455.13526,206.06371   L 454.73526,206.73037   L 454.53526,208.33034   L 454.53526,220.59683   L 457.53527,220.59683  z " clip-path="url(#clipWmfPath1)" style="fill:none;stroke:#000000;stroke-width:0.066666946px;stroke-linecap:round;stroke-linejoin:round;stroke-miterlimit:4;stroke-dasharray:none;stroke-opacity:1;"/>
  <path id="path156" d="  M 452.66858,220.59683   L 452.66858,208.59701   L 452.40191,206.6637   L 451.93525,205.99704   L 451.73525,205.79705   L 451.13524,205.73038   L 450.33524,206.06371   L 449.86857,206.73037   L 449.66857,208.33034   L 449.66857,220.59683   L 452.66858,220.59683  z " clip-path="url(#clipWmfPath1)" style="fill:#bfbfbf;fill-rule:nonzero;fill-opacity:1;stroke:none;"/>
  <path id="path158" d="  M 452.66858,220.59683   L 452.66858,208.59701   L 452.40191,206.6637   L 451.93525,205.99704   L 451.73525,205.79705   L 451.13524,205.73038   L 450.33524,206.06371   L 449.86857,206.73037   L 449.66857,208.33034   L 449.66857,220.59683   L 452.66858,220.59683  z " clip-path="url(#clipWmfPath1)" style="fill:none;stroke:#000000;stroke-width:0.066666946px;stroke-linecap:round;stroke-linejoin:round;stroke-miterlimit:4;stroke-dasharray:none;stroke-opacity:1;"/>
  <path id="path160" d="  M 447.8019,220.59683   L 447.8019,208.59701   L 447.73523,207.59702   L 447.53523,206.6637   L 447.06856,205.99704   L 446.20189,205.73038   L 445.40189,206.06371   L 445.00188,206.73037   L 444.80188,208.33034   L 444.80188,220.59683   L 447.8019,220.59683  z " clip-path="url(#clipWmfPath1)" style="fill:#bfbfbf;fill-rule:nonzero;fill-opacity:1;stroke:none;"/>
  <path id="path162" d="  M 447.8019,220.59683   L 447.8019,208.59701   L 447.73523,207.59702   L 447.53523,206.6637   L 447.06856,205.99704   L 446.20189,205.73038   L 445.40189,206.06371   L 445.00188,206.73037   L 444.80188,208.33034   L 444.80188,220.59683   L 447.8019,220.59683  z " clip-path="url(#clipWmfPath1)" style="fill:none;stroke:#000000;stroke-width:0.066666946px;stroke-linecap:round;stroke-linejoin:round;stroke-miterlimit:4;stroke-dasharray:none;stroke-opacity:1;"/>
  <path id="path164" d="  M 443.20188,220.59683   L 443.20188,208.59701   L 443.13521,207.59702   L 442.93521,206.6637   L 442.46854,205.99704   L 441.60187,205.73038   L 440.80187,206.06371   L 440.3352,206.73037   L 440.1352,208.33034   L 440.1352,220.59683   L 443.20188,220.59683  z " clip-path="url(#clipWmfPath1)" style="fill:#bfbfbf;fill-rule:nonzero;fill-opacity:1;stroke:none;"/>
  <path id="path166" d="  M 443.20188,220.59683   L 443.20188,208.59701   L 443.13521,207.59702   L 442.93521,206.6637   L 442.46854,205.99704   L 441.60187,205.73038   L 440.80187,206.06371   L 440.3352,206.73037   L 440.1352,208.33034   L 440.1352,220.59683   L 443.20188,220.59683  z " clip-path="url(#clipWmfPath1)" style="fill:none;stroke:#000000;stroke-width:0.066666946px;stroke-linecap:round;stroke-linejoin:round;stroke-miterlimit:4;stroke-dasharray:none;stroke-opacity:1;"/>
  <path id="path168" d="  M 438.60186,220.59683   L 438.60186,208.59701   L 438.53519,207.59702   L 438.33519,206.6637   L 437.86852,205.99704   L 437.00185,205.73038   L 436.20185,206.06371   L 435.80184,206.73037   L 435.60184,208.33034   L 435.60184,220.59683   L 438.60186,220.59683  z " clip-path="url(#clipWmfPath1)" style="fill:#bfbfbf;fill-rule:nonzero;fill-opacity:1;stroke:none;"/>
  <path id="path170" d="  M 438.60186,220.59683   L 438.60186,208.59701   L 438.53519,207.59702   L 438.33519,206.6637   L 437.86852,205.99704   L 437.00185,205.73038   L 436.20185,206.06371   L 435.80184,206.73037   L 435.60184,208.33034   L 435.60184,220.59683   L 438.60186,220.59683  z " clip-path="url(#clipWmfPath1)" style="fill:none;stroke:#000000;stroke-width:0.066666946px;stroke-linecap:round;stroke-linejoin:round;stroke-miterlimit:4;stroke-dasharray:none;stroke-opacity:1;"/>
  <path id="path172" d="  M 433.80184,220.59683   L 433.80184,208.59701   L 433.73517,207.59702   L 433.53517,206.6637   L 433.0685,205.99704   L 432.20183,205.73038   L 431.40183,206.06371   L 430.93516,206.73037   L 430.73516,208.33034   L 430.73516,220.59683   L 433.80184,220.59683  z " clip-path="url(#clipWmfPath1)" style="fill:#bfbfbf;fill-rule:nonzero;fill-opacity:1;stroke:none;"/>
  <path id="path174" d="  M 433.80184,220.59683   L 433.80184,208.59701   L 433.73517,207.59702   L 433.53517,206.6637   L 433.0685,205.99704   L 432.20183,205.73038   L 431.40183,206.06371   L 430.93516,206.73037   L 430.73516,208.33034   L 430.73516,220.59683   L 433.80184,220.59683  z " clip-path="url(#clipWmfPath1)" style="fill:none;stroke:#000000;stroke-width:0.066666946px;stroke-linecap:round;stroke-linejoin:round;stroke-miterlimit:4;stroke-dasharray:none;stroke-opacity:1;"/>
  <path id="path176" d="  M 428.93515,220.59683   L 428.93515,208.59701   L 428.86848,207.59702   L 428.66848,206.6637   L 428.20181,205.99704   L 427.33514,205.73038   L 426.53514,206.06371   L 426.13514,206.73037   L 425.93514,208.33034   L 425.93514,220.59683   L 428.93515,220.59683  z " clip-path="url(#clipWmfPath1)" style="fill:#bfbfbf;fill-rule:nonzero;fill-opacity:1;stroke:none;"/>
  <path id="path178" d="  M 428.93515,220.59683   L 428.93515,208.59701   L 428.86848,207.59702   L 428.66848,206.6637   L 428.20181,205.99704   L 427.33514,205.73038   L 426.53514,206.06371   L 426.13514,206.73037   L 425.93514,208.33034   L 425.93514,220.59683   L 428.93515,220.59683  z " clip-path="url(#clipWmfPath1)" style="fill:none;stroke:#000000;stroke-width:0.066666946px;stroke-linecap:round;stroke-linejoin:round;stroke-miterlimit:4;stroke-dasharray:none;stroke-opacity:1;"/>
  <path id="path180" d="  M 424.13513,220.59683   L 424.13513,208.59701   L 424.06846,207.59702   L 423.86846,206.6637   L 423.40179,205.99704   L 422.53512,205.73038   L 421.73512,206.06371   L 421.26845,206.73037   L 421.06845,208.33034   L 421.06845,220.59683   L 424.13513,220.59683  z " clip-path="url(#clipWmfPath1)" style="fill:#bfbfbf;fill-rule:nonzero;fill-opacity:1;stroke:none;"/>
  <path id="path182" d="  M 424.13513,220.59683   L 424.13513,208.59701   L 424.06846,207.59702   L 423.86846,206.6637   L 423.40179,205.99704   L 422.53512,205.73038   L 421.73512,206.06371   L 421.26845,206.73037   L 421.06845,208.33034   L 421.06845,220.59683   L 424.13513,220.59683  z " clip-path="url(#clipWmfPath1)" style="fill:none;stroke:#000000;stroke-width:0.066666946px;stroke-linecap:round;stroke-linejoin:round;stroke-miterlimit:4;stroke-dasharray:none;stroke-opacity:1;"/>
  <path id="path184" d="  M 419.46844,220.59683   L 419.46844,208.59701   L 419.40178,207.59702   L 419.20177,206.6637   L 418.73511,205.99704   L 417.86844,205.73038   L 417.06843,206.06371   L 416.60176,206.73037   L 416.40176,208.33034   L 416.40176,220.59683   L 419.46844,220.59683  z " clip-path="url(#clipWmfPath1)" style="fill:#bfbfbf;fill-rule:nonzero;fill-opacity:1;stroke:none;"/>
  <path id="path186" d="  M 419.46844,220.59683   L 419.46844,208.59701   L 419.40178,207.59702   L 419.20177,206.6637   L 418.73511,205.99704   L 417.86844,205.73038   L 417.06843,206.06371   L 416.60176,206.73037   L 416.40176,208.33034   L 416.40176,220.59683   L 419.46844,220.59683  z " clip-path="url(#clipWmfPath1)" style="fill:none;stroke:#000000;stroke-width:0.066666946px;stroke-linecap:round;stroke-linejoin:round;stroke-miterlimit:4;stroke-dasharray:none;stroke-opacity:1;"/>
  <path id="path188" d="  M 414.86842,220.59683   L 414.86842,208.59701   L 414.80176,207.59702   L 414.60175,206.6637   L 414.13509,205.99704   L 413.26842,205.73038   L 412.46841,206.06371   L 412.06841,206.73037   L 411.86841,208.33034   L 411.86841,220.59683   L 414.86842,220.59683  z " clip-path="url(#clipWmfPath1)" style="fill:#bfbfbf;fill-rule:nonzero;fill-opacity:1;stroke:none;"/>
  <path id="path190" d="  M 414.86842,220.59683   L 414.86842,208.59701   L 414.80176,207.59702   L 414.60175,206.6637   L 414.13509,205.99704   L 413.26842,205.73038   L 412.46841,206.06371   L 412.06841,206.73037   L 411.86841,208.33034   L 411.86841,220.59683   L 414.86842,220.59683  z " clip-path="url(#clipWmfPath1)" style="fill:none;stroke:#000000;stroke-width:0.066666946px;stroke-linecap:round;stroke-linejoin:round;stroke-miterlimit:4;stroke-dasharray:none;stroke-opacity:1;"/>
  <path id="path192" d="  M 410.2684,220.59683   L 410.2684,208.59701   L 410.20174,207.59702   L 410.00174,206.6637   L 409.53507,205.99704   L 408.6684,205.73038   L 407.86839,206.06371   L 407.40172,206.73037   L 407.20172,208.33034   L 407.20172,220.59683   L 410.2684,220.59683  z " clip-path="url(#clipWmfPath1)" style="fill:#bfbfbf;fill-rule:nonzero;fill-opacity:1;stroke:none;"/>
  <path id="path194" d="  M 410.2684,220.59683   L 410.2684,208.59701   L 410.20174,207.59702   L 410.00174,206.6637   L 409.53507,205.99704   L 408.6684,205.73038   L 407.86839,206.06371   L 407.40172,206.73037   L 407.20172,208.33034   L 407.20172,220.59683   L 410.2684,220.59683  z " clip-path="url(#clipWmfPath1)" style="fill:none;stroke:#000000;stroke-width:0.066666946px;stroke-linecap:round;stroke-linejoin:round;stroke-miterlimit:4;stroke-dasharray:none;stroke-opacity:1;"/>
  <path id="path196" d="  M 405.60172,220.59683   L 405.60172,208.59701   L 405.33505,206.6637   L 404.86838,205.99704   L 404.66838,205.79705   L 404.06838,205.73038   L 403.26837,206.06371   L 402.86837,206.73037   L 402.66837,208.33034   L 402.66837,220.59683   L 405.60172,220.59683  z " clip-path="url(#clipWmfPath1)" style="fill:#bfbfbf;fill-rule:nonzero;fill-opacity:1;stroke:none;"/>
  <path id="path198" d="  M 405.60172,220.59683   L 405.60172,208.59701   L 405.33505,206.6637   L 404.86838,205.99704   L 404.66838,205.79705   L 404.06838,205.73038   L 403.26837,206.06371   L 402.86837,206.73037   L 402.66837,208.33034   L 402.66837,220.59683   L 405.60172,220.59683  z " clip-path="url(#clipWmfPath1)" style="fill:none;stroke:#000000;stroke-width:0.066666946px;stroke-linecap:round;stroke-linejoin:round;stroke-miterlimit:4;stroke-dasharray:none;stroke-opacity:1;"/>
  <path id="path200" d="  M 400.93503,220.59683   L 400.93503,208.59701   L 400.66836,206.6637   L 400.20169,205.99704   L 400.00169,205.79705   L 399.40169,205.73038   L 398.60169,206.06371   L 398.20169,206.73037   L 398.00168,208.33034   L 398.00168,220.59683   L 400.93503,220.59683  z " clip-path="url(#clipWmfPath1)" style="fill:#bfbfbf;fill-rule:nonzero;fill-opacity:1;stroke:none;"/>
  <path id="path202" d="  M 400.93503,220.59683   L 400.93503,208.59701   L 400.66836,206.6637   L 400.20169,205.99704   L 400.00169,205.79705   L 399.40169,205.73038   L 398.60169,206.06371   L 398.20169,206.73037   L 398.00168,208.33034   L 398.00168,220.59683   L 400.93503,220.59683  z " clip-path="url(#clipWmfPath1)" style="fill:none;stroke:#000000;stroke-width:0.066666946px;stroke-linecap:round;stroke-linejoin:round;stroke-miterlimit:4;stroke-dasharray:none;stroke-opacity:1;"/>
  <path id="path204" d="  M 396.13501,220.59683   L 396.13501,208.59701   L 396.06834,207.59702   L 395.86834,206.6637   L 395.40167,205.99704   L 394.535,205.73038   L 393.735,206.06371   L 393.335,206.73037   L 393.135,208.33034   L 393.135,220.59683   L 396.13501,220.59683  z " clip-path="url(#clipWmfPath1)" style="fill:#bfbfbf;fill-rule:nonzero;fill-opacity:1;stroke:none;"/>
  <path id="path206" d="  M 396.13501,220.59683   L 396.13501,208.59701   L 396.06834,207.59702   L 395.86834,206.6637   L 395.40167,205.99704   L 394.535,205.73038   L 393.735,206.06371   L 393.335,206.73037   L 393.135,208.33034   L 393.135,220.59683   L 396.13501,220.59683  z " clip-path="url(#clipWmfPath1)" style="fill:none;stroke:#000000;stroke-width:0.066666946px;stroke-linecap:round;stroke-linejoin:round;stroke-miterlimit:4;stroke-dasharray:none;stroke-opacity:1;"/>
  <path id="path208" d="  M 580.60246,60.332468   L 580.60246,36.266146   L 609.60258,36.266146   L 609.60258,40.332755   L 584.20247,40.332755   L 584.20247,227.19674   L 580.73579,227.19674   L 580.60246,72.198964   L 580.60246,60.332468  z " clip-path="url(#clipWmfPath1)" style="fill:#ffffff;fill-rule:nonzero;fill-opacity:1;stroke:none;"/>
  <path id="path210" d="  M 580.06912,72.198964   L 581.13579,72.198964   L 581.13579,60.332468   L 581.13579,60.332468   L 581.13579,36.799472   L 609.06924,36.799472   L 609.06924,39.799429   L 583.66914,39.799429   L 583.66914,226.66341   L 581.26913,226.66341   L 581.13579,72.198964   L 581.13579,60.332468   L 581.13579,60.332468   L 581.13579,36.266146   L 580.06912,36.266146   L 580.06912,60.332468   L 580.06912,60.332468   L 580.06912,72.198964   L 580.20246,227.73007   L 584.73581,227.73007   L 584.73581,40.86608   L 610.13592,40.86608   L 610.13592,35.732821   L 580.06912,35.732821   L 580.06912,60.332468   L 580.06912,60.332468   L 580.06912,72.198964  z " clip-path="url(#clipWmfPath1)" style="fill:#000000;fill-rule:nonzero;fill-opacity:1;stroke:#000000;stroke-width:0.066666946px;stroke-linecap:round;stroke-linejoin:round;stroke-miterlimit:4;stroke-dasharray:none;stroke-opacity:1;"/>
  <path id="path212" d="  M 580.40246,71.398975   L 560.60237,71.398975   L 560.60237,59.932473   L 580.40246,59.932473   L 580.40246,71.398975  z " clip-path="url(#clipWmfPath1)" style="fill:#ffffff;fill-rule:nonzero;fill-opacity:1;stroke:none;"/>
  <path id="path214" d="  M 580.93579,59.932473   L 579.86912,59.932473   L 579.86912,70.86565   L 561.13571,70.86565   L 561.13571,60.465799   L 579.86912,60.465799   L 579.86912,70.86565   L 560.60237,70.86565   L 560.60237,71.932301   L 580.93579,71.932301   L 580.93579,59.399148   L 560.06904,59.399148   L 560.06904,71.932301   L 580.93579,71.932301   L 580.93579,59.932473  z " clip-path="url(#clipWmfPath1)" style="fill:#000000;fill-rule:nonzero;fill-opacity:1;stroke:#000000;stroke-width:0.066666946px;stroke-linecap:round;stroke-linejoin:round;stroke-miterlimit:4;stroke-dasharray:none;stroke-opacity:1;"/>
  <path id="path216" d="  M 568.13574,70.132327   L 568.0024,69.199007   L 566.4024,69.46567   L 565.66906,69.399004   L 564.93572,69.199007   L 563.66905,68.399018   L 562.86905,67.13237   L 562.66905,66.399047   L 562.60238,65.665724   L 562.66905,64.932402   L 562.86905,64.199079   L 563.66905,62.93243   L 564.93572,62.132442   L 565.66906,61.932445   L 566.4024,61.865779   L 567.13573,61.932445   L 567.86907,62.132442   L 569.13574,62.93243   L 569.93575,64.199079   L 570.13575,64.932402   L 570.20241,65.665724   L 569.93575,67.13237   L 569.13574,68.399018   L 567.86907,69.199007   L 566.4024,69.46567   L 565.60239,69.399004   L 565.46906,70.465655   L 566.4024,70.532321   L 568.26907,70.132327   L 569.80241,69.065676   L 570.86908,67.532364   L 571.26908,65.665724   L 571.20242,64.665739   L 570.86908,63.799084   L 569.80241,62.265773   L 568.26907,61.199122   L 567.4024,60.865793   L 566.4024,60.799128   L 565.40239,60.865793   L 564.53572,61.199122   L 563.00238,62.265773   L 561.93571,63.799084   L 561.60238,64.665739   L 561.53571,65.665724   L 561.60238,66.66571   L 561.93571,67.532364   L 563.00238,69.065676   L 564.53572,70.132327   L 565.40239,70.465655   L 566.4024,70.532321   L 568.13574,70.132327  z " clip-path="url(#clipWmfPath1)" style="fill:#000000;fill-rule:nonzero;fill-opacity:1;stroke:#000000;stroke-width:0.066666946px;stroke-linecap:round;stroke-linejoin:round;stroke-miterlimit:4;stroke-dasharray:none;stroke-opacity:1;"/>
  <path id="path218" d="  M 580.53579,190.46393   L 560.73571,190.46393   L 560.73571,178.99743   L 580.53579,178.99743   L 580.53579,190.46393  z " clip-path="url(#clipWmfPath1)" style="fill:#ffffff;fill-rule:nonzero;fill-opacity:1;stroke:none;"/>
  <path id="path220" d="  M 581.06913,178.99743   L 580.00246,178.99743   L 580.00246,189.93061   L 561.26904,189.93061   L 561.26904,179.53076   L 580.00246,179.53076   L 580.00246,189.93061   L 560.73571,189.93061   L 560.73571,190.99726   L 581.06913,190.99726   L 581.06913,178.46411   L 560.20237,178.46411   L 560.20237,190.99726   L 581.06913,190.99726   L 581.06913,178.99743  z " clip-path="url(#clipWmfPath1)" style="fill:#000000;fill-rule:nonzero;fill-opacity:1;stroke:#000000;stroke-width:0.066666946px;stroke-linecap:round;stroke-linejoin:round;stroke-miterlimit:4;stroke-dasharray:none;stroke-opacity:1;"/>
  <path id="path222" d="  M 568.26907,189.19728   L 568.13574,188.26397   L 566.53573,188.53063   L 565.80239,188.46396   L 565.06906,188.26397   L 563.80239,187.46398   L 563.00238,186.19733   L 562.80238,185.46401   L 562.73572,184.73068   L 562.80238,183.99736   L 563.00238,183.26404   L 563.80239,181.99739   L 565.06906,181.1974   L 565.80239,180.9974   L 566.53573,180.93074   L 567.26907,180.9974   L 568.0024,181.1974   L 569.26908,181.99739   L 570.06908,183.26404   L 570.26908,183.99736   L 570.33575,184.73068   L 570.06908,186.19733   L 569.26908,187.46398   L 568.0024,188.26397   L 566.53573,188.53063   L 565.73573,188.46396   L 565.60239,189.53061   L 566.53573,189.59728   L 568.40241,189.19728   L 569.93575,188.13063   L 571.00242,186.59732   L 571.40242,184.73068   L 571.33575,183.7307   L 571.00242,182.86404   L 569.93575,181.33073   L 568.40241,180.26408   L 567.53574,179.93075   L 566.53573,179.86409   L 565.53573,179.93075   L 564.66906,180.26408   L 563.13572,181.33073   L 562.06905,182.86404   L 561.73571,183.7307   L 561.66904,184.73068   L 561.73571,185.73067   L 562.06905,186.59732   L 563.13572,188.13063   L 564.66906,189.19728   L 565.53573,189.53061   L 566.53573,189.59728   L 568.26907,189.19728  z " clip-path="url(#clipWmfPath1)" style="fill:#000000;fill-rule:nonzero;fill-opacity:1;stroke:#000000;stroke-width:0.066666946px;stroke-linecap:round;stroke-linejoin:round;stroke-miterlimit:4;stroke-dasharray:none;stroke-opacity:1;"/>
  <path id="path250" d="  M 381.40161,75.265587   L 382.46829,75.532249   L 383.13496,76.332238   L 383.40162,77.265558   L 383.13496,78.265544   L 382.46829,78.932201   L 381.40161,79.198863   L 380.40161,78.932201   L 379.73494,78.265544   L 379.53494,77.265558   L 379.80161,76.332238   L 380.40161,75.532249   L 381.40161,75.265587  z    M 381.40161,75.398918   L 380.60161,75.732247   L 379.86827,76.398904   L 379.66827,77.265558   L 379.86827,78.132212   L 380.13494,78.532206   L 380.60161,78.798869   L 381.40161,79.065532   L 382.26828,78.798869   L 383.00162,78.132212   L 383.26829,77.265558   L 383.00162,76.398904   L 382.66829,75.998909   L 382.26828,75.732247   L 381.40161,75.398918  z    M 380.33494,75.998909   L 381.40161,75.998909   L 382.06828,76.198907   L 382.26828,76.665567   L 382.06828,77.065561   L 381.60162,77.265558   L 382.20162,78.132212   L 382.46829,78.332209   L 382.60162,78.332209   L 382.60162,78.465541   L 382.06828,78.465541   L 381.20161,77.265558   L 381.13495,77.265558   L 381.13495,78.132212   L 381.20161,78.332209   L 381.46828,78.332209   L 381.46828,78.465541   L 380.33494,78.465541   L 380.33494,78.332209   L 380.53494,78.332209   L 380.60161,78.265544   L 380.66828,77.932215   L 380.66828,76.532235   L 380.60161,76.332238   L 380.60161,76.132241   L 380.33494,76.132241   L 380.33494,75.998909  z    M 381.13495,77.198892   L 381.46828,77.132226   L 381.73495,76.932229   L 381.80162,76.665567   L 381.60162,76.332238   L 381.33495,76.065575   L 381.13495,76.132241   L 381.13495,77.198892  z   " clip-path="url(#clipWmfPath1)" style="fill:#bfbfbf;fill-rule:evenodd;fill-opacity:1;stroke:none;"/>
  <path id="path252" d="  M 337.20143,172.33086   L 337.20143,175.13082   L 337.33476,175.86414   L 337.80143,176.39747   L 338.40143,176.66413   L 339.13477,176.79746   L 354.2015,176.79746   L 354.93484,176.66413   L 355.60151,176.26414   L 356.00151,175.66415   L 356.13484,174.93082   L 356.13484,165.46429   L 356.00151,164.73097   L 355.60151,164.19764   L 354.93484,163.79765   L 354.2015,163.66432   L 339.13477,163.66432   L 338.40143,163.86432   L 337.80143,164.33098   L 337.33476,164.93097   L 337.20143,165.73096   L 337.20143,168.26425   L 325.13471,170.26422   L 337.20143,172.33086  z " clip-path="url(#clipWmfPath1)" style="fill:#ffffff;fill-rule:nonzero;fill-opacity:1;stroke:none;"/>
  <path id="path254" d="  M 325.20138,169.79756   L 324.60137,170.19756   L 325.06804,170.73088   L 336.66809,172.73085   L 336.66809,175.19749   L 336.86809,176.06414   L 337.4681,176.79746   L 338.2681,177.13079   L 339.0681,177.33079   L 354.26817,177.33079   L 355.13484,177.13079   L 355.93484,176.66413   L 356.46818,175.86414   L 356.66818,174.99749   L 356.66818,165.39763   L 356.46818,164.53097   L 355.93484,163.79765   L 355.13484,163.33099   L 354.26817,163.13099   L 339.0681,163.13099   L 338.20143,163.39766   L 337.4681,163.99765   L 336.86809,164.73097   L 336.66809,165.66429   L 336.66809,167.86426   L 325.06804,169.79756   L 325.06804,170.73088   L 336.66809,172.73085   L 336.66809,175.13082   L 337.20143,175.66415   L 337.73476,175.13082   L 337.73476,171.93087   L 328.20139,170.26422   L 337.73476,168.66425   L 337.73476,165.79762   L 337.80143,165.13096   L 338.13476,164.6643   L 338.60143,164.33098   L 339.20144,164.19764   L 354.13483,164.19764   L 354.73483,164.26431   L 355.26817,164.59764   L 355.53484,164.93097   L 355.60151,165.53096   L 355.60151,174.86416   L 355.53484,175.46415   L 355.26817,175.86414   L 354.73483,176.19747   L 354.13483,176.26414   L 339.20144,176.26414   L 338.53477,176.19747   L 338.13476,175.99747   L 337.80143,175.66415   L 337.73476,175.06415   L 337.73476,171.93087   L 325.20138,169.79756  z " clip-path="url(#clipWmfPath1)" style="fill:#000000;fill-rule:nonzero;fill-opacity:1;stroke:#000000;stroke-width:0.066666946px;stroke-linecap:round;stroke-linejoin:round;stroke-miterlimit:4;stroke-dasharray:none;stroke-opacity:1;"/>
  <path id="path256" d="  M 55.400235,181.06407   L 55.400235,31.999541   L 204.46753,31.999541   L 204.46753,181.06407   L 55.400235,181.06407  z " clip-path="url(#clipWmfPath1)" style="fill:#bfbfbf;fill-rule:evenodd;fill-opacity:1;stroke:none;"/>
  <path id="path258" d="  M 55.400235,181.06407   L 55.400235,31.999541   L 204.46753,31.999541   L 204.46753,181.06407   L 55.400235,181.06407  z " clip-path="url(#clipWmfPath1)" style="fill:none;stroke:#000000;stroke-width:0.066666946px;stroke-linecap:round;stroke-linejoin:round;stroke-miterlimit:4;stroke-dasharray:none;stroke-opacity:1;"/>
  <path id="path260" d="  M 143.06727,99.865234   L 144.13394,99.998565   L 145.00061,100.46522   L 145.60062,101.13188   L 145.80062,101.8652   L 145.80062,111.33174   L 145.60062,112.06506   L 145.00061,112.66505   L 144.13394,112.99838   L 143.06727,113.13171   L 116.73383,113.13171   L 115.66716,112.99838   L 114.80049,112.53172   L 114.20048,111.86506   L 114.00048,111.13174   L 114.00048,101.73187   L 114.20048,100.99855   L 114.80049,100.39856   L 115.66716,99.998565   L 116.73383,99.865234   L 143.06727,99.865234  z " clip-path="url(#clipWmfPath1)" style="fill:#ffffff;fill-rule:nonzero;fill-opacity:1;stroke:none;"/>
  <path id="path262" d="  M 116.73383,99.331908   L 116.73383,100.39856   L 143.06727,100.39856   L 144.00061,100.46522   L 144.66728,100.86522   L 145.13395,101.39854   L 145.26728,101.93187   L 145.26728,111.26507   L 145.13395,111.7984   L 144.73395,112.19839   L 144.00061,112.53172   L 143.06727,112.59838   L 116.73383,112.59838   L 115.80049,112.53172   L 115.13382,112.13172   L 114.66715,111.5984   L 114.53382,111.06507   L 114.53382,101.79854   L 114.66715,101.26521   L 115.06715,100.79855   L 115.80049,100.46522   L 116.73383,100.39856   L 143.06727,100.39856   L 144.06728,100.53189   L 144.20061,99.465239   L 143.06727,99.331908   L 116.73383,99.331908   L 115.53382,99.531905   L 114.53382,99.998565   L 113.73381,100.73189   L 113.46715,101.66521   L 113.46715,111.1984   L 113.73381,112.13172   L 114.46715,112.93171   L 115.53382,113.46504   L 116.73383,113.66504   L 143.06727,113.66504   L 144.26728,113.46504   L 145.26728,113.13171   L 146.06728,112.33172   L 146.33395,111.3984   L 146.33395,101.79854   L 146.06728,100.86522   L 145.33395,100.06523   L 144.26728,99.531905   L 143.06727,99.331908   L 116.73383,99.331908  z " clip-path="url(#clipWmfPath1)" style="fill:#000000;fill-rule:nonzero;fill-opacity:1;stroke:#000000;stroke-width:0.066666946px;stroke-linecap:round;stroke-linejoin:round;stroke-miterlimit:4;stroke-dasharray:none;stroke-opacity:1;"/>
  <g id="g264" clip-path="url(#clipWmfPath1)"/>
  <g id="g278" clip-path="url(#clipWmfPath1)">
    <text id="text276" y="0.000000" x="0.000000" transform="matrix(1.000000,-0.000000,0.000000,1.000000,115.333822,110.665079)" style="font-size:10.687500px;font-style:normal;font-variant:normal;font-weight:400;font-stretch:Condensed;line-height:125.000000%;letter-spacing:0px;word-spacing:0px;fill:#000000;fill-opacity:1;stroke:none;font-family:Helvetica-Narrow;text-align:start;text-anchor:start;" xml:space="preserve"><tspan id="tspan274" y="0.000000" x="0.000000"><tspan id="tspan266" style="fill:#000000;font-size:10.687500px;font-style:normal;font-variant:normal;font-weight:400;font-stretch:Condensed;font-family:Helvetica-Narrow;" dy="0.000000" dx="0.000000">D</tspan><tspan id="tspan268" style="fill:#000000;font-size:10.687500px;font-style:normal;font-variant:normal;font-weight:400;font-stretch:Condensed;font-family:Helvetica-Narrow;" dy="0.000000" dx="-0.249677">R</tspan><tspan id="tspan270" style="fill:#000000;font-size:10.687500px;font-style:normal;font-variant:normal;font-weight:400;font-stretch:Condensed;font-family:Helvetica-Narrow;" dy="0.000000" dx="0.016546">A</tspan><tspan id="tspan272" style="fill:#000000;font-size:10.687500px;font-style:normal;font-variant:normal;font-weight:400;font-stretch:Condensed;font-family:Helvetica-Narrow;" dy="0.000000" dx="-0.102519">M</tspan></tspan></text>
  </g>
  <path id="path280" d="  M 392.40166,182.06405   L 392.40166,32.999526   L 541.46896,32.999526   L 541.46896,182.06405   L 392.40166,182.06405  z " clip-path="url(#clipWmfPath1)" style="fill:#bfbfbf;fill-rule:evenodd;fill-opacity:1;stroke:none;"/>
  <path id="path282" d="  M 392.40166,182.06405   L 392.40166,32.999526   L 541.46896,32.999526   L 541.46896,182.06405   L 392.40166,182.06405  z " clip-path="url(#clipWmfPath1)" style="fill:none;stroke:#000000;stroke-width:0.066666946px;stroke-linecap:round;stroke-linejoin:round;stroke-miterlimit:4;stroke-dasharray:none;stroke-opacity:1;"/>
  <path id="path284" d="  M 480.0687,100.86522   L 481.13537,100.99855   L 482.00204,101.46521   L 482.60204,102.13187   L 482.80204,102.86519   L 482.80204,112.33172   L 482.60204,113.06504   L 482.00204,113.66504   L 481.13537,113.99836   L 480.0687,114.1317   L 453.73525,114.1317   L 452.66858,113.99836   L 451.80191,113.5317   L 451.20191,112.86505   L 451.00191,112.13172   L 451.00191,102.73186   L 451.20191,101.99854   L 451.80191,101.39854   L 452.66858,100.99855   L 453.73525,100.86522   L 480.0687,100.86522  z " clip-path="url(#clipWmfPath1)" style="fill:#ffffff;fill-rule:nonzero;fill-opacity:1;stroke:none;"/>
  <path id="path286" d="  M 453.73525,100.33189   L 453.73525,101.39854   L 480.0687,101.39854   L 481.00204,101.46521   L 481.66871,101.8652   L 482.13537,102.39853   L 482.26871,102.93186   L 482.26871,112.26506   L 482.13537,112.79838   L 481.73537,113.19838   L 481.00204,113.5317   L 480.0687,113.59837   L 453.73525,113.59837   L 452.80192,113.5317   L 452.13525,113.13171   L 451.66858,112.59838   L 451.53524,112.06506   L 451.53524,102.79852   L 451.66858,102.2652   L 452.06858,101.79854   L 452.80192,101.46521   L 453.73525,101.39854   L 480.0687,101.39854   L 481.0687,101.53188   L 481.20204,100.46522   L 480.0687,100.33189   L 453.73525,100.33189   L 452.53525,100.53189   L 451.53524,100.99855   L 450.73524,101.73187   L 450.46857,102.66519   L 450.46857,112.19839   L 450.73524,113.13171   L 451.46858,113.9317   L 452.53525,114.46502   L 453.73525,114.66502   L 480.0687,114.66502   L 481.2687,114.46502   L 482.26871,114.1317   L 483.06871,113.33171   L 483.33538,112.39839   L 483.33538,102.79852   L 483.06871,101.8652   L 482.33537,101.06522   L 481.2687,100.53189   L 480.0687,100.33189   L 453.73525,100.33189  z " clip-path="url(#clipWmfPath1)" style="fill:#000000;fill-rule:nonzero;fill-opacity:1;stroke:#000000;stroke-width:0.066666946px;stroke-linecap:round;stroke-linejoin:round;stroke-miterlimit:4;stroke-dasharray:none;stroke-opacity:1;"/>
  <g id="g288" clip-path="url(#clipWmfPath1)"/>
  <g id="g302" clip-path="url(#clipWmfPath1)">
    <text id="text300" y="0.000000" x="0.000000" transform="matrix(1.000000,-0.000000,0.000000,1.000000,452.335248,111.665064)" style="font-size:10.687500px;font-style:normal;font-variant:normal;font-weight:400;font-stretch:Condensed;line-height:125.000000%;letter-spacing:0px;word-spacing:0px;fill:#000000;fill-opacity:1;stroke:none;font-family:Helvetica-Narrow;text-align:start;text-anchor:start;" xml:space="preserve"><tspan id="tspan298" y="0.000000" x="0.000000"><tspan id="tspan290" style="fill:#000000;font-size:10.687500px;font-style:normal;font-variant:normal;font-weight:400;font-stretch:Condensed;font-family:Helvetica-Narrow;" dy="0.000000" dx="0.000000">D</tspan><tspan id="tspan292" style="fill:#000000;font-size:10.687500px;font-style:normal;font-variant:normal;font-weight:400;font-stretch:Condensed;font-family:Helvetica-Narrow;" dy="0.000000" dx="-0.050121">R</tspan><tspan id="tspan294" style="fill:#000000;font-size:10.687500px;font-style:normal;font-variant:normal;font-weight:400;font-stretch:Condensed;font-family:Helvetica-Narrow;" dy="0.000000" dx="0.016546">A</tspan><tspan id="tspan296" style="fill:#000000;font-size:10.687500px;font-style:normal;font-variant:normal;font-weight:400;font-stretch:Condensed;font-family:Helvetica-Narrow;" dy="0.000000" dx="-0.102519">M</tspan></tspan></text>
  </g>
  <path id="path304" d="  M 269.46781,168.46425   L 269.46781,165.66429   L 269.33447,164.93097   L 268.93447,164.46431   L 268.2678,164.13098   L 267.53447,163.99765   L 252.46774,163.99765   L 251.7344,164.13098   L 251.1344,164.53097   L 250.66773,165.13096   L 250.53439,165.86429   L 250.53439,175.33082   L 250.66773,176.06414   L 251.1344,176.66413   L 251.7344,176.99746   L 252.46774,177.13079   L 267.53447,177.13079   L 268.2678,176.93079   L 268.93447,176.5308   L 269.33447,175.86414   L 269.46781,175.06415   L 269.46781,172.53086   L 281.53453,170.53089   L 269.46781,168.46425  z " clip-path="url(#clipWmfPath1)" style="fill:#ffffff;fill-rule:nonzero;fill-opacity:1;stroke:none;"/>
  <path id="path306" d="  M 281.46786,170.99755   L 282.06786,170.59755   L 281.60119,170.06423   L 270.00114,168.06425   L 270.00114,165.59762   L 269.80114,164.73097   L 269.26781,164.06431   L 268.40114,163.66432   L 267.60113,163.46432   L 252.40107,163.46432   L 251.5344,163.66432   L 250.80106,164.13098   L 250.20106,164.93097   L 250.00106,165.79762   L 250.00106,175.39748   L 250.20106,176.26414   L 250.80106,177.06413   L 251.5344,177.46412   L 252.40107,177.66412   L 267.60113,177.66412   L 268.4678,177.39745   L 269.33447,176.93079   L 269.80114,176.06414   L 270.00114,175.13082   L 270.00114,172.93085   L 281.60119,170.99755   L 281.60119,170.06423   L 270.00114,168.06425   L 270.00114,165.66429   L 269.46781,165.13096   L 268.93447,165.66429   L 268.93447,168.86424   L 278.46785,170.53089   L 268.93447,172.13086   L 268.93447,174.99749   L 268.8678,175.66415   L 268.53447,176.13081   L 268.0678,176.46413   L 267.4678,176.59747   L 252.5344,176.59747   L 251.9344,176.5308   L 251.46773,176.26414   L 251.1344,175.86414   L 251.06773,175.26415   L 251.06773,165.93095   L 251.1344,165.33096   L 251.46773,164.93097   L 251.9344,164.59764   L 252.5344,164.53097   L 267.4678,164.53097   L 268.13447,164.59764   L 268.60114,164.8643   L 268.8678,165.13096   L 268.93447,165.73096   L 268.93447,168.86424   L 281.46786,170.99755  z " clip-path="url(#clipWmfPath1)" style="fill:#000000;fill-rule:nonzero;fill-opacity:1;stroke:#000000;stroke-width:0.066666946px;stroke-linecap:round;stroke-linejoin:round;stroke-miterlimit:4;stroke-dasharray:none;stroke-opacity:1;"/>
  <g id="g308" clip-path="url(#clipWmfPath1)"/>
  <g id="g318" clip-path="url(#clipWmfPath1)">
    <text id="text316" y="0.000000" x="0.000000" transform="matrix(1.000000,-0.000000,0.000000,1.000000,254.601078,174.864157)" style="font-size:10.687500px;font-style:normal;font-variant:normal;font-weight:400;font-stretch:Condensed;line-height:125.000000%;letter-spacing:0px;word-spacing:0px;fill:#000000;fill-opacity:1;stroke:none;font-family:Helvetica-Narrow;text-align:start;text-anchor:start;" xml:space="preserve"><tspan id="tspan314" y="0.000000" x="0.000000"><tspan id="tspan310" style="fill:#000000;font-size:10.687500px;font-style:normal;font-variant:normal;font-weight:400;font-stretch:Condensed;font-family:Helvetica-Narrow;" dy="0.000000" dx="0.000000">J</tspan><tspan id="tspan312" style="fill:#000000;font-size:10.687500px;font-style:normal;font-variant:normal;font-weight:400;font-stretch:Condensed;font-family:Helvetica-Narrow;" dy="0.000000" dx="0.028329">1</tspan></tspan></text>
  </g>
  <g id="g320" clip-path="url(#clipWmfPath1)"/>
  <g id="g330" clip-path="url(#clipWmfPath1)">
    <text id="text328" y="0.000000" x="0.000000" transform="matrix(1.000000,-0.000000,0.000000,1.000000,341.068110,174.330832)" style="font-size:10.687500px;font-style:normal;font-variant:normal;font-weight:400;font-stretch:Condensed;line-height:125.000000%;letter-spacing:0px;word-spacing:0px;fill:#000000;fill-opacity:1;stroke:none;font-family:Helvetica-Narrow;text-align:start;text-anchor:start;" xml:space="preserve"><tspan id="tspan326" y="0.000000" x="0.000000"><tspan id="tspan322" style="fill:#000000;font-size:10.687500px;font-style:normal;font-variant:normal;font-weight:400;font-stretch:Condensed;font-family:Helvetica-Narrow;" dy="0.000000" dx="0.000000">J</tspan><tspan id="tspan324" style="fill:#000000;font-size:10.687500px;font-style:normal;font-variant:normal;font-weight:400;font-stretch:Condensed;font-family:Helvetica-Narrow;" dy="0.000000" dx="0.028329">2</tspan></tspan></text>
  </g>
  <path id="path332" d="  M 281.60119,175.33082   L 281.60119,165.46429   L 296.13459,165.46429   L 296.13459,175.33082   L 281.60119,175.33082  z " clip-path="url(#clipWmfPath1)" style="fill:#ffffff;fill-rule:nonzero;fill-opacity:1;stroke:none;"/>
  <path id="path334" d="  M 281.60119,175.33082   L 281.60119,165.46429   L 296.13459,165.46429   L 296.13459,175.33082   L 281.60119,175.33082  z " clip-path="url(#clipWmfPath1)" style="fill:none;stroke:#000000;stroke-width:0.066666946px;stroke-linecap:round;stroke-linejoin:round;stroke-miterlimit:4;stroke-dasharray:none;stroke-opacity:1;"/>
  <path id="path336" d="  M 283.13453,169.3309   L 283.13453,166.59761   L 285.86788,166.59761   L 285.86788,169.3309   L 283.13453,169.3309  z " clip-path="url(#clipWmfPath1)" style="fill:#000000;fill-rule:nonzero;fill-opacity:1;stroke:none;"/>
  <path id="path338" d="  M 283.13453,169.3309   L 283.13453,166.59761   L 285.86788,166.59761   L 285.86788,169.3309   L 283.13453,169.3309  z " clip-path="url(#clipWmfPath1)" style="fill:none;stroke:#000000;stroke-width:0.066666946px;stroke-linecap:round;stroke-linejoin:round;stroke-miterlimit:4;stroke-dasharray:none;stroke-opacity:1;"/>
  <path id="path340" d="  M 287.46788,169.3309   L 287.46788,166.59761   L 290.20123,166.59761   L 290.20123,169.3309   L 287.46788,169.3309  z " clip-path="url(#clipWmfPath1)" style="fill:#000000;fill-rule:nonzero;fill-opacity:1;stroke:none;"/>
  <path id="path342" d="  M 287.46788,169.3309   L 287.46788,166.59761   L 290.20123,166.59761   L 290.20123,169.3309   L 287.46788,169.3309  z " clip-path="url(#clipWmfPath1)" style="fill:none;stroke:#000000;stroke-width:0.066666946px;stroke-linecap:round;stroke-linejoin:round;stroke-miterlimit:4;stroke-dasharray:none;stroke-opacity:1;"/>
  <path id="path344" d="  M 292.20124,169.3309   L 292.20124,166.59761   L 294.93458,166.59761   L 294.93458,169.3309   L 292.20124,169.3309  z " clip-path="url(#clipWmfPath1)" style="fill:#000000;fill-rule:nonzero;fill-opacity:1;stroke:none;"/>
  <path id="path346" d="  M 292.20124,169.3309   L 292.20124,166.59761   L 294.93458,166.59761   L 294.93458,169.3309   L 292.20124,169.3309  z " clip-path="url(#clipWmfPath1)" style="fill:none;stroke:#000000;stroke-width:0.066666946px;stroke-linecap:round;stroke-linejoin:round;stroke-miterlimit:4;stroke-dasharray:none;stroke-opacity:1;"/>
  <path id="path348" d="  M 283.13453,173.9975   L 283.13453,171.26421   L 285.86788,171.26421   L 285.86788,173.9975   L 283.13453,173.9975  z " clip-path="url(#clipWmfPath1)" style="fill:#ffffff;fill-rule:nonzero;fill-opacity:1;stroke:none;"/>
  <path id="path350" d="  M 283.13453,173.9975   L 283.13453,171.26421   L 285.86788,171.26421   L 285.86788,173.9975   L 283.13453,173.9975  z " clip-path="url(#clipWmfPath1)" style="fill:none;stroke:#000000;stroke-width:0.066666946px;stroke-linecap:round;stroke-linejoin:round;stroke-miterlimit:4;stroke-dasharray:none;stroke-opacity:1;"/>
  <path id="path352" d="  M 287.46788,173.9975   L 287.46788,171.26421   L 290.20123,171.26421   L 290.20123,173.9975   L 287.46788,173.9975  z " clip-path="url(#clipWmfPath1)" style="fill:#000000;fill-rule:nonzero;fill-opacity:1;stroke:none;"/>
  <path id="path354" d="  M 287.46788,173.9975   L 287.46788,171.26421   L 290.20123,171.26421   L 290.20123,173.9975   L 287.46788,173.9975  z " clip-path="url(#clipWmfPath1)" style="fill:none;stroke:#000000;stroke-width:0.066666946px;stroke-linecap:round;stroke-linejoin:round;stroke-miterlimit:4;stroke-dasharray:none;stroke-opacity:1;"/>
  <path id="path356" d="  M 292.20124,173.9975   L 292.20124,171.26421   L 294.93458,171.26421   L 294.93458,173.9975   L 292.20124,173.9975  z " clip-path="url(#clipWmfPath1)" style="fill:#000000;fill-rule:nonzero;fill-opacity:1;stroke:none;"/>
  <path id="path358" d="  M 292.20124,173.9975   L 292.20124,171.26421   L 294.93458,171.26421   L 294.93458,173.9975   L 292.20124,173.9975  z " clip-path="url(#clipWmfPath1)" style="fill:none;stroke:#000000;stroke-width:0.066666946px;stroke-linecap:round;stroke-linejoin:round;stroke-miterlimit:4;stroke-dasharray:none;stroke-opacity:1;"/>
  <path id="path360" d="  M 310.00131,175.33082   L 310.00131,165.46429   L 324.53471,165.46429   L 324.53471,175.33082   L 310.00131,175.33082  z " clip-path="url(#clipWmfPath1)" style="fill:#ffffff;fill-rule:nonzero;fill-opacity:1;stroke:none;"/>
  <path id="path362" d="  M 310.00131,175.33082   L 310.00131,165.46429   L 324.53471,165.46429   L 324.53471,175.33082   L 310.00131,175.33082  z " clip-path="url(#clipWmfPath1)" style="fill:none;stroke:#000000;stroke-width:0.066666946px;stroke-linecap:round;stroke-linejoin:round;stroke-miterlimit:4;stroke-dasharray:none;stroke-opacity:1;"/>
  <path id="path364" d="  M 311.53465,169.3309   L 311.53465,166.59761   L 314.268,166.59761   L 314.268,169.3309   L 311.53465,169.3309  z " clip-path="url(#clipWmfPath1)" style="fill:#000000;fill-rule:nonzero;fill-opacity:1;stroke:none;"/>
  <path id="path366" d="  M 311.53465,169.3309   L 311.53465,166.59761   L 314.268,166.59761   L 314.268,169.3309   L 311.53465,169.3309  z " clip-path="url(#clipWmfPath1)" style="fill:none;stroke:#000000;stroke-width:0.066666946px;stroke-linecap:round;stroke-linejoin:round;stroke-miterlimit:4;stroke-dasharray:none;stroke-opacity:1;"/>
  <path id="path368" d="  M 315.868,169.3309   L 315.868,166.59761   L 318.60135,166.59761   L 318.60135,169.3309   L 315.868,169.3309  z " clip-path="url(#clipWmfPath1)" style="fill:#000000;fill-rule:nonzero;fill-opacity:1;stroke:none;"/>
  <path id="path370" d="  M 315.868,169.3309   L 315.868,166.59761   L 318.60135,166.59761   L 318.60135,169.3309   L 315.868,169.3309  z " clip-path="url(#clipWmfPath1)" style="fill:none;stroke:#000000;stroke-width:0.066666946px;stroke-linecap:round;stroke-linejoin:round;stroke-miterlimit:4;stroke-dasharray:none;stroke-opacity:1;"/>
  <path id="path372" d="  M 320.60136,169.3309   L 320.60136,166.59761   L 323.3347,166.59761   L 323.3347,169.3309   L 320.60136,169.3309  z " clip-path="url(#clipWmfPath1)" style="fill:#000000;fill-rule:nonzero;fill-opacity:1;stroke:none;"/>
  <path id="path374" d="  M 320.60136,169.3309   L 320.60136,166.59761   L 323.3347,166.59761   L 323.3347,169.3309   L 320.60136,169.3309  z " clip-path="url(#clipWmfPath1)" style="fill:none;stroke:#000000;stroke-width:0.066666946px;stroke-linecap:round;stroke-linejoin:round;stroke-miterlimit:4;stroke-dasharray:none;stroke-opacity:1;"/>
  <path id="path376" d="  M 311.53465,173.9975   L 311.53465,171.26421   L 314.268,171.26421   L 314.268,173.9975   L 311.53465,173.9975  z " clip-path="url(#clipWmfPath1)" style="fill:#ffffff;fill-rule:nonzero;fill-opacity:1;stroke:none;"/>
  <path id="path378" d="  M 311.53465,173.9975   L 311.53465,171.26421   L 314.268,171.26421   L 314.268,173.9975   L 311.53465,173.9975  z " clip-path="url(#clipWmfPath1)" style="fill:none;stroke:#000000;stroke-width:0.066666946px;stroke-linecap:round;stroke-linejoin:round;stroke-miterlimit:4;stroke-dasharray:none;stroke-opacity:1;"/>
  <path id="path380" d="  M 315.868,173.9975   L 315.868,171.26421   L 318.60135,171.26421   L 318.60135,173.9975   L 315.868,173.9975  z " clip-path="url(#clipWmfPath1)" style="fill:#000000;fill-rule:nonzero;fill-opacity:1;stroke:none;"/>
  <path id="path382" d="  M 315.868,173.9975   L 315.868,171.26421   L 318.60135,171.26421   L 318.60135,173.9975   L 315.868,173.9975  z " clip-path="url(#clipWmfPath1)" style="fill:none;stroke:#000000;stroke-width:0.066666946px;stroke-linecap:round;stroke-linejoin:round;stroke-miterlimit:4;stroke-dasharray:none;stroke-opacity:1;"/>
  <path id="path384" d="  M 320.60136,173.9975   L 320.60136,171.26421   L 323.3347,171.26421   L 323.3347,173.9975   L 320.60136,173.9975  z " clip-path="url(#clipWmfPath1)" style="fill:#000000;fill-rule:nonzero;fill-opacity:1;stroke:none;"/>
  <path id="path386" d="  M 320.60136,173.9975   L 320.60136,171.26421   L 323.3347,171.26421   L 323.3347,173.9975   L 320.60136,173.9975  z " clip-path="url(#clipWmfPath1)" style="fill:none;stroke:#000000;stroke-width:0.066666946px;stroke-linecap:round;stroke-linejoin:round;stroke-miterlimit:4;stroke-dasharray:none;stroke-opacity:1;"/>
  <g id="g388" clip-path="url(#clipWmfPath1)"/>
  <g id="g396" clip-path="url(#clipWmfPath1)">
    <text id="text394" y="0.000000" x="0.000000" transform="matrix(1.000000,-0.000000,0.000000,1.000000,280.867856,163.930981)" style="font-size:10.687500px;font-style:normal;font-variant:normal;font-weight:400;font-stretch:Condensed;line-height:125.000000%;letter-spacing:0px;word-spacing:0px;fill:#000000;fill-opacity:1;stroke:none;font-family:Helvetica-Narrow;text-align:start;text-anchor:start;" xml:space="preserve"><tspan id="tspan392" y="0.000000" x="0.000000"><tspan id="tspan390" style="fill:#000000;font-size:10.687500px;font-style:normal;font-variant:normal;font-weight:400;font-stretch:Condensed;font-family:Helvetica-Narrow;" dy="0.000000" dx="0.000000">4</tspan></tspan></text>
  </g>
  <g id="g398" clip-path="url(#clipWmfPath1)"/>
  <g id="g406" clip-path="url(#clipWmfPath1)">
    <text id="text404" y="0.000000" x="0.000000" transform="matrix(1.000000,-0.000000,0.000000,1.000000,310.534648,164.197644)" style="font-size:10.687500px;font-style:normal;font-variant:normal;font-weight:400;font-stretch:Condensed;line-height:125.000000%;letter-spacing:0px;word-spacing:0px;fill:#000000;fill-opacity:1;stroke:none;font-family:Helvetica-Narrow;text-align:start;text-anchor:start;" xml:space="preserve"><tspan id="tspan402" y="0.000000" x="0.000000"><tspan id="tspan400" style="fill:#000000;font-size:10.687500px;font-style:normal;font-variant:normal;font-weight:400;font-stretch:Condensed;font-family:Helvetica-Narrow;" dy="0.000000" dx="0.000000">4</tspan></tspan></text>
  </g>
  <g id="g408" clip-path="url(#clipWmfPath1)"/>
  <g id="g426" clip-path="url(#clipWmfPath1)">
    <text id="text424" y="0.000000" x="0.000000" transform="matrix(1.000000,-0.000000,0.000000,1.000000,283.001198,51.732591)" style="font-size:9.312500px;font-style:normal;font-variant:normal;font-weight:400;font-stretch:Condensed;line-height:125.000000%;letter-spacing:0px;word-spacing:0px;fill:#000000;fill-opacity:1;stroke:none;font-family:Helvetica-Narrow;text-align:start;text-anchor:start;" xml:space="preserve"><tspan id="tspan422" y="0.000000" x="0.000000"><tspan id="tspan410" style="fill:#000000;font-size:9.312500px;font-style:normal;font-variant:normal;font-weight:400;font-stretch:Condensed;font-family:Helvetica-Narrow;" dy="0.000000" dx="0.000000">M</tspan><tspan id="tspan412" style="fill:#000000;font-size:9.312500px;font-style:normal;font-variant:normal;font-weight:400;font-stretch:Condensed;font-family:Helvetica-Narrow;" dy="0.000000" dx="0.202852">3</tspan><tspan id="tspan414" style="fill:#000000;font-size:9.312500px;font-style:normal;font-variant:normal;font-weight:400;font-stretch:Condensed;font-family:Helvetica-Narrow;" dy="0.000000" dx="0.183447">6</tspan><tspan id="tspan416" style="fill:#000000;font-size:9.312500px;font-style:normal;font-variant:normal;font-weight:400;font-stretch:Condensed;font-family:Helvetica-Narrow;" dy="0.000000" dx="0.183447">2</tspan><tspan id="tspan418" style="fill:#000000;font-size:9.312500px;font-style:normal;font-variant:normal;font-weight:400;font-stretch:Condensed;font-family:Helvetica-Narrow;" dy="0.000000" dx="0.183447">9</tspan><tspan id="tspan420" style="fill:#000000;font-size:9.312500px;font-style:normal;font-variant:normal;font-weight:400;font-stretch:Condensed;font-family:Helvetica-Narrow;" dy="0.000000" dx="0.183447">A</tspan></tspan></text>
  </g>
  <g id="g428" clip-path="url(#clipWmfPath1)"/>
  <g id="g478" clip-path="url(#clipWmfPath1)">
    <text id="text448" y="0.000000" x="0.000000" transform="matrix(1.000000,-0.000000,0.000000,1.000000,75.000317,220.996829)" style="font-size:10.687500px;font-style:normal;font-variant:normal;font-weight:400;font-stretch:Condensed;line-height:125.000000%;letter-spacing:0px;word-spacing:0px;fill:#000000;fill-opacity:1;stroke:none;font-family:Helvetica-Narrow;text-align:start;text-anchor:start;" xml:space="preserve"><tspan id="tspan446" y="0.000000" x="0.000000"><tspan id="tspan430" style="fill:#000000;font-size:10.687500px;font-style:normal;font-variant:normal;font-weight:400;font-stretch:Condensed;font-family:Helvetica-Narrow;" dy="0.000000" dx="0.000000">E</tspan><tspan id="tspan432" style="fill:#000000;font-size:10.687500px;font-style:normal;font-variant:normal;font-weight:400;font-stretch:Condensed;font-family:Helvetica-Narrow;" dy="0.000000" dx="-0.102519">X</tspan><tspan id="tspan434" style="fill:#000000;font-size:10.687500px;font-style:normal;font-variant:normal;font-weight:400;font-stretch:Condensed;font-family:Helvetica-Narrow;" dy="0.000000" dx="-0.102519">T</tspan><tspan id="tspan436" style="fill:#000000;font-size:10.687500px;font-style:normal;font-variant:normal;font-weight:400;font-stretch:Condensed;font-family:Helvetica-Narrow;" dy="0.000000" dx="0.055771">E</tspan><tspan id="tspan438" style="fill:#000000;font-size:10.687500px;font-style:normal;font-variant:normal;font-weight:400;font-stretch:Condensed;font-family:Helvetica-Narrow;" dy="0.000000" dx="-0.102519">R</tspan><tspan id="tspan440" style="fill:#000000;font-size:10.687500px;font-style:normal;font-variant:normal;font-weight:400;font-stretch:Condensed;font-family:Helvetica-Narrow;" dy="0.000000" dx="-0.050121">N</tspan><tspan id="tspan442" style="fill:#000000;font-size:10.687500px;font-style:normal;font-variant:normal;font-weight:400;font-stretch:Condensed;font-family:Helvetica-Narrow;" dy="0.000000" dx="-0.050121">A</tspan><tspan id="tspan444" style="fill:#000000;font-size:10.687500px;font-style:normal;font-variant:normal;font-weight:400;font-stretch:Condensed;font-family:Helvetica-Narrow;" dy="0.000000" dx="-0.102519">L</tspan></tspan></text>
    <text id="text464" y="0.000000" x="60.066921" transform="matrix(1.000000,-0.000000,0.000000,1.000000,75.000317,220.996829)" style="font-size:10.687500px;font-style:normal;font-variant:normal;font-weight:400;font-stretch:Condensed;line-height:125.000000%;letter-spacing:0px;word-spacing:0px;fill:#000000;fill-opacity:1;stroke:none;font-family:Helvetica-Narrow;text-align:start;text-anchor:start;" xml:space="preserve"><tspan id="tspan462" y="0.000000" x="60.066921"><tspan id="tspan450" style="fill:#000000;font-size:10.687500px;font-style:normal;font-variant:normal;font-weight:400;font-stretch:Condensed;font-family:Helvetica-Narrow;" dy="0.000000" dx="0.000000">M</tspan><tspan id="tspan452" style="fill:#000000;font-size:10.687500px;font-style:normal;font-variant:normal;font-weight:400;font-stretch:Condensed;font-family:Helvetica-Narrow;" dy="0.000000" dx="-0.022679">E</tspan><tspan id="tspan454" style="fill:#000000;font-size:10.687500px;font-style:normal;font-variant:normal;font-weight:400;font-stretch:Condensed;font-family:Helvetica-Narrow;" dy="0.000000" dx="-0.102519">M</tspan><tspan id="tspan456" style="fill:#000000;font-size:10.687500px;font-style:normal;font-variant:normal;font-weight:400;font-stretch:Condensed;font-family:Helvetica-Narrow;" dy="0.000000" dx="-0.022679">O</tspan><tspan id="tspan458" style="fill:#000000;font-size:10.687500px;font-style:normal;font-variant:normal;font-weight:400;font-stretch:Condensed;font-family:Helvetica-Narrow;" dy="0.000000" dx="-0.075077">R</tspan><tspan id="tspan460" style="fill:#000000;font-size:10.687500px;font-style:normal;font-variant:normal;font-weight:400;font-stretch:Condensed;font-family:Helvetica-Narrow;" dy="0.000000" dx="-0.116788">Y</tspan></tspan></text>
    <text id="text476" y="0.000000" x="110.933803" transform="matrix(1.000000,-0.000000,0.000000,1.000000,75.000317,220.996829)" style="font-size:10.687500px;font-style:normal;font-variant:normal;font-weight:400;font-stretch:Condensed;line-height:125.000000%;letter-spacing:0px;word-spacing:0px;fill:#000000;fill-opacity:1;stroke:none;font-family:Helvetica-Narrow;text-align:start;text-anchor:start;" xml:space="preserve"><tspan id="tspan474" y="0.000000" x="110.933803"><tspan id="tspan466" style="fill:#000000;font-size:10.687500px;font-style:normal;font-variant:normal;font-weight:400;font-stretch:Condensed;font-family:Helvetica-Narrow;" dy="0.000000" dx="0.000000">C</tspan><tspan id="tspan468" style="fill:#000000;font-size:10.687500px;font-style:normal;font-variant:normal;font-weight:400;font-stretch:Condensed;font-family:Helvetica-Narrow;" dy="0.000000" dx="-0.050121">A</tspan><tspan id="tspan470" style="fill:#000000;font-size:10.687500px;font-style:normal;font-variant:normal;font-weight:400;font-stretch:Condensed;font-family:Helvetica-Narrow;" dy="0.000000" dx="-0.102519">R</tspan><tspan id="tspan472" style="fill:#000000;font-size:10.687500px;font-style:normal;font-variant:normal;font-weight:400;font-stretch:Condensed;font-family:Helvetica-Narrow;" dy="0.000000" dx="-0.050121">D</tspan></tspan></text>
  </g>
</svg>