<?xml version="1.0" encoding="UTF-8" standalone="no"?>
<svg
   xmlns:dc="http://purl.org/dc/elements/1.1/"
   xmlns:cc="http://creativecommons.org/ns#"
   xmlns:rdf="http://www.w3.org/1999/02/22-rdf-syntax-ns#"
   xmlns:svg="http://www.w3.org/2000/svg"
   xmlns="http://www.w3.org/2000/svg"
   id="svg294"
   height="30.53mm"
   width="40.650002mm"
   version="1.0">
  <metadata
     id="metadata298">
    <rdf:RDF>
      <cc:Work
         rdf:about="">
        <dc:format>image/svg+xml</dc:format>
        <dc:type
           rdf:resource="http://purl.org/dc/dcmitype/StillImage" />
      </cc:Work>
    </rdf:RDF>
  </metadata>
  <defs
     id="defs6">
    <clipPath
       id="clipWmfPath1"
       clipPathUnits="userSpaceOnUse">
      <path
         id="path2"
         d="M 0,0 L 153.56667,0 L 153.56667,115.31785 L 0,115.31785 z" />
    </clipPath>
    <pattern
       y="0"
       x="0"
       height="6"
       width="6"
       patternUnits="userSpaceOnUse"
       id="WMFhbasepattern" />
  </defs>
  <path
     id="path8"
     d="  M 36.533333,83.55545   L 36.533333,26.363127   L 103.63333,26.363127   L 103.63333,83.55545   L 36.533333,83.55545  z "
     clip-path="url(#clipWmfPath1)"
     style="fill:#ffffff;fill-rule:evenodd;fill-opacity:1;stroke:none;" />
  <path
     id="path10"
     d="  M 103.63333,83.855409   L 103.63333,83.25549   L 36.833333,83.25549   L 36.833333,26.663087   L 103.33333,26.663087   L 103.33333,83.25549   L 36.833333,83.25549   L 36.833333,26.363127   L 36.233333,26.363127   L 36.233333,83.855409   L 103.93333,83.855409   L 103.93333,26.063168   L 36.233333,26.063168   L 36.233333,83.855409   L 103.63333,83.855409  z "
     clip-path="url(#clipWmfPath1)"
     style="fill:#000000;fill-rule:nonzero;fill-opacity:1;stroke:#000000;stroke-width:0.033333335px;stroke-linecap:round;stroke-linejoin:round;stroke-miterlimit:4;stroke-dasharray:none;stroke-opacity:1;" />
  <path
     id="path12"
     d="  M 114,35.095289   L 99.8,35.095289   L 99.8,30.895852   L 114,30.895852   L 114,35.095289  z "
     clip-path="url(#clipWmfPath1)"
     style="fill:#b2b2b2;fill-rule:nonzero;fill-opacity:1;stroke:none;" />
  <path
     id="path14"
     d="  M 114,35.095289   L 99.8,35.095289   L 99.8,30.895852   L 114,30.895852   L 114,35.095289  z "
     clip-path="url(#clipWmfPath1)"
     style="fill:none;stroke:#000000;stroke-width:0.033333335px;stroke-linecap:round;stroke-linejoin:round;stroke-miterlimit:4;stroke-dasharray:none;stroke-opacity:1;" />
  <path
     id="path16"
     d="  M 114,78.28949   L 99.8,78.28949   L 99.8,74.156711   L 114,74.156711   L 114,78.28949  z "
     clip-path="url(#clipWmfPath1)"
     style="fill:#b2b2b2;fill-rule:nonzero;fill-opacity:1;stroke:none;" />
  <path
     id="path18"
     d="  M 114,78.28949   L 99.8,78.28949   L 99.8,74.156711   L 114,74.156711   L 114,78.28949  z "
     clip-path="url(#clipWmfPath1)"
     style="fill:none;stroke:#000000;stroke-width:0.033333335px;stroke-linecap:round;stroke-linejoin:round;stroke-miterlimit:4;stroke-dasharray:none;stroke-opacity:1;" />
  <path
     id="path20"
     d="  M 104.66667,35.095289   L 102.53333,35.095289   L 102.53333,33.362188   L 104.46667,33.362188   L 104.46667,32.095691   L 105.73333,32.095691   L 105.73333,37.561624   L 117.2,37.561624   L 118.63333,37.828255   L 119.13333,38.061557   L 119.33333,38.361517   L 119.33333,69.890617   L 119.13333,70.257235   L 118.66667,70.590523   L 117.4,70.890483   L 105.33333,70.890483   L 105.33333,76.223101   L 104.73333,76.223101   L 104.73333,74.889946   L 102.33333,74.889946   L 102.33333,73.090188   L 104.73333,73.090188   L 104.66667,35.095289  z "
     clip-path="url(#clipWmfPath1)"
     style="fill:#e6e6e6;fill-rule:nonzero;fill-opacity:1;stroke:none;" />
  <path
     id="path22"
     d="  M 104.66667,35.095289   L 102.53333,35.095289   L 102.53333,33.362188   L 104.46667,33.362188   L 104.46667,32.095691   L 105.73333,32.095691   L 105.73333,37.561624   L 117.2,37.561624   L 118.63333,37.828255   L 119.13333,38.061557   L 119.33333,38.361517   L 119.33333,69.890617   L 119.13333,70.257235   L 118.66667,70.590523   L 117.4,70.890483   L 105.33333,70.890483   L 105.33333,76.223101   L 104.73333,76.223101   L 104.73333,74.889946   L 102.33333,74.889946   L 102.33333,73.090188   L 104.73333,73.090188   L 104.66667,35.095289  z "
     clip-path="url(#clipWmfPath1)"
     style="fill:none;stroke:#000000;stroke-width:0.033333335px;stroke-linecap:round;stroke-linejoin:round;stroke-miterlimit:4;stroke-dasharray:none;stroke-opacity:1;" />
  <path
     id="path24"
     d="  M 106.13333,81.622376   L 101.53333,81.622376   L 101.53333,72.023664   L 79.266667,72.023664   L 79.266667,36.961705   L 101.6,36.961705   L 101.66667,28.429517   L 106.13333,28.429517   L 106.13333,81.622376  z "
     clip-path="url(#clipWmfPath1)"
     style="fill:#666666;fill-rule:nonzero;fill-opacity:1;stroke:none;" />
  <path
     id="path26"
     d="  M 106.13333,81.622376   L 101.53333,81.622376   L 101.53333,72.023664   L 79.266667,72.023664   L 79.266667,36.961705   L 101.6,36.961705   L 101.66667,28.429517   L 106.13333,28.429517   L 106.13333,81.622376  z "
     clip-path="url(#clipWmfPath1)"
     style="fill:none;stroke:#000000;stroke-width:0.033333335px;stroke-linecap:round;stroke-linejoin:round;stroke-miterlimit:4;stroke-dasharray:none;stroke-opacity:1;" />
  <path
     id="path28"
     d="  M 42.166667,59.725315   L 25.633333,59.725315   L 25.633333,57.192322   L 42.166667,57.192322   L 42.166667,59.725315  z "
     clip-path="url(#clipWmfPath1)"
     style="fill:#000000;fill-rule:nonzero;fill-opacity:1;stroke:none;" />
  <path
     id="path30"
     d="  M 42.166667,59.725315   L 25.633333,59.725315   L 25.633333,57.192322   L 42.166667,57.192322   L 42.166667,59.725315  z "
     clip-path="url(#clipWmfPath1)"
     style="fill:none;stroke:#000000;stroke-width:0.033333335px;stroke-linecap:round;stroke-linejoin:round;stroke-miterlimit:4;stroke-dasharray:none;stroke-opacity:1;" />
  <path
     id="path32"
     d="  M 25.5,57.192322   L 25.5,59.725315   L 24.1,58.392161   L 25.5,57.192322  z "
     clip-path="url(#clipWmfPath1)"
     style="fill:#000000;fill-rule:nonzero;fill-opacity:1;stroke:none;" />
  <path
     id="path34"
     d="  M 25.5,57.192322   L 25.5,59.725315   L 24.1,58.392161   L 25.5,57.192322  z "
     clip-path="url(#clipWmfPath1)"
     style="fill:none;stroke:#000000;stroke-width:0.033333335px;stroke-linecap:round;stroke-linejoin:round;stroke-miterlimit:4;stroke-dasharray:none;stroke-opacity:1;" />
  <path
     id="path36"
     d="  M 42.166667,78.889409   L 25.633333,78.889409   L 25.633333,76.356416   L 42.166667,76.356416   L 42.166667,78.889409  z "
     clip-path="url(#clipWmfPath1)"
     style="fill:#000000;fill-rule:nonzero;fill-opacity:1;stroke:none;" />
  <path
     id="path38"
     d="  M 42.166667,78.889409   L 25.633333,78.889409   L 25.633333,76.356416   L 42.166667,76.356416   L 42.166667,78.889409  z "
     clip-path="url(#clipWmfPath1)"
     style="fill:none;stroke:#000000;stroke-width:0.033333335px;stroke-linecap:round;stroke-linejoin:round;stroke-miterlimit:4;stroke-dasharray:none;stroke-opacity:1;" />
  <path
     id="path40"
     d="  M 25.5,76.356416   L 25.5,78.889409   L 24.1,77.556255   L 25.5,76.356416  z "
     clip-path="url(#clipWmfPath1)"
     style="fill:#000000;fill-rule:nonzero;fill-opacity:1;stroke:none;" />
  <path
     id="path42"
     d="  M 25.5,76.356416   L 25.5,78.889409   L 24.1,77.556255   L 25.5,76.356416  z "
     clip-path="url(#clipWmfPath1)"
     style="fill:none;stroke:#000000;stroke-width:0.033333335px;stroke-linecap:round;stroke-linejoin:round;stroke-miterlimit:4;stroke-dasharray:none;stroke-opacity:1;" />
  <path
     id="path44"
     d="  M 42.033333,74.090054   L 25.5,74.090054   L 25.5,71.55706   L 42.033333,71.55706   L 42.033333,74.090054  z "
     clip-path="url(#clipWmfPath1)"
     style="fill:#000000;fill-rule:nonzero;fill-opacity:1;stroke:none;" />
  <path
     id="path46"
     d="  M 42.033333,74.090054   L 25.5,74.090054   L 25.5,71.55706   L 42.033333,71.55706   L 42.033333,74.090054  z "
     clip-path="url(#clipWmfPath1)"
     style="fill:none;stroke:#000000;stroke-width:0.033333335px;stroke-linecap:round;stroke-linejoin:round;stroke-miterlimit:4;stroke-dasharray:none;stroke-opacity:1;" />
  <path
     id="path48"
     d="  M 25.366667,71.55706   L 25.366667,74.090054   L 23.966667,72.756899   L 25.366667,71.55706  z "
     clip-path="url(#clipWmfPath1)"
     style="fill:#000000;fill-rule:nonzero;fill-opacity:1;stroke:none;" />
  <path
     id="path50"
     d="  M 25.366667,71.55706   L 25.366667,74.090054   L 23.966667,72.756899   L 25.366667,71.55706  z "
     clip-path="url(#clipWmfPath1)"
     style="fill:none;stroke:#000000;stroke-width:0.033333335px;stroke-linecap:round;stroke-linejoin:round;stroke-miterlimit:4;stroke-dasharray:none;stroke-opacity:1;" />
  <path
     id="path52"
     d="  M 42.1,69.424013   L 25.566667,69.424013   L 25.566667,66.89102   L 42.1,66.89102   L 42.1,69.424013  z "
     clip-path="url(#clipWmfPath1)"
     style="fill:#000000;fill-rule:nonzero;fill-opacity:1;stroke:none;" />
  <path
     id="path54"
     d="  M 42.1,69.424013   L 25.566667,69.424013   L 25.566667,66.89102   L 42.1,66.89102   L 42.1,69.424013  z "
     clip-path="url(#clipWmfPath1)"
     style="fill:none;stroke:#000000;stroke-width:0.033333335px;stroke-linecap:round;stroke-linejoin:round;stroke-miterlimit:4;stroke-dasharray:none;stroke-opacity:1;" />
  <path
     id="path56"
     d="  M 25.433333,66.89102   L 25.433333,69.424013   L 24.033333,68.090859   L 25.433333,66.89102  z "
     clip-path="url(#clipWmfPath1)"
     style="fill:#000000;fill-rule:nonzero;fill-opacity:1;stroke:none;" />
  <path
     id="path58"
     d="  M 25.433333,66.89102   L 25.433333,69.424013   L 24.033333,68.090859   L 25.433333,66.89102  z "
     clip-path="url(#clipWmfPath1)"
     style="fill:none;stroke:#000000;stroke-width:0.033333335px;stroke-linecap:round;stroke-linejoin:round;stroke-miterlimit:4;stroke-dasharray:none;stroke-opacity:1;" />
  <path
     id="path60"
     d="  M 42.166667,64.691315   L 25.633333,64.691315   L 25.633333,62.158322   L 42.166667,62.158322   L 42.166667,64.691315  z "
     clip-path="url(#clipWmfPath1)"
     style="fill:#000000;fill-rule:nonzero;fill-opacity:1;stroke:none;" />
  <path
     id="path62"
     d="  M 42.166667,64.691315   L 25.633333,64.691315   L 25.633333,62.158322   L 42.166667,62.158322   L 42.166667,64.691315  z "
     clip-path="url(#clipWmfPath1)"
     style="fill:none;stroke:#000000;stroke-width:0.033333335px;stroke-linecap:round;stroke-linejoin:round;stroke-miterlimit:4;stroke-dasharray:none;stroke-opacity:1;" />
  <path
     id="path64"
     d="  M 25.5,62.158322   L 25.5,64.691315   L 24.1,63.358161   L 25.5,62.158322  z "
     clip-path="url(#clipWmfPath1)"
     style="fill:#000000;fill-rule:nonzero;fill-opacity:1;stroke:none;" />
  <path
     id="path66"
     d="  M 25.5,62.158322   L 25.5,64.691315   L 24.1,63.358161   L 25.5,62.158322  z "
     clip-path="url(#clipWmfPath1)"
     style="fill:none;stroke:#000000;stroke-width:0.033333335px;stroke-linecap:round;stroke-linejoin:round;stroke-miterlimit:4;stroke-dasharray:none;stroke-opacity:1;" />
  <path
     id="path68"
     d="  M 40.333333,80.589181   L 37.666667,80.589181   L 37.666667,55.525879   L 40.333333,55.525879   L 40.333333,80.589181  z "
     clip-path="url(#clipWmfPath1)"
     style="fill:#b2b2b2;fill-rule:nonzero;fill-opacity:1;stroke:none;" />
  <path
     id="path70"
     d="  M 40.333333,80.589181   L 37.666667,80.589181   L 37.666667,55.525879   L 40.333333,55.525879   L 40.333333,80.589181  z "
     clip-path="url(#clipWmfPath1)"
     style="fill:none;stroke:#000000;stroke-width:0.033333335px;stroke-linecap:round;stroke-linejoin:round;stroke-miterlimit:4;stroke-dasharray:none;stroke-opacity:1;" />
  <path
     id="path72"
     d="  M 65.733333,71.157114   L 70.933333,71.157114   L 70.933333,82.422268   L 65.733333,82.422268   L 65.733333,71.157114  z "
     clip-path="url(#clipWmfPath1)"
     style="fill:#bfbfbf;fill-rule:nonzero;fill-opacity:1;stroke:none;" />
  <path
     id="path74"
     d="  M 65.733333,71.157114   L 70.933333,71.157114   L 70.933333,82.422268   L 65.733333,82.422268   L 65.733333,71.157114  z "
     clip-path="url(#clipWmfPath1)"
     style="fill:none;stroke:#000000;stroke-width:0.033333335px;stroke-linecap:round;stroke-linejoin:round;stroke-miterlimit:4;stroke-dasharray:none;stroke-opacity:1;" />
  <path
     id="path76"
     d="  M 66.866667,72.690242   L 69.866667,72.690242   L 69.866667,75.756497   L 66.866667,75.756497   L 66.866667,72.690242  z "
     clip-path="url(#clipWmfPath1)"
     style="fill:#000000;fill-rule:nonzero;fill-opacity:1;stroke:none;" />
  <path
     id="path78"
     d="  M 66.866667,72.690242   L 69.866667,72.690242   L 69.866667,75.756497   L 66.866667,75.756497   L 66.866667,72.690242  z "
     clip-path="url(#clipWmfPath1)"
     style="fill:none;stroke:#000000;stroke-width:0.033333335px;stroke-linecap:round;stroke-linejoin:round;stroke-miterlimit:4;stroke-dasharray:none;stroke-opacity:1;" />
  <path
     id="path80"
     d="  M 66.866667,77.68957   L 69.866667,77.68957   L 69.866667,80.755825   L 66.866667,80.755825   L 66.866667,77.68957  z "
     clip-path="url(#clipWmfPath1)"
     style="fill:#000000;fill-rule:nonzero;fill-opacity:1;stroke:none;" />
  <path
     id="path82"
     d="  M 66.866667,77.68957   L 69.866667,77.68957   L 69.866667,80.755825   L 66.866667,80.755825   L 66.866667,77.68957  z "
     clip-path="url(#clipWmfPath1)"
     style="fill:none;stroke:#000000;stroke-width:0.033333335px;stroke-linecap:round;stroke-linejoin:round;stroke-miterlimit:4;stroke-dasharray:none;stroke-opacity:1;" />
  <path
     id="path84"
     d="  M 131.7,56.992349   L 131.7,59.791973   L 131.86667,60.491879   L 132.26667,61.025141   L 132.86667,61.358429   L 133.63333,61.458416   L 148.7,61.458416   L 149.46667,61.325101   L 150.06667,60.925154   L 150.46667,60.325235   L 150.63333,59.592   L 150.63333,50.126604   L 150.46667,49.393369   L 150.06667,48.826778   L 149.46667,48.460161   L 148.7,48.326846   L 133.63333,48.326846   L 132.86667,48.49349   L 132.26667,48.960094   L 131.86667,49.626671   L 131.7,50.393235   L 131.7,52.926228   L 119.63333,54.92596   L 131.7,56.992349  z "
     clip-path="url(#clipWmfPath1)"
     style="fill:#ffffff;fill-rule:nonzero;fill-opacity:1;stroke:none;" />
  <path
     id="path86"
     d="  M 119.73333,54.426027   L 119.13333,54.825973   L 119.53333,55.425893   L 131.2,57.425624   L 131.2,59.858631   L 131.4,60.725181   L 131.93333,61.425087   L 132.7,61.858362   L 133.6,61.958349   L 148.73333,61.958349   L 149.66667,61.791705   L 150.43333,61.291772   L 150.93333,60.525208   L 151.13333,59.658658   L 151.13333,50.059946   L 150.93333,49.193396   L 150.43333,48.460161   L 149.63333,47.993557   L 148.73333,47.826913   L 133.56667,47.826913   L 132.63333,48.026886   L 131.86667,48.626805   L 131.4,49.426698   L 131.2,50.326577   L 131.2,52.492953   L 119.56667,54.426027   L 119.53333,55.425893   L 131.2,57.425624   L 131.2,59.791973   L 131.7,60.291906   L 132.2,59.791973   L 132.2,56.559074   L 122.66667,54.92596   L 132.2,53.359503   L 132.2,50.459893   L 132.33333,49.826644   L 132.66667,49.293383   L 133.1,48.960094   L 133.7,48.826778   L 148.66667,48.826778   L 149.3,48.926765   L 149.7,49.193396   L 150,49.593342   L 150.13333,50.193262   L 150.13333,59.525342   L 150,60.125262   L 149.7,60.558537   L 149.26667,60.858497   L 148.66667,60.958483   L 133.66667,60.958483   L 133.03333,60.858497   L 132.6,60.625195   L 132.33333,60.258577   L 132.2,59.725315   L 132.2,56.559074   L 119.73333,54.426027  z "
     clip-path="url(#clipWmfPath1)"
     style="fill:#000000;fill-rule:nonzero;fill-opacity:1;stroke:#000000;stroke-width:0.033333335px;stroke-linecap:round;stroke-linejoin:round;stroke-miterlimit:4;stroke-dasharray:none;stroke-opacity:1;" />
  <g
     id="g88"
     clip-path="url(#clipWmfPath1)" />
  <g
     id="g98"
     clip-path="url(#clipWmfPath1)">
    <text
       id="text96"
       y="0.000000"
       x="0.000000"
       transform="matrix(1.000000,-0.000000,0.000000,1.000000,134.900000,58.458819)"
       style="font-size:10.687500px;font-style:normal;font-variant:normal;font-weight:400;font-stretch:Condensed;line-height:125.000000%;letter-spacing:0px;word-spacing:0px;fill:#000000;fill-opacity:1;stroke:none;font-family:Helvetica-Narrow;text-align:start;text-anchor:start;"
       xml:space="preserve"><tspan
         id="tspan94"
         y="0.000000"
         x="0.000000"><tspan
           id="tspan90"
           style="fill:#000000;font-size:10.687500px;font-style:normal;font-variant:normal;font-weight:400;font-stretch:Condensed;font-family:Helvetica-Narrow;"
           dy="0.000000"
           dx="0.000000">P</tspan><tspan
           id="tspan92"
           style="fill:#000000;font-size:10.687500px;font-style:normal;font-variant:normal;font-weight:400;font-stretch:Condensed;font-family:Helvetica-Narrow;"
           dy="0.000000"
           dx="-0.161896">3</tspan></tspan></text>
  </g>
  <path
     id="path100"
     d="  M 70.466667,96.153758   L 76.533333,96.153758   L 77.3,96.287074   L 77.9,96.68702   L 78.3,97.28694   L 78.466667,98.020174   L 78.466667,107.48557   L 78.3,108.25213   L 77.9,108.85205   L 77.3,109.252   L 76.533333,109.41864   L 61.533333,109.41864   L 60.766667,109.252   L 60.166667,108.85205   L 59.766667,108.25213   L 59.6,107.48557   L 59.6,98.086832   L 59.766667,97.353597   L 60.166667,96.787007   L 60.766667,96.420389   L 61.533333,96.287074   L 66.666667,96.287074   L 68.266667,83.088846   L 70.466667,96.153758  z "
     clip-path="url(#clipWmfPath1)"
     style="fill:#ffffff;fill-rule:nonzero;fill-opacity:1;stroke:none;" />
  <path
     id="path102"
     d="  M 68.766667,82.988859   L 68.166667,82.588913   L 67.766667,83.188832   L 70.033333,96.653691   L 76.5,96.653691   L 77.1,96.753678   L 77.533333,97.053637   L 77.833333,97.486913   L 77.966667,98.086832   L 77.966667,107.41891   L 77.833333,108.05216   L 77.533333,108.48544   L 77.1,108.7854   L 76.466667,108.91871   L 61.6,108.91871   L 60.966667,108.7854   L 60.533333,108.48544   L 60.233333,108.05216   L 60.1,107.41891   L 60.1,98.15349   L 60.233333,97.55357   L 60.533333,97.153624   L 60.933333,96.886993   L 61.566667,96.787007   L 67.1,96.787007   L 68.333333,86.621705   L 70.033333,96.653691   L 76.533333,96.653691   L 77.033333,96.153758   L 76.533333,95.653825   L 70.9,95.653825   L 68.766667,82.988859   L 67.766667,83.022188   L 66.233333,95.787141   L 61.5,95.787141   L 60.6,95.953785   L 59.8,96.420389   L 59.3,97.153624   L 59.1,98.020174   L 59.1,107.55223   L 59.3,108.45211   L 59.8,109.21867   L 60.566667,109.7186   L 61.466667,109.91858   L 76.6,109.91858   L 77.5,109.7186   L 78.266667,109.21867   L 78.766667,108.45211   L 78.966667,107.55223   L 78.966667,97.953517   L 78.766667,97.086966   L 78.266667,96.320403   L 77.5,95.82047   L 76.566667,95.653825   L 70.9,95.653825   L 68.766667,82.988859  z "
     clip-path="url(#clipWmfPath1)"
     style="fill:#000000;fill-rule:nonzero;fill-opacity:1;stroke:#000000;stroke-width:0.033333335px;stroke-linecap:round;stroke-linejoin:round;stroke-miterlimit:4;stroke-dasharray:none;stroke-opacity:1;" />
  <g
     id="g104"
     clip-path="url(#clipWmfPath1)" />
  <g
     id="g114"
     clip-path="url(#clipWmfPath1)">
    <text
       id="text112"
       y="0.000000"
       x="0.000000"
       transform="matrix(1.000000,-0.000000,0.000000,1.000000,62.966667,106.785664)"
       style="font-size:10.687500px;font-style:normal;font-variant:normal;font-weight:400;font-stretch:Condensed;line-height:125.000000%;letter-spacing:0px;word-spacing:0px;fill:#000000;fill-opacity:1;stroke:none;font-family:Helvetica-Narrow;text-align:start;text-anchor:start;"
       xml:space="preserve"><tspan
         id="tspan110"
         y="0.000000"
         x="0.000000"><tspan
           id="tspan106"
           style="fill:#000000;font-size:10.687500px;font-style:normal;font-variant:normal;font-weight:400;font-stretch:Condensed;font-family:Helvetica-Narrow;"
           dy="0.000000"
           dx="0.000000">P</tspan><tspan
           id="tspan108"
           style="fill:#000000;font-size:10.687500px;font-style:normal;font-variant:normal;font-weight:400;font-stretch:Condensed;font-family:Helvetica-Narrow;"
           dy="0.000000"
           dx="-0.069215">2</tspan></tspan></text>
  </g>
  <path
     id="path116"
     d="  M 19.4,102.98617   L 18.433333,102.81953   L 17.6,102.38625   L 17.033333,101.75301   L 16.8,100.98644   L 16.8,91.521047   L 17.033333,90.787812   L 17.6,90.221221   L 18.433333,89.854604   L 19.4,89.721289   L 32.533333,89.721289   L 33.766667,88.321476   L 35.9,85.221893   L 38,82.222295   L 38.733333,81.255758   L 38.966667,81.022456   L 39.133333,80.989127   L 38.7,82.755557   L 37.3,86.321745   L 35.133333,91.72102   L 35.133333,101.11976   L 34.9,101.85299   L 34.333333,102.45291   L 33.5,102.85286   L 32.533333,102.98617   L 19.4,102.98617  z "
     clip-path="url(#clipWmfPath1)"
     style="fill:#ffffff;fill-rule:nonzero;fill-opacity:1;stroke:none;" />
  <path
     id="path118"
     d="  M 32.533333,103.48611   L 33.033333,102.98617   L 32.533333,102.48624   L 19.433333,102.48624   L 18.6,102.3196   L 17.9,101.98631   L 17.5,101.48638   L 17.3,100.91979   L 17.3,91.587705   L 17.466667,91.054443   L 17.9,90.654497   L 18.566667,90.354537   L 19.433333,90.221221   L 32.533333,90.221221   L 32.9,90.054577   L 34.133333,88.654765   L 34.2,88.621436   L 36.333333,85.521852   L 38.4,82.522255   L 39.1,81.589047   L 39.2,81.48906   L 39.233333,81.48906   L 39.633333,81.122443   L 38.633333,80.855812   L 38.2,82.588913   L 36.833333,86.121772   L 36.833333,86.121772   L 34.666667,91.521047   L 34.633333,91.72102   L 34.633333,101.0531   L 34.466667,101.58636   L 34.033333,102.05297   L 33.366667,102.35293   L 32.5,102.48624   L 19.433333,102.48624   L 18.533333,102.3196   L 17.933333,102.71954   L 18.333333,103.31946   L 19.3,103.48611   L 19.4,103.48611   L 32.533333,103.48611   L 32.6,103.48611   L 33.566667,103.35279   L 33.733333,103.31946   L 34.566667,102.91952   L 34.7,102.7862   L 35.266667,102.18628   L 35.366667,102.01964   L 35.6,101.2864   L 35.633333,101.11976   L 35.633333,91.821007   L 37.766667,86.521718   L 37.766667,86.521718   L 39.166667,82.95553   L 39.2,82.888872   L 39.633333,81.122443   L 39.5,80.62251   L 39.033333,80.489195   L 38.866667,80.522523   L 38.6,80.655839   L 38.366667,80.889141   L 38.333333,80.955799   L 37.6,81.922335   L 37.6,81.922335   L 35.5,84.921933   L 35.466667,84.921933   L 33.366667,88.021517   L 32.3,89.221356   L 19.4,89.221356   L 19.333333,89.221356   L 18.366667,89.354671   L 18.233333,89.388   L 17.4,89.754617   L 17.233333,89.854604   L 16.666667,90.421195   L 16.566667,90.621168   L 16.333333,91.354403   L 16.3,91.521047   L 16.3,100.98644   L 16.3,101.11976   L 16.533333,101.88632   L 16.666667,102.0863   L 17.233333,102.71954   L 17.366667,102.81953   L 18.2,103.25281   L 18.333333,103.31946   L 19.3,103.48611   L 19.4,103.48611   L 32.533333,103.48611  z "
     clip-path="url(#clipWmfPath1)"
     style="fill:#000000;fill-rule:nonzero;fill-opacity:1;stroke:#000000;stroke-width:0.033333335px;stroke-linecap:round;stroke-linejoin:round;stroke-miterlimit:4;stroke-dasharray:none;stroke-opacity:1;" />
  <g
     id="g120"
     clip-path="url(#clipWmfPath1)" />
  <g
     id="g130"
     clip-path="url(#clipWmfPath1)">
    <text
       id="text128"
       y="0.000000"
       x="0.000000"
       transform="matrix(1.000000,-0.000000,0.000000,1.000000,20.033333,100.319866)"
       style="font-size:10.687500px;font-style:normal;font-variant:normal;font-weight:400;font-stretch:Condensed;line-height:125.000000%;letter-spacing:0px;word-spacing:0px;fill:#000000;fill-opacity:1;stroke:none;font-family:Helvetica-Narrow;text-align:start;text-anchor:start;"
       xml:space="preserve"><tspan
         id="tspan126"
         y="0.000000"
         x="0.000000"><tspan
           id="tspan122"
           style="fill:#000000;font-size:10.687500px;font-style:normal;font-variant:normal;font-weight:400;font-stretch:Condensed;font-family:Helvetica-Narrow;"
           dy="0.000000"
           dx="0.000000">P</tspan><tspan
           id="tspan124"
           style="fill:#000000;font-size:10.687500px;font-style:normal;font-variant:normal;font-weight:400;font-stretch:Condensed;font-family:Helvetica-Narrow;"
           dy="0.000000"
           dx="-0.069215">1</tspan></tspan></text>
  </g>
  <path
     id="path132"
     d="  M 56.466667,58.592134   L 56.466667,51.193127   L 76.7,51.193127   L 76.7,70.123919   L 56.466667,70.123919   L 56.466667,62.858228   L 57.3,62.691584   L 58,62.258309   L 58.433333,61.558403   L 58.6,60.725181   L 58.433333,59.89196   L 58,59.225382   L 57.3,58.758778   L 56.466667,58.592134  z    M 74.966667,58.258846   L 74.966667,63.158188   L 60.166667,63.158188   L 60.166667,58.258846   L 74.966667,58.258846  z   "
     clip-path="url(#clipWmfPath1)"
     style="fill:#000000;fill-rule:evenodd;fill-opacity:1;stroke:none;" />
  <path
     id="path134"
     d="  M 56.466667,58.592134   L 56.466667,51.193127   L 76.7,51.193127   L 76.7,70.123919   L 56.466667,70.123919   L 56.466667,62.858228   L 57.3,62.691584   L 58,62.258309   L 58.433333,61.558403   L 58.6,60.725181   L 58.433333,59.89196   L 58,59.225382   L 57.3,58.758778   L 56.466667,58.592134  z "
     clip-path="url(#clipWmfPath1)"
     style="fill:none;stroke:#000000;stroke-width:0.033333335px;stroke-linecap:round;stroke-linejoin:round;stroke-miterlimit:4;stroke-dasharray:none;stroke-opacity:1;" />
  <path
     id="path136"
     d="  M 74.966667,58.258846   L 74.966667,63.158188   L 60.166667,63.158188   L 60.166667,58.258846   L 74.966667,58.258846  z "
     clip-path="url(#clipWmfPath1)"
     style="fill:none;stroke:#000000;stroke-width:0.033333335px;stroke-linecap:round;stroke-linejoin:round;stroke-miterlimit:4;stroke-dasharray:none;stroke-opacity:1;" />
  <path
     id="path138"
     d="  M 75.9,64.724644   L 75.9,69.657315   L 72.5,69.657315   L 72.5,64.724644   L 71.3,64.724644   L 71.3,69.657315   L 67.9,69.657315   L 67.9,64.724644   L 66.7,64.724644   L 66.7,69.657315   L 63.366667,69.657315   L 63.366667,64.724644   L 62.166667,64.724644   L 62.166667,69.657315   L 58.766667,69.657315   L 58.766667,64.724644   L 75.9,64.724644   L 74.966667,63.158188   L 74.966667,58.258846   L 76.1,56.859034   L 72.633333,56.859034   L 72.633333,51.926362   L 71.433333,51.926362   L 71.433333,56.859034   L 68.033333,56.859034   L 68.033333,51.926362   L 66.766667,51.926362   L 66.766667,56.859034   L 63.5,56.859034   L 63.5,51.926362   L 62.366667,51.926362   L 62.366667,56.859034   L 58.966667,56.859034   L 58.966667,51.926362   L 76.1,51.926362   L 76.1,56.859034   L 74.966667,58.258846   L 74.966667,63.158188   L 75.9,64.724644  z "
     clip-path="url(#clipWmfPath1)"
     style="fill:#ffffff;fill-rule:nonzero;fill-opacity:1;stroke:none;" />
  <path
     id="path140"
     d="  M 75.9,64.724644   L 75.9,69.657315   L 72.5,69.657315   L 72.5,64.724644   L 71.3,64.724644   L 71.3,69.657315   L 67.9,69.657315   L 67.9,64.724644   L 66.7,64.724644   L 66.7,69.657315   L 63.366667,69.657315   L 63.366667,64.724644   L 62.166667,64.724644   L 62.166667,69.657315   L 58.766667,69.657315   L 58.766667,64.724644   L 75.9,64.724644   L 74.966667,63.158188   L 74.966667,58.258846   L 76.1,56.859034   L 72.633333,56.859034   L 72.633333,51.926362   L 71.433333,51.926362   L 71.433333,56.859034   L 68.033333,56.859034   L 68.033333,51.926362   L 66.766667,51.926362   L 66.766667,56.859034   L 63.5,56.859034   L 63.5,51.926362   L 62.366667,51.926362   L 62.366667,56.859034   L 58.966667,56.859034   L 58.966667,51.926362   L 76.1,51.926362   L 76.1,56.859034   L 74.966667,58.258846   L 74.966667,63.158188   L 75.9,64.724644  z "
     clip-path="url(#clipWmfPath1)"
     style="fill:none;stroke:#000000;stroke-width:0.033333335px;stroke-linecap:round;stroke-linejoin:round;stroke-miterlimit:4;stroke-dasharray:none;stroke-opacity:1;" />
  <path
     id="path142"
     d="  M 38.933333,27.896255   L 38.933333,37.361651   L 54,37.361651   L 54,27.896255   L 38.933333,27.896255  z "
     clip-path="url(#clipWmfPath1)"
     style="fill:#bfbfbf;fill-rule:nonzero;fill-opacity:1;stroke:none;" />
  <path
     id="path144"
     d="  M 38.933333,27.896255   L 38.933333,37.361651   L 54,37.361651   L 54,27.896255   L 38.933333,27.896255  z "
     clip-path="url(#clipWmfPath1)"
     style="fill:none;stroke:#000000;stroke-width:0.033333335px;stroke-linecap:round;stroke-linejoin:round;stroke-miterlimit:4;stroke-dasharray:none;stroke-opacity:1;" />
  <path
     id="path146"
     d="  M 40.333333,33.462174   L 40.333333,36.261799   L 43.066667,36.261799   L 43.066667,33.462174   L 40.333333,33.462174  z "
     clip-path="url(#clipWmfPath1)"
     style="fill:#ffffff;fill-rule:nonzero;fill-opacity:1;stroke:none;" />
  <path
     id="path148"
     d="  M 40.333333,33.462174   L 40.333333,36.261799   L 43.066667,36.261799   L 43.066667,33.462174   L 40.333333,33.462174  z "
     clip-path="url(#clipWmfPath1)"
     style="fill:none;stroke:#000000;stroke-width:0.033333335px;stroke-linecap:round;stroke-linejoin:round;stroke-miterlimit:4;stroke-dasharray:none;stroke-opacity:1;" />
  <path
     id="path150"
     d="  M 40.333333,29.096094   L 40.333333,31.82906   L 43.066667,31.82906   L 43.066667,29.096094   L 40.333333,29.096094  z "
     clip-path="url(#clipWmfPath1)"
     style="fill:#000000;fill-rule:nonzero;fill-opacity:1;stroke:none;" />
  <path
     id="path152"
     d="  M 40.333333,29.096094   L 40.333333,31.82906   L 43.066667,31.82906   L 43.066667,29.096094   L 40.333333,29.096094  z "
     clip-path="url(#clipWmfPath1)"
     style="fill:none;stroke:#000000;stroke-width:0.033333335px;stroke-linecap:round;stroke-linejoin:round;stroke-miterlimit:4;stroke-dasharray:none;stroke-opacity:1;" />
  <path
     id="path154"
     d="  M 44.933333,33.462174   L 44.933333,36.261799   L 47.666667,36.261799   L 47.666667,33.462174   L 44.933333,33.462174  z "
     clip-path="url(#clipWmfPath1)"
     style="fill:#000000;fill-rule:nonzero;fill-opacity:1;stroke:none;" />
  <path
     id="path156"
     d="  M 44.933333,33.462174   L 44.933333,36.261799   L 47.666667,36.261799   L 47.666667,33.462174   L 44.933333,33.462174  z "
     clip-path="url(#clipWmfPath1)"
     style="fill:none;stroke:#000000;stroke-width:0.033333335px;stroke-linecap:round;stroke-linejoin:round;stroke-miterlimit:4;stroke-dasharray:none;stroke-opacity:1;" />
  <path
     id="path158"
     d="  M 44.933333,29.096094   L 44.933333,31.82906   L 47.666667,31.82906   L 47.666667,29.096094   L 44.933333,29.096094  z "
     clip-path="url(#clipWmfPath1)"
     style="fill:#000000;fill-rule:nonzero;fill-opacity:1;stroke:none;" />
  <path
     id="path160"
     d="  M 44.933333,29.096094   L 44.933333,31.82906   L 47.666667,31.82906   L 47.666667,29.096094   L 44.933333,29.096094  z "
     clip-path="url(#clipWmfPath1)"
     style="fill:none;stroke:#000000;stroke-width:0.033333335px;stroke-linecap:round;stroke-linejoin:round;stroke-miterlimit:4;stroke-dasharray:none;stroke-opacity:1;" />
  <path
     id="path162"
     d="  M 49.533333,33.462174   L 49.533333,36.261799   L 52.266667,36.261799   L 52.266667,33.462174   L 49.533333,33.462174  z "
     clip-path="url(#clipWmfPath1)"
     style="fill:#000000;fill-rule:nonzero;fill-opacity:1;stroke:none;" />
  <path
     id="path164"
     d="  M 49.533333,33.462174   L 49.533333,36.261799   L 52.266667,36.261799   L 52.266667,33.462174   L 49.533333,33.462174  z "
     clip-path="url(#clipWmfPath1)"
     style="fill:none;stroke:#000000;stroke-width:0.033333335px;stroke-linecap:round;stroke-linejoin:round;stroke-miterlimit:4;stroke-dasharray:none;stroke-opacity:1;" />
  <path
     id="path166"
     d="  M 49.533333,29.096094   L 49.533333,31.82906   L 52.266667,31.82906   L 52.266667,29.096094   L 49.533333,29.096094  z "
     clip-path="url(#clipWmfPath1)"
     style="fill:#000000;fill-rule:nonzero;fill-opacity:1;stroke:none;" />
  <path
     id="path168"
     d="  M 49.533333,29.096094   L 49.533333,31.82906   L 52.266667,31.82906   L 52.266667,29.096094   L 49.533333,29.096094  z "
     clip-path="url(#clipWmfPath1)"
     style="fill:none;stroke:#000000;stroke-width:0.033333335px;stroke-linecap:round;stroke-linejoin:round;stroke-miterlimit:4;stroke-dasharray:none;stroke-opacity:1;" />
  <path
     id="path170"
     d="  M 38.933333,50.693195   L 38.933333,45.493893   L 53.533333,45.493893   L 53.533333,50.693195   L 38.933333,50.693195  z "
     clip-path="url(#clipWmfPath1)"
     style="fill:#bfbfbf;fill-rule:nonzero;fill-opacity:1;stroke:none;" />
  <path
     id="path172"
     d="  M 38.933333,50.693195   L 38.933333,45.493893   L 53.533333,45.493893   L 53.533333,50.693195   L 38.933333,50.693195  z "
     clip-path="url(#clipWmfPath1)"
     style="fill:none;stroke:#000000;stroke-width:0.033333335px;stroke-linecap:round;stroke-linejoin:round;stroke-miterlimit:4;stroke-dasharray:none;stroke-opacity:1;" />
  <path
     id="path174"
     d="  M 40.2,49.560013   L 40.2,46.627074   L 42.933333,46.627074   L 42.933333,49.560013   L 40.2,49.560013  z "
     clip-path="url(#clipWmfPath1)"
     style="fill:#ffffff;fill-rule:nonzero;fill-opacity:1;stroke:none;" />
  <path
     id="path176"
     d="  M 40.2,49.560013   L 40.2,46.627074   L 42.933333,46.627074   L 42.933333,49.560013   L 40.2,49.560013  z "
     clip-path="url(#clipWmfPath1)"
     style="fill:none;stroke:#000000;stroke-width:0.033333335px;stroke-linecap:round;stroke-linejoin:round;stroke-miterlimit:4;stroke-dasharray:none;stroke-opacity:1;" />
  <path
     id="path178"
     d="  M 44.8,49.560013   L 44.8,46.627074   L 47.533333,46.627074   L 47.533333,49.560013   L 44.8,49.560013  z "
     clip-path="url(#clipWmfPath1)"
     style="fill:#000000;fill-rule:nonzero;fill-opacity:1;stroke:none;" />
  <path
     id="path180"
     d="  M 44.8,49.560013   L 44.8,46.627074   L 47.533333,46.627074   L 47.533333,49.560013   L 44.8,49.560013  z "
     clip-path="url(#clipWmfPath1)"
     style="fill:none;stroke:#000000;stroke-width:0.033333335px;stroke-linecap:round;stroke-linejoin:round;stroke-miterlimit:4;stroke-dasharray:none;stroke-opacity:1;" />
  <path
     id="path182"
     d="  M 49.6,49.626671   L 49.6,46.760389   L 52.333333,46.760389   L 52.333333,49.626671   L 49.6,49.626671  z "
     clip-path="url(#clipWmfPath1)"
     style="fill:#000000;fill-rule:nonzero;fill-opacity:1;stroke:none;" />
  <path
     id="path184"
     d="  M 49.6,49.626671   L 49.6,46.760389   L 52.333333,46.760389   L 52.333333,49.626671   L 49.6,49.626671  z "
     clip-path="url(#clipWmfPath1)"
     style="fill:none;stroke:#000000;stroke-width:0.033333335px;stroke-linecap:round;stroke-linejoin:round;stroke-miterlimit:4;stroke-dasharray:none;stroke-opacity:1;" />
  <path
     id="path186"
     d="  M 38.933333,44.194067   L 38.933333,38.994765   L 53.533333,38.994765   L 53.533333,44.194067   L 38.933333,44.194067  z "
     clip-path="url(#clipWmfPath1)"
     style="fill:#bfbfbf;fill-rule:nonzero;fill-opacity:1;stroke:none;" />
  <path
     id="path188"
     d="  M 38.933333,44.194067   L 38.933333,38.994765   L 53.533333,38.994765   L 53.533333,44.194067   L 38.933333,44.194067  z "
     clip-path="url(#clipWmfPath1)"
     style="fill:none;stroke:#000000;stroke-width:0.033333335px;stroke-linecap:round;stroke-linejoin:round;stroke-miterlimit:4;stroke-dasharray:none;stroke-opacity:1;" />
  <path
     id="path190"
     d="  M 40.2,43.060886   L 40.2,40.127946   L 42.933333,40.127946   L 42.933333,43.060886   L 40.2,43.060886  z "
     clip-path="url(#clipWmfPath1)"
     style="fill:#ffffff;fill-rule:nonzero;fill-opacity:1;stroke:none;" />
  <path
     id="path192"
     d="  M 40.2,43.060886   L 40.2,40.127946   L 42.933333,40.127946   L 42.933333,43.060886   L 40.2,43.060886  z "
     clip-path="url(#clipWmfPath1)"
     style="fill:none;stroke:#000000;stroke-width:0.033333335px;stroke-linecap:round;stroke-linejoin:round;stroke-miterlimit:4;stroke-dasharray:none;stroke-opacity:1;" />
  <path
     id="path194"
     d="  M 44.8,43.060886   L 44.8,40.127946   L 47.533333,40.127946   L 47.533333,43.060886   L 44.8,43.060886  z "
     clip-path="url(#clipWmfPath1)"
     style="fill:#000000;fill-rule:nonzero;fill-opacity:1;stroke:none;" />
  <path
     id="path196"
     d="  M 44.8,43.060886   L 44.8,40.127946   L 47.533333,40.127946   L 47.533333,43.060886   L 44.8,43.060886  z "
     clip-path="url(#clipWmfPath1)"
     style="fill:none;stroke:#000000;stroke-width:0.033333335px;stroke-linecap:round;stroke-linejoin:round;stroke-miterlimit:4;stroke-dasharray:none;stroke-opacity:1;" />
  <path
     id="path198"
     d="  M 49.6,43.127544   L 49.6,40.261262   L 52.333333,40.261262   L 52.333333,43.127544   L 49.6,43.127544  z "
     clip-path="url(#clipWmfPath1)"
     style="fill:#000000;fill-rule:nonzero;fill-opacity:1;stroke:none;" />
  <path
     id="path200"
     d="  M 49.6,43.127544   L 49.6,40.261262   L 52.333333,40.261262   L 52.333333,43.127544   L 49.6,43.127544  z "
     clip-path="url(#clipWmfPath1)"
     style="fill:none;stroke:#000000;stroke-width:0.033333335px;stroke-linecap:round;stroke-linejoin:round;stroke-miterlimit:4;stroke-dasharray:none;stroke-opacity:1;" />
  <path
     id="path202"
     d="  M 57.266667,46.760389   L 57.266667,40.327919   L 57.966667,40.194604   L 58.466667,39.827987   L 58.866667,38.728134   L 58.466667,37.594953   L 57.966667,37.228336   L 57.266667,37.09502   L 57.266667,30.562564   L 76.266667,30.562564   L 76.266667,46.760389   L 57.266667,46.760389  z "
     clip-path="url(#clipWmfPath1)"
     style="fill:#000000;fill-rule:evenodd;fill-opacity:1;stroke:none;" />
  <path
     id="path204"
     d="  M 57.266667,46.760389   L 57.266667,40.327919   L 57.966667,40.194604   L 58.466667,39.827987   L 58.866667,38.728134   L 58.466667,37.594953   L 57.966667,37.228336   L 57.266667,37.09502   L 57.266667,30.562564   L 76.266667,30.562564   L 76.266667,46.760389   L 57.266667,46.760389  z "
     clip-path="url(#clipWmfPath1)"
     style="fill:none;stroke:#000000;stroke-width:0.033333335px;stroke-linecap:round;stroke-linejoin:round;stroke-miterlimit:4;stroke-dasharray:none;stroke-opacity:1;" />
  <path
     id="path206"
     d="  M 75.466667,31.229141   L 75.466667,28.162886   L 72.066667,28.162886   L 72.066667,31.229141   L 70.666667,31.229141   L 70.666667,28.162886   L 67.333333,28.162886   L 67.333333,31.229141   L 65.933333,31.229141   L 65.933333,28.162886   L 62.666667,28.162886   L 62.666667,28.162886   L 62.666667,31.229141   L 61.333333,31.229141   L 61.333333,28.162886   L 57.933333,28.162886   L 57.933333,31.229141   L 75.466667,31.229141  z "
     clip-path="url(#clipWmfPath1)"
     style="fill:#ffffff;fill-rule:nonzero;fill-opacity:1;stroke:none;" />
  <path
     id="path208"
     d="  M 75.466667,31.229141   L 75.466667,28.162886   L 72.066667,28.162886   L 72.066667,31.229141   L 70.666667,31.229141   L 70.666667,28.162886   L 67.333333,28.162886   L 67.333333,31.229141   L 65.933333,31.229141   L 65.933333,28.162886   L 62.666667,28.162886   L 62.666667,28.162886   L 62.666667,31.229141   L 61.333333,31.229141   L 61.333333,28.162886   L 57.933333,28.162886   L 57.933333,31.229141   L 75.466667,31.229141  z "
     clip-path="url(#clipWmfPath1)"
     style="fill:none;stroke:#000000;stroke-width:0.033333335px;stroke-linecap:round;stroke-linejoin:round;stroke-miterlimit:4;stroke-dasharray:none;stroke-opacity:1;" />
  <path
     id="path210"
     d="  M 57.933333,46.16047   L 57.933333,49.226725   L 61.333333,49.226725   L 61.333333,46.16047   L 62.533333,46.16047   L 62.533333,49.226725   L 65.933333,49.226725   L 65.933333,46.16047   L 67.133333,46.16047   L 67.133333,49.226725   L 70.466667,49.226725   L 70.466667,46.16047   L 71.666667,46.16047   L 71.666667,49.226725   L 75.066667,49.226725   L 75.066667,46.16047   L 57.933333,46.16047   L 57.933333,46.16047  z "
     clip-path="url(#clipWmfPath1)"
     style="fill:#ffffff;fill-rule:nonzero;fill-opacity:1;stroke:none;" />
  <path
     id="path212"
     d="  M 57.933333,46.16047   L 57.933333,49.226725   L 61.333333,49.226725   L 61.333333,46.16047   L 62.533333,46.16047   L 62.533333,49.226725   L 65.933333,49.226725   L 65.933333,46.16047   L 67.133333,46.16047   L 67.133333,49.226725   L 70.466667,49.226725   L 70.466667,46.16047   L 71.666667,46.16047   L 71.666667,49.226725   L 75.066667,49.226725   L 75.066667,46.16047   L 57.933333,46.16047   L 57.933333,46.16047  z "
     clip-path="url(#clipWmfPath1)"
     style="fill:none;stroke:#000000;stroke-width:0.033333335px;stroke-linecap:round;stroke-linejoin:round;stroke-miterlimit:4;stroke-dasharray:none;stroke-opacity:1;" />
  <path
     id="path214"
     d="  M 101.6,89.254684   L 102.56667,89.08804   L 103.4,88.654765   L 103.96667,88.021517   L 104.2,87.254953   L 104.2,77.789557   L 103.96667,77.056322   L 103.4,76.489731   L 102.56667,76.123114   L 101.6,75.989799   L 83.433333,75.989799   L 81.966667,75.056591   L 79.333333,73.056859   L 76.733333,71.123785   L 75.366667,70.39055   L 76.033333,71.690376   L 77.933333,74.223369   L 79.9,76.789691   L 80.833333,78.189503   L 80.833333,87.588242   L 81.066667,88.288148   L 81.633333,88.821409   L 82.466667,89.154698   L 83.433333,89.254684   L 101.6,89.254684  z "
     clip-path="url(#clipWmfPath1)"
     style="fill:#ffffff;fill-rule:nonzero;fill-opacity:1;stroke:none;" />
  <path
     id="path216"
     d="  M 83.433333,88.754752   L 83.433333,89.754617   L 101.6,89.754617   L 101.7,89.754617   L 102.66667,89.587973   L 102.8,89.521315   L 103.63333,89.08804   L 103.76667,88.988054   L 104.33333,88.354805   L 104.46667,88.154832   L 104.7,87.388268   L 104.7,87.254953   L 104.7,77.789557   L 104.66667,77.622913   L 104.43333,76.889678   L 104.33333,76.689705   L 103.76667,76.123114   L 103.6,76.023127   L 102.76667,75.65651   L 102.63333,75.623181   L 101.66667,75.489866   L 101.6,75.489866   L 83.566667,75.489866   L 82.266667,74.656644   L 79.633333,72.656913   L 79.633333,72.656913   L 77.033333,70.723839   L 76.966667,70.69051   L 75.6,69.957275   L 74.9,70.623852   L 75.566667,71.923678   L 75.633333,71.990336   L 77.533333,74.523329   L 77.533333,74.523329   L 79.5,77.089651   L 80.333333,78.356148   L 80.333333,87.588242   L 80.366667,87.754886   L 80.6,88.454792   L 80.733333,88.654765   L 81.3,89.188027   L 81.433333,89.288013   L 82.266667,89.621302   L 82.4,89.654631   L 83.366667,89.754617   L 83.433333,89.754617   L 101.6,89.754617   L 101.7,89.754617   L 102.66667,89.587973   L 102.46667,88.588107   L 101.56667,88.754752   L 83.466667,88.754752   L 82.6,88.654765   L 81.9,88.388134   L 81.5,88.021517   L 81.333333,87.521584   L 81.333333,78.189503   L 81.266667,77.922872   L 80.333333,76.52306   L 80.3,76.489731   L 78.333333,73.923409   L 76.466667,71.423745   L 75.833333,70.157248   L 75.6,69.957275   L 75.133333,70.823825   L 76.466667,71.55706   L 79.033333,73.456805   L 81.666667,75.456537   L 81.7,75.489866   L 83.166667,76.423074   L 83.433333,76.489731   L 101.56667,76.489731   L 102.43333,76.623047   L 103.1,76.923007   L 103.53333,77.322953   L 103.7,77.856215   L 103.7,87.188295   L 103.5,87.754886   L 103.1,88.254819   L 102.4,88.588107   L 101.56667,88.754752   L 83.433333,88.754752  z "
     clip-path="url(#clipWmfPath1)"
     style="fill:#000000;fill-rule:nonzero;fill-opacity:1;stroke:#000000;stroke-width:0.033333335px;stroke-linecap:round;stroke-linejoin:round;stroke-miterlimit:4;stroke-dasharray:none;stroke-opacity:1;" />
  <g
     id="g218"
     clip-path="url(#clipWmfPath1)" />
  <g
     id="g230"
     clip-path="url(#clipWmfPath1)">
    <text
       id="text228"
       y="0.000000"
       x="0.000000"
       transform="matrix(1.000000,-0.000000,0.000000,1.000000,83.666667,86.388403)"
       style="font-size:10.687500px;font-style:normal;font-variant:normal;font-weight:400;font-stretch:Condensed;line-height:125.000000%;letter-spacing:0px;word-spacing:0px;fill:#000000;fill-opacity:1;stroke:none;font-family:Helvetica-Narrow;text-align:start;text-anchor:start;"
       xml:space="preserve"><tspan
         id="tspan226"
         y="0.000000"
         x="0.000000"><tspan
           id="tspan220"
           style="fill:#000000;font-size:10.687500px;font-style:normal;font-variant:normal;font-weight:400;font-stretch:Condensed;font-family:Helvetica-Narrow;"
           dy="0.000000"
           dx="0.000000">I</tspan><tspan
           id="tspan222"
           style="fill:#000000;font-size:10.687500px;font-style:normal;font-variant:normal;font-weight:400;font-stretch:Condensed;font-family:Helvetica-Narrow;"
           dy="0.000000"
           dx="-0.059903">C</tspan><tspan
           id="tspan224"
           style="fill:#000000;font-size:10.687500px;font-style:normal;font-variant:normal;font-weight:400;font-stretch:Condensed;font-family:Helvetica-Narrow;"
           dy="0.000000"
           dx="-0.050153">2</tspan></tspan></text>
  </g>
  <path
     id="path232"
     d="  M 98.733333,5.3659463   L 99.7,5.5325906   L 100.53333,5.9658658   L 101.1,6.5991141   L 101.33333,7.3656778   L 101.33333,16.831074   L 101.1,17.564309   L 100.53333,18.130899   L 99.7,18.497517   L 98.733333,18.630832   L 58.966667,18.630832   L 57.233333,20.063973   L 54.033333,23.163557   L 50.866667,26.196483   L 49.233333,27.429651   L 49.4,26.896389   L 50.166667,25.69655   L 52.633333,22.130362   L 55.2,18.564174   L 56.366667,16.697758   L 56.366667,7.2990201   L 56.6,6.5324564   L 57.166667,5.9325369   L 58,5.5325906   L 58.966667,5.3659463   L 98.733333,5.3659463  z "
     clip-path="url(#clipWmfPath1)"
     style="fill:#ffffff;fill-rule:nonzero;fill-opacity:1;stroke:none;" />
  <path
     id="path234"
     d="  M 58.966667,4.8660134   L 58.966667,5.8658792   L 98.7,5.8658792   L 99.533333,6.0325235   L 100.23333,6.3658121   L 100.63333,6.865745   L 100.83333,7.4323356   L 100.83333,16.764416   L 100.66667,17.297678   L 100.23333,17.697624   L 99.566667,17.997584   L 98.7,18.130899   L 58.966667,18.130899   L 58.633333,18.230886   L 56.9,19.664027   L 56.866667,19.697356   L 53.666667,22.79694   L 53.666667,22.79694   L 50.533333,25.796537   L 48.933333,27.029705   L 49.533333,27.829597   L 49.733333,27.596295   L 49.866667,27.096362   L 50.6,25.963181   L 53.033333,22.430322   L 55.6,18.864134   L 55.633333,18.830805   L 56.8,16.964389   L 56.866667,16.697758   L 56.866667,7.3656778   L 57.066667,6.7990872   L 57.466667,6.3324832   L 58.166667,6.0325235   L 59,5.8658792   L 98.7,5.8658792   L 99.6,6.0325235   L 99.8,5.0326577   L 98.833333,4.8660134   L 98.733333,4.8660134   L 58.966667,4.8660134   L 58.866667,4.8660134   L 57.9,5.0326577   L 57.766667,5.0659866   L 56.933333,5.4659329   L 56.8,5.5992483   L 56.233333,6.1991678   L 56.1,6.3991409   L 55.866667,7.1657047   L 55.866667,7.2990201   L 55.866667,16.564443   L 54.766667,18.297544   L 52.233333,21.830403   L 52.2,21.830403   L 49.733333,25.396591   L 49.733333,25.429919   L 48.966667,26.629758   L 48.9,26.729745   L 48.733333,27.263007   L 48.933333,27.829597   L 49.533333,27.829597   L 51.166667,26.59643   L 51.233333,26.563101   L 54.4,23.530174   L 54.4,23.530174   L 57.566667,20.430591   L 59.133333,19.130765   L 98.733333,19.130765   L 98.8,19.130765   L 99.766667,18.99745   L 99.9,18.964121   L 100.73333,18.597503   L 100.9,18.497517   L 101.46667,17.930926   L 101.56667,17.730953   L 101.8,16.997718   L 101.83333,16.831074   L 101.83333,7.3656778   L 101.83333,7.2323624   L 101.6,6.4657987   L 101.46667,6.2658255   L 100.9,5.6325772   L 100.76667,5.5325906   L 99.933333,5.0993154   L 99.8,5.0326577   L 98.833333,4.8660134   L 98.733333,4.8660134   L 58.966667,4.8660134  z "
     clip-path="url(#clipWmfPath1)"
     style="fill:#000000;fill-rule:nonzero;fill-opacity:1;stroke:#000000;stroke-width:0.033333335px;stroke-linecap:round;stroke-linejoin:round;stroke-miterlimit:4;stroke-dasharray:none;stroke-opacity:1;" />
  <g
     id="g236"
     clip-path="url(#clipWmfPath1)" />
  <g
     id="g256"
     clip-path="url(#clipWmfPath1)">
    <text
       id="text254"
       y="0.000000"
       x="0.000000"
       transform="matrix(1.000000,-0.000000,0.000000,1.000000,59.333333,15.731221)"
       style="font-size:10.687500px;font-style:normal;font-variant:normal;font-weight:400;font-stretch:Condensed;line-height:125.000000%;letter-spacing:0px;word-spacing:0px;fill:#000000;fill-opacity:1;stroke:none;font-family:Helvetica-Narrow;text-align:start;text-anchor:start;"
       xml:space="preserve"><tspan
         id="tspan252"
         y="0.000000"
         x="0.000000"><tspan
           id="tspan238"
           style="fill:#000000;font-size:10.687500px;font-style:normal;font-variant:normal;font-weight:400;font-stretch:Condensed;font-family:Helvetica-Narrow;"
           dy="0.000000"
           dx="0.000000">J</tspan><tspan
           id="tspan240"
           style="fill:#000000;font-size:10.687500px;font-style:normal;font-variant:normal;font-weight:400;font-stretch:Condensed;font-family:Helvetica-Narrow;"
           dy="0.000000"
           dx="-0.005028">P</tspan><tspan
           id="tspan242"
           style="fill:#000000;font-size:10.687500px;font-style:normal;font-variant:normal;font-weight:400;font-stretch:Condensed;font-family:Helvetica-Narrow;"
           dy="0.000000"
           dx="-0.069215">1</tspan><tspan
           id="tspan244"
           style="fill:#000000;font-size:10.687500px;font-style:normal;font-variant:normal;font-weight:400;font-stretch:Condensed;font-family:Helvetica-Narrow;"
           dy="0.000000"
           dx="0.003347">/</tspan><tspan
           id="tspan246"
           style="fill:#000000;font-size:10.687500px;font-style:normal;font-variant:normal;font-weight:400;font-stretch:Condensed;font-family:Helvetica-Narrow;"
           dy="0.000000"
           dx="-0.059903">A</tspan><tspan
           id="tspan248"
           style="fill:#000000;font-size:10.687500px;font-style:normal;font-variant:normal;font-weight:400;font-stretch:Condensed;font-family:Helvetica-Narrow;"
           dy="0.000000"
           dx="-0.069215">-</tspan><tspan
           id="tspan250"
           style="fill:#000000;font-size:10.687500px;font-style:normal;font-variant:normal;font-weight:400;font-stretch:Condensed;font-family:Helvetica-Narrow;"
           dy="0.000000"
           dx="-0.040840">C</tspan></tspan></text>
  </g>
  <path
     id="path258"
     d="  M 26.433333,50.759852   L 26.433333,53.559476   L 26.266667,54.292711   L 25.866667,54.825973   L 25.266667,55.159262   L 24.5,55.292577   L 4.6,55.292577   L 3.8333333,55.059275   L 3.2333333,54.426027   L 2.8333333,53.592805   L 2.6666667,52.759584   L 2.6666667,43.294188   L 2.8333333,42.66094   L 3.2333333,42.294322   L 4.6,42.094349   L 24.5,42.094349   L 25.266667,42.260993   L 25.866667,42.727597   L 26.266667,43.394174   L 26.433333,44.160738   L 26.433333,46.693732   L 38.5,48.693463   L 26.433333,50.759852  z "
     clip-path="url(#clipWmfPath1)"
     style="fill:#ffffff;fill-rule:nonzero;fill-opacity:1;stroke:none;" />
  <path
     id="path260"
     d="  M 38.6,49.193396   L 39,48.593476   L 38.4,48.19353   L 25.933333,50.326577   L 25.933333,53.492819   L 25.8,54.059409   L 25.533333,54.426027   L 25.1,54.659329   L 24.466667,54.792644   L 4.6666667,54.792644   L 4.1,54.626   L 3.6666667,54.126067   L 3.3333333,53.426161   L 3.1666667,52.692926   L 3.1666667,43.360846   L 3.3,42.92757   L 3.4666667,42.760926   L 4.6333333,42.594282   L 24.433333,42.594282   L 25.033333,42.727597   L 25.466667,43.060886   L 25.8,43.594148   L 25.933333,44.227396   L 25.933333,47.127007   L 35.466667,48.693463   L 25.933333,50.326577   L 25.933333,53.559476   L 26.433333,54.059409   L 26.933333,53.559476   L 26.933333,51.193127   L 38.6,49.193396   L 38.566667,48.19353   L 26.933333,46.260456   L 26.933333,44.09408   L 26.733333,43.194201   L 26.266667,42.394309   L 25.5,41.794389   L 24.566667,41.594416   L 4.5666667,41.594416   L 3,41.827718   L 2.3666667,42.394309   L 2.1666667,43.22753   L 2.1666667,52.826242   L 2.3333333,53.75945   L 2.8,54.725987   L 3.5666667,55.49255   L 4.5333333,55.79251   L 24.533333,55.79251   L 25.433333,55.659195   L 26.2,55.225919   L 26.733333,54.526013   L 26.933333,53.626134   L 26.933333,51.193127   L 38.6,49.193396  z "
     clip-path="url(#clipWmfPath1)"
     style="fill:#000000;fill-rule:nonzero;fill-opacity:1;stroke:#000000;stroke-width:0.033333335px;stroke-linecap:round;stroke-linejoin:round;stroke-miterlimit:4;stroke-dasharray:none;stroke-opacity:1;" />
  <g
     id="g262"
     clip-path="url(#clipWmfPath1)" />
  <g
     id="g274"
     clip-path="url(#clipWmfPath1)">
    <text
       id="text272"
       y="0.000000"
       x="0.000000"
       transform="matrix(1.000000,-0.000000,0.000000,1.000000,6.100000,52.459624)"
       style="font-size:10.687500px;font-style:normal;font-variant:normal;font-weight:400;font-stretch:Condensed;line-height:125.000000%;letter-spacing:0px;word-spacing:0px;fill:#000000;fill-opacity:1;stroke:none;font-family:Helvetica-Narrow;text-align:start;text-anchor:start;"
       xml:space="preserve"><tspan
         id="tspan270"
         y="0.000000"
         x="0.000000"><tspan
           id="tspan264"
           style="fill:#000000;font-size:10.687500px;font-style:normal;font-variant:normal;font-weight:400;font-stretch:Condensed;font-family:Helvetica-Narrow;"
           dy="0.000000"
           dx="0.000000">J</tspan><tspan
           id="tspan266"
           style="fill:#000000;font-size:10.687500px;font-style:normal;font-variant:normal;font-weight:400;font-stretch:Condensed;font-family:Helvetica-Narrow;"
           dy="0.000000"
           dx="-0.005028">P</tspan><tspan
           id="tspan268"
           style="fill:#000000;font-size:10.687500px;font-style:normal;font-variant:normal;font-weight:400;font-stretch:Condensed;font-family:Helvetica-Narrow;"
           dy="0.000000"
           dx="-0.069215">3</tspan></tspan></text>
  </g>
  <path
     id="path276"
     d="  M 12.466667,23.330201   L 11.5,23.496846   L 10.666667,23.930121   L 10.1,24.563369   L 9.8666667,25.329933   L 9.8666667,34.795329   L 10.1,35.528564   L 10.666667,36.095154   L 11.5,36.461772   L 12.466667,36.595087   L 30.633333,36.595087   L 32.1,37.528295   L 34.733333,39.528027   L 37.333333,41.461101   L 38.7,42.194336   L 38.033333,40.89451   L 36.133333,38.361517   L 34.166667,35.795195   L 33.233333,34.395383   L 33.233333,24.996644   L 33,24.296738   L 32.433333,23.763476   L 31.6,23.430188   L 30.633333,23.330201   L 12.466667,23.330201  z "
     clip-path="url(#clipWmfPath1)"
     style="fill:#ffffff;fill-rule:nonzero;fill-opacity:1;stroke:none;" />
  <path
     id="path278"
     d="  M 30.633333,23.830134   L 30.633333,22.830268   L 12.466667,22.830268   L 12.366667,22.830268   L 11.4,22.996913   L 11.266667,23.06357   L 10.433333,23.496846   L 10.3,23.596832   L 9.7333333,24.230081   L 9.6,24.430054   L 9.3666667,25.196617   L 9.3666667,25.329933   L 9.3666667,34.795329   L 9.4,34.961973   L 9.6333333,35.695208   L 9.7333333,35.895181   L 10.3,36.461772   L 10.466667,36.561758   L 11.3,36.928376   L 11.433333,36.961705   L 12.4,37.09502   L 12.466667,37.09502   L 30.5,37.09502   L 31.8,37.928242   L 34.433333,39.927973   L 34.433333,39.927973   L 37.033333,41.861047   L 37.1,41.894376   L 38.466667,42.627611   L 39.166667,41.961034   L 38.5,40.661208   L 38.433333,40.59455   L 36.533333,38.061557   L 36.533333,38.061557   L 34.566667,35.495235   L 33.733333,34.228738   L 33.733333,24.996644   L 33.7,24.83   L 33.466667,24.130094   L 33.333333,23.930121   L 32.766667,23.396859   L 32.633333,23.296872   L 31.8,22.963584   L 31.666667,22.930255   L 30.7,22.830268   L 30.633333,22.830268   L 12.466667,22.830268   L 12.366667,22.830268   L 11.4,22.996913   L 11.6,23.996779   L 12.5,23.830134   L 30.6,23.830134   L 31.466667,23.930121   L 32.166667,24.196752   L 32.566667,24.563369   L 32.733333,25.063302   L 32.733333,34.395383   L 32.8,34.662013   L 33.733333,36.061825   L 33.766667,36.095154   L 35.733333,38.661476   L 37.6,41.161141   L 38.233333,42.427638   L 38.466667,42.627611   L 38.933333,41.76106   L 37.6,41.027825   L 35.033333,39.128081   L 32.4,37.128349   L 32.366667,37.09502   L 30.9,36.161812   L 30.633333,36.095154   L 12.5,36.095154   L 11.633333,35.961839   L 10.966667,35.661879   L 10.533333,35.261933   L 10.366667,34.728671   L 10.366667,25.396591   L 10.566667,24.83   L 10.966667,24.330067   L 11.666667,23.996779   L 12.5,23.830134   L 30.633333,23.830134  z "
     clip-path="url(#clipWmfPath1)"
     style="fill:#000000;fill-rule:nonzero;fill-opacity:1;stroke:#000000;stroke-width:0.033333335px;stroke-linecap:round;stroke-linejoin:round;stroke-miterlimit:4;stroke-dasharray:none;stroke-opacity:1;" />
  <g
     id="g280"
     clip-path="url(#clipWmfPath1)" />
  <g
     id="g292"
     clip-path="url(#clipWmfPath1)">
    <text
       id="text290"
       y="0.000000"
       x="0.000000"
       transform="matrix(1.000000,-0.000000,0.000000,1.000000,13.166667,33.928778)"
       style="font-size:10.687500px;font-style:normal;font-variant:normal;font-weight:400;font-stretch:Condensed;line-height:125.000000%;letter-spacing:0px;word-spacing:0px;fill:#000000;fill-opacity:1;stroke:none;font-family:Helvetica-Narrow;text-align:start;text-anchor:start;"
       xml:space="preserve"><tspan
         id="tspan288"
         y="0.000000"
         x="0.000000"><tspan
           id="tspan282"
           style="fill:#000000;font-size:10.687500px;font-style:normal;font-variant:normal;font-weight:400;font-stretch:Condensed;font-family:Helvetica-Narrow;"
           dy="0.000000"
           dx="0.000000">J</tspan><tspan
           id="tspan284"
           style="fill:#000000;font-size:10.687500px;font-style:normal;font-variant:normal;font-weight:400;font-stretch:Condensed;font-family:Helvetica-Narrow;"
           dy="0.000000"
           dx="-0.005028">P</tspan><tspan
           id="tspan286"
           style="fill:#000000;font-size:10.687500px;font-style:normal;font-variant:normal;font-weight:400;font-stretch:Condensed;font-family:Helvetica-Narrow;"
           dy="0.000000"
           dx="-0.069215">2</tspan></tspan></text>
  </g>
</svg>
