<svg xmlns:dc="http://purl.org/dc/elements/1.1/" xmlns:cc="http://creativecommons.org/ns#" xmlns:rdf="http://www.w3.org/1999/02/22-rdf-syntax-ns#" xmlns:svg="http://www.w3.org/2000/svg" xmlns="http://www.w3.org/2000/svg" id="svg132" height="16.2mm" width="32.729999mm" version="1.0">
  <metadata id="metadata136">
    <rdf:RDF>
      <cc:Work rdf:about="">
        <dc:format>image/svg+xml</dc:format>
        <dc:type rdf:resource="http://purl.org/dc/dcmitype/StillImage"/>
      </cc:Work>
    </rdf:RDF>
  </metadata>
  <defs id="defs6">
    <clipPath id="clipWmfPath1" clipPathUnits="userSpaceOnUse">
      <path id="path2" d="M 0,0 L 123.63281,0 L 123.63281,61.157223 L 0,61.157223 z"/>
    </clipPath>
    <pattern y="0" x="0" height="6" width="6" patternUnits="userSpaceOnUse" id="WMFhbasepattern"/>
  </defs>
  <path id="path8" d="  M 12.566613,59.057547   L 12.566613,1.8663785   L 73.699687,1.8663785   L 73.699687,59.057547   L 12.566613,59.057547  z " clip-path="url(#clipWmfPath1)" style="fill:#ffffff;fill-rule:evenodd;fill-opacity:1;stroke:none;"/>
  <path id="path10" d="  M 73.699687,59.357501   L 73.699687,58.757594   L 12.866612,58.757594   L 12.866612,2.1663321   L 73.399688,2.1663321   L 73.399688,58.757594   L 12.866612,58.757594   L 12.866612,1.8663785   L 12.266615,1.8663785   L 12.266615,59.357501   L 73.999686,59.357501   L 73.999686,1.5664248   L 12.266615,1.5664248   L 12.266615,59.357501   L 73.699687,59.357501  z " clip-path="url(#clipWmfPath1)" style="fill:#000000;fill-rule:nonzero;fill-opacity:1;stroke:#000000;stroke-width:0.033333194px;stroke-linecap:round;stroke-linejoin:round;stroke-miterlimit:4;stroke-dasharray:none;stroke-opacity:1;"/>
  <path id="path12" d="  M 84.06631,10.598363   L 69.86637,10.598363   L 69.86637,6.3990119   L 84.06631,6.3990119   L 84.06631,10.598363  z " clip-path="url(#clipWmfPath1)" style="fill:#b2b2b2;fill-rule:nonzero;fill-opacity:1;stroke:none;"/>
  <path id="path14" d="  M 84.06631,10.598363   L 69.86637,10.598363   L 69.86637,6.3990119   L 84.06631,6.3990119   L 84.06631,10.598363  z " clip-path="url(#clipWmfPath1)" style="fill:none;stroke:#000000;stroke-width:0.033333194px;stroke-linecap:round;stroke-linejoin:round;stroke-miterlimit:4;stroke-dasharray:none;stroke-opacity:1;"/>
  <path id="path16" d="  M 84.06631,53.791694   L 69.86637,53.791694   L 69.86637,49.658999   L 84.06631,49.658999   L 84.06631,53.791694  z " clip-path="url(#clipWmfPath1)" style="fill:#b2b2b2;fill-rule:nonzero;fill-opacity:1;stroke:none;"/>
  <path id="path18" d="  M 84.06631,53.791694   L 69.86637,53.791694   L 69.86637,49.658999   L 84.06631,49.658999   L 84.06631,53.791694  z " clip-path="url(#clipWmfPath1)" style="fill:none;stroke:#000000;stroke-width:0.033333194px;stroke-linecap:round;stroke-linejoin:round;stroke-miterlimit:4;stroke-dasharray:none;stroke-opacity:1;"/>
  <path id="path20" d="  M 74.733016,10.598363   L 72.599692,10.598363   L 72.599692,8.8652977   L 74.533017,8.8652977   L 74.533017,7.5988266   L 75.799678,7.5988266   L 75.799678,13.064649   L 87.266296,13.064649   L 88.699623,13.331275   L 89.199621,13.564572   L 89.399621,13.864526   L 89.399621,45.392991   L 89.199621,45.759601   L 88.732957,46.092883   L 87.466295,46.392836   L 75.39968,46.392836   L 75.39968,51.725346   L 74.799682,51.725346   L 74.799682,50.392219   L 72.399693,50.392219   L 72.399693,48.592497   L 74.799682,48.592497   L 74.733016,10.598363  z " clip-path="url(#clipWmfPath1)" style="fill:#e6e6e6;fill-rule:nonzero;fill-opacity:1;stroke:none;"/>
  <path id="path22" d="  M 74.733016,10.598363   L 72.599692,10.598363   L 72.599692,8.8652977   L 74.533017,8.8652977   L 74.533017,7.5988266   L 75.799678,7.5988266   L 75.799678,13.064649   L 87.266296,13.064649   L 88.699623,13.331275   L 89.199621,13.564572   L 89.399621,13.864526   L 89.399621,45.392991   L 89.199621,45.759601   L 88.732957,46.092883   L 87.466295,46.392836   L 75.39968,46.392836   L 75.39968,51.725346   L 74.799682,51.725346   L 74.799682,50.392219   L 72.399693,50.392219   L 72.399693,48.592497   L 74.799682,48.592497   L 74.733016,10.598363  z " clip-path="url(#clipWmfPath1)" style="fill:none;stroke:#000000;stroke-width:0.033333194px;stroke-linecap:round;stroke-linejoin:round;stroke-miterlimit:4;stroke-dasharray:none;stroke-opacity:1;"/>
  <path id="path24" d="  M 76.199677,57.124512   L 71.599696,57.124512   L 71.599696,47.525995   L 49.333124,47.525995   L 49.333124,12.464742   L 71.666362,12.464742   L 71.733029,3.9327261   L 76.199677,3.9327261   L 76.199677,57.124512  z " clip-path="url(#clipWmfPath1)" style="fill:#666666;fill-rule:nonzero;fill-opacity:1;stroke:none;"/>
  <path id="path26" d="  M 76.199677,57.124512   L 71.599696,57.124512   L 71.599696,47.525995   L 49.333124,47.525995   L 49.333124,12.464742   L 71.666362,12.464742   L 71.733029,3.9327261   L 76.199677,3.9327261   L 76.199677,57.124512  z " clip-path="url(#clipWmfPath1)" style="fill:none;stroke:#000000;stroke-width:0.033333194px;stroke-linecap:round;stroke-linejoin:round;stroke-miterlimit:4;stroke-dasharray:none;stroke-opacity:1;"/>
  <path id="path28" d="  M 18.199923,34.961268   L 1.6666596,34.961268   L 1.6666596,32.428326   L 18.199923,32.428326   L 18.199923,34.961268  z " clip-path="url(#clipWmfPath1)" style="fill:#000000;fill-rule:nonzero;fill-opacity:1;stroke:none;"/>
  <path id="path30" d="  M 18.199923,34.961268   L 1.6666596,34.961268   L 1.6666596,32.428326   L 18.199923,32.428326   L 18.199923,34.961268  z " clip-path="url(#clipWmfPath1)" style="fill:none;stroke:#000000;stroke-width:0.033333194px;stroke-linecap:round;stroke-linejoin:round;stroke-miterlimit:4;stroke-dasharray:none;stroke-opacity:1;"/>
  <path id="path32" d="  M 1.5333268,32.428326   L 1.5333268,34.961268   L 0.13333277,33.628141   L 1.5333268,32.428326  z " clip-path="url(#clipWmfPath1)" style="fill:#000000;fill-rule:nonzero;fill-opacity:1;stroke:none;"/>
  <path id="path34" d="  M 1.5333268,32.428326   L 1.5333268,34.961268   L 0.13333277,33.628141   L 1.5333268,32.428326  z " clip-path="url(#clipWmfPath1)" style="fill:none;stroke:#000000;stroke-width:0.033333194px;stroke-linecap:round;stroke-linejoin:round;stroke-miterlimit:4;stroke-dasharray:none;stroke-opacity:1;"/>
  <path id="path36" d="  M 18.199923,54.124976   L 1.6666596,54.124976   L 1.6666596,51.592033   L 18.199923,51.592033   L 18.199923,54.124976  z " clip-path="url(#clipWmfPath1)" style="fill:#000000;fill-rule:nonzero;fill-opacity:1;stroke:none;"/>
  <path id="path38" d="  M 18.199923,54.124976   L 1.6666596,54.124976   L 1.6666596,51.592033   L 18.199923,51.592033   L 18.199923,54.124976  z " clip-path="url(#clipWmfPath1)" style="fill:none;stroke:#000000;stroke-width:0.033333194px;stroke-linecap:round;stroke-linejoin:round;stroke-miterlimit:4;stroke-dasharray:none;stroke-opacity:1;"/>
  <path id="path40" d="  M 1.5333268,51.592033   L 1.5333268,54.124976   L 0.13333277,52.791848   L 1.5333268,51.592033  z " clip-path="url(#clipWmfPath1)" style="fill:#000000;fill-rule:nonzero;fill-opacity:1;stroke:none;"/>
  <path id="path42" d="  M 1.5333268,51.592033   L 1.5333268,54.124976   L 0.13333277,52.791848   L 1.5333268,51.592033  z " clip-path="url(#clipWmfPath1)" style="fill:none;stroke:#000000;stroke-width:0.033333194px;stroke-linecap:round;stroke-linejoin:round;stroke-miterlimit:4;stroke-dasharray:none;stroke-opacity:1;"/>
  <path id="path44" d="  M 18.06659,49.325717   L 1.5333268,49.325717   L 1.5333268,46.792774   L 18.06659,46.792774   L 18.06659,49.325717  z " clip-path="url(#clipWmfPath1)" style="fill:#000000;fill-rule:nonzero;fill-opacity:1;stroke:none;"/>
  <path id="path46" d="  M 18.06659,49.325717   L 1.5333268,49.325717   L 1.5333268,46.792774   L 18.06659,46.792774   L 18.06659,49.325717  z " clip-path="url(#clipWmfPath1)" style="fill:none;stroke:#000000;stroke-width:0.033333194px;stroke-linecap:round;stroke-linejoin:round;stroke-miterlimit:4;stroke-dasharray:none;stroke-opacity:1;"/>
  <path id="path48" d="  M 1.3999941,46.792774   L 1.3999941,49.325717   L 0,47.992589   L 1.3999941,46.792774  z " clip-path="url(#clipWmfPath1)" style="fill:#000000;fill-rule:nonzero;fill-opacity:1;stroke:none;"/>
  <path id="path50" d="  M 1.3999941,46.792774   L 1.3999941,49.325717   L 0,47.992589   L 1.3999941,46.792774  z " clip-path="url(#clipWmfPath1)" style="fill:none;stroke:#000000;stroke-width:0.033333194px;stroke-linecap:round;stroke-linejoin:round;stroke-miterlimit:4;stroke-dasharray:none;stroke-opacity:1;"/>
  <path id="path52" d="  M 18.133256,44.65977   L 1.5999932,44.65977   L 1.5999932,42.126828   L 18.133256,42.126828   L 18.133256,44.65977  z " clip-path="url(#clipWmfPath1)" style="fill:#000000;fill-rule:nonzero;fill-opacity:1;stroke:none;"/>
  <path id="path54" d="  M 18.133256,44.65977   L 1.5999932,44.65977   L 1.5999932,42.126828   L 18.133256,42.126828   L 18.133256,44.65977  z " clip-path="url(#clipWmfPath1)" style="fill:none;stroke:#000000;stroke-width:0.033333194px;stroke-linecap:round;stroke-linejoin:round;stroke-miterlimit:4;stroke-dasharray:none;stroke-opacity:1;"/>
  <path id="path56" d="  M 1.4666604,42.126828   L 1.4666604,44.65977   L 0.066666384,43.326643   L 1.4666604,42.126828  z " clip-path="url(#clipWmfPath1)" style="fill:#000000;fill-rule:nonzero;fill-opacity:1;stroke:none;"/>
  <path id="path58" d="  M 1.4666604,42.126828   L 1.4666604,44.65977   L 0.066666384,43.326643   L 1.4666604,42.126828  z " clip-path="url(#clipWmfPath1)" style="fill:none;stroke:#000000;stroke-width:0.033333194px;stroke-linecap:round;stroke-linejoin:round;stroke-miterlimit:4;stroke-dasharray:none;stroke-opacity:1;"/>
  <path id="path60" d="  M 18.199923,39.927168   L 1.6666596,39.927168   L 1.6666596,37.394226   L 18.199923,37.394226   L 18.199923,39.927168  z " clip-path="url(#clipWmfPath1)" style="fill:#000000;fill-rule:nonzero;fill-opacity:1;stroke:none;"/>
  <path id="path62" d="  M 18.199923,39.927168   L 1.6666596,39.927168   L 1.6666596,37.394226   L 18.199923,37.394226   L 18.199923,39.927168  z " clip-path="url(#clipWmfPath1)" style="fill:none;stroke:#000000;stroke-width:0.033333194px;stroke-linecap:round;stroke-linejoin:round;stroke-miterlimit:4;stroke-dasharray:none;stroke-opacity:1;"/>
  <path id="path64" d="  M 1.5333268,37.394226   L 1.5333268,39.927168   L 0.13333277,38.59404   L 1.5333268,37.394226  z " clip-path="url(#clipWmfPath1)" style="fill:#000000;fill-rule:nonzero;fill-opacity:1;stroke:none;"/>
  <path id="path66" d="  M 1.5333268,37.394226   L 1.5333268,39.927168   L 0.13333277,38.59404   L 1.5333268,37.394226  z " clip-path="url(#clipWmfPath1)" style="fill:none;stroke:#000000;stroke-width:0.033333194px;stroke-linecap:round;stroke-linejoin:round;stroke-miterlimit:4;stroke-dasharray:none;stroke-opacity:1;"/>
  <path id="path68" d="  M 16.366597,55.824713   L 13.699942,55.824713   L 13.699942,30.761917   L 16.366597,30.761917   L 16.366597,55.824713  z " clip-path="url(#clipWmfPath1)" style="fill:#b2b2b2;fill-rule:nonzero;fill-opacity:1;stroke:none;"/>
  <path id="path70" d="  M 16.366597,55.824713   L 13.699942,55.824713   L 13.699942,30.761917   L 16.366597,30.761917   L 16.366597,55.824713  z " clip-path="url(#clipWmfPath1)" style="fill:none;stroke:#000000;stroke-width:0.033333194px;stroke-linecap:round;stroke-linejoin:round;stroke-miterlimit:4;stroke-dasharray:none;stroke-opacity:1;"/>
  <path id="path72" d="  M 32.766528,55.958026   L 32.766528,50.758829   L 44.033146,50.758829   L 44.033146,55.958026   L 32.766528,55.958026  z " clip-path="url(#clipWmfPath1)" style="fill:#bfbfbf;fill-rule:nonzero;fill-opacity:1;stroke:none;"/>
  <path id="path74" d="  M 32.766528,55.958026   L 32.766528,50.758829   L 44.033146,50.758829   L 44.033146,55.958026   L 32.766528,55.958026  z " clip-path="url(#clipWmfPath1)" style="fill:none;stroke:#000000;stroke-width:0.033333194px;stroke-linecap:round;stroke-linejoin:round;stroke-miterlimit:4;stroke-dasharray:none;stroke-opacity:1;"/>
  <path id="path76" d="  M 34.299854,54.824867   L 34.299854,51.825331   L 37.366508,51.825331   L 37.366508,54.824867   L 34.299854,54.824867  z " clip-path="url(#clipWmfPath1)" style="fill:#000000;fill-rule:nonzero;fill-opacity:1;stroke:none;"/>
  <path id="path78" d="  M 34.299854,54.824867   L 34.299854,51.825331   L 37.366508,51.825331   L 37.366508,54.824867   L 34.299854,54.824867  z " clip-path="url(#clipWmfPath1)" style="fill:none;stroke:#000000;stroke-width:0.033333194px;stroke-linecap:round;stroke-linejoin:round;stroke-miterlimit:4;stroke-dasharray:none;stroke-opacity:1;"/>
  <path id="path80" d="  M 39.299833,54.824867   L 39.299833,51.825331   L 42.366487,51.825331   L 42.366487,54.824867   L 39.299833,54.824867  z " clip-path="url(#clipWmfPath1)" style="fill:#000000;fill-rule:nonzero;fill-opacity:1;stroke:none;"/>
  <path id="path82" d="  M 39.299833,54.824867   L 39.299833,51.825331   L 42.366487,51.825331   L 42.366487,54.824867   L 39.299833,54.824867  z " clip-path="url(#clipWmfPath1)" style="fill:none;stroke:#000000;stroke-width:0.033333194px;stroke-linecap:round;stroke-linejoin:round;stroke-miterlimit:4;stroke-dasharray:none;stroke-opacity:1;"/>
  <path id="path84" d="  M 101.76623,32.494982   L 101.76623,35.29455   L 101.9329,35.994442   L 102.3329,36.527693   L 102.9329,36.860975   L 103.69956,36.960959   L 118.76616,36.960959   L 119.53283,36.827647   L 120.13282,36.427708   L 120.53282,35.827801   L 120.69949,35.094581   L 120.69949,25.629376   L 120.53282,24.896156   L 120.13282,24.329576   L 119.53283,23.962966   L 118.76616,23.829654   L 103.69956,23.829654   L 102.9329,23.996295   L 102.3329,24.462889   L 101.9329,25.129453   L 101.76623,25.896001   L 101.76623,28.428943   L 89.699619,30.428635   L 101.76623,32.494982  z " clip-path="url(#clipWmfPath1)" style="fill:#ffffff;fill-rule:nonzero;fill-opacity:1;stroke:none;"/>
  <path id="path86" d="  M 89.799619,29.928712   L 89.199621,30.32865   L 89.59962,30.928557   L 101.26624,32.928249   L 101.26624,35.361206   L 101.46624,36.227739   L 101.99957,36.927631   L 102.76623,37.360898   L 103.66623,37.460882   L 118.7995,37.460882   L 119.73283,37.294241   L 120.49949,36.794318   L 120.99949,36.02777   L 121.19949,35.161237   L 121.19949,25.562719   L 120.99949,24.696187   L 120.49949,23.962966   L 119.69949,23.496372   L 118.7995,23.329731   L 103.63289,23.329731   L 102.69956,23.5297   L 101.9329,24.129607   L 101.46624,24.929484   L 101.26624,25.829345   L 101.26624,27.995677   L 89.632953,29.928712   L 89.59962,30.928557   L 101.26624,32.928249   L 101.26624,35.29455   L 101.76623,35.794473   L 102.26623,35.29455   L 102.26623,32.061716   L 92.73294,30.428635   L 102.26623,28.86221   L 102.26623,25.962658   L 102.39957,25.329422   L 102.7329,24.796171   L 103.16623,24.462889   L 103.76623,24.329576   L 118.73283,24.329576   L 119.36616,24.429561   L 119.76616,24.696187   L 120.06616,25.096125   L 120.19949,25.696032   L 120.19949,35.027924   L 120.06616,35.627832   L 119.76616,36.061098   L 119.33283,36.361052   L 118.73283,36.461036   L 103.73289,36.461036   L 103.09956,36.361052   L 102.66623,36.127755   L 102.39957,35.761145   L 102.26623,35.227894   L 102.26623,32.061716   L 89.799619,29.928712  z " clip-path="url(#clipWmfPath1)" style="fill:#000000;fill-rule:nonzero;fill-opacity:1;stroke:#000000;stroke-width:0.033333194px;stroke-linecap:round;stroke-linejoin:round;stroke-miterlimit:4;stroke-dasharray:none;stroke-opacity:1;"/>
  <g id="g88" clip-path="url(#clipWmfPath1)"/>
  <g id="g98" clip-path="url(#clipWmfPath1)">
    <text id="text96" y="0.000000" x="0.000000" transform="matrix(1.000000,-0.000000,0.000000,1.000000,104.966221,33.961422)" style="font-size:10.687500px;font-style:normal;font-variant:normal;font-weight:400;font-stretch:Condensed;line-height:125.000000%;letter-spacing:0px;word-spacing:0px;fill:#000000;fill-opacity:1;stroke:none;font-family:Helvetica-Narrow;text-align:start;text-anchor:start;" xml:space="preserve"><tspan id="tspan94" y="0.000000" x="0.000000"><tspan id="tspan90" style="fill:#000000;font-size:10.687500px;font-style:normal;font-variant:normal;font-weight:400;font-stretch:Condensed;font-family:Helvetica-Narrow;" dy="0.000000" dx="0.000000">P</tspan><tspan id="tspan92" style="fill:#000000;font-size:10.687500px;font-style:normal;font-variant:normal;font-weight:400;font-stretch:Condensed;font-family:Helvetica-Narrow;" dy="0.000000" dx="-0.161925">3</tspan></tspan></text>
  </g>
  <path id="path100" d="  M 39.99983,37.394226   L 46.066471,37.394226   L 46.833135,37.260913   L 47.433132,36.860975   L 47.83313,36.261067   L 47.999796,35.527847   L 47.999796,26.062642   L 47.83313,25.296094   L 47.433132,24.696187   L 46.833135,24.296248   L 46.066471,24.129607   L 31.066535,24.129607   L 30.299871,24.296248   L 29.699874,24.696187   L 29.299876,25.296094   L 29.13321,26.062642   L 29.13321,35.461191   L 29.299876,36.194411   L 29.699874,36.76099   L 30.299871,37.1276   L 31.066535,37.260913   L 36.199846,37.260913   L 37.79984,50.458875   L 39.99983,37.394226  z " clip-path="url(#clipWmfPath1)" style="fill:#ffffff;fill-rule:nonzero;fill-opacity:1;stroke:none;"/>
  <path id="path102" d="  M 37.299842,50.35889   L 37.69984,50.958798   L 38.299837,50.55886   L 40.433162,37.894149   L 46.099804,37.894149   L 47.033134,37.727508   L 47.799797,37.227585   L 48.299795,36.461036   L 48.499794,35.594504   L 48.499794,25.995986   L 48.299795,25.096125   L 47.799797,24.329576   L 47.033134,23.829654   L 46.133138,23.629685   L 30.999868,23.629685   L 30.099872,23.829654   L 29.333209,24.329576   L 28.833211,25.096125   L 28.633212,25.995986   L 28.633212,35.527847   L 28.833211,36.39438   L 29.333209,37.1276   L 30.133205,37.594195   L 31.033202,37.760836   L 35.766515,37.760836   L 37.299842,50.525531   L 38.299837,50.55886   L 40.433162,37.894149   L 46.066471,37.894149   L 46.566469,37.394226   L 46.066471,36.894303   L 39.566499,36.894303   L 37.866506,46.926087   L 36.633178,36.76099   L 31.099868,36.76099   L 30.466537,36.661006   L 30.066539,36.39438   L 29.76654,35.994442   L 29.633208,35.394535   L 29.633208,26.129299   L 29.76654,25.496063   L 30.066539,25.062797   L 30.499871,24.762843   L 31.133201,24.62953   L 45.999805,24.62953   L 46.633135,24.762843   L 47.066467,25.062797   L 47.366466,25.496063   L 47.499798,26.129299   L 47.499798,35.461191   L 47.366466,36.061098   L 47.066467,36.494365   L 46.633135,36.794318   L 46.033138,36.894303   L 39.566499,36.894303   L 37.299842,50.35889  z " clip-path="url(#clipWmfPath1)" style="fill:#000000;fill-rule:nonzero;fill-opacity:1;stroke:#000000;stroke-width:0.033333194px;stroke-linecap:round;stroke-linejoin:round;stroke-miterlimit:4;stroke-dasharray:none;stroke-opacity:1;"/>
  <g id="g104" clip-path="url(#clipWmfPath1)"/>
  <g id="g114" clip-path="url(#clipWmfPath1)">
    <text id="text112" y="0.000000" x="0.000000" transform="matrix(1.000000,-0.000000,0.000000,1.000000,32.499862,34.228048)" style="font-size:10.687500px;font-style:normal;font-variant:normal;font-weight:400;font-stretch:Condensed;line-height:125.000000%;letter-spacing:0px;word-spacing:0px;fill:#000000;fill-opacity:1;stroke:none;font-family:Helvetica-Narrow;text-align:start;text-anchor:start;" xml:space="preserve"><tspan id="tspan110" y="0.000000" x="0.000000"><tspan id="tspan106" style="fill:#000000;font-size:10.687500px;font-style:normal;font-variant:normal;font-weight:400;font-stretch:Condensed;font-family:Helvetica-Narrow;" dy="0.000000" dx="0.000000">P</tspan><tspan id="tspan108" style="fill:#000000;font-size:10.687500px;font-style:normal;font-variant:normal;font-weight:400;font-stretch:Condensed;font-family:Helvetica-Narrow;" dy="0.000000" dx="-0.069245">2</tspan></tspan></text>
  </g>
  <path id="path116" d="  M 35.39985,8.8319695   L 36.366512,8.9986105   L 37.199842,9.4318769   L 37.766506,10.065112   L 37.999839,10.831661   L 37.999839,20.296866   L 37.766506,21.030086   L 37.199842,21.596665   L 36.366512,21.963275   L 35.39985,22.096588   L 22.266572,22.096588   L 21.033244,23.496372   L 18.89992,26.595893   L 16.799929,29.59543   L 15.6666,30.828573   L 15.699933,30.261994   L 16.099932,29.062179   L 17.499926,25.529391   L 19.666583,20.096897   L 19.666583,10.698348   L 19.899916,9.9651279   L 20.46658,9.3652205   L 21.29991,8.9652823   L 22.266572,8.8319695   L 35.39985,8.8319695  z " clip-path="url(#clipWmfPath1)" style="fill:#ffffff;fill-rule:nonzero;fill-opacity:1;stroke:none;"/>
  <path id="path118" d="  M 22.266572,8.3320467   L 21.766574,8.8319695   L 22.266572,9.3318923   L 35.366517,9.3318923   L 36.199846,9.4985333   L 36.899843,9.8318151   L 37.299842,10.331738   L 37.499841,10.898317   L 37.499841,20.230209   L 37.333175,20.76346   L 36.899843,21.163399   L 36.23318,21.463352   L 35.366517,21.596665   L 22.266572,21.596665   L 21.899907,21.763306   L 20.666579,23.16309   L 20.599913,23.196418   L 18.499921,26.295939   L 16.39993,29.262148   L 15.299935,30.495291   L 16.033265,31.161855   L 16.166598,30.861901   L 16.199931,30.361978   L 16.566596,29.22882   L 17.96659,25.72936   L 17.96659,25.72936   L 20.133248,20.296866   L 20.166581,20.096897   L 20.166581,10.765004   L 20.333247,10.231753   L 20.766579,9.7651588   L 21.433242,9.4652051   L 22.299905,9.3318923   L 35.366517,9.3318923   L 36.266513,9.4985333   L 36.86651,9.098595   L 36.466512,8.4986877   L 35.499849,8.3320467   L 35.39985,8.3320467   L 22.266572,8.3320467   L 22.199906,8.3320467   L 21.233243,8.4653595   L 21.066577,8.4986877   L 20.233247,8.8986259   L 20.099915,9.0319387   L 19.53325,9.631846   L 19.433251,9.798487   L 19.199919,10.531707   L 19.166585,10.698348   L 19.166585,19.996912   L 17.033261,25.329422   L 17.033261,25.329422   L 15.633267,28.86221   L 15.633267,28.895538   L 15.233269,30.095353   L 15.199935,30.228666   L 15.166602,30.795245   L 15.466601,31.295168   L 16.033265,31.161855   L 17.166594,29.928712   L 17.199927,29.895384   L 19.299918,26.895847   L 19.333251,26.895847   L 21.433242,23.796325   L 22.499904,22.596511   L 35.39985,22.596511   L 35.466516,22.596511   L 36.433179,22.463198   L 36.566511,22.42987   L 37.399841,22.06326   L 37.566507,21.963275   L 38.133171,21.396696   L 38.233171,21.196727   L 38.466503,20.463507   L 38.499837,20.296866   L 38.499837,10.831661   L 38.499837,10.698348   L 38.266504,9.9317997   L 38.133171,9.7318306   L 37.566507,9.098595   L 37.433174,8.9986105   L 36.599845,8.565344   L 36.466512,8.4986877   L 35.499849,8.3320467   L 35.39985,8.3320467   L 22.266572,8.3320467  z " clip-path="url(#clipWmfPath1)" style="fill:#000000;fill-rule:nonzero;fill-opacity:1;stroke:#000000;stroke-width:0.033333194px;stroke-linecap:round;stroke-linejoin:round;stroke-miterlimit:4;stroke-dasharray:none;stroke-opacity:1;"/>
  <g id="g120" clip-path="url(#clipWmfPath1)"/>
  <g id="g130" clip-path="url(#clipWmfPath1)">
    <text id="text128" y="0.000000" x="0.000000" transform="matrix(1.000000,-0.000000,0.000000,1.000000,22.899903,18.963738)" style="font-size:10.687500px;font-style:normal;font-variant:normal;font-weight:400;font-stretch:Condensed;line-height:125.000000%;letter-spacing:0px;word-spacing:0px;fill:#000000;fill-opacity:1;stroke:none;font-family:Helvetica-Narrow;text-align:start;text-anchor:start;" xml:space="preserve"><tspan id="tspan126" y="0.000000" x="0.000000"><tspan id="tspan122" style="fill:#000000;font-size:10.687500px;font-style:normal;font-variant:normal;font-weight:400;font-stretch:Condensed;font-family:Helvetica-Narrow;" dy="0.000000" dx="0.000000">P</tspan><tspan id="tspan124" style="fill:#000000;font-size:10.687500px;font-style:normal;font-variant:normal;font-weight:400;font-stretch:Condensed;font-family:Helvetica-Narrow;" dy="0.000000" dx="-0.069245">1</tspan></tspan></text>
  </g>
</svg>