<?xml version="1.0" encoding="UTF-8" standalone="no"?>
<svg
   xmlns:dc="http://purl.org/dc/elements/1.1/"
   xmlns:cc="http://creativecommons.org/ns#"
   xmlns:rdf="http://www.w3.org/1999/02/22-rdf-syntax-ns#"
   xmlns:svg="http://www.w3.org/2000/svg"
   xmlns="http://www.w3.org/2000/svg"
   id="svg182"
   height="65.909999mm"
   width="61.940002mm"
   version="1.0">
  <metadata
     id="metadata186">
    <rdf:RDF>
      <cc:Work
         rdf:about="">
        <dc:format>image/svg+xml</dc:format>
        <dc:type
           rdf:resource="http://purl.org/dc/dcmitype/StillImage" />
      </cc:Work>
    </rdf:RDF>
  </metadata>
  <defs
     id="defs6">
    <clipPath
       id="clipWmfPath1"
       clipPathUnits="userSpaceOnUse">
      <path
         id="path2"
         d="M 0,0 L 233.99948,0 L 233.99948,249.0042 L 0,249.0042 z" />
    </clipPath>
    <pattern
       y="0"
       x="0"
       height="6"
       width="6"
       patternUnits="userSpaceOnUse"
       id="WMFhbasepattern" />
  </defs>
  <path
     id="path8"
     d="  M 174.99961,206.00347   L 20.999953,205.67013   L 20.999953,20.000337   L 174.99961,20.000337   L 174.99961,206.00347  z "
     clip-path="url(#clipWmfPath1)"
     style="fill:#e5e5e5;fill-rule:nonzero;fill-opacity:1;stroke:none;" />
  <path
     id="path10"
     d="  M 175.53294,20.000337   L 174.46628,20.000337   L 174.46628,205.47013   L 21.533285,205.13679   L 21.533285,20.53368   L 174.46628,20.53368   L 174.46628,205.47013   L 20.999953,205.13679   L 20.999953,206.20348   L 175.53294,206.53682   L 175.53294,19.466995   L 20.466621,19.466995   L 20.466621,206.20348   L 175.53294,206.53682   L 175.53294,20.000337  z "
     clip-path="url(#clipWmfPath1)"
     style="fill:#000000;fill-rule:nonzero;fill-opacity:1;stroke:#000000;stroke-width:0.066666514px;stroke-linecap:round;stroke-linejoin:round;stroke-miterlimit:4;stroke-dasharray:none;stroke-opacity:1;" />
  <path
     id="path12"
     d="  M 31.999928,72.267885   L 31.999928,73.33457   L 33.199926,73.467905   L 34.199923,73.801244   L 34.933255,74.467922   L 35.533254,75.401271   L 35.933253,76.601292   L 36.133252,78.134651   L 36.333252,82.201386   L 36.333252,117.00197   L 36.133252,121.06871   L 35.933253,122.60207   L 35.533254,123.80209   L 34.933255,124.66877   L 34.199923,125.33545   L 33.199926,125.66879   L 31.999928,125.80212   L 31.999928,126.93547   L 42.599904,126.93547   L 42.599904,125.80212   L 41.399907,125.66879   L 40.399909,125.33545   L 39.599911,124.66877   L 39.066579,123.80209   L 38.66658,122.60207   L 38.399914,121.06871   L 38.199914,117.00197   L 38.199914,82.201386   L 49.666555,126.93547   L 50.133221,126.93547   L 61.333196,80.068017   L 61.333196,117.00197   L 61.199863,120.40203   L 60.733197,123.20208   L 60.266532,124.26876   L 59.599866,125.13544   L 58.799868,125.60212   L 57.733204,125.80212   L 57.733204,126.93547   L 69.533177,126.93547   L 69.533177,125.80212   L 68.399847,125.66879   L 67.533182,125.20211   L 66.866517,124.53543   L 66.333185,123.53542   L 65.999852,122.3354   L 65.799852,120.80204   L 65.666519,117.00197   L 65.666519,80.068017   L 65.933185,76.801295   L 66.199852,75.601275   L 66.599851,74.734593   L 67.199849,74.067915   L 67.799848,73.667909   L 69.533177,73.33457   L 69.533177,72.267885   L 60.86653,72.267885   L 51.333218,113.33524   L 51.066552,113.73525   L 50.866553,113.26858   L 40.733242,72.267885   L 31.999928,72.267885  z "
     clip-path="url(#clipWmfPath1)"
     style="fill:#cccccc;fill-rule:nonzero;fill-opacity:1;stroke:none;" />
  <path
     id="path14"
     d="  M 138.59969,68.001147   L 73.599835,68.001147   L 106.19976,25.667099   L 138.59969,68.001147  z "
     clip-path="url(#clipWmfPath1)"
     style="fill:#cccccc;fill-rule:nonzero;fill-opacity:1;stroke:none;" />
  <path
     id="path16"
     d="  M 114.46641,27.933804   L 120.99973,32.667217   L 107.93309,50.734189   L 101.39977,45.86744   L 114.46641,27.933804  z "
     clip-path="url(#clipWmfPath1)"
     style="fill:#cccccc;fill-rule:nonzero;fill-opacity:1;stroke:none;" />
  <path
     id="path18"
     d="  M 31.133264,145.66912   L 31.133264,146.73581   L 31.999928,146.86914   L 32.73326,147.20248   L 33.266592,147.80249   L 33.733258,148.60251   L 34.333256,150.73587   L 34.533256,153.53592   L 34.533256,187.20316   L 34.333256,190.0032   L 33.733258,192.13657   L 33.266592,192.93659   L 32.73326,193.5366   L 31.999928,193.86994   L 31.133264,194.00327   L 31.133264,195.06996   L 42.733237,195.06996   L 42.733237,194.00327   L 41.799906,193.86994   L 41.066575,193.5366   L 40.466576,192.93659   L 39.99991,192.13657   L 39.399912,190.0032   L 39.199912,187.20316   L 39.199912,171.46956   L 51.999883,171.46956   L 51.999883,187.20316   L 51.799884,190.0032   L 51.199885,192.13657   L 50.666553,192.93659   L 50.066554,193.5366   L 49.333223,193.86994   L 48.466558,194.00327   L 48.466558,195.06996   L 60.133198,195.06996   L 60.133198,194.00327   L 59.266534,193.86994   L 58.466536,193.5366   L 57.866537,192.93659   L 57.399871,192.13657   L 56.799873,190.0032   L 56.599873,187.20316   L 56.599873,153.53592   L 56.799873,150.73587   L 57.399871,148.60251   L 57.866537,147.80249   L 58.466536,147.20248   L 59.266534,146.86914   L 60.133198,146.73581   L 60.133198,145.66912   L 48.466558,145.66912   L 48.466558,146.73581   L 49.333223,146.86914   L 50.066554,147.20248   L 50.666553,147.80249   L 51.199885,148.60251   L 51.799884,150.73587   L 51.999883,153.53592   L 51.999883,168.20284   L 39.199912,168.20284   L 39.199912,153.53592   L 39.399912,150.73587   L 39.99991,148.60251   L 40.466576,147.80249   L 41.066575,147.20248   L 41.799906,146.86914   L 42.733237,146.73581   L 42.733237,145.66912   L 31.133264,145.66912  z "
     clip-path="url(#clipWmfPath1)"
     style="fill:#cccccc;fill-rule:nonzero;fill-opacity:1;stroke:none;" />
  <path
     id="path20"
     d="  M 91.466462,145.66912   L 91.466462,146.73581   L 92.399793,146.80248   L 93.199791,147.06915   L 93.866456,147.53582   L 94.399788,148.2025   L 95.066453,150.20253   L 95.266453,153.26925   L 95.266453,176.40297   L 95.399786,180.86972   L 95.933118,184.86978   L 96.733116,188.26984   L 97.933114,191.06989   L 99.399777,193.33659   L 101.26644,194.93662   L 103.46643,195.93664   L 105.99976,196.26998   L 108.66642,195.93664   L 109.86642,195.46996   L 110.93308,194.86995   L 112.86641,193.20326   L 114.39974,190.93655   L 115.59974,188.13651   L 116.39974,184.73645   L 116.93307,180.80305   L 117.0664,176.40297   L 117.0664,153.26925   L 117.2664,150.40254   L 117.93307,148.33583   L 118.39973,147.66916   L 119.0664,147.13581   L 119.79973,146.86914   L 120.73306,146.73581   L 120.73306,145.66912   L 111.33308,145.66912   L 111.33308,146.73581   L 112.26641,146.86914   L 112.99975,147.13581   L 113.66641,147.66916   L 114.13308,148.33583   L 114.79974,150.40254   L 114.99974,153.26925   L 114.99974,175.53629   L 114.93308,178.86968   L 114.66641,182.06974   L 114.13308,184.93645   L 113.46641,187.46983   L 112.39975,189.6032   L 111.13308,191.20322   L 109.46642,192.26991   L 107.46643,192.60325   L 105.3331,192.26991   L 103.59977,191.40323   L 102.26644,190.0032   L 101.19977,188.13651   L 100.39977,185.73646   L 99.866443,183.00309   L 99.53311,179.8697   L 99.466444,176.40297   L 99.466444,153.26925   L 99.666443,150.20253   L 100.33311,148.2025   L 100.86644,147.53582   L 101.53311,147.06915   L 102.3331,146.80248   L 103.3331,146.73581   L 103.3331,145.66912   L 91.466462,145.66912  z "
     clip-path="url(#clipWmfPath1)"
     style="fill:#cccccc;fill-rule:nonzero;fill-opacity:1;stroke:none;" />
  <path
     id="path22"
     d="  M 139.53302,144.60244   L 138.53302,144.60244   L 138.39969,145.80246   L 137.99969,146.66914   L 137.39969,147.13581   L 136.66636,147.13581   L 135.93303,146.60247   L 134.66636,145.86913   L 132.86637,145.20245   L 130.73304,144.93578   L 129.26638,145.13578   L 127.93305,145.80246   L 126.73305,146.80248   L 125.59972,148.2025   L 124.73305,149.86919   L 124.06639,151.9359   L 123.59972,154.2026   L 123.46639,156.80264   L 123.59972,159.73603   L 124.06639,162.2694   L 124.73305,164.46944   L 125.59972,166.33614   L 126.66638,168.00283   L 127.86638,169.53619   L 130.53304,172.40291   L 132.66637,174.60294   L 134.7997,177.13632   L 135.73303,178.66968   L 136.39969,180.40304   L 136.86636,182.33641   L 137.06636,184.60311   L 136.99969,186.53648   L 136.73303,188.33651   L 136.26636,189.8032   L 135.66636,191.13656   L 134.93303,192.13657   L 133.9997,192.93659   L 132.93304,193.40326   L 131.7997,193.5366   L 130.13304,193.26993   L 128.73304,192.40324   L 127.46638,191.13656   L 126.33305,189.46986   L 125.39972,187.40316   L 124.59972,185.13645   L 123.33306,180.13637   L 122.33306,180.0697   L 123.53306,196.06997   L 124.39972,196.06997   L 124.73305,194.26994   L 125.06639,193.80327   L 125.59972,193.66993   L 126.79972,194.06994   L 128.06638,195.00329   L 129.73304,195.86997   L 130.79971,196.13664   L 132.06637,196.26998   L 133.73303,196.0033   L 135.3997,195.20329   L 136.99969,193.9366   L 138.39969,192.20324   L 139.53302,190.13654   L 140.46635,187.66983   L 141.06635,185.00312   L 141.26635,182.00307   L 141.06635,179.13635   L 140.46635,176.53631   L 139.53302,174.2696   L 138.46636,172.2029   L 135.73303,168.66951   L 132.9997,165.73613   L 130.99971,163.60276   L 129.13304,161.00271   L 128.33305,159.46936   L 127.66638,157.80266   L 127.26638,155.93596   L 127.13305,153.80259   L 127.46638,151.20255   L 128.33305,149.13585   L 129.59971,147.73582   L 130.33304,147.33582   L 131.06637,147.20248   L 132.73304,147.46915   L 134.26637,148.26917   L 135.5997,149.46919   L 136.79969,151.06921   L 137.73302,153.00258   L 138.46636,155.26928   L 138.93302,157.73599   L 139.13302,160.33604   L 140.19969,160.33604   L 139.53302,144.60244  z "
     clip-path="url(#clipWmfPath1)"
     style="fill:#cccccc;fill-rule:nonzero;fill-opacity:1;stroke:none;" />
  <path
     id="path24"
     d="  M 142.79968,145.66912   L 142.79968,146.73581   L 143.73301,146.80248   L 144.46634,147.06915   L 145.13301,147.53582   L 145.59967,148.2025   L 146.26634,150.13586   L 146.46634,153.00258   L 146.46634,187.80317   L 146.26634,190.60321   L 145.59967,192.53658   L 145.13301,193.20326   L 144.46634,193.66993   L 143.73301,193.9366   L 142.79968,194.00327   L 142.79968,195.06996   L 165.93296,195.06996   L 167.73296,182.73641   L 166.79963,182.73641   L 165.59963,186.26981   L 164.0663,189.26986   L 162.19964,191.33656   L 161.06631,191.93657   L 159.86631,192.20324   L 154.33299,192.60325   L 153.33299,192.60325   L 152.13299,192.46991   L 151.33299,191.93657   L 150.93299,190.80322   L 150.79966,188.86985   L 150.79966,170.60288   L 156.79965,170.60288   L 159.06631,170.80288   L 159.99964,171.13622   L 160.73297,171.73623   L 161.33297,172.66958   L 161.79964,173.93627   L 162.33297,178.003   L 163.0663,178.003   L 163.0663,160.2027   L 162.33297,160.2027   L 161.79964,164.20277   L 161.33297,165.46946   L 160.73297,166.33614   L 159.99964,166.93615   L 159.06631,167.26949   L 156.79965,167.46949   L 150.79966,167.46949   L 150.79966,149.46919   L 151.06633,148.46917   L 151.33299,148.13583   L 151.73299,148.0025   L 157.46631,148.0025   L 160.13297,148.26917   L 161.33297,148.66917   L 162.33297,149.33585   L 163.19963,150.40254   L 163.8663,151.86923   L 164.33296,153.80259   L 164.59963,156.2693   L 165.39963,156.2693   L 165.39963,145.66912   L 142.79968,145.66912  z "
     clip-path="url(#clipWmfPath1)"
     style="fill:#cccccc;fill-rule:nonzero;fill-opacity:1;stroke:none;" />
  <path
     id="path26"
     d="  M 70.133176,77.801312   L 70.133176,78.801329   L 71.066507,78.934664   L 71.866505,79.268003   L 72.533171,79.868013   L 72.999836,80.668027   L 73.666501,82.801396   L 73.866501,85.534775   L 73.866501,119.26868   L 73.666501,122.06872   L 72.999836,124.13543   L 71.866505,125.46878   L 71.066507,125.80212   L 70.133176,125.93546   L 70.133176,127.06881   L 82.466482,127.06881   L 82.466482,125.93546   L 81.53315,125.80212   L 80.733152,125.46878   L 79.533155,124.13543   L 78.86649,122.06872   L 78.66649,119.26868   L 78.66649,85.534775   L 78.86649,82.801396   L 79.133156,81.668044   L 79.533155,80.668027   L 80.066487,79.868013   L 80.733152,79.268003   L 81.53315,78.934664   L 82.466482,78.801329   L 82.466482,77.801312   L 70.133176,77.801312  z "
     clip-path="url(#clipWmfPath1)"
     style="fill:#cccccc;fill-rule:nonzero;fill-opacity:1;stroke:none;" />
  <path
     id="path28"
     d="  M 111.93308,118.20199   L 110.99975,117.00197   L 108.79976,120.00202   L 107.53309,121.33538   L 106.26643,122.46873   L 104.86643,123.40208   L 103.46643,124.06876   L 101.99977,124.53543   L 100.53311,124.66877   L 99.133111,124.53543   L 97.799781,124.20209   L 96.599783,123.60208   L 95.466453,122.80207   L 93.59979,120.60203   L 92.06646,117.80199   L 90.999796,114.4686   L 90.199798,110.7352   L 89.733132,106.8018   L 89.599799,102.6684   L 89.733132,98.468327   L 90.066465,94.401592   L 90.73313,90.468192   L 91.733128,86.934799   L 93.133124,83.868081   L 93.999789,82.601393   L 94.999787,81.534708   L 96.066451,80.668027   L 97.266449,80.001349   L 98.666445,79.601342   L 100.13311,79.468007   L 101.99977,79.734678   L 103.7331,80.601359   L 105.3331,81.868047   L 106.79976,83.60141   L 108.06642,85.668111   L 109.06642,88.068152   L 109.79975,90.734863   L 110.19975,93.53491   L 111.13308,93.53491   L 110.86642,77.001298   L 109.93309,77.001298   L 109.33309,78.201319   L 108.66642,79.068   L 107.86642,79.401339   L 106.79976,79.134668   L 104.9331,78.134651   L 103.3331,77.467973   L 101.66644,77.134634   L 99.799776,77.001298   L 96.599783,77.467973   L 93.666457,78.801329   L 90.999796,80.934698   L 88.733134,83.801413   L 86.799805,87.401474   L 86.066474,89.401507   L 85.399808,91.534877   L 84.533144,96.26829   L 84.199811,101.46838   L 84.466477,107.06847   L 85.266475,112.20189   L 86.533139,116.80197   L 88.333135,120.6687   L 90.53313,123.86876   L 91.799794,125.20211   L 93.199791,126.2688   L 94.666454,127.13548   L 96.266451,127.73549   L 97.99978,128.13549   L 99.799776,128.26883   L 101.66644,128.06883   L 103.39977,127.53548   L 104.99976,126.6688   L 106.53309,125.53545   L 109.33309,122.3354   L 111.93308,118.20199  z "
     clip-path="url(#clipWmfPath1)"
     style="fill:#cccccc;fill-rule:nonzero;fill-opacity:1;stroke:none;" />
  <path
     id="path30"
     d="  M 152.59966,71.2012   L 150.99966,71.334536   L 149.533,71.734543   L 148.06633,72.334553   L 146.66634,73.201234   L 145.39967,74.267919   L 144.19968,75.601275   L 143.06635,77.134634   L 142.06635,78.801329   L 141.13302,80.668027   L 140.33302,82.734728   L 139.06635,87.401474   L 138.26636,92.601561   L 137.99969,98.268324   L 138.19969,104.33509   L 138.93302,110.00185   L 140.06635,115.06861   L 141.66635,119.46868   L 143.73301,123.06874   L 144.93301,124.6021   L 146.26634,125.80212   L 147.66634,126.80214   L 149.19967,127.53548   L 150.86633,128.00216   L 152.59966,128.13549   L 154.33299,128.00216   L 155.93298,127.53548   L 157.46631,126.80214   L 158.86631,125.80212   L 160.19964,124.6021   L 161.39964,123.06874   L 162.4663,121.40205   L 163.4663,119.46868   L 165.13296,115.06861   L 166.26629,110.00185   L 166.99963,104.33509   L 167.26629,98.268324   L 166.99963,92.601561   L 166.19963,87.401474   L 164.93296,82.734728   L 164.13297,80.668027   L 163.19963,78.801329   L 162.13297,77.134634   L 161.06631,75.601275   L 159.86631,74.267919   L 158.53298,73.201234   L 157.19965,72.334553   L 155.73298,71.734543   L 154.19965,71.334536   L 152.59966,71.2012  z    M 152.59966,73.93458   L 153.93299,74.067915   L 155.13299,74.467922   L 156.19965,75.1346   L 157.19965,76.067949   L 158.93298,78.46799   L 159.59964,79.934681   L 160.26631,81.601376   L 161.19964,85.268104   L 161.93297,89.401507   L 162.2663,93.801582   L 162.39964,98.268324   L 162.33297,102.80173   L 161.99964,107.40181   L 161.39964,111.93522   L 160.46631,116.06862   L 159.13298,119.66868   L 158.33298,121.20204   L 157.46631,122.5354   L 156.39965,123.60208   L 155.26632,124.4021   L 153.99965,124.86877   L 152.59966,125.06878   L 151.19966,124.86877   L 149.933,124.4021   L 148.79967,123.60208   L 147.733,122.5354   L 146.86634,121.20204   L 146.06634,119.66868   L 144.73301,116.06862   L 143.79968,111.93522   L 143.19968,107.40181   L 142.86635,102.80173   L 142.79968,98.268324   L 142.93301,93.801582   L 143.33301,89.401507   L 143.99968,85.268104   L 144.93301,81.601376   L 146.26634,78.46799   L 147.99967,76.067949   L 148.99967,75.1346   L 150.06633,74.467922   L 151.26633,74.067915   L 152.59966,73.93458  z   "
     clip-path="url(#clipWmfPath1)"
     style="fill:#cccccc;fill-rule:evenodd;fill-opacity:1;stroke:none;" />
  <path
     id="path32"
     d="  M 117.4664,86.268121   L 117.4664,118.66867   L 117.33307,122.00206   L 116.79974,124.20209   L 116.33307,125.00211   L 115.66641,125.53545   L 114.73308,125.80212   L 113.53308,125.93546   L 113.53308,127.06881   L 125.93305,127.06881   L 125.93305,125.93546   L 124.73305,125.80212   L 123.79972,125.53545   L 123.13306,125.00211   L 122.59973,124.20209   L 122.26639,123.20208   L 122.13306,122.00206   L 121.99973,118.66867   L 121.99973,104.33509   L 124.73305,104.33509   L 135.46636,127.06881   L 142.59968,127.06881   L 142.59968,125.93546   L 141.86635,125.80212   L 141.13302,125.33545   L 139.73302,123.80209   L 138.26636,121.60205   L 136.99969,119.06867   L 129.33304,103.73508   L 130.86637,103.26841   L 132.33304,102.40173   L 133.66637,101.20171   L 134.93303,99.601679   L 135.99969,97.801649   L 136.79969,95.66828   L 137.33303,93.334907   L 137.53302,90.868199   L 137.26636,87.20147   L 136.93303,85.668111   L 136.46636,84.268087   L 135.26636,82.001383   L 133.73303,80.334688   L 131.93304,79.134668   L 129.93304,78.334654   L 127.86638,77.934647   L 125.86638,77.801312   L 113.53308,77.801312   L 113.53308,78.801329   L 114.73308,78.934664   L 115.66641,79.201335   L 116.33307,79.801345   L 116.79974,80.534691   L 117.33307,82.868064   L 117.4664,86.268121  z    M 121.99973,101.53505   L 121.99973,82.534725   L 122.19973,81.134701   L 122.66639,80.534691   L 123.46639,80.334688   L 124.39972,80.334688   L 124.93305,80.334688   L 126.59972,80.468023   L 128.06638,80.86803   L 129.33304,81.601376   L 130.39971,82.66806   L 131.26637,84.068084   L 131.93304,85.934782   L 132.33304,88.134819   L 132.46637,90.868199   L 132.1997,94.268256   L 131.46637,96.8683   L 130.39971,98.734998   L 128.99971,100.00169   L 127.39971,100.86837   L 125.59972,101.33504   L 121.99973,101.53505  z   "
     clip-path="url(#clipWmfPath1)"
     style="fill:#cccccc;fill-rule:evenodd;fill-opacity:1;stroke:none;" />
  <path
     id="path34"
     d="  M 75.79983,144.93578   L 72.799837,145.40245   L 70.06651,146.73581   L 67.666515,148.86918   L 65.599853,151.73589   L 63.866523,155.26928   L 62.666526,159.46936   L 61.866528,164.1361   L 61.599862,169.26952   L 61.799861,174.80295   L 62.533193,179.8697   L 63.666524,184.46978   L 65.199854,188.46984   L 67.266516,191.73657   L 68.399847,193.06992   L 69.66651,194.20327   L 71.066507,195.06996   L 72.533171,195.73663   L 74.133167,196.13664   L 75.79983,196.26998   L 77.466493,196.13664   L 78.999823,195.73663   L 80.466486,195.06996   L 81.799817,194.20327   L 83.06648,193.06992   L 84.266478,191.73657   L 86.266473,188.46984   L 87.799803,184.46978   L 88.933134,179.8697   L 89.666466,174.80295   L 89.866465,169.26952   L 89.599799,164.1361   L 88.866467,159.46936   L 87.599804,155.26928   L 85.933141,151.73589   L 83.933145,148.86918   L 81.53315,146.73581   L 78.799823,145.40245   L 75.79983,144.93578  z    M 75.79983,147.26915   L 77.066494,147.40249   L 78.266491,147.80249   L 80.266487,149.20252   L 81.133151,150.20253   L 81.93315,151.40255   L 83.199813,154.2026   L 84.133145,157.53599   L 84.79981,161.26939   L 85.133142,165.20279   L 85.266475,169.20285   L 85.199809,173.26959   L 84.866476,177.46966   L 84.266478,181.53639   L 83.333146,185.26979   L 82.133149,188.53651   L 81.333151,189.93654   L 80.466486,191.13656   L 79.466488,192.06991   L 78.399824,192.80325   L 77.13316,193.26993   L 75.79983,193.40326   L 74.399833,193.26993   L 73.199836,192.80325   L 72.066505,192.06991   L 71.066507,191.13656   L 70.199843,189.93654   L 69.399844,188.53651   L 68.133181,185.26979   L 67.266516,181.53639   L 66.666517,177.46966   L 66.333185,173.26959   L 66.266518,169.20285   L 66.399851,165.20279   L 66.733184,161.26939   L 67.399849,157.53599   L 68.33318,154.2026   L 69.599844,151.40255   L 70.399842,150.20253   L 71.266507,149.20252   L 73.333169,147.80249   L 74.533166,147.40249   L 75.79983,147.26915  z   "
     clip-path="url(#clipWmfPath1)"
     style="fill:#cccccc;fill-rule:evenodd;fill-opacity:1;stroke:none;" />
  <path
     id="path36"
     d="  M 29.399934,138.00233   L 29.399934,136.6023   L 169.66629,136.6023   L 169.66629,138.00233   L 29.399934,138.00233  z "
     clip-path="url(#clipWmfPath1)"
     style="fill:#cccccc;fill-rule:evenodd;fill-opacity:1;stroke:none;" />
  <path
     id="path38"
     d="  M 167.39962,74.267919   L 168.46629,74.53459   L 169.13295,75.334604   L 169.39962,76.267953   L 169.13295,77.267969   L 168.46629,77.934647   L 167.39962,78.201319   L 166.39963,77.934647   L 165.73296,77.267969   L 165.53296,76.267953   L 165.79963,75.334604   L 166.39963,74.53459   L 167.39962,74.267919  z    M 167.39962,74.401254   L 166.59963,74.734593   L 165.86629,75.401271   L 165.6663,76.267953   L 165.86629,77.134634   L 166.13296,77.534641   L 166.59963,77.801312   L 167.39962,78.067983   L 168.26629,77.801312   L 168.99962,77.134634   L 169.26629,76.267953   L 168.99962,75.401271   L 168.66629,75.001265   L 168.26629,74.734593   L 167.39962,74.401254  z    M 166.33296,75.001265   L 167.39962,75.001265   L 168.06629,75.201268   L 168.26629,75.667942   L 168.06629,76.067949   L 167.59962,76.267953   L 168.19962,77.134634   L 168.46629,77.334637   L 168.59962,77.334637   L 168.59962,77.467973   L 168.06629,77.467973   L 167.19963,76.267953   L 167.13296,76.267953   L 167.13296,77.134634   L 167.19963,77.334637   L 167.46629,77.334637   L 167.46629,77.467973   L 166.33296,77.467973   L 166.33296,77.334637   L 166.53296,77.334637   L 166.59963,77.267969   L 166.66629,76.93463   L 166.66629,75.534607   L 166.59963,75.334604   L 166.59963,75.1346   L 166.33296,75.1346   L 166.33296,75.001265  z    M 167.13296,76.201285   L 167.46629,76.134617   L 167.73296,75.934614   L 167.79962,75.667942   L 167.59962,75.334604   L 167.33296,75.067932   L 167.13296,75.1346   L 167.13296,76.201285  z   "
     clip-path="url(#clipWmfPath1)"
     style="fill:#bfbfbf;fill-rule:evenodd;fill-opacity:1;stroke:none;" />
  <path
     id="path40"
     d="  M 39.799911,32.733885   L 140.33302,32.733885   L 140.33302,66.134448   L 39.799911,66.134448   L 39.799911,32.733885  z    M 45.466565,39.467332   L 45.466565,59.13433   L 87.933136,59.13433   L 87.933136,39.467332   L 91.799794,39.467332   L 91.799794,59.13433   L 134.26637,59.13433   L 134.26637,39.467332   L 45.466565,39.467332  z   "
     clip-path="url(#clipWmfPath1)"
     style="fill:#000000;fill-rule:evenodd;fill-opacity:1;stroke:none;" />
  <path
     id="path42"
     d="  M 39.799911,32.733885   L 140.33302,32.733885   L 140.33302,66.134448   L 39.799911,66.134448   L 39.799911,32.733885  z "
     clip-path="url(#clipWmfPath1)"
     style="fill:none;stroke:#000000;stroke-width:0.066666514px;stroke-linecap:round;stroke-linejoin:round;stroke-miterlimit:4;stroke-dasharray:none;stroke-opacity:1;" />
  <path
     id="path44"
     d="  M 45.466565,39.467332   L 45.466565,59.13433   L 87.933136,59.13433   L 87.933136,39.467332   L 91.799794,39.467332   L 91.799794,59.13433   L 134.26637,59.13433   L 134.26637,39.467332   L 45.466565,39.467332  z "
     clip-path="url(#clipWmfPath1)"
     style="fill:none;stroke:#000000;stroke-width:0.066666514px;stroke-linecap:round;stroke-linejoin:round;stroke-miterlimit:4;stroke-dasharray:none;stroke-opacity:1;" />
  <path
     id="path46"
     d="  M 41.399907,38.533983   L 41.399907,33.600567   L 44.999899,33.600567   L 44.999899,38.533983   L 46.533229,38.533983   L 46.533229,33.600567   L 50.133221,33.600567   L 50.133221,38.533983   L 51.599884,38.533983   L 51.599884,33.600567   L 55.199876,33.600567   L 55.199876,38.533983   L 56.533207,38.533983   L 56.533207,33.600567   L 60.133198,33.600567   L 60.133198,38.533983   L 61.599862,38.533983   L 61.599862,33.600567   L 65.133187,33.600567   L 65.133187,38.533983   L 66.199852,38.533983   L 66.199852,33.600567   L 69.799843,33.600567   L 69.799843,38.533983   L 71.266507,38.533983   L 71.266507,33.600567   L 74.799832,33.600567   L 74.799832,38.533983   L 76.333162,38.533983   L 76.333162,33.600567   L 79.933154,33.600567   L 79.933154,38.533983   L 81.333151,38.533983   L 81.333151,33.600567   L 84.866476,33.600567   L 84.866476,38.533983   L 86.266473,38.533983   L 86.266473,33.600567   L 89.866465,33.600567   L 89.866465,38.533983   L 91.199795,38.533983   L 91.199795,33.600567   L 94.799787,33.600567   L 94.799787,38.533983   L 96.333117,38.533983   L 96.333117,33.600567   L 99.866443,33.600567   L 99.866443,38.533983   L 101.39977,38.533983   L 101.39977,33.600567   L 101.39977,38.533983   L 101.39977,33.600567   L 104.9331,33.600567   L 104.9331,38.533983   L 106.33309,38.533983   L 106.33309,33.600567   L 109.86642,33.600567   L 109.86642,38.533983   L 111.33308,38.533983   L 111.33308,33.600567   L 114.93308,33.600567   L 114.93308,38.533983   L 115.93307,38.533983   L 115.93307,33.600567   L 119.53307,33.600567   L 119.53307,38.533983   L 120.99973,38.533983   L 120.99973,33.600567   L 124.59972,33.600567   L 124.59972,38.533983   L 126.13305,38.533983   L 126.13305,33.600567   L 129.66638,33.600567   L 129.66638,38.533983   L 131.06637,38.533983   L 131.06637,33.600567   L 134.66636,33.600567   L 134.66636,38.533983   L 136.06636,38.533983   L 136.06636,33.600567   L 139.59969,33.600567   L 139.59969,38.533983   L 41.399907,38.533983   L 42.799904,39.667335   L 42.799904,59.334334   L 41.133241,60.601022   L 44.733233,60.601022   L 44.733233,65.534438   L 46.266563,65.534438   L 46.266563,60.601022   L 49.799888,60.601022   L 49.799888,65.534438   L 51.333218,65.534438   L 51.333218,60.601022   L 54.866544,60.601022   L 54.866544,65.534438   L 56.26654,65.534438   L 56.26654,60.601022   L 59.799866,60.601022   L 59.799866,65.534438   L 61.266529,65.534438   L 61.266529,60.601022   L 64.866521,60.601022   L 64.866521,65.534438   L 65.866519,65.534438   L 65.866519,60.601022   L 69.466511,60.601022   L 69.466511,65.534438   L 70.933174,65.534438   L 70.933174,60.601022   L 74.533166,60.601022   L 74.533166,65.534438   L 76.066496,65.534438   L 76.066496,60.601022   L 79.599821,60.601022   L 79.599821,65.534438   L 80.999818,65.534438   L 80.999818,60.601022   L 84.59981,60.601022   L 84.59981,65.534438   L 85.999807,65.534438   L 85.999807,60.601022   L 89.533133,60.601022   L 89.533133,65.534438   L 90.866463,65.534438   L 90.866463,60.601022   L 94.466455,60.601022   L 94.466455,65.534438   L 95.999785,65.534438   L 95.999785,60.601022   L 99.599777,60.601022   L 99.599777,65.534438   L 101.06644,65.534438   L 101.06644,60.601022   L 104.66643,60.601022   L 104.66643,65.534438   L 105.99976,65.534438   L 105.99976,60.601022   L 109.59975,60.601022   L 109.59975,65.534438   L 111.06642,65.534438   L 111.06642,60.601022   L 114.59974,60.601022   L 114.59974,65.534438   L 115.66641,65.534438   L 115.66641,60.601022   L 119.2664,60.601022   L 119.2664,65.534438   L 120.73306,65.534438   L 120.73306,60.601022   L 124.26639,60.601022   L 124.26639,65.534438   L 125.79972,65.534438   L 125.79972,60.601022   L 129.39971,60.601022   L 129.39971,65.534438   L 130.79971,65.534438   L 130.79971,60.601022   L 134.33303,60.601022   L 134.33303,65.534438   L 135.73303,65.534438   L 135.73303,60.601022   L 139.33302,60.601022   L 139.33302,65.534438   L 41.133241,65.534438   L 41.133241,60.601022   L 42.799904,59.334334   L 42.799904,39.667335   L 41.399907,38.533983  z "
     clip-path="url(#clipWmfPath1)"
     style="fill:#ffffff;fill-rule:nonzero;fill-opacity:1;stroke:none;" />
  <path
     id="path48"
     d="  M 41.399907,38.533983   L 41.399907,33.600567   L 44.999899,33.600567   L 44.999899,38.533983   L 46.533229,38.533983   L 46.533229,33.600567   L 50.133221,33.600567   L 50.133221,38.533983   L 51.599884,38.533983   L 51.599884,33.600567   L 55.199876,33.600567   L 55.199876,38.533983   L 56.533207,38.533983   L 56.533207,33.600567   L 60.133198,33.600567   L 60.133198,38.533983   L 61.599862,38.533983   L 61.599862,33.600567   L 65.133187,33.600567   L 65.133187,38.533983   L 66.199852,38.533983   L 66.199852,33.600567   L 69.799843,33.600567   L 69.799843,38.533983   L 71.266507,38.533983   L 71.266507,33.600567   L 74.799832,33.600567   L 74.799832,38.533983   L 76.333162,38.533983   L 76.333162,33.600567   L 79.933154,33.600567   L 79.933154,38.533983   L 81.333151,38.533983   L 81.333151,33.600567   L 84.866476,33.600567   L 84.866476,38.533983   L 86.266473,38.533983   L 86.266473,33.600567   L 89.866465,33.600567   L 89.866465,38.533983   L 91.199795,38.533983   L 91.199795,33.600567   L 94.799787,33.600567   L 94.799787,38.533983   L 96.333117,38.533983   L 96.333117,33.600567   L 99.866443,33.600567   L 99.866443,38.533983   L 101.39977,38.533983   L 101.39977,33.600567   L 101.39977,38.533983   L 101.39977,33.600567   L 104.9331,33.600567   L 104.9331,38.533983   L 106.33309,38.533983   L 106.33309,33.600567   L 109.86642,33.600567   L 109.86642,38.533983   L 111.33308,38.533983   L 111.33308,33.600567   L 114.93308,33.600567   L 114.93308,38.533983   L 115.93307,38.533983   L 115.93307,33.600567   L 119.53307,33.600567   L 119.53307,38.533983   L 120.99973,38.533983   L 120.99973,33.600567   L 124.59972,33.600567   L 124.59972,38.533983   L 126.13305,38.533983   L 126.13305,33.600567   L 129.66638,33.600567   L 129.66638,38.533983   L 131.06637,38.533983   L 131.06637,33.600567   L 134.66636,33.600567   L 134.66636,38.533983   L 136.06636,38.533983   L 136.06636,33.600567   L 139.59969,33.600567   L 139.59969,38.533983   L 41.399907,38.533983   L 42.799904,39.667335   L 42.799904,59.334334   L 41.133241,60.601022   L 44.733233,60.601022   L 44.733233,65.534438   L 46.266563,65.534438   L 46.266563,60.601022   L 49.799888,60.601022   L 49.799888,65.534438   L 51.333218,65.534438   L 51.333218,60.601022   L 54.866544,60.601022   L 54.866544,65.534438   L 56.26654,65.534438   L 56.26654,60.601022   L 59.799866,60.601022   L 59.799866,65.534438   L 61.266529,65.534438   L 61.266529,60.601022   L 64.866521,60.601022   L 64.866521,65.534438   L 65.866519,65.534438   L 65.866519,60.601022   L 69.466511,60.601022   L 69.466511,65.534438   L 70.933174,65.534438   L 70.933174,60.601022   L 74.533166,60.601022   L 74.533166,65.534438   L 76.066496,65.534438   L 76.066496,60.601022   L 79.599821,60.601022   L 79.599821,65.534438   L 80.999818,65.534438   L 80.999818,60.601022   L 84.59981,60.601022   L 84.59981,65.534438   L 85.999807,65.534438   L 85.999807,60.601022   L 89.533133,60.601022   L 89.533133,65.534438   L 90.866463,65.534438   L 90.866463,60.601022   L 94.466455,60.601022   L 94.466455,65.534438   L 95.999785,65.534438   L 95.999785,60.601022   L 99.599777,60.601022   L 99.599777,65.534438   L 101.06644,65.534438   L 101.06644,60.601022   L 104.66643,60.601022   L 104.66643,65.534438   L 105.99976,65.534438   L 105.99976,60.601022   L 109.59975,60.601022   L 109.59975,65.534438   L 111.06642,65.534438   L 111.06642,60.601022   L 114.59974,60.601022   L 114.59974,65.534438   L 115.66641,65.534438   L 115.66641,60.601022   L 119.2664,60.601022   L 119.2664,65.534438   L 120.73306,65.534438   L 120.73306,60.601022   L 124.26639,60.601022   L 124.26639,65.534438   L 125.79972,65.534438   L 125.79972,60.601022   L 129.39971,60.601022   L 129.39971,65.534438   L 130.79971,65.534438   L 130.79971,60.601022   L 134.33303,60.601022   L 134.33303,65.534438   L 135.73303,65.534438   L 135.73303,60.601022   L 139.33302,60.601022   L 139.33302,65.534438   L 41.133241,65.534438   L 41.133241,60.601022   L 42.799904,59.334334   L 42.799904,39.667335   L 41.399907,38.533983  z "
     clip-path="url(#clipWmfPath1)"
     style="fill:none;stroke:#000000;stroke-width:0.066666514px;stroke-linecap:round;stroke-linejoin:round;stroke-miterlimit:4;stroke-dasharray:none;stroke-opacity:1;" />
  <path
     id="path50"
     d="  M 99.666443,42.800722   L 100.66644,42.934057   L 101.46644,43.400732   L 102.06644,44.06741   L 102.26644,44.800755   L 102.26644,54.267582   L 102.06644,55.000927   L 101.46644,55.600937   L 100.66644,55.934276   L 99.666443,56.067612   L 80.39982,56.067612   L 79.399822,55.934276   L 78.599824,55.53427   L 77.999825,54.867592   L 77.799826,54.134246   L 77.799826,44.734088   L 77.999825,44.000742   L 78.599824,43.400732   L 79.399822,42.934057   L 80.39982,42.800722   L 99.666443,42.800722  z "
     clip-path="url(#clipWmfPath1)"
     style="fill:#ffffff;fill-rule:nonzero;fill-opacity:1;stroke:none;" />
  <path
     id="path52"
     d="  M 80.39982,42.267379   L 80.39982,43.334064   L 99.599777,43.334064   L 100.46644,43.400732   L 101.13311,43.800739   L 101.59977,44.334081   L 101.73311,44.867423   L 101.73311,54.200914   L 101.59977,54.734256   L 101.19977,55.200931   L 100.53311,55.467602   L 99.599777,55.53427   L 80.466486,55.53427   L 79.533155,55.467602   L 78.933156,55.134263   L 78.466491,54.600921   L 78.333158,54.067578   L 78.333158,44.800755   L 78.466491,44.267413   L 78.933156,43.800739   L 79.599821,43.400732   L 80.466486,43.334064   L 99.599777,43.334064   L 100.59977,43.4674   L 100.73311,42.400715   L 99.73311,42.267379   L 80.333153,42.267379   L 79.199822,42.467383   L 78.266491,43.000725   L 77.533159,43.734071   L 77.266493,44.66742   L 77.266493,54.200914   L 77.533159,55.134263   L 78.266491,55.934276   L 79.266489,56.400951   L 80.333153,56.600954   L 99.73311,56.600954   L 100.79977,56.400951   L 101.73311,56.000944   L 102.5331,55.267599   L 102.79977,54.334249   L 102.79977,44.734088   L 102.5331,43.800739   L 101.79977,43.000725   L 100.86644,42.467383   L 99.73311,42.267379   L 80.39982,42.267379  z "
     clip-path="url(#clipWmfPath1)"
     style="fill:#000000;fill-rule:nonzero;fill-opacity:1;stroke:#000000;stroke-width:0.066666514px;stroke-linecap:round;stroke-linejoin:round;stroke-miterlimit:4;stroke-dasharray:none;stroke-opacity:1;" />
  <g
     id="g54"
     clip-path="url(#clipWmfPath1)" />
  <g
     id="g66"
     clip-path="url(#clipWmfPath1)">
    <text
       id="text64"
       y="0.000000"
       x="0.000000"
       transform="matrix(1.000000,-0.000000,0.000000,1.000000,80.066487,53.867575)"
       style="font-size:10.687500px;font-style:normal;font-variant:normal;font-weight:400;font-stretch:Condensed;line-height:125.000000%;letter-spacing:0px;word-spacing:0px;fill:#000000;fill-opacity:1;stroke:none;font-family:Helvetica-Narrow;text-align:start;text-anchor:start;"
       xml:space="preserve"><tspan
         id="tspan62"
         y="0.000000"
         x="0.000000"><tspan
           id="tspan56"
           style="fill:#000000;font-size:10.687500px;font-style:normal;font-variant:normal;font-weight:400;font-stretch:Condensed;font-family:Helvetica-Narrow;"
           dy="0.000000"
           dx="0.000000">N</tspan><tspan
           id="tspan58"
           style="fill:#000000;font-size:10.687500px;font-style:normal;font-variant:normal;font-weight:400;font-stretch:Condensed;font-family:Helvetica-Narrow;"
           dy="0.000000"
           dx="-0.183059">P</tspan><tspan
           id="tspan60"
           style="fill:#000000;font-size:10.687500px;font-style:normal;font-variant:normal;font-weight:400;font-stretch:Condensed;font-family:Helvetica-Narrow;"
           dy="0.000000"
           dx="0.030769">U</tspan></tspan></text>
  </g>
  <path
     id="path68"
     d="  M 111.86642,179.26969   L 63.999856,179.26969   L 63.999856,131.73555   L 111.86642,131.73555   L 111.86642,179.26969  z "
     clip-path="url(#clipWmfPath1)"
     style="fill:#000000;fill-rule:nonzero;fill-opacity:1;stroke:none;" />
  <path
     id="path70"
     d="  M 111.86642,179.26969   L 63.999856,179.26969   L 63.999856,131.73555   L 111.86642,131.73555   L 111.86642,179.26969  z "
     clip-path="url(#clipWmfPath1)"
     style="fill:none;stroke:#000000;stroke-width:0.066666514px;stroke-linecap:round;stroke-linejoin:round;stroke-miterlimit:4;stroke-dasharray:none;stroke-opacity:1;" />
  <path
     id="path72"
     d="  M 105.06643,174.00293   L 106.1331,174.00293   L 106.1331,172.80291   L 109.93309,172.80291   L 109.93309,172.0029   L 106.1331,171.93623   L 106.1331,171.06955   L 109.93309,171.06955   L 109.93309,170.26954   L 106.1331,170.26954   L 106.1331,169.26952   L 109.93309,169.26952   L 109.93309,168.40284   L 106.1331,168.40284   L 106.1331,167.53616   L 109.93309,167.53616   L 109.93309,166.66948   L 106.1331,166.66948   L 106.1331,165.8028   L 109.93309,165.8028   L 109.93309,165.00278   L 106.1331,165.00278   L 106.1331,164.00277   L 109.93309,164.00277   L 109.93309,163.06942   L 106.1331,163.06942   L 106.1331,162.13607   L 109.93309,162.13607   L 109.93309,161.26939   L 106.1331,161.26939   L 106.1331,160.46937   L 109.93309,160.46937   L 109.93309,159.53602   L 106.1331,159.53602   L 106.1331,158.73601   L 109.99975,158.73601   L 109.93309,157.86933   L 106.1331,157.86933   L 106.1331,156.86931   L 109.93309,156.86931   L 109.93309,156.00263   L 106.1331,156.00263   L 106.1331,155.00261   L 109.93309,155.00261   L 109.93309,154.06926   L 106.1331,154.06926   L 106.1331,153.26925   L 109.93309,153.26925   L 109.93309,152.46924   L 106.1331,152.46924   L 106.1331,151.40255   L 109.93309,151.40255   L 109.93309,150.53587   L 106.1331,150.53587   L 106.1331,149.66919   L 109.93309,149.66919   L 109.93309,148.80251   L 106.1331,148.80251   L 106.1331,147.93583   L 109.93309,147.93583   L 109.93309,147.00248   L 106.1331,147.00248   L 106.1331,146.06913   L 109.73309,146.06913   L 109.93309,145.13578   L 106.1331,145.13578   L 106.1331,144.2691   L 109.93309,144.2691   L 109.93309,143.40242   L 106.1331,143.40242   L 106.1331,142.53574   L 109.79975,142.53574   L 109.93309,141.66906   L 106.1331,141.66906   L 106.1331,140.73571   L 109.93309,140.73571   L 109.93309,139.86902   L 106.1331,139.86902   L 106.1331,139.00234   L 109.93309,139.00234   L 109.93309,138.13566   L 106.1331,138.13566   L 106.1331,137.06898   L 105.3331,137.06898   L 105.3331,133.26891   L 104.46643,133.26891   L 104.59977,137.06898   L 103.66643,137.06898   L 103.66643,133.26891   L 102.7331,133.26891   L 102.7331,137.06898   L 101.79977,137.06898   L 101.79977,133.26891   L 100.93311,133.26891   L 100.93311,137.06898   L 100.06644,137.06898   L 100.06644,133.26891   L 99.199778,133.26891   L 99.199778,137.06898   L 98.333113,137.06898   L 98.333113,133.26891   L 97.466448,133.26891   L 97.466448,137.06898   L 96.46645,137.06898   L 96.399784,133.26891   L 95.599786,133.26891   L 95.599786,137.06898   L 94.666454,137.06898   L 94.666454,133.26891   L 93.79979,133.26891   L 93.79979,137.06898   L 92.933125,137.06898   L 92.933125,133.26891   L 92.06646,133.26891   L 92.06646,137.06898   L 91.066462,137.06898   L 91.066462,133.26891   L 90.199798,133.26891   L 90.199798,137.06898   L 89.3998,137.06898   L 89.3998,133.26891   L 88.533135,133.26891   L 88.533135,137.06898   L 87.466471,137.06898   L 87.466471,133.26891   L 86.666472,133.26891   L 86.666472,137.06898   L 85.599808,137.06898   L 85.599808,133.26891   L 84.79981,133.26891   L 84.79981,137.06898   L 83.933145,137.06898   L 83.933145,133.26891   L 83.06648,133.06891   L 83.06648,137.06898   L 82.199816,137.06898   L 82.199816,133.26891   L 81.333151,133.26891   L 81.333151,137.06898   L 80.333153,137.06898   L 80.333153,133.26891   L 79.533155,133.26891   L 79.533155,137.06898   L 78.399824,137.06898   L 78.533157,133.26891   L 77.666492,133.26891   L 77.666492,137.06898   L 76.799828,137.06898   L 76.799828,133.26891   L 75.933163,133.26891   L 75.933163,137.06898   L 75.066498,137.06898   L 75.066498,133.26891   L 74.2665,133.26891   L 74.2665,137.06898   L 73.266502,137.06898   L 73.266502,133.26891   L 72.399838,133.26891   L 72.399838,137.06898   L 71.599839,137.06898   L 71.599839,133.26891   L 70.733175,133.26891   L 70.733175,137.06898   L 69.399844,137.06898   L 69.399844,138.20233   L 65.599853,138.20233   L 65.599853,139.00234   L 69.399844,139.00234   L 69.399844,139.86902   L 65.599853,139.86902   L 65.599853,140.73571   L 69.399844,140.73571   L 69.399844,141.66906   L 65.599853,141.66906   L 65.599853,142.53574   L 69.399844,142.53574   L 69.399844,143.40242   L 65.599853,143.40242   L 65.599853,144.2691   L 69.399844,144.2691   L 69.399844,145.13578   L 65.599853,145.13578   L 65.599853,146.06913   L 69.399844,146.06913   L 69.399844,147.00248   L 65.599853,147.00248   L 65.599853,147.86916   L 69.399844,147.86916   L 69.399844,148.80251   L 65.599853,148.80251   L 65.599853,149.66919   L 69.399844,149.66919   L 69.399844,150.53587   L 65.599853,150.53587   L 65.599853,151.40255   L 69.399844,151.40255   L 69.399844,152.20257   L 65.599853,152.06923   L 65.599853,153.06925   L 69.399844,153.06925   L 69.399844,154.06926   L 65.599853,154.06926   L 65.599853,155.00261   L 69.399844,155.00261   L 69.399844,156.00263   L 65.599853,156.00263   L 65.599853,156.86931   L 69.399844,156.93598   L 69.399844,157.66933   L 65.599853,157.66933   L 65.599853,158.53601   L 69.399844,158.53601   L 69.399844,159.53602   L 65.599853,159.53602   L 65.599853,160.46937   L 69.399844,160.46937   L 69.333178,161.26939   L 65.599853,161.26939   L 65.599853,162.13607   L 69.399844,162.13607   L 69.399844,163.06942   L 65.599853,163.06942   L 65.599853,163.9361   L 69.399844,163.9361   L 69.399844,165.00278   L 65.599853,165.00278   L 65.599853,165.8028   L 69.399844,165.8028   L 69.399844,166.66948   L 65.599853,166.66948   L 65.599853,167.53616   L 69.399844,167.53616   L 69.399844,168.40284   L 65.599853,168.40284   L 65.599853,169.26952   L 69.399844,169.26952   L 69.333178,170.26954   L 65.599853,170.26954   L 65.599853,171.06955   L 69.399844,171.06955   L 69.399844,172.0029   L 65.599853,172.0029   L 65.599853,172.86958   L 69.399844,172.86958   L 69.399844,174.00293   L 70.466509,174.00293   L 70.466509,177.803   L 71.333173,177.803   L 71.333173,174.00293   L 72.133172,174.00293   L 72.133172,177.803   L 72.999836,177.803   L 72.999836,174.00293   L 73.933168,174.00293   L 73.933168,177.803   L 74.799832,177.803   L 74.799832,174.00293   L 75.733163,174.00293   L 75.733163,177.803   L 76.533162,177.803   L 76.533162,174.00293   L 77.399826,174.00293   L 77.399826,177.803   L 78.333158,177.803   L 78.333158,174.00293   L 79.266489,174.00293   L 79.266489,177.803   L 80.133154,177.803   L 80.133154,174.00293   L 81.066485,174.00293   L 81.066485,177.803   L 81.93315,177.803   L 81.93315,174.00293   L 82.799814,174.00293   L 82.933147,177.803   L 83.666479,177.803   L 83.666479,174.00293   L 84.466477,174.00293   L 84.466477,177.803   L 85.333142,177.803   L 85.333142,174.00293   L 86.33314,174.00293   L 86.33314,177.803   L 87.266471,177.803   L 87.266471,174.00293   L 88.266469,174.00293   L 88.266469,177.803   L 89.133133,177.803   L 89.133133,174.00293   L 89.933132,174.00293   L 89.933132,177.803   L 90.73313,177.803   L 90.73313,174.00293   L 91.799794,174.00293   L 91.799794,177.803   L 92.666459,177.803   L 92.666459,174.00293   L 93.533124,174.00293   L 93.533124,177.803   L 94.399788,177.803   L 94.399788,174.00293   L 95.266453,174.00293   L 95.266453,177.803   L 96.066451,177.803   L 96.199784,174.00293   L 97.199782,174.00293   L 97.199782,177.803   L 98.066447,177.803   L 98.066447,174.00293   L 98.933111,174.00293   L 98.933111,177.803   L 99.799776,177.803   L 99.799776,174.00293   L 100.66644,174.00293   L 100.66644,177.803   L 101.53311,177.803   L 101.53311,174.00293   L 102.46644,174.00293   L 102.46644,177.803   L 103.3331,177.803   L 103.3331,174.00293   L 104.19977,174.00293   L 104.19977,177.803   L 105.06643,177.803   L 105.06643,174.00293  z "
     clip-path="url(#clipWmfPath1)"
     style="fill:#ffffff;fill-rule:nonzero;fill-opacity:1;stroke:none;" />
  <path
     id="path74"
     d="  M 105.06643,174.00293   L 106.1331,174.00293   L 106.1331,172.80291   L 109.93309,172.80291   L 109.93309,172.0029   L 106.1331,171.93623   L 106.1331,171.06955   L 109.93309,171.06955   L 109.93309,170.26954   L 106.1331,170.26954   L 106.1331,169.26952   L 109.93309,169.26952   L 109.93309,168.40284   L 106.1331,168.40284   L 106.1331,167.53616   L 109.93309,167.53616   L 109.93309,166.66948   L 106.1331,166.66948   L 106.1331,165.8028   L 109.93309,165.8028   L 109.93309,165.00278   L 106.1331,165.00278   L 106.1331,164.00277   L 109.93309,164.00277   L 109.93309,163.06942   L 106.1331,163.06942   L 106.1331,162.13607   L 109.93309,162.13607   L 109.93309,161.26939   L 106.1331,161.26939   L 106.1331,160.46937   L 109.93309,160.46937   L 109.93309,159.53602   L 106.1331,159.53602   L 106.1331,158.73601   L 109.99975,158.73601   L 109.93309,157.86933   L 106.1331,157.86933   L 106.1331,156.86931   L 109.93309,156.86931   L 109.93309,156.00263   L 106.1331,156.00263   L 106.1331,155.00261   L 109.93309,155.00261   L 109.93309,154.06926   L 106.1331,154.06926   L 106.1331,153.26925   L 109.93309,153.26925   L 109.93309,152.46924   L 106.1331,152.46924   L 106.1331,151.40255   L 109.93309,151.40255   L 109.93309,150.53587   L 106.1331,150.53587   L 106.1331,149.66919   L 109.93309,149.66919   L 109.93309,148.80251   L 106.1331,148.80251   L 106.1331,147.93583   L 109.93309,147.93583   L 109.93309,147.00248   L 106.1331,147.00248   L 106.1331,146.06913   L 109.73309,146.06913   L 109.93309,145.13578   L 106.1331,145.13578   L 106.1331,144.2691   L 109.93309,144.2691   L 109.93309,143.40242   L 106.1331,143.40242   L 106.1331,142.53574   L 109.79975,142.53574   L 109.93309,141.66906   L 106.1331,141.66906   L 106.1331,140.73571   L 109.93309,140.73571   L 109.93309,139.86902   L 106.1331,139.86902   L 106.1331,139.00234   L 109.93309,139.00234   L 109.93309,138.13566   L 106.1331,138.13566   L 106.1331,137.06898   L 105.3331,137.06898   L 105.3331,133.26891   L 104.46643,133.26891   L 104.59977,137.06898   L 103.66643,137.06898   L 103.66643,133.26891   L 102.7331,133.26891   L 102.7331,137.06898   L 101.79977,137.06898   L 101.79977,133.26891   L 100.93311,133.26891   L 100.93311,137.06898   L 100.06644,137.06898   L 100.06644,133.26891   L 99.199778,133.26891   L 99.199778,137.06898   L 98.333113,137.06898   L 98.333113,133.26891   L 97.466448,133.26891   L 97.466448,137.06898   L 96.46645,137.06898   L 96.399784,133.26891   L 95.599786,133.26891   L 95.599786,137.06898   L 94.666454,137.06898   L 94.666454,133.26891   L 93.79979,133.26891   L 93.79979,137.06898   L 92.933125,137.06898   L 92.933125,133.26891   L 92.06646,133.26891   L 92.06646,137.06898   L 91.066462,137.06898   L 91.066462,133.26891   L 90.199798,133.26891   L 90.199798,137.06898   L 89.3998,137.06898   L 89.3998,133.26891   L 88.533135,133.26891   L 88.533135,137.06898   L 87.466471,137.06898   L 87.466471,133.26891   L 86.666472,133.26891   L 86.666472,137.06898   L 85.599808,137.06898   L 85.599808,133.26891   L 84.79981,133.26891   L 84.79981,137.06898   L 83.933145,137.06898   L 83.933145,133.26891   L 83.06648,133.06891   L 83.06648,137.06898   L 82.199816,137.06898   L 82.199816,133.26891   L 81.333151,133.26891   L 81.333151,137.06898   L 80.333153,137.06898   L 80.333153,133.26891   L 79.533155,133.26891   L 79.533155,137.06898   L 78.399824,137.06898   L 78.533157,133.26891   L 77.666492,133.26891   L 77.666492,137.06898   L 76.799828,137.06898   L 76.799828,133.26891   L 75.933163,133.26891   L 75.933163,137.06898   L 75.066498,137.06898   L 75.066498,133.26891   L 74.2665,133.26891   L 74.2665,137.06898   L 73.266502,137.06898   L 73.266502,133.26891   L 72.399838,133.26891   L 72.399838,137.06898   L 71.599839,137.06898   L 71.599839,133.26891   L 70.733175,133.26891   L 70.733175,137.06898   L 69.399844,137.06898   L 69.399844,138.20233   L 65.599853,138.20233   L 65.599853,139.00234   L 69.399844,139.00234   L 69.399844,139.86902   L 65.599853,139.86902   L 65.599853,140.73571   L 69.399844,140.73571   L 69.399844,141.66906   L 65.599853,141.66906   L 65.599853,142.53574   L 69.399844,142.53574   L 69.399844,143.40242   L 65.599853,143.40242   L 65.599853,144.2691   L 69.399844,144.2691   L 69.399844,145.13578   L 65.599853,145.13578   L 65.599853,146.06913   L 69.399844,146.06913   L 69.399844,147.00248   L 65.599853,147.00248   L 65.599853,147.86916   L 69.399844,147.86916   L 69.399844,148.80251   L 65.599853,148.80251   L 65.599853,149.66919   L 69.399844,149.66919   L 69.399844,150.53587   L 65.599853,150.53587   L 65.599853,151.40255   L 69.399844,151.40255   L 69.399844,152.20257   L 65.599853,152.06923   L 65.599853,153.06925   L 69.399844,153.06925   L 69.399844,154.06926   L 65.599853,154.06926   L 65.599853,155.00261   L 69.399844,155.00261   L 69.399844,156.00263   L 65.599853,156.00263   L 65.599853,156.86931   L 69.399844,156.93598   L 69.399844,157.66933   L 65.599853,157.66933   L 65.599853,158.53601   L 69.399844,158.53601   L 69.399844,159.53602   L 65.599853,159.53602   L 65.599853,160.46937   L 69.399844,160.46937   L 69.333178,161.26939   L 65.599853,161.26939   L 65.599853,162.13607   L 69.399844,162.13607   L 69.399844,163.06942   L 65.599853,163.06942   L 65.599853,163.9361   L 69.399844,163.9361   L 69.399844,165.00278   L 65.599853,165.00278   L 65.599853,165.8028   L 69.399844,165.8028   L 69.399844,166.66948   L 65.599853,166.66948   L 65.599853,167.53616   L 69.399844,167.53616   L 69.399844,168.40284   L 65.599853,168.40284   L 65.599853,169.26952   L 69.399844,169.26952   L 69.333178,170.26954   L 65.599853,170.26954   L 65.599853,171.06955   L 69.399844,171.06955   L 69.399844,172.0029   L 65.599853,172.0029   L 65.599853,172.86958   L 69.399844,172.86958   L 69.399844,174.00293   L 70.466509,174.00293   L 70.466509,177.803   L 71.333173,177.803   L 71.333173,174.00293   L 72.133172,174.00293   L 72.133172,177.803   L 72.999836,177.803   L 72.999836,174.00293   L 73.933168,174.00293   L 73.933168,177.803   L 74.799832,177.803   L 74.799832,174.00293   L 75.733163,174.00293   L 75.733163,177.803   L 76.533162,177.803   L 76.533162,174.00293   L 77.399826,174.00293   L 77.399826,177.803   L 78.333158,177.803   L 78.333158,174.00293   L 79.266489,174.00293   L 79.266489,177.803   L 80.133154,177.803   L 80.133154,174.00293   L 81.066485,174.00293   L 81.066485,177.803   L 81.93315,177.803   L 81.93315,174.00293   L 82.799814,174.00293   L 82.933147,177.803   L 83.666479,177.803   L 83.666479,174.00293   L 84.466477,174.00293   L 84.466477,177.803   L 85.333142,177.803   L 85.333142,174.00293   L 86.33314,174.00293   L 86.33314,177.803   L 87.266471,177.803   L 87.266471,174.00293   L 88.266469,174.00293   L 88.266469,177.803   L 89.133133,177.803   L 89.133133,174.00293   L 89.933132,174.00293   L 89.933132,177.803   L 90.73313,177.803   L 90.73313,174.00293   L 91.799794,174.00293   L 91.799794,177.803   L 92.666459,177.803   L 92.666459,174.00293   L 93.533124,174.00293   L 93.533124,177.803   L 94.399788,177.803   L 94.399788,174.00293   L 95.266453,174.00293   L 95.266453,177.803   L 96.066451,177.803   L 96.199784,174.00293   L 97.199782,174.00293   L 97.199782,177.803   L 98.066447,177.803   L 98.066447,174.00293   L 98.933111,174.00293   L 98.933111,177.803   L 99.799776,177.803   L 99.799776,174.00293   L 100.66644,174.00293   L 100.66644,177.803   L 101.53311,177.803   L 101.53311,174.00293   L 102.46644,174.00293   L 102.46644,177.803   L 103.3331,177.803   L 103.3331,174.00293   L 104.19977,174.00293   L 104.19977,177.803   L 105.06643,177.803   L 105.06643,174.00293  z "
     clip-path="url(#clipWmfPath1)"
     style="fill:none;stroke:#ffffff;stroke-width:0.066666514px;stroke-linecap:round;stroke-linejoin:round;stroke-miterlimit:4;stroke-dasharray:none;stroke-opacity:1;" />
  <path
     id="path76"
     d="  M 105.66643,173.46959   L 69.733177,173.46959   L 69.733177,137.53565   L 105.66643,137.53565   L 105.66643,173.46959  z "
     clip-path="url(#clipWmfPath1)"
     style="fill:#000000;fill-rule:nonzero;fill-opacity:1;stroke:none;" />
  <path
     id="path78"
     d="  M 105.66643,173.46959   L 69.733177,173.46959   L 69.733177,137.53565   L 105.66643,137.53565   L 105.66643,173.46959  z "
     clip-path="url(#clipWmfPath1)"
     style="fill:none;stroke:#000000;stroke-width:0.066666514px;stroke-linecap:round;stroke-linejoin:round;stroke-miterlimit:4;stroke-dasharray:none;stroke-opacity:1;" />
  <path
     id="path80"
     d="  M 97.533115,148.86918   L 98.533112,149.00251   L 99.333111,149.46919   L 99.933109,150.13586   L 100.13311,150.86921   L 100.13311,160.33604   L 99.933109,161.06938   L 99.333111,161.66939   L 98.533112,162.00273   L 97.533115,162.13607   L 78.266491,162.13607   L 77.266493,162.00273   L 76.466495,161.60272   L 75.866497,160.93605   L 75.666497,160.2027   L 75.666497,150.80254   L 75.866497,150.0692   L 76.466495,149.46919   L 77.266493,149.00251   L 78.266491,148.86918   L 97.533115,148.86918  z "
     clip-path="url(#clipWmfPath1)"
     style="fill:#ffffff;fill-rule:nonzero;fill-opacity:1;stroke:none;" />
  <path
     id="path82"
     d="  M 78.266491,148.33583   L 78.266491,149.40252   L 97.466448,149.40252   L 98.333113,149.46919   L 98.999778,149.86919   L 99.466444,150.40254   L 99.599777,150.93588   L 99.599777,160.26937   L 99.466444,160.80271   L 99.066444,161.26939   L 98.399779,161.53606   L 97.466448,161.60272   L 78.333158,161.60272   L 77.399826,161.53606   L 76.799828,161.20272   L 76.333162,160.66938   L 76.199829,160.13603   L 76.199829,150.86921   L 76.333162,150.33587   L 76.799828,149.86919   L 77.466493,149.46919   L 78.333158,149.40252   L 97.466448,149.40252   L 98.466446,149.53585   L 98.599779,148.46917   L 97.599781,148.33583   L 78.199825,148.33583   L 77.066494,148.53584   L 76.133163,149.06918   L 75.399831,149.80253   L 75.133165,150.73587   L 75.133165,160.26937   L 75.399831,161.20272   L 76.133163,162.00273   L 77.13316,162.46941   L 78.199825,162.66941   L 97.599781,162.66941   L 98.666445,162.46941   L 99.599777,162.0694   L 100.39977,161.33605   L 100.66644,160.4027   L 100.66644,150.80254   L 100.39977,149.86919   L 99.666443,149.06918   L 98.733112,148.53584   L 97.599781,148.33583   L 78.266491,148.33583  z "
     clip-path="url(#clipWmfPath1)"
     style="fill:#000000;fill-rule:nonzero;fill-opacity:1;stroke:#000000;stroke-width:0.066666514px;stroke-linecap:round;stroke-linejoin:round;stroke-miterlimit:4;stroke-dasharray:none;stroke-opacity:1;" />
  <g
     id="g84"
     clip-path="url(#clipWmfPath1)" />
  <g
     id="g96"
     clip-path="url(#clipWmfPath1)">
    <text
       id="text94"
       y="0.000000"
       x="0.000000"
       transform="matrix(1.000000,-0.000000,0.000000,1.000000,77.466493,159.936030)"
       style="font-size:10.687500px;font-style:normal;font-variant:normal;font-weight:400;font-stretch:Condensed;line-height:125.000000%;letter-spacing:0px;word-spacing:0px;fill:#000000;fill-opacity:1;stroke:none;font-family:Helvetica-Narrow;text-align:start;text-anchor:start;"
       xml:space="preserve"><tspan
         id="tspan92"
         y="0.000000"
         x="0.000000"><tspan
           id="tspan86"
           style="fill:#000000;font-size:10.687500px;font-style:normal;font-variant:normal;font-weight:400;font-stretch:Condensed;font-family:Helvetica-Narrow;"
           dy="0.000000"
           dx="0.000000">C</tspan><tspan
           id="tspan88"
           style="fill:#000000;font-size:10.687500px;font-style:normal;font-variant:normal;font-weight:400;font-stretch:Condensed;font-family:Helvetica-Narrow;"
           dy="0.000000"
           dx="-0.050169">P</tspan><tspan
           id="tspan90"
           style="fill:#000000;font-size:10.687500px;font-style:normal;font-variant:normal;font-weight:400;font-stretch:Condensed;font-family:Helvetica-Narrow;"
           dy="0.000000"
           dx="-0.102564">U</tspan></tspan></text>
  </g>
  <path
     id="path98"
     d="  M 159.53298,168.33617   L 159.53298,49.267497   L 174.46628,49.267497   L 174.46628,168.33617   L 159.53298,168.33617  z "
     clip-path="url(#clipWmfPath1)"
     style="fill:#bfbfbf;fill-rule:evenodd;fill-opacity:1;stroke:none;" />
  <path
     id="path100"
     d="  M 159.53298,168.33617   L 159.53298,49.267497   L 174.46628,49.267497   L 174.46628,168.33617   L 159.53298,168.33617  z "
     clip-path="url(#clipWmfPath1)"
     style="fill:none;stroke:#000000;stroke-width:0.066666514px;stroke-linecap:round;stroke-linejoin:round;stroke-miterlimit:4;stroke-dasharray:none;stroke-opacity:1;" />
  <g
     id="g102"
     clip-path="url(#clipWmfPath1)" />
  <g
     id="g120"
     clip-path="url(#clipWmfPath1)">
    <text
       id="text118"
       y="0.000000"
       x="0.000000"
       transform="matrix(1.000000,-0.000000,0.000000,1.000000,112.933080,78.534657)"
       style="font-size:9.312500px;font-style:normal;font-variant:normal;font-weight:400;font-stretch:Condensed;line-height:125.000000%;letter-spacing:0px;word-spacing:0px;fill:#000000;fill-opacity:1;stroke:none;font-family:Helvetica-Narrow;text-align:start;text-anchor:start;"
       xml:space="preserve"><tspan
         id="tspan116"
         y="0.000000"
         x="0.000000"><tspan
           id="tspan104"
           style="fill:#000000;font-size:9.312500px;font-style:normal;font-variant:normal;font-weight:400;font-stretch:Condensed;font-family:Helvetica-Narrow;"
           dy="0.000000"
           dx="0.000000">3</tspan><tspan
           id="tspan106"
           style="fill:#000000;font-size:9.312500px;font-style:normal;font-variant:normal;font-weight:400;font-stretch:Condensed;font-family:Helvetica-Narrow;"
           dy="0.000000"
           dx="0.183411">4</tspan><tspan
           id="tspan108"
           style="fill:#000000;font-size:9.312500px;font-style:normal;font-variant:normal;font-weight:400;font-stretch:Condensed;font-family:Helvetica-Narrow;"
           dy="0.000000"
           dx="0.183411">0</tspan><tspan
           id="tspan110"
           style="fill:#000000;font-size:9.312500px;font-style:normal;font-variant:normal;font-weight:400;font-stretch:Condensed;font-family:Helvetica-Narrow;"
           dy="0.000000"
           dx="0.183411">5</tspan><tspan
           id="tspan112"
           style="fill:#000000;font-size:9.312500px;font-style:normal;font-variant:normal;font-weight:400;font-stretch:Condensed;font-family:Helvetica-Narrow;"
           dy="0.000000"
           dx="0.183411">8</tspan><tspan
           id="tspan114"
           style="fill:#000000;font-size:9.312500px;font-style:normal;font-variant:normal;font-weight:400;font-stretch:Condensed;font-family:Helvetica-Narrow;"
           dy="0.000000"
           dx="0.183411">B</tspan></tspan></text>
  </g>
  <path
     id="path122"
     d="  M 186.79958,104.33509   L 186.79958,101.53505   L 186.93291,100.8017   L 187.39958,100.33503   L 187.99958,100.00169   L 188.73291,99.868351   L 211.86619,99.868351   L 212.59952,100.00169   L 213.26619,100.46836   L 213.66619,101.06837   L 213.79952,101.80172   L 213.79952,111.26854   L 213.66619,112.00189   L 213.26619,112.6019   L 212.59952,112.93524   L 211.86619,113.06857   L 188.73291,113.06857   L 187.99958,112.86857   L 187.39958,112.4019   L 186.93291,111.73522   L 186.79958,110.9352   L 186.79958,108.40183   L 174.73294,106.40179   L 186.79958,104.33509  z "
     clip-path="url(#clipWmfPath1)"
     style="fill:#ffffff;fill-rule:nonzero;fill-opacity:1;stroke:none;" />
  <path
     id="path124"
     d="  M 174.66627,105.93512   L 174.19961,106.46846   L 174.79961,106.86847   L 187.33291,104.7351   L 187.33291,101.60171   L 187.39958,101.06837   L 187.73291,100.73503   L 188.19958,100.46836   L 188.79958,100.40169   L 211.79953,100.40169   L 212.39952,100.46836   L 212.86619,100.8017   L 213.19952,101.26837   L 213.26619,101.86838   L 213.26619,111.20187   L 213.19952,111.80189   L 212.93286,112.20189   L 212.46619,112.46856   L 211.79953,112.53523   L 188.79958,112.53523   L 188.19958,112.4019   L 187.79958,112.06856   L 187.39958,111.53521   L 187.33291,110.86854   L 187.33291,108.00182   L 177.7996,106.40179   L 187.33291,104.7351   L 187.33291,101.53505   L 186.79958,101.0017   L 186.26625,101.53505   L 186.26625,103.93509   L 174.66627,105.93512   L 174.66627,106.86847   L 186.26625,108.80183   L 186.26625,111.00187   L 186.46625,111.93522   L 186.99958,112.73523   L 187.79958,113.33524   L 188.66624,113.60192   L 211.93286,113.60192   L 212.73286,113.40191   L 213.59952,113.00191   L 214.13285,112.20189   L 214.33285,111.33521   L 214.33285,101.73505   L 214.13285,100.86837   L 213.66619,100.13502   L 212.79952,99.535012   L 211.93286,99.335008   L 188.66624,99.335008   L 187.79958,99.535012   L 187.06625,99.935018   L 186.46625,100.53503   L 186.26625,101.46838   L 186.26625,103.93509   L 174.66627,105.93512  z "
     clip-path="url(#clipWmfPath1)"
     style="fill:#000000;fill-rule:nonzero;fill-opacity:1;stroke:#000000;stroke-width:0.066666514px;stroke-linecap:round;stroke-linejoin:round;stroke-miterlimit:4;stroke-dasharray:none;stroke-opacity:1;" />
  <g
     id="g126"
     clip-path="url(#clipWmfPath1)" />
  <g
     id="g138"
     clip-path="url(#clipWmfPath1)">
    <text
       id="text136"
       y="0.000000"
       x="0.000000"
       transform="matrix(1.000000,-0.000000,0.000000,1.000000,190.932905,110.735200)"
       style="font-size:10.687500px;font-style:normal;font-variant:normal;font-weight:400;font-stretch:Condensed;line-height:125.000000%;letter-spacing:0px;word-spacing:0px;fill:#000000;fill-opacity:1;stroke:none;font-family:Helvetica-Narrow;text-align:start;text-anchor:start;"
       xml:space="preserve"><tspan
         id="tspan134"
         y="0.000000"
         x="0.000000"><tspan
           id="tspan128"
           style="fill:#000000;font-size:10.687500px;font-style:normal;font-variant:normal;font-weight:400;font-stretch:Condensed;font-family:Helvetica-Narrow;"
           dy="0.000000"
           dx="0.000000">S</tspan><tspan
           id="tspan130"
           style="fill:#000000;font-size:10.687500px;font-style:normal;font-variant:normal;font-weight:400;font-stretch:Condensed;font-family:Helvetica-Narrow;"
           dy="0.000000"
           dx="-0.102564">L</tspan><tspan
           id="tspan132"
           style="fill:#000000;font-size:10.687500px;font-style:normal;font-variant:normal;font-weight:400;font-stretch:Condensed;font-family:Helvetica-Narrow;"
           dy="0.000000"
           dx="0.003334">3</tspan></tspan></text>
  </g>
  <g
     id="g140"
     clip-path="url(#clipWmfPath1)" />
  <g
     id="g180"
     clip-path="url(#clipWmfPath1)">
    <text
       id="text154"
       y="0.000000"
       x="0.000000"
       transform="matrix(1.000000,-0.000000,0.000000,1.000000,48.999890,224.003777)"
       style="font-size:10.687500px;font-style:normal;font-variant:normal;font-weight:400;font-stretch:Condensed;line-height:125.000000%;letter-spacing:0px;word-spacing:0px;fill:#000000;fill-opacity:1;stroke:none;font-family:Helvetica-Narrow;text-align:start;text-anchor:start;"
       xml:space="preserve"><tspan
         id="tspan152"
         y="0.000000"
         x="0.000000"><tspan
           id="tspan142"
           style="fill:#000000;font-size:10.687500px;font-style:normal;font-variant:normal;font-weight:400;font-stretch:Condensed;font-family:Helvetica-Narrow;"
           dy="0.000000"
           dx="0.000000">8</tspan><tspan
           id="tspan144"
           style="fill:#000000;font-size:10.687500px;font-style:normal;font-variant:normal;font-weight:400;font-stretch:Condensed;font-family:Helvetica-Narrow;"
           dy="0.000000"
           dx="0.003334">0</tspan><tspan
           id="tspan146"
           style="fill:#000000;font-size:10.687500px;font-style:normal;font-variant:normal;font-weight:400;font-stretch:Condensed;font-family:Helvetica-Narrow;"
           dy="0.000000"
           dx="0.003334">2</tspan><tspan
           id="tspan148"
           style="fill:#000000;font-size:10.687500px;font-style:normal;font-variant:normal;font-weight:400;font-stretch:Condensed;font-family:Helvetica-Narrow;"
           dy="0.000000"
           dx="0.003334">8</tspan><tspan
           id="tspan150"
           style="fill:#000000;font-size:10.687500px;font-style:normal;font-variant:normal;font-weight:400;font-stretch:Condensed;font-family:Helvetica-Narrow;"
           dy="0.000000"
           dx="0.003334">6</tspan></tspan></text>
    <text
       id="text164"
       y="0.000000"
       x="35.066588"
       transform="matrix(1.000000,-0.000000,0.000000,1.000000,48.999890,224.003777)"
       style="font-size:10.687500px;font-style:normal;font-variant:normal;font-weight:400;font-stretch:Condensed;line-height:125.000000%;letter-spacing:0px;word-spacing:0px;fill:#000000;fill-opacity:1;stroke:none;font-family:Helvetica-Narrow;text-align:start;text-anchor:start;"
       xml:space="preserve"><tspan
         id="tspan162"
         y="0.000000"
         x="35.066588"><tspan
           id="tspan156"
           style="fill:#000000;font-size:10.687500px;font-style:normal;font-variant:normal;font-weight:400;font-stretch:Condensed;font-family:Helvetica-Narrow;"
           dy="0.000000"
           dx="0.000000">C</tspan><tspan
           id="tspan158"
           style="fill:#000000;font-size:10.687500px;font-style:normal;font-variant:normal;font-weight:400;font-stretch:Condensed;font-family:Helvetica-Narrow;"
           dy="0.000000"
           dx="-0.050169">P</tspan><tspan
           id="tspan160"
           style="fill:#000000;font-size:10.687500px;font-style:normal;font-variant:normal;font-weight:400;font-stretch:Condensed;font-family:Helvetica-Narrow;"
           dy="0.000000"
           dx="-0.102564">U</tspan></tspan></text>
    <text
       id="text178"
       y="0.000000"
       x="61.666528"
       transform="matrix(1.000000,-0.000000,0.000000,1.000000,48.999890,224.003777)"
       style="font-size:10.687500px;font-style:normal;font-variant:normal;font-weight:400;font-stretch:Condensed;line-height:125.000000%;letter-spacing:0px;word-spacing:0px;fill:#000000;fill-opacity:1;stroke:none;font-family:Helvetica-Narrow;text-align:start;text-anchor:start;"
       xml:space="preserve"><tspan
         id="tspan176"
         y="0.000000"
         x="61.666528"><tspan
           id="tspan166"
           style="fill:#000000;font-size:10.687500px;font-style:normal;font-variant:normal;font-weight:400;font-stretch:Condensed;font-family:Helvetica-Narrow;"
           dy="0.000000"
           dx="0.000000">B</tspan><tspan
           id="tspan168"
           style="fill:#000000;font-size:10.687500px;font-style:normal;font-variant:normal;font-weight:400;font-stretch:Condensed;font-family:Helvetica-Narrow;"
           dy="0.000000"
           dx="-0.102564">O</tspan><tspan
           id="tspan170"
           style="fill:#000000;font-size:10.687500px;font-style:normal;font-variant:normal;font-weight:400;font-stretch:Condensed;font-family:Helvetica-Narrow;"
           dy="0.000000"
           dx="-0.075129">A</tspan><tspan
           id="tspan172"
           style="fill:#000000;font-size:10.687500px;font-style:normal;font-variant:normal;font-weight:400;font-stretch:Condensed;font-family:Helvetica-Narrow;"
           dy="0.000000"
           dx="-0.102564">R</tspan><tspan
           id="tspan174"
           style="fill:#000000;font-size:10.687500px;font-style:normal;font-variant:normal;font-weight:400;font-stretch:Condensed;font-family:Helvetica-Narrow;"
           dy="0.000000"
           dx="-0.050169">D</tspan></tspan></text>
  </g>
</svg>
