<svg xmlns:dc="http://purl.org/dc/elements/1.1/" xmlns:cc="http://creativecommons.org/ns#" xmlns:rdf="http://www.w3.org/1999/02/22-rdf-syntax-ns#" xmlns:svg="http://www.w3.org/2000/svg" xmlns="http://www.w3.org/2000/svg" id="svg182" height="65.909999mm" width="61.940002mm" version="1.0">
  <metadata id="metadata186">
    <rdf:RDF>
      <cc:Work rdf:about="">
        <dc:format>image/svg+xml</dc:format>
        <dc:type rdf:resource="http://purl.org/dc/dcmitype/StillImage"/>
      </cc:Work>
    </rdf:RDF>
  </metadata>
  <defs id="defs6">
    <clipPath id="clipWmfPath1" clipPathUnits="userSpaceOnUse">
      <path id="path2" d="M 0,0 L 233.99948,0 L 233.99948,249.0042 L 0,249.0042 z"/>
    </clipPath>
    <pattern y="0" x="0" height="6" width="6" patternUnits="userSpaceOnUse" id="WMFhbasepattern"/>
  </defs>
  <path id="path8" d="  M 174.99961,206.00347   L 20.999953,205.67013   L 20.999953,20.000337   L 174.99961,20.000337   L 174.99961,206.00347  z " clip-path="url(#clipWmfPath1)" style="fill:#e5e5e5;fill-rule:nonzero;fill-opacity:1;stroke:none;"/>
  <path id="path10" d="  M 175.53294,20.000337   L 174.46628,20.000337   L 174.46628,205.47013   L 21.533285,205.13679   L 21.533285,20.53368   L 174.46628,20.53368   L 174.46628,205.47013   L 20.999953,205.13679   L 20.999953,206.20348   L 175.53294,206.53682   L 175.53294,19.466995   L 20.466621,19.466995   L 20.466621,206.20348   L 175.53294,206.53682   L 175.53294,20.000337  z " clip-path="url(#clipWmfPath1)" style="fill:#000000;fill-rule:nonzero;fill-opacity:1;stroke:#000000;stroke-width:0.066666514px;stroke-linecap:round;stroke-linejoin:round;stroke-miterlimit:4;stroke-dasharray:none;stroke-opacity:1;"/>
  <path id="path38" d="  M 167.39962,74.267919   L 168.46629,74.53459   L 169.13295,75.334604   L 169.39962,76.267953   L 169.13295,77.267969   L 168.46629,77.934647   L 167.39962,78.201319   L 166.39963,77.934647   L 165.73296,77.267969   L 165.53296,76.267953   L 165.79963,75.334604   L 166.39963,74.53459   L 167.39962,74.267919  z    M 167.39962,74.401254   L 166.59963,74.734593   L 165.86629,75.401271   L 165.6663,76.267953   L 165.86629,77.134634   L 166.13296,77.534641   L 166.59963,77.801312   L 167.39962,78.067983   L 168.26629,77.801312   L 168.99962,77.134634   L 169.26629,76.267953   L 168.99962,75.401271   L 168.66629,75.001265   L 168.26629,74.734593   L 167.39962,74.401254  z    M 166.33296,75.001265   L 167.39962,75.001265   L 168.06629,75.201268   L 168.26629,75.667942   L 168.06629,76.067949   L 167.59962,76.267953   L 168.19962,77.134634   L 168.46629,77.334637   L 168.59962,77.334637   L 168.59962,77.467973   L 168.06629,77.467973   L 167.19963,76.267953   L 167.13296,76.267953   L 167.13296,77.134634   L 167.19963,77.334637   L 167.46629,77.334637   L 167.46629,77.467973   L 166.33296,77.467973   L 166.33296,77.334637   L 166.53296,77.334637   L 166.59963,77.267969   L 166.66629,76.93463   L 166.66629,75.534607   L 166.59963,75.334604   L 166.59963,75.1346   L 166.33296,75.1346   L 166.33296,75.001265  z    M 167.13296,76.201285   L 167.46629,76.134617   L 167.73296,75.934614   L 167.79962,75.667942   L 167.59962,75.334604   L 167.33296,75.067932   L 167.13296,75.1346   L 167.13296,76.201285  z   " clip-path="url(#clipWmfPath1)" style="fill:#bfbfbf;fill-rule:evenodd;fill-opacity:1;stroke:none;"/>
  <path id="path40" d="  M 39.799911,32.733885   L 140.33302,32.733885   L 140.33302,66.134448   L 39.799911,66.134448   L 39.799911,32.733885  z    M 45.466565,39.467332   L 45.466565,59.13433   L 87.933136,59.13433   L 87.933136,39.467332   L 91.799794,39.467332   L 91.799794,59.13433   L 134.26637,59.13433   L 134.26637,39.467332   L 45.466565,39.467332  z   " clip-path="url(#clipWmfPath1)" style="fill:#000000;fill-rule:evenodd;fill-opacity:1;stroke:none;"/>
  <path id="path42" d="  M 39.799911,32.733885   L 140.33302,32.733885   L 140.33302,66.134448   L 39.799911,66.134448   L 39.799911,32.733885  z " clip-path="url(#clipWmfPath1)" style="fill:none;stroke:#000000;stroke-width:0.066666514px;stroke-linecap:round;stroke-linejoin:round;stroke-miterlimit:4;stroke-dasharray:none;stroke-opacity:1;"/>
  <path id="path44" d="  M 45.466565,39.467332   L 45.466565,59.13433   L 87.933136,59.13433   L 87.933136,39.467332   L 91.799794,39.467332   L 91.799794,59.13433   L 134.26637,59.13433   L 134.26637,39.467332   L 45.466565,39.467332  z " clip-path="url(#clipWmfPath1)" style="fill:none;stroke:#000000;stroke-width:0.066666514px;stroke-linecap:round;stroke-linejoin:round;stroke-miterlimit:4;stroke-dasharray:none;stroke-opacity:1;"/>
  <path id="path46" d="  M 41.399907,38.533983   L 41.399907,33.600567   L 44.999899,33.600567   L 44.999899,38.533983   L 46.533229,38.533983   L 46.533229,33.600567   L 50.133221,33.600567   L 50.133221,38.533983   L 51.599884,38.533983   L 51.599884,33.600567   L 55.199876,33.600567   L 55.199876,38.533983   L 56.533207,38.533983   L 56.533207,33.600567   L 60.133198,33.600567   L 60.133198,38.533983   L 61.599862,38.533983   L 61.599862,33.600567   L 65.133187,33.600567   L 65.133187,38.533983   L 66.199852,38.533983   L 66.199852,33.600567   L 69.799843,33.600567   L 69.799843,38.533983   L 71.266507,38.533983   L 71.266507,33.600567   L 74.799832,33.600567   L 74.799832,38.533983   L 76.333162,38.533983   L 76.333162,33.600567   L 79.933154,33.600567   L 79.933154,38.533983   L 81.333151,38.533983   L 81.333151,33.600567   L 84.866476,33.600567   L 84.866476,38.533983   L 86.266473,38.533983   L 86.266473,33.600567   L 89.866465,33.600567   L 89.866465,38.533983   L 91.199795,38.533983   L 91.199795,33.600567   L 94.799787,33.600567   L 94.799787,38.533983   L 96.333117,38.533983   L 96.333117,33.600567   L 99.866443,33.600567   L 99.866443,38.533983   L 101.39977,38.533983   L 101.39977,33.600567   L 101.39977,38.533983   L 101.39977,33.600567   L 104.9331,33.600567   L 104.9331,38.533983   L 106.33309,38.533983   L 106.33309,33.600567   L 109.86642,33.600567   L 109.86642,38.533983   L 111.33308,38.533983   L 111.33308,33.600567   L 114.93308,33.600567   L 114.93308,38.533983   L 115.93307,38.533983   L 115.93307,33.600567   L 119.53307,33.600567   L 119.53307,38.533983   L 120.99973,38.533983   L 120.99973,33.600567   L 124.59972,33.600567   L 124.59972,38.533983   L 126.13305,38.533983   L 126.13305,33.600567   L 129.66638,33.600567   L 129.66638,38.533983   L 131.06637,38.533983   L 131.06637,33.600567   L 134.66636,33.600567   L 134.66636,38.533983   L 136.06636,38.533983   L 136.06636,33.600567   L 139.59969,33.600567   L 139.59969,38.533983   L 41.399907,38.533983   L 42.799904,39.667335   L 42.799904,59.334334   L 41.133241,60.601022   L 44.733233,60.601022   L 44.733233,65.534438   L 46.266563,65.534438   L 46.266563,60.601022   L 49.799888,60.601022   L 49.799888,65.534438   L 51.333218,65.534438   L 51.333218,60.601022   L 54.866544,60.601022   L 54.866544,65.534438   L 56.26654,65.534438   L 56.26654,60.601022   L 59.799866,60.601022   L 59.799866,65.534438   L 61.266529,65.534438   L 61.266529,60.601022   L 64.866521,60.601022   L 64.866521,65.534438   L 65.866519,65.534438   L 65.866519,60.601022   L 69.466511,60.601022   L 69.466511,65.534438   L 70.933174,65.534438   L 70.933174,60.601022   L 74.533166,60.601022   L 74.533166,65.534438   L 76.066496,65.534438   L 76.066496,60.601022   L 79.599821,60.601022   L 79.599821,65.534438   L 80.999818,65.534438   L 80.999818,60.601022   L 84.59981,60.601022   L 84.59981,65.534438   L 85.999807,65.534438   L 85.999807,60.601022   L 89.533133,60.601022   L 89.533133,65.534438   L 90.866463,65.534438   L 90.866463,60.601022   L 94.466455,60.601022   L 94.466455,65.534438   L 95.999785,65.534438   L 95.999785,60.601022   L 99.599777,60.601022   L 99.599777,65.534438   L 101.06644,65.534438   L 101.06644,60.601022   L 104.66643,60.601022   L 104.66643,65.534438   L 105.99976,65.534438   L 105.99976,60.601022   L 109.59975,60.601022   L 109.59975,65.534438   L 111.06642,65.534438   L 111.06642,60.601022   L 114.59974,60.601022   L 114.59974,65.534438   L 115.66641,65.534438   L 115.66641,60.601022   L 119.2664,60.601022   L 119.2664,65.534438   L 120.73306,65.534438   L 120.73306,60.601022   L 124.26639,60.601022   L 124.26639,65.534438   L 125.79972,65.534438   L 125.79972,60.601022   L 129.39971,60.601022   L 129.39971,65.534438   L 130.79971,65.534438   L 130.79971,60.601022   L 134.33303,60.601022   L 134.33303,65.534438   L 135.73303,65.534438   L 135.73303,60.601022   L 139.33302,60.601022   L 139.33302,65.534438   L 41.133241,65.534438   L 41.133241,60.601022   L 42.799904,59.334334   L 42.799904,39.667335   L 41.399907,38.533983  z " clip-path="url(#clipWmfPath1)" style="fill:#ffffff;fill-rule:nonzero;fill-opacity:1;stroke:none;"/>
  <path id="path48" d="  M 41.399907,38.533983   L 41.399907,33.600567   L 44.999899,33.600567   L 44.999899,38.533983   L 46.533229,38.533983   L 46.533229,33.600567   L 50.133221,33.600567   L 50.133221,38.533983   L 51.599884,38.533983   L 51.599884,33.600567   L 55.199876,33.600567   L 55.199876,38.533983   L 56.533207,38.533983   L 56.533207,33.600567   L 60.133198,33.600567   L 60.133198,38.533983   L 61.599862,38.533983   L 61.599862,33.600567   L 65.133187,33.600567   L 65.133187,38.533983   L 66.199852,38.533983   L 66.199852,33.600567   L 69.799843,33.600567   L 69.799843,38.533983   L 71.266507,38.533983   L 71.266507,33.600567   L 74.799832,33.600567   L 74.799832,38.533983   L 76.333162,38.533983   L 76.333162,33.600567   L 79.933154,33.600567   L 79.933154,38.533983   L 81.333151,38.533983   L 81.333151,33.600567   L 84.866476,33.600567   L 84.866476,38.533983   L 86.266473,38.533983   L 86.266473,33.600567   L 89.866465,33.600567   L 89.866465,38.533983   L 91.199795,38.533983   L 91.199795,33.600567   L 94.799787,33.600567   L 94.799787,38.533983   L 96.333117,38.533983   L 96.333117,33.600567   L 99.866443,33.600567   L 99.866443,38.533983   L 101.39977,38.533983   L 101.39977,33.600567   L 101.39977,38.533983   L 101.39977,33.600567   L 104.9331,33.600567   L 104.9331,38.533983   L 106.33309,38.533983   L 106.33309,33.600567   L 109.86642,33.600567   L 109.86642,38.533983   L 111.33308,38.533983   L 111.33308,33.600567   L 114.93308,33.600567   L 114.93308,38.533983   L 115.93307,38.533983   L 115.93307,33.600567   L 119.53307,33.600567   L 119.53307,38.533983   L 120.99973,38.533983   L 120.99973,33.600567   L 124.59972,33.600567   L 124.59972,38.533983   L 126.13305,38.533983   L 126.13305,33.600567   L 129.66638,33.600567   L 129.66638,38.533983   L 131.06637,38.533983   L 131.06637,33.600567   L 134.66636,33.600567   L 134.66636,38.533983   L 136.06636,38.533983   L 136.06636,33.600567   L 139.59969,33.600567   L 139.59969,38.533983   L 41.399907,38.533983   L 42.799904,39.667335   L 42.799904,59.334334   L 41.133241,60.601022   L 44.733233,60.601022   L 44.733233,65.534438   L 46.266563,65.534438   L 46.266563,60.601022   L 49.799888,60.601022   L 49.799888,65.534438   L 51.333218,65.534438   L 51.333218,60.601022   L 54.866544,60.601022   L 54.866544,65.534438   L 56.26654,65.534438   L 56.26654,60.601022   L 59.799866,60.601022   L 59.799866,65.534438   L 61.266529,65.534438   L 61.266529,60.601022   L 64.866521,60.601022   L 64.866521,65.534438   L 65.866519,65.534438   L 65.866519,60.601022   L 69.466511,60.601022   L 69.466511,65.534438   L 70.933174,65.534438   L 70.933174,60.601022   L 74.533166,60.601022   L 74.533166,65.534438   L 76.066496,65.534438   L 76.066496,60.601022   L 79.599821,60.601022   L 79.599821,65.534438   L 80.999818,65.534438   L 80.999818,60.601022   L 84.59981,60.601022   L 84.59981,65.534438   L 85.999807,65.534438   L 85.999807,60.601022   L 89.533133,60.601022   L 89.533133,65.534438   L 90.866463,65.534438   L 90.866463,60.601022   L 94.466455,60.601022   L 94.466455,65.534438   L 95.999785,65.534438   L 95.999785,60.601022   L 99.599777,60.601022   L 99.599777,65.534438   L 101.06644,65.534438   L 101.06644,60.601022   L 104.66643,60.601022   L 104.66643,65.534438   L 105.99976,65.534438   L 105.99976,60.601022   L 109.59975,60.601022   L 109.59975,65.534438   L 111.06642,65.534438   L 111.06642,60.601022   L 114.59974,60.601022   L 114.59974,65.534438   L 115.66641,65.534438   L 115.66641,60.601022   L 119.2664,60.601022   L 119.2664,65.534438   L 120.73306,65.534438   L 120.73306,60.601022   L 124.26639,60.601022   L 124.26639,65.534438   L 125.79972,65.534438   L 125.79972,60.601022   L 129.39971,60.601022   L 129.39971,65.534438   L 130.79971,65.534438   L 130.79971,60.601022   L 134.33303,60.601022   L 134.33303,65.534438   L 135.73303,65.534438   L 135.73303,60.601022   L 139.33302,60.601022   L 139.33302,65.534438   L 41.133241,65.534438   L 41.133241,60.601022   L 42.799904,59.334334   L 42.799904,39.667335   L 41.399907,38.533983  z " clip-path="url(#clipWmfPath1)" style="fill:none;stroke:#000000;stroke-width:0.066666514px;stroke-linecap:round;stroke-linejoin:round;stroke-miterlimit:4;stroke-dasharray:none;stroke-opacity:1;"/>
  <path id="path50" d="  M 99.666443,42.800722   L 100.66644,42.934057   L 101.46644,43.400732   L 102.06644,44.06741   L 102.26644,44.800755   L 102.26644,54.267582   L 102.06644,55.000927   L 101.46644,55.600937   L 100.66644,55.934276   L 99.666443,56.067612   L 80.39982,56.067612   L 79.399822,55.934276   L 78.599824,55.53427   L 77.999825,54.867592   L 77.799826,54.134246   L 77.799826,44.734088   L 77.999825,44.000742   L 78.599824,43.400732   L 79.399822,42.934057   L 80.39982,42.800722   L 99.666443,42.800722  z " clip-path="url(#clipWmfPath1)" style="fill:#ffffff;fill-rule:nonzero;fill-opacity:1;stroke:none;"/>
  <path id="path52" d="  M 80.39982,42.267379   L 80.39982,43.334064   L 99.599777,43.334064   L 100.46644,43.400732   L 101.13311,43.800739   L 101.59977,44.334081   L 101.73311,44.867423   L 101.73311,54.200914   L 101.59977,54.734256   L 101.19977,55.200931   L 100.53311,55.467602   L 99.599777,55.53427   L 80.466486,55.53427   L 79.533155,55.467602   L 78.933156,55.134263   L 78.466491,54.600921   L 78.333158,54.067578   L 78.333158,44.800755   L 78.466491,44.267413   L 78.933156,43.800739   L 79.599821,43.400732   L 80.466486,43.334064   L 99.599777,43.334064   L 100.59977,43.4674   L 100.73311,42.400715   L 99.73311,42.267379   L 80.333153,42.267379   L 79.199822,42.467383   L 78.266491,43.000725   L 77.533159,43.734071   L 77.266493,44.66742   L 77.266493,54.200914   L 77.533159,55.134263   L 78.266491,55.934276   L 79.266489,56.400951   L 80.333153,56.600954   L 99.73311,56.600954   L 100.79977,56.400951   L 101.73311,56.000944   L 102.5331,55.267599   L 102.79977,54.334249   L 102.79977,44.734088   L 102.5331,43.800739   L 101.79977,43.000725   L 100.86644,42.467383   L 99.73311,42.267379   L 80.39982,42.267379  z " clip-path="url(#clipWmfPath1)" style="fill:#000000;fill-rule:nonzero;fill-opacity:1;stroke:#000000;stroke-width:0.066666514px;stroke-linecap:round;stroke-linejoin:round;stroke-miterlimit:4;stroke-dasharray:none;stroke-opacity:1;"/>
  <g id="g54" clip-path="url(#clipWmfPath1)"/>
  <g id="g66" clip-path="url(#clipWmfPath1)">
    <text id="text64" y="0.000000" x="0.000000" transform="matrix(1.000000,-0.000000,0.000000,1.000000,80.066487,53.867575)" style="font-size:10.687500px;font-style:normal;font-variant:normal;font-weight:400;font-stretch:Condensed;line-height:125.000000%;letter-spacing:0px;word-spacing:0px;fill:#000000;fill-opacity:1;stroke:none;font-family:Helvetica-Narrow;text-align:start;text-anchor:start;" xml:space="preserve"><tspan id="tspan62" y="0.000000" x="0.000000"><tspan id="tspan56" style="fill:#000000;font-size:10.687500px;font-style:normal;font-variant:normal;font-weight:400;font-stretch:Condensed;font-family:Helvetica-Narrow;" dy="0.000000" dx="0.000000">N</tspan><tspan id="tspan58" style="fill:#000000;font-size:10.687500px;font-style:normal;font-variant:normal;font-weight:400;font-stretch:Condensed;font-family:Helvetica-Narrow;" dy="0.000000" dx="-0.183059">P</tspan><tspan id="tspan60" style="fill:#000000;font-size:10.687500px;font-style:normal;font-variant:normal;font-weight:400;font-stretch:Condensed;font-family:Helvetica-Narrow;" dy="0.000000" dx="0.030769">U</tspan></tspan></text>
  </g>
  <path id="path68" d="  M 111.86642,179.26969   L 63.999856,179.26969   L 63.999856,131.73555   L 111.86642,131.73555   L 111.86642,179.26969  z " clip-path="url(#clipWmfPath1)" style="fill:#000000;fill-rule:nonzero;fill-opacity:1;stroke:none;"/>
  <path id="path70" d="  M 111.86642,179.26969   L 63.999856,179.26969   L 63.999856,131.73555   L 111.86642,131.73555   L 111.86642,179.26969  z " clip-path="url(#clipWmfPath1)" style="fill:none;stroke:#000000;stroke-width:0.066666514px;stroke-linecap:round;stroke-linejoin:round;stroke-miterlimit:4;stroke-dasharray:none;stroke-opacity:1;"/>
  <path id="path72" d="  M 105.06643,174.00293   L 106.1331,174.00293   L 106.1331,172.80291   L 109.93309,172.80291   L 109.93309,172.0029   L 106.1331,171.93623   L 106.1331,171.06955   L 109.93309,171.06955   L 109.93309,170.26954   L 106.1331,170.26954   L 106.1331,169.26952   L 109.93309,169.26952   L 109.93309,168.40284   L 106.1331,168.40284   L 106.1331,167.53616   L 109.93309,167.53616   L 109.93309,166.66948   L 106.1331,166.66948   L 106.1331,165.8028   L 109.93309,165.8028   L 109.93309,165.00278   L 106.1331,165.00278   L 106.1331,164.00277   L 109.93309,164.00277   L 109.93309,163.06942   L 106.1331,163.06942   L 106.1331,162.13607   L 109.93309,162.13607   L 109.93309,161.26939   L 106.1331,161.26939   L 106.1331,160.46937   L 109.93309,160.46937   L 109.93309,159.53602   L 106.1331,159.53602   L 106.1331,158.73601   L 109.99975,158.73601   L 109.93309,157.86933   L 106.1331,157.86933   L 106.1331,156.86931   L 109.93309,156.86931   L 109.93309,156.00263   L 106.1331,156.00263   L 106.1331,155.00261   L 109.93309,155.00261   L 109.93309,154.06926   L 106.1331,154.06926   L 106.1331,153.26925   L 109.93309,153.26925   L 109.93309,152.46924   L 106.1331,152.46924   L 106.1331,151.40255   L 109.93309,151.40255   L 109.93309,150.53587   L 106.1331,150.53587   L 106.1331,149.66919   L 109.93309,149.66919   L 109.93309,148.80251   L 106.1331,148.80251   L 106.1331,147.93583   L 109.93309,147.93583   L 109.93309,147.00248   L 106.1331,147.00248   L 106.1331,146.06913   L 109.73309,146.06913   L 109.93309,145.13578   L 106.1331,145.13578   L 106.1331,144.2691   L 109.93309,144.2691   L 109.93309,143.40242   L 106.1331,143.40242   L 106.1331,142.53574   L 109.79975,142.53574   L 109.93309,141.66906   L 106.1331,141.66906   L 106.1331,140.73571   L 109.93309,140.73571   L 109.93309,139.86902   L 106.1331,139.86902   L 106.1331,139.00234   L 109.93309,139.00234   L 109.93309,138.13566   L 106.1331,138.13566   L 106.1331,137.06898   L 105.3331,137.06898   L 105.3331,133.26891   L 104.46643,133.26891   L 104.59977,137.06898   L 103.66643,137.06898   L 103.66643,133.26891   L 102.7331,133.26891   L 102.7331,137.06898   L 101.79977,137.06898   L 101.79977,133.26891   L 100.93311,133.26891   L 100.93311,137.06898   L 100.06644,137.06898   L 100.06644,133.26891   L 99.199778,133.26891   L 99.199778,137.06898   L 98.333113,137.06898   L 98.333113,133.26891   L 97.466448,133.26891   L 97.466448,137.06898   L 96.46645,137.06898   L 96.399784,133.26891   L 95.599786,133.26891   L 95.599786,137.06898   L 94.666454,137.06898   L 94.666454,133.26891   L 93.79979,133.26891   L 93.79979,137.06898   L 92.933125,137.06898   L 92.933125,133.26891   L 92.06646,133.26891   L 92.06646,137.06898   L 91.066462,137.06898   L 91.066462,133.26891   L 90.199798,133.26891   L 90.199798,137.06898   L 89.3998,137.06898   L 89.3998,133.26891   L 88.533135,133.26891   L 88.533135,137.06898   L 87.466471,137.06898   L 87.466471,133.26891   L 86.666472,133.26891   L 86.666472,137.06898   L 85.599808,137.06898   L 85.599808,133.26891   L 84.79981,133.26891   L 84.79981,137.06898   L 83.933145,137.06898   L 83.933145,133.26891   L 83.06648,133.06891   L 83.06648,137.06898   L 82.199816,137.06898   L 82.199816,133.26891   L 81.333151,133.26891   L 81.333151,137.06898   L 80.333153,137.06898   L 80.333153,133.26891   L 79.533155,133.26891   L 79.533155,137.06898   L 78.399824,137.06898   L 78.533157,133.26891   L 77.666492,133.26891   L 77.666492,137.06898   L 76.799828,137.06898   L 76.799828,133.26891   L 75.933163,133.26891   L 75.933163,137.06898   L 75.066498,137.06898   L 75.066498,133.26891   L 74.2665,133.26891   L 74.2665,137.06898   L 73.266502,137.06898   L 73.266502,133.26891   L 72.399838,133.26891   L 72.399838,137.06898   L 71.599839,137.06898   L 71.599839,133.26891   L 70.733175,133.26891   L 70.733175,137.06898   L 69.399844,137.06898   L 69.399844,138.20233   L 65.599853,138.20233   L 65.599853,139.00234   L 69.399844,139.00234   L 69.399844,139.86902   L 65.599853,139.86902   L 65.599853,140.73571   L 69.399844,140.73571   L 69.399844,141.66906   L 65.599853,141.66906   L 65.599853,142.53574   L 69.399844,142.53574   L 69.399844,143.40242   L 65.599853,143.40242   L 65.599853,144.2691   L 69.399844,144.2691   L 69.399844,145.13578   L 65.599853,145.13578   L 65.599853,146.06913   L 69.399844,146.06913   L 69.399844,147.00248   L 65.599853,147.00248   L 65.599853,147.86916   L 69.399844,147.86916   L 69.399844,148.80251   L 65.599853,148.80251   L 65.599853,149.66919   L 69.399844,149.66919   L 69.399844,150.53587   L 65.599853,150.53587   L 65.599853,151.40255   L 69.399844,151.40255   L 69.399844,152.20257   L 65.599853,152.06923   L 65.599853,153.06925   L 69.399844,153.06925   L 69.399844,154.06926   L 65.599853,154.06926   L 65.599853,155.00261   L 69.399844,155.00261   L 69.399844,156.00263   L 65.599853,156.00263   L 65.599853,156.86931   L 69.399844,156.93598   L 69.399844,157.66933   L 65.599853,157.66933   L 65.599853,158.53601   L 69.399844,158.53601   L 69.399844,159.53602   L 65.599853,159.53602   L 65.599853,160.46937   L 69.399844,160.46937   L 69.333178,161.26939   L 65.599853,161.26939   L 65.599853,162.13607   L 69.399844,162.13607   L 69.399844,163.06942   L 65.599853,163.06942   L 65.599853,163.9361   L 69.399844,163.9361   L 69.399844,165.00278   L 65.599853,165.00278   L 65.599853,165.8028   L 69.399844,165.8028   L 69.399844,166.66948   L 65.599853,166.66948   L 65.599853,167.53616   L 69.399844,167.53616   L 69.399844,168.40284   L 65.599853,168.40284   L 65.599853,169.26952   L 69.399844,169.26952   L 69.333178,170.26954   L 65.599853,170.26954   L 65.599853,171.06955   L 69.399844,171.06955   L 69.399844,172.0029   L 65.599853,172.0029   L 65.599853,172.86958   L 69.399844,172.86958   L 69.399844,174.00293   L 70.466509,174.00293   L 70.466509,177.803   L 71.333173,177.803   L 71.333173,174.00293   L 72.133172,174.00293   L 72.133172,177.803   L 72.999836,177.803   L 72.999836,174.00293   L 73.933168,174.00293   L 73.933168,177.803   L 74.799832,177.803   L 74.799832,174.00293   L 75.733163,174.00293   L 75.733163,177.803   L 76.533162,177.803   L 76.533162,174.00293   L 77.399826,174.00293   L 77.399826,177.803   L 78.333158,177.803   L 78.333158,174.00293   L 79.266489,174.00293   L 79.266489,177.803   L 80.133154,177.803   L 80.133154,174.00293   L 81.066485,174.00293   L 81.066485,177.803   L 81.93315,177.803   L 81.93315,174.00293   L 82.799814,174.00293   L 82.933147,177.803   L 83.666479,177.803   L 83.666479,174.00293   L 84.466477,174.00293   L 84.466477,177.803   L 85.333142,177.803   L 85.333142,174.00293   L 86.33314,174.00293   L 86.33314,177.803   L 87.266471,177.803   L 87.266471,174.00293   L 88.266469,174.00293   L 88.266469,177.803   L 89.133133,177.803   L 89.133133,174.00293   L 89.933132,174.00293   L 89.933132,177.803   L 90.73313,177.803   L 90.73313,174.00293   L 91.799794,174.00293   L 91.799794,177.803   L 92.666459,177.803   L 92.666459,174.00293   L 93.533124,174.00293   L 93.533124,177.803   L 94.399788,177.803   L 94.399788,174.00293   L 95.266453,174.00293   L 95.266453,177.803   L 96.066451,177.803   L 96.199784,174.00293   L 97.199782,174.00293   L 97.199782,177.803   L 98.066447,177.803   L 98.066447,174.00293   L 98.933111,174.00293   L 98.933111,177.803   L 99.799776,177.803   L 99.799776,174.00293   L 100.66644,174.00293   L 100.66644,177.803   L 101.53311,177.803   L 101.53311,174.00293   L 102.46644,174.00293   L 102.46644,177.803   L 103.3331,177.803   L 103.3331,174.00293   L 104.19977,174.00293   L 104.19977,177.803   L 105.06643,177.803   L 105.06643,174.00293  z " clip-path="url(#clipWmfPath1)" style="fill:#ffffff;fill-rule:nonzero;fill-opacity:1;stroke:none;"/>
  <path id="path74" d="  M 105.06643,174.00293   L 106.1331,174.00293   L 106.1331,172.80291   L 109.93309,172.80291   L 109.93309,172.0029   L 106.1331,171.93623   L 106.1331,171.06955   L 109.93309,171.06955   L 109.93309,170.26954   L 106.1331,170.26954   L 106.1331,169.26952   L 109.93309,169.26952   L 109.93309,168.40284   L 106.1331,168.40284   L 106.1331,167.53616   L 109.93309,167.53616   L 109.93309,166.66948   L 106.1331,166.66948   L 106.1331,165.8028   L 109.93309,165.8028   L 109.93309,165.00278   L 106.1331,165.00278   L 106.1331,164.00277   L 109.93309,164.00277   L 109.93309,163.06942   L 106.1331,163.06942   L 106.1331,162.13607   L 109.93309,162.13607   L 109.93309,161.26939   L 106.1331,161.26939   L 106.1331,160.46937   L 109.93309,160.46937   L 109.93309,159.53602   L 106.1331,159.53602   L 106.1331,158.73601   L 109.99975,158.73601   L 109.93309,157.86933   L 106.1331,157.86933   L 106.1331,156.86931   L 109.93309,156.86931   L 109.93309,156.00263   L 106.1331,156.00263   L 106.1331,155.00261   L 109.93309,155.00261   L 109.93309,154.06926   L 106.1331,154.06926   L 106.1331,153.26925   L 109.93309,153.26925   L 109.93309,152.46924   L 106.1331,152.46924   L 106.1331,151.40255   L 109.93309,151.40255   L 109.93309,150.53587   L 106.1331,150.53587   L 106.1331,149.66919   L 109.93309,149.66919   L 109.93309,148.80251   L 106.1331,148.80251   L 106.1331,147.93583   L 109.93309,147.93583   L 109.93309,147.00248   L 106.1331,147.00248   L 106.1331,146.06913   L 109.73309,146.06913   L 109.93309,145.13578   L 106.1331,145.13578   L 106.1331,144.2691   L 109.93309,144.2691   L 109.93309,143.40242   L 106.1331,143.40242   L 106.1331,142.53574   L 109.79975,142.53574   L 109.93309,141.66906   L 106.1331,141.66906   L 106.1331,140.73571   L 109.93309,140.73571   L 109.93309,139.86902   L 106.1331,139.86902   L 106.1331,139.00234   L 109.93309,139.00234   L 109.93309,138.13566   L 106.1331,138.13566   L 106.1331,137.06898   L 105.3331,137.06898   L 105.3331,133.26891   L 104.46643,133.26891   L 104.59977,137.06898   L 103.66643,137.06898   L 103.66643,133.26891   L 102.7331,133.26891   L 102.7331,137.06898   L 101.79977,137.06898   L 101.79977,133.26891   L 100.93311,133.26891   L 100.93311,137.06898   L 100.06644,137.06898   L 100.06644,133.26891   L 99.199778,133.26891   L 99.199778,137.06898   L 98.333113,137.06898   L 98.333113,133.26891   L 97.466448,133.26891   L 97.466448,137.06898   L 96.46645,137.06898   L 96.399784,133.26891   L 95.599786,133.26891   L 95.599786,137.06898   L 94.666454,137.06898   L 94.666454,133.26891   L 93.79979,133.26891   L 93.79979,137.06898   L 92.933125,137.06898   L 92.933125,133.26891   L 92.06646,133.26891   L 92.06646,137.06898   L 91.066462,137.06898   L 91.066462,133.26891   L 90.199798,133.26891   L 90.199798,137.06898   L 89.3998,137.06898   L 89.3998,133.26891   L 88.533135,133.26891   L 88.533135,137.06898   L 87.466471,137.06898   L 87.466471,133.26891   L 86.666472,133.26891   L 86.666472,137.06898   L 85.599808,137.06898   L 85.599808,133.26891   L 84.79981,133.26891   L 84.79981,137.06898   L 83.933145,137.06898   L 83.933145,133.26891   L 83.06648,133.06891   L 83.06648,137.06898   L 82.199816,137.06898   L 82.199816,133.26891   L 81.333151,133.26891   L 81.333151,137.06898   L 80.333153,137.06898   L 80.333153,133.26891   L 79.533155,133.26891   L 79.533155,137.06898   L 78.399824,137.06898   L 78.533157,133.26891   L 77.666492,133.26891   L 77.666492,137.06898   L 76.799828,137.06898   L 76.799828,133.26891   L 75.933163,133.26891   L 75.933163,137.06898   L 75.066498,137.06898   L 75.066498,133.26891   L 74.2665,133.26891   L 74.2665,137.06898   L 73.266502,137.06898   L 73.266502,133.26891   L 72.399838,133.26891   L 72.399838,137.06898   L 71.599839,137.06898   L 71.599839,133.26891   L 70.733175,133.26891   L 70.733175,137.06898   L 69.399844,137.06898   L 69.399844,138.20233   L 65.599853,138.20233   L 65.599853,139.00234   L 69.399844,139.00234   L 69.399844,139.86902   L 65.599853,139.86902   L 65.599853,140.73571   L 69.399844,140.73571   L 69.399844,141.66906   L 65.599853,141.66906   L 65.599853,142.53574   L 69.399844,142.53574   L 69.399844,143.40242   L 65.599853,143.40242   L 65.599853,144.2691   L 69.399844,144.2691   L 69.399844,145.13578   L 65.599853,145.13578   L 65.599853,146.06913   L 69.399844,146.06913   L 69.399844,147.00248   L 65.599853,147.00248   L 65.599853,147.86916   L 69.399844,147.86916   L 69.399844,148.80251   L 65.599853,148.80251   L 65.599853,149.66919   L 69.399844,149.66919   L 69.399844,150.53587   L 65.599853,150.53587   L 65.599853,151.40255   L 69.399844,151.40255   L 69.399844,152.20257   L 65.599853,152.06923   L 65.599853,153.06925   L 69.399844,153.06925   L 69.399844,154.06926   L 65.599853,154.06926   L 65.599853,155.00261   L 69.399844,155.00261   L 69.399844,156.00263   L 65.599853,156.00263   L 65.599853,156.86931   L 69.399844,156.93598   L 69.399844,157.66933   L 65.599853,157.66933   L 65.599853,158.53601   L 69.399844,158.53601   L 69.399844,159.53602   L 65.599853,159.53602   L 65.599853,160.46937   L 69.399844,160.46937   L 69.333178,161.26939   L 65.599853,161.26939   L 65.599853,162.13607   L 69.399844,162.13607   L 69.399844,163.06942   L 65.599853,163.06942   L 65.599853,163.9361   L 69.399844,163.9361   L 69.399844,165.00278   L 65.599853,165.00278   L 65.599853,165.8028   L 69.399844,165.8028   L 69.399844,166.66948   L 65.599853,166.66948   L 65.599853,167.53616   L 69.399844,167.53616   L 69.399844,168.40284   L 65.599853,168.40284   L 65.599853,169.26952   L 69.399844,169.26952   L 69.333178,170.26954   L 65.599853,170.26954   L 65.599853,171.06955   L 69.399844,171.06955   L 69.399844,172.0029   L 65.599853,172.0029   L 65.599853,172.86958   L 69.399844,172.86958   L 69.399844,174.00293   L 70.466509,174.00293   L 70.466509,177.803   L 71.333173,177.803   L 71.333173,174.00293   L 72.133172,174.00293   L 72.133172,177.803   L 72.999836,177.803   L 72.999836,174.00293   L 73.933168,174.00293   L 73.933168,177.803   L 74.799832,177.803   L 74.799832,174.00293   L 75.733163,174.00293   L 75.733163,177.803   L 76.533162,177.803   L 76.533162,174.00293   L 77.399826,174.00293   L 77.399826,177.803   L 78.333158,177.803   L 78.333158,174.00293   L 79.266489,174.00293   L 79.266489,177.803   L 80.133154,177.803   L 80.133154,174.00293   L 81.066485,174.00293   L 81.066485,177.803   L 81.93315,177.803   L 81.93315,174.00293   L 82.799814,174.00293   L 82.933147,177.803   L 83.666479,177.803   L 83.666479,174.00293   L 84.466477,174.00293   L 84.466477,177.803   L 85.333142,177.803   L 85.333142,174.00293   L 86.33314,174.00293   L 86.33314,177.803   L 87.266471,177.803   L 87.266471,174.00293   L 88.266469,174.00293   L 88.266469,177.803   L 89.133133,177.803   L 89.133133,174.00293   L 89.933132,174.00293   L 89.933132,177.803   L 90.73313,177.803   L 90.73313,174.00293   L 91.799794,174.00293   L 91.799794,177.803   L 92.666459,177.803   L 92.666459,174.00293   L 93.533124,174.00293   L 93.533124,177.803   L 94.399788,177.803   L 94.399788,174.00293   L 95.266453,174.00293   L 95.266453,177.803   L 96.066451,177.803   L 96.199784,174.00293   L 97.199782,174.00293   L 97.199782,177.803   L 98.066447,177.803   L 98.066447,174.00293   L 98.933111,174.00293   L 98.933111,177.803   L 99.799776,177.803   L 99.799776,174.00293   L 100.66644,174.00293   L 100.66644,177.803   L 101.53311,177.803   L 101.53311,174.00293   L 102.46644,174.00293   L 102.46644,177.803   L 103.3331,177.803   L 103.3331,174.00293   L 104.19977,174.00293   L 104.19977,177.803   L 105.06643,177.803   L 105.06643,174.00293  z " clip-path="url(#clipWmfPath1)" style="fill:none;stroke:#ffffff;stroke-width:0.066666514px;stroke-linecap:round;stroke-linejoin:round;stroke-miterlimit:4;stroke-dasharray:none;stroke-opacity:1;"/>
  <path id="path76" d="  M 105.66643,173.46959   L 69.733177,173.46959   L 69.733177,137.53565   L 105.66643,137.53565   L 105.66643,173.46959  z " clip-path="url(#clipWmfPath1)" style="fill:#000000;fill-rule:nonzero;fill-opacity:1;stroke:none;"/>
  <path id="path78" d="  M 105.66643,173.46959   L 69.733177,173.46959   L 69.733177,137.53565   L 105.66643,137.53565   L 105.66643,173.46959  z " clip-path="url(#clipWmfPath1)" style="fill:none;stroke:#000000;stroke-width:0.066666514px;stroke-linecap:round;stroke-linejoin:round;stroke-miterlimit:4;stroke-dasharray:none;stroke-opacity:1;"/>
  <path id="path80" d="  M 97.533115,148.86918   L 98.533112,149.00251   L 99.333111,149.46919   L 99.933109,150.13586   L 100.13311,150.86921   L 100.13311,160.33604   L 99.933109,161.06938   L 99.333111,161.66939   L 98.533112,162.00273   L 97.533115,162.13607   L 78.266491,162.13607   L 77.266493,162.00273   L 76.466495,161.60272   L 75.866497,160.93605   L 75.666497,160.2027   L 75.666497,150.80254   L 75.866497,150.0692   L 76.466495,149.46919   L 77.266493,149.00251   L 78.266491,148.86918   L 97.533115,148.86918  z " clip-path="url(#clipWmfPath1)" style="fill:#ffffff;fill-rule:nonzero;fill-opacity:1;stroke:none;"/>
  <path id="path82" d="  M 78.266491,148.33583   L 78.266491,149.40252   L 97.466448,149.40252   L 98.333113,149.46919   L 98.999778,149.86919   L 99.466444,150.40254   L 99.599777,150.93588   L 99.599777,160.26937   L 99.466444,160.80271   L 99.066444,161.26939   L 98.399779,161.53606   L 97.466448,161.60272   L 78.333158,161.60272   L 77.399826,161.53606   L 76.799828,161.20272   L 76.333162,160.66938   L 76.199829,160.13603   L 76.199829,150.86921   L 76.333162,150.33587   L 76.799828,149.86919   L 77.466493,149.46919   L 78.333158,149.40252   L 97.466448,149.40252   L 98.466446,149.53585   L 98.599779,148.46917   L 97.599781,148.33583   L 78.199825,148.33583   L 77.066494,148.53584   L 76.133163,149.06918   L 75.399831,149.80253   L 75.133165,150.73587   L 75.133165,160.26937   L 75.399831,161.20272   L 76.133163,162.00273   L 77.13316,162.46941   L 78.199825,162.66941   L 97.599781,162.66941   L 98.666445,162.46941   L 99.599777,162.0694   L 100.39977,161.33605   L 100.66644,160.4027   L 100.66644,150.80254   L 100.39977,149.86919   L 99.666443,149.06918   L 98.733112,148.53584   L 97.599781,148.33583   L 78.266491,148.33583  z " clip-path="url(#clipWmfPath1)" style="fill:#000000;fill-rule:nonzero;fill-opacity:1;stroke:#000000;stroke-width:0.066666514px;stroke-linecap:round;stroke-linejoin:round;stroke-miterlimit:4;stroke-dasharray:none;stroke-opacity:1;"/>
  <g id="g84" clip-path="url(#clipWmfPath1)"/>
  <g id="g96" clip-path="url(#clipWmfPath1)">
    <text id="text94" y="0.000000" x="0.000000" transform="matrix(1.000000,-0.000000,0.000000,1.000000,77.466493,159.936030)" style="font-size:10.687500px;font-style:normal;font-variant:normal;font-weight:400;font-stretch:Condensed;line-height:125.000000%;letter-spacing:0px;word-spacing:0px;fill:#000000;fill-opacity:1;stroke:none;font-family:Helvetica-Narrow;text-align:start;text-anchor:start;" xml:space="preserve"><tspan id="tspan92" y="0.000000" x="0.000000"><tspan id="tspan86" style="fill:#000000;font-size:10.687500px;font-style:normal;font-variant:normal;font-weight:400;font-stretch:Condensed;font-family:Helvetica-Narrow;" dy="0.000000" dx="0.000000">C</tspan><tspan id="tspan88" style="fill:#000000;font-size:10.687500px;font-style:normal;font-variant:normal;font-weight:400;font-stretch:Condensed;font-family:Helvetica-Narrow;" dy="0.000000" dx="-0.050169">P</tspan><tspan id="tspan90" style="fill:#000000;font-size:10.687500px;font-style:normal;font-variant:normal;font-weight:400;font-stretch:Condensed;font-family:Helvetica-Narrow;" dy="0.000000" dx="-0.102564">U</tspan></tspan></text>
  </g>
  <path id="path98" d="  M 159.53298,168.33617   L 159.53298,49.267497   L 174.46628,49.267497   L 174.46628,168.33617   L 159.53298,168.33617  z " clip-path="url(#clipWmfPath1)" style="fill:#bfbfbf;fill-rule:evenodd;fill-opacity:1;stroke:none;"/>
  <path id="path100" d="  M 159.53298,168.33617   L 159.53298,49.267497   L 174.46628,49.267497   L 174.46628,168.33617   L 159.53298,168.33617  z " clip-path="url(#clipWmfPath1)" style="fill:none;stroke:#000000;stroke-width:0.066666514px;stroke-linecap:round;stroke-linejoin:round;stroke-miterlimit:4;stroke-dasharray:none;stroke-opacity:1;"/>
  <g id="g102" clip-path="url(#clipWmfPath1)"/>
  <g id="g120" clip-path="url(#clipWmfPath1)">
    <text id="text118" y="0.000000" x="0.000000" transform="matrix(1.000000,-0.000000,0.000000,1.000000,112.933080,78.534657)" style="font-size:9.312500px;font-style:normal;font-variant:normal;font-weight:400;font-stretch:Condensed;line-height:125.000000%;letter-spacing:0px;word-spacing:0px;fill:#000000;fill-opacity:1;stroke:none;font-family:Helvetica-Narrow;text-align:start;text-anchor:start;" xml:space="preserve"><tspan id="tspan116" y="0.000000" x="0.000000"><tspan id="tspan104" style="fill:#000000;font-size:9.312500px;font-style:normal;font-variant:normal;font-weight:400;font-stretch:Condensed;font-family:Helvetica-Narrow;" dy="0.000000" dx="0.000000">3</tspan><tspan id="tspan106" style="fill:#000000;font-size:9.312500px;font-style:normal;font-variant:normal;font-weight:400;font-stretch:Condensed;font-family:Helvetica-Narrow;" dy="0.000000" dx="0.183411">4</tspan><tspan id="tspan108" style="fill:#000000;font-size:9.312500px;font-style:normal;font-variant:normal;font-weight:400;font-stretch:Condensed;font-family:Helvetica-Narrow;" dy="0.000000" dx="0.183411">0</tspan><tspan id="tspan110" style="fill:#000000;font-size:9.312500px;font-style:normal;font-variant:normal;font-weight:400;font-stretch:Condensed;font-family:Helvetica-Narrow;" dy="0.000000" dx="0.183411">5</tspan><tspan id="tspan112" style="fill:#000000;font-size:9.312500px;font-style:normal;font-variant:normal;font-weight:400;font-stretch:Condensed;font-family:Helvetica-Narrow;" dy="0.000000" dx="0.183411">8</tspan><tspan id="tspan114" style="fill:#000000;font-size:9.312500px;font-style:normal;font-variant:normal;font-weight:400;font-stretch:Condensed;font-family:Helvetica-Narrow;" dy="0.000000" dx="0.183411">B</tspan></tspan></text>
  </g>
  <path id="path122" d="  M 186.79958,104.33509   L 186.79958,101.53505   L 186.93291,100.8017   L 187.39958,100.33503   L 187.99958,100.00169   L 188.73291,99.868351   L 211.86619,99.868351   L 212.59952,100.00169   L 213.26619,100.46836   L 213.66619,101.06837   L 213.79952,101.80172   L 213.79952,111.26854   L 213.66619,112.00189   L 213.26619,112.6019   L 212.59952,112.93524   L 211.86619,113.06857   L 188.73291,113.06857   L 187.99958,112.86857   L 187.39958,112.4019   L 186.93291,111.73522   L 186.79958,110.9352   L 186.79958,108.40183   L 174.73294,106.40179   L 186.79958,104.33509  z " clip-path="url(#clipWmfPath1)" style="fill:#ffffff;fill-rule:nonzero;fill-opacity:1;stroke:none;"/>
  <path id="path124" d="  M 174.66627,105.93512   L 174.19961,106.46846   L 174.79961,106.86847   L 187.33291,104.7351   L 187.33291,101.60171   L 187.39958,101.06837   L 187.73291,100.73503   L 188.19958,100.46836   L 188.79958,100.40169   L 211.79953,100.40169   L 212.39952,100.46836   L 212.86619,100.8017   L 213.19952,101.26837   L 213.26619,101.86838   L 213.26619,111.20187   L 213.19952,111.80189   L 212.93286,112.20189   L 212.46619,112.46856   L 211.79953,112.53523   L 188.79958,112.53523   L 188.19958,112.4019   L 187.79958,112.06856   L 187.39958,111.53521   L 187.33291,110.86854   L 187.33291,108.00182   L 177.7996,106.40179   L 187.33291,104.7351   L 187.33291,101.53505   L 186.79958,101.0017   L 186.26625,101.53505   L 186.26625,103.93509   L 174.66627,105.93512   L 174.66627,106.86847   L 186.26625,108.80183   L 186.26625,111.00187   L 186.46625,111.93522   L 186.99958,112.73523   L 187.79958,113.33524   L 188.66624,113.60192   L 211.93286,113.60192   L 212.73286,113.40191   L 213.59952,113.00191   L 214.13285,112.20189   L 214.33285,111.33521   L 214.33285,101.73505   L 214.13285,100.86837   L 213.66619,100.13502   L 212.79952,99.535012   L 211.93286,99.335008   L 188.66624,99.335008   L 187.79958,99.535012   L 187.06625,99.935018   L 186.46625,100.53503   L 186.26625,101.46838   L 186.26625,103.93509   L 174.66627,105.93512  z " clip-path="url(#clipWmfPath1)" style="fill:#000000;fill-rule:nonzero;fill-opacity:1;stroke:#000000;stroke-width:0.066666514px;stroke-linecap:round;stroke-linejoin:round;stroke-miterlimit:4;stroke-dasharray:none;stroke-opacity:1;"/>
  <g id="g126" clip-path="url(#clipWmfPath1)"/>
  <g id="g138" clip-path="url(#clipWmfPath1)">
    <text id="text136" y="0.000000" x="0.000000" transform="matrix(1.000000,-0.000000,0.000000,1.000000,190.932905,110.735200)" style="font-size:10.687500px;font-style:normal;font-variant:normal;font-weight:400;font-stretch:Condensed;line-height:125.000000%;letter-spacing:0px;word-spacing:0px;fill:#000000;fill-opacity:1;stroke:none;font-family:Helvetica-Narrow;text-align:start;text-anchor:start;" xml:space="preserve"><tspan id="tspan134" y="0.000000" x="0.000000"><tspan id="tspan128" style="fill:#000000;font-size:10.687500px;font-style:normal;font-variant:normal;font-weight:400;font-stretch:Condensed;font-family:Helvetica-Narrow;" dy="0.000000" dx="0.000000">S</tspan><tspan id="tspan130" style="fill:#000000;font-size:10.687500px;font-style:normal;font-variant:normal;font-weight:400;font-stretch:Condensed;font-family:Helvetica-Narrow;" dy="0.000000" dx="-0.102564">L</tspan><tspan id="tspan132" style="fill:#000000;font-size:10.687500px;font-style:normal;font-variant:normal;font-weight:400;font-stretch:Condensed;font-family:Helvetica-Narrow;" dy="0.000000" dx="0.003334">3</tspan></tspan></text>
  </g>
  <g id="g140" clip-path="url(#clipWmfPath1)"/>
  <g id="g180" clip-path="url(#clipWmfPath1)">
    <text id="text154" y="0.000000" x="0.000000" transform="matrix(1.000000,-0.000000,0.000000,1.000000,48.999890,224.003777)" style="font-size:10.687500px;font-style:normal;font-variant:normal;font-weight:400;font-stretch:Condensed;line-height:125.000000%;letter-spacing:0px;word-spacing:0px;fill:#000000;fill-opacity:1;stroke:none;font-family:Helvetica-Narrow;text-align:start;text-anchor:start;" xml:space="preserve"><tspan id="tspan152" y="0.000000" x="0.000000"><tspan id="tspan142" style="fill:#000000;font-size:10.687500px;font-style:normal;font-variant:normal;font-weight:400;font-stretch:Condensed;font-family:Helvetica-Narrow;" dy="0.000000" dx="0.000000">8</tspan><tspan id="tspan144" style="fill:#000000;font-size:10.687500px;font-style:normal;font-variant:normal;font-weight:400;font-stretch:Condensed;font-family:Helvetica-Narrow;" dy="0.000000" dx="0.003334">0</tspan><tspan id="tspan146" style="fill:#000000;font-size:10.687500px;font-style:normal;font-variant:normal;font-weight:400;font-stretch:Condensed;font-family:Helvetica-Narrow;" dy="0.000000" dx="0.003334">2</tspan><tspan id="tspan148" style="fill:#000000;font-size:10.687500px;font-style:normal;font-variant:normal;font-weight:400;font-stretch:Condensed;font-family:Helvetica-Narrow;" dy="0.000000" dx="0.003334">8</tspan><tspan id="tspan150" style="fill:#000000;font-size:10.687500px;font-style:normal;font-variant:normal;font-weight:400;font-stretch:Condensed;font-family:Helvetica-Narrow;" dy="0.000000" dx="0.003334">6</tspan></tspan></text>
    <text id="text164" y="0.000000" x="35.066588" transform="matrix(1.000000,-0.000000,0.000000,1.000000,48.999890,224.003777)" style="font-size:10.687500px;font-style:normal;font-variant:normal;font-weight:400;font-stretch:Condensed;line-height:125.000000%;letter-spacing:0px;word-spacing:0px;fill:#000000;fill-opacity:1;stroke:none;font-family:Helvetica-Narrow;text-align:start;text-anchor:start;" xml:space="preserve"><tspan id="tspan162" y="0.000000" x="35.066588"><tspan id="tspan156" style="fill:#000000;font-size:10.687500px;font-style:normal;font-variant:normal;font-weight:400;font-stretch:Condensed;font-family:Helvetica-Narrow;" dy="0.000000" dx="0.000000">C</tspan><tspan id="tspan158" style="fill:#000000;font-size:10.687500px;font-style:normal;font-variant:normal;font-weight:400;font-stretch:Condensed;font-family:Helvetica-Narrow;" dy="0.000000" dx="-0.050169">P</tspan><tspan id="tspan160" style="fill:#000000;font-size:10.687500px;font-style:normal;font-variant:normal;font-weight:400;font-stretch:Condensed;font-family:Helvetica-Narrow;" dy="0.000000" dx="-0.102564">U</tspan></tspan></text>
    <text id="text178" y="0.000000" x="61.666528" transform="matrix(1.000000,-0.000000,0.000000,1.000000,48.999890,224.003777)" style="font-size:10.687500px;font-style:normal;font-variant:normal;font-weight:400;font-stretch:Condensed;line-height:125.000000%;letter-spacing:0px;word-spacing:0px;fill:#000000;fill-opacity:1;stroke:none;font-family:Helvetica-Narrow;text-align:start;text-anchor:start;" xml:space="preserve"><tspan id="tspan176" y="0.000000" x="61.666528"><tspan id="tspan166" style="fill:#000000;font-size:10.687500px;font-style:normal;font-variant:normal;font-weight:400;font-stretch:Condensed;font-family:Helvetica-Narrow;" dy="0.000000" dx="0.000000">B</tspan><tspan id="tspan168" style="fill:#000000;font-size:10.687500px;font-style:normal;font-variant:normal;font-weight:400;font-stretch:Condensed;font-family:Helvetica-Narrow;" dy="0.000000" dx="-0.102564">O</tspan><tspan id="tspan170" style="fill:#000000;font-size:10.687500px;font-style:normal;font-variant:normal;font-weight:400;font-stretch:Condensed;font-family:Helvetica-Narrow;" dy="0.000000" dx="-0.075129">A</tspan><tspan id="tspan172" style="fill:#000000;font-size:10.687500px;font-style:normal;font-variant:normal;font-weight:400;font-stretch:Condensed;font-family:Helvetica-Narrow;" dy="0.000000" dx="-0.102564">R</tspan><tspan id="tspan174" style="fill:#000000;font-size:10.687500px;font-style:normal;font-variant:normal;font-weight:400;font-stretch:Condensed;font-family:Helvetica-Narrow;" dy="0.000000" dx="-0.050169">D</tspan></tspan></text>
  </g>
</svg>