<svg xmlns:inkscape="http://www.inkscape.org/namespaces/inkscape" xmlns:sodipodi="http://sodipodi.sourceforge.net/DTD/sodipodi-0.dtd" xmlns="http://www.w3.org/2000/svg" xmlns:svg="http://www.w3.org/2000/svg" xmlns:rdf="http://www.w3.org/1999/02/22-rdf-syntax-ns#" xmlns:cc="http://creativecommons.org/ns#" xmlns:dc="http://purl.org/dc/elements/1.1/" id="svg244" height="91.310003mm" width="66.440001mm" version="1.0" sodipodi:docname="34129.svg" inkscape:version="1.1.1 (3bf5ae0d25, 2021-09-20)">
  <sodipodi:namedview id="namedview113" pagecolor="#ffffff" bordercolor="#666666" borderopacity="1.0" inkscape:pageshadow="2" inkscape:pageopacity="0.0" inkscape:pagecheckerboard="0" inkscape:document-units="mm" showgrid="false" inkscape:zoom="2.4108347" inkscape:cx="125.68261" inkscape:cy="172.55434" inkscape:window-width="1920" inkscape:window-height="1017" inkscape:window-x="1672" inkscape:window-y="-8" inkscape:window-maximized="0" inkscape:current-layer="svg244"/>
  <metadata id="metadata248">
    <rdf:RDF>
      <cc:Work rdf:about="">
        <dc:format>image/svg+xml</dc:format>
        <dc:type rdf:resource="http://purl.org/dc/dcmitype/StillImage"/>
      </cc:Work>
    </rdf:RDF>
  </metadata>
  <defs id="defs6">
    <clipPath id="clipWmfPath1" clipPathUnits="userSpaceOnUse">
      <path id="path2" d="M 0,0 L 251.00735,0 L 251.00735,345.0042 L 0,345.0042 z"/>
    </clipPath>
    <pattern y="0" x="0" height="6" width="6" patternUnits="userSpaceOnUse" id="WMFhbasepattern"/>
  </defs>
  <path id="path8" d="M 9.0002634,333.00405 V 11.000134 H 230.74009 V 333.00405 Z" clip-path="url(#clipWmfPath1)" style="fill:#e5e5e5;fill-opacity:1;fill-rule:nonzero;stroke:none" transform="rotate(180,119.87017,172.00209)"/>
  <path id="path10" d="m 230.74009,333.20406 v -0.40001 H 9.2002693 V 11.200136 H 230.54008 V 332.80405 H 9.2002693 V 11.000134 H 8.8002576 V 333.20406 H 230.94009 V 10.800131 H 8.8002576 V 333.20406 Z" clip-path="url(#clipWmfPath1)" style="fill:#000000;fill-opacity:1;fill-rule:nonzero;stroke:#000000;stroke-width:0.0666686px;stroke-linecap:round;stroke-linejoin:round;stroke-miterlimit:4;stroke-dasharray:none;stroke-opacity:1" transform="rotate(180,119.87017,172.00209)"/>
  <path id="path38" d="m 205.20601,108.93466 1.20003,0.4 0.80003,1.40002 0.46668,1.60002 -0.33335,1.73335 -0.40001,0.73335 -0.53335,0.53334 -0.60002,0.33333 -0.60001,0.13334 -0.53335,-0.13334 -0.53335,-0.33333 -0.53335,-0.53334 -0.46668,-0.73335 -0.20001,-0.8 v -0.93335 l 0.0667,-0.86668 0.26668,-0.73334 0.33334,-0.66667 0.53335,-0.73335 z m 0,0.2 -0.53335,0.13334 -0.46668,0.53334 -0.86669,1.00001 -0.20001,1.53335 0.20001,1.73335 0.86669,1.00002 1.00003,0.46667 0.60001,-0.13334 0.46668,-0.33333 0.8667,-1.00002 0.26667,-1.73335 -0.26667,-1.53335 -0.40002,-0.66668 -0.46668,-0.33333 -0.46668,-0.53334 z m -1.20004,1.13335 h 1.20004 l 0.86669,0.26667 0.2,0.86668 -0.13333,0.73334 -0.66669,0.26667 0.66669,1.40001 0.26667,0.46668 h 0.20001 v 0.26667 h -0.53335 l -1.0667,-2.13336 h -0.13334 v 1.66668 l 0.13334,0.20001 h 0.26668 v 0.26667 h -1.40005 v -0.26667 h 0.26668 l 0.0667,-0.20001 v -0.33333 -2.73337 -0.26667 -0.4 H 204.006 Z m 0.86669,1.93336 h 0.40002 l 0.26667,-0.33334 0.0667,-0.46667 -0.13334,-0.66668 -0.13334,-0.33334 -0.26667,-0.0667 h -0.20001 z" clip-path="url(#clipWmfPath1)" style="fill:#bfbfbf;fill-opacity:1;fill-rule:evenodd;stroke:none" transform="rotate(180,119.87017,172.00209)"/>
  <path id="path40" d="M 51.468173,26.000316 H 212.33955 V 41.000499 H 51.468173 Z" clip-path="url(#clipWmfPath1)" style="fill:#000000;fill-opacity:1;fill-rule:nonzero;stroke:none" transform="rotate(180,119.87017,172.00209)"/>
  <path id="path42" d="M 51.468173,26.000316 H 212.33955 V 41.000499 H 51.468173 Z" clip-path="url(#clipWmfPath1)" style="fill:none;stroke:#000000;stroke-width:0.0666686px;stroke-linecap:round;stroke-linejoin:round;stroke-miterlimit:4;stroke-dasharray:none;stroke-opacity:1" transform="rotate(180,119.87017,172.00209)"/>
  <path id="path44" d="M 57.135006,36.267108 H 206.67272 V 30.800375 H 57.135006 Z" clip-path="url(#clipWmfPath1)" style="fill:#ffffff;fill-opacity:1;fill-rule:nonzero;stroke:none" transform="rotate(180,119.87017,172.00209)"/>
  <path id="path46" d="M 57.135006,36.267108 H 206.67272 V 30.800375 H 57.135006 Z" clip-path="url(#clipWmfPath1)" style="fill:none;stroke:#000000;stroke-width:0.0666686px;stroke-linecap:round;stroke-linejoin:round;stroke-miterlimit:4;stroke-dasharray:none;stroke-opacity:1" transform="rotate(180,119.87017,172.00209)"/>
  <path id="path48" d="M 51.468173,61.60075 H 212.33955 V 76.600932 H 51.468173 Z" clip-path="url(#clipWmfPath1)" style="fill:#000000;fill-opacity:1;fill-rule:nonzero;stroke:none" transform="rotate(180,119.87017,172.00209)"/>
  <path id="path50" d="M 51.468173,61.60075 H 212.33955 V 76.600932 H 51.468173 Z" clip-path="url(#clipWmfPath1)" style="fill:none;stroke:#000000;stroke-width:0.0666686px;stroke-linecap:round;stroke-linejoin:round;stroke-miterlimit:4;stroke-dasharray:none;stroke-opacity:1" transform="rotate(180,119.87017,172.00209)"/>
  <path id="path52" d="M 57.135006,71.867541 H 206.67272 V 66.400808 H 57.135006 Z" clip-path="url(#clipWmfPath1)" style="fill:#ffffff;fill-opacity:1;fill-rule:nonzero;stroke:none" transform="rotate(180,119.87017,172.00209)"/>
  <path id="path54" d="M 57.135006,71.867541 H 206.67272 V 66.400808 H 57.135006 Z" clip-path="url(#clipWmfPath1)" style="fill:none;stroke:#000000;stroke-width:0.0666686px;stroke-linecap:round;stroke-linejoin:round;stroke-miterlimit:4;stroke-dasharray:none;stroke-opacity:1" transform="rotate(180,119.87017,172.00209)"/>
  <path id="path56" d="M 51.468173,97.201183 H 212.33955 V 112.20137 H 51.468173 Z" clip-path="url(#clipWmfPath1)" style="fill:#000000;fill-opacity:1;fill-rule:nonzero;stroke:none" transform="rotate(180,119.87017,172.00209)"/>
  <path id="path58" d="M 51.468173,97.201183 H 212.33955 V 112.20137 H 51.468173 Z" clip-path="url(#clipWmfPath1)" style="fill:none;stroke:#000000;stroke-width:0.0666686px;stroke-linecap:round;stroke-linejoin:round;stroke-miterlimit:4;stroke-dasharray:none;stroke-opacity:1" transform="rotate(180,119.87017,172.00209)"/>
  <path id="path60" d="M 57.135006,107.46797 H 206.67272 v -5.46673 H 57.135006 Z" clip-path="url(#clipWmfPath1)" style="fill:#ffffff;fill-opacity:1;fill-rule:nonzero;stroke:none" transform="rotate(180,119.87017,172.00209)"/>
  <path id="path62" d="M 57.135006,107.46797 H 206.67272 v -5.46673 H 57.135006 Z" clip-path="url(#clipWmfPath1)" style="fill:none;stroke:#000000;stroke-width:0.0666686px;stroke-linecap:round;stroke-linejoin:round;stroke-miterlimit:4;stroke-dasharray:none;stroke-opacity:1" transform="rotate(180,119.87017,172.00209)"/>
  <path id="path64" d="M 51.468173,132.80162 H 212.33955 V 147.8018 H 51.468173 Z" clip-path="url(#clipWmfPath1)" style="fill:#000000;fill-opacity:1;fill-rule:nonzero;stroke:none" transform="rotate(180,119.87017,172.00209)"/>
  <path id="path66" d="M 51.468173,132.80162 H 212.33955 V 147.8018 H 51.468173 Z" clip-path="url(#clipWmfPath1)" style="fill:none;stroke:#000000;stroke-width:0.0666686px;stroke-linecap:round;stroke-linejoin:round;stroke-miterlimit:4;stroke-dasharray:none;stroke-opacity:1" transform="rotate(180,119.87017,172.00209)"/>
  <path id="path68" d="M 57.135006,143.06841 H 206.67272 v -5.46674 H 57.135006 Z" clip-path="url(#clipWmfPath1)" style="fill:#ffffff;fill-opacity:1;fill-rule:nonzero;stroke:none" transform="rotate(180,119.87017,172.00209)"/>
  <path id="path70" d="M 57.135006,143.06841 H 206.67272 v -5.46674 H 57.135006 Z" clip-path="url(#clipWmfPath1)" style="fill:none;stroke:#000000;stroke-width:0.0666686px;stroke-linecap:round;stroke-linejoin:round;stroke-miterlimit:4;stroke-dasharray:none;stroke-opacity:1" transform="rotate(180,119.87017,172.00209)"/>
  <path id="path72" d="M 51.001493,166.93536 H 211.87287 v 15.00019 H 51.001493 Z" clip-path="url(#clipWmfPath1)" style="fill:#000000;fill-opacity:1;fill-rule:nonzero;stroke:none" transform="rotate(180,119.87017,172.00209)"/>
  <path id="path74" d="M 51.001493,166.93536 H 211.87287 v 15.00019 H 51.001493 Z" clip-path="url(#clipWmfPath1)" style="fill:none;stroke:#000000;stroke-width:0.0666686px;stroke-linecap:round;stroke-linejoin:round;stroke-miterlimit:4;stroke-dasharray:none;stroke-opacity:1" transform="rotate(180,119.87017,172.00209)"/>
  <path id="path76" d="M 56.668325,177.20216 H 206.20604 v -5.46674 H 56.668325 Z" clip-path="url(#clipWmfPath1)" style="fill:#ffffff;fill-opacity:1;fill-rule:nonzero;stroke:none" transform="rotate(180,119.87017,172.00209)"/>
  <path id="path78" d="M 56.668325,177.20216 H 206.20604 v -5.46674 H 56.668325 Z" clip-path="url(#clipWmfPath1)" style="fill:none;stroke:#000000;stroke-width:0.0666686px;stroke-linecap:round;stroke-linejoin:round;stroke-miterlimit:4;stroke-dasharray:none;stroke-opacity:1" transform="rotate(180,119.87017,172.00209)"/>
  <path id="path80" d="M 51.001493,202.5358 H 211.87287 v 15.00018 H 51.001493 Z" clip-path="url(#clipWmfPath1)" style="fill:#000000;fill-opacity:1;fill-rule:nonzero;stroke:none" transform="rotate(180,119.87017,172.00209)"/>
  <path id="path82" d="M 51.001493,202.5358 H 211.87287 v 15.00018 H 51.001493 Z" clip-path="url(#clipWmfPath1)" style="fill:none;stroke:#000000;stroke-width:0.0666686px;stroke-linecap:round;stroke-linejoin:round;stroke-miterlimit:4;stroke-dasharray:none;stroke-opacity:1" transform="rotate(180,119.87017,172.00209)"/>
  <path id="path84" d="M 56.668325,212.80259 H 206.20604 v -5.46673 H 56.668325 Z" clip-path="url(#clipWmfPath1)" style="fill:#ffffff;fill-opacity:1;fill-rule:nonzero;stroke:none" transform="rotate(180,119.87017,172.00209)"/>
  <path id="path86" d="M 56.668325,212.80259 H 206.20604 v -5.46673 H 56.668325 Z" clip-path="url(#clipWmfPath1)" style="fill:none;stroke:#000000;stroke-width:0.0666686px;stroke-linecap:round;stroke-linejoin:round;stroke-miterlimit:4;stroke-dasharray:none;stroke-opacity:1" transform="rotate(180,119.87017,172.00209)"/>
  <path id="path88" d="M 51.001493,238.13623 H 211.87287 v 15.00018 H 51.001493 Z" clip-path="url(#clipWmfPath1)" style="fill:#000000;fill-opacity:1;fill-rule:nonzero;stroke:none" transform="rotate(180,119.87017,172.00209)"/>
  <path id="path90" d="M 51.001493,238.13623 H 211.87287 v 15.00018 H 51.001493 Z" clip-path="url(#clipWmfPath1)" style="fill:none;stroke:#000000;stroke-width:0.0666686px;stroke-linecap:round;stroke-linejoin:round;stroke-miterlimit:4;stroke-dasharray:none;stroke-opacity:1" transform="rotate(180,119.87017,172.00209)"/>
  <path id="path92" d="M 56.668325,248.40302 H 206.20604 v -5.46673 H 56.668325 Z" clip-path="url(#clipWmfPath1)" style="fill:#ffffff;fill-opacity:1;fill-rule:nonzero;stroke:none" transform="rotate(180,119.87017,172.00209)"/>
  <path id="path94" d="M 56.668325,248.40302 H 206.20604 v -5.46673 H 56.668325 Z" clip-path="url(#clipWmfPath1)" style="fill:none;stroke:#000000;stroke-width:0.0666686px;stroke-linecap:round;stroke-linejoin:round;stroke-miterlimit:4;stroke-dasharray:none;stroke-opacity:1" transform="rotate(180,119.87017,172.00209)"/>
  <path id="path96" d="M 51.001493,274.00333 H 211.87287 v 15.00019 H 51.001493 Z" clip-path="url(#clipWmfPath1)" style="fill:#000000;fill-opacity:1;fill-rule:nonzero;stroke:none" transform="rotate(180,119.87017,172.00209)"/>
  <path id="path98" d="M 51.001493,274.00333 H 211.87287 v 15.00019 H 51.001493 Z" clip-path="url(#clipWmfPath1)" style="fill:none;stroke:#000000;stroke-width:0.0666686px;stroke-linecap:round;stroke-linejoin:round;stroke-miterlimit:4;stroke-dasharray:none;stroke-opacity:1" transform="rotate(180,119.87017,172.00209)"/>
  <path id="path100" d="M 56.668325,284.27013 H 206.20604 v -5.46674 H 56.668325 Z" clip-path="url(#clipWmfPath1)" style="fill:#ffffff;fill-opacity:1;fill-rule:nonzero;stroke:none" transform="rotate(180,119.87017,172.00209)"/>
  <path id="path102" d="M 56.668325,284.27013 H 206.20604 v -5.46674 H 56.668325 Z" clip-path="url(#clipWmfPath1)" style="fill:none;stroke:#000000;stroke-width:0.0666686px;stroke-linecap:round;stroke-linejoin:round;stroke-miterlimit:4;stroke-dasharray:none;stroke-opacity:1" transform="rotate(180,119.87017,172.00209)"/>
  <path id="path104" d="m 141.33747,274.87001 1.00003,0.13334 0.80002,0.46667 0.60002,0.66667 0.20001,0.73335 v 9.46678 l -0.20001,0.73334 -0.60002,0.60001 -0.80002,0.33333 -1.00003,0.13334 h -19.73391 l -1.00003,-0.13334 -0.80002,-0.4 -0.60002,-0.60001 -0.20001,-0.73334 v -9.40011 l 0.20001,-0.73335 0.60002,-0.66667 0.80002,-0.46667 1.00003,-0.13334 z" clip-path="url(#clipWmfPath1)" style="fill:#ffffff;fill-opacity:1;fill-rule:nonzero;stroke:none" transform="rotate(180,119.87017,172.00209)"/>
  <path id="path106" d="m 121.60356,274.33667 v 1.06668 h 19.66724 l 0.86669,0.0667 0.66669,0.4 0.46668,0.53334 0.13334,0.53334 v 9.33345 l -0.13334,0.53334 -0.40001,0.46667 -0.66669,0.26667 -0.93336,0.0667 h -19.66724 l -0.86669,-0.0667 -0.60002,-0.33333 -0.46668,-0.46668 -0.13334,-0.53334 v -9.26678 l 0.13334,-0.53334 0.46668,-0.53334 0.66669,-0.4 0.80002,-0.0667 h 19.66724 l 1.00003,0.13334 0.13334,-1.06668 -1.0667,-0.13334 h -19.80058 l -1.13337,0.2 -0.93336,0.53334 -0.73335,0.80001 -0.26668,0.93335 v 9.53345 l 0.26668,0.93334 0.73335,0.73334 1.00003,0.46668 1.0667,0.2 h 19.80058 l 1.13337,-0.2 0.93336,-0.40001 0.80002,-0.73334 0.26668,-0.93334 v -9.60012 l -0.26668,-0.93335 -0.73335,-0.80001 -0.93336,-0.53334 -1.20004,-0.2 z" clip-path="url(#clipWmfPath1)" style="fill:#000000;fill-opacity:1;fill-rule:nonzero;stroke:#000000;stroke-width:0.0666686px;stroke-linecap:round;stroke-linejoin:round;stroke-miterlimit:4;stroke-dasharray:none;stroke-opacity:1" transform="rotate(180,119.87017,172.00209)"/>
  <path id="path108" d="M 52.001522,238.0029 H 212.8729 v 15.00018 H 52.001522 Z" clip-path="url(#clipWmfPath1)" style="fill:#000000;fill-opacity:1;fill-rule:nonzero;stroke:none" transform="rotate(180,119.87017,172.00209)"/>
  <path id="path110" d="M 52.001522,238.0029 H 212.8729 v 15.00018 H 52.001522 Z" clip-path="url(#clipWmfPath1)" style="fill:none;stroke:#000000;stroke-width:0.0666686px;stroke-linecap:round;stroke-linejoin:round;stroke-miterlimit:4;stroke-dasharray:none;stroke-opacity:1" transform="rotate(180,119.87017,172.00209)"/>
  <path id="path112" d="M 57.668355,248.26969 H 207.20607 v -5.46674 H 57.668355 Z" clip-path="url(#clipWmfPath1)" style="fill:#ffffff;fill-opacity:1;fill-rule:nonzero;stroke:none" transform="rotate(180,119.87017,172.00209)"/>
  <path id="path114" d="M 57.668355,248.26969 H 207.20607 v -5.46674 H 57.668355 Z" clip-path="url(#clipWmfPath1)" style="fill:none;stroke:#000000;stroke-width:0.0666686px;stroke-linecap:round;stroke-linejoin:round;stroke-miterlimit:4;stroke-dasharray:none;stroke-opacity:1" transform="rotate(180,119.87017,172.00209)"/>
  <path id="path116" d="m 142.3375,238.86957 1.00003,0.13334 0.80002,0.46667 0.60002,0.66668 0.20001,0.73334 v 9.46678 l -0.20001,0.73334 -0.60002,0.60001 -0.80002,0.33334 -1.00003,0.13333 h -19.73391 l -1.00003,-0.13333 -0.80002,-0.40001 -0.60002,-0.60001 -0.20001,-0.73334 v -9.40011 l 0.20001,-0.73334 0.60002,-0.66668 0.80002,-0.46667 1.00003,-0.13334 z" clip-path="url(#clipWmfPath1)" style="fill:#ffffff;fill-opacity:1;fill-rule:nonzero;stroke:none" transform="rotate(180,119.87017,172.00209)"/>
  <path id="path118" d="m 122.60359,238.33623 v 1.06668 h 19.66724 l 0.86669,0.0667 0.66669,0.40001 0.46668,0.53334 0.13334,0.53334 v 9.33344 l -0.13334,0.53334 -0.40001,0.46667 -0.66669,0.26667 -0.93336,0.0667 h -19.66724 l -0.86669,-0.0667 -0.60002,-0.33333 -0.46668,-0.46668 -0.13334,-0.53334 v -9.26677 l 0.13334,-0.53334 0.46668,-0.53334 0.66669,-0.40001 0.80002,-0.0667 h 19.66724 l 1.00003,0.13334 0.13334,-1.06668 -1.0667,-0.13334 h -19.80058 l -1.13337,0.20001 -0.93336,0.53334 -0.73335,0.80001 -0.26668,0.93334 v 9.53345 l 0.26668,0.93334 0.73335,0.73335 1.00003,0.46667 1.0667,0.2 h 19.80058 l 1.13337,-0.2 0.93336,-0.40001 0.80002,-0.73334 0.26667,-0.93334 v -9.60012 l -0.26667,-0.93334 -0.73335,-0.80001 -0.93337,-0.53334 -1.20003,-0.20001 z" clip-path="url(#clipWmfPath1)" style="fill:#000000;fill-opacity:1;fill-rule:nonzero;stroke:#000000;stroke-width:0.0666686px;stroke-linecap:round;stroke-linejoin:round;stroke-miterlimit:4;stroke-dasharray:none;stroke-opacity:1" transform="rotate(180,119.87017,172.00209)"/>
  <path id="path120" d="M 51.001493,203.00247 H 211.87287 v 15.00018 H 51.001493 Z" clip-path="url(#clipWmfPath1)" style="fill:#000000;fill-opacity:1;fill-rule:nonzero;stroke:none" transform="rotate(180,119.87017,172.00209)"/>
  <path id="path122" d="M 51.001493,203.00247 H 211.87287 v 15.00018 H 51.001493 Z" clip-path="url(#clipWmfPath1)" style="fill:none;stroke:#000000;stroke-width:0.0666686px;stroke-linecap:round;stroke-linejoin:round;stroke-miterlimit:4;stroke-dasharray:none;stroke-opacity:1" transform="rotate(180,119.87017,172.00209)"/>
  <path id="path124" d="M 56.668325,213.26926 H 206.20604 v -5.46673 H 56.668325 Z" clip-path="url(#clipWmfPath1)" style="fill:#ffffff;fill-opacity:1;fill-rule:nonzero;stroke:none" transform="rotate(180,119.87017,172.00209)"/>
  <path id="path126" d="M 56.668325,213.26926 H 206.20604 v -5.46673 H 56.668325 Z" clip-path="url(#clipWmfPath1)" style="fill:none;stroke:#000000;stroke-width:0.0666686px;stroke-linecap:round;stroke-linejoin:round;stroke-miterlimit:4;stroke-dasharray:none;stroke-opacity:1" transform="rotate(180,119.87017,172.00209)"/>
  <path id="path128" d="m 141.33747,203.86915 1.00003,0.13333 0.80002,0.46668 0.60002,0.66667 0.20001,0.73334 v 9.46678 l -0.20001,0.73335 -0.60002,0.6 -0.80002,0.33334 -1.00003,0.13334 h -19.73391 l -1.00003,-0.13334 -0.80002,-0.4 -0.60002,-0.60001 -0.20001,-0.73334 v -9.40012 l 0.20001,-0.73334 0.60002,-0.66667 0.80002,-0.46668 1.00003,-0.13333 z" clip-path="url(#clipWmfPath1)" style="fill:#ffffff;fill-opacity:1;fill-rule:nonzero;stroke:none" transform="rotate(180,119.87017,172.00209)"/>
  <path id="path130" d="m 121.60356,203.33581 v 1.06668 h 19.66724 l 0.86669,0.0667 0.66669,0.4 0.46668,0.53334 0.13334,0.53334 v 9.33345 l -0.13334,0.53334 -0.40001,0.46667 -0.66669,0.26667 -0.93336,0.0667 h -19.66724 l -0.86669,-0.0667 -0.60002,-0.33334 -0.46668,-0.46667 -0.13334,-0.53334 v -9.26678 l 0.13334,-0.53334 0.46668,-0.53334 0.66669,-0.4 0.80002,-0.0667 h 19.66724 l 1.00003,0.13333 0.13334,-1.06668 -1.0667,-0.13333 h -19.80058 l -1.13337,0.2 -0.93336,0.53334 -0.73335,0.80001 -0.26668,0.93334 v 9.53345 l 0.26668,0.93335 0.73335,0.73334 1.00003,0.46667 1.0667,0.20001 h 19.80058 l 1.13337,-0.20001 0.93336,-0.4 0.80002,-0.73334 0.26668,-0.93335 v -9.60012 l -0.26668,-0.93334 -0.73335,-0.80001 -0.93336,-0.53334 -1.20004,-0.2 z" clip-path="url(#clipWmfPath1)" style="fill:#000000;fill-opacity:1;fill-rule:nonzero;stroke:#000000;stroke-width:0.0666686px;stroke-linecap:round;stroke-linejoin:round;stroke-miterlimit:4;stroke-dasharray:none;stroke-opacity:1" transform="rotate(180,119.87017,172.00209)"/>
  <path id="path132" d="M 51.001493,26.000316 H 211.87287 V 41.000499 H 51.001493 Z" clip-path="url(#clipWmfPath1)" style="fill:#000000;fill-opacity:1;fill-rule:nonzero;stroke:none" transform="rotate(180,119.87017,172.00209)"/>
  <path id="path134" d="M 51.001493,26.000316 H 211.87287 V 41.000499 H 51.001493 Z" clip-path="url(#clipWmfPath1)" style="fill:none;stroke:#000000;stroke-width:0.0666686px;stroke-linecap:round;stroke-linejoin:round;stroke-miterlimit:4;stroke-dasharray:none;stroke-opacity:1" transform="rotate(180,119.87017,172.00209)"/>
  <path id="path136" d="M 56.668325,36.267108 H 206.20604 V 30.800375 H 56.668325 Z" clip-path="url(#clipWmfPath1)" style="fill:#ffffff;fill-opacity:1;fill-rule:nonzero;stroke:none" transform="rotate(180,119.87017,172.00209)"/>
  <path id="path138" d="M 56.668325,36.267108 H 206.20604 V 30.800375 H 56.668325 Z" clip-path="url(#clipWmfPath1)" style="fill:none;stroke:#000000;stroke-width:0.0666686px;stroke-linecap:round;stroke-linejoin:round;stroke-miterlimit:4;stroke-dasharray:none;stroke-opacity:1" transform="rotate(180,119.87017,172.00209)"/>
  <path id="path140" d="m 141.33747,26.866994 1.00003,0.133335 0.80002,0.466672 0.60002,0.666675 0.20001,0.733342 V 38.3338 l -0.20001,0.733342 -0.60002,0.600007 -0.80002,0.333338 -1.00003,0.133335 h -19.73391 l -1.00003,-0.133335 -0.80002,-0.400005 -0.60002,-0.600007 -0.20001,-0.733343 v -9.400114 l 0.20001,-0.733342 0.60002,-0.666675 0.80002,-0.466672 1.00003,-0.133335 z" clip-path="url(#clipWmfPath1)" style="fill:#ffffff;fill-opacity:1;fill-rule:nonzero;stroke:none" transform="rotate(180,119.87017,172.00209)"/>
  <path id="path142" d="m 121.60356,26.333654 v 1.066679 h 19.66724 l 0.86669,0.06667 0.66669,0.400005 0.46668,0.53334 0.13334,0.533339 v 9.333447 l -0.13334,0.53334 -0.40001,0.466673 -0.66669,0.266669 -0.93336,0.06667 h -19.66724 l -0.86669,-0.06667 -0.60002,-0.333337 -0.46668,-0.466672 -0.13334,-0.53334 v -9.26678 l 0.13334,-0.533339 0.46668,-0.53334 0.66669,-0.400005 0.80002,-0.06667 h 19.66724 l 1.00003,0.133335 0.13334,-1.066679 -1.0667,-0.133335 h -19.80058 l -1.13337,0.200002 -0.93336,0.53334 -0.73335,0.80001 -0.26668,0.933344 v 9.53345 l 0.26668,0.933345 0.73335,0.733342 1.00003,0.466672 1.0667,0.200003 h 19.80058 l 1.13337,-0.200003 0.93336,-0.400005 0.80002,-0.733342 0.26668,-0.933345 V 28.80035 l -0.26668,-0.933344 -0.73335,-0.80001 -0.93336,-0.53334 -1.20004,-0.200002 z" clip-path="url(#clipWmfPath1)" style="fill:#000000;fill-opacity:1;fill-rule:nonzero;stroke:#000000;stroke-width:0.0666686px;stroke-linecap:round;stroke-linejoin:round;stroke-miterlimit:4;stroke-dasharray:none;stroke-opacity:1" transform="rotate(180,119.87017,172.00209)"/>
  <path id="path144" d="M 52.001522,62.000755 H 212.8729 V 77.000937 H 52.001522 Z" clip-path="url(#clipWmfPath1)" style="fill:#000000;fill-opacity:1;fill-rule:nonzero;stroke:none" transform="rotate(180,119.87017,172.00209)"/>
  <path id="path146" d="M 52.001522,62.000755 H 212.8729 V 77.000937 H 52.001522 Z" clip-path="url(#clipWmfPath1)" style="fill:none;stroke:#000000;stroke-width:0.0666686px;stroke-linecap:round;stroke-linejoin:round;stroke-miterlimit:4;stroke-dasharray:none;stroke-opacity:1" transform="rotate(180,119.87017,172.00209)"/>
  <path id="path148" d="M 57.668355,72.267546 H 207.20607 V 66.800813 H 57.668355 Z" clip-path="url(#clipWmfPath1)" style="fill:#ffffff;fill-opacity:1;fill-rule:nonzero;stroke:none" transform="rotate(180,119.87017,172.00209)"/>
  <path id="path150" d="M 57.668355,72.267546 H 207.20607 V 66.800813 H 57.668355 Z" clip-path="url(#clipWmfPath1)" style="fill:none;stroke:#000000;stroke-width:0.0666686px;stroke-linecap:round;stroke-linejoin:round;stroke-miterlimit:4;stroke-dasharray:none;stroke-opacity:1" transform="rotate(180,119.87017,172.00209)"/>
  <path id="path152" d="m 142.3375,62.867432 1.00003,0.133335 0.80002,0.466672 0.60002,0.666675 0.20001,0.733342 v 9.466782 l -0.20001,0.733342 -0.60002,0.600008 -0.80002,0.333337 -1.00003,0.133335 h -19.73391 l -1.00003,-0.133335 -0.80002,-0.400005 -0.60002,-0.600007 -0.20001,-0.733343 v -9.400114 l 0.20001,-0.733342 0.60002,-0.666675 0.80002,-0.466672 1.00003,-0.133335 z" clip-path="url(#clipWmfPath1)" style="fill:#ffffff;fill-opacity:1;fill-rule:nonzero;stroke:none" transform="rotate(180,119.87017,172.00209)"/>
  <path id="path154" d="m 122.60359,62.334092 v 1.06668 h 19.66724 l 0.86669,0.06667 0.66669,0.400005 0.46668,0.53334 0.13334,0.53334 v 9.333446 l -0.13334,0.53334 -0.40001,0.466673 -0.66669,0.26667 -0.93336,0.06667 h -19.66724 l -0.86669,-0.06667 -0.60002,-0.333338 -0.46668,-0.466672 -0.13334,-0.53334 v -9.266779 l 0.13334,-0.53334 0.46668,-0.53334 0.66669,-0.400005 0.80002,-0.06667 h 19.66724 l 1.00003,0.133335 0.13334,-1.06668 -1.0667,-0.133335 h -19.80058 l -1.13337,0.200002 -0.93336,0.53334 -0.73335,0.80001 -0.26668,0.933345 v 9.533449 l 0.26668,0.933345 0.73335,0.733342 1.00003,0.466672 1.0667,0.200003 h 19.80058 l 1.13337,-0.200003 0.93336,-0.400005 0.80002,-0.733342 0.26667,-0.933345 v -9.600116 l -0.26667,-0.933345 -0.73335,-0.80001 -0.93337,-0.53334 -1.20003,-0.200002 z" clip-path="url(#clipWmfPath1)" style="fill:#000000;fill-opacity:1;fill-rule:nonzero;stroke:#000000;stroke-width:0.0666686px;stroke-linecap:round;stroke-linejoin:round;stroke-miterlimit:4;stroke-dasharray:none;stroke-opacity:1" transform="rotate(180,119.87017,172.00209)"/>
  <g id="g156" clip-path="url(#clipWmfPath1)" transform="rotate(180,119.87017,172.00209)"/>
  <g id="g168" clip-path="url(#clipWmfPath1)" transform="translate(98.2834, 304.07038500000004)">
    <text id="text166" y="0" x="0" transform="translate(0,9)" style="font-style:normal;font-variant:normal;font-weight:400;font-size:10.6875px;line-height:125%;font-family:Helvetica-Narrow;text-align:start;letter-spacing:0px;word-spacing:0px;text-anchor:start;fill:#000000;fill-opacity:1;stroke:none" xml:space="preserve"><tspan id="tspan164" y="0" x="0"><tspan id="tspan158" style="font-style:normal;font-variant:normal;font-weight:400;font-size:10.6875px;font-family:Helvetica-Narrow;fill:#000000" dy="0" dx="0">S</tspan><tspan id="tspan160" style="font-style:normal;font-variant:normal;font-weight:400;font-size:10.6875px;font-family:Helvetica-Narrow;fill:#000000" dy="0" dx="-0.195026">L</tspan><tspan id="tspan162" style="font-style:normal;font-variant:normal;font-weight:400;font-size:10.6875px;font-family:Helvetica-Narrow;fill:#000000" dy="0" dx="0.0035250001">1</tspan></tspan></text>
  </g>
  <g id="g170" clip-path="url(#clipWmfPath1)" transform="rotate(180,119.87017,172.00209)"/>
  <g id="g182" clip-path="url(#clipWmfPath1)" transform="translate(97.35003999999998, 268.53661900000003)">
    <text id="text180" y="0" x="0" transform="translate(0,9)" style="font-style:normal;font-variant:normal;font-weight:400;font-size:10.6875px;line-height:125%;font-family:Helvetica-Narrow;text-align:start;letter-spacing:0px;word-spacing:0px;text-anchor:start;fill:#000000;fill-opacity:1;stroke:none" xml:space="preserve"><tspan id="tspan178" y="0" x="0"><tspan id="tspan172" style="font-style:normal;font-variant:normal;font-weight:400;font-size:10.6875px;font-family:Helvetica-Narrow;fill:#000000" dy="0" dx="0">S</tspan><tspan id="tspan174" style="font-style:normal;font-variant:normal;font-weight:400;font-size:10.6875px;font-family:Helvetica-Narrow;fill:#000000" dy="0" dx="-0.102346">L</tspan><tspan id="tspan176" style="font-style:normal;font-variant:normal;font-weight:400;font-size:10.6875px;font-family:Helvetica-Narrow;fill:#000000" dy="0" dx="0.0035250001">2</tspan></tspan></text>
  </g>
  <g id="g184" clip-path="url(#clipWmfPath1)" transform="rotate(180,119.87017,172.00209)"/>
  <g id="g196" clip-path="url(#clipWmfPath1)" transform="translate(98.75007999999997, 127.73491000000004)">
    <text id="text194" y="0" x="0" transform="translate(0,9)" style="font-style:normal;font-variant:normal;font-weight:400;font-size:10.6875px;line-height:125%;font-family:Helvetica-Narrow;text-align:start;letter-spacing:0px;word-spacing:0px;text-anchor:start;fill:#000000;fill-opacity:1;stroke:none" xml:space="preserve"><tspan id="tspan192" y="0" x="0"><tspan id="tspan186" style="font-style:normal;font-variant:normal;font-weight:400;font-size:10.6875px;font-family:Helvetica-Narrow;fill:#000000" dy="0" dx="0">S</tspan><tspan id="tspan188" style="font-style:normal;font-variant:normal;font-weight:400;font-size:10.6875px;font-family:Helvetica-Narrow;fill:#000000" dy="0" dx="-0.102346">L</tspan><tspan id="tspan190" style="font-style:normal;font-variant:normal;font-weight:400;font-size:10.6875px;font-family:Helvetica-Narrow;fill:#000000" dy="0" dx="0.0035250001">3</tspan></tspan></text>
  </g>
  <g id="g198" clip-path="url(#clipWmfPath1)" transform="rotate(180,119.87017,172.00209)"/>
  <g id="g210" clip-path="url(#clipWmfPath1)" transform="translate(97.35003999999996, 92.13447000000005)">
    <text id="text208" y="0" x="0" transform="translate(0,9)" style="font-style:normal;font-variant:normal;font-weight:400;font-size:10.6875px;line-height:125%;font-family:Helvetica-Narrow;text-align:start;letter-spacing:0px;word-spacing:0px;text-anchor:start;fill:#000000;fill-opacity:1;stroke:none" xml:space="preserve"><tspan id="tspan206" y="0" x="0"><tspan id="tspan200" style="font-style:normal;font-variant:normal;font-weight:400;font-size:10.6875px;font-family:Helvetica-Narrow;fill:#000000" dy="0" dx="0">S</tspan><tspan id="tspan202" style="font-style:normal;font-variant:normal;font-weight:400;font-size:10.6875px;font-family:Helvetica-Narrow;fill:#000000" dy="0" dx="-0.102346">L</tspan><tspan id="tspan204" style="font-style:normal;font-variant:normal;font-weight:400;font-size:10.6875px;font-family:Helvetica-Narrow;fill:#000000" dy="0" dx="0.0035250001">4</tspan></tspan></text>
  </g>
  <g id="g212" clip-path="url(#clipWmfPath1)" transform="rotate(180,119.87017,172.00209)"/>
  <g id="g224" clip-path="url(#clipWmfPath1)" transform="translate(99.28342999999997, 56.60070999999999)">
    <text id="text222" y="0" x="0" transform="translate(0,9)" style="font-style:normal;font-variant:normal;font-weight:400;font-size:10.6875px;line-height:125%;font-family:Helvetica-Narrow;text-align:start;letter-spacing:0px;word-spacing:0px;text-anchor:start;fill:#000000;fill-opacity:1;stroke:none" xml:space="preserve"><tspan id="tspan220" y="0" x="0"><tspan id="tspan214" style="font-style:normal;font-variant:normal;font-weight:400;font-size:10.6875px;font-family:Helvetica-Narrow;fill:#000000" dy="0" dx="0">S</tspan><tspan id="tspan216" style="font-style:normal;font-variant:normal;font-weight:400;font-size:10.6875px;font-family:Helvetica-Narrow;fill:#000000" dy="0" dx="-0.102346">L</tspan><tspan id="tspan218" style="font-style:normal;font-variant:normal;font-weight:400;font-size:10.6875px;font-family:Helvetica-Narrow;fill:#000000" dy="0" dx="0.0035250001">5</tspan></tspan></text>
  </g>
  <g id="g226" clip-path="url(#clipWmfPath1)" transform="rotate(180,119.87017,172.00209)"/>
  <g id="g242" clip-path="url(#clipWmfPath1)" transform="translate(92.07013, 286.53683800000005)">
    <text id="text240" y="0" x="0" transform="translate(0,9)" style="font-style:normal;font-variant:normal;font-weight:400;font-size:9.3125px;line-height:125%;font-family:Helvetica-Narrow;text-align:start;letter-spacing:0px;word-spacing:0px;text-anchor:start;fill:#000000;fill-opacity:1;stroke:none" xml:space="preserve"><tspan id="tspan238" y="0" x="0"><tspan id="tspan228" style="font-style:normal;font-variant:normal;font-weight:400;font-size:9.3125px;font-family:Helvetica-Narrow;fill:#000000" dy="0" dx="0">3</tspan><tspan id="tspan230" style="font-style:normal;font-variant:normal;font-weight:400;font-size:9.3125px;font-family:Helvetica-Narrow;fill:#000000" dy="0" dx="0.183584">4</tspan><tspan id="tspan232" style="font-style:normal;font-variant:normal;font-weight:400;font-size:9.3125px;font-family:Helvetica-Narrow;fill:#000000" dy="0" dx="0.183584">1</tspan><tspan id="tspan234" style="font-style:normal;font-variant:normal;font-weight:400;font-size:9.3125px;font-family:Helvetica-Narrow;fill:#000000" dy="0" dx="0.183584">2</tspan><tspan id="tspan236" style="font-style:normal;font-variant:normal;font-weight:400;font-size:9.3125px;font-family:Helvetica-Narrow;fill:#000000" dy="0" dx="0.183584">9</tspan></tspan></text>
  </g>
</svg>