<svg xmlns:dc="http://purl.org/dc/elements/1.1/" xmlns:cc="http://creativecommons.org/ns#" xmlns:rdf="http://www.w3.org/1999/02/22-rdf-syntax-ns#" xmlns:svg="http://www.w3.org/2000/svg" xmlns="http://www.w3.org/2000/svg" id="svg512" height="68.290002mm" width="152.16mm" version="1.0">
  <metadata id="metadata516">
    <rdf:RDF>
      <cc:Work rdf:about="">
        <dc:format>image/svg+xml</dc:format>
        <dc:type rdf:resource="http://purl.org/dc/dcmitype/StillImage"/>
      </cc:Work>
    </rdf:RDF>
  </metadata>
  <defs id="defs6">
    <clipPath id="clipWmfPath1" clipPathUnits="userSpaceOnUse">
      <path id="path2" d="M 0,0 L 574.98845,0 L 574.98845,257.99948 L 0,257.99948 z"/>
    </clipPath>
    <pattern y="0" x="0" height="6" width="6" patternUnits="userSpaceOnUse" id="WMFhbasepattern"/>
  </defs>
  <path id="path8" d="  M 543.72241,214.39956   L 509.65643,214.39956   L 509.65643,231.99953   L 356.79283,231.99953   L 356.79283,214.46623   L 11.999759,214.46623   L 11.999759,27.999943   L 543.72241,27.999943   L 543.72241,214.39956  z " clip-path="url(#clipWmfPath1)" style="fill:#e5e5e5;fill-rule:nonzero;fill-opacity:1;stroke:none;"/>
  <path id="path10" d="  M 544.05574,27.999943   L 543.38909,27.999943   L 543.38909,214.06623   L 509.3231,214.06623   L 509.3231,231.6662   L 357.12616,231.6662   L 357.12616,214.1329   L 12.333086,214.1329   L 12.333086,28.333276   L 543.38909,28.333276   L 543.38909,214.06623   L 509.65643,214.06623   L 509.65643,214.7329   L 544.05574,214.7329   L 544.05574,27.66661   L 11.666432,27.66661   L 11.666432,214.79956   L 356.45951,214.79956   L 356.45951,232.33286   L 509.98976,232.33286   L 509.98976,214.7329   L 544.05574,214.7329   L 544.05574,27.999943  z " clip-path="url(#clipWmfPath1)" style="fill:#000000;fill-rule:nonzero;fill-opacity:1;stroke:#000000;stroke-width:0.066665329px;stroke-linecap:round;stroke-linejoin:round;stroke-miterlimit:4;stroke-dasharray:none;stroke-opacity:1;"/>
  <path id="path12" d="  M 506.85649,232.26619   L 506.85649,220.26622   L 506.78982,219.26622   L 506.58983,218.33289   L 506.12317,217.66622   L 505.25652,217.39956   L 504.45654,217.73289   L 504.05654,218.39956   L 503.85655,219.99955   L 503.85655,232.26619   L 506.85649,232.26619  z " clip-path="url(#clipWmfPath1)" style="fill:#e5e5e5;fill-rule:nonzero;fill-opacity:1;stroke:none;"/>
  <path id="path14" d="  M 506.85649,232.26619   L 506.85649,220.26622   L 506.78982,219.26622   L 506.58983,218.33289   L 506.12317,217.66622   L 505.25652,217.39956   L 504.45654,217.73289   L 504.05654,218.39956   L 503.85655,219.99955   L 503.85655,232.26619   L 506.85649,232.26619  z " clip-path="url(#clipWmfPath1)" style="fill:none;stroke:#000000;stroke-width:0.066665329px;stroke-linecap:round;stroke-linejoin:round;stroke-miterlimit:4;stroke-dasharray:none;stroke-opacity:1;"/>
  <path id="path16" d="  M 502.12325,232.26619   L 502.12325,220.26622   L 502.05658,219.26622   L 501.85659,218.33289   L 501.38993,217.66622   L 500.52328,217.39956   L 499.7233,217.73289   L 499.32331,218.39956   L 499.12331,219.99955   L 499.12331,232.26619   L 502.12325,232.26619  z " clip-path="url(#clipWmfPath1)" style="fill:#e5e5e5;fill-rule:nonzero;fill-opacity:1;stroke:none;"/>
  <path id="path18" d="  M 502.12325,232.26619   L 502.12325,220.26622   L 502.05658,219.26622   L 501.85659,218.33289   L 501.38993,217.66622   L 500.52328,217.39956   L 499.7233,217.73289   L 499.32331,218.39956   L 499.12331,219.99955   L 499.12331,232.26619   L 502.12325,232.26619  z " clip-path="url(#clipWmfPath1)" style="fill:none;stroke:#000000;stroke-width:0.066665329px;stroke-linecap:round;stroke-linejoin:round;stroke-miterlimit:4;stroke-dasharray:none;stroke-opacity:1;"/>
  <path id="path20" d="  M 497.45668,232.26619   L 497.45668,220.26622   L 497.19002,218.33289   L 496.72336,217.66622   L 496.52336,217.46622   L 495.92337,217.39956   L 495.12339,217.73289   L 494.65673,218.39956   L 494.45674,219.99955   L 494.45674,232.26619   L 497.45668,232.26619  z " clip-path="url(#clipWmfPath1)" style="fill:#e5e5e5;fill-rule:nonzero;fill-opacity:1;stroke:none;"/>
  <path id="path22" d="  M 497.45668,232.26619   L 497.45668,220.26622   L 497.19002,218.33289   L 496.72336,217.66622   L 496.52336,217.46622   L 495.92337,217.39956   L 495.12339,217.73289   L 494.65673,218.39956   L 494.45674,219.99955   L 494.45674,232.26619   L 497.45668,232.26619  z " clip-path="url(#clipWmfPath1)" style="fill:none;stroke:#000000;stroke-width:0.066665329px;stroke-linecap:round;stroke-linejoin:round;stroke-miterlimit:4;stroke-dasharray:none;stroke-opacity:1;"/>
  <path id="path24" d="  M 492.7901,232.26619   L 492.7901,220.26622   L 492.52344,218.33289   L 492.05678,217.66622   L 491.85679,217.46622   L 491.2568,217.39956   L 490.45682,217.73289   L 490.05683,218.39956   L 489.85683,219.99955   L 489.85683,232.26619   L 492.7901,232.26619  z " clip-path="url(#clipWmfPath1)" style="fill:#e5e5e5;fill-rule:nonzero;fill-opacity:1;stroke:none;"/>
  <path id="path26" d="  M 492.7901,232.26619   L 492.7901,220.26622   L 492.52344,218.33289   L 492.05678,217.66622   L 491.85679,217.46622   L 491.2568,217.39956   L 490.45682,217.73289   L 490.05683,218.39956   L 489.85683,219.99955   L 489.85683,232.26619   L 492.7901,232.26619  z " clip-path="url(#clipWmfPath1)" style="fill:none;stroke:#000000;stroke-width:0.066665329px;stroke-linecap:round;stroke-linejoin:round;stroke-miterlimit:4;stroke-dasharray:none;stroke-opacity:1;"/>
  <path id="path28" d="  M 488.25686,232.26619   L 488.25686,220.26622   L 488.1902,219.26622   L 487.9902,218.33289   L 487.52354,217.66622   L 486.65689,217.39956   L 485.85691,217.73289   L 485.39025,218.39956   L 485.19026,219.99955   L 485.19026,232.26619   L 488.25686,232.26619  z " clip-path="url(#clipWmfPath1)" style="fill:#e5e5e5;fill-rule:nonzero;fill-opacity:1;stroke:none;"/>
  <path id="path30" d="  M 488.25686,232.26619   L 488.25686,220.26622   L 488.1902,219.26622   L 487.9902,218.33289   L 487.52354,217.66622   L 486.65689,217.39956   L 485.85691,217.73289   L 485.39025,218.39956   L 485.19026,219.99955   L 485.19026,232.26619   L 488.25686,232.26619  z " clip-path="url(#clipWmfPath1)" style="fill:none;stroke:#000000;stroke-width:0.066665329px;stroke-linecap:round;stroke-linejoin:round;stroke-miterlimit:4;stroke-dasharray:none;stroke-opacity:1;"/>
  <path id="path32" d="  M 483.45696,232.26619   L 483.45696,220.26622   L 483.39029,219.26622   L 483.1903,218.33289   L 482.72364,217.66622   L 481.85699,217.39956   L 481.05701,217.73289   L 480.65701,218.39956   L 480.45702,219.99955   L 480.45702,232.26619   L 483.45696,232.26619  z " clip-path="url(#clipWmfPath1)" style="fill:#e5e5e5;fill-rule:nonzero;fill-opacity:1;stroke:none;"/>
  <path id="path34" d="  M 483.45696,232.26619   L 483.45696,220.26622   L 483.39029,219.26622   L 483.1903,218.33289   L 482.72364,217.66622   L 481.85699,217.39956   L 481.05701,217.73289   L 480.65701,218.39956   L 480.45702,219.99955   L 480.45702,232.26619   L 483.45696,232.26619  z " clip-path="url(#clipWmfPath1)" style="fill:none;stroke:#000000;stroke-width:0.066665329px;stroke-linecap:round;stroke-linejoin:round;stroke-miterlimit:4;stroke-dasharray:none;stroke-opacity:1;"/>
  <path id="path36" d="  M 478.59039,232.26619   L 478.59039,220.26622   L 478.52372,219.26622   L 478.32373,218.33289   L 477.85707,217.66622   L 476.99042,217.39956   L 476.19044,217.73289   L 475.72378,218.39956   L 475.52378,219.99955   L 475.52378,232.26619   L 478.59039,232.26619  z " clip-path="url(#clipWmfPath1)" style="fill:#e5e5e5;fill-rule:nonzero;fill-opacity:1;stroke:none;"/>
  <path id="path38" d="  M 478.59039,232.26619   L 478.59039,220.26622   L 478.52372,219.26622   L 478.32373,218.33289   L 477.85707,217.66622   L 476.99042,217.39956   L 476.19044,217.73289   L 475.72378,218.39956   L 475.52378,219.99955   L 475.52378,232.26619   L 478.59039,232.26619  z " clip-path="url(#clipWmfPath1)" style="fill:none;stroke:#000000;stroke-width:0.066665329px;stroke-linecap:round;stroke-linejoin:round;stroke-miterlimit:4;stroke-dasharray:none;stroke-opacity:1;"/>
  <path id="path40" d="  M 473.85715,232.26619   L 473.85715,220.26622   L 473.79049,219.26622   L 473.59049,218.33289   L 473.12383,217.66622   L 472.25718,217.39956   L 471.4572,217.73289   L 470.99054,218.39956   L 470.79055,219.99955   L 470.79055,232.26619   L 473.85715,232.26619  z " clip-path="url(#clipWmfPath1)" style="fill:#e5e5e5;fill-rule:nonzero;fill-opacity:1;stroke:none;"/>
  <path id="path42" d="  M 473.85715,232.26619   L 473.85715,220.26622   L 473.79049,219.26622   L 473.59049,218.33289   L 473.12383,217.66622   L 472.25718,217.39956   L 471.4572,217.73289   L 470.99054,218.39956   L 470.79055,219.99955   L 470.79055,232.26619   L 473.85715,232.26619  z " clip-path="url(#clipWmfPath1)" style="fill:none;stroke:#000000;stroke-width:0.066665329px;stroke-linecap:round;stroke-linejoin:round;stroke-miterlimit:4;stroke-dasharray:none;stroke-opacity:1;"/>
  <path id="path44" d="  M 469.19058,232.26619   L 469.19058,220.26622   L 468.92392,218.33289   L 468.45726,217.66622   L 468.25726,217.46622   L 467.65727,217.39956   L 466.85729,217.73289   L 466.4573,218.39956   L 466.2573,219.99955   L 466.2573,232.26619   L 469.19058,232.26619  z " clip-path="url(#clipWmfPath1)" style="fill:#e5e5e5;fill-rule:nonzero;fill-opacity:1;stroke:none;"/>
  <path id="path46" d="  M 469.19058,232.26619   L 469.19058,220.26622   L 468.92392,218.33289   L 468.45726,217.66622   L 468.25726,217.46622   L 467.65727,217.39956   L 466.85729,217.73289   L 466.4573,218.39956   L 466.2573,219.99955   L 466.2573,232.26619   L 469.19058,232.26619  z " clip-path="url(#clipWmfPath1)" style="fill:none;stroke:#000000;stroke-width:0.066665329px;stroke-linecap:round;stroke-linejoin:round;stroke-miterlimit:4;stroke-dasharray:none;stroke-opacity:1;"/>
  <path id="path48" d="  M 464.32401,232.26619   L 464.32401,220.26622   L 464.05735,218.33289   L 463.65736,217.66622   L 463.45736,217.46622   L 462.85737,217.39956   L 461.99072,217.73289   L 461.52406,218.39956   L 461.32407,219.99955   L 461.32407,232.26619   L 464.32401,232.26619  z " clip-path="url(#clipWmfPath1)" style="fill:#e5e5e5;fill-rule:nonzero;fill-opacity:1;stroke:none;"/>
  <path id="path50" d="  M 464.32401,232.26619   L 464.32401,220.26622   L 464.05735,218.33289   L 463.65736,217.66622   L 463.45736,217.46622   L 462.85737,217.39956   L 461.99072,217.73289   L 461.52406,218.39956   L 461.32407,219.99955   L 461.32407,232.26619   L 464.32401,232.26619  z " clip-path="url(#clipWmfPath1)" style="fill:none;stroke:#000000;stroke-width:0.066665329px;stroke-linecap:round;stroke-linejoin:round;stroke-miterlimit:4;stroke-dasharray:none;stroke-opacity:1;"/>
  <path id="path52" d="  M 459.7241,232.26619   L 459.7241,220.26622   L 459.65744,219.26622   L 459.45744,218.33289   L 458.99078,217.66622   L 458.12413,217.39956   L 457.32415,217.73289   L 456.92416,218.39956   L 456.72416,219.99955   L 456.72416,232.26619   L 459.7241,232.26619  z " clip-path="url(#clipWmfPath1)" style="fill:#e5e5e5;fill-rule:nonzero;fill-opacity:1;stroke:none;"/>
  <path id="path54" d="  M 459.7241,232.26619   L 459.7241,220.26622   L 459.65744,219.26622   L 459.45744,218.33289   L 458.99078,217.66622   L 458.12413,217.39956   L 457.32415,217.73289   L 456.92416,218.39956   L 456.72416,219.99955   L 456.72416,232.26619   L 459.7241,232.26619  z " clip-path="url(#clipWmfPath1)" style="fill:none;stroke:#000000;stroke-width:0.066665329px;stroke-linecap:round;stroke-linejoin:round;stroke-miterlimit:4;stroke-dasharray:none;stroke-opacity:1;"/>
  <path id="path56" d="  M 455.12419,232.26619   L 455.12419,220.26622   L 454.85753,218.33289   L 454.45754,217.66622   L 454.25754,217.46622   L 453.65756,217.39956   L 452.79091,217.73289   L 452.32425,218.39956   L 452.12425,219.99955   L 452.12425,232.26619   L 455.12419,232.26619  z " clip-path="url(#clipWmfPath1)" style="fill:#e5e5e5;fill-rule:nonzero;fill-opacity:1;stroke:none;"/>
  <path id="path58" d="  M 455.12419,232.26619   L 455.12419,220.26622   L 454.85753,218.33289   L 454.45754,217.66622   L 454.25754,217.46622   L 453.65756,217.39956   L 452.79091,217.73289   L 452.32425,218.39956   L 452.12425,219.99955   L 452.12425,232.26619   L 455.12419,232.26619  z " clip-path="url(#clipWmfPath1)" style="fill:none;stroke:#000000;stroke-width:0.066665329px;stroke-linecap:round;stroke-linejoin:round;stroke-miterlimit:4;stroke-dasharray:none;stroke-opacity:1;"/>
  <path id="path60" d="  M 450.52429,232.26619   L 450.52429,220.26622   L 450.45762,219.26622   L 450.25762,218.33289   L 449.79097,217.66622   L 448.92432,217.39956   L 448.12433,217.73289   L 447.65768,218.39956   L 447.45768,219.99955   L 447.45768,232.26619   L 450.52429,232.26619  z " clip-path="url(#clipWmfPath1)" style="fill:#e5e5e5;fill-rule:nonzero;fill-opacity:1;stroke:none;"/>
  <path id="path62" d="  M 450.52429,232.26619   L 450.52429,220.26622   L 450.45762,219.26622   L 450.25762,218.33289   L 449.79097,217.66622   L 448.92432,217.39956   L 448.12433,217.73289   L 447.65768,218.39956   L 447.45768,219.99955   L 447.45768,232.26619   L 450.52429,232.26619  z " clip-path="url(#clipWmfPath1)" style="fill:none;stroke:#000000;stroke-width:0.066665329px;stroke-linecap:round;stroke-linejoin:round;stroke-miterlimit:4;stroke-dasharray:none;stroke-opacity:1;"/>
  <path id="path64" d="  M 445.65772,232.26619   L 445.65772,220.26622   L 445.59105,219.26622   L 445.39106,218.33289   L 444.9244,217.66622   L 444.05775,217.39956   L 443.25776,217.73289   L 442.85777,218.39956   L 442.65778,219.99955   L 442.65778,232.26619   L 445.65772,232.26619  z " clip-path="url(#clipWmfPath1)" style="fill:#e5e5e5;fill-rule:nonzero;fill-opacity:1;stroke:none;"/>
  <path id="path66" d="  M 445.65772,232.26619   L 445.65772,220.26622   L 445.59105,219.26622   L 445.39106,218.33289   L 444.9244,217.66622   L 444.05775,217.39956   L 443.25776,217.73289   L 442.85777,218.39956   L 442.65778,219.99955   L 442.65778,232.26619   L 445.65772,232.26619  z " clip-path="url(#clipWmfPath1)" style="fill:none;stroke:#000000;stroke-width:0.066665329px;stroke-linecap:round;stroke-linejoin:round;stroke-miterlimit:4;stroke-dasharray:none;stroke-opacity:1;"/>
  <path id="path68" d="  M 440.85781,232.26619   L 440.85781,220.26622   L 440.79115,219.26622   L 440.59115,218.33289   L 440.12449,217.66622   L 439.25785,217.39956   L 438.45786,217.73289   L 437.9912,218.39956   L 437.79121,219.99955   L 437.79121,232.26619   L 440.85781,232.26619  z " clip-path="url(#clipWmfPath1)" style="fill:#e5e5e5;fill-rule:nonzero;fill-opacity:1;stroke:none;"/>
  <path id="path70" d="  M 440.85781,232.26619   L 440.85781,220.26622   L 440.79115,219.26622   L 440.59115,218.33289   L 440.12449,217.66622   L 439.25785,217.39956   L 438.45786,217.73289   L 437.9912,218.39956   L 437.79121,219.99955   L 437.79121,232.26619   L 440.85781,232.26619  z " clip-path="url(#clipWmfPath1)" style="fill:none;stroke:#000000;stroke-width:0.066665329px;stroke-linecap:round;stroke-linejoin:round;stroke-miterlimit:4;stroke-dasharray:none;stroke-opacity:1;"/>
  <path id="path72" d="  M 435.92458,232.26619   L 435.92458,220.26622   L 435.85791,219.26622   L 435.65792,218.33289   L 435.19126,217.66622   L 434.32461,217.39956   L 433.52463,217.73289   L 433.12464,218.39956   L 432.92464,219.99955   L 432.92464,232.26619   L 435.92458,232.26619  z " clip-path="url(#clipWmfPath1)" style="fill:#e5e5e5;fill-rule:nonzero;fill-opacity:1;stroke:none;"/>
  <path id="path74" d="  M 435.92458,232.26619   L 435.92458,220.26622   L 435.85791,219.26622   L 435.65792,218.33289   L 435.19126,217.66622   L 434.32461,217.39956   L 433.52463,217.73289   L 433.12464,218.39956   L 432.92464,219.99955   L 432.92464,232.26619   L 435.92458,232.26619  z " clip-path="url(#clipWmfPath1)" style="fill:none;stroke:#000000;stroke-width:0.066665329px;stroke-linecap:round;stroke-linejoin:round;stroke-miterlimit:4;stroke-dasharray:none;stroke-opacity:1;"/>
  <path id="path76" d="  M 430.85801,232.26619   L 430.85801,220.26622   L 430.79135,219.26622   L 430.59135,218.33289   L 430.1247,217.66622   L 429.25805,217.39956   L 428.45806,217.73289   L 428.05807,218.39956   L 427.85807,219.99955   L 427.85807,232.26619   L 430.85801,232.26619  z " clip-path="url(#clipWmfPath1)" style="fill:#e5e5e5;fill-rule:nonzero;fill-opacity:1;stroke:none;"/>
  <path id="path78" d="  M 430.85801,232.26619   L 430.85801,220.26622   L 430.79135,219.26622   L 430.59135,218.33289   L 430.1247,217.66622   L 429.25805,217.39956   L 428.45806,217.73289   L 428.05807,218.39956   L 427.85807,219.99955   L 427.85807,232.26619   L 430.85801,232.26619  z " clip-path="url(#clipWmfPath1)" style="fill:none;stroke:#000000;stroke-width:0.066665329px;stroke-linecap:round;stroke-linejoin:round;stroke-miterlimit:4;stroke-dasharray:none;stroke-opacity:1;"/>
  <path id="path80" d="  M 426.25811,232.26619   L 426.25811,220.26622   L 426.19144,219.26622   L 425.99145,218.33289   L 425.52479,217.66622   L 424.65814,217.39956   L 423.85815,217.73289   L 423.45816,218.39956   L 423.25817,219.99955   L 423.25817,232.26619   L 426.25811,232.26619  z " clip-path="url(#clipWmfPath1)" style="fill:#e5e5e5;fill-rule:nonzero;fill-opacity:1;stroke:none;"/>
  <path id="path82" d="  M 426.25811,232.26619   L 426.25811,220.26622   L 426.19144,219.26622   L 425.99145,218.33289   L 425.52479,217.66622   L 424.65814,217.39956   L 423.85815,217.73289   L 423.45816,218.39956   L 423.25817,219.99955   L 423.25817,232.26619   L 426.25811,232.26619  z " clip-path="url(#clipWmfPath1)" style="fill:none;stroke:#000000;stroke-width:0.066665329px;stroke-linecap:round;stroke-linejoin:round;stroke-miterlimit:4;stroke-dasharray:none;stroke-opacity:1;"/>
  <path id="path84" d="  M 421.39154,232.26619   L 421.39154,220.26622   L 421.12488,218.33289   L 420.65822,217.66622   L 420.45822,217.46622   L 419.85823,217.39956   L 419.05825,217.73289   L 418.59159,218.39956   L 418.3916,219.99955   L 418.3916,232.26619   L 421.39154,232.26619  z " clip-path="url(#clipWmfPath1)" style="fill:#e5e5e5;fill-rule:nonzero;fill-opacity:1;stroke:none;"/>
  <path id="path86" d="  M 421.39154,232.26619   L 421.39154,220.26622   L 421.12488,218.33289   L 420.65822,217.66622   L 420.45822,217.46622   L 419.85823,217.39956   L 419.05825,217.73289   L 418.59159,218.39956   L 418.3916,219.99955   L 418.3916,232.26619   L 421.39154,232.26619  z " clip-path="url(#clipWmfPath1)" style="fill:none;stroke:#000000;stroke-width:0.066665329px;stroke-linecap:round;stroke-linejoin:round;stroke-miterlimit:4;stroke-dasharray:none;stroke-opacity:1;"/>
  <path id="path88" d="  M 416.52497,232.26619   L 416.52497,220.26622   L 416.4583,219.26622   L 416.25831,218.33289   L 415.79165,217.66622   L 414.925,217.39956   L 414.12502,217.73289   L 413.72502,218.39956   L 413.52503,219.99955   L 413.52503,232.26619   L 416.52497,232.26619  z " clip-path="url(#clipWmfPath1)" style="fill:#e5e5e5;fill-rule:nonzero;fill-opacity:1;stroke:none;"/>
  <path id="path90" d="  M 416.52497,232.26619   L 416.52497,220.26622   L 416.4583,219.26622   L 416.25831,218.33289   L 415.79165,217.66622   L 414.925,217.39956   L 414.12502,217.73289   L 413.72502,218.39956   L 413.52503,219.99955   L 413.52503,232.26619   L 416.52497,232.26619  z " clip-path="url(#clipWmfPath1)" style="fill:none;stroke:#000000;stroke-width:0.066665329px;stroke-linecap:round;stroke-linejoin:round;stroke-miterlimit:4;stroke-dasharray:none;stroke-opacity:1;"/>
  <path id="path92" d="  M 411.92506,232.26619   L 411.92506,220.26622   L 411.8584,219.26622   L 411.6584,218.33289   L 411.19174,217.66622   L 410.32509,217.39956   L 409.52511,217.73289   L 409.05845,218.39956   L 408.85846,219.99955   L 408.85846,232.26619   L 411.92506,232.26619  z " clip-path="url(#clipWmfPath1)" style="fill:#e5e5e5;fill-rule:nonzero;fill-opacity:1;stroke:none;"/>
  <path id="path94" d="  M 411.92506,232.26619   L 411.92506,220.26622   L 411.8584,219.26622   L 411.6584,218.33289   L 411.19174,217.66622   L 410.32509,217.39956   L 409.52511,217.73289   L 409.05845,218.39956   L 408.85846,219.99955   L 408.85846,232.26619   L 411.92506,232.26619  z " clip-path="url(#clipWmfPath1)" style="fill:none;stroke:#000000;stroke-width:0.066665329px;stroke-linecap:round;stroke-linejoin:round;stroke-miterlimit:4;stroke-dasharray:none;stroke-opacity:1;"/>
  <path id="path96" d="  M 407.32515,232.26619   L 407.32515,220.26622   L 407.25849,219.26622   L 407.05849,218.33289   L 406.59183,217.66622   L 405.72519,217.39956   L 404.9252,217.73289   L 404.52521,218.39956   L 404.32521,219.99955   L 404.32521,232.26619   L 407.32515,232.26619  z " clip-path="url(#clipWmfPath1)" style="fill:#e5e5e5;fill-rule:nonzero;fill-opacity:1;stroke:none;"/>
  <path id="path98" d="  M 407.32515,232.26619   L 407.32515,220.26622   L 407.25849,219.26622   L 407.05849,218.33289   L 406.59183,217.66622   L 405.72519,217.39956   L 404.9252,217.73289   L 404.52521,218.39956   L 404.32521,219.99955   L 404.32521,232.26619   L 407.32515,232.26619  z " clip-path="url(#clipWmfPath1)" style="fill:none;stroke:#000000;stroke-width:0.066665329px;stroke-linecap:round;stroke-linejoin:round;stroke-miterlimit:4;stroke-dasharray:none;stroke-opacity:1;"/>
  <path id="path100" d="  M 402.52525,232.26619   L 402.52525,220.26622   L 402.45858,219.26622   L 402.25859,218.33289   L 401.79193,217.66622   L 400.92528,217.39956   L 400.1253,217.73289   L 399.65864,218.39956   L 399.45864,219.99955   L 399.45864,232.26619   L 402.52525,232.26619  z " clip-path="url(#clipWmfPath1)" style="fill:#e5e5e5;fill-rule:nonzero;fill-opacity:1;stroke:none;"/>
  <path id="path102" d="  M 402.52525,232.26619   L 402.52525,220.26622   L 402.45858,219.26622   L 402.25859,218.33289   L 401.79193,217.66622   L 400.92528,217.39956   L 400.1253,217.73289   L 399.65864,218.39956   L 399.45864,219.99955   L 399.45864,232.26619   L 402.52525,232.26619  z " clip-path="url(#clipWmfPath1)" style="fill:none;stroke:#000000;stroke-width:0.066665329px;stroke-linecap:round;stroke-linejoin:round;stroke-miterlimit:4;stroke-dasharray:none;stroke-opacity:1;"/>
  <path id="path104" d="  M 397.65868,232.26619   L 397.65868,220.26622   L 397.59202,219.26622   L 397.39202,218.33289   L 396.92536,217.66622   L 396.05871,217.39956   L 395.25873,217.73289   L 394.85874,218.39956   L 394.65874,219.99955   L 394.65874,232.26619   L 397.65868,232.26619  z " clip-path="url(#clipWmfPath1)" style="fill:#e5e5e5;fill-rule:nonzero;fill-opacity:1;stroke:none;"/>
  <path id="path106" d="  M 397.65868,232.26619   L 397.65868,220.26622   L 397.59202,219.26622   L 397.39202,218.33289   L 396.92536,217.66622   L 396.05871,217.39956   L 395.25873,217.73289   L 394.85874,218.39956   L 394.65874,219.99955   L 394.65874,232.26619   L 397.65868,232.26619  z " clip-path="url(#clipWmfPath1)" style="fill:none;stroke:#000000;stroke-width:0.066665329px;stroke-linecap:round;stroke-linejoin:round;stroke-miterlimit:4;stroke-dasharray:none;stroke-opacity:1;"/>
  <path id="path108" d="  M 392.85878,232.26619   L 392.85878,220.26622   L 392.79211,219.26622   L 392.59212,218.33289   L 392.12546,217.66622   L 391.25881,217.39956   L 390.45883,217.73289   L 389.99217,218.39956   L 389.79217,219.99955   L 389.79217,232.26619   L 392.85878,232.26619  z " clip-path="url(#clipWmfPath1)" style="fill:#e5e5e5;fill-rule:nonzero;fill-opacity:1;stroke:none;"/>
  <path id="path110" d="  M 392.85878,232.26619   L 392.85878,220.26622   L 392.79211,219.26622   L 392.59212,218.33289   L 392.12546,217.66622   L 391.25881,217.39956   L 390.45883,217.73289   L 389.99217,218.39956   L 389.79217,219.99955   L 389.79217,232.26619   L 392.85878,232.26619  z " clip-path="url(#clipWmfPath1)" style="fill:none;stroke:#000000;stroke-width:0.066665329px;stroke-linecap:round;stroke-linejoin:round;stroke-miterlimit:4;stroke-dasharray:none;stroke-opacity:1;"/>
  <path id="path112" d="  M 388.1922,232.26619   L 388.1922,220.26622   L 388.12554,219.26622   L 387.92554,218.33289   L 387.45889,217.66622   L 386.59224,217.39956   L 385.79225,217.73289   L 385.3256,218.39956   L 385.1256,219.99955   L 385.1256,232.26619   L 388.1922,232.26619  z " clip-path="url(#clipWmfPath1)" style="fill:#e5e5e5;fill-rule:nonzero;fill-opacity:1;stroke:none;"/>
  <path id="path114" d="  M 388.1922,232.26619   L 388.1922,220.26622   L 388.12554,219.26622   L 387.92554,218.33289   L 387.45889,217.66622   L 386.59224,217.39956   L 385.79225,217.73289   L 385.3256,218.39956   L 385.1256,219.99955   L 385.1256,232.26619   L 388.1922,232.26619  z " clip-path="url(#clipWmfPath1)" style="fill:none;stroke:#000000;stroke-width:0.066665329px;stroke-linecap:round;stroke-linejoin:round;stroke-miterlimit:4;stroke-dasharray:none;stroke-opacity:1;"/>
  <path id="path116" d="  M 383.5923,232.26619   L 383.5923,220.26622   L 383.52563,219.26622   L 383.32564,218.33289   L 382.85898,217.66622   L 381.99233,217.39956   L 381.19234,217.73289   L 380.79235,218.39956   L 380.59236,219.99955   L 380.59236,232.26619   L 383.5923,232.26619  z " clip-path="url(#clipWmfPath1)" style="fill:#e5e5e5;fill-rule:nonzero;fill-opacity:1;stroke:none;"/>
  <path id="path118" d="  M 383.5923,232.26619   L 383.5923,220.26622   L 383.52563,219.26622   L 383.32564,218.33289   L 382.85898,217.66622   L 381.99233,217.39956   L 381.19234,217.73289   L 380.79235,218.39956   L 380.59236,219.99955   L 380.59236,232.26619   L 383.5923,232.26619  z " clip-path="url(#clipWmfPath1)" style="fill:none;stroke:#000000;stroke-width:0.066665329px;stroke-linecap:round;stroke-linejoin:round;stroke-miterlimit:4;stroke-dasharray:none;stroke-opacity:1;"/>
  <path id="path120" d="  M 378.99239,232.26619   L 378.99239,220.26622   L 378.92572,219.26622   L 378.72573,218.33289   L 378.25907,217.66622   L 377.39242,217.39956   L 376.59244,217.73289   L 376.12578,218.39956   L 375.92578,219.99955   L 375.92578,232.26619   L 378.99239,232.26619  z " clip-path="url(#clipWmfPath1)" style="fill:#e5e5e5;fill-rule:nonzero;fill-opacity:1;stroke:none;"/>
  <path id="path122" d="  M 378.99239,232.26619   L 378.99239,220.26622   L 378.92572,219.26622   L 378.72573,218.33289   L 378.25907,217.66622   L 377.39242,217.39956   L 376.59244,217.73289   L 376.12578,218.39956   L 375.92578,219.99955   L 375.92578,232.26619   L 378.99239,232.26619  z " clip-path="url(#clipWmfPath1)" style="fill:none;stroke:#000000;stroke-width:0.066665329px;stroke-linecap:round;stroke-linejoin:round;stroke-miterlimit:4;stroke-dasharray:none;stroke-opacity:1;"/>
  <path id="path124" d="  M 374.32582,232.26619   L 374.32582,220.26622   L 374.05915,218.33289   L 373.5925,217.66622   L 373.3925,217.46622   L 372.79251,217.39956   L 371.99253,217.73289   L 371.59254,218.39956   L 371.39254,219.99955   L 371.39254,232.26619   L 374.32582,232.26619  z " clip-path="url(#clipWmfPath1)" style="fill:#e5e5e5;fill-rule:nonzero;fill-opacity:1;stroke:none;"/>
  <path id="path126" d="  M 374.32582,232.26619   L 374.32582,220.26622   L 374.05915,218.33289   L 373.5925,217.66622   L 373.3925,217.46622   L 372.79251,217.39956   L 371.99253,217.73289   L 371.59254,218.39956   L 371.39254,219.99955   L 371.39254,232.26619   L 374.32582,232.26619  z " clip-path="url(#clipWmfPath1)" style="fill:none;stroke:#000000;stroke-width:0.066665329px;stroke-linecap:round;stroke-linejoin:round;stroke-miterlimit:4;stroke-dasharray:none;stroke-opacity:1;"/>
  <path id="path128" d="  M 369.65924,232.26619   L 369.65924,220.26622   L 369.39258,218.33289   L 368.92592,217.66622   L 368.72593,217.46622   L 368.12594,217.39956   L 367.32596,217.73289   L 366.92596,218.39956   L 366.72597,219.99955   L 366.72597,232.26619   L 369.65924,232.26619  z " clip-path="url(#clipWmfPath1)" style="fill:#e5e5e5;fill-rule:nonzero;fill-opacity:1;stroke:none;"/>
  <path id="path130" d="  M 369.65924,232.26619   L 369.65924,220.26622   L 369.39258,218.33289   L 368.92592,217.66622   L 368.72593,217.46622   L 368.12594,217.39956   L 367.32596,217.73289   L 366.92596,218.39956   L 366.72597,219.99955   L 366.72597,232.26619   L 369.65924,232.26619  z " clip-path="url(#clipWmfPath1)" style="fill:none;stroke:#000000;stroke-width:0.066665329px;stroke-linecap:round;stroke-linejoin:round;stroke-miterlimit:4;stroke-dasharray:none;stroke-opacity:1;"/>
  <path id="path132" d="  M 364.85934,232.26619   L 364.85934,220.26622   L 364.79267,219.26622   L 364.59268,218.33289   L 364.12602,217.66622   L 363.25937,217.39956   L 362.45939,217.73289   L 362.0594,218.39956   L 361.8594,219.99955   L 361.8594,232.26619   L 364.85934,232.26619  z " clip-path="url(#clipWmfPath1)" style="fill:#e5e5e5;fill-rule:nonzero;fill-opacity:1;stroke:none;"/>
  <path id="path134" d="  M 364.85934,232.26619   L 364.85934,220.26622   L 364.79267,219.26622   L 364.59268,218.33289   L 364.12602,217.66622   L 363.25937,217.39956   L 362.45939,217.73289   L 362.0594,218.39956   L 361.8594,219.99955   L 361.8594,232.26619   L 364.85934,232.26619  z " clip-path="url(#clipWmfPath1)" style="fill:none;stroke:#000000;stroke-width:0.066665329px;stroke-linecap:round;stroke-linejoin:round;stroke-miterlimit:4;stroke-dasharray:none;stroke-opacity:1;"/>
  <path id="path166" d="  M 32.999337,74.066516   L 32.999337,51.999894   L 198.06269,51.999894   L 198.06269,74.066516   L 32.999337,74.066516  z " clip-path="url(#clipWmfPath1)" style="fill:none;stroke:#000000;stroke-width:0.066665329px;stroke-linecap:round;stroke-linejoin:round;stroke-miterlimit:4;stroke-dasharray:none;stroke-opacity:1;"/>
  <path id="path168" d="  M 32.999337,111.06644   L 32.999337,88.999819   L 198.06269,88.999819   L 198.06269,111.06644   L 32.999337,111.06644  z " clip-path="url(#clipWmfPath1)" style="fill:#cccccc;fill-rule:evenodd;fill-opacity:1;stroke:none;"/>
  <path id="path170" d="  M 32.999337,111.06644   L 32.999337,88.999819   L 198.06269,88.999819   L 198.06269,111.06644   L 32.999337,111.06644  z " clip-path="url(#clipWmfPath1)" style="fill:none;stroke:#000000;stroke-width:0.066665329px;stroke-linecap:round;stroke-linejoin:round;stroke-miterlimit:4;stroke-dasharray:none;stroke-opacity:1;"/>
  <path id="path172" d="  M 32.999337,149.06636   L 32.999337,126.99974   L 198.06269,126.99974   L 198.06269,149.06636   L 32.999337,149.06636  z " clip-path="url(#clipWmfPath1)" style="fill:#cccccc;fill-rule:evenodd;fill-opacity:1;stroke:none;"/>
  <path id="path174" d="  M 32.999337,149.06636   L 32.999337,126.99974   L 198.06269,126.99974   L 198.06269,149.06636   L 32.999337,149.06636  z " clip-path="url(#clipWmfPath1)" style="fill:none;stroke:#000000;stroke-width:0.066665329px;stroke-linecap:round;stroke-linejoin:round;stroke-miterlimit:4;stroke-dasharray:none;stroke-opacity:1;"/>
  <path id="path176" d="  M 32.999337,186.06629   L 32.999337,163.99967   L 198.06269,163.99967   L 198.06269,186.06629   L 32.999337,186.06629  z " clip-path="url(#clipWmfPath1)" style="fill:#cccccc;fill-rule:evenodd;fill-opacity:1;stroke:none;"/>
  <path id="path178" d="  M 32.999337,186.06629   L 32.999337,163.99967   L 198.06269,163.99967   L 198.06269,186.06629   L 32.999337,186.06629  z " clip-path="url(#clipWmfPath1)" style="fill:none;stroke:#000000;stroke-width:0.066665329px;stroke-linecap:round;stroke-linejoin:round;stroke-miterlimit:4;stroke-dasharray:none;stroke-opacity:1;"/>
  <path id="path180" d="  M 446.19104,48.799901   L 460.85741,48.799901   L 460.85741,113.79977   L 446.19104,113.79977   L 446.19104,48.799901  z " clip-path="url(#clipWmfPath1)" style="fill:#ffffff;fill-rule:nonzero;fill-opacity:1;stroke:none;"/>
  <path id="path182" d="  M 446.19104,48.799901   L 460.85741,48.799901   L 460.85741,113.79977   L 446.19104,113.79977   L 446.19104,48.799901  z " clip-path="url(#clipWmfPath1)" style="fill:none;stroke:#000000;stroke-width:0.066665329px;stroke-linecap:round;stroke-linejoin:round;stroke-miterlimit:4;stroke-dasharray:none;stroke-opacity:1;"/>
  <path id="path184" d="  M 460.32409,50.999896   L 460.19076,51.733228   L 459.79077,52.333227   L 459.19078,52.733226   L 458.45746,52.866559   L 457.72414,52.733226   L 457.19082,52.333227   L 456.79083,51.733228   L 456.6575,50.999896   L 456.79083,50.266564   L 457.19082,49.733232   L 457.72414,49.333233   L 458.45746,49.1999   L 459.19078,49.333233   L 459.79077,49.733232   L 460.19076,50.266564   L 460.32409,50.999896  z " clip-path="url(#clipWmfPath1)" style="fill:#ffffff;fill-rule:nonzero;fill-opacity:1;stroke:none;"/>
  <path id="path186" d="  M 460.32409,50.999896   L 460.19076,51.733228   L 459.79077,52.333227   L 459.19078,52.733226   L 458.45746,52.866559   L 457.72414,52.733226   L 457.19082,52.333227   L 456.79083,51.733228   L 456.6575,50.999896   L 456.79083,50.266564   L 457.19082,49.733232   L 457.72414,49.333233   L 458.45746,49.1999   L 459.19078,49.333233   L 459.79077,49.733232   L 460.19076,50.266564   L 460.32409,50.999896  z " clip-path="url(#clipWmfPath1)" style="fill:none;stroke:#000000;stroke-width:0.066665329px;stroke-linecap:round;stroke-linejoin:round;stroke-miterlimit:4;stroke-dasharray:none;stroke-opacity:1;"/>
  <path id="path188" d="  M 457.65748,77.199843   L 449.7243,77.199843   L 449.7243,81.266501   L 457.65748,81.266501   L 457.65748,77.199843  z " clip-path="url(#clipWmfPath1)" style="fill:#000000;fill-rule:nonzero;fill-opacity:1;stroke:none;"/>
  <path id="path190" d="  M 457.65748,77.199843   L 449.7243,77.199843   L 449.7243,81.266501   L 457.65748,81.266501   L 457.65748,77.199843  z " clip-path="url(#clipWmfPath1)" style="fill:none;stroke:#000000;stroke-width:0.066665329px;stroke-linecap:round;stroke-linejoin:round;stroke-miterlimit:4;stroke-dasharray:none;stroke-opacity:1;"/>
  <path id="path192" d="  M 457.65748,82.933165   L 449.7243,82.933165   L 449.7243,86.999823   L 457.65748,86.999823   L 457.65748,82.933165  z " clip-path="url(#clipWmfPath1)" style="fill:#000000;fill-rule:nonzero;fill-opacity:1;stroke:none;"/>
  <path id="path194" d="  M 457.65748,82.933165   L 449.7243,82.933165   L 449.7243,86.999823   L 457.65748,86.999823   L 457.65748,82.933165  z " clip-path="url(#clipWmfPath1)" style="fill:none;stroke:#000000;stroke-width:0.066665329px;stroke-linecap:round;stroke-linejoin:round;stroke-miterlimit:4;stroke-dasharray:none;stroke-opacity:1;"/>
  <path id="path196" d="  M 457.65748,65.466534   L 449.7243,65.466534   L 449.7243,69.533192   L 457.65748,69.533192   L 457.65748,65.466534  z " clip-path="url(#clipWmfPath1)" style="fill:#000000;fill-rule:nonzero;fill-opacity:1;stroke:none;"/>
  <path id="path198" d="  M 457.65748,65.466534   L 449.7243,65.466534   L 449.7243,69.533192   L 457.65748,69.533192   L 457.65748,65.466534  z " clip-path="url(#clipWmfPath1)" style="fill:none;stroke:#000000;stroke-width:0.066665329px;stroke-linecap:round;stroke-linejoin:round;stroke-miterlimit:4;stroke-dasharray:none;stroke-opacity:1;"/>
  <path id="path200" d="  M 457.65748,71.133189   L 449.7243,71.133189   L 449.7243,75.199847   L 457.65748,75.199847   L 457.65748,71.133189  z " clip-path="url(#clipWmfPath1)" style="fill:#000000;fill-rule:nonzero;fill-opacity:1;stroke:none;"/>
  <path id="path202" d="  M 457.65748,71.133189   L 449.7243,71.133189   L 449.7243,75.199847   L 457.65748,75.199847   L 457.65748,71.133189  z " clip-path="url(#clipWmfPath1)" style="fill:none;stroke:#000000;stroke-width:0.066665329px;stroke-linecap:round;stroke-linejoin:round;stroke-miterlimit:4;stroke-dasharray:none;stroke-opacity:1;"/>
  <path id="path204" d="  M 457.65748,59.333213   L 449.7243,59.333213   L 449.7243,63.399871   L 457.65748,63.399871   L 457.65748,59.333213  z " clip-path="url(#clipWmfPath1)" style="fill:#000000;fill-rule:nonzero;fill-opacity:1;stroke:none;"/>
  <path id="path206" d="  M 457.65748,59.333213   L 449.7243,59.333213   L 449.7243,63.399871   L 457.65748,63.399871   L 457.65748,59.333213  z " clip-path="url(#clipWmfPath1)" style="fill:none;stroke:#000000;stroke-width:0.066665329px;stroke-linecap:round;stroke-linejoin:round;stroke-miterlimit:4;stroke-dasharray:none;stroke-opacity:1;"/>
  <path id="path208" d="  M 457.65748,53.333225   L 449.7243,53.333225   L 449.7243,57.399883   L 457.65748,57.399883   L 457.65748,53.333225  z " clip-path="url(#clipWmfPath1)" style="fill:#ffffff;fill-rule:nonzero;fill-opacity:1;stroke:none;"/>
  <path id="path210" d="  M 457.65748,53.333225   L 449.7243,53.333225   L 449.7243,57.399883   L 457.65748,57.399883   L 457.65748,53.333225  z " clip-path="url(#clipWmfPath1)" style="fill:none;stroke:#000000;stroke-width:0.066665329px;stroke-linecap:round;stroke-linejoin:round;stroke-miterlimit:4;stroke-dasharray:none;stroke-opacity:1;"/>
  <path id="path212" d="  M 457.65748,94.666474   L 449.7243,94.666474   L 449.7243,98.733132   L 457.65748,98.733132   L 457.65748,94.666474  z " clip-path="url(#clipWmfPath1)" style="fill:#000000;fill-rule:nonzero;fill-opacity:1;stroke:none;"/>
  <path id="path214" d="  M 457.65748,94.666474   L 449.7243,94.666474   L 449.7243,98.733132   L 457.65748,98.733132   L 457.65748,94.666474  z " clip-path="url(#clipWmfPath1)" style="fill:none;stroke:#000000;stroke-width:0.066665329px;stroke-linecap:round;stroke-linejoin:round;stroke-miterlimit:4;stroke-dasharray:none;stroke-opacity:1;"/>
  <path id="path216" d="  M 457.65748,100.3998   L 449.7243,100.3998   L 449.7243,104.46645   L 457.65748,104.46645   L 457.65748,100.3998  z " clip-path="url(#clipWmfPath1)" style="fill:#000000;fill-rule:nonzero;fill-opacity:1;stroke:none;"/>
  <path id="path218" d="  M 457.65748,100.3998   L 449.7243,100.3998   L 449.7243,104.46645   L 457.65748,104.46645   L 457.65748,100.3998  z " clip-path="url(#clipWmfPath1)" style="fill:none;stroke:#000000;stroke-width:0.066665329px;stroke-linecap:round;stroke-linejoin:round;stroke-miterlimit:4;stroke-dasharray:none;stroke-opacity:1;"/>
  <path id="path220" d="  M 457.65748,106.19978   L 449.7243,106.19978   L 449.7243,110.26644   L 457.65748,110.26644   L 457.65748,106.19978  z " clip-path="url(#clipWmfPath1)" style="fill:#000000;fill-rule:nonzero;fill-opacity:1;stroke:none;"/>
  <path id="path222" d="  M 457.65748,106.19978   L 449.7243,106.19978   L 449.7243,110.26644   L 457.65748,110.26644   L 457.65748,106.19978  z " clip-path="url(#clipWmfPath1)" style="fill:none;stroke:#000000;stroke-width:0.066665329px;stroke-linecap:round;stroke-linejoin:round;stroke-miterlimit:4;stroke-dasharray:none;stroke-opacity:1;"/>
  <path id="path224" d="  M 457.65748,88.59982   L 449.7243,88.59982   L 449.7243,92.666478   L 457.65748,92.666478   L 457.65748,88.59982  z " clip-path="url(#clipWmfPath1)" style="fill:#000000;fill-rule:nonzero;fill-opacity:1;stroke:none;"/>
  <path id="path226" d="  M 457.65748,88.59982   L 449.7243,88.59982   L 449.7243,92.666478   L 457.65748,92.666478   L 457.65748,88.59982  z " clip-path="url(#clipWmfPath1)" style="fill:none;stroke:#000000;stroke-width:0.066665329px;stroke-linecap:round;stroke-linejoin:round;stroke-miterlimit:4;stroke-dasharray:none;stroke-opacity:1;"/>
  <path id="path228" d="  M 433.12464,93.733143   L 433.12464,90.933148   L 432.9913,90.199817   L 432.59131,89.666484   L 431.92466,89.333152   L 431.19134,89.199819   L 397.59202,89.199819   L 396.8587,89.333152   L 396.25871,89.799817   L 395.79205,90.399816   L 395.65872,91.133148   L 395.65872,100.5998   L 395.79205,101.33313   L 396.25871,101.93313   L 396.8587,102.26646   L 397.59202,102.39979   L 431.19134,102.39979   L 431.92466,102.19979   L 432.59131,101.79979   L 432.9913,101.13313   L 433.12464,100.33313   L 433.12464,97.799801   L 445.19106,95.799805   L 433.12464,93.733143  z " clip-path="url(#clipWmfPath1)" style="fill:#ffffff;fill-rule:nonzero;fill-opacity:1;stroke:none;"/>
  <path id="path230" d="  M 445.12439,96.266471   L 445.72438,95.866472   L 445.25772,95.333139   L 433.65796,93.333143   L 433.65796,90.866482   L 433.45796,89.999817   L 432.92464,89.266485   L 432.05799,88.866486   L 431.25801,88.666486   L 397.52535,88.666486   L 396.6587,88.866486   L 395.92538,89.466485   L 395.32539,90.199817   L 395.1254,91.066481   L 395.1254,100.66646   L 395.32539,101.53313   L 395.92538,102.33313   L 396.6587,102.73312   L 397.52535,102.93312   L 431.25801,102.93312   L 432.12466,102.66646   L 432.9913,102.19979   L 433.45796,101.33313   L 433.65796,100.3998   L 433.65796,98.1998   L 445.25772,96.266471   L 445.25772,95.333139   L 433.65796,93.333143   L 433.65796,90.933148   L 433.12464,90.399816   L 432.59131,90.933148   L 432.59131,94.133142   L 442.12445,95.799805   L 432.59131,97.399802   L 432.59131,100.26646   L 432.52465,100.93313   L 432.19132,101.39979   L 431.72466,101.73313   L 431.12468,101.86646   L 397.65868,101.86646   L 397.05869,101.79979   L 396.59204,101.53313   L 396.25871,101.13313   L 396.19204,100.53313   L 396.19204,91.199814   L 396.25871,90.599816   L 396.59204,90.13315   L 397.05869,89.799817   L 397.65868,89.733151   L 431.12468,89.733151   L 431.79133,89.799817   L 432.25799,90.066483   L 432.52465,90.399816   L 432.59131,90.999815   L 432.59131,94.133142   L 445.12439,96.266471  z " clip-path="url(#clipWmfPath1)" style="fill:#000000;fill-rule:nonzero;fill-opacity:1;stroke:#000000;stroke-width:0.066665329px;stroke-linecap:round;stroke-linejoin:round;stroke-miterlimit:4;stroke-dasharray:none;stroke-opacity:1;"/>
  <g id="g232" clip-path="url(#clipWmfPath1)"/>
  <g id="g248" clip-path="url(#clipWmfPath1)">
    <text id="text246" y="0.000000" x="0.000000" transform="matrix(1.000000,-0.000000,0.000000,1.000000,398.725326,99.533131)" style="font-size:10.687500px;font-style:normal;font-variant:normal;font-weight:400;font-stretch:Condensed;line-height:125.000000%;letter-spacing:0px;word-spacing:0px;fill:#000000;fill-opacity:1;stroke:none;font-family:Helvetica-Narrow;text-align:start;text-anchor:start;" xml:space="preserve"><tspan id="tspan244" y="0.000000" x="0.000000"><tspan id="tspan234" style="fill:#000000;font-size:10.687500px;font-style:normal;font-variant:normal;font-weight:400;font-stretch:Condensed;font-family:Helvetica-Narrow;" dy="0.000000" dx="0.000000">S</tspan><tspan id="tspan236" style="fill:#000000;font-size:10.687500px;font-style:normal;font-variant:normal;font-weight:400;font-stretch:Condensed;font-family:Helvetica-Narrow;" dy="0.000000" dx="-0.195368">W</tspan><tspan id="tspan238" style="fill:#000000;font-size:10.687500px;font-style:normal;font-variant:normal;font-weight:400;font-stretch:Condensed;font-family:Helvetica-Narrow;" dy="0.000000" dx="0.004532">4</tspan><tspan id="tspan240" style="fill:#000000;font-size:10.687500px;font-style:normal;font-variant:normal;font-weight:400;font-stretch:Condensed;font-family:Helvetica-Narrow;" dy="0.000000" dx="0.003225">0</tspan><tspan id="tspan242" style="fill:#000000;font-size:10.687500px;font-style:normal;font-variant:normal;font-weight:400;font-stretch:Condensed;font-family:Helvetica-Narrow;" dy="0.000000" dx="0.003225">1</tspan></tspan></text>
  </g>
  <path id="path250" d="  M 284.32762,101.33313   L 307.39383,101.33313   L 307.39383,147.3997   L 284.32762,147.3997   L 284.32762,101.33313  z " clip-path="url(#clipWmfPath1)" style="fill:#bfbfbf;fill-rule:evenodd;fill-opacity:1;stroke:none;"/>
  <path id="path252" d="  M 284.32762,101.33313   L 307.39383,101.33313   L 307.39383,147.3997   L 284.32762,147.3997   L 284.32762,101.33313  z " clip-path="url(#clipWmfPath1)" style="fill:none;stroke:#000000;stroke-width:0.066665329px;stroke-linecap:round;stroke-linejoin:round;stroke-miterlimit:4;stroke-dasharray:none;stroke-opacity:1;"/>
  <path id="path254" d="  M 250.19498,101.33313   L 273.26118,101.33313   L 273.26118,147.3997   L 250.19498,147.3997   L 250.19498,101.33313  z " clip-path="url(#clipWmfPath1)" style="fill:#bfbfbf;fill-rule:evenodd;fill-opacity:1;stroke:none;"/>
  <path id="path256" d="  M 250.19498,101.33313   L 273.26118,101.33313   L 273.26118,147.3997   L 250.19498,147.3997   L 250.19498,101.33313  z " clip-path="url(#clipWmfPath1)" style="fill:none;stroke:#000000;stroke-width:0.066665329px;stroke-linecap:round;stroke-linejoin:round;stroke-miterlimit:4;stroke-dasharray:none;stroke-opacity:1;"/>
  <path id="path258" d="  M 223.92884,154.39969   L 246.99504,154.39969   L 246.99504,200.46626   L 223.92884,200.46626   L 223.92884,154.39969  z " clip-path="url(#clipWmfPath1)" style="fill:#bfbfbf;fill-rule:evenodd;fill-opacity:1;stroke:none;"/>
  <path id="path260" d="  M 223.92884,154.39969   L 246.99504,154.39969   L 246.99504,200.46626   L 223.92884,200.46626   L 223.92884,154.39969  z " clip-path="url(#clipWmfPath1)" style="fill:none;stroke:#000000;stroke-width:0.066665329px;stroke-linecap:round;stroke-linejoin:round;stroke-miterlimit:4;stroke-dasharray:none;stroke-opacity:1;"/>
  <path id="path262" d="  M 328.86006,82.933165   L 351.92627,82.933165   L 351.92627,128.99974   L 328.86006,128.99974   L 328.86006,82.933165  z " clip-path="url(#clipWmfPath1)" style="fill:#bfbfbf;fill-rule:evenodd;fill-opacity:1;stroke:none;"/>
  <path id="path264" d="  M 328.86006,82.933165   L 351.92627,82.933165   L 351.92627,128.99974   L 328.86006,128.99974   L 328.86006,82.933165  z " clip-path="url(#clipWmfPath1)" style="fill:none;stroke:#000000;stroke-width:0.066665329px;stroke-linecap:round;stroke-linejoin:round;stroke-miterlimit:4;stroke-dasharray:none;stroke-opacity:1;"/>
  <path id="path266" d="  M 328.86006,155.73302   L 351.92627,155.73302   L 351.92627,201.79959   L 328.86006,201.79959   L 328.86006,155.73302  z " clip-path="url(#clipWmfPath1)" style="fill:#bfbfbf;fill-rule:evenodd;fill-opacity:1;stroke:none;"/>
  <path id="path268" d="  M 328.86006,155.73302   L 351.92627,155.73302   L 351.92627,201.79959   L 328.86006,201.79959   L 328.86006,155.73302  z " clip-path="url(#clipWmfPath1)" style="fill:none;stroke:#000000;stroke-width:0.066665329px;stroke-linecap:round;stroke-linejoin:round;stroke-miterlimit:4;stroke-dasharray:none;stroke-opacity:1;"/>
  <path id="path270" d="  M 222.19554,209.59957   L 222.19554,80.33317   L 358.05948,80.33317   L 358.05948,209.59957   L 222.19554,209.59957  z " clip-path="url(#clipWmfPath1)" style="fill:none;stroke:#000000;stroke-width:0.066665329px;stroke-linecap:round;stroke-linejoin:round;stroke-miterlimit:4;stroke-dasharray:3,1;stroke-dashoffset:0;stroke-opacity:1;"/>
  <path id="path272" d="  M 370.79255,134.99973   L 370.79255,132.19973   L 370.92588,131.4664   L 371.39254,130.99973   L 371.99253,130.6664   L 372.72585,130.53307   L 395.85872,130.53307   L 396.59204,130.6664   L 397.25869,131.13307   L 397.65868,131.73307   L 397.79201,132.4664   L 397.79201,141.93304   L 397.65868,142.66638   L 397.25869,143.26638   L 396.59204,143.59971   L 395.85872,143.73304   L 372.72585,143.73304   L 371.99253,143.53304   L 371.39254,143.06638   L 370.92588,142.39971   L 370.79255,141.59971   L 370.79255,139.06638   L 358.72613,137.06639   L 370.79255,134.99973  z " clip-path="url(#clipWmfPath1)" style="fill:#ffffff;fill-rule:nonzero;fill-opacity:1;stroke:none;"/>
  <path id="path274" d="  M 358.65946,136.59972   L 358.19281,137.13305   L 358.79279,137.53305   L 371.32588,135.39972   L 371.32588,132.2664   L 371.39254,131.73307   L 371.72587,131.39973   L 372.19253,131.13307   L 372.79251,131.0664   L 395.79205,131.0664   L 396.39204,131.13307   L 396.8587,131.4664   L 397.19202,131.93306   L 397.25869,132.53306   L 397.25869,141.86638   L 397.19202,142.46638   L 396.92536,142.86638   L 396.4587,143.13304   L 395.79205,143.19971   L 372.79251,143.19971   L 372.19253,143.06638   L 371.79253,142.73304   L 371.39254,142.19971   L 371.32588,141.53305   L 371.32588,138.66638   L 361.79273,137.06639   L 371.32588,135.39972   L 371.32588,132.19973   L 370.79255,131.6664   L 370.25923,132.19973   L 370.25923,134.59973   L 358.65946,136.59972   L 358.65946,137.53305   L 370.25923,139.46638   L 370.25923,141.66638   L 370.45923,142.59971   L 370.99255,143.39971   L 371.79253,143.99971   L 372.65918,144.26637   L 395.92538,144.26637   L 396.72537,144.06637   L 397.59202,143.66637   L 398.12534,142.86638   L 398.32533,141.99971   L 398.32533,132.39973   L 398.12534,131.53307   L 397.65868,130.79973   L 396.79203,130.19974   L 395.92538,129.99974   L 372.65918,129.99974   L 371.79253,130.19974   L 371.05921,130.59973   L 370.45923,131.19973   L 370.25923,132.13306   L 370.25923,134.59973   L 358.65946,136.59972  z " clip-path="url(#clipWmfPath1)" style="fill:#000000;fill-rule:nonzero;fill-opacity:1;stroke:#000000;stroke-width:0.066665329px;stroke-linecap:round;stroke-linejoin:round;stroke-miterlimit:4;stroke-dasharray:none;stroke-opacity:1;"/>
  <g id="g276" clip-path="url(#clipWmfPath1)"/>
  <g id="g288" clip-path="url(#clipWmfPath1)">
    <text id="text286" y="0.000000" x="0.000000" transform="matrix(1.000000,-0.000000,0.000000,1.000000,374.392481,141.466379)" style="font-size:10.687500px;font-style:normal;font-variant:normal;font-weight:400;font-stretch:Condensed;line-height:125.000000%;letter-spacing:0px;word-spacing:0px;fill:#000000;fill-opacity:1;stroke:none;font-family:Helvetica-Narrow;text-align:start;text-anchor:start;" xml:space="preserve"><tspan id="tspan284" y="0.000000" x="0.000000"><tspan id="tspan278" style="fill:#000000;font-size:10.687500px;font-style:normal;font-variant:normal;font-weight:400;font-stretch:Condensed;font-family:Helvetica-Narrow;" dy="0.000000" dx="0.000000">E</tspan><tspan id="tspan280" style="fill:#000000;font-size:10.687500px;font-style:normal;font-variant:normal;font-weight:400;font-stretch:Condensed;font-family:Helvetica-Narrow;" dy="0.000000" dx="-0.102688">M</tspan><tspan id="tspan282" style="fill:#000000;font-size:10.687500px;font-style:normal;font-variant:normal;font-weight:400;font-stretch:Condensed;font-family:Helvetica-Narrow;" dy="0.000000" dx="-0.022885">S</tspan></tspan></text>
  </g>
  <g id="g290" clip-path="url(#clipWmfPath1)"/>
  <g id="g320" clip-path="url(#clipWmfPath1)">
    <text id="text306" y="0.000000" x="0.000000" transform="matrix(1.000000,-0.000000,0.000000,1.000000,165.796670,229.399533)" style="font-size:10.687500px;font-style:normal;font-variant:normal;font-weight:400;font-stretch:Condensed;line-height:125.000000%;letter-spacing:0px;word-spacing:0px;fill:#000000;fill-opacity:1;stroke:none;font-family:Helvetica-Narrow;text-align:start;text-anchor:start;" xml:space="preserve"><tspan id="tspan304" y="0.000000" x="0.000000"><tspan id="tspan292" style="fill:#000000;font-size:10.687500px;font-style:normal;font-variant:normal;font-weight:400;font-stretch:Condensed;font-family:Helvetica-Narrow;" dy="0.000000" dx="0.000000">M</tspan><tspan id="tspan294" style="fill:#000000;font-size:10.687500px;font-style:normal;font-variant:normal;font-weight:400;font-stretch:Condensed;font-family:Helvetica-Narrow;" dy="0.000000" dx="-0.022885">E</tspan><tspan id="tspan296" style="fill:#000000;font-size:10.687500px;font-style:normal;font-variant:normal;font-weight:400;font-stretch:Condensed;font-family:Helvetica-Narrow;" dy="0.000000" dx="-0.102688">M</tspan><tspan id="tspan298" style="fill:#000000;font-size:10.687500px;font-style:normal;font-variant:normal;font-weight:400;font-stretch:Condensed;font-family:Helvetica-Narrow;" dy="0.000000" dx="-0.022885">O</tspan><tspan id="tspan300" style="fill:#000000;font-size:10.687500px;font-style:normal;font-variant:normal;font-weight:400;font-stretch:Condensed;font-family:Helvetica-Narrow;" dy="0.000000" dx="-0.075270">R</tspan><tspan id="tspan302" style="fill:#000000;font-size:10.687500px;font-style:normal;font-variant:normal;font-weight:400;font-stretch:Condensed;font-family:Helvetica-Narrow;" dy="0.000000" dx="-0.116968">Y</tspan></tspan></text>
    <text id="text318" y="0.000000" x="50.865645" transform="matrix(1.000000,-0.000000,0.000000,1.000000,165.796670,229.399533)" style="font-size:10.687500px;font-style:normal;font-variant:normal;font-weight:400;font-stretch:Condensed;line-height:125.000000%;letter-spacing:0px;word-spacing:0px;fill:#000000;fill-opacity:1;stroke:none;font-family:Helvetica-Narrow;text-align:start;text-anchor:start;" xml:space="preserve"><tspan id="tspan316" y="0.000000" x="50.865645"><tspan id="tspan308" style="fill:#000000;font-size:10.687500px;font-style:normal;font-variant:normal;font-weight:400;font-stretch:Condensed;font-family:Helvetica-Narrow;" dy="0.000000" dx="0.000000">C</tspan><tspan id="tspan310" style="fill:#000000;font-size:10.687500px;font-style:normal;font-variant:normal;font-weight:400;font-stretch:Condensed;font-family:Helvetica-Narrow;" dy="0.000000" dx="-0.050303">A</tspan><tspan id="tspan312" style="fill:#000000;font-size:10.687500px;font-style:normal;font-variant:normal;font-weight:400;font-stretch:Condensed;font-family:Helvetica-Narrow;" dy="0.000000" dx="-0.102688">R</tspan><tspan id="tspan314" style="fill:#000000;font-size:10.687500px;font-style:normal;font-variant:normal;font-weight:400;font-stretch:Condensed;font-family:Helvetica-Narrow;" dy="0.000000" dx="-0.050303">D</tspan></tspan></text>
  </g>
  <path id="path322" d="  M 549.12231,76.799844   L 534.92259,76.799844   L 534.92259,72.599852   L 549.12231,72.599852   L 549.12231,76.799844  z " clip-path="url(#clipWmfPath1)" style="fill:#b2b2b2;fill-rule:nonzero;fill-opacity:1;stroke:none;"/>
  <path id="path324" d="  M 549.12231,76.799844   L 534.92259,76.799844   L 534.92259,72.599852   L 549.12231,72.599852   L 549.12231,76.799844  z " clip-path="url(#clipWmfPath1)" style="fill:none;stroke:#000000;stroke-width:0.066665329px;stroke-linecap:round;stroke-linejoin:round;stroke-miterlimit:4;stroke-dasharray:none;stroke-opacity:1;"/>
  <path id="path326" d="  M 549.12231,158.59968   L 534.92259,158.59968   L 534.92259,154.46635   L 549.12231,154.46635   L 549.12231,158.59968  z " clip-path="url(#clipWmfPath1)" style="fill:#b2b2b2;fill-rule:nonzero;fill-opacity:1;stroke:none;"/>
  <path id="path328" d="  M 549.12231,158.59968   L 534.92259,158.59968   L 534.92259,154.46635   L 549.12231,154.46635   L 549.12231,158.59968  z " clip-path="url(#clipWmfPath1)" style="fill:none;stroke:#000000;stroke-width:0.066665329px;stroke-linecap:round;stroke-linejoin:round;stroke-miterlimit:4;stroke-dasharray:none;stroke-opacity:1;"/>
  <path id="path330" d="  M 542.65577,159.99967   L 538.65585,159.99967   L 538.65585,151.99969   L 519.18957,151.99969   L 519.18957,79.733171   L 538.58918,79.733171   L 538.58918,71.066522   L 542.65577,71.066522   L 542.65577,159.99967  z " clip-path="url(#clipWmfPath1)" style="fill:#666666;fill-rule:nonzero;fill-opacity:1;stroke:none;"/>
  <path id="path332" d="  M 542.65577,159.99967   L 538.65585,159.99967   L 538.65585,151.99969   L 519.18957,151.99969   L 519.18957,79.733171   L 538.58918,79.733171   L 538.58918,71.066522   L 542.65577,71.066522   L 542.65577,159.99967  z " clip-path="url(#clipWmfPath1)" style="fill:none;stroke:#000000;stroke-width:0.066665329px;stroke-linecap:round;stroke-linejoin:round;stroke-miterlimit:4;stroke-dasharray:none;stroke-opacity:1;"/>
  <path id="path334" d="  M 540.92247,71.133189   L 542.85576,71.133189   L 542.85576,79.533172   L 552.12225,79.533172   L 553.18889,79.933171   L 553.72221,80.933169   L 553.72221,150.26636   L 553.18889,151.33303   L 552.18891,151.73302   L 542.38911,151.73302   L 542.38911,159.79967   L 540.92247,159.79967   L 540.92247,71.133189  z " clip-path="url(#clipWmfPath1)" style="fill:#cccccc;fill-rule:nonzero;fill-opacity:1;stroke:none;"/>
  <path id="path336" d="  M 540.92247,71.133189   L 542.85576,71.133189   L 542.85576,79.533172   L 552.12225,79.533172   L 553.18889,79.933171   L 553.72221,80.933169   L 553.72221,150.26636   L 553.18889,151.33303   L 552.18891,151.73302   L 542.38911,151.73302   L 542.38911,159.79967   L 540.92247,159.79967   L 540.92247,71.133189  z " clip-path="url(#clipWmfPath1)" style="fill:none;stroke:#000000;stroke-width:0.066665329px;stroke-linecap:round;stroke-linejoin:round;stroke-miterlimit:4;stroke-dasharray:none;stroke-opacity:1;"/>
  <path id="path338" d="  M 542.65577,71.066522   L 542.65577,159.99967  " clip-path="url(#clipWmfPath1)" style="fill:none;stroke:#000000;stroke-width:0.066665329px;stroke-linecap:round;stroke-linejoin:round;stroke-miterlimit:4;stroke-dasharray:none;stroke-opacity:1;"/>
  <path id="path340" d="  M 546.32236,108.86645   L 547.32234,108.99978   L 548.12233,109.46644   L 548.72231,110.13311   L 548.92231,110.86644   L 548.92231,120.33309   L 548.72231,121.06642   L 548.12233,121.66642   L 547.32234,121.99975   L 546.32236,122.13308   L 526.58942,122.13308   L 525.58944,121.99975   L 524.78946,121.59975   L 524.18947,120.99975   L 523.98948,120.26642   L 523.98948,110.86644   L 524.18947,110.13311   L 524.78946,109.46644   L 525.58944,108.99978   L 526.58942,108.86645   L 546.32236,108.86645  z " clip-path="url(#clipWmfPath1)" style="fill:#ffffff;fill-rule:nonzero;fill-opacity:1;stroke:none;"/>
  <path id="path342" d="  M 526.58942,108.33311   L 526.58942,109.39978   L 546.32236,109.39978   L 547.12235,109.46644   L 547.789,109.86644   L 548.25566,110.39978   L 548.38899,110.93311   L 548.38899,120.26642   L 548.25566,120.79975   L 547.85566,121.26642   L 547.18901,121.53309   L 546.32236,121.59975   L 526.58942,121.59975   L 525.72278,121.53309   L 525.12279,121.19975   L 524.65613,120.73309   L 524.5228,120.19976   L 524.5228,110.93311   L 524.65613,110.39978   L 525.12279,109.86644   L 525.78944,109.46644   L 526.58942,109.39978   L 546.32236,109.39978   L 547.25568,109.53311   L 547.38901,108.46645   L 546.32236,108.33311   L 526.58942,108.33311   L 525.38945,108.53311   L 524.45613,109.06644   L 523.72282,109.86644   L 523.45615,110.79977   L 523.45615,120.33309   L 523.72282,121.26642   L 524.45613,121.99975   L 525.45611,122.46642   L 526.58942,122.66642   L 546.32236,122.66642   L 547.45567,122.46642   L 548.38899,122.06642   L 549.18897,121.33309   L 549.45563,120.39976   L 549.45563,110.79977   L 549.18897,109.86644   L 548.45565,109.06644   L 547.52234,108.53311   L 546.32236,108.33311   L 526.58942,108.33311  z " clip-path="url(#clipWmfPath1)" style="fill:#000000;fill-rule:nonzero;fill-opacity:1;stroke:#000000;stroke-width:0.066665329px;stroke-linecap:round;stroke-linejoin:round;stroke-miterlimit:4;stroke-dasharray:none;stroke-opacity:1;"/>
  <g id="g344" clip-path="url(#clipWmfPath1)"/>
  <g id="g356" clip-path="url(#clipWmfPath1)">
    <text id="text354" y="0.000000" x="0.000000" transform="matrix(1.000000,-0.000000,0.000000,1.000000,527.922731,119.866423)" style="font-size:10.687500px;font-style:normal;font-variant:normal;font-weight:400;font-stretch:Condensed;line-height:125.000000%;letter-spacing:0px;word-spacing:0px;fill:#000000;fill-opacity:1;stroke:none;font-family:Helvetica-Narrow;text-align:start;text-anchor:start;" xml:space="preserve"><tspan id="tspan352" y="0.000000" x="0.000000"><tspan id="tspan346" style="fill:#000000;font-size:10.687500px;font-style:normal;font-variant:normal;font-weight:400;font-stretch:Condensed;font-family:Helvetica-Narrow;" dy="0.000000" dx="0.000000">C</tspan><tspan id="tspan348" style="fill:#000000;font-size:10.687500px;font-style:normal;font-variant:normal;font-weight:400;font-stretch:Condensed;font-family:Helvetica-Narrow;" dy="0.000000" dx="-0.050303">N</tspan><tspan id="tspan350" style="fill:#000000;font-size:10.687500px;font-style:normal;font-variant:normal;font-weight:400;font-stretch:Condensed;font-family:Helvetica-Narrow;" dy="0.000000" dx="-0.050303">1</tspan></tspan></text>
  </g>
  <g id="g358" clip-path="url(#clipWmfPath1)"/>
  <g id="g376" clip-path="url(#clipWmfPath1)">
    <text id="text374" y="0.000000" x="0.000000" transform="matrix(1.000000,-0.000000,0.000000,1.000000,489.923494,44.799909)" style="font-size:9.312500px;font-style:normal;font-variant:normal;font-weight:400;font-stretch:Condensed;line-height:125.000000%;letter-spacing:0px;word-spacing:0px;fill:#000000;fill-opacity:1;stroke:none;font-family:Helvetica-Narrow;text-align:start;text-anchor:start;" xml:space="preserve"><tspan id="tspan372" y="0.000000" x="0.000000"><tspan id="tspan360" style="fill:#000000;font-size:9.312500px;font-style:normal;font-variant:normal;font-weight:400;font-stretch:Condensed;font-family:Helvetica-Narrow;" dy="0.000000" dx="0.000000">3</tspan><tspan id="tspan362" style="fill:#000000;font-size:9.312500px;font-style:normal;font-variant:normal;font-weight:400;font-stretch:Condensed;font-family:Helvetica-Narrow;" dy="0.000000" dx="0.183314">4</tspan><tspan id="tspan364" style="fill:#000000;font-size:9.312500px;font-style:normal;font-variant:normal;font-weight:400;font-stretch:Condensed;font-family:Helvetica-Narrow;" dy="0.000000" dx="0.183314">1</tspan><tspan id="tspan366" style="fill:#000000;font-size:9.312500px;font-style:normal;font-variant:normal;font-weight:400;font-stretch:Condensed;font-family:Helvetica-Narrow;" dy="0.000000" dx="0.183314">2</tspan><tspan id="tspan368" style="fill:#000000;font-size:9.312500px;font-style:normal;font-variant:normal;font-weight:400;font-stretch:Condensed;font-family:Helvetica-Narrow;" dy="0.000000" dx="0.183314">9</tspan><tspan id="tspan370" style="fill:#000000;font-size:9.312500px;font-style:normal;font-variant:normal;font-weight:400;font-stretch:Condensed;font-family:Helvetica-Narrow;" dy="0.000000" dx="0.183314">B</tspan></tspan></text>
  </g>
  <path id="path378" d="  M 138.46389,168.19966   L 139.1972,168.33299   L 139.86386,168.79966   L 140.26385,169.39966   L 140.39718,170.13299   L 140.39718,179.59963   L 140.26385,180.33297   L 139.86386,180.93297   L 139.1972,181.33296   L 138.46389,181.4663   L 96.198068,181.4663   L 95.464749,181.33296   L 94.864762,180.93297   L 94.398104,180.2663   L 94.264774,179.53297   L 94.264774,170.13299   L 94.398104,169.39966   L 94.864762,168.79966   L 95.464749,168.33299   L 96.198068,168.19966   L 138.46389,168.19966  z " clip-path="url(#clipWmfPath1)" style="fill:#ffffff;fill-rule:nonzero;fill-opacity:1;stroke:none;"/>
  <path id="path380" d="  M 96.198068,167.66633   L 96.198068,168.73299   L 138.39722,168.73299   L 138.99721,168.79966   L 139.46387,169.13299   L 139.79719,169.59966   L 139.86386,170.19965   L 139.86386,179.53297   L 139.79719,180.13297   L 139.53053,180.53297   L 138.99721,180.8663   L 138.39722,180.93297   L 96.264733,180.93297   L 95.664745,180.8663   L 95.198088,180.53297   L 94.864762,180.0663   L 94.798096,179.4663   L 94.798096,170.19965   L 94.864762,169.59966   L 95.198088,169.13299   L 95.664745,168.79966   L 96.264733,168.73299   L 138.39722,168.73299   L 139.13054,168.79966   L 139.26387,167.86633   L 138.53055,167.66633   L 96.131403,167.66633   L 95.264754,167.86633   L 94.531435,168.46632   L 93.931447,169.19966   L 93.731451,170.06632   L 93.731451,179.59963   L 93.931447,180.4663   L 94.531435,181.33296   L 95.264754,181.79963   L 96.131403,181.99963   L 138.53055,181.99963   L 139.3972,181.79963   L 140.19718,181.33296   L 140.73051,180.53297   L 140.9305,179.6663   L 140.9305,170.06632   L 140.73051,169.19966   L 140.26385,168.46632   L 139.3972,167.86633   L 138.53055,167.66633   L 96.198068,167.66633  z " clip-path="url(#clipWmfPath1)" style="fill:#000000;fill-rule:nonzero;fill-opacity:1;stroke:#000000;stroke-width:0.066665329px;stroke-linecap:round;stroke-linejoin:round;stroke-miterlimit:4;stroke-dasharray:none;stroke-opacity:1;"/>
  <g id="g382" clip-path="url(#clipWmfPath1)"/>
  <g id="g402" clip-path="url(#clipWmfPath1)">
    <text id="text394" y="0.000000" x="0.000000" transform="matrix(1.000000,-0.000000,0.000000,1.000000,98.398024,179.266302)" style="font-size:10.687500px;font-style:normal;font-variant:normal;font-weight:400;font-stretch:Condensed;line-height:125.000000%;letter-spacing:0px;word-spacing:0px;fill:#000000;fill-opacity:1;stroke:none;font-family:Helvetica-Narrow;text-align:start;text-anchor:start;" xml:space="preserve"><tspan id="tspan392" y="0.000000" x="0.000000"><tspan id="tspan384" style="fill:#000000;font-size:10.687500px;font-style:normal;font-variant:normal;font-weight:400;font-stretch:Condensed;font-family:Helvetica-Narrow;" dy="0.000000" dx="0.000000">B</tspan><tspan id="tspan386" style="fill:#000000;font-size:10.687500px;font-style:normal;font-variant:normal;font-weight:400;font-stretch:Condensed;font-family:Helvetica-Narrow;" dy="0.000000" dx="-0.036022">A</tspan><tspan id="tspan388" style="fill:#000000;font-size:10.687500px;font-style:normal;font-variant:normal;font-weight:400;font-stretch:Condensed;font-family:Helvetica-Narrow;" dy="0.000000" dx="-0.036022">N</tspan><tspan id="tspan390" style="fill:#000000;font-size:10.687500px;font-style:normal;font-variant:normal;font-weight:400;font-stretch:Condensed;font-family:Helvetica-Narrow;" dy="0.000000" dx="0.016363">K</tspan></tspan></text>
    <text id="text400" y="0.000000" x="33.265999" transform="matrix(1.000000,-0.000000,0.000000,1.000000,98.398024,179.266302)" style="font-size:10.687500px;font-style:normal;font-variant:normal;font-weight:400;font-stretch:Condensed;line-height:125.000000%;letter-spacing:0px;word-spacing:0px;fill:#000000;fill-opacity:1;stroke:none;font-family:Helvetica-Narrow;text-align:start;text-anchor:start;" xml:space="preserve"><tspan id="tspan398" y="0.000000" x="33.265999"><tspan id="tspan396" style="fill:#000000;font-size:10.687500px;font-style:normal;font-variant:normal;font-weight:400;font-stretch:Condensed;font-family:Helvetica-Narrow;" dy="0.000000" dx="0.000000">0</tspan></tspan></text>
  </g>
  <path id="path404" d="  M 138.46389,132.13306   L 139.1972,132.2664   L 139.86386,132.73306   L 140.26385,133.33306   L 140.39718,134.06639   L 140.39718,143.53304   L 140.26385,144.26637   L 139.86386,144.86637   L 139.1972,145.26637   L 138.46389,145.3997   L 96.198068,145.3997   L 95.464749,145.26637   L 94.864762,144.86637   L 94.398104,144.19971   L 94.264774,143.46637   L 94.264774,134.06639   L 94.398104,133.33306   L 94.864762,132.73306   L 95.464749,132.2664   L 96.198068,132.13306   L 138.46389,132.13306  z " clip-path="url(#clipWmfPath1)" style="fill:#ffffff;fill-rule:nonzero;fill-opacity:1;stroke:none;"/>
  <path id="path406" d="  M 96.198068,131.59973   L 96.198068,132.6664   L 138.39722,132.6664   L 138.99721,132.73306   L 139.46387,133.0664   L 139.79719,133.53306   L 139.86386,134.13306   L 139.86386,143.46637   L 139.79719,144.06637   L 139.53053,144.46637   L 138.99721,144.79971   L 138.39722,144.86637   L 96.264733,144.86637   L 95.664745,144.79971   L 95.198088,144.46637   L 94.864762,143.99971   L 94.798096,143.39971   L 94.798096,134.13306   L 94.864762,133.53306   L 95.198088,133.0664   L 95.664745,132.73306   L 96.264733,132.6664   L 138.39722,132.6664   L 139.13054,132.73306   L 139.26387,131.79973   L 138.53055,131.59973   L 96.131403,131.59973   L 95.264754,131.79973   L 94.531435,132.39973   L 93.931447,133.13306   L 93.731451,133.99973   L 93.731451,143.53304   L 93.931447,144.39971   L 94.531435,145.26637   L 95.264754,145.73304   L 96.131403,145.93304   L 138.53055,145.93304   L 139.3972,145.73304   L 140.19718,145.26637   L 140.73051,144.46637   L 140.9305,143.59971   L 140.9305,133.99973   L 140.73051,133.13306   L 140.26385,132.39973   L 139.3972,131.79973   L 138.53055,131.59973   L 96.198068,131.59973  z " clip-path="url(#clipWmfPath1)" style="fill:#000000;fill-rule:nonzero;fill-opacity:1;stroke:#000000;stroke-width:0.066665329px;stroke-linecap:round;stroke-linejoin:round;stroke-miterlimit:4;stroke-dasharray:none;stroke-opacity:1;"/>
  <g id="g408" clip-path="url(#clipWmfPath1)"/>
  <g id="g428" clip-path="url(#clipWmfPath1)">
    <text id="text420" y="0.000000" x="0.000000" transform="matrix(1.000000,-0.000000,0.000000,1.000000,98.798016,143.533041)" style="font-size:10.687500px;font-style:normal;font-variant:normal;font-weight:400;font-stretch:Condensed;line-height:125.000000%;letter-spacing:0px;word-spacing:0px;fill:#000000;fill-opacity:1;stroke:none;font-family:Helvetica-Narrow;text-align:start;text-anchor:start;" xml:space="preserve"><tspan id="tspan418" y="0.000000" x="0.000000"><tspan id="tspan410" style="fill:#000000;font-size:10.687500px;font-style:normal;font-variant:normal;font-weight:400;font-stretch:Condensed;font-family:Helvetica-Narrow;" dy="0.000000" dx="0.000000">B</tspan><tspan id="tspan412" style="fill:#000000;font-size:10.687500px;font-style:normal;font-variant:normal;font-weight:400;font-stretch:Condensed;font-family:Helvetica-Narrow;" dy="0.000000" dx="-0.036022">A</tspan><tspan id="tspan414" style="fill:#000000;font-size:10.687500px;font-style:normal;font-variant:normal;font-weight:400;font-stretch:Condensed;font-family:Helvetica-Narrow;" dy="0.000000" dx="-0.036022">N</tspan><tspan id="tspan416" style="fill:#000000;font-size:10.687500px;font-style:normal;font-variant:normal;font-weight:400;font-stretch:Condensed;font-family:Helvetica-Narrow;" dy="0.000000" dx="0.016363">K</tspan></tspan></text>
    <text id="text426" y="0.000000" x="33.265999" transform="matrix(1.000000,-0.000000,0.000000,1.000000,98.798016,143.533041)" style="font-size:10.687500px;font-style:normal;font-variant:normal;font-weight:400;font-stretch:Condensed;line-height:125.000000%;letter-spacing:0px;word-spacing:0px;fill:#000000;fill-opacity:1;stroke:none;font-family:Helvetica-Narrow;text-align:start;text-anchor:start;" xml:space="preserve"><tspan id="tspan424" y="0.000000" x="33.265999"><tspan id="tspan422" style="fill:#000000;font-size:10.687500px;font-style:normal;font-variant:normal;font-weight:400;font-stretch:Condensed;font-family:Helvetica-Narrow;" dy="0.000000" dx="0.000000">1</tspan></tspan></text>
  </g>
  <path id="path430" d="  M 138.46389,93.466477   L 139.1972,93.59981   L 139.86386,94.066475   L 140.26385,94.666474   L 140.39718,95.399806   L 140.39718,104.86645   L 140.26385,105.59979   L 139.86386,106.19978   L 139.1972,106.59978   L 138.46389,106.73312   L 96.198068,106.73312   L 95.464749,106.59978   L 94.864762,106.19978   L 94.398104,105.53312   L 94.264774,104.79979   L 94.264774,95.399806   L 94.398104,94.666474   L 94.864762,94.066475   L 95.464749,93.59981   L 96.198068,93.466477   L 138.46389,93.466477  z " clip-path="url(#clipWmfPath1)" style="fill:#ffffff;fill-rule:nonzero;fill-opacity:1;stroke:none;"/>
  <path id="path432" d="  M 96.198068,92.933144   L 96.198068,93.999809   L 138.39722,93.999809   L 138.99721,94.066475   L 139.46387,94.399808   L 139.79719,94.866474   L 139.86386,95.466472   L 139.86386,104.79979   L 139.79719,105.39979   L 139.53053,105.79978   L 138.99721,106.13312   L 138.39722,106.19978   L 96.264733,106.19978   L 95.664745,106.13312   L 95.198088,105.79978   L 94.864762,105.33312   L 94.798096,104.73312   L 94.798096,95.466472   L 94.864762,94.866474   L 95.198088,94.399808   L 95.664745,94.066475   L 96.264733,93.999809   L 138.39722,93.999809   L 139.13054,94.066475   L 139.26387,93.133144   L 138.53055,92.933144   L 96.131403,92.933144   L 95.264754,93.133144   L 94.531435,93.733143   L 93.931447,94.466475   L 93.731451,95.333139   L 93.731451,104.86645   L 93.931447,105.73312   L 94.531435,106.59978   L 95.264754,107.06645   L 96.131403,107.26645   L 138.53055,107.26645   L 139.3972,107.06645   L 140.19718,106.59978   L 140.73051,105.79978   L 140.9305,104.93312   L 140.9305,95.333139   L 140.73051,94.466475   L 140.26385,93.733143   L 139.3972,93.133144   L 138.53055,92.933144   L 96.198068,92.933144  z " clip-path="url(#clipWmfPath1)" style="fill:#000000;fill-rule:nonzero;fill-opacity:1;stroke:#000000;stroke-width:0.066665329px;stroke-linecap:round;stroke-linejoin:round;stroke-miterlimit:4;stroke-dasharray:none;stroke-opacity:1;"/>
  <g id="g434" clip-path="url(#clipWmfPath1)"/>
  <g id="g454" clip-path="url(#clipWmfPath1)">
    <text id="text446" y="0.000000" x="0.000000" transform="matrix(1.000000,-0.000000,0.000000,1.000000,98.398024,104.533121)" style="font-size:10.687500px;font-style:normal;font-variant:normal;font-weight:400;font-stretch:Condensed;line-height:125.000000%;letter-spacing:0px;word-spacing:0px;fill:#000000;fill-opacity:1;stroke:none;font-family:Helvetica-Narrow;text-align:start;text-anchor:start;" xml:space="preserve"><tspan id="tspan444" y="0.000000" x="0.000000"><tspan id="tspan436" style="fill:#000000;font-size:10.687500px;font-style:normal;font-variant:normal;font-weight:400;font-stretch:Condensed;font-family:Helvetica-Narrow;" dy="0.000000" dx="0.000000">B</tspan><tspan id="tspan438" style="fill:#000000;font-size:10.687500px;font-style:normal;font-variant:normal;font-weight:400;font-stretch:Condensed;font-family:Helvetica-Narrow;" dy="0.000000" dx="-0.036022">A</tspan><tspan id="tspan440" style="fill:#000000;font-size:10.687500px;font-style:normal;font-variant:normal;font-weight:400;font-stretch:Condensed;font-family:Helvetica-Narrow;" dy="0.000000" dx="-0.036022">N</tspan><tspan id="tspan442" style="fill:#000000;font-size:10.687500px;font-style:normal;font-variant:normal;font-weight:400;font-stretch:Condensed;font-family:Helvetica-Narrow;" dy="0.000000" dx="0.016363">K</tspan></tspan></text>
    <text id="text452" y="0.000000" x="33.265999" transform="matrix(1.000000,-0.000000,0.000000,1.000000,98.398024,104.533121)" style="font-size:10.687500px;font-style:normal;font-variant:normal;font-weight:400;font-stretch:Condensed;line-height:125.000000%;letter-spacing:0px;word-spacing:0px;fill:#000000;fill-opacity:1;stroke:none;font-family:Helvetica-Narrow;text-align:start;text-anchor:start;" xml:space="preserve"><tspan id="tspan450" y="0.000000" x="33.265999"><tspan id="tspan448" style="fill:#000000;font-size:10.687500px;font-style:normal;font-variant:normal;font-weight:400;font-stretch:Condensed;font-family:Helvetica-Narrow;" dy="0.000000" dx="0.000000">2</tspan></tspan></text>
  </g>
  <path id="path456" d="  M 138.46389,55.399887   L 139.1972,55.53322   L 139.86386,55.999886   L 140.26385,56.599885   L 140.39718,57.333217   L 140.39718,66.799864   L 140.26385,67.533196   L 139.86386,68.133195   L 139.1972,68.533194   L 138.46389,68.666527   L 96.198068,68.666527   L 95.464749,68.533194   L 94.864762,68.133195   L 94.398104,67.466529   L 94.264774,66.733198   L 94.264774,57.333217   L 94.398104,56.599885   L 94.864762,55.999886   L 95.464749,55.53322   L 96.198068,55.399887   L 138.46389,55.399887  z " clip-path="url(#clipWmfPath1)" style="fill:#ffffff;fill-rule:nonzero;fill-opacity:1;stroke:none;"/>
  <path id="path458" d="  M 96.198068,54.866555   L 96.198068,55.93322   L 138.39722,55.93322   L 138.99721,55.999886   L 139.46387,56.333219   L 139.79719,56.799884   L 139.86386,57.399883   L 139.86386,66.733198   L 139.79719,67.333196   L 139.53053,67.733196   L 138.99721,68.066528   L 138.39722,68.133195   L 96.264733,68.133195   L 95.664745,68.066528   L 95.198088,67.733196   L 94.864762,67.26653   L 94.798096,66.666531   L 94.798096,57.399883   L 94.864762,56.799884   L 95.198088,56.333219   L 95.664745,55.999886   L 96.264733,55.93322   L 138.39722,55.93322   L 139.13054,55.999886   L 139.26387,55.066555   L 138.53055,54.866555   L 96.131403,54.866555   L 95.264754,55.066555   L 94.531435,55.666553   L 93.931447,56.399885   L 93.731451,57.26655   L 93.731451,66.799864   L 93.931447,67.666529   L 94.531435,68.533194   L 95.264754,68.99986   L 96.131403,69.199859   L 138.53055,69.199859   L 139.3972,68.99986   L 140.19718,68.533194   L 140.73051,67.733196   L 140.9305,66.866531   L 140.9305,57.26655   L 140.73051,56.399885   L 140.26385,55.666553   L 139.3972,55.066555   L 138.53055,54.866555   L 96.198068,54.866555  z " clip-path="url(#clipWmfPath1)" style="fill:#000000;fill-rule:nonzero;fill-opacity:1;stroke:#000000;stroke-width:0.066665329px;stroke-linecap:round;stroke-linejoin:round;stroke-miterlimit:4;stroke-dasharray:none;stroke-opacity:1;"/>
  <g id="g460" clip-path="url(#clipWmfPath1)"/>
  <g id="g480" clip-path="url(#clipWmfPath1)">
    <text id="text472" y="0.000000" x="0.000000" transform="matrix(1.000000,-0.000000,0.000000,1.000000,98.798016,66.399865)" style="font-size:10.687500px;font-style:normal;font-variant:normal;font-weight:400;font-stretch:Condensed;line-height:125.000000%;letter-spacing:0px;word-spacing:0px;fill:#000000;fill-opacity:1;stroke:none;font-family:Helvetica-Narrow;text-align:start;text-anchor:start;" xml:space="preserve"><tspan id="tspan470" y="0.000000" x="0.000000"><tspan id="tspan462" style="fill:#000000;font-size:10.687500px;font-style:normal;font-variant:normal;font-weight:400;font-stretch:Condensed;font-family:Helvetica-Narrow;" dy="0.000000" dx="0.000000">B</tspan><tspan id="tspan464" style="fill:#000000;font-size:10.687500px;font-style:normal;font-variant:normal;font-weight:400;font-stretch:Condensed;font-family:Helvetica-Narrow;" dy="0.000000" dx="-0.036022">A</tspan><tspan id="tspan466" style="fill:#000000;font-size:10.687500px;font-style:normal;font-variant:normal;font-weight:400;font-stretch:Condensed;font-family:Helvetica-Narrow;" dy="0.000000" dx="-0.036022">N</tspan><tspan id="tspan468" style="fill:#000000;font-size:10.687500px;font-style:normal;font-variant:normal;font-weight:400;font-stretch:Condensed;font-family:Helvetica-Narrow;" dy="0.000000" dx="0.016363">K</tspan></tspan></text>
    <text id="text478" y="0.000000" x="33.265999" transform="matrix(1.000000,-0.000000,0.000000,1.000000,98.798016,66.399865)" style="font-size:10.687500px;font-style:normal;font-variant:normal;font-weight:400;font-stretch:Condensed;line-height:125.000000%;letter-spacing:0px;word-spacing:0px;fill:#000000;fill-opacity:1;stroke:none;font-family:Helvetica-Narrow;text-align:start;text-anchor:start;" xml:space="preserve"><tspan id="tspan476" y="0.000000" x="33.265999"><tspan id="tspan474" style="fill:#000000;font-size:10.687500px;font-style:normal;font-variant:normal;font-weight:400;font-stretch:Condensed;font-family:Helvetica-Narrow;" dy="0.000000" dx="0.000000">3</tspan></tspan></text>
  </g>
  <path id="path482" d="  M 235.99526,73.066518   L 235.99526,50.999896   L 401.05861,50.999896   L 401.05861,73.066518   L 235.99526,73.066518  z " clip-path="url(#clipWmfPath1)" style="fill:#cccccc;fill-rule:evenodd;fill-opacity:1;stroke:none;"/>
  <path id="path484" d="  M 235.99526,73.066518   L 235.99526,50.999896   L 401.05861,50.999896   L 401.05861,73.066518   L 235.99526,73.066518  z " clip-path="url(#clipWmfPath1)" style="fill:none;stroke:#000000;stroke-width:0.066665329px;stroke-linecap:round;stroke-linejoin:round;stroke-miterlimit:4;stroke-dasharray:none;stroke-opacity:1;"/>
  <path id="path486" d="  M 339.65985,55.333221   L 340.39316,55.466554   L 341.05982,55.93322   L 341.45981,56.533218   L 341.59314,57.26655   L 341.59314,66.733198   L 341.45981,67.466529   L 341.05982,68.066528   L 340.39316,68.466527   L 339.65985,68.59986   L 297.39403,68.59986   L 296.66071,68.466527   L 296.06072,68.066528   L 295.59406,67.399863   L 295.46073,66.666531   L 295.46073,57.26655   L 295.59406,56.533218   L 296.06072,55.93322   L 296.66071,55.466554   L 297.39403,55.333221   L 339.65985,55.333221  z " clip-path="url(#clipWmfPath1)" style="fill:#ffffff;fill-rule:nonzero;fill-opacity:1;stroke:none;"/>
  <path id="path488" d="  M 297.39403,54.799889   L 297.39403,55.866553   L 339.59318,55.866553   L 340.19317,55.93322   L 340.65983,56.266552   L 340.99315,56.733218   L 341.05982,57.333217   L 341.05982,66.666531   L 340.99315,67.26653   L 340.72649,67.666529   L 340.19317,67.999862   L 339.59318,68.066528   L 297.46069,68.066528   L 296.8607,67.999862   L 296.39405,67.666529   L 296.06072,67.199863   L 295.99406,66.599865   L 295.99406,57.333217   L 296.06072,56.733218   L 296.39405,56.266552   L 296.8607,55.93322   L 297.46069,55.866553   L 339.59318,55.866553   L 340.3265,55.93322   L 340.45983,54.999888   L 339.72651,54.799889   L 297.32736,54.799889   L 296.46071,54.999888   L 295.72739,55.599887   L 295.12741,56.333219   L 294.92741,57.199884   L 294.92741,66.733198   L 295.12741,67.599862   L 295.72739,68.466527   L 296.46071,68.933193   L 297.32736,69.133193   L 339.72651,69.133193   L 340.59316,68.933193   L 341.39314,68.466527   L 341.92647,67.666529   L 342.12646,66.799864   L 342.12646,57.199884   L 341.92647,56.333219   L 341.45981,55.599887   L 340.59316,54.999888   L 339.72651,54.799889   L 297.39403,54.799889  z " clip-path="url(#clipWmfPath1)" style="fill:#000000;fill-rule:nonzero;fill-opacity:1;stroke:#000000;stroke-width:0.066665329px;stroke-linecap:round;stroke-linejoin:round;stroke-miterlimit:4;stroke-dasharray:none;stroke-opacity:1;"/>
  <g id="g490" clip-path="url(#clipWmfPath1)"/>
  <g id="g510" clip-path="url(#clipWmfPath1)">
    <text id="text502" y="0.000000" x="0.000000" transform="matrix(1.000000,-0.000000,0.000000,1.000000,299.593983,65.866533)" style="font-size:10.687500px;font-style:normal;font-variant:normal;font-weight:400;font-stretch:Condensed;line-height:125.000000%;letter-spacing:0px;word-spacing:0px;fill:#000000;fill-opacity:1;stroke:none;font-family:Helvetica-Narrow;text-align:start;text-anchor:start;" xml:space="preserve"><tspan id="tspan500" y="0.000000" x="0.000000"><tspan id="tspan492" style="fill:#000000;font-size:10.687500px;font-style:normal;font-variant:normal;font-weight:400;font-stretch:Condensed;font-family:Helvetica-Narrow;" dy="0.000000" dx="0.000000">B</tspan><tspan id="tspan494" style="fill:#000000;font-size:10.687500px;font-style:normal;font-variant:normal;font-weight:400;font-stretch:Condensed;font-family:Helvetica-Narrow;" dy="0.000000" dx="-0.102688">A</tspan><tspan id="tspan496" style="fill:#000000;font-size:10.687500px;font-style:normal;font-variant:normal;font-weight:400;font-stretch:Condensed;font-family:Helvetica-Narrow;" dy="0.000000" dx="-0.102688">N</tspan><tspan id="tspan498" style="fill:#000000;font-size:10.687500px;font-style:normal;font-variant:normal;font-weight:400;font-stretch:Condensed;font-family:Helvetica-Narrow;" dy="0.000000" dx="-0.050303">K</tspan></tspan></text>
    <text id="text508" y="0.000000" x="32.999337" transform="matrix(1.000000,-0.000000,0.000000,1.000000,299.593983,65.866533)" style="font-size:10.687500px;font-style:normal;font-variant:normal;font-weight:400;font-stretch:Condensed;line-height:125.000000%;letter-spacing:0px;word-spacing:0px;fill:#000000;fill-opacity:1;stroke:none;font-family:Helvetica-Narrow;text-align:start;text-anchor:start;" xml:space="preserve"><tspan id="tspan506" y="0.000000" x="32.999337"><tspan id="tspan504" style="fill:#000000;font-size:10.687500px;font-style:normal;font-variant:normal;font-weight:400;font-stretch:Condensed;font-family:Helvetica-Narrow;" dy="0.000000" dx="0.000000">4</tspan></tspan></text>
  </g>
</svg>