<svg xmlns:dc="http://purl.org/dc/elements/1.1/" xmlns:cc="http://creativecommons.org/ns#" xmlns:rdf="http://www.w3.org/1999/02/22-rdf-syntax-ns#" xmlns:svg="http://www.w3.org/2000/svg" xmlns="http://www.w3.org/2000/svg" id="svg244" height="91.310003mm" width="66.440001mm" version="1.0">
  <metadata id="metadata248">
    <rdf:RDF>
      <cc:Work rdf:about="">
        <dc:format>image/svg+xml</dc:format>
        <dc:type rdf:resource="http://purl.org/dc/dcmitype/StillImage"/>
      </cc:Work>
    </rdf:RDF>
  </metadata>
  <defs id="defs6">
    <clipPath id="clipWmfPath1" clipPathUnits="userSpaceOnUse">
      <path id="path2" d="M 0,0 L 251.00735,0 L 251.00735,345.0042 L 0,345.0042 z"/>
    </clipPath>
    <pattern y="0" x="0" height="6" width="6" patternUnits="userSpaceOnUse" id="WMFhbasepattern"/>
  </defs>
  <path id="path8" d="  M 9.0002634,333.00405   L 9.0002634,11.000134   L 230.74009,11.000134   L 230.74009,333.00405   L 9.0002634,333.00405  z " clip-path="url(#clipWmfPath1)" style="fill:#e5e5e5;fill-rule:nonzero;fill-opacity:1;stroke:none;"/>
  <path id="path10" d="  M 230.74009,333.20406   L 230.74009,332.80405   L 9.2002693,332.80405   L 9.2002693,11.200136   L 230.54008,11.200136   L 230.54008,332.80405   L 9.2002693,332.80405   L 9.2002693,11.000134   L 8.8002576,11.000134   L 8.8002576,333.20406   L 230.94009,333.20406   L 230.94009,10.800131   L 8.8002576,10.800131   L 8.8002576,333.20406   L 230.74009,333.20406  z " clip-path="url(#clipWmfPath1)" style="fill:#000000;fill-rule:nonzero;fill-opacity:1;stroke:#000000;stroke-width:0.066668615px;stroke-linecap:round;stroke-linejoin:round;stroke-miterlimit:4;stroke-dasharray:none;stroke-opacity:1;"/>
  <path id="path38" d="  M 205.20601,108.93466   L 206.40604,109.33466   L 207.20607,110.73468   L 207.67275,112.3347   L 207.3394,114.06805   L 206.93939,114.8014   L 206.40604,115.33474   L 205.80602,115.66807   L 205.20601,115.80141   L 204.67266,115.66807   L 204.13931,115.33474   L 203.60596,114.8014   L 203.13928,114.06805   L 202.93927,113.26805   L 202.93927,112.3347   L 203.00594,111.46802   L 203.27262,110.73468   L 203.60596,110.06801   L 204.13931,109.33466   L 205.20601,108.93466  z    M 205.20601,109.13466   L 204.67266,109.268   L 204.20598,109.80134   L 203.33929,110.80135   L 203.13928,112.3347   L 203.33929,114.06805   L 204.20598,115.06807   L 205.20601,115.53474   L 205.80602,115.4014   L 206.2727,115.06807   L 207.1394,114.06805   L 207.40607,112.3347   L 207.1394,110.80135   L 206.73938,110.13467   L 206.2727,109.80134   L 205.80602,109.268   L 205.20601,109.13466  z    M 204.00597,110.26801   L 205.20601,110.26801   L 206.0727,110.53468   L 206.2727,111.40136   L 206.13937,112.1347   L 205.47268,112.40137   L 206.13937,113.80138   L 206.40604,114.26806   L 206.60605,114.26806   L 206.60605,114.53473   L 206.0727,114.53473   L 205.006,112.40137   L 204.87266,112.40137   L 204.87266,114.06805   L 205.006,114.26806   L 205.27268,114.26806   L 205.27268,114.53473   L 203.87263,114.53473   L 203.87263,114.26806   L 204.13931,114.26806   L 204.20598,114.06805   L 204.20598,113.73472   L 204.20598,111.00135   L 204.20598,110.73468   L 204.20598,110.33468   L 204.00597,110.33468   L 204.00597,110.26801  z    M 204.87266,112.20137   L 205.27268,112.20137   L 205.53935,111.86803   L 205.60602,111.40136   L 205.47268,110.73468   L 205.33934,110.40134   L 205.07267,110.33468   L 204.87266,110.33468   L 204.87266,112.20137  z   " clip-path="url(#clipWmfPath1)" style="fill:#bfbfbf;fill-rule:evenodd;fill-opacity:1;stroke:none;"/>
  <path id="path40" d="  M 51.468173,26.000316   L 212.33955,26.000316   L 212.33955,41.000499   L 51.468173,41.000499   L 51.468173,26.000316  z " clip-path="url(#clipWmfPath1)" style="fill:#000000;fill-rule:nonzero;fill-opacity:1;stroke:none;"/>
  <path id="path42" d="  M 51.468173,26.000316   L 212.33955,26.000316   L 212.33955,41.000499   L 51.468173,41.000499   L 51.468173,26.000316  z " clip-path="url(#clipWmfPath1)" style="fill:none;stroke:#000000;stroke-width:0.066668615px;stroke-linecap:round;stroke-linejoin:round;stroke-miterlimit:4;stroke-dasharray:none;stroke-opacity:1;"/>
  <path id="path44" d="  M 57.135006,36.267108   L 206.67272,36.267108   L 206.67272,30.800375   L 57.135006,30.800375   L 57.135006,36.267108  z " clip-path="url(#clipWmfPath1)" style="fill:#ffffff;fill-rule:nonzero;fill-opacity:1;stroke:none;"/>
  <path id="path46" d="  M 57.135006,36.267108   L 206.67272,36.267108   L 206.67272,30.800375   L 57.135006,30.800375   L 57.135006,36.267108  z " clip-path="url(#clipWmfPath1)" style="fill:none;stroke:#000000;stroke-width:0.066668615px;stroke-linecap:round;stroke-linejoin:round;stroke-miterlimit:4;stroke-dasharray:none;stroke-opacity:1;"/>
  <path id="path48" d="  M 51.468173,61.60075   L 212.33955,61.60075   L 212.33955,76.600932   L 51.468173,76.600932   L 51.468173,61.60075  z " clip-path="url(#clipWmfPath1)" style="fill:#000000;fill-rule:nonzero;fill-opacity:1;stroke:none;"/>
  <path id="path50" d="  M 51.468173,61.60075   L 212.33955,61.60075   L 212.33955,76.600932   L 51.468173,76.600932   L 51.468173,61.60075  z " clip-path="url(#clipWmfPath1)" style="fill:none;stroke:#000000;stroke-width:0.066668615px;stroke-linecap:round;stroke-linejoin:round;stroke-miterlimit:4;stroke-dasharray:none;stroke-opacity:1;"/>
  <path id="path52" d="  M 57.135006,71.867541   L 206.67272,71.867541   L 206.67272,66.400808   L 57.135006,66.400808   L 57.135006,71.867541  z " clip-path="url(#clipWmfPath1)" style="fill:#ffffff;fill-rule:nonzero;fill-opacity:1;stroke:none;"/>
  <path id="path54" d="  M 57.135006,71.867541   L 206.67272,71.867541   L 206.67272,66.400808   L 57.135006,66.400808   L 57.135006,71.867541  z " clip-path="url(#clipWmfPath1)" style="fill:none;stroke:#000000;stroke-width:0.066668615px;stroke-linecap:round;stroke-linejoin:round;stroke-miterlimit:4;stroke-dasharray:none;stroke-opacity:1;"/>
  <path id="path56" d="  M 51.468173,97.201183   L 212.33955,97.201183   L 212.33955,112.20137   L 51.468173,112.20137   L 51.468173,97.201183  z " clip-path="url(#clipWmfPath1)" style="fill:#000000;fill-rule:nonzero;fill-opacity:1;stroke:none;"/>
  <path id="path58" d="  M 51.468173,97.201183   L 212.33955,97.201183   L 212.33955,112.20137   L 51.468173,112.20137   L 51.468173,97.201183  z " clip-path="url(#clipWmfPath1)" style="fill:none;stroke:#000000;stroke-width:0.066668615px;stroke-linecap:round;stroke-linejoin:round;stroke-miterlimit:4;stroke-dasharray:none;stroke-opacity:1;"/>
  <path id="path60" d="  M 57.135006,107.46797   L 206.67272,107.46797   L 206.67272,102.00124   L 57.135006,102.00124   L 57.135006,107.46797  z " clip-path="url(#clipWmfPath1)" style="fill:#ffffff;fill-rule:nonzero;fill-opacity:1;stroke:none;"/>
  <path id="path62" d="  M 57.135006,107.46797   L 206.67272,107.46797   L 206.67272,102.00124   L 57.135006,102.00124   L 57.135006,107.46797  z " clip-path="url(#clipWmfPath1)" style="fill:none;stroke:#000000;stroke-width:0.066668615px;stroke-linecap:round;stroke-linejoin:round;stroke-miterlimit:4;stroke-dasharray:none;stroke-opacity:1;"/>
  <path id="path64" d="  M 51.468173,132.80162   L 212.33955,132.80162   L 212.33955,147.8018   L 51.468173,147.8018   L 51.468173,132.80162  z " clip-path="url(#clipWmfPath1)" style="fill:#000000;fill-rule:nonzero;fill-opacity:1;stroke:none;"/>
  <path id="path66" d="  M 51.468173,132.80162   L 212.33955,132.80162   L 212.33955,147.8018   L 51.468173,147.8018   L 51.468173,132.80162  z " clip-path="url(#clipWmfPath1)" style="fill:none;stroke:#000000;stroke-width:0.066668615px;stroke-linecap:round;stroke-linejoin:round;stroke-miterlimit:4;stroke-dasharray:none;stroke-opacity:1;"/>
  <path id="path68" d="  M 57.135006,143.06841   L 206.67272,143.06841   L 206.67272,137.60167   L 57.135006,137.60167   L 57.135006,143.06841  z " clip-path="url(#clipWmfPath1)" style="fill:#ffffff;fill-rule:nonzero;fill-opacity:1;stroke:none;"/>
  <path id="path70" d="  M 57.135006,143.06841   L 206.67272,143.06841   L 206.67272,137.60167   L 57.135006,137.60167   L 57.135006,143.06841  z " clip-path="url(#clipWmfPath1)" style="fill:none;stroke:#000000;stroke-width:0.066668615px;stroke-linecap:round;stroke-linejoin:round;stroke-miterlimit:4;stroke-dasharray:none;stroke-opacity:1;"/>
  <path id="path72" d="  M 51.001493,166.93536   L 211.87287,166.93536   L 211.87287,181.93555   L 51.001493,181.93555   L 51.001493,166.93536  z " clip-path="url(#clipWmfPath1)" style="fill:#000000;fill-rule:nonzero;fill-opacity:1;stroke:none;"/>
  <path id="path74" d="  M 51.001493,166.93536   L 211.87287,166.93536   L 211.87287,181.93555   L 51.001493,181.93555   L 51.001493,166.93536  z " clip-path="url(#clipWmfPath1)" style="fill:none;stroke:#000000;stroke-width:0.066668615px;stroke-linecap:round;stroke-linejoin:round;stroke-miterlimit:4;stroke-dasharray:none;stroke-opacity:1;"/>
  <path id="path76" d="  M 56.668325,177.20216   L 206.20604,177.20216   L 206.20604,171.73542   L 56.668325,171.73542   L 56.668325,177.20216  z " clip-path="url(#clipWmfPath1)" style="fill:#ffffff;fill-rule:nonzero;fill-opacity:1;stroke:none;"/>
  <path id="path78" d="  M 56.668325,177.20216   L 206.20604,177.20216   L 206.20604,171.73542   L 56.668325,171.73542   L 56.668325,177.20216  z " clip-path="url(#clipWmfPath1)" style="fill:none;stroke:#000000;stroke-width:0.066668615px;stroke-linecap:round;stroke-linejoin:round;stroke-miterlimit:4;stroke-dasharray:none;stroke-opacity:1;"/>
  <path id="path80" d="  M 51.001493,202.5358   L 211.87287,202.5358   L 211.87287,217.53598   L 51.001493,217.53598   L 51.001493,202.5358  z " clip-path="url(#clipWmfPath1)" style="fill:#000000;fill-rule:nonzero;fill-opacity:1;stroke:none;"/>
  <path id="path82" d="  M 51.001493,202.5358   L 211.87287,202.5358   L 211.87287,217.53598   L 51.001493,217.53598   L 51.001493,202.5358  z " clip-path="url(#clipWmfPath1)" style="fill:none;stroke:#000000;stroke-width:0.066668615px;stroke-linecap:round;stroke-linejoin:round;stroke-miterlimit:4;stroke-dasharray:none;stroke-opacity:1;"/>
  <path id="path84" d="  M 56.668325,212.80259   L 206.20604,212.80259   L 206.20604,207.33586   L 56.668325,207.33586   L 56.668325,212.80259  z " clip-path="url(#clipWmfPath1)" style="fill:#ffffff;fill-rule:nonzero;fill-opacity:1;stroke:none;"/>
  <path id="path86" d="  M 56.668325,212.80259   L 206.20604,212.80259   L 206.20604,207.33586   L 56.668325,207.33586   L 56.668325,212.80259  z " clip-path="url(#clipWmfPath1)" style="fill:none;stroke:#000000;stroke-width:0.066668615px;stroke-linecap:round;stroke-linejoin:round;stroke-miterlimit:4;stroke-dasharray:none;stroke-opacity:1;"/>
  <path id="path88" d="  M 51.001493,238.13623   L 211.87287,238.13623   L 211.87287,253.13641   L 51.001493,253.13641   L 51.001493,238.13623  z " clip-path="url(#clipWmfPath1)" style="fill:#000000;fill-rule:nonzero;fill-opacity:1;stroke:none;"/>
  <path id="path90" d="  M 51.001493,238.13623   L 211.87287,238.13623   L 211.87287,253.13641   L 51.001493,253.13641   L 51.001493,238.13623  z " clip-path="url(#clipWmfPath1)" style="fill:none;stroke:#000000;stroke-width:0.066668615px;stroke-linecap:round;stroke-linejoin:round;stroke-miterlimit:4;stroke-dasharray:none;stroke-opacity:1;"/>
  <path id="path92" d="  M 56.668325,248.40302   L 206.20604,248.40302   L 206.20604,242.93629   L 56.668325,242.93629   L 56.668325,248.40302  z " clip-path="url(#clipWmfPath1)" style="fill:#ffffff;fill-rule:nonzero;fill-opacity:1;stroke:none;"/>
  <path id="path94" d="  M 56.668325,248.40302   L 206.20604,248.40302   L 206.20604,242.93629   L 56.668325,242.93629   L 56.668325,248.40302  z " clip-path="url(#clipWmfPath1)" style="fill:none;stroke:#000000;stroke-width:0.066668615px;stroke-linecap:round;stroke-linejoin:round;stroke-miterlimit:4;stroke-dasharray:none;stroke-opacity:1;"/>
  <path id="path96" d="  M 51.001493,274.00333   L 211.87287,274.00333   L 211.87287,289.00352   L 51.001493,289.00352   L 51.001493,274.00333  z " clip-path="url(#clipWmfPath1)" style="fill:#000000;fill-rule:nonzero;fill-opacity:1;stroke:none;"/>
  <path id="path98" d="  M 51.001493,274.00333   L 211.87287,274.00333   L 211.87287,289.00352   L 51.001493,289.00352   L 51.001493,274.00333  z " clip-path="url(#clipWmfPath1)" style="fill:none;stroke:#000000;stroke-width:0.066668615px;stroke-linecap:round;stroke-linejoin:round;stroke-miterlimit:4;stroke-dasharray:none;stroke-opacity:1;"/>
  <path id="path100" d="  M 56.668325,284.27013   L 206.20604,284.27013   L 206.20604,278.80339   L 56.668325,278.80339   L 56.668325,284.27013  z " clip-path="url(#clipWmfPath1)" style="fill:#ffffff;fill-rule:nonzero;fill-opacity:1;stroke:none;"/>
  <path id="path102" d="  M 56.668325,284.27013   L 206.20604,284.27013   L 206.20604,278.80339   L 56.668325,278.80339   L 56.668325,284.27013  z " clip-path="url(#clipWmfPath1)" style="fill:none;stroke:#000000;stroke-width:0.066668615px;stroke-linecap:round;stroke-linejoin:round;stroke-miterlimit:4;stroke-dasharray:none;stroke-opacity:1;"/>
  <path id="path104" d="  M 141.33747,274.87001   L 142.3375,275.00335   L 143.13752,275.47002   L 143.73754,276.13669   L 143.93755,276.87004   L 143.93755,286.33682   L 143.73754,287.07016   L 143.13752,287.67017   L 142.3375,288.0035   L 141.33747,288.13684   L 121.60356,288.13684   L 120.60353,288.0035   L 119.80351,287.6035   L 119.20349,287.00349   L 119.00348,286.27015   L 119.00348,276.87004   L 119.20349,276.13669   L 119.80351,275.47002   L 120.60353,275.00335   L 121.60356,274.87001   L 141.33747,274.87001  z " clip-path="url(#clipWmfPath1)" style="fill:#ffffff;fill-rule:nonzero;fill-opacity:1;stroke:none;"/>
  <path id="path106" d="  M 121.60356,274.33667   L 121.60356,275.40335   L 141.2708,275.40335   L 142.13749,275.47002   L 142.80418,275.87002   L 143.27086,276.40336   L 143.4042,276.9367   L 143.4042,286.27015   L 143.27086,286.80349   L 142.87085,287.27016   L 142.20416,287.53683   L 141.2708,287.6035   L 121.60356,287.6035   L 120.73687,287.53683   L 120.13685,287.2035   L 119.67017,286.73682   L 119.53683,286.20348   L 119.53683,276.9367   L 119.67017,276.40336   L 120.13685,275.87002   L 120.80354,275.47002   L 121.60356,275.40335   L 141.2708,275.40335   L 142.27083,275.53669   L 142.40417,274.47001   L 141.33747,274.33667   L 121.53689,274.33667   L 120.40352,274.53667   L 119.47016,275.07001   L 118.73681,275.87002   L 118.47013,276.80337   L 118.47013,286.33682   L 118.73681,287.27016   L 119.47016,288.0035   L 120.47019,288.47018   L 121.53689,288.67018   L 141.33747,288.67018   L 142.47084,288.47018   L 143.4042,288.07017   L 144.20422,287.33683   L 144.4709,286.40349   L 144.4709,276.80337   L 144.20422,275.87002   L 143.47087,275.07001   L 142.53751,274.53667   L 141.33747,274.33667   L 121.60356,274.33667  z " clip-path="url(#clipWmfPath1)" style="fill:#000000;fill-rule:nonzero;fill-opacity:1;stroke:#000000;stroke-width:0.066668615px;stroke-linecap:round;stroke-linejoin:round;stroke-miterlimit:4;stroke-dasharray:none;stroke-opacity:1;"/>
  <path id="path108" d="  M 52.001522,238.0029   L 212.8729,238.0029   L 212.8729,253.00308   L 52.001522,253.00308   L 52.001522,238.0029  z " clip-path="url(#clipWmfPath1)" style="fill:#000000;fill-rule:nonzero;fill-opacity:1;stroke:none;"/>
  <path id="path110" d="  M 52.001522,238.0029   L 212.8729,238.0029   L 212.8729,253.00308   L 52.001522,253.00308   L 52.001522,238.0029  z " clip-path="url(#clipWmfPath1)" style="fill:none;stroke:#000000;stroke-width:0.066668615px;stroke-linecap:round;stroke-linejoin:round;stroke-miterlimit:4;stroke-dasharray:none;stroke-opacity:1;"/>
  <path id="path112" d="  M 57.668355,248.26969   L 207.20607,248.26969   L 207.20607,242.80295   L 57.668355,242.80295   L 57.668355,248.26969  z " clip-path="url(#clipWmfPath1)" style="fill:#ffffff;fill-rule:nonzero;fill-opacity:1;stroke:none;"/>
  <path id="path114" d="  M 57.668355,248.26969   L 207.20607,248.26969   L 207.20607,242.80295   L 57.668355,242.80295   L 57.668355,248.26969  z " clip-path="url(#clipWmfPath1)" style="fill:none;stroke:#000000;stroke-width:0.066668615px;stroke-linecap:round;stroke-linejoin:round;stroke-miterlimit:4;stroke-dasharray:none;stroke-opacity:1;"/>
  <path id="path116" d="  M 142.3375,238.86957   L 143.33753,239.00291   L 144.13755,239.46958   L 144.73757,240.13626   L 144.93758,240.8696   L 144.93758,250.33638   L 144.73757,251.06972   L 144.13755,251.66973   L 143.33753,252.00307   L 142.3375,252.1364   L 122.60359,252.1364   L 121.60356,252.00307   L 120.80354,251.60306   L 120.20352,251.00305   L 120.00351,250.26971   L 120.00351,240.8696   L 120.20352,240.13626   L 120.80354,239.46958   L 121.60356,239.00291   L 122.60359,238.86957   L 142.3375,238.86957  z " clip-path="url(#clipWmfPath1)" style="fill:#ffffff;fill-rule:nonzero;fill-opacity:1;stroke:none;"/>
  <path id="path118" d="  M 122.60359,238.33623   L 122.60359,239.40291   L 142.27083,239.40291   L 143.13752,239.46958   L 143.80421,239.86959   L 144.27089,240.40293   L 144.40423,240.93627   L 144.40423,250.26971   L 144.27089,250.80305   L 143.87088,251.26972   L 143.20419,251.53639   L 142.27083,251.60306   L 122.60359,251.60306   L 121.7369,251.53639   L 121.13688,251.20306   L 120.6702,250.73638   L 120.53686,250.20304   L 120.53686,240.93627   L 120.6702,240.40293   L 121.13688,239.86959   L 121.80357,239.46958   L 122.60359,239.40291   L 142.27083,239.40291   L 143.27086,239.53625   L 143.4042,238.46957   L 142.3375,238.33623   L 122.53692,238.33623   L 121.40355,238.53624   L 120.47019,239.06958   L 119.73684,239.86959   L 119.47016,240.80293   L 119.47016,250.33638   L 119.73684,251.26972   L 120.47019,252.00307   L 121.47022,252.46974   L 122.53692,252.66974   L 142.3375,252.66974   L 143.47087,252.46974   L 144.40423,252.06973   L 145.20425,251.33639   L 145.47092,250.40305   L 145.47092,240.80293   L 145.20425,239.86959   L 144.4709,239.06958   L 143.53753,238.53624   L 142.3375,238.33623   L 122.60359,238.33623  z " clip-path="url(#clipWmfPath1)" style="fill:#000000;fill-rule:nonzero;fill-opacity:1;stroke:#000000;stroke-width:0.066668615px;stroke-linecap:round;stroke-linejoin:round;stroke-miterlimit:4;stroke-dasharray:none;stroke-opacity:1;"/>
  <path id="path120" d="  M 51.001493,203.00247   L 211.87287,203.00247   L 211.87287,218.00265   L 51.001493,218.00265   L 51.001493,203.00247  z " clip-path="url(#clipWmfPath1)" style="fill:#000000;fill-rule:nonzero;fill-opacity:1;stroke:none;"/>
  <path id="path122" d="  M 51.001493,203.00247   L 211.87287,203.00247   L 211.87287,218.00265   L 51.001493,218.00265   L 51.001493,203.00247  z " clip-path="url(#clipWmfPath1)" style="fill:none;stroke:#000000;stroke-width:0.066668615px;stroke-linecap:round;stroke-linejoin:round;stroke-miterlimit:4;stroke-dasharray:none;stroke-opacity:1;"/>
  <path id="path124" d="  M 56.668325,213.26926   L 206.20604,213.26926   L 206.20604,207.80253   L 56.668325,207.80253   L 56.668325,213.26926  z " clip-path="url(#clipWmfPath1)" style="fill:#ffffff;fill-rule:nonzero;fill-opacity:1;stroke:none;"/>
  <path id="path126" d="  M 56.668325,213.26926   L 206.20604,213.26926   L 206.20604,207.80253   L 56.668325,207.80253   L 56.668325,213.26926  z " clip-path="url(#clipWmfPath1)" style="fill:none;stroke:#000000;stroke-width:0.066668615px;stroke-linecap:round;stroke-linejoin:round;stroke-miterlimit:4;stroke-dasharray:none;stroke-opacity:1;"/>
  <path id="path128" d="  M 141.33747,203.86915   L 142.3375,204.00248   L 143.13752,204.46916   L 143.73754,205.13583   L 143.93755,205.86917   L 143.93755,215.33595   L 143.73754,216.0693   L 143.13752,216.6693   L 142.3375,217.00264   L 141.33747,217.13598   L 121.60356,217.13598   L 120.60353,217.00264   L 119.80351,216.60264   L 119.20349,216.00263   L 119.00348,215.26929   L 119.00348,205.86917   L 119.20349,205.13583   L 119.80351,204.46916   L 120.60353,204.00248   L 121.60356,203.86915   L 141.33747,203.86915  z " clip-path="url(#clipWmfPath1)" style="fill:#ffffff;fill-rule:nonzero;fill-opacity:1;stroke:none;"/>
  <path id="path130" d="  M 121.60356,203.33581   L 121.60356,204.40249   L 141.2708,204.40249   L 142.13749,204.46916   L 142.80418,204.86916   L 143.27086,205.4025   L 143.4042,205.93584   L 143.4042,215.26929   L 143.27086,215.80263   L 142.87085,216.2693   L 142.20416,216.53597   L 141.2708,216.60264   L 121.60356,216.60264   L 120.73687,216.53597   L 120.13685,216.20263   L 119.67017,215.73596   L 119.53683,215.20262   L 119.53683,205.93584   L 119.67017,205.4025   L 120.13685,204.86916   L 120.80354,204.46916   L 121.60356,204.40249   L 141.2708,204.40249   L 142.27083,204.53582   L 142.40417,203.46914   L 141.33747,203.33581   L 121.53689,203.33581   L 120.40352,203.53581   L 119.47016,204.06915   L 118.73681,204.86916   L 118.47013,205.8025   L 118.47013,215.33595   L 118.73681,216.2693   L 119.47016,217.00264   L 120.47019,217.46931   L 121.53689,217.66932   L 141.33747,217.66932   L 142.47084,217.46931   L 143.4042,217.06931   L 144.20422,216.33597   L 144.4709,215.40262   L 144.4709,205.8025   L 144.20422,204.86916   L 143.47087,204.06915   L 142.53751,203.53581   L 141.33747,203.33581   L 121.60356,203.33581  z " clip-path="url(#clipWmfPath1)" style="fill:#000000;fill-rule:nonzero;fill-opacity:1;stroke:#000000;stroke-width:0.066668615px;stroke-linecap:round;stroke-linejoin:round;stroke-miterlimit:4;stroke-dasharray:none;stroke-opacity:1;"/>
  <path id="path132" d="  M 51.001493,26.000316   L 211.87287,26.000316   L 211.87287,41.000499   L 51.001493,41.000499   L 51.001493,26.000316  z " clip-path="url(#clipWmfPath1)" style="fill:#000000;fill-rule:nonzero;fill-opacity:1;stroke:none;"/>
  <path id="path134" d="  M 51.001493,26.000316   L 211.87287,26.000316   L 211.87287,41.000499   L 51.001493,41.000499   L 51.001493,26.000316  z " clip-path="url(#clipWmfPath1)" style="fill:none;stroke:#000000;stroke-width:0.066668615px;stroke-linecap:round;stroke-linejoin:round;stroke-miterlimit:4;stroke-dasharray:none;stroke-opacity:1;"/>
  <path id="path136" d="  M 56.668325,36.267108   L 206.20604,36.267108   L 206.20604,30.800375   L 56.668325,30.800375   L 56.668325,36.267108  z " clip-path="url(#clipWmfPath1)" style="fill:#ffffff;fill-rule:nonzero;fill-opacity:1;stroke:none;"/>
  <path id="path138" d="  M 56.668325,36.267108   L 206.20604,36.267108   L 206.20604,30.800375   L 56.668325,30.800375   L 56.668325,36.267108  z " clip-path="url(#clipWmfPath1)" style="fill:none;stroke:#000000;stroke-width:0.066668615px;stroke-linecap:round;stroke-linejoin:round;stroke-miterlimit:4;stroke-dasharray:none;stroke-opacity:1;"/>
  <path id="path140" d="  M 141.33747,26.866994   L 142.3375,27.000329   L 143.13752,27.467001   L 143.73754,28.133676   L 143.93755,28.867018   L 143.93755,38.3338   L 143.73754,39.067142   L 143.13752,39.667149   L 142.3375,40.000487   L 141.33747,40.133822   L 121.60356,40.133822   L 120.60353,40.000487   L 119.80351,39.600482   L 119.20349,39.000475   L 119.00348,38.267132   L 119.00348,28.867018   L 119.20349,28.133676   L 119.80351,27.467001   L 120.60353,27.000329   L 121.60356,26.866994   L 141.33747,26.866994  z " clip-path="url(#clipWmfPath1)" style="fill:#ffffff;fill-rule:nonzero;fill-opacity:1;stroke:none;"/>
  <path id="path142" d="  M 121.60356,26.333654   L 121.60356,27.400333   L 141.2708,27.400333   L 142.13749,27.467001   L 142.80418,27.867006   L 143.27086,28.400346   L 143.4042,28.933685   L 143.4042,38.267132   L 143.27086,38.800472   L 142.87085,39.267145   L 142.20416,39.533814   L 141.2708,39.600482   L 121.60356,39.600482   L 120.73687,39.533814   L 120.13685,39.200477   L 119.67017,38.733805   L 119.53683,38.200465   L 119.53683,28.933685   L 119.67017,28.400346   L 120.13685,27.867006   L 120.80354,27.467001   L 121.60356,27.400333   L 141.2708,27.400333   L 142.27083,27.533668   L 142.40417,26.466989   L 141.33747,26.333654   L 121.53689,26.333654   L 120.40352,26.533656   L 119.47016,27.066996   L 118.73681,27.867006   L 118.47013,28.80035   L 118.47013,38.3338   L 118.73681,39.267145   L 119.47016,40.000487   L 120.47019,40.467159   L 121.53689,40.667162   L 141.33747,40.667162   L 142.47084,40.467159   L 143.4042,40.067154   L 144.20422,39.333812   L 144.4709,38.400467   L 144.4709,28.80035   L 144.20422,27.867006   L 143.47087,27.066996   L 142.53751,26.533656   L 141.33747,26.333654   L 121.60356,26.333654  z " clip-path="url(#clipWmfPath1)" style="fill:#000000;fill-rule:nonzero;fill-opacity:1;stroke:#000000;stroke-width:0.066668615px;stroke-linecap:round;stroke-linejoin:round;stroke-miterlimit:4;stroke-dasharray:none;stroke-opacity:1;"/>
  <path id="path144" d="  M 52.001522,62.000755   L 212.8729,62.000755   L 212.8729,77.000937   L 52.001522,77.000937   L 52.001522,62.000755  z " clip-path="url(#clipWmfPath1)" style="fill:#000000;fill-rule:nonzero;fill-opacity:1;stroke:none;"/>
  <path id="path146" d="  M 52.001522,62.000755   L 212.8729,62.000755   L 212.8729,77.000937   L 52.001522,77.000937   L 52.001522,62.000755  z " clip-path="url(#clipWmfPath1)" style="fill:none;stroke:#000000;stroke-width:0.066668615px;stroke-linecap:round;stroke-linejoin:round;stroke-miterlimit:4;stroke-dasharray:none;stroke-opacity:1;"/>
  <path id="path148" d="  M 57.668355,72.267546   L 207.20607,72.267546   L 207.20607,66.800813   L 57.668355,66.800813   L 57.668355,72.267546  z " clip-path="url(#clipWmfPath1)" style="fill:#ffffff;fill-rule:nonzero;fill-opacity:1;stroke:none;"/>
  <path id="path150" d="  M 57.668355,72.267546   L 207.20607,72.267546   L 207.20607,66.800813   L 57.668355,66.800813   L 57.668355,72.267546  z " clip-path="url(#clipWmfPath1)" style="fill:none;stroke:#000000;stroke-width:0.066668615px;stroke-linecap:round;stroke-linejoin:round;stroke-miterlimit:4;stroke-dasharray:none;stroke-opacity:1;"/>
  <path id="path152" d="  M 142.3375,62.867432   L 143.33753,63.000767   L 144.13755,63.467439   L 144.73757,64.134114   L 144.93758,64.867456   L 144.93758,74.334238   L 144.73757,75.06758   L 144.13755,75.667588   L 143.33753,76.000925   L 142.3375,76.13426   L 122.60359,76.13426   L 121.60356,76.000925   L 120.80354,75.60092   L 120.20352,75.000913   L 120.00351,74.26757   L 120.00351,64.867456   L 120.20352,64.134114   L 120.80354,63.467439   L 121.60356,63.000767   L 122.60359,62.867432   L 142.3375,62.867432  z " clip-path="url(#clipWmfPath1)" style="fill:#ffffff;fill-rule:nonzero;fill-opacity:1;stroke:none;"/>
  <path id="path154" d="  M 122.60359,62.334092   L 122.60359,63.400772   L 142.27083,63.400772   L 143.13752,63.467439   L 143.80421,63.867444   L 144.27089,64.400784   L 144.40423,64.934124   L 144.40423,74.26757   L 144.27089,74.80091   L 143.87088,75.267583   L 143.20419,75.534253   L 142.27083,75.60092   L 122.60359,75.60092   L 121.7369,75.534253   L 121.13688,75.200915   L 120.6702,74.734243   L 120.53686,74.200903   L 120.53686,64.934124   L 120.6702,64.400784   L 121.13688,63.867444   L 121.80357,63.467439   L 122.60359,63.400772   L 142.27083,63.400772   L 143.27086,63.534107   L 143.4042,62.467427   L 142.3375,62.334092   L 122.53692,62.334092   L 121.40355,62.534094   L 120.47019,63.067434   L 119.73684,63.867444   L 119.47016,64.800789   L 119.47016,74.334238   L 119.73684,75.267583   L 120.47019,76.000925   L 121.47022,76.467597   L 122.53692,76.6676   L 142.3375,76.6676   L 143.47087,76.467597   L 144.40423,76.067592   L 145.20425,75.33425   L 145.47092,74.400905   L 145.47092,64.800789   L 145.20425,63.867444   L 144.4709,63.067434   L 143.53753,62.534094   L 142.3375,62.334092   L 122.60359,62.334092  z " clip-path="url(#clipWmfPath1)" style="fill:#000000;fill-rule:nonzero;fill-opacity:1;stroke:#000000;stroke-width:0.066668615px;stroke-linecap:round;stroke-linejoin:round;stroke-miterlimit:4;stroke-dasharray:none;stroke-opacity:1;"/>
  <g id="g156" clip-path="url(#clipWmfPath1)"/>
  <g id="g168" clip-path="url(#clipWmfPath1)">
    <text id="text166" y="0.000000" x="0.000000" transform="matrix(1.000000,-0.000000,0.000000,1.000000,123.336943,37.933795)" style="font-size:10.687500px;font-style:normal;font-variant:normal;font-weight:400;font-stretch:Condensed;line-height:125.000000%;letter-spacing:0px;word-spacing:0px;fill:#000000;fill-opacity:1;stroke:none;font-family:Helvetica-Narrow;text-align:start;text-anchor:start;" xml:space="preserve"><tspan id="tspan164" y="0.000000" x="0.000000"><tspan id="tspan158" style="fill:#000000;font-size:10.687500px;font-style:normal;font-variant:normal;font-weight:400;font-stretch:Condensed;font-family:Helvetica-Narrow;" dy="0.000000" dx="0.000000">S</tspan><tspan id="tspan160" style="fill:#000000;font-size:10.687500px;font-style:normal;font-variant:normal;font-weight:400;font-stretch:Condensed;font-family:Helvetica-Narrow;" dy="0.000000" dx="-0.195026">L</tspan><tspan id="tspan162" style="fill:#000000;font-size:10.687500px;font-style:normal;font-variant:normal;font-weight:400;font-stretch:Condensed;font-family:Helvetica-Narrow;" dy="0.000000" dx="0.003525">1</tspan></tspan></text>
  </g>
  <g id="g170" clip-path="url(#clipWmfPath1)"/>
  <g id="g182" clip-path="url(#clipWmfPath1)">
    <text id="text180" y="0.000000" x="0.000000" transform="matrix(1.000000,-0.000000,0.000000,1.000000,124.270304,73.467561)" style="font-size:10.687500px;font-style:normal;font-variant:normal;font-weight:400;font-stretch:Condensed;line-height:125.000000%;letter-spacing:0px;word-spacing:0px;fill:#000000;fill-opacity:1;stroke:none;font-family:Helvetica-Narrow;text-align:start;text-anchor:start;" xml:space="preserve"><tspan id="tspan178" y="0.000000" x="0.000000"><tspan id="tspan172" style="fill:#000000;font-size:10.687500px;font-style:normal;font-variant:normal;font-weight:400;font-stretch:Condensed;font-family:Helvetica-Narrow;" dy="0.000000" dx="0.000000">S</tspan><tspan id="tspan174" style="fill:#000000;font-size:10.687500px;font-style:normal;font-variant:normal;font-weight:400;font-stretch:Condensed;font-family:Helvetica-Narrow;" dy="0.000000" dx="-0.102346">L</tspan><tspan id="tspan176" style="fill:#000000;font-size:10.687500px;font-style:normal;font-variant:normal;font-weight:400;font-stretch:Condensed;font-family:Helvetica-Narrow;" dy="0.000000" dx="0.003525">2</tspan></tspan></text>
  </g>
  <g id="g184" clip-path="url(#clipWmfPath1)"/>
  <g id="g196" clip-path="url(#clipWmfPath1)">
    <text id="text194" y="0.000000" x="0.000000" transform="matrix(1.000000,-0.000000,0.000000,1.000000,122.870263,214.269274)" style="font-size:10.687500px;font-style:normal;font-variant:normal;font-weight:400;font-stretch:Condensed;line-height:125.000000%;letter-spacing:0px;word-spacing:0px;fill:#000000;fill-opacity:1;stroke:none;font-family:Helvetica-Narrow;text-align:start;text-anchor:start;" xml:space="preserve"><tspan id="tspan192" y="0.000000" x="0.000000"><tspan id="tspan186" style="fill:#000000;font-size:10.687500px;font-style:normal;font-variant:normal;font-weight:400;font-stretch:Condensed;font-family:Helvetica-Narrow;" dy="0.000000" dx="0.000000">S</tspan><tspan id="tspan188" style="fill:#000000;font-size:10.687500px;font-style:normal;font-variant:normal;font-weight:400;font-stretch:Condensed;font-family:Helvetica-Narrow;" dy="0.000000" dx="-0.102346">L</tspan><tspan id="tspan190" style="fill:#000000;font-size:10.687500px;font-style:normal;font-variant:normal;font-weight:400;font-stretch:Condensed;font-family:Helvetica-Narrow;" dy="0.000000" dx="0.003525">3</tspan></tspan></text>
  </g>
  <g id="g198" clip-path="url(#clipWmfPath1)"/>
  <g id="g210" clip-path="url(#clipWmfPath1)">
    <text id="text208" y="0.000000" x="0.000000" transform="matrix(1.000000,-0.000000,0.000000,1.000000,124.270304,249.869708)" style="font-size:10.687500px;font-style:normal;font-variant:normal;font-weight:400;font-stretch:Condensed;line-height:125.000000%;letter-spacing:0px;word-spacing:0px;fill:#000000;fill-opacity:1;stroke:none;font-family:Helvetica-Narrow;text-align:start;text-anchor:start;" xml:space="preserve"><tspan id="tspan206" y="0.000000" x="0.000000"><tspan id="tspan200" style="fill:#000000;font-size:10.687500px;font-style:normal;font-variant:normal;font-weight:400;font-stretch:Condensed;font-family:Helvetica-Narrow;" dy="0.000000" dx="0.000000">S</tspan><tspan id="tspan202" style="fill:#000000;font-size:10.687500px;font-style:normal;font-variant:normal;font-weight:400;font-stretch:Condensed;font-family:Helvetica-Narrow;" dy="0.000000" dx="-0.102346">L</tspan><tspan id="tspan204" style="fill:#000000;font-size:10.687500px;font-style:normal;font-variant:normal;font-weight:400;font-stretch:Condensed;font-family:Helvetica-Narrow;" dy="0.000000" dx="0.003525">4</tspan></tspan></text>
  </g>
  <g id="g212" clip-path="url(#clipWmfPath1)"/>
  <g id="g224" clip-path="url(#clipWmfPath1)">
    <text id="text222" y="0.000000" x="0.000000" transform="matrix(1.000000,-0.000000,0.000000,1.000000,122.336914,285.403473)" style="font-size:10.687500px;font-style:normal;font-variant:normal;font-weight:400;font-stretch:Condensed;line-height:125.000000%;letter-spacing:0px;word-spacing:0px;fill:#000000;fill-opacity:1;stroke:none;font-family:Helvetica-Narrow;text-align:start;text-anchor:start;" xml:space="preserve"><tspan id="tspan220" y="0.000000" x="0.000000"><tspan id="tspan214" style="fill:#000000;font-size:10.687500px;font-style:normal;font-variant:normal;font-weight:400;font-stretch:Condensed;font-family:Helvetica-Narrow;" dy="0.000000" dx="0.000000">S</tspan><tspan id="tspan216" style="fill:#000000;font-size:10.687500px;font-style:normal;font-variant:normal;font-weight:400;font-stretch:Condensed;font-family:Helvetica-Narrow;" dy="0.000000" dx="-0.102346">L</tspan><tspan id="tspan218" style="fill:#000000;font-size:10.687500px;font-style:normal;font-variant:normal;font-weight:400;font-stretch:Condensed;font-family:Helvetica-Narrow;" dy="0.000000" dx="0.003525">5</tspan></tspan></text>
  </g>
  <g id="g226" clip-path="url(#clipWmfPath1)"/>
  <g id="g242" clip-path="url(#clipWmfPath1)">
    <text id="text240" y="0.000000" x="0.000000" transform="matrix(1.000000,-0.000000,0.000000,1.000000,120.870205,55.467342)" style="font-size:9.312500px;font-style:normal;font-variant:normal;font-weight:400;font-stretch:Condensed;line-height:125.000000%;letter-spacing:0px;word-spacing:0px;fill:#000000;fill-opacity:1;stroke:none;font-family:Helvetica-Narrow;text-align:start;text-anchor:start;" xml:space="preserve"><tspan id="tspan238" y="0.000000" x="0.000000"><tspan id="tspan228" style="fill:#000000;font-size:9.312500px;font-style:normal;font-variant:normal;font-weight:400;font-stretch:Condensed;font-family:Helvetica-Narrow;" dy="0.000000" dx="0.000000">3</tspan><tspan id="tspan230" style="fill:#000000;font-size:9.312500px;font-style:normal;font-variant:normal;font-weight:400;font-stretch:Condensed;font-family:Helvetica-Narrow;" dy="0.000000" dx="0.183584">4</tspan><tspan id="tspan232" style="fill:#000000;font-size:9.312500px;font-style:normal;font-variant:normal;font-weight:400;font-stretch:Condensed;font-family:Helvetica-Narrow;" dy="0.000000" dx="0.183584">1</tspan><tspan id="tspan234" style="fill:#000000;font-size:9.312500px;font-style:normal;font-variant:normal;font-weight:400;font-stretch:Condensed;font-family:Helvetica-Narrow;" dy="0.000000" dx="0.183584">2</tspan><tspan id="tspan236" style="fill:#000000;font-size:9.312500px;font-style:normal;font-variant:normal;font-weight:400;font-stretch:Condensed;font-family:Helvetica-Narrow;" dy="0.000000" dx="0.183584">9</tspan></tspan></text>
  </g>
</svg>