<svg xmlns:dc="http://purl.org/dc/elements/1.1/" xmlns:cc="http://creativecommons.org/ns#" xmlns:rdf="http://www.w3.org/1999/02/22-rdf-syntax-ns#" xmlns:svg="http://www.w3.org/2000/svg" xmlns="http://www.w3.org/2000/svg" id="svg246" height="89.990001mm" width="106.13mm" version="1.0">
  <metadata id="metadata250">
    <rdf:RDF>
      <cc:Work rdf:about="">
        <dc:format>image/svg+xml</dc:format>
        <dc:type rdf:resource="http://purl.org/dc/dcmitype/StillImage"/>
      </cc:Work>
    </rdf:RDF>
  </metadata>
  <defs id="defs6">
    <clipPath id="clipWmfPath1" clipPathUnits="userSpaceOnUse">
      <path id="path2" d="M 0,0 L 401.0168,0 L 401.0168,340.01522 L 0,340.01522 z"/>
    </clipPath>
    <pattern y="0" x="0" height="6" width="6" patternUnits="userSpaceOnUse" id="WMFhbasepattern"/>
  </defs>
  <path id="path8" d="  M 36.001508,328.01468   L 36.001508,19.000851   L 382.016,19.000851   L 382.016,328.01468   L 36.001508,328.01468  z " clip-path="url(#clipWmfPath1)" style="fill:#e5e5e5;fill-rule:nonzero;fill-opacity:1;stroke:none;"/>
  <path id="path10" d="  M 382.016,328.21469   L 382.016,327.81467   L 36.201516,327.81467   L 36.201516,19.200859   L 381.81599,19.200859   L 381.81599,327.81467   L 36.201516,327.81467   L 36.201516,19.000851   L 35.801499,19.000851   L 35.801499,328.21469   L 382.21601,328.21469   L 382.21601,18.800842   L 35.801499,18.800842   L 35.801499,328.21469   L 382.016,328.21469  z " clip-path="url(#clipWmfPath1)" style="fill:#000000;fill-rule:nonzero;fill-opacity:1;stroke:#000000;stroke-width:0.066669457px;stroke-linecap:round;stroke-linejoin:round;stroke-miterlimit:4;stroke-dasharray:none;stroke-opacity:1;"/>
  <path id="path38" d="  M 318.21333,106.47143   L 318.94669,106.5381   L 319.81339,106.80478   L 320.41342,107.40481   L 320.88011,108.0715   L 321.34679,109.47157   L 321.21345,110.40494   L 320.94678,111.13831   L 320.48009,111.87167   L 319.81339,112.33836   L 319.01336,112.67171   L 318.21333,112.73838   L 316.81327,112.33836   L 315.61322,111.13831   L 315.34654,110.40494   L 315.27987,109.47157   L 315.34654,108.7382   L 315.67989,108.0715   L 316.81327,106.80478   L 317.54663,106.5381   L 318.21333,106.47143  z    M 318.21333,106.67144   L 317.6133,106.80478   L 316.87994,107.2048   L 316.41325,107.60482   L 315.94657,108.20484   L 315.67989,108.87154   L 315.61322,109.47157   L 315.67989,110.33827   L 315.94657,111.13831   L 316.34658,111.605   L 316.87994,112.07168   L 318.21333,112.4717   L 318.94669,112.40503   L 319.61339,112.07168   L 320.74677,111.13831   L 321.01344,109.47157   L 320.74677,108.20484   L 320.14674,107.53815   L 319.61339,107.2048   L 318.94669,106.80478   L 318.21333,106.67144  z    M 316.7466,107.60482   L 318.21333,107.60482   L 319.28004,107.8715   L 319.61339,108.67153   L 319.41338,109.33823   L 318.61334,109.60491   L 319.48005,110.87163   L 319.81339,111.27165   L 320.0134,111.27165   L 320.0134,111.53833   L 319.28004,111.53833   L 317.94665,109.60491   L 317.87998,109.60491   L 317.87998,111.13831   L 317.94665,111.27165   L 318.41334,111.27165   L 318.41334,111.53833   L 316.54659,111.53833   L 316.54659,111.27165   L 316.81327,111.27165   L 316.87994,111.13831   L 317.01328,110.80496   L 317.01328,108.33818   L 316.87994,108.0715   L 316.87994,107.67149   L 316.7466,107.67149   L 316.7466,107.60482  z    M 317.87998,109.4049   L 318.41334,109.4049   L 318.61334,109.07155   L 318.88002,108.67153   L 318.61334,108.0715   L 318.48001,107.73816   L 318.07999,107.67149   L 317.87998,107.67149   L 317.87998,109.4049  z   " clip-path="url(#clipWmfPath1)" style="fill:#bfbfbf;fill-rule:evenodd;fill-opacity:1;stroke:none;"/>
  <path id="path40" d="  M 362.61519,68.73641   L 201.74178,68.73641   L 201.74178,83.737082   L 362.61519,83.737082   L 362.61519,68.73641  z " clip-path="url(#clipWmfPath1)" style="fill:#000000;fill-rule:nonzero;fill-opacity:1;stroke:none;"/>
  <path id="path42" d="  M 362.61519,68.73641   L 201.74178,68.73641   L 201.74178,83.737082   L 362.61519,83.737082   L 362.61519,68.73641  z " clip-path="url(#clipWmfPath1)" style="fill:none;stroke:#000000;stroke-width:0.066669457px;stroke-linecap:round;stroke-linejoin:round;stroke-miterlimit:4;stroke-dasharray:none;stroke-opacity:1;"/>
  <path id="path44" d="  M 356.88161,78.936867   L 207.34202,78.936867   L 207.34202,73.469955   L 356.88161,73.469955   L 356.88161,78.936867  z " clip-path="url(#clipWmfPath1)" style="fill:#ffffff;fill-rule:nonzero;fill-opacity:1;stroke:none;"/>
  <path id="path46" d="  M 356.88161,78.936867   L 207.34202,78.936867   L 207.34202,73.469955   L 356.88161,73.469955   L 356.88161,78.936867  z " clip-path="url(#clipWmfPath1)" style="fill:none;stroke:#000000;stroke-width:0.066669457px;stroke-linecap:round;stroke-linejoin:round;stroke-miterlimit:4;stroke-dasharray:none;stroke-opacity:1;"/>
  <path id="path48" d="  M 362.61519,104.13799   L 201.74178,104.13799   L 201.74178,119.13867   L 362.61519,119.13867   L 362.61519,104.13799  z " clip-path="url(#clipWmfPath1)" style="fill:#000000;fill-rule:nonzero;fill-opacity:1;stroke:none;"/>
  <path id="path50" d="  M 362.61519,104.13799   L 201.74178,104.13799   L 201.74178,119.13867   L 362.61519,119.13867   L 362.61519,104.13799  z " clip-path="url(#clipWmfPath1)" style="fill:none;stroke:#000000;stroke-width:0.066669457px;stroke-linecap:round;stroke-linejoin:round;stroke-miterlimit:4;stroke-dasharray:none;stroke-opacity:1;"/>
  <path id="path52" d="  M 356.88161,114.33845   L 207.34202,114.33845   L 207.34202,108.87154   L 356.88161,108.87154   L 356.88161,114.33845  z " clip-path="url(#clipWmfPath1)" style="fill:#ffffff;fill-rule:nonzero;fill-opacity:1;stroke:none;"/>
  <path id="path54" d="  M 356.88161,114.33845   L 207.34202,114.33845   L 207.34202,108.87154   L 356.88161,108.87154   L 356.88161,114.33845  z " clip-path="url(#clipWmfPath1)" style="fill:none;stroke:#000000;stroke-width:0.066669457px;stroke-linecap:round;stroke-linejoin:round;stroke-miterlimit:4;stroke-dasharray:none;stroke-opacity:1;"/>
  <path id="path56" d="  M 192.94141,104.13799   L 91.003811,104.13799   L 91.003811,119.13867   L 192.94141,119.13867   L 192.94141,104.13799  z " clip-path="url(#clipWmfPath1)" style="fill:#000000;fill-rule:nonzero;fill-opacity:1;stroke:none;"/>
  <path id="path58" d="  M 192.94141,104.13799   L 91.003811,104.13799   L 91.003811,119.13867   L 192.94141,119.13867   L 192.94141,104.13799  z " clip-path="url(#clipWmfPath1)" style="fill:none;stroke:#000000;stroke-width:0.066669457px;stroke-linecap:round;stroke-linejoin:round;stroke-miterlimit:4;stroke-dasharray:none;stroke-opacity:1;"/>
  <path id="path60" d="  M 187.47452,114.33845   L 96.404038,114.33845   L 96.404038,108.87154   L 187.47452,108.87154   L 187.47452,114.33845  z " clip-path="url(#clipWmfPath1)" style="fill:#ffffff;fill-rule:nonzero;fill-opacity:1;stroke:none;"/>
  <path id="path62" d="  M 187.47452,114.33845   L 96.404038,114.33845   L 96.404038,108.87154   L 187.47452,108.87154   L 187.47452,114.33845  z " clip-path="url(#clipWmfPath1)" style="fill:none;stroke:#000000;stroke-width:0.066669457px;stroke-linecap:round;stroke-linejoin:round;stroke-miterlimit:4;stroke-dasharray:none;stroke-opacity:1;"/>
  <path id="path64" d="  M 362.61519,33.001477   L 201.74178,33.001477   L 201.74178,48.002149   L 362.61519,48.002149   L 362.61519,33.001477  z " clip-path="url(#clipWmfPath1)" style="fill:#000000;fill-rule:nonzero;fill-opacity:1;stroke:none;"/>
  <path id="path66" d="  M 362.61519,33.001477   L 201.74178,33.001477   L 201.74178,48.002149   L 362.61519,48.002149   L 362.61519,33.001477  z " clip-path="url(#clipWmfPath1)" style="fill:none;stroke:#000000;stroke-width:0.066669457px;stroke-linecap:round;stroke-linejoin:round;stroke-miterlimit:4;stroke-dasharray:none;stroke-opacity:1;"/>
  <path id="path68" d="  M 356.88161,43.201934   L 207.34202,43.201934   L 207.34202,37.735022   L 356.88161,37.735022   L 356.88161,43.201934  z " clip-path="url(#clipWmfPath1)" style="fill:#ffffff;fill-rule:nonzero;fill-opacity:1;stroke:none;"/>
  <path id="path70" d="  M 356.88161,43.201934   L 207.34202,43.201934   L 207.34202,37.735022   L 356.88161,37.735022   L 356.88161,43.201934  z " clip-path="url(#clipWmfPath1)" style="fill:none;stroke:#000000;stroke-width:0.066669457px;stroke-linecap:round;stroke-linejoin:round;stroke-miterlimit:4;stroke-dasharray:none;stroke-opacity:1;"/>
  <path id="path72" d="  M 292.0789,33.868183   L 293.07894,34.001522   L 293.87897,34.46821   L 294.479,35.134906   L 294.67901,35.868272   L 294.67901,45.335363   L 294.479,46.068729   L 293.87897,46.668756   L 293.07894,47.002104   L 292.0789,47.135443   L 272.34474,47.135443   L 271.3447,47.002104   L 270.54466,46.602086   L 269.94464,46.002059   L 269.74463,45.268693   L 269.74463,35.868272   L 269.94464,35.134906   L 270.54466,34.46821   L 271.3447,34.001522   L 272.34474,33.868183   L 292.0789,33.868183  z " clip-path="url(#clipWmfPath1)" style="fill:#ffffff;fill-rule:nonzero;fill-opacity:1;stroke:none;"/>
  <path id="path74" d="  M 272.34474,33.334826   L 272.34474,34.40154   L 292.01223,34.40154   L 292.87893,34.46821   L 293.54563,34.868227   L 294.01231,35.401585   L 294.14565,35.934942   L 294.14565,45.268693   L 294.01231,45.80205   L 293.6123,46.268738   L 292.9456,46.535416   L 292.01223,46.602086   L 272.41141,46.602086   L 271.47804,46.535416   L 270.87801,46.202068   L 270.41133,45.735381   L 270.27799,45.202023   L 270.27799,35.934942   L 270.41133,35.401585   L 270.87801,34.868227   L 271.54471,34.46821   L 272.41141,34.40154   L 292.01223,34.40154   L 293.01227,34.534879   L 293.14561,33.468165   L 292.14557,33.334826   L 272.27807,33.334826   L 271.14469,33.534834   L 270.21132,34.068192   L 269.47795,34.868227   L 269.21127,35.801603   L 269.21127,45.335363   L 269.47795,46.268738   L 270.21132,47.002104   L 271.21136,47.468792   L 272.27807,47.6688   L 292.14557,47.6688   L 293.21228,47.468792   L 294.14565,47.068774   L 294.94569,46.335407   L 295.21236,45.402032   L 295.21236,35.801603   L 294.94569,34.868227   L 294.21232,34.068192   L 293.27895,33.534834   L 292.14557,33.334826   L 272.34474,33.334826  z " clip-path="url(#clipWmfPath1)" style="fill:#000000;fill-rule:nonzero;fill-opacity:1;stroke:#000000;stroke-width:0.066669457px;stroke-linecap:round;stroke-linejoin:round;stroke-miterlimit:4;stroke-dasharray:none;stroke-opacity:1;"/>
  <g id="g76" clip-path="url(#clipWmfPath1)"/>
  <g id="g88" clip-path="url(#clipWmfPath1)">
    <text id="text86" y="0.000000" x="0.000000" transform="matrix(1.000000,-0.000000,0.000000,1.000000,273.011434,44.001970)" style="font-size:10.687500px;font-style:normal;font-variant:normal;font-weight:400;font-stretch:Condensed;line-height:125.000000%;letter-spacing:0px;word-spacing:0px;fill:#000000;fill-opacity:1;stroke:none;font-family:Helvetica-Narrow;text-align:start;text-anchor:start;" xml:space="preserve"><tspan id="tspan84" y="0.000000" x="0.000000"><tspan id="tspan78" style="fill:#000000;font-size:10.687500px;font-style:normal;font-variant:normal;font-weight:400;font-stretch:Condensed;font-family:Helvetica-Narrow;" dy="0.000000" dx="0.000000">S</tspan><tspan id="tspan80" style="fill:#000000;font-size:10.687500px;font-style:normal;font-variant:normal;font-weight:400;font-stretch:Condensed;font-family:Helvetica-Narrow;" dy="0.000000" dx="-0.194939">L</tspan><tspan id="tspan82" style="fill:#000000;font-size:10.687500px;font-style:normal;font-variant:normal;font-weight:400;font-stretch:Condensed;font-family:Helvetica-Narrow;" dy="0.000000" dx="0.003601">1</tspan></tspan></text>
  </g>
  <path id="path90" d="  M 362.68186,139.20623   L 78.069936,139.20623   L 78.069936,154.2069   L 362.68186,154.2069   L 362.68186,139.20623  z " clip-path="url(#clipWmfPath1)" style="fill:#000000;fill-rule:nonzero;fill-opacity:1;stroke:none;"/>
  <path id="path92" d="  M 362.68186,139.20623   L 78.069936,139.20623   L 78.069936,154.2069   L 362.68186,154.2069   L 362.68186,139.20623  z " clip-path="url(#clipWmfPath1)" style="fill:none;stroke:#000000;stroke-width:0.066669457px;stroke-linecap:round;stroke-linejoin:round;stroke-miterlimit:4;stroke-dasharray:none;stroke-opacity:1;"/>
  <path id="path94" d="  M 352.5481,149.40669   L 88.003686,149.40669   L 88.003686,143.93978   L 352.5481,143.93978   L 352.5481,149.40669  z " clip-path="url(#clipWmfPath1)" style="fill:#ffffff;fill-rule:nonzero;fill-opacity:1;stroke:none;"/>
  <path id="path96" d="  M 352.5481,149.40669   L 88.003686,149.40669   L 88.003686,143.93978   L 352.5481,143.93978   L 352.5481,149.40669  z " clip-path="url(#clipWmfPath1)" style="fill:none;stroke:#000000;stroke-width:0.066669457px;stroke-linecap:round;stroke-linejoin:round;stroke-miterlimit:4;stroke-dasharray:none;stroke-opacity:1;"/>
  <path id="path98" d="  M 230.27631,140.07294   L 231.27635,140.20628   L 232.07639,140.67296   L 232.67641,141.33966   L 232.87642,142.07303   L 232.87642,151.54012   L 232.67641,152.27348   L 232.07639,152.87351   L 231.27635,153.20686   L 230.27631,153.3402   L 210.54215,153.3402   L 209.54211,153.20686   L 208.74208,152.80684   L 208.14205,152.20681   L 207.94204,151.47345   L 207.94204,142.07303   L 208.14205,141.33966   L 208.74208,140.67296   L 209.54211,140.20628   L 210.54215,140.07294   L 230.27631,140.07294  z " clip-path="url(#clipWmfPath1)" style="fill:#ffffff;fill-rule:nonzero;fill-opacity:1;stroke:none;"/>
  <path id="path100" d="  M 210.54215,139.53958   L 210.54215,140.60629   L 230.20964,140.60629   L 231.07634,140.67296   L 231.74304,141.07298   L 232.20973,141.60634   L 232.34306,142.1397   L 232.34306,151.47345   L 232.20973,152.0068   L 231.80971,152.47349   L 231.14301,152.74017   L 230.20964,152.80684   L 210.60882,152.80684   L 209.67545,152.74017   L 209.07542,152.40682   L 208.60874,151.94013   L 208.4754,151.40678   L 208.4754,142.1397   L 208.60874,141.60634   L 209.07542,141.07298   L 209.74212,140.67296   L 210.60882,140.60629   L 230.20964,140.60629   L 231.20968,140.73963   L 231.34302,139.67292   L 230.34298,139.53958   L 210.47548,139.53958   L 209.3421,139.73959   L 208.40873,140.27295   L 207.67536,141.07298   L 207.40869,142.00636   L 207.40869,151.54012   L 207.67536,152.47349   L 208.40873,153.20686   L 209.40877,153.67355   L 210.47548,153.87355   L 230.34298,153.87355   L 231.40969,153.67355   L 232.34306,153.27353   L 233.1431,152.54016   L 233.40978,151.60679   L 233.40978,142.00636   L 233.1431,141.07298   L 232.40973,140.27295   L 231.47636,139.73959   L 230.34298,139.53958   L 210.54215,139.53958  z " clip-path="url(#clipWmfPath1)" style="fill:#000000;fill-rule:nonzero;fill-opacity:1;stroke:#000000;stroke-width:0.066669457px;stroke-linecap:round;stroke-linejoin:round;stroke-miterlimit:4;stroke-dasharray:none;stroke-opacity:1;"/>
  <path id="path102" d="  M 362.68186,174.2078   L 78.069936,174.2078   L 78.069936,189.20847   L 362.68186,189.20847   L 362.68186,174.2078  z " clip-path="url(#clipWmfPath1)" style="fill:#000000;fill-rule:nonzero;fill-opacity:1;stroke:none;"/>
  <path id="path104" d="  M 362.68186,174.2078   L 78.069936,174.2078   L 78.069936,189.20847   L 362.68186,189.20847   L 362.68186,174.2078  z " clip-path="url(#clipWmfPath1)" style="fill:none;stroke:#000000;stroke-width:0.066669457px;stroke-linecap:round;stroke-linejoin:round;stroke-miterlimit:4;stroke-dasharray:none;stroke-opacity:1;"/>
  <path id="path106" d="  M 352.5481,184.40825   L 88.003686,184.40825   L 88.003686,178.94134   L 352.5481,178.94134   L 352.5481,184.40825  z " clip-path="url(#clipWmfPath1)" style="fill:#ffffff;fill-rule:nonzero;fill-opacity:1;stroke:none;"/>
  <path id="path108" d="  M 352.5481,184.40825   L 88.003686,184.40825   L 88.003686,178.94134   L 352.5481,178.94134   L 352.5481,184.40825  z " clip-path="url(#clipWmfPath1)" style="fill:none;stroke:#000000;stroke-width:0.066669457px;stroke-linecap:round;stroke-linejoin:round;stroke-miterlimit:4;stroke-dasharray:none;stroke-opacity:1;"/>
  <path id="path110" d="  M 230.27631,175.0745   L 231.27635,175.20784   L 232.07639,175.67453   L 232.67641,176.34123   L 232.87642,177.07459   L 232.87642,186.54168   L 232.67641,187.27505   L 232.07639,187.87508   L 231.27635,188.20842   L 230.27631,188.34176   L 210.54215,188.34176   L 209.54211,188.20842   L 208.74208,187.80841   L 208.14205,187.20838   L 207.94204,186.47501   L 207.94204,177.07459   L 208.14205,176.34123   L 208.74208,175.67453   L 209.54211,175.20784   L 210.54215,175.0745   L 230.27631,175.0745  z " clip-path="url(#clipWmfPath1)" style="fill:#ffffff;fill-rule:nonzero;fill-opacity:1;stroke:none;"/>
  <path id="path112" d="  M 210.54215,174.54115   L 210.54215,175.60786   L 230.20964,175.60786   L 231.07634,175.67453   L 231.74304,176.07455   L 232.20973,176.60791   L 232.34306,177.14126   L 232.34306,186.47501   L 232.20973,187.00837   L 231.80971,187.47506   L 231.14301,187.74174   L 230.20964,187.80841   L 210.60882,187.80841   L 209.67545,187.74174   L 209.07542,187.40839   L 208.60874,186.9417   L 208.4754,186.40834   L 208.4754,177.14126   L 208.60874,176.60791   L 209.07542,176.07455   L 209.74212,175.67453   L 210.60882,175.60786   L 230.20964,175.60786   L 231.20968,175.7412   L 231.34302,174.67449   L 230.34298,174.54115   L 210.47548,174.54115   L 209.3421,174.74116   L 208.40873,175.27451   L 207.67536,176.07455   L 207.40869,177.00792   L 207.40869,186.54168   L 207.67536,187.47506   L 208.40873,188.20842   L 209.40877,188.67511   L 210.47548,188.87512   L 230.34298,188.87512   L 231.40969,188.67511   L 232.34306,188.27509   L 233.1431,187.54173   L 233.40978,186.60835   L 233.40978,177.00792   L 233.1431,176.07455   L 232.40973,175.27451   L 231.47636,174.74116   L 230.34298,174.54115   L 210.54215,174.54115  z " clip-path="url(#clipWmfPath1)" style="fill:#000000;fill-rule:nonzero;fill-opacity:1;stroke:#000000;stroke-width:0.066669457px;stroke-linecap:round;stroke-linejoin:round;stroke-miterlimit:4;stroke-dasharray:none;stroke-opacity:1;"/>
  <path id="path114" d="  M 361.68181,208.20932   L 77.069894,208.20932   L 77.069894,223.20999   L 361.68181,223.20999   L 361.68181,208.20932  z " clip-path="url(#clipWmfPath1)" style="fill:#000000;fill-rule:nonzero;fill-opacity:1;stroke:none;"/>
  <path id="path116" d="  M 361.68181,208.20932   L 77.069894,208.20932   L 77.069894,223.20999   L 361.68181,223.20999   L 361.68181,208.20932  z " clip-path="url(#clipWmfPath1)" style="fill:none;stroke:#000000;stroke-width:0.066669457px;stroke-linecap:round;stroke-linejoin:round;stroke-miterlimit:4;stroke-dasharray:none;stroke-opacity:1;"/>
  <path id="path118" d="  M 351.54806,218.40978   L 87.003644,218.40978   L 87.003644,212.94287   L 351.54806,212.94287   L 351.54806,218.40978  z " clip-path="url(#clipWmfPath1)" style="fill:#ffffff;fill-rule:nonzero;fill-opacity:1;stroke:none;"/>
  <path id="path120" d="  M 351.54806,218.40978   L 87.003644,218.40978   L 87.003644,212.94287   L 351.54806,212.94287   L 351.54806,218.40978  z " clip-path="url(#clipWmfPath1)" style="fill:none;stroke:#000000;stroke-width:0.066669457px;stroke-linecap:round;stroke-linejoin:round;stroke-miterlimit:4;stroke-dasharray:none;stroke-opacity:1;"/>
  <path id="path122" d="  M 229.27627,209.07603   L 230.27631,209.20936   L 231.07634,209.67605   L 231.67637,210.34275   L 231.87638,211.07612   L 231.87638,220.54321   L 231.67637,221.27657   L 231.07634,221.8766   L 230.27631,222.20995   L 229.27627,222.34329   L 209.54211,222.34329   L 208.54207,222.20995   L 207.74203,221.80993   L 207.14201,221.2099   L 206.942,220.47654   L 206.942,211.07612   L 207.14201,210.34275   L 207.74203,209.67605   L 208.54207,209.20936   L 209.54211,209.07603   L 229.27627,209.07603  z " clip-path="url(#clipWmfPath1)" style="fill:#ffffff;fill-rule:nonzero;fill-opacity:1;stroke:none;"/>
  <path id="path124" d="  M 209.54211,208.54267   L 209.54211,209.60938   L 229.2096,209.60938   L 230.0763,209.67605   L 230.743,210.07607   L 231.20968,210.60943   L 231.34302,211.14278   L 231.34302,220.47654   L 231.20968,221.00989   L 230.80967,221.47658   L 230.14297,221.74326   L 229.2096,221.80993   L 209.60878,221.80993   L 208.67541,221.74326   L 208.07538,221.40991   L 207.60869,220.94322   L 207.47536,220.40987   L 207.47536,211.14278   L 207.60869,210.60943   L 208.07538,210.07607   L 208.74208,209.67605   L 209.60878,209.60938   L 229.2096,209.60938   L 230.20964,209.74272   L 230.34298,208.67601   L 229.34294,208.54267   L 209.47544,208.54267   L 208.34206,208.74268   L 207.40869,209.27603   L 206.67532,210.07607   L 206.40864,211.00945   L 206.40864,220.54321   L 206.67532,221.47658   L 207.40869,222.20995   L 208.40873,222.67663   L 209.47544,222.87664   L 229.34294,222.87664   L 230.40965,222.67663   L 231.34302,222.27662   L 232.14306,221.54325   L 232.40973,220.60988   L 232.40973,211.00945   L 232.14306,210.07607   L 231.40969,209.27603   L 230.47632,208.74268   L 229.34294,208.54267   L 209.54211,208.54267  z " clip-path="url(#clipWmfPath1)" style="fill:#000000;fill-rule:nonzero;fill-opacity:1;stroke:#000000;stroke-width:0.066669457px;stroke-linecap:round;stroke-linejoin:round;stroke-miterlimit:4;stroke-dasharray:none;stroke-opacity:1;"/>
  <path id="path126" d="  M 361.68181,243.21089   L 77.069894,243.21089   L 77.069894,258.21156   L 361.68181,258.21156   L 361.68181,243.21089  z " clip-path="url(#clipWmfPath1)" style="fill:#000000;fill-rule:nonzero;fill-opacity:1;stroke:none;"/>
  <path id="path128" d="  M 361.68181,243.21089   L 77.069894,243.21089   L 77.069894,258.21156   L 361.68181,258.21156   L 361.68181,243.21089  z " clip-path="url(#clipWmfPath1)" style="fill:none;stroke:#000000;stroke-width:0.066669457px;stroke-linecap:round;stroke-linejoin:round;stroke-miterlimit:4;stroke-dasharray:none;stroke-opacity:1;"/>
  <path id="path130" d="  M 351.54806,253.41134   L 87.003644,253.41134   L 87.003644,247.94443   L 351.54806,247.94443   L 351.54806,253.41134  z " clip-path="url(#clipWmfPath1)" style="fill:#ffffff;fill-rule:nonzero;fill-opacity:1;stroke:none;"/>
  <path id="path132" d="  M 351.54806,253.41134   L 87.003644,253.41134   L 87.003644,247.94443   L 351.54806,247.94443   L 351.54806,253.41134  z " clip-path="url(#clipWmfPath1)" style="fill:none;stroke:#000000;stroke-width:0.066669457px;stroke-linecap:round;stroke-linejoin:round;stroke-miterlimit:4;stroke-dasharray:none;stroke-opacity:1;"/>
  <path id="path134" d="  M 229.27627,244.07759   L 230.27631,244.21093   L 231.07634,244.67762   L 231.67637,245.34432   L 231.87638,246.07768   L 231.87638,255.54477   L 231.67637,256.27814   L 231.07634,256.87817   L 230.27631,257.21151   L 229.27627,257.34485   L 209.54211,257.34485   L 208.54207,257.21151   L 207.74203,256.8115   L 207.14201,256.21147   L 206.942,255.4781   L 206.942,246.07768   L 207.14201,245.34432   L 207.74203,244.67762   L 208.54207,244.21093   L 209.54211,244.07759   L 229.27627,244.07759  z " clip-path="url(#clipWmfPath1)" style="fill:#ffffff;fill-rule:nonzero;fill-opacity:1;stroke:none;"/>
  <path id="path136" d="  M 209.54211,243.54424   L 209.54211,244.61095   L 229.2096,244.61095   L 230.0763,244.67762   L 230.743,245.07764   L 231.20968,245.61099   L 231.34302,246.14435   L 231.34302,255.4781   L 231.20968,256.01146   L 230.80967,256.47815   L 230.14297,256.74483   L 229.2096,256.8115   L 209.60878,256.8115   L 208.67541,256.74483   L 208.07538,256.41148   L 207.60869,255.94479   L 207.47536,255.41143   L 207.47536,246.14435   L 207.60869,245.61099   L 208.07538,245.07764   L 208.74208,244.67762   L 209.60878,244.61095   L 229.2096,244.61095   L 230.20964,244.74429   L 230.34298,243.67757   L 229.34294,243.54424   L 209.47544,243.54424   L 208.34206,243.74424   L 207.40869,244.2776   L 206.67532,245.07764   L 206.40864,246.01101   L 206.40864,255.54477   L 206.67532,256.47815   L 207.40869,257.21151   L 208.40873,257.6782   L 209.47544,257.87821   L 229.34294,257.87821   L 230.40965,257.6782   L 231.34302,257.27818   L 232.14306,256.54482   L 232.40973,255.61144   L 232.40973,246.01101   L 232.14306,245.07764   L 231.40969,244.2776   L 230.47632,243.74424   L 229.34294,243.54424   L 209.54211,243.54424  z " clip-path="url(#clipWmfPath1)" style="fill:#000000;fill-rule:nonzero;fill-opacity:1;stroke:#000000;stroke-width:0.066669457px;stroke-linecap:round;stroke-linejoin:round;stroke-miterlimit:4;stroke-dasharray:none;stroke-opacity:1;"/>
  <path id="path138" d="  M 362.61519,280.87924   L 201.74178,280.87924   L 201.74178,295.87991   L 362.61519,295.87991   L 362.61519,280.87924  z " clip-path="url(#clipWmfPath1)" style="fill:#000000;fill-rule:nonzero;fill-opacity:1;stroke:none;"/>
  <path id="path140" d="  M 362.61519,280.87924   L 201.74178,280.87924   L 201.74178,295.87991   L 362.61519,295.87991   L 362.61519,280.87924  z " clip-path="url(#clipWmfPath1)" style="fill:none;stroke:#000000;stroke-width:0.066669457px;stroke-linecap:round;stroke-linejoin:round;stroke-miterlimit:4;stroke-dasharray:none;stroke-opacity:1;"/>
  <path id="path142" d="  M 356.88161,291.0797   L 207.34202,291.0797   L 207.34202,285.61278   L 356.88161,285.61278   L 356.88161,291.0797  z " clip-path="url(#clipWmfPath1)" style="fill:#ffffff;fill-rule:nonzero;fill-opacity:1;stroke:none;"/>
  <path id="path144" d="  M 356.88161,291.0797   L 207.34202,291.0797   L 207.34202,285.61278   L 356.88161,285.61278   L 356.88161,291.0797  z " clip-path="url(#clipWmfPath1)" style="fill:none;stroke:#000000;stroke-width:0.066669457px;stroke-linecap:round;stroke-linejoin:round;stroke-miterlimit:4;stroke-dasharray:none;stroke-opacity:1;"/>
  <path id="path146" d="  M 192.94141,280.87924   L 91.003811,280.87924   L 91.003811,295.87991   L 192.94141,295.87991   L 192.94141,280.87924  z " clip-path="url(#clipWmfPath1)" style="fill:#000000;fill-rule:nonzero;fill-opacity:1;stroke:none;"/>
  <path id="path148" d="  M 192.94141,280.87924   L 91.003811,280.87924   L 91.003811,295.87991   L 192.94141,295.87991   L 192.94141,280.87924  z " clip-path="url(#clipWmfPath1)" style="fill:none;stroke:#000000;stroke-width:0.066669457px;stroke-linecap:round;stroke-linejoin:round;stroke-miterlimit:4;stroke-dasharray:none;stroke-opacity:1;"/>
  <path id="path150" d="  M 187.47452,291.0797   L 96.404038,291.0797   L 96.404038,285.61278   L 187.47452,285.61278   L 187.47452,291.0797  z " clip-path="url(#clipWmfPath1)" style="fill:#ffffff;fill-rule:nonzero;fill-opacity:1;stroke:none;"/>
  <path id="path152" d="  M 187.47452,291.0797   L 96.404038,291.0797   L 96.404038,285.61278   L 187.47452,285.61278   L 187.47452,291.0797  z " clip-path="url(#clipWmfPath1)" style="fill:none;stroke:#000000;stroke-width:0.066669457px;stroke-linecap:round;stroke-linejoin:round;stroke-miterlimit:4;stroke-dasharray:none;stroke-opacity:1;"/>
  <path id="path154" d="  M 236.67658,281.74595   L 237.67662,281.87928   L 238.47665,282.34597   L 239.07668,283.01267   L 239.27669,283.74603   L 239.27669,293.21313   L 239.07668,293.94649   L 238.47665,294.54652   L 237.67662,294.87987   L 236.67658,295.01321   L 216.94242,295.01321   L 215.94238,294.87987   L 215.14234,294.47985   L 214.54232,293.87982   L 214.34231,293.14646   L 214.34231,283.74603   L 214.54232,283.01267   L 215.14234,282.34597   L 215.94238,281.87928   L 216.94242,281.74595   L 236.67658,281.74595  z " clip-path="url(#clipWmfPath1)" style="fill:#ffffff;fill-rule:nonzero;fill-opacity:1;stroke:none;"/>
  <path id="path156" d="  M 216.94242,281.21259   L 216.94242,282.2793   L 236.60991,282.2793   L 237.47661,282.34597   L 238.14331,282.74599   L 238.60999,283.27935   L 238.74333,283.8127   L 238.74333,293.14646   L 238.60999,293.67981   L 238.20998,294.1465   L 237.54328,294.41318   L 236.60991,294.47985   L 217.00909,294.47985   L 216.07572,294.41318   L 215.47569,294.07983   L 215.009,293.61314   L 214.87567,293.07979   L 214.87567,283.8127   L 215.009,283.27935   L 215.47569,282.74599   L 216.14239,282.34597   L 217.00909,282.2793   L 236.60991,282.2793   L 237.60995,282.41264   L 237.74329,281.34593   L 236.74325,281.21259   L 216.87575,281.21259   L 215.74237,281.4126   L 214.809,281.94595   L 214.07563,282.74599   L 213.80895,283.67937   L 213.80895,293.21313   L 214.07563,294.1465   L 214.809,294.87987   L 215.80904,295.34655   L 216.87575,295.54656   L 236.74325,295.54656   L 237.80996,295.34655   L 238.74333,294.94654   L 239.54337,294.21317   L 239.81004,293.27979   L 239.81004,283.67937   L 239.54337,282.74599   L 238.81,281.94595   L 237.87663,281.4126   L 236.74325,281.21259   L 216.94242,281.21259  z " clip-path="url(#clipWmfPath1)" style="fill:#000000;fill-rule:nonzero;fill-opacity:1;stroke:#000000;stroke-width:0.066669457px;stroke-linecap:round;stroke-linejoin:round;stroke-miterlimit:4;stroke-dasharray:none;stroke-opacity:1;"/>
  <g id="g158" clip-path="url(#clipWmfPath1)"/>
  <g id="g170" clip-path="url(#clipWmfPath1)">
    <text id="text168" y="0.000000" x="0.000000" transform="matrix(1.000000,-0.000000,0.000000,1.000000,211.408854,151.006760)" style="font-size:10.687500px;font-style:normal;font-variant:normal;font-weight:400;font-stretch:Condensed;line-height:125.000000%;letter-spacing:0px;word-spacing:0px;fill:#000000;fill-opacity:1;stroke:none;font-family:Helvetica-Narrow;text-align:start;text-anchor:start;" xml:space="preserve"><tspan id="tspan166" y="0.000000" x="0.000000"><tspan id="tspan160" style="fill:#000000;font-size:10.687500px;font-style:normal;font-variant:normal;font-weight:400;font-stretch:Condensed;font-family:Helvetica-Narrow;" dy="0.000000" dx="0.000000">S</tspan><tspan id="tspan162" style="fill:#000000;font-size:10.687500px;font-style:normal;font-variant:normal;font-weight:400;font-stretch:Condensed;font-family:Helvetica-Narrow;" dy="0.000000" dx="-0.102258">L</tspan><tspan id="tspan164" style="fill:#000000;font-size:10.687500px;font-style:normal;font-variant:normal;font-weight:400;font-stretch:Condensed;font-family:Helvetica-Narrow;" dy="0.000000" dx="0.003601">2</tspan></tspan></text>
  </g>
  <g id="g172" clip-path="url(#clipWmfPath1)"/>
  <g id="g184" clip-path="url(#clipWmfPath1)">
    <text id="text182" y="0.000000" x="0.000000" transform="matrix(1.000000,-0.000000,0.000000,1.000000,212.342227,185.874987)" style="font-size:10.687500px;font-style:normal;font-variant:normal;font-weight:400;font-stretch:Condensed;line-height:125.000000%;letter-spacing:0px;word-spacing:0px;fill:#000000;fill-opacity:1;stroke:none;font-family:Helvetica-Narrow;text-align:start;text-anchor:start;" xml:space="preserve"><tspan id="tspan180" y="0.000000" x="0.000000"><tspan id="tspan174" style="fill:#000000;font-size:10.687500px;font-style:normal;font-variant:normal;font-weight:400;font-stretch:Condensed;font-family:Helvetica-Narrow;" dy="0.000000" dx="0.000000">S</tspan><tspan id="tspan176" style="fill:#000000;font-size:10.687500px;font-style:normal;font-variant:normal;font-weight:400;font-stretch:Condensed;font-family:Helvetica-Narrow;" dy="0.000000" dx="-0.102258">L</tspan><tspan id="tspan178" style="fill:#000000;font-size:10.687500px;font-style:normal;font-variant:normal;font-weight:400;font-stretch:Condensed;font-family:Helvetica-Narrow;" dy="0.000000" dx="0.003601">3</tspan></tspan></text>
  </g>
  <g id="g186" clip-path="url(#clipWmfPath1)"/>
  <g id="g198" clip-path="url(#clipWmfPath1)">
    <text id="text196" y="0.000000" x="0.000000" transform="matrix(1.000000,-0.000000,0.000000,1.000000,210.942168,219.809839)" style="font-size:10.687500px;font-style:normal;font-variant:normal;font-weight:400;font-stretch:Condensed;line-height:125.000000%;letter-spacing:0px;word-spacing:0px;fill:#000000;fill-opacity:1;stroke:none;font-family:Helvetica-Narrow;text-align:start;text-anchor:start;" xml:space="preserve"><tspan id="tspan194" y="0.000000" x="0.000000"><tspan id="tspan188" style="fill:#000000;font-size:10.687500px;font-style:normal;font-variant:normal;font-weight:400;font-stretch:Condensed;font-family:Helvetica-Narrow;" dy="0.000000" dx="0.000000">S</tspan><tspan id="tspan190" style="fill:#000000;font-size:10.687500px;font-style:normal;font-variant:normal;font-weight:400;font-stretch:Condensed;font-family:Helvetica-Narrow;" dy="0.000000" dx="-0.102258">L</tspan><tspan id="tspan192" style="fill:#000000;font-size:10.687500px;font-style:normal;font-variant:normal;font-weight:400;font-stretch:Condensed;font-family:Helvetica-Narrow;" dy="0.000000" dx="0.003601">4</tspan></tspan></text>
  </g>
  <g id="g200" clip-path="url(#clipWmfPath1)"/>
  <g id="g212" clip-path="url(#clipWmfPath1)">
    <text id="text210" y="0.000000" x="0.000000" transform="matrix(1.000000,-0.000000,0.000000,1.000000,210.008795,254.678067)" style="font-size:10.687500px;font-style:normal;font-variant:normal;font-weight:400;font-stretch:Condensed;line-height:125.000000%;letter-spacing:0px;word-spacing:0px;fill:#000000;fill-opacity:1;stroke:none;font-family:Helvetica-Narrow;text-align:start;text-anchor:start;" xml:space="preserve"><tspan id="tspan208" y="0.000000" x="0.000000"><tspan id="tspan202" style="fill:#000000;font-size:10.687500px;font-style:normal;font-variant:normal;font-weight:400;font-stretch:Condensed;font-family:Helvetica-Narrow;" dy="0.000000" dx="0.000000">S</tspan><tspan id="tspan204" style="fill:#000000;font-size:10.687500px;font-style:normal;font-variant:normal;font-weight:400;font-stretch:Condensed;font-family:Helvetica-Narrow;" dy="0.000000" dx="-0.102258">L</tspan><tspan id="tspan206" style="fill:#000000;font-size:10.687500px;font-style:normal;font-variant:normal;font-weight:400;font-stretch:Condensed;font-family:Helvetica-Narrow;" dy="0.000000" dx="0.003601">5</tspan></tspan></text>
  </g>
  <g id="g214" clip-path="url(#clipWmfPath1)"/>
  <g id="g226" clip-path="url(#clipWmfPath1)">
    <text id="text224" y="0.000000" x="0.000000" transform="matrix(1.000000,-0.000000,0.000000,1.000000,218.075800,292.879777)" style="font-size:10.687500px;font-style:normal;font-variant:normal;font-weight:400;font-stretch:Condensed;line-height:125.000000%;letter-spacing:0px;word-spacing:0px;fill:#000000;fill-opacity:1;stroke:none;font-family:Helvetica-Narrow;text-align:start;text-anchor:start;" xml:space="preserve"><tspan id="tspan222" y="0.000000" x="0.000000"><tspan id="tspan216" style="fill:#000000;font-size:10.687500px;font-style:normal;font-variant:normal;font-weight:400;font-stretch:Condensed;font-family:Helvetica-Narrow;" dy="0.000000" dx="0.000000">S</tspan><tspan id="tspan218" style="fill:#000000;font-size:10.687500px;font-style:normal;font-variant:normal;font-weight:400;font-stretch:Condensed;font-family:Helvetica-Narrow;" dy="0.000000" dx="-0.102258">L</tspan><tspan id="tspan220" style="fill:#000000;font-size:10.687500px;font-style:normal;font-variant:normal;font-weight:400;font-stretch:Condensed;font-family:Helvetica-Narrow;" dy="0.000000" dx="0.003601">6</tspan></tspan></text>
  </g>
  <g id="g228" clip-path="url(#clipWmfPath1)"/>
  <g id="g244" clip-path="url(#clipWmfPath1)">
    <text id="text242" y="0.000000" x="0.000000" transform="matrix(1.000000,-0.000000,0.000000,1.000000,272.011392,61.002731)" style="font-size:9.312500px;font-style:normal;font-variant:normal;font-weight:400;font-stretch:Condensed;line-height:125.000000%;letter-spacing:0px;word-spacing:0px;fill:#000000;fill-opacity:1;stroke:none;font-family:Helvetica-Narrow;text-align:start;text-anchor:start;" xml:space="preserve"><tspan id="tspan240" y="0.000000" x="0.000000"><tspan id="tspan230" style="fill:#000000;font-size:9.312500px;font-style:normal;font-variant:normal;font-weight:400;font-stretch:Condensed;font-family:Helvetica-Narrow;" dy="0.000000" dx="0.000000">3</tspan><tspan id="tspan232" style="fill:#000000;font-size:9.312500px;font-style:normal;font-variant:normal;font-weight:400;font-stretch:Condensed;font-family:Helvetica-Narrow;" dy="0.000000" dx="0.183652">4</tspan><tspan id="tspan234" style="fill:#000000;font-size:9.312500px;font-style:normal;font-variant:normal;font-weight:400;font-stretch:Condensed;font-family:Helvetica-Narrow;" dy="0.000000" dx="0.183652">1</tspan><tspan id="tspan236" style="fill:#000000;font-size:9.312500px;font-style:normal;font-variant:normal;font-weight:400;font-stretch:Condensed;font-family:Helvetica-Narrow;" dy="0.000000" dx="0.183652">3</tspan><tspan id="tspan238" style="fill:#000000;font-size:9.312500px;font-style:normal;font-variant:normal;font-weight:400;font-stretch:Condensed;font-family:Helvetica-Narrow;" dy="0.000000" dx="0.183652">0</tspan></tspan></text>
  </g>
</svg>