<svg xmlns:inkscape="http://www.inkscape.org/namespaces/inkscape" xmlns:sodipodi="http://sodipodi.sourceforge.net/DTD/sodipodi-0.dtd" xmlns="http://www.w3.org/2000/svg" xmlns:svg="http://www.w3.org/2000/svg" xmlns:rdf="http://www.w3.org/1999/02/22-rdf-syntax-ns#" xmlns:cc="http://creativecommons.org/ns#" xmlns:dc="http://purl.org/dc/elements/1.1/" id="svg246" height="89.990001mm" width="106.13mm" version="1.0" sodipodi:docname="34130.svg" inkscape:version="1.1.1 (3bf5ae0d25, 2021-09-20)">
  <sodipodi:namedview id="namedview114" pagecolor="#ffffff" bordercolor="#666666" borderopacity="1.0" inkscape:pageshadow="2" inkscape:pageopacity="0.0" inkscape:pagecheckerboard="0" inkscape:document-units="mm" showgrid="false" inkscape:zoom="2.4461978" inkscape:cx="200.71967" inkscape:cy="170.05984" inkscape:window-width="1920" inkscape:window-height="1017" inkscape:window-x="1672" inkscape:window-y="-8" inkscape:window-maximized="0" inkscape:current-layer="svg246"/>
  <metadata id="metadata250">
    <rdf:RDF>
      <cc:Work rdf:about="">
        <dc:format>image/svg+xml</dc:format>
        <dc:type rdf:resource="http://purl.org/dc/dcmitype/StillImage"/>
      </cc:Work>
    </rdf:RDF>
  </metadata>
  <defs id="defs6">
    <clipPath id="clipWmfPath1" clipPathUnits="userSpaceOnUse">
      <path id="path2" d="M 0,0 L 401.0168,0 L 401.0168,340.01522 L 0,340.01522 z"/>
    </clipPath>
    <pattern y="0" x="0" height="6" width="6" patternUnits="userSpaceOnUse" id="WMFhbasepattern"/>
  </defs>
  <path id="path8" d="M 36.001508,328.01468 V 19.000851 H 382.016 V 328.01468 Z" clip-path="url(#clipWmfPath1)" style="fill:#e5e5e5;fill-opacity:1;fill-rule:nonzero;stroke:none" transform="rotate(180,209.00875,173.50776)"/>
  <path id="path10" d="m 382.016,328.21469 v -0.40002 H 36.201516 V 19.200859 H 381.81599 V 327.81467 H 36.201516 V 19.000851 H 35.801499 V 328.21469 H 382.21601 V 18.800842 H 35.801499 V 328.21469 Z" clip-path="url(#clipWmfPath1)" style="fill:#000000;fill-opacity:1;fill-rule:nonzero;stroke:#000000;stroke-width:0.0666695px;stroke-linecap:round;stroke-linejoin:round;stroke-miterlimit:4;stroke-dasharray:none;stroke-opacity:1" transform="rotate(180,209.00875,173.50776)"/>
  <path id="path38" d="m 318.21333,106.47143 0.73336,0.0667 0.8667,0.26668 0.60003,0.60003 0.46669,0.66669 0.46668,1.40007 -0.13334,0.93337 -0.26667,0.73337 -0.46669,0.73336 -0.6667,0.46669 -0.80003,0.33335 -0.80003,0.0667 -1.40006,-0.40002 -1.20005,-1.20005 -0.26668,-0.73337 -0.0667,-0.93337 0.0667,-0.73337 0.33335,-0.6667 1.13338,-1.26672 0.73336,-0.26668 z m 0,0.20001 -0.60003,0.13334 -0.73336,0.40002 -0.46669,0.40002 -0.46668,0.60002 -0.26668,0.6667 -0.0667,0.60003 0.0667,0.8667 0.26668,0.80004 0.40001,0.46669 0.53336,0.46668 1.33339,0.40002 0.73336,-0.0667 0.6667,-0.33335 1.13338,-0.93337 0.26667,-1.66674 -0.26667,-1.26673 -0.60003,-0.66669 -0.53335,-0.33335 -0.6667,-0.40002 z m -1.46673,0.93338 h 1.46673 l 1.06671,0.26668 0.33335,0.80003 -0.20001,0.6667 -0.80004,0.26668 0.86671,1.26672 0.33334,0.40002 h 0.20001 v 0.26668 h -0.73336 l -1.33339,-1.93342 h -0.0667 v 1.5334 l 0.0667,0.13334 h 0.46669 v 0.26668 h -1.86675 v -0.26668 h 0.26668 l 0.0667,-0.13334 0.13334,-0.33335 v -2.46678 l -0.13334,-0.26668 v -0.40001 h -0.13334 z m 1.13338,1.80008 h 0.53336 l 0.2,-0.33335 0.26668,-0.40002 -0.26668,-0.60003 -0.13333,-0.33334 -0.40002,-0.0667 h -0.20001 z" clip-path="url(#clipWmfPath1)" style="fill:#bfbfbf;fill-opacity:1;fill-rule:evenodd;stroke:none" transform="rotate(180,209.00875,173.50776)"/>
  <path id="path40" d="M 362.61519,68.73641 H 201.74178 v 15.000672 h 160.87341 z" clip-path="url(#clipWmfPath1)" style="fill:#000000;fill-opacity:1;fill-rule:nonzero;stroke:none" transform="rotate(180,209.00875,173.50776)"/>
  <path id="path42" d="M 362.61519,68.73641 H 201.74178 v 15.000672 h 160.87341 z" clip-path="url(#clipWmfPath1)" style="fill:none;stroke:#000000;stroke-width:0.0666695px;stroke-linecap:round;stroke-linejoin:round;stroke-miterlimit:4;stroke-dasharray:none;stroke-opacity:1" transform="rotate(180,209.00875,173.50776)"/>
  <path id="path44" d="M 356.88161,78.936867 H 207.34202 v -5.466912 h 149.53959 z" clip-path="url(#clipWmfPath1)" style="fill:#ffffff;fill-opacity:1;fill-rule:nonzero;stroke:none" transform="rotate(180,209.00875,173.50776)"/>
  <path id="path46" d="M 356.88161,78.936867 H 207.34202 v -5.466912 h 149.53959 z" clip-path="url(#clipWmfPath1)" style="fill:none;stroke:#000000;stroke-width:0.0666695px;stroke-linecap:round;stroke-linejoin:round;stroke-miterlimit:4;stroke-dasharray:none;stroke-opacity:1" transform="rotate(180,209.00875,173.50776)"/>
  <path id="path48" d="M 362.61519,104.13799 H 201.74178 v 15.00068 h 160.87341 z" clip-path="url(#clipWmfPath1)" style="fill:#000000;fill-opacity:1;fill-rule:nonzero;stroke:none" transform="rotate(180,209.00875,173.50776)"/>
  <path id="path50" d="M 362.61519,104.13799 H 201.74178 v 15.00068 h 160.87341 z" clip-path="url(#clipWmfPath1)" style="fill:none;stroke:#000000;stroke-width:0.0666695px;stroke-linecap:round;stroke-linejoin:round;stroke-miterlimit:4;stroke-dasharray:none;stroke-opacity:1" transform="rotate(180,209.00875,173.50776)"/>
  <path id="path52" d="M 356.88161,114.33845 H 207.34202 v -5.46691 h 149.53959 z" clip-path="url(#clipWmfPath1)" style="fill:#ffffff;fill-opacity:1;fill-rule:nonzero;stroke:none" transform="rotate(180,209.00875,173.50776)"/>
  <path id="path54" d="M 356.88161,114.33845 H 207.34202 v -5.46691 h 149.53959 z" clip-path="url(#clipWmfPath1)" style="fill:none;stroke:#000000;stroke-width:0.0666695px;stroke-linecap:round;stroke-linejoin:round;stroke-miterlimit:4;stroke-dasharray:none;stroke-opacity:1" transform="rotate(180,209.00875,173.50776)"/>
  <path id="path56" d="M 192.94141,104.13799 H 91.003811 v 15.00068 H 192.94141 Z" clip-path="url(#clipWmfPath1)" style="fill:#000000;fill-opacity:1;fill-rule:nonzero;stroke:none" transform="rotate(180,209.00875,173.50776)"/>
  <path id="path58" d="M 192.94141,104.13799 H 91.003811 v 15.00068 H 192.94141 Z" clip-path="url(#clipWmfPath1)" style="fill:none;stroke:#000000;stroke-width:0.0666695px;stroke-linecap:round;stroke-linejoin:round;stroke-miterlimit:4;stroke-dasharray:none;stroke-opacity:1" transform="rotate(180,209.00875,173.50776)"/>
  <path id="path60" d="M 187.47452,114.33845 H 96.404038 v -5.46691 h 91.070482 z" clip-path="url(#clipWmfPath1)" style="fill:#ffffff;fill-opacity:1;fill-rule:nonzero;stroke:none" transform="rotate(180,209.00875,173.50776)"/>
  <path id="path62" d="M 187.47452,114.33845 H 96.404038 v -5.46691 h 91.070482 z" clip-path="url(#clipWmfPath1)" style="fill:none;stroke:#000000;stroke-width:0.0666695px;stroke-linecap:round;stroke-linejoin:round;stroke-miterlimit:4;stroke-dasharray:none;stroke-opacity:1" transform="rotate(180,209.00875,173.50776)"/>
  <path id="path64" d="M 362.61519,33.001477 H 201.74178 v 15.000672 h 160.87341 z" clip-path="url(#clipWmfPath1)" style="fill:#000000;fill-opacity:1;fill-rule:nonzero;stroke:none" transform="rotate(180,209.00875,173.50776)"/>
  <path id="path66" d="M 362.61519,33.001477 H 201.74178 v 15.000672 h 160.87341 z" clip-path="url(#clipWmfPath1)" style="fill:none;stroke:#000000;stroke-width:0.0666695px;stroke-linecap:round;stroke-linejoin:round;stroke-miterlimit:4;stroke-dasharray:none;stroke-opacity:1" transform="rotate(180,209.00875,173.50776)"/>
  <path id="path68" d="M 356.88161,43.201934 H 207.34202 v -5.466912 h 149.53959 z" clip-path="url(#clipWmfPath1)" style="fill:#ffffff;fill-opacity:1;fill-rule:nonzero;stroke:none" transform="rotate(180,209.00875,173.50776)"/>
  <path id="path70" d="M 356.88161,43.201934 H 207.34202 v -5.466912 h 149.53959 z" clip-path="url(#clipWmfPath1)" style="fill:none;stroke:#000000;stroke-width:0.0666695px;stroke-linecap:round;stroke-linejoin:round;stroke-miterlimit:4;stroke-dasharray:none;stroke-opacity:1" transform="rotate(180,209.00875,173.50776)"/>
  <path id="path72" d="m 292.0789,33.868183 1.00004,0.133339 0.80003,0.466688 0.60003,0.666696 0.20001,0.733366 v 9.467091 l -0.20001,0.733366 -0.60003,0.600027 -0.80003,0.333348 -1.00004,0.133339 h -19.73416 l -1.00004,-0.133339 -0.80004,-0.400018 -0.60002,-0.600027 -0.20001,-0.733366 v -9.400421 l 0.20001,-0.733366 0.60002,-0.666696 0.80004,-0.466688 1.00004,-0.133339 z" clip-path="url(#clipWmfPath1)" style="fill:#ffffff;fill-opacity:1;fill-rule:nonzero;stroke:none" transform="rotate(180,209.00875,173.50776)"/>
  <path id="path74" d="m 272.34474,33.334826 v 1.066714 h 19.66749 l 0.8667,0.06667 0.6667,0.400017 0.46668,0.533358 0.13334,0.533357 v 9.333751 l -0.13334,0.533357 -0.40001,0.466688 -0.6667,0.266678 -0.93337,0.06667 h -19.60082 l -0.93337,-0.06667 -0.60003,-0.333348 -0.46668,-0.466687 -0.13334,-0.533358 v -9.267081 l 0.13334,-0.533357 0.46668,-0.533358 0.6667,-0.400017 0.8667,-0.06667 h 19.60082 l 1.00004,0.133339 0.13334,-1.066714 -1.00004,-0.133339 h -19.8675 l -1.13338,0.200008 -0.93337,0.533358 -0.73337,0.800035 -0.26668,0.933376 v 9.53376 l 0.26668,0.933375 0.73337,0.733366 1.00004,0.466688 1.06671,0.200008 h 19.8675 l 1.06671,-0.200008 0.93337,-0.400018 0.80004,-0.733367 0.26667,-0.933375 v -9.600429 l -0.26667,-0.933376 -0.73337,-0.800035 -0.93337,-0.533358 -1.13338,-0.200008 z" clip-path="url(#clipWmfPath1)" style="fill:#000000;fill-opacity:1;fill-rule:nonzero;stroke:#000000;stroke-width:0.0666695px;stroke-linecap:round;stroke-linejoin:round;stroke-miterlimit:4;stroke-dasharray:none;stroke-opacity:1" transform="rotate(180,209.00875,173.50776)"/>
  <g id="g76" clip-path="url(#clipWmfPath1)" transform="rotate(180,209.00875,173.50776)"/>
  <g id="g88" clip-path="url(#clipWmfPath1)" transform="translate(126.88607000000002, 301.01354999999995)">
    <text id="text86" y="0" x="0" transform="translate(0,9)" style="font-style:normal;font-variant:normal;font-weight:400;font-size:10.6875px;line-height:125%;font-family:Helvetica-Narrow;text-align:start;letter-spacing:0px;word-spacing:0px;text-anchor:start;fill:#000000;fill-opacity:1;stroke:none" xml:space="preserve"><tspan id="tspan84" y="0" x="0"><tspan id="tspan78" style="font-style:normal;font-variant:normal;font-weight:400;font-size:10.6875px;font-family:Helvetica-Narrow;fill:#000000" dy="0" dx="0">S</tspan><tspan id="tspan80" style="font-style:normal;font-variant:normal;font-weight:400;font-size:10.6875px;font-family:Helvetica-Narrow;fill:#000000" dy="0" dx="-0.194939">L</tspan><tspan id="tspan82" style="font-style:normal;font-variant:normal;font-weight:400;font-size:10.6875px;font-family:Helvetica-Narrow;fill:#000000" dy="0" dx="0.0036009999">1</tspan></tspan></text>
  </g>
  <path id="path90" d="M 362.68186,139.20623 H 78.069936 V 154.2069 H 362.68186 Z" clip-path="url(#clipWmfPath1)" style="fill:#000000;fill-opacity:1;fill-rule:nonzero;stroke:none" transform="rotate(180,209.00875,173.50776)"/>
  <path id="path92" d="M 362.68186,139.20623 H 78.069936 V 154.2069 H 362.68186 Z" clip-path="url(#clipWmfPath1)" style="fill:none;stroke:#000000;stroke-width:0.0666695px;stroke-linecap:round;stroke-linejoin:round;stroke-miterlimit:4;stroke-dasharray:none;stroke-opacity:1" transform="rotate(180,209.00875,173.50776)"/>
  <path id="path94" d="M 352.5481,149.40669 H 88.003686 v -5.46691 H 352.5481 Z" clip-path="url(#clipWmfPath1)" style="fill:#ffffff;fill-opacity:1;fill-rule:nonzero;stroke:none" transform="rotate(180,209.00875,173.50776)"/>
  <path id="path96" d="M 352.5481,149.40669 H 88.003686 v -5.46691 H 352.5481 Z" clip-path="url(#clipWmfPath1)" style="fill:none;stroke:#000000;stroke-width:0.0666695px;stroke-linecap:round;stroke-linejoin:round;stroke-miterlimit:4;stroke-dasharray:none;stroke-opacity:1" transform="rotate(180,209.00875,173.50776)"/>
  <path id="path98" d="m 230.27631,140.07294 1.00004,0.13334 0.80004,0.46668 0.60002,0.6667 0.20001,0.73337 v 9.46709 l -0.20001,0.73336 -0.60002,0.60003 -0.80004,0.33335 -1.00004,0.13334 h -19.73416 l -1.00004,-0.13334 -0.80003,-0.40002 -0.60003,-0.60003 -0.20001,-0.73336 v -9.40042 l 0.20001,-0.73337 0.60003,-0.6667 0.80003,-0.46668 1.00004,-0.13334 z" clip-path="url(#clipWmfPath1)" style="fill:#ffffff;fill-opacity:1;fill-rule:nonzero;stroke:none" transform="rotate(180,209.00875,173.50776)"/>
  <path id="path100" d="m 210.54215,139.53958 v 1.06671 h 19.66749 l 0.8667,0.0667 0.6667,0.40002 0.46669,0.53336 0.13333,0.53336 v 9.33375 l -0.13333,0.53335 -0.40002,0.46669 -0.6667,0.26668 -0.93337,0.0667 h -19.60082 l -0.93337,-0.0667 -0.60003,-0.33335 -0.46668,-0.46669 -0.13334,-0.53335 v -9.26708 l 0.13334,-0.53336 0.46668,-0.53336 0.6667,-0.40002 0.8667,-0.0667 h 19.60082 l 1.00004,0.13334 0.13334,-1.06671 -1.00004,-0.13334 h -19.8675 l -1.13338,0.20001 -0.93337,0.53336 -0.73337,0.80003 -0.26667,0.93338 v 9.53376 l 0.26667,0.93337 0.73337,0.73337 1.00004,0.46669 1.06671,0.2 h 19.8675 l 1.06671,-0.2 0.93337,-0.40002 0.80004,-0.73337 0.26668,-0.93337 v -9.60043 l -0.26668,-0.93338 -0.73337,-0.80003 -0.93337,-0.53336 -1.13338,-0.20001 z" clip-path="url(#clipWmfPath1)" style="fill:#000000;fill-opacity:1;fill-rule:nonzero;stroke:#000000;stroke-width:0.0666695px;stroke-linecap:round;stroke-linejoin:round;stroke-miterlimit:4;stroke-dasharray:none;stroke-opacity:1" transform="rotate(180,209.00875,173.50776)"/>
  <path id="path102" d="M 362.68186,174.2078 H 78.069936 v 15.00067 H 362.68186 Z" clip-path="url(#clipWmfPath1)" style="fill:#000000;fill-opacity:1;fill-rule:nonzero;stroke:none" transform="rotate(180,209.00875,173.50776)"/>
  <path id="path104" d="M 362.68186,174.2078 H 78.069936 v 15.00067 H 362.68186 Z" clip-path="url(#clipWmfPath1)" style="fill:none;stroke:#000000;stroke-width:0.0666695px;stroke-linecap:round;stroke-linejoin:round;stroke-miterlimit:4;stroke-dasharray:none;stroke-opacity:1" transform="rotate(180,209.00875,173.50776)"/>
  <path id="path106" d="M 352.5481,184.40825 H 88.003686 v -5.46691 H 352.5481 Z" clip-path="url(#clipWmfPath1)" style="fill:#ffffff;fill-opacity:1;fill-rule:nonzero;stroke:none" transform="rotate(180,209.00875,173.50776)"/>
  <path id="path108" d="M 352.5481,184.40825 H 88.003686 v -5.46691 H 352.5481 Z" clip-path="url(#clipWmfPath1)" style="fill:none;stroke:#000000;stroke-width:0.0666695px;stroke-linecap:round;stroke-linejoin:round;stroke-miterlimit:4;stroke-dasharray:none;stroke-opacity:1" transform="rotate(180,209.00875,173.50776)"/>
  <path id="path110" d="m 230.27631,175.0745 1.00004,0.13334 0.80004,0.46669 0.60002,0.6667 0.20001,0.73336 v 9.46709 l -0.20001,0.73337 -0.60002,0.60003 -0.80004,0.33334 -1.00004,0.13334 h -19.73416 l -1.00004,-0.13334 -0.80003,-0.40001 -0.60003,-0.60003 -0.20001,-0.73337 v -9.40042 l 0.20001,-0.73336 0.60003,-0.6667 0.80003,-0.46669 1.00004,-0.13334 z" clip-path="url(#clipWmfPath1)" style="fill:#ffffff;fill-opacity:1;fill-rule:nonzero;stroke:none" transform="rotate(180,209.00875,173.50776)"/>
  <path id="path112" d="m 210.54215,174.54115 v 1.06671 h 19.66749 l 0.8667,0.0667 0.6667,0.40002 0.46669,0.53336 0.13333,0.53335 v 9.33375 l -0.13333,0.53336 -0.40002,0.46669 -0.6667,0.26668 -0.93337,0.0667 h -19.60082 l -0.93337,-0.0667 -0.60003,-0.33335 -0.46668,-0.46669 -0.13334,-0.53336 v -9.26708 l 0.13334,-0.53335 0.46668,-0.53336 0.6667,-0.40002 0.8667,-0.0667 h 19.60082 l 1.00004,0.13334 0.13334,-1.06671 -1.00004,-0.13334 h -19.8675 l -1.13338,0.20001 -0.93337,0.53335 -0.73337,0.80004 -0.26667,0.93337 v 9.53376 l 0.26667,0.93338 0.73337,0.73336 1.00004,0.46669 1.06671,0.20001 h 19.8675 l 1.06671,-0.20001 0.93337,-0.40002 0.80004,-0.73336 0.26668,-0.93338 v -9.60043 l -0.26668,-0.93337 -0.73337,-0.80004 -0.93337,-0.53335 -1.13338,-0.20001 z" clip-path="url(#clipWmfPath1)" style="fill:#000000;fill-opacity:1;fill-rule:nonzero;stroke:#000000;stroke-width:0.0666695px;stroke-linecap:round;stroke-linejoin:round;stroke-miterlimit:4;stroke-dasharray:none;stroke-opacity:1" transform="rotate(180,209.00875,173.50776)"/>
  <path id="path114" d="M 361.68181,208.20932 H 77.069894 v 15.00067 H 361.68181 Z" clip-path="url(#clipWmfPath1)" style="fill:#000000;fill-opacity:1;fill-rule:nonzero;stroke:none" transform="rotate(180,209.00875,173.50776)"/>
  <path id="path116" d="M 361.68181,208.20932 H 77.069894 v 15.00067 H 361.68181 Z" clip-path="url(#clipWmfPath1)" style="fill:none;stroke:#000000;stroke-width:0.0666695px;stroke-linecap:round;stroke-linejoin:round;stroke-miterlimit:4;stroke-dasharray:none;stroke-opacity:1" transform="rotate(180,209.00875,173.50776)"/>
  <path id="path118" d="M 351.54806,218.40978 H 87.003644 v -5.46691 H 351.54806 Z" clip-path="url(#clipWmfPath1)" style="fill:#ffffff;fill-opacity:1;fill-rule:nonzero;stroke:none" transform="rotate(180,209.00875,173.50776)"/>
  <path id="path120" d="M 351.54806,218.40978 H 87.003644 v -5.46691 H 351.54806 Z" clip-path="url(#clipWmfPath1)" style="fill:none;stroke:#000000;stroke-width:0.0666695px;stroke-linecap:round;stroke-linejoin:round;stroke-miterlimit:4;stroke-dasharray:none;stroke-opacity:1" transform="rotate(180,209.00875,173.50776)"/>
  <path id="path122" d="m 229.27627,209.07603 1.00004,0.13333 0.80003,0.46669 0.60003,0.6667 0.20001,0.73337 v 9.46709 l -0.20001,0.73336 -0.60003,0.60003 -0.80003,0.33335 -1.00004,0.13334 h -19.73416 l -1.00004,-0.13334 -0.80004,-0.40002 -0.60002,-0.60003 -0.20001,-0.73336 v -9.40042 l 0.20001,-0.73337 0.60002,-0.6667 0.80004,-0.46669 1.00004,-0.13333 z" clip-path="url(#clipWmfPath1)" style="fill:#ffffff;fill-opacity:1;fill-rule:nonzero;stroke:none" transform="rotate(180,209.00875,173.50776)"/>
  <path id="path124" d="m 209.54211,208.54267 v 1.06671 h 19.66749 l 0.8667,0.0667 0.6667,0.40002 0.46668,0.53336 0.13334,0.53335 v 9.33376 l -0.13334,0.53335 -0.40001,0.46669 -0.6667,0.26668 -0.93337,0.0667 h -19.60082 l -0.93337,-0.0667 -0.60003,-0.33335 -0.46669,-0.46669 -0.13333,-0.53335 v -9.26709 l 0.13333,-0.53335 0.46669,-0.53336 0.6667,-0.40002 0.8667,-0.0667 h 19.60082 l 1.00004,0.13334 0.13334,-1.06671 -1.00004,-0.13334 h -19.8675 l -1.13338,0.20001 -0.93337,0.53335 -0.73337,0.80004 -0.26668,0.93338 v 9.53376 l 0.26668,0.93337 0.73337,0.73337 1.00004,0.46668 1.06671,0.20001 h 19.8675 l 1.06671,-0.20001 0.93337,-0.40001 0.80004,-0.73337 0.26667,-0.93337 v -9.60043 l -0.26667,-0.93338 -0.73337,-0.80004 -0.93337,-0.53335 -1.13338,-0.20001 z" clip-path="url(#clipWmfPath1)" style="fill:#000000;fill-opacity:1;fill-rule:nonzero;stroke:#000000;stroke-width:0.0666695px;stroke-linecap:round;stroke-linejoin:round;stroke-miterlimit:4;stroke-dasharray:none;stroke-opacity:1" transform="rotate(180,209.00875,173.50776)"/>
  <path id="path126" d="M 361.68181,243.21089 H 77.069894 v 15.00067 H 361.68181 Z" clip-path="url(#clipWmfPath1)" style="fill:#000000;fill-opacity:1;fill-rule:nonzero;stroke:none" transform="rotate(180,209.00875,173.50776)"/>
  <path id="path128" d="M 361.68181,243.21089 H 77.069894 v 15.00067 H 361.68181 Z" clip-path="url(#clipWmfPath1)" style="fill:none;stroke:#000000;stroke-width:0.0666695px;stroke-linecap:round;stroke-linejoin:round;stroke-miterlimit:4;stroke-dasharray:none;stroke-opacity:1" transform="rotate(180,209.00875,173.50776)"/>
  <path id="path130" d="M 351.54806,253.41134 H 87.003644 v -5.46691 H 351.54806 Z" clip-path="url(#clipWmfPath1)" style="fill:#ffffff;fill-opacity:1;fill-rule:nonzero;stroke:none" transform="rotate(180,209.00875,173.50776)"/>
  <path id="path132" d="M 351.54806,253.41134 H 87.003644 v -5.46691 H 351.54806 Z" clip-path="url(#clipWmfPath1)" style="fill:none;stroke:#000000;stroke-width:0.0666695px;stroke-linecap:round;stroke-linejoin:round;stroke-miterlimit:4;stroke-dasharray:none;stroke-opacity:1" transform="rotate(180,209.00875,173.50776)"/>
  <path id="path134" d="m 229.27627,244.07759 1.00004,0.13334 0.80003,0.46669 0.60003,0.6667 0.20001,0.73336 v 9.46709 l -0.20001,0.73337 -0.60003,0.60003 -0.80003,0.33334 -1.00004,0.13334 h -19.73416 l -1.00004,-0.13334 -0.80004,-0.40001 -0.60002,-0.60003 -0.20001,-0.73337 v -9.40042 l 0.20001,-0.73336 0.60002,-0.6667 0.80004,-0.46669 1.00004,-0.13334 z" clip-path="url(#clipWmfPath1)" style="fill:#ffffff;fill-opacity:1;fill-rule:nonzero;stroke:none" transform="rotate(180,209.00875,173.50776)"/>
  <path id="path136" d="m 209.54211,243.54424 v 1.06671 h 19.66749 l 0.8667,0.0667 0.6667,0.40002 0.46668,0.53335 0.13334,0.53336 v 9.33375 l -0.13334,0.53336 -0.40001,0.46669 -0.6667,0.26668 -0.93337,0.0667 h -19.60082 l -0.93337,-0.0667 -0.60003,-0.33335 -0.46669,-0.46669 -0.13333,-0.53336 v -9.26708 l 0.13333,-0.53336 0.46669,-0.53335 0.6667,-0.40002 0.8667,-0.0667 h 19.60082 l 1.00004,0.13334 0.13334,-1.06672 -1.00004,-0.13333 h -19.8675 l -1.13338,0.2 -0.93337,0.53336 -0.73337,0.80004 -0.26668,0.93337 v 9.53376 l 0.26668,0.93338 0.73337,0.73336 1.00004,0.46669 1.06671,0.20001 h 19.8675 l 1.06671,-0.20001 0.93337,-0.40002 0.80004,-0.73336 0.26667,-0.93338 v -9.60043 l -0.26667,-0.93337 -0.73337,-0.80004 -0.93337,-0.53336 -1.13338,-0.2 z" clip-path="url(#clipWmfPath1)" style="fill:#000000;fill-opacity:1;fill-rule:nonzero;stroke:#000000;stroke-width:0.0666695px;stroke-linecap:round;stroke-linejoin:round;stroke-miterlimit:4;stroke-dasharray:none;stroke-opacity:1" transform="rotate(180,209.00875,173.50776)"/>
  <path id="path138" d="M 362.61519,280.87924 H 201.74178 v 15.00067 h 160.87341 z" clip-path="url(#clipWmfPath1)" style="fill:#000000;fill-opacity:1;fill-rule:nonzero;stroke:none" transform="rotate(180,209.00875,173.50776)"/>
  <path id="path140" d="M 362.61519,280.87924 H 201.74178 v 15.00067 h 160.87341 z" clip-path="url(#clipWmfPath1)" style="fill:none;stroke:#000000;stroke-width:0.0666695px;stroke-linecap:round;stroke-linejoin:round;stroke-miterlimit:4;stroke-dasharray:none;stroke-opacity:1" transform="rotate(180,209.00875,173.50776)"/>
  <path id="path142" d="M 356.88161,291.0797 H 207.34202 v -5.46692 h 149.53959 z" clip-path="url(#clipWmfPath1)" style="fill:#ffffff;fill-opacity:1;fill-rule:nonzero;stroke:none" transform="rotate(180,209.00875,173.50776)"/>
  <path id="path144" d="M 356.88161,291.0797 H 207.34202 v -5.46692 h 149.53959 z" clip-path="url(#clipWmfPath1)" style="fill:none;stroke:#000000;stroke-width:0.0666695px;stroke-linecap:round;stroke-linejoin:round;stroke-miterlimit:4;stroke-dasharray:none;stroke-opacity:1" transform="rotate(180,209.00875,173.50776)"/>
  <path id="path146" d="M 192.94141,280.87924 H 91.003811 v 15.00067 H 192.94141 Z" clip-path="url(#clipWmfPath1)" style="fill:#000000;fill-opacity:1;fill-rule:nonzero;stroke:none" transform="rotate(180,209.00875,173.50776)"/>
  <path id="path148" d="M 192.94141,280.87924 H 91.003811 v 15.00067 H 192.94141 Z" clip-path="url(#clipWmfPath1)" style="fill:none;stroke:#000000;stroke-width:0.0666695px;stroke-linecap:round;stroke-linejoin:round;stroke-miterlimit:4;stroke-dasharray:none;stroke-opacity:1" transform="rotate(180,209.00875,173.50776)"/>
  <path id="path150" d="M 187.47452,291.0797 H 96.404038 v -5.46692 h 91.070482 z" clip-path="url(#clipWmfPath1)" style="fill:#ffffff;fill-opacity:1;fill-rule:nonzero;stroke:none" transform="rotate(180,209.00875,173.50776)"/>
  <path id="path152" d="M 187.47452,291.0797 H 96.404038 v -5.46692 h 91.070482 z" clip-path="url(#clipWmfPath1)" style="fill:none;stroke:#000000;stroke-width:0.0666695px;stroke-linecap:round;stroke-linejoin:round;stroke-miterlimit:4;stroke-dasharray:none;stroke-opacity:1" transform="rotate(180,209.00875,173.50776)"/>
  <path id="path154" d="m 236.67658,281.74595 1.00004,0.13333 0.80003,0.46669 0.60003,0.6667 0.20001,0.73336 v 9.4671 l -0.20001,0.73336 -0.60003,0.60003 -0.80003,0.33335 -1.00004,0.13334 h -19.73416 l -1.00004,-0.13334 -0.80004,-0.40002 -0.60002,-0.60003 -0.20001,-0.73336 v -9.40043 l 0.20001,-0.73336 0.60002,-0.6667 0.80004,-0.46669 1.00004,-0.13333 z" clip-path="url(#clipWmfPath1)" style="fill:#ffffff;fill-opacity:1;fill-rule:nonzero;stroke:none" transform="rotate(180,209.00875,173.50776)"/>
  <path id="path156" d="m 216.94242,281.21259 v 1.06671 h 19.66749 l 0.8667,0.0667 0.6667,0.40002 0.46668,0.53336 0.13334,0.53335 v 9.33376 l -0.13334,0.53335 -0.40001,0.46669 -0.6667,0.26668 -0.93337,0.0667 h -19.60082 l -0.93337,-0.0667 -0.60003,-0.33335 -0.46669,-0.46669 -0.13333,-0.53335 v -9.26709 l 0.13333,-0.53335 0.46669,-0.53336 0.6667,-0.40002 0.8667,-0.0667 h 19.60082 l 1.00004,0.13334 0.13334,-1.06671 -1.00004,-0.13334 h -19.8675 l -1.13338,0.20001 -0.93337,0.53335 -0.73337,0.80004 -0.26668,0.93338 v 9.53376 l 0.26668,0.93337 0.73337,0.73337 1.00004,0.46668 1.06671,0.20001 h 19.8675 l 1.06671,-0.20001 0.93337,-0.40001 0.80004,-0.73337 0.26667,-0.93338 v -9.60042 l -0.26667,-0.93338 -0.73337,-0.80004 -0.93337,-0.53335 -1.13338,-0.20001 z" clip-path="url(#clipWmfPath1)" style="fill:#000000;fill-opacity:1;fill-rule:nonzero;stroke:#000000;stroke-width:0.0666695px;stroke-linecap:round;stroke-linejoin:round;stroke-miterlimit:4;stroke-dasharray:none;stroke-opacity:1" transform="rotate(180,209.00875,173.50776)"/>
  <g id="g158" clip-path="url(#clipWmfPath1)" transform="rotate(180,209.00875,173.50776)"/>
  <g id="g170" clip-path="url(#clipWmfPath1)" transform="translate(188.48865, 194.00875999999994)">
    <text id="text168" y="0" x="0" transform="translate(0,9)" style="font-style:normal;font-variant:normal;font-weight:400;font-size:10.6875px;line-height:125%;font-family:Helvetica-Narrow;text-align:start;letter-spacing:0px;word-spacing:0px;text-anchor:start;fill:#000000;fill-opacity:1;stroke:none" xml:space="preserve"><tspan id="tspan166" y="0" x="0"><tspan id="tspan160" style="font-style:normal;font-variant:normal;font-weight:400;font-size:10.6875px;font-family:Helvetica-Narrow;fill:#000000" dy="0" dx="0">S</tspan><tspan id="tspan162" style="font-style:normal;font-variant:normal;font-weight:400;font-size:10.6875px;font-family:Helvetica-Narrow;fill:#000000" dy="0" dx="-0.102258">L</tspan><tspan id="tspan164" style="font-style:normal;font-variant:normal;font-weight:400;font-size:10.6875px;font-family:Helvetica-Narrow;fill:#000000" dy="0" dx="0.0036009999">2</tspan></tspan></text>
  </g>
  <g id="g172" clip-path="url(#clipWmfPath1)" transform="rotate(180,209.00875,173.50776)"/>
  <g id="g184" clip-path="url(#clipWmfPath1)" transform="translate(187.55527, 159.14052999999996)">
    <text id="text182" y="0" x="0" transform="translate(0,9)" style="font-style:normal;font-variant:normal;font-weight:400;font-size:10.6875px;line-height:125%;font-family:Helvetica-Narrow;text-align:start;letter-spacing:0px;word-spacing:0px;text-anchor:start;fill:#000000;fill-opacity:1;stroke:none" xml:space="preserve"><tspan id="tspan180" y="0" x="0"><tspan id="tspan174" style="font-style:normal;font-variant:normal;font-weight:400;font-size:10.6875px;font-family:Helvetica-Narrow;fill:#000000" dy="0" dx="0">S</tspan><tspan id="tspan176" style="font-style:normal;font-variant:normal;font-weight:400;font-size:10.6875px;font-family:Helvetica-Narrow;fill:#000000" dy="0" dx="-0.102258">L</tspan><tspan id="tspan178" style="font-style:normal;font-variant:normal;font-weight:400;font-size:10.6875px;font-family:Helvetica-Narrow;fill:#000000" dy="0" dx="0.0036009999">3</tspan></tspan></text>
  </g>
  <g id="g186" clip-path="url(#clipWmfPath1)" transform="rotate(180,209.00875,173.50776)"/>
  <g id="g198" clip-path="url(#clipWmfPath1)" transform="translate(188.95533, 125.20567999999994)">
    <text id="text196" y="0" x="0" transform="translate(0,9)" style="font-style:normal;font-variant:normal;font-weight:400;font-size:10.6875px;line-height:125%;font-family:Helvetica-Narrow;text-align:start;letter-spacing:0px;word-spacing:0px;text-anchor:start;fill:#000000;fill-opacity:1;stroke:none" xml:space="preserve"><tspan id="tspan194" y="0" x="0"><tspan id="tspan188" style="font-style:normal;font-variant:normal;font-weight:400;font-size:10.6875px;font-family:Helvetica-Narrow;fill:#000000" dy="0" dx="0">S</tspan><tspan id="tspan190" style="font-style:normal;font-variant:normal;font-weight:400;font-size:10.6875px;font-family:Helvetica-Narrow;fill:#000000" dy="0" dx="-0.102258">L</tspan><tspan id="tspan192" style="font-style:normal;font-variant:normal;font-weight:400;font-size:10.6875px;font-family:Helvetica-Narrow;fill:#000000" dy="0" dx="0.0036009999">4</tspan></tspan></text>
  </g>
  <g id="g200" clip-path="url(#clipWmfPath1)" transform="rotate(180,209.00875,173.50776)"/>
  <g id="g212" clip-path="url(#clipWmfPath1)" transform="translate(189.88871, 90.33744999999996)">
    <text id="text210" y="0" x="0" transform="translate(0,9)" style="font-style:normal;font-variant:normal;font-weight:400;font-size:10.6875px;line-height:125%;font-family:Helvetica-Narrow;text-align:start;letter-spacing:0px;word-spacing:0px;text-anchor:start;fill:#000000;fill-opacity:1;stroke:none" xml:space="preserve"><tspan id="tspan208" y="0" x="0"><tspan id="tspan202" style="font-style:normal;font-variant:normal;font-weight:400;font-size:10.6875px;font-family:Helvetica-Narrow;fill:#000000" dy="0" dx="0">S</tspan><tspan id="tspan204" style="font-style:normal;font-variant:normal;font-weight:400;font-size:10.6875px;font-family:Helvetica-Narrow;fill:#000000" dy="0" dx="-0.102258">L</tspan><tspan id="tspan206" style="font-style:normal;font-variant:normal;font-weight:400;font-size:10.6875px;font-family:Helvetica-Narrow;fill:#000000" dy="0" dx="0.0036009999">5</tspan></tspan></text>
  </g>
  <g id="g214" clip-path="url(#clipWmfPath1)" transform="rotate(180,209.00875,173.50776)"/>
  <g id="g226" clip-path="url(#clipWmfPath1)" transform="translate(181.82170000000002, 52.13573999999994)">
    <text id="text224" y="0" x="0" transform="translate(0,9)" style="font-style:normal;font-variant:normal;font-weight:400;font-size:10.6875px;line-height:125%;font-family:Helvetica-Narrow;text-align:start;letter-spacing:0px;word-spacing:0px;text-anchor:start;fill:#000000;fill-opacity:1;stroke:none" xml:space="preserve"><tspan id="tspan222" y="0" x="0"><tspan id="tspan216" style="font-style:normal;font-variant:normal;font-weight:400;font-size:10.6875px;font-family:Helvetica-Narrow;fill:#000000" dy="0" dx="0">S</tspan><tspan id="tspan218" style="font-style:normal;font-variant:normal;font-weight:400;font-size:10.6875px;font-family:Helvetica-Narrow;fill:#000000" dy="0" dx="-0.102258">L</tspan><tspan id="tspan220" style="font-style:normal;font-variant:normal;font-weight:400;font-size:10.6875px;font-family:Helvetica-Narrow;fill:#000000" dy="0" dx="0.0036009999">6</tspan></tspan></text>
  </g>
  <g id="g228" clip-path="url(#clipWmfPath1)" transform="rotate(180,209.00875,173.50776)"/>
  <g id="g244" clip-path="url(#clipWmfPath1)" transform="translate(119.20611000000004, 284.01278899999994)">
    <text id="text242" y="0" x="0" transform="translate(0,9)" style="font-style:normal;font-variant:normal;font-weight:400;font-size:9.3125px;line-height:125%;font-family:Helvetica-Narrow;text-align:start;letter-spacing:0px;word-spacing:0px;text-anchor:start;fill:#000000;fill-opacity:1;stroke:none" xml:space="preserve"><tspan id="tspan240" y="0" x="0"><tspan id="tspan230" style="font-style:normal;font-variant:normal;font-weight:400;font-size:9.3125px;font-family:Helvetica-Narrow;fill:#000000" dy="0" dx="0">3</tspan><tspan id="tspan232" style="font-style:normal;font-variant:normal;font-weight:400;font-size:9.3125px;font-family:Helvetica-Narrow;fill:#000000" dy="0" dx="0.183652">4</tspan><tspan id="tspan234" style="font-style:normal;font-variant:normal;font-weight:400;font-size:9.3125px;font-family:Helvetica-Narrow;fill:#000000" dy="0" dx="0.183652">1</tspan><tspan id="tspan236" style="font-style:normal;font-variant:normal;font-weight:400;font-size:9.3125px;font-family:Helvetica-Narrow;fill:#000000" dy="0" dx="0.183652">3</tspan><tspan id="tspan238" style="font-style:normal;font-variant:normal;font-weight:400;font-size:9.3125px;font-family:Helvetica-Narrow;fill:#000000" dy="0" dx="0.183652">0</tspan></tspan></text>
  </g>
</svg>