<svg xmlns:dc="http://purl.org/dc/elements/1.1/" xmlns:cc="http://creativecommons.org/ns#" xmlns:rdf="http://www.w3.org/1999/02/22-rdf-syntax-ns#" xmlns:svg="http://www.w3.org/2000/svg" xmlns="http://www.w3.org/2000/svg" id="svg396" height="67.230001mm" width="166.98mm" version="1.0">
  <metadata id="metadata400">
    <rdf:RDF>
      <cc:Work rdf:about="">
        <dc:format>image/svg+xml</dc:format>
        <dc:type rdf:resource="http://purl.org/dc/dcmitype/StillImage"/>
      </cc:Work>
    </rdf:RDF>
  </metadata>
  <defs id="defs6">
    <clipPath id="clipWmfPath1" clipPathUnits="userSpaceOnUse">
      <path id="path2" d="M 0,0 L 631.00105,0 L 631.00105,253.99318 L 0,253.99318 z"/>
    </clipPath>
    <pattern y="0" x="0" height="6" width="6" patternUnits="userSpaceOnUse" id="WMFhbasepattern"/>
  </defs>
  <path id="path8" d="  M 81.000135,-1.2666326   L 81.000135,-413.98888   L 561.00093,-413.98888   L 561.00093,-1.2666326   L 81.000135,-1.2666326  z " clip-path="url(#clipWmfPath1)" style="fill:#e5e5e5;fill-rule:nonzero;fill-opacity:1;stroke:none;"/>
  <path id="path10" d="  M 561.00093,-1.066638   L 561.00093,-1.4666273   L 81.200135,-1.4666273   L 81.200135,-413.78889   L 560.80093,-413.78889   L 560.80093,-1.4666273   L 81.200135,-1.4666273   L 81.200135,-413.98888   L 80.800134,-413.98888   L 80.800134,-1.066638   L 561.20093,-1.066638   L 561.20093,-414.18887   L 80.800134,-414.18887   L 80.800134,-1.066638   L 561.00093,-1.066638  z " clip-path="url(#clipWmfPath1)" style="fill:#000000;fill-rule:nonzero;fill-opacity:1;stroke:#000000;stroke-width:0.066666774px;stroke-linecap:round;stroke-linejoin:round;stroke-miterlimit:4;stroke-dasharray:none;stroke-opacity:1;"/>
  <path id="path12" d="  M 552.73425,199.39464   L 518.66753,199.39464   L 518.66753,216.99417   L 365.80061,216.99417   L 365.80061,199.46131   L 21.000035,199.46131   L 21.000035,12.999651   L 552.73425,12.999651   L 552.73425,199.39464  z " clip-path="url(#clipWmfPath1)" style="fill:#e5e5e5;fill-rule:nonzero;fill-opacity:1;stroke:none;"/>
  <path id="path14" d="  M 553.06759,12.999651   L 552.40092,12.999651   L 552.40092,199.06132   L 518.3342,199.06132   L 518.3342,216.66085   L 366.13394,216.66085   L 366.13394,199.12798   L 21.333369,199.12798   L 21.333369,13.332975   L 552.40092,13.332975   L 552.40092,199.06132   L 518.66753,199.06132   L 518.66753,199.72797   L 553.06759,199.72797   L 553.06759,12.666326   L 20.666701,12.666326   L 20.666701,199.79463   L 365.46727,199.79463   L 365.46727,217.3275   L 519.00086,217.3275   L 519.00086,199.72797   L 553.06759,199.72797   L 553.06759,12.999651  z " clip-path="url(#clipWmfPath1)" style="fill:#000000;fill-rule:nonzero;fill-opacity:1;stroke:#000000;stroke-width:0.066666774px;stroke-linecap:round;stroke-linejoin:round;stroke-miterlimit:4;stroke-dasharray:none;stroke-opacity:1;"/>
  <path id="path16" d="  M 515.86752,217.26083   L 515.86752,205.26115   L 515.80086,204.26118   L 515.60086,203.32787   L 515.13419,202.66122   L 514.26752,202.39456   L 513.46752,202.72789   L 513.06752,203.39454   L 512.86752,204.99449   L 512.86752,217.26083   L 515.86752,217.26083  z " clip-path="url(#clipWmfPath1)" style="fill:#e5e5e5;fill-rule:nonzero;fill-opacity:1;stroke:none;"/>
  <path id="path18" d="  M 515.86752,217.26083   L 515.86752,205.26115   L 515.80086,204.26118   L 515.60086,203.32787   L 515.13419,202.66122   L 514.26752,202.39456   L 513.46752,202.72789   L 513.06752,203.39454   L 512.86752,204.99449   L 512.86752,217.26083   L 515.86752,217.26083  z " clip-path="url(#clipWmfPath1)" style="fill:none;stroke:#000000;stroke-width:0.066666774px;stroke-linecap:round;stroke-linejoin:round;stroke-miterlimit:4;stroke-dasharray:none;stroke-opacity:1;"/>
  <path id="path20" d="  M 511.13418,217.26083   L 511.13418,205.26115   L 511.06752,204.26118   L 510.86752,203.32787   L 510.40085,202.66122   L 509.53418,202.39456   L 508.73418,202.72789   L 508.33418,203.39454   L 508.13418,204.99449   L 508.13418,217.26083   L 511.13418,217.26083  z " clip-path="url(#clipWmfPath1)" style="fill:#e5e5e5;fill-rule:nonzero;fill-opacity:1;stroke:none;"/>
  <path id="path22" d="  M 511.13418,217.26083   L 511.13418,205.26115   L 511.06752,204.26118   L 510.86752,203.32787   L 510.40085,202.66122   L 509.53418,202.39456   L 508.73418,202.72789   L 508.33418,203.39454   L 508.13418,204.99449   L 508.13418,217.26083   L 511.13418,217.26083  z " clip-path="url(#clipWmfPath1)" style="fill:none;stroke:#000000;stroke-width:0.066666774px;stroke-linecap:round;stroke-linejoin:round;stroke-miterlimit:4;stroke-dasharray:none;stroke-opacity:1;"/>
  <path id="path24" d="  M 506.46751,217.26083   L 506.46751,205.26115   L 506.20084,203.32787   L 505.73417,202.66122   L 505.53417,202.46123   L 504.93417,202.39456   L 504.13417,202.72789   L 503.6675,203.39454   L 503.4675,204.99449   L 503.4675,217.26083   L 506.46751,217.26083  z " clip-path="url(#clipWmfPath1)" style="fill:#e5e5e5;fill-rule:nonzero;fill-opacity:1;stroke:none;"/>
  <path id="path26" d="  M 506.46751,217.26083   L 506.46751,205.26115   L 506.20084,203.32787   L 505.73417,202.66122   L 505.53417,202.46123   L 504.93417,202.39456   L 504.13417,202.72789   L 503.6675,203.39454   L 503.4675,204.99449   L 503.4675,217.26083   L 506.46751,217.26083  z " clip-path="url(#clipWmfPath1)" style="fill:none;stroke:#000000;stroke-width:0.066666774px;stroke-linecap:round;stroke-linejoin:round;stroke-miterlimit:4;stroke-dasharray:none;stroke-opacity:1;"/>
  <path id="path28" d="  M 501.80083,217.26083   L 501.80083,205.26115   L 501.53417,203.32787   L 501.0675,202.66122   L 500.8675,202.46123   L 500.2675,202.39456   L 499.4675,202.72789   L 499.0675,203.39454   L 498.8675,204.99449   L 498.8675,217.26083   L 501.80083,217.26083  z " clip-path="url(#clipWmfPath1)" style="fill:#e5e5e5;fill-rule:nonzero;fill-opacity:1;stroke:none;"/>
  <path id="path30" d="  M 501.80083,217.26083   L 501.80083,205.26115   L 501.53417,203.32787   L 501.0675,202.66122   L 500.8675,202.46123   L 500.2675,202.39456   L 499.4675,202.72789   L 499.0675,203.39454   L 498.8675,204.99449   L 498.8675,217.26083   L 501.80083,217.26083  z " clip-path="url(#clipWmfPath1)" style="fill:none;stroke:#000000;stroke-width:0.066666774px;stroke-linecap:round;stroke-linejoin:round;stroke-miterlimit:4;stroke-dasharray:none;stroke-opacity:1;"/>
  <path id="path32" d="  M 497.26749,217.26083   L 497.26749,205.26115   L 497.20083,204.26118   L 497.00083,203.32787   L 496.53416,202.66122   L 495.66749,202.39456   L 494.86749,202.72789   L 494.40082,203.39454   L 494.20082,204.99449   L 494.20082,217.26083   L 497.26749,217.26083  z " clip-path="url(#clipWmfPath1)" style="fill:#e5e5e5;fill-rule:nonzero;fill-opacity:1;stroke:none;"/>
  <path id="path34" d="  M 497.26749,217.26083   L 497.26749,205.26115   L 497.20083,204.26118   L 497.00083,203.32787   L 496.53416,202.66122   L 495.66749,202.39456   L 494.86749,202.72789   L 494.40082,203.39454   L 494.20082,204.99449   L 494.20082,217.26083   L 497.26749,217.26083  z " clip-path="url(#clipWmfPath1)" style="fill:none;stroke:#000000;stroke-width:0.066666774px;stroke-linecap:round;stroke-linejoin:round;stroke-miterlimit:4;stroke-dasharray:none;stroke-opacity:1;"/>
  <path id="path36" d="  M 492.46749,217.26083   L 492.46749,205.26115   L 492.40082,204.26118   L 492.20082,203.32787   L 491.73415,202.66122   L 490.86748,202.39456   L 490.06748,202.72789   L 489.66748,203.39454   L 489.46748,204.99449   L 489.46748,217.26083   L 492.46749,217.26083  z " clip-path="url(#clipWmfPath1)" style="fill:#e5e5e5;fill-rule:nonzero;fill-opacity:1;stroke:none;"/>
  <path id="path38" d="  M 492.46749,217.26083   L 492.46749,205.26115   L 492.40082,204.26118   L 492.20082,203.32787   L 491.73415,202.66122   L 490.86748,202.39456   L 490.06748,202.72789   L 489.66748,203.39454   L 489.46748,204.99449   L 489.46748,217.26083   L 492.46749,217.26083  z " clip-path="url(#clipWmfPath1)" style="fill:none;stroke:#000000;stroke-width:0.066666774px;stroke-linecap:round;stroke-linejoin:round;stroke-miterlimit:4;stroke-dasharray:none;stroke-opacity:1;"/>
  <path id="path40" d="  M 487.60081,217.26083   L 487.60081,205.26115   L 487.53414,204.26118   L 487.33414,203.32787   L 486.86748,202.66122   L 486.00081,202.39456   L 485.20081,202.72789   L 484.73414,203.39454   L 484.53414,204.99449   L 484.53414,217.26083   L 487.60081,217.26083  z " clip-path="url(#clipWmfPath1)" style="fill:#e5e5e5;fill-rule:nonzero;fill-opacity:1;stroke:none;"/>
  <path id="path42" d="  M 487.60081,217.26083   L 487.60081,205.26115   L 487.53414,204.26118   L 487.33414,203.32787   L 486.86748,202.66122   L 486.00081,202.39456   L 485.20081,202.72789   L 484.73414,203.39454   L 484.53414,204.99449   L 484.53414,217.26083   L 487.60081,217.26083  z " clip-path="url(#clipWmfPath1)" style="fill:none;stroke:#000000;stroke-width:0.066666774px;stroke-linecap:round;stroke-linejoin:round;stroke-miterlimit:4;stroke-dasharray:none;stroke-opacity:1;"/>
  <path id="path44" d="  M 482.86747,217.26083   L 482.86747,205.26115   L 482.8008,204.26118   L 482.6008,203.32787   L 482.13414,202.66122   L 481.26747,202.39456   L 480.46747,202.72789   L 480.0008,203.39454   L 479.8008,204.99449   L 479.8008,217.26083   L 482.86747,217.26083  z " clip-path="url(#clipWmfPath1)" style="fill:#e5e5e5;fill-rule:nonzero;fill-opacity:1;stroke:none;"/>
  <path id="path46" d="  M 482.86747,217.26083   L 482.86747,205.26115   L 482.8008,204.26118   L 482.6008,203.32787   L 482.13414,202.66122   L 481.26747,202.39456   L 480.46747,202.72789   L 480.0008,203.39454   L 479.8008,204.99449   L 479.8008,217.26083   L 482.86747,217.26083  z " clip-path="url(#clipWmfPath1)" style="fill:none;stroke:#000000;stroke-width:0.066666774px;stroke-linecap:round;stroke-linejoin:round;stroke-miterlimit:4;stroke-dasharray:none;stroke-opacity:1;"/>
  <path id="path48" d="  M 478.2008,217.26083   L 478.2008,205.26115   L 477.93413,203.32787   L 477.46746,202.66122   L 477.26746,202.46123   L 476.66746,202.39456   L 475.86746,202.72789   L 475.46746,203.39454   L 475.26746,204.99449   L 475.26746,217.26083   L 478.2008,217.26083  z " clip-path="url(#clipWmfPath1)" style="fill:#e5e5e5;fill-rule:nonzero;fill-opacity:1;stroke:none;"/>
  <path id="path50" d="  M 478.2008,217.26083   L 478.2008,205.26115   L 477.93413,203.32787   L 477.46746,202.66122   L 477.26746,202.46123   L 476.66746,202.39456   L 475.86746,202.72789   L 475.46746,203.39454   L 475.26746,204.99449   L 475.26746,217.26083   L 478.2008,217.26083  z " clip-path="url(#clipWmfPath1)" style="fill:none;stroke:#000000;stroke-width:0.066666774px;stroke-linecap:round;stroke-linejoin:round;stroke-miterlimit:4;stroke-dasharray:none;stroke-opacity:1;"/>
  <path id="path52" d="  M 473.33412,217.26083   L 473.33412,205.26115   L 473.06745,203.32787   L 472.66745,202.66122   L 472.46745,202.46123   L 471.86745,202.39456   L 471.00078,202.72789   L 470.53412,203.39454   L 470.33412,204.99449   L 470.33412,217.26083   L 473.33412,217.26083  z " clip-path="url(#clipWmfPath1)" style="fill:#e5e5e5;fill-rule:nonzero;fill-opacity:1;stroke:none;"/>
  <path id="path54" d="  M 473.33412,217.26083   L 473.33412,205.26115   L 473.06745,203.32787   L 472.66745,202.66122   L 472.46745,202.46123   L 471.86745,202.39456   L 471.00078,202.72789   L 470.53412,203.39454   L 470.33412,204.99449   L 470.33412,217.26083   L 473.33412,217.26083  z " clip-path="url(#clipWmfPath1)" style="fill:none;stroke:#000000;stroke-width:0.066666774px;stroke-linecap:round;stroke-linejoin:round;stroke-miterlimit:4;stroke-dasharray:none;stroke-opacity:1;"/>
  <path id="path56" d="  M 468.73411,217.26083   L 468.73411,205.26115   L 468.66745,204.26118   L 468.46745,203.32787   L 468.00078,202.66122   L 467.13411,202.39456   L 466.33411,202.72789   L 465.93411,203.39454   L 465.73411,204.99449   L 465.73411,217.26083   L 468.73411,217.26083  z " clip-path="url(#clipWmfPath1)" style="fill:#e5e5e5;fill-rule:nonzero;fill-opacity:1;stroke:none;"/>
  <path id="path58" d="  M 468.73411,217.26083   L 468.73411,205.26115   L 468.66745,204.26118   L 468.46745,203.32787   L 468.00078,202.66122   L 467.13411,202.39456   L 466.33411,202.72789   L 465.93411,203.39454   L 465.73411,204.99449   L 465.73411,217.26083   L 468.73411,217.26083  z " clip-path="url(#clipWmfPath1)" style="fill:none;stroke:#000000;stroke-width:0.066666774px;stroke-linecap:round;stroke-linejoin:round;stroke-miterlimit:4;stroke-dasharray:none;stroke-opacity:1;"/>
  <path id="path60" d="  M 464.13411,217.26083   L 464.13411,205.26115   L 463.86744,203.32787   L 463.46744,202.66122   L 463.26744,202.46123   L 462.66744,202.39456   L 461.80077,202.72789   L 461.3341,203.39454   L 461.1341,204.99449   L 461.1341,217.26083   L 464.13411,217.26083  z " clip-path="url(#clipWmfPath1)" style="fill:#e5e5e5;fill-rule:nonzero;fill-opacity:1;stroke:none;"/>
  <path id="path62" d="  M 464.13411,217.26083   L 464.13411,205.26115   L 463.86744,203.32787   L 463.46744,202.66122   L 463.26744,202.46123   L 462.66744,202.39456   L 461.80077,202.72789   L 461.3341,203.39454   L 461.1341,204.99449   L 461.1341,217.26083   L 464.13411,217.26083  z " clip-path="url(#clipWmfPath1)" style="fill:none;stroke:#000000;stroke-width:0.066666774px;stroke-linecap:round;stroke-linejoin:round;stroke-miterlimit:4;stroke-dasharray:none;stroke-opacity:1;"/>
  <path id="path64" d="  M 459.5341,217.26083   L 459.5341,205.26115   L 459.46743,204.26118   L 459.26743,203.32787   L 458.80076,202.66122   L 457.9341,202.39456   L 457.13409,202.72789   L 456.66743,203.39454   L 456.46743,204.99449   L 456.46743,217.26083   L 459.5341,217.26083  z " clip-path="url(#clipWmfPath1)" style="fill:#e5e5e5;fill-rule:nonzero;fill-opacity:1;stroke:none;"/>
  <path id="path66" d="  M 459.5341,217.26083   L 459.5341,205.26115   L 459.46743,204.26118   L 459.26743,203.32787   L 458.80076,202.66122   L 457.9341,202.39456   L 457.13409,202.72789   L 456.66743,203.39454   L 456.46743,204.99449   L 456.46743,217.26083   L 459.5341,217.26083  z " clip-path="url(#clipWmfPath1)" style="fill:none;stroke:#000000;stroke-width:0.066666774px;stroke-linecap:round;stroke-linejoin:round;stroke-miterlimit:4;stroke-dasharray:none;stroke-opacity:1;"/>
  <path id="path68" d="  M 454.66742,217.26083   L 454.66742,205.26115   L 454.60076,204.26118   L 454.40076,203.32787   L 453.93409,202.66122   L 453.06742,202.39456   L 452.26742,202.72789   L 451.86742,203.39454   L 451.66742,204.99449   L 451.66742,217.26083   L 454.66742,217.26083  z " clip-path="url(#clipWmfPath1)" style="fill:#e5e5e5;fill-rule:nonzero;fill-opacity:1;stroke:none;"/>
  <path id="path70" d="  M 454.66742,217.26083   L 454.66742,205.26115   L 454.60076,204.26118   L 454.40076,203.32787   L 453.93409,202.66122   L 453.06742,202.39456   L 452.26742,202.72789   L 451.86742,203.39454   L 451.66742,204.99449   L 451.66742,217.26083   L 454.66742,217.26083  z " clip-path="url(#clipWmfPath1)" style="fill:none;stroke:#000000;stroke-width:0.066666774px;stroke-linecap:round;stroke-linejoin:round;stroke-miterlimit:4;stroke-dasharray:none;stroke-opacity:1;"/>
  <path id="path72" d="  M 449.86742,217.26083   L 449.86742,205.26115   L 449.80075,204.26118   L 449.60075,203.32787   L 449.13408,202.66122   L 448.26741,202.39456   L 447.46741,202.72789   L 447.00074,203.39454   L 446.80074,204.99449   L 446.80074,217.26083   L 449.86742,217.26083  z " clip-path="url(#clipWmfPath1)" style="fill:#e5e5e5;fill-rule:nonzero;fill-opacity:1;stroke:none;"/>
  <path id="path74" d="  M 449.86742,217.26083   L 449.86742,205.26115   L 449.80075,204.26118   L 449.60075,203.32787   L 449.13408,202.66122   L 448.26741,202.39456   L 447.46741,202.72789   L 447.00074,203.39454   L 446.80074,204.99449   L 446.80074,217.26083   L 449.86742,217.26083  z " clip-path="url(#clipWmfPath1)" style="fill:none;stroke:#000000;stroke-width:0.066666774px;stroke-linecap:round;stroke-linejoin:round;stroke-miterlimit:4;stroke-dasharray:none;stroke-opacity:1;"/>
  <path id="path76" d="  M 444.93407,217.26083   L 444.93407,205.26115   L 444.86741,204.26118   L 444.66741,203.32787   L 444.20074,202.66122   L 443.33407,202.39456   L 442.53407,202.72789   L 442.13407,203.39454   L 441.93407,204.99449   L 441.93407,217.26083   L 444.93407,217.26083  z " clip-path="url(#clipWmfPath1)" style="fill:#e5e5e5;fill-rule:nonzero;fill-opacity:1;stroke:none;"/>
  <path id="path78" d="  M 444.93407,217.26083   L 444.93407,205.26115   L 444.86741,204.26118   L 444.66741,203.32787   L 444.20074,202.66122   L 443.33407,202.39456   L 442.53407,202.72789   L 442.13407,203.39454   L 441.93407,204.99449   L 441.93407,217.26083   L 444.93407,217.26083  z " clip-path="url(#clipWmfPath1)" style="fill:none;stroke:#000000;stroke-width:0.066666774px;stroke-linecap:round;stroke-linejoin:round;stroke-miterlimit:4;stroke-dasharray:none;stroke-opacity:1;"/>
  <path id="path80" d="  M 439.8674,217.26083   L 439.8674,205.26115   L 439.80073,204.26118   L 439.60073,203.32787   L 439.13406,202.66122   L 438.2674,202.39456   L 437.46739,202.72789   L 437.06739,203.39454   L 436.86739,204.99449   L 436.86739,217.26083   L 439.8674,217.26083  z " clip-path="url(#clipWmfPath1)" style="fill:#e5e5e5;fill-rule:nonzero;fill-opacity:1;stroke:none;"/>
  <path id="path82" d="  M 439.8674,217.26083   L 439.8674,205.26115   L 439.80073,204.26118   L 439.60073,203.32787   L 439.13406,202.66122   L 438.2674,202.39456   L 437.46739,202.72789   L 437.06739,203.39454   L 436.86739,204.99449   L 436.86739,217.26083   L 439.8674,217.26083  z " clip-path="url(#clipWmfPath1)" style="fill:none;stroke:#000000;stroke-width:0.066666774px;stroke-linecap:round;stroke-linejoin:round;stroke-miterlimit:4;stroke-dasharray:none;stroke-opacity:1;"/>
  <path id="path84" d="  M 435.26739,217.26083   L 435.26739,205.26115   L 435.20072,204.26118   L 435.00072,203.32787   L 434.53406,202.66122   L 433.66739,202.39456   L 432.86739,202.72789   L 432.46739,203.39454   L 432.26739,204.99449   L 432.26739,217.26083   L 435.26739,217.26083  z " clip-path="url(#clipWmfPath1)" style="fill:#e5e5e5;fill-rule:nonzero;fill-opacity:1;stroke:none;"/>
  <path id="path86" d="  M 435.26739,217.26083   L 435.26739,205.26115   L 435.20072,204.26118   L 435.00072,203.32787   L 434.53406,202.66122   L 433.66739,202.39456   L 432.86739,202.72789   L 432.46739,203.39454   L 432.26739,204.99449   L 432.26739,217.26083   L 435.26739,217.26083  z " clip-path="url(#clipWmfPath1)" style="fill:none;stroke:#000000;stroke-width:0.066666774px;stroke-linecap:round;stroke-linejoin:round;stroke-miterlimit:4;stroke-dasharray:none;stroke-opacity:1;"/>
  <path id="path88" d="  M 430.40072,217.26083   L 430.40072,205.26115   L 430.13405,203.32787   L 429.66738,202.66122   L 429.46738,202.46123   L 428.86738,202.39456   L 428.06738,202.72789   L 427.60071,203.39454   L 427.40071,204.99449   L 427.40071,217.26083   L 430.40072,217.26083  z " clip-path="url(#clipWmfPath1)" style="fill:#e5e5e5;fill-rule:nonzero;fill-opacity:1;stroke:none;"/>
  <path id="path90" d="  M 430.40072,217.26083   L 430.40072,205.26115   L 430.13405,203.32787   L 429.66738,202.66122   L 429.46738,202.46123   L 428.86738,202.39456   L 428.06738,202.72789   L 427.60071,203.39454   L 427.40071,204.99449   L 427.40071,217.26083   L 430.40072,217.26083  z " clip-path="url(#clipWmfPath1)" style="fill:none;stroke:#000000;stroke-width:0.066666774px;stroke-linecap:round;stroke-linejoin:round;stroke-miterlimit:4;stroke-dasharray:none;stroke-opacity:1;"/>
  <path id="path92" d="  M 425.53404,217.26083   L 425.53404,205.26115   L 425.46737,204.26118   L 425.26737,203.32787   L 424.80071,202.66122   L 423.93404,202.39456   L 423.13404,202.72789   L 422.73404,203.39454   L 422.53404,204.99449   L 422.53404,217.26083   L 425.53404,217.26083  z " clip-path="url(#clipWmfPath1)" style="fill:#e5e5e5;fill-rule:nonzero;fill-opacity:1;stroke:none;"/>
  <path id="path94" d="  M 425.53404,217.26083   L 425.53404,205.26115   L 425.46737,204.26118   L 425.26737,203.32787   L 424.80071,202.66122   L 423.93404,202.39456   L 423.13404,202.72789   L 422.73404,203.39454   L 422.53404,204.99449   L 422.53404,217.26083   L 425.53404,217.26083  z " clip-path="url(#clipWmfPath1)" style="fill:none;stroke:#000000;stroke-width:0.066666774px;stroke-linecap:round;stroke-linejoin:round;stroke-miterlimit:4;stroke-dasharray:none;stroke-opacity:1;"/>
  <path id="path96" d="  M 420.93403,217.26083   L 420.93403,205.26115   L 420.86737,204.26118   L 420.66737,203.32787   L 420.2007,202.66122   L 419.33403,202.39456   L 418.53403,202.72789   L 418.06736,203.39454   L 417.86736,204.99449   L 417.86736,217.26083   L 420.93403,217.26083  z " clip-path="url(#clipWmfPath1)" style="fill:#e5e5e5;fill-rule:nonzero;fill-opacity:1;stroke:none;"/>
  <path id="path98" d="  M 420.93403,217.26083   L 420.93403,205.26115   L 420.86737,204.26118   L 420.66737,203.32787   L 420.2007,202.66122   L 419.33403,202.39456   L 418.53403,202.72789   L 418.06736,203.39454   L 417.86736,204.99449   L 417.86736,217.26083   L 420.93403,217.26083  z " clip-path="url(#clipWmfPath1)" style="fill:none;stroke:#000000;stroke-width:0.066666774px;stroke-linecap:round;stroke-linejoin:round;stroke-miterlimit:4;stroke-dasharray:none;stroke-opacity:1;"/>
  <path id="path100" d="  M 416.33403,217.26083   L 416.33403,205.26115   L 416.26736,204.26118   L 416.06736,203.32787   L 415.60069,202.66122   L 414.73402,202.39456   L 413.93402,202.72789   L 413.53402,203.39454   L 413.33402,204.99449   L 413.33402,217.26083   L 416.33403,217.26083  z " clip-path="url(#clipWmfPath1)" style="fill:#e5e5e5;fill-rule:nonzero;fill-opacity:1;stroke:none;"/>
  <path id="path102" d="  M 416.33403,217.26083   L 416.33403,205.26115   L 416.26736,204.26118   L 416.06736,203.32787   L 415.60069,202.66122   L 414.73402,202.39456   L 413.93402,202.72789   L 413.53402,203.39454   L 413.33402,204.99449   L 413.33402,217.26083   L 416.33403,217.26083  z " clip-path="url(#clipWmfPath1)" style="fill:none;stroke:#000000;stroke-width:0.066666774px;stroke-linecap:round;stroke-linejoin:round;stroke-miterlimit:4;stroke-dasharray:none;stroke-opacity:1;"/>
  <path id="path104" d="  M 411.53402,217.26083   L 411.53402,205.26115   L 411.46735,204.26118   L 411.26735,203.32787   L 410.80068,202.66122   L 409.93402,202.39456   L 409.13401,202.72789   L 408.66735,203.39454   L 408.46735,204.99449   L 408.46735,217.26083   L 411.53402,217.26083  z " clip-path="url(#clipWmfPath1)" style="fill:#e5e5e5;fill-rule:nonzero;fill-opacity:1;stroke:none;"/>
  <path id="path106" d="  M 411.53402,217.26083   L 411.53402,205.26115   L 411.46735,204.26118   L 411.26735,203.32787   L 410.80068,202.66122   L 409.93402,202.39456   L 409.13401,202.72789   L 408.66735,203.39454   L 408.46735,204.99449   L 408.46735,217.26083   L 411.53402,217.26083  z " clip-path="url(#clipWmfPath1)" style="fill:none;stroke:#000000;stroke-width:0.066666774px;stroke-linecap:round;stroke-linejoin:round;stroke-miterlimit:4;stroke-dasharray:none;stroke-opacity:1;"/>
  <path id="path108" d="  M 406.66734,217.26083   L 406.66734,205.26115   L 406.60068,204.26118   L 406.40068,203.32787   L 405.93401,202.66122   L 405.06734,202.39456   L 404.26734,202.72789   L 403.86734,203.39454   L 403.66734,204.99449   L 403.66734,217.26083   L 406.66734,217.26083  z " clip-path="url(#clipWmfPath1)" style="fill:#e5e5e5;fill-rule:nonzero;fill-opacity:1;stroke:none;"/>
  <path id="path110" d="  M 406.66734,217.26083   L 406.66734,205.26115   L 406.60068,204.26118   L 406.40068,203.32787   L 405.93401,202.66122   L 405.06734,202.39456   L 404.26734,202.72789   L 403.86734,203.39454   L 403.66734,204.99449   L 403.66734,217.26083   L 406.66734,217.26083  z " clip-path="url(#clipWmfPath1)" style="fill:none;stroke:#000000;stroke-width:0.066666774px;stroke-linecap:round;stroke-linejoin:round;stroke-miterlimit:4;stroke-dasharray:none;stroke-opacity:1;"/>
  <path id="path112" d="  M 401.86734,217.26083   L 401.86734,205.26115   L 401.80067,204.26118   L 401.60067,203.32787   L 401.134,202.66122   L 400.26733,202.39456   L 399.46733,202.72789   L 399.00066,203.39454   L 398.80066,204.99449   L 398.80066,217.26083   L 401.86734,217.26083  z " clip-path="url(#clipWmfPath1)" style="fill:#e5e5e5;fill-rule:nonzero;fill-opacity:1;stroke:none;"/>
  <path id="path114" d="  M 401.86734,217.26083   L 401.86734,205.26115   L 401.80067,204.26118   L 401.60067,203.32787   L 401.134,202.66122   L 400.26733,202.39456   L 399.46733,202.72789   L 399.00066,203.39454   L 398.80066,204.99449   L 398.80066,217.26083   L 401.86734,217.26083  z " clip-path="url(#clipWmfPath1)" style="fill:none;stroke:#000000;stroke-width:0.066666774px;stroke-linecap:round;stroke-linejoin:round;stroke-miterlimit:4;stroke-dasharray:none;stroke-opacity:1;"/>
  <path id="path116" d="  M 397.20066,217.26083   L 397.20066,205.26115   L 397.13399,204.26118   L 396.93399,203.32787   L 396.46733,202.66122   L 395.60066,202.39456   L 394.80066,202.72789   L 394.33399,203.39454   L 394.13399,204.99449   L 394.13399,217.26083   L 397.20066,217.26083  z " clip-path="url(#clipWmfPath1)" style="fill:#e5e5e5;fill-rule:nonzero;fill-opacity:1;stroke:none;"/>
  <path id="path118" d="  M 397.20066,217.26083   L 397.20066,205.26115   L 397.13399,204.26118   L 396.93399,203.32787   L 396.46733,202.66122   L 395.60066,202.39456   L 394.80066,202.72789   L 394.33399,203.39454   L 394.13399,204.99449   L 394.13399,217.26083   L 397.20066,217.26083  z " clip-path="url(#clipWmfPath1)" style="fill:none;stroke:#000000;stroke-width:0.066666774px;stroke-linecap:round;stroke-linejoin:round;stroke-miterlimit:4;stroke-dasharray:none;stroke-opacity:1;"/>
  <path id="path120" d="  M 392.60065,217.26083   L 392.60065,205.26115   L 392.53399,204.26118   L 392.33399,203.32787   L 391.86732,202.66122   L 391.00065,202.39456   L 390.20065,202.72789   L 389.80065,203.39454   L 389.60065,204.99449   L 389.60065,217.26083   L 392.60065,217.26083  z " clip-path="url(#clipWmfPath1)" style="fill:#e5e5e5;fill-rule:nonzero;fill-opacity:1;stroke:none;"/>
  <path id="path122" d="  M 392.60065,217.26083   L 392.60065,205.26115   L 392.53399,204.26118   L 392.33399,203.32787   L 391.86732,202.66122   L 391.00065,202.39456   L 390.20065,202.72789   L 389.80065,203.39454   L 389.60065,204.99449   L 389.60065,217.26083   L 392.60065,217.26083  z " clip-path="url(#clipWmfPath1)" style="fill:none;stroke:#000000;stroke-width:0.066666774px;stroke-linecap:round;stroke-linejoin:round;stroke-miterlimit:4;stroke-dasharray:none;stroke-opacity:1;"/>
  <path id="path124" d="  M 388.00065,217.26083   L 388.00065,205.26115   L 387.93398,204.26118   L 387.73398,203.32787   L 387.26731,202.66122   L 386.40064,202.39456   L 385.60064,202.72789   L 385.13397,203.39454   L 384.93397,204.99449   L 384.93397,217.26083   L 388.00065,217.26083  z " clip-path="url(#clipWmfPath1)" style="fill:#e5e5e5;fill-rule:nonzero;fill-opacity:1;stroke:none;"/>
  <path id="path126" d="  M 388.00065,217.26083   L 388.00065,205.26115   L 387.93398,204.26118   L 387.73398,203.32787   L 387.26731,202.66122   L 386.40064,202.39456   L 385.60064,202.72789   L 385.13397,203.39454   L 384.93397,204.99449   L 384.93397,217.26083   L 388.00065,217.26083  z " clip-path="url(#clipWmfPath1)" style="fill:none;stroke:#000000;stroke-width:0.066666774px;stroke-linecap:round;stroke-linejoin:round;stroke-miterlimit:4;stroke-dasharray:none;stroke-opacity:1;"/>
  <path id="path128" d="  M 383.33397,217.26083   L 383.33397,205.26115   L 383.0673,203.32787   L 382.60064,202.66122   L 382.40064,202.46123   L 381.80064,202.39456   L 381.00063,202.72789   L 380.60063,203.39454   L 380.40063,204.99449   L 380.40063,217.26083   L 383.33397,217.26083  z " clip-path="url(#clipWmfPath1)" style="fill:#e5e5e5;fill-rule:nonzero;fill-opacity:1;stroke:none;"/>
  <path id="path130" d="  M 383.33397,217.26083   L 383.33397,205.26115   L 383.0673,203.32787   L 382.60064,202.66122   L 382.40064,202.46123   L 381.80064,202.39456   L 381.00063,202.72789   L 380.60063,203.39454   L 380.40063,204.99449   L 380.40063,217.26083   L 383.33397,217.26083  z " clip-path="url(#clipWmfPath1)" style="fill:none;stroke:#000000;stroke-width:0.066666774px;stroke-linecap:round;stroke-linejoin:round;stroke-miterlimit:4;stroke-dasharray:none;stroke-opacity:1;"/>
  <path id="path132" d="  M 378.6673,217.26083   L 378.6673,205.26115   L 378.40063,203.32787   L 377.93396,202.66122   L 377.73396,202.46123   L 377.13396,202.39456   L 376.33396,202.72789   L 375.93396,203.39454   L 375.73396,204.99449   L 375.73396,217.26083   L 378.6673,217.26083  z " clip-path="url(#clipWmfPath1)" style="fill:#e5e5e5;fill-rule:nonzero;fill-opacity:1;stroke:none;"/>
  <path id="path134" d="  M 378.6673,217.26083   L 378.6673,205.26115   L 378.40063,203.32787   L 377.93396,202.66122   L 377.73396,202.46123   L 377.13396,202.39456   L 376.33396,202.72789   L 375.93396,203.39454   L 375.73396,204.99449   L 375.73396,217.26083   L 378.6673,217.26083  z " clip-path="url(#clipWmfPath1)" style="fill:none;stroke:#000000;stroke-width:0.066666774px;stroke-linecap:round;stroke-linejoin:round;stroke-miterlimit:4;stroke-dasharray:none;stroke-opacity:1;"/>
  <path id="path136" d="  M 373.86729,217.26083   L 373.86729,205.26115   L 373.80062,204.26118   L 373.60062,203.32787   L 373.13395,202.66122   L 372.26729,202.39456   L 371.46728,202.72789   L 371.06728,203.39454   L 370.86728,204.99449   L 370.86728,217.26083   L 373.86729,217.26083  z " clip-path="url(#clipWmfPath1)" style="fill:#e5e5e5;fill-rule:nonzero;fill-opacity:1;stroke:none;"/>
  <path id="path138" d="  M 373.86729,217.26083   L 373.86729,205.26115   L 373.80062,204.26118   L 373.60062,203.32787   L 373.13395,202.66122   L 372.26729,202.39456   L 371.46728,202.72789   L 371.06728,203.39454   L 370.86728,204.99449   L 370.86728,217.26083   L 373.86729,217.26083  z " clip-path="url(#clipWmfPath1)" style="fill:none;stroke:#000000;stroke-width:0.066666774px;stroke-linecap:round;stroke-linejoin:round;stroke-miterlimit:4;stroke-dasharray:none;stroke-opacity:1;"/>
  <g id="g168" clip-path="url(#clipWmfPath1)"/>
  <g id="g186" clip-path="url(#clipWmfPath1)">
    <text id="text184" y="0.000000" x="0.000000" transform="matrix(1.000000,-0.000000,0.000000,1.000000,490.000815,30.999167)" style="font-size:9.312500px;font-style:normal;font-variant:normal;font-weight:400;font-stretch:Condensed;line-height:125.000000%;letter-spacing:0px;word-spacing:0px;fill:#000000;fill-opacity:1;stroke:none;font-family:Helvetica-Narrow;text-align:start;text-anchor:start;" xml:space="preserve"><tspan id="tspan182" y="0.000000" x="0.000000"><tspan id="tspan170" style="fill:#000000;font-size:9.312500px;font-style:normal;font-variant:normal;font-weight:400;font-stretch:Condensed;font-family:Helvetica-Narrow;" dy="0.000000" dx="0.000000">3</tspan><tspan id="tspan172" style="fill:#000000;font-size:9.312500px;font-style:normal;font-variant:normal;font-weight:400;font-stretch:Condensed;font-family:Helvetica-Narrow;" dy="0.000000" dx="0.288926">4</tspan><tspan id="tspan174" style="fill:#000000;font-size:9.312500px;font-style:normal;font-variant:normal;font-weight:400;font-stretch:Condensed;font-family:Helvetica-Narrow;" dy="0.000000" dx="0.183433">1</tspan><tspan id="tspan176" style="fill:#000000;font-size:9.312500px;font-style:normal;font-variant:normal;font-weight:400;font-stretch:Condensed;font-family:Helvetica-Narrow;" dy="0.000000" dx="0.183433">3</tspan><tspan id="tspan178" style="fill:#000000;font-size:9.312500px;font-style:normal;font-variant:normal;font-weight:400;font-stretch:Condensed;font-family:Helvetica-Narrow;" dy="0.000000" dx="0.183433">0</tspan><tspan id="tspan180" style="fill:#000000;font-size:9.312500px;font-style:normal;font-variant:normal;font-weight:400;font-stretch:Condensed;font-family:Helvetica-Narrow;" dy="0.000000" dx="0.183433">A</tspan></tspan></text>
  </g>
  <path id="path188" d="  M 515.00086,36.465687   L 515.00086,136.99632   L 481.6008,136.99632   L 481.6008,36.465687   L 515.00086,36.465687  z    M 508.26751,42.132202   L 488.60081,42.132202   L 488.60081,84.597728   L 508.26751,84.597728   L 508.26751,88.46429   L 488.60081,88.46429   L 488.60081,130.92982   L 508.26751,130.92982   L 508.26751,42.132202  z   " clip-path="url(#clipWmfPath1)" style="fill:#000000;fill-rule:evenodd;fill-opacity:1;stroke:none;"/>
  <path id="path190" d="  M 515.00086,36.465687   L 515.00086,136.99632   L 481.6008,136.99632   L 481.6008,36.465687   L 515.00086,36.465687  z " clip-path="url(#clipWmfPath1)" style="fill:none;stroke:#000000;stroke-width:0.066666774px;stroke-linecap:round;stroke-linejoin:round;stroke-miterlimit:4;stroke-dasharray:none;stroke-opacity:1;"/>
  <path id="path192" d="  M 508.26751,42.132202   L 488.60081,42.132202   L 488.60081,84.597728   L 508.26751,84.597728   L 508.26751,88.46429   L 488.60081,88.46429   L 488.60081,130.92982   L 508.26751,130.92982   L 508.26751,42.132202  z " clip-path="url(#clipWmfPath1)" style="fill:none;stroke:#000000;stroke-width:0.066666774px;stroke-linecap:round;stroke-linejoin:round;stroke-miterlimit:4;stroke-dasharray:none;stroke-opacity:1;"/>
  <path id="path194" d="  M 509.66751,37.86565   L 514.60086,37.86565   L 514.60086,41.465553   L 509.66751,41.465553   L 509.66751,42.998845   L 514.60086,42.998845   L 514.60086,46.598748   L 509.66751,46.598748   L 509.66751,48.065376   L 514.60086,48.065376   L 514.60086,51.665279   L 509.66751,51.665279   L 509.66751,52.998576   L 514.60086,52.998576   L 514.60086,56.59848   L 509.66751,56.59848   L 509.66751,58.065107   L 514.60086,58.065107   L 514.60086,61.598345   L 509.66751,61.598345   L 509.66751,62.664983   L 514.60086,62.664983   L 514.60086,66.264887   L 509.66751,66.264887   L 509.66751,67.731514   L 514.60086,67.731514   L 514.60086,71.264752   L 509.66751,71.264752   L 509.66751,72.798045   L 514.60086,72.798045   L 514.60086,76.397948   L 509.66751,76.397948   L 509.66751,77.79791   L 514.60086,77.79791   L 514.60086,81.331149   L 509.66751,81.331149   L 509.66751,82.731111   L 514.60086,82.731111   L 514.60086,86.331014   L 509.66751,86.331014   L 509.66751,87.664312   L 514.60086,87.664312   L 514.60086,91.264215   L 509.66751,91.264215   L 509.66751,92.797507   L 514.60086,92.797507   L 514.60086,96.330746   L 509.66751,96.330746   L 509.66751,97.864038   L 514.60086,97.864038   L 509.66751,97.864038   L 514.60086,97.864038   L 514.60086,101.39728   L 509.66751,101.39728   L 509.66751,102.79724   L 514.60086,102.79724   L 514.60086,106.33048   L 509.66751,106.33048   L 509.66751,107.7971   L 514.60086,107.7971   L 514.60086,111.39701   L 509.66751,111.39701   L 509.66751,112.39698   L 514.60086,112.39698   L 514.60086,115.99688   L 509.66751,115.99688   L 509.66751,117.46351   L 514.60086,117.46351   L 514.60086,121.06341   L 509.66751,121.06341   L 509.66751,122.59671   L 514.60086,122.59671   L 514.60086,126.12995   L 509.66751,126.12995   L 509.66751,127.52991   L 514.60086,127.52991   L 514.60086,131.12981   L 509.66751,131.12981   L 509.66751,132.52977   L 514.60086,132.52977   L 514.60086,136.06301   L 509.66751,136.06301   L 509.66751,37.86565   L 508.53418,39.265612   L 488.86748,39.265612   L 487.60081,37.59899   L 487.60081,41.198893   L 482.66747,41.198893   L 482.66747,42.732186   L 487.60081,42.732186   L 487.60081,46.265424   L 482.66747,46.265424   L 482.66747,47.798716   L 487.60081,47.798716   L 487.60081,51.331955   L 482.66747,51.331955   L 482.66747,52.731917   L 487.60081,52.731917   L 487.60081,56.265155   L 482.66747,56.265155   L 482.66747,57.731783   L 487.60081,57.731783   L 487.60081,61.331686   L 482.66747,61.331686   L 482.66747,62.331659   L 487.60081,62.331659   L 487.60081,65.931562   L 482.66747,65.931562   L 482.66747,67.39819   L 487.60081,67.39819   L 487.60081,70.998093   L 482.66747,70.998093   L 482.66747,72.531385   L 487.60081,72.531385   L 487.60081,76.064624   L 482.66747,76.064624   L 482.66747,77.464586   L 487.60081,77.464586   L 487.60081,81.064489   L 482.66747,81.064489   L 482.66747,82.464452   L 487.60081,82.464452   L 487.60081,85.99769   L 482.66747,85.99769   L 482.66747,87.330988   L 487.60081,87.330988   L 487.60081,90.930891   L 482.66747,90.930891   L 482.66747,92.464183   L 487.60081,92.464183   L 487.60081,96.064086   L 482.66747,96.064086   L 482.66747,97.530714   L 487.60081,97.530714   L 487.60081,101.13062   L 482.66747,101.13062   L 482.66747,102.46391   L 487.60081,102.46391   L 487.60081,106.06382   L 482.66747,106.06382   L 482.66747,107.53045   L 487.60081,107.53045   L 487.60081,111.06368   L 482.66747,111.06368   L 482.66747,112.13032   L 487.60081,112.13032   L 487.60081,115.73022   L 482.66747,115.73022   L 482.66747,117.19685   L 487.60081,117.19685   L 487.60081,120.73009   L 482.66747,120.73009   L 482.66747,122.26338   L 487.60081,122.26338   L 487.60081,125.86329   L 482.66747,125.86329   L 482.66747,127.26325   L 487.60081,127.26325   L 487.60081,130.79649   L 482.66747,130.79649   L 482.66747,132.19645   L 487.60081,132.19645   L 487.60081,135.79635   L 482.66747,135.79635   L 482.66747,37.59899   L 487.60081,37.59899   L 488.86748,39.265612   L 508.53418,39.265612   L 509.66751,37.86565  z " clip-path="url(#clipWmfPath1)" style="fill:#ffffff;fill-rule:nonzero;fill-opacity:1;stroke:none;"/>
  <path id="path196" d="  M 509.66751,37.86565   L 514.60086,37.86565   L 514.60086,41.465553   L 509.66751,41.465553   L 509.66751,42.998845   L 514.60086,42.998845   L 514.60086,46.598748   L 509.66751,46.598748   L 509.66751,48.065376   L 514.60086,48.065376   L 514.60086,51.665279   L 509.66751,51.665279   L 509.66751,52.998576   L 514.60086,52.998576   L 514.60086,56.59848   L 509.66751,56.59848   L 509.66751,58.065107   L 514.60086,58.065107   L 514.60086,61.598345   L 509.66751,61.598345   L 509.66751,62.664983   L 514.60086,62.664983   L 514.60086,66.264887   L 509.66751,66.264887   L 509.66751,67.731514   L 514.60086,67.731514   L 514.60086,71.264752   L 509.66751,71.264752   L 509.66751,72.798045   L 514.60086,72.798045   L 514.60086,76.397948   L 509.66751,76.397948   L 509.66751,77.79791   L 514.60086,77.79791   L 514.60086,81.331149   L 509.66751,81.331149   L 509.66751,82.731111   L 514.60086,82.731111   L 514.60086,86.331014   L 509.66751,86.331014   L 509.66751,87.664312   L 514.60086,87.664312   L 514.60086,91.264215   L 509.66751,91.264215   L 509.66751,92.797507   L 514.60086,92.797507   L 514.60086,96.330746   L 509.66751,96.330746   L 509.66751,97.864038   L 514.60086,97.864038   L 509.66751,97.864038   L 514.60086,97.864038   L 514.60086,101.39728   L 509.66751,101.39728   L 509.66751,102.79724   L 514.60086,102.79724   L 514.60086,106.33048   L 509.66751,106.33048   L 509.66751,107.7971   L 514.60086,107.7971   L 514.60086,111.39701   L 509.66751,111.39701   L 509.66751,112.39698   L 514.60086,112.39698   L 514.60086,115.99688   L 509.66751,115.99688   L 509.66751,117.46351   L 514.60086,117.46351   L 514.60086,121.06341   L 509.66751,121.06341   L 509.66751,122.59671   L 514.60086,122.59671   L 514.60086,126.12995   L 509.66751,126.12995   L 509.66751,127.52991   L 514.60086,127.52991   L 514.60086,131.12981   L 509.66751,131.12981   L 509.66751,132.52977   L 514.60086,132.52977   L 514.60086,136.06301   L 509.66751,136.06301   L 509.66751,37.86565   L 508.53418,39.265612   L 488.86748,39.265612   L 487.60081,37.59899   L 487.60081,41.198893   L 482.66747,41.198893   L 482.66747,42.732186   L 487.60081,42.732186   L 487.60081,46.265424   L 482.66747,46.265424   L 482.66747,47.798716   L 487.60081,47.798716   L 487.60081,51.331955   L 482.66747,51.331955   L 482.66747,52.731917   L 487.60081,52.731917   L 487.60081,56.265155   L 482.66747,56.265155   L 482.66747,57.731783   L 487.60081,57.731783   L 487.60081,61.331686   L 482.66747,61.331686   L 482.66747,62.331659   L 487.60081,62.331659   L 487.60081,65.931562   L 482.66747,65.931562   L 482.66747,67.39819   L 487.60081,67.39819   L 487.60081,70.998093   L 482.66747,70.998093   L 482.66747,72.531385   L 487.60081,72.531385   L 487.60081,76.064624   L 482.66747,76.064624   L 482.66747,77.464586   L 487.60081,77.464586   L 487.60081,81.064489   L 482.66747,81.064489   L 482.66747,82.464452   L 487.60081,82.464452   L 487.60081,85.99769   L 482.66747,85.99769   L 482.66747,87.330988   L 487.60081,87.330988   L 487.60081,90.930891   L 482.66747,90.930891   L 482.66747,92.464183   L 487.60081,92.464183   L 487.60081,96.064086   L 482.66747,96.064086   L 482.66747,97.530714   L 487.60081,97.530714   L 487.60081,101.13062   L 482.66747,101.13062   L 482.66747,102.46391   L 487.60081,102.46391   L 487.60081,106.06382   L 482.66747,106.06382   L 482.66747,107.53045   L 487.60081,107.53045   L 487.60081,111.06368   L 482.66747,111.06368   L 482.66747,112.13032   L 487.60081,112.13032   L 487.60081,115.73022   L 482.66747,115.73022   L 482.66747,117.19685   L 487.60081,117.19685   L 487.60081,120.73009   L 482.66747,120.73009   L 482.66747,122.26338   L 487.60081,122.26338   L 487.60081,125.86329   L 482.66747,125.86329   L 482.66747,127.26325   L 487.60081,127.26325   L 487.60081,130.79649   L 482.66747,130.79649   L 482.66747,132.19645   L 487.60081,132.19645   L 487.60081,135.79635   L 482.66747,135.79635   L 482.66747,37.59899   L 487.60081,37.59899   L 488.86748,39.265612   L 508.53418,39.265612   L 509.66751,37.86565  z " clip-path="url(#clipWmfPath1)" style="fill:none;stroke:#000000;stroke-width:0.066666774px;stroke-linecap:round;stroke-linejoin:round;stroke-miterlimit:4;stroke-dasharray:none;stroke-opacity:1;"/>
  <path id="path198" d="  M 507.86751,80.064516   L 508.86751,80.197846   L 509.66751,80.6645   L 510.26752,81.331149   L 510.46752,82.064462   L 510.46752,91.530875   L 510.26752,92.264188   L 509.66751,92.864172   L 508.86751,93.197497   L 507.86751,93.330826   L 488.60081,93.330826   L 487.60081,93.197497   L 486.80081,92.797507   L 486.20081,92.130859   L 486.00081,91.397545   L 486.00081,81.997798   L 486.20081,81.264484   L 486.80081,80.6645   L 487.60081,80.197846   L 488.60081,80.064516   L 507.86751,80.064516  z " clip-path="url(#clipWmfPath1)" style="fill:#ffffff;fill-rule:nonzero;fill-opacity:1;stroke:none;"/>
  <path id="path200" d="  M 488.60081,79.531197   L 488.60081,80.597835   L 507.80084,80.597835   L 508.66751,80.6645   L 509.33418,81.064489   L 509.80085,81.597808   L 509.93418,82.131127   L 509.93418,91.46421   L 509.80085,91.997529   L 509.40085,92.464183   L 508.73418,92.730843   L 507.80084,92.797507   L 488.66748,92.797507   L 487.73414,92.730843   L 487.13414,92.397518   L 486.66748,91.864199   L 486.53414,91.33088   L 486.53414,82.064462   L 486.66748,81.531143   L 487.13414,81.064489   L 487.80081,80.6645   L 488.66748,80.597835   L 507.80084,80.597835   L 508.80085,80.731165   L 508.93418,79.664527   L 507.93418,79.531197   L 488.53415,79.531197   L 487.40081,79.731192   L 486.46748,80.264511   L 485.73414,80.997824   L 485.46747,81.931133   L 485.46747,91.46421   L 485.73414,92.397518   L 486.46748,93.197497   L 487.46748,93.664151   L 488.53415,93.864145   L 507.93418,93.864145   L 509.00085,93.664151   L 509.93418,93.264162   L 510.73418,92.530848   L 511.00085,91.59754   L 511.00085,81.997798   L 510.73418,81.064489   L 510.00085,80.264511   L 509.06751,79.731192   L 507.93418,79.531197   L 488.60081,79.531197  z " clip-path="url(#clipWmfPath1)" style="fill:#000000;fill-rule:nonzero;fill-opacity:1;stroke:#000000;stroke-width:0.066666774px;stroke-linecap:round;stroke-linejoin:round;stroke-miterlimit:4;stroke-dasharray:none;stroke-opacity:1;"/>
  <g id="g202" clip-path="url(#clipWmfPath1)"/>
  <g id="g214" clip-path="url(#clipWmfPath1)">
    <text id="text212" y="0.000000" x="0.000000" transform="matrix(1.000000,-0.000000,0.000000,1.000000,488.267479,92.530848)" style="font-size:10.687500px;font-style:normal;font-variant:normal;font-weight:400;font-stretch:Condensed;line-height:125.000000%;letter-spacing:0px;word-spacing:0px;fill:#000000;fill-opacity:1;stroke:none;font-family:Helvetica-Narrow;text-align:start;text-anchor:start;" xml:space="preserve"><tspan id="tspan210" y="0.000000" x="0.000000"><tspan id="tspan204" style="fill:#000000;font-size:10.687500px;font-style:normal;font-variant:normal;font-weight:400;font-stretch:Condensed;font-family:Helvetica-Narrow;" dy="0.000000" dx="0.000000">N</tspan><tspan id="tspan206" style="fill:#000000;font-size:10.687500px;font-style:normal;font-variant:normal;font-weight:400;font-stretch:Condensed;font-family:Helvetica-Narrow;" dy="0.000000" dx="-0.050140">P</tspan><tspan id="tspan208" style="fill:#000000;font-size:10.687500px;font-style:normal;font-variant:normal;font-weight:400;font-stretch:Condensed;font-family:Helvetica-Narrow;" dy="0.000000" dx="-0.102537">U</tspan></tspan></text>
  </g>
  <g id="g216" clip-path="url(#clipWmfPath1)"/>
  <g id="g240" clip-path="url(#clipWmfPath1)">
    <text id="text226" y="0.000000" x="0.000000" transform="matrix(1.000000,-0.000000,0.000000,1.000000,229.000381,214.994225)" style="font-size:10.687500px;font-style:normal;font-variant:normal;font-weight:400;font-stretch:Condensed;line-height:125.000000%;letter-spacing:0px;word-spacing:0px;fill:#000000;fill-opacity:1;stroke:none;font-family:Helvetica-Narrow;text-align:start;text-anchor:start;" xml:space="preserve"><tspan id="tspan224" y="0.000000" x="0.000000"><tspan id="tspan218" style="fill:#000000;font-size:10.687500px;font-style:normal;font-variant:normal;font-weight:400;font-stretch:Condensed;font-family:Helvetica-Narrow;" dy="0.000000" dx="0.000000">C</tspan><tspan id="tspan220" style="fill:#000000;font-size:10.687500px;font-style:normal;font-variant:normal;font-weight:400;font-stretch:Condensed;font-family:Helvetica-Narrow;" dy="0.000000" dx="-0.050140">P</tspan><tspan id="tspan222" style="fill:#000000;font-size:10.687500px;font-style:normal;font-variant:normal;font-weight:400;font-stretch:Condensed;font-family:Helvetica-Narrow;" dy="0.000000" dx="-0.102537">U</tspan></tspan></text>
    <text id="text238" y="0.000000" x="26.600044" transform="matrix(1.000000,-0.000000,0.000000,1.000000,229.000381,214.994225)" style="font-size:10.687500px;font-style:normal;font-variant:normal;font-weight:400;font-stretch:Condensed;line-height:125.000000%;letter-spacing:0px;word-spacing:0px;fill:#000000;fill-opacity:1;stroke:none;font-family:Helvetica-Narrow;text-align:start;text-anchor:start;" xml:space="preserve"><tspan id="tspan236" y="0.000000" x="26.600044"><tspan id="tspan228" style="fill:#000000;font-size:10.687500px;font-style:normal;font-variant:normal;font-weight:400;font-stretch:Condensed;font-family:Helvetica-Narrow;" dy="0.000000" dx="0.000000">C</tspan><tspan id="tspan230" style="fill:#000000;font-size:10.687500px;font-style:normal;font-variant:normal;font-weight:400;font-stretch:Condensed;font-family:Helvetica-Narrow;" dy="0.000000" dx="-0.050140">A</tspan><tspan id="tspan232" style="fill:#000000;font-size:10.687500px;font-style:normal;font-variant:normal;font-weight:400;font-stretch:Condensed;font-family:Helvetica-Narrow;" dy="0.000000" dx="-0.102537">R</tspan><tspan id="tspan234" style="fill:#000000;font-size:10.687500px;font-style:normal;font-variant:normal;font-weight:400;font-stretch:Condensed;font-family:Helvetica-Narrow;" dy="0.000000" dx="-0.050140">D</tspan></tspan></text>
  </g>
  <path id="path242" d="  M 401.134,94.06414   L 401.134,24.132685   L 368.93395,24.132685   L 368.93395,94.06414   L 401.134,94.06414  z    M 375.46729,89.130939   L 394.33399,89.130939   L 394.33399,60.598372   L 375.46729,60.598372   L 375.46729,57.665118   L 394.33399,57.665118   L 394.33399,29.132551   L 375.46729,29.132551   L 375.46729,89.130939  z   " clip-path="url(#clipWmfPath1)" style="fill:#000000;fill-rule:evenodd;fill-opacity:1;stroke:none;"/>
  <path id="path244" d="  M 401.134,94.06414   L 401.134,24.132685   L 368.93395,24.132685   L 368.93395,94.06414   L 401.134,94.06414  z " clip-path="url(#clipWmfPath1)" style="fill:none;stroke:#000000;stroke-width:0.066666774px;stroke-linecap:round;stroke-linejoin:round;stroke-miterlimit:4;stroke-dasharray:none;stroke-opacity:1;"/>
  <path id="path246" d="  M 375.46729,89.130939   L 394.33399,89.130939   L 394.33399,60.598372   L 375.46729,60.598372   L 375.46729,57.665118   L 394.33399,57.665118   L 394.33399,29.132551   L 375.46729,29.132551   L 375.46729,89.130939  z " clip-path="url(#clipWmfPath1)" style="fill:none;stroke:#000000;stroke-width:0.066666774px;stroke-linecap:round;stroke-linejoin:round;stroke-miterlimit:4;stroke-dasharray:none;stroke-opacity:1;"/>
  <path id="path248" d="  M 395.60066,25.132658   L 400.334,25.132658   L 400.334,28.732562   L 395.60066,28.732562   L 395.60066,30.132524   L 400.334,30.132524   L 400.334,33.665762   L 395.60066,33.665762   L 395.60066,35.065725   L 400.334,35.065725   L 400.334,38.665628   L 395.60066,38.665628   L 395.60066,40.19892   L 400.334,40.19892   L 400.334,43.665494   L 395.60066,43.665494   L 395.60066,45.132121   L 400.334,45.132121   L 400.334,48.732024   L 395.60066,48.732024   L 395.60066,49.798662   L 400.334,49.798662   L 400.334,53.331901   L 395.60066,53.331901   L 395.60066,54.798528   L 400.334,54.798528   L 400.334,58.398431   L 395.60066,58.398431   L 395.60066,59.731729   L 400.334,59.731729   L 400.334,63.331632   L 395.60066,63.331632   L 395.60066,64.798259   L 400.334,64.798259   L 400.334,68.398163   L 395.60066,68.398163   L 395.60066,69.931455   L 400.334,69.931455   L 400.334,73.531358   L 395.60066,73.531358   L 395.60066,74.864656   L 400.334,74.864656   L 400.334,78.331229   L 395.60066,78.331229   L 395.60066,79.731192   L 400.334,79.731192   L 400.334,83.331095   L 395.60066,83.331095   L 395.60066,84.731057   L 400.334,84.731057   L 400.334,88.264296   L 395.60066,88.264296   L 395.60066,89.797588   L 400.334,89.797588   L 400.334,93.397491   L 395.60066,93.397491   L 395.60066,25.132658   L 374.40062,24.865999   L 374.33396,28.332572   L 369.66728,28.399237   L 369.66728,29.7992   L 374.40062,29.7992   L 374.40062,33.399103   L 369.66728,33.399103   L 369.66728,34.799065   L 374.40062,34.799065   L 374.40062,38.332304   L 369.66728,38.332304   L 369.66728,39.865596   L 374.40062,39.865596   L 374.40062,43.398834   L 369.66728,43.398834   L 369.66728,44.732132   L 374.40062,44.732132   L 374.40062,48.332035   L 369.66728,48.332035   L 369.66728,49.465338   L 374.40062,49.465338   L 374.40062,53.065241   L 369.66728,53.065241   L 369.66728,54.531869   L 374.40062,54.531869   L 374.40062,58.065107   L 369.66728,58.065107   L 369.66728,59.465069   L 374.40062,59.465069   L 374.40062,62.998308   L 369.66728,62.998308   L 369.66728,64.5316   L 374.40062,64.5316   L 374.40062,68.064838   L 369.66728,68.064838   L 369.66728,69.598131   L 374.40062,69.598131   L 374.40062,73.198034   L 369.66728,73.198034   L 369.66728,74.531331   L 374.40062,74.531331   L 374.40062,78.06457   L 369.66728,78.06457   L 369.66728,79.464532   L 374.40062,79.464532   L 374.40062,82.997771   L 369.66728,82.997771   L 369.66728,84.397733   L 374.40062,84.397733   L 374.40062,87.997636   L 369.66728,87.997636   L 369.66728,89.530928   L 374.40062,89.530928   L 374.40062,93.064167   L 369.66728,93.064167   L 369.66728,24.865999   L 374.40062,24.865999   L 395.60066,25.132658  z " clip-path="url(#clipWmfPath1)" style="fill:#ffffff;fill-rule:nonzero;fill-opacity:1;stroke:none;"/>
  <path id="path250" d="  M 395.60066,25.132658   L 400.334,25.132658   L 400.334,28.732562   L 395.60066,28.732562   L 395.60066,30.132524   L 400.334,30.132524   L 400.334,33.665762   L 395.60066,33.665762   L 395.60066,35.065725   L 400.334,35.065725   L 400.334,38.665628   L 395.60066,38.665628   L 395.60066,40.19892   L 400.334,40.19892   L 400.334,43.665494   L 395.60066,43.665494   L 395.60066,45.132121   L 400.334,45.132121   L 400.334,48.732024   L 395.60066,48.732024   L 395.60066,49.798662   L 400.334,49.798662   L 400.334,53.331901   L 395.60066,53.331901   L 395.60066,54.798528   L 400.334,54.798528   L 400.334,58.398431   L 395.60066,58.398431   L 395.60066,59.731729   L 400.334,59.731729   L 400.334,63.331632   L 395.60066,63.331632   L 395.60066,64.798259   L 400.334,64.798259   L 400.334,68.398163   L 395.60066,68.398163   L 395.60066,69.931455   L 400.334,69.931455   L 400.334,73.531358   L 395.60066,73.531358   L 395.60066,74.864656   L 400.334,74.864656   L 400.334,78.331229   L 395.60066,78.331229   L 395.60066,79.731192   L 400.334,79.731192   L 400.334,83.331095   L 395.60066,83.331095   L 395.60066,84.731057   L 400.334,84.731057   L 400.334,88.264296   L 395.60066,88.264296   L 395.60066,89.797588   L 400.334,89.797588   L 400.334,93.397491   L 395.60066,93.397491   L 395.60066,25.132658   L 374.40062,24.865999   L 374.33396,28.332572   L 369.66728,28.399237   L 369.66728,29.7992   L 374.40062,29.7992   L 374.40062,33.399103   L 369.66728,33.399103   L 369.66728,34.799065   L 374.40062,34.799065   L 374.40062,38.332304   L 369.66728,38.332304   L 369.66728,39.865596   L 374.40062,39.865596   L 374.40062,43.398834   L 369.66728,43.398834   L 369.66728,44.732132   L 374.40062,44.732132   L 374.40062,48.332035   L 369.66728,48.332035   L 369.66728,49.465338   L 374.40062,49.465338   L 374.40062,53.065241   L 369.66728,53.065241   L 369.66728,54.531869   L 374.40062,54.531869   L 374.40062,58.065107   L 369.66728,58.065107   L 369.66728,59.465069   L 374.40062,59.465069   L 374.40062,62.998308   L 369.66728,62.998308   L 369.66728,64.5316   L 374.40062,64.5316   L 374.40062,68.064838   L 369.66728,68.064838   L 369.66728,69.598131   L 374.40062,69.598131   L 374.40062,73.198034   L 369.66728,73.198034   L 369.66728,74.531331   L 374.40062,74.531331   L 374.40062,78.06457   L 369.66728,78.06457   L 369.66728,79.464532   L 374.40062,79.464532   L 374.40062,82.997771   L 369.66728,82.997771   L 369.66728,84.397733   L 374.40062,84.397733   L 374.40062,87.997636   L 369.66728,87.997636   L 369.66728,89.530928   L 374.40062,89.530928   L 374.40062,93.064167   L 369.66728,93.064167   L 369.66728,24.865999   L 374.40062,24.865999   L 395.60066,25.132658  z " clip-path="url(#clipWmfPath1)" style="fill:none;stroke:#000000;stroke-width:0.066666774px;stroke-linecap:round;stroke-linejoin:round;stroke-miterlimit:4;stroke-dasharray:none;stroke-opacity:1;"/>
  <path id="path252" d="  M 357.13393,94.06414   L 357.13393,24.132685   L 324.93387,24.132685   L 324.93387,94.06414   L 357.13393,94.06414  z    M 331.46722,89.130939   L 350.33392,89.130939   L 350.33392,60.598372   L 331.46722,60.598372   L 331.46722,57.665118   L 350.33392,57.665118   L 350.33392,29.132551   L 331.46722,29.132551   L 331.46722,89.130939  z   " clip-path="url(#clipWmfPath1)" style="fill:#000000;fill-rule:evenodd;fill-opacity:1;stroke:none;"/>
  <path id="path254" d="  M 357.13393,94.06414   L 357.13393,24.132685   L 324.93387,24.132685   L 324.93387,94.06414   L 357.13393,94.06414  z " clip-path="url(#clipWmfPath1)" style="fill:none;stroke:#000000;stroke-width:0.066666774px;stroke-linecap:round;stroke-linejoin:round;stroke-miterlimit:4;stroke-dasharray:none;stroke-opacity:1;"/>
  <path id="path256" d="  M 331.46722,89.130939   L 350.33392,89.130939   L 350.33392,60.598372   L 331.46722,60.598372   L 331.46722,57.665118   L 350.33392,57.665118   L 350.33392,29.132551   L 331.46722,29.132551   L 331.46722,89.130939  z " clip-path="url(#clipWmfPath1)" style="fill:none;stroke:#000000;stroke-width:0.066666774px;stroke-linecap:round;stroke-linejoin:round;stroke-miterlimit:4;stroke-dasharray:none;stroke-opacity:1;"/>
  <path id="path258" d="  M 351.60058,25.132658   L 356.33393,25.132658   L 356.33393,28.732562   L 351.60058,28.732562   L 351.60058,30.132524   L 356.33393,30.132524   L 356.33393,33.665762   L 351.60058,33.665762   L 351.60058,35.065725   L 356.33393,35.065725   L 356.33393,38.665628   L 351.60058,38.665628   L 351.60058,40.19892   L 356.33393,40.19892   L 356.33393,43.665494   L 351.60058,43.665494   L 351.60058,45.132121   L 356.33393,45.132121   L 356.33393,48.732024   L 351.60058,48.732024   L 351.60058,49.798662   L 356.33393,49.798662   L 356.33393,53.331901   L 351.60058,53.331901   L 351.60058,54.798528   L 356.33393,54.798528   L 356.33393,58.398431   L 351.60058,58.398431   L 351.60058,59.731729   L 356.33393,59.731729   L 356.33393,63.331632   L 351.60058,63.331632   L 351.60058,64.798259   L 356.33393,64.798259   L 356.33393,68.398163   L 351.60058,68.398163   L 351.60058,69.931455   L 356.33393,69.931455   L 356.33393,73.531358   L 351.60058,73.531358   L 351.60058,74.864656   L 356.33393,74.864656   L 356.33393,78.331229   L 351.60058,78.331229   L 351.60058,79.731192   L 356.33393,79.731192   L 356.33393,83.331095   L 351.60058,83.331095   L 351.60058,84.731057   L 356.33393,84.731057   L 356.33393,88.264296   L 351.60058,88.264296   L 351.60058,89.797588   L 356.33393,89.797588   L 356.33393,93.397491   L 351.60058,93.397491   L 351.60058,25.132658   L 330.40055,24.865999   L 330.33388,28.332572   L 325.66721,28.399237   L 325.66721,29.7992   L 330.40055,29.7992   L 330.40055,33.399103   L 325.66721,33.399103   L 325.66721,34.799065   L 330.40055,34.799065   L 330.40055,38.332304   L 325.66721,38.332304   L 325.66721,39.865596   L 330.40055,39.865596   L 330.40055,43.398834   L 325.66721,43.398834   L 325.66721,44.732132   L 330.40055,44.732132   L 330.40055,48.332035   L 325.66721,48.332035   L 325.66721,49.465338   L 330.40055,49.465338   L 330.40055,53.065241   L 325.66721,53.065241   L 325.66721,54.531869   L 330.40055,54.531869   L 330.40055,58.065107   L 325.66721,58.065107   L 325.66721,59.465069   L 330.40055,59.465069   L 330.40055,62.998308   L 325.66721,62.998308   L 325.66721,64.5316   L 330.40055,64.5316   L 330.40055,68.064838   L 325.66721,68.064838   L 325.66721,69.598131   L 330.40055,69.598131   L 330.40055,73.198034   L 325.66721,73.198034   L 325.66721,74.531331   L 330.40055,74.531331   L 330.40055,78.06457   L 325.66721,78.06457   L 325.66721,79.464532   L 330.40055,79.464532   L 330.40055,82.997771   L 325.66721,82.997771   L 325.66721,84.397733   L 330.40055,84.397733   L 330.40055,87.997636   L 325.66721,87.997636   L 325.66721,89.530928   L 330.40055,89.530928   L 330.40055,93.064167   L 325.66721,93.064167   L 325.66721,24.865999   L 330.40055,24.865999   L 351.60058,25.132658  z " clip-path="url(#clipWmfPath1)" style="fill:#ffffff;fill-rule:nonzero;fill-opacity:1;stroke:none;"/>
  <path id="path260" d="  M 351.60058,25.132658   L 356.33393,25.132658   L 356.33393,28.732562   L 351.60058,28.732562   L 351.60058,30.132524   L 356.33393,30.132524   L 356.33393,33.665762   L 351.60058,33.665762   L 351.60058,35.065725   L 356.33393,35.065725   L 356.33393,38.665628   L 351.60058,38.665628   L 351.60058,40.19892   L 356.33393,40.19892   L 356.33393,43.665494   L 351.60058,43.665494   L 351.60058,45.132121   L 356.33393,45.132121   L 356.33393,48.732024   L 351.60058,48.732024   L 351.60058,49.798662   L 356.33393,49.798662   L 356.33393,53.331901   L 351.60058,53.331901   L 351.60058,54.798528   L 356.33393,54.798528   L 356.33393,58.398431   L 351.60058,58.398431   L 351.60058,59.731729   L 356.33393,59.731729   L 356.33393,63.331632   L 351.60058,63.331632   L 351.60058,64.798259   L 356.33393,64.798259   L 356.33393,68.398163   L 351.60058,68.398163   L 351.60058,69.931455   L 356.33393,69.931455   L 356.33393,73.531358   L 351.60058,73.531358   L 351.60058,74.864656   L 356.33393,74.864656   L 356.33393,78.331229   L 351.60058,78.331229   L 351.60058,79.731192   L 356.33393,79.731192   L 356.33393,83.331095   L 351.60058,83.331095   L 351.60058,84.731057   L 356.33393,84.731057   L 356.33393,88.264296   L 351.60058,88.264296   L 351.60058,89.797588   L 356.33393,89.797588   L 356.33393,93.397491   L 351.60058,93.397491   L 351.60058,25.132658   L 330.40055,24.865999   L 330.33388,28.332572   L 325.66721,28.399237   L 325.66721,29.7992   L 330.40055,29.7992   L 330.40055,33.399103   L 325.66721,33.399103   L 325.66721,34.799065   L 330.40055,34.799065   L 330.40055,38.332304   L 325.66721,38.332304   L 325.66721,39.865596   L 330.40055,39.865596   L 330.40055,43.398834   L 325.66721,43.398834   L 325.66721,44.732132   L 330.40055,44.732132   L 330.40055,48.332035   L 325.66721,48.332035   L 325.66721,49.465338   L 330.40055,49.465338   L 330.40055,53.065241   L 325.66721,53.065241   L 325.66721,54.531869   L 330.40055,54.531869   L 330.40055,58.065107   L 325.66721,58.065107   L 325.66721,59.465069   L 330.40055,59.465069   L 330.40055,62.998308   L 325.66721,62.998308   L 325.66721,64.5316   L 330.40055,64.5316   L 330.40055,68.064838   L 325.66721,68.064838   L 325.66721,69.598131   L 330.40055,69.598131   L 330.40055,73.198034   L 325.66721,73.198034   L 325.66721,74.531331   L 330.40055,74.531331   L 330.40055,78.06457   L 325.66721,78.06457   L 325.66721,79.464532   L 330.40055,79.464532   L 330.40055,82.997771   L 325.66721,82.997771   L 325.66721,84.397733   L 330.40055,84.397733   L 330.40055,87.997636   L 325.66721,87.997636   L 325.66721,89.530928   L 330.40055,89.530928   L 330.40055,93.064167   L 325.66721,93.064167   L 325.66721,24.865999   L 330.40055,24.865999   L 351.60058,25.132658  z " clip-path="url(#clipWmfPath1)" style="fill:none;stroke:#000000;stroke-width:0.066666774px;stroke-linecap:round;stroke-linejoin:round;stroke-miterlimit:4;stroke-dasharray:none;stroke-opacity:1;"/>
  <path id="path262" d="  M 372.93395,52.465257   L 373.93396,52.598587   L 374.73396,53.065241   L 375.33396,53.73189   L 375.53396,54.465204   L 375.53396,63.931616   L 375.33396,64.66493   L 374.73396,65.264914   L 373.93396,65.598238   L 372.93395,65.731568   L 353.20059,65.731568   L 352.20059,65.598238   L 351.40058,65.198249   L 350.80058,64.598265   L 350.60058,63.864951   L 350.60058,54.465204   L 350.80058,53.73189   L 351.40058,53.065241   L 352.20059,52.598587   L 353.20059,52.465257   L 372.93395,52.465257  z " clip-path="url(#clipWmfPath1)" style="fill:#ffffff;fill-rule:nonzero;fill-opacity:1;stroke:none;"/>
  <path id="path264" d="  M 353.20059,51.931938   L 353.20059,52.998576   L 372.86729,52.998576   L 373.73396,53.065241   L 374.40062,53.465231   L 374.86729,53.99855   L 375.00062,54.531869   L 375.00062,63.864951   L 374.86729,64.39827   L 374.46729,64.864924   L 373.80062,65.131584   L 372.86729,65.198249   L 353.26725,65.198249   L 352.33392,65.131584   L 351.73392,64.798259   L 351.26725,64.331605   L 351.13392,63.798286   L 351.13392,54.531869   L 351.26725,53.99855   L 351.73392,53.465231   L 352.40059,53.065241   L 353.26725,52.998576   L 372.86729,52.998576   L 373.86729,53.131906   L 374.00062,52.065268   L 373.00062,51.931938   L 353.13392,51.931938   L 352.00059,52.131933   L 351.06725,52.665252   L 350.33392,53.465231   L 350.06725,54.398539   L 350.06725,63.931616   L 350.33392,64.864924   L 351.06725,65.598238   L 352.06725,66.064892   L 353.13392,66.264887   L 373.00062,66.264887   L 374.06729,66.064892   L 375.00062,65.664903   L 375.80063,64.931589   L 376.06729,63.998281   L 376.06729,54.398539   L 375.80063,53.465231   L 375.06729,52.665252   L 374.13396,52.131933   L 373.00062,51.931938   L 353.20059,51.931938  z " clip-path="url(#clipWmfPath1)" style="fill:#000000;fill-rule:nonzero;fill-opacity:1;stroke:#000000;stroke-width:0.066666774px;stroke-linecap:round;stroke-linejoin:round;stroke-miterlimit:4;stroke-dasharray:none;stroke-opacity:1;"/>
  <g id="g266" clip-path="url(#clipWmfPath1)"/>
  <g id="g278" clip-path="url(#clipWmfPath1)">
    <text id="text276" y="0.000000" x="0.000000" transform="matrix(1.000000,-0.000000,0.000000,1.000000,353.000587,63.998281)" style="font-size:10.687500px;font-style:normal;font-variant:normal;font-weight:400;font-stretch:Condensed;line-height:125.000000%;letter-spacing:0px;word-spacing:0px;fill:#000000;fill-opacity:1;stroke:none;font-family:Helvetica-Narrow;text-align:start;text-anchor:start;" xml:space="preserve"><tspan id="tspan274" y="0.000000" x="0.000000"><tspan id="tspan268" style="fill:#000000;font-size:10.687500px;font-style:normal;font-variant:normal;font-weight:400;font-stretch:Condensed;font-family:Helvetica-Narrow;" dy="0.000000" dx="0.000000">R</tspan><tspan id="tspan270" style="fill:#000000;font-size:10.687500px;font-style:normal;font-variant:normal;font-weight:400;font-stretch:Condensed;font-family:Helvetica-Narrow;" dy="0.000000" dx="-0.050140">O</tspan><tspan id="tspan272" style="fill:#000000;font-size:10.687500px;font-style:normal;font-variant:normal;font-weight:400;font-stretch:Condensed;font-family:Helvetica-Narrow;" dy="0.000000" dx="-0.075098">M</tspan></tspan></text>
  </g>
  <path id="path280" d="  M 231.13372,28.599232   L 235.80039,28.599232   L 235.80039,52.598587   L 231.13372,52.598587   L 231.13372,28.599232  z " clip-path="url(#clipWmfPath1)" style="fill:#ffffff;fill-rule:nonzero;fill-opacity:1;stroke:none;"/>
  <path id="path282" d="  M 231.13372,28.599232   L 235.80039,28.599232   L 235.80039,52.598587   L 231.13372,52.598587   L 231.13372,28.599232  z " clip-path="url(#clipWmfPath1)" style="fill:none;stroke:#000000;stroke-width:0.066666774px;stroke-linecap:round;stroke-linejoin:round;stroke-miterlimit:4;stroke-dasharray:none;stroke-opacity:1;"/>
  <path id="path284" d="  M 232.00039,39.332277   L 234.73372,39.332277   L 234.73372,42.065537   L 232.00039,42.065537   L 232.00039,39.332277  z " clip-path="url(#clipWmfPath1)" style="fill:#000000;fill-rule:nonzero;fill-opacity:1;stroke:none;"/>
  <path id="path286" d="  M 232.00039,39.332277   L 234.73372,39.332277   L 234.73372,42.065537   L 232.00039,42.065537   L 232.00039,39.332277  z " clip-path="url(#clipWmfPath1)" style="fill:none;stroke:#000000;stroke-width:0.066666774px;stroke-linecap:round;stroke-linejoin:round;stroke-miterlimit:4;stroke-dasharray:none;stroke-opacity:1;"/>
  <path id="path288" d="  M 232.00039,43.932153   L 234.73372,43.932153   L 234.73372,46.665413   L 232.00039,46.665413   L 232.00039,43.932153  z " clip-path="url(#clipWmfPath1)" style="fill:#000000;fill-rule:nonzero;fill-opacity:1;stroke:none;"/>
  <path id="path290" d="  M 232.00039,43.932153   L 234.73372,43.932153   L 234.73372,46.665413   L 232.00039,46.665413   L 232.00039,43.932153  z " clip-path="url(#clipWmfPath1)" style="fill:none;stroke:#000000;stroke-width:0.066666774px;stroke-linecap:round;stroke-linejoin:round;stroke-miterlimit:4;stroke-dasharray:none;stroke-opacity:1;"/>
  <path id="path292" d="  M 232.00039,48.665359   L 234.73372,48.665359   L 234.73372,51.398619   L 232.00039,51.398619   L 232.00039,48.665359  z " clip-path="url(#clipWmfPath1)" style="fill:#000000;fill-rule:nonzero;fill-opacity:1;stroke:none;"/>
  <path id="path294" d="  M 232.00039,48.665359   L 234.73372,48.665359   L 234.73372,51.398619   L 232.00039,51.398619   L 232.00039,48.665359  z " clip-path="url(#clipWmfPath1)" style="fill:none;stroke:#000000;stroke-width:0.066666774px;stroke-linecap:round;stroke-linejoin:round;stroke-miterlimit:4;stroke-dasharray:none;stroke-opacity:1;"/>
  <path id="path296" d="  M 232.00039,30.065859   L 234.73372,30.065859   L 234.73372,32.799119   L 232.00039,32.799119   L 232.00039,30.065859  z " clip-path="url(#clipWmfPath1)" style="fill:#000000;fill-rule:nonzero;fill-opacity:1;stroke:none;"/>
  <path id="path298" d="  M 232.00039,30.065859   L 234.73372,30.065859   L 234.73372,32.799119   L 232.00039,32.799119   L 232.00039,30.065859  z " clip-path="url(#clipWmfPath1)" style="fill:none;stroke:#000000;stroke-width:0.066666774px;stroke-linecap:round;stroke-linejoin:round;stroke-miterlimit:4;stroke-dasharray:none;stroke-opacity:1;"/>
  <path id="path300" d="  M 232.00039,34.665736   L 234.73372,34.665736   L 234.73372,37.398995   L 232.00039,37.398995   L 232.00039,34.665736  z " clip-path="url(#clipWmfPath1)" style="fill:#000000;fill-rule:nonzero;fill-opacity:1;stroke:none;"/>
  <path id="path302" d="  M 232.00039,34.665736   L 234.73372,34.665736   L 234.73372,37.398995   L 232.00039,37.398995   L 232.00039,34.665736  z " clip-path="url(#clipWmfPath1)" style="fill:none;stroke:#000000;stroke-width:0.066666774px;stroke-linecap:round;stroke-linejoin:round;stroke-miterlimit:4;stroke-dasharray:none;stroke-opacity:1;"/>
  <path id="path304" d="  M 524.60087,52.131933   L 529.26755,52.131933   L 529.26755,66.664876   L 524.60087,66.664876   L 524.60087,52.131933  z " clip-path="url(#clipWmfPath1)" style="fill:#ffffff;fill-rule:nonzero;fill-opacity:1;stroke:none;"/>
  <path id="path306" d="  M 524.60087,52.131933   L 529.26755,52.131933   L 529.26755,66.664876   L 524.60087,66.664876   L 524.60087,52.131933  z " clip-path="url(#clipWmfPath1)" style="fill:none;stroke:#000000;stroke-width:0.066666774px;stroke-linecap:round;stroke-linejoin:round;stroke-miterlimit:4;stroke-dasharray:none;stroke-opacity:1;"/>
  <path id="path308" d="  M 525.46754,62.864978   L 528.20088,62.864978   L 528.20088,65.664903   L 525.46754,65.664903   L 525.46754,62.864978  z " clip-path="url(#clipWmfPath1)" style="fill:#000000;fill-rule:nonzero;fill-opacity:1;stroke:none;"/>
  <path id="path310" d="  M 525.46754,62.864978   L 528.20088,62.864978   L 528.20088,65.664903   L 525.46754,65.664903   L 525.46754,62.864978  z " clip-path="url(#clipWmfPath1)" style="fill:none;stroke:#000000;stroke-width:0.066666774px;stroke-linecap:round;stroke-linejoin:round;stroke-miterlimit:4;stroke-dasharray:none;stroke-opacity:1;"/>
  <path id="path312" d="  M 525.46754,53.59856   L 528.20088,53.59856   L 528.20088,56.33182   L 525.46754,56.33182   L 525.46754,53.59856  z " clip-path="url(#clipWmfPath1)" style="fill:#000000;fill-rule:nonzero;fill-opacity:1;stroke:none;"/>
  <path id="path314" d="  M 525.46754,53.59856   L 528.20088,53.59856   L 528.20088,56.33182   L 525.46754,56.33182   L 525.46754,53.59856  z " clip-path="url(#clipWmfPath1)" style="fill:none;stroke:#000000;stroke-width:0.066666774px;stroke-linecap:round;stroke-linejoin:round;stroke-miterlimit:4;stroke-dasharray:none;stroke-opacity:1;"/>
  <path id="path316" d="  M 525.46754,58.198437   L 528.20088,58.198437   L 528.20088,60.931697   L 525.46754,60.931697   L 525.46754,58.198437  z " clip-path="url(#clipWmfPath1)" style="fill:#000000;fill-rule:nonzero;fill-opacity:1;stroke:none;"/>
  <path id="path318" d="  M 525.46754,58.198437   L 528.20088,58.198437   L 528.20088,60.931697   L 525.46754,60.931697   L 525.46754,58.198437  z " clip-path="url(#clipWmfPath1)" style="fill:none;stroke:#000000;stroke-width:0.066666774px;stroke-linecap:round;stroke-linejoin:round;stroke-miterlimit:4;stroke-dasharray:none;stroke-opacity:1;"/>
  <path id="path320" d="  M 525.73421,42.665521   L 525.73421,37.998979   L 540.26757,37.998979   L 540.26757,42.665521   L 525.73421,42.665521  z " clip-path="url(#clipWmfPath1)" style="fill:#ffffff;fill-rule:nonzero;fill-opacity:1;stroke:none;"/>
  <path id="path322" d="  M 525.73421,42.665521   L 525.73421,37.998979   L 540.26757,37.998979   L 540.26757,42.665521   L 525.73421,42.665521  z " clip-path="url(#clipWmfPath1)" style="fill:none;stroke:#000000;stroke-width:0.066666774px;stroke-linecap:round;stroke-linejoin:round;stroke-miterlimit:4;stroke-dasharray:none;stroke-opacity:1;"/>
  <path id="path324" d="  M 536.46756,41.798877   L 536.46756,39.065617   L 539.26756,39.065617   L 539.26756,41.798877   L 536.46756,41.798877  z " clip-path="url(#clipWmfPath1)" style="fill:#000000;fill-rule:nonzero;fill-opacity:1;stroke:none;"/>
  <path id="path326" d="  M 536.46756,41.798877   L 536.46756,39.065617   L 539.26756,39.065617   L 539.26756,41.798877   L 536.46756,41.798877  z " clip-path="url(#clipWmfPath1)" style="fill:none;stroke:#000000;stroke-width:0.066666774px;stroke-linecap:round;stroke-linejoin:round;stroke-miterlimit:4;stroke-dasharray:none;stroke-opacity:1;"/>
  <path id="path328" d="  M 527.20088,41.798877   L 527.20088,39.065617   L 529.93421,39.065617   L 529.93421,41.798877   L 527.20088,41.798877  z " clip-path="url(#clipWmfPath1)" style="fill:#000000;fill-rule:nonzero;fill-opacity:1;stroke:none;"/>
  <path id="path330" d="  M 527.20088,41.798877   L 527.20088,39.065617   L 529.93421,39.065617   L 529.93421,41.798877   L 527.20088,41.798877  z " clip-path="url(#clipWmfPath1)" style="fill:none;stroke:#000000;stroke-width:0.066666774px;stroke-linecap:round;stroke-linejoin:round;stroke-miterlimit:4;stroke-dasharray:none;stroke-opacity:1;"/>
  <path id="path332" d="  M 531.80088,41.798877   L 531.80088,39.065617   L 534.53422,39.065617   L 534.53422,41.798877   L 531.80088,41.798877  z " clip-path="url(#clipWmfPath1)" style="fill:#000000;fill-rule:nonzero;fill-opacity:1;stroke:none;"/>
  <path id="path334" d="  M 531.80088,41.798877   L 531.80088,39.065617   L 534.53422,39.065617   L 534.53422,41.798877   L 531.80088,41.798877  z " clip-path="url(#clipWmfPath1)" style="fill:none;stroke:#000000;stroke-width:0.066666774px;stroke-linecap:round;stroke-linejoin:round;stroke-miterlimit:4;stroke-dasharray:none;stroke-opacity:1;"/>
  <path id="path336" d="  M 218.86703,41.798877   L 218.86703,44.598802   L 218.7337,45.332116   L 218.3337,45.865435   L 217.66703,46.198759   L 216.93369,46.332089   L 189.06698,46.332089   L 188.33365,46.065429   L 187.73365,45.465445   L 187.26698,44.665467   L 187.13364,43.798824   L 187.13364,34.332411   L 187.26698,33.665762   L 187.73365,33.332438   L 188.33365,33.199108   L 189.06698,33.132443   L 216.93369,33.132443   L 217.66703,33.332438   L 218.3337,33.799092   L 218.7337,34.399076   L 218.86703,35.199055   L 218.86703,37.73232   L 230.93372,39.732266   L 218.86703,41.798877  z " clip-path="url(#clipWmfPath1)" style="fill:#ffffff;fill-rule:nonzero;fill-opacity:1;stroke:none;"/>
  <path id="path338" d="  M 231.00038,40.19892   L 231.46705,39.665601   L 230.86705,39.265612   L 218.3337,41.398888   L 218.3337,44.532137   L 218.26703,45.132121   L 218.00036,45.465445   L 217.5337,45.732105   L 216.86703,45.79877   L 189.13365,45.79877   L 188.60031,45.598775   L 188.13365,45.132121   L 187.73365,44.465472   L 187.66698,43.732159   L 187.66698,34.399076   L 187.73365,33.932422   L 187.93365,33.799092   L 188.40031,33.732427   L 189.06698,33.665762   L 216.86703,33.665762   L 217.46703,33.799092   L 217.9337,34.132417   L 218.26703,34.599071   L 218.3337,35.265719   L 218.3337,38.132309   L 227.86705,39.732266   L 218.3337,41.398888   L 218.3337,44.598802   L 218.86703,45.132121   L 219.40037,44.598802   L 219.40037,42.198867   L 231.00038,40.19892   L 231.00038,39.265612   L 219.40037,37.332331   L 219.40037,35.13239   L 219.20036,34.199081   L 218.7337,33.465768   L 217.86703,32.865784   L 217.00036,32.599124   L 189.06698,32.599124   L 188.26698,32.665789   L 187.53365,32.865784   L 186.80031,33.399103   L 186.60031,34.265746   L 186.60031,43.865488   L 186.80031,44.865462   L 187.33364,45.79877   L 188.06698,46.532083   L 189.00031,46.865408   L 217.00036,46.865408   L 217.80036,46.665413   L 218.66703,46.265424   L 219.20036,45.53211   L 219.40037,44.665467   L 219.40037,42.198867   L 231.00038,40.19892  z " clip-path="url(#clipWmfPath1)" style="fill:#000000;fill-rule:nonzero;fill-opacity:1;stroke:#000000;stroke-width:0.066666774px;stroke-linecap:round;stroke-linejoin:round;stroke-miterlimit:4;stroke-dasharray:none;stroke-opacity:1;"/>
  <path id="path340" d="  M 553.46759,38.198974   L 553.46759,35.399049   L 553.60092,34.665736   L 554.06759,34.132417   L 554.66759,33.799092   L 555.40092,33.665762   L 583.26764,33.665762   L 584.00097,33.932422   L 584.66764,34.532406   L 585.06764,35.332384   L 585.20097,36.199028   L 585.20097,45.66544   L 585.06764,46.332089   L 584.66764,46.665413   L 583.26764,46.865408   L 555.40092,46.865408   L 554.66759,46.665413   L 554.06759,46.265424   L 553.60092,45.598775   L 553.46759,44.798797   L 553.46759,42.265531   L 541.4009,40.265585   L 553.46759,38.198974  z " clip-path="url(#clipWmfPath1)" style="fill:#ffffff;fill-rule:nonzero;fill-opacity:1;stroke:none;"/>
  <path id="path342" d="  M 541.33423,39.798931   L 540.86757,40.33225   L 541.46757,40.732239   L 554.00092,38.598963   L 554.00092,35.465714   L 554.06759,34.86573   L 554.40092,34.532406   L 554.86759,34.265746   L 555.46759,34.199081   L 583.20097,34.199081   L 583.7343,34.399076   L 584.26764,34.86573   L 584.60097,35.465714   L 584.66764,36.265693   L 584.66764,45.598775   L 584.60097,46.065429   L 584.46764,46.198759   L 583.20097,46.332089   L 555.46759,46.332089   L 554.86759,46.198759   L 554.40092,45.865435   L 554.06759,45.398781   L 554.00092,44.732132   L 554.00092,41.865542   L 544.46757,40.265585   L 554.00092,38.598963   L 554.00092,35.399049   L 553.46759,34.86573   L 552.93425,35.399049   L 552.93425,37.798985   L 541.33423,39.798931   L 541.33423,40.732239   L 552.93425,42.665521   L 552.93425,44.865462   L 553.13425,45.79877   L 553.73425,46.665413   L 554.46759,47.132067   L 555.33426,47.398727   L 583.3343,47.398727   L 584.86764,47.132067   L 585.53431,46.598748   L 585.73431,45.732105   L 585.73431,36.132363   L 585.53431,35.199055   L 585.06764,34.199081   L 584.26764,33.465768   L 583.3343,33.132443   L 555.33426,33.132443   L 554.46759,33.332438   L 553.73425,33.732427   L 553.13425,34.465741   L 552.93425,35.332384   L 552.93425,37.798985   L 541.33423,39.798931  z " clip-path="url(#clipWmfPath1)" style="fill:#000000;fill-rule:nonzero;fill-opacity:1;stroke:#000000;stroke-width:0.066666774px;stroke-linecap:round;stroke-linejoin:round;stroke-miterlimit:4;stroke-dasharray:none;stroke-opacity:1;"/>
  <path id="path344" d="  M 542.0009,56.33182   L 542.0009,53.531895   L 542.13424,52.798582   L 542.6009,52.265263   L 543.2009,51.931938   L 543.93424,51.798609   L 571.80095,51.798609   L 572.53429,52.065268   L 573.20095,52.665252   L 573.60095,53.465231   L 573.73429,54.331874   L 573.73429,63.798286   L 573.60095,64.464935   L 573.20095,64.798259   L 571.80095,64.998254   L 543.93424,64.998254   L 543.2009,64.798259   L 542.6009,64.39827   L 542.13424,63.731621   L 542.0009,62.931643   L 542.0009,60.398378   L 529.93421,58.398431   L 542.0009,56.33182  z " clip-path="url(#clipWmfPath1)" style="fill:#ffffff;fill-rule:nonzero;fill-opacity:1;stroke:none;"/>
  <path id="path346" d="  M 529.86755,57.931777   L 529.40088,58.465096   L 530.00088,58.865086   L 542.53424,56.731809   L 542.53424,53.59856   L 542.6009,52.998576   L 542.93424,52.665252   L 543.4009,52.398593   L 544.00091,52.331928   L 571.73428,52.331928   L 572.26762,52.531922   L 572.80095,52.998576   L 573.13429,53.59856   L 573.20095,54.398539   L 573.20095,63.731621   L 573.13429,64.198276   L 573.00095,64.331605   L 571.73428,64.464935   L 544.00091,64.464935   L 543.4009,64.331605   L 542.93424,63.998281   L 542.6009,63.531627   L 542.53424,62.864978   L 542.53424,59.998388   L 533.00089,58.398431   L 542.53424,56.731809   L 542.53424,53.531895   L 542.0009,52.998576   L 541.46757,53.531895   L 541.46757,55.931831   L 529.86755,57.931777   L 529.86755,58.865086   L 541.46757,60.798367   L 541.46757,62.998308   L 541.66757,63.931616   L 542.26757,64.798259   L 543.0009,65.264914   L 543.86757,65.531573   L 571.86762,65.531573   L 573.40095,65.264914   L 574.06762,64.731595   L 574.26762,63.864951   L 574.26762,54.265209   L 574.06762,53.331901   L 573.60095,52.331928   L 572.80095,51.598614   L 571.86762,51.26529   L 543.86757,51.26529   L 543.0009,51.465284   L 542.26757,51.865274   L 541.66757,52.598587   L 541.46757,53.465231   L 541.46757,55.931831   L 529.86755,57.931777  z " clip-path="url(#clipWmfPath1)" style="fill:#000000;fill-rule:nonzero;fill-opacity:1;stroke:#000000;stroke-width:0.066666774px;stroke-linecap:round;stroke-linejoin:round;stroke-miterlimit:4;stroke-dasharray:none;stroke-opacity:1;"/>
  <g id="g348" clip-path="url(#clipWmfPath1)"/>
  <g id="g362" clip-path="url(#clipWmfPath1)">
    <text id="text360" y="0.000000" x="0.000000" transform="matrix(1.000000,-0.000000,0.000000,1.000000,191.400318,43.932153)" style="font-size:10.687500px;font-style:normal;font-variant:normal;font-weight:400;font-stretch:Condensed;line-height:125.000000%;letter-spacing:0px;word-spacing:0px;fill:#000000;fill-opacity:1;stroke:none;font-family:Helvetica-Narrow;text-align:start;text-anchor:start;" xml:space="preserve"><tspan id="tspan358" y="0.000000" x="0.000000"><tspan id="tspan350" style="fill:#000000;font-size:10.687500px;font-style:normal;font-variant:normal;font-weight:400;font-stretch:Condensed;font-family:Helvetica-Narrow;" dy="0.000000" dx="0.000000">J</tspan><tspan id="tspan352" style="fill:#000000;font-size:10.687500px;font-style:normal;font-variant:normal;font-weight:400;font-stretch:Condensed;font-family:Helvetica-Narrow;" dy="0.000000" dx="0.028315">2</tspan><tspan id="tspan354" style="fill:#000000;font-size:10.687500px;font-style:normal;font-variant:normal;font-weight:400;font-stretch:Condensed;font-family:Helvetica-Narrow;" dy="0.000000" dx="0.003357">0</tspan><tspan id="tspan356" style="fill:#000000;font-size:10.687500px;font-style:normal;font-variant:normal;font-weight:400;font-stretch:Condensed;font-family:Helvetica-Narrow;" dy="0.000000" dx="0.003357">1</tspan></tspan></text>
  </g>
  <g id="g364" clip-path="url(#clipWmfPath1)"/>
  <g id="g378" clip-path="url(#clipWmfPath1)">
    <text id="text376" y="0.000000" x="0.000000" transform="matrix(1.000000,-0.000000,0.000000,1.000000,557.734261,43.865488)" style="font-size:10.687500px;font-style:normal;font-variant:normal;font-weight:400;font-stretch:Condensed;line-height:125.000000%;letter-spacing:0px;word-spacing:0px;fill:#000000;fill-opacity:1;stroke:none;font-family:Helvetica-Narrow;text-align:start;text-anchor:start;" xml:space="preserve"><tspan id="tspan374" y="0.000000" x="0.000000"><tspan id="tspan366" style="fill:#000000;font-size:10.687500px;font-style:normal;font-variant:normal;font-weight:400;font-stretch:Condensed;font-family:Helvetica-Narrow;" dy="0.000000" dx="0.000000">J</tspan><tspan id="tspan368" style="fill:#000000;font-size:10.687500px;font-style:normal;font-variant:normal;font-weight:400;font-stretch:Condensed;font-family:Helvetica-Narrow;" dy="0.000000" dx="0.028315">2</tspan><tspan id="tspan370" style="fill:#000000;font-size:10.687500px;font-style:normal;font-variant:normal;font-weight:400;font-stretch:Condensed;font-family:Helvetica-Narrow;" dy="0.000000" dx="0.003357">0</tspan><tspan id="tspan372" style="fill:#000000;font-size:10.687500px;font-style:normal;font-variant:normal;font-weight:400;font-stretch:Condensed;font-family:Helvetica-Narrow;" dy="0.000000" dx="0.003357">3</tspan></tspan></text>
  </g>
  <g id="g380" clip-path="url(#clipWmfPath1)"/>
  <g id="g394" clip-path="url(#clipWmfPath1)">
    <text id="text392" y="0.000000" x="0.000000" transform="matrix(1.000000,-0.000000,0.000000,1.000000,546.734243,62.531654)" style="font-size:10.687500px;font-style:normal;font-variant:normal;font-weight:400;font-stretch:Condensed;line-height:125.000000%;letter-spacing:0px;word-spacing:0px;fill:#000000;fill-opacity:1;stroke:none;font-family:Helvetica-Narrow;text-align:start;text-anchor:start;" xml:space="preserve"><tspan id="tspan390" y="0.000000" x="0.000000"><tspan id="tspan382" style="fill:#000000;font-size:10.687500px;font-style:normal;font-variant:normal;font-weight:400;font-stretch:Condensed;font-family:Helvetica-Narrow;" dy="0.000000" dx="0.000000">J</tspan><tspan id="tspan384" style="fill:#000000;font-size:10.687500px;font-style:normal;font-variant:normal;font-weight:400;font-stretch:Condensed;font-family:Helvetica-Narrow;" dy="0.000000" dx="0.028315">2</tspan><tspan id="tspan386" style="fill:#000000;font-size:10.687500px;font-style:normal;font-variant:normal;font-weight:400;font-stretch:Condensed;font-family:Helvetica-Narrow;" dy="0.000000" dx="0.003357">0</tspan><tspan id="tspan388" style="fill:#000000;font-size:10.687500px;font-style:normal;font-variant:normal;font-weight:400;font-stretch:Condensed;font-family:Helvetica-Narrow;" dy="0.000000" dx="0.003357">4</tspan></tspan></text>
  </g>
</svg>