<svg xmlns:inkscape="http://www.inkscape.org/namespaces/inkscape" xmlns:sodipodi="http://sodipodi.sourceforge.net/DTD/sodipodi-0.dtd" xmlns="http://www.w3.org/2000/svg" xmlns:svg="http://www.w3.org/2000/svg" xmlns:rdf="http://www.w3.org/1999/02/22-rdf-syntax-ns#" xmlns:cc="http://creativecommons.org/ns#" xmlns:dc="http://purl.org/dc/elements/1.1/" id="svg346" height="84.960003mm" width="73.049998mm" version="1.0" sodipodi:docname="34224.svg" inkscape:version="1.1.1 (3bf5ae0d25, 2021-09-20)">
  <sodipodi:namedview id="namedview162" pagecolor="#ffffff" bordercolor="#666666" borderopacity="1.0" inkscape:pageshadow="2" inkscape:pageopacity="0.0" inkscape:pagecheckerboard="0" inkscape:document-units="mm" showgrid="false" inkscape:zoom="2.591023" inkscape:cx="138.16936" inkscape:cy="160.55434" inkscape:window-width="1920" inkscape:window-height="1017" inkscape:window-x="1672" inkscape:window-y="-8" inkscape:window-maximized="0" inkscape:current-layer="svg346"/>
  <metadata id="metadata350">
    <rdf:RDF>
      <cc:Work rdf:about="">
        <dc:format>image/svg+xml</dc:format>
        <dc:type rdf:resource="http://purl.org/dc/dcmitype/StillImage"/>
      </cc:Work>
    </rdf:RDF>
  </metadata>
  <defs id="defs6">
    <clipPath id="clipWmfPath1" clipPathUnits="userSpaceOnUse">
      <path id="path2" d="M 0,0 L 275.99003,0 L 275.99003,321.0042 L 0,321.0042 z"/>
    </clipPath>
    <pattern y="0" x="0" height="6" width="6" patternUnits="userSpaceOnUse" id="WMFhbasepattern"/>
  </defs>
  <path id="path8" d="M 55.997977,296.00387 V 29.000379 H 240.72464 V 296.00387 Z" clip-path="url(#clipWmfPath1)" style="fill:#e5e5e5;fill-opacity:1;fill-rule:nonzero;stroke:none" transform="rotate(180,138.395,169.59977)"/>
  <path id="path10" d="m 240.72464,296.20387 v -0.4 H 56.19797 V 29.200382 H 240.52464 V 295.80387 H 56.19797 V 29.000379 H 55.797984 V 296.20387 H 240.92463 V 28.800377 H 55.797984 V 296.20387 Z" clip-path="url(#clipWmfPath1)" style="fill:#000000;fill-opacity:1;fill-rule:nonzero;stroke:#000000;stroke-width:0.0666643px;stroke-linecap:round;stroke-linejoin:round;stroke-miterlimit:4;stroke-dasharray:none;stroke-opacity:1" transform="rotate(180,138.395,169.59977)"/>
  <path id="path38" d="m 219.45874,110.20144 0.99996,0.33334 0.66664,1.13335 0.33333,1.33335 -0.26666,1.46668 -0.33332,0.66668 -0.39999,0.4 -0.99996,0.40001 -0.9333,-0.40001 -0.79997,-1.06668 -0.2,-1.46668 0.26666,-1.33335 0.73331,-1.13335 z m 0,0.2 -0.39999,0.13334 -0.46665,0.4 -0.66664,0.80001 -0.19999,1.26669 0.19999,1.46668 0.66664,0.86668 0.86664,0.40001 0.86663,-0.40001 0.73331,-0.86668 0.19999,-1.46668 -0.19999,-1.26669 -0.33332,-0.46667 -0.39999,-0.33334 -0.39998,-0.4 z m -0.99997,0.86668 h 0.99997 l 0.66664,0.26667 0.19999,0.73335 -0.13333,0.6 -0.53331,0.20001 0.59998,1.20001 0.19999,0.33334 h 0.13333 v 0.26667 h -0.46665 l -0.86664,-1.80002 h -0.0667 v 1.40001 l 0.0667,0.13334 h 0.26666 v 0.26667 h -1.19995 v -0.26667 h 0.19999 l 0.0667,-0.13334 0.0667,-0.33333 v -2.20003 l -0.0667,-0.26667 v -0.26667 h -0.13333 z m 0.73331,1.66669 h 0.33332 l 0.19999,-0.33334 0.0667,-0.33333 -0.13333,-0.60001 -0.0667,-0.20001 -0.26666,-0.0667 h -0.13333 z" clip-path="url(#clipWmfPath1)" style="fill:#bfbfbf;fill-opacity:1;fill-rule:evenodd;stroke:none" transform="rotate(180,138.395,169.59977)"/>
  <path id="path40" d="m 247.19107,146.00191 h -14.19949 v -4.20006 h 14.19949 z" clip-path="url(#clipWmfPath1)" style="fill:#b2b2b2;fill-opacity:1;fill-rule:nonzero;stroke:none" transform="rotate(180,138.395,169.59977)"/>
  <path id="path42" d="m 247.19107,146.00191 h -14.19949 v -4.20006 h 14.19949 z" clip-path="url(#clipWmfPath1)" style="fill:none;stroke:#000000;stroke-width:0.0666643px;stroke-linecap:round;stroke-linejoin:round;stroke-miterlimit:4;stroke-dasharray:none;stroke-opacity:1" transform="rotate(180,138.395,169.59977)"/>
  <path id="path44" d="m 247.19107,227.80298 h -14.19949 v -4.13339 h 14.19949 z" clip-path="url(#clipWmfPath1)" style="fill:#b2b2b2;fill-opacity:1;fill-rule:nonzero;stroke:none" transform="rotate(180,138.395,169.59977)"/>
  <path id="path46" d="m 247.19107,227.80298 h -14.19949 v -4.13339 h 14.19949 z" clip-path="url(#clipWmfPath1)" style="fill:none;stroke:#000000;stroke-width:0.0666643px;stroke-linecap:round;stroke-linejoin:round;stroke-miterlimit:4;stroke-dasharray:none;stroke-opacity:1" transform="rotate(180,138.395,169.59977)"/>
  <path id="path48" d="m 240.72464,229.203 h -3.99986 v -8.00011 h -19.46596 v -72.26761 h 19.3993 v -8.66678 h 4.06652 z" clip-path="url(#clipWmfPath1)" style="fill:#666666;fill-opacity:1;fill-rule:nonzero;stroke:none" transform="rotate(180,138.395,169.59977)"/>
  <path id="path50" d="m 240.72464,229.203 h -3.99986 v -8.00011 h -19.46596 v -72.26761 h 19.3993 v -8.66678 h 4.06652 z" clip-path="url(#clipWmfPath1)" style="fill:none;stroke:#000000;stroke-width:0.0666643px;stroke-linecap:round;stroke-linejoin:round;stroke-miterlimit:4;stroke-dasharray:none;stroke-opacity:1" transform="rotate(180,138.395,169.59977)"/>
  <path id="path54" d="m 238.99137,140.33517 h 1.93326 v 8.40011 h 9.26633 l 1.06663,0.4 0.53331,1.00002 v 69.33424 l -0.53331,1.06668 -0.99996,0.4 h -9.79965 v 8.06678 h -1.46661 z" clip-path="url(#clipWmfPath1)" style="fill:none;stroke:#000000;stroke-width:0.0666643px;stroke-linecap:round;stroke-linejoin:round;stroke-miterlimit:4;stroke-dasharray:none;stroke-opacity:1" transform="rotate(180,138.395,169.59977)"/>
  <path id="path56" d="M 240.72464,140.2685 V 229.203" clip-path="url(#clipWmfPath1)" style="fill:none;stroke:#000000;stroke-width:0.0666643px;stroke-linecap:round;stroke-linejoin:round;stroke-miterlimit:4;stroke-dasharray:none;stroke-opacity:1" transform="rotate(180,138.395,169.59977)"/>
  <path id="path58" d="m 244.39117,178.069 0.99996,0.13333 0.79998,0.46667 0.59997,0.66668 0.2,0.73334 v 9.46679 l -0.2,0.73335 -0.59997,0.6 -0.79998,0.33334 -0.99996,0.13334 h -19.73262 l -0.99996,-0.13334 -0.79998,-0.4 -0.59997,-0.60001 -0.2,-0.73335 v -9.40012 l 0.2,-0.73334 0.59997,-0.66668 0.79998,-0.46667 0.99996,-0.13333 z" clip-path="url(#clipWmfPath1)" style="fill:#ffffff;fill-opacity:1;fill-rule:nonzero;stroke:none" transform="rotate(180,138.395,169.59977)"/>
  <path id="path60" d="m 224.65855,177.53566 v 1.06668 h 19.66596 l 0.86663,0.0667 0.66664,0.40001 0.46665,0.53334 0.13333,0.53334 v 9.33345 l -0.13333,0.53335 -0.39998,0.46667 -0.66664,0.26667 -0.9333,0.0667 h -19.5993 l -0.9333,-0.0667 -0.59997,-0.33334 -0.46665,-0.46667 -0.13333,-0.53334 v -9.26679 l 0.13333,-0.53334 0.46665,-0.53334 0.66664,-0.40001 0.86663,-0.0667 h 19.5993 l 0.99996,0.13333 0.13333,-1.06668 -0.99997,-0.13333 h -19.86594 l -1.1333,0.2 -0.9333,0.53334 -0.7333,0.80001 -0.26666,0.93334 v 9.53346 l 0.26666,0.93335 0.7333,0.73334 0.99997,0.46667 1.06663,0.20001 h 19.86594 l 1.06663,-0.20001 0.9333,-0.4 0.79997,-0.73334 0.26666,-0.93335 v -9.60013 l -0.26666,-0.93334 -0.7333,-0.80001 -0.9333,-0.53334 -1.1333,-0.2 z" clip-path="url(#clipWmfPath1)" style="fill:#000000;fill-opacity:1;fill-rule:nonzero;stroke:#000000;stroke-width:0.0666643px;stroke-linecap:round;stroke-linejoin:round;stroke-miterlimit:4;stroke-dasharray:none;stroke-opacity:1" transform="rotate(180,138.395,169.59977)"/>
  <path id="path62" d="m 247.79105,75.000981 h -14.19949 v -4.200055 h 14.19949 z" clip-path="url(#clipWmfPath1)" style="fill:#b2b2b2;fill-opacity:1;fill-rule:nonzero;stroke:none" transform="rotate(180,138.395,169.59977)"/>
  <path id="path64" d="m 247.79105,75.000981 h -14.19949 v -4.200055 h 14.19949 z" clip-path="url(#clipWmfPath1)" style="fill:none;stroke:#000000;stroke-width:0.0666643px;stroke-linecap:round;stroke-linejoin:round;stroke-miterlimit:4;stroke-dasharray:none;stroke-opacity:1" transform="rotate(180,138.395,169.59977)"/>
  <path id="path66" d="m 247.79105,118.20155 h -14.19949 v -4.13339 h 14.19949 z" clip-path="url(#clipWmfPath1)" style="fill:#b2b2b2;fill-opacity:1;fill-rule:nonzero;stroke:none" transform="rotate(180,138.395,169.59977)"/>
  <path id="path68" d="m 247.79105,118.20155 h -14.19949 v -4.13339 h 14.19949 z" clip-path="url(#clipWmfPath1)" style="fill:none;stroke:#000000;stroke-width:0.0666643px;stroke-linecap:round;stroke-linejoin:round;stroke-miterlimit:4;stroke-dasharray:none;stroke-opacity:1" transform="rotate(180,138.395,169.59977)"/>
  <path id="path72" d="m 238.45805,75.000981 h -2.13325 v -1.733356 h 1.93326 v -1.266683 h 1.26662 v 5.466738 h 11.46625 l 1.39995,0.26667 0.53332,0.26667 0.19999,0.26667 v 31.53375 l -0.66664,0.73334 -1.26663,0.26667 h -12.06623 v 5.3334 h -0.59997 v -1.33335 h -2.39992 v -1.80002 h 2.39992 z" clip-path="url(#clipWmfPath1)" style="fill:none;stroke:#000000;stroke-width:0.0666643px;stroke-linecap:round;stroke-linejoin:round;stroke-miterlimit:4;stroke-dasharray:none;stroke-opacity:1" transform="rotate(180,138.395,169.59977)"/>
  <path id="path74" d="m 239.92467,121.53492 h -4.59984 V 111.9348 H 213.05897 V 76.867672 h 22.33253 l 0.0667,-8.533445 h 4.46651 z" clip-path="url(#clipWmfPath1)" style="fill:#666666;fill-opacity:1;fill-rule:nonzero;stroke:none" transform="rotate(180,138.395,169.59977)"/>
  <path id="path76" d="m 239.92467,121.53492 h -4.59984 V 111.9348 H 213.05897 V 76.867672 h 22.33253 l 0.0667,-8.533445 h 4.46651 z" clip-path="url(#clipWmfPath1)" style="fill:none;stroke:#000000;stroke-width:0.0666643px;stroke-linecap:round;stroke-linejoin:round;stroke-miterlimit:4;stroke-dasharray:none;stroke-opacity:1" transform="rotate(180,138.395,169.59977)"/>
  <path id="path78" d="M 238.85804,121.40159 V 68.400895 h 0.86663 v 53.000695 z" clip-path="url(#clipWmfPath1)" style="fill:#cccccc;fill-opacity:1;fill-rule:evenodd;stroke:none" transform="rotate(180,138.395,169.59977)"/>
  <path id="path80" d="M 238.85804,121.40159 V 68.400895 h 0.86663 v 53.000695 z" clip-path="url(#clipWmfPath1)" style="fill:none;stroke:#000000;stroke-width:0.0666643px;stroke-linecap:round;stroke-linejoin:round;stroke-miterlimit:4;stroke-dasharray:none;stroke-opacity:1" transform="rotate(180,138.395,169.59977)"/>
  <path id="path82" d="m 242.99122,88.267821 0.99996,0.133335 0.79998,0.466673 0.59997,0.666675 0.2,0.733343 v 9.466791 l -0.2,0.733342 -0.59997,0.60001 -0.79998,0.33334 -0.99996,0.13333 H 223.2586 l -0.99996,-0.13333 -0.79997,-0.40001 -0.59998,-0.60001 -0.2,-0.73334 v -9.400123 l 0.2,-0.733343 0.59998,-0.666675 0.79997,-0.466673 0.99996,-0.133335 z" clip-path="url(#clipWmfPath1)" style="fill:#ffffff;fill-opacity:1;fill-rule:nonzero;stroke:none" transform="rotate(180,138.395,169.59977)"/>
  <path id="path84" d="m 223.2586,87.734481 v 1.06668 h 19.66596 l 0.86663,0.06667 0.66664,0.400005 0.46665,0.533341 0.13333,0.53334 v 9.333455 l -0.13333,0.533338 -0.39998,0.46667 -0.66664,0.26667 -0.9333,0.0667 h -19.5993 l -0.93329,-0.0667 -0.59998,-0.33333 -0.46665,-0.46668 -0.13333,-0.533335 v -9.266788 l 0.13333,-0.53334 0.46665,-0.533341 0.66664,-0.400005 0.86663,-0.06667 h 19.5993 l 0.99996,0.133336 0.13333,-1.066681 -0.99996,-0.133335 h -19.86595 l -1.1333,0.200002 -0.9333,0.533341 -0.7333,0.80001 -0.26666,0.933346 v 9.533458 l 0.26666,0.933342 0.7333,0.73335 0.99997,0.46667 1.06663,0.2 h 19.86595 l 1.06662,-0.2 0.9333,-0.40001 0.79997,-0.73334 0.26666,-0.933345 V 90.20118 l -0.26666,-0.933346 -0.7333,-0.80001 -0.9333,-0.533341 -1.13329,-0.200002 z" clip-path="url(#clipWmfPath1)" style="fill:#000000;fill-opacity:1;fill-rule:nonzero;stroke:#000000;stroke-width:0.0666643px;stroke-linecap:round;stroke-linejoin:round;stroke-miterlimit:4;stroke-dasharray:none;stroke-opacity:1" transform="rotate(180,138.395,169.59977)"/>
  <path id="path86" d="m 196.92622,217.33618 h -9.93298 v -68.33423 h 9.93298 z" clip-path="url(#clipWmfPath1)" style="fill:#ffffff;fill-opacity:1;fill-rule:nonzero;stroke:none" transform="rotate(180,138.395,169.59977)"/>
  <path id="path88" d="m 196.92622,217.33618 h -9.93298 v -68.33423 h 9.93298 z" clip-path="url(#clipWmfPath1)" style="fill:none;stroke:#000000;stroke-width:0.0666643px;stroke-linecap:round;stroke-linejoin:round;stroke-miterlimit:4;stroke-dasharray:none;stroke-opacity:1" transform="rotate(180,138.395,169.59977)"/>
  <path id="path90" d="m 190.92644,199.86928 h -2.73324 v -2.73337 h 2.73324 z" clip-path="url(#clipWmfPath1)" style="fill:#000000;fill-opacity:1;fill-rule:nonzero;stroke:none" transform="rotate(180,138.395,169.59977)"/>
  <path id="path92" d="m 190.92644,199.86928 h -2.73324 v -2.73337 h 2.73324 z" clip-path="url(#clipWmfPath1)" style="fill:none;stroke:#000000;stroke-width:0.0666643px;stroke-linecap:round;stroke-linejoin:round;stroke-miterlimit:4;stroke-dasharray:none;stroke-opacity:1" transform="rotate(180,138.395,169.59977)"/>
  <path id="path94" d="m 190.92644,195.26922 h -2.73324 v -2.73337 h 2.73324 z" clip-path="url(#clipWmfPath1)" style="fill:#000000;fill-opacity:1;fill-rule:nonzero;stroke:none" transform="rotate(180,138.395,169.59977)"/>
  <path id="path96" d="m 190.92644,195.26922 h -2.73324 v -2.73337 h 2.73324 z" clip-path="url(#clipWmfPath1)" style="fill:none;stroke:#000000;stroke-width:0.0666643px;stroke-linecap:round;stroke-linejoin:round;stroke-miterlimit:4;stroke-dasharray:none;stroke-opacity:1" transform="rotate(180,138.395,169.59977)"/>
  <path id="path98" d="m 190.92644,209.13607 h -2.73324 v -2.73337 h 2.73324 z" clip-path="url(#clipWmfPath1)" style="fill:#000000;fill-opacity:1;fill-rule:nonzero;stroke:none" transform="rotate(180,138.395,169.59977)"/>
  <path id="path100" d="m 190.92644,209.13607 h -2.73324 v -2.73337 h 2.73324 z" clip-path="url(#clipWmfPath1)" style="fill:none;stroke:#000000;stroke-width:0.0666643px;stroke-linecap:round;stroke-linejoin:round;stroke-miterlimit:4;stroke-dasharray:none;stroke-opacity:1" transform="rotate(180,138.395,169.59977)"/>
  <path id="path102" d="m 190.92644,204.53601 h -2.73324 v -2.73337 h 2.73324 z" clip-path="url(#clipWmfPath1)" style="fill:#000000;fill-opacity:1;fill-rule:nonzero;stroke:none" transform="rotate(180,138.395,169.59977)"/>
  <path id="path104" d="m 190.92644,204.53601 h -2.73324 v -2.73337 h 2.73324 z" clip-path="url(#clipWmfPath1)" style="fill:none;stroke:#000000;stroke-width:0.0666643px;stroke-linecap:round;stroke-linejoin:round;stroke-miterlimit:4;stroke-dasharray:none;stroke-opacity:1" transform="rotate(180,138.395,169.59977)"/>
  <path id="path106" d="m 195.59293,199.86928 h -2.73323 v -2.73337 h 2.73323 z" clip-path="url(#clipWmfPath1)" style="fill:#000000;fill-opacity:1;fill-rule:nonzero;stroke:none" transform="rotate(180,138.395,169.59977)"/>
  <path id="path108" d="m 195.59293,199.86928 h -2.73323 v -2.73337 h 2.73323 z" clip-path="url(#clipWmfPath1)" style="fill:none;stroke:#000000;stroke-width:0.0666643px;stroke-linecap:round;stroke-linejoin:round;stroke-miterlimit:4;stroke-dasharray:none;stroke-opacity:1" transform="rotate(180,138.395,169.59977)"/>
  <path id="path110" d="m 195.59293,195.26922 h -2.73323 v -2.73337 h 2.73323 z" clip-path="url(#clipWmfPath1)" style="fill:#000000;fill-opacity:1;fill-rule:nonzero;stroke:none" transform="rotate(180,138.395,169.59977)"/>
  <path id="path112" d="m 195.59293,195.26922 h -2.73323 v -2.73337 h 2.73323 z" clip-path="url(#clipWmfPath1)" style="fill:none;stroke:#000000;stroke-width:0.0666643px;stroke-linecap:round;stroke-linejoin:round;stroke-miterlimit:4;stroke-dasharray:none;stroke-opacity:1" transform="rotate(180,138.395,169.59977)"/>
  <path id="path114" d="m 195.59293,209.13607 h -2.73323 v -2.73337 h 2.73323 z" clip-path="url(#clipWmfPath1)" style="fill:#000000;fill-opacity:1;fill-rule:nonzero;stroke:none" transform="rotate(180,138.395,169.59977)"/>
  <path id="path116" d="m 195.59293,209.13607 h -2.73323 v -2.73337 h 2.73323 z" clip-path="url(#clipWmfPath1)" style="fill:none;stroke:#000000;stroke-width:0.0666643px;stroke-linecap:round;stroke-linejoin:round;stroke-miterlimit:4;stroke-dasharray:none;stroke-opacity:1" transform="rotate(180,138.395,169.59977)"/>
  <path id="path118" d="m 195.59293,204.53601 h -2.73323 v -2.73337 h 2.73323 z" clip-path="url(#clipWmfPath1)" style="fill:#000000;fill-opacity:1;fill-rule:nonzero;stroke:none" transform="rotate(180,138.395,169.59977)"/>
  <path id="path120" d="m 195.59293,204.53601 h -2.73323 v -2.73337 h 2.73323 z" clip-path="url(#clipWmfPath1)" style="fill:none;stroke:#000000;stroke-width:0.0666643px;stroke-linecap:round;stroke-linejoin:round;stroke-miterlimit:4;stroke-dasharray:none;stroke-opacity:1" transform="rotate(180,138.395,169.59977)"/>
  <path id="path122" d="M 190.92644,181.20237 H 188.1932 V 178.469 h 2.73324 z" clip-path="url(#clipWmfPath1)" style="fill:#000000;fill-opacity:1;fill-rule:nonzero;stroke:none" transform="rotate(180,138.395,169.59977)"/>
  <path id="path124" d="M 190.92644,181.20237 H 188.1932 V 178.469 h 2.73324 z" clip-path="url(#clipWmfPath1)" style="fill:none;stroke:#000000;stroke-width:0.0666643px;stroke-linecap:round;stroke-linejoin:round;stroke-miterlimit:4;stroke-dasharray:none;stroke-opacity:1" transform="rotate(180,138.395,169.59977)"/>
  <path id="path126" d="m 190.92644,176.60231 h -2.73324 v -2.73337 h 2.73324 z" clip-path="url(#clipWmfPath1)" style="fill:#000000;fill-opacity:1;fill-rule:nonzero;stroke:none" transform="rotate(180,138.395,169.59977)"/>
  <path id="path128" d="m 190.92644,176.60231 h -2.73324 v -2.73337 h 2.73324 z" clip-path="url(#clipWmfPath1)" style="fill:none;stroke:#000000;stroke-width:0.0666643px;stroke-linecap:round;stroke-linejoin:round;stroke-miterlimit:4;stroke-dasharray:none;stroke-opacity:1" transform="rotate(180,138.395,169.59977)"/>
  <path id="path130" d="m 190.92644,190.46916 h -2.73324 v -2.73337 h 2.73324 z" clip-path="url(#clipWmfPath1)" style="fill:#000000;fill-opacity:1;fill-rule:nonzero;stroke:none" transform="rotate(180,138.395,169.59977)"/>
  <path id="path132" d="m 190.92644,190.46916 h -2.73324 v -2.73337 h 2.73324 z" clip-path="url(#clipWmfPath1)" style="fill:none;stroke:#000000;stroke-width:0.0666643px;stroke-linecap:round;stroke-linejoin:round;stroke-miterlimit:4;stroke-dasharray:none;stroke-opacity:1" transform="rotate(180,138.395,169.59977)"/>
  <path id="path134" d="m 190.92644,185.8691 h -2.73324 v -2.73337 h 2.73324 z" clip-path="url(#clipWmfPath1)" style="fill:#000000;fill-opacity:1;fill-rule:nonzero;stroke:none" transform="rotate(180,138.395,169.59977)"/>
  <path id="path136" d="m 190.92644,185.8691 h -2.73324 v -2.73337 h 2.73324 z" clip-path="url(#clipWmfPath1)" style="fill:none;stroke:#000000;stroke-width:0.0666643px;stroke-linecap:round;stroke-linejoin:round;stroke-miterlimit:4;stroke-dasharray:none;stroke-opacity:1" transform="rotate(180,138.395,169.59977)"/>
  <path id="path138" d="M 195.59293,181.20237 H 192.8597 V 178.469 h 2.73323 z" clip-path="url(#clipWmfPath1)" style="fill:#000000;fill-opacity:1;fill-rule:nonzero;stroke:none" transform="rotate(180,138.395,169.59977)"/>
  <path id="path140" d="M 195.59293,181.20237 H 192.8597 V 178.469 h 2.73323 z" clip-path="url(#clipWmfPath1)" style="fill:none;stroke:#000000;stroke-width:0.0666643px;stroke-linecap:round;stroke-linejoin:round;stroke-miterlimit:4;stroke-dasharray:none;stroke-opacity:1" transform="rotate(180,138.395,169.59977)"/>
  <path id="path142" d="m 195.59293,176.60231 h -2.73323 v -2.73337 h 2.73323 z" clip-path="url(#clipWmfPath1)" style="fill:#000000;fill-opacity:1;fill-rule:nonzero;stroke:none" transform="rotate(180,138.395,169.59977)"/>
  <path id="path144" d="m 195.59293,176.60231 h -2.73323 v -2.73337 h 2.73323 z" clip-path="url(#clipWmfPath1)" style="fill:none;stroke:#000000;stroke-width:0.0666643px;stroke-linecap:round;stroke-linejoin:round;stroke-miterlimit:4;stroke-dasharray:none;stroke-opacity:1" transform="rotate(180,138.395,169.59977)"/>
  <path id="path146" d="m 195.59293,190.46916 h -2.73323 v -2.73337 h 2.73323 z" clip-path="url(#clipWmfPath1)" style="fill:#000000;fill-opacity:1;fill-rule:nonzero;stroke:none" transform="rotate(180,138.395,169.59977)"/>
  <path id="path148" d="m 195.59293,190.46916 h -2.73323 v -2.73337 h 2.73323 z" clip-path="url(#clipWmfPath1)" style="fill:none;stroke:#000000;stroke-width:0.0666643px;stroke-linecap:round;stroke-linejoin:round;stroke-miterlimit:4;stroke-dasharray:none;stroke-opacity:1" transform="rotate(180,138.395,169.59977)"/>
  <path id="path150" d="m 195.59293,185.8691 h -2.73323 v -2.73337 h 2.73323 z" clip-path="url(#clipWmfPath1)" style="fill:#000000;fill-opacity:1;fill-rule:nonzero;stroke:none" transform="rotate(180,138.395,169.59977)"/>
  <path id="path152" d="m 195.59293,185.8691 h -2.73323 v -2.73337 h 2.73323 z" clip-path="url(#clipWmfPath1)" style="fill:none;stroke:#000000;stroke-width:0.0666643px;stroke-linecap:round;stroke-linejoin:round;stroke-miterlimit:4;stroke-dasharray:none;stroke-opacity:1" transform="rotate(180,138.395,169.59977)"/>
  <path id="path154" d="m 190.92644,162.53546 h -2.73324 v -2.73337 h 2.73324 z" clip-path="url(#clipWmfPath1)" style="fill:#000000;fill-opacity:1;fill-rule:nonzero;stroke:none" transform="rotate(180,138.395,169.59977)"/>
  <path id="path156" d="m 190.92644,162.53546 h -2.73324 v -2.73337 h 2.73324 z" clip-path="url(#clipWmfPath1)" style="fill:none;stroke:#000000;stroke-width:0.0666643px;stroke-linecap:round;stroke-linejoin:round;stroke-miterlimit:4;stroke-dasharray:none;stroke-opacity:1" transform="rotate(180,138.395,169.59977)"/>
  <path id="path158" d="m 190.92644,157.9354 h -2.73324 v -2.73337 h 2.73324 z" clip-path="url(#clipWmfPath1)" style="fill:#000000;fill-opacity:1;fill-rule:nonzero;stroke:none" transform="rotate(180,138.395,169.59977)"/>
  <path id="path160" d="m 190.92644,157.9354 h -2.73324 v -2.73337 h 2.73324 z" clip-path="url(#clipWmfPath1)" style="fill:none;stroke:#000000;stroke-width:0.0666643px;stroke-linecap:round;stroke-linejoin:round;stroke-miterlimit:4;stroke-dasharray:none;stroke-opacity:1" transform="rotate(180,138.395,169.59977)"/>
  <path id="path162" d="m 190.92644,153.202 h -2.73324 v -2.73337 h 2.73324 z" clip-path="url(#clipWmfPath1)" style="fill:#ffffff;fill-opacity:1;fill-rule:nonzero;stroke:none" transform="rotate(180,138.395,169.59977)"/>
  <path id="path164" d="m 190.92644,153.202 h -2.73324 v -2.73337 h 2.73324 z" clip-path="url(#clipWmfPath1)" style="fill:none;stroke:#000000;stroke-width:0.0666643px;stroke-linecap:round;stroke-linejoin:round;stroke-miterlimit:4;stroke-dasharray:none;stroke-opacity:1" transform="rotate(180,138.395,169.59977)"/>
  <path id="path166" d="m 190.92644,171.80225 h -2.73324 v -2.73337 h 2.73324 z" clip-path="url(#clipWmfPath1)" style="fill:#000000;fill-opacity:1;fill-rule:nonzero;stroke:none" transform="rotate(180,138.395,169.59977)"/>
  <path id="path168" d="m 190.92644,171.80225 h -2.73324 v -2.73337 h 2.73324 z" clip-path="url(#clipWmfPath1)" style="fill:none;stroke:#000000;stroke-width:0.0666643px;stroke-linecap:round;stroke-linejoin:round;stroke-miterlimit:4;stroke-dasharray:none;stroke-opacity:1" transform="rotate(180,138.395,169.59977)"/>
  <path id="path170" d="m 190.92644,167.20219 h -2.73324 v -2.73337 h 2.73324 z" clip-path="url(#clipWmfPath1)" style="fill:#000000;fill-opacity:1;fill-rule:nonzero;stroke:none" transform="rotate(180,138.395,169.59977)"/>
  <path id="path172" d="m 190.92644,167.20219 h -2.73324 v -2.73337 h 2.73324 z" clip-path="url(#clipWmfPath1)" style="fill:none;stroke:#000000;stroke-width:0.0666643px;stroke-linecap:round;stroke-linejoin:round;stroke-miterlimit:4;stroke-dasharray:none;stroke-opacity:1" transform="rotate(180,138.395,169.59977)"/>
  <path id="path174" d="m 195.59293,162.53546 h -2.73323 v -2.73337 h 2.73323 z" clip-path="url(#clipWmfPath1)" style="fill:#000000;fill-opacity:1;fill-rule:nonzero;stroke:none" transform="rotate(180,138.395,169.59977)"/>
  <path id="path176" d="m 195.59293,162.53546 h -2.73323 v -2.73337 h 2.73323 z" clip-path="url(#clipWmfPath1)" style="fill:none;stroke:#000000;stroke-width:0.0666643px;stroke-linecap:round;stroke-linejoin:round;stroke-miterlimit:4;stroke-dasharray:none;stroke-opacity:1" transform="rotate(180,138.395,169.59977)"/>
  <path id="path178" d="m 195.59293,157.9354 h -2.73323 v -2.73337 h 2.73323 z" clip-path="url(#clipWmfPath1)" style="fill:#000000;fill-opacity:1;fill-rule:nonzero;stroke:none" transform="rotate(180,138.395,169.59977)"/>
  <path id="path180" d="m 195.59293,157.9354 h -2.73323 v -2.73337 h 2.73323 z" clip-path="url(#clipWmfPath1)" style="fill:none;stroke:#000000;stroke-width:0.0666643px;stroke-linecap:round;stroke-linejoin:round;stroke-miterlimit:4;stroke-dasharray:none;stroke-opacity:1" transform="rotate(180,138.395,169.59977)"/>
  <path id="path182" d="m 195.59293,153.202 h -2.73323 v -2.73337 h 2.73323 z" clip-path="url(#clipWmfPath1)" style="fill:#000000;fill-opacity:1;fill-rule:nonzero;stroke:none" transform="rotate(180,138.395,169.59977)"/>
  <path id="path184" d="m 195.59293,153.202 h -2.73323 v -2.73337 h 2.73323 z" clip-path="url(#clipWmfPath1)" style="fill:none;stroke:#000000;stroke-width:0.0666643px;stroke-linecap:round;stroke-linejoin:round;stroke-miterlimit:4;stroke-dasharray:none;stroke-opacity:1" transform="rotate(180,138.395,169.59977)"/>
  <path id="path186" d="m 195.59293,171.80225 h -2.73323 v -2.73337 h 2.73323 z" clip-path="url(#clipWmfPath1)" style="fill:#000000;fill-opacity:1;fill-rule:nonzero;stroke:none" transform="rotate(180,138.395,169.59977)"/>
  <path id="path188" d="m 195.59293,171.80225 h -2.73323 v -2.73337 h 2.73323 z" clip-path="url(#clipWmfPath1)" style="fill:none;stroke:#000000;stroke-width:0.0666643px;stroke-linecap:round;stroke-linejoin:round;stroke-miterlimit:4;stroke-dasharray:none;stroke-opacity:1" transform="rotate(180,138.395,169.59977)"/>
  <path id="path190" d="m 195.59293,167.20219 h -2.73323 v -2.73337 h 2.73323 z" clip-path="url(#clipWmfPath1)" style="fill:#000000;fill-opacity:1;fill-rule:nonzero;stroke:none" transform="rotate(180,138.395,169.59977)"/>
  <path id="path192" d="m 195.59293,167.20219 h -2.73323 v -2.73337 h 2.73323 z" clip-path="url(#clipWmfPath1)" style="fill:none;stroke:#000000;stroke-width:0.0666643px;stroke-linecap:round;stroke-linejoin:round;stroke-miterlimit:4;stroke-dasharray:none;stroke-opacity:1" transform="rotate(180,138.395,169.59977)"/>
  <path id="path194" d="m 190.92644,214.13613 h -2.73324 v -2.73336 h 2.73324 z" clip-path="url(#clipWmfPath1)" style="fill:#000000;fill-opacity:1;fill-rule:nonzero;stroke:none" transform="rotate(180,138.395,169.59977)"/>
  <path id="path196" d="m 190.92644,214.13613 h -2.73324 v -2.73336 h 2.73324 z" clip-path="url(#clipWmfPath1)" style="fill:none;stroke:#000000;stroke-width:0.0666643px;stroke-linecap:round;stroke-linejoin:round;stroke-miterlimit:4;stroke-dasharray:none;stroke-opacity:1" transform="rotate(180,138.395,169.59977)"/>
  <path id="path198" d="m 195.59293,214.13613 h -2.73323 v -2.73336 h 2.73323 z" clip-path="url(#clipWmfPath1)" style="fill:#000000;fill-opacity:1;fill-rule:nonzero;stroke:none" transform="rotate(180,138.395,169.59977)"/>
  <path id="path200" d="m 195.59293,214.13613 h -2.73323 v -2.73336 h 2.73323 z" clip-path="url(#clipWmfPath1)" style="fill:none;stroke:#000000;stroke-width:0.0666643px;stroke-linecap:round;stroke-linejoin:round;stroke-miterlimit:4;stroke-dasharray:none;stroke-opacity:1" transform="rotate(180,138.395,169.59977)"/>
  <path id="path202" d="m 144.7281,205.53602 v 0.40001 h 1.06663 v 0 h 0.79997 v 2.06669 -2.06669 h 0.86664 v 0 h 0.86663 v 2.06669 -2.06669 h 0.86664 v 0 h 0.79997 v 2.06669 -2.06669 h 0.86664 v 0 h 0.86663 v 2.06669 -2.06669 h 0.86664 v 0 h 0.79997 v 2.06669 -2.06669 h 0.86663 v 0 h 0.86664 v 2.06669 -2.06669 h 0.86663 v 0 h 0.79998 v 2.06669 -2.06669 h 0.93329 v 0 h 0.86664 v 2.06669 -2.06669 h 0.79997 v 0 h 0.79997 v 2.06669 -2.06669 h 0.86664 v 0 h 0.86663 v 2.06669 -2.06669 h 0.86664 v 0 h 0.86663 v 2.06669 -2.06669 h 0.79997 v 0 h 0.86664 v 2.06669 -2.06669 h 0.79997 v 0 h 0.9333 v 2.06669 -2.06669 h 0.79997 v 0 h 0.79997 v 2.06669 -2.06669 h 0.9333 v 0 h 0.86664 v 2.06669 -2.06669 h 0.86663 v 0 h 0.79997 v 2.06669 -2.06669 h 0.9333 v 0 h 0.79998 v 2.06669 -2.06669 h 0.79997 v 0 h 0.9333 v 2.06669 -2.06669 h 0.79997 v 0 h 0.86663 v 2.06669 -2.06669 h 1.06663 v 0 h 0.59998 v 2.06669 -2.06669 h 0.59998 v -1.13335 0 -0.80001 h 2.06659 -2.06659 v -0.93335 0 -0.80001 h 2.06659 -2.06659 v -0.86668 0 -0.80001 h 2.06659 -2.06659 v -0.93334 0 -0.80001 h 2.06659 -2.06659 v -0.86668 0 -0.80001 h 2.06659 -2.06659 v -0.93335 0 -0.80001 h 2.06659 -2.06659 v -0.86667 0 -0.80002 h 2.06659 -2.06659 v -0.93334 0 -0.80001 h 2.06659 -2.06659 v -0.93335 0 -0.80001 h 2.06659 -2.06659 v -0.86668 0 -0.80001 h 2.06659 -2.06659 v -0.93334 0 -0.80001 h 2.06659 -2.06659 v -0.93335 0 -0.80001 h 2.06659 -2.06659 v -0.80001 0 -0.86668 h 2.06659 -2.06659 v -0.93334 0 -0.80001 h 2.06659 -2.06659 v -0.80001 0 -0.86668 h 2.06659 -2.06659 v -0.93335 0 -0.80001 h 2.06659 -2.06659 v -0.86667 0 -0.80002 h 2.06659 -2.06659 v -0.93334 0 -0.86668 h 2.06659 -2.06659 v -0.80001 0 -0.93334 h 2.06659 -2.06659 v -0.60001 0 -1.00002 h 2.06659 -2.06659 v -0.46667 h -1.06663 v 0 h -0.79997 v -2.06669 2.06669 h -0.86664 v 0 h -0.86663 v -2.06669 2.06669 h -0.86664 v 0 h -0.79997 v -2.06669 2.06669 h -0.86663 v 0 h -0.86664 v -2.06669 2.06669 h -0.86664 v 0 h -0.79997 v -2.06669 2.06669 h -0.86663 v 0 h -0.86664 v -2.06669 2.06669 h -0.86663 v 0 h -0.79997 v -2.06669 2.06669 h -0.9333 v 0 h -0.86664 v -2.06669 2.06669 h -0.79997 v 0 h -0.79997 v -2.06669 2.06669 h -0.86664 v 0 h -0.86663 v -2.06669 2.06669 h -0.86664 v 0 h -0.86663 v -2.06669 2.06669 h -0.79997 v 0 h -0.86664 v -2.06669 2.06669 h -0.79997 v 0 h -0.9333 v -2.06669 2.06669 h -0.79997 v 0 h -0.79997 v -2.06669 2.06669 h -0.9333 v 0 h -0.86664 v -2.06669 2.06669 h -0.86663 v 0 h -0.79997 v -2.06669 2.06669 h -0.9333 v 0 h -0.79997 v -2.06669 2.06669 h -0.79997 v 0 h -0.9333 v -2.06669 2.06669 h -0.79998 v 0 h -0.86663 v -2.06669 2.06669 h -0.9333 v 0 h -0.59998 v -2.06669 2.06669 h -0.73331 v 1.13335 0 0.80001 h -2.06659 2.06659 v 0.93335 0 0.80001 h -2.06659 2.06659 v 0.86667 0 0.80001 h -2.06659 2.06659 v 0.93335 0 0.80001 h -2.06659 2.06659 v 0.86668 0 0.80001 h -2.06659 2.06659 v 0.93334 0 0.80002 h -2.06659 2.06659 v 0.86667 0 0.80001 h -2.06659 2.06659 v 0.93335 0 0.80001 h -2.06659 2.06659 v 0.93335 0 0.80001 h -2.06659 2.06659 v 0.86667 0 0.80001 h -2.06659 2.06659 v 0.93335 0 0.80001 h -2.06659 2.06659 v 0.93335 0 0.80001 h -2.06659 2.06659 v 0.80001 0 0.86667 h -2.06659 2.06659 v 0.93335 0 0.80001 h -2.06659 2.06659 v 0.80001 0 0.86668 h -2.06659 2.06659 v 0.93334 0 0.80002 h -2.06659 2.06659 v 0.86667 0 0.80001 h -2.06659 2.06659 v 0.93335 0 0.86668 h -2.06659 2.06659 v 0.80001 0 0.93334 h -2.06659 2.06659 v 0.60001 0 1.06668 h -2.06659 z" clip-path="url(#clipWmfPath1)" style="fill:#000000;fill-opacity:1;fill-rule:nonzero;stroke:none" transform="rotate(180,138.395,169.59977)"/>
  <path id="path204" d="m 142.66151,205.00268 v 1.06668 h 2.06659 v -1.06668 l -0.53331,0.53334 v 0.93335 h 1.59994 v 0 h 0.26666 v 1.53335 h 1.06663 v -1.53335 h 0.33332 v 0 h 0.33332 v 1.53335 h 1.06663 v -1.53335 h 0.33332 v 0 h 0.26666 v 1.53335 h 1.06662 v -1.53335 h 0.33333 v 0 h 0.33332 v 1.53335 h 1.06663 v -1.53335 h 0.33332 v 0 h 0.26665 v 1.53335 h 1.06663 v -1.53335 h 0.33332 v 0 h 0.33332 v 1.53335 h 1.06663 v -1.53335 h 0.33332 v 0 h 0.26666 v 1.53335 h 1.06663 v -1.53335 h 0.39998 v 0 h 0.33333 v 1.53335 h 1.06662 v -1.53335 h 0.26666 v 0 h 0.26666 v 1.53335 h 1.06663 v -1.53335 h 0.33332 v 0 h 0.33332 v 1.53335 h 1.06663 v -1.53335 h 0.33332 v 0 h 0.33332 v 1.53335 h 1.06663 v -1.53335 h 0.26665 v 0 h 0.33333 v 1.53335 h 1.06662 v -1.53335 h 0.26666 v 0 h 0.39999 v 1.53335 h 1.06662 v -1.53335 h 0.26666 v 0 h 0.26666 v 1.53335 h 1.06663 v -1.53335 h 0.39998 v 0 h 0.33332 v 1.53335 h 1.06663 v -1.53335 h 0.33332 v 0 h 0.26666 v 1.53335 h 1.06663 v -1.53335 h 0.39998 v 0 h 0.26666 v 1.53335 h 1.06663 v -1.53335 h 0.26666 v 0 h 0.39998 v 1.53335 h 1.06663 v -1.53335 h 0.26666 v 0 h 0.33332 v 1.53335 h 1.06663 v -1.53335 h 0.53331 v 0 h 0.0667 v 1.53335 h 1.06663 v -1.53335 h 0.59998 v -1.66669 0 -0.26667 h 1.53328 v -1.06668 h -1.53328 v -0.40001 0 -0.26667 h 1.53328 v -1.06668 h -1.53328 v -0.33334 0 -0.26667 h 1.53328 v -1.06668 h -1.53328 v -0.4 0 -0.26667 h 1.53328 v -1.06668 h -1.53328 v -0.33334 0 -0.26667 h 1.53328 v -1.06668 h -1.53328 v -0.40001 0 -0.26667 h 1.53328 v -1.06668 h -1.53328 v -0.33333 0 -0.26667 h 1.53328 v -1.06669 h -1.53328 v -0.4 0 -0.26667 h 1.53328 v -1.06668 h -1.53328 v -0.40001 0 -0.26667 h 1.53328 v -1.06668 h -1.53328 v -0.33334 0 -0.26667 h 1.53328 v -1.06668 h -1.53328 v -0.4 0 -0.26667 h 1.53328 v -1.06668 h -1.53328 v -0.40001 0 -0.26667 h 1.53328 v -1.06668 h -1.53328 v -0.26667 0 -0.33334 h 1.53328 v -1.06668 h -1.53328 v -0.4 0 -0.26667 h 1.53328 v -1.06668 h -1.53328 v -0.26667 0 -0.33334 h 1.53328 v -1.06668 h -1.53328 v -0.40001 0 -0.26667 h 1.53328 v -1.06668 h -1.53328 v -0.33333 0 -0.26667 h 1.53328 v -1.06669 h -1.53328 v -0.4 0 -0.33334 h 1.53328 v -1.06668 h -1.53328 v -0.26667 0 -0.4 h 1.53328 v -1.06668 h -1.53328 v -0.0667 0 -0.46668 h 1.53328 v -1.06668 h -2.06659 v 1.06668 l 0.53331,-0.53334 v -1.00001 h -1.59994 v 0 h -0.26666 v -1.53335 h -1.06663 v 1.53335 h -0.33332 v 0 h -0.33332 v -1.53335 h -1.06663 v 1.53335 h -0.33332 v 0 h -0.26666 v -1.53335 h -1.06662 v 1.53335 h -0.33332 v 0 h -0.33333 v -1.53335 h -1.06662 v 1.53335 h -0.33333 v 0 h -0.26665 v -1.53335 h -1.06663 v 1.53335 h -0.33332 v 0 h -0.33332 v -1.53335 h -1.06663 v 1.53335 h -0.33332 v 0 h -0.26666 v -1.53335 h -1.06663 v 1.53335 h -0.39998 v 0 H 166.194 v -1.53335 h -1.06663 v 1.53335 h -0.26666 v 0 h -0.26666 v -1.53335 h -1.06662 v 1.53335 h -0.33333 v 0 h -0.33332 v -1.53335 h -1.06663 v 1.53335 h -0.33332 v 0 h -0.33332 v -1.53335 h -1.06663 v 1.53335 h -0.26665 v 0 h -0.33332 v -1.53335 h -1.06663 v 1.53335 h -0.26666 v 0 h -0.39999 v -1.53335 h -1.06662 v 1.53335 h -0.26666 v 0 h -0.26666 v -1.53335 h -1.06663 v 1.53335 h -0.39998 v 0 h -0.33332 v -1.53335 h -1.06663 v 1.53335 h -0.33332 v 0 h -0.26666 v -1.53335 h -1.06663 v 1.53335 h -0.39998 v 0 h -0.26666 v -1.53335 h -1.06663 v 1.53335 h -0.26665 v 0 h -0.39999 v -1.53335 h -1.06663 v 1.53335 h -0.26666 v 0 H 147.528 v -1.53335 h -1.06662 v 1.53335 h -0.39999 v 0 h -0.0667 v -1.53335 h -1.06663 v 1.53335 h -0.73331 v 1.66669 0 0.26667 h -1.53328 v 1.06668 h 1.53328 v 0.40001 0 0.26667 h -1.53328 v 1.06668 h 1.53328 v 0.33333 0 0.26667 h -1.53328 v 1.06669 h 1.53328 v 0.4 0 0.26667 h -1.53328 v 1.06668 h 1.53328 v 0.33334 0 0.26667 h -1.53328 v 1.06668 h 1.53328 v 0.4 0 0.26667 h -1.53328 v 1.06669 h 1.53328 v 0.33333 0 0.26667 h -1.53328 v 1.06668 h 1.53328 v 0.40001 0 0.26667 h -1.53328 v 1.06668 h 1.53328 v 0.40001 0 0.26667 h -1.53328 v 1.06668 h 1.53328 v 0.33333 0 0.26667 h -1.53328 v 1.06668 h 1.53328 v 0.40001 0 0.26667 h -1.53328 v 1.06668 h 1.53328 v 0.40001 0 0.26667 h -1.53328 v 1.06668 h 1.53328 v 0.26667 0 0.33333 h -1.53328 v 1.06669 h 1.53328 v 0.4 0 0.26667 h -1.53328 v 1.06668 h 1.53328 v 0.26667 0 0.33334 h -1.53328 v 1.06668 h 1.53328 v 0.4 0 0.26667 h -1.53328 v 1.06669 h 1.53328 v 0.33333 0 0.26667 h -1.53328 v 1.06668 h 1.53328 v 0.40001 0 0.33334 h -1.53328 v 1.06668 h 1.53328 v 0.26667 0 0.4 h -1.53328 v 1.06668 h 1.53328 v 0.0667 0 0.53334 h -1.53328 v 1.06668 h 2.06659 v -1.06668 l -0.53331,0.53334 v 0.40001 h 1.06663 v -0.93335 h -2.59991 v 1.06668 h 2.59991 v -1.60002 0 -1.13335 h -2.59991 v 1.06668 h 2.59991 v -1.46668 0 -1.33335 h -2.59991 v 1.06668 h 2.59991 v -1.40002 0 -1.46669 h -2.59991 v 1.06668 h 2.59991 v -1.33335 0 -1.40002 h -2.59991 v 1.06669 h 2.59991 v -1.33336 0 -1.46668 h -2.59991 v 1.06668 h 2.59991 v -1.40002 0 -1.33335 h -2.59991 v 1.06668 h 2.59991 v -1.33335 0 -1.46669 h -2.59991 v 1.06669 h 2.59991 v -1.40002 0 -1.33335 h -2.59991 v 1.06668 h 2.59991 v -1.33335 0 -1.46669 h -2.59991 v 1.06668 h 2.59991 v -1.33335 0 -1.46669 h -2.59991 v 1.06668 h 2.59991 v -1.33335 0 -1.40001 h -2.59991 v 1.06668 h 2.59991 v -1.33335 0 -1.46669 h -2.59991 v 1.06668 h 2.59991 v -1.33335 0 -1.46669 h -2.59991 v 1.06668 h 2.59991 v -1.33335 0 -1.40002 h -2.59991 v 1.06669 h 2.59991 v -1.33336 0 -1.46668 h -2.59991 v 1.06668 h 2.59991 v -1.33335 0 -1.40002 h -2.59991 v 1.06668 h 2.59991 v -1.33335 0 -1.46669 h -2.59991 v 1.06669 h 2.59991 v -1.33336 0 -1.40001 h -2.59991 v 1.06668 h 2.59991 v -1.33335 0 -1.46669 h -2.59991 v 1.06668 h 2.59991 v -1.93336 0 h 0.73331 v -2.60003 h -1.06663 v 2.60003 h 1.13329 v 0 h 1.46661 v -2.60003 h -1.06662 v 2.60003 h 1.39994 v 0 h 1.33329 v -2.60003 h -1.06663 v 2.60003 h 1.46662 v 0 h 1.33328 v -2.60003 h -1.06663 v 2.60003 h 1.33329 v 0 h 1.46661 v -2.60003 h -1.06663 v 2.60003 h 1.33329 v 0 h 1.39995 v -2.60003 h -1.06663 v 2.60003 h 1.39995 v 0 h 1.46661 v -2.60003 h -1.06663 v 2.60003 h 1.33329 v 0 h 1.33328 v -2.60003 h -1.06662 v 2.60003 h 1.46661 v 0 h 1.33329 v -2.60003 h -1.06663 v 2.60003 h 1.39995 v 0 h 1.33328 v -2.60003 h -1.06663 v 2.60003 h 1.39995 v 0 h 1.39995 v -2.60003 h -1.06663 v 2.60003 h 1.39995 v 0 h 1.39995 v -2.60003 h -1.06662 v 2.60003 h 1.33328 v 0 h 1.33329 v -2.60003 h -1.06663 v 2.60003 h 1.39995 v 0 h 1.46661 v -2.60003 h -1.06663 v 2.60003 h 1.33329 v 0 h 1.39995 v -2.60003 h -1.06663 v 2.60003 h 1.39995 v 0 h 1.39995 v -2.60003 h -1.06663 v 2.60003 h 1.33328 v 0 h 1.39995 v -2.60003 h -1.06662 v 2.60003 h 1.39995 v 0 h 1.39994 v -2.60003 h -1.06662 v 2.60003 h 1.33328 v 0 h 1.39995 v -2.60003 h -1.06663 v 2.60003 h 1.39995 v 0 h 1.39995 v -2.60003 h -1.06663 v 2.60003 h 1.33329 v -1.06668 1.06668 h 1.06663 v -1.06668 l -0.53332,0.53334 v 1.00001 h 2.59991 v -1.06668 h -2.59991 v 1.53336 0 1.13335 h 2.59991 v -1.06668 h -2.59991 v 1.46668 0 1.33335 h 2.59991 v -1.06668 h -2.59991 v 1.40002 0 1.46669 h 2.59991 v -1.06669 h -2.59991 v 1.33336 0 1.40001 h 2.59991 v -1.06668 h -2.59991 v 1.33335 0 1.46669 h 2.59991 v -1.06668 h -2.59991 v 1.40002 0 1.33335 h 2.59991 v -1.06668 h -2.59991 v 1.33335 0 1.46668 h 2.59991 v -1.06668 h -2.59991 v 1.40002 0 1.33335 h 2.59991 v -1.06668 h -2.59991 v 1.33335 0 1.46669 h 2.59991 v -1.06668 h -2.59991 v 1.33335 0 1.46668 h 2.59991 v -1.06668 h -2.59991 v 1.33335 0 1.40002 h 2.59991 v -1.06668 h -2.59991 v 1.33335 0 1.46669 h 2.59991 v -1.06668 h -2.59991 v 1.33335 0 1.46669 h 2.59991 v -1.06669 h -2.59991 v 1.33336 0 1.40001 h 2.59991 v -1.06668 h -2.59991 v 1.33335 0 1.46669 h 2.59991 v -1.06668 h -2.59991 v 1.33335 0 1.40002 h 2.59991 v -1.06668 h -2.59991 v 1.33335 0 1.46668 h 2.59991 v -1.06668 h -2.59991 v 1.33335 0 1.40002 h 2.59991 v -1.06668 h -2.59991 v 1.33335 0 1.46669 h 2.59991 v -1.06668 h -2.59991 v 1.93336 0 h -0.59998 v 2.60003 h 1.06663 v -2.60003 h -1.13329 v 0 h -1.59994 v 2.60003 h 1.06663 v -2.60003 h -1.39995 v 0 h -1.33329 v 2.60003 h 1.06663 v -2.60003 h -1.46661 v 0 h -1.33329 v 2.60003 h 1.06663 v -2.60003 h -1.33329 v 0 h -1.46661 v 2.60003 h 1.06663 v -2.60003 h -1.33329 v 0 h -1.39995 v 2.60003 h 1.06663 v -2.60003 h -1.39995 v 0 h -1.46661 v 2.60003 h 1.06663 v -2.60003 h -1.33329 v 0 h -1.33328 v 2.60003 h 1.06662 v -2.60003 h -1.46661 v 0 h -1.33328 v 2.60003 h 1.06662 v -2.60003 h -1.39995 v 0 h -1.33328 v 2.60003 h 1.06663 v -2.60003 h -1.39995 v 0 h -1.39995 v 2.60003 h 1.06663 v -2.60003 h -1.39995 v 0 h -1.39995 v 2.60003 h 1.06663 v -2.60003 h -1.33329 v 0 h -1.33328 v 2.60003 h 1.06662 v -2.60003 h -1.39995 v 0 h -1.46661 v 2.60003 h 1.06663 v -2.60003 h -1.33329 v 0 h -1.39995 v 2.60003 h 1.06663 v -2.60003 h -1.39995 v 0 h -1.39995 v 2.60003 h 1.06663 v -2.60003 h -1.33328 v 0 h -1.39995 v 2.60003 h 1.06663 v -2.60003 h -1.39995 v 0 h -1.39995 v 2.60003 h 1.06662 v -2.60003 h -1.33328 v 0 h -1.39995 v 2.60003 h 1.06663 v -2.60003 h -1.39995 v 0 h -1.39995 v 2.60003 h 1.06663 v -2.60003 h -1.33329 v 1.06668 -1.06668 h -1.06663 v 1.06668 l 0.53332,-0.53334 v -0.93335 z" clip-path="url(#clipWmfPath1)" style="fill:#000000;fill-opacity:1;fill-rule:nonzero;stroke:#000000;stroke-width:0.0666643px;stroke-linecap:round;stroke-linejoin:round;stroke-miterlimit:4;stroke-dasharray:none;stroke-opacity:1" transform="rotate(180,138.395,169.59977)"/>
  <path id="path206" d="m 146.39471,174.46895 0.13333,-0.66668 0.33332,-0.53334 0.53331,-0.33333 0.66665,-0.13334 0.7333,0.13334 0.53332,0.33333 0.39998,0.53334 0.13333,0.66668 -0.13333,0.66667 -0.39998,0.53334 -0.53332,0.40001 -0.7333,0.13333 -0.66665,-0.13333 -0.53331,-0.40001 -0.33332,-0.53334 z" clip-path="url(#clipWmfPath1)" style="fill:#000000;fill-opacity:1;fill-rule:nonzero;stroke:none" transform="rotate(180,138.395,169.59977)"/>
  <path id="path208" d="m 146.39471,174.46895 0.13333,-0.66668 0.33332,-0.53334 0.53331,-0.33333 0.66665,-0.13334 0.7333,0.13334 0.53332,0.33333 0.39998,0.53334 0.13333,0.66668 -0.13333,0.66667 -0.39998,0.53334 -0.53332,0.40001 -0.7333,0.13333 -0.66665,-0.13333 -0.53331,-0.40001 -0.33332,-0.53334 z" clip-path="url(#clipWmfPath1)" style="fill:none;stroke:#000000;stroke-width:0.0666643px;stroke-linecap:round;stroke-linejoin:round;stroke-miterlimit:4;stroke-dasharray:none;stroke-opacity:1" transform="rotate(180,138.395,169.59977)"/>
  <path id="path210" d="m 97.263153,90.667853 v 0.400005 h 1.066628 v 0 h 0.799971 v 2.066693 -2.066693 h 0.866635 v 0 h 0.866633 v 2.066693 -2.066693 h 0.86664 v 0 h 0.79997 v 2.066693 -2.066693 h 0.86663 v 0 h 0.86664 v 2.066693 -2.066693 h 0.86664 v 0 h 0.79997 v 2.066693 -2.066693 h 0.86663 v 0 h 0.86664 v 2.066693 -2.066693 h 0.86663 v 0 h 0.79997 v 2.066693 -2.066693 h 0.9333 v 0 h 0.86664 v 2.066693 -2.066693 h 0.79997 v 0 h 0.79997 v 2.066693 -2.066693 h 0.86664 v 0 h 0.86663 v 2.066693 -2.066693 h 0.86664 v 0 h 0.86663 v 2.066693 -2.066693 h 0.79997 v 0 h 0.86664 v 2.066693 -2.066693 h 0.79997 v 0 h 0.9333 v 2.066693 -2.066693 h 0.79997 v 0 h 0.79997 v 2.066693 -2.066693 h 0.9333 v 0 h 0.86664 v 2.066693 -2.066693 h 0.86663 v 0 h 0.79997 v 2.066693 -2.066693 h 0.9333 v 0 h 0.79997 v 2.066693 -2.066693 h 0.79997 v 0 h 0.9333 v 2.066693 -2.066693 h 0.79998 v 0 h 0.86663 v 2.066693 -2.066693 h 1.06663 v 0 h 0.59998 v 2.066693 -2.066693 h 0.59998 v -1.133348 0 -0.800011 h 2.06659 -2.06659 v -0.933345 0 -0.800011 h 2.06659 -2.06659 v -0.866678 0 -0.80001 h 2.06659 -2.06659 v -0.933346 0 -0.80001 h 2.06659 -2.06659 v -0.866678 0 -0.800011 h 2.06659 -2.06659 v -0.933345 0 -0.800011 h 2.06659 -2.06659 v -0.866678 0 -0.80001 h 2.06659 -2.06659 v -0.933346 0 -0.80001 h 2.06659 -2.06659 v -0.933346 0 -0.80001 h 2.06659 -2.06659 v -0.866678 0 -0.800011 h 2.06659 -2.06659 v -0.933345 0 -0.800011 h 2.06659 -2.06659 v -0.933345 0 -0.800011 h 2.06659 -2.06659 v -0.80001 0 -0.866678 h 2.06659 -2.06659 v -0.933346 0 -0.80001 h 2.06659 -2.06659 v -0.800011 0 -0.866678 h 2.06659 -2.06659 v -0.933345 0 -0.800011 h 2.06659 -2.06659 v -0.866678 0 -0.80001 h 2.06659 -2.06659 v -0.933346 0 -0.866678 h 2.06659 -2.06659 v -0.80001 0 -0.933346 h 2.06659 -2.06659 v -0.600008 0 -1.000013 h 2.06659 -2.06659 v -0.466672 h -1.06663 v 0 h -0.79997 v -2.066694 2.066694 h -0.86664 v 0 h -0.86663 v -2.066694 2.066694 h -0.86664 v 0 h -0.79997 v -2.066694 2.066694 h -0.86664 v 0 h -0.86663 v -2.066694 2.066694 h -0.86664 v 0 h -0.79997 v -2.066694 2.066694 h -0.86663 v 0 h -0.86664 v -2.066694 2.066694 h -0.86663 v 0 h -0.79998 v -2.066694 2.066694 h -0.93329 v 0 h -0.86664 v -2.066694 2.066694 h -0.79997 v 0 h -0.79997 v -2.066694 2.066694 h -0.86664 v 0 h -0.86663 v -2.066694 2.066694 h -0.86664 v 0 h -0.86663 v -2.066694 2.066694 h -0.79998 v 0 h -0.86663 v -2.066694 2.066694 h -0.79997 v 0 h -0.9333 v -2.066694 2.066694 h -0.79997 v 0 h -0.79997 v -2.066694 2.066694 h -0.9333 v 0 h -0.86664 v -2.066694 2.066694 h -0.86663 v 0 h -0.79997 v -2.066694 2.066694 h -0.9333 v 0 h -0.79998 v -2.066694 2.066694 h -0.79997 v 0 h -0.9333 v -2.066694 2.066694 h -0.79997 v 0 h -0.866633 v -2.066694 2.066694 h -0.933299 v 0 h -0.599979 v -2.066694 2.066694 h -0.733306 v 1.133348 0 0.80001 h -2.066592 2.066592 v 0.933346 0 0.80001 h -2.066592 2.066592 v 0.866678 0 0.800011 h -2.066592 2.066592 v 0.933345 0 0.800011 h -2.066592 2.066592 v 0.866678 0 0.80001 h -2.066592 2.066592 v 0.933346 0 0.80001 h -2.066592 2.066592 v 0.866678 0 0.800011 h -2.066592 2.066592 v 0.933345 0 0.800011 h -2.066592 2.066592 v 0.933345 0 0.800011 h -2.066592 2.066592 v 0.866678 0 0.80001 h -2.066592 2.066592 v 0.933346 0 0.80001 h -2.066592 2.066592 v 0.933346 0 0.80001 h -2.066592 2.066592 v 0.800011 0 0.866678 h -2.066592 2.066592 v 0.933345 0 0.800011 h -2.066592 2.066592 v 0.80001 0 0.866678 h -2.066592 2.066592 v 0.933346 0 0.80001 h -2.066592 2.066592 v 0.866678 0 0.800011 h -2.066592 2.066592 v 0.933345 0 0.866678 h -2.066592 2.066592 v 0.800011 0 0.933345 h -2.066592 2.066592 v 0.600008 0 1.066681 h -2.066592 z" clip-path="url(#clipWmfPath1)" style="fill:#000000;fill-opacity:1;fill-rule:nonzero;stroke:none" transform="rotate(180,138.395,169.59977)"/>
  <path id="path212" d="m 95.196561,90.134512 v 1.066681 h 2.066592 v -1.066681 l -0.533314,0.533341 v 0.933345 h 1.599942 v 0 h 0.266657 v 1.533353 h 1.066628 v -1.533353 h 0.333321 v 0 h 0.333323 v 1.533353 h 1.06663 v -1.533353 h 0.33332 v 0 h 0.26665 v 1.533353 h 1.06663 v -1.533353 h 0.33332 v 0 h 0.33333 v 1.533353 h 1.06662 v -1.533353 h 0.33333 v 0 h 0.26665 v 1.533353 h 1.06663 v -1.533353 h 0.33332 v 0 h 0.33332 v 1.533353 h 1.06663 v -1.533353 h 0.33332 v 0 h 0.26666 v 1.533353 h 1.06663 v -1.533353 h 0.39998 v 0 h 0.33332 v 1.533353 h 1.06663 v -1.533353 h 0.26666 v 0 h 0.26666 v 1.533353 h 1.06662 v -1.533353 h 0.33333 v 0 h 0.33332 v 1.533353 h 1.06663 v -1.533353 h 0.33332 v 0 h 0.33332 v 1.533353 h 1.06663 v -1.533353 h 0.26665 v 0 h 0.33332 v 1.533353 h 1.06663 v -1.533353 h 0.26666 v 0 h 0.39999 v 1.533353 h 1.06662 v -1.533353 h 0.26666 v 0 h 0.26666 v 1.533353 h 1.06663 v -1.533353 h 0.39998 v 0 h 0.33332 v 1.533353 h 1.06663 v -1.533353 h 0.33332 v 0 h 0.26666 v 1.533353 h 1.06663 v -1.533353 h 0.39998 v 0 h 0.26666 v 1.533353 h 1.06663 v -1.533353 h 0.26665 v 0 h 0.39999 v 1.533353 h 1.06663 v -1.533353 h 0.26666 v 0 h 0.33332 v 1.533353 h 1.06662 v -1.533353 h 0.53332 v 0 h 0.0667 v 1.533353 h 1.06663 v -1.533353 h 0.59998 v -1.666688 0 -0.266671 h 1.53328 v -1.06668 h -1.53328 v -0.400005 0 -0.266671 h 1.53328 v -1.06668 h -1.53328 v -0.333338 0 -0.26667 h 1.53328 v -1.066681 h -1.53328 v -0.400005 0 -0.26667 h 1.53328 v -1.066681 h -1.53328 v -0.333337 0 -0.26667 h 1.53328 V 81.80107 h -1.53328 v -0.400005 0 -0.26667 h 1.53328 v -1.066681 h -1.53328 v -0.333338 0 -0.26667 h 1.53328 v -1.066681 h -1.53328 v -0.400005 0 -0.26667 h 1.53328 v -1.066681 h -1.53328 v -0.400005 0 -0.26667 h 1.53328 v -1.066681 h -1.53328 v -0.333337 0 -0.26667 h 1.53328 v -1.066681 h -1.53328 v -0.400005 0 -0.26667 h 1.53328 v -1.066681 h -1.53328 v -0.400005 0 -0.26667 h 1.53328 v -1.066681 h -1.53328 v -0.26667 0 -0.333338 h 1.53328 v -1.06668 h -1.53328 v -0.400006 0 -0.26667 h 1.53328 v -1.066681 h -1.53328 v -0.26667 0 -0.333337 h 1.53328 V 64.73418 h -1.53328 v -0.400005 0 -0.26667 h 1.53328 v -1.066681 h -1.53328 v -0.333338 0 -0.26667 h 1.53328 v -1.06668 h -1.53328 v -0.400006 0 -0.333337 h 1.53328 v -1.066681 h -1.53328 v -0.26667 0 -0.400005 h 1.53328 v -1.066681 h -1.53328 v -0.06667 0 -0.466672 h 1.53328 v -1.066681 h -2.06659 v 1.066681 l 0.53331,-0.533341 V 55.73406 h -1.59994 v 0 h -0.26666 v -1.533353 h -1.06663 v 1.533353 h -0.33332 v 0 h -0.33332 v -1.533353 h -1.06663 v 1.533353 h -0.33332 v 0 h -0.26666 v -1.533353 h -1.06663 v 1.533353 h -0.33332 v 0 h -0.33332 v -1.533353 h -1.06663 v 1.533353 h -0.33332 v 0 h -0.26665 v -1.533353 h -1.06663 v 1.533353 h -0.33332 v 0 h -0.33332 V 54.200707 H 121.129 v 1.533353 h -0.33332 v 0 h -0.26666 v -1.533353 h -1.06663 v 1.533353 h -0.39998 v 0 h -0.33333 v -1.533353 h -1.06662 v 1.533353 h -0.26666 v 0 h -0.26666 v -1.533353 h -1.06663 v 1.533353 h -0.33332 v 0 h -0.33332 v -1.533353 h -1.06663 v 1.533353 h -0.33332 v 0 h -0.33332 v -1.533353 h -1.06663 v 1.533353 h -0.26666 v 0 h -0.33332 v -1.533353 h -1.06662 v 1.533353 h -0.26666 v 0 h -0.39999 v -1.533353 h -1.06663 v 1.533353 h -0.26665 v 0 h -0.26666 v -1.533353 h -1.06663 v 1.533353 h -0.39998 v 0 h -0.33332 v -1.533353 h -1.06663 v 1.533353 h -0.33332 v 0 h -0.26666 v -1.533353 h -1.06663 v 1.533353 h -0.39998 v 0 h -0.26666 v -1.533353 h -1.06663 v 1.533353 h -0.26666 v 0 h -0.39998 v -1.533353 h -1.06663 v 1.533353 h -0.26666 v 0 h -0.33332 v -1.533353 h -1.066627 v 1.533353 h -0.399985 v 0 h -0.06666 v -1.533353 h -1.066629 v 1.533353 h -0.733306 v 1.666689 0 0.26667 H 95.196605 V 58.7341 h 1.533278 v 0.400005 0 0.26667 h -1.533278 v 1.066681 h 1.533278 v 0.333337 0 0.26667 h -1.533278 v 1.066681 h 1.533278 v 0.400005 0 0.26667 H 95.196605 V 63.8675 h 1.533278 v 0.333338 0 0.26667 h -1.533278 v 1.06668 h 1.533278 v 0.400006 0 0.26667 h -1.533278 v 1.06668 h 1.533278 v 0.333338 0 0.26667 h -1.533278 v 1.066681 h 1.533278 v 0.400005 0 0.26667 h -1.533278 v 1.066681 h 1.533278 v 0.400005 0 0.26667 h -1.533278 v 1.066681 h 1.533278 v 0.333338 0 0.26667 h -1.533278 v 1.06668 h 1.533278 v 0.400006 0 0.26667 h -1.533278 v 1.06668 h 1.533278 v 0.400006 0 0.26667 h -1.533278 v 1.06668 h 1.533278 v 0.266671 0 0.333337 h -1.533278 v 1.066681 h 1.533278 v 0.400005 0 0.26667 h -1.533278 v 1.066681 h 1.533278 v 0.26667 0 0.333338 h -1.533278 v 1.06668 h 1.533278 v 0.400006 0 0.26667 h -1.533278 v 1.06668 h 1.533278 v 0.333338 0 0.26667 h -1.533278 v 1.066681 h 1.533278 v 0.400005 0 0.333338 h -1.533278 v 1.06668 h 1.533278 v 0.266671 0 0.400005 h -1.533278 v 1.06668 h 1.533278 v 0.06667 0 0.53334 h -1.533278 v 1.066681 h 2.066592 v -1.066681 l -0.533314,0.533341 v 0.400005 h 1.066628 v -0.933346 h -2.599906 v 1.066681 h 2.599906 v -1.600021 0 -1.133348 h -2.599906 v 1.06668 h 2.599906 v -1.466685 0 -1.333351 h -2.599906 v 1.06668 h 2.599906 v -1.400018 0 -1.466686 h -2.599906 v 1.066681 h 2.599906 v -1.333351 0 -1.400018 h -2.599906 v 1.06668 h 2.599906 v -1.33335 0 -1.466686 h -2.599906 v 1.06668 h 2.599906 v -1.400018 0 -1.333351 h -2.599906 v 1.066681 h 2.599906 v -1.333351 0 -1.466686 h -2.599906 v 1.066681 h 2.599906 v -1.400018 0 -1.333351 h -2.599906 v 1.06668 h 2.599906 v -1.33335 0 -1.466686 h -2.599906 v 1.06668 h 2.599906 v -1.33335 0 -1.466686 h -2.599906 v 1.06668 h 2.599906 v -1.33335 0 -1.400019 h -2.599906 v 1.066681 h 2.599906 v -1.333351 0 -1.466686 h -2.599906 v 1.066681 h 2.599906 v -1.333351 0 -1.466686 h -2.599906 v 1.066681 h 2.599906 v -1.333351 0 -1.400018 h -2.599906 v 1.06668 h 2.599906 v -1.33335 0 -1.466686 h -2.599906 v 1.06668 h 2.599906 v -1.33335 0 -1.400019 h -2.599906 v 1.066681 h 2.599906 v -1.333351 0 -1.466686 h -2.599906 v 1.066681 h 2.599906 v -1.333351 0 -1.400018 h -2.599906 v 1.066681 h 2.599906 v -1.333351 0 -1.466686 h -2.599906 v 1.066681 h 2.599906 v -1.933359 0 h 0.733307 v -2.600034 h -1.066629 v 2.600034 h 1.133293 v 0 h 1.466608 v -2.600034 h -1.066623 v 2.600034 h 1.399943 v 0 h 1.33329 v -2.600034 h -1.06663 v 2.600034 h 1.46661 v 0 h 1.33329 v -2.600034 h -1.06663 v 2.600034 h 1.33329 v 0 h 1.46661 v -2.600034 h -1.06663 v 2.600034 h 1.33329 v 0 h 1.39995 v -2.600034 h -1.06663 v 2.600034 h 1.39995 v 0 h 1.46661 v -2.600034 h -1.06663 v 2.600034 h 1.33329 v 0 h 1.33328 v -2.600034 h -1.06663 v 2.600034 h 1.46662 v 0 h 1.33328 v -2.600034 h -1.06662 v 2.600034 h 1.39994 v 0 h 1.33329 v -2.600034 h -1.06663 v 2.600034 h 1.39995 v 0 h 1.39995 v -2.600034 h -1.06663 v 2.600034 h 1.39995 v 0 h 1.39995 v -2.600034 h -1.06663 v 2.600034 h 1.33329 v 0 h 1.33328 v -2.600034 h -1.06662 v 2.600034 h 1.39995 v 0 h 1.46661 v -2.600034 h -1.06663 v 2.600034 h 1.33329 v 0 h 1.39995 V 54.200709 H 121.129 v 2.600034 h 1.39995 v 0 h 1.39995 v -2.600034 h -1.06663 v 2.600034 h 1.33328 v 0 h 1.39995 v -2.600034 h -1.06663 v 2.600034 h 1.39995 v 0 h 1.39995 v -2.600034 h -1.06663 v 2.600034 h 1.33329 v 0 h 1.39995 v -2.600034 h -1.06663 v 2.600034 h 1.39995 v 0 h 1.39995 v -2.600034 h -1.06663 v 2.600034 h 1.33329 v -1.066681 1.066681 h 1.06663 v -1.066681 l -0.53332,0.533341 v 1.000013 h 2.59991 v -1.066681 h -2.59991 v 1.533353 0 1.133349 h 2.59991 v -1.066681 h -2.59991 v 1.466686 0 1.333351 h 2.59991 v -1.066681 h -2.59991 v 1.400018 0 1.466686 h 2.59991 v -1.06668 h -2.59991 v 1.33335 0 1.400019 h 2.59991 v -1.066681 h -2.59991 v 1.333351 0 1.466686 h 2.59991 V 64.73418 h -2.59991 v 1.400018 0 1.333351 h 2.59991 v -1.066681 h -2.59991 v 1.333351 0 1.466686 h 2.59991 v -1.06668 h -2.59991 v 1.400018 0 1.333351 h 2.59991 v -1.066681 h -2.59991 v 1.333351 0 1.466686 h 2.59991 v -1.066681 h -2.59991 v 1.333351 0 1.466686 h 2.59991 v -1.066681 h -2.59991 v 1.333351 0 1.400018 h 2.59991 v -1.066681 h -2.59991 v 1.333351 0 1.466686 h 2.59991 v -1.066681 h -2.59991 v 1.333351 0 1.466686 h 2.59991 v -1.066681 h -2.59991 v 1.333351 0 1.400019 h 2.59991 v -1.066681 h -2.59991 v 1.333351 0 1.466686 h 2.59991 V 81.80107 h -2.59991 v 1.333351 0 1.400018 h 2.59991 v -1.066681 h -2.59991 v 1.333351 0 1.466686 h 2.59991 v -1.066681 h -2.59991 v 1.333351 0 1.400018 h 2.59991 v -1.06668 h -2.59991 v 1.333351 0 1.466685 h 2.59991 v -1.06668 h -2.59991 v 1.933358 0 h -0.59998 v 2.600034 h 1.06663 v -2.600034 h -1.13329 v 0 H 129.262 v 2.600034 h 1.06662 v -2.600034 h -1.39994 v 0 h -1.33329 v 2.600034 h 1.06663 v -2.600034 h -1.46662 v 0 h -1.33328 v 2.600034 h 1.06663 v -2.600034 h -1.33329 v 0 h -1.46661 v 2.600034 h 1.06663 v -2.600034 h -1.33329 v 0 h -1.39995 v 2.600034 h 1.06663 v -2.600034 h -1.39995 v 0 h -1.46661 v 2.600034 h 1.06663 v -2.600034 h -1.33329 v 0 h -1.33328 v 2.600034 h 1.06662 v -2.600034 h -1.46661 v 0 h -1.33329 v 2.600034 h 1.06663 v -2.600034 h -1.39995 v 0 h -1.33328 v 2.600034 h 1.06663 v -2.600034 h -1.39995 v 0 h -1.39995 v 2.600034 h 1.06663 v -2.600034 h -1.39995 v 0 h -1.39995 v 2.600034 h 1.06662 v -2.600034 h -1.33328 v 0 H 110.596 v 2.600034 h 1.06663 v -2.600034 h -1.39995 v 0 h -1.46661 v 2.600034 h 1.06663 v -2.600034 h -1.33329 v 0 h -1.39995 v 2.600034 h 1.06663 v -2.600034 h -1.39995 v 0 h -1.39995 v 2.600034 h 1.06663 v -2.600034 h -1.33328 v 0 h -1.39995 v 2.600034 h 1.06662 v -2.600034 h -1.39995 v 0 h -1.39995 v 2.600034 h 1.06663 v -2.600034 h -1.33328 v 0 h -1.39995 v 2.600034 h 1.06663 v -2.600034 h -1.399953 v 0 h -1.399949 v 2.600034 h 1.066628 v -2.600034 h -1.333285 v 1.066681 -1.066681 h -1.066628 v 1.066681 l 0.533314,-0.53334 v -0.933346 z" clip-path="url(#clipWmfPath1)" style="fill:#000000;fill-opacity:1;fill-rule:nonzero;stroke:#000000;stroke-width:0.0666643px;stroke-linecap:round;stroke-linejoin:round;stroke-miterlimit:4;stroke-dasharray:none;stroke-opacity:1" transform="rotate(180,138.395,169.59977)"/>
  <path id="path214" d="m 98.929759,59.60078 0.133329,-0.666676 0.333321,-0.53334 0.533314,-0.333338 0.666647,-0.133335 0.7333,0.133335 0.53332,0.333338 0.39998,0.53334 0.13333,0.666676 -0.13333,0.666675 -0.39998,0.53334 -0.53332,0.400005 -0.7333,0.133336 -0.666647,-0.133336 -0.533314,-0.400005 -0.333321,-0.53334 z" clip-path="url(#clipWmfPath1)" style="fill:#000000;fill-opacity:1;fill-rule:nonzero;stroke:none" transform="rotate(180,138.395,169.59977)"/>
  <path id="path216" d="m 98.929759,59.60078 0.133329,-0.666676 0.333321,-0.53334 0.533314,-0.333338 0.666647,-0.133335 0.7333,0.133335 0.53332,0.333338 0.39998,0.53334 0.13333,0.666676 -0.13333,0.666675 -0.39998,0.53334 -0.53332,0.400005 -0.7333,0.133336 -0.666647,-0.133336 -0.533314,-0.400005 -0.333321,-0.53334 z" clip-path="url(#clipWmfPath1)" style="fill:none;stroke:#000000;stroke-width:0.0666643px;stroke-linecap:round;stroke-linejoin:round;stroke-miterlimit:4;stroke-dasharray:none;stroke-opacity:1" transform="rotate(180,138.395,169.59977)"/>
  <path id="path218" d="m 97.263153,148.13527 v 0.40001 h 1.066628 v 0 h 0.799971 v 2.06669 -2.06669 h 0.866635 v 0 h 0.866633 v 2.06669 -2.06669 h 0.86664 v 0 h 0.79997 v 2.06669 -2.06669 h 0.86663 v 0 h 0.86664 v 2.06669 -2.06669 h 0.86664 v 0 h 0.79997 v 2.06669 -2.06669 h 0.86663 v 0 h 0.86664 v 2.06669 -2.06669 h 0.86663 v 0 h 0.79997 v 2.06669 -2.06669 h 0.9333 v 0 h 0.86664 v 2.06669 -2.06669 h 0.79997 v 0 h 0.79997 v 2.06669 -2.06669 h 0.86664 v 0 h 0.86663 v 2.06669 -2.06669 h 0.86664 v 0 h 0.86663 v 2.06669 -2.06669 h 0.79997 v 0 h 0.86664 v 2.06669 -2.06669 h 0.79997 v 0 h 0.9333 v 2.06669 -2.06669 h 0.79997 v 0 h 0.79997 v 2.06669 -2.06669 h 0.9333 v 0 h 0.86664 v 2.06669 -2.06669 h 0.86663 v 0 h 0.79997 v 2.06669 -2.06669 h 0.9333 v 0 h 0.79997 v 2.06669 -2.06669 h 0.79997 v 0 h 0.9333 v 2.06669 -2.06669 h 0.79998 v 0 h 0.86663 v 2.06669 -2.06669 h 1.06663 v 0 h 0.59998 v 2.06669 -2.06669 h 0.59998 v -1.13335 0 -0.80001 h 2.06659 -2.06659 v -0.93335 0 -0.80001 h 2.06659 -2.06659 v -0.86668 0 -0.80001 h 2.06659 -2.06659 v -0.93334 0 -0.80001 h 2.06659 -2.06659 v -0.86668 0 -0.80001 h 2.06659 -2.06659 v -0.93335 0 -0.80001 h 2.06659 -2.06659 v -0.86668 0 -0.80001 h 2.06659 -2.06659 v -0.93334 0 -0.80001 h 2.06659 -2.06659 v -0.93335 0 -0.80001 h 2.06659 -2.06659 v -0.86668 0 -0.80001 h 2.06659 -2.06659 v -0.93334 0 -0.80001 h 2.06659 -2.06659 v -0.93335 0 -0.80001 h 2.06659 -2.06659 v -0.80001 0 -0.86668 h 2.06659 -2.06659 v -0.93334 0 -0.80001 h 2.06659 -2.06659 v -0.80001 0 -0.86668 h 2.06659 -2.06659 v -0.93335 0 -0.80001 h 2.06659 -2.06659 v -0.86668 0 -0.80001 h 2.06659 -2.06659 v -0.93334 0 -0.86668 h 2.06659 -2.06659 v -0.80001 0 -0.93335 h 2.06659 -2.06659 v -0.6 0 -1.00002 h 2.06659 -2.06659 v -0.46667 h -1.06663 v 0 h -0.79997 v -2.06669 2.06669 h -0.86664 v 0 h -0.86663 v -2.06669 2.06669 h -0.86664 v 0 h -0.79997 v -2.06669 2.06669 h -0.86664 v 0 h -0.86663 v -2.06669 2.06669 h -0.86664 v 0 h -0.79997 v -2.06669 2.06669 h -0.86663 v 0 h -0.86664 v -2.06669 2.06669 h -0.86663 v 0 h -0.79998 v -2.06669 2.06669 h -0.93329 v 0 h -0.86664 v -2.06669 2.06669 h -0.79997 v 0 h -0.79997 v -2.06669 2.06669 h -0.86664 v 0 h -0.86663 v -2.06669 2.06669 h -0.86664 v 0 h -0.86663 v -2.06669 2.06669 h -0.79998 v 0 h -0.86663 v -2.06669 2.06669 h -0.79997 v 0 h -0.9333 v -2.06669 2.06669 h -0.79997 v 0 h -0.79997 v -2.06669 2.06669 h -0.9333 v 0 h -0.86664 v -2.06669 2.06669 h -0.86663 v 0 h -0.79997 v -2.06669 2.06669 h -0.9333 v 0 h -0.79998 v -2.06669 2.06669 h -0.79997 v 0 h -0.9333 v -2.06669 2.06669 h -0.79997 v 0 h -0.866633 v -2.06669 2.06669 h -0.933299 v 0 h -0.599979 v -2.06669 2.06669 h -0.733306 v 1.13335 0 0.80001 h -2.066592 2.066592 v 0.93335 0 0.80001 h -2.066592 2.066592 v 0.86667 0 0.80001 h -2.066592 2.066592 v 0.93335 0 0.80001 h -2.066592 2.066592 v 0.86668 0 0.80001 h -2.066592 2.066592 v 0.93334 0 0.80001 h -2.066592 2.066592 v 0.86668 0 0.80001 h -2.066592 2.066592 v 0.93335 0 0.80001 h -2.066592 2.066592 v 0.93334 0 0.80001 h -2.066592 2.066592 v 0.86668 0 0.80001 h -2.066592 2.066592 v 0.93335 0 0.80001 h -2.066592 2.066592 v 0.93334 0 0.80002 h -2.066592 2.066592 v 0.80001 0 0.86667 h -2.066592 2.066592 v 0.93335 0 0.80001 h -2.066592 2.066592 v 0.80001 0 0.86668 h -2.066592 2.066592 v 0.93334 0 0.80001 h -2.066592 2.066592 v 0.86668 0 0.80001 h -2.066592 2.066592 v 0.93335 0 0.86668 h -2.066592 2.066592 v 0.80001 0 0.93334 h -2.066592 2.066592 v 0.60001 0 1.06668 h -2.066592 z" clip-path="url(#clipWmfPath1)" style="fill:#000000;fill-opacity:1;fill-rule:nonzero;stroke:none" transform="rotate(180,138.395,169.59977)"/>
  <path id="path220" d="m 95.196561,147.60193 v 1.06668 h 2.066592 v -1.06668 l -0.533314,0.53334 v 0.93335 h 1.599942 v 0 h 0.266657 v 1.53335 h 1.066628 v -1.53335 h 0.333321 v 0 h 0.333323 v 1.53335 h 1.06663 v -1.53335 h 0.33332 v 0 h 0.26665 v 1.53335 h 1.06663 v -1.53335 h 0.33332 v 0 h 0.33333 v 1.53335 h 1.06662 v -1.53335 h 0.33333 v 0 h 0.26665 v 1.53335 h 1.06663 v -1.53335 h 0.33332 v 0 h 0.33332 v 1.53335 h 1.06663 v -1.53335 h 0.33332 v 0 h 0.26666 v 1.53335 h 1.06663 v -1.53335 h 0.39998 v 0 h 0.33332 v 1.53335 h 1.06663 v -1.53335 h 0.26666 v 0 h 0.26666 v 1.53335 h 1.06662 v -1.53335 h 0.33333 v 0 h 0.33332 v 1.53335 h 1.06663 v -1.53335 h 0.33332 v 0 h 0.33332 v 1.53335 h 1.06663 v -1.53335 h 0.26665 v 0 h 0.33332 v 1.53335 h 1.06663 v -1.53335 h 0.26666 v 0 h 0.39999 v 1.53335 h 1.06662 v -1.53335 h 0.26666 v 0 h 0.26666 v 1.53335 h 1.06663 v -1.53335 h 0.39998 v 0 h 0.33332 v 1.53335 h 1.06663 v -1.53335 h 0.33332 v 0 h 0.26666 v 1.53335 h 1.06663 v -1.53335 h 0.39998 v 0 h 0.26666 v 1.53335 h 1.06663 v -1.53335 h 0.26665 v 0 h 0.39999 v 1.53335 h 1.06663 v -1.53335 h 0.26666 v 0 h 0.33332 v 1.53335 h 1.06662 v -1.53335 h 0.53332 v 0 h 0.0667 v 1.53335 h 1.06663 v -1.53335 h 0.59998 v -1.66669 0 -0.26667 h 1.53328 v -1.06668 h -1.53328 v -0.40001 0 -0.26667 h 1.53328 v -1.06668 h -1.53328 v -0.33334 0 -0.26667 h 1.53328 v -1.06668 h -1.53328 v -0.4 0 -0.26667 h 1.53328 v -1.06668 h -1.53328 v -0.33334 0 -0.26667 h 1.53328 v -1.06668 h -1.53328 v -0.40001 0 -0.26667 h 1.53328 v -1.06668 h -1.53328 v -0.33334 0 -0.26667 h 1.53328 v -1.06668 h -1.53328 v -0.4 0 -0.26667 h 1.53328 v -1.06668 h -1.53328 v -0.40001 0 -0.26667 h 1.53328 v -1.06668 h -1.53328 v -0.33334 0 -0.26667 h 1.53328 v -1.06668 h -1.53328 v -0.4 0 -0.26667 h 1.53328 v -1.06668 h -1.53328 v -0.40001 0 -0.26667 h 1.53328 v -1.06668 h -1.53328 v -0.26667 0 -0.33334 h 1.53328 v -1.06668 h -1.53328 v -0.4 0 -0.26667 h 1.53328 v -1.06668 h -1.53328 v -0.26667 0 -0.33334 h 1.53328 v -1.06668 h -1.53328 v -0.40001 0 -0.26667 h 1.53328 v -1.06668 h -1.53328 v -0.33334 0 -0.26667 h 1.53328 v -1.06668 h -1.53328 v -0.4 0 -0.33334 h 1.53328 v -1.06668 h -1.53328 v -0.26667 0 -0.40001 h 1.53328 v -1.06668 h -1.53328 v -0.0667 0 -0.46668 h 1.53328 v -1.06668 h -2.06659 v 1.06668 l 0.53331,-0.53334 v -1.00001 h -1.59994 v 0 h -0.26666 v -1.53335 h -1.06663 v 1.53335 h -0.33332 v 0 h -0.33332 v -1.53335 h -1.06663 v 1.53335 h -0.33332 v 0 h -0.26666 v -1.53335 h -1.06663 v 1.53335 h -0.33332 v 0 h -0.33332 v -1.53335 h -1.06663 v 1.53335 h -0.33332 v 0 h -0.26665 v -1.53335 h -1.06663 v 1.53335 h -0.33332 v 0 h -0.33332 v -1.53335 H 121.129 v 1.53335 h -0.33332 v 0 h -0.26666 v -1.53335 h -1.06663 v 1.53335 h -0.39998 v 0 h -0.33333 v -1.53335 h -1.06662 v 1.53335 h -0.26666 v 0 h -0.26666 v -1.53335 h -1.06663 v 1.53335 h -0.33332 v 0 h -0.33332 v -1.53335 h -1.06663 v 1.53335 h -0.33332 v 0 h -0.33332 v -1.53335 h -1.06663 v 1.53335 h -0.26666 v 0 h -0.33332 v -1.53335 h -1.06662 v 1.53335 h -0.26666 v 0 h -0.39999 v -1.53335 h -1.06663 v 1.53335 h -0.26665 v 0 h -0.26666 v -1.53335 h -1.06663 v 1.53335 h -0.39998 v 0 h -0.33332 v -1.53335 h -1.06663 v 1.53335 h -0.33332 v 0 h -0.26666 v -1.53335 h -1.06663 v 1.53335 h -0.39998 v 0 h -0.26666 v -1.53335 h -1.06663 v 1.53335 h -0.26666 v 0 h -0.39998 v -1.53335 h -1.06663 v 1.53335 h -0.26666 v 0 h -0.33332 v -1.53335 h -1.066627 v 1.53335 h -0.399985 v 0 h -0.06666 v -1.53335 h -1.066629 v 1.53335 h -0.733306 v 1.66669 0 0.26667 h -1.533278 v 1.06668 h 1.533278 v 0.40001 0 0.26667 h -1.533278 v 1.06668 h 1.533278 v 0.33333 0 0.26667 h -1.533278 v 1.06668 h 1.533278 v 0.40001 0 0.26667 h -1.533278 v 1.06668 h 1.533278 v 0.33334 0 0.26667 h -1.533278 v 1.06668 h 1.533278 v 0.4 0 0.26667 h -1.533278 v 1.06668 h 1.533278 v 0.33334 0 0.26667 h -1.533278 v 1.06668 h 1.533278 v 0.40001 0 0.26667 h -1.533278 v 1.06668 h 1.533278 v 0.4 0 0.26667 h -1.533278 v 1.06669 h 1.533278 v 0.33333 0 0.26667 h -1.533278 v 1.06668 h 1.533278 v 0.40001 0 0.26667 h -1.533278 v 1.06668 h 1.533278 v 0.4 0 0.26668 h -1.533278 v 1.06668 h 1.533278 v 0.26667 0 0.33333 h -1.533278 v 1.06668 h 1.533278 v 0.40001 0 0.26667 h -1.533278 v 1.06668 h 1.533278 v 0.26667 0 0.33334 h -1.533278 v 1.06668 h 1.533278 v 0.4 0 0.26667 h -1.533278 v 1.06668 h 1.533278 v 0.33334 0 0.26667 h -1.533278 v 1.06668 h 1.533278 v 0.40001 0 0.33334 h -1.533278 v 1.06668 h 1.533278 v 0.26667 0 0.4 h -1.533278 v 1.06668 h 1.533278 v 0.0667 0 0.53334 h -1.533278 v 1.06668 h 2.066592 v -1.06668 l -0.533314,0.53334 v 0.40001 h 1.066628 v -0.93335 h -2.599906 v 1.06668 h 2.599906 v -1.60002 0 -1.13335 h -2.599906 v 1.06668 h 2.599906 v -1.46668 0 -1.33335 h -2.599906 v 1.06668 h 2.599906 v -1.40002 0 -1.46669 h -2.599906 v 1.06668 h 2.599906 v -1.33335 0 -1.40002 h -2.599906 v 1.06668 h 2.599906 v -1.33335 0 -1.46668 h -2.599906 v 1.06668 h 2.599906 v -1.40002 0 -1.33335 h -2.599906 v 1.06668 h 2.599906 v -1.33335 0 -1.46669 h -2.599906 v 1.06668 h 2.599906 v -1.40001 0 -1.33335 h -2.599906 v 1.06668 h 2.599906 v -1.33336 0 -1.46668 h -2.599906 v 1.06668 h 2.599906 v -1.33335 0 -1.46669 h -2.599906 v 1.06668 h 2.599906 v -1.33335 0 -1.40002 h -2.599906 v 1.06669 h 2.599906 v -1.33336 0 -1.46668 h -2.599906 v 1.06668 h 2.599906 v -1.33335 0 -1.46669 h -2.599906 v 1.06668 h 2.599906 v -1.33335 0 -1.40002 h -2.599906 v 1.06668 h 2.599906 v -1.33335 0 -1.46668 h -2.599906 v 1.06668 h 2.599906 v -1.33335 0 -1.40002 h -2.599906 v 1.06668 h 2.599906 v -1.33335 0 -1.46669 h -2.599906 v 1.06668 h 2.599906 v -1.33335 0 -1.40001 h -2.599906 v 1.06668 h 2.599906 v -1.33335 0 -1.46669 h -2.599906 v 1.06668 h 2.599906 v -1.93336 0 h 0.733307 v -2.60003 h -1.066629 v 2.60003 h 1.133293 v 0 h 1.466608 v -2.60003 h -1.066623 v 2.60003 h 1.399943 v 0 h 1.33329 v -2.60003 h -1.06663 v 2.60003 h 1.46661 v 0 h 1.33329 v -2.60003 h -1.06663 v 2.60003 h 1.33329 v 0 h 1.46661 v -2.60003 h -1.06663 v 2.60003 h 1.33329 v 0 h 1.39995 v -2.60003 h -1.06663 v 2.60003 h 1.39995 v 0 h 1.46661 v -2.60003 h -1.06663 v 2.60003 h 1.33329 v 0 h 1.33328 v -2.60003 h -1.06663 v 2.60003 h 1.46662 v 0 h 1.33328 v -2.60003 h -1.06662 v 2.60003 h 1.39994 v 0 h 1.33329 v -2.60003 h -1.06663 v 2.60003 h 1.39995 v 0 h 1.39995 v -2.60003 h -1.06663 v 2.60003 h 1.39995 v 0 h 1.39995 v -2.60003 h -1.06663 v 2.60003 h 1.33329 v 0 h 1.33328 v -2.60003 h -1.06662 v 2.60003 h 1.39995 v 0 h 1.46661 v -2.60003 h -1.06663 v 2.60003 h 1.33329 v 0 h 1.39995 v -2.60003 H 121.129 v 2.60003 h 1.39995 v 0 h 1.39995 v -2.60003 h -1.06663 v 2.60003 h 1.33328 v 0 h 1.39995 v -2.60003 h -1.06663 v 2.60003 h 1.39995 v 0 h 1.39995 v -2.60003 h -1.06663 v 2.60003 h 1.33329 v 0 h 1.39995 v -2.60003 h -1.06663 v 2.60003 h 1.39995 v 0 h 1.39995 v -2.60003 h -1.06663 v 2.60003 h 1.33329 v -1.06668 1.06668 h 1.06663 v -1.06668 l -0.53332,0.53334 v 1.00001 h 2.59991 v -1.06668 h -2.59991 v 1.53336 0 1.13334 h 2.59991 v -1.06668 h -2.59991 v 1.46669 0 1.33335 h 2.59991 v -1.06668 h -2.59991 v 1.40002 0 1.46668 h 2.59991 v -1.06668 h -2.59991 v 1.33335 0 1.40002 h 2.59991 v -1.06668 h -2.59991 v 1.33335 0 1.46669 h 2.59991 v -1.06668 h -2.59991 v 1.40002 0 1.33335 h 2.59991 v -1.06668 h -2.59991 v 1.33335 0 1.46668 h 2.59991 v -1.06668 h -2.59991 v 1.40002 0 1.33335 h 2.59991 v -1.06668 h -2.59991 v 1.33335 0 1.46669 h 2.59991 v -1.06668 h -2.59991 v 1.33335 0 1.46668 h 2.59991 v -1.06668 h -2.59991 v 1.33335 0 1.40002 h 2.59991 v -1.06668 h -2.59991 v 1.33335 0 1.46669 h 2.59991 v -1.06668 h -2.59991 v 1.33335 0 1.46668 h 2.59991 v -1.06668 h -2.59991 v 1.33335 0 1.40002 h 2.59991 v -1.06668 h -2.59991 v 1.33335 0 1.46669 h 2.59991 v -1.06668 h -2.59991 v 1.33335 0 1.40002 h 2.59991 v -1.06668 h -2.59991 v 1.33335 0 1.46668 h 2.59991 v -1.06668 h -2.59991 v 1.33335 0 1.40002 h 2.59991 v -1.06668 h -2.59991 v 1.33335 0 1.46669 h 2.59991 v -1.06668 h -2.59991 v 1.93336 0 h -0.59998 v 2.60003 h 1.06663 v -2.60003 h -1.13329 v 0 H 129.262 v 2.60003 h 1.06662 v -2.60003 h -1.39994 v 0 h -1.33329 v 2.60003 h 1.06663 v -2.60003 h -1.46662 v 0 h -1.33328 v 2.60003 h 1.06663 v -2.60003 h -1.33329 v 0 h -1.46661 v 2.60003 h 1.06663 v -2.60003 h -1.33329 v 0 h -1.39995 v 2.60003 h 1.06663 v -2.60003 h -1.39995 v 0 h -1.46661 v 2.60003 h 1.06663 v -2.60003 h -1.33329 v 0 h -1.33328 v 2.60003 h 1.06662 v -2.60003 h -1.46661 v 0 h -1.33329 v 2.60003 h 1.06663 v -2.60003 h -1.39995 v 0 h -1.33328 v 2.60003 h 1.06663 v -2.60003 h -1.39995 v 0 h -1.39995 v 2.60003 h 1.06663 v -2.60003 h -1.39995 v 0 h -1.39995 v 2.60003 h 1.06662 v -2.60003 h -1.33328 v 0 H 110.596 v 2.60003 h 1.06663 v -2.60003 h -1.39995 v 0 h -1.46661 v 2.60003 h 1.06663 v -2.60003 h -1.33329 v 0 h -1.39995 v 2.60003 h 1.06663 v -2.60003 h -1.39995 v 0 h -1.39995 v 2.60003 h 1.06663 v -2.60003 h -1.33328 v 0 h -1.39995 v 2.60003 h 1.06662 v -2.60003 h -1.39995 v 0 h -1.39995 v 2.60003 h 1.06663 v -2.60003 h -1.33328 v 0 h -1.39995 v 2.60003 h 1.06663 v -2.60003 h -1.399953 v 0 h -1.399949 v 2.60003 h 1.066628 v -2.60003 h -1.333285 v 1.06668 -1.06668 h -1.066628 v 1.06668 l 0.533314,-0.53334 v -0.93335 z" clip-path="url(#clipWmfPath1)" style="fill:#000000;fill-opacity:1;fill-rule:nonzero;stroke:#000000;stroke-width:0.0666643px;stroke-linecap:round;stroke-linejoin:round;stroke-miterlimit:4;stroke-dasharray:none;stroke-opacity:1" transform="rotate(180,138.395,169.59977)"/>
  <path id="path222" d="m 98.929759,117.0682 0.133329,-0.66668 0.333321,-0.53334 0.533314,-0.33334 0.666647,-0.13333 0.7333,0.13333 0.53332,0.33334 0.39998,0.53334 0.13333,0.66668 -0.13333,0.66667 -0.39998,0.53334 -0.53332,0.40001 -0.7333,0.13333 -0.666647,-0.13333 -0.533314,-0.40001 -0.333321,-0.53334 z" clip-path="url(#clipWmfPath1)" style="fill:#000000;fill-opacity:1;fill-rule:nonzero;stroke:none" transform="rotate(180,138.395,169.59977)"/>
  <path id="path224" d="m 98.929759,117.0682 0.133329,-0.66668 0.333321,-0.53334 0.533314,-0.33334 0.666647,-0.13333 0.7333,0.13333 0.53332,0.33334 0.39998,0.53334 0.13333,0.66668 -0.13333,0.66667 -0.39998,0.53334 -0.53332,0.40001 -0.7333,0.13333 -0.666647,-0.13333 -0.533314,-0.40001 -0.333321,-0.53334 z" clip-path="url(#clipWmfPath1)" style="fill:none;stroke:#000000;stroke-width:0.0666643px;stroke-linecap:round;stroke-linejoin:round;stroke-miterlimit:4;stroke-dasharray:none;stroke-opacity:1" transform="rotate(180,138.395,169.59977)"/>
  <path id="path226" d="m 97.263153,205.06935 v 0.4 h 1.066628 v 0 h 0.799971 v 2.0667 -2.0667 h 0.866635 v 0 h 0.866633 v 2.0667 -2.0667 h 0.86664 v 0 h 0.79997 v 2.0667 -2.0667 h 0.86663 v 0 h 0.86664 v 2.0667 -2.0667 h 0.86664 v 0 h 0.79997 v 2.0667 -2.0667 h 0.86663 v 0 h 0.86664 v 2.0667 -2.0667 h 0.86663 v 0 h 0.79997 v 2.0667 -2.0667 h 0.9333 v 0 h 0.86664 v 2.0667 -2.0667 h 0.79997 v 0 h 0.79997 v 2.0667 -2.0667 h 0.86664 v 0 h 0.86663 v 2.0667 -2.0667 h 0.86664 v 0 h 0.86663 v 2.0667 -2.0667 h 0.79997 v 0 h 0.86664 v 2.0667 -2.0667 h 0.79997 v 0 h 0.9333 v 2.0667 -2.0667 h 0.79997 v 0 h 0.79997 v 2.0667 -2.0667 h 0.9333 v 0 h 0.86664 v 2.0667 -2.0667 h 0.86663 v 0 h 0.79997 v 2.0667 -2.0667 h 0.9333 v 0 h 0.79997 v 2.0667 -2.0667 h 0.79997 v 0 h 0.9333 v 2.0667 -2.0667 h 0.79998 v 0 h 0.86663 v 2.0667 -2.0667 h 1.06663 v 0 h 0.59998 v 2.0667 -2.0667 h 0.59998 v -1.13334 0 -0.80001 h 2.06659 -2.06659 v -0.93335 0 -0.80001 h 2.06659 -2.06659 v -0.86668 0 -0.80001 h 2.06659 -2.06659 v -0.93334 0 -0.80001 h 2.06659 -2.06659 v -0.86668 0 -0.80001 h 2.06659 -2.06659 v -0.93335 0 -0.80001 h 2.06659 -2.06659 v -0.86668 0 -0.80001 h 2.06659 -2.06659 v -0.93334 0 -0.80001 h 2.06659 -2.06659 v -0.93335 0 -0.80001 h 2.06659 -2.06659 v -0.86668 0 -0.80001 h 2.06659 -2.06659 v -0.93334 0 -0.80001 h 2.06659 -2.06659 v -0.93335 0 -0.80001 h 2.06659 -2.06659 v -0.80001 0 -0.86668 h 2.06659 -2.06659 v -0.93334 0 -0.80001 h 2.06659 -2.06659 v -0.80002 0 -0.86667 h 2.06659 -2.06659 v -0.93335 0 -0.80001 h 2.06659 -2.06659 v -0.86668 0 -0.80001 h 2.06659 -2.06659 v -0.93334 0 -0.86668 h 2.06659 -2.06659 v -0.80001 0 -0.93335 h 2.06659 -2.06659 v -0.60001 0 -1.00001 h 2.06659 -2.06659 v -0.46667 h -1.06663 v 0 h -0.79997 v -2.06669 2.06669 h -0.86664 v 0 h -0.86663 v -2.06669 2.06669 h -0.86664 v 0 h -0.79997 v -2.06669 2.06669 h -0.86664 v 0 h -0.86663 v -2.06669 2.06669 h -0.86664 v 0 h -0.79997 v -2.06669 2.06669 h -0.86663 v 0 h -0.86664 v -2.06669 2.06669 h -0.86663 v 0 h -0.79998 v -2.06669 2.06669 h -0.93329 v 0 h -0.86664 v -2.06669 2.06669 h -0.79997 v 0 h -0.79997 v -2.06669 2.06669 h -0.86664 v 0 h -0.86663 v -2.06669 2.06669 h -0.86664 v 0 h -0.86663 v -2.06669 2.06669 h -0.79998 v 0 h -0.86663 v -2.06669 2.06669 h -0.79997 v 0 h -0.9333 v -2.06669 2.06669 h -0.79997 v 0 h -0.79997 v -2.06669 2.06669 h -0.9333 v 0 h -0.86664 v -2.06669 2.06669 h -0.86663 v 0 h -0.79997 v -2.06669 2.06669 h -0.9333 v 0 h -0.79998 v -2.06669 2.06669 h -0.79997 v 0 h -0.9333 v -2.06669 2.06669 h -0.79997 v 0 h -0.866633 v -2.06669 2.06669 h -0.933299 v 0 h -0.599979 v -2.06669 2.06669 h -0.733306 v 1.13335 0 0.80001 h -2.066592 2.066592 v 0.93334 0 0.80001 h -2.066592 2.066592 v 0.86668 0 0.80001 h -2.066592 2.066592 v 0.93335 0 0.80001 h -2.066592 2.066592 v 0.86668 0 0.80001 h -2.066592 2.066592 v 0.93334 0 0.80001 h -2.066592 2.066592 v 0.86668 0 0.80001 h -2.066592 2.066592 v 0.93335 0 0.80001 h -2.066592 2.066592 v 0.93334 0 0.80001 h -2.066592 2.066592 v 0.86668 0 0.80001 h -2.066592 2.066592 v 0.93335 0 0.80001 h -2.066592 2.066592 v 0.93334 0 0.80001 h -2.066592 2.066592 v 0.80001 0 0.86668 h -2.066592 2.066592 v 0.93335 0 0.80001 h -2.066592 2.066592 v 0.80001 0 0.86668 h -2.066592 2.066592 v 0.93334 0 0.80001 h -2.066592 2.066592 v 0.86668 0 0.80001 h -2.066592 2.066592 v 0.93335 0 0.86667 h -2.066592 2.066592 v 0.80001 0 0.93335 h -2.066592 2.066592 v 0.60001 0 1.06668 h -2.066592 z" clip-path="url(#clipWmfPath1)" style="fill:#000000;fill-opacity:1;fill-rule:nonzero;stroke:none" transform="rotate(180,138.395,169.59977)"/>
  <path id="path228" d="m 95.196561,204.53601 v 1.06668 h 2.066592 v -1.06668 l -0.533314,0.53334 v 0.93334 h 1.599942 v 0 h 0.266657 v 1.53336 h 1.066628 v -1.53336 h 0.333321 v 0 h 0.333323 v 1.53336 h 1.06663 v -1.53336 h 0.33332 v 0 h 0.26665 v 1.53336 h 1.06663 v -1.53336 h 0.33332 v 0 h 0.33333 v 1.53336 h 1.06662 v -1.53336 h 0.33333 v 0 h 0.26665 v 1.53336 h 1.06663 v -1.53336 h 0.33332 v 0 h 0.33332 v 1.53336 h 1.06663 v -1.53336 h 0.33332 v 0 h 0.26666 v 1.53336 h 1.06663 v -1.53336 h 0.39998 v 0 h 0.33332 v 1.53336 h 1.06663 v -1.53336 h 0.26666 v 0 h 0.26666 v 1.53336 h 1.06662 v -1.53336 h 0.33333 v 0 h 0.33332 v 1.53336 h 1.06663 v -1.53336 h 0.33332 v 0 h 0.33332 v 1.53336 h 1.06663 v -1.53336 h 0.26665 v 0 h 0.33332 v 1.53336 h 1.06663 v -1.53336 h 0.26666 v 0 h 0.39999 v 1.53336 h 1.06662 v -1.53336 h 0.26666 v 0 h 0.26666 v 1.53336 h 1.06663 v -1.53336 h 0.39998 v 0 h 0.33332 v 1.53336 h 1.06663 v -1.53336 h 0.33332 v 0 h 0.26666 v 1.53336 h 1.06663 v -1.53336 h 0.39998 v 0 h 0.26666 v 1.53336 h 1.06663 v -1.53336 h 0.26665 v 0 h 0.39999 v 1.53336 h 1.06663 v -1.53336 h 0.26666 v 0 h 0.33332 v 1.53336 h 1.06662 v -1.53336 h 0.53332 v 0 h 0.0667 v 1.53336 h 1.06663 v -1.53336 h 0.59998 v -1.66668 0 -0.26667 h 1.53328 v -1.06668 h -1.53328 v -0.40001 0 -0.26667 h 1.53328 v -1.06668 h -1.53328 v -0.33334 0 -0.26667 h 1.53328 v -1.06668 h -1.53328 v -0.4 0 -0.26667 h 1.53328 v -1.06669 h -1.53328 v -0.33333 0 -0.26667 h 1.53328 v -1.06668 h -1.53328 v -0.40001 0 -0.26667 h 1.53328 v -1.06668 h -1.53328 v -0.33334 0 -0.26667 h 1.53328 v -1.06668 h -1.53328 v -0.4 0 -0.26667 h 1.53328 v -1.06668 h -1.53328 v -0.40001 0 -0.26667 h 1.53328 v -1.06668 h -1.53328 v -0.33334 0 -0.26667 h 1.53328 v -1.06668 h -1.53328 v -0.4 0 -0.26667 h 1.53328 v -1.06668 h -1.53328 v -0.40001 0 -0.26667 h 1.53328 v -1.06668 h -1.53328 v -0.26667 0 -0.33334 h 1.53328 v -1.06668 h -1.53328 v -0.4 0 -0.26667 h 1.53328 v -1.06669 h -1.53328 v -0.26667 0 -0.33333 h 1.53328 v -1.06668 h -1.53328 v -0.40001 0 -0.26667 h 1.53328 v -1.06668 h -1.53328 v -0.33334 0 -0.26667 h 1.53328 v -1.06668 h -1.53328 v -0.4 0 -0.33334 h 1.53328 v -1.06668 h -1.53328 v -0.26667 0 -0.40001 h 1.53328 v -1.06668 h -1.53328 v -0.0667 0 -0.46667 h 1.53328 v -1.06668 h -2.06659 v 1.06668 l 0.53331,-0.53334 v -1.00001 h -1.59994 v 0 h -0.26666 v -1.53335 h -1.06663 v 1.53335 h -0.33332 v 0 h -0.33332 v -1.53335 h -1.06663 v 1.53335 h -0.33332 v 0 h -0.26666 v -1.53335 h -1.06663 v 1.53335 h -0.33332 v 0 h -0.33332 v -1.53335 h -1.06663 v 1.53335 h -0.33332 v 0 h -0.26665 v -1.53335 h -1.06663 v 1.53335 h -0.33332 v 0 h -0.33332 v -1.53335 H 121.129 v 1.53335 h -0.33332 v 0 h -0.26666 v -1.53335 h -1.06663 v 1.53335 h -0.39998 v 0 h -0.33333 v -1.53335 h -1.06662 v 1.53335 h -0.26666 v 0 h -0.26666 v -1.53335 h -1.06663 v 1.53335 h -0.33332 v 0 h -0.33332 v -1.53335 h -1.06663 v 1.53335 h -0.33332 v 0 h -0.33332 v -1.53335 h -1.06663 v 1.53335 h -0.26666 v 0 h -0.33332 v -1.53335 h -1.06662 v 1.53335 h -0.26666 v 0 h -0.39999 v -1.53335 h -1.06663 v 1.53335 h -0.26665 v 0 h -0.26666 v -1.53335 h -1.06663 v 1.53335 h -0.39998 v 0 h -0.33332 v -1.53335 h -1.06663 v 1.53335 h -0.33332 v 0 h -0.26666 v -1.53335 h -1.06663 v 1.53335 h -0.39998 v 0 h -0.26666 v -1.53335 h -1.06663 v 1.53335 h -0.26666 v 0 h -0.39998 v -1.53335 h -1.06663 v 1.53335 h -0.26666 v 0 h -0.33332 v -1.53335 h -1.066627 v 1.53335 h -0.399985 v 0 h -0.06666 v -1.53335 h -1.066629 v 1.53335 h -0.733306 v 1.66669 0 0.26667 h -1.533278 v 1.06668 h 1.533278 v 0.4 0 0.26667 h -1.533278 v 1.06668 h 1.533278 v 0.33334 0 0.26667 h -1.533278 v 1.06668 h 1.533278 v 0.40001 0 0.26667 h -1.533278 v 1.06668 h 1.533278 v 0.33334 0 0.26667 h -1.533278 v 1.06668 h 1.533278 v 0.4 0 0.26667 h -1.533278 v 1.06668 h 1.533278 v 0.33334 0 0.26667 h -1.533278 v 1.06668 h 1.533278 v 0.40001 0 0.26667 h -1.533278 v 1.06668 h 1.533278 v 0.4 0 0.26667 h -1.533278 v 1.06668 h 1.533278 v 0.33334 0 0.26667 h -1.533278 v 1.06668 h 1.533278 v 0.40001 0 0.26667 h -1.533278 v 1.06668 h 1.533278 v 0.4 0 0.26667 h -1.533278 v 1.06668 h 1.533278 v 0.26667 0 0.33334 h -1.533278 v 1.06668 h 1.533278 v 0.40001 0 0.26667 h -1.533278 v 1.06668 h 1.533278 v 0.26667 0 0.33334 h -1.533278 v 1.06668 h 1.533278 v 0.4 0 0.26667 h -1.533278 v 1.06668 h 1.533278 v 0.33334 0 0.26667 h -1.533278 v 1.06668 h 1.533278 v 0.40001 0 0.33333 h -1.533278 v 1.06668 h 1.533278 v 0.26667 0 0.40001 h -1.533278 v 1.06668 h 1.533278 v 0.0667 0 0.53334 h -1.533278 v 1.06668 h 2.066592 v -1.06668 l -0.533314,0.53334 v 0.4 h 1.066628 v -0.93334 h -2.599906 v 1.06668 h 2.599906 v -1.60002 0 -1.13335 h -2.599906 v 1.06668 h 2.599906 v -1.46669 0 -1.33335 h -2.599906 v 1.06668 h 2.599906 v -1.40001 0 -1.46669 h -2.599906 v 1.06668 h 2.599906 v -1.33335 0 -1.40002 h -2.599906 v 1.06668 h 2.599906 v -1.33335 0 -1.46668 h -2.599906 v 1.06668 h 2.599906 v -1.40002 0 -1.33335 h -2.599906 v 1.06668 h 2.599906 v -1.33335 0 -1.46669 h -2.599906 v 1.06668 h 2.599906 v -1.40002 0 -1.33335 h -2.599906 v 1.06668 h 2.599906 v -1.33335 0 -1.46668 h -2.599906 v 1.06668 h 2.599906 v -1.33335 0 -1.46669 h -2.599906 v 1.06668 h 2.599906 v -1.33335 0 -1.40002 h -2.599906 v 1.06668 h 2.599906 v -1.33335 0 -1.46668 h -2.599906 v 1.06668 h 2.599906 v -1.33335 0 -1.46669 h -2.599906 v 1.06668 h 2.599906 v -1.33335 0 -1.40002 h -2.599906 v 1.06668 h 2.599906 v -1.33335 0 -1.46668 h -2.599906 v 1.06668 h 2.599906 v -1.33335 0 -1.40002 h -2.599906 v 1.06668 h 2.599906 v -1.33335 0 -1.46669 h -2.599906 v 1.06668 h 2.599906 v -1.33335 0 -1.40002 h -2.599906 v 1.06668 h 2.599906 v -1.33335 0 -1.46668 h -2.599906 v 1.06668 h 2.599906 v -1.93336 0 h 0.733307 v -2.60003 h -1.066629 v 2.60003 h 1.133293 v 0 h 1.466608 v -2.60003 h -1.066623 v 2.60003 h 1.399943 v 0 h 1.33329 v -2.60003 h -1.06663 v 2.60003 h 1.46661 v 0 h 1.33329 v -2.60003 h -1.06663 v 2.60003 h 1.33329 v 0 h 1.46661 v -2.60003 h -1.06663 v 2.60003 h 1.33329 v 0 h 1.39995 v -2.60003 h -1.06663 v 2.60003 h 1.39995 v 0 h 1.46661 v -2.60003 h -1.06663 v 2.60003 h 1.33329 v 0 h 1.33328 v -2.60003 h -1.06663 v 2.60003 h 1.46662 v 0 h 1.33328 v -2.60003 h -1.06662 v 2.60003 h 1.39994 v 0 h 1.33329 v -2.60003 h -1.06663 v 2.60003 h 1.39995 v 0 h 1.39995 v -2.60003 h -1.06663 v 2.60003 h 1.39995 v 0 h 1.39995 v -2.60003 h -1.06663 v 2.60003 h 1.33329 v 0 h 1.33328 v -2.60003 h -1.06662 v 2.60003 h 1.39995 v 0 h 1.46661 v -2.60003 h -1.06663 v 2.60003 h 1.33329 v 0 h 1.39995 v -2.60003 H 121.129 v 2.60003 h 1.39995 v 0 h 1.39995 v -2.60003 h -1.06663 v 2.60003 h 1.33328 v 0 h 1.39995 v -2.60003 h -1.06663 v 2.60003 h 1.39995 v 0 h 1.39995 v -2.60003 h -1.06663 v 2.60003 h 1.33329 v 0 h 1.39995 v -2.60003 h -1.06663 v 2.60003 h 1.39995 v 0 h 1.39995 v -2.60003 h -1.06663 v 2.60003 h 1.33329 v -1.06668 1.06668 h 1.06663 v -1.06668 l -0.53332,0.53334 v 1.00001 h 2.59991 v -1.06668 h -2.59991 v 1.53335 0 1.13335 h 2.59991 v -1.06668 h -2.59991 v 1.46669 0 1.33335 h 2.59991 v -1.06668 h -2.59991 v 1.40002 0 1.46668 h 2.59991 v -1.06668 h -2.59991 v 1.33335 0 1.40002 h 2.59991 v -1.06668 h -2.59991 v 1.33335 0 1.46669 h 2.59991 v -1.06668 h -2.59991 v 1.40001 0 1.33336 h 2.59991 v -1.06669 h -2.59991 v 1.33336 0 1.46668 h 2.59991 v -1.06668 h -2.59991 v 1.40002 0 1.33335 h 2.59991 v -1.06668 h -2.59991 v 1.33335 0 1.46669 h 2.59991 v -1.06668 h -2.59991 v 1.33335 0 1.46668 h 2.59991 v -1.06668 h -2.59991 v 1.33335 0 1.40002 h 2.59991 v -1.06668 h -2.59991 v 1.33335 0 1.46669 h 2.59991 v -1.06668 h -2.59991 v 1.33335 0 1.46668 h 2.59991 v -1.06668 h -2.59991 v 1.33335 0 1.40002 h 2.59991 v -1.06668 h -2.59991 v 1.33335 0 1.46669 h 2.59991 v -1.06668 h -2.59991 v 1.33335 0 1.40002 h 2.59991 v -1.06669 h -2.59991 v 1.33336 0 1.46668 h 2.59991 v -1.06668 h -2.59991 v 1.33335 0 1.40002 h 2.59991 v -1.06668 h -2.59991 v 1.33335 0 1.46669 h 2.59991 v -1.06668 h -2.59991 v 1.93335 0 h -0.59998 v 2.60004 h 1.06663 v -2.60004 h -1.13329 v 0 H 129.262 v 2.60004 h 1.06662 v -2.60004 h -1.39994 v 0 h -1.33329 v 2.60004 h 1.06663 v -2.60004 h -1.46662 v 0 h -1.33328 v 2.60004 h 1.06663 v -2.60004 h -1.33329 v 0 h -1.46661 v 2.60004 h 1.06663 v -2.60004 h -1.33329 v 0 h -1.39995 v 2.60004 h 1.06663 v -2.60004 h -1.39995 v 0 h -1.46661 v 2.60004 h 1.06663 v -2.60004 h -1.33329 v 0 h -1.33328 v 2.60004 h 1.06662 v -2.60004 h -1.46661 v 0 h -1.33329 v 2.60004 h 1.06663 v -2.60004 h -1.39995 v 0 h -1.33328 v 2.60004 h 1.06663 v -2.60004 h -1.39995 v 0 h -1.39995 v 2.60004 h 1.06663 v -2.60004 h -1.39995 v 0 h -1.39995 v 2.60004 h 1.06662 v -2.60004 h -1.33328 v 0 H 110.596 v 2.60004 h 1.06663 v -2.60004 h -1.39995 v 0 h -1.46661 v 2.60004 h 1.06663 v -2.60004 h -1.33329 v 0 h -1.39995 v 2.60004 h 1.06663 v -2.60004 h -1.39995 v 0 h -1.39995 v 2.60004 h 1.06663 v -2.60004 h -1.33328 v 0 h -1.39995 v 2.60004 h 1.06662 v -2.60004 h -1.39995 v 0 h -1.39995 v 2.60004 h 1.06663 v -2.60004 h -1.33328 v 0 h -1.39995 v 2.60004 h 1.06663 v -2.60004 h -1.399953 v 0 h -1.399949 v 2.60004 h 1.066628 v -2.60004 h -1.333285 v 1.06668 -1.06668 h -1.066628 v 1.06668 l 0.533314,-0.53334 v -0.93334 z" clip-path="url(#clipWmfPath1)" style="fill:#000000;fill-opacity:1;fill-rule:nonzero;stroke:#000000;stroke-width:0.0666643px;stroke-linecap:round;stroke-linejoin:round;stroke-miterlimit:4;stroke-dasharray:none;stroke-opacity:1" transform="rotate(180,138.395,169.59977)"/>
  <path id="path230" d="m 98.929759,174.00228 0.133329,-0.66668 0.333321,-0.53334 0.533314,-0.33334 0.666647,-0.13333 0.7333,0.13333 0.53332,0.33334 0.39998,0.53334 0.13333,0.66668 -0.13333,0.66667 -0.39998,0.53334 -0.53332,0.40001 -0.7333,0.13333 -0.666647,-0.13333 -0.533314,-0.40001 -0.333321,-0.53334 z" clip-path="url(#clipWmfPath1)" style="fill:#000000;fill-opacity:1;fill-rule:nonzero;stroke:none" transform="rotate(180,138.395,169.59977)"/>
  <path id="path232" d="m 98.929759,174.00228 0.133329,-0.66668 0.333321,-0.53334 0.533314,-0.33334 0.666647,-0.13333 0.7333,0.13333 0.53332,0.33334 0.39998,0.53334 0.13333,0.66668 -0.13333,0.66667 -0.39998,0.53334 -0.53332,0.40001 -0.7333,0.13333 -0.666647,-0.13333 -0.533314,-0.40001 -0.333321,-0.53334 z" clip-path="url(#clipWmfPath1)" style="fill:none;stroke:#000000;stroke-width:0.0666643px;stroke-linecap:round;stroke-linejoin:round;stroke-miterlimit:4;stroke-dasharray:none;stroke-opacity:1" transform="rotate(180,138.395,169.59977)"/>
  <g id="g234" clip-path="url(#clipWmfPath1)" transform="rotate(180,138.395,169.59977)"/>
  <g id="g242" clip-path="url(#clipWmfPath1)" transform="translate(74.10380000000005, 184.99755)">
    <text id="text240" y="0" x="0" transform="translate(0,9)" style="font-style:normal;font-variant:normal;font-weight:400;font-size:10.6875px;line-height:125%;font-family:Helvetica-Narrow;text-align:start;letter-spacing:0px;word-spacing:0px;text-anchor:start;fill:#000000;fill-opacity:1;stroke:none" xml:space="preserve"><tspan id="tspan238" y="0" x="0"><tspan id="tspan236" style="font-style:normal;font-variant:normal;font-weight:400;font-size:10.6875px;font-family:Helvetica-Narrow;fill:#000000" dy="0" dx="0">2</tspan></tspan></text>
  </g>
  <g id="g244" clip-path="url(#clipWmfPath1)" transform="rotate(180,138.395,169.59977)"/>
  <g id="g256" clip-path="url(#clipWmfPath1)" transform="translate(31.28811000000007, 238.464915)">
    <text id="text254" y="0" x="0" transform="translate(0,9)" style="font-style:normal;font-variant:normal;font-weight:400;font-size:10.6875px;line-height:125%;font-family:Helvetica-Narrow;text-align:start;letter-spacing:0px;word-spacing:0px;text-anchor:start;fill:#000000;fill-opacity:1;stroke:none" xml:space="preserve"><tspan id="tspan252" y="0" x="0"><tspan id="tspan246" style="font-style:normal;font-variant:normal;font-weight:400;font-size:10.6875px;font-family:Helvetica-Narrow;fill:#000000" dy="0" dx="0">C</tspan><tspan id="tspan248" style="font-style:normal;font-variant:normal;font-weight:400;font-size:10.6875px;font-family:Helvetica-Narrow;fill:#000000" dy="0" dx="-0.050422002">N</tspan><tspan id="tspan250" style="font-style:normal;font-variant:normal;font-weight:400;font-size:10.6875px;font-family:Helvetica-Narrow;fill:#000000" dy="0" dx="-0.050422002">1</tspan></tspan></text>
  </g>
  <g id="g258" clip-path="url(#clipWmfPath1)" transform="rotate(180,138.395,169.59977)"/>
  <g id="g270" clip-path="url(#clipWmfPath1)" transform="translate(29.354850000000052, 148.3304)">
    <text id="text268" y="0" x="0" transform="translate(0,9)" style="font-style:normal;font-variant:normal;font-weight:400;font-size:10.6875px;line-height:125%;font-family:Helvetica-Narrow;text-align:start;letter-spacing:0px;word-spacing:0px;text-anchor:start;fill:#000000;fill-opacity:1;stroke:none" xml:space="preserve"><tspan id="tspan266" y="0" x="0"><tspan id="tspan260" style="font-style:normal;font-variant:normal;font-weight:400;font-size:10.6875px;font-family:Helvetica-Narrow;fill:#000000" dy="0" dx="0">C</tspan><tspan id="tspan262" style="font-style:normal;font-variant:normal;font-weight:400;font-size:10.6875px;font-family:Helvetica-Narrow;fill:#000000" dy="0" dx="-0.050422002">N</tspan><tspan id="tspan264" style="font-style:normal;font-variant:normal;font-weight:400;font-size:10.6875px;font-family:Helvetica-Narrow;fill:#000000" dy="0" dx="-0.050422002">2</tspan></tspan></text>
  </g>
  <g id="g272" clip-path="url(#clipWmfPath1)" transform="rotate(180,138.395,169.59977)"/>
  <g id="g288" clip-path="url(#clipWmfPath1)" transform="translate(44.264100000000084, 294.465648)">
    <text id="text286" y="0" x="0" transform="translate(0,9)" style="font-style:normal;font-variant:normal;font-weight:400;font-size:9.3125px;line-height:125%;font-family:Helvetica-Narrow;text-align:start;letter-spacing:0px;word-spacing:0px;text-anchor:start;fill:#000000;fill-opacity:1;stroke:none" xml:space="preserve"><tspan id="tspan284" y="0" x="0"><tspan id="tspan274" style="font-style:normal;font-variant:normal;font-weight:400;font-size:9.3125px;font-family:Helvetica-Narrow;fill:#000000" dy="0" dx="0">3</tspan><tspan id="tspan276" style="font-style:normal;font-variant:normal;font-weight:400;font-size:9.3125px;font-family:Helvetica-Narrow;fill:#000000" dy="0" dx="0.183226">4</tspan><tspan id="tspan278" style="font-style:normal;font-variant:normal;font-weight:400;font-size:9.3125px;font-family:Helvetica-Narrow;fill:#000000" dy="0" dx="0.183226">2</tspan><tspan id="tspan280" style="font-style:normal;font-variant:normal;font-weight:400;font-size:9.3125px;font-family:Helvetica-Narrow;fill:#000000" dy="0" dx="0.183226">2</tspan><tspan id="tspan282" style="font-style:normal;font-variant:normal;font-weight:400;font-size:9.3125px;font-family:Helvetica-Narrow;fill:#000000" dy="0" dx="0.183226">4</tspan></tspan></text>
  </g>
  <g id="g290" clip-path="url(#clipWmfPath1)" transform="rotate(180,138.395,169.59977)"/>
  <g id="g308" clip-path="url(#clipWmfPath1)" transform="translate(104.65138000000006, 26.92880999999994)">
    <text id="text306" y="0" x="0" transform="translate(0,9)" style="font-style:normal;font-variant:normal;font-weight:400;font-size:10.6875px;line-height:125%;font-family:Helvetica-Narrow;text-align:start;letter-spacing:0px;word-spacing:0px;text-anchor:start;fill:#000000;fill-opacity:1;stroke:none" xml:space="preserve"><tspan id="tspan304" y="0" x="0"><tspan id="tspan292" style="font-style:normal;font-variant:normal;font-weight:400;font-size:10.6875px;font-family:Helvetica-Narrow;fill:#000000" dy="0" dx="0">A</tspan><tspan id="tspan294" style="font-style:normal;font-variant:normal;font-weight:400;font-size:10.6875px;font-family:Helvetica-Narrow;fill:#000000" dy="0" dx="-0.102799">M</tspan><tspan id="tspan296" style="font-style:normal;font-variant:normal;font-weight:400;font-size:10.6875px;font-family:Helvetica-Narrow;fill:#000000" dy="0" dx="-0.023021">-</tspan><tspan id="tspan298" style="font-style:normal;font-variant:normal;font-weight:400;font-size:10.6875px;font-family:Helvetica-Narrow;fill:#000000" dy="0" dx="-0.040987">3</tspan><tspan id="tspan300" style="font-style:normal;font-variant:normal;font-weight:400;font-size:10.6875px;font-family:Helvetica-Narrow;fill:#000000" dy="0" dx="0.0031280001">3</tspan><tspan id="tspan302" style="font-style:normal;font-variant:normal;font-weight:400;font-size:10.6875px;font-family:Helvetica-Narrow;fill:#000000" dy="0" dx="0.0031280001">9</tspan></tspan></text>
  </g>
  <path id="path310" d="m 192.8597,135.66844 h 6.06645 l 0.7333,-0.13333 0.66665,-0.40001 0.39998,-0.60001 0.13333,-0.73334 v -9.46679 l -0.13333,-0.73334 -0.39998,-0.60001 -0.66665,-0.46667 -0.7333,-0.13334 h -14.99946 l -0.73331,0.13334 -0.59998,0.46667 -0.46665,0.60001 -0.13333,0.73334 v 9.40012 l 0.13333,0.73335 0.46665,0.6 0.59998,0.33334 0.73331,0.13334 h 5.13315 l 1.59994,13.20017 z" clip-path="url(#clipWmfPath1)" style="fill:#ffffff;fill-opacity:1;fill-rule:nonzero;stroke:none" transform="rotate(180,138.395,169.59977)"/>
  <path id="path312" d="m 190.19313,148.66861 0.39998,0.60001 0.53332,-0.46667 2.13325,-12.60017 h 5.73313 l 0.86664,-0.2 0.79997,-0.46667 0.53331,-0.80001 0.19999,-0.86668 v -9.60013 l -0.19999,-0.86668 -0.46665,-0.73334 -0.86663,-0.60001 -0.86664,-0.2 h -15.13279 l -0.86663,0.2 -0.73331,0.60001 -0.59998,0.73334 -0.19999,0.86668 v 9.53346 l 0.19999,0.86668 0.59998,0.80001 0.73331,0.4 0.86663,0.20001 h 4.73317 l 1.53327,12.7335 h 0.99997 l 2.13325,-12.60017 h 5.66647 l 0.53331,-0.53334 -0.53331,-0.53334 h -6.46644 l -1.73327,10.0668 -1.19995,-10.20013 h -5.53314 l -0.59998,-0.0667 -0.46665,-0.26667 -0.33332,-0.40001 -0.0667,-0.60001 v -9.26678 l 0.0667,-0.60001 0.33332,-0.46667 0.46665,-0.33334 0.59998,-0.0667 h 14.86613 l 0.59998,0.0667 0.46665,0.33334 0.33332,0.46667 0.0667,0.60001 v 9.33345 l -0.0667,0.60001 -0.26666,0.40001 -0.53331,0.33333 -0.59998,0.0667 h -6.39977 z" clip-path="url(#clipWmfPath1)" style="fill:#000000;fill-opacity:1;fill-rule:nonzero;stroke:#000000;stroke-width:0.0666643px;stroke-linecap:round;stroke-linejoin:round;stroke-miterlimit:4;stroke-dasharray:none;stroke-opacity:1" transform="rotate(180,138.395,169.59977)"/>
  <g id="g314" clip-path="url(#clipWmfPath1)" transform="rotate(180,138.395,169.59977)"/>
  <g id="g324" clip-path="url(#clipWmfPath1)" transform="translate(75.01672000000005, 203.7978)">
    <text id="text322" y="0" x="0" transform="translate(0,9)" style="font-style:normal;font-variant:normal;font-weight:400;font-size:10.6875px;line-height:125%;font-family:Helvetica-Narrow;text-align:start;letter-spacing:0px;word-spacing:0px;text-anchor:start;fill:#000000;fill-opacity:1;stroke:none" xml:space="preserve"><tspan id="tspan320" y="0" x="0"><tspan id="tspan316" style="font-style:normal;font-variant:normal;font-weight:400;font-size:10.6875px;font-family:Helvetica-Narrow;fill:#000000" dy="0" dx="0">W</tspan><tspan id="tspan318" style="font-style:normal;font-variant:normal;font-weight:400;font-size:10.6875px;font-family:Helvetica-Narrow;fill:#000000" dy="0" dx="0.0043799998">1</tspan></tspan></text>
  </g>
  <path id="path326" d="M 55.797984,208.6694 V 104.06803 H 80.130438 V 208.6694 Z" clip-path="url(#clipWmfPath1)" style="fill:#bfbfbf;fill-opacity:1;fill-rule:evenodd;stroke:none" transform="rotate(180,138.395,169.59977)"/>
  <path id="path328" d="M 55.797984,208.6694 V 104.06803 H 80.130438 V 208.6694 Z" clip-path="url(#clipWmfPath1)" style="fill:none;stroke:#000000;stroke-width:0.0666643px;stroke-linecap:round;stroke-linejoin:round;stroke-miterlimit:4;stroke-dasharray:none;stroke-opacity:1" transform="rotate(180,138.395,169.59977)"/>
  <path id="path330" d="m 43.131775,150.5353 v -2.80003 l -0.133329,-0.73335 -0.399985,-0.46667 -0.666643,-0.33334 -0.733306,-0.13333 H 26.132389 l -0.733307,0.13333 -0.599978,0.40001 -0.46665,0.60001 -0.133328,0.73334 v 9.46679 l 0.133328,0.73334 0.46665,0.60001 0.599978,0.33334 0.733307,0.13333 h 15.066123 l 0.733306,-0.2 0.666643,-0.40001 0.399985,-0.66667 0.133329,-0.80001 v -2.53337 L 55.198006,152.602 Z" clip-path="url(#clipWmfPath1)" style="fill:#ffffff;fill-opacity:1;fill-rule:nonzero;stroke:none" transform="rotate(180,138.395,169.59977)"/>
  <path id="path332" d="m 55.131341,153.06867 0.599979,-0.40001 -0.46665,-0.53334 -11.599581,-2.00002 v -2.4667 l -0.199993,-0.86668 -0.533314,-0.66668 -0.866635,-0.4 -0.799971,-0.2 H 26.065725 l -0.866635,0.2 -0.733307,0.46667 -0.599979,0.80001 -0.199992,0.86668 v 9.60013 l 0.199992,0.86667 0.599979,0.80001 0.733307,0.40001 0.866635,0.2 h 15.199451 l 0.866635,-0.26667 0.866635,-0.46667 0.46665,-0.86668 0.199993,-0.93334 v -2.20003 l 11.599581,-1.93336 v -0.93335 L 43.665089,150.1353 v -2.40003 l -0.533314,-0.53334 -0.533314,0.53334 v 3.20004 l 9.532989,1.66669 -9.532989,1.60002 v 2.8667 l -0.06666,0.66668 -0.333322,0.46667 -0.466649,0.33334 -0.599979,0.13333 H 26.199053 l -0.599978,-0.0667 -0.46665,-0.26667 -0.333321,-0.4 -0.06666,-0.60001 v -9.33345 l 0.06666,-0.60001 0.333321,-0.40001 0.46665,-0.33333 0.599978,-0.0667 h 14.932794 l 0.666643,0.0667 0.46665,0.26667 0.266657,0.26667 0.06666,0.6 v 3.13338 z" clip-path="url(#clipWmfPath1)" style="fill:#000000;fill-opacity:1;fill-rule:nonzero;stroke:#000000;stroke-width:0.0666643px;stroke-linecap:round;stroke-linejoin:round;stroke-miterlimit:4;stroke-dasharray:none;stroke-opacity:1" transform="rotate(180,138.395,169.59977)"/>
  <g id="g334" clip-path="url(#clipWmfPath1)" transform="rotate(180,138.395,169.59977)"/>
  <g id="g344" clip-path="url(#clipWmfPath1)" transform="translate(238.95434700000004, 180.53081999999995)">
    <text id="text342" y="0" x="0" transform="translate(0,9)" style="font-style:normal;font-variant:normal;font-weight:400;font-size:10.6875px;line-height:125%;font-family:Helvetica-Narrow;text-align:start;letter-spacing:0px;word-spacing:0px;text-anchor:start;fill:#000000;fill-opacity:1;stroke:none" xml:space="preserve"><tspan id="tspan340" y="0" x="0"><tspan id="tspan336" style="font-style:normal;font-variant:normal;font-weight:400;font-size:10.6875px;font-family:Helvetica-Narrow;fill:#000000" dy="0" dx="0">J</tspan><tspan id="tspan338" style="font-style:normal;font-variant:normal;font-weight:400;font-size:10.6875px;font-family:Helvetica-Narrow;fill:#000000" dy="0" dx="0.028103">1</tspan></tspan></text>
  </g>
</svg>