<svg xmlns:dc="http://purl.org/dc/elements/1.1/" xmlns:cc="http://creativecommons.org/ns#" xmlns:rdf="http://www.w3.org/1999/02/22-rdf-syntax-ns#" xmlns:svg="http://www.w3.org/2000/svg" xmlns="http://www.w3.org/2000/svg" id="svg198" height="86.830004mm" width="57.269998mm" version="1.0">
  <metadata id="metadata202">
    <rdf:RDF>
      <cc:Work rdf:about="">
        <dc:format>image/svg+xml</dc:format>
        <dc:type rdf:resource="http://purl.org/dc/dcmitype/StillImage"/>
      </cc:Work>
    </rdf:RDF>
  </metadata>
  <defs id="defs6">
    <clipPath id="clipWmfPath1" clipPathUnits="userSpaceOnUse">
      <path id="path2" d="M 0,0 L 216.34908,0 L 216.34908,328.07191 L 0,328.07191 z"/>
    </clipPath>
    <pattern y="0" x="0" height="6" width="6" patternUnits="userSpaceOnUse" id="WMFhbasepattern"/>
  </defs>
  <path id="path8" d="  M 55.870732,301.40482   L 55.870732,34.40055   L 187.34697,34.40055   L 187.34697,301.40482   L 55.870732,301.40482  z " clip-path="url(#clipWmfPath1)" style="fill:#e5e5e5;fill-rule:nonzero;fill-opacity:1;stroke:none;"/>
  <path id="path10" d="  M 187.34697,301.60482   L 187.34697,301.20482   L 56.070747,301.20482   L 56.070747,34.600554   L 187.14695,34.600554   L 187.14695,301.20482   L 56.070747,301.20482   L 56.070747,34.40055   L 55.670718,34.40055   L 55.670718,301.60482   L 187.54698,301.60482   L 187.54698,34.200547   L 55.670718,34.200547   L 55.670718,301.60482   L 187.34697,301.60482  z " clip-path="url(#clipWmfPath1)" style="fill:#000000;fill-rule:nonzero;fill-opacity:1;stroke:#000000;stroke-width:0.06667152px;stroke-linecap:round;stroke-linejoin:round;stroke-miterlimit:4;stroke-dasharray:none;stroke-opacity:1;"/>
  <path id="path38" d="  M 179.0797,115.60185   L 179.81308,115.93519   L 180.41313,117.06854   L 180.61314,118.40189   L 180.41313,119.86858   L 180.21311,120.53526   L 179.81308,120.93527   L 179.0797,121.33527   L 178.27964,120.93527   L 177.61292,119.86858   L 177.47958,118.40189   L 177.6796,117.06854   L 178.27964,115.93519   L 179.0797,115.60185  z    M 179.0797,115.80185   L 178.67967,115.93519   L 178.34631,116.33519   L 177.87961,117.13521   L 177.6796,117.80188   L 177.61292,118.40189   L 177.6796,119.13524   L 177.87961,119.86858   L 178.34631,120.73526   L 179.0797,121.13527   L 179.67974,120.73526   L 180.34646,119.86858   L 180.4798,118.40189   L 180.34646,117.13521   L 179.67974,116.33519   L 179.41306,115.93519   L 179.0797,115.80185  z    M 178.21297,116.66853   L 179.0797,116.66853   L 179.5464,116.9352   L 179.67974,117.66855   L 179.61307,118.26856   L 179.21304,118.46856   L 179.67974,119.66858   L 179.81308,120.00192   L 179.87976,120.00192   L 179.87976,120.26859   L 179.5464,120.26859   L 178.87968,118.46856   L 178.81301,118.46856   L 178.81301,119.86858   L 178.87968,120.00192   L 179.14637,120.00192   L 179.14637,120.26859   L 178.1463,120.26859   L 178.1463,120.00192   L 178.27964,120.00192   L 178.34631,119.86858   L 178.34631,119.53525   L 178.34631,117.33521   L 178.34631,117.06854   L 178.34631,116.80187   L 178.21297,116.80187   L 178.21297,116.66853  z    M 178.81301,118.33523   L 179.14637,118.33523   L 179.27971,118.00189   L 179.34638,117.66855   L 179.21304,117.06854   L 179.01303,116.80187   L 178.81301,116.80187   L 178.81301,118.33523  z   " clip-path="url(#clipWmfPath1)" style="fill:#bfbfbf;fill-rule:evenodd;fill-opacity:1;stroke:none;"/>
  <path id="path40" d="  M 146.14397,63.401014   L 146.14397,66.201059   L 146.27731,66.934404   L 146.74401,67.467746   L 147.34406,67.734417   L 148.07744,67.867752   L 163.14521,67.867752   L 163.87859,67.734417   L 164.54531,67.334411   L 164.94534,66.734401   L 165.07868,66.001056   L 165.07868,56.534238   L 164.94534,55.800893   L 164.54531,55.267551   L 163.87859,54.867544   L 163.14521,54.734209   L 148.07744,54.734209   L 147.34406,54.934212   L 146.74401,55.400886   L 146.27731,56.000896   L 146.14397,56.800909   L 146.14397,59.334283   L 134.07642,61.334315   L 146.14397,63.401014  z " clip-path="url(#clipWmfPath1)" style="fill:#ffffff;fill-rule:nonzero;fill-opacity:1;stroke:none;"/>
  <path id="path42" d="  M 134.14309,60.86764   L 133.54305,61.267647   L 134.00975,61.800989   L 145.6106,63.801021   L 145.6106,66.267727   L 145.81061,67.134407   L 146.41065,67.867752   L 147.21071,68.201091   L 148.01077,68.401094   L 163.21188,68.401094   L 164.07861,68.201091   L 164.87866,67.734417   L 165.41204,66.934404   L 165.61205,66.067724   L 165.61205,56.46757   L 165.41204,55.600889   L 164.87866,54.867544   L 164.07861,54.40087   L 163.21188,54.200867   L 148.01077,54.200867   L 147.14404,54.467538   L 146.41065,55.067548   L 145.81061,55.800893   L 145.6106,56.734241   L 145.6106,58.934276   L 134.00975,60.86764   L 134.00975,61.800989   L 145.6106,63.801021   L 145.6106,66.201059   L 146.14397,66.734401   L 146.67734,66.201059   L 146.67734,63.001008   L 137.14331,61.334315   L 146.67734,59.734289   L 146.67734,56.867576   L 146.74401,56.200899   L 147.07737,55.734225   L 147.54407,55.400886   L 148.14411,55.267551   L 163.07853,55.267551   L 163.67858,55.334219   L 164.21195,55.667557   L 164.47864,56.000896   L 164.54531,56.600905   L 164.54531,65.934388   L 164.47864,66.534398   L 164.21195,66.934404   L 163.67858,67.267743   L 163.07853,67.334411   L 148.14411,67.334411   L 147.4774,67.267743   L 147.07737,67.06774   L 146.74401,66.734401   L 146.67734,66.134391   L 146.67734,63.001008   L 134.14309,60.86764  z " clip-path="url(#clipWmfPath1)" style="fill:#000000;fill-rule:nonzero;fill-opacity:1;stroke:#000000;stroke-width:0.06667152px;stroke-linecap:round;stroke-linejoin:round;stroke-miterlimit:4;stroke-dasharray:none;stroke-opacity:1;"/>
  <path id="path44" d="  M 55.870732,217.53681   L 55.870732,112.93514   L 80.205836,112.93514   L 80.205836,217.53681   L 55.870732,217.53681  z " clip-path="url(#clipWmfPath1)" style="fill:#bfbfbf;fill-rule:evenodd;fill-opacity:1;stroke:none;"/>
  <path id="path46" d="  M 55.870732,217.53681   L 55.870732,112.93514   L 80.205836,112.93514   L 80.205836,217.53681   L 55.870732,217.53681  z " clip-path="url(#clipWmfPath1)" style="fill:none;stroke:#000000;stroke-width:0.06667152px;stroke-linecap:round;stroke-linejoin:round;stroke-miterlimit:4;stroke-dasharray:none;stroke-opacity:1;"/>
  <path id="path48" d="  M 43.203144,161.86926   L 43.203144,159.06921   L 43.069801,158.33587   L 42.669772,157.86919   L 42.003056,157.53585   L 41.26967,157.40252   L 26.201907,157.40252   L 25.46852,157.53585   L 24.868476,157.93586   L 24.401776,158.53587   L 24.268433,159.26921   L 24.268433,168.73603   L 24.401776,169.46938   L 24.868476,170.06939   L 25.46852,170.40273   L 26.201907,170.53606   L 41.26967,170.53606   L 42.003056,170.33606   L 42.669772,169.93605   L 43.069801,169.26937   L 43.203144,168.46936   L 43.203144,165.93599   L 55.270689,163.93596   L 43.203144,161.86926  z " clip-path="url(#clipWmfPath1)" style="fill:#ffffff;fill-rule:nonzero;fill-opacity:1;stroke:none;"/>
  <path id="path50" d="  M 55.204017,164.40263   L 55.804061,164.00262   L 55.33736,163.46928   L 43.736516,161.46925   L 43.736516,159.00254   L 43.536501,158.13586   L 43.003129,157.46919   L 42.136399,157.06918   L 41.336341,156.86918   L 26.135235,156.86918   L 25.268505,157.06918   L 24.535119,157.53585   L 23.935075,158.33587   L 23.73506,159.20255   L 23.73506,168.8027   L 23.935075,169.66938   L 24.535119,170.46939   L 25.268505,170.8694   L 26.135235,171.0694   L 41.336341,171.0694   L 42.203071,170.80273   L 43.069801,170.33606   L 43.536501,169.46938   L 43.736516,168.53603   L 43.736516,166.33599   L 55.33736,164.40263   L 55.33736,163.46928   L 43.736516,161.46925   L 43.736516,159.06921   L 43.203144,158.53587   L 42.669772,159.06921   L 42.669772,162.26926   L 52.203799,163.93596   L 42.669772,165.53598   L 42.669772,168.40269   L 42.6031,169.06937   L 42.269743,169.53605   L 41.803042,169.86938   L 41.202998,170.00272   L 26.268578,170.00272   L 25.668535,169.93605   L 25.201834,169.66938   L 24.868476,169.26937   L 24.801805,168.66936   L 24.801805,159.33588   L 24.868476,158.73587   L 25.201834,158.33587   L 25.668535,158.00253   L 26.268578,157.93586   L 41.202998,157.93586   L 41.869713,158.00253   L 42.336414,158.2692   L 42.6031,158.53587   L 42.669772,159.13588   L 42.669772,162.26926   L 55.204017,164.40263  z " clip-path="url(#clipWmfPath1)" style="fill:#000000;fill-rule:nonzero;fill-opacity:1;stroke:#000000;stroke-width:0.06667152px;stroke-linecap:round;stroke-linejoin:round;stroke-miterlimit:4;stroke-dasharray:none;stroke-opacity:1;"/>
  <g id="g52" clip-path="url(#clipWmfPath1)"/>
  <g id="g62" clip-path="url(#clipWmfPath1)">
    <text id="text60" y="0.000000" x="0.000000" transform="matrix(1.000000,-0.000000,0.000000,1.000000,28.135381,168.002688)" style="font-size:10.687500px;font-style:normal;font-variant:normal;font-weight:400;font-stretch:Condensed;line-height:125.000000%;letter-spacing:0px;word-spacing:0px;fill:#000000;fill-opacity:1;stroke:none;font-family:Helvetica-Narrow;text-align:start;text-anchor:start;" xml:space="preserve"><tspan id="tspan58" y="0.000000" x="0.000000"><tspan id="tspan54" style="fill:#000000;font-size:10.687500px;font-style:normal;font-variant:normal;font-weight:400;font-stretch:Condensed;font-family:Helvetica-Narrow;" dy="0.000000" dx="0.000000">J</tspan><tspan id="tspan56" style="fill:#000000;font-size:10.687500px;font-style:normal;font-variant:normal;font-weight:400;font-stretch:Condensed;font-family:Helvetica-Narrow;" dy="0.000000" dx="0.323329">1</tspan></tspan></text>
  </g>
  <g id="g64" clip-path="url(#clipWmfPath1)"/>
  <g id="g82" clip-path="url(#clipWmfPath1)">
    <text id="text80" y="0.000000" x="0.000000" transform="matrix(1.000000,-0.000000,0.000000,1.000000,146.343982,48.000768)" style="font-size:9.312500px;font-style:normal;font-variant:normal;font-weight:400;font-stretch:Condensed;line-height:125.000000%;letter-spacing:0px;word-spacing:0px;fill:#000000;fill-opacity:1;stroke:none;font-family:Helvetica-Narrow;text-align:start;text-anchor:start;" xml:space="preserve"><tspan id="tspan78" y="0.000000" x="0.000000"><tspan id="tspan66" style="fill:#000000;font-size:9.312500px;font-style:normal;font-variant:normal;font-weight:400;font-stretch:Condensed;font-family:Helvetica-Narrow;" dy="0.000000" dx="0.000000">3</tspan><tspan id="tspan68" style="fill:#000000;font-size:9.312500px;font-style:normal;font-variant:normal;font-weight:400;font-stretch:Condensed;font-family:Helvetica-Narrow;" dy="0.000000" dx="0.183821">4</tspan><tspan id="tspan70" style="fill:#000000;font-size:9.312500px;font-style:normal;font-variant:normal;font-weight:400;font-stretch:Condensed;font-family:Helvetica-Narrow;" dy="0.000000" dx="0.183821">2</tspan><tspan id="tspan72" style="fill:#000000;font-size:9.312500px;font-style:normal;font-variant:normal;font-weight:400;font-stretch:Condensed;font-family:Helvetica-Narrow;" dy="0.000000" dx="0.250493">2</tspan><tspan id="tspan74" style="fill:#000000;font-size:9.312500px;font-style:normal;font-variant:normal;font-weight:400;font-stretch:Condensed;font-family:Helvetica-Narrow;" dy="0.000000" dx="0.183821">4</tspan><tspan id="tspan76" style="fill:#000000;font-size:9.312500px;font-style:normal;font-variant:normal;font-weight:400;font-stretch:Condensed;font-family:Helvetica-Narrow;" dy="0.000000" dx="0.183821">A</tspan></tspan></text>
  </g>
  <path id="path84" d="  M 75.205473,271.53768   L 65.538102,271.53768   L 65.538102,247.40396   L 75.205473,247.40396   L 75.205473,271.53768  z " clip-path="url(#clipWmfPath1)" style="fill:#ffffff;fill-rule:nonzero;fill-opacity:1;stroke:none;"/>
  <path id="path86" d="  M 75.205473,271.53768   L 65.538102,271.53768   L 65.538102,247.40396   L 75.205473,247.40396   L 75.205473,271.53768  z " clip-path="url(#clipWmfPath1)" style="fill:none;stroke:#000000;stroke-width:0.06667152px;stroke-linecap:round;stroke-linejoin:round;stroke-miterlimit:4;stroke-dasharray:none;stroke-opacity:1;"/>
  <path id="path88" d="  M 69.338379,260.80417   L 66.604847,260.80417   L 66.604847,258.0708   L 69.338379,258.0708   L 69.338379,260.80417  z " clip-path="url(#clipWmfPath1)" style="fill:#000000;fill-rule:nonzero;fill-opacity:1;stroke:none;"/>
  <path id="path90" d="  M 69.338379,260.80417   L 66.604847,260.80417   L 66.604847,258.0708   L 69.338379,258.0708   L 69.338379,260.80417  z " clip-path="url(#clipWmfPath1)" style="fill:none;stroke:#000000;stroke-width:0.06667152px;stroke-linecap:round;stroke-linejoin:round;stroke-miterlimit:4;stroke-dasharray:none;stroke-opacity:1;"/>
  <path id="path92" d="  M 69.338379,256.2041   L 66.604847,256.2041   L 66.604847,253.47072   L 69.338379,253.47072   L 69.338379,256.2041  z " clip-path="url(#clipWmfPath1)" style="fill:#000000;fill-rule:nonzero;fill-opacity:1;stroke:none;"/>
  <path id="path94" d="  M 69.338379,256.2041   L 66.604847,256.2041   L 66.604847,253.47072   L 69.338379,253.47072   L 69.338379,256.2041  z " clip-path="url(#clipWmfPath1)" style="fill:none;stroke:#000000;stroke-width:0.06667152px;stroke-linecap:round;stroke-linejoin:round;stroke-miterlimit:4;stroke-dasharray:none;stroke-opacity:1;"/>
  <path id="path96" d="  M 69.338379,251.47069   L 66.604847,251.47069   L 66.604847,248.73731   L 69.338379,248.73731   L 69.338379,251.47069  z " clip-path="url(#clipWmfPath1)" style="fill:#ffffff;fill-rule:nonzero;fill-opacity:1;stroke:none;"/>
  <path id="path98" d="  M 69.338379,251.47069   L 66.604847,251.47069   L 66.604847,248.73731   L 69.338379,248.73731   L 69.338379,251.47069  z " clip-path="url(#clipWmfPath1)" style="fill:none;stroke:#000000;stroke-width:0.06667152px;stroke-linecap:round;stroke-linejoin:round;stroke-miterlimit:4;stroke-dasharray:none;stroke-opacity:1;"/>
  <path id="path100" d="  M 69.338379,270.07099   L 66.604847,270.07099   L 66.604847,267.33761   L 69.338379,267.33761   L 69.338379,270.07099  z " clip-path="url(#clipWmfPath1)" style="fill:#000000;fill-rule:nonzero;fill-opacity:1;stroke:none;"/>
  <path id="path102" d="  M 69.338379,270.07099   L 66.604847,270.07099   L 66.604847,267.33761   L 69.338379,267.33761   L 69.338379,270.07099  z " clip-path="url(#clipWmfPath1)" style="fill:none;stroke:#000000;stroke-width:0.06667152px;stroke-linecap:round;stroke-linejoin:round;stroke-miterlimit:4;stroke-dasharray:none;stroke-opacity:1;"/>
  <path id="path104" d="  M 69.338379,265.47091   L 66.604847,265.47091   L 66.604847,262.73754   L 69.338379,262.73754   L 69.338379,265.47091  z " clip-path="url(#clipWmfPath1)" style="fill:#000000;fill-rule:nonzero;fill-opacity:1;stroke:none;"/>
  <path id="path106" d="  M 69.338379,265.47091   L 66.604847,265.47091   L 66.604847,262.73754   L 69.338379,262.73754   L 69.338379,265.47091  z " clip-path="url(#clipWmfPath1)" style="fill:none;stroke:#000000;stroke-width:0.06667152px;stroke-linecap:round;stroke-linejoin:round;stroke-miterlimit:4;stroke-dasharray:none;stroke-opacity:1;"/>
  <path id="path108" d="  M 74.005385,260.80417   L 71.271853,260.80417   L 71.271853,258.0708   L 74.005385,258.0708   L 74.005385,260.80417  z " clip-path="url(#clipWmfPath1)" style="fill:#000000;fill-rule:nonzero;fill-opacity:1;stroke:none;"/>
  <path id="path110" d="  M 74.005385,260.80417   L 71.271853,260.80417   L 71.271853,258.0708   L 74.005385,258.0708   L 74.005385,260.80417  z " clip-path="url(#clipWmfPath1)" style="fill:none;stroke:#000000;stroke-width:0.06667152px;stroke-linecap:round;stroke-linejoin:round;stroke-miterlimit:4;stroke-dasharray:none;stroke-opacity:1;"/>
  <path id="path112" d="  M 74.005385,256.2041   L 71.271853,256.2041   L 71.271853,253.47072   L 74.005385,253.47072   L 74.005385,256.2041  z " clip-path="url(#clipWmfPath1)" style="fill:#000000;fill-rule:nonzero;fill-opacity:1;stroke:none;"/>
  <path id="path114" d="  M 74.005385,256.2041   L 71.271853,256.2041   L 71.271853,253.47072   L 74.005385,253.47072   L 74.005385,256.2041  z " clip-path="url(#clipWmfPath1)" style="fill:none;stroke:#000000;stroke-width:0.06667152px;stroke-linecap:round;stroke-linejoin:round;stroke-miterlimit:4;stroke-dasharray:none;stroke-opacity:1;"/>
  <path id="path116" d="  M 74.005385,251.47069   L 71.271853,251.47069   L 71.271853,248.73731   L 74.005385,248.73731   L 74.005385,251.47069  z " clip-path="url(#clipWmfPath1)" style="fill:#000000;fill-rule:nonzero;fill-opacity:1;stroke:none;"/>
  <path id="path118" d="  M 74.005385,251.47069   L 71.271853,251.47069   L 71.271853,248.73731   L 74.005385,248.73731   L 74.005385,251.47069  z " clip-path="url(#clipWmfPath1)" style="fill:none;stroke:#000000;stroke-width:0.06667152px;stroke-linecap:round;stroke-linejoin:round;stroke-miterlimit:4;stroke-dasharray:none;stroke-opacity:1;"/>
  <path id="path120" d="  M 74.005385,270.07099   L 71.271853,270.07099   L 71.271853,267.33761   L 74.005385,267.33761   L 74.005385,270.07099  z " clip-path="url(#clipWmfPath1)" style="fill:#000000;fill-rule:nonzero;fill-opacity:1;stroke:none;"/>
  <path id="path122" d="  M 74.005385,270.07099   L 71.271853,270.07099   L 71.271853,267.33761   L 74.005385,267.33761   L 74.005385,270.07099  z " clip-path="url(#clipWmfPath1)" style="fill:none;stroke:#000000;stroke-width:0.06667152px;stroke-linecap:round;stroke-linejoin:round;stroke-miterlimit:4;stroke-dasharray:none;stroke-opacity:1;"/>
  <path id="path124" d="  M 74.005385,265.47091   L 71.271853,265.47091   L 71.271853,262.73754   L 74.005385,262.73754   L 74.005385,265.47091  z " clip-path="url(#clipWmfPath1)" style="fill:#000000;fill-rule:nonzero;fill-opacity:1;stroke:none;"/>
  <path id="path126" d="  M 74.005385,265.47091   L 71.271853,265.47091   L 71.271853,262.73754   L 74.005385,262.73754   L 74.005385,265.47091  z " clip-path="url(#clipWmfPath1)" style="fill:none;stroke:#000000;stroke-width:0.06667152px;stroke-linecap:round;stroke-linejoin:round;stroke-miterlimit:4;stroke-dasharray:none;stroke-opacity:1;"/>
  <path id="path128" d="  M 129.40942,56.134231   L 134.07642,56.134231   L 134.07642,66.334395   L 129.40942,66.334395   L 129.40942,56.134231  z " clip-path="url(#clipWmfPath1)" style="fill:#ffffff;fill-rule:nonzero;fill-opacity:1;stroke:none;"/>
  <path id="path130" d="  M 129.40942,56.134231   L 134.07642,56.134231   L 134.07642,66.334395   L 129.40942,66.334395   L 129.40942,56.134231  z " clip-path="url(#clipWmfPath1)" style="fill:none;stroke:#000000;stroke-width:0.06667152px;stroke-linecap:round;stroke-linejoin:round;stroke-miterlimit:4;stroke-dasharray:none;stroke-opacity:1;"/>
  <path id="path132" d="  M 130.40949,57.600921   L 133.14302,57.600921   L 133.14302,60.334299   L 130.40949,60.334299   L 130.40949,57.600921  z " clip-path="url(#clipWmfPath1)" style="fill:#000000;fill-rule:nonzero;fill-opacity:1;stroke:none;"/>
  <path id="path134" d="  M 130.40949,57.600921   L 133.14302,57.600921   L 133.14302,60.334299   L 130.40949,60.334299   L 130.40949,57.600921  z " clip-path="url(#clipWmfPath1)" style="fill:none;stroke:#000000;stroke-width:0.06667152px;stroke-linecap:round;stroke-linejoin:round;stroke-miterlimit:4;stroke-dasharray:none;stroke-opacity:1;"/>
  <path id="path136" d="  M 130.40949,62.134327   L 133.14302,62.134327   L 133.14302,64.867704   L 130.40949,64.867704   L 130.40949,62.134327  z " clip-path="url(#clipWmfPath1)" style="fill:#000000;fill-rule:nonzero;fill-opacity:1;stroke:none;"/>
  <path id="path138" d="  M 130.40949,62.134327   L 133.14302,62.134327   L 133.14302,64.867704   L 130.40949,64.867704   L 130.40949,62.134327  z " clip-path="url(#clipWmfPath1)" style="fill:none;stroke:#000000;stroke-width:0.06667152px;stroke-linecap:round;stroke-linejoin:round;stroke-miterlimit:4;stroke-dasharray:none;stroke-opacity:1;"/>
  <path id="path140" d="  M 87.673046,262.07086   L 87.673046,264.8709   L 87.806389,265.60425   L 88.27309,266.13759   L 88.873134,266.40426   L 89.60652,266.5376   L 104.67428,266.5376   L 105.40767,266.40426   L 106.07439,266.00426   L 106.47441,265.40425   L 106.60776,264.6709   L 106.60776,255.20408   L 106.47441,254.47074   L 106.07439,253.9374   L 105.40767,253.53739   L 104.67428,253.40405   L 89.60652,253.40405   L 88.873134,253.60406   L 88.27309,254.07073   L 87.806389,254.67074   L 87.673046,255.47075   L 87.673046,258.00413   L 75.605502,260.00416   L 87.673046,262.07086  z " clip-path="url(#clipWmfPath1)" style="fill:#ffffff;fill-rule:nonzero;fill-opacity:1;stroke:none;"/>
  <path id="path142" d="  M 75.672173,259.53749   L 75.072129,259.93749   L 75.53883,260.47083   L 87.139674,262.47087   L 87.139674,264.93757   L 87.339689,265.80425   L 87.939732,266.5376   L 88.739791,266.87094   L 89.539849,267.07094   L 104.74096,267.07094   L 105.60768,266.87094   L 106.40774,266.40426   L 106.94112,265.60425   L 107.14113,264.73757   L 107.14113,255.13741   L 106.94112,254.27073   L 106.40774,253.53739   L 105.60768,253.07072   L 104.74096,252.87071   L 89.539849,252.87071   L 88.673119,253.13738   L 87.939732,253.73739   L 87.339689,254.47074   L 87.139674,255.40409   L 87.139674,257.60412   L 75.53883,259.53749   L 75.53883,260.47083   L 87.139674,262.47087   L 87.139674,264.8709   L 87.673046,265.40425   L 88.206419,264.8709   L 88.206419,261.67085   L 78.672391,260.00416   L 88.206419,258.40413   L 88.206419,255.53742   L 88.27309,254.87074   L 88.606448,254.40407   L 89.073148,254.07073   L 89.673192,253.9374   L 104.60761,253.9374   L 105.20766,254.00406   L 105.74103,254.3374   L 106.00771,254.67074   L 106.07439,255.27075   L 106.07439,264.60423   L 106.00771,265.20424   L 105.74103,265.60425   L 105.20766,265.93759   L 104.60761,266.00426   L 89.673192,266.00426   L 89.006477,265.93759   L 88.606448,265.73758   L 88.27309,265.40425   L 88.206419,264.80424   L 88.206419,261.67085   L 75.672173,259.53749  z " clip-path="url(#clipWmfPath1)" style="fill:#000000;fill-rule:nonzero;fill-opacity:1;stroke:#000000;stroke-width:0.06667152px;stroke-linecap:round;stroke-linejoin:round;stroke-miterlimit:4;stroke-dasharray:none;stroke-opacity:1;"/>
  <g id="g144" clip-path="url(#clipWmfPath1)"/>
  <g id="g154" clip-path="url(#clipWmfPath1)">
    <text id="text152" y="0.000000" x="0.000000" transform="matrix(1.000000,-0.000000,0.000000,1.000000,90.939951,263.604217)" style="font-size:10.687500px;font-style:normal;font-variant:normal;font-weight:400;font-stretch:Condensed;line-height:125.000000%;letter-spacing:0px;word-spacing:0px;fill:#000000;fill-opacity:1;stroke:none;font-family:Helvetica-Narrow;text-align:start;text-anchor:start;" xml:space="preserve"><tspan id="tspan150" y="0.000000" x="0.000000"><tspan id="tspan146" style="fill:#000000;font-size:10.687500px;font-style:normal;font-variant:normal;font-weight:400;font-stretch:Condensed;font-family:Helvetica-Narrow;" dy="0.000000" dx="0.000000">W</tspan><tspan id="tspan148" style="fill:#000000;font-size:10.687500px;font-style:normal;font-variant:normal;font-weight:400;font-stretch:Condensed;font-family:Helvetica-Narrow;" dy="0.000000" dx="0.072083">1</tspan></tspan></text>
  </g>
  <g id="g156" clip-path="url(#clipWmfPath1)"/>
  <g id="g166" clip-path="url(#clipWmfPath1)">
    <text id="text164" y="0.000000" x="0.000000" transform="matrix(1.000000,-0.000000,0.000000,1.000000,148.877500,65.467714)" style="font-size:10.687500px;font-style:normal;font-variant:normal;font-weight:400;font-stretch:Condensed;line-height:125.000000%;letter-spacing:0px;word-spacing:0px;fill:#000000;fill-opacity:1;stroke:none;font-family:Helvetica-Narrow;text-align:start;text-anchor:start;" xml:space="preserve"><tspan id="tspan162" y="0.000000" x="0.000000"><tspan id="tspan158" style="fill:#000000;font-size:10.687500px;font-style:normal;font-variant:normal;font-weight:400;font-stretch:Condensed;font-family:Helvetica-Narrow;" dy="0.000000" dx="0.000000">W</tspan><tspan id="tspan160" style="fill:#000000;font-size:10.687500px;font-style:normal;font-variant:normal;font-weight:400;font-stretch:Condensed;font-family:Helvetica-Narrow;" dy="0.000000" dx="0.072083">2</tspan></tspan></text>
  </g>
  <g id="g168" clip-path="url(#clipWmfPath1)"/>
  <g id="g186" clip-path="url(#clipWmfPath1)">
    <text id="text184" y="0.000000" x="0.000000" transform="matrix(1.000000,-0.000000,0.000000,1.000000,112.274837,317.138407)" style="font-size:10.687500px;font-style:normal;font-variant:normal;font-weight:400;font-stretch:Condensed;line-height:125.000000%;letter-spacing:0px;word-spacing:0px;fill:#000000;fill-opacity:1;stroke:none;font-family:Helvetica-Narrow;text-align:start;text-anchor:start;" xml:space="preserve"><tspan id="tspan182" y="0.000000" x="0.000000"><tspan id="tspan170" style="fill:#000000;font-size:10.687500px;font-style:normal;font-variant:normal;font-weight:400;font-stretch:Condensed;font-family:Helvetica-Narrow;" dy="0.000000" dx="0.000000">A</tspan><tspan id="tspan172" style="fill:#000000;font-size:10.687500px;font-style:normal;font-variant:normal;font-weight:400;font-stretch:Condensed;font-family:Helvetica-Narrow;" dy="0.000000" dx="-0.102044">M</tspan><tspan id="tspan174" style="fill:#000000;font-size:10.687500px;font-style:normal;font-variant:normal;font-weight:400;font-stretch:Condensed;font-family:Helvetica-Narrow;" dy="0.000000" dx="-0.022099">-</tspan><tspan id="tspan176" style="fill:#000000;font-size:10.687500px;font-style:normal;font-variant:normal;font-weight:400;font-stretch:Condensed;font-family:Helvetica-Narrow;" dy="0.000000" dx="0.026127">3</tspan><tspan id="tspan178" style="fill:#000000;font-size:10.687500px;font-style:normal;font-variant:normal;font-weight:400;font-stretch:Condensed;font-family:Helvetica-Narrow;" dy="0.000000" dx="0.003789">3</tspan><tspan id="tspan180" style="fill:#000000;font-size:10.687500px;font-style:normal;font-variant:normal;font-weight:400;font-stretch:Condensed;font-family:Helvetica-Narrow;" dy="0.000000" dx="0.003789">8</tspan></tspan></text>
  </g>
  <g id="g188" clip-path="url(#clipWmfPath1)"/>
  <g id="g196" clip-path="url(#clipWmfPath1)">
    <text id="text194" y="0.000000" x="0.000000" transform="matrix(1.000000,-0.000000,0.000000,1.000000,76.338888,251.337354)" style="font-size:10.687500px;font-style:normal;font-variant:normal;font-weight:400;font-stretch:Condensed;line-height:125.000000%;letter-spacing:0px;word-spacing:0px;fill:#000000;fill-opacity:1;stroke:none;font-family:Helvetica-Narrow;text-align:start;text-anchor:start;" xml:space="preserve"><tspan id="tspan192" y="0.000000" x="0.000000"><tspan id="tspan190" style="fill:#000000;font-size:10.687500px;font-style:normal;font-variant:normal;font-weight:400;font-stretch:Condensed;font-family:Helvetica-Narrow;" dy="0.000000" dx="0.000000">2</tspan></tspan></text>
  </g>
</svg>