<?xml version="1.0" encoding="UTF-8" standalone="no"?>
<svg
   xmlns:dc="http://purl.org/dc/elements/1.1/"
   xmlns:cc="http://creativecommons.org/ns#"
   xmlns:rdf="http://www.w3.org/1999/02/22-rdf-syntax-ns#"
   xmlns:svg="http://www.w3.org/2000/svg"
   xmlns="http://www.w3.org/2000/svg"
   id="svg198"
   height="86.830004mm"
   width="57.269998mm"
   version="1.0">
  <metadata
     id="metadata202">
    <rdf:RDF>
      <cc:Work
         rdf:about="">
        <dc:format>image/svg+xml</dc:format>
        <dc:type
           rdf:resource="http://purl.org/dc/dcmitype/StillImage" />
      </cc:Work>
    </rdf:RDF>
  </metadata>
  <defs
     id="defs6">
    <clipPath
       id="clipWmfPath1"
       clipPathUnits="userSpaceOnUse">
      <path
         id="path2"
         d="M 0,0 L 216.34908,0 L 216.34908,328.07191 L 0,328.07191 z" />
    </clipPath>
    <pattern
       y="0"
       x="0"
       height="6"
       width="6"
       patternUnits="userSpaceOnUse"
       id="WMFhbasepattern" />
  </defs>
  <path
     id="path8"
     d="  M 55.870732,301.40482   L 55.870732,34.40055   L 187.34697,34.40055   L 187.34697,301.40482   L 55.870732,301.40482  z "
     clip-path="url(#clipWmfPath1)"
     style="fill:#e5e5e5;fill-rule:nonzero;fill-opacity:1;stroke:none;" />
  <path
     id="path10"
     d="  M 187.34697,301.60482   L 187.34697,301.20482   L 56.070747,301.20482   L 56.070747,34.600554   L 187.14695,34.600554   L 187.14695,301.20482   L 56.070747,301.20482   L 56.070747,34.40055   L 55.670718,34.40055   L 55.670718,301.60482   L 187.54698,301.60482   L 187.54698,34.200547   L 55.670718,34.200547   L 55.670718,301.60482   L 187.34697,301.60482  z "
     clip-path="url(#clipWmfPath1)"
     style="fill:#000000;fill-rule:nonzero;fill-opacity:1;stroke:#000000;stroke-width:0.06667152px;stroke-linecap:round;stroke-linejoin:round;stroke-miterlimit:4;stroke-dasharray:none;stroke-opacity:1;" />
  <path
     id="path12"
     d="  M 64.938059,112.6018   L 64.938059,114.40183   L 65.938131,114.60183   L 66.804861,115.13518   L 67.404905,116.06852   L 67.871606,117.46855   L 68.204963,119.26857   L 68.471649,121.53528   L 68.604992,127.60204   L 68.604992,179.86954   L 68.471649,186.00298   L 68.204963,188.26968   L 67.871606,190.06971   L 67.404905,191.40306   L 66.804861,192.33641   L 65.938131,192.86975   L 64.938059,193.06976   L 64.938059,194.93645   L 73.805371,194.93645   L 73.805371,193.06976   L 72.738626,192.86975   L 71.938568,192.33641   L 71.271853,191.40306   L 70.805152,190.06971   L 70.338452,186.00298   L 70.205109,179.86954   L 70.205109,127.60204   L 79.605793,194.93645   L 80.005822,194.93645   L 89.473177,124.46866   L 89.473177,179.86954   L 89.339834,185.00296   L 88.873134,189.20303   L 88.473105,190.80305   L 87.873061,192.06974   L 87.206346,192.80308   L 86.339616,193.06976   L 86.339616,194.93645   L 96.273672,194.93645   L 96.273672,193.06976   L 95.340271,192.86975   L 94.540213,192.20307   L 94.006841,191.13639   L 93.54014,189.6697   L 93.140111,185.5363   L 93.006768,179.86954   L 93.006768,124.46866   L 93.206782,119.53525   L 93.740155,116.46853   L 94.206855,115.46851   L 94.806899,114.8685   L 95.473614,114.53517   L 96.273672,114.40183   L 96.273672,112.6018   L 88.873134,112.6018   L 80.939223,174.40279   L 80.872552,175.0028   L 80.672537,174.33612   L 72.138583,112.6018   L 64.938059,112.6018  z "
     clip-path="url(#clipWmfPath1)"
     style="fill:#cccccc;fill-rule:nonzero;fill-opacity:1;stroke:none;" />
  <path
     id="path14"
     d="  M 153.74452,106.26837   L 99.607248,106.26837   L 126.74256,42.667349   L 153.74452,106.26837  z "
     clip-path="url(#clipWmfPath1)"
     style="fill:#cccccc;fill-rule:nonzero;fill-opacity:1;stroke:none;" />
  <path
     id="path16"
     d="  M 133.60972,46.067404   L 139.07679,53.267519   L 128.14266,80.334618   L 122.67559,73.134503   L 133.60972,46.067404  z "
     clip-path="url(#clipWmfPath1)"
     style="fill:#cccccc;fill-rule:nonzero;fill-opacity:1;stroke:none;" />
  <path
     id="path18"
     d="  M 64.138,222.9369   L 64.138,224.53693   L 64.871387,224.73693   L 65.538102,225.27027   L 66.004803,226.13695   L 66.404832,227.33697   L 66.938204,230.60369   L 67.071547,234.80376   L 67.071547,285.40457   L 66.938204,289.6713   L 66.404832,292.87135   L 66.004803,294.0047   L 65.538102,294.87138   L 64.871387,295.40473   L 64.138,295.60473   L 64.138,297.27142   L 73.872042,297.27142   L 73.872042,295.60473   L 73.138655,295.40473   L 72.47194,294.87138   L 71.938568,294.0047   L 71.538539,292.87135   L 71.005167,289.6713   L 70.871824,285.40457   L 70.871824,261.80419   L 81.67261,261.80419   L 81.67261,285.40457   L 81.472595,289.6713   L 80.939223,292.87135   L 80.005822,294.87138   L 79.339107,295.40473   L 78.60572,295.60473   L 78.60572,297.27142   L 88.406433,297.27142   L 88.406433,295.60473   L 87.606375,295.40473   L 87.006331,294.87138   L 86.472959,294.0047   L 86.07293,292.87135   L 85.606229,289.6713   L 85.472886,285.40457   L 85.472886,234.80376   L 85.606229,230.60369   L 86.07293,227.33697   L 86.472959,226.13695   L 87.006331,225.27027   L 87.606375,224.73693   L 88.406433,224.53693   L 88.406433,222.9369   L 78.60572,222.9369   L 78.60572,224.53693   L 79.339107,224.73693   L 80.005822,225.27027   L 80.939223,227.33697   L 81.472595,230.60369   L 81.67261,234.80376   L 81.67261,256.87078   L 70.871824,256.87078   L 70.871824,234.80376   L 71.005167,230.60369   L 71.538539,227.33697   L 71.938568,226.13695   L 72.47194,225.27027   L 73.138655,224.73693   L 73.872042,224.53693   L 73.872042,222.9369   L 64.138,222.9369  z "
     clip-path="url(#clipWmfPath1)"
     style="fill:#cccccc;fill-rule:nonzero;fill-opacity:1;stroke:none;" />
  <path
     id="path20"
     d="  M 114.475,222.9369   L 114.475,224.53693   L 115.27505,224.67026   L 115.8751,225.07027   L 116.47514,225.73694   L 116.87517,226.73696   L 117.47522,229.80368   L 117.67523,234.47042   L 117.67523,269.27097   L 117.80857,276.00442   L 118.2086,281.93784   L 118.87532,287.00459   L 119.87539,291.27133   L 121.07548,294.60471   L 122.60892,297.00475   L 123.47565,297.87143   L 124.47572,298.53811   L 125.4758,298.87145   L 126.60921,299.00478   L 127.74263,298.87145   L 128.80937,298.47144   L 129.80945,297.80476   L 130.67618,296.93808   L 132.27629,294.40471   L 133.54305,291.00466   L 134.54312,286.73792   L 135.27651,281.67117   L 135.67654,275.80441   L 135.80988,269.27097   L 135.80988,234.47042   L 136.0099,230.13701   L 136.54327,227.00363   L 136.9433,225.93695   L 137.47667,225.13693   L 138.14339,224.67026   L 138.87677,224.53693   L 138.87677,222.9369   L 131.00953,222.9369   L 131.00953,224.53693   L 131.74292,224.67026   L 132.40964,225.13693   L 132.94301,225.93695   L 133.40971,227.00363   L 133.94308,230.13701   L 134.14309,234.47042   L 134.14309,267.87095   L 133.87641,277.73778   L 133.40971,282.07118   L 132.80966,285.93791   L 132.00961,289.07129   L 130.87619,291.538   L 129.47609,293.07136   L 128.67603,293.47136   L 127.8093,293.6047   L 126.8759,293.47136   L 126.07584,293.13802   L 124.60907,291.80467   L 123.47565,289.6713   L 122.60892,286.80459   L 121.94221,283.2712   L 121.54218,279.1378   L 121.20882,269.27097   L 121.20882,234.47042   L 121.34216,229.80368   L 121.87554,226.73696   L 122.34224,225.73694   L 122.87561,225.07027   L 123.54232,224.67026   L 124.34238,224.53693   L 124.34238,222.9369   L 114.475,222.9369  z "
     clip-path="url(#clipWmfPath1)"
     style="fill:#cccccc;fill-rule:nonzero;fill-opacity:1;stroke:none;" />
  <path
     id="path22"
     d="  M 154.54458,221.33687   L 153.67785,221.33687   L 153.54451,223.20357   L 153.21115,224.47026   L 152.74445,225.2036   L 152.21108,225.2036   L 150.41095,223.27024   L 148.94417,222.27022   L 148.27746,221.93688   L 147.14404,221.80355   L 145.94395,222.13689   L 144.81054,223.07024   L 143.81046,224.60359   L 142.87706,226.67029   L 142.14368,229.27033   L 141.54363,232.33705   L 141.21028,235.80377   L 141.07693,239.73717   L 141.21028,244.13724   L 141.54363,247.9373   L 142.14368,251.20402   L 142.87706,254.07073   L 144.74387,258.87081   L 147.0107,263.13754   L 148.81083,266.47093   L 150.61096,270.27099   L 151.34435,272.60436   L 151.94439,275.2044   L 152.34442,278.20445   L 152.47776,281.6045   L 152.1444,287.13793   L 151.27767,291.33799   L 150.67763,292.87135   L 149.94424,294.0047   L 149.07751,294.67138   L 148.14411,294.93805   L 147.41073,294.80472   L 146.74401,294.47138   L 145.54392,293.27136   L 144.47718,291.33799   L 143.54378,288.73795   L 142.07701,282.33785   L 141.01026,274.73773   L 140.14353,274.73773   L 141.1436,298.73811   L 141.94366,298.73811   L 142.14368,296.0714   L 142.47703,295.40473   L 142.87706,295.13805   L 143.41044,295.27139   L 143.94381,295.73806   L 145.01055,297.07142   L 146.34398,298.40477   L 147.21071,298.87145   L 148.27746,299.00478   L 149.74423,298.60478   L 151.07766,297.40476   L 152.41109,295.47139   L 153.54451,292.93802   L 154.54458,289.80464   L 155.27797,286.13791   L 155.74467,282.07118   L 155.94468,277.60444   L 155.74467,273.27104   L 155.27797,269.40431   L 154.54458,266.00426   L 153.61118,262.87087   L 151.34435,257.60412   L 149.07751,253.20405   L 147.41073,249.87066   L 145.87728,246.00394   L 144.67719,241.20386   L 144.34384,238.33715   L 144.21049,235.20376   L 144.47718,231.27037   L 145.21057,228.13698   L 146.21064,226.00362   L 146.81068,225.47027   L 147.41073,225.27027   L 148.81083,225.67028   L 150.07759,226.80363   L 151.211,228.67032   L 152.21108,231.07036   L 152.94446,234.00374   L 153.61118,237.33713   L 153.94454,241.00386   L 154.14455,244.93725   L 155.01128,244.93725   L 154.54458,221.33687  z "
     clip-path="url(#clipWmfPath1)"
     style="fill:#cccccc;fill-rule:nonzero;fill-opacity:1;stroke:none;" />
  <path
     id="path24"
     d="  M 157.21144,222.9369   L 157.21144,224.53693   L 157.94483,224.67026   L 158.61154,225.07027   L 159.07824,225.73694   L 159.54494,226.73696   L 160.01164,229.67034   L 160.21166,233.93708   L 160.21166,286.40458   L 160.01164,290.60465   L 159.54494,293.47136   L 159.07824,294.40471   L 158.61154,295.07139   L 157.94483,295.47139   L 157.21144,295.60473   L 157.21144,297.27142   L 176.47951,297.27142   L 178.01295,278.67112   L 177.2129,278.67112   L 176.14615,284.00454   L 174.94606,288.53795   L 174.21268,290.27131   L 173.34595,291.67133   L 172.47922,292.60468   L 171.47914,293.00469   L 166.81214,293.6047   L 166.01208,293.6047   L 165.01201,293.40469   L 164.61198,293.07136   L 164.34529,292.53801   L 164.01193,290.80465   L 163.87859,287.93794   L 163.87859,260.5375   L 168.87896,260.5375   L 169.87903,260.60417   L 170.74576,260.80417   L 171.47914,261.33751   L 172.07919,262.20419   L 172.61256,263.60422   L 173.01259,265.53758   L 173.47929,271.67101   L 174.14601,271.67101   L 174.14601,244.93725   L 173.47929,244.93725   L 173.01259,250.87068   L 172.61256,252.80404   L 172.07919,254.1374   L 171.47914,255.00408   L 170.74576,255.47075   L 168.87896,255.73742   L 163.87859,255.73742   L 163.87859,228.67032   L 164.07861,227.0703   L 164.34529,226.60363   L 164.74532,226.40362   L 169.41233,226.40362   L 170.61242,226.47029   L 171.67916,226.80363   L 172.67923,227.40364   L 173.54596,228.47032   L 174.21268,230.07035   L 174.81272,232.27038   L 175.14608,235.13709   L 175.34609,238.87049   L 176.01281,238.87049   L 176.01281,222.9369   L 157.21144,222.9369  z "
     clip-path="url(#clipWmfPath1)"
     style="fill:#cccccc;fill-rule:nonzero;fill-opacity:1;stroke:none;" />
  <path
     id="path26"
     d="  M 96.673701,120.93527   L 96.673701,122.53529   L 97.47376,122.7353   L 98.140475,123.26864   L 98.673847,124.13532   L 99.140548,125.26867   L 99.67392,128.46872   L 99.873934,132.66879   L 99.873934,183.33627   L 99.67392,187.53633   L 99.140548,190.60305   L 98.673847,191.7364   L 98.140475,192.60308   L 97.47376,193.06976   L 96.673701,193.26976   L 96.673701,195.00312   L 107.00779,195.00312   L 107.00779,193.26976   L 106.20773,193.06976   L 105.54101,192.60308   L 105.00764,191.7364   L 104.54094,190.60305   L 104.00757,187.53633   L 103.87423,183.33627   L 103.87423,132.66879   L 104.00757,128.46872   L 104.54094,125.26867   L 105.00764,124.13532   L 105.54101,123.26864   L 106.20773,122.7353   L 107.00779,122.53529   L 107.00779,120.93527   L 96.673701,120.93527  z "
     clip-path="url(#clipWmfPath1)"
     style="fill:#cccccc;fill-rule:nonzero;fill-opacity:1;stroke:none;" />
  <path
     id="path28"
     d="  M 131.54291,181.73624   L 130.74285,179.86954   L 128.94272,184.46962   L 126.80923,188.13634   L 125.60914,189.53637   L 124.47572,190.60305   L 123.20897,191.26973   L 122.00888,191.46973   L 120.80879,191.26973   L 119.74205,190.73638   L 118.74197,189.80304   L 117.80857,188.60302   L 116.20846,185.3363   L 115.00837,181.13623   L 114.07497,176.06948   L 113.40825,170.53606   L 113.07489,164.53597   L 112.94155,158.40253   L 113.00822,152.13577   L 113.34158,145.93567   L 113.87495,140.06891   L 114.74168,134.73549   L 115.8751,130.20208   L 116.60849,128.33539   L 117.40854,126.66869   L 118.34194,125.40201   L 119.34202,124.40199   L 120.47543,123.80198   L 121.74219,123.60198   L 123.27564,124.00198   L 124.67574,125.26867   L 126.00917,127.20203   L 127.20926,129.73541   L 128.276,132.86879   L 129.07606,136.46885   L 129.74277,140.46891   L 130.07613,144.73565   L 130.87619,144.73565   L 130.6095,119.86858   L 129.87612,119.86858   L 129.34275,121.66861   L 128.80937,122.86863   L 128.07599,123.33531   L 127.20926,122.9353   L 125.67581,121.53528   L 124.34238,120.60193   L 123.00895,120.06859   L 121.40883,119.86858   L 120.0754,120.06859   L 118.74197,120.53526   L 117.54189,121.40194   L 116.3418,122.53529   L 115.14171,124.00198   L 114.07497,125.73534   L 112.20817,130.06875   L 110.60805,135.40217   L 109.40796,141.66893   L 108.67457,148.80238   L 108.40789,156.66917   L 108.6079,165.06931   L 109.27462,172.7361   L 110.34136,179.60287   L 111.80814,185.46963   L 113.67494,190.26971   L 114.74168,192.20307   L 115.94177,193.86977   L 117.14186,195.13645   L 118.47529,196.0698   L 119.94206,196.66981   L 121.40883,196.86982   L 122.94228,196.60315   L 124.34238,195.80313   L 125.67581,194.53645   L 127.00924,192.80308   L 128.20933,190.60305   L 129.34275,188.06968   L 131.54291,181.73624  z "
     clip-path="url(#clipWmfPath1)"
     style="fill:#cccccc;fill-rule:nonzero;fill-opacity:1;stroke:none;" />
  <path
     id="path30"
     d="  M 165.41204,111.06844   L 164.07861,111.26845   L 162.81185,111.86846   L 161.61176,112.8018   L 160.47834,114.06849   L 158.41153,117.66855   L 157.47813,119.93525   L 156.6114,122.53529   L 155.21129,128.46872   L 154.14455,135.40217   L 153.47783,143.20229   L 153.27782,151.73576   L 153.47783,160.93591   L 154.01121,169.40271   L 155.01128,177.0695   L 156.34471,183.73627   L 157.14477,186.60299   L 158.0115,189.13636   L 159.01157,191.40306   L 160.14499,193.26976   L 161.2784,194.73645   L 162.54516,195.8698   L 163.94526,196.53648   L 165.41204,196.73648   L 166.81214,196.53648   L 168.14557,195.8698   L 169.41233,194.73645   L 170.61242,193.26976   L 171.67916,191.40306   L 172.67923,189.13636   L 174.41269,183.73627   L 175.74612,177.0695   L 176.74619,169.40271   L 177.34624,160.93591   L 177.54625,151.73576   L 177.34624,143.20229   L 176.67952,135.40217   L 175.61278,128.46872   L 174.21268,122.53529   L 173.34595,119.93525   L 172.41255,117.66855   L 170.34573,114.06849   L 169.21231,112.8018   L 168.01223,111.86846   L 166.74547,111.26845   L 165.41204,111.06844  z    M 165.41204,115.26851   L 166.54545,115.46851   L 167.54553,116.06852   L 168.41225,117.06854   L 169.27898,118.46856   L 170.67909,122.06862   L 171.8125,126.80203   L 172.61256,132.33545   L 173.14593,138.46888   L 173.47929,145.00232   L 173.54596,151.73576   L 173.2126,165.53598   L 172.67923,172.26942   L 171.87917,178.53619   L 170.81243,184.00294   L 170.14571,186.26965   L 169.41233,188.26968   L 168.5456,189.8697   L 167.6122,191.06972   L 166.54545,191.80307   L 165.41204,192.06974   L 164.21195,191.80307   L 163.21188,191.06972   L 162.2118,189.8697   L 161.34507,188.26968   L 159.94497,184.00294   L 158.87823,178.53619   L 158.07817,172.26942   L 157.5448,165.53598   L 157.27811,158.53587   L 157.21144,151.73576   L 157.34478,145.00232   L 157.61147,138.46888   L 158.21151,132.33545   L 159.01157,126.80203   L 160.14499,122.06862   L 161.54509,118.46856   L 162.34515,117.06854   L 163.27855,116.06852   L 164.27862,115.46851   L 165.41204,115.26851  z   "
     clip-path="url(#clipWmfPath1)"
     style="fill:#cccccc;fill-rule:evenodd;fill-opacity:1;stroke:none;" />
  <path
     id="path32"
     d="  M 136.07657,133.80214   L 136.07657,182.53625   L 136.0099,187.403   L 135.5432,190.73638   L 135.14317,191.86974   L 134.6098,192.66975   L 133.80974,193.13642   L 132.80966,193.26976   L 132.80966,195.00312   L 143.21042,195.00312   L 143.21042,193.26976   L 142.21035,193.13642   L 141.41029,192.66975   L 140.81025,191.86974   L 140.41022,190.73638   L 140.01019,187.403   L 139.94352,182.53625   L 139.94352,160.80257   L 142.14368,160.80257   L 151.14433,195.00312   L 157.0781,195.00312   L 157.0781,193.26976   L 156.47805,193.06976   L 155.87801,192.40308   L 154.67792,190.06971   L 153.47783,186.80299   L 152.41109,183.00293   L 145.94395,160.00256   L 147.21071,159.26921   L 148.47747,157.93586   L 149.61089,156.13583   L 150.67763,153.80246   L 151.54436,151.06908   L 152.21108,147.9357   L 152.67778,144.46898   L 152.81112,140.66892   L 152.61111,135.20216   L 151.94439,130.73542   L 150.94432,127.33537   L 149.67756,124.73533   L 148.14411,122.9353   L 146.544,121.73528   L 144.81054,121.13527   L 143.14375,120.93527   L 132.80966,120.93527   L 132.80966,122.53529   L 133.80974,122.66863   L 134.6098,123.20197   L 135.14317,124.00198   L 135.5432,125.202   L 136.0099,128.66873   L 136.07657,133.80214  z    M 139.94352,156.80251   L 139.94352,128.13538   L 140.07686,126.06868   L 140.47689,125.06867   L 141.1436,124.802   L 141.94366,124.802   L 142.34369,124.802   L 143.67712,125.002   L 144.94388,125.60201   L 146.01062,126.73536   L 146.94403,128.33539   L 147.67741,130.46875   L 148.21078,133.20213   L 148.54414,136.60219   L 148.67749,140.66892   L 148.47747,145.73566   L 147.87743,149.66906   L 146.94403,152.53577   L 145.74394,154.46914   L 144.41051,155.73582   L 142.94373,156.46917   L 141.41029,156.73584   L 139.94352,156.80251  z   "
     clip-path="url(#clipWmfPath1)"
     style="fill:#cccccc;fill-rule:evenodd;fill-opacity:1;stroke:none;" />
  <path
     id="path34"
     d="  M 101.40738,221.80355   L 100.14062,222.00355   L 98.940533,222.47023   L 97.740446,223.33691   L 96.673701,224.53693   L 95.606957,226.00362   L 94.673556,227.73698   L 92.940096,232.13705   L 91.539994,237.47047   L 90.539922,243.73723   L 89.873207,250.80401   L 89.673192,258.53747   L 89.873207,266.80427   L 90.406579,274.40439   L 91.33998,281.27117   L 92.67341,287.27126   L 94.340198,292.20467   L 95.273599,294.20471   L 96.340344,295.8714   L 97.47376,297.20475   L 98.673847,298.20477   L 100.00728,298.80478   L 101.40738,299.00478   L 102.80748,298.80478   L 104.07424,298.20477   L 105.27433,297.20475   L 106.40774,295.8714   L 107.47449,294.20471   L 108.40789,292.20467   L 110.07468,287.27126   L 111.40811,281.27117   L 112.34151,274.40439   L 112.94155,266.80427   L 113.14157,258.53747   L 112.94155,250.80401   L 112.27484,243.73723   L 111.27476,237.47047   L 109.87466,232.13705   L 108.20787,227.73698   L 107.2078,226.00362   L 106.20773,224.53693   L 105.07431,223.33691   L 103.9409,222.47023   L 102.67414,222.00355   L 101.40738,221.80355  z    M 101.40738,225.47027   L 102.47412,225.67028   L 103.4742,226.20362   L 104.34093,227.13697   L 105.14098,228.33699   L 106.47441,231.60371   L 107.54116,235.87044   L 108.27455,240.80385   L 108.80792,246.40394   L 109.14128,252.33737   L 109.20795,258.40413   L 108.87459,270.80433   L 108.40789,276.8711   L 107.6745,282.53785   L 106.60776,287.47127   L 105.27433,291.27133   L 104.47427,292.73802   L 103.54087,293.8047   L 102.54079,294.53805   L 101.40738,294.73805   L 100.27396,294.53805   L 99.273891,293.8047   L 98.340489,292.73802   L 97.47376,291.27133   L 96.140329,287.47127   L 95.073585,282.53785   L 94.340198,276.8711   L 93.806826,270.80433   L 93.54014,264.53757   L 93.473468,258.40413   L 93.54014,252.33737   L 93.873498,246.40394   L 94.40687,240.80385   L 95.206928,235.87044   L 96.273672,231.60371   L 97.607103,228.33699   L 98.473832,227.13697   L 99.340562,226.20362   L 100.34063,225.67028   L 101.40738,225.47027  z   "
     clip-path="url(#clipWmfPath1)"
     style="fill:#cccccc;fill-rule:evenodd;fill-opacity:1;stroke:none;" />
  <path
     id="path36"
     d="  M 62.80457,211.47005   L 62.80457,209.40335   L 179.5464,209.40335   L 179.5464,211.47005   L 62.80457,211.47005  z "
     clip-path="url(#clipWmfPath1)"
     style="fill:#cccccc;fill-rule:evenodd;fill-opacity:1;stroke:none;" />
  <path
     id="path38"
     d="  M 179.0797,115.60185   L 179.81308,115.93519   L 180.41313,117.06854   L 180.61314,118.40189   L 180.41313,119.86858   L 180.21311,120.53526   L 179.81308,120.93527   L 179.0797,121.33527   L 178.27964,120.93527   L 177.61292,119.86858   L 177.47958,118.40189   L 177.6796,117.06854   L 178.27964,115.93519   L 179.0797,115.60185  z    M 179.0797,115.80185   L 178.67967,115.93519   L 178.34631,116.33519   L 177.87961,117.13521   L 177.6796,117.80188   L 177.61292,118.40189   L 177.6796,119.13524   L 177.87961,119.86858   L 178.34631,120.73526   L 179.0797,121.13527   L 179.67974,120.73526   L 180.34646,119.86858   L 180.4798,118.40189   L 180.34646,117.13521   L 179.67974,116.33519   L 179.41306,115.93519   L 179.0797,115.80185  z    M 178.21297,116.66853   L 179.0797,116.66853   L 179.5464,116.9352   L 179.67974,117.66855   L 179.61307,118.26856   L 179.21304,118.46856   L 179.67974,119.66858   L 179.81308,120.00192   L 179.87976,120.00192   L 179.87976,120.26859   L 179.5464,120.26859   L 178.87968,118.46856   L 178.81301,118.46856   L 178.81301,119.86858   L 178.87968,120.00192   L 179.14637,120.00192   L 179.14637,120.26859   L 178.1463,120.26859   L 178.1463,120.00192   L 178.27964,120.00192   L 178.34631,119.86858   L 178.34631,119.53525   L 178.34631,117.33521   L 178.34631,117.06854   L 178.34631,116.80187   L 178.21297,116.80187   L 178.21297,116.66853  z    M 178.81301,118.33523   L 179.14637,118.33523   L 179.27971,118.00189   L 179.34638,117.66855   L 179.21304,117.06854   L 179.01303,116.80187   L 178.81301,116.80187   L 178.81301,118.33523  z   "
     clip-path="url(#clipWmfPath1)"
     style="fill:#bfbfbf;fill-rule:evenodd;fill-opacity:1;stroke:none;" />
  <path
     id="path40"
     d="  M 146.14397,63.401014   L 146.14397,66.201059   L 146.27731,66.934404   L 146.74401,67.467746   L 147.34406,67.734417   L 148.07744,67.867752   L 163.14521,67.867752   L 163.87859,67.734417   L 164.54531,67.334411   L 164.94534,66.734401   L 165.07868,66.001056   L 165.07868,56.534238   L 164.94534,55.800893   L 164.54531,55.267551   L 163.87859,54.867544   L 163.14521,54.734209   L 148.07744,54.734209   L 147.34406,54.934212   L 146.74401,55.400886   L 146.27731,56.000896   L 146.14397,56.800909   L 146.14397,59.334283   L 134.07642,61.334315   L 146.14397,63.401014  z "
     clip-path="url(#clipWmfPath1)"
     style="fill:#ffffff;fill-rule:nonzero;fill-opacity:1;stroke:none;" />
  <path
     id="path42"
     d="  M 134.14309,60.86764   L 133.54305,61.267647   L 134.00975,61.800989   L 145.6106,63.801021   L 145.6106,66.267727   L 145.81061,67.134407   L 146.41065,67.867752   L 147.21071,68.201091   L 148.01077,68.401094   L 163.21188,68.401094   L 164.07861,68.201091   L 164.87866,67.734417   L 165.41204,66.934404   L 165.61205,66.067724   L 165.61205,56.46757   L 165.41204,55.600889   L 164.87866,54.867544   L 164.07861,54.40087   L 163.21188,54.200867   L 148.01077,54.200867   L 147.14404,54.467538   L 146.41065,55.067548   L 145.81061,55.800893   L 145.6106,56.734241   L 145.6106,58.934276   L 134.00975,60.86764   L 134.00975,61.800989   L 145.6106,63.801021   L 145.6106,66.201059   L 146.14397,66.734401   L 146.67734,66.201059   L 146.67734,63.001008   L 137.14331,61.334315   L 146.67734,59.734289   L 146.67734,56.867576   L 146.74401,56.200899   L 147.07737,55.734225   L 147.54407,55.400886   L 148.14411,55.267551   L 163.07853,55.267551   L 163.67858,55.334219   L 164.21195,55.667557   L 164.47864,56.000896   L 164.54531,56.600905   L 164.54531,65.934388   L 164.47864,66.534398   L 164.21195,66.934404   L 163.67858,67.267743   L 163.07853,67.334411   L 148.14411,67.334411   L 147.4774,67.267743   L 147.07737,67.06774   L 146.74401,66.734401   L 146.67734,66.134391   L 146.67734,63.001008   L 134.14309,60.86764  z "
     clip-path="url(#clipWmfPath1)"
     style="fill:#000000;fill-rule:nonzero;fill-opacity:1;stroke:#000000;stroke-width:0.06667152px;stroke-linecap:round;stroke-linejoin:round;stroke-miterlimit:4;stroke-dasharray:none;stroke-opacity:1;" />
  <path
     id="path44"
     d="  M 55.870732,217.53681   L 55.870732,112.93514   L 80.205836,112.93514   L 80.205836,217.53681   L 55.870732,217.53681  z "
     clip-path="url(#clipWmfPath1)"
     style="fill:#bfbfbf;fill-rule:evenodd;fill-opacity:1;stroke:none;" />
  <path
     id="path46"
     d="  M 55.870732,217.53681   L 55.870732,112.93514   L 80.205836,112.93514   L 80.205836,217.53681   L 55.870732,217.53681  z "
     clip-path="url(#clipWmfPath1)"
     style="fill:none;stroke:#000000;stroke-width:0.06667152px;stroke-linecap:round;stroke-linejoin:round;stroke-miterlimit:4;stroke-dasharray:none;stroke-opacity:1;" />
  <path
     id="path48"
     d="  M 43.203144,161.86926   L 43.203144,159.06921   L 43.069801,158.33587   L 42.669772,157.86919   L 42.003056,157.53585   L 41.26967,157.40252   L 26.201907,157.40252   L 25.46852,157.53585   L 24.868476,157.93586   L 24.401776,158.53587   L 24.268433,159.26921   L 24.268433,168.73603   L 24.401776,169.46938   L 24.868476,170.06939   L 25.46852,170.40273   L 26.201907,170.53606   L 41.26967,170.53606   L 42.003056,170.33606   L 42.669772,169.93605   L 43.069801,169.26937   L 43.203144,168.46936   L 43.203144,165.93599   L 55.270689,163.93596   L 43.203144,161.86926  z "
     clip-path="url(#clipWmfPath1)"
     style="fill:#ffffff;fill-rule:nonzero;fill-opacity:1;stroke:none;" />
  <path
     id="path50"
     d="  M 55.204017,164.40263   L 55.804061,164.00262   L 55.33736,163.46928   L 43.736516,161.46925   L 43.736516,159.00254   L 43.536501,158.13586   L 43.003129,157.46919   L 42.136399,157.06918   L 41.336341,156.86918   L 26.135235,156.86918   L 25.268505,157.06918   L 24.535119,157.53585   L 23.935075,158.33587   L 23.73506,159.20255   L 23.73506,168.8027   L 23.935075,169.66938   L 24.535119,170.46939   L 25.268505,170.8694   L 26.135235,171.0694   L 41.336341,171.0694   L 42.203071,170.80273   L 43.069801,170.33606   L 43.536501,169.46938   L 43.736516,168.53603   L 43.736516,166.33599   L 55.33736,164.40263   L 55.33736,163.46928   L 43.736516,161.46925   L 43.736516,159.06921   L 43.203144,158.53587   L 42.669772,159.06921   L 42.669772,162.26926   L 52.203799,163.93596   L 42.669772,165.53598   L 42.669772,168.40269   L 42.6031,169.06937   L 42.269743,169.53605   L 41.803042,169.86938   L 41.202998,170.00272   L 26.268578,170.00272   L 25.668535,169.93605   L 25.201834,169.66938   L 24.868476,169.26937   L 24.801805,168.66936   L 24.801805,159.33588   L 24.868476,158.73587   L 25.201834,158.33587   L 25.668535,158.00253   L 26.268578,157.93586   L 41.202998,157.93586   L 41.869713,158.00253   L 42.336414,158.2692   L 42.6031,158.53587   L 42.669772,159.13588   L 42.669772,162.26926   L 55.204017,164.40263  z "
     clip-path="url(#clipWmfPath1)"
     style="fill:#000000;fill-rule:nonzero;fill-opacity:1;stroke:#000000;stroke-width:0.06667152px;stroke-linecap:round;stroke-linejoin:round;stroke-miterlimit:4;stroke-dasharray:none;stroke-opacity:1;" />
  <g
     id="g52"
     clip-path="url(#clipWmfPath1)" />
  <g
     id="g62"
     clip-path="url(#clipWmfPath1)">
    <text
       id="text60"
       y="0.000000"
       x="0.000000"
       transform="matrix(1.000000,-0.000000,0.000000,1.000000,28.135381,168.002688)"
       style="font-size:10.687500px;font-style:normal;font-variant:normal;font-weight:400;font-stretch:Condensed;line-height:125.000000%;letter-spacing:0px;word-spacing:0px;fill:#000000;fill-opacity:1;stroke:none;font-family:Helvetica-Narrow;text-align:start;text-anchor:start;"
       xml:space="preserve"><tspan
         id="tspan58"
         y="0.000000"
         x="0.000000"><tspan
           id="tspan54"
           style="fill:#000000;font-size:10.687500px;font-style:normal;font-variant:normal;font-weight:400;font-stretch:Condensed;font-family:Helvetica-Narrow;"
           dy="0.000000"
           dx="0.000000">J</tspan><tspan
           id="tspan56"
           style="fill:#000000;font-size:10.687500px;font-style:normal;font-variant:normal;font-weight:400;font-stretch:Condensed;font-family:Helvetica-Narrow;"
           dy="0.000000"
           dx="0.323329">1</tspan></tspan></text>
  </g>
  <g
     id="g64"
     clip-path="url(#clipWmfPath1)" />
  <g
     id="g82"
     clip-path="url(#clipWmfPath1)">
    <text
       id="text80"
       y="0.000000"
       x="0.000000"
       transform="matrix(1.000000,-0.000000,0.000000,1.000000,146.343982,48.000768)"
       style="font-size:9.312500px;font-style:normal;font-variant:normal;font-weight:400;font-stretch:Condensed;line-height:125.000000%;letter-spacing:0px;word-spacing:0px;fill:#000000;fill-opacity:1;stroke:none;font-family:Helvetica-Narrow;text-align:start;text-anchor:start;"
       xml:space="preserve"><tspan
         id="tspan78"
         y="0.000000"
         x="0.000000"><tspan
           id="tspan66"
           style="fill:#000000;font-size:9.312500px;font-style:normal;font-variant:normal;font-weight:400;font-stretch:Condensed;font-family:Helvetica-Narrow;"
           dy="0.000000"
           dx="0.000000">3</tspan><tspan
           id="tspan68"
           style="fill:#000000;font-size:9.312500px;font-style:normal;font-variant:normal;font-weight:400;font-stretch:Condensed;font-family:Helvetica-Narrow;"
           dy="0.000000"
           dx="0.183821">4</tspan><tspan
           id="tspan70"
           style="fill:#000000;font-size:9.312500px;font-style:normal;font-variant:normal;font-weight:400;font-stretch:Condensed;font-family:Helvetica-Narrow;"
           dy="0.000000"
           dx="0.183821">2</tspan><tspan
           id="tspan72"
           style="fill:#000000;font-size:9.312500px;font-style:normal;font-variant:normal;font-weight:400;font-stretch:Condensed;font-family:Helvetica-Narrow;"
           dy="0.000000"
           dx="0.250493">2</tspan><tspan
           id="tspan74"
           style="fill:#000000;font-size:9.312500px;font-style:normal;font-variant:normal;font-weight:400;font-stretch:Condensed;font-family:Helvetica-Narrow;"
           dy="0.000000"
           dx="0.183821">4</tspan><tspan
           id="tspan76"
           style="fill:#000000;font-size:9.312500px;font-style:normal;font-variant:normal;font-weight:400;font-stretch:Condensed;font-family:Helvetica-Narrow;"
           dy="0.000000"
           dx="0.183821">A</tspan></tspan></text>
  </g>
  <path
     id="path84"
     d="  M 75.205473,271.53768   L 65.538102,271.53768   L 65.538102,247.40396   L 75.205473,247.40396   L 75.205473,271.53768  z "
     clip-path="url(#clipWmfPath1)"
     style="fill:#ffffff;fill-rule:nonzero;fill-opacity:1;stroke:none;" />
  <path
     id="path86"
     d="  M 75.205473,271.53768   L 65.538102,271.53768   L 65.538102,247.40396   L 75.205473,247.40396   L 75.205473,271.53768  z "
     clip-path="url(#clipWmfPath1)"
     style="fill:none;stroke:#000000;stroke-width:0.06667152px;stroke-linecap:round;stroke-linejoin:round;stroke-miterlimit:4;stroke-dasharray:none;stroke-opacity:1;" />
  <path
     id="path88"
     d="  M 69.338379,260.80417   L 66.604847,260.80417   L 66.604847,258.0708   L 69.338379,258.0708   L 69.338379,260.80417  z "
     clip-path="url(#clipWmfPath1)"
     style="fill:#000000;fill-rule:nonzero;fill-opacity:1;stroke:none;" />
  <path
     id="path90"
     d="  M 69.338379,260.80417   L 66.604847,260.80417   L 66.604847,258.0708   L 69.338379,258.0708   L 69.338379,260.80417  z "
     clip-path="url(#clipWmfPath1)"
     style="fill:none;stroke:#000000;stroke-width:0.06667152px;stroke-linecap:round;stroke-linejoin:round;stroke-miterlimit:4;stroke-dasharray:none;stroke-opacity:1;" />
  <path
     id="path92"
     d="  M 69.338379,256.2041   L 66.604847,256.2041   L 66.604847,253.47072   L 69.338379,253.47072   L 69.338379,256.2041  z "
     clip-path="url(#clipWmfPath1)"
     style="fill:#000000;fill-rule:nonzero;fill-opacity:1;stroke:none;" />
  <path
     id="path94"
     d="  M 69.338379,256.2041   L 66.604847,256.2041   L 66.604847,253.47072   L 69.338379,253.47072   L 69.338379,256.2041  z "
     clip-path="url(#clipWmfPath1)"
     style="fill:none;stroke:#000000;stroke-width:0.06667152px;stroke-linecap:round;stroke-linejoin:round;stroke-miterlimit:4;stroke-dasharray:none;stroke-opacity:1;" />
  <path
     id="path96"
     d="  M 69.338379,251.47069   L 66.604847,251.47069   L 66.604847,248.73731   L 69.338379,248.73731   L 69.338379,251.47069  z "
     clip-path="url(#clipWmfPath1)"
     style="fill:#ffffff;fill-rule:nonzero;fill-opacity:1;stroke:none;" />
  <path
     id="path98"
     d="  M 69.338379,251.47069   L 66.604847,251.47069   L 66.604847,248.73731   L 69.338379,248.73731   L 69.338379,251.47069  z "
     clip-path="url(#clipWmfPath1)"
     style="fill:none;stroke:#000000;stroke-width:0.06667152px;stroke-linecap:round;stroke-linejoin:round;stroke-miterlimit:4;stroke-dasharray:none;stroke-opacity:1;" />
  <path
     id="path100"
     d="  M 69.338379,270.07099   L 66.604847,270.07099   L 66.604847,267.33761   L 69.338379,267.33761   L 69.338379,270.07099  z "
     clip-path="url(#clipWmfPath1)"
     style="fill:#000000;fill-rule:nonzero;fill-opacity:1;stroke:none;" />
  <path
     id="path102"
     d="  M 69.338379,270.07099   L 66.604847,270.07099   L 66.604847,267.33761   L 69.338379,267.33761   L 69.338379,270.07099  z "
     clip-path="url(#clipWmfPath1)"
     style="fill:none;stroke:#000000;stroke-width:0.06667152px;stroke-linecap:round;stroke-linejoin:round;stroke-miterlimit:4;stroke-dasharray:none;stroke-opacity:1;" />
  <path
     id="path104"
     d="  M 69.338379,265.47091   L 66.604847,265.47091   L 66.604847,262.73754   L 69.338379,262.73754   L 69.338379,265.47091  z "
     clip-path="url(#clipWmfPath1)"
     style="fill:#000000;fill-rule:nonzero;fill-opacity:1;stroke:none;" />
  <path
     id="path106"
     d="  M 69.338379,265.47091   L 66.604847,265.47091   L 66.604847,262.73754   L 69.338379,262.73754   L 69.338379,265.47091  z "
     clip-path="url(#clipWmfPath1)"
     style="fill:none;stroke:#000000;stroke-width:0.06667152px;stroke-linecap:round;stroke-linejoin:round;stroke-miterlimit:4;stroke-dasharray:none;stroke-opacity:1;" />
  <path
     id="path108"
     d="  M 74.005385,260.80417   L 71.271853,260.80417   L 71.271853,258.0708   L 74.005385,258.0708   L 74.005385,260.80417  z "
     clip-path="url(#clipWmfPath1)"
     style="fill:#000000;fill-rule:nonzero;fill-opacity:1;stroke:none;" />
  <path
     id="path110"
     d="  M 74.005385,260.80417   L 71.271853,260.80417   L 71.271853,258.0708   L 74.005385,258.0708   L 74.005385,260.80417  z "
     clip-path="url(#clipWmfPath1)"
     style="fill:none;stroke:#000000;stroke-width:0.06667152px;stroke-linecap:round;stroke-linejoin:round;stroke-miterlimit:4;stroke-dasharray:none;stroke-opacity:1;" />
  <path
     id="path112"
     d="  M 74.005385,256.2041   L 71.271853,256.2041   L 71.271853,253.47072   L 74.005385,253.47072   L 74.005385,256.2041  z "
     clip-path="url(#clipWmfPath1)"
     style="fill:#000000;fill-rule:nonzero;fill-opacity:1;stroke:none;" />
  <path
     id="path114"
     d="  M 74.005385,256.2041   L 71.271853,256.2041   L 71.271853,253.47072   L 74.005385,253.47072   L 74.005385,256.2041  z "
     clip-path="url(#clipWmfPath1)"
     style="fill:none;stroke:#000000;stroke-width:0.06667152px;stroke-linecap:round;stroke-linejoin:round;stroke-miterlimit:4;stroke-dasharray:none;stroke-opacity:1;" />
  <path
     id="path116"
     d="  M 74.005385,251.47069   L 71.271853,251.47069   L 71.271853,248.73731   L 74.005385,248.73731   L 74.005385,251.47069  z "
     clip-path="url(#clipWmfPath1)"
     style="fill:#000000;fill-rule:nonzero;fill-opacity:1;stroke:none;" />
  <path
     id="path118"
     d="  M 74.005385,251.47069   L 71.271853,251.47069   L 71.271853,248.73731   L 74.005385,248.73731   L 74.005385,251.47069  z "
     clip-path="url(#clipWmfPath1)"
     style="fill:none;stroke:#000000;stroke-width:0.06667152px;stroke-linecap:round;stroke-linejoin:round;stroke-miterlimit:4;stroke-dasharray:none;stroke-opacity:1;" />
  <path
     id="path120"
     d="  M 74.005385,270.07099   L 71.271853,270.07099   L 71.271853,267.33761   L 74.005385,267.33761   L 74.005385,270.07099  z "
     clip-path="url(#clipWmfPath1)"
     style="fill:#000000;fill-rule:nonzero;fill-opacity:1;stroke:none;" />
  <path
     id="path122"
     d="  M 74.005385,270.07099   L 71.271853,270.07099   L 71.271853,267.33761   L 74.005385,267.33761   L 74.005385,270.07099  z "
     clip-path="url(#clipWmfPath1)"
     style="fill:none;stroke:#000000;stroke-width:0.06667152px;stroke-linecap:round;stroke-linejoin:round;stroke-miterlimit:4;stroke-dasharray:none;stroke-opacity:1;" />
  <path
     id="path124"
     d="  M 74.005385,265.47091   L 71.271853,265.47091   L 71.271853,262.73754   L 74.005385,262.73754   L 74.005385,265.47091  z "
     clip-path="url(#clipWmfPath1)"
     style="fill:#000000;fill-rule:nonzero;fill-opacity:1;stroke:none;" />
  <path
     id="path126"
     d="  M 74.005385,265.47091   L 71.271853,265.47091   L 71.271853,262.73754   L 74.005385,262.73754   L 74.005385,265.47091  z "
     clip-path="url(#clipWmfPath1)"
     style="fill:none;stroke:#000000;stroke-width:0.06667152px;stroke-linecap:round;stroke-linejoin:round;stroke-miterlimit:4;stroke-dasharray:none;stroke-opacity:1;" />
  <path
     id="path128"
     d="  M 129.40942,56.134231   L 134.07642,56.134231   L 134.07642,66.334395   L 129.40942,66.334395   L 129.40942,56.134231  z "
     clip-path="url(#clipWmfPath1)"
     style="fill:#ffffff;fill-rule:nonzero;fill-opacity:1;stroke:none;" />
  <path
     id="path130"
     d="  M 129.40942,56.134231   L 134.07642,56.134231   L 134.07642,66.334395   L 129.40942,66.334395   L 129.40942,56.134231  z "
     clip-path="url(#clipWmfPath1)"
     style="fill:none;stroke:#000000;stroke-width:0.06667152px;stroke-linecap:round;stroke-linejoin:round;stroke-miterlimit:4;stroke-dasharray:none;stroke-opacity:1;" />
  <path
     id="path132"
     d="  M 130.40949,57.600921   L 133.14302,57.600921   L 133.14302,60.334299   L 130.40949,60.334299   L 130.40949,57.600921  z "
     clip-path="url(#clipWmfPath1)"
     style="fill:#000000;fill-rule:nonzero;fill-opacity:1;stroke:none;" />
  <path
     id="path134"
     d="  M 130.40949,57.600921   L 133.14302,57.600921   L 133.14302,60.334299   L 130.40949,60.334299   L 130.40949,57.600921  z "
     clip-path="url(#clipWmfPath1)"
     style="fill:none;stroke:#000000;stroke-width:0.06667152px;stroke-linecap:round;stroke-linejoin:round;stroke-miterlimit:4;stroke-dasharray:none;stroke-opacity:1;" />
  <path
     id="path136"
     d="  M 130.40949,62.134327   L 133.14302,62.134327   L 133.14302,64.867704   L 130.40949,64.867704   L 130.40949,62.134327  z "
     clip-path="url(#clipWmfPath1)"
     style="fill:#000000;fill-rule:nonzero;fill-opacity:1;stroke:none;" />
  <path
     id="path138"
     d="  M 130.40949,62.134327   L 133.14302,62.134327   L 133.14302,64.867704   L 130.40949,64.867704   L 130.40949,62.134327  z "
     clip-path="url(#clipWmfPath1)"
     style="fill:none;stroke:#000000;stroke-width:0.06667152px;stroke-linecap:round;stroke-linejoin:round;stroke-miterlimit:4;stroke-dasharray:none;stroke-opacity:1;" />
  <path
     id="path140"
     d="  M 87.673046,262.07086   L 87.673046,264.8709   L 87.806389,265.60425   L 88.27309,266.13759   L 88.873134,266.40426   L 89.60652,266.5376   L 104.67428,266.5376   L 105.40767,266.40426   L 106.07439,266.00426   L 106.47441,265.40425   L 106.60776,264.6709   L 106.60776,255.20408   L 106.47441,254.47074   L 106.07439,253.9374   L 105.40767,253.53739   L 104.67428,253.40405   L 89.60652,253.40405   L 88.873134,253.60406   L 88.27309,254.07073   L 87.806389,254.67074   L 87.673046,255.47075   L 87.673046,258.00413   L 75.605502,260.00416   L 87.673046,262.07086  z "
     clip-path="url(#clipWmfPath1)"
     style="fill:#ffffff;fill-rule:nonzero;fill-opacity:1;stroke:none;" />
  <path
     id="path142"
     d="  M 75.672173,259.53749   L 75.072129,259.93749   L 75.53883,260.47083   L 87.139674,262.47087   L 87.139674,264.93757   L 87.339689,265.80425   L 87.939732,266.5376   L 88.739791,266.87094   L 89.539849,267.07094   L 104.74096,267.07094   L 105.60768,266.87094   L 106.40774,266.40426   L 106.94112,265.60425   L 107.14113,264.73757   L 107.14113,255.13741   L 106.94112,254.27073   L 106.40774,253.53739   L 105.60768,253.07072   L 104.74096,252.87071   L 89.539849,252.87071   L 88.673119,253.13738   L 87.939732,253.73739   L 87.339689,254.47074   L 87.139674,255.40409   L 87.139674,257.60412   L 75.53883,259.53749   L 75.53883,260.47083   L 87.139674,262.47087   L 87.139674,264.8709   L 87.673046,265.40425   L 88.206419,264.8709   L 88.206419,261.67085   L 78.672391,260.00416   L 88.206419,258.40413   L 88.206419,255.53742   L 88.27309,254.87074   L 88.606448,254.40407   L 89.073148,254.07073   L 89.673192,253.9374   L 104.60761,253.9374   L 105.20766,254.00406   L 105.74103,254.3374   L 106.00771,254.67074   L 106.07439,255.27075   L 106.07439,264.60423   L 106.00771,265.20424   L 105.74103,265.60425   L 105.20766,265.93759   L 104.60761,266.00426   L 89.673192,266.00426   L 89.006477,265.93759   L 88.606448,265.73758   L 88.27309,265.40425   L 88.206419,264.80424   L 88.206419,261.67085   L 75.672173,259.53749  z "
     clip-path="url(#clipWmfPath1)"
     style="fill:#000000;fill-rule:nonzero;fill-opacity:1;stroke:#000000;stroke-width:0.06667152px;stroke-linecap:round;stroke-linejoin:round;stroke-miterlimit:4;stroke-dasharray:none;stroke-opacity:1;" />
  <g
     id="g144"
     clip-path="url(#clipWmfPath1)" />
  <g
     id="g154"
     clip-path="url(#clipWmfPath1)">
    <text
       id="text152"
       y="0.000000"
       x="0.000000"
       transform="matrix(1.000000,-0.000000,0.000000,1.000000,90.939951,263.604217)"
       style="font-size:10.687500px;font-style:normal;font-variant:normal;font-weight:400;font-stretch:Condensed;line-height:125.000000%;letter-spacing:0px;word-spacing:0px;fill:#000000;fill-opacity:1;stroke:none;font-family:Helvetica-Narrow;text-align:start;text-anchor:start;"
       xml:space="preserve"><tspan
         id="tspan150"
         y="0.000000"
         x="0.000000"><tspan
           id="tspan146"
           style="fill:#000000;font-size:10.687500px;font-style:normal;font-variant:normal;font-weight:400;font-stretch:Condensed;font-family:Helvetica-Narrow;"
           dy="0.000000"
           dx="0.000000">W</tspan><tspan
           id="tspan148"
           style="fill:#000000;font-size:10.687500px;font-style:normal;font-variant:normal;font-weight:400;font-stretch:Condensed;font-family:Helvetica-Narrow;"
           dy="0.000000"
           dx="0.072083">1</tspan></tspan></text>
  </g>
  <g
     id="g156"
     clip-path="url(#clipWmfPath1)" />
  <g
     id="g166"
     clip-path="url(#clipWmfPath1)">
    <text
       id="text164"
       y="0.000000"
       x="0.000000"
       transform="matrix(1.000000,-0.000000,0.000000,1.000000,148.877500,65.467714)"
       style="font-size:10.687500px;font-style:normal;font-variant:normal;font-weight:400;font-stretch:Condensed;line-height:125.000000%;letter-spacing:0px;word-spacing:0px;fill:#000000;fill-opacity:1;stroke:none;font-family:Helvetica-Narrow;text-align:start;text-anchor:start;"
       xml:space="preserve"><tspan
         id="tspan162"
         y="0.000000"
         x="0.000000"><tspan
           id="tspan158"
           style="fill:#000000;font-size:10.687500px;font-style:normal;font-variant:normal;font-weight:400;font-stretch:Condensed;font-family:Helvetica-Narrow;"
           dy="0.000000"
           dx="0.000000">W</tspan><tspan
           id="tspan160"
           style="fill:#000000;font-size:10.687500px;font-style:normal;font-variant:normal;font-weight:400;font-stretch:Condensed;font-family:Helvetica-Narrow;"
           dy="0.000000"
           dx="0.072083">2</tspan></tspan></text>
  </g>
  <g
     id="g168"
     clip-path="url(#clipWmfPath1)" />
  <g
     id="g186"
     clip-path="url(#clipWmfPath1)">
    <text
       id="text184"
       y="0.000000"
       x="0.000000"
       transform="matrix(1.000000,-0.000000,0.000000,1.000000,112.274837,317.138407)"
       style="font-size:10.687500px;font-style:normal;font-variant:normal;font-weight:400;font-stretch:Condensed;line-height:125.000000%;letter-spacing:0px;word-spacing:0px;fill:#000000;fill-opacity:1;stroke:none;font-family:Helvetica-Narrow;text-align:start;text-anchor:start;"
       xml:space="preserve"><tspan
         id="tspan182"
         y="0.000000"
         x="0.000000"><tspan
           id="tspan170"
           style="fill:#000000;font-size:10.687500px;font-style:normal;font-variant:normal;font-weight:400;font-stretch:Condensed;font-family:Helvetica-Narrow;"
           dy="0.000000"
           dx="0.000000">A</tspan><tspan
           id="tspan172"
           style="fill:#000000;font-size:10.687500px;font-style:normal;font-variant:normal;font-weight:400;font-stretch:Condensed;font-family:Helvetica-Narrow;"
           dy="0.000000"
           dx="-0.102044">M</tspan><tspan
           id="tspan174"
           style="fill:#000000;font-size:10.687500px;font-style:normal;font-variant:normal;font-weight:400;font-stretch:Condensed;font-family:Helvetica-Narrow;"
           dy="0.000000"
           dx="-0.022099">-</tspan><tspan
           id="tspan176"
           style="fill:#000000;font-size:10.687500px;font-style:normal;font-variant:normal;font-weight:400;font-stretch:Condensed;font-family:Helvetica-Narrow;"
           dy="0.000000"
           dx="0.026127">3</tspan><tspan
           id="tspan178"
           style="fill:#000000;font-size:10.687500px;font-style:normal;font-variant:normal;font-weight:400;font-stretch:Condensed;font-family:Helvetica-Narrow;"
           dy="0.000000"
           dx="0.003789">3</tspan><tspan
           id="tspan180"
           style="fill:#000000;font-size:10.687500px;font-style:normal;font-variant:normal;font-weight:400;font-stretch:Condensed;font-family:Helvetica-Narrow;"
           dy="0.000000"
           dx="0.003789">8</tspan></tspan></text>
  </g>
  <g
     id="g188"
     clip-path="url(#clipWmfPath1)" />
  <g
     id="g196"
     clip-path="url(#clipWmfPath1)">
    <text
       id="text194"
       y="0.000000"
       x="0.000000"
       transform="matrix(1.000000,-0.000000,0.000000,1.000000,76.338888,251.337354)"
       style="font-size:10.687500px;font-style:normal;font-variant:normal;font-weight:400;font-stretch:Condensed;line-height:125.000000%;letter-spacing:0px;word-spacing:0px;fill:#000000;fill-opacity:1;stroke:none;font-family:Helvetica-Narrow;text-align:start;text-anchor:start;"
       xml:space="preserve"><tspan
         id="tspan192"
         y="0.000000"
         x="0.000000"><tspan
           id="tspan190"
           style="fill:#000000;font-size:10.687500px;font-style:normal;font-variant:normal;font-weight:400;font-stretch:Condensed;font-family:Helvetica-Narrow;"
           dy="0.000000"
           dx="0.000000">2</tspan></tspan></text>
  </g>
</svg>
