<svg xmlns:dc="http://purl.org/dc/elements/1.1/" xmlns:cc="http://creativecommons.org/ns#" xmlns:rdf="http://www.w3.org/1999/02/22-rdf-syntax-ns#" xmlns:svg="http://www.w3.org/2000/svg" xmlns="http://www.w3.org/2000/svg" id="svg186" height="39.449998mm" width="65.909999mm" version="1.0">
  <metadata id="metadata190">
    <rdf:RDF>
      <cc:Work rdf:about="">
        <dc:format>image/svg+xml</dc:format>
        <dc:type rdf:resource="http://purl.org/dc/dcmitype/StillImage"/>
      </cc:Work>
    </rdf:RDF>
  </metadata>
  <defs id="defs6">
    <clipPath id="clipWmfPath1" clipPathUnits="userSpaceOnUse">
      <path id="path2" d="M 0,0 L 249.0042,0 L 249.0042,148.9979 L 0,148.9979 z"/>
    </clipPath>
    <pattern y="0" x="0" height="6" width="6" patternUnits="userSpaceOnUse" id="WMFhbasepattern"/>
  </defs>
  <path id="path8" d="  M 16.400277,123.06493   L 16.466944,6.599907   L 225.2038,6.599907   L 225.33713,99.998591   L 164.46944,99.998591   L 164.46944,123.19826   L 16.400277,123.06493  z " clip-path="url(#clipWmfPath1)" style="fill:#e5e5e5;fill-rule:nonzero;fill-opacity:1;stroke:none;"/>
  <path id="path10" d="  M 164.46944,123.39826   L 164.46944,122.99827   L 16.60028,122.86494   L 16.666948,6.7999042   L 225.00379,6.7999042   L 225.13713,99.798594   L 164.26944,99.798594   L 164.26944,122.99827   L 16.60028,122.86494   L 16.666948,6.599907   L 16.266941,6.599907   L 16.200273,123.26493   L 164.66944,123.39826   L 164.66944,100.19859   L 225.53714,100.19859   L 225.4038,6.3999099   L 16.266941,6.3999099   L 16.200273,123.26493   L 164.46944,123.39826  z " clip-path="url(#clipWmfPath1)" style="fill:#000000;fill-rule:nonzero;fill-opacity:1;stroke:#000000;stroke-width:0.066667788px;stroke-linecap:round;stroke-linejoin:round;stroke-miterlimit:4;stroke-dasharray:none;stroke-opacity:1;"/>
  <g id="g12" clip-path="url(#clipWmfPath1)"/>
  <g id="g30" clip-path="url(#clipWmfPath1)">
    <text id="text28" y="0.000000" x="0.000000" transform="matrix(1.000000,-0.000000,0.000000,1.000000,41.534034,28.066271)" style="font-size:9.312500px;font-style:normal;font-variant:normal;font-weight:400;font-stretch:Condensed;line-height:125.000000%;letter-spacing:0px;word-spacing:0px;fill:#000000;fill-opacity:1;stroke:none;font-family:Helvetica-Narrow;text-align:start;text-anchor:start;" xml:space="preserve"><tspan id="tspan26" y="0.000000" x="0.000000"><tspan id="tspan14" style="fill:#000000;font-size:9.312500px;font-style:normal;font-variant:normal;font-weight:400;font-stretch:Condensed;font-family:Helvetica-Narrow;" dy="0.000000" dx="0.000000">3</tspan><tspan id="tspan16" style="fill:#000000;font-size:9.312500px;font-style:normal;font-variant:normal;font-weight:400;font-stretch:Condensed;font-family:Helvetica-Narrow;" dy="0.000000" dx="0.289009">4</tspan><tspan id="tspan18" style="fill:#000000;font-size:9.312500px;font-style:normal;font-variant:normal;font-weight:400;font-stretch:Condensed;font-family:Helvetica-Narrow;" dy="0.000000" dx="0.183516">2</tspan><tspan id="tspan20" style="fill:#000000;font-size:9.312500px;font-style:normal;font-variant:normal;font-weight:400;font-stretch:Condensed;font-family:Helvetica-Narrow;" dy="0.000000" dx="0.183516">6</tspan><tspan id="tspan22" style="fill:#000000;font-size:9.312500px;font-style:normal;font-variant:normal;font-weight:400;font-stretch:Condensed;font-family:Helvetica-Narrow;" dy="0.000000" dx="0.183516">1</tspan><tspan id="tspan24" style="fill:#000000;font-size:9.312500px;font-style:normal;font-variant:normal;font-weight:400;font-stretch:Condensed;font-family:Helvetica-Narrow;" dy="0.000000" dx="0.183516">A</tspan></tspan></text>
  </g>
  <g id="g32" clip-path="url(#clipWmfPath1)"/>
  <g id="g82" clip-path="url(#clipWmfPath1)">
    <text id="text50" y="0.000000" x="0.000000" transform="matrix(1.000000,-0.000000,0.000000,1.000000,27.400462,138.664713)" style="font-size:10.687500px;font-style:normal;font-variant:normal;font-weight:400;font-stretch:Condensed;line-height:125.000000%;letter-spacing:0px;word-spacing:0px;fill:#000000;fill-opacity:1;stroke:none;font-family:Helvetica-Narrow;text-align:start;text-anchor:start;" xml:space="preserve"><tspan id="tspan48" y="0.000000" x="0.000000"><tspan id="tspan34" style="fill:#000000;font-size:10.687500px;font-style:normal;font-variant:normal;font-weight:400;font-stretch:Condensed;font-family:Helvetica-Narrow;" dy="0.000000" dx="0.000000">8</tspan><tspan id="tspan36" style="fill:#000000;font-size:10.687500px;font-style:normal;font-variant:normal;font-weight:400;font-stretch:Condensed;font-family:Helvetica-Narrow;" dy="0.000000" dx="0.003450">0</tspan><tspan id="tspan38" style="fill:#000000;font-size:10.687500px;font-style:normal;font-variant:normal;font-weight:400;font-stretch:Condensed;font-family:Helvetica-Narrow;" dy="0.000000" dx="0.003450">3</tspan><tspan id="tspan40" style="fill:#000000;font-size:10.687500px;font-style:normal;font-variant:normal;font-weight:400;font-stretch:Condensed;font-family:Helvetica-Narrow;" dy="0.000000" dx="0.003450">8</tspan><tspan id="tspan42" style="fill:#000000;font-size:10.687500px;font-style:normal;font-variant:normal;font-weight:400;font-stretch:Condensed;font-family:Helvetica-Narrow;" dy="0.000000" dx="0.003450">6</tspan><tspan id="tspan44" style="fill:#000000;font-size:10.687500px;font-style:normal;font-variant:normal;font-weight:400;font-stretch:Condensed;font-family:Helvetica-Narrow;" dy="0.000000" dx="0.003450">S</tspan><tspan id="tspan46" style="fill:#000000;font-size:10.687500px;font-style:normal;font-variant:normal;font-weight:400;font-stretch:Condensed;font-family:Helvetica-Narrow;" dy="0.000000" dx="-0.102432">X</tspan></tspan></text>
    <text id="text66" y="0.000000" x="48.934158" transform="matrix(1.000000,-0.000000,0.000000,1.000000,27.400462,138.664713)" style="font-size:10.687500px;font-style:normal;font-variant:normal;font-weight:400;font-stretch:Condensed;line-height:125.000000%;letter-spacing:0px;word-spacing:0px;fill:#000000;fill-opacity:1;stroke:none;font-family:Helvetica-Narrow;text-align:start;text-anchor:start;" xml:space="preserve"><tspan id="tspan64" y="0.000000" x="48.934158"><tspan id="tspan52" style="fill:#000000;font-size:10.687500px;font-style:normal;font-variant:normal;font-weight:400;font-stretch:Condensed;font-family:Helvetica-Narrow;" dy="0.000000" dx="0.000000">I</tspan><tspan id="tspan54" style="fill:#000000;font-size:10.687500px;font-style:normal;font-variant:normal;font-weight:400;font-stretch:Condensed;font-family:Helvetica-Narrow;" dy="0.000000" dx="-0.026509">N</tspan><tspan id="tspan56" style="fill:#000000;font-size:10.687500px;font-style:normal;font-variant:normal;font-weight:400;font-stretch:Condensed;font-family:Helvetica-Narrow;" dy="0.000000" dx="-0.050027">S</tspan><tspan id="tspan58" style="fill:#000000;font-size:10.687500px;font-style:normal;font-variant:normal;font-weight:400;font-stretch:Condensed;font-family:Helvetica-Narrow;" dy="0.000000" dx="-0.102432">T</tspan><tspan id="tspan60" style="fill:#000000;font-size:10.687500px;font-style:normal;font-variant:normal;font-weight:400;font-stretch:Condensed;font-family:Helvetica-Narrow;" dy="0.000000" dx="0.055854">E</tspan><tspan id="tspan62" style="fill:#000000;font-size:10.687500px;font-style:normal;font-variant:normal;font-weight:400;font-stretch:Condensed;font-family:Helvetica-Narrow;" dy="0.000000" dx="-0.102432">P</tspan></tspan></text>
    <text id="text80" y="0.000000" x="92.134887" transform="matrix(1.000000,-0.000000,0.000000,1.000000,27.400462,138.664713)" style="font-size:10.687500px;font-style:normal;font-variant:normal;font-weight:400;font-stretch:Condensed;line-height:125.000000%;letter-spacing:0px;word-spacing:0px;fill:#000000;fill-opacity:1;stroke:none;font-family:Helvetica-Narrow;text-align:start;text-anchor:start;" xml:space="preserve"><tspan id="tspan78" y="0.000000" x="92.134887"><tspan id="tspan68" style="fill:#000000;font-size:10.687500px;font-style:normal;font-variant:normal;font-weight:400;font-stretch:Condensed;font-family:Helvetica-Narrow;" dy="0.000000" dx="0.000000">B</tspan><tspan id="tspan70" style="fill:#000000;font-size:10.687500px;font-style:normal;font-variant:normal;font-weight:400;font-stretch:Condensed;font-family:Helvetica-Narrow;" dy="0.000000" dx="-0.102432">O</tspan><tspan id="tspan72" style="fill:#000000;font-size:10.687500px;font-style:normal;font-variant:normal;font-weight:400;font-stretch:Condensed;font-family:Helvetica-Narrow;" dy="0.000000" dx="-0.074977">A</tspan><tspan id="tspan74" style="fill:#000000;font-size:10.687500px;font-style:normal;font-variant:normal;font-weight:400;font-stretch:Condensed;font-family:Helvetica-Narrow;" dy="0.000000" dx="-0.102432">R</tspan><tspan id="tspan76" style="fill:#000000;font-size:10.687500px;font-style:normal;font-variant:normal;font-weight:400;font-stretch:Condensed;font-family:Helvetica-Narrow;" dy="0.000000" dx="-0.050027">D</tspan></tspan></text>
  </g>
  <path id="path110" d="  M 156.80264,42.399403   L 157.33599,42.466068   L 157.66933,42.799397   L 157.86933,43.199391   L 157.73599,43.666052   L 157.33599,44.066046   L 156.80264,44.132712   L 156.2693,44.066046   L 155.86929,43.666052   L 155.73596,43.199391   L 155.86929,42.799397   L 156.2693,42.466068   L 156.80264,42.399403  z    M 156.80264,42.466068   L 156.33597,42.5994   L 156.00263,42.866063   L 155.86929,43.199391   L 156.00263,43.666052   L 156.33597,43.99938   L 156.80264,44.066046   L 157.26932,43.99938   L 157.66933,43.666052   L 157.73599,43.199391   L 157.66933,42.866063   L 157.26932,42.5994   L 156.80264,42.466068  z    M 156.2693,42.732731   L 156.80264,42.732731   L 157.13598,42.799397   L 157.26932,42.999394   L 157.20265,43.199391   L 156.86931,43.266057   L 157.20265,43.666052   L 157.33599,43.732717   L 157.40265,43.732717   L 157.40265,43.799383   L 157.13598,43.799383   L 156.66931,43.266057   L 156.66931,43.266057   L 156.66931,43.666052   L 156.66931,43.732717   L 156.80264,43.732717   L 156.80264,43.799383   L 156.20263,43.799383   L 156.20263,43.732717   L 156.2693,43.732717   L 156.33597,43.666052   L 156.33597,43.599386   L 156.33597,42.932729   L 156.33597,42.799397   L 156.33597,42.732731   L 156.2693,42.732731   L 156.2693,42.732731  z    M 156.66931,43.199391   L 156.80264,43.199391   L 156.93598,43.132726   L 157.00265,42.999394   L 156.86931,42.799397   L 156.73598,42.732731   L 156.66931,42.732731   L 156.66931,43.199391  z   " clip-path="url(#clipWmfPath1)" style="fill:#bfbfbf;fill-rule:evenodd;fill-opacity:1;stroke:none;"/>
  <path id="path112" d="  M 175.86963,54.199237   L 175.06962,55.799214   L 174.00293,57.332526   L 173.06958,57.999183   L 172.13624,58.332512   L 171.33622,58.265846   L 170.73621,57.865852   L 170.33621,57.26586   L 170.20287,56.532537   L 170.46954,55.665883   L 171.13622,54.732562   L 172.53624,53.465914   L 174.00293,52.532593   L 174.00293,51.265945   L 170.33621,51.265945   L 174.00293,51.265945   L 174.00293,50.065961   L 170.33621,50.065961   L 174.00293,50.065961   L 174.00293,48.665981   L 170.33621,48.665981   L 174.00293,48.665981   L 174.00293,47.465998   L 170.33621,47.465998   L 174.00293,47.465998   L 174.00293,46.266015   L 170.33621,46.266015   L 174.00293,46.266015   L 174.00293,44.999366   L 170.33621,44.999366   L 174.00293,44.999366   L 174.00293,43.732717   L 170.33621,43.732717   L 174.00293,43.732717   L 174.00293,42.399403   L 170.33621,42.399403   L 174.00293,42.399403   L 174.00293,41.19942   L 170.33621,41.19942   L 174.00293,41.19942   L 174.00293,39.932771   L 170.33621,39.932771   L 174.00293,39.932771   L 174.00293,38.732788   L 170.33621,38.732788   L 174.00293,38.732788   L 174.00293,37.332807   L 170.33621,37.332807   L 174.00293,37.332807   L 174.00293,36.132824   L 170.33621,36.132824   L 174.00293,36.132824   L 174.00293,34.79951   L 170.33621,34.79951   L 174.00293,34.79951   L 174.00293,33.732858   L 170.33621,33.732858   L 174.00293,33.732858   L 174.00293,32.332878   L 170.33621,32.332878   L 174.00293,32.332878   L 174.00293,31.066229   L 170.33621,31.066229   L 174.00293,31.066229   L 174.00293,29.732915   L 170.33621,29.732915   L 174.00293,29.732915   L 174.00293,28.532931   L 170.33621,28.532931   L 174.00293,28.532931   L 174.00293,27.399614   L 170.33621,27.399614   L 174.00293,27.399614   L 174.00293,26.066299   L 170.33621,26.066299   L 174.00293,26.066299   L 174.00293,24.799651   L 170.33621,24.799651   L 174.00293,24.799651   L 174.00293,23.533002   L 170.33621,23.533002   L 174.00293,23.533002   L 174.00293,22.266353   L 170.33621,22.266353   L 174.00293,22.266353   L 174.00293,20.533044   L 172.73625,19.866387   L 171.60289,18.866401   L 170.86955,17.933081   L 170.60288,17.066426   L 170.66954,16.266438   L 171.00288,15.666446   L 171.60289,15.266452   L 172.40291,15.13312   L 173.26959,15.399783   L 174.20294,16.06644   L 175.40296,17.466421   L 176.20297,18.866401   L 177.13632,18.866401   L 177.13632,15.266452   L 177.13632,18.866401   L 178.40301,18.866401   L 178.40301,15.266452   L 178.40301,18.866401   L 179.73636,18.866401   L 179.73636,15.266452   L 179.73636,18.866401   L 181.00305,18.866401   L 181.00305,15.266452   L 181.00305,18.866401   L 182.26974,18.866401   L 182.26974,15.266452   L 182.26974,18.866401   L 183.46976,18.866401   L 183.46976,15.266452   L 183.46976,18.866401   L 184.80312,18.866401   L 184.80312,15.266452   L 184.80312,18.866401   L 186.0698,18.866401   L 186.0698,15.266452   L 186.0698,18.866401   L 187.33649,18.866401   L 187.33649,15.266452   L 187.33649,18.866401   L 188.53651,18.866401   L 188.53651,15.266452   L 188.53651,18.866401   L 189.8032,18.866401   L 189.8032,15.266452   L 189.8032,18.866401   L 191.20322,18.866401   L 191.20322,15.266452   L 191.20322,18.866401   L 192.46991,18.866401   L 192.46991,15.266452   L 192.46991,18.866401   L 193.80327,18.866401   L 193.80327,15.266452   L 193.80327,18.866401   L 194.86995,18.866401   L 194.86995,15.266452   L 194.86995,18.866401   L 196.26998,18.866401   L 196.26998,15.266452   L 196.26998,18.866401   L 197.60333,18.866401   L 197.60333,15.266452   L 197.60333,18.866401   L 198.87002,18.866401   L 198.87002,15.266452   L 198.87002,18.866401   L 200.13671,18.866401   L 200.13671,15.266452   L 200.13671,18.866401   L 201.27006,18.866401   L 201.27006,15.266452   L 201.27006,18.866401   L 202.60342,18.866401   L 202.60342,15.266452   L 202.60342,18.866401   L 203.93677,18.866401   L 203.93677,15.266452   L 203.93677,18.866401   L 205.13679,18.866401   L 205.13679,15.266452   L 205.13679,18.866401   L 206.47015,18.866401   L 206.47015,15.266452   L 206.47015,18.866401   L 207.93684,18.866401   L 208.60352,17.399755   L 209.53687,15.999775   L 210.47022,15.333117   L 211.40356,14.999789   L 212.20358,15.066454   L 212.80359,15.466449   L 213.20359,16.06644   L 213.33693,16.799763   L 213.07026,17.666418   L 212.33691,18.599738   L 211.00356,19.733055   L 209.53687,20.466378   L 209.53687,21.333033   L 213.20359,21.333033   L 209.53687,21.333033   L 209.53687,22.666347   L 213.20359,22.666347   L 209.53687,22.666347   L 209.53687,23.86633   L 213.20359,23.86633   L 209.53687,23.86633   L 209.53687,25.199645   L 213.20359,25.199645   L 209.53687,25.199645   L 209.53687,25.199645   L 209.53687,26.466294   L 213.20359,26.466294   L 209.53687,26.466294   L 209.53687,27.666277   L 213.20359,27.666277   L 209.53687,27.666277   L 209.53687,28.86626   L 213.20359,28.86626   L 209.53687,28.86626   L 209.53687,30.199575   L 213.20359,30.199575   L 209.53687,30.199575   L 209.53687,31.466223   L 213.20359,31.466223   L 209.53687,31.466223   L 209.53687,32.866204   L 213.20359,32.866204   L 209.53687,32.866204   L 209.53687,33.932855   L 213.20359,33.932855   L 209.53687,33.932855   L 209.53687,35.199504   L 213.20359,35.199504   L 209.53687,35.199504   L 209.53687,36.466153   L 213.20359,36.466153   L 209.53687,36.466153   L 209.53687,37.799468   L 213.20359,37.799468   L 209.53687,37.799468   L 209.53687,39.066116   L 213.20359,39.066116   L 209.53687,39.066116   L 209.53687,40.266099   L 213.20359,40.266099   L 209.53687,40.266099   L 209.53687,41.532748   L 213.20359,41.532748   L 209.53687,41.532748   L 209.53687,42.799397   L 213.20359,42.799397   L 209.53687,42.799397   L 209.53687,44.132712   L 213.20359,44.132712   L 209.53687,44.132712   L 209.53687,45.332695   L 213.20359,45.332695   L 209.53687,45.332695   L 209.53687,46.599344   L 213.20359,46.599344   L 209.53687,46.599344   L 209.53687,47.799327   L 213.20359,47.799327   L 209.53687,47.799327   L 209.53687,49.199307   L 213.20359,49.199307   L 209.53687,49.199307   L 209.53687,50.39929   L 213.20359,50.39929   L 209.53687,50.39929   L 209.53687,51.599273   L 213.20359,51.599273   L 209.53687,51.599273   L 209.53687,52.332596   L 211.07023,53.132585   L 212.53692,54.199237   L 213.20359,55.132557   L 213.53693,55.999211   L 213.4036,56.7992   L 213.07026,57.465857   L 212.47025,57.865852   L 211.67024,57.999183   L 210.80355,57.73252   L 209.87021,57.065863   L 208.60352,55.665883   L 207.67017,54.199237   L 206.33681,54.199237   L 206.33681,57.865852   L 206.33681,54.199237   L 205.07012,54.199237   L 205.07012,57.865852   L 205.07012,54.199237   L 203.6701,54.199237   L 203.6701,57.865852   L 203.6701,54.199237   L 202.47008,54.199237   L 202.47008,57.865852   L 202.47008,54.199237   L 201.20339,54.199237   L 201.20339,57.865852   L 201.20339,54.199237   L 200.00337,54.199237   L 200.00337,57.865852   L 200.00337,54.199237   L 198.67002,54.199237   L 198.67002,57.865852   L 198.67002,54.199237   L 197.40333,54.199237   L 197.40333,57.865852   L 197.40333,54.199237   L 196.13664,54.199237   L 196.13664,57.865852   L 196.13664,54.199237   L 194.86995,54.199237   L 194.86995,57.865852   L 194.86995,54.199237   L 193.66993,54.199237   L 193.66993,57.865852   L 193.66993,54.199237   L 192.26991,54.199237   L 192.26991,57.865852   L 192.26991,54.199237   L 191.00322,54.199237   L 191.00322,57.865852   L 191.00322,54.199237   L 189.66986,54.199237   L 189.66986,57.865852   L 189.66986,54.199237   L 188.53651,54.199237   L 188.53651,57.865852   L 188.53651,54.199237   L 187.20316,54.199237   L 187.20316,57.865852   L 187.20316,54.199237   L 185.8698,54.199237   L 185.8698,57.865852   L 185.8698,54.199237   L 184.60311,54.199237   L 184.60311,57.865852   L 184.60311,54.199237   L 183.33642,54.199237   L 183.33642,57.865852   L 183.33642,54.199237   L 182.20307,54.199237   L 182.20307,57.865852   L 182.20307,54.199237   L 180.86972,54.199237   L 180.86972,57.865852   L 180.86972,54.199237   L 179.53636,54.199237   L 179.53636,57.865852   L 179.53636,54.199237   L 178.33634,54.199237   L 178.33634,57.865852   L 178.33634,54.199237   L 177.00298,54.199237   L 177.00298,57.865852   L 177.00298,54.199237   L 175.86963,54.199237  z " clip-path="url(#clipWmfPath1)" style="fill:#000000;fill-rule:nonzero;fill-opacity:1;stroke:none;"/>
  <path id="path114" d="  M 175.86963,54.199237   L 175.06962,55.799214   L 174.00293,57.332526   L 173.06958,57.999183   L 172.13624,58.332512   L 171.33622,58.265846   L 170.73621,57.865852   L 170.33621,57.26586   L 170.20287,56.532537   L 170.46954,55.665883   L 171.13622,54.732562   L 172.53624,53.465914   L 174.00293,52.532593   L 174.00293,51.265945   L 170.33621,51.265945   L 174.00293,51.265945   L 174.00293,50.065961   L 170.33621,50.065961   L 174.00293,50.065961   L 174.00293,48.665981   L 170.33621,48.665981   L 174.00293,48.665981   L 174.00293,47.465998   L 170.33621,47.465998   L 174.00293,47.465998   L 174.00293,46.266015   L 170.33621,46.266015   L 174.00293,46.266015   L 174.00293,44.999366   L 170.33621,44.999366   L 174.00293,44.999366   L 174.00293,43.732717   L 170.33621,43.732717   L 174.00293,43.732717   L 174.00293,42.399403   L 170.33621,42.399403   L 174.00293,42.399403   L 174.00293,41.19942   L 170.33621,41.19942   L 174.00293,41.19942   L 174.00293,39.932771   L 170.33621,39.932771   L 174.00293,39.932771   L 174.00293,38.732788   L 170.33621,38.732788   L 174.00293,38.732788   L 174.00293,37.332807   L 170.33621,37.332807   L 174.00293,37.332807   L 174.00293,36.132824   L 170.33621,36.132824   L 174.00293,36.132824   L 174.00293,34.79951   L 170.33621,34.79951   L 174.00293,34.79951   L 174.00293,33.732858   L 170.33621,33.732858   L 174.00293,33.732858   L 174.00293,32.332878   L 170.33621,32.332878   L 174.00293,32.332878   L 174.00293,31.066229   L 170.33621,31.066229   L 174.00293,31.066229   L 174.00293,29.732915   L 170.33621,29.732915   L 174.00293,29.732915   L 174.00293,28.532931   L 170.33621,28.532931   L 174.00293,28.532931   L 174.00293,27.399614   L 170.33621,27.399614   L 174.00293,27.399614   L 174.00293,26.066299   L 170.33621,26.066299   L 174.00293,26.066299   L 174.00293,24.799651   L 170.33621,24.799651   L 174.00293,24.799651   L 174.00293,23.533002   L 170.33621,23.533002   L 174.00293,23.533002   L 174.00293,22.266353   L 170.33621,22.266353   L 174.00293,22.266353   L 174.00293,20.533044   L 172.73625,19.866387   L 171.60289,18.866401   L 170.86955,17.933081   L 170.60288,17.066426   L 170.66954,16.266438   L 171.00288,15.666446   L 171.60289,15.266452   L 172.40291,15.13312   L 173.26959,15.399783   L 174.20294,16.06644   L 175.40296,17.466421   L 176.20297,18.866401   L 177.13632,18.866401   L 177.13632,15.266452   L 177.13632,18.866401   L 178.40301,18.866401   L 178.40301,15.266452   L 178.40301,18.866401   L 179.73636,18.866401   L 179.73636,15.266452   L 179.73636,18.866401   L 181.00305,18.866401   L 181.00305,15.266452   L 181.00305,18.866401   L 182.26974,18.866401   L 182.26974,15.266452   L 182.26974,18.866401   L 183.46976,18.866401   L 183.46976,15.266452   L 183.46976,18.866401   L 184.80312,18.866401   L 184.80312,15.266452   L 184.80312,18.866401   L 186.0698,18.866401   L 186.0698,15.266452   L 186.0698,18.866401   L 187.33649,18.866401   L 187.33649,15.266452   L 187.33649,18.866401   L 188.53651,18.866401   L 188.53651,15.266452   L 188.53651,18.866401   L 189.8032,18.866401   L 189.8032,15.266452   L 189.8032,18.866401   L 191.20322,18.866401   L 191.20322,15.266452   L 191.20322,18.866401   L 192.46991,18.866401   L 192.46991,15.266452   L 192.46991,18.866401   L 193.80327,18.866401   L 193.80327,15.266452   L 193.80327,18.866401   L 194.86995,18.866401   L 194.86995,15.266452   L 194.86995,18.866401   L 196.26998,18.866401   L 196.26998,15.266452   L 196.26998,18.866401   L 197.60333,18.866401   L 197.60333,15.266452   L 197.60333,18.866401   L 198.87002,18.866401   L 198.87002,15.266452   L 198.87002,18.866401   L 200.13671,18.866401   L 200.13671,15.266452   L 200.13671,18.866401   L 201.27006,18.866401   L 201.27006,15.266452   L 201.27006,18.866401   L 202.60342,18.866401   L 202.60342,15.266452   L 202.60342,18.866401   L 203.93677,18.866401   L 203.93677,15.266452   L 203.93677,18.866401   L 205.13679,18.866401   L 205.13679,15.266452   L 205.13679,18.866401   L 206.47015,18.866401   L 206.47015,15.266452   L 206.47015,18.866401   L 207.93684,18.866401   L 208.60352,17.399755   L 209.53687,15.999775   L 210.47022,15.333117   L 211.40356,14.999789   L 212.20358,15.066454   L 212.80359,15.466449   L 213.20359,16.06644   L 213.33693,16.799763   L 213.07026,17.666418   L 212.33691,18.599738   L 211.00356,19.733055   L 209.53687,20.466378   L 209.53687,21.333033   L 213.20359,21.333033   L 209.53687,21.333033   L 209.53687,22.666347   L 213.20359,22.666347   L 209.53687,22.666347   L 209.53687,23.86633   L 213.20359,23.86633   L 209.53687,23.86633   L 209.53687,25.199645   L 213.20359,25.199645   L 209.53687,25.199645   L 209.53687,25.199645   L 209.53687,26.466294   L 213.20359,26.466294   L 209.53687,26.466294   L 209.53687,27.666277   L 213.20359,27.666277   L 209.53687,27.666277   L 209.53687,28.86626   L 213.20359,28.86626   L 209.53687,28.86626   L 209.53687,30.199575   L 213.20359,30.199575   L 209.53687,30.199575   L 209.53687,31.466223   L 213.20359,31.466223   L 209.53687,31.466223   L 209.53687,32.866204   L 213.20359,32.866204   L 209.53687,32.866204   L 209.53687,33.932855   L 213.20359,33.932855   L 209.53687,33.932855   L 209.53687,35.199504   L 213.20359,35.199504   L 209.53687,35.199504   L 209.53687,36.466153   L 213.20359,36.466153   L 209.53687,36.466153   L 209.53687,37.799468   L 213.20359,37.799468   L 209.53687,37.799468   L 209.53687,39.066116   L 213.20359,39.066116   L 209.53687,39.066116   L 209.53687,40.266099   L 213.20359,40.266099   L 209.53687,40.266099   L 209.53687,41.532748   L 213.20359,41.532748   L 209.53687,41.532748   L 209.53687,42.799397   L 213.20359,42.799397   L 209.53687,42.799397   L 209.53687,44.132712   L 213.20359,44.132712   L 209.53687,44.132712   L 209.53687,45.332695   L 213.20359,45.332695   L 209.53687,45.332695   L 209.53687,46.599344   L 213.20359,46.599344   L 209.53687,46.599344   L 209.53687,47.799327   L 213.20359,47.799327   L 209.53687,47.799327   L 209.53687,49.199307   L 213.20359,49.199307   L 209.53687,49.199307   L 209.53687,50.39929   L 213.20359,50.39929   L 209.53687,50.39929   L 209.53687,51.599273   L 213.20359,51.599273   L 209.53687,51.599273   L 209.53687,52.332596   L 211.07023,53.132585   L 212.53692,54.199237   L 213.20359,55.132557   L 213.53693,55.999211   L 213.4036,56.7992   L 213.07026,57.465857   L 212.47025,57.865852   L 211.67024,57.999183   L 210.80355,57.73252   L 209.87021,57.065863   L 208.60352,55.665883   L 207.67017,54.199237   L 206.33681,54.199237   L 206.33681,57.865852   L 206.33681,54.199237   L 205.07012,54.199237   L 205.07012,57.865852   L 205.07012,54.199237   L 203.6701,54.199237   L 203.6701,57.865852   L 203.6701,54.199237   L 202.47008,54.199237   L 202.47008,57.865852   L 202.47008,54.199237   L 201.20339,54.199237   L 201.20339,57.865852   L 201.20339,54.199237   L 200.00337,54.199237   L 200.00337,57.865852   L 200.00337,54.199237   L 198.67002,54.199237   L 198.67002,57.865852   L 198.67002,54.199237   L 197.40333,54.199237   L 197.40333,57.865852   L 197.40333,54.199237   L 196.13664,54.199237   L 196.13664,57.865852   L 196.13664,54.199237   L 194.86995,54.199237   L 194.86995,57.865852   L 194.86995,54.199237   L 193.66993,54.199237   L 193.66993,57.865852   L 193.66993,54.199237   L 192.26991,54.199237   L 192.26991,57.865852   L 192.26991,54.199237   L 191.00322,54.199237   L 191.00322,57.865852   L 191.00322,54.199237   L 189.66986,54.199237   L 189.66986,57.865852   L 189.66986,54.199237   L 188.53651,54.199237   L 188.53651,57.865852   L 188.53651,54.199237   L 187.20316,54.199237   L 187.20316,57.865852   L 187.20316,54.199237   L 185.8698,54.199237   L 185.8698,57.865852   L 185.8698,54.199237   L 184.60311,54.199237   L 184.60311,57.865852   L 184.60311,54.199237   L 183.33642,54.199237   L 183.33642,57.865852   L 183.33642,54.199237   L 182.20307,54.199237   L 182.20307,57.865852   L 182.20307,54.199237   L 180.86972,54.199237   L 180.86972,57.865852   L 180.86972,54.199237   L 179.53636,54.199237   L 179.53636,57.865852   L 179.53636,54.199237   L 178.33634,54.199237   L 178.33634,57.865852   L 178.33634,54.199237   L 177.00298,54.199237   L 177.00298,57.865852   L 177.00298,54.199237   L 175.86963,54.199237  z " clip-path="url(#clipWmfPath1)" style="fill:none;stroke:#000000;stroke-width:0.066667788px;stroke-linecap:round;stroke-linejoin:round;stroke-miterlimit:4;stroke-dasharray:none;stroke-opacity:1;"/>
  <path id="path116" d="  M 201.47006,29.999577   L 202.47008,30.132909   L 203.27009,30.599569   L 203.8701,31.266226   L 204.07011,31.999549   L 204.07011,41.466083   L 203.8701,42.199406   L 203.27009,42.799397   L 202.47008,43.132726   L 201.47006,43.266057   L 182.20307,43.266057   L 181.20306,43.132726   L 180.40304,42.732731   L 179.80303,42.066074   L 179.60303,41.332751   L 179.60303,31.932884   L 179.80303,31.199561   L 180.40304,30.599569   L 181.20306,30.132909   L 182.20307,29.999577   L 201.47006,29.999577  z " clip-path="url(#clipWmfPath1)" style="fill:#ffffff;fill-rule:nonzero;fill-opacity:1;stroke:none;"/>
  <path id="path118" d="  M 182.20307,29.466252   L 182.20307,30.532903   L 201.4034,30.532903   L 202.27008,30.599569   L 202.93675,30.999563   L 203.40343,31.532889   L 203.53677,32.066215   L 203.53677,41.399417   L 203.40343,41.932743   L 203.00342,42.399403   L 202.33674,42.666066   L 201.4034,42.732731   L 182.26974,42.732731   L 181.33639,42.666066   L 180.73638,42.332737   L 180.26971,41.799411   L 180.13637,41.266085   L 180.13637,31.999549   L 180.26971,31.466223   L 180.73638,30.999563   L 181.40306,30.599569   L 182.26974,30.532903   L 201.4034,30.532903   L 202.40341,30.666235   L 202.53675,29.599583   L 201.53673,29.466252   L 182.1364,29.466252   L 181.00305,29.666249   L 180.0697,30.199575   L 179.33636,30.932898   L 179.06969,31.866218   L 179.06969,41.399417   L 179.33636,42.332737   L 180.0697,43.132726   L 181.06972,43.599386   L 182.1364,43.799383   L 201.53673,43.799383   L 202.60342,43.599386   L 203.53677,43.199391   L 204.33678,42.466068   L 204.60345,41.532748   L 204.60345,31.932884   L 204.33678,30.999563   L 203.60343,30.199575   L 202.67008,29.666249   L 201.53673,29.466252   L 182.20307,29.466252  z " clip-path="url(#clipWmfPath1)" style="fill:#000000;fill-rule:nonzero;fill-opacity:1;stroke:#000000;stroke-width:0.066667788px;stroke-linecap:round;stroke-linejoin:round;stroke-miterlimit:4;stroke-dasharray:none;stroke-opacity:1;"/>
  <g id="g120" clip-path="url(#clipWmfPath1)"/>
  <g id="g132" clip-path="url(#clipWmfPath1)">
    <text id="text130" y="0.000000" x="0.000000" transform="matrix(1.000000,-0.000000,0.000000,1.000000,181.403059,41.132754)" style="font-size:10.687500px;font-style:normal;font-variant:normal;font-weight:400;font-stretch:Condensed;line-height:125.000000%;letter-spacing:0px;word-spacing:0px;fill:#000000;fill-opacity:1;stroke:none;font-family:Helvetica-Narrow;text-align:start;text-anchor:start;" xml:space="preserve"><tspan id="tspan128" y="0.000000" x="0.000000"><tspan id="tspan122" style="fill:#000000;font-size:10.687500px;font-style:normal;font-variant:normal;font-weight:400;font-stretch:Condensed;font-family:Helvetica-Narrow;" dy="0.000000" dx="0.000000">C</tspan><tspan id="tspan124" style="fill:#000000;font-size:10.687500px;font-style:normal;font-variant:normal;font-weight:400;font-stretch:Condensed;font-family:Helvetica-Narrow;" dy="0.000000" dx="-0.050027">P</tspan><tspan id="tspan126" style="fill:#000000;font-size:10.687500px;font-style:normal;font-variant:normal;font-weight:400;font-stretch:Condensed;font-family:Helvetica-Narrow;" dy="0.000000" dx="-0.102432">U</tspan></tspan></text>
  </g>
  <path id="path134" d="  M 96.068286,24.399656   L 146.80248,24.399656   L 148.46917,25.999634   L 148.46917,75.932264   L 96.068286,75.932264   L 96.068286,24.399656  z    M 107.53515,65.265747   L 107.53515,35.066173   L 137.66899,35.066173   L 137.66899,65.265747   L 107.53515,65.265747  z   " clip-path="url(#clipWmfPath1)" style="fill:#000000;fill-rule:evenodd;fill-opacity:1;stroke:none;"/>
  <path id="path136" d="  M 96.068286,24.399656   L 146.80248,24.399656   L 148.46917,25.999634   L 148.46917,75.932264   L 96.068286,75.932264   L 96.068286,24.399656  z " clip-path="url(#clipWmfPath1)" style="fill:none;stroke:#000000;stroke-width:0.066667788px;stroke-linecap:round;stroke-linejoin:round;stroke-miterlimit:4;stroke-dasharray:none;stroke-opacity:1;"/>
  <path id="path138" d="  M 107.53515,65.265747   L 107.53515,35.066173   L 137.66899,35.066173   L 137.66899,65.265747   L 107.53515,65.265747  z " clip-path="url(#clipWmfPath1)" style="fill:none;stroke:#000000;stroke-width:0.066667788px;stroke-linecap:round;stroke-linejoin:round;stroke-miterlimit:4;stroke-dasharray:none;stroke-opacity:1;"/>
  <path id="path140" d="  M 146.73581,67.932376   L 146.60247,67.265719   L 146.26913,66.732393   L 145.80246,66.399065   L 145.26912,66.265733   L 144.53577,66.399065   L 143.93576,66.732393   L 143.53575,67.265719   L 143.40242,67.932376   L 142.2024,67.932376   L 142.06906,67.265719   L 141.73572,66.732393   L 141.20238,66.399065   L 140.66904,66.265733   L 140.00236,66.399065   L 139.40235,66.732393   L 139.06901,67.265719   L 138.93568,67.932376   L 137.60232,67.932376   L 137.46898,67.265719   L 137.00231,66.732393   L 136.46897,66.399065   L 135.80229,66.265733   L 135.20228,66.399065   L 134.73561,66.732393   L 134.40227,67.265719   L 134.26893,67.932376   L 132.93557,67.932376   L 132.80224,67.265719   L 132.4689,66.732393   L 131.93556,66.399065   L 131.20221,66.265733   L 130.66887,66.399065   L 130.2022,66.732393   L 129.86886,67.265719   L 129.73552,67.932376   L 128.5355,67.932376   L 128.40216,67.265719   L 128.06883,66.732393   L 127.60215,66.332399   L 126.93547,66.199068   L 126.2688,66.332399   L 125.73545,66.732393   L 125.26878,67.265719   L 125.13544,67.932376   L 123.93542,67.799045   L 123.80209,67.199053   L 123.46875,66.732393   L 123.00207,66.399065   L 122.40206,66.265733   L 121.73539,66.399065   L 121.20204,66.732393   L 120.8687,67.265719   L 120.73537,67.932376   L 119.53535,67.932376   L 119.40201,67.265719   L 119.06867,66.732393   L 118.53533,66.399065   L 117.86865,66.265733   L 117.26864,66.399065   L 116.80197,66.732393   L 116.46863,67.265719   L 116.33529,67.932376   L 114.93527,67.932376   L 114.80194,67.265719   L 114.4686,66.732393   L 113.93525,66.399065   L 113.33524,66.265733   L 112.66857,66.399065   L 112.06856,66.732393   L 111.73522,67.265719   L 111.60188,67.932376   L 110.40186,67.932376   L 110.26853,67.265719   L 109.93519,66.732393   L 109.40184,66.399065   L 108.80183,66.265733   L 108.13516,66.399065   L 107.53515,66.732393   L 107.13514,67.265719   L 107.0018,67.932376   L 105.86845,67.932376   L 105.73512,67.265719   L 105.46844,66.732393   L 105.00177,66.332399   L 104.40176,66.199068   L 103.66841,66.332399   L 103.13507,66.732393   L 102.73507,67.265719   L 102.60173,67.932376   L 101.40171,67.932376   L 101.26837,67.265719   L 100.86837,66.732393   L 100.26836,66.332399   L 99.601679,66.199068   L 98.935001,66.332399   L 98.401659,66.665728   L 98.06832,67.199053   L 97.934985,67.799045   L 98.06832,68.532368   L 98.401659,69.199025   L 98.935001,69.59902   L 99.601679,69.732351   L 100.26836,69.59902   L 100.86837,69.199025   L 101.26837,68.665699   L 101.40171,67.932376   L 102.60173,67.932376   L 102.73507,68.665699   L 103.0684,69.265691   L 103.60175,69.665685   L 104.33509,69.799017   L 104.9351,69.665685   L 105.40178,69.265691   L 105.73512,68.665699   L 105.86845,67.932376   L 107.0018,67.932376   L 107.13514,68.665699   L 107.53515,69.265691   L 108.13516,69.665685   L 108.80183,69.799017   L 109.40184,69.665685   L 109.93519,69.265691   L 110.26853,68.665699   L 110.40186,67.932376   L 111.60188,67.932376   L 111.73522,68.665699   L 112.06856,69.265691   L 112.66857,69.665685   L 113.33524,69.799017   L 113.93525,69.665685   L 114.4686,69.265691   L 114.80194,68.665699   L 114.93527,67.932376   L 116.33529,67.932376   L 116.46863,68.665699   L 116.80197,69.265691   L 117.26864,69.665685   L 117.86865,69.799017   L 118.53533,69.665685   L 119.06867,69.265691   L 119.40201,68.665699   L 119.53535,67.932376   L 120.73537,67.932376   L 120.8687,68.665699   L 121.20204,69.265691   L 121.73539,69.665685   L 122.40206,69.799017   L 123.00207,69.665685   L 123.46875,69.199025   L 123.80209,68.532368   L 123.93542,67.799045   L 125.13544,67.932376   L 125.26878,68.665699   L 125.66879,69.265691   L 126.20213,69.665685   L 126.80214,69.799017   L 127.46882,69.665685   L 128.06883,69.265691   L 128.40216,68.665699   L 128.5355,67.932376   L 129.73552,67.932376   L 129.86886,68.665699   L 130.2022,69.265691   L 130.66887,69.665685   L 131.20221,69.799017   L 131.93556,69.665685   L 132.4689,69.265691   L 132.80224,68.665699   L 132.93557,67.932376   L 134.26893,67.932376   L 134.40227,68.665699   L 134.73561,69.265691   L 135.20228,69.665685   L 135.80229,69.799017   L 136.46897,69.665685   L 137.00231,69.265691   L 137.46898,68.665699   L 137.60232,67.932376   L 138.93568,67.932376   L 139.06901,68.665699   L 139.40235,69.265691   L 140.00236,69.665685   L 140.66904,69.799017   L 141.20238,69.665685   L 141.73572,69.265691   L 142.06906,68.665699   L 142.2024,67.932376   L 143.40242,67.932376   L 143.53575,68.665699   L 143.93576,69.265691   L 144.53577,69.665685   L 145.26912,69.799017   L 145.80246,69.665685   L 146.26913,69.265691   L 146.60247,68.665699   L 146.73581,67.932376  z " clip-path="url(#clipWmfPath1)" style="fill:#f7f7f7;fill-rule:nonzero;fill-opacity:1;stroke:none;"/>
  <path id="path142" d="  M 146.73581,67.932376   L 146.60247,67.265719   L 146.26913,66.732393   L 145.80246,66.399065   L 145.26912,66.265733   L 144.53577,66.399065   L 143.93576,66.732393   L 143.53575,67.265719   L 143.40242,67.932376   L 142.2024,67.932376   L 142.06906,67.265719   L 141.73572,66.732393   L 141.20238,66.399065   L 140.66904,66.265733   L 140.00236,66.399065   L 139.40235,66.732393   L 139.06901,67.265719   L 138.93568,67.932376   L 137.60232,67.932376   L 137.46898,67.265719   L 137.00231,66.732393   L 136.46897,66.399065   L 135.80229,66.265733   L 135.20228,66.399065   L 134.73561,66.732393   L 134.40227,67.265719   L 134.26893,67.932376   L 132.93557,67.932376   L 132.80224,67.265719   L 132.4689,66.732393   L 131.93556,66.399065   L 131.20221,66.265733   L 130.66887,66.399065   L 130.2022,66.732393   L 129.86886,67.265719   L 129.73552,67.932376   L 128.5355,67.932376   L 128.40216,67.265719   L 128.06883,66.732393   L 127.60215,66.332399   L 126.93547,66.199068   L 126.2688,66.332399   L 125.73545,66.732393   L 125.26878,67.265719   L 125.13544,67.932376   L 123.93542,67.799045   L 123.80209,67.199053   L 123.46875,66.732393   L 123.00207,66.399065   L 122.40206,66.265733   L 121.73539,66.399065   L 121.20204,66.732393   L 120.8687,67.265719   L 120.73537,67.932376   L 119.53535,67.932376   L 119.40201,67.265719   L 119.06867,66.732393   L 118.53533,66.399065   L 117.86865,66.265733   L 117.26864,66.399065   L 116.80197,66.732393   L 116.46863,67.265719   L 116.33529,67.932376   L 114.93527,67.932376   L 114.80194,67.265719   L 114.4686,66.732393   L 113.93525,66.399065   L 113.33524,66.265733   L 112.66857,66.399065   L 112.06856,66.732393   L 111.73522,67.265719   L 111.60188,67.932376   L 110.40186,67.932376   L 110.26853,67.265719   L 109.93519,66.732393   L 109.40184,66.399065   L 108.80183,66.265733   L 108.13516,66.399065   L 107.53515,66.732393   L 107.13514,67.265719   L 107.0018,67.932376   L 105.86845,67.932376   L 105.73512,67.265719   L 105.46844,66.732393   L 105.00177,66.332399   L 104.40176,66.199068   L 103.66841,66.332399   L 103.13507,66.732393   L 102.73507,67.265719   L 102.60173,67.932376   L 101.40171,67.932376   L 101.26837,67.265719   L 100.86837,66.732393   L 100.26836,66.332399   L 99.601679,66.199068   L 98.935001,66.332399   L 98.401659,66.665728   L 98.06832,67.199053   L 97.934985,67.799045   L 98.06832,68.532368   L 98.401659,69.199025   L 98.935001,69.59902   L 99.601679,69.732351   L 100.26836,69.59902   L 100.86837,69.199025   L 101.26837,68.665699   L 101.40171,67.932376   L 102.60173,67.932376   L 102.73507,68.665699   L 103.0684,69.265691   L 103.60175,69.665685   L 104.33509,69.799017   L 104.9351,69.665685   L 105.40178,69.265691   L 105.73512,68.665699   L 105.86845,67.932376   L 107.0018,67.932376   L 107.13514,68.665699   L 107.53515,69.265691   L 108.13516,69.665685   L 108.80183,69.799017   L 109.40184,69.665685   L 109.93519,69.265691   L 110.26853,68.665699   L 110.40186,67.932376   L 111.60188,67.932376   L 111.73522,68.665699   L 112.06856,69.265691   L 112.66857,69.665685   L 113.33524,69.799017   L 113.93525,69.665685   L 114.4686,69.265691   L 114.80194,68.665699   L 114.93527,67.932376   L 116.33529,67.932376   L 116.46863,68.665699   L 116.80197,69.265691   L 117.26864,69.665685   L 117.86865,69.799017   L 118.53533,69.665685   L 119.06867,69.265691   L 119.40201,68.665699   L 119.53535,67.932376   L 120.73537,67.932376   L 120.8687,68.665699   L 121.20204,69.265691   L 121.73539,69.665685   L 122.40206,69.799017   L 123.00207,69.665685   L 123.46875,69.199025   L 123.80209,68.532368   L 123.93542,67.799045   L 125.13544,67.932376   L 125.26878,68.665699   L 125.66879,69.265691   L 126.20213,69.665685   L 126.80214,69.799017   L 127.46882,69.665685   L 128.06883,69.265691   L 128.40216,68.665699   L 128.5355,67.932376   L 129.73552,67.932376   L 129.86886,68.665699   L 130.2022,69.265691   L 130.66887,69.665685   L 131.20221,69.799017   L 131.93556,69.665685   L 132.4689,69.265691   L 132.80224,68.665699   L 132.93557,67.932376   L 134.26893,67.932376   L 134.40227,68.665699   L 134.73561,69.265691   L 135.20228,69.665685   L 135.80229,69.799017   L 136.46897,69.665685   L 137.00231,69.265691   L 137.46898,68.665699   L 137.60232,67.932376   L 138.93568,67.932376   L 139.06901,68.665699   L 139.40235,69.265691   L 140.00236,69.665685   L 140.66904,69.799017   L 141.20238,69.665685   L 141.73572,69.265691   L 142.06906,68.665699   L 142.2024,67.932376   L 143.40242,67.932376   L 143.53575,68.665699   L 143.93576,69.265691   L 144.53577,69.665685   L 145.26912,69.799017   L 145.80246,69.665685   L 146.26913,69.265691   L 146.60247,68.665699   L 146.73581,67.932376  z " clip-path="url(#clipWmfPath1)" style="fill:none;stroke:#000000;stroke-width:0.066667788px;stroke-linecap:round;stroke-linejoin:round;stroke-miterlimit:4;stroke-dasharray:none;stroke-opacity:1;"/>
  <path id="path144" d="  M 146.80248,72.532312   L 146.66914,71.93232   L 146.3358,71.398994   L 145.86913,71.065666   L 145.33578,70.932334   L 144.60244,71.065666   L 144.00243,71.398994   L 143.60242,71.93232   L 143.46909,72.532312   L 142.26907,72.532312   L 142.13573,71.93232   L 141.80239,71.398994   L 141.26905,71.065666   L 140.73571,70.932334   L 140.06903,71.065666   L 139.53569,71.398994   L 139.13568,71.93232   L 139.00234,72.532312   L 137.66899,72.532312   L 137.53565,71.93232   L 137.13565,71.398994   L 136.53564,71.065666   L 135.86896,70.932334   L 135.33562,71.065666   L 134.86894,71.398994   L 134.5356,71.93232   L 134.40227,72.532312   L 133.00224,72.532312   L 132.86891,71.93232   L 132.53557,71.398994   L 132.00223,71.065666   L 131.26888,70.932334   L 130.73554,71.065666   L 130.26886,71.398994   L 129.93552,71.93232   L 129.80219,72.532312   L 128.60217,72.532312   L 128.46883,71.865654   L 128.13549,71.332329   L 127.66882,70.932334   L 127.00214,70.799003   L 126.33546,70.932334   L 125.80212,71.332329   L 125.33545,71.865654   L 125.20211,72.532312   L 124.00209,72.465646   L 123.86876,71.865654   L 123.53542,71.398994   L 123.06874,71.065666   L 122.46873,70.932334   L 121.80205,71.065666   L 121.26871,71.398994   L 120.93537,71.93232   L 120.80204,72.532312   L 119.60202,72.532312   L 119.46868,71.93232   L 119.13534,71.398994   L 118.602,71.065666   L 117.93532,70.932334   L 117.33531,71.065666   L 116.86864,71.398994   L 116.5353,71.93232   L 116.40196,72.532312   L 115.00194,72.532312   L 114.8686,71.93232   L 114.53526,71.398994   L 114.00192,71.065666   L 113.33524,70.932334   L 112.66857,71.065666   L 112.13522,71.398994   L 111.80189,71.93232   L 111.66855,72.532312   L 110.46853,72.532312   L 110.33519,71.93232   L 110.00185,71.398994   L 109.46851,71.065666   L 108.8685,70.932334   L 108.20182,71.065666   L 107.60181,71.398994   L 107.20181,71.93232   L 107.06847,72.532312   L 105.93512,72.532312   L 105.80178,71.865654   L 105.53511,71.332329   L 105.06844,70.932334   L 104.46843,70.799003   L 103.73508,70.932334   L 103.20174,71.332329   L 102.80173,71.865654   L 102.6684,72.532312   L 101.46838,72.532312   L 101.33504,71.865654   L 100.93504,71.332329   L 100.40169,70.932334   L 99.668347,70.799003   L 99.001669,70.932334   L 98.468327,71.332329   L 98.134988,71.865654   L 98.001652,72.465646   L 98.134988,73.198969   L 98.468327,73.79896   L 99.001669,74.132289   L 99.668347,74.265621   L 100.40169,74.132289   L 100.93504,73.79896   L 101.33504,73.265635   L 101.46838,72.532312   L 102.6684,72.532312   L 102.80173,73.265635   L 103.13507,73.865626   L 103.66841,74.198955   L 104.40176,74.332286   L 105.00177,74.198955   L 105.46844,73.865626   L 105.80178,73.265635   L 105.93512,72.532312   L 107.06847,72.532312   L 107.20181,73.265635   L 107.60181,73.865626   L 108.20182,74.198955   L 108.8685,74.332286   L 109.46851,74.198955   L 110.00185,73.865626   L 110.33519,73.265635   L 110.46853,72.532312   L 111.66855,72.532312   L 111.80189,73.265635   L 112.13522,73.865626   L 112.66857,74.198955   L 113.33524,74.332286   L 114.00192,74.198955   L 114.53526,73.865626   L 114.8686,73.265635   L 115.00194,72.532312   L 116.40196,72.532312   L 116.5353,73.265635   L 116.86864,73.865626   L 117.33531,74.198955   L 117.93532,74.332286   L 118.602,74.198955   L 119.13534,73.865626   L 119.46868,73.265635   L 119.60202,72.532312   L 120.80204,72.532312   L 120.93537,73.265635   L 121.26871,73.865626   L 121.80205,74.198955   L 122.46873,74.332286   L 123.06874,74.198955   L 123.53542,73.79896   L 123.86876,73.198969   L 124.00209,72.465646   L 125.20211,72.532312   L 125.33545,73.265635   L 125.73545,73.865626   L 126.2688,74.198955   L 126.86881,74.332286   L 127.53548,74.198955   L 128.13549,73.865626   L 128.46883,73.265635   L 128.60217,72.532312   L 129.80219,72.532312   L 129.93552,73.265635   L 130.26886,73.865626   L 130.73554,74.198955   L 131.26888,74.332286   L 132.00223,74.198955   L 132.53557,73.865626   L 132.86891,73.265635   L 133.00224,72.532312   L 134.40227,72.532312   L 134.5356,73.265635   L 134.86894,73.865626   L 135.33562,74.198955   L 135.86896,74.332286   L 136.53564,74.198955   L 137.13565,73.865626   L 137.53565,73.265635   L 137.66899,72.532312   L 139.00234,72.532312   L 139.13568,73.265635   L 139.53569,73.865626   L 140.06903,74.198955   L 140.73571,74.332286   L 141.26905,74.198955   L 141.80239,73.865626   L 142.13573,73.265635   L 142.26907,72.532312   L 143.46909,72.532312   L 143.60242,73.265635   L 144.00243,73.865626   L 144.60244,74.198955   L 145.33578,74.332286   L 145.86913,74.198955   L 146.3358,73.865626   L 146.66914,73.265635   L 146.80248,72.532312  z " clip-path="url(#clipWmfPath1)" style="fill:#f7f7f7;fill-rule:nonzero;fill-opacity:1;stroke:none;"/>
  <path id="path146" d="  M 146.80248,72.532312   L 146.66914,71.93232   L 146.3358,71.398994   L 145.86913,71.065666   L 145.33578,70.932334   L 144.60244,71.065666   L 144.00243,71.398994   L 143.60242,71.93232   L 143.46909,72.532312   L 142.26907,72.532312   L 142.13573,71.93232   L 141.80239,71.398994   L 141.26905,71.065666   L 140.73571,70.932334   L 140.06903,71.065666   L 139.53569,71.398994   L 139.13568,71.93232   L 139.00234,72.532312   L 137.66899,72.532312   L 137.53565,71.93232   L 137.13565,71.398994   L 136.53564,71.065666   L 135.86896,70.932334   L 135.33562,71.065666   L 134.86894,71.398994   L 134.5356,71.93232   L 134.40227,72.532312   L 133.00224,72.532312   L 132.86891,71.93232   L 132.53557,71.398994   L 132.00223,71.065666   L 131.26888,70.932334   L 130.73554,71.065666   L 130.26886,71.398994   L 129.93552,71.93232   L 129.80219,72.532312   L 128.60217,72.532312   L 128.46883,71.865654   L 128.13549,71.332329   L 127.66882,70.932334   L 127.00214,70.799003   L 126.33546,70.932334   L 125.80212,71.332329   L 125.33545,71.865654   L 125.20211,72.532312   L 124.00209,72.465646   L 123.86876,71.865654   L 123.53542,71.398994   L 123.06874,71.065666   L 122.46873,70.932334   L 121.80205,71.065666   L 121.26871,71.398994   L 120.93537,71.93232   L 120.80204,72.532312   L 119.60202,72.532312   L 119.46868,71.93232   L 119.13534,71.398994   L 118.602,71.065666   L 117.93532,70.932334   L 117.33531,71.065666   L 116.86864,71.398994   L 116.5353,71.93232   L 116.40196,72.532312   L 115.00194,72.532312   L 114.8686,71.93232   L 114.53526,71.398994   L 114.00192,71.065666   L 113.33524,70.932334   L 112.66857,71.065666   L 112.13522,71.398994   L 111.80189,71.93232   L 111.66855,72.532312   L 110.46853,72.532312   L 110.33519,71.93232   L 110.00185,71.398994   L 109.46851,71.065666   L 108.8685,70.932334   L 108.20182,71.065666   L 107.60181,71.398994   L 107.20181,71.93232   L 107.06847,72.532312   L 105.93512,72.532312   L 105.80178,71.865654   L 105.53511,71.332329   L 105.06844,70.932334   L 104.46843,70.799003   L 103.73508,70.932334   L 103.20174,71.332329   L 102.80173,71.865654   L 102.6684,72.532312   L 101.46838,72.532312   L 101.33504,71.865654   L 100.93504,71.332329   L 100.40169,70.932334   L 99.668347,70.799003   L 99.001669,70.932334   L 98.468327,71.332329   L 98.134988,71.865654   L 98.001652,72.465646   L 98.134988,73.198969   L 98.468327,73.79896   L 99.001669,74.132289   L 99.668347,74.265621   L 100.40169,74.132289   L 100.93504,73.79896   L 101.33504,73.265635   L 101.46838,72.532312   L 102.6684,72.532312   L 102.80173,73.265635   L 103.13507,73.865626   L 103.66841,74.198955   L 104.40176,74.332286   L 105.00177,74.198955   L 105.46844,73.865626   L 105.80178,73.265635   L 105.93512,72.532312   L 107.06847,72.532312   L 107.20181,73.265635   L 107.60181,73.865626   L 108.20182,74.198955   L 108.8685,74.332286   L 109.46851,74.198955   L 110.00185,73.865626   L 110.33519,73.265635   L 110.46853,72.532312   L 111.66855,72.532312   L 111.80189,73.265635   L 112.13522,73.865626   L 112.66857,74.198955   L 113.33524,74.332286   L 114.00192,74.198955   L 114.53526,73.865626   L 114.8686,73.265635   L 115.00194,72.532312   L 116.40196,72.532312   L 116.5353,73.265635   L 116.86864,73.865626   L 117.33531,74.198955   L 117.93532,74.332286   L 118.602,74.198955   L 119.13534,73.865626   L 119.46868,73.265635   L 119.60202,72.532312   L 120.80204,72.532312   L 120.93537,73.265635   L 121.26871,73.865626   L 121.80205,74.198955   L 122.46873,74.332286   L 123.06874,74.198955   L 123.53542,73.79896   L 123.86876,73.198969   L 124.00209,72.465646   L 125.20211,72.532312   L 125.33545,73.265635   L 125.73545,73.865626   L 126.2688,74.198955   L 126.86881,74.332286   L 127.53548,74.198955   L 128.13549,73.865626   L 128.46883,73.265635   L 128.60217,72.532312   L 129.80219,72.532312   L 129.93552,73.265635   L 130.26886,73.865626   L 130.73554,74.198955   L 131.26888,74.332286   L 132.00223,74.198955   L 132.53557,73.865626   L 132.86891,73.265635   L 133.00224,72.532312   L 134.40227,72.532312   L 134.5356,73.265635   L 134.86894,73.865626   L 135.33562,74.198955   L 135.86896,74.332286   L 136.53564,74.198955   L 137.13565,73.865626   L 137.53565,73.265635   L 137.66899,72.532312   L 139.00234,72.532312   L 139.13568,73.265635   L 139.53569,73.865626   L 140.06903,74.198955   L 140.73571,74.332286   L 141.26905,74.198955   L 141.80239,73.865626   L 142.13573,73.265635   L 142.26907,72.532312   L 143.46909,72.532312   L 143.60242,73.265635   L 144.00243,73.865626   L 144.60244,74.198955   L 145.33578,74.332286   L 145.86913,74.198955   L 146.3358,73.865626   L 146.66914,73.265635   L 146.80248,72.532312  z " clip-path="url(#clipWmfPath1)" style="fill:none;stroke:#000000;stroke-width:0.066667788px;stroke-linecap:round;stroke-linejoin:round;stroke-miterlimit:4;stroke-dasharray:none;stroke-opacity:1;"/>
  <path id="path148" d="  M 98.06832,63.532438   L 98.201656,64.199096   L 98.601662,64.732422   L 99.135005,65.132416   L 99.735015,65.265747   L 100.46836,65.132416   L 101.13504,64.799087   L 101.53505,64.265761   L 101.66838,63.732436   L 103.13507,63.732436   L 103.26841,64.265761   L 103.66841,64.799087   L 104.20176,65.132416   L 104.9351,65.265747   L 105.53511,65.132416   L 106.00179,64.799087   L 106.40179,63.732436   L 106.26846,63.065778   L 105.93512,62.599118   L 104.66843,62.199124   L 104.66843,60.799144   L 105.33511,60.665812   L 105.93512,60.332483   L 106.26846,59.799158   L 106.40179,59.065835   L 106.26846,58.399177   L 105.93512,57.932517   L 105.33511,57.599189   L 104.66843,57.465857   L 104.66843,56.33254   L 105.33511,56.199208   L 105.93512,55.86588   L 106.26846,55.332554   L 106.40179,54.732562   L 106.26846,53.999239   L 105.93512,53.465914   L 105.33511,53.065919   L 104.66843,52.932588   L 104.66843,51.79927   L 105.33511,51.665939   L 105.93512,51.33261   L 106.26846,50.799284   L 106.40179,50.132627   L 106.26846,49.399304   L 105.93512,48.865978   L 105.33511,48.465984   L 104.66843,48.332653   L 104.66843,47.199335   L 105.33511,47.066004   L 105.93512,46.732675   L 106.26846,46.199349   L 106.40179,45.532692   L 106.26846,44.9327   L 105.93512,44.399375   L 105.33511,44.066046   L 104.66843,43.932714   L 104.66843,42.5994   L 105.33511,42.466068   L 105.93512,42.13274   L 106.26846,41.599414   L 106.40179,40.999422   L 106.26846,40.332765   L 105.93512,39.799439   L 105.33511,39.466111   L 104.66843,39.332779   L 104.66843,38.132796   L 105.33511,37.999465   L 105.93512,37.666136   L 106.26846,37.13281   L 106.40179,36.466153   L 106.26846,35.799496   L 105.93512,35.26617   L 105.33511,34.866176   L 104.66843,34.732844   L 104.00175,34.866176   L 103.46841,35.26617   L 103.0684,35.799496   L 102.93507,36.466153   L 103.0684,37.13281   L 103.46841,37.666136   L 104.00175,37.999465   L 104.66843,38.132796   L 104.66843,39.332779   L 104.00175,39.466111   L 103.46841,39.799439   L 103.0684,40.332765   L 102.93507,40.999422   L 103.0684,41.599414   L 103.46841,42.13274   L 104.00175,42.466068   L 104.66843,42.5994   L 104.66843,43.932714   L 104.00175,44.066046   L 103.46841,44.399375   L 103.0684,44.9327   L 102.93507,45.532692   L 103.0684,46.199349   L 103.46841,46.732675   L 104.00175,47.066004   L 104.66843,47.199335   L 104.66843,48.332653   L 104.00175,48.465984   L 103.46841,48.865978   L 103.0684,49.399304   L 102.93507,50.132627   L 103.0684,50.799284   L 103.46841,51.33261   L 104.00175,51.665939   L 104.66843,51.79927   L 104.66843,52.932588   L 104.00175,53.065919   L 103.46841,53.465914   L 103.00174,53.999239   L 102.8684,54.732562   L 103.46841,55.799214   L 104.00175,56.199208   L 104.66843,56.33254   L 104.66843,57.465857   L 103.46841,57.932517   L 103.0684,58.399177   L 102.93507,59.065835   L 103.0684,59.799158   L 103.46841,60.332483   L 104.00175,60.665812   L 104.66843,60.799144   L 104.66843,62.199124   L 103.60175,62.599118   L 103.26841,63.065778   L 103.13507,63.732436   L 101.66838,63.732436   L 101.53505,63.065778   L 101.13504,62.532452   L 100.46836,62.199124   L 99.735015,62.065792   L 99.735015,60.732478   L 100.46836,60.599146   L 101.13504,60.332483   L 101.53505,59.799158   L 101.66838,59.065835   L 101.53505,58.399177   L 101.13504,57.932517   L 100.46836,57.599189   L 99.735015,57.465857   L 99.735015,56.265874   L 100.46836,56.132543   L 101.13504,55.799214   L 101.53505,55.332554   L 101.66838,54.732562   L 101.53505,53.999239   L 101.13504,53.465914   L 100.46836,53.065919   L 99.735015,52.932588   L 99.735015,51.732605   L 100.46836,51.599273   L 101.13504,51.33261   L 101.53505,50.799284   L 101.66838,50.132627   L 101.53505,49.399304   L 101.13504,48.865978   L 100.46836,48.465984   L 99.735015,48.332653   L 99.735015,47.132669   L 100.46836,46.999338   L 101.13504,46.666009   L 101.53505,46.199349   L 101.66838,45.532692   L 101.53505,44.866035   L 101.13504,44.332709   L 100.46836,43.932714   L 99.735015,43.799383   L 99.735015,42.532734   L 100.46836,42.399403   L 101.13504,42.066074   L 101.53505,41.599414   L 101.66838,40.999422   L 101.53505,40.332765   L 101.13504,39.799439   L 100.46836,39.466111   L 99.735015,39.332779   L 99.735015,38.06613   L 100.46836,37.932799   L 101.13504,37.666136   L 101.53505,37.13281   L 101.66838,36.466153   L 101.53505,35.799496   L 101.13504,35.199504   L 100.46836,34.732844   L 99.735015,34.599513   L 99.135005,34.732844   L 98.601662,35.132838   L 98.201656,35.73283   L 98.06832,36.466153   L 98.201656,37.13281   L 98.601662,37.59947   L 99.135005,37.932799   L 99.735015,38.06613   L 99.735015,39.332779   L 98.601662,39.799439   L 98.201656,40.332765   L 98.06832,40.999422   L 98.201656,41.599414   L 98.601662,42.066074   L 99.135005,42.399403   L 99.735015,42.532734   L 99.735015,43.799383   L 99.135005,43.932714   L 98.601662,44.332709   L 98.201656,44.866035   L 98.06832,45.466026   L 98.601662,46.599344   L 99.135005,46.999338   L 99.735015,47.132669   L 99.735015,48.332653   L 99.135005,48.465984   L 98.601662,48.799313   L 98.201656,49.399304   L 98.06832,50.065961   L 98.201656,50.732619   L 98.601662,51.265945   L 99.135005,51.599273   L 99.735015,51.732605   L 99.735015,52.932588   L 99.068337,53.065919   L 98.534995,53.399248   L 98.134988,53.932574   L 98.001652,54.599231   L 98.134988,55.199222   L 98.534995,55.732548   L 99.068337,56.132543   L 99.735015,56.265874   L 99.735015,57.465857   L 98.601662,57.865852   L 98.201656,58.399177   L 98.06832,58.999169   L 98.201656,59.732492   L 98.601662,60.265818   L 99.135005,60.599146   L 99.735015,60.732478   L 99.735015,62.065792   L 98.601662,62.465787   L 98.201656,62.932447   L 98.06832,63.532438   L 98.06832,63.532438  z " clip-path="url(#clipWmfPath1)" style="fill:#f7f7f7;fill-rule:nonzero;fill-opacity:1;stroke:none;"/>
  <path id="path150" d="  M 98.06832,63.532438   L 98.201656,64.199096   L 98.601662,64.732422   L 99.135005,65.132416   L 99.735015,65.265747   L 100.46836,65.132416   L 101.13504,64.799087   L 101.53505,64.265761   L 101.66838,63.732436   L 103.13507,63.732436   L 103.26841,64.265761   L 103.66841,64.799087   L 104.20176,65.132416   L 104.9351,65.265747   L 105.53511,65.132416   L 106.00179,64.799087   L 106.40179,63.732436   L 106.26846,63.065778   L 105.93512,62.599118   L 104.66843,62.199124   L 104.66843,60.799144   L 105.33511,60.665812   L 105.93512,60.332483   L 106.26846,59.799158   L 106.40179,59.065835   L 106.26846,58.399177   L 105.93512,57.932517   L 105.33511,57.599189   L 104.66843,57.465857   L 104.66843,56.33254   L 105.33511,56.199208   L 105.93512,55.86588   L 106.26846,55.332554   L 106.40179,54.732562   L 106.26846,53.999239   L 105.93512,53.465914   L 105.33511,53.065919   L 104.66843,52.932588   L 104.66843,51.79927   L 105.33511,51.665939   L 105.93512,51.33261   L 106.26846,50.799284   L 106.40179,50.132627   L 106.26846,49.399304   L 105.93512,48.865978   L 105.33511,48.465984   L 104.66843,48.332653   L 104.66843,47.199335   L 105.33511,47.066004   L 105.93512,46.732675   L 106.26846,46.199349   L 106.40179,45.532692   L 106.26846,44.9327   L 105.93512,44.399375   L 105.33511,44.066046   L 104.66843,43.932714   L 104.66843,42.5994   L 105.33511,42.466068   L 105.93512,42.13274   L 106.26846,41.599414   L 106.40179,40.999422   L 106.26846,40.332765   L 105.93512,39.799439   L 105.33511,39.466111   L 104.66843,39.332779   L 104.66843,38.132796   L 105.33511,37.999465   L 105.93512,37.666136   L 106.26846,37.13281   L 106.40179,36.466153   L 106.26846,35.799496   L 105.93512,35.26617   L 105.33511,34.866176   L 104.66843,34.732844   L 104.00175,34.866176   L 103.46841,35.26617   L 103.0684,35.799496   L 102.93507,36.466153   L 103.0684,37.13281   L 103.46841,37.666136   L 104.00175,37.999465   L 104.66843,38.132796   L 104.66843,39.332779   L 104.00175,39.466111   L 103.46841,39.799439   L 103.0684,40.332765   L 102.93507,40.999422   L 103.0684,41.599414   L 103.46841,42.13274   L 104.00175,42.466068   L 104.66843,42.5994   L 104.66843,43.932714   L 104.00175,44.066046   L 103.46841,44.399375   L 103.0684,44.9327   L 102.93507,45.532692   L 103.0684,46.199349   L 103.46841,46.732675   L 104.00175,47.066004   L 104.66843,47.199335   L 104.66843,48.332653   L 104.00175,48.465984   L 103.46841,48.865978   L 103.0684,49.399304   L 102.93507,50.132627   L 103.0684,50.799284   L 103.46841,51.33261   L 104.00175,51.665939   L 104.66843,51.79927   L 104.66843,52.932588   L 104.00175,53.065919   L 103.46841,53.465914   L 103.00174,53.999239   L 102.8684,54.732562   L 103.46841,55.799214   L 104.00175,56.199208   L 104.66843,56.33254   L 104.66843,57.465857   L 103.46841,57.932517   L 103.0684,58.399177   L 102.93507,59.065835   L 103.0684,59.799158   L 103.46841,60.332483   L 104.00175,60.665812   L 104.66843,60.799144   L 104.66843,62.199124   L 103.60175,62.599118   L 103.26841,63.065778   L 103.13507,63.732436   L 101.66838,63.732436   L 101.53505,63.065778   L 101.13504,62.532452   L 100.46836,62.199124   L 99.735015,62.065792   L 99.735015,60.732478   L 100.46836,60.599146   L 101.13504,60.332483   L 101.53505,59.799158   L 101.66838,59.065835   L 101.53505,58.399177   L 101.13504,57.932517   L 100.46836,57.599189   L 99.735015,57.465857   L 99.735015,56.265874   L 100.46836,56.132543   L 101.13504,55.799214   L 101.53505,55.332554   L 101.66838,54.732562   L 101.53505,53.999239   L 101.13504,53.465914   L 100.46836,53.065919   L 99.735015,52.932588   L 99.735015,51.732605   L 100.46836,51.599273   L 101.13504,51.33261   L 101.53505,50.799284   L 101.66838,50.132627   L 101.53505,49.399304   L 101.13504,48.865978   L 100.46836,48.465984   L 99.735015,48.332653   L 99.735015,47.132669   L 100.46836,46.999338   L 101.13504,46.666009   L 101.53505,46.199349   L 101.66838,45.532692   L 101.53505,44.866035   L 101.13504,44.332709   L 100.46836,43.932714   L 99.735015,43.799383   L 99.735015,42.532734   L 100.46836,42.399403   L 101.13504,42.066074   L 101.53505,41.599414   L 101.66838,40.999422   L 101.53505,40.332765   L 101.13504,39.799439   L 100.46836,39.466111   L 99.735015,39.332779   L 99.735015,38.06613   L 100.46836,37.932799   L 101.13504,37.666136   L 101.53505,37.13281   L 101.66838,36.466153   L 101.53505,35.799496   L 101.13504,35.199504   L 100.46836,34.732844   L 99.735015,34.599513   L 99.135005,34.732844   L 98.601662,35.132838   L 98.201656,35.73283   L 98.06832,36.466153   L 98.201656,37.13281   L 98.601662,37.59947   L 99.135005,37.932799   L 99.735015,38.06613   L 99.735015,39.332779   L 98.601662,39.799439   L 98.201656,40.332765   L 98.06832,40.999422   L 98.201656,41.599414   L 98.601662,42.066074   L 99.135005,42.399403   L 99.735015,42.532734   L 99.735015,43.799383   L 99.135005,43.932714   L 98.601662,44.332709   L 98.201656,44.866035   L 98.06832,45.466026   L 98.601662,46.599344   L 99.135005,46.999338   L 99.735015,47.132669   L 99.735015,48.332653   L 99.135005,48.465984   L 98.601662,48.799313   L 98.201656,49.399304   L 98.06832,50.065961   L 98.201656,50.732619   L 98.601662,51.265945   L 99.135005,51.599273   L 99.735015,51.732605   L 99.735015,52.932588   L 99.068337,53.065919   L 98.534995,53.399248   L 98.134988,53.932574   L 98.001652,54.599231   L 98.134988,55.199222   L 98.534995,55.732548   L 99.068337,56.132543   L 99.735015,56.265874   L 99.735015,57.465857   L 98.601662,57.865852   L 98.201656,58.399177   L 98.06832,58.999169   L 98.201656,59.732492   L 98.601662,60.265818   L 99.135005,60.599146   L 99.735015,60.732478   L 99.735015,62.065792   L 98.601662,62.465787   L 98.201656,62.932447   L 98.06832,63.532438   L 98.06832,63.532438  z " clip-path="url(#clipWmfPath1)" style="fill:none;stroke:#000000;stroke-width:0.066667788px;stroke-linecap:round;stroke-linejoin:round;stroke-miterlimit:4;stroke-dasharray:none;stroke-opacity:1;"/>
  <path id="path152" d="  M 98.134988,32.332878   L 98.268324,32.999535   L 98.66833,33.532861   L 99.668347,33.999521   L 100.40169,33.86619   L 101.0017,33.532861   L 101.40171,32.999535   L 101.53505,32.332878   L 102.73507,32.332878   L 102.8684,32.999535   L 103.20174,33.532861   L 103.66841,33.86619   L 104.26842,33.999521   L 104.9351,33.86619   L 105.53511,33.532861   L 105.93512,32.999535   L 106.06846,32.332878   L 107.33514,32.332878   L 107.53515,32.999535   L 107.93515,33.532861   L 108.53516,33.86619   L 109.13517,33.999521   L 109.73518,33.86619   L 110.20186,33.532861   L 110.46853,32.999535   L 110.60186,32.332878   L 112.06856,32.332878   L 112.20189,32.999535   L 112.53523,33.532861   L 113.06857,33.86619   L 113.73525,33.999521   L 114.33526,33.86619   L 114.80194,33.532861   L 115.13527,32.999535   L 115.26861,32.332878   L 116.40196,32.332878   L 116.5353,32.999535   L 116.86864,33.532861   L 117.40198,33.932855   L 118.13533,34.066187   L 118.73534,33.932855   L 119.26868,33.532861   L 119.60202,32.999535   L 119.73535,32.332878   L 121.00204,32.399544   L 121.13538,33.066201   L 121.46871,33.532861   L 122.00206,33.86619   L 122.60207,33.999521   L 123.26875,33.86619   L 123.80209,33.532861   L 124.13543,32.999535   L 124.26876,32.332878   L 125.46878,32.332878   L 125.60212,32.999535   L 125.93546,33.532861   L 126.4688,33.86619   L 127.13548,33.999521   L 127.73549,33.86619   L 128.26883,33.532861   L 128.66884,32.999535   L 128.80217,32.332878   L 130.13553,32.332878   L 130.26886,32.999535   L 130.6022,33.532861   L 131.13554,33.86619   L 131.66889,33.999521   L 132.33556,33.86619   L 132.93557,33.532861   L 133.26891,32.999535   L 133.40225,32.332878   L 134.60227,32.332878   L 134.73561,32.999535   L 135.13561,33.532861   L 135.66895,33.86619   L 136.26896,33.999521   L 136.93564,33.86619   L 137.53565,33.532861   L 137.86899,32.999535   L 138.00233,32.332878   L 139.06901,32.332878   L 139.20235,32.999535   L 139.60235,33.532861   L 140.06903,33.932855   L 140.66904,34.066187   L 141.40238,33.932855   L 141.93573,33.532861   L 142.26907,32.999535   L 142.4024,32.332878   L 143.66909,32.332878   L 143.80242,32.999535   L 144.13576,33.532861   L 144.66911,33.86619   L 145.33578,33.999521   L 145.93579,33.86619   L 146.46914,33.532861   L 146.86914,32.999535   L 147.00248,32.332878   L 146.86914,31.666221   L 146.46914,31.066229   L 145.93579,30.666235   L 145.33578,30.532903   L 144.66911,30.666235   L 144.13576,31.066229   L 143.80242,31.666221   L 143.66909,32.332878   L 142.4024,32.332878   L 142.26907,31.666221   L 142.00239,31.066229   L 141.46905,30.666235   L 140.73571,30.532903   L 140.1357,30.666235   L 139.60235,31.066229   L 139.20235,31.666221   L 139.06901,32.332878   L 138.00233,32.332878   L 137.86899,31.666221   L 137.53565,31.066229   L 136.93564,30.666235   L 136.26896,30.532903   L 135.66895,30.666235   L 135.13561,31.066229   L 134.73561,31.666221   L 134.60227,32.332878   L 133.40225,32.332878   L 133.26891,31.666221   L 132.93557,31.066229   L 132.33556,30.666235   L 131.66889,30.532903   L 131.13554,30.666235   L 130.6022,31.066229   L 130.26886,31.666221   L 130.13553,32.332878   L 128.80217,32.332878   L 128.66884,31.666221   L 128.26883,31.066229   L 127.73549,30.666235   L 127.13548,30.532903   L 126.4688,30.666235   L 125.93546,31.066229   L 125.60212,31.666221   L 125.46878,32.332878   L 124.26876,32.332878   L 124.13543,31.666221   L 123.80209,31.066229   L 123.26875,30.666235   L 122.60207,30.532903   L 122.00206,30.666235   L 121.46871,31.132895   L 121.13538,31.732886   L 121.00204,32.399544   L 119.73535,32.332878   L 119.60202,31.666221   L 119.26868,31.066229   L 118.802,30.666235   L 118.20199,30.532903   L 117.46865,30.666235   L 116.9353,31.066229   L 116.5353,31.666221   L 116.40196,32.332878   L 115.26861,32.332878   L 115.13527,31.666221   L 114.80194,31.066229   L 114.33526,30.666235   L 113.73525,30.532903   L 113.06857,30.666235   L 112.53523,31.066229   L 112.20189,31.666221   L 112.06856,32.332878   L 110.60186,32.332878   L 110.46853,31.666221   L 110.20186,31.066229   L 109.73518,30.666235   L 109.13517,30.532903   L 108.53516,30.666235   L 107.93515,31.066229   L 107.53515,31.666221   L 107.33514,32.332878   L 106.06846,32.332878   L 105.93512,31.666221   L 105.53511,31.066229   L 104.9351,30.666235   L 104.26842,30.532903   L 103.66841,30.666235   L 103.20174,31.066229   L 102.8684,31.666221   L 102.73507,32.332878   L 101.53505,32.332878   L 101.40171,31.666221   L 101.0017,31.066229   L 100.40169,30.666235   L 99.668347,30.532903   L 98.66833,31.066229   L 98.268324,31.666221   L 98.134988,32.332878  z " clip-path="url(#clipWmfPath1)" style="fill:#f7f7f7;fill-rule:nonzero;fill-opacity:1;stroke:none;"/>
  <path id="path154" d="  M 98.134988,32.332878   L 98.268324,32.999535   L 98.66833,33.532861   L 99.668347,33.999521   L 100.40169,33.86619   L 101.0017,33.532861   L 101.40171,32.999535   L 101.53505,32.332878   L 102.73507,32.332878   L 102.8684,32.999535   L 103.20174,33.532861   L 103.66841,33.86619   L 104.26842,33.999521   L 104.9351,33.86619   L 105.53511,33.532861   L 105.93512,32.999535   L 106.06846,32.332878   L 107.33514,32.332878   L 107.53515,32.999535   L 107.93515,33.532861   L 108.53516,33.86619   L 109.13517,33.999521   L 109.73518,33.86619   L 110.20186,33.532861   L 110.46853,32.999535   L 110.60186,32.332878   L 112.06856,32.332878   L 112.20189,32.999535   L 112.53523,33.532861   L 113.06857,33.86619   L 113.73525,33.999521   L 114.33526,33.86619   L 114.80194,33.532861   L 115.13527,32.999535   L 115.26861,32.332878   L 116.40196,32.332878   L 116.5353,32.999535   L 116.86864,33.532861   L 117.40198,33.932855   L 118.13533,34.066187   L 118.73534,33.932855   L 119.26868,33.532861   L 119.60202,32.999535   L 119.73535,32.332878   L 121.00204,32.399544   L 121.13538,33.066201   L 121.46871,33.532861   L 122.00206,33.86619   L 122.60207,33.999521   L 123.26875,33.86619   L 123.80209,33.532861   L 124.13543,32.999535   L 124.26876,32.332878   L 125.46878,32.332878   L 125.60212,32.999535   L 125.93546,33.532861   L 126.4688,33.86619   L 127.13548,33.999521   L 127.73549,33.86619   L 128.26883,33.532861   L 128.66884,32.999535   L 128.80217,32.332878   L 130.13553,32.332878   L 130.26886,32.999535   L 130.6022,33.532861   L 131.13554,33.86619   L 131.66889,33.999521   L 132.33556,33.86619   L 132.93557,33.532861   L 133.26891,32.999535   L 133.40225,32.332878   L 134.60227,32.332878   L 134.73561,32.999535   L 135.13561,33.532861   L 135.66895,33.86619   L 136.26896,33.999521   L 136.93564,33.86619   L 137.53565,33.532861   L 137.86899,32.999535   L 138.00233,32.332878   L 139.06901,32.332878   L 139.20235,32.999535   L 139.60235,33.532861   L 140.06903,33.932855   L 140.66904,34.066187   L 141.40238,33.932855   L 141.93573,33.532861   L 142.26907,32.999535   L 142.4024,32.332878   L 143.66909,32.332878   L 143.80242,32.999535   L 144.13576,33.532861   L 144.66911,33.86619   L 145.33578,33.999521   L 145.93579,33.86619   L 146.46914,33.532861   L 146.86914,32.999535   L 147.00248,32.332878   L 146.86914,31.666221   L 146.46914,31.066229   L 145.93579,30.666235   L 145.33578,30.532903   L 144.66911,30.666235   L 144.13576,31.066229   L 143.80242,31.666221   L 143.66909,32.332878   L 142.4024,32.332878   L 142.26907,31.666221   L 142.00239,31.066229   L 141.46905,30.666235   L 140.73571,30.532903   L 140.1357,30.666235   L 139.60235,31.066229   L 139.20235,31.666221   L 139.06901,32.332878   L 138.00233,32.332878   L 137.86899,31.666221   L 137.53565,31.066229   L 136.93564,30.666235   L 136.26896,30.532903   L 135.66895,30.666235   L 135.13561,31.066229   L 134.73561,31.666221   L 134.60227,32.332878   L 133.40225,32.332878   L 133.26891,31.666221   L 132.93557,31.066229   L 132.33556,30.666235   L 131.66889,30.532903   L 131.13554,30.666235   L 130.6022,31.066229   L 130.26886,31.666221   L 130.13553,32.332878   L 128.80217,32.332878   L 128.66884,31.666221   L 128.26883,31.066229   L 127.73549,30.666235   L 127.13548,30.532903   L 126.4688,30.666235   L 125.93546,31.066229   L 125.60212,31.666221   L 125.46878,32.332878   L 124.26876,32.332878   L 124.13543,31.666221   L 123.80209,31.066229   L 123.26875,30.666235   L 122.60207,30.532903   L 122.00206,30.666235   L 121.46871,31.132895   L 121.13538,31.732886   L 121.00204,32.399544   L 119.73535,32.332878   L 119.60202,31.666221   L 119.26868,31.066229   L 118.802,30.666235   L 118.20199,30.532903   L 117.46865,30.666235   L 116.9353,31.066229   L 116.5353,31.666221   L 116.40196,32.332878   L 115.26861,32.332878   L 115.13527,31.666221   L 114.80194,31.066229   L 114.33526,30.666235   L 113.73525,30.532903   L 113.06857,30.666235   L 112.53523,31.066229   L 112.20189,31.666221   L 112.06856,32.332878   L 110.60186,32.332878   L 110.46853,31.666221   L 110.20186,31.066229   L 109.73518,30.666235   L 109.13517,30.532903   L 108.53516,30.666235   L 107.93515,31.066229   L 107.53515,31.666221   L 107.33514,32.332878   L 106.06846,32.332878   L 105.93512,31.666221   L 105.53511,31.066229   L 104.9351,30.666235   L 104.26842,30.532903   L 103.66841,30.666235   L 103.20174,31.066229   L 102.8684,31.666221   L 102.73507,32.332878   L 101.53505,32.332878   L 101.40171,31.666221   L 101.0017,31.066229   L 100.40169,30.666235   L 99.668347,30.532903   L 98.66833,31.066229   L 98.268324,31.666221   L 98.134988,32.332878  z " clip-path="url(#clipWmfPath1)" style="fill:none;stroke:#000000;stroke-width:0.066667788px;stroke-linecap:round;stroke-linejoin:round;stroke-miterlimit:4;stroke-dasharray:none;stroke-opacity:1;"/>
  <path id="path156" d="  M 98.06832,27.732943   L 98.201656,28.3996   L 98.601662,28.932926   L 99.601679,29.399586   L 100.40169,29.266254   L 100.93504,28.932926   L 101.33504,28.3996   L 101.46838,27.732943   L 102.6684,27.732943   L 102.80173,28.3996   L 103.13507,28.932926   L 103.60175,29.266254   L 104.13509,29.399586   L 104.86843,29.266254   L 105.40178,28.932926   L 105.80178,28.3996   L 105.93512,27.732943   L 107.26848,27.732943   L 107.46848,28.3996   L 107.86849,28.932926   L 108.4685,29.266254   L 109.06851,29.399586   L 109.66852,29.266254   L 110.13519,28.932926   L 110.40186,28.3996   L 110.5352,27.732943   L 111.86855,27.732943   L 112.00189,28.3996   L 112.4019,28.932926   L 112.93524,29.266254   L 113.66858,29.399586   L 114.20193,29.266254   L 114.6686,28.932926   L 115.00194,28.3996   L 115.13527,27.732943   L 116.33529,27.732943   L 116.46863,28.3996   L 116.80197,28.999592   L 117.33531,29.399586   L 118.00199,29.532917   L 118.602,29.399586   L 119.13534,28.999592   L 119.53535,28.3996   L 119.66868,27.732943   L 120.8687,27.866274   L 121.00204,28.466266   L 121.33538,28.932926   L 121.80205,29.266254   L 122.46873,29.399586   L 123.13541,29.266254   L 123.66875,28.932926   L 124.00209,28.3996   L 124.13543,27.732943   L 125.33545,27.732943   L 125.46878,28.3996   L 125.80212,28.932926   L 126.33546,29.266254   L 126.93547,29.399586   L 127.60215,29.266254   L 128.20216,28.932926   L 128.5355,28.3996   L 128.66884,27.732943   L 129.93552,27.732943   L 130.06886,28.3996   L 130.46887,28.932926   L 131.00221,29.266254   L 131.60222,29.399586   L 132.20223,29.266254   L 132.73557,28.932926   L 133.13558,28.3996   L 133.26891,27.732943   L 134.46893,27.732943   L 134.60227,28.3996   L 135.00228,28.932926   L 135.46895,29.266254   L 136.06896,29.399586   L 136.80231,29.266254   L 137.33565,28.932926   L 137.66899,28.3996   L 137.80232,27.732943   L 138.93568,27.732943   L 139.06901,28.3996   L 139.40235,28.999592   L 139.93569,29.399586   L 140.5357,29.532917   L 141.26905,29.399586   L 141.80239,28.999592   L 142.13573,28.3996   L 142.26907,27.732943   L 143.53575,27.732943   L 143.66909,28.3996   L 144.00243,28.932926   L 144.53577,29.266254   L 145.20245,29.399586   L 145.80246,29.266254   L 146.3358,28.932926   L 146.66914,28.3996   L 146.80248,27.732943   L 146.66914,27.066285   L 146.3358,26.466294   L 145.80246,26.132965   L 145.20245,25.999634   L 144.53577,26.132965   L 144.00243,26.466294   L 143.66909,27.066285   L 143.53575,27.732943   L 142.26907,27.732943   L 142.13573,27.066285   L 141.86906,26.466294   L 141.33572,26.132965   L 140.60237,25.999634   L 140.00236,26.132965   L 139.46902,26.466294   L 139.06901,27.066285   L 138.93568,27.732943   L 137.80232,27.732943   L 137.66899,27.066285   L 137.33565,26.466294   L 136.80231,26.132965   L 136.06896,25.999634   L 135.46895,26.132965   L 135.00228,26.466294   L 134.60227,27.066285   L 134.46893,27.732943   L 133.26891,27.732943   L 133.13558,27.066285   L 132.73557,26.466294   L 132.20223,26.132965   L 131.60222,25.999634   L 131.00221,26.132965   L 130.46887,26.466294   L 130.06886,27.066285   L 129.93552,27.732943   L 128.66884,27.732943   L 128.5355,27.066285   L 128.20216,26.466294   L 127.60215,26.132965   L 126.93547,25.999634   L 126.33546,26.132965   L 125.80212,26.466294   L 125.46878,27.066285   L 125.33545,27.732943   L 124.13543,27.732943   L 124.00209,27.066285   L 123.66875,26.466294   L 123.13541,26.132965   L 122.46873,25.999634   L 121.80205,26.132965   L 121.33538,26.53296   L 121.00204,27.132951   L 120.8687,27.866274   L 119.66868,27.732943   L 119.53535,27.066285   L 119.20201,26.466294   L 118.73534,26.132965   L 118.13533,25.999634   L 117.40198,26.132965   L 116.86864,26.466294   L 116.46863,27.066285   L 116.33529,27.732943   L 115.13527,27.732943   L 115.00194,27.066285   L 114.6686,26.466294   L 114.20193,26.132965   L 113.66858,25.999634   L 112.93524,26.132965   L 112.4019,26.466294   L 112.00189,27.066285   L 111.86855,27.732943   L 110.5352,27.732943   L 110.40186,27.066285   L 110.13519,26.466294   L 109.66852,26.132965   L 109.06851,25.999634   L 108.4685,26.132965   L 107.86849,26.466294   L 107.46848,27.066285   L 107.26848,27.732943   L 105.93512,27.732943   L 105.80178,27.066285   L 105.40178,26.466294   L 104.86843,26.132965   L 104.13509,25.999634   L 103.60175,26.132965   L 103.13507,26.466294   L 102.80173,27.066285   L 102.6684,27.732943   L 101.46838,27.732943   L 101.33504,27.066285   L 100.93504,26.466294   L 100.40169,26.132965   L 99.601679,25.999634   L 99.068337,26.132965   L 98.601662,26.466294   L 98.201656,27.066285   L 98.06832,27.732943  z " clip-path="url(#clipWmfPath1)" style="fill:#f7f7f7;fill-rule:nonzero;fill-opacity:1;stroke:none;"/>
  <path id="path158" d="  M 98.06832,27.732943   L 98.201656,28.3996   L 98.601662,28.932926   L 99.601679,29.399586   L 100.40169,29.266254   L 100.93504,28.932926   L 101.33504,28.3996   L 101.46838,27.732943   L 102.6684,27.732943   L 102.80173,28.3996   L 103.13507,28.932926   L 103.60175,29.266254   L 104.13509,29.399586   L 104.86843,29.266254   L 105.40178,28.932926   L 105.80178,28.3996   L 105.93512,27.732943   L 107.26848,27.732943   L 107.46848,28.3996   L 107.86849,28.932926   L 108.4685,29.266254   L 109.06851,29.399586   L 109.66852,29.266254   L 110.13519,28.932926   L 110.40186,28.3996   L 110.5352,27.732943   L 111.86855,27.732943   L 112.00189,28.3996   L 112.4019,28.932926   L 112.93524,29.266254   L 113.66858,29.399586   L 114.20193,29.266254   L 114.6686,28.932926   L 115.00194,28.3996   L 115.13527,27.732943   L 116.33529,27.732943   L 116.46863,28.3996   L 116.80197,28.999592   L 117.33531,29.399586   L 118.00199,29.532917   L 118.602,29.399586   L 119.13534,28.999592   L 119.53535,28.3996   L 119.66868,27.732943   L 120.8687,27.866274   L 121.00204,28.466266   L 121.33538,28.932926   L 121.80205,29.266254   L 122.46873,29.399586   L 123.13541,29.266254   L 123.66875,28.932926   L 124.00209,28.3996   L 124.13543,27.732943   L 125.33545,27.732943   L 125.46878,28.3996   L 125.80212,28.932926   L 126.33546,29.266254   L 126.93547,29.399586   L 127.60215,29.266254   L 128.20216,28.932926   L 128.5355,28.3996   L 128.66884,27.732943   L 129.93552,27.732943   L 130.06886,28.3996   L 130.46887,28.932926   L 131.00221,29.266254   L 131.60222,29.399586   L 132.20223,29.266254   L 132.73557,28.932926   L 133.13558,28.3996   L 133.26891,27.732943   L 134.46893,27.732943   L 134.60227,28.3996   L 135.00228,28.932926   L 135.46895,29.266254   L 136.06896,29.399586   L 136.80231,29.266254   L 137.33565,28.932926   L 137.66899,28.3996   L 137.80232,27.732943   L 138.93568,27.732943   L 139.06901,28.3996   L 139.40235,28.999592   L 139.93569,29.399586   L 140.5357,29.532917   L 141.26905,29.399586   L 141.80239,28.999592   L 142.13573,28.3996   L 142.26907,27.732943   L 143.53575,27.732943   L 143.66909,28.3996   L 144.00243,28.932926   L 144.53577,29.266254   L 145.20245,29.399586   L 145.80246,29.266254   L 146.3358,28.932926   L 146.66914,28.3996   L 146.80248,27.732943   L 146.66914,27.066285   L 146.3358,26.466294   L 145.80246,26.132965   L 145.20245,25.999634   L 144.53577,26.132965   L 144.00243,26.466294   L 143.66909,27.066285   L 143.53575,27.732943   L 142.26907,27.732943   L 142.13573,27.066285   L 141.86906,26.466294   L 141.33572,26.132965   L 140.60237,25.999634   L 140.00236,26.132965   L 139.46902,26.466294   L 139.06901,27.066285   L 138.93568,27.732943   L 137.80232,27.732943   L 137.66899,27.066285   L 137.33565,26.466294   L 136.80231,26.132965   L 136.06896,25.999634   L 135.46895,26.132965   L 135.00228,26.466294   L 134.60227,27.066285   L 134.46893,27.732943   L 133.26891,27.732943   L 133.13558,27.066285   L 132.73557,26.466294   L 132.20223,26.132965   L 131.60222,25.999634   L 131.00221,26.132965   L 130.46887,26.466294   L 130.06886,27.066285   L 129.93552,27.732943   L 128.66884,27.732943   L 128.5355,27.066285   L 128.20216,26.466294   L 127.60215,26.132965   L 126.93547,25.999634   L 126.33546,26.132965   L 125.80212,26.466294   L 125.46878,27.066285   L 125.33545,27.732943   L 124.13543,27.732943   L 124.00209,27.066285   L 123.66875,26.466294   L 123.13541,26.132965   L 122.46873,25.999634   L 121.80205,26.132965   L 121.33538,26.53296   L 121.00204,27.132951   L 120.8687,27.866274   L 119.66868,27.732943   L 119.53535,27.066285   L 119.20201,26.466294   L 118.73534,26.132965   L 118.13533,25.999634   L 117.40198,26.132965   L 116.86864,26.466294   L 116.46863,27.066285   L 116.33529,27.732943   L 115.13527,27.732943   L 115.00194,27.066285   L 114.6686,26.466294   L 114.20193,26.132965   L 113.66858,25.999634   L 112.93524,26.132965   L 112.4019,26.466294   L 112.00189,27.066285   L 111.86855,27.732943   L 110.5352,27.732943   L 110.40186,27.066285   L 110.13519,26.466294   L 109.66852,26.132965   L 109.06851,25.999634   L 108.4685,26.132965   L 107.86849,26.466294   L 107.46848,27.066285   L 107.26848,27.732943   L 105.93512,27.732943   L 105.80178,27.066285   L 105.40178,26.466294   L 104.86843,26.132965   L 104.13509,25.999634   L 103.60175,26.132965   L 103.13507,26.466294   L 102.80173,27.066285   L 102.6684,27.732943   L 101.46838,27.732943   L 101.33504,27.066285   L 100.93504,26.466294   L 100.40169,26.132965   L 99.601679,25.999634   L 99.068337,26.132965   L 98.601662,26.466294   L 98.201656,27.066285   L 98.06832,27.732943  z " clip-path="url(#clipWmfPath1)" style="fill:none;stroke:#000000;stroke-width:0.066667788px;stroke-linecap:round;stroke-linejoin:round;stroke-miterlimit:4;stroke-dasharray:none;stroke-opacity:1;"/>
  <path id="path160" d="  M 146.73581,36.732816   L 146.60247,36.066159   L 146.26913,35.532833   L 145.73579,35.132838   L 145.00244,34.999507   L 144.33577,35.132838   L 143.86909,35.532833   L 143.53575,36.066159   L 143.40242,36.732816   L 141.93573,36.732816   L 141.80239,36.066159   L 141.40238,35.532833   L 140.80237,35.199504   L 140.06903,35.066173   L 139.46902,35.199504   L 139.00234,35.532833   L 138.73567,36.066159   L 138.60234,36.732816   L 138.73567,37.332807   L 139.13568,37.799468   L 139.66902,38.06613   L 140.40237,38.199462   L 140.40237,39.532776   L 139.66902,39.666108   L 139.13568,39.999437   L 138.73567,40.532762   L 138.60234,41.266085   L 138.73567,41.932743   L 139.13568,42.399403   L 139.66902,42.666066   L 140.40237,42.799397   L 140.40237,43.99938   L 139.66902,44.132712   L 139.13568,44.46604   L 138.73567,44.999366   L 138.60234,45.532692   L 138.73567,46.266015   L 139.13568,46.799341   L 139.66902,47.199335   L 140.40237,47.332667   L 140.40237,48.53265   L 139.66902,48.665981   L 139.13568,48.99931   L 138.73567,49.532636   L 138.60234,50.199293   L 138.73567,50.86595   L 139.13568,51.465942   L 139.66902,51.79927   L 140.40237,51.932602   L 140.40237,53.132585   L 139.66902,53.265916   L 139.13568,53.665911   L 138.73567,54.199237   L 138.60234,54.799228   L 138.73567,55.39922   L 139.13568,55.932545   L 139.66902,56.265874   L 140.40237,56.399206   L 140.40237,57.73252   L 139.66902,57.865852   L 139.13568,58.19918   L 138.73567,58.66584   L 138.60234,59.265832   L 138.73567,59.932489   L 139.13568,60.465815   L 139.66902,60.799144   L 140.40237,60.932475   L 140.40237,62.199124   L 139.66902,62.332455   L 139.13568,62.665784   L 138.73567,63.132444   L 138.60234,63.799101   L 138.73567,64.532424   L 139.13568,65.06575   L 139.66902,65.465745   L 140.40237,65.599076   L 141.00238,65.465745   L 141.46905,65.06575   L 141.80239,64.532424   L 141.93573,63.799101   L 141.80239,63.132444   L 141.46905,62.665784   L 141.00238,62.332455   L 140.40237,62.199124   L 140.40237,60.932475   L 141.00238,60.799144   L 141.46905,60.465815   L 141.80239,59.932489   L 141.93573,59.265832   L 141.80239,58.66584   L 141.46905,58.19918   L 141.00238,57.865852   L 140.40237,57.73252   L 140.40237,56.399206   L 141.00238,56.265874   L 141.46905,55.932545   L 141.80239,55.39922   L 141.93573,54.799228   L 141.80239,54.199237   L 141.46905,53.665911   L 141.00238,53.265916   L 140.40237,53.132585   L 140.40237,51.932602   L 141.00238,51.79927   L 141.46905,51.465942   L 141.80239,50.86595   L 141.93573,50.199293   L 141.80239,49.532636   L 141.46905,48.99931   L 141.00238,48.665981   L 140.40237,48.53265   L 140.40237,47.332667   L 141.00238,47.199335   L 141.53572,46.866007   L 141.86906,46.266015   L 142.00239,45.599358   L 141.86906,44.999366   L 141.53572,44.532706   L 141.00238,44.132712   L 140.40237,43.99938   L 140.40237,42.799397   L 141.00238,42.666066   L 141.46905,42.399403   L 141.80239,41.932743   L 141.93573,41.266085   L 141.80239,40.532762   L 141.46905,39.999437   L 141.00238,39.666108   L 140.40237,39.532776   L 140.40237,38.199462   L 141.00238,38.06613   L 141.46905,37.799468   L 141.80239,37.332807   L 141.93573,36.732816   L 143.40242,36.732816   L 143.53575,37.332807   L 143.86909,37.799468   L 144.33577,38.06613   L 145.00244,38.199462   L 145.00244,39.532776   L 143.86909,39.999437   L 143.53575,40.532762   L 143.40242,41.266085   L 143.53575,41.932743   L 143.86909,42.399403   L 144.33577,42.666066   L 145.00244,42.799397   L 145.00244,43.99938   L 144.33577,44.132712   L 143.86909,44.46604   L 143.53575,44.999366   L 143.40242,45.532692   L 143.53575,46.266015   L 143.86909,46.799341   L 144.33577,47.199335   L 145.00244,47.332667   L 145.00244,48.53265   L 143.86909,48.99931   L 143.53575,49.532636   L 143.40242,50.199293   L 143.53575,50.86595   L 143.86909,51.465942   L 144.33577,51.79927   L 145.00244,51.932602   L 145.00244,53.132585   L 144.33577,53.265916   L 143.86909,53.665911   L 143.40242,54.799228   L 143.53575,55.39922   L 143.86909,55.932545   L 144.33577,56.265874   L 145.00244,56.399206   L 145.00244,57.73252   L 144.33577,57.865852   L 143.86909,58.19918   L 143.53575,58.66584   L 143.40242,59.265832   L 143.86909,60.465815   L 144.33577,60.799144   L 145.00244,60.932475   L 145.00244,62.199124   L 143.86909,62.665784   L 143.40242,63.799101   L 143.53575,64.532424   L 143.86909,65.132416   L 144.33577,65.53241   L 145.00244,65.665742   L 145.73579,65.53241   L 146.26913,65.132416   L 146.60247,64.532424   L 146.73581,63.799101   L 146.60247,63.132444   L 146.26913,62.665784   L 145.73579,62.332455   L 145.00244,62.199124   L 145.00244,60.932475   L 145.73579,60.799144   L 146.26913,60.465815   L 146.60247,59.932489   L 146.73581,59.265832   L 146.60247,58.66584   L 146.26913,58.19918   L 145.73579,57.865852   L 145.00244,57.73252   L 145.00244,56.399206   L 145.73579,56.265874   L 146.26913,55.932545   L 146.60247,55.39922   L 146.73581,54.799228   L 146.60247,54.199237   L 146.26913,53.665911   L 145.73579,53.265916   L 145.00244,53.132585   L 145.00244,51.932602   L 145.73579,51.79927   L 146.26913,51.465942   L 146.60247,50.86595   L 146.73581,50.199293   L 146.60247,49.532636   L 146.26913,48.99931   L 145.73579,48.665981   L 145.00244,48.53265   L 145.00244,47.332667   L 145.73579,47.199335   L 146.3358,46.866007   L 146.66914,46.266015   L 146.80248,45.599358   L 146.66914,44.999366   L 146.3358,44.532706   L 145.73579,44.132712   L 145.00244,43.99938   L 145.00244,42.799397   L 145.73579,42.666066   L 146.26913,42.399403   L 146.60247,41.932743   L 146.73581,41.266085   L 146.60247,40.532762   L 146.26913,39.999437   L 145.73579,39.666108   L 145.00244,39.532776   L 145.00244,38.199462   L 145.73579,38.06613   L 146.26913,37.799468   L 146.60247,37.332807   L 146.73581,36.732816  z " clip-path="url(#clipWmfPath1)" style="fill:#f7f7f7;fill-rule:nonzero;fill-opacity:1;stroke:none;"/>
  <path id="path162" d="  M 146.73581,36.732816   L 146.60247,36.066159   L 146.26913,35.532833   L 145.73579,35.132838   L 145.00244,34.999507   L 144.33577,35.132838   L 143.86909,35.532833   L 143.53575,36.066159   L 143.40242,36.732816   L 141.93573,36.732816   L 141.80239,36.066159   L 141.40238,35.532833   L 140.80237,35.199504   L 140.06903,35.066173   L 139.46902,35.199504   L 139.00234,35.532833   L 138.73567,36.066159   L 138.60234,36.732816   L 138.73567,37.332807   L 139.13568,37.799468   L 139.66902,38.06613   L 140.40237,38.199462   L 140.40237,39.532776   L 139.66902,39.666108   L 139.13568,39.999437   L 138.73567,40.532762   L 138.60234,41.266085   L 138.73567,41.932743   L 139.13568,42.399403   L 139.66902,42.666066   L 140.40237,42.799397   L 140.40237,43.99938   L 139.66902,44.132712   L 139.13568,44.46604   L 138.73567,44.999366   L 138.60234,45.532692   L 138.73567,46.266015   L 139.13568,46.799341   L 139.66902,47.199335   L 140.40237,47.332667   L 140.40237,48.53265   L 139.66902,48.665981   L 139.13568,48.99931   L 138.73567,49.532636   L 138.60234,50.199293   L 138.73567,50.86595   L 139.13568,51.465942   L 139.66902,51.79927   L 140.40237,51.932602   L 140.40237,53.132585   L 139.66902,53.265916   L 139.13568,53.665911   L 138.73567,54.199237   L 138.60234,54.799228   L 138.73567,55.39922   L 139.13568,55.932545   L 139.66902,56.265874   L 140.40237,56.399206   L 140.40237,57.73252   L 139.66902,57.865852   L 139.13568,58.19918   L 138.73567,58.66584   L 138.60234,59.265832   L 138.73567,59.932489   L 139.13568,60.465815   L 139.66902,60.799144   L 140.40237,60.932475   L 140.40237,62.199124   L 139.66902,62.332455   L 139.13568,62.665784   L 138.73567,63.132444   L 138.60234,63.799101   L 138.73567,64.532424   L 139.13568,65.06575   L 139.66902,65.465745   L 140.40237,65.599076   L 141.00238,65.465745   L 141.46905,65.06575   L 141.80239,64.532424   L 141.93573,63.799101   L 141.80239,63.132444   L 141.46905,62.665784   L 141.00238,62.332455   L 140.40237,62.199124   L 140.40237,60.932475   L 141.00238,60.799144   L 141.46905,60.465815   L 141.80239,59.932489   L 141.93573,59.265832   L 141.80239,58.66584   L 141.46905,58.19918   L 141.00238,57.865852   L 140.40237,57.73252   L 140.40237,56.399206   L 141.00238,56.265874   L 141.46905,55.932545   L 141.80239,55.39922   L 141.93573,54.799228   L 141.80239,54.199237   L 141.46905,53.665911   L 141.00238,53.265916   L 140.40237,53.132585   L 140.40237,51.932602   L 141.00238,51.79927   L 141.46905,51.465942   L 141.80239,50.86595   L 141.93573,50.199293   L 141.80239,49.532636   L 141.46905,48.99931   L 141.00238,48.665981   L 140.40237,48.53265   L 140.40237,47.332667   L 141.00238,47.199335   L 141.53572,46.866007   L 141.86906,46.266015   L 142.00239,45.599358   L 141.86906,44.999366   L 141.53572,44.532706   L 141.00238,44.132712   L 140.40237,43.99938   L 140.40237,42.799397   L 141.00238,42.666066   L 141.46905,42.399403   L 141.80239,41.932743   L 141.93573,41.266085   L 141.80239,40.532762   L 141.46905,39.999437   L 141.00238,39.666108   L 140.40237,39.532776   L 140.40237,38.199462   L 141.00238,38.06613   L 141.46905,37.799468   L 141.80239,37.332807   L 141.93573,36.732816   L 143.40242,36.732816   L 143.53575,37.332807   L 143.86909,37.799468   L 144.33577,38.06613   L 145.00244,38.199462   L 145.00244,39.532776   L 143.86909,39.999437   L 143.53575,40.532762   L 143.40242,41.266085   L 143.53575,41.932743   L 143.86909,42.399403   L 144.33577,42.666066   L 145.00244,42.799397   L 145.00244,43.99938   L 144.33577,44.132712   L 143.86909,44.46604   L 143.53575,44.999366   L 143.40242,45.532692   L 143.53575,46.266015   L 143.86909,46.799341   L 144.33577,47.199335   L 145.00244,47.332667   L 145.00244,48.53265   L 143.86909,48.99931   L 143.53575,49.532636   L 143.40242,50.199293   L 143.53575,50.86595   L 143.86909,51.465942   L 144.33577,51.79927   L 145.00244,51.932602   L 145.00244,53.132585   L 144.33577,53.265916   L 143.86909,53.665911   L 143.40242,54.799228   L 143.53575,55.39922   L 143.86909,55.932545   L 144.33577,56.265874   L 145.00244,56.399206   L 145.00244,57.73252   L 144.33577,57.865852   L 143.86909,58.19918   L 143.53575,58.66584   L 143.40242,59.265832   L 143.86909,60.465815   L 144.33577,60.799144   L 145.00244,60.932475   L 145.00244,62.199124   L 143.86909,62.665784   L 143.40242,63.799101   L 143.53575,64.532424   L 143.86909,65.132416   L 144.33577,65.53241   L 145.00244,65.665742   L 145.73579,65.53241   L 146.26913,65.132416   L 146.60247,64.532424   L 146.73581,63.799101   L 146.60247,63.132444   L 146.26913,62.665784   L 145.73579,62.332455   L 145.00244,62.199124   L 145.00244,60.932475   L 145.73579,60.799144   L 146.26913,60.465815   L 146.60247,59.932489   L 146.73581,59.265832   L 146.60247,58.66584   L 146.26913,58.19918   L 145.73579,57.865852   L 145.00244,57.73252   L 145.00244,56.399206   L 145.73579,56.265874   L 146.26913,55.932545   L 146.60247,55.39922   L 146.73581,54.799228   L 146.60247,54.199237   L 146.26913,53.665911   L 145.73579,53.265916   L 145.00244,53.132585   L 145.00244,51.932602   L 145.73579,51.79927   L 146.26913,51.465942   L 146.60247,50.86595   L 146.73581,50.199293   L 146.60247,49.532636   L 146.26913,48.99931   L 145.73579,48.665981   L 145.00244,48.53265   L 145.00244,47.332667   L 145.73579,47.199335   L 146.3358,46.866007   L 146.66914,46.266015   L 146.80248,45.599358   L 146.66914,44.999366   L 146.3358,44.532706   L 145.73579,44.132712   L 145.00244,43.99938   L 145.00244,42.799397   L 145.73579,42.666066   L 146.26913,42.399403   L 146.60247,41.932743   L 146.73581,41.266085   L 146.60247,40.532762   L 146.26913,39.999437   L 145.73579,39.666108   L 145.00244,39.532776   L 145.00244,38.199462   L 145.73579,38.06613   L 146.26913,37.799468   L 146.60247,37.332807   L 146.73581,36.732816  z " clip-path="url(#clipWmfPath1)" style="fill:none;stroke:#000000;stroke-width:0.066667788px;stroke-linecap:round;stroke-linejoin:round;stroke-miterlimit:4;stroke-dasharray:none;stroke-opacity:1;"/>
  <path id="path164" d="  M 134.3356,39.999437   L 133.60225,39.866105   L 133.00224,39.532776   L 132.60224,38.932785   L 132.4689,38.266128   L 132.60224,37.532805   L 133.00224,36.999479   L 133.60225,36.599484   L 134.3356,36.466153   L 135.53562,36.999479   L 135.93563,37.532805   L 136.06896,38.266128   L 135.93563,38.932785   L 135.53562,39.532776   L 135.00228,39.866105   L 134.3356,39.999437  z " clip-path="url(#clipWmfPath1)" style="fill:#000000;fill-rule:nonzero;fill-opacity:1;stroke:none;"/>
  <path id="path166" d="  M 134.3356,39.999437   L 133.60225,39.866105   L 133.00224,39.532776   L 132.60224,38.932785   L 132.4689,38.266128   L 132.60224,37.532805   L 133.00224,36.999479   L 133.60225,36.599484   L 134.3356,36.466153   L 135.53562,36.999479   L 135.93563,37.532805   L 136.06896,38.266128   L 135.93563,38.932785   L 135.53562,39.532776   L 135.00228,39.866105   L 134.3356,39.999437  z " clip-path="url(#clipWmfPath1)" style="fill:none;stroke:#000000;stroke-width:0.066667788px;stroke-linecap:round;stroke-linejoin:round;stroke-miterlimit:4;stroke-dasharray:none;stroke-opacity:1;"/>
  <path id="path168" d="  M 131.40222,43.732717   L 132.33556,43.866049   L 133.20225,44.266043   L 133.73559,44.866035   L 133.93559,45.599358   L 133.93559,54.599231   L 133.73559,55.332554   L 133.20225,55.86588   L 132.33556,56.199208   L 131.40222,56.33254   L 113.06857,56.33254   L 112.13522,56.199208   L 111.33521,55.799214   L 110.7352,55.265888   L 110.5352,54.465899   L 110.5352,45.599358   L 110.7352,44.866035   L 111.33521,44.266043   L 112.13522,43.866049   L 113.06857,43.732717   L 131.40222,43.732717  z " clip-path="url(#clipWmfPath1)" style="fill:#ffffff;fill-rule:nonzero;fill-opacity:1;stroke:none;"/>
  <path id="path170" d="  M 113.06857,43.199391   L 113.06857,44.266043   L 131.33555,44.266043   L 132.20223,44.332709   L 132.86891,44.666037   L 133.26891,45.132698   L 133.40225,45.666023   L 133.40225,54.532565   L 133.26891,55.065891   L 132.93557,55.39922   L 132.20223,55.732548   L 131.33555,55.799214   L 113.13524,55.799214   L 112.26856,55.732548   L 111.60188,55.39922   L 111.20187,54.999225   L 111.06854,54.399234   L 111.06854,45.666023   L 111.20187,45.132698   L 111.66855,44.666037   L 112.26856,44.332709   L 113.13524,44.266043   L 131.33555,44.266043   L 132.2689,44.399375   L 132.40223,43.332723   L 131.46888,43.199391   L 113.00191,43.199391   L 112.00189,43.399389   L 111.00187,43.866049   L 110.26853,44.599372   L 110.00185,45.532692   L 110.00185,54.532565   L 110.26853,55.532551   L 111.06854,56.199208   L 112.00189,56.665868   L 113.00191,56.865866   L 131.46888,56.865866   L 132.4689,56.665868   L 133.46892,56.33254   L 134.20226,55.599217   L 134.46893,54.665897   L 134.46893,45.532692   L 134.20226,44.599372   L 133.53558,43.866049   L 132.4689,43.399389   L 131.46888,43.199391   L 113.06857,43.199391  z " clip-path="url(#clipWmfPath1)" style="fill:#000000;fill-rule:nonzero;fill-opacity:1;stroke:#000000;stroke-width:0.066667788px;stroke-linecap:round;stroke-linejoin:round;stroke-miterlimit:4;stroke-dasharray:none;stroke-opacity:1;"/>
  <g id="g172" clip-path="url(#clipWmfPath1)"/>
  <g id="g184" clip-path="url(#clipWmfPath1)">
    <text id="text182" y="0.000000" x="0.000000" transform="matrix(1.000000,-0.000000,0.000000,1.000000,112.735234,54.999225)" style="font-size:10.687500px;font-style:normal;font-variant:normal;font-weight:400;font-stretch:Condensed;line-height:125.000000%;letter-spacing:0px;word-spacing:0px;fill:#000000;fill-opacity:1;stroke:none;font-family:Helvetica-Narrow;text-align:start;text-anchor:start;" xml:space="preserve"><tspan id="tspan180" y="0.000000" x="0.000000"><tspan id="tspan174" style="fill:#000000;font-size:10.687500px;font-style:normal;font-variant:normal;font-weight:400;font-stretch:Condensed;font-family:Helvetica-Narrow;" dy="0.000000" dx="0.000000">N</tspan><tspan id="tspan176" style="fill:#000000;font-size:10.687500px;font-style:normal;font-variant:normal;font-weight:400;font-stretch:Condensed;font-family:Helvetica-Narrow;" dy="0.000000" dx="-0.050027">P</tspan><tspan id="tspan178" style="fill:#000000;font-size:10.687500px;font-style:normal;font-variant:normal;font-weight:400;font-stretch:Condensed;font-family:Helvetica-Narrow;" dy="0.000000" dx="-0.102432">U</tspan></tspan></text>
  </g>
</svg>