<?xml version="1.0" encoding="UTF-8" standalone="no"?>
<svg
   xmlns:dc="http://purl.org/dc/elements/1.1/"
   xmlns:cc="http://creativecommons.org/ns#"
   xmlns:rdf="http://www.w3.org/1999/02/22-rdf-syntax-ns#"
   xmlns:svg="http://www.w3.org/2000/svg"
   xmlns="http://www.w3.org/2000/svg"
   id="svg442"
   height="129.94mm"
   width="115.65mm"
   version="1.0">
  <metadata
     id="metadata446">
    <rdf:RDF>
      <cc:Work
         rdf:about="">
        <dc:format>image/svg+xml</dc:format>
        <dc:type
           rdf:resource="http://purl.org/dc/dcmitype/StillImage" />
      </cc:Work>
    </rdf:RDF>
  </metadata>
  <defs
     id="defs6">
    <clipPath
       id="clipWmfPath1"
       clipPathUnits="userSpaceOnUse">
      <path
         id="path2"
         d="M 0,0 L 436.9979,0 L 436.9979,491.00735 L 0,491.00735 z" />
    </clipPath>
    <pattern
       y="0"
       x="0"
       height="6"
       width="6"
       patternUnits="userSpaceOnUse"
       id="WMFhbasepattern" />
  </defs>
  <path
     id="path8"
     d="  M 364.99825,452.94011   L 364.99825,452.54011   L 19.199908,452.54011   L 19.199908,37.200557   L 364.79825,37.200557   L 364.79825,452.54011   L 19.199908,452.54011   L 19.199908,37.000554   L 18.79991,37.000554   L 18.79991,452.94011   L 365.19825,452.94011   L 365.19825,36.800551   L 18.79991,36.800551   L 18.79991,452.94011   L 364.99825,452.94011  z "
     clip-path="url(#clipWmfPath1)"
     style="fill:#000000;fill-rule:nonzero;fill-opacity:1;stroke:#000000;stroke-width:0.06666635px;stroke-linecap:round;stroke-linejoin:round;stroke-miterlimit:4;stroke-dasharray:none;stroke-opacity:1;" />
  <path
     id="path10"
     d="  M 221.59894,266.67066   L 220.79894,268.93736   L 219.93228,271.7374   L 217.99895,275.13745   L 215.99896,278.07083   L 213.26564,281.27088   L 210.26566,283.93758   L 207.06567,286.13762   L 203.59902,287.87097   L 199.99904,289.20433   L 196.19906,290.13768   L 192.26574,290.60435   L 188.1991,290.80435   L 184.33245,290.53768   L 180.53247,289.871   L 176.86582,288.73765   L 173.39917,287.2043   L 170.06585,285.27094   L 166.93253,283.00424   L 163.99921,280.33753   L 161.26589,277.40415   L 158.79924,274.13744   L 156.59925,270.60405   L 154.66592,266.80399   L 153.06593,262.80393   L 151.79927,258.60387   L 150.86594,254.2038   L 150.26594,249.6704   L 150.06595,245.00367   L 150.26594,240.27026   L 150.86594,235.67019   L 151.79927,231.27013   L 153.06593,227.07006   L 154.66592,223.00334   L 156.59925,219.20328   L 158.79924,215.66989   L 161.26589,212.40318   L 163.99921,209.4698   L 166.93253,206.80309   L 170.06585,204.53639   L 173.39917,202.60303   L 176.86582,201.06968   L 180.53247,199.93633   L 184.33245,199.26965   L 188.1991,199.00298   L 192.19908,199.20298   L 195.99906,199.80299   L 199.66571,200.80301   L 203.13236,202.26969   L 206.39901,204.06972   L 209.53233,206.33642   L 212.46565,209.00313   L 215.19897,212.06984   L 216.86562,214.33654   L 218.66562,217.20325   L 220.13228,220.4033   L 221.19894,223.13667   L 187.46577,223.13667   L 187.46577,266.73733   L 221.59894,266.67066  z "
     clip-path="url(#clipWmfPath1)"
     style="fill:#cccccc;fill-rule:nonzero;fill-opacity:1;stroke:none;" />
  <path
     id="path12"
     d="  M 49.066431,223.33668   L 49.066431,266.53732   L 187.1991,266.53732   L 187.1991,223.33668   L 49.066431,223.33668  z "
     clip-path="url(#clipWmfPath1)"
     style="fill:#cccccc;fill-rule:nonzero;fill-opacity:1;stroke:none;" />
  <path
     id="path14"
     d="  M 208.999,259.60389   L 208.999,246.47036   L 199.13238,246.47036   L 199.13238,259.60389   L 196.13239,259.60389   L 196.13239,232.47015   L 199.13238,232.47015   L 199.13238,243.33697   L 208.999,243.33697   L 208.999,232.47015   L 211.99898,232.47015   L 211.99898,259.60389   L 208.999,259.60389  z "
     clip-path="url(#clipWmfPath1)"
     style="fill:#cccccc;fill-rule:evenodd;fill-opacity:1;stroke:none;" />
  <path
     id="path16"
     d="  M 226.73224,241.87029   L 226.86558,239.07024   L 227.33224,236.53687   L 228.06557,234.2035   L 229.13223,232.07014   L 230.46556,230.27011   L 232.06555,229.00343   L 233.86554,228.20342   L 235.86553,227.93674   L 238.06552,228.20342   L 239.93218,228.93676   L 241.59884,230.13678   L 242.93217,231.67013   L 243.99883,233.73683   L 244.79882,236.13687   L 245.26549,238.80357   L 245.39882,241.87029   L 245.26549,245.07033   L 244.79882,247.87038   L 243.99883,250.33708   L 242.93217,252.40378   L 241.59884,254.07047   L 239.93218,255.20382   L 238.06552,255.80383   L 235.86553,256.00383   L 233.79888,255.80383   L 231.99889,255.13715   L 230.46556,253.93713   L 229.13223,252.20377   L 228.06557,250.07041   L 227.33224,247.67037   L 226.86558,244.937   L 226.73224,241.87029  z    M 229.66556,241.93695   L 229.7989,244.13699   L 230.13223,246.20368   L 230.59889,248.07038   L 231.33222,249.73707   L 232.13222,251.07042   L 233.13221,252.00377   L 234.26554,252.47044   L 235.59887,252.67045   L 237.06553,252.53711   L 238.33219,252.00377   L 239.39885,251.13709   L 240.33218,249.93707   L 241.06551,248.47039   L 241.59884,246.60369   L 241.93217,244.40366   L 242.0655,241.93695   L 241.93217,239.40358   L 241.66551,237.27022   L 241.13217,235.47019   L 240.46551,234.0035   L 239.53218,232.87015   L 238.46552,232.07014   L 237.13219,231.5368   L 235.59887,231.40346   L 234.19887,231.60347   L 233.06555,232.07014   L 232.13222,232.87015   L 231.33222,234.0035   L 230.59889,235.67019   L 230.13223,237.53689   L 229.7989,239.60359   L 229.66556,241.93695  z   "
     clip-path="url(#clipWmfPath1)"
     style="fill:#cccccc;fill-rule:evenodd;fill-opacity:1;stroke:none;" />
  <path
     id="path18"
     d="  M 253.33212,232.40348   L 256.39877,232.40348   L 256.39877,251.00376   L 256.66543,253.27046   L 257.06543,254.2038   L 257.66543,255.00382   L 259.19875,256.2705   L 260.06542,256.53717   L 261.06541,256.67051   L 262.19874,256.60384   L 263.19874,256.2705   L 263.99873,255.80383   L 264.59873,255.07048   L 265.26539,254.27047   L 265.73206,253.27046   L 266.06539,252.13711   L 266.13205,250.80375   L 266.13205,232.40348   L 269.13204,232.40348   L 269.13204,251.20376   L 268.99871,253.27046   L 268.59871,255.00382   L 267.93205,256.4705   L 267.13205,257.67052   L 265.93206,258.73721   L 264.53206,259.47055   L 262.8654,259.87056   L 261.06541,260.00389   L 259.39875,259.87056   L 257.86543,259.47055   L 256.46543,258.73721   L 255.33211,257.67052   L 254.46544,256.53717   L 253.86545,255.07048   L 253.46545,253.27046   L 253.33212,251.20376   L 253.33212,232.40348  z "
     clip-path="url(#clipWmfPath1)"
     style="fill:#cccccc;fill-rule:evenodd;fill-opacity:1;stroke:none;" />
  <path
     id="path20"
     d="  M 280.59865,258.3372   L 281.79865,254.87048   L 283.6653,256.20383   L 285.99863,256.67051   L 287.66528,256.33717   L 288.99861,255.33715   L 289.86527,254.07047   L 290.13194,252.27044   L 289.93194,251.13709   L 289.33194,249.80374   L 288.33195,248.67039   L 286.46529,247.27037   L 284.59863,246.20368   L 283.4653,245.53701   L 282.53198,244.87033   L 281.86531,244.07032   L 281.39865,243.20364   L 280.66532,241.13694   L 280.46532,238.73691   L 280.59865,237.40355   L 280.86532,236.0702   L 281.46531,234.87018   L 282.26531,233.8035   L 284.2653,232.27014   L 285.4653,231.80347   L 286.79862,231.67013   L 289.99861,232.07014   L 291.1986,232.53681   L 292.06526,233.13682   L 291.06527,236.2702   L 289.13194,235.33686   L 286.79862,234.87018   L 285.4653,235.13685   L 284.53197,235.93686   L 283.99864,236.53687   L 283.6653,237.20355   L 283.4653,238.73691   L 283.6653,240.67027   L 284.19863,241.47028   L 284.79863,242.00362   L 285.59863,242.80363   L 287.13195,243.87032   L 288.79861,245.00367   L 290.7986,246.40369   L 292.1986,248.13705   L 292.86526,250.13708   L 293.06526,252.67045   L 292.93193,254.13714   L 292.59859,255.47049   L 291.93193,256.73718   L 291.06527,257.80386   L 289.93194,258.80387   L 288.66528,259.47055   L 287.19862,259.87056   L 285.59863,260.00389   L 284.13197,259.93722   L 282.79864,259.67055   L 281.59865,259.13721   L 280.59865,258.3372  z "
     clip-path="url(#clipWmfPath1)"
     style="fill:#cccccc;fill-rule:evenodd;fill-opacity:1;stroke:none;" />
  <path
     id="path22"
     d="  M 307.59852,235.80353   L 307.59852,243.20364   L 314.79849,243.20364   L 314.79849,246.47036   L 307.59852,246.47036   L 307.59852,256.20383   L 317.79847,256.20383   L 317.79847,259.60389   L 304.53187,259.60389   L 304.53187,232.40348   L 317.79847,232.40348   L 317.79847,235.80353   L 307.59852,235.80353  z "
     clip-path="url(#clipWmfPath1)"
     style="fill:#cccccc;fill-rule:evenodd;fill-opacity:1;stroke:none;" />
  <path
     id="path24"
     d="  M 332.46507,236.13687   L 332.33174,235.73686   L 330.73174,236.0702   L 329.26508,235.80353   L 328.06509,234.80351   L 327.26509,233.33683   L 326.99843,231.47013   L 327.26509,229.60344   L 328.06509,228.07008   L 329.26508,227.0034   L 330.73174,226.67006   L 332.33174,227.0034   L 333.5984,228.07008   L 334.46506,229.60344   L 334.73173,231.47013   L 334.46506,233.33683   L 333.5984,234.80351   L 332.33174,235.80353   L 330.73174,236.0702   L 329.26508,235.73686   L 329.13175,236.13687   L 330.73174,236.47021   L 332.46507,236.0702   L 333.86506,235.07018   L 334.73173,233.47016   L 335.13172,231.47013   L 334.73173,229.4701   L 333.86506,227.80341   L 332.46507,226.73673   L 330.73174,226.27005   L 329.13175,226.73673   L 327.79843,227.80341   L 326.99843,229.4701   L 326.59843,231.47013   L 326.99843,233.47016   L 327.79843,235.07018   L 329.13175,236.0702   L 330.73174,236.47021   L 332.46507,236.13687  z "
     clip-path="url(#clipWmfPath1)"
     style="fill:#c0c0c0;fill-rule:nonzero;fill-opacity:1;stroke:#c0c0c0;stroke-width:0.06666635px;stroke-linecap:round;stroke-linejoin:round;stroke-miterlimit:4;stroke-dasharray:none;stroke-opacity:1;" />
  <path
     id="path26"
     d="  M 332.3984,235.33686   L 330.73174,232.07014   L 329.79842,232.07014   L 329.79842,235.33686   L 329.13175,235.33686   L 329.13175,227.80341   L 329.66508,227.80341   L 330.53175,227.73674   L 331.53174,227.87008   L 332.26507,228.33675   L 332.73173,229.00343   L 332.86507,229.87011   L 332.73173,230.60345   L 332.3984,231.27013   L 331.66507,232.00347   L 333.3984,235.33686   L 332.3984,235.33686  z    M 329.79842,228.73676   L 329.79842,231.27013   L 330.39841,231.27013   L 331.13174,231.20346   L 331.66507,230.73679   L 331.99841,230.40345   L 332.06507,229.80344   L 331.99841,229.40343   L 331.66507,229.07009   L 331.06508,228.73676   L 330.26508,228.67009   L 329.79842,228.73676  z   "
     clip-path="url(#clipWmfPath1)"
     style="fill:#cccccc;fill-rule:evenodd;fill-opacity:1;stroke:none;" />
  <path
     id="path28"
     d="  M 122.39941,233.13682   L 121.26608,236.33687   L 119.39943,235.40352   L 118.13277,235.13685   L 116.73277,235.07018   L 115.33278,235.27019   L 114.06612,235.8702   L 112.93279,236.80354   L 111.9328,238.20356   L 111.19947,239.87026   L 110.66614,241.73695   L 110.39947,243.80365   L 110.26614,246.13702   L 110.39947,248.40372   L 110.66614,250.40375   L 111.19947,252.20377   L 111.9328,253.73713   L 112.93279,255.00382   L 114.06612,255.93716   L 115.33278,256.4705   L 116.73277,256.67051   L 118.19943,256.4705   L 119.46609,256.00383   L 120.66609,255.13715   L 121.66608,253.93713   L 123.33274,256.73718   L 121.93275,258.20386   L 120.33276,259.27055   L 118.4661,259.80389   L 116.39944,260.00389   L 114.33278,259.80389   L 112.39946,259.13721   L 110.7328,257.93719   L 109.33281,256.20383   L 108.33281,254.13714   L 107.53282,251.7371   L 107.06615,249.00373   L 106.93282,246.00368   L 107.13282,243.0703   L 107.66615,240.4036   L 108.46615,237.93689   L 109.46614,235.80353   L 110.99947,234.07017   L 112.66613,232.80348   L 114.53278,232.07014   L 116.59944,231.80347   L 118.33276,231.87014   L 119.86609,232.13681   L 121.19942,232.53681   L 122.39941,233.13682  z "
     clip-path="url(#clipWmfPath1)"
     style="fill:#ffffff;fill-rule:evenodd;fill-opacity:1;stroke:none;" />
  <path
     id="path30"
     d="  M 142.86598,263.73728   L 136.73268,252.20377   L 133.46603,252.07044   L 133.46603,263.73728   L 130.66604,263.73728   L 130.66604,236.93688   L 132.79936,236.80354   L 135.99935,236.2702   L 137.866,236.40354   L 139.53266,236.80354   L 140.86599,237.40355   L 141.99932,238.3369   L 142.86598,239.47025   L 143.53264,240.8036   L 143.86598,242.4703   L 143.99931,244.33699   L 143.73264,246.73703   L 142.86598,248.87039   L 141.33265,250.53708   L 139.79933,251.47043   L 146.1993,263.73728   L 142.86598,263.73728  z    M 134.13269,240.4036   L 134.13269,249.4704   L 136.13268,249.60374   L 138.466,249.40373   L 139.39933,249.07039   L 140.06599,248.47039   L 140.66599,247.87038   L 141.13266,247.07036   L 141.39932,244.67033   L 141.33265,243.60365   L 141.06599,242.6703   L 140.66599,242.00362   L 140.06599,241.47028   L 139.33266,240.93694   L 138.39934,240.53693   L 135.73268,240.20359   L 134.13269,240.4036  z   "
     clip-path="url(#clipWmfPath1)"
     style="fill:#ffffff;fill-rule:evenodd;fill-opacity:1;stroke:none;" />
  <path
     id="path32"
     d="  M 157.59924,247.47037   L 157.73258,244.60366   L 158.19924,242.00362   L 158.93257,239.60359   L 159.99923,237.53689   L 161.39922,235.80353   L 162.93255,234.60351   L 164.66588,233.93683   L 166.5992,233.67016   L 168.86586,233.87017   L 170.79918,234.53684   L 172.39917,235.60353   L 173.79917,237.20355   L 174.93249,239.27025   L 175.73249,241.67028   L 176.19915,244.40366   L 176.33249,247.47037   L 176.19915,250.60375   L 175.73249,253.33712   L 174.93249,255.73716   L 173.79917,257.87053   L 172.39917,259.60389   L 170.79918,260.8039   L 168.86586,261.47058   L 166.5992,261.73725   L 164.66588,261.47058   L 162.93255,260.73724   L 161.33256,259.53722   L 159.99923,257.80386   L 158.93257,255.60383   L 158.19924,253.20379   L 157.73258,250.47042   L 157.59924,247.47037  z    M 160.93256,247.60371   L 160.99923,249.80374   L 161.26589,251.87044   L 161.73256,253.67046   L 162.39922,255.27049   L 163.19922,256.67051   L 164.19921,257.67052   L 165.33254,258.20386   L 166.66587,258.40387   L 168.06586,258.20386   L 169.39919,257.67052   L 170.46585,256.80384   L 171.33251,255.47049   L 172.06584,254.0038   L 172.66584,252.13711   L 173.06584,250.00374   L 173.19917,247.60371   L 173.06584,245.07033   L 172.79917,242.8703   L 172.26584,241.07027   L 171.53251,239.53692   L 170.66585,238.3369   L 169.53252,237.53689   L 168.19919,237.00355   L 166.66587,236.87021   L 165.26587,237.07021   L 164.13254,237.67022   L 163.13255,238.5369   L 162.33255,239.80359   L 161.73256,241.40361   L 161.26589,243.13697   L 160.99923,245.20367   L 160.93256,247.60371  z   "
     clip-path="url(#clipWmfPath1)"
     style="fill:#ffffff;fill-rule:evenodd;fill-opacity:1;stroke:none;" />
  <path
     id="path34"
     d="  M 78.066292,259.60389   L 75.53297,242.20362   L 70.666327,259.87056   L 69.866331,259.87056   L 64.799689,242.20362   L 62.266368,259.60389   L 59.266382,259.60389   L 63.599694,232.47015   L 64.933021,232.47015   L 70.132996,252.20377   L 75.066306,232.47015   L 76.599632,232.47015   L 80.999611,259.60389   L 78.066292,259.60389  z "
     clip-path="url(#clipWmfPath1)"
     style="fill:#ffffff;fill-rule:evenodd;fill-opacity:1;stroke:none;" />
  <path
     id="path36"
     d="  M 91.932892,259.60389   L 91.932892,232.40348   L 94.999544,232.40348   L 94.999544,259.60389   L 91.932892,259.60389  z "
     clip-path="url(#clipWmfPath1)"
     style="fill:#ffffff;fill-rule:evenodd;fill-opacity:1;stroke:none;" />
  <path
     id="path38"
     d="  M 39.066479,47.000703   L 308.46518,47.000703   L 308.46518,64.80097   L 39.066479,64.80097   L 39.066479,47.000703  z "
     clip-path="url(#clipWmfPath1)"
     style="fill:#808080;fill-rule:nonzero;fill-opacity:1;stroke:none;" />
  <path
     id="path40"
     d="  M 39.066479,47.000703   L 308.46518,47.000703   L 308.46518,64.80097   L 39.066479,64.80097   L 39.066479,47.000703  z "
     clip-path="url(#clipWmfPath1)"
     style="fill:none;stroke:#000000;stroke-width:0.06666635px;stroke-linecap:round;stroke-linejoin:round;stroke-miterlimit:4;stroke-dasharray:none;stroke-opacity:1;" />
  <path
     id="path42"
     d="  M 148.73262,59.200886   L 303.73187,59.200886   L 303.73187,52.600787   L 148.73262,52.600787   L 148.73262,59.200886  z "
     clip-path="url(#clipWmfPath1)"
     style="fill:#ffffff;fill-rule:nonzero;fill-opacity:1;stroke:none;" />
  <path
     id="path44"
     d="  M 148.73262,59.200886   L 303.73187,59.200886   L 303.73187,52.600787   L 148.73262,52.600787   L 148.73262,59.200886  z "
     clip-path="url(#clipWmfPath1)"
     style="fill:none;stroke:#000000;stroke-width:0.06666635px;stroke-linecap:round;stroke-linejoin:round;stroke-miterlimit:4;stroke-dasharray:none;stroke-opacity:1;" />
  <path
     id="path46"
     d="  M 141.26599,59.267554   L 44.066455,59.267554   L 44.066455,52.53412   L 141.26599,52.53412   L 141.26599,59.267554  z "
     clip-path="url(#clipWmfPath1)"
     style="fill:#ffffff;fill-rule:nonzero;fill-opacity:1;stroke:none;" />
  <path
     id="path48"
     d="  M 141.26599,59.267554   L 44.066455,59.267554   L 44.066455,52.53412   L 141.26599,52.53412   L 141.26599,59.267554  z "
     clip-path="url(#clipWmfPath1)"
     style="fill:none;stroke:#000000;stroke-width:0.06666635px;stroke-linecap:round;stroke-linejoin:round;stroke-miterlimit:4;stroke-dasharray:none;stroke-opacity:1;" />
  <path
     id="path50"
     d="  M 39.066479,82.601236   L 308.46518,82.601236   L 308.46518,100.4015   L 39.066479,100.4015   L 39.066479,82.601236  z "
     clip-path="url(#clipWmfPath1)"
     style="fill:#808080;fill-rule:nonzero;fill-opacity:1;stroke:none;" />
  <path
     id="path52"
     d="  M 39.066479,82.601236   L 308.46518,82.601236   L 308.46518,100.4015   L 39.066479,100.4015   L 39.066479,82.601236  z "
     clip-path="url(#clipWmfPath1)"
     style="fill:none;stroke:#000000;stroke-width:0.06666635px;stroke-linecap:round;stroke-linejoin:round;stroke-miterlimit:4;stroke-dasharray:none;stroke-opacity:1;" />
  <path
     id="path54"
     d="  M 148.73262,94.801419   L 303.73187,94.801419   L 303.73187,88.20132   L 148.73262,88.20132   L 148.73262,94.801419  z "
     clip-path="url(#clipWmfPath1)"
     style="fill:#ffffff;fill-rule:nonzero;fill-opacity:1;stroke:none;" />
  <path
     id="path56"
     d="  M 148.73262,94.801419   L 303.73187,94.801419   L 303.73187,88.20132   L 148.73262,88.20132   L 148.73262,94.801419  z "
     clip-path="url(#clipWmfPath1)"
     style="fill:none;stroke:#000000;stroke-width:0.06666635px;stroke-linecap:round;stroke-linejoin:round;stroke-miterlimit:4;stroke-dasharray:none;stroke-opacity:1;" />
  <path
     id="path58"
     d="  M 141.26599,94.868086   L 44.066455,94.868086   L 44.066455,88.134652   L 141.26599,88.134652   L 141.26599,94.868086  z "
     clip-path="url(#clipWmfPath1)"
     style="fill:#ffffff;fill-rule:nonzero;fill-opacity:1;stroke:none;" />
  <path
     id="path60"
     d="  M 141.26599,94.868086   L 44.066455,94.868086   L 44.066455,88.134652   L 141.26599,88.134652   L 141.26599,94.868086  z "
     clip-path="url(#clipWmfPath1)"
     style="fill:none;stroke:#000000;stroke-width:0.06666635px;stroke-linecap:round;stroke-linejoin:round;stroke-miterlimit:4;stroke-dasharray:none;stroke-opacity:1;" />
  <path
     id="path62"
     d="  M 83.999596,238.3369   L 224.79892,238.3369   L 224.79892,224.00335   L 83.999596,224.00335   L 83.999596,238.3369  z "
     clip-path="url(#clipWmfPath1)"
     style="fill:#808080;fill-rule:nonzero;fill-opacity:1;stroke:none;" />
  <path
     id="path64"
     d="  M 83.999596,238.3369   L 224.79892,238.3369   L 224.79892,224.00335   L 83.999596,224.00335   L 83.999596,238.3369  z "
     clip-path="url(#clipWmfPath1)"
     style="fill:none;stroke:#000000;stroke-width:0.06666635px;stroke-linecap:round;stroke-linejoin:round;stroke-miterlimit:4;stroke-dasharray:none;stroke-opacity:1;" />
  <path
     id="path66"
     d="  M 123.13274,228.47009   L 220.06561,228.47009   L 220.06561,233.87017   L 123.13274,233.87017   L 123.13274,228.47009  z "
     clip-path="url(#clipWmfPath1)"
     style="fill:#ffffff;fill-rule:nonzero;fill-opacity:1;stroke:none;" />
  <path
     id="path68"
     d="  M 123.13274,228.47009   L 220.06561,228.47009   L 220.06561,233.87017   L 123.13274,233.87017   L 123.13274,228.47009  z "
     clip-path="url(#clipWmfPath1)"
     style="fill:none;stroke:#000000;stroke-width:0.06666635px;stroke-linecap:round;stroke-linejoin:round;stroke-miterlimit:4;stroke-dasharray:none;stroke-opacity:1;" />
  <path
     id="path70"
     d="  M 116.46611,228.47009   L 88.999572,228.47009   L 88.999572,233.87017   L 116.46611,233.87017   L 116.46611,228.47009  z "
     clip-path="url(#clipWmfPath1)"
     style="fill:#ffffff;fill-rule:nonzero;fill-opacity:1;stroke:none;" />
  <path
     id="path72"
     d="  M 116.46611,228.47009   L 88.999572,228.47009   L 88.999572,233.87017   L 116.46611,233.87017   L 116.46611,228.47009  z "
     clip-path="url(#clipWmfPath1)"
     style="fill:none;stroke:#000000;stroke-width:0.06666635px;stroke-linecap:round;stroke-linejoin:round;stroke-miterlimit:4;stroke-dasharray:none;stroke-opacity:1;" />
  <path
     id="path74"
     d="  M 164.26588,237.80356   L 165.26587,237.67022   L 166.06587,237.20355   L 166.66587,236.53687   L 166.86587,235.80353   L 166.86587,226.33672   L 166.66587,225.60338   L 166.06587,225.07003   L 165.26587,224.67003   L 164.26588,224.53669   L 144.53264,224.53669   L 143.53264,224.67003   L 142.73265,225.07003   L 142.13265,225.67004   L 141.93265,226.40339   L 141.93265,235.80353   L 142.13265,236.53687   L 142.73265,237.20355   L 143.53264,237.67022   L 144.53264,237.80356   L 164.26588,237.80356  z "
     clip-path="url(#clipWmfPath1)"
     style="fill:#ffffff;fill-rule:nonzero;fill-opacity:1;stroke:none;" />
  <path
     id="path76"
     d="  M 144.53264,237.27022   L 144.53264,238.3369   L 164.33254,238.3369   L 165.46587,238.1369   L 166.3992,237.60356   L 167.13253,236.80354   L 167.3992,235.8702   L 167.3992,226.27005   L 167.13253,225.33671   L 166.33253,224.67003   L 165.39921,224.20336   L 164.33254,224.00335   L 144.46597,224.00335   L 143.39931,224.20336   L 142.39932,224.67003   L 141.66599,225.40337   L 141.39932,226.33672   L 141.39932,235.8702   L 141.66599,236.80354   L 142.39932,237.60356   L 143.33264,238.1369   L 144.46597,238.3369   L 164.33254,238.3369   L 165.33254,238.20356   L 165.19921,237.13688   L 164.19921,237.27022   L 144.59931,237.27022   L 143.73264,237.20355   L 143.06598,236.80354   L 142.59931,236.2702   L 142.46598,235.73686   L 142.46598,226.47006   L 142.59931,225.93671   L 143.06598,225.47004   L 143.66598,225.1367   L 144.59931,225.07003   L 164.19921,225.07003   L 165.13254,225.1367   L 165.7992,225.47004   L 166.1992,225.87005   L 166.33253,226.40339   L 166.33253,235.73686   L 166.1992,236.2702   L 165.73254,236.80354   L 165.06587,237.20355   L 164.19921,237.27022   L 144.53264,237.27022  z "
     clip-path="url(#clipWmfPath1)"
     style="fill:#000000;fill-rule:nonzero;fill-opacity:1;stroke:#000000;stroke-width:0.06666635px;stroke-linecap:round;stroke-linejoin:round;stroke-miterlimit:4;stroke-dasharray:none;stroke-opacity:1;" />
  <path
     id="path78"
     d="  M 83.999596,202.80304   L 224.79892,202.80304   L 224.79892,188.46949   L 83.999596,188.46949   L 83.999596,202.80304  z "
     clip-path="url(#clipWmfPath1)"
     style="fill:#808080;fill-rule:nonzero;fill-opacity:1;stroke:none;" />
  <path
     id="path80"
     d="  M 83.999596,202.80304   L 224.79892,202.80304   L 224.79892,188.46949   L 83.999596,188.46949   L 83.999596,202.80304  z "
     clip-path="url(#clipWmfPath1)"
     style="fill:none;stroke:#000000;stroke-width:0.06666635px;stroke-linecap:round;stroke-linejoin:round;stroke-miterlimit:4;stroke-dasharray:none;stroke-opacity:1;" />
  <path
     id="path82"
     d="  M 123.13274,192.93622   L 220.06561,192.93622   L 220.06561,198.3363   L 123.13274,198.3363   L 123.13274,192.93622  z "
     clip-path="url(#clipWmfPath1)"
     style="fill:#ffffff;fill-rule:nonzero;fill-opacity:1;stroke:none;" />
  <path
     id="path84"
     d="  M 123.13274,192.93622   L 220.06561,192.93622   L 220.06561,198.3363   L 123.13274,198.3363   L 123.13274,192.93622  z "
     clip-path="url(#clipWmfPath1)"
     style="fill:none;stroke:#000000;stroke-width:0.06666635px;stroke-linecap:round;stroke-linejoin:round;stroke-miterlimit:4;stroke-dasharray:none;stroke-opacity:1;" />
  <path
     id="path86"
     d="  M 116.46611,192.93622   L 88.999572,192.93622   L 88.999572,198.3363   L 116.46611,198.3363   L 116.46611,192.93622  z "
     clip-path="url(#clipWmfPath1)"
     style="fill:#ffffff;fill-rule:nonzero;fill-opacity:1;stroke:none;" />
  <path
     id="path88"
     d="  M 116.46611,192.93622   L 88.999572,192.93622   L 88.999572,198.3363   L 116.46611,198.3363   L 116.46611,192.93622  z "
     clip-path="url(#clipWmfPath1)"
     style="fill:none;stroke:#000000;stroke-width:0.06666635px;stroke-linecap:round;stroke-linejoin:round;stroke-miterlimit:4;stroke-dasharray:none;stroke-opacity:1;" />
  <path
     id="path90"
     d="  M 164.26588,202.26969   L 165.26587,202.13636   L 166.06587,201.66968   L 166.66587,201.00301   L 166.86587,200.26966   L 166.86587,190.80286   L 166.66587,190.06951   L 166.06587,189.53617   L 165.26587,189.13616   L 164.26588,189.00283   L 144.53264,189.00283   L 143.53264,189.13616   L 142.73265,189.53617   L 142.13265,190.13618   L 141.93265,190.86952   L 141.93265,200.26966   L 142.13265,201.00301   L 142.73265,201.66968   L 143.53264,202.13636   L 144.53264,202.26969   L 164.26588,202.26969  z "
     clip-path="url(#clipWmfPath1)"
     style="fill:#ffffff;fill-rule:nonzero;fill-opacity:1;stroke:none;" />
  <path
     id="path92"
     d="  M 144.53264,201.73635   L 144.53264,202.80304   L 164.33254,202.80304   L 165.46587,202.60303   L 166.3992,202.06969   L 167.13253,201.26968   L 167.3992,200.33633   L 167.3992,190.73619   L 167.13253,189.80284   L 166.33253,189.13616   L 165.39921,188.66949   L 164.33254,188.46949   L 144.46597,188.46949   L 143.39931,188.66949   L 142.39932,189.13616   L 141.66599,189.86951   L 141.39932,190.80286   L 141.39932,200.33633   L 141.66599,201.26968   L 142.39932,202.06969   L 143.33264,202.60303   L 144.46597,202.80304   L 164.33254,202.80304   L 165.33254,202.6697   L 165.19921,201.60302   L 164.19921,201.73635   L 144.59931,201.73635   L 143.73264,201.66968   L 143.06598,201.26968   L 142.59931,200.73634   L 142.46598,200.203   L 142.46598,190.93619   L 142.59931,190.40285   L 143.06598,189.93618   L 143.66598,189.60284   L 144.59931,189.53617   L 164.19921,189.53617   L 165.13254,189.60284   L 165.7992,189.93618   L 166.1992,190.33618   L 166.33253,190.86952   L 166.33253,200.203   L 166.1992,200.73634   L 165.73254,201.26968   L 165.06587,201.66968   L 164.19921,201.73635   L 144.53264,201.73635  z "
     clip-path="url(#clipWmfPath1)"
     style="fill:#000000;fill-rule:nonzero;fill-opacity:1;stroke:#000000;stroke-width:0.06666635px;stroke-linecap:round;stroke-linejoin:round;stroke-miterlimit:4;stroke-dasharray:none;stroke-opacity:1;" />
  <path
     id="path94"
     d="  M 83.999596,166.93583   L 224.79892,166.93583   L 224.79892,152.60228   L 83.999596,152.60228   L 83.999596,166.93583  z "
     clip-path="url(#clipWmfPath1)"
     style="fill:#808080;fill-rule:nonzero;fill-opacity:1;stroke:none;" />
  <path
     id="path96"
     d="  M 83.999596,166.93583   L 224.79892,166.93583   L 224.79892,152.60228   L 83.999596,152.60228   L 83.999596,166.93583  z "
     clip-path="url(#clipWmfPath1)"
     style="fill:none;stroke:#000000;stroke-width:0.06666635px;stroke-linecap:round;stroke-linejoin:round;stroke-miterlimit:4;stroke-dasharray:none;stroke-opacity:1;" />
  <path
     id="path98"
     d="  M 123.13274,157.06902   L 220.06561,157.06902   L 220.06561,162.4691   L 123.13274,162.4691   L 123.13274,157.06902  z "
     clip-path="url(#clipWmfPath1)"
     style="fill:#ffffff;fill-rule:nonzero;fill-opacity:1;stroke:none;" />
  <path
     id="path100"
     d="  M 123.13274,157.06902   L 220.06561,157.06902   L 220.06561,162.4691   L 123.13274,162.4691   L 123.13274,157.06902  z "
     clip-path="url(#clipWmfPath1)"
     style="fill:none;stroke:#000000;stroke-width:0.06666635px;stroke-linecap:round;stroke-linejoin:round;stroke-miterlimit:4;stroke-dasharray:none;stroke-opacity:1;" />
  <path
     id="path102"
     d="  M 116.46611,157.06902   L 88.999572,157.06902   L 88.999572,162.4691   L 116.46611,162.4691   L 116.46611,157.06902  z "
     clip-path="url(#clipWmfPath1)"
     style="fill:#ffffff;fill-rule:nonzero;fill-opacity:1;stroke:none;" />
  <path
     id="path104"
     d="  M 116.46611,157.06902   L 88.999572,157.06902   L 88.999572,162.4691   L 116.46611,162.4691   L 116.46611,157.06902  z "
     clip-path="url(#clipWmfPath1)"
     style="fill:none;stroke:#000000;stroke-width:0.06666635px;stroke-linecap:round;stroke-linejoin:round;stroke-miterlimit:4;stroke-dasharray:none;stroke-opacity:1;" />
  <path
     id="path106"
     d="  M 164.26588,166.40249   L 165.26587,166.26915   L 166.06587,165.80248   L 166.66587,165.1358   L 166.86587,164.40246   L 166.86587,154.93565   L 166.66587,154.20231   L 166.06587,153.66897   L 165.26587,153.26896   L 164.26588,153.13563   L 144.53264,153.13563   L 143.53264,153.26896   L 142.73265,153.66897   L 142.13265,154.26898   L 141.93265,155.00232   L 141.93265,164.40246   L 142.13265,165.1358   L 142.73265,165.80248   L 143.53264,166.26915   L 144.53264,166.40249   L 164.26588,166.40249  z "
     clip-path="url(#clipWmfPath1)"
     style="fill:#ffffff;fill-rule:nonzero;fill-opacity:1;stroke:none;" />
  <path
     id="path108"
     d="  M 144.53264,165.86915   L 144.53264,166.93583   L 164.33254,166.93583   L 165.46587,166.73583   L 166.3992,166.20249   L 167.13253,165.40248   L 167.3992,164.46913   L 167.3992,154.86898   L 167.13253,153.93564   L 166.33253,153.26896   L 165.39921,152.80229   L 164.33254,152.60228   L 144.46597,152.60228   L 143.39931,152.80229   L 142.39932,153.26896   L 141.66599,154.0023   L 141.39932,154.93565   L 141.39932,164.46913   L 141.66599,165.40248   L 142.39932,166.20249   L 143.33264,166.73583   L 144.46597,166.93583   L 164.33254,166.93583   L 165.33254,166.8025   L 165.19921,165.73581   L 164.19921,165.86915   L 144.59931,165.86915   L 143.73264,165.80248   L 143.06598,165.40248   L 142.59931,164.86913   L 142.46598,164.33579   L 142.46598,155.06899   L 142.59931,154.53565   L 143.06598,154.06897   L 143.66598,153.73563   L 144.59931,153.66897   L 164.19921,153.66897   L 165.13254,153.73563   L 165.7992,154.06897   L 166.1992,154.46898   L 166.33253,155.00232   L 166.33253,164.33579   L 166.1992,164.86913   L 165.73254,165.40248   L 165.06587,165.80248   L 164.19921,165.86915   L 144.53264,165.86915  z "
     clip-path="url(#clipWmfPath1)"
     style="fill:#000000;fill-rule:nonzero;fill-opacity:1;stroke:#000000;stroke-width:0.06666635px;stroke-linecap:round;stroke-linejoin:round;stroke-miterlimit:4;stroke-dasharray:none;stroke-opacity:1;" />
  <path
     id="path110"
     d="  M 83.999596,131.40197   L 224.79892,131.40197   L 224.79892,117.06842   L 83.999596,117.06842   L 83.999596,131.40197  z "
     clip-path="url(#clipWmfPath1)"
     style="fill:#808080;fill-rule:nonzero;fill-opacity:1;stroke:none;" />
  <path
     id="path112"
     d="  M 83.999596,131.40197   L 224.79892,131.40197   L 224.79892,117.06842   L 83.999596,117.06842   L 83.999596,131.40197  z "
     clip-path="url(#clipWmfPath1)"
     style="fill:none;stroke:#000000;stroke-width:0.06666635px;stroke-linecap:round;stroke-linejoin:round;stroke-miterlimit:4;stroke-dasharray:none;stroke-opacity:1;" />
  <path
     id="path114"
     d="  M 123.13274,121.53515   L 220.06561,121.53515   L 220.06561,126.93523   L 123.13274,126.93523   L 123.13274,121.53515  z "
     clip-path="url(#clipWmfPath1)"
     style="fill:#ffffff;fill-rule:nonzero;fill-opacity:1;stroke:none;" />
  <path
     id="path116"
     d="  M 123.13274,121.53515   L 220.06561,121.53515   L 220.06561,126.93523   L 123.13274,126.93523   L 123.13274,121.53515  z "
     clip-path="url(#clipWmfPath1)"
     style="fill:none;stroke:#000000;stroke-width:0.06666635px;stroke-linecap:round;stroke-linejoin:round;stroke-miterlimit:4;stroke-dasharray:none;stroke-opacity:1;" />
  <path
     id="path118"
     d="  M 116.46611,121.53515   L 88.999572,121.53515   L 88.999572,126.93523   L 116.46611,126.93523   L 116.46611,121.53515  z "
     clip-path="url(#clipWmfPath1)"
     style="fill:#ffffff;fill-rule:nonzero;fill-opacity:1;stroke:none;" />
  <path
     id="path120"
     d="  M 116.46611,121.53515   L 88.999572,121.53515   L 88.999572,126.93523   L 116.46611,126.93523   L 116.46611,121.53515  z "
     clip-path="url(#clipWmfPath1)"
     style="fill:none;stroke:#000000;stroke-width:0.06666635px;stroke-linecap:round;stroke-linejoin:round;stroke-miterlimit:4;stroke-dasharray:none;stroke-opacity:1;" />
  <path
     id="path122"
     d="  M 164.26588,130.86863   L 165.26587,130.73529   L 166.06587,130.26862   L 166.66587,129.60194   L 166.86587,128.8686   L 166.86587,119.40179   L 166.66587,118.66844   L 166.06587,118.1351   L 165.26587,117.7351   L 164.26588,117.60176   L 144.53264,117.60176   L 143.53264,117.7351   L 142.73265,118.1351   L 142.13265,118.73511   L 141.93265,119.46845   L 141.93265,128.8686   L 142.13265,129.60194   L 142.73265,130.26862   L 143.53264,130.73529   L 144.53264,130.86863   L 164.26588,130.86863  z "
     clip-path="url(#clipWmfPath1)"
     style="fill:#ffffff;fill-rule:nonzero;fill-opacity:1;stroke:none;" />
  <path
     id="path124"
     d="  M 144.53264,130.33528   L 144.53264,131.40197   L 164.33254,131.40197   L 165.46587,131.20196   L 166.3992,130.66862   L 167.13253,129.86861   L 167.3992,128.93526   L 167.3992,119.33512   L 167.13253,118.40177   L 166.33253,117.7351   L 165.39921,117.26842   L 164.33254,117.06842   L 144.46597,117.06842   L 143.39931,117.26842   L 142.39932,117.7351   L 141.66599,118.46844   L 141.39932,119.40179   L 141.39932,128.93526   L 141.66599,129.86861   L 142.39932,130.66862   L 143.33264,131.20196   L 144.46597,131.40197   L 164.33254,131.40197   L 165.33254,131.26863   L 165.19921,130.20195   L 164.19921,130.33528   L 144.59931,130.33528   L 143.73264,130.26862   L 143.06598,129.86861   L 142.59931,129.33527   L 142.46598,128.80193   L 142.46598,119.53512   L 142.59931,119.00178   L 143.06598,118.53511   L 143.66598,118.20177   L 144.59931,118.1351   L 164.19921,118.1351   L 165.13254,118.20177   L 165.7992,118.53511   L 166.1992,118.93511   L 166.33253,119.46845   L 166.33253,128.80193   L 166.1992,129.33527   L 165.73254,129.86861   L 165.06587,130.26862   L 164.19921,130.33528   L 144.53264,130.33528  z "
     clip-path="url(#clipWmfPath1)"
     style="fill:#000000;fill-rule:nonzero;fill-opacity:1;stroke:#000000;stroke-width:0.06666635px;stroke-linecap:round;stroke-linejoin:round;stroke-miterlimit:4;stroke-dasharray:none;stroke-opacity:1;" />
  <g
     id="g126"
     clip-path="url(#clipWmfPath1)" />
  <g
     id="g138"
     clip-path="url(#clipWmfPath1)">
    <text
       id="text136"
       y="0.000000"
       x="0.000000"
       transform="matrix(1.000000,-0.000000,0.000000,1.000000,145.265969,128.001916)"
       style="font-size:10.687500px;font-style:normal;font-variant:normal;font-weight:400;font-stretch:Condensed;line-height:125.000000%;letter-spacing:0px;word-spacing:0px;fill:#000000;fill-opacity:1;stroke:none;font-family:Helvetica-Narrow;text-align:start;text-anchor:start;"
       xml:space="preserve"><tspan
         id="tspan134"
         y="0.000000"
         x="0.000000"><tspan
           id="tspan128"
           style="fill:#000000;font-size:10.687500px;font-style:normal;font-variant:normal;font-weight:400;font-stretch:Condensed;font-family:Helvetica-Narrow;"
           dy="0.000000"
           dx="0.000000">P</tspan><tspan
           id="tspan130"
           style="fill:#000000;font-size:10.687500px;font-style:normal;font-variant:normal;font-weight:400;font-stretch:Condensed;font-family:Helvetica-Narrow;"
           dy="0.000000"
           dx="-0.195262">C</tspan><tspan
           id="tspan132"
           style="fill:#000000;font-size:10.687500px;font-style:normal;font-variant:normal;font-weight:400;font-stretch:Condensed;font-family:Helvetica-Narrow;"
           dy="0.000000"
           dx="-0.050189">1</tspan></tspan></text>
  </g>
  <g
     id="g140"
     clip-path="url(#clipWmfPath1)" />
  <g
     id="g152"
     clip-path="url(#clipWmfPath1)">
    <text
       id="text150"
       y="0.000000"
       x="0.000000"
       transform="matrix(1.000000,-0.000000,0.000000,1.000000,145.265969,164.069122)"
       style="font-size:10.687500px;font-style:normal;font-variant:normal;font-weight:400;font-stretch:Condensed;line-height:125.000000%;letter-spacing:0px;word-spacing:0px;fill:#000000;fill-opacity:1;stroke:none;font-family:Helvetica-Narrow;text-align:start;text-anchor:start;"
       xml:space="preserve"><tspan
         id="tspan148"
         y="0.000000"
         x="0.000000"><tspan
           id="tspan142"
           style="fill:#000000;font-size:10.687500px;font-style:normal;font-variant:normal;font-weight:400;font-stretch:Condensed;font-family:Helvetica-Narrow;"
           dy="0.000000"
           dx="0.000000">P</tspan><tspan
           id="tspan144"
           style="fill:#000000;font-size:10.687500px;font-style:normal;font-variant:normal;font-weight:400;font-stretch:Condensed;font-family:Helvetica-Narrow;"
           dy="0.000000"
           dx="-0.102582">C</tspan><tspan
           id="tspan146"
           style="fill:#000000;font-size:10.687500px;font-style:normal;font-variant:normal;font-weight:400;font-stretch:Condensed;font-family:Helvetica-Narrow;"
           dy="0.000000"
           dx="-0.050189">2</tspan></tspan></text>
  </g>
  <g
     id="g154"
     clip-path="url(#clipWmfPath1)" />
  <g
     id="g166"
     clip-path="url(#clipWmfPath1)">
    <text
       id="text164"
       y="0.000000"
       x="0.000000"
       transform="matrix(1.000000,-0.000000,0.000000,1.000000,145.265969,199.469652)"
       style="font-size:10.687500px;font-style:normal;font-variant:normal;font-weight:400;font-stretch:Condensed;line-height:125.000000%;letter-spacing:0px;word-spacing:0px;fill:#000000;fill-opacity:1;stroke:none;font-family:Helvetica-Narrow;text-align:start;text-anchor:start;"
       xml:space="preserve"><tspan
         id="tspan162"
         y="0.000000"
         x="0.000000"><tspan
           id="tspan156"
           style="fill:#000000;font-size:10.687500px;font-style:normal;font-variant:normal;font-weight:400;font-stretch:Condensed;font-family:Helvetica-Narrow;"
           dy="0.000000"
           dx="0.000000">P</tspan><tspan
           id="tspan158"
           style="fill:#000000;font-size:10.687500px;font-style:normal;font-variant:normal;font-weight:400;font-stretch:Condensed;font-family:Helvetica-Narrow;"
           dy="0.000000"
           dx="-0.102582">C</tspan><tspan
           id="tspan160"
           style="fill:#000000;font-size:10.687500px;font-style:normal;font-variant:normal;font-weight:400;font-stretch:Condensed;font-family:Helvetica-Narrow;"
           dy="0.000000"
           dx="-0.050189">3</tspan></tspan></text>
  </g>
  <g
     id="g168"
     clip-path="url(#clipWmfPath1)" />
  <g
     id="g180"
     clip-path="url(#clipWmfPath1)">
    <text
       id="text178"
       y="0.000000"
       x="0.000000"
       transform="matrix(1.000000,-0.000000,0.000000,1.000000,145.265969,235.003517)"
       style="font-size:10.687500px;font-style:normal;font-variant:normal;font-weight:400;font-stretch:Condensed;line-height:125.000000%;letter-spacing:0px;word-spacing:0px;fill:#000000;fill-opacity:1;stroke:none;font-family:Helvetica-Narrow;text-align:start;text-anchor:start;"
       xml:space="preserve"><tspan
         id="tspan176"
         y="0.000000"
         x="0.000000"><tspan
           id="tspan170"
           style="fill:#000000;font-size:10.687500px;font-style:normal;font-variant:normal;font-weight:400;font-stretch:Condensed;font-family:Helvetica-Narrow;"
           dy="0.000000"
           dx="0.000000">P</tspan><tspan
           id="tspan172"
           style="fill:#000000;font-size:10.687500px;font-style:normal;font-variant:normal;font-weight:400;font-stretch:Condensed;font-family:Helvetica-Narrow;"
           dy="0.000000"
           dx="-0.102582">C</tspan><tspan
           id="tspan174"
           style="fill:#000000;font-size:10.687500px;font-style:normal;font-variant:normal;font-weight:400;font-stretch:Condensed;font-family:Helvetica-Narrow;"
           dy="0.000000"
           dx="-0.050189">4</tspan></tspan></text>
  </g>
  <path
     id="path182"
     d="  M 84.999592,328.13824   L 225.79892,328.13824   L 225.79892,342.47179   L 84.999592,342.47179   L 84.999592,328.13824  z "
     clip-path="url(#clipWmfPath1)"
     style="fill:#808080;fill-rule:nonzero;fill-opacity:1;stroke:none;" />
  <path
     id="path184"
     d="  M 84.999592,328.13824   L 225.79892,328.13824   L 225.79892,342.47179   L 84.999592,342.47179   L 84.999592,328.13824  z "
     clip-path="url(#clipWmfPath1)"
     style="fill:none;stroke:#000000;stroke-width:0.06666635px;stroke-linecap:round;stroke-linejoin:round;stroke-miterlimit:4;stroke-dasharray:none;stroke-opacity:1;" />
  <path
     id="path186"
     d="  M 124.13274,338.00506   L 221.0656,338.00506   L 221.0656,332.60498   L 124.13274,332.60498   L 124.13274,338.00506  z "
     clip-path="url(#clipWmfPath1)"
     style="fill:#ffffff;fill-rule:nonzero;fill-opacity:1;stroke:none;" />
  <path
     id="path188"
     d="  M 124.13274,338.00506   L 221.0656,338.00506   L 221.0656,332.60498   L 124.13274,332.60498   L 124.13274,338.00506  z "
     clip-path="url(#clipWmfPath1)"
     style="fill:none;stroke:#000000;stroke-width:0.06666635px;stroke-linecap:round;stroke-linejoin:round;stroke-miterlimit:4;stroke-dasharray:none;stroke-opacity:1;" />
  <path
     id="path190"
     d="  M 117.4661,338.00506   L 89.999568,338.00506   L 89.999568,332.60498   L 117.4661,332.60498   L 117.4661,338.00506  z "
     clip-path="url(#clipWmfPath1)"
     style="fill:#ffffff;fill-rule:nonzero;fill-opacity:1;stroke:none;" />
  <path
     id="path192"
     d="  M 117.4661,338.00506   L 89.999568,338.00506   L 89.999568,332.60498   L 117.4661,332.60498   L 117.4661,338.00506  z "
     clip-path="url(#clipWmfPath1)"
     style="fill:none;stroke:#000000;stroke-width:0.06666635px;stroke-linecap:round;stroke-linejoin:round;stroke-miterlimit:4;stroke-dasharray:none;stroke-opacity:1;" />
  <path
     id="path194"
     d="  M 165.26587,328.67159   L 166.26587,328.80492   L 167.06586,329.27159   L 167.66586,329.93827   L 167.86586,330.67162   L 167.86586,340.13842   L 167.66586,340.87177   L 167.06586,341.47178   L 166.26587,341.80512   L 165.26587,341.93845   L 145.53263,341.93845   L 144.53264,341.80512   L 143.73264,341.40511   L 143.13265,340.8051   L 142.93265,340.07176   L 142.93265,330.67162   L 143.13265,329.93827   L 143.73264,329.27159   L 144.53264,328.80492   L 145.53263,328.67159   L 165.26587,328.67159  z "
     clip-path="url(#clipWmfPath1)"
     style="fill:#ffffff;fill-rule:nonzero;fill-opacity:1;stroke:none;" />
  <path
     id="path196"
     d="  M 145.53263,328.13824   L 145.53263,329.20493   L 165.19921,329.20493   L 166.06587,329.27159   L 166.73253,329.6716   L 167.1992,330.20494   L 167.33253,330.73828   L 167.33253,340.07176   L 167.1992,340.6051   L 166.7992,341.07177   L 166.13254,341.33844   L 165.19921,341.40511   L 145.5993,341.40511   L 144.66597,341.33844   L 144.06597,341.0051   L 143.59931,340.53843   L 143.46598,340.00509   L 143.46598,330.73828   L 143.59931,330.20494   L 144.06597,329.6716   L 144.73264,329.27159   L 145.5993,329.20493   L 165.19921,329.20493   L 166.1992,329.33826   L 166.33253,328.27158   L 165.33254,328.13824   L 145.46597,328.13824   L 144.33264,328.33825   L 143.39931,328.87159   L 142.66598,329.6716   L 142.39932,330.60495   L 142.39932,340.13842   L 142.66598,341.07177   L 143.39931,341.80512   L 144.39931,342.27179   L 145.46597,342.47179   L 165.33254,342.47179   L 166.3992,342.27179   L 167.33253,341.87178   L 168.13253,341.13844   L 168.39919,340.20509   L 168.39919,330.60495   L 168.13253,329.6716   L 167.3992,328.87159   L 166.46587,328.33825   L 165.33254,328.13824   L 145.53263,328.13824  z "
     clip-path="url(#clipWmfPath1)"
     style="fill:#000000;fill-rule:nonzero;fill-opacity:1;stroke:#000000;stroke-width:0.06666635px;stroke-linecap:round;stroke-linejoin:round;stroke-miterlimit:4;stroke-dasharray:none;stroke-opacity:1;" />
  <path
     id="path198"
     d="  M 84.999592,363.67211   L 225.79892,363.67211   L 225.79892,378.00566   L 84.999592,378.00566   L 84.999592,363.67211  z "
     clip-path="url(#clipWmfPath1)"
     style="fill:#808080;fill-rule:nonzero;fill-opacity:1;stroke:none;" />
  <path
     id="path200"
     d="  M 84.999592,363.67211   L 225.79892,363.67211   L 225.79892,378.00566   L 84.999592,378.00566   L 84.999592,363.67211  z "
     clip-path="url(#clipWmfPath1)"
     style="fill:none;stroke:#000000;stroke-width:0.06666635px;stroke-linecap:round;stroke-linejoin:round;stroke-miterlimit:4;stroke-dasharray:none;stroke-opacity:1;" />
  <path
     id="path202"
     d="  M 124.13274,373.53892   L 221.0656,373.53892   L 221.0656,368.13884   L 124.13274,368.13884   L 124.13274,373.53892  z "
     clip-path="url(#clipWmfPath1)"
     style="fill:#ffffff;fill-rule:nonzero;fill-opacity:1;stroke:none;" />
  <path
     id="path204"
     d="  M 124.13274,373.53892   L 221.0656,373.53892   L 221.0656,368.13884   L 124.13274,368.13884   L 124.13274,373.53892  z "
     clip-path="url(#clipWmfPath1)"
     style="fill:none;stroke:#000000;stroke-width:0.06666635px;stroke-linecap:round;stroke-linejoin:round;stroke-miterlimit:4;stroke-dasharray:none;stroke-opacity:1;" />
  <path
     id="path206"
     d="  M 117.4661,373.53892   L 89.999568,373.53892   L 89.999568,368.13884   L 117.4661,368.13884   L 117.4661,373.53892  z "
     clip-path="url(#clipWmfPath1)"
     style="fill:#ffffff;fill-rule:nonzero;fill-opacity:1;stroke:none;" />
  <path
     id="path208"
     d="  M 117.4661,373.53892   L 89.999568,373.53892   L 89.999568,368.13884   L 117.4661,368.13884   L 117.4661,373.53892  z "
     clip-path="url(#clipWmfPath1)"
     style="fill:none;stroke:#000000;stroke-width:0.06666635px;stroke-linecap:round;stroke-linejoin:round;stroke-miterlimit:4;stroke-dasharray:none;stroke-opacity:1;" />
  <path
     id="path210"
     d="  M 165.26587,364.20545   L 166.26587,364.33879   L 167.06586,364.80546   L 167.66586,365.47214   L 167.86586,366.20548   L 167.86586,375.67229   L 167.66586,376.40563   L 167.06586,377.00564   L 166.26587,377.33898   L 165.26587,377.47232   L 145.53263,377.47232   L 144.53264,377.33898   L 143.73264,376.93897   L 143.13265,376.33897   L 142.93265,375.60562   L 142.93265,366.20548   L 143.13265,365.47214   L 143.73264,364.80546   L 144.53264,364.33879   L 145.53263,364.20545   L 165.26587,364.20545  z "
     clip-path="url(#clipWmfPath1)"
     style="fill:#ffffff;fill-rule:nonzero;fill-opacity:1;stroke:none;" />
  <path
     id="path212"
     d="  M 145.53263,363.67211   L 145.53263,364.73879   L 165.19921,364.73879   L 166.06587,364.80546   L 166.73253,365.20547   L 167.1992,365.73881   L 167.33253,366.27215   L 167.33253,375.60562   L 167.1992,376.13896   L 166.7992,376.60564   L 166.13254,376.87231   L 165.19921,376.93897   L 145.5993,376.93897   L 144.66597,376.87231   L 144.06597,376.53897   L 143.59931,376.07229   L 143.46598,375.53895   L 143.46598,366.27215   L 143.59931,365.73881   L 144.06597,365.20547   L 144.73264,364.80546   L 145.5993,364.73879   L 165.19921,364.73879   L 166.1992,364.87213   L 166.33253,363.80544   L 165.33254,363.67211   L 145.46597,363.67211   L 144.33264,363.87211   L 143.39931,364.40545   L 142.66598,365.20547   L 142.39932,366.13881   L 142.39932,375.67229   L 142.66598,376.60564   L 143.39931,377.33898   L 144.39931,377.80565   L 145.46597,378.00566   L 165.33254,378.00566   L 166.3992,377.80565   L 167.33253,377.40565   L 168.13253,376.6723   L 168.39919,375.73896   L 168.39919,366.13881   L 168.13253,365.20547   L 167.3992,364.40545   L 166.46587,363.87211   L 165.33254,363.67211   L 145.53263,363.67211  z "
     clip-path="url(#clipWmfPath1)"
     style="fill:#000000;fill-rule:nonzero;fill-opacity:1;stroke:#000000;stroke-width:0.06666635px;stroke-linecap:round;stroke-linejoin:round;stroke-miterlimit:4;stroke-dasharray:none;stroke-opacity:1;" />
  <path
     id="path214"
     d="  M 84.999592,399.53931   L 225.79892,399.53931   L 225.79892,413.87286   L 84.999592,413.87286   L 84.999592,399.53931  z "
     clip-path="url(#clipWmfPath1)"
     style="fill:#808080;fill-rule:nonzero;fill-opacity:1;stroke:none;" />
  <path
     id="path216"
     d="  M 84.999592,399.53931   L 225.79892,399.53931   L 225.79892,413.87286   L 84.999592,413.87286   L 84.999592,399.53931  z "
     clip-path="url(#clipWmfPath1)"
     style="fill:none;stroke:#000000;stroke-width:0.06666635px;stroke-linecap:round;stroke-linejoin:round;stroke-miterlimit:4;stroke-dasharray:none;stroke-opacity:1;" />
  <path
     id="path218"
     d="  M 124.13274,409.40613   L 221.0656,409.40613   L 221.0656,404.00605   L 124.13274,404.00605   L 124.13274,409.40613  z "
     clip-path="url(#clipWmfPath1)"
     style="fill:#ffffff;fill-rule:nonzero;fill-opacity:1;stroke:none;" />
  <path
     id="path220"
     d="  M 124.13274,409.40613   L 221.0656,409.40613   L 221.0656,404.00605   L 124.13274,404.00605   L 124.13274,409.40613  z "
     clip-path="url(#clipWmfPath1)"
     style="fill:none;stroke:#000000;stroke-width:0.06666635px;stroke-linecap:round;stroke-linejoin:round;stroke-miterlimit:4;stroke-dasharray:none;stroke-opacity:1;" />
  <path
     id="path222"
     d="  M 117.4661,409.40613   L 89.999568,409.40613   L 89.999568,404.00605   L 117.4661,404.00605   L 117.4661,409.40613  z "
     clip-path="url(#clipWmfPath1)"
     style="fill:#ffffff;fill-rule:nonzero;fill-opacity:1;stroke:none;" />
  <path
     id="path224"
     d="  M 117.4661,409.40613   L 89.999568,409.40613   L 89.999568,404.00605   L 117.4661,404.00605   L 117.4661,409.40613  z "
     clip-path="url(#clipWmfPath1)"
     style="fill:none;stroke:#000000;stroke-width:0.06666635px;stroke-linecap:round;stroke-linejoin:round;stroke-miterlimit:4;stroke-dasharray:none;stroke-opacity:1;" />
  <path
     id="path226"
     d="  M 165.26587,400.07265   L 166.26587,400.20599   L 167.06586,400.67266   L 167.66586,401.33934   L 167.86586,402.07268   L 167.86586,411.53949   L 167.66586,412.27284   L 167.06586,412.87285   L 166.26587,413.20618   L 165.26587,413.33952   L 145.53263,413.33952   L 144.53264,413.20618   L 143.73264,412.80618   L 143.13265,412.20617   L 142.93265,411.47282   L 142.93265,402.07268   L 143.13265,401.33934   L 143.73264,400.67266   L 144.53264,400.20599   L 145.53263,400.07265   L 165.26587,400.07265  z "
     clip-path="url(#clipWmfPath1)"
     style="fill:#ffffff;fill-rule:nonzero;fill-opacity:1;stroke:none;" />
  <path
     id="path228"
     d="  M 145.53263,399.53931   L 145.53263,400.606   L 165.19921,400.606   L 166.06587,400.67266   L 166.73253,401.07267   L 167.1992,401.60601   L 167.33253,402.13935   L 167.33253,411.47282   L 167.1992,412.00617   L 166.7992,412.47284   L 166.13254,412.73951   L 165.19921,412.80618   L 145.5993,412.80618   L 144.66597,412.73951   L 144.06597,412.40617   L 143.59931,411.9395   L 143.46598,411.40616   L 143.46598,402.13935   L 143.59931,401.60601   L 144.06597,401.07267   L 144.73264,400.67266   L 145.5993,400.606   L 165.19921,400.606   L 166.1992,400.73933   L 166.33253,399.67265   L 165.33254,399.53931   L 145.46597,399.53931   L 144.33264,399.73932   L 143.39931,400.27266   L 142.66598,401.07267   L 142.39932,402.00602   L 142.39932,411.53949   L 142.66598,412.47284   L 143.39931,413.20618   L 144.39931,413.67286   L 145.46597,413.87286   L 165.33254,413.87286   L 166.3992,413.67286   L 167.33253,413.27285   L 168.13253,412.53951   L 168.39919,411.60616   L 168.39919,402.00602   L 168.13253,401.07267   L 167.3992,400.27266   L 166.46587,399.73932   L 165.33254,399.53931   L 145.53263,399.53931  z "
     clip-path="url(#clipWmfPath1)"
     style="fill:#000000;fill-rule:nonzero;fill-opacity:1;stroke:#000000;stroke-width:0.06666635px;stroke-linecap:round;stroke-linejoin:round;stroke-miterlimit:4;stroke-dasharray:none;stroke-opacity:1;" />
  <path
     id="path230"
     d="  M 84.999592,435.07318   L 225.79892,435.07318   L 225.79892,449.40673   L 84.999592,449.40673   L 84.999592,435.07318  z "
     clip-path="url(#clipWmfPath1)"
     style="fill:#808080;fill-rule:nonzero;fill-opacity:1;stroke:none;" />
  <path
     id="path232"
     d="  M 84.999592,435.07318   L 225.79892,435.07318   L 225.79892,449.40673   L 84.999592,449.40673   L 84.999592,435.07318  z "
     clip-path="url(#clipWmfPath1)"
     style="fill:none;stroke:#000000;stroke-width:0.06666635px;stroke-linecap:round;stroke-linejoin:round;stroke-miterlimit:4;stroke-dasharray:none;stroke-opacity:1;" />
  <path
     id="path234"
     d="  M 124.13274,444.93999   L 221.0656,444.93999   L 221.0656,439.53991   L 124.13274,439.53991   L 124.13274,444.93999  z "
     clip-path="url(#clipWmfPath1)"
     style="fill:#ffffff;fill-rule:nonzero;fill-opacity:1;stroke:none;" />
  <path
     id="path236"
     d="  M 124.13274,444.93999   L 221.0656,444.93999   L 221.0656,439.53991   L 124.13274,439.53991   L 124.13274,444.93999  z "
     clip-path="url(#clipWmfPath1)"
     style="fill:none;stroke:#000000;stroke-width:0.06666635px;stroke-linecap:round;stroke-linejoin:round;stroke-miterlimit:4;stroke-dasharray:none;stroke-opacity:1;" />
  <path
     id="path238"
     d="  M 117.4661,444.93999   L 89.999568,444.93999   L 89.999568,439.53991   L 117.4661,439.53991   L 117.4661,444.93999  z "
     clip-path="url(#clipWmfPath1)"
     style="fill:#ffffff;fill-rule:nonzero;fill-opacity:1;stroke:none;" />
  <path
     id="path240"
     d="  M 117.4661,444.93999   L 89.999568,444.93999   L 89.999568,439.53991   L 117.4661,439.53991   L 117.4661,444.93999  z "
     clip-path="url(#clipWmfPath1)"
     style="fill:none;stroke:#000000;stroke-width:0.06666635px;stroke-linecap:round;stroke-linejoin:round;stroke-miterlimit:4;stroke-dasharray:none;stroke-opacity:1;" />
  <path
     id="path242"
     d="  M 165.26587,435.60652   L 166.26587,435.73985   L 167.06586,436.20653   L 167.66586,436.8732   L 167.86586,437.60655   L 167.86586,447.07336   L 167.66586,447.8067   L 167.06586,448.40671   L 166.26587,448.74005   L 165.26587,448.87338   L 145.53263,448.87338   L 144.53264,448.74005   L 143.73264,448.34004   L 143.13265,447.74003   L 142.93265,447.00669   L 142.93265,437.60655   L 143.13265,436.8732   L 143.73264,436.20653   L 144.53264,435.73985   L 145.53263,435.60652   L 165.26587,435.60652  z "
     clip-path="url(#clipWmfPath1)"
     style="fill:#ffffff;fill-rule:nonzero;fill-opacity:1;stroke:none;" />
  <path
     id="path244"
     d="  M 145.53263,435.07318   L 145.53263,436.13986   L 165.19921,436.13986   L 166.06587,436.20653   L 166.73253,436.60653   L 167.1992,437.13988   L 167.33253,437.67322   L 167.33253,447.00669   L 167.1992,447.54003   L 166.7992,448.0067   L 166.13254,448.27338   L 165.19921,448.34004   L 145.5993,448.34004   L 144.66597,448.27338   L 144.06597,447.94004   L 143.59931,447.47336   L 143.46598,446.94002   L 143.46598,437.67322   L 143.59931,437.13988   L 144.06597,436.60653   L 144.73264,436.20653   L 145.5993,436.13986   L 165.19921,436.13986   L 166.1992,436.2732   L 166.33253,435.20651   L 165.33254,435.07318   L 145.46597,435.07318   L 144.33264,435.27318   L 143.39931,435.80652   L 142.66598,436.60653   L 142.39932,437.53988   L 142.39932,447.07336   L 142.66598,448.0067   L 143.39931,448.74005   L 144.39931,449.20672   L 145.46597,449.40673   L 165.33254,449.40673   L 166.3992,449.20672   L 167.33253,448.80672   L 168.13253,448.07337   L 168.39919,447.14002   L 168.39919,437.53988   L 168.13253,436.60653   L 167.3992,435.80652   L 166.46587,435.27318   L 165.33254,435.07318   L 145.53263,435.07318  z "
     clip-path="url(#clipWmfPath1)"
     style="fill:#000000;fill-rule:nonzero;fill-opacity:1;stroke:#000000;stroke-width:0.06666635px;stroke-linecap:round;stroke-linejoin:round;stroke-miterlimit:4;stroke-dasharray:none;stroke-opacity:1;" />
  <g
     id="g246"
     clip-path="url(#clipWmfPath1)" />
  <g
     id="g258"
     clip-path="url(#clipWmfPath1)">
    <text
       id="text256"
       y="0.000000"
       x="0.000000"
       transform="matrix(1.000000,-0.000000,0.000000,1.000000,146.265964,446.206678)"
       style="font-size:10.687500px;font-style:normal;font-variant:normal;font-weight:400;font-stretch:Condensed;line-height:125.000000%;letter-spacing:0px;word-spacing:0px;fill:#000000;fill-opacity:1;stroke:none;font-family:Helvetica-Narrow;text-align:start;text-anchor:start;"
       xml:space="preserve"><tspan
         id="tspan254"
         y="0.000000"
         x="0.000000"><tspan
           id="tspan248"
           style="fill:#000000;font-size:10.687500px;font-style:normal;font-variant:normal;font-weight:400;font-stretch:Condensed;font-family:Helvetica-Narrow;"
           dy="0.000000"
           dx="0.000000">P</tspan><tspan
           id="tspan250"
           style="fill:#000000;font-size:10.687500px;font-style:normal;font-variant:normal;font-weight:400;font-stretch:Condensed;font-family:Helvetica-Narrow;"
           dy="0.000000"
           dx="-0.102582">C</tspan><tspan
           id="tspan252"
           style="fill:#000000;font-size:10.687500px;font-style:normal;font-variant:normal;font-weight:400;font-stretch:Condensed;font-family:Helvetica-Narrow;"
           dy="0.000000"
           dx="-0.050189">9</tspan></tspan></text>
  </g>
  <g
     id="g260"
     clip-path="url(#clipWmfPath1)" />
  <g
     id="g272"
     clip-path="url(#clipWmfPath1)">
    <text
       id="text270"
       y="0.000000"
       x="0.000000"
       transform="matrix(1.000000,-0.000000,0.000000,1.000000,146.265964,410.139471)"
       style="font-size:10.687500px;font-style:normal;font-variant:normal;font-weight:400;font-stretch:Condensed;line-height:125.000000%;letter-spacing:0px;word-spacing:0px;fill:#000000;fill-opacity:1;stroke:none;font-family:Helvetica-Narrow;text-align:start;text-anchor:start;"
       xml:space="preserve"><tspan
         id="tspan268"
         y="0.000000"
         x="0.000000"><tspan
           id="tspan262"
           style="fill:#000000;font-size:10.687500px;font-style:normal;font-variant:normal;font-weight:400;font-stretch:Condensed;font-family:Helvetica-Narrow;"
           dy="0.000000"
           dx="0.000000">P</tspan><tspan
           id="tspan264"
           style="fill:#000000;font-size:10.687500px;font-style:normal;font-variant:normal;font-weight:400;font-stretch:Condensed;font-family:Helvetica-Narrow;"
           dy="0.000000"
           dx="-0.102582">C</tspan><tspan
           id="tspan266"
           style="fill:#000000;font-size:10.687500px;font-style:normal;font-variant:normal;font-weight:400;font-stretch:Condensed;font-family:Helvetica-Narrow;"
           dy="0.000000"
           dx="-0.050189">8</tspan></tspan></text>
  </g>
  <g
     id="g274"
     clip-path="url(#clipWmfPath1)" />
  <g
     id="g286"
     clip-path="url(#clipWmfPath1)">
    <text
       id="text284"
       y="0.000000"
       x="0.000000"
       transform="matrix(1.000000,-0.000000,0.000000,1.000000,146.265964,339.205076)"
       style="font-size:10.687500px;font-style:normal;font-variant:normal;font-weight:400;font-stretch:Condensed;line-height:125.000000%;letter-spacing:0px;word-spacing:0px;fill:#000000;fill-opacity:1;stroke:none;font-family:Helvetica-Narrow;text-align:start;text-anchor:start;"
       xml:space="preserve"><tspan
         id="tspan282"
         y="0.000000"
         x="0.000000"><tspan
           id="tspan276"
           style="fill:#000000;font-size:10.687500px;font-style:normal;font-variant:normal;font-weight:400;font-stretch:Condensed;font-family:Helvetica-Narrow;"
           dy="0.000000"
           dx="0.000000">P</tspan><tspan
           id="tspan278"
           style="fill:#000000;font-size:10.687500px;font-style:normal;font-variant:normal;font-weight:400;font-stretch:Condensed;font-family:Helvetica-Narrow;"
           dy="0.000000"
           dx="-0.102582">C</tspan><tspan
           id="tspan280"
           style="fill:#000000;font-size:10.687500px;font-style:normal;font-variant:normal;font-weight:400;font-stretch:Condensed;font-family:Helvetica-Narrow;"
           dy="0.000000"
           dx="-0.050189">6</tspan></tspan></text>
  </g>
  <path
     id="path288"
     d="  M 83.999596,292.00437   L 224.79892,292.00437   L 224.79892,306.33792   L 83.999596,306.33792   L 83.999596,292.00437  z "
     clip-path="url(#clipWmfPath1)"
     style="fill:#808080;fill-rule:nonzero;fill-opacity:1;stroke:none;" />
  <path
     id="path290"
     d="  M 83.999596,292.00437   L 224.79892,292.00437   L 224.79892,306.33792   L 83.999596,306.33792   L 83.999596,292.00437  z "
     clip-path="url(#clipWmfPath1)"
     style="fill:none;stroke:#000000;stroke-width:0.06666635px;stroke-linecap:round;stroke-linejoin:round;stroke-miterlimit:4;stroke-dasharray:none;stroke-opacity:1;" />
  <path
     id="path292"
     d="  M 123.13274,301.87118   L 220.06561,301.87118   L 220.06561,296.4711   L 123.13274,296.4711   L 123.13274,301.87118  z "
     clip-path="url(#clipWmfPath1)"
     style="fill:#ffffff;fill-rule:nonzero;fill-opacity:1;stroke:none;" />
  <path
     id="path294"
     d="  M 123.13274,301.87118   L 220.06561,301.87118   L 220.06561,296.4711   L 123.13274,296.4711   L 123.13274,301.87118  z "
     clip-path="url(#clipWmfPath1)"
     style="fill:none;stroke:#000000;stroke-width:0.06666635px;stroke-linecap:round;stroke-linejoin:round;stroke-miterlimit:4;stroke-dasharray:none;stroke-opacity:1;" />
  <path
     id="path296"
     d="  M 116.46611,301.87118   L 88.999572,301.87118   L 88.999572,296.4711   L 116.46611,296.4711   L 116.46611,301.87118  z "
     clip-path="url(#clipWmfPath1)"
     style="fill:#ffffff;fill-rule:nonzero;fill-opacity:1;stroke:none;" />
  <path
     id="path298"
     d="  M 116.46611,301.87118   L 88.999572,301.87118   L 88.999572,296.4711   L 116.46611,296.4711   L 116.46611,301.87118  z "
     clip-path="url(#clipWmfPath1)"
     style="fill:none;stroke:#000000;stroke-width:0.06666635px;stroke-linecap:round;stroke-linejoin:round;stroke-miterlimit:4;stroke-dasharray:none;stroke-opacity:1;" />
  <path
     id="path300"
     d="  M 164.26588,292.53771   L 165.26587,292.67105   L 166.06587,293.13772   L 166.66587,293.8044   L 166.86587,294.53774   L 166.86587,304.00455   L 166.66587,304.73789   L 166.06587,305.3379   L 165.26587,305.67124   L 164.26588,305.80458   L 144.53264,305.80458   L 143.53264,305.67124   L 142.73265,305.27124   L 142.13265,304.67123   L 141.93265,303.93788   L 141.93265,294.53774   L 142.13265,293.8044   L 142.73265,293.13772   L 143.53264,292.67105   L 144.53264,292.53771   L 164.26588,292.53771  z "
     clip-path="url(#clipWmfPath1)"
     style="fill:#ffffff;fill-rule:nonzero;fill-opacity:1;stroke:none;" />
  <path
     id="path302"
     d="  M 144.53264,292.00437   L 144.53264,293.07105   L 164.19921,293.07105   L 165.06587,293.13772   L 165.73254,293.53773   L 166.1992,294.07107   L 166.33253,294.60441   L 166.33253,303.93788   L 166.1992,304.47122   L 165.7992,304.9379   L 165.13254,305.20457   L 164.19921,305.27124   L 144.59931,305.27124   L 143.66598,305.20457   L 143.06598,304.87123   L 142.59931,304.40456   L 142.46598,303.87121   L 142.46598,294.60441   L 142.59931,294.07107   L 143.06598,293.53773   L 143.73264,293.13772   L 144.59931,293.07105   L 164.19921,293.07105   L 165.19921,293.20439   L 165.33254,292.13771   L 164.33254,292.00437   L 144.46597,292.00437   L 143.33264,292.20437   L 142.39932,292.73771   L 141.66599,293.53773   L 141.39932,294.47107   L 141.39932,304.00455   L 141.66599,304.9379   L 142.39932,305.67124   L 143.39931,306.13791   L 144.46597,306.33792   L 164.33254,306.33792   L 165.39921,306.13791   L 166.33253,305.73791   L 167.13253,305.00456   L 167.3992,304.07122   L 167.3992,294.47107   L 167.13253,293.53773   L 166.3992,292.73771   L 165.46587,292.20437   L 164.33254,292.00437   L 144.53264,292.00437  z "
     clip-path="url(#clipWmfPath1)"
     style="fill:#000000;fill-rule:nonzero;fill-opacity:1;stroke:#000000;stroke-width:0.06666635px;stroke-linecap:round;stroke-linejoin:round;stroke-miterlimit:4;stroke-dasharray:none;stroke-opacity:1;" />
  <g
     id="g304"
     clip-path="url(#clipWmfPath1)" />
  <g
     id="g316"
     clip-path="url(#clipWmfPath1)">
    <text
       id="text314"
       y="0.000000"
       x="0.000000"
       transform="matrix(1.000000,-0.000000,0.000000,1.000000,144.999303,303.204538)"
       style="font-size:10.687500px;font-style:normal;font-variant:normal;font-weight:400;font-stretch:Condensed;line-height:125.000000%;letter-spacing:0px;word-spacing:0px;fill:#000000;fill-opacity:1;stroke:none;font-family:Helvetica-Narrow;text-align:start;text-anchor:start;"
       xml:space="preserve"><tspan
         id="tspan312"
         y="0.000000"
         x="0.000000"><tspan
           id="tspan306"
           style="fill:#000000;font-size:10.687500px;font-style:normal;font-variant:normal;font-weight:400;font-stretch:Condensed;font-family:Helvetica-Narrow;"
           dy="0.000000"
           dx="0.000000">P</tspan><tspan
           id="tspan308"
           style="fill:#000000;font-size:10.687500px;font-style:normal;font-variant:normal;font-weight:400;font-stretch:Condensed;font-family:Helvetica-Narrow;"
           dy="0.000000"
           dx="-0.102582">C</tspan><tspan
           id="tspan310"
           style="fill:#000000;font-size:10.687500px;font-style:normal;font-variant:normal;font-weight:400;font-stretch:Condensed;font-family:Helvetica-Narrow;"
           dy="0.000000"
           dx="0.016478">5</tspan></tspan></text>
  </g>
  <g
     id="g318"
     clip-path="url(#clipWmfPath1)" />
  <g
     id="g330"
     clip-path="url(#clipWmfPath1)">
    <text
       id="text328"
       y="0.000000"
       x="0.000000"
       transform="matrix(1.000000,-0.000000,0.000000,1.000000,145.999299,375.005612)"
       style="font-size:10.687500px;font-style:normal;font-variant:normal;font-weight:400;font-stretch:Condensed;line-height:125.000000%;letter-spacing:0px;word-spacing:0px;fill:#000000;fill-opacity:1;stroke:none;font-family:Helvetica-Narrow;text-align:start;text-anchor:start;"
       xml:space="preserve"><tspan
         id="tspan326"
         y="0.000000"
         x="0.000000"><tspan
           id="tspan320"
           style="fill:#000000;font-size:10.687500px;font-style:normal;font-variant:normal;font-weight:400;font-stretch:Condensed;font-family:Helvetica-Narrow;"
           dy="0.000000"
           dx="0.000000">P</tspan><tspan
           id="tspan322"
           style="fill:#000000;font-size:10.687500px;font-style:normal;font-variant:normal;font-weight:400;font-stretch:Condensed;font-family:Helvetica-Narrow;"
           dy="0.000000"
           dx="-0.102582">C</tspan><tspan
           id="tspan324"
           style="fill:#000000;font-size:10.687500px;font-style:normal;font-variant:normal;font-weight:400;font-stretch:Condensed;font-family:Helvetica-Narrow;"
           dy="0.000000"
           dx="-0.050189">7</tspan></tspan></text>
  </g>
  <g
     id="g332"
     clip-path="url(#clipWmfPath1)" />
  <g
     id="g350"
     clip-path="url(#clipWmfPath1)">
    <text
       id="text348"
       y="0.000000"
       x="0.000000"
       transform="matrix(1.000000,-0.000000,0.000000,1.000000,206.999006,77.001152)"
       style="font-size:9.312500px;font-style:normal;font-variant:normal;font-weight:400;font-stretch:Condensed;line-height:125.000000%;letter-spacing:0px;word-spacing:0px;fill:#000000;fill-opacity:1;stroke:none;font-family:Helvetica-Narrow;text-align:start;text-anchor:start;"
       xml:space="preserve"><tspan
         id="tspan346"
         y="0.000000"
         x="0.000000"><tspan
           id="tspan334"
           style="fill:#000000;font-size:9.312500px;font-style:normal;font-variant:normal;font-weight:400;font-stretch:Condensed;font-family:Helvetica-Narrow;"
           dy="0.000000"
           dx="0.000000">3</tspan><tspan
           id="tspan336"
           style="fill:#000000;font-size:9.312500px;font-style:normal;font-variant:normal;font-weight:400;font-stretch:Condensed;font-family:Helvetica-Narrow;"
           dy="0.000000"
           dx="0.183397">4</tspan><tspan
           id="tspan338"
           style="fill:#000000;font-size:9.312500px;font-style:normal;font-variant:normal;font-weight:400;font-stretch:Condensed;font-family:Helvetica-Narrow;"
           dy="0.000000"
           dx="0.183397">8</tspan><tspan
           id="tspan340"
           style="fill:#000000;font-size:9.312500px;font-style:normal;font-variant:normal;font-weight:400;font-stretch:Condensed;font-family:Helvetica-Narrow;"
           dy="0.000000"
           dx="0.183397">2</tspan><tspan
           id="tspan342"
           style="fill:#000000;font-size:9.312500px;font-style:normal;font-variant:normal;font-weight:400;font-stretch:Condensed;font-family:Helvetica-Narrow;"
           dy="0.000000"
           dx="0.183397">4</tspan><tspan
           id="tspan344"
           style="fill:#000000;font-size:9.312500px;font-style:normal;font-variant:normal;font-weight:400;font-stretch:Condensed;font-family:Helvetica-Narrow;"
           dy="0.000000"
           dx="0.183397">A</tspan></tspan></text>
  </g>
  <path
     id="path352"
     d="  M 274.13202,194.26957   L 283.39864,194.26957   L 284.13197,194.13624   L 284.79863,193.73623   L 285.19863,193.13622   L 285.33196,192.40288   L 285.33196,182.93607   L 285.19863,182.20273   L 284.79863,181.60272   L 284.13197,181.13604   L 283.39864,181.00271   L 261.93207,181.00271   L 261.19875,181.13604   L 260.59875,181.53605   L 260.13208,182.13606   L 259.99875,182.8694   L 259.99875,192.26954   L 260.13208,193.00289   L 260.59875,193.66956   L 261.19875,194.06957   L 261.93207,194.20291   L 270.33203,194.20291   L 271.93203,207.4031   L 274.13202,194.26957  z "
     clip-path="url(#clipWmfPath1)"
     style="fill:#ffffff;fill-rule:nonzero;fill-opacity:1;stroke:none;" />
  <path
     id="path354"
     d="  M 271.46536,207.33644   L 271.86536,207.93645   L 272.39869,207.46977   L 274.53201,194.80292   L 283.4653,194.80292   L 284.33197,194.60291   L 285.13196,194.13624   L 285.66529,193.33623   L 285.86529,192.46955   L 285.86529,182.8694   L 285.66529,182.00272   L 285.19863,181.26938   L 284.33197,180.66937   L 283.4653,180.46937   L 261.86541,180.46937   L 260.99875,180.66937   L 260.26542,181.13604   L 259.66542,181.93606   L 259.46542,182.80274   L 259.46542,192.33621   L 259.66542,193.20289   L 260.26542,194.06957   L 260.99875,194.53624   L 261.86541,194.73625   L 269.86537,194.73625   L 271.3987,207.46977   L 272.39869,207.46977   L 274.53201,194.80292   L 283.39864,194.80292   L 283.93197,194.26957   L 283.39864,193.73623   L 273.73202,193.73623   L 271.99869,203.86972   L 270.7987,193.66956   L 261.99874,193.66956   L 261.39874,193.6029   L 260.93208,193.26956   L 260.59875,192.80289   L 260.53208,192.20288   L 260.53208,182.93607   L 260.59875,182.33606   L 260.93208,181.93606   L 261.39874,181.60272   L 261.99874,181.53605   L 283.33197,181.53605   L 283.93197,181.60272   L 284.39863,181.93606   L 284.73197,182.40273   L 284.79863,183.00274   L 284.79863,192.33621   L 284.73197,192.93622   L 284.4653,193.33623   L 283.93197,193.66956   L 283.33197,193.73623   L 273.73202,193.73623   L 271.46536,207.33644  z "
     clip-path="url(#clipWmfPath1)"
     style="fill:#000000;fill-rule:nonzero;fill-opacity:1;stroke:#000000;stroke-width:0.06666635px;stroke-linecap:round;stroke-linejoin:round;stroke-miterlimit:4;stroke-dasharray:none;stroke-opacity:1;" />
  <path
     id="path356"
     d="  M 292.86526,208.00311   L 292.86526,222.67   L 250.99879,222.67   L 250.99879,208.00311   L 292.86526,208.00311  z "
     clip-path="url(#clipWmfPath1)"
     style="fill:#ffffff;fill-rule:nonzero;fill-opacity:1;stroke:none;" />
  <path
     id="path358"
     d="  M 292.86526,208.00311   L 292.86526,222.67   L 250.99879,222.67   L 250.99879,208.00311   L 292.86526,208.00311  z "
     clip-path="url(#clipWmfPath1)"
     style="fill:none;stroke:#000000;stroke-width:0.06666635px;stroke-linecap:round;stroke-linejoin:round;stroke-miterlimit:4;stroke-dasharray:none;stroke-opacity:1;" />
  <path
     id="path360"
     d="  M 290.53194,222.13666   L 289.79861,222.00332   L 289.19861,221.60332   L 288.79861,221.00331   L 288.66528,220.26996   L 288.79861,219.53662   L 289.19861,219.00328   L 289.79861,218.60327   L 290.53194,218.46994   L 291.26527,218.60327   L 291.7986,219.00328   L 292.1986,219.53662   L 292.33193,220.26996   L 292.1986,221.00331   L 291.7986,221.60332   L 291.26527,222.00332   L 290.53194,222.13666  z "
     clip-path="url(#clipWmfPath1)"
     style="fill:#ffffff;fill-rule:nonzero;fill-opacity:1;stroke:none;" />
  <path
     id="path362"
     d="  M 290.53194,222.13666   L 289.79861,222.00332   L 289.19861,221.60332   L 288.79861,221.00331   L 288.66528,220.26996   L 288.79861,219.53662   L 289.19861,219.00328   L 289.79861,218.60327   L 290.53194,218.46994   L 291.26527,218.60327   L 291.7986,219.00328   L 292.1986,219.53662   L 292.33193,220.26996   L 292.1986,221.00331   L 291.7986,221.60332   L 291.26527,222.00332   L 290.53194,222.13666  z "
     clip-path="url(#clipWmfPath1)"
     style="fill:none;stroke:#000000;stroke-width:0.06666635px;stroke-linecap:round;stroke-linejoin:round;stroke-miterlimit:4;stroke-dasharray:none;stroke-opacity:1;" />
  <path
     id="path364"
     d="  M 264.4654,219.46995   L 264.4654,211.5365   L 260.39875,211.5365   L 260.39875,219.46995   L 264.4654,219.46995  z "
     clip-path="url(#clipWmfPath1)"
     style="fill:#000000;fill-rule:nonzero;fill-opacity:1;stroke:none;" />
  <path
     id="path366"
     d="  M 264.4654,219.46995   L 264.4654,211.5365   L 260.39875,211.5365   L 260.39875,219.46995   L 264.4654,219.46995  z "
     clip-path="url(#clipWmfPath1)"
     style="fill:none;stroke:#000000;stroke-width:0.06666635px;stroke-linecap:round;stroke-linejoin:round;stroke-miterlimit:4;stroke-dasharray:none;stroke-opacity:1;" />
  <path
     id="path368"
     d="  M 258.73209,219.46995   L 258.73209,211.5365   L 254.66544,211.5365   L 254.66544,219.46995   L 258.73209,219.46995  z "
     clip-path="url(#clipWmfPath1)"
     style="fill:#000000;fill-rule:nonzero;fill-opacity:1;stroke:none;" />
  <path
     id="path370"
     d="  M 258.73209,219.46995   L 258.73209,211.5365   L 254.66544,211.5365   L 254.66544,219.46995   L 258.73209,219.46995  z "
     clip-path="url(#clipWmfPath1)"
     style="fill:none;stroke:#000000;stroke-width:0.06666635px;stroke-linecap:round;stroke-linejoin:round;stroke-miterlimit:4;stroke-dasharray:none;stroke-opacity:1;" />
  <path
     id="path372"
     d="  M 276.19867,219.46995   L 276.19867,211.5365   L 272.13203,211.5365   L 272.13203,219.46995   L 276.19867,219.46995  z "
     clip-path="url(#clipWmfPath1)"
     style="fill:#000000;fill-rule:nonzero;fill-opacity:1;stroke:none;" />
  <path
     id="path374"
     d="  M 276.19867,219.46995   L 276.19867,211.5365   L 272.13203,211.5365   L 272.13203,219.46995   L 276.19867,219.46995  z "
     clip-path="url(#clipWmfPath1)"
     style="fill:none;stroke:#000000;stroke-width:0.06666635px;stroke-linecap:round;stroke-linejoin:round;stroke-miterlimit:4;stroke-dasharray:none;stroke-opacity:1;" />
  <path
     id="path376"
     d="  M 270.53203,219.46995   L 270.53203,211.5365   L 266.46539,211.5365   L 266.46539,219.46995   L 270.53203,219.46995  z "
     clip-path="url(#clipWmfPath1)"
     style="fill:#000000;fill-rule:nonzero;fill-opacity:1;stroke:none;" />
  <path
     id="path378"
     d="  M 270.53203,219.46995   L 270.53203,211.5365   L 266.46539,211.5365   L 266.46539,219.46995   L 270.53203,219.46995  z "
     clip-path="url(#clipWmfPath1)"
     style="fill:none;stroke:#000000;stroke-width:0.06666635px;stroke-linecap:round;stroke-linejoin:round;stroke-miterlimit:4;stroke-dasharray:none;stroke-opacity:1;" />
  <path
     id="path380"
     d="  M 282.33198,219.46995   L 282.33198,211.5365   L 278.26533,211.5365   L 278.26533,219.46995   L 282.33198,219.46995  z "
     clip-path="url(#clipWmfPath1)"
     style="fill:#000000;fill-rule:nonzero;fill-opacity:1;stroke:none;" />
  <path
     id="path382"
     d="  M 282.33198,219.46995   L 282.33198,211.5365   L 278.26533,211.5365   L 278.26533,219.46995   L 282.33198,219.46995  z "
     clip-path="url(#clipWmfPath1)"
     style="fill:none;stroke:#000000;stroke-width:0.06666635px;stroke-linecap:round;stroke-linejoin:round;stroke-miterlimit:4;stroke-dasharray:none;stroke-opacity:1;" />
  <path
     id="path384"
     d="  M 288.33195,219.46995   L 288.33195,211.5365   L 284.2653,211.5365   L 284.2653,219.46995   L 288.33195,219.46995  z "
     clip-path="url(#clipWmfPath1)"
     style="fill:#ffffff;fill-rule:nonzero;fill-opacity:1;stroke:none;" />
  <path
     id="path386"
     d="  M 288.33195,219.46995   L 288.33195,211.5365   L 284.2653,211.5365   L 284.2653,219.46995   L 288.33195,219.46995  z "
     clip-path="url(#clipWmfPath1)"
     style="fill:none;stroke:#000000;stroke-width:0.06666635px;stroke-linecap:round;stroke-linejoin:round;stroke-miterlimit:4;stroke-dasharray:none;stroke-opacity:1;" />
  <g
     id="g388"
     clip-path="url(#clipWmfPath1)" />
  <g
     id="g400"
     clip-path="url(#clipWmfPath1)">
    <text
       id="text398"
       y="0.000000"
       x="0.000000"
       transform="matrix(1.000000,-0.000000,0.000000,1.000000,262.998737,192.002873)"
       style="font-size:10.687500px;font-style:normal;font-variant:normal;font-weight:400;font-stretch:Condensed;line-height:125.000000%;letter-spacing:0px;word-spacing:0px;fill:#000000;fill-opacity:1;stroke:none;font-family:Helvetica-Narrow;text-align:start;text-anchor:start;"
       xml:space="preserve"><tspan
         id="tspan396"
         y="0.000000"
         x="0.000000"><tspan
           id="tspan390"
           style="fill:#000000;font-size:10.687500px;font-style:normal;font-variant:normal;font-weight:400;font-stretch:Condensed;font-family:Helvetica-Narrow;"
           dy="0.000000"
           dx="0.000000">S</tspan><tspan
           id="tspan392"
           style="fill:#000000;font-size:10.687500px;font-style:normal;font-variant:normal;font-weight:400;font-stretch:Condensed;font-family:Helvetica-Narrow;"
           dy="0.000000"
           dx="-0.102582">W</tspan><tspan
           id="tspan394"
           style="fill:#000000;font-size:10.687500px;font-style:normal;font-variant:normal;font-weight:400;font-stretch:Condensed;font-family:Helvetica-Narrow;"
           dy="0.000000"
           dx="0.004677">1</tspan></tspan></text>
  </g>
  <g
     id="g402"
     clip-path="url(#clipWmfPath1)" />
  <g
     id="g440"
     clip-path="url(#clipWmfPath1)">
    <text
       id="text424"
       y="0.000000"
       x="0.000000"
       transform="matrix(1.000000,-0.000000,0.000000,1.000000,143.999308,473.007079)"
       style="font-size:10.687500px;font-style:normal;font-variant:normal;font-weight:400;font-stretch:Condensed;line-height:125.000000%;letter-spacing:0px;word-spacing:0px;fill:#000000;fill-opacity:1;stroke:none;font-family:Helvetica-Narrow;text-align:start;text-anchor:start;"
       xml:space="preserve"><tspan
         id="tspan422"
         y="0.000000"
         x="0.000000"><tspan
           id="tspan404"
           style="fill:#000000;font-size:10.687500px;font-style:normal;font-variant:normal;font-weight:400;font-stretch:Condensed;font-family:Helvetica-Narrow;"
           dy="0.000000"
           dx="0.000000">E</tspan><tspan
           id="tspan406"
           style="fill:#000000;font-size:10.687500px;font-style:normal;font-variant:normal;font-weight:400;font-stretch:Condensed;font-family:Helvetica-Narrow;"
           dy="0.000000"
           dx="-0.102582">X</tspan><tspan
           id="tspan408"
           style="fill:#000000;font-size:10.687500px;font-style:normal;font-variant:normal;font-weight:400;font-stretch:Condensed;font-family:Helvetica-Narrow;"
           dy="0.000000"
           dx="-0.102582">P</tspan><tspan
           id="tspan410"
           style="fill:#000000;font-size:10.687500px;font-style:normal;font-variant:normal;font-weight:400;font-stretch:Condensed;font-family:Helvetica-Narrow;"
           dy="0.000000"
           dx="0.753906">A</tspan><tspan
           id="tspan412"
           style="fill:#000000;font-size:10.687500px;font-style:normal;font-variant:normal;font-weight:400;font-stretch:Condensed;font-family:Helvetica-Narrow;"
           dy="0.000000"
           dx="-0.102582">N</tspan><tspan
           id="tspan414"
           style="fill:#000000;font-size:10.687500px;font-style:normal;font-variant:normal;font-weight:400;font-stretch:Condensed;font-family:Helvetica-Narrow;"
           dy="0.000000"
           dx="-0.050189">S</tspan><tspan
           id="tspan416"
           style="fill:#000000;font-size:10.687500px;font-style:normal;font-variant:normal;font-weight:400;font-stretch:Condensed;font-family:Helvetica-Narrow;"
           dy="0.000000"
           dx="-0.102582">I</tspan><tspan
           id="tspan418"
           style="fill:#000000;font-size:10.687500px;font-style:normal;font-variant:normal;font-weight:400;font-stretch:Condensed;font-family:Helvetica-Narrow;"
           dy="0.000000"
           dx="-0.026587">O</tspan><tspan
           id="tspan420"
           style="fill:#000000;font-size:10.687500px;font-style:normal;font-variant:normal;font-weight:400;font-stretch:Condensed;font-family:Helvetica-Narrow;"
           dy="0.000000"
           dx="-0.075149">N</tspan></tspan></text>
    <text
       id="text438"
       y="0.000000"
       x="65.533019"
       transform="matrix(1.000000,-0.000000,0.000000,1.000000,143.999308,473.007079)"
       style="font-size:10.687500px;font-style:normal;font-variant:normal;font-weight:400;font-stretch:Condensed;line-height:125.000000%;letter-spacing:0px;word-spacing:0px;fill:#000000;fill-opacity:1;stroke:none;font-family:Helvetica-Narrow;text-align:start;text-anchor:start;"
       xml:space="preserve"><tspan
         id="tspan436"
         y="0.000000"
         x="65.533019"><tspan
           id="tspan426"
           style="fill:#000000;font-size:10.687500px;font-style:normal;font-variant:normal;font-weight:400;font-stretch:Condensed;font-family:Helvetica-Narrow;"
           dy="0.000000"
           dx="0.000000">B</tspan><tspan
           id="tspan428"
           style="fill:#000000;font-size:10.687500px;font-style:normal;font-variant:normal;font-weight:400;font-stretch:Condensed;font-family:Helvetica-Narrow;"
           dy="0.000000"
           dx="-0.102582">O</tspan><tspan
           id="tspan430"
           style="fill:#000000;font-size:10.687500px;font-style:normal;font-variant:normal;font-weight:400;font-stretch:Condensed;font-family:Helvetica-Narrow;"
           dy="0.000000"
           dx="-0.075149">A</tspan><tspan
           id="tspan432"
           style="fill:#000000;font-size:10.687500px;font-style:normal;font-variant:normal;font-weight:400;font-stretch:Condensed;font-family:Helvetica-Narrow;"
           dy="0.000000"
           dx="-0.102582">R</tspan><tspan
           id="tspan434"
           style="fill:#000000;font-size:10.687500px;font-style:normal;font-variant:normal;font-weight:400;font-stretch:Condensed;font-family:Helvetica-Narrow;"
           dy="0.000000"
           dx="-0.050189">D</tspan></tspan></text>
  </g>
</svg>
