<?xml version="1.0" encoding="UTF-8" standalone="no"?>
<svg
   xmlns:dc="http://purl.org/dc/elements/1.1/"
   xmlns:cc="http://creativecommons.org/ns#"
   xmlns:rdf="http://www.w3.org/1999/02/22-rdf-syntax-ns#"
   xmlns:svg="http://www.w3.org/2000/svg"
   xmlns="http://www.w3.org/2000/svg"
   id="svg320"
   height="69.400003mm"
   width="47.32mm"
   version="1.0">
  <metadata
     id="metadata324">
    <rdf:RDF>
      <cc:Work
         rdf:about="">
        <dc:format>image/svg+xml</dc:format>
        <dc:type
           rdf:resource="http://purl.org/dc/dcmitype/StillImage" />
      </cc:Work>
    </rdf:RDF>
  </metadata>
  <defs
     id="defs6">
    <clipPath
       id="clipWmfPath1"
       clipPathUnits="userSpaceOnUse">
      <path
         id="path2"
         d="M 0,0 L 178.77611,0 L 178.77611,262.22808 L 0,262.22808 z" />
    </clipPath>
    <pattern
       y="0"
       x="0"
       height="6"
       width="6"
       patternUnits="userSpaceOnUse"
       id="WMFhbasepattern" />
  </defs>
  <path
     id="path8"
     d="  M 125.50663,188.46289   L 96.105078,188.46289   L 85.571189,188.49623   L 8.2004333,188.49623   L 8.2004333,111.4311   L 61.669925,111.4311   L 61.669925,1.8666293   L 125.50663,1.8666293   L 125.50663,188.46289  z "
     clip-path="url(#clipWmfPath1)"
     style="fill:#ffffff;fill-rule:nonzero;fill-opacity:1;stroke:none;" />
  <path
     id="path10"
     d="  M 125.80665,1.8666293   L 125.20662,1.8666293   L 125.20662,188.1629   L 96.105078,188.1629   L 85.571189,188.19623   L 8.5004492,188.19623   L 8.5004492,111.7311   L 61.969941,111.7311   L 61.969941,2.1666233   L 125.20662,2.1666233   L 125.20662,188.1629   L 96.105078,188.1629   L 96.105078,188.76289   L 125.80665,188.76289   L 125.80665,1.5666353   L 61.36991,1.5666353   L 61.36991,111.13111   L 7.9004175,111.13111   L 7.9004175,188.79622   L 85.571189,188.79622   L 96.105078,188.76289   L 125.80665,188.76289   L 125.80665,1.8666293  z "
     clip-path="url(#clipWmfPath1)"
     style="fill:#000000;fill-rule:nonzero;fill-opacity:1;stroke:#000000;stroke-width:0.033335093px;stroke-linecap:round;stroke-linejoin:round;stroke-miterlimit:4;stroke-dasharray:none;stroke-opacity:1;" />
  <path
     id="path12"
     d="  M 131.24027,5.5998879   L 160.57515,5.5998879   L 160.57515,9.6664732   L 135.17381,9.6664732   L 135.17381,218.32896   L 131.24027,218.32896   L 131.24027,5.5998879  z "
     clip-path="url(#clipWmfPath1)"
     style="fill:#ffffff;fill-rule:nonzero;fill-opacity:1;stroke:none;" />
  <path
     id="path14"
     d="  M 130.74024,218.32896   L 131.74029,218.32896   L 131.74029,6.0998779   L 160.07513,6.0998779   L 160.07513,9.1664832   L 134.67378,9.1664832   L 134.67378,217.82897   L 131.74029,217.82897   L 131.74029,6.0998779   L 160.57515,6.0998779   L 160.57515,5.0998979   L 130.74024,5.0998979   L 130.74024,218.82895   L 135.67384,218.82895   L 135.67384,10.166463   L 161.07518,10.166463   L 161.07518,5.0998979   L 130.74024,5.0998979   L 130.74024,218.32896  z "
     clip-path="url(#clipWmfPath1)"
     style="fill:#000000;fill-rule:nonzero;fill-opacity:1;stroke:#000000;stroke-width:0.033335093px;stroke-linecap:round;stroke-linejoin:round;stroke-miterlimit:4;stroke-dasharray:none;stroke-opacity:1;" />
  <path
     id="path16"
     d="  M 80.337579,156.06354   L 79.804217,157.43018   L 78.504148,159.16348   L 76.637383,160.73012   L 74.503937,161.83009   L 72.10381,162.43008   L 69.503673,162.63008   L 67.003541,162.36342   L 64.670084,161.66343   L 62.569973,160.49679   L 60.736543,158.96348   L 59.203128,157.09686   L 58.0364,154.9969   L 57.336363,152.63028   L 57.069682,150.097   L 57.336363,147.56371   L 58.0364,145.19709   L 59.203128,143.0638   L 60.736543,141.19717   L 62.569973,139.66387   L 64.670084,138.53056   L 67.003541,137.79724   L 69.503673,137.53058   L 72.03714,137.73058   L 74.370597,138.39723   L 76.437373,139.49721   L 78.304138,141.09718   L 79.404196,142.49715   L 80.237573,144.09712   L 69.203657,144.09712   L 69.203657,156.06354   L 80.337579,156.06354  z "
     clip-path="url(#clipWmfPath1)"
     style="fill:#cccccc;fill-rule:nonzero;fill-opacity:1;stroke:none;" />
  <path
     id="path18"
     d="  M 24.201279,144.19711   L 24.201279,155.99688   L 69.170322,155.99688   L 69.170322,144.19711   L 24.201279,144.19711  z "
     clip-path="url(#clipWmfPath1)"
     style="fill:#cccccc;fill-rule:nonzero;fill-opacity:1;stroke:none;" />
  <path
     id="path20"
     d="  M 76.237362,154.06358   L 76.237362,150.49699   L 73.037193,150.49699   L 73.037193,154.06358   L 72.03714,154.06358   L 72.03714,146.7304   L 73.037193,146.7304   L 73.037193,149.66367   L 76.237362,149.66367   L 76.237362,146.7304   L 77.20408,146.7304   L 77.20408,154.06358   L 76.237362,154.06358  z "
     clip-path="url(#clipWmfPath1)"
     style="fill:#cccccc;fill-rule:evenodd;fill-opacity:1;stroke:none;" />
  <path
     id="path22"
     d="  M 80.970945,150.19699   L 81.170956,148.73036   L 81.737653,147.49705   L 82.70437,146.66373   L 83.937769,146.36374   L 85.271173,146.66373   L 86.271225,147.43038   L 86.871257,148.63036   L 87.071268,150.19699   L 86.871257,151.83029   L 86.271225,153.0636   L 85.271173,153.83025   L 83.937769,154.06358   L 82.671035,153.79692   L 81.737653,153.03027   L 81.170956,151.76363   L 80.970945,150.19699  z    M 81.904328,150.19699   L 82.037668,151.3303   L 82.471025,152.26362   L 83.037721,152.93027   L 83.837764,153.13027   L 84.737811,152.93027   L 85.404513,152.39695   L 85.837869,151.49697   L 85.97121,150.19699   L 85.837869,148.93035   L 85.437848,148.03037   L 84.771146,147.53038   L 83.837764,147.36372   L 83.037721,147.53038   L 82.43769,148.03037   L 82.037668,148.99702   L 81.904328,150.19699  z   "
     clip-path="url(#clipWmfPath1)"
     style="fill:#cccccc;fill-rule:evenodd;fill-opacity:1;stroke:none;" />
  <path
     id="path24"
     d="  M 90.704793,146.69706   L 91.671511,146.69706   L 91.671511,151.76363   L 91.771516,152.36362   L 92.104867,152.86361   L 92.571558,153.19693   L 93.204925,153.29693   L 93.871627,153.19693   L 94.338318,152.89694   L 94.705004,152.36362   L 94.838345,151.69696   L 94.838345,146.69706   L 95.805063,146.69706   L 95.805063,151.76363   L 95.638387,152.83027   L 95.171696,153.59693   L 94.304983,154.06358   L 93.204925,154.23025   L 92.138202,154.06358   L 91.33816,153.59693   L 90.838133,152.83027   L 90.704793,151.76363   L 90.704793,146.69706  z "
     clip-path="url(#clipWmfPath1)"
     style="fill:#cccccc;fill-rule:evenodd;fill-opacity:1;stroke:none;" />
  <path
     id="path26"
     d="  M 99.571928,153.73026   L 99.971949,152.83027   L 100.53865,153.1636   L 101.30535,153.29693   L 102.27207,152.93027   L 102.57209,152.59695   L 102.67209,152.09696   L 102.40541,151.46364   L 101.47203,150.73032   L 100.872,150.43032   L 100.2053,150.06366   L 99.838609,149.63034   L 99.538593,148.39703   L 99.671934,147.69704   L 100.13862,147.06372   L 100.77199,146.66373   L 101.57203,146.49707   L 102.60542,146.59707   L 103.30546,146.86373   L 102.93877,147.69704   L 102.37208,147.43038   L 101.57203,147.33038   L 100.83866,147.63038   L 100.57198,147.99704   L 100.50531,148.39703   L 100.53865,148.86369   L 100.872,149.29701   L 101.67204,149.797   L 102.23874,150.097   L 103.33879,150.93031   L 103.60547,152.19695   L 103.4388,152.99694   L 102.93877,153.59693   L 102.17207,154.06358   L 101.13868,154.23025   L 100.27197,154.09692   L 99.571928,153.73026  z "
     clip-path="url(#clipWmfPath1)"
     style="fill:#cccccc;fill-rule:evenodd;fill-opacity:1;stroke:none;" />
  <path
     id="path28"
     d="  M 108.37239,147.63038   L 108.37239,149.63034   L 110.67251,149.63034   L 110.67251,150.49699   L 108.37239,150.49699   L 108.37239,153.1636   L 111.7059,153.1636   L 111.7059,154.06358   L 107.33901,154.06358   L 107.33901,146.69706   L 111.7059,146.69706   L 111.7059,147.63038   L 108.37239,147.63038  z "
     clip-path="url(#clipWmfPath1)"
     style="fill:#cccccc;fill-rule:evenodd;fill-opacity:1;stroke:none;" />
  <path
     id="path30"
     d="  M 116.90618,147.53038   L 116.77284,147.19705   L 115.87279,147.49705   L 115.10608,147.23039   L 114.80607,146.4304   L 115.10608,145.59709   L 115.87279,145.23043   L 116.70617,145.59709   L 117.07285,146.46374   L 116.97285,146.89706   L 116.7395,147.23039   L 115.87279,147.49705   L 115.03941,147.19705   L 114.90607,147.53038   L 115.87279,147.89704   L 116.93951,147.49705   L 117.3062,147.03039   L 117.4062,146.39707   L 116.97285,145.33042   L 115.87279,144.83043   L 114.8394,145.33042   L 114.40605,146.4304   L 114.8394,147.49705   L 115.87279,147.89704   L 116.90618,147.53038  z "
     clip-path="url(#clipWmfPath1)"
     style="fill:#cfcfcf;fill-rule:nonzero;fill-opacity:1;stroke:#cfcfcf;stroke-width:0.033335093px;stroke-linecap:round;stroke-linejoin:round;stroke-miterlimit:4;stroke-dasharray:none;stroke-opacity:1;" />
  <path
     id="path32"
     d="  M 116.43949,147.43038   L 115.83945,146.56373   L 115.57277,146.56373   L 115.57277,147.43038   L 115.33943,147.43038   L 115.33943,145.39709   L 115.53944,145.39709   L 115.80612,145.36376   L 116.37282,145.56375   L 116.57283,146.03041   L 116.43949,146.36374   L 116.20614,146.56373   L 116.70617,147.43038   L 116.43949,147.43038  z    M 115.57277,145.69708   L 115.57277,146.36374   L 115.73945,146.36374   L 116.20614,146.19707   L 116.30615,145.93041   L 116.20614,145.76375   L 115.73945,145.66375   L 115.57277,145.69708  z   "
     clip-path="url(#clipWmfPath1)"
     style="fill:#cccccc;fill-rule:evenodd;fill-opacity:1;stroke:none;" />
  <path
     id="path34"
     d="  M 48.035872,146.86373   L 47.735856,147.73038   L 47.135824,147.46372   L 46.202441,147.36372   L 45.369064,147.59705   L 44.669027,148.2637   L 44.269006,149.23035   L 44.135666,150.43032   L 44.269006,151.59697   L 44.669027,152.49695   L 45.369064,153.09694   L 46.202441,153.29693   L 47.135824,153.09694   L 47.869196,152.53028   L 48.402558,153.3636   L 47.402505,154.03025   L 46.169106,154.23025   L 44.835703,153.99692   L 43.83565,153.1636   L 43.268953,151.96363   L 43.035607,150.36366   L 43.268953,148.86369   L 43.868985,147.63038   L 44.935708,146.76373   L 46.202441,146.49707   L 47.269165,146.59707   L 48.035872,146.86373  z "
     clip-path="url(#clipWmfPath1)"
     style="fill:#ffffff;fill-rule:evenodd;fill-opacity:1;stroke:none;" />
  <path
     id="path36"
     d="  M 56.002959,154.16358   L 53.969519,150.93031   L 52.936131,150.93031   L 52.936131,154.16358   L 52.002748,154.16358   L 52.002748,146.79706   L 52.702785,146.76373   L 53.769508,146.6304   L 54.902901,146.76373   L 55.702944,147.16372   L 56.169635,147.86371   L 56.33631,148.86369   L 56.002959,150.097   L 54.969571,150.76365   L 57.069682,154.16358   L 56.002959,154.16358  z    M 53.069471,147.69704   L 53.069471,150.19699   L 53.736173,150.23033   L 54.469545,150.16366   L 54.969571,149.93033   L 55.336257,149.53034   L 55.436263,148.86369   L 55.302922,148.33036   L 54.969571,147.99704   L 54.402875,147.76371   L 53.569497,147.66371   L 53.069471,147.69704  z   "
     clip-path="url(#clipWmfPath1)"
     style="fill:#ffffff;fill-rule:evenodd;fill-opacity:1;stroke:none;" />
  <path
     id="path38"
     d="  M 60.169846,150.29699   L 60.369857,148.83035   L 60.936553,147.59705   L 61.936606,146.79706   L 63.103335,146.5304   L 64.470073,146.76373   L 65.436791,147.49705   L 66.070158,148.69702   L 66.270169,150.29699   L 66.070158,151.89696   L 65.436791,153.13027   L 64.470073,153.93025   L 63.103335,154.23025   L 61.903271,153.93025   L 60.936553,153.09694   L 60.369857,151.86363   L 60.169846,150.29699  z    M 61.303239,150.39699   L 61.36991,151.5303   L 61.736596,152.43028   L 62.303292,153.13027   L 63.103335,153.29693   L 64.003382,153.13027   L 64.670084,152.53028   L 65.070105,151.66363   L 65.236781,150.39699   L 65.10344,149.09702   L 64.703419,148.1637   L 64.036717,147.59705   L 63.103335,147.39705   L 62.269957,147.63038   L 61.669925,148.23037   L 61.36991,149.13035   L 61.303239,150.39699  z   "
     clip-path="url(#clipWmfPath1)"
     style="fill:#ffffff;fill-rule:evenodd;fill-opacity:1;stroke:none;" />
  <path
     id="path40"
     d="  M 33.635111,154.06358   L 32.835068,149.36368   L 31.201649,154.13025   L 31.001638,154.13025   L 29.301548,149.36368   L 28.501506,154.06358   L 27.534788,154.06358   L 28.901527,146.7304   L 29.401554,146.7304   L 31.068308,152.03029   L 32.668393,146.7304   L 33.135084,146.7304   L 34.601828,154.06358   L 33.635111,154.06358  z "
     clip-path="url(#clipWmfPath1)"
     style="fill:#ffffff;fill-rule:evenodd;fill-opacity:1;stroke:none;" />
  <path
     id="path42"
     d="  M 38.135349,154.06358   L 38.135349,146.69706   L 39.168736,146.69706   L 39.168736,154.06358   L 38.135349,154.06358  z "
     clip-path="url(#clipWmfPath1)"
     style="fill:#ffffff;fill-rule:evenodd;fill-opacity:1;stroke:none;" />
  <path
     id="path44"
     d="  M 108.73908,54.832236   L 108.73908,37.999239   L 136.04052,37.999239   L 136.04052,54.832236   L 108.73908,54.832236  z "
     clip-path="url(#clipWmfPath1)"
     style="fill:#000000;fill-rule:evenodd;fill-opacity:1;stroke:none;" />
  <path
     id="path46"
     d="  M 108.73908,54.832236   L 108.73908,37.999239   L 136.04052,37.999239   L 136.04052,54.832236   L 108.73908,54.832236  z "
     clip-path="url(#clipWmfPath1)"
     style="fill:none;stroke:#000000;stroke-width:0.033335093px;stroke-linecap:round;stroke-linejoin:round;stroke-miterlimit:4;stroke-dasharray:none;stroke-opacity:1;" />
  <path
     id="path48"
     d="  M 114.80607,50.332326   L 114.80607,42.499149   L 133.37371,42.499149   L 133.37371,50.332326   L 114.80607,50.332326  z "
     clip-path="url(#clipWmfPath1)"
     style="fill:#d9d9d9;fill-rule:evenodd;fill-opacity:1;stroke:none;" />
  <path
     id="path50"
     d="  M 114.80607,50.332326   L 114.80607,42.499149   L 133.37371,42.499149   L 133.37371,50.332326   L 114.80607,50.332326  z "
     clip-path="url(#clipWmfPath1)"
     style="fill:none;stroke:#000000;stroke-width:0.033335093px;stroke-linecap:round;stroke-linejoin:round;stroke-miterlimit:4;stroke-dasharray:none;stroke-opacity:1;" />
  <path
     id="path52"
     d="  M 108.73908,52.732278   L 108.73908,39.665873   L 128.74014,39.665873   L 128.74014,41.899161   L 119.40631,41.899161   L 117.4062,42.499149   L 117.4062,50.298993   L 119.40631,50.965647   L 128.74014,50.965647   L 128.74014,52.732278   L 108.73908,52.732278  z "
     clip-path="url(#clipWmfPath1)"
     style="fill:#bfbfbf;fill-rule:nonzero;fill-opacity:1;stroke:none;" />
  <path
     id="path54"
     d="  M 108.73908,52.732278   L 108.73908,39.665873   L 128.74014,39.665873   L 128.74014,41.899161   L 119.40631,41.899161   L 117.4062,42.499149   L 117.4062,50.298993   L 119.40631,50.965647   L 128.74014,50.965647   L 128.74014,52.732278   L 108.73908,52.732278  z "
     clip-path="url(#clipWmfPath1)"
     style="fill:none;stroke:#000000;stroke-width:0.033335093px;stroke-linecap:round;stroke-linejoin:round;stroke-miterlimit:4;stroke-dasharray:none;stroke-opacity:1;" />
  <path
     id="path56"
     d="  M 136.04052,50.665653   L 136.04052,42.165823   L 143.07423,42.165823   L 143.07423,50.665653   L 136.04052,50.665653  z "
     clip-path="url(#clipWmfPath1)"
     style="fill:#d9d9d9;fill-rule:evenodd;fill-opacity:1;stroke:none;" />
  <path
     id="path58"
     d="  M 136.04052,50.665653   L 136.04052,42.165823   L 143.07423,42.165823   L 143.07423,50.665653   L 136.04052,50.665653  z "
     clip-path="url(#clipWmfPath1)"
     style="fill:none;stroke:#000000;stroke-width:0.033335093px;stroke-linecap:round;stroke-linejoin:round;stroke-miterlimit:4;stroke-dasharray:none;stroke-opacity:1;" />
  <path
     id="path60"
     d="  M 108.73908,50.032332   L 108.73908,42.799143   L 117.4062,42.799143   L 117.4062,50.032332   L 108.73908,50.032332  z "
     clip-path="url(#clipWmfPath1)"
     style="fill:#666666;fill-rule:evenodd;fill-opacity:1;stroke:none;" />
  <path
     id="path62"
     d="  M 108.73908,50.032332   L 108.73908,42.799143   L 117.4062,42.799143   L 117.4062,50.032332   L 108.73908,50.032332  z "
     clip-path="url(#clipWmfPath1)"
     style="fill:none;stroke:#000000;stroke-width:0.033335093px;stroke-linecap:round;stroke-linejoin:round;stroke-miterlimit:4;stroke-dasharray:none;stroke-opacity:1;" />
  <path
     id="path64"
     d="  M 108.70574,74.098517   L 108.70574,57.26552   L 136.00719,57.26552   L 136.00719,74.098517   L 108.70574,74.098517  z "
     clip-path="url(#clipWmfPath1)"
     style="fill:#000000;fill-rule:evenodd;fill-opacity:1;stroke:none;" />
  <path
     id="path66"
     d="  M 108.70574,74.098517   L 108.70574,57.26552   L 136.00719,57.26552   L 136.00719,74.098517   L 108.70574,74.098517  z "
     clip-path="url(#clipWmfPath1)"
     style="fill:none;stroke:#000000;stroke-width:0.033335093px;stroke-linecap:round;stroke-linejoin:round;stroke-miterlimit:4;stroke-dasharray:none;stroke-opacity:1;" />
  <path
     id="path68"
     d="  M 114.77273,69.598607   L 114.77273,61.76543   L 133.34038,61.76543   L 133.34038,69.598607   L 114.77273,69.598607  z "
     clip-path="url(#clipWmfPath1)"
     style="fill:#d9d9d9;fill-rule:evenodd;fill-opacity:1;stroke:none;" />
  <path
     id="path70"
     d="  M 114.77273,69.598607   L 114.77273,61.76543   L 133.34038,61.76543   L 133.34038,69.598607   L 114.77273,69.598607  z "
     clip-path="url(#clipWmfPath1)"
     style="fill:none;stroke:#000000;stroke-width:0.033335093px;stroke-linecap:round;stroke-linejoin:round;stroke-miterlimit:4;stroke-dasharray:none;stroke-opacity:1;" />
  <path
     id="path72"
     d="  M 108.70574,71.998559   L 108.70574,58.932154   L 128.7068,58.932154   L 128.7068,61.165442   L 119.37297,61.165442   L 117.37287,61.76543   L 117.37287,69.565274   L 119.37297,70.231928   L 128.7068,70.231928   L 128.7068,71.998559   L 108.70574,71.998559  z "
     clip-path="url(#clipWmfPath1)"
     style="fill:#bfbfbf;fill-rule:nonzero;fill-opacity:1;stroke:none;" />
  <path
     id="path74"
     d="  M 108.70574,71.998559   L 108.70574,58.932154   L 128.7068,58.932154   L 128.7068,61.165442   L 119.37297,61.165442   L 117.37287,61.76543   L 117.37287,69.565274   L 119.37297,70.231928   L 128.7068,70.231928   L 128.7068,71.998559   L 108.70574,71.998559  z "
     clip-path="url(#clipWmfPath1)"
     style="fill:none;stroke:#000000;stroke-width:0.033335093px;stroke-linecap:round;stroke-linejoin:round;stroke-miterlimit:4;stroke-dasharray:none;stroke-opacity:1;" />
  <path
     id="path76"
     d="  M 136.00719,69.931934   L 136.00719,61.432104   L 143.04089,61.432104   L 143.04089,69.931934   L 136.00719,69.931934  z "
     clip-path="url(#clipWmfPath1)"
     style="fill:#d9d9d9;fill-rule:evenodd;fill-opacity:1;stroke:none;" />
  <path
     id="path78"
     d="  M 136.00719,69.931934   L 136.00719,61.432104   L 143.04089,61.432104   L 143.04089,69.931934   L 136.00719,69.931934  z "
     clip-path="url(#clipWmfPath1)"
     style="fill:none;stroke:#000000;stroke-width:0.033335093px;stroke-linecap:round;stroke-linejoin:round;stroke-miterlimit:4;stroke-dasharray:none;stroke-opacity:1;" />
  <path
     id="path80"
     d="  M 108.70574,69.298613   L 108.70574,62.065424   L 117.37287,62.065424   L 117.37287,69.298613   L 108.70574,69.298613  z "
     clip-path="url(#clipWmfPath1)"
     style="fill:#666666;fill-rule:evenodd;fill-opacity:1;stroke:none;" />
  <path
     id="path82"
     d="  M 108.70574,69.298613   L 108.70574,62.065424   L 117.37287,62.065424   L 117.37287,69.298613   L 108.70574,69.298613  z "
     clip-path="url(#clipWmfPath1)"
     style="fill:none;stroke:#000000;stroke-width:0.033335093px;stroke-linecap:round;stroke-linejoin:round;stroke-miterlimit:4;stroke-dasharray:none;stroke-opacity:1;" />
  <path
     id="path84"
     d="  M 108.73908,93.331465   L 108.73908,76.498469   L 136.04052,76.498469   L 136.04052,93.331465   L 108.73908,93.331465  z "
     clip-path="url(#clipWmfPath1)"
     style="fill:#000000;fill-rule:evenodd;fill-opacity:1;stroke:none;" />
  <path
     id="path86"
     d="  M 108.73908,93.331465   L 108.73908,76.498469   L 136.04052,76.498469   L 136.04052,93.331465   L 108.73908,93.331465  z "
     clip-path="url(#clipWmfPath1)"
     style="fill:none;stroke:#000000;stroke-width:0.033335093px;stroke-linecap:round;stroke-linejoin:round;stroke-miterlimit:4;stroke-dasharray:none;stroke-opacity:1;" />
  <path
     id="path88"
     d="  M 114.80607,88.831555   L 114.80607,80.998379   L 133.37371,80.998379   L 133.37371,88.831555   L 114.80607,88.831555  z "
     clip-path="url(#clipWmfPath1)"
     style="fill:#d9d9d9;fill-rule:evenodd;fill-opacity:1;stroke:none;" />
  <path
     id="path90"
     d="  M 114.80607,88.831555   L 114.80607,80.998379   L 133.37371,80.998379   L 133.37371,88.831555   L 114.80607,88.831555  z "
     clip-path="url(#clipWmfPath1)"
     style="fill:none;stroke:#000000;stroke-width:0.033335093px;stroke-linecap:round;stroke-linejoin:round;stroke-miterlimit:4;stroke-dasharray:none;stroke-opacity:1;" />
  <path
     id="path92"
     d="  M 108.73908,91.231507   L 108.73908,78.165102   L 128.74014,78.165102   L 128.74014,80.398391   L 119.40631,80.398391   L 117.4062,80.998379   L 117.4062,88.798223   L 119.40631,89.464876   L 128.74014,89.464876   L 128.74014,91.231507   L 108.73908,91.231507  z "
     clip-path="url(#clipWmfPath1)"
     style="fill:#bfbfbf;fill-rule:nonzero;fill-opacity:1;stroke:none;" />
  <path
     id="path94"
     d="  M 108.73908,91.231507   L 108.73908,78.165102   L 128.74014,78.165102   L 128.74014,80.398391   L 119.40631,80.398391   L 117.4062,80.998379   L 117.4062,88.798223   L 119.40631,89.464876   L 128.74014,89.464876   L 128.74014,91.231507   L 108.73908,91.231507  z "
     clip-path="url(#clipWmfPath1)"
     style="fill:none;stroke:#000000;stroke-width:0.033335093px;stroke-linecap:round;stroke-linejoin:round;stroke-miterlimit:4;stroke-dasharray:none;stroke-opacity:1;" />
  <path
     id="path96"
     d="  M 136.04052,89.164882   L 136.04052,80.665052   L 143.07423,80.665052   L 143.07423,89.164882   L 136.04052,89.164882  z "
     clip-path="url(#clipWmfPath1)"
     style="fill:#d9d9d9;fill-rule:evenodd;fill-opacity:1;stroke:none;" />
  <path
     id="path98"
     d="  M 136.04052,89.164882   L 136.04052,80.665052   L 143.07423,80.665052   L 143.07423,89.164882   L 136.04052,89.164882  z "
     clip-path="url(#clipWmfPath1)"
     style="fill:none;stroke:#000000;stroke-width:0.033335093px;stroke-linecap:round;stroke-linejoin:round;stroke-miterlimit:4;stroke-dasharray:none;stroke-opacity:1;" />
  <path
     id="path100"
     d="  M 108.73908,88.531561   L 108.73908,81.298373   L 117.4062,81.298373   L 117.4062,88.531561   L 108.73908,88.531561  z "
     clip-path="url(#clipWmfPath1)"
     style="fill:#666666;fill-rule:evenodd;fill-opacity:1;stroke:none;" />
  <path
     id="path102"
     d="  M 108.73908,88.531561   L 108.73908,81.298373   L 117.4062,81.298373   L 117.4062,88.531561   L 108.73908,88.531561  z "
     clip-path="url(#clipWmfPath1)"
     style="fill:none;stroke:#000000;stroke-width:0.033335093px;stroke-linecap:round;stroke-linejoin:round;stroke-miterlimit:4;stroke-dasharray:none;stroke-opacity:1;" />
  <path
     id="path104"
     d="  M 108.73908,35.565955   L 108.73908,18.732958   L 136.04052,18.732958   L 136.04052,35.565955   L 108.73908,35.565955  z "
     clip-path="url(#clipWmfPath1)"
     style="fill:#000000;fill-rule:evenodd;fill-opacity:1;stroke:none;" />
  <path
     id="path106"
     d="  M 108.73908,35.565955   L 108.73908,18.732958   L 136.04052,18.732958   L 136.04052,35.565955   L 108.73908,35.565955  z "
     clip-path="url(#clipWmfPath1)"
     style="fill:none;stroke:#000000;stroke-width:0.033335093px;stroke-linecap:round;stroke-linejoin:round;stroke-miterlimit:4;stroke-dasharray:none;stroke-opacity:1;" />
  <path
     id="path108"
     d="  M 114.80607,31.066045   L 114.80607,23.232868   L 133.37371,23.232868   L 133.37371,31.066045   L 114.80607,31.066045  z "
     clip-path="url(#clipWmfPath1)"
     style="fill:#d9d9d9;fill-rule:evenodd;fill-opacity:1;stroke:none;" />
  <path
     id="path110"
     d="  M 114.80607,31.066045   L 114.80607,23.232868   L 133.37371,23.232868   L 133.37371,31.066045   L 114.80607,31.066045  z "
     clip-path="url(#clipWmfPath1)"
     style="fill:none;stroke:#000000;stroke-width:0.033335093px;stroke-linecap:round;stroke-linejoin:round;stroke-miterlimit:4;stroke-dasharray:none;stroke-opacity:1;" />
  <path
     id="path112"
     d="  M 108.73908,33.465997   L 108.73908,20.399592   L 128.74014,20.399592   L 128.74014,22.63288   L 119.40631,22.63288   L 117.4062,23.232868   L 117.4062,31.032712   L 119.40631,31.699366   L 128.74014,31.699366   L 128.74014,33.465997   L 108.73908,33.465997  z "
     clip-path="url(#clipWmfPath1)"
     style="fill:#bfbfbf;fill-rule:nonzero;fill-opacity:1;stroke:none;" />
  <path
     id="path114"
     d="  M 108.73908,33.465997   L 108.73908,20.399592   L 128.74014,20.399592   L 128.74014,22.63288   L 119.40631,22.63288   L 117.4062,23.232868   L 117.4062,31.032712   L 119.40631,31.699366   L 128.74014,31.699366   L 128.74014,33.465997   L 108.73908,33.465997  z "
     clip-path="url(#clipWmfPath1)"
     style="fill:none;stroke:#000000;stroke-width:0.033335093px;stroke-linecap:round;stroke-linejoin:round;stroke-miterlimit:4;stroke-dasharray:none;stroke-opacity:1;" />
  <path
     id="path116"
     d="  M 136.04052,31.399372   L 136.04052,22.899542   L 143.07423,22.899542   L 143.07423,31.399372   L 136.04052,31.399372  z "
     clip-path="url(#clipWmfPath1)"
     style="fill:#d9d9d9;fill-rule:evenodd;fill-opacity:1;stroke:none;" />
  <path
     id="path118"
     d="  M 136.04052,31.399372   L 136.04052,22.899542   L 143.07423,22.899542   L 143.07423,31.399372   L 136.04052,31.399372  z "
     clip-path="url(#clipWmfPath1)"
     style="fill:none;stroke:#000000;stroke-width:0.033335093px;stroke-linecap:round;stroke-linejoin:round;stroke-miterlimit:4;stroke-dasharray:none;stroke-opacity:1;" />
  <path
     id="path120"
     d="  M 108.73908,30.766051   L 108.73908,23.532862   L 117.4062,23.532862   L 117.4062,30.766051   L 108.73908,30.766051  z "
     clip-path="url(#clipWmfPath1)"
     style="fill:#666666;fill-rule:evenodd;fill-opacity:1;stroke:none;" />
  <path
     id="path122"
     d="  M 108.73908,30.766051   L 108.73908,23.532862   L 117.4062,23.532862   L 117.4062,30.766051   L 108.73908,30.766051  z "
     clip-path="url(#clipWmfPath1)"
     style="fill:none;stroke:#000000;stroke-width:0.033335093px;stroke-linecap:round;stroke-linejoin:round;stroke-miterlimit:4;stroke-dasharray:none;stroke-opacity:1;" />
  <path
     id="path124"
     d="  M 156.90829,29.799404   L 156.90829,32.599348   L 157.07497,33.299333   L 157.47499,33.832656   L 158.07502,34.165983   L 158.84173,34.265981   L 173.90919,34.265981   L 174.6759,34.13265   L 175.27593,33.732658   L 175.67595,33.13267   L 175.84263,32.399352   L 175.84263,22.932874   L 175.67595,22.199556   L 175.27593,21.6329   L 174.6759,21.266241   L 173.90919,21.13291   L 158.84173,21.13291   L 158.07502,21.299574   L 157.47499,21.766231   L 157.07497,22.432884   L 156.90829,23.199536   L 156.90829,25.732818   L 144.84099,27.732778   L 156.90829,29.799404  z "
     clip-path="url(#clipWmfPath1)"
     style="fill:#ffffff;fill-rule:nonzero;fill-opacity:1;stroke:none;" />
  <path
     id="path126"
     d="  M 144.94099,27.232788   L 144.34096,27.63278   L 144.74098,28.232768   L 156.40827,30.232728   L 156.40827,32.666013   L 156.60828,33.532662   L 157.14164,34.232648   L 157.90834,34.665973   L 158.80839,34.765971   L 173.94252,34.765971   L 174.87591,34.599307   L 175.64261,34.099317   L 176.14264,33.332666   L 176.34265,32.466017   L 176.34265,22.866209   L 176.14264,21.99956   L 175.64261,21.266241   L 174.84257,20.799584   L 173.94252,20.63292   L 158.77506,20.63292   L 157.84167,20.832916   L 157.07497,21.432904   L 156.60828,22.232888   L 156.40827,23.13287   L 156.40827,25.299494   L 144.77432,27.232788   L 144.74098,28.232768   L 156.40827,30.232728   L 156.40827,32.599348   L 156.90829,33.099337   L 157.40832,32.599348   L 157.40832,29.366079   L 147.87448,27.732778   L 157.40832,26.166143   L 157.40832,23.266201   L 157.54166,22.63288   L 157.87501,22.099558   L 158.30837,21.766231   L 158.9084,21.6329   L 173.87585,21.6329   L 174.50922,21.732898   L 174.90924,21.99956   L 175.20926,22.399552   L 175.3426,22.99954   L 175.3426,32.332686   L 175.20926,32.932674   L 174.90924,33.365999   L 174.47589,33.665993   L 173.87585,33.765991   L 158.87506,33.765991   L 158.2417,33.665993   L 157.80834,33.432664   L 157.54166,33.066005   L 157.40832,32.532682   L 157.40832,29.366079   L 144.94099,27.232788  z "
     clip-path="url(#clipWmfPath1)"
     style="fill:#000000;fill-rule:nonzero;fill-opacity:1;stroke:#000000;stroke-width:0.033335093px;stroke-linecap:round;stroke-linejoin:round;stroke-miterlimit:4;stroke-dasharray:none;stroke-opacity:1;" />
  <path
     id="path128"
     d="  M 156.87496,48.465697   L 156.87496,51.265641   L 157.04163,51.965627   L 157.44165,52.498949   L 158.04168,52.832276   L 158.80839,52.932274   L 173.87585,52.932274   L 174.64256,52.798943   L 175.24259,52.398951   L 175.64261,51.798963   L 175.80929,51.065645   L 175.80929,41.599167   L 175.64261,40.865849   L 175.24259,40.299193   L 174.64256,39.932534   L 173.87585,39.799203   L 158.80839,39.799203   L 158.04168,39.965867   L 157.44165,40.432524   L 157.04163,41.099177   L 156.87496,41.865829   L 156.87496,44.399111   L 144.80765,46.399071   L 156.87496,48.465697  z "
     clip-path="url(#clipWmfPath1)"
     style="fill:#ffffff;fill-rule:nonzero;fill-opacity:1;stroke:none;" />
  <path
     id="path130"
     d="  M 144.90766,45.899081   L 144.30763,46.299073   L 144.70765,46.899061   L 156.37493,48.899021   L 156.37493,51.332306   L 156.57494,52.198955   L 157.1083,52.898941   L 157.87501,53.332266   L 158.77506,53.432264   L 173.90919,53.432264   L 174.84257,53.265601   L 175.60928,52.765611   L 176.10931,51.998959   L 176.30932,51.13231   L 176.30932,41.532502   L 176.10931,40.665853   L 175.60928,39.932534   L 174.80924,39.465877   L 173.90919,39.299213   L 158.74172,39.299213   L 157.80834,39.499209   L 157.04163,40.099197   L 156.57494,40.899181   L 156.37493,41.799163   L 156.37493,43.965787   L 144.74098,45.899081   L 144.70765,46.899061   L 156.37493,48.899021   L 156.37493,51.265641   L 156.87496,51.765631   L 157.37498,51.265641   L 157.37498,48.032372   L 147.84115,46.399071   L 157.37498,44.832436   L 157.37498,41.932494   L 157.50832,41.299173   L 157.84167,40.765851   L 158.27503,40.432524   L 158.87506,40.299193   L 173.84252,40.299193   L 174.47589,40.399191   L 174.87591,40.665853   L 175.17592,41.065845   L 175.30926,41.665833   L 175.30926,50.998979   L 175.17592,51.598967   L 174.87591,52.032292   L 174.44255,52.332286   L 173.84252,52.432284   L 158.84173,52.432284   L 158.20836,52.332286   L 157.775,52.098957   L 157.50832,51.732298   L 157.37498,51.198975   L 157.37498,48.032372   L 144.90766,45.899081  z "
     clip-path="url(#clipWmfPath1)"
     style="fill:#000000;fill-rule:nonzero;fill-opacity:1;stroke:#000000;stroke-width:0.033335093px;stroke-linecap:round;stroke-linejoin:round;stroke-miterlimit:4;stroke-dasharray:none;stroke-opacity:1;" />
  <path
     id="path132"
     d="  M 156.90829,67.731978   L 156.90829,70.531922   L 157.07497,71.231908   L 157.47499,71.76523   L 158.07502,72.098557   L 158.84173,72.198555   L 173.90919,72.198555   L 174.6759,72.065224   L 175.27593,71.665232   L 175.67595,71.065244   L 175.84263,70.331926   L 175.84263,60.865448   L 175.67595,60.13213   L 175.27593,59.565474   L 174.6759,59.198815   L 173.90919,59.065484   L 158.84173,59.065484   L 158.07502,59.232148   L 157.47499,59.698805   L 157.07497,60.365458   L 156.90829,61.13211   L 156.90829,63.665392   L 144.84099,65.665352   L 156.90829,67.731978  z "
     clip-path="url(#clipWmfPath1)"
     style="fill:#ffffff;fill-rule:nonzero;fill-opacity:1;stroke:none;" />
  <path
     id="path134"
     d="  M 144.94099,65.165362   L 144.34096,65.565354   L 144.74098,66.165342   L 156.40827,68.165302   L 156.40827,70.598587   L 156.60828,71.465236   L 157.14164,72.165222   L 157.90834,72.598547   L 158.80839,72.698545   L 173.94252,72.698545   L 174.87591,72.531882   L 175.64261,72.031892   L 176.14264,71.26524   L 176.34265,70.398591   L 176.34265,60.798783   L 176.14264,59.932134   L 175.64261,59.198815   L 174.84257,58.732158   L 173.94252,58.565494   L 158.77506,58.565494   L 157.84167,58.76549   L 157.07497,59.365478   L 156.60828,60.165462   L 156.40827,61.065444   L 156.40827,63.232068   L 144.77432,65.165362   L 144.74098,66.165342   L 156.40827,68.165302   L 156.40827,70.531922   L 156.90829,71.031912   L 157.40832,70.531922   L 157.40832,67.298653   L 147.87448,65.665352   L 157.40832,64.098717   L 157.40832,61.198775   L 157.54166,60.565454   L 157.87501,60.032132   L 158.30837,59.698805   L 158.9084,59.565474   L 173.87585,59.565474   L 174.50922,59.665472   L 174.90924,59.932134   L 175.20926,60.332126   L 175.3426,60.932114   L 175.3426,70.26526   L 175.20926,70.865248   L 174.90924,71.298573   L 174.47589,71.598567   L 173.87585,71.698565   L 158.87506,71.698565   L 158.2417,71.598567   L 157.80834,71.365238   L 157.54166,70.998579   L 157.40832,70.465256   L 157.40832,67.298653   L 144.94099,65.165362  z "
     clip-path="url(#clipWmfPath1)"
     style="fill:#000000;fill-rule:nonzero;fill-opacity:1;stroke:#000000;stroke-width:0.033335093px;stroke-linecap:round;stroke-linejoin:round;stroke-miterlimit:4;stroke-dasharray:none;stroke-opacity:1;" />
  <path
     id="path136"
     d="  M 156.90829,87.598247   L 156.90829,90.398191   L 157.07497,91.098177   L 157.47499,91.631499   L 158.07502,91.964826   L 158.84173,92.064824   L 173.90919,92.064824   L 174.6759,91.931493   L 175.27593,91.531501   L 175.67595,90.931513   L 175.84263,90.198195   L 175.84263,80.731717   L 175.67595,79.998399   L 175.27593,79.431743   L 174.6759,79.065084   L 173.90919,78.931753   L 158.84173,78.931753   L 158.07502,79.098417   L 157.47499,79.565074   L 157.07497,80.231727   L 156.90829,80.998379   L 156.90829,83.531661   L 144.84099,85.531621   L 156.90829,87.598247  z "
     clip-path="url(#clipWmfPath1)"
     style="fill:#ffffff;fill-rule:nonzero;fill-opacity:1;stroke:none;" />
  <path
     id="path138"
     d="  M 144.94099,85.031631   L 144.34096,85.431623   L 144.74098,86.031611   L 156.40827,88.031571   L 156.40827,90.464856   L 156.60828,91.331505   L 157.14164,92.031491   L 157.90834,92.464816   L 158.80839,92.564814   L 173.94252,92.564814   L 174.87591,92.398151   L 175.64261,91.898161   L 176.14264,91.131509   L 176.34265,90.26486   L 176.34265,80.665052   L 176.14264,79.798403   L 175.64261,79.065084   L 174.84257,78.598427   L 173.94252,78.431763   L 158.77506,78.431763   L 157.84167,78.631759   L 157.07497,79.231747   L 156.60828,80.031731   L 156.40827,80.931713   L 156.40827,83.098337   L 144.77432,85.031631   L 144.74098,86.031611   L 156.40827,88.031571   L 156.40827,90.398191   L 156.90829,90.898181   L 157.40832,90.398191   L 157.40832,87.164922   L 147.87448,85.531621   L 157.40832,83.964986   L 157.40832,81.065044   L 157.54166,80.431723   L 157.87501,79.898401   L 158.30837,79.565074   L 158.9084,79.431743   L 173.87585,79.431743   L 174.50922,79.531741   L 174.90924,79.798403   L 175.20926,80.198395   L 175.3426,80.798383   L 175.3426,90.131529   L 175.20926,90.731517   L 174.90924,91.164842   L 174.47589,91.464836   L 173.87585,91.564834   L 158.87506,91.564834   L 158.2417,91.464836   L 157.80834,91.231507   L 157.54166,90.864848   L 157.40832,90.331525   L 157.40832,87.164922   L 144.94099,85.031631  z "
     clip-path="url(#clipWmfPath1)"
     style="fill:#000000;fill-rule:nonzero;fill-opacity:1;stroke:#000000;stroke-width:0.033335093px;stroke-linecap:round;stroke-linejoin:round;stroke-miterlimit:4;stroke-dasharray:none;stroke-opacity:1;" />
  <path
     id="path140"
     d="  M 60.836548,208.86249   L 70.103704,208.86249   L 70.870412,208.99582   L 71.470443,209.39581   L 71.870465,209.9958   L 72.03714,210.72912   L 72.03714,220.19559   L 71.870465,220.96224   L 71.470443,221.56223   L 70.870412,221.96222   L 70.103704,222.12889   L 48.635903,222.12889   L 47.869196,221.99556   L 47.269165,221.59556   L 46.869143,220.99558   L 46.702468,220.26226   L 46.702468,210.86245   L 46.869143,210.09579   L 47.269165,209.49581   L 47.869196,209.09581   L 48.635903,208.92915   L 57.036347,208.92915   L 58.636432,195.72942   L 60.836548,208.86249  z "
     clip-path="url(#clipWmfPath1)"
     style="fill:#ffffff;fill-rule:nonzero;fill-opacity:1;stroke:none;" />
  <path
     id="path142"
     d="  M 59.136458,195.62942   L 58.536427,195.22943   L 58.136405,195.82941   L 60.403192,209.36248   L 70.070369,209.36248   L 70.670401,209.46247   L 71.103757,209.76247   L 71.403773,210.19579   L 71.537114,210.79578   L 71.537114,220.12893   L 71.403773,220.76225   L 71.103757,221.19557   L 70.670401,221.49557   L 70.037034,221.6289   L 48.669238,221.6289   L 48.069207,221.5289   L 47.635851,221.22891   L 47.335835,220.79558   L 47.202494,220.19559   L 47.202494,210.92911   L 47.335835,210.29579   L 47.635851,209.86247   L 48.069207,209.56247   L 48.702574,209.42914   L 57.469704,209.42914   L 58.703102,199.26268   L 60.403192,209.36248   L 70.103704,209.36248   L 70.603731,208.86249   L 70.103704,208.3625   L 61.269904,208.3625   L 59.136458,195.62942   L 58.136405,195.66275   L 56.602991,208.42916   L 48.569233,208.42916   L 47.669186,208.62916   L 46.902478,209.12915   L 46.402452,209.8958   L 46.202441,210.79578   L 46.202441,220.32892   L 46.402452,221.19557   L 46.902478,221.96222   L 47.669186,222.46221   L 48.602568,222.62888   L 70.170375,222.62888   L 71.070422,222.42888   L 71.837129,221.92889   L 72.337156,221.16224   L 72.537166,220.26226   L 72.537166,210.66245   L 72.337156,209.7958   L 71.837129,209.02915   L 71.070422,208.52916   L 70.13704,208.3625   L 61.269904,208.3625   L 59.136458,195.62942  z "
     clip-path="url(#clipWmfPath1)"
     style="fill:#000000;fill-rule:nonzero;fill-opacity:1;stroke:#000000;stroke-width:0.033335093px;stroke-linecap:round;stroke-linejoin:round;stroke-miterlimit:4;stroke-dasharray:none;stroke-opacity:1;" />
  <g
     id="g144"
     clip-path="url(#clipWmfPath1)" />
  <g
     id="g156"
     clip-path="url(#clipWmfPath1)">
    <text
       id="text154"
       y="0.000000"
       x="0.000000"
       transform="matrix(1.000000,-0.000000,0.000000,1.000000,50.335993,220.162260)"
       style="font-size:10.687500px;font-style:normal;font-variant:normal;font-weight:400;font-stretch:Condensed;line-height:125.000000%;letter-spacing:0px;word-spacing:0px;fill:#000000;fill-opacity:1;stroke:none;font-family:Helvetica-Narrow;text-align:start;text-anchor:start;"
       xml:space="preserve"><tspan
         id="tspan152"
         y="0.000000"
         x="0.000000"><tspan
           id="tspan146"
           style="fill:#000000;font-size:10.687500px;font-style:normal;font-variant:normal;font-weight:400;font-stretch:Condensed;font-family:Helvetica-Narrow;"
           dy="0.000000"
           dx="0.000000">C</tspan><tspan
           id="tspan148"
           style="fill:#000000;font-size:10.687500px;font-style:normal;font-variant:normal;font-weight:400;font-stretch:Condensed;font-family:Helvetica-Narrow;"
           dy="0.000000"
           dx="-0.249314">N</tspan><tspan
           id="tspan150"
           style="fill:#000000;font-size:10.687500px;font-style:normal;font-variant:normal;font-weight:400;font-stretch:Condensed;font-family:Helvetica-Narrow;"
           dy="0.000000"
           dx="-0.016423">1</tspan></tspan></text>
  </g>
  <g
     id="g158"
     clip-path="url(#clipWmfPath1)" />
  <g
     id="g168"
     clip-path="url(#clipWmfPath1)">
    <text
       id="text166"
       y="0.000000"
       x="0.000000"
       transform="matrix(1.000000,-0.000000,0.000000,1.000000,161.108513,31.766031)"
       style="font-size:10.687500px;font-style:normal;font-variant:normal;font-weight:400;font-stretch:Condensed;line-height:125.000000%;letter-spacing:0px;word-spacing:0px;fill:#000000;fill-opacity:1;stroke:none;font-family:Helvetica-Narrow;text-align:start;text-anchor:start;"
       xml:space="preserve"><tspan
         id="tspan164"
         y="0.000000"
         x="0.000000"><tspan
           id="tspan160"
           style="fill:#000000;font-size:10.687500px;font-style:normal;font-variant:normal;font-weight:400;font-stretch:Condensed;font-family:Helvetica-Narrow;"
           dy="0.000000"
           dx="0.000000">J</tspan><tspan
           id="tspan162"
           style="fill:#000000;font-size:10.687500px;font-style:normal;font-variant:normal;font-weight:400;font-stretch:Condensed;font-family:Helvetica-Narrow;"
           dy="0.000000"
           dx="0.028602">1</tspan></tspan></text>
  </g>
  <g
     id="g170"
     clip-path="url(#clipWmfPath1)" />
  <g
     id="g180"
     clip-path="url(#clipWmfPath1)">
    <text
       id="text178"
       y="0.000000"
       x="0.000000"
       transform="matrix(1.000000,-0.000000,0.000000,1.000000,161.708545,50.432324)"
       style="font-size:10.687500px;font-style:normal;font-variant:normal;font-weight:400;font-stretch:Condensed;line-height:125.000000%;letter-spacing:0px;word-spacing:0px;fill:#000000;fill-opacity:1;stroke:none;font-family:Helvetica-Narrow;text-align:start;text-anchor:start;"
       xml:space="preserve"><tspan
         id="tspan176"
         y="0.000000"
         x="0.000000"><tspan
           id="tspan172"
           style="fill:#000000;font-size:10.687500px;font-style:normal;font-variant:normal;font-weight:400;font-stretch:Condensed;font-family:Helvetica-Narrow;"
           dy="0.000000"
           dx="0.000000">J</tspan><tspan
           id="tspan174"
           style="fill:#000000;font-size:10.687500px;font-style:normal;font-variant:normal;font-weight:400;font-stretch:Condensed;font-family:Helvetica-Narrow;"
           dy="0.000000"
           dx="0.028602">2</tspan></tspan></text>
  </g>
  <g
     id="g182"
     clip-path="url(#clipWmfPath1)" />
  <g
     id="g192"
     clip-path="url(#clipWmfPath1)">
    <text
       id="text190"
       y="0.000000"
       x="0.000000"
       transform="matrix(1.000000,-0.000000,0.000000,1.000000,161.108513,69.698605)"
       style="font-size:10.687500px;font-style:normal;font-variant:normal;font-weight:400;font-stretch:Condensed;line-height:125.000000%;letter-spacing:0px;word-spacing:0px;fill:#000000;fill-opacity:1;stroke:none;font-family:Helvetica-Narrow;text-align:start;text-anchor:start;"
       xml:space="preserve"><tspan
         id="tspan188"
         y="0.000000"
         x="0.000000"><tspan
           id="tspan184"
           style="fill:#000000;font-size:10.687500px;font-style:normal;font-variant:normal;font-weight:400;font-stretch:Condensed;font-family:Helvetica-Narrow;"
           dy="0.000000"
           dx="0.000000">J</tspan><tspan
           id="tspan186"
           style="fill:#000000;font-size:10.687500px;font-style:normal;font-variant:normal;font-weight:400;font-stretch:Condensed;font-family:Helvetica-Narrow;"
           dy="0.000000"
           dx="0.028602">3</tspan></tspan></text>
  </g>
  <g
     id="g194"
     clip-path="url(#clipWmfPath1)" />
  <g
     id="g204"
     clip-path="url(#clipWmfPath1)">
    <text
       id="text202"
       y="0.000000"
       x="0.000000"
       transform="matrix(1.000000,-0.000000,0.000000,1.000000,161.708545,90.164862)"
       style="font-size:10.687500px;font-style:normal;font-variant:normal;font-weight:400;font-stretch:Condensed;line-height:125.000000%;letter-spacing:0px;word-spacing:0px;fill:#000000;fill-opacity:1;stroke:none;font-family:Helvetica-Narrow;text-align:start;text-anchor:start;"
       xml:space="preserve"><tspan
         id="tspan200"
         y="0.000000"
         x="0.000000"><tspan
           id="tspan196"
           style="fill:#000000;font-size:10.687500px;font-style:normal;font-variant:normal;font-weight:400;font-stretch:Condensed;font-family:Helvetica-Narrow;"
           dy="0.000000"
           dx="0.000000">J</tspan><tspan
           id="tspan198"
           style="fill:#000000;font-size:10.687500px;font-style:normal;font-variant:normal;font-weight:400;font-stretch:Condensed;font-family:Helvetica-Narrow;"
           dy="0.000000"
           dx="0.028602">4</tspan></tspan></text>
  </g>
  <g
     id="g206"
     clip-path="url(#clipWmfPath1)" />
  <g
     id="g222"
     clip-path="url(#clipWmfPath1)">
    <text
       id="text220"
       y="0.000000"
       x="0.000000"
       transform="matrix(1.000000,-0.000000,0.000000,1.000000,93.738287,168.429962)"
       style="font-size:9.312500px;font-style:normal;font-variant:normal;font-weight:400;font-stretch:Condensed;line-height:125.000000%;letter-spacing:0px;word-spacing:0px;fill:#000000;fill-opacity:1;stroke:none;font-family:Helvetica-Narrow;text-align:start;text-anchor:start;"
       xml:space="preserve"><tspan
         id="tspan218"
         y="0.000000"
         x="0.000000"><tspan
           id="tspan208"
           style="fill:#000000;font-size:9.312500px;font-style:normal;font-variant:normal;font-weight:400;font-stretch:Condensed;font-family:Helvetica-Narrow;"
           dy="0.000000"
           dx="0.000000">3</tspan><tspan
           id="tspan210"
           style="fill:#000000;font-size:9.312500px;font-style:normal;font-variant:normal;font-weight:400;font-stretch:Condensed;font-family:Helvetica-Narrow;"
           dy="0.000000"
           dx="0.183712">5</tspan><tspan
           id="tspan212"
           style="fill:#000000;font-size:9.312500px;font-style:normal;font-variant:normal;font-weight:400;font-stretch:Condensed;font-family:Helvetica-Narrow;"
           dy="0.000000"
           dx="0.183712">5</tspan><tspan
           id="tspan214"
           style="fill:#000000;font-size:9.312500px;font-style:normal;font-variant:normal;font-weight:400;font-stretch:Condensed;font-family:Helvetica-Narrow;"
           dy="0.000000"
           dx="0.217047">8</tspan><tspan
           id="tspan216"
           style="fill:#000000;font-size:9.312500px;font-style:normal;font-variant:normal;font-weight:400;font-stretch:Condensed;font-family:Helvetica-Narrow;"
           dy="0.000000"
           dx="0.183712">6</tspan></tspan></text>
  </g>
  <g
     id="g224"
     clip-path="url(#clipWmfPath1)" />
  <g
     id="g274"
     clip-path="url(#clipWmfPath1)">
    <text
       id="text238"
       y="0.000000"
       x="0.000000"
       transform="matrix(1.000000,-0.000000,0.000000,1.000000,4.000211,255.694882)"
       style="font-size:10.687500px;font-style:normal;font-variant:normal;font-weight:400;font-stretch:Condensed;line-height:125.000000%;letter-spacing:0px;word-spacing:0px;fill:#000000;fill-opacity:1;stroke:none;font-family:Helvetica-Narrow;text-align:start;text-anchor:start;"
       xml:space="preserve"><tspan
         id="tspan236"
         y="0.000000"
         x="0.000000"><tspan
           id="tspan226"
           style="fill:#000000;font-size:10.687500px;font-style:normal;font-variant:normal;font-weight:400;font-stretch:Condensed;font-family:Helvetica-Narrow;"
           dy="0.000000"
           dx="0.000000">A</tspan><tspan
           id="tspan228"
           style="fill:#000000;font-size:10.687500px;font-style:normal;font-variant:normal;font-weight:400;font-stretch:Condensed;font-family:Helvetica-Narrow;"
           dy="0.000000"
           dx="-0.068847">U</tspan><tspan
           id="tspan230"
           style="fill:#000000;font-size:10.687500px;font-style:normal;font-variant:normal;font-weight:400;font-stretch:Condensed;font-family:Helvetica-Narrow;"
           dy="0.000000"
           dx="-0.049758">D</tspan><tspan
           id="tspan232"
           style="fill:#000000;font-size:10.687500px;font-style:normal;font-variant:normal;font-weight:400;font-stretch:Condensed;font-family:Helvetica-Narrow;"
           dy="0.000000"
           dx="-0.049758">I</tspan><tspan
           id="tspan234"
           style="fill:#000000;font-size:10.687500px;font-style:normal;font-variant:normal;font-weight:400;font-stretch:Condensed;font-family:Helvetica-Narrow;"
           dy="0.000000"
           dx="-0.059714">O</tspan></tspan></text>
    <text
       id="text260"
       y="0.000000"
       x="38.168684"
       transform="matrix(1.000000,-0.000000,0.000000,1.000000,4.000211,255.694882)"
       style="font-size:10.687500px;font-style:normal;font-variant:normal;font-weight:400;font-stretch:Condensed;line-height:125.000000%;letter-spacing:0px;word-spacing:0px;fill:#000000;fill-opacity:1;stroke:none;font-family:Helvetica-Narrow;text-align:start;text-anchor:start;"
       xml:space="preserve"><tspan
         id="tspan258"
         y="0.000000"
         x="38.168684"><tspan
           id="tspan240"
           style="fill:#000000;font-size:10.687500px;font-style:normal;font-variant:normal;font-weight:400;font-stretch:Condensed;font-family:Helvetica-Narrow;"
           dy="0.000000"
           dx="0.000000">E</tspan><tspan
           id="tspan242"
           style="fill:#000000;font-size:10.687500px;font-style:normal;font-variant:normal;font-weight:400;font-stretch:Condensed;font-family:Helvetica-Narrow;"
           dy="0.000000"
           dx="-0.068847">X</tspan><tspan
           id="tspan244"
           style="fill:#000000;font-size:10.687500px;font-style:normal;font-variant:normal;font-weight:400;font-stretch:Condensed;font-family:Helvetica-Narrow;"
           dy="0.000000"
           dx="-0.068847">T</tspan><tspan
           id="tspan246"
           style="fill:#000000;font-size:10.687500px;font-style:normal;font-variant:normal;font-weight:400;font-stretch:Condensed;font-family:Helvetica-Narrow;"
           dy="0.000000"
           dx="0.022757">E</tspan><tspan
           id="tspan248"
           style="fill:#000000;font-size:10.687500px;font-style:normal;font-variant:normal;font-weight:400;font-stretch:Condensed;font-family:Helvetica-Narrow;"
           dy="0.000000"
           dx="-0.068847">N</tspan><tspan
           id="tspan250"
           style="fill:#000000;font-size:10.687500px;font-style:normal;font-variant:normal;font-weight:400;font-stretch:Condensed;font-family:Helvetica-Narrow;"
           dy="0.000000"
           dx="-0.016423">S</tspan><tspan
           id="tspan252"
           style="fill:#000000;font-size:10.687500px;font-style:normal;font-variant:normal;font-weight:400;font-stretch:Condensed;font-family:Helvetica-Narrow;"
           dy="0.000000"
           dx="-0.068847">I</tspan><tspan
           id="tspan254"
           style="fill:#000000;font-size:10.687500px;font-style:normal;font-variant:normal;font-weight:400;font-stretch:Condensed;font-family:Helvetica-Narrow;"
           dy="0.000000"
           dx="-0.059714">O</tspan><tspan
           id="tspan256"
           style="fill:#000000;font-size:10.687500px;font-style:normal;font-variant:normal;font-weight:400;font-stretch:Condensed;font-family:Helvetica-Narrow;"
           dy="0.000000"
           dx="-0.041357">N</tspan></tspan></text>
    <text
       id="text272"
       y="0.000000"
       x="103.838820"
       transform="matrix(1.000000,-0.000000,0.000000,1.000000,4.000211,255.694882)"
       style="font-size:10.687500px;font-style:normal;font-variant:normal;font-weight:400;font-stretch:Condensed;line-height:125.000000%;letter-spacing:0px;word-spacing:0px;fill:#000000;fill-opacity:1;stroke:none;font-family:Helvetica-Narrow;text-align:start;text-anchor:start;"
       xml:space="preserve"><tspan
         id="tspan270"
         y="0.000000"
         x="103.838820"><tspan
           id="tspan262"
           style="fill:#000000;font-size:10.687500px;font-style:normal;font-variant:normal;font-weight:400;font-stretch:Condensed;font-family:Helvetica-Narrow;"
           dy="0.000000"
           dx="0.000000">C</tspan><tspan
           id="tspan264"
           style="fill:#000000;font-size:10.687500px;font-style:normal;font-variant:normal;font-weight:400;font-stretch:Condensed;font-family:Helvetica-Narrow;"
           dy="0.000000"
           dx="-0.049758">A</tspan><tspan
           id="tspan266"
           style="fill:#000000;font-size:10.687500px;font-style:normal;font-variant:normal;font-weight:400;font-stretch:Condensed;font-family:Helvetica-Narrow;"
           dy="0.000000"
           dx="-0.068847">R</tspan><tspan
           id="tspan268"
           style="fill:#000000;font-size:10.687500px;font-style:normal;font-variant:normal;font-weight:400;font-stretch:Condensed;font-family:Helvetica-Narrow;"
           dy="0.000000"
           dx="-0.049758">D</tspan></tspan></text>
  </g>
  <path
     id="path276"
     d="  M 22.467854,195.29609   L 23.467907,195.29609   L 23.467907,187.69624   L 22.467854,187.69624   L 22.467854,195.29609  z "
     clip-path="url(#clipWmfPath1)"
     style="fill:#000000;fill-rule:nonzero;fill-opacity:1;stroke:#000000;stroke-width:0.033335093px;stroke-linecap:round;stroke-linejoin:round;stroke-miterlimit:4;stroke-dasharray:none;stroke-opacity:1;" />
  <path
     id="path278"
     d="  M 27.068097,195.29609   L 28.06815,195.29609   L 28.06815,187.69624   L 27.068097,187.69624   L 27.068097,195.29609  z "
     clip-path="url(#clipWmfPath1)"
     style="fill:#000000;fill-rule:nonzero;fill-opacity:1;stroke:#000000;stroke-width:0.033335093px;stroke-linecap:round;stroke-linejoin:round;stroke-miterlimit:4;stroke-dasharray:none;stroke-opacity:1;" />
  <path
     id="path280"
     d="  M 31.66834,195.29609   L 32.668393,195.29609   L 32.668393,187.69624   L 31.66834,187.69624   L 31.66834,195.29609  z "
     clip-path="url(#clipWmfPath1)"
     style="fill:#000000;fill-rule:nonzero;fill-opacity:1;stroke:#000000;stroke-width:0.033335093px;stroke-linecap:round;stroke-linejoin:round;stroke-miterlimit:4;stroke-dasharray:none;stroke-opacity:1;" />
  <path
     id="path282"
     d="  M 36.268583,195.29609   L 37.268636,195.29609   L 37.268636,187.69624   L 36.268583,187.69624   L 36.268583,195.29609  z "
     clip-path="url(#clipWmfPath1)"
     style="fill:#000000;fill-rule:nonzero;fill-opacity:1;stroke:#000000;stroke-width:0.033335093px;stroke-linecap:round;stroke-linejoin:round;stroke-miterlimit:4;stroke-dasharray:none;stroke-opacity:1;" />
  <path
     id="path284"
     d="  M 41.002167,195.29609   L 42.00222,195.29609   L 42.00222,187.69624   L 41.002167,187.69624   L 41.002167,195.29609  z "
     clip-path="url(#clipWmfPath1)"
     style="fill:#000000;fill-rule:nonzero;fill-opacity:1;stroke:#000000;stroke-width:0.033335093px;stroke-linecap:round;stroke-linejoin:round;stroke-miterlimit:4;stroke-dasharray:none;stroke-opacity:1;" />
  <path
     id="path286"
     d="  M 45.53574,195.29609   L 46.535792,195.29609   L 46.535792,187.69624   L 45.53574,187.69624   L 45.53574,195.29609  z "
     clip-path="url(#clipWmfPath1)"
     style="fill:#000000;fill-rule:nonzero;fill-opacity:1;stroke:#000000;stroke-width:0.033335093px;stroke-linecap:round;stroke-linejoin:round;stroke-miterlimit:4;stroke-dasharray:none;stroke-opacity:1;" />
  <path
     id="path288"
     d="  M 50.135983,195.29609   L 51.136036,195.29609   L 51.136036,187.69624   L 50.135983,187.69624   L 50.135983,195.29609  z "
     clip-path="url(#clipWmfPath1)"
     style="fill:#000000;fill-rule:nonzero;fill-opacity:1;stroke:#000000;stroke-width:0.033335093px;stroke-linecap:round;stroke-linejoin:round;stroke-miterlimit:4;stroke-dasharray:none;stroke-opacity:1;" />
  <path
     id="path290"
     d="  M 54.802896,195.29609   L 55.802949,195.29609   L 55.802949,187.69624   L 54.802896,187.69624   L 54.802896,195.29609  z "
     clip-path="url(#clipWmfPath1)"
     style="fill:#000000;fill-rule:nonzero;fill-opacity:1;stroke:#000000;stroke-width:0.033335093px;stroke-linecap:round;stroke-linejoin:round;stroke-miterlimit:4;stroke-dasharray:none;stroke-opacity:1;" />
  <path
     id="path292"
     d="  M 59.403139,195.29609   L 60.403192,195.29609   L 60.403192,187.69624   L 59.403139,187.69624   L 59.403139,195.29609  z "
     clip-path="url(#clipWmfPath1)"
     style="fill:#000000;fill-rule:nonzero;fill-opacity:1;stroke:#000000;stroke-width:0.033335093px;stroke-linecap:round;stroke-linejoin:round;stroke-miterlimit:4;stroke-dasharray:none;stroke-opacity:1;" />
  <path
     id="path294"
     d="  M 64.070052,195.29609   L 65.070105,195.29609   L 65.070105,187.69624   L 64.070052,187.69624   L 64.070052,195.29609  z "
     clip-path="url(#clipWmfPath1)"
     style="fill:#000000;fill-rule:nonzero;fill-opacity:1;stroke:#000000;stroke-width:0.033335093px;stroke-linecap:round;stroke-linejoin:round;stroke-miterlimit:4;stroke-dasharray:none;stroke-opacity:1;" />
  <path
     id="path296"
     d="  M 18.567648,187.76291   L 18.567648,172.69654   L 115.17275,172.69654   L 115.20609,187.76291   L 18.567648,187.76291  z "
     clip-path="url(#clipWmfPath1)"
     style="fill:#bfbfbf;fill-rule:nonzero;fill-opacity:1;stroke:none;" />
  <path
     id="path298"
     d="  M 18.567648,187.76291   L 18.567648,172.69654   L 115.17275,172.69654   L 115.20609,187.76291   L 18.567648,187.76291  z "
     clip-path="url(#clipWmfPath1)"
     style="fill:none;stroke:#000000;stroke-width:0.033335093px;stroke-linecap:round;stroke-linejoin:round;stroke-miterlimit:4;stroke-dasharray:none;stroke-opacity:1;" />
  <path
     id="path300"
     d="  M 68.403615,195.32942   L 69.403667,195.32942   L 69.403667,187.72958   L 68.403615,187.72958   L 68.403615,195.32942  z "
     clip-path="url(#clipWmfPath1)"
     style="fill:#000000;fill-rule:nonzero;fill-opacity:1;stroke:#000000;stroke-width:0.033335093px;stroke-linecap:round;stroke-linejoin:round;stroke-miterlimit:4;stroke-dasharray:none;stroke-opacity:1;" />
  <path
     id="path302"
     d="  M 73.003858,195.32942   L 74.003911,195.32942   L 74.003911,187.72958   L 73.003858,187.72958   L 73.003858,195.32942  z "
     clip-path="url(#clipWmfPath1)"
     style="fill:#000000;fill-rule:nonzero;fill-opacity:1;stroke:#000000;stroke-width:0.033335093px;stroke-linecap:round;stroke-linejoin:round;stroke-miterlimit:4;stroke-dasharray:none;stroke-opacity:1;" />
  <path
     id="path304"
     d="  M 77.604101,195.32942   L 78.604154,195.32942   L 78.604154,187.72958   L 77.604101,187.72958   L 77.604101,195.32942  z "
     clip-path="url(#clipWmfPath1)"
     style="fill:#000000;fill-rule:nonzero;fill-opacity:1;stroke:#000000;stroke-width:0.033335093px;stroke-linecap:round;stroke-linejoin:round;stroke-miterlimit:4;stroke-dasharray:none;stroke-opacity:1;" />
  <path
     id="path306"
     d="  M 82.204344,195.32942   L 83.204397,195.32942   L 83.204397,187.72958   L 82.204344,187.72958   L 82.204344,195.32942  z "
     clip-path="url(#clipWmfPath1)"
     style="fill:#000000;fill-rule:nonzero;fill-opacity:1;stroke:#000000;stroke-width:0.033335093px;stroke-linecap:round;stroke-linejoin:round;stroke-miterlimit:4;stroke-dasharray:none;stroke-opacity:1;" />
  <path
     id="path308"
     d="  M 86.937927,195.32942   L 87.93798,195.32942   L 87.93798,187.72958   L 86.937927,187.72958   L 86.937927,195.32942  z "
     clip-path="url(#clipWmfPath1)"
     style="fill:#000000;fill-rule:nonzero;fill-opacity:1;stroke:#000000;stroke-width:0.033335093px;stroke-linecap:round;stroke-linejoin:round;stroke-miterlimit:4;stroke-dasharray:none;stroke-opacity:1;" />
  <path
     id="path310"
     d="  M 91.4715,195.32942   L 92.471553,195.32942   L 92.471553,187.72958   L 91.4715,187.72958   L 91.4715,195.32942  z "
     clip-path="url(#clipWmfPath1)"
     style="fill:#000000;fill-rule:nonzero;fill-opacity:1;stroke:#000000;stroke-width:0.033335093px;stroke-linecap:round;stroke-linejoin:round;stroke-miterlimit:4;stroke-dasharray:none;stroke-opacity:1;" />
  <path
     id="path312"
     d="  M 96.071743,195.32942   L 97.071796,195.32942   L 97.071796,187.72958   L 96.071743,187.72958   L 96.071743,195.32942  z "
     clip-path="url(#clipWmfPath1)"
     style="fill:#000000;fill-rule:nonzero;fill-opacity:1;stroke:#000000;stroke-width:0.033335093px;stroke-linecap:round;stroke-linejoin:round;stroke-miterlimit:4;stroke-dasharray:none;stroke-opacity:1;" />
  <path
     id="path314"
     d="  M 100.73866,195.32942   L 101.73871,195.32942   L 101.73871,187.72958   L 100.73866,187.72958   L 100.73866,195.32942  z "
     clip-path="url(#clipWmfPath1)"
     style="fill:#000000;fill-rule:nonzero;fill-opacity:1;stroke:#000000;stroke-width:0.033335093px;stroke-linecap:round;stroke-linejoin:round;stroke-miterlimit:4;stroke-dasharray:none;stroke-opacity:1;" />
  <path
     id="path316"
     d="  M 105.3389,195.32942   L 106.33895,195.32942   L 106.33895,187.72958   L 105.3389,187.72958   L 105.3389,195.32942  z "
     clip-path="url(#clipWmfPath1)"
     style="fill:#000000;fill-rule:nonzero;fill-opacity:1;stroke:#000000;stroke-width:0.033335093px;stroke-linecap:round;stroke-linejoin:round;stroke-miterlimit:4;stroke-dasharray:none;stroke-opacity:1;" />
  <path
     id="path318"
     d="  M 110.00581,195.32942   L 111.00587,195.32942   L 111.00587,187.72958   L 110.00581,187.72958   L 110.00581,195.32942  z "
     clip-path="url(#clipWmfPath1)"
     style="fill:#000000;fill-rule:nonzero;fill-opacity:1;stroke:#000000;stroke-width:0.033335093px;stroke-linecap:round;stroke-linejoin:round;stroke-miterlimit:4;stroke-dasharray:none;stroke-opacity:1;" />
</svg>
